<?xml version="1.0" encoding="UTF-8" standalone="no"?>
<!DOCTYPE svg PUBLIC "-//W3C//DTD SVG 1.1//EN" "http://www.w3.org/Graphics/SVG/1.1/DTD/svg11.dtd">
<svg width="100%" height="100%" viewBox="0 0 543 1503" version="1.1" xmlns="http://www.w3.org/2000/svg" xmlns:xlink="http://www.w3.org/1999/xlink" xml:space="preserve" xmlns:serif="http://www.serif.com/" style="fill-rule:evenodd;clip-rule:evenodd;stroke-linecap:round;stroke-linejoin:round;stroke-miterlimit:1.5;">
    <g transform="matrix(1,0,0,1,-1487.85,-8626.51)">
        <g transform="matrix(1,0,0,1,-289.285,47.4512)">
            <g transform="matrix(1,0,0,1,1284.25,2820.26)">
                <g>
                    <g transform="matrix(0.706263,0,0,0.665444,90.518,2401.61)">
                        <path d="M759.074,7084.01C763.801,7076.9 747.146,7101.95 655.185,7108.52C500.484,7119.57 600.123,7225.75 678.062,7253.74C848.081,7314.8 1057.27,7316.21 1225.27,7241.94C1318.68,7200.65 1369.51,7160.24 1305.09,7119.24C1267.4,7095.25 1147.01,7078.76 1147.01,7078.76C1147.01,7078.76 1069.81,6944.1 1092.01,6884.56C1162.81,6694.61 855.823,6633.07 794.369,6911.55C794.265,6912.02 752.523,7066.58 759.074,7084.01Z" style="fill:rgb(245,127,31);"/>
                    </g>
                    <g transform="matrix(1,0,0,1,-76.6846,-31.8493)">
                        <g transform="matrix(0.706263,0,0,0.665444,167.203,2433.46)">
                            <path d="M759.074,7084.01C763.801,7076.9 747.146,7101.95 655.185,7108.52C500.484,7119.57 600.123,7225.75 678.062,7253.74C848.081,7314.8 1057.27,7316.21 1225.27,7241.94C1318.68,7200.65 1369.51,7160.24 1305.09,7119.24C1267.4,7095.25 1147.01,7078.76 1147.01,7078.76C1147.01,7078.76 1069.81,6944.1 1092.01,6884.56C1162.81,6694.61 855.823,6633.07 794.369,6911.55C794.265,6912.02 752.523,7066.58 759.074,7084.01Z" style="fill:none;stroke:black;stroke-width:8.5px;"/>
                        </g>
                        <path d="M701.127,7147.66C731.615,7164.08 750.959,7178.22 826.011,7179.51C880.481,7180.45 923.852,7168.26 946.952,7160.03C957.993,7156.09 971.915,7151.25 978.53,7144.88" style="fill:none;stroke:black;stroke-width:2.92px;"/>
                        <path d="M941.652,7006.78C933.427,7009.24 945.727,7028.65 899.961,7038.28" style="fill:none;stroke:black;stroke-width:2.92px;"/>
                    </g>
                    <g transform="matrix(1.26769,0,0,1.33625,-1478.84,-3054.91)">
                        <path d="M1614.61,7630.58L1619.71,7644.76L1636.23,7644.76L1622.87,7653.52L1627.97,7667.7L1614.61,7658.94L1601.25,7667.7L1606.35,7653.52L1592.99,7644.76L1609.51,7644.76L1614.61,7630.58Z" style="stroke:black;stroke-width:2.24px;"/>
                    </g>
                    <g transform="matrix(1.26769,0,0,1.33625,-1387.89,-3032.17)">
                        <path d="M1614.61,7630.58L1619.71,7644.76L1636.23,7644.76L1622.87,7653.52L1627.97,7667.7L1614.61,7658.94L1601.25,7667.7L1606.35,7653.52L1592.99,7644.76L1609.51,7644.76L1614.61,7630.58Z" style="stroke:black;stroke-width:2.24px;"/>
                    </g>
                    <g transform="matrix(1.26769,0,0,1.33625,-1290.28,-3020.91)">
                        <path d="M1614.61,7630.58L1619.71,7644.76L1636.23,7644.76L1622.87,7653.52L1627.97,7667.7L1614.61,7658.94L1601.25,7667.7L1606.35,7653.52L1592.99,7644.76L1609.51,7644.76L1614.61,7630.58Z" style="stroke:black;stroke-width:2.24px;"/>
                    </g>
                    <g transform="matrix(1.26769,0,0,1.33625,-1184.85,-3030.66)">
                        <path d="M1614.61,7630.58L1619.71,7644.76L1636.23,7644.76L1622.87,7653.52L1627.97,7667.7L1614.61,7658.94L1601.25,7667.7L1606.35,7653.52L1592.99,7644.76L1609.51,7644.76L1614.61,7630.58Z" style="stroke:black;stroke-width:2.24px;"/>
                    </g>
                    <g transform="matrix(1.26769,0,0,1.33625,-1095.31,-3058.99)">
                        <path d="M1614.61,7630.58L1619.71,7644.76L1636.23,7644.76L1622.87,7653.52L1627.97,7667.7L1614.61,7658.94L1601.25,7667.7L1606.35,7653.52L1592.99,7644.76L1609.51,7644.76L1614.61,7630.58Z" style="stroke:black;stroke-width:2.24px;"/>
                    </g>
                    <g transform="matrix(1.26769,0,0,1.33625,-1291.53,-3168.09)">
                        <path d="M1614.61,7630.58L1619.71,7644.76L1636.23,7644.76L1622.87,7653.52L1627.97,7667.7L1614.61,7658.94L1601.25,7667.7L1606.35,7653.52L1592.99,7644.76L1609.51,7644.76L1614.61,7630.58Z" style="stroke:black;stroke-width:2.24px;"/>
                    </g>
                </g>
            </g>
            <g transform="matrix(1,0,0,1,-461.652,2726.48)">
                <g transform="matrix(1,0,0,1,-74.0364,-73.164)">
                    <g transform="matrix(0.706263,0,0,0.665444,1910.45,2383.04)">
                        <path d="M759.074,7084.01C763.801,7076.9 747.146,7101.95 655.185,7108.52C500.484,7119.57 600.123,7225.75 678.062,7253.74C848.081,7314.8 1057.27,7316.21 1225.27,7241.94C1318.68,7200.65 1369.51,7160.24 1305.09,7119.24C1267.4,7095.25 1147.01,7078.76 1147.01,7078.76C1147.01,7078.76 1069.81,6944.1 1092.01,6884.56C1162.81,6694.61 855.823,6633.07 794.369,6911.55C794.265,6912.02 752.523,7066.58 759.074,7084.01Z" style="fill:rgb(255,242,0);"/>
                    </g>
                    <g transform="matrix(1,0,0,1,1743.25,-50.4251)">
                        <g>
                            <g>
                                <g transform="matrix(0.706263,0,0,0.665444,167.203,2433.46)">
                                    <path d="M759.074,7084.01C763.801,7076.9 747.146,7101.95 655.185,7108.52C500.484,7119.57 600.123,7225.75 678.062,7253.74C848.081,7314.8 1057.27,7316.21 1225.27,7241.94C1318.68,7200.65 1369.51,7160.24 1305.09,7119.24C1267.4,7095.25 1147.01,7078.76 1147.01,7078.76C1147.01,7078.76 1069.81,6944.1 1092.01,6884.56C1162.81,6694.61 855.823,6633.07 794.369,6911.55C794.265,6912.02 752.523,7066.58 759.074,7084.01Z" style="fill:none;stroke:black;stroke-width:8.5px;"/>
                                </g>
                                <path d="M701.127,7147.66C731.615,7164.08 750.959,7178.22 826.011,7179.51C906.515,7180.9 962.773,7153.61 965.182,7152.81" style="fill:none;stroke:black;stroke-width:2.92px;"/>
                                <path d="M941.652,7006.78C933.427,7009.24 945.727,7028.65 899.961,7038.28" style="fill:none;stroke:black;stroke-width:2.92px;"/>
                            </g>
                        </g>
                    </g>
                </g>
                <path d="M2324.2,7064.93C2299.88,7062.4 2283.86,7086.86 2308.77,7102.56C2326.24,7113.58 2360.09,7096.29 2335.99,7071.65C2330.29,7065.83 2328.7,7065.4 2324.2,7064.93Z" style="stroke:black;stroke-width:5.83px;"/>
                <g transform="matrix(1,0,0,1,-3.82811,11.2637)">
                    <path d="M2421.09,7068.52C2407.28,7063.84 2392.32,7070.12 2388.87,7080.91C2385.46,7091.59 2389.29,7105.36 2404.67,7113.41C2420.38,7121.64 2434.8,7110.77 2436.34,7096.66C2437.59,7085.25 2433.1,7072.59 2421.09,7068.52Z" style="stroke:black;stroke-width:5.83px;"/>
                </g>
                <g transform="matrix(1,0,0,1,5.47838,-5.82239)">
                    <path d="M2508.7,7101.08C2488.75,7085.2 2462.33,7123.48 2488.62,7138.84C2521.72,7158.19 2530.86,7118.73 2508.7,7101.08Z" style="stroke:black;stroke-width:5.83px;"/>
                </g>
                <g transform="matrix(1,0,0,1.20969,11.6665,-1466.99)">
                    <path d="M2591.22,7071.03C2585.21,7068.3 2562.36,7063.06 2560.75,7081.56C2558.31,7109.59 2588.88,7105.21 2596.81,7098C2613.91,7082.45 2597.23,7073.77 2591.22,7071.03Z" style="stroke:black;stroke-width:5.26px;"/>
                </g>
                <path d="M2703.9,7067.32C2678.38,7037.63 2635.2,7097.91 2682.45,7103.47C2702.16,7105.78 2716.95,7083.08 2703.9,7067.32Z" style="stroke:black;stroke-width:5.83px;"/>
                <path d="M2515.31,6944.58C2508.11,6943.6 2464.2,6941.63 2477.75,6977.77C2479.99,6983.75 2494.51,7002.7 2520.95,6983.6C2536.49,6972.38 2522.51,6945.55 2515.31,6944.58Z" style="stroke:black;stroke-width:5.83px;"/>
            </g>
            <g transform="matrix(1,0,0,1,1284.25,2449.22)">
                <g>
                    <g transform="matrix(0.706263,0,0,0.665444,90.518,2401.61)">
                        <path d="M759.074,7084.01C763.801,7076.9 747.146,7101.95 655.185,7108.52C500.484,7119.57 600.123,7225.75 678.062,7253.74C848.081,7314.8 1057.27,7316.21 1225.27,7241.94C1318.68,7200.65 1369.51,7160.24 1305.09,7119.24C1267.4,7095.25 1147.01,7078.76 1147.01,7078.76C1147.01,7078.76 1069.81,6944.1 1092.01,6884.56C1162.81,6694.61 855.823,6633.07 794.369,6911.55C794.265,6912.02 752.523,7066.58 759.074,7084.01Z" style="fill:rgb(245,127,31);"/>
                    </g>
                    <g transform="matrix(1,0,0,1,-76.6846,-31.8493)">
                        <g transform="matrix(0.706263,0,0,0.665444,167.203,2433.46)">
                            <path d="M759.074,7084.01C763.801,7076.9 747.146,7101.95 655.185,7108.52C500.484,7119.57 600.123,7225.75 678.062,7253.74C848.081,7314.8 1057.27,7316.21 1225.27,7241.94C1318.68,7200.65 1369.51,7160.24 1305.09,7119.24C1267.4,7095.25 1147.01,7078.76 1147.01,7078.76C1147.01,7078.76 1069.81,6944.1 1092.01,6884.56C1162.81,6694.61 855.823,6633.07 794.369,6911.55C794.265,6912.02 752.523,7066.58 759.074,7084.01Z" style="fill:none;stroke:black;stroke-width:8.5px;"/>
                        </g>
                        <path d="M701.127,7147.66C731.615,7164.08 750.959,7178.22 826.011,7179.51C880.481,7180.45 923.852,7168.26 946.952,7160.03C957.993,7156.09 971.915,7151.25 978.53,7144.88" style="fill:none;stroke:black;stroke-width:2.92px;"/>
                        <path d="M941.652,7006.78C933.427,7009.24 945.727,7028.65 899.961,7038.28" style="fill:none;stroke:black;stroke-width:2.92px;"/>
                    </g>
                    <g transform="matrix(1.26769,0,0,1.33625,-1478.84,-3054.91)">
                        <path d="M1614.61,7630.58L1619.71,7644.76L1636.23,7644.76L1622.87,7653.52L1627.97,7667.7L1614.61,7658.94L1601.25,7667.7L1606.35,7653.52L1592.99,7644.76L1609.51,7644.76L1614.61,7630.58Z" style="stroke:black;stroke-width:2.24px;"/>
                    </g>
                    <g transform="matrix(1.26769,0,0,1.33625,-1387.89,-3032.17)">
                        <path d="M1614.61,7630.58L1619.71,7644.76L1636.23,7644.76L1622.87,7653.52L1627.97,7667.7L1614.61,7658.94L1601.25,7667.7L1606.35,7653.52L1592.99,7644.76L1609.51,7644.76L1614.61,7630.58Z" style="stroke:black;stroke-width:2.24px;"/>
                    </g>
                    <g transform="matrix(1.26769,0,0,1.33625,-1290.28,-3020.91)">
                        <path d="M1614.61,7630.58L1619.71,7644.76L1636.23,7644.76L1622.87,7653.52L1627.97,7667.7L1614.61,7658.94L1601.25,7667.7L1606.35,7653.52L1592.99,7644.76L1609.51,7644.76L1614.61,7630.58Z" style="stroke:black;stroke-width:2.24px;"/>
                    </g>
                    <g transform="matrix(1.26769,0,0,1.33625,-1184.85,-3030.66)">
                        <path d="M1614.61,7630.58L1619.71,7644.76L1636.23,7644.76L1622.87,7653.52L1627.97,7667.7L1614.61,7658.94L1601.25,7667.7L1606.35,7653.52L1592.99,7644.76L1609.51,7644.76L1614.61,7630.58Z" style="stroke:black;stroke-width:2.24px;"/>
                    </g>
                    <g transform="matrix(1.26769,0,0,1.33625,-1095.31,-3058.99)">
                        <path d="M1614.61,7630.58L1619.71,7644.76L1636.23,7644.76L1622.87,7653.52L1627.97,7667.7L1614.61,7658.94L1601.25,7667.7L1606.35,7653.52L1592.99,7644.76L1609.51,7644.76L1614.61,7630.58Z" style="stroke:black;stroke-width:2.24px;"/>
                    </g>
                    <g transform="matrix(1.26769,0,0,1.33625,-1291.53,-3168.09)">
                        <path d="M1614.61,7630.58L1619.71,7644.76L1636.23,7644.76L1622.87,7653.52L1627.97,7667.7L1614.61,7658.94L1601.25,7667.7L1606.35,7653.52L1592.99,7644.76L1609.51,7644.76L1614.61,7630.58Z" style="stroke:black;stroke-width:2.24px;"/>
                    </g>
                </g>
            </g>
            <g transform="matrix(1,0,0,1,932.401,2351.41)">
                <g transform="matrix(1,0,0,1,351.845,-87.7042)">
                    <g transform="matrix(0.706263,0,0,0.665444,90.518,2401.61)">
                        <path d="M759.074,7084.01C763.801,7076.9 747.146,7101.95 655.185,7108.52C500.484,7119.57 600.123,7225.75 678.062,7253.74C848.081,7314.8 1057.27,7316.21 1225.27,7241.94C1318.68,7200.65 1369.51,7160.24 1305.09,7119.24C1267.4,7095.25 1147.01,7078.76 1147.01,7078.76C1147.01,7078.76 1069.81,6944.1 1092.01,6884.56C1162.81,6694.61 855.823,6633.07 794.369,6911.55C794.265,6912.02 752.523,7066.58 759.074,7084.01Z" style="fill:rgb(152,198,60);"/>
                    </g>
                    <g transform="matrix(1,0,0,1,-351.845,87.7042)">
                        <path d="M962.241,7037.07C961.107,7038.35 972.964,7029.78 976.784,7052.7C980.166,7072.99 1017.09,7052.76 1028.31,7063.12C1045.58,7079.05 1047.04,7086.74 1067.11,7074.7C1088.29,7061.99 1120.69,7101.33 1143.17,7074.35C1168.08,7044.46 1213.93,7090.97 1222.24,7053.57C1225.87,7037.22 1249.89,7054.66 1273.57,7051.5L1280.81,7044.27C1276.62,7037.02 1275.78,7035.84 1282.26,7030.08" style="fill:none;stroke:black;stroke-width:5.83px;"/>
                    </g>
                    <g transform="matrix(1,0,0,1,-351.845,87.7042)">
                        <path d="M937.135,7044.2C937.703,7046.19 943.065,7044.22 948.993,7052.12C949.645,7052.99 948.323,7075.99 966.362,7076.44C966.557,7076.44 995.056,7072.47 999.364,7083.96C1007.71,7106.21 1031.18,7073.6 1045.68,7100.18C1051.07,7110.05 1065.13,7111.11 1071.16,7103.07C1088.53,7079.9 1124.25,7131.86 1165.53,7097.86C1180.23,7085.76 1198.16,7119.27 1225.17,7096.12C1246.2,7078.1 1242.2,7096.19 1264.39,7079.91C1265.56,7079.06 1265.34,7079 1277.71,7067.75C1285.8,7060.39 1328.39,7065.68 1312.45,7045.75C1308.54,7040.86 1309.55,7040.55 1310.13,7034.17" style="fill:none;stroke:black;stroke-width:5.83px;"/>
                    </g>
                    <g transform="matrix(1,0,0,1,-351.845,87.7042)">
                        <path d="M904.812,7046.57C910.383,7046.03 923.246,7056.91 921.78,7067.17C917.29,7098.61 962.61,7075.07 965.204,7093.23C966.788,7104.32 965.21,7113.06 986.627,7107.7C1011.44,7101.5 1003.15,7131.41 1028.89,7128.55C1045.43,7126.71 1047.74,7116.3 1072.9,7130.86C1100.42,7146.8 1104.92,7108.6 1138.32,7127.39C1170.06,7145.24 1173.25,7110.81 1201.43,7123.34C1235.11,7138.3 1243.06,7104.98 1260.04,7104.13C1286.16,7102.82 1287.15,7102.02 1300.69,7081.71C1313.92,7061.87 1354.24,7081.24 1344.12,7045.81" style="fill:none;stroke:black;stroke-width:5.83px;"/>
                    </g>
                    <g transform="matrix(1,0,0,1,-351.845,87.7042)">
                        <path d="M868.266,7054.16C901.64,7057.05 870.776,7086.26 884.725,7090.91C895.786,7094.6 916.265,7093.15 916.507,7106.46C917.097,7138.88 946.19,7113.55 962.309,7122.76C992.567,7140.05 974.7,7144.57 1007.68,7139.5C1019.04,7137.75 1037.03,7157.89 1068.44,7150.04C1089.66,7144.73 1085.13,7143.34 1106.1,7149.33C1123.14,7154.19 1123.35,7140.8 1140.26,7146.43C1182.15,7160.4 1170.07,7129.61 1202.65,7143.19C1222.32,7151.39 1239.96,7119.36 1266.46,7125.99C1284.01,7130.38 1286.12,7122.55 1299.24,7110.29C1310.68,7113.12 1317.1,7114.24 1325.63,7106.49C1339.51,7093.87 1326.26,7080.21 1343.88,7086.78C1371.15,7096.95 1369.23,7056.12 1370.47,7054.88" style="fill:none;stroke:black;stroke-width:5.83px;"/>
                    </g>
                    <g transform="matrix(1,0,0,1,-76.6846,-31.8493)">
                        <g transform="matrix(0.706263,0,0,0.665444,167.203,2433.46)">
                            <path d="M759.074,7084.01C763.801,7076.9 747.146,7101.95 655.185,7108.52C500.484,7119.57 600.123,7225.75 678.062,7253.74C848.081,7314.8 1057.27,7316.21 1225.27,7241.94C1318.68,7200.65 1369.51,7160.24 1305.09,7119.24C1267.4,7095.25 1147.01,7078.76 1147.01,7078.76C1147.01,7078.76 1069.81,6944.1 1092.01,6884.56C1162.81,6694.61 855.823,6633.07 794.369,6911.55C794.265,6912.02 752.523,7066.58 759.074,7084.01Z" style="fill:none;stroke:black;stroke-width:8.5px;"/>
                        </g>
                        <path d="M701.127,7147.66C731.615,7164.08 750.959,7178.22 826.011,7179.51C906.515,7180.9 962.773,7153.61 965.182,7152.81" style="fill:none;stroke:black;stroke-width:2.92px;"/>
                    </g>
                </g>
                <path d="M984.183,7000.67C983.993,7000.34 996.537,6985.48 1006.58,7011.6C1006.92,7012.48 1017.84,7032.4 1033.54,7019.56C1035.45,7017.99 1052.34,6990.53 1070.22,7005.86C1073.43,7008.61 1080.14,7039.67 1103.81,7025.74C1115.97,7018.59 1114.1,6985.05 1142.7,7009.83C1178.14,7040.55 1184.5,6971.84 1195.29,6991.27C1196.34,6993.16 1207.91,7013.99 1220.92,6999.67C1223.02,6997.36 1220.77,6985.23 1230.2,6982.88" style="fill:none;stroke:black;stroke-width:5.83px;"/>
                <g transform="matrix(1.00469,0,0,1,-5.6848,0)">
                    <path d="M996.548,6949.7C995.972,6940.03 1021.32,6924.4 1035.31,6952.38C1056.15,6994.08 1065.58,6936.74 1090.99,6939.57C1107.57,6941.41 1098.71,6957.32 1110.44,6959.45C1148.05,6966.29 1137.1,6931.33 1161.26,6932.94C1165.8,6933.24 1180.14,6965.77 1198.82,6945.75C1199.56,6944.97 1206.93,6937.07 1211.64,6941.78" style="fill:none;stroke:black;stroke-width:5.82px;"/>
                </g>
                <g transform="matrix(0.985515,0,0,1,17.6024,0)">
                    <path d="M1015.07,6872.76C1019.5,6866.69 1047.72,6847.37 1049.45,6876.81C1050.07,6887.4 1072.31,6890.6 1082.6,6879.02C1084.93,6876.4 1104.63,6854.24 1124.58,6866.2C1134.17,6871.96 1118.75,6887.95 1136.07,6889.19C1156.93,6890.68 1150.12,6872 1170.1,6870.62C1190.93,6869.19 1183.25,6880.66 1187.78,6886.09C1196.26,6896.27 1210.19,6877.89 1214.29,6886.09C1214.57,6886.65 1214.59,6886.24 1215.17,6886.53" style="fill:none;stroke:black;stroke-width:5.88px;"/>
                </g>
                <path d="M1090.37,6800.68C1090.53,6800.39 1111.2,6789.47 1108.67,6810.96C1106.89,6826.05 1101.35,6835.36 1116.18,6832.18C1116.32,6832.15 1158.92,6802.52 1162.59,6828.2C1166.59,6856.26 1194.66,6817.89 1202.8,6829.53C1206.26,6834.47 1205.37,6836.52 1209.43,6835.71C1209.99,6835.6 1211.38,6835.32 1214.73,6830.85" style="fill:none;stroke:black;stroke-width:5.83px;"/>
            </g>
            <g transform="matrix(1,0,0,1,73.7945,2090.66)">
                <g transform="matrix(0.706263,0,0,0.665444,1300.97,2389.14)">
                    <path d="M759.074,7084.01C763.801,7076.9 747.146,7101.95 655.185,7108.52C500.484,7119.57 600.123,7225.75 678.062,7253.74C848.081,7314.8 1057.27,7316.21 1225.27,7241.94C1318.68,7200.65 1369.51,7160.24 1305.09,7119.24C1267.4,7095.25 1147.01,7078.76 1147.01,7078.76C1147.01,7078.76 1069.81,6944.1 1092.01,6884.56C1162.81,6694.61 855.823,6633.07 794.369,6911.55C794.265,6912.02 752.523,7066.58 759.074,7084.01Z" style="fill:rgb(86,203,245);"/>
                </g>
                <g transform="matrix(0.706263,0,0,0.665444,1300.97,2389.14)">
                    <path d="M759.074,7084.01C763.801,7076.9 747.146,7101.95 655.185,7108.52C500.484,7119.57 600.123,7225.75 678.062,7253.74C848.081,7314.8 1057.27,7316.21 1225.27,7241.94C1318.68,7200.65 1369.51,7160.24 1305.09,7119.24C1267.4,7095.25 1147.01,7078.76 1147.01,7078.76C1147.01,7078.76 1069.81,6944.1 1092.01,6884.56C1162.81,6694.61 855.823,6633.07 794.369,6911.55C794.265,6912.02 752.523,7066.58 759.074,7084.01Z" style="fill:none;stroke:black;stroke-width:8.5px;"/>
                </g>
                <g transform="matrix(1,0,0,1,1133.77,-44.3257)">
                    <path d="M701.127,7147.66C731.615,7164.08 750.959,7178.22 826.011,7179.51C906.515,7180.9 962.773,7153.61 965.182,7152.81" style="fill:none;stroke:black;stroke-width:2.92px;"/>
                </g>
                <g transform="matrix(1,0,0,1,1133.77,-44.3257)">
                    <path d="M941.652,7006.78C933.427,7009.24 945.727,7028.65 899.961,7038.28" style="fill:none;stroke:black;stroke-width:2.92px;"/>
                </g>
            </g>
            <g transform="matrix(1,0,0,1,-461.652,1984.4)">
                <g transform="matrix(1,0,0,1,-74.0364,-73.164)">
                    <g transform="matrix(0.706263,0,0,0.665444,1910.45,2383.04)">
                        <path d="M759.074,7084.01C763.801,7076.9 747.146,7101.95 655.185,7108.52C500.484,7119.57 600.123,7225.75 678.062,7253.74C848.081,7314.8 1057.27,7316.21 1225.27,7241.94C1318.68,7200.65 1369.51,7160.24 1305.09,7119.24C1267.4,7095.25 1147.01,7078.76 1147.01,7078.76C1147.01,7078.76 1069.81,6944.1 1092.01,6884.56C1162.81,6694.61 855.823,6633.07 794.369,6911.55C794.265,6912.02 752.523,7066.58 759.074,7084.01Z" style="fill:rgb(255,242,0);"/>
                    </g>
                    <g transform="matrix(1,0,0,1,1743.25,-50.4251)">
                        <g>
                            <g>
                                <g transform="matrix(0.706263,0,0,0.665444,167.203,2433.46)">
                                    <path d="M759.074,7084.01C763.801,7076.9 747.146,7101.95 655.185,7108.52C500.484,7119.57 600.123,7225.75 678.062,7253.74C848.081,7314.8 1057.27,7316.21 1225.27,7241.94C1318.68,7200.65 1369.51,7160.24 1305.09,7119.24C1267.4,7095.25 1147.01,7078.76 1147.01,7078.76C1147.01,7078.76 1069.81,6944.1 1092.01,6884.56C1162.81,6694.61 855.823,6633.07 794.369,6911.55C794.265,6912.02 752.523,7066.58 759.074,7084.01Z" style="fill:none;stroke:black;stroke-width:8.5px;"/>
                                </g>
                                <path d="M701.127,7147.66C731.615,7164.08 750.959,7178.22 826.011,7179.51C906.515,7180.9 962.773,7153.61 965.182,7152.81" style="fill:none;stroke:black;stroke-width:2.92px;"/>
                                <path d="M941.652,7006.78C933.427,7009.24 945.727,7028.65 899.961,7038.28" style="fill:none;stroke:black;stroke-width:2.92px;"/>
                            </g>
                        </g>
                    </g>
                </g>
                <path d="M2324.2,7064.93C2299.88,7062.4 2283.86,7086.86 2308.77,7102.56C2326.24,7113.58 2360.09,7096.29 2335.99,7071.65C2330.29,7065.83 2328.7,7065.4 2324.2,7064.93Z" style="stroke:black;stroke-width:5.83px;"/>
                <g transform="matrix(1,0,0,1,-3.82811,11.2637)">
                    <path d="M2421.09,7068.52C2407.28,7063.84 2392.32,7070.12 2388.87,7080.91C2385.46,7091.59 2389.29,7105.36 2404.67,7113.41C2420.38,7121.64 2434.8,7110.77 2436.34,7096.66C2437.59,7085.25 2433.1,7072.59 2421.09,7068.52Z" style="stroke:black;stroke-width:5.83px;"/>
                </g>
                <g transform="matrix(1,0,0,1,5.47838,-5.82239)">
                    <path d="M2508.7,7101.08C2488.75,7085.2 2462.33,7123.48 2488.62,7138.84C2521.72,7158.19 2530.86,7118.73 2508.7,7101.08Z" style="stroke:black;stroke-width:5.83px;"/>
                </g>
                <g transform="matrix(1,0,0,1.20969,11.6665,-1466.99)">
                    <path d="M2591.22,7071.03C2585.21,7068.3 2562.36,7063.06 2560.75,7081.56C2558.31,7109.59 2588.88,7105.21 2596.81,7098C2613.91,7082.45 2597.23,7073.77 2591.22,7071.03Z" style="stroke:black;stroke-width:5.26px;"/>
                </g>
                <path d="M2703.9,7067.32C2678.38,7037.63 2635.2,7097.91 2682.45,7103.47C2702.16,7105.78 2716.95,7083.08 2703.9,7067.32Z" style="stroke:black;stroke-width:5.83px;"/>
                <path d="M2515.31,6944.58C2508.11,6943.6 2464.2,6941.63 2477.75,6977.77C2479.99,6983.75 2494.51,7002.7 2520.95,6983.6C2536.49,6972.38 2522.51,6945.55 2515.31,6944.58Z" style="stroke:black;stroke-width:5.83px;"/>
            </g>
            <g transform="matrix(1,0,0,1,1284.25,1707.15)">
                <g>
                    <g transform="matrix(0.706263,0,0,0.665444,90.518,2401.61)">
                        <path d="M759.074,7084.01C763.801,7076.9 747.146,7101.95 655.185,7108.52C500.484,7119.57 600.123,7225.75 678.062,7253.74C848.081,7314.8 1057.27,7316.21 1225.27,7241.94C1318.68,7200.65 1369.51,7160.24 1305.09,7119.24C1267.4,7095.25 1147.01,7078.76 1147.01,7078.76C1147.01,7078.76 1069.81,6944.1 1092.01,6884.56C1162.81,6694.61 855.823,6633.07 794.369,6911.55C794.265,6912.02 752.523,7066.58 759.074,7084.01Z" style="fill:rgb(245,127,31);"/>
                    </g>
                    <g transform="matrix(1,0,0,1,-76.6846,-31.8493)">
                        <g transform="matrix(0.706263,0,0,0.665444,167.203,2433.46)">
                            <path d="M759.074,7084.01C763.801,7076.9 747.146,7101.95 655.185,7108.52C500.484,7119.57 600.123,7225.75 678.062,7253.74C848.081,7314.8 1057.27,7316.21 1225.27,7241.94C1318.68,7200.65 1369.51,7160.24 1305.09,7119.24C1267.4,7095.25 1147.01,7078.76 1147.01,7078.76C1147.01,7078.76 1069.81,6944.1 1092.01,6884.56C1162.81,6694.61 855.823,6633.07 794.369,6911.55C794.265,6912.02 752.523,7066.58 759.074,7084.01Z" style="fill:none;stroke:black;stroke-width:8.5px;"/>
                        </g>
                        <path d="M701.127,7147.66C731.615,7164.08 750.959,7178.22 826.011,7179.51C880.481,7180.45 923.852,7168.26 946.952,7160.03C957.993,7156.09 971.915,7151.25 978.53,7144.88" style="fill:none;stroke:black;stroke-width:2.92px;"/>
                        <path d="M941.652,7006.78C933.427,7009.24 945.727,7028.65 899.961,7038.28" style="fill:none;stroke:black;stroke-width:2.92px;"/>
                    </g>
                    <g transform="matrix(1.26769,0,0,1.33625,-1478.84,-3054.91)">
                        <path d="M1614.61,7630.58L1619.71,7644.76L1636.23,7644.76L1622.87,7653.52L1627.97,7667.7L1614.61,7658.94L1601.25,7667.7L1606.35,7653.52L1592.99,7644.76L1609.51,7644.76L1614.61,7630.58Z" style="stroke:black;stroke-width:2.24px;"/>
                    </g>
                    <g transform="matrix(1.26769,0,0,1.33625,-1387.89,-3032.17)">
                        <path d="M1614.61,7630.58L1619.71,7644.76L1636.23,7644.76L1622.87,7653.52L1627.97,7667.7L1614.61,7658.94L1601.25,7667.7L1606.35,7653.52L1592.99,7644.76L1609.51,7644.76L1614.61,7630.58Z" style="stroke:black;stroke-width:2.24px;"/>
                    </g>
                    <g transform="matrix(1.26769,0,0,1.33625,-1290.28,-3020.91)">
                        <path d="M1614.61,7630.58L1619.71,7644.76L1636.23,7644.76L1622.87,7653.52L1627.97,7667.7L1614.61,7658.94L1601.25,7667.7L1606.35,7653.52L1592.99,7644.76L1609.51,7644.76L1614.61,7630.58Z" style="stroke:black;stroke-width:2.24px;"/>
                    </g>
                    <g transform="matrix(1.26769,0,0,1.33625,-1184.85,-3030.66)">
                        <path d="M1614.61,7630.58L1619.71,7644.76L1636.23,7644.76L1622.87,7653.52L1627.97,7667.7L1614.61,7658.94L1601.25,7667.7L1606.35,7653.52L1592.99,7644.76L1609.51,7644.76L1614.61,7630.58Z" style="stroke:black;stroke-width:2.24px;"/>
                    </g>
                    <g transform="matrix(1.26769,0,0,1.33625,-1095.31,-3058.99)">
                        <path d="M1614.61,7630.58L1619.71,7644.76L1636.23,7644.76L1622.87,7653.52L1627.97,7667.7L1614.61,7658.94L1601.25,7667.7L1606.35,7653.52L1592.99,7644.76L1609.51,7644.76L1614.61,7630.58Z" style="stroke:black;stroke-width:2.24px;"/>
                    </g>
                    <g transform="matrix(1.26769,0,0,1.33625,-1291.53,-3168.09)">
                        <path d="M1614.61,7630.58L1619.71,7644.76L1636.23,7644.76L1622.87,7653.52L1627.97,7667.7L1614.61,7658.94L1601.25,7667.7L1606.35,7653.52L1592.99,7644.76L1609.51,7644.76L1614.61,7630.58Z" style="stroke:black;stroke-width:2.24px;"/>
                    </g>
                </g>
            </g>
        </g>
    </g>
</svg>
