<?xml version="1.0" encoding="UTF-8" standalone="no"?>
<svg
   width="100%"
   height="100%"
   viewBox="0 0 1904 1731"
   version="1.1"
   xml:space="preserve"
   style="fill-rule:evenodd;clip-rule:evenodd;stroke-linecap:round;stroke-linejoin:round;stroke-miterlimit:1.5;"
   id="svg87"
   sodipodi:docname="2026-LT_04_hats_D-ans.svg"
   inkscape:version="1.4.3 (0d15f75, 2025-12-25)"
   xmlns:inkscape="http://www.inkscape.org/namespaces/inkscape"
   xmlns:sodipodi="http://sodipodi.sourceforge.net/DTD/sodipodi-0.dtd"
   xmlns="http://www.w3.org/2000/svg"
   xmlns:svg="http://www.w3.org/2000/svg"><defs
   id="defs87">
        
    
            
            
            
            
            
            
            
            
            
        </defs><sodipodi:namedview
   id="namedview87"
   pagecolor="#ffffff"
   bordercolor="#000000"
   borderopacity="0.25"
   inkscape:showpageshadow="2"
   inkscape:pageopacity="0.0"
   inkscape:pagecheckerboard="0"
   inkscape:deskcolor="#d1d1d1"
   inkscape:zoom="0.26511398"
   inkscape:cx="235.74766"
   inkscape:cy="824.17381"
   inkscape:window-width="1920"
   inkscape:window-height="1001"
   inkscape:window-x="-9"
   inkscape:window-y="-9"
   inkscape:window-maximized="1"
   inkscape:current-layer="svg87" />
    <g
   transform="translate(-844.7371,-6100.723)"
   id="g11">
                <g
   transform="translate(351.845,-87.7042)"
   id="g8">
                    <g
   transform="matrix(0.706263,0,0,0.665444,90.518,2401.61)"
   id="g1">
                        <path
   d="m 759.074,7084.01 c 4.727,-7.11 -11.928,17.94 -103.889,24.51 -154.701,11.05 -55.062,117.23 22.877,145.22 170.019,61.06 379.208,62.47 547.208,-11.8 93.41,-41.29 144.24,-81.7 79.82,-122.7 -37.69,-23.99 -158.08,-40.48 -158.08,-40.48 0,0 -77.2,-134.66 -55,-194.2 70.8,-189.95 -236.187,-251.49 -297.641,26.99 -0.104,0.47 -41.846,155.03 -35.295,172.46 z"
   style="fill:#98c63c"
   id="path1" />
                    </g>
                    <g
   transform="translate(-351.845,87.7042)"
   id="g2">
                        <path
   d="m 962.241,7037.07 c -1.134,1.28 10.723,-7.29 14.543,15.63 3.382,20.29 40.306,0.06 51.526,10.42 17.27,15.93 18.73,23.62 38.8,11.58 21.18,-12.71 53.58,26.63 76.06,-0.35 24.91,-29.89 70.76,16.62 79.07,-20.78 3.63,-16.35 27.65,1.09 51.33,-2.07 l 7.24,-7.23 c -4.19,-7.25 -5.03,-8.43 1.45,-14.19"
   style="fill:none;stroke:#000000;stroke-width:5.83px"
   id="path2" />
                    </g>
                    <g
   transform="translate(-351.845,87.7042)"
   id="g3">
                        <path
   d="m 937.135,7044.2 c 0.568,1.99 5.93,0.02 11.858,7.92 0.652,0.87 -0.67,23.87 17.369,24.32 0.195,0 28.694,-3.97 33.002,7.52 8.346,22.25 31.816,-10.36 46.316,16.22 5.39,9.87 19.45,10.93 25.48,2.89 17.37,-23.17 53.09,28.79 94.37,-5.21 14.7,-12.1 32.63,21.41 59.64,-1.74 21.03,-18.02 17.03,0.07 39.22,-16.21 1.17,-0.85 0.95,-0.91 13.32,-12.16 8.09,-7.36 50.68,-2.07 34.74,-22 -3.91,-4.89 -2.9,-5.2 -2.32,-11.58"
   style="fill:none;stroke:#000000;stroke-width:5.83px"
   id="path3" />
                    </g>
                    <g
   transform="translate(-351.845,87.7042)"
   id="g4">
                        <path
   d="m 904.812,7046.57 c 5.571,-0.54 18.434,10.34 16.968,20.6 -4.49,31.44 40.83,7.9 43.424,26.06 1.584,11.09 0.006,19.83 21.423,14.47 24.813,-6.2 16.523,23.71 42.263,20.85 16.54,-1.84 18.85,-12.25 44.01,2.31 27.52,15.94 32.02,-22.26 65.42,-3.47 31.74,17.85 34.93,-16.58 63.11,-4.05 33.68,14.96 41.63,-18.36 58.61,-19.21 26.12,-1.31 27.11,-2.11 40.65,-22.42 13.23,-19.84 53.55,-0.47 43.43,-35.9"
   style="fill:none;stroke:#000000;stroke-width:5.83px"
   id="path4" />
                    </g>
                    <g
   transform="translate(-351.845,87.7042)"
   id="g5">
                        <path
   d="m 868.266,7054.16 c 33.374,2.89 2.51,32.1 16.459,36.75 11.061,3.69 31.54,2.24 31.782,15.55 0.59,32.42 29.683,7.09 45.802,16.3 30.258,17.29 12.391,21.81 45.371,16.74 11.36,-1.75 29.35,18.39 60.76,10.54 21.22,-5.31 16.69,-6.7 37.66,-0.71 17.04,4.86 17.25,-8.53 34.16,-2.9 41.89,13.97 29.81,-16.82 62.39,-3.24 19.67,8.2 37.31,-23.83 63.81,-17.2 17.55,4.39 19.66,-3.44 32.78,-15.7 11.44,2.83 17.86,3.95 26.39,-3.8 13.88,-12.62 0.63,-26.28 18.25,-19.71 27.27,10.17 25.35,-30.66 26.59,-31.9"
   style="fill:none;stroke:#000000;stroke-width:5.83px"
   id="path5" />
                    </g>
                    <g
   transform="translate(-76.6846,-31.8493)"
   id="g7">
                        <g
   transform="matrix(0.706263,0,0,0.665444,167.203,2433.46)"
   id="g6">
                            <path
   d="m 759.074,7084.01 c 4.727,-7.11 -11.928,17.94 -103.889,24.51 -154.701,11.05 -55.062,117.23 22.877,145.22 170.019,61.06 379.208,62.47 547.208,-11.8 93.41,-41.29 144.24,-81.7 79.82,-122.7 -37.69,-23.99 -158.08,-40.48 -158.08,-40.48 0,0 -77.2,-134.66 -55,-194.2 70.8,-189.95 -236.187,-251.49 -297.641,26.99 -0.104,0.47 -41.846,155.03 -35.295,172.46 z"
   style="fill:none;stroke:#000000;stroke-width:8.5px"
   id="path6" />
                        </g>
                        <path
   d="m 701.127,7147.66 c 30.488,16.42 49.832,30.56 124.884,31.85 80.504,1.39 136.762,-25.9 139.171,-26.7"
   style="fill:none;stroke:#000000;stroke-width:2.92px"
   id="path7" />
                    </g>
                </g>
                <path
   d="m 984.183,7000.67 c -0.19,-0.33 12.354,-15.19 22.397,10.93 0.34,0.88 11.26,20.8 26.96,7.96 1.91,-1.57 18.8,-29.03 36.68,-13.7 3.21,2.75 9.92,33.81 33.59,19.88 12.16,-7.15 10.29,-40.69 38.89,-15.91 35.44,30.72 41.8,-37.99 52.59,-18.56 1.05,1.89 12.62,22.72 25.63,8.4 2.1,-2.31 -0.15,-14.44 9.28,-16.79"
   style="fill:none;stroke:#000000;stroke-width:5.83px"
   id="path8" />
                <g
   transform="matrix(1.00469,0,0,1,-5.6848,0)"
   id="g9">
                    <path
   d="m 996.548,6949.7 c -0.576,-9.67 24.772,-25.3 38.762,2.68 20.84,41.7 30.27,-15.64 55.68,-12.81 16.58,1.84 7.72,17.75 19.45,19.88 37.61,6.84 26.66,-28.12 50.82,-26.51 4.54,0.3 18.88,32.83 37.56,12.81 0.74,-0.78 8.11,-8.68 12.82,-3.97"
   style="fill:none;stroke:#000000;stroke-width:5.82px"
   id="path9" />
                </g>
                <g
   transform="matrix(0.985515,0,0,1,17.6024,0)"
   id="g10">
                    <path
   d="m 1015.07,6872.76 c 4.43,-6.07 32.65,-25.39 34.38,4.05 0.62,10.59 22.86,13.79 33.15,2.21 2.33,-2.62 22.03,-24.78 41.98,-12.82 9.59,5.76 -5.83,21.75 11.49,22.99 20.86,1.49 14.05,-17.19 34.03,-18.57 20.83,-1.43 13.15,10.04 17.68,15.47 8.48,10.18 22.41,-8.2 26.51,0 0.28,0.56 0.3,0.15 0.88,0.44"
   style="fill:none;stroke:#000000;stroke-width:5.88px"
   id="path10" />
                </g>
                <path
   d="m 1090.37,6800.68 c 0.16,-0.29 20.83,-11.21 18.3,10.28 -1.78,15.09 -7.32,24.4 7.51,21.22 0.14,-0.03 42.74,-29.66 46.41,-3.98 4,28.06 32.07,-10.31 40.21,1.33 3.46,4.94 2.57,6.99 6.63,6.18 0.56,-0.11 1.95,-0.39 5.3,-4.86"
   style="fill:none;stroke:#000000;stroke-width:5.83px"
   id="path11" />
            </g><g
   transform="translate(200.761,-5530.494)"
   id="g23">
                <g
   id="g22">
                    <g
   transform="matrix(0.706263,0,0,0.665444,90.518,2401.61)"
   id="g12">
                        <path
   d="m 759.074,7084.01 c 4.727,-7.11 -11.928,17.94 -103.889,24.51 -154.701,11.05 -55.062,117.23 22.877,145.22 170.019,61.06 379.208,62.47 547.208,-11.8 93.41,-41.29 144.24,-81.7 79.82,-122.7 -37.69,-23.99 -158.08,-40.48 -158.08,-40.48 0,0 -77.2,-134.66 -55,-194.2 70.8,-189.95 -236.187,-251.49 -297.641,26.99 -0.104,0.47 -41.846,155.03 -35.295,172.46 z"
   style="fill:#f57f1f"
   id="path12" />
                    </g>
                    <g
   transform="translate(-76.6846,-31.8493)"
   id="g15">
                        <g
   transform="matrix(0.706263,0,0,0.665444,167.203,2433.46)"
   id="g13">
                            <path
   d="m 759.074,7084.01 c 4.727,-7.11 -11.928,17.94 -103.889,24.51 -154.701,11.05 -55.062,117.23 22.877,145.22 170.019,61.06 379.208,62.47 547.208,-11.8 93.41,-41.29 144.24,-81.7 79.82,-122.7 -37.69,-23.99 -158.08,-40.48 -158.08,-40.48 0,0 -77.2,-134.66 -55,-194.2 70.8,-189.95 -236.187,-251.49 -297.641,26.99 -0.104,0.47 -41.846,155.03 -35.295,172.46 z"
   style="fill:none;stroke:#000000;stroke-width:8.5px"
   id="path13" />
                        </g>
                        <path
   d="m 701.127,7147.66 c 30.488,16.42 49.832,30.56 124.884,31.85 54.47,0.94 97.841,-11.25 120.941,-19.48 11.041,-3.94 24.963,-8.78 31.578,-15.15"
   style="fill:none;stroke:#000000;stroke-width:2.92px"
   id="path14" />
                        <path
   d="m 941.652,7006.78 c -8.225,2.46 4.075,21.87 -41.691,31.5"
   style="fill:none;stroke:#000000;stroke-width:2.92px"
   id="path15" />
                    </g>
                    <g
   transform="matrix(1.26769,0,0,1.33625,-1478.84,-3054.91)"
   id="g16">
                        <path
   d="m 1614.61,7630.58 5.1,14.18 h 16.52 l -13.36,8.76 5.1,14.18 -13.36,-8.76 -13.36,8.76 5.1,-14.18 -13.36,-8.76 h 16.52 z"
   style="stroke:#000000;stroke-width:2.24px"
   id="path16" />
                    </g>
                    <g
   transform="matrix(1.26769,0,0,1.33625,-1387.89,-3032.17)"
   id="g17">
                        <path
   d="m 1614.61,7630.58 5.1,14.18 h 16.52 l -13.36,8.76 5.1,14.18 -13.36,-8.76 -13.36,8.76 5.1,-14.18 -13.36,-8.76 h 16.52 z"
   style="stroke:#000000;stroke-width:2.24px"
   id="path17" />
                    </g>
                    <g
   transform="matrix(1.26769,0,0,1.33625,-1290.28,-3020.91)"
   id="g18">
                        <path
   d="m 1614.61,7630.58 5.1,14.18 h 16.52 l -13.36,8.76 5.1,14.18 -13.36,-8.76 -13.36,8.76 5.1,-14.18 -13.36,-8.76 h 16.52 z"
   style="stroke:#000000;stroke-width:2.24px"
   id="path18" />
                    </g>
                    <g
   transform="matrix(1.26769,0,0,1.33625,-1184.85,-3030.66)"
   id="g19">
                        <path
   d="m 1614.61,7630.58 5.1,14.18 h 16.52 l -13.36,8.76 5.1,14.18 -13.36,-8.76 -13.36,8.76 5.1,-14.18 -13.36,-8.76 h 16.52 z"
   style="stroke:#000000;stroke-width:2.24px"
   id="path19" />
                    </g>
                    <g
   transform="matrix(1.26769,0,0,1.33625,-1095.31,-3058.99)"
   id="g20">
                        <path
   d="m 1614.61,7630.58 5.1,14.18 h 16.52 l -13.36,8.76 5.1,14.18 -13.36,-8.76 -13.36,8.76 5.1,-14.18 -13.36,-8.76 h 16.52 z"
   style="stroke:#000000;stroke-width:2.24px"
   id="path20" />
                    </g>
                    <g
   transform="matrix(1.26769,0,0,1.33625,-1291.53,-3168.09)"
   id="g21">
                        <path
   d="m 1614.61,7630.58 5.1,14.18 h 16.52 l -13.36,8.76 5.1,14.18 -13.36,-8.76 -13.36,8.76 5.1,-14.18 -13.36,-8.76 h 16.52 z"
   style="stroke:#000000;stroke-width:2.24px"
   id="path21" />
                    </g>
                </g>
            </g><g
   transform="translate(-1001.297,-6859.435)"
   id="g28">
                <g
   transform="matrix(0.706263,0,0,0.665444,1300.97,2389.14)"
   id="g24">
                    <path
   d="m 759.074,7084.01 c 4.727,-7.11 -11.928,17.94 -103.889,24.51 -154.701,11.05 -55.062,117.23 22.877,145.22 170.019,61.06 379.208,62.47 547.208,-11.8 93.41,-41.29 144.24,-81.7 79.82,-122.7 -37.69,-23.99 -158.08,-40.48 -158.08,-40.48 0,0 -77.2,-134.66 -55,-194.2 70.8,-189.95 -236.187,-251.49 -297.641,26.99 -0.104,0.47 -41.846,155.03 -35.295,172.46 z"
   style="fill:#56cbf5"
   id="path23" />
                </g>
                <g
   transform="matrix(0.706263,0,0,0.665444,1300.97,2389.14)"
   id="g25">
                    <path
   d="m 759.074,7084.01 c 4.727,-7.11 -11.928,17.94 -103.889,24.51 -154.701,11.05 -55.062,117.23 22.877,145.22 170.019,61.06 379.208,62.47 547.208,-11.8 93.41,-41.29 144.24,-81.7 79.82,-122.7 -37.69,-23.99 -158.08,-40.48 -158.08,-40.48 0,0 -77.2,-134.66 -55,-194.2 70.8,-189.95 -236.187,-251.49 -297.641,26.99 -0.104,0.47 -41.846,155.03 -35.295,172.46 z"
   style="fill:none;stroke:#000000;stroke-width:8.5px"
   id="path24" />
                </g>
                <g
   transform="translate(1133.77,-44.3257)"
   id="g26">
                    <path
   d="m 701.127,7147.66 c 30.488,16.42 49.832,30.56 124.884,31.85 80.504,1.39 136.762,-25.9 139.171,-26.7"
   style="fill:none;stroke:#000000;stroke-width:2.92px"
   id="path25" />
                </g>
                <g
   transform="translate(1133.77,-44.3257)"
   id="g27">
                    <path
   d="m 941.652,7006.78 c -8.225,2.46 4.075,21.87 -41.691,31.5"
   style="fill:none;stroke:#000000;stroke-width:2.92px"
   id="path26" />
                </g>
            </g><g
   transform="translate(-877.746,-6074.341)"
   id="g39">
                <g
   transform="translate(-74.0364,-73.164)"
   id="g34">
                    <g
   transform="matrix(0.706263,0,0,0.665444,1910.45,2383.04)"
   id="g29">
                        <path
   d="m 759.074,7084.01 c 4.727,-7.11 -11.928,17.94 -103.889,24.51 -154.701,11.05 -55.062,117.23 22.877,145.22 170.019,61.06 379.208,62.47 547.208,-11.8 93.41,-41.29 144.24,-81.7 79.82,-122.7 -37.69,-23.99 -158.08,-40.48 -158.08,-40.48 0,0 -77.2,-134.66 -55,-194.2 70.8,-189.95 -236.187,-251.49 -297.641,26.99 -0.104,0.47 -41.846,155.03 -35.295,172.46 z"
   style="fill:#fff200"
   id="path28" />
                    </g>
                    <g
   transform="translate(1743.25,-50.4251)"
   id="g33">
                        <g
   id="g32">
                            <g
   id="g31">
                                <g
   transform="matrix(0.706263,0,0,0.665444,167.203,2433.46)"
   id="g30">
                                    <path
   d="m 759.074,7084.01 c 4.727,-7.11 -11.928,17.94 -103.889,24.51 -154.701,11.05 -55.062,117.23 22.877,145.22 170.019,61.06 379.208,62.47 547.208,-11.8 93.41,-41.29 144.24,-81.7 79.82,-122.7 -37.69,-23.99 -158.08,-40.48 -158.08,-40.48 0,0 -77.2,-134.66 -55,-194.2 70.8,-189.95 -236.187,-251.49 -297.641,26.99 -0.104,0.47 -41.846,155.03 -35.295,172.46 z"
   style="fill:none;stroke:#000000;stroke-width:8.5px"
   id="path29" />
                                </g>
                                <path
   d="m 701.127,7147.66 c 30.488,16.42 49.832,30.56 124.884,31.85 80.504,1.39 136.762,-25.9 139.171,-26.7"
   style="fill:none;stroke:#000000;stroke-width:2.92px"
   id="path30" />
                                <path
   d="m 941.652,7006.78 c -8.225,2.46 4.075,21.87 -41.691,31.5"
   style="fill:none;stroke:#000000;stroke-width:2.92px"
   id="path31" />
                            </g>
                        </g>
                    </g>
                </g>
                <path
   d="m 2324.2,7064.93 c -24.32,-2.53 -40.34,21.93 -15.43,37.63 17.47,11.02 51.32,-6.27 27.22,-30.91 -5.7,-5.82 -7.29,-6.25 -11.79,-6.72 z"
   style="stroke:#000000;stroke-width:5.83px"
   id="path34" />
                <g
   transform="translate(-3.82811,11.2637)"
   id="g35">
                    <path
   d="m 2421.09,7068.52 c -13.81,-4.68 -28.77,1.6 -32.22,12.39 -3.41,10.68 0.42,24.45 15.8,32.5 15.71,8.23 30.13,-2.64 31.67,-16.75 1.25,-11.41 -3.24,-24.07 -15.25,-28.14 z"
   style="stroke:#000000;stroke-width:5.83px"
   id="path35" />
                </g>
                <g
   transform="translate(5.47838,-5.82239)"
   id="g36">
                    <path
   d="m 2508.7,7101.08 c -19.95,-15.88 -46.37,22.4 -20.08,37.76 33.1,19.35 42.24,-20.11 20.08,-37.76 z"
   style="stroke:#000000;stroke-width:5.83px"
   id="path36" />
                </g>
                <g
   transform="matrix(1,0,0,1.20969,11.6665,-1466.99)"
   id="g37">
                    <path
   d="m 2591.22,7071.03 c -6.01,-2.73 -28.86,-7.97 -30.47,10.53 -2.44,28.03 28.13,23.65 36.06,16.44 17.1,-15.55 0.42,-24.23 -5.59,-26.97 z"
   style="stroke:#000000;stroke-width:5.26px"
   id="path37" />
                </g>
                <path
   d="m 2703.9,7067.32 c -25.52,-29.69 -68.7,30.59 -21.45,36.15 19.71,2.31 34.5,-20.39 21.45,-36.15 z"
   style="stroke:#000000;stroke-width:5.83px"
   id="path38" />
                <path
   d="m 2515.31,6944.58 c -7.2,-0.98 -51.11,-2.95 -37.56,33.19 2.24,5.98 16.76,24.93 43.2,5.83 15.54,-11.22 1.56,-38.05 -5.64,-39.02 z"
   style="stroke:#000000;stroke-width:5.83px"
   id="path39" />
            </g><g
   id="g46"
   transform="translate(-761.995,-6430.24)">
                <g
   transform="translate(0,6.50705)"
   id="g42">
                    <g
   transform="matrix(-0.303583,0.952805,0.952805,0.303583,-4579.75,3661.71)"
   id="g40">
                        <path
   d="m 1383.72,6527.98 4.09,26.43 82.84,-58.75 -96.71,-31.03 5.06,32.8 c -93.66,34.1 -178.24,114.83 -199.75,189.14 -2.32,8.03 2.31,16.43 10.33,18.76 8.03,2.32 16.43,-2.31 18.76,-10.34 18.94,-65.44 93.14,-135.33 175.38,-167.01 z"
   style="fill:#1d1d1e"
   id="path40" />
                    </g>
                    <g
   transform="matrix(0.303583,-0.952805,-0.952805,-0.303583,7229.54,10250.3)"
   id="g41">
                        <path
   d="m 1383.72,6527.98 4.09,26.43 82.84,-58.75 -96.71,-31.03 5.06,32.8 c -93.66,34.1 -178.24,114.83 -199.75,189.14 -2.32,8.03 2.31,16.43 10.33,18.76 8.03,2.32 16.43,-2.31 18.76,-10.34 18.94,-65.44 93.14,-135.33 175.38,-167.01 z"
   style="fill:#1f1b1e"
   id="path41" />
                    </g>
                </g>
                <g
   transform="matrix(-1,0,0,1,3455.94,6.50705)"
   id="g45">
                    <g
   transform="matrix(-0.303583,0.952805,0.952805,0.303583,-4579.75,3661.71)"
   id="g43">
                        <path
   d="m 1383.72,6527.98 4.09,26.43 82.84,-58.75 -96.71,-31.03 5.06,32.8 c -93.66,34.1 -178.24,114.83 -199.75,189.14 -2.32,8.03 2.31,16.43 10.33,18.76 8.03,2.32 16.43,-2.31 18.76,-10.34 18.94,-65.44 93.14,-135.33 175.38,-167.01 z"
   style="fill:#1d1d1e"
   id="path42" />
                    </g>
                    <g
   transform="matrix(0.303583,-0.952805,-0.952805,-0.303583,7229.54,10250.3)"
   id="g44">
                        <path
   d="m 1383.72,6527.98 4.09,26.43 82.84,-58.75 -96.71,-31.03 5.06,32.8 c -93.66,34.1 -178.24,114.83 -199.75,189.14 -2.32,8.03 2.31,16.43 10.33,18.76 8.03,2.32 16.43,-2.31 18.76,-10.34 18.94,-65.44 93.14,-135.33 175.38,-167.01 z"
   style="fill:#1f1b1e"
   id="path43" />
                    </g>
                </g>
            </g><g
   transform="matrix(1,0,0,-1,-761.995,8244.56)"
   id="g53">
                <g
   transform="translate(0,6.50705)"
   id="g49">
                    <g
   transform="matrix(-0.303583,0.952805,0.952805,0.303583,-4579.75,3661.71)"
   id="g47">
                        <path
   d="m 1383.72,6527.98 4.09,26.43 82.84,-58.75 -96.71,-31.03 5.06,32.8 c -93.66,34.1 -178.24,114.83 -199.75,189.14 -2.32,8.03 2.31,16.43 10.33,18.76 8.03,2.32 16.43,-2.31 18.76,-10.34 18.94,-65.44 93.14,-135.33 175.38,-167.01 z"
   style="fill:#1d1d1e"
   id="path46" />
                    </g>
                    <g
   transform="matrix(0.303583,-0.952805,-0.952805,-0.303583,7229.54,10250.3)"
   id="g48">
                        <path
   d="m 1383.72,6527.98 4.09,26.43 82.84,-58.75 -96.71,-31.03 5.06,32.8 c -93.66,34.1 -178.24,114.83 -199.75,189.14 -2.32,8.03 2.31,16.43 10.33,18.76 8.03,2.32 16.43,-2.31 18.76,-10.34 18.94,-65.44 93.14,-135.33 175.38,-167.01 z"
   style="fill:#1f1b1e"
   id="path47" />
                    </g>
                </g>
                <g
   transform="matrix(-1,0,0,1,3455.94,6.50705)"
   id="g52">
                    <g
   transform="matrix(-0.303583,0.952805,0.952805,0.303583,-4579.75,3661.71)"
   id="g50">
                        <path
   d="m 1383.72,6527.98 4.09,26.43 82.84,-58.75 -96.71,-31.03 5.06,32.8 c -93.66,34.1 -178.24,114.83 -199.75,189.14 -2.32,8.03 2.31,16.43 10.33,18.76 8.03,2.32 16.43,-2.31 18.76,-10.34 18.94,-65.44 93.14,-135.33 175.38,-167.01 z"
   style="fill:#1d1d1e"
   id="path49" />
                    </g>
                    <g
   transform="matrix(0.303583,-0.952805,-0.952805,-0.303583,7229.54,10250.3)"
   id="g51">
                        <path
   d="m 1383.72,6527.98 4.09,26.43 82.84,-58.75 -96.71,-31.03 5.06,32.8 c -93.66,34.1 -178.24,114.83 -199.75,189.14 -2.32,8.03 2.31,16.43 10.33,18.76 8.03,2.32 16.43,-2.31 18.76,-10.34 18.94,-65.44 93.14,-135.33 175.38,-167.01 z"
   style="fill:#1f1b1e"
   id="path50" />
                    </g>
                </g>
            </g><path
   d="m 957.995,557.0604 -52.99,-0.35 67.53,91.29 68.74,-90.39 -53,-0.35 0.82,-123.16 c 0.05,-8.36 -6.68,-15.19 -15.04,-15.24 -8.36,-0.06 -15.19,6.68 -15.24,15.04 z"
   id="path53" /><g
   transform="translate(-767.89704,-5761.3804)"
   id="g54">
                <path
   d="m 1719.99,6940.04 -52.99,0.35 67.53,-91.29 68.74,90.39 -53,0.35 0.82,123.16 c 0.05,8.36 -6.68,15.19 -15.04,15.24 -8.36,0.06 -15.19,-6.68 -15.24,-15.04 z"
   id="path54" />
            </g><g
   transform="translate(-378.076,-6204.475)"
   id="g85">
                <g
   transform="matrix(0.706263,0,0,0.665444,670.058,2411.4)"
   id="g55">
                    <path
   d="m 759.074,7084.01 c 4.727,-7.11 -11.928,17.94 -103.889,24.51 -154.701,11.05 -55.062,117.23 22.877,145.22 170.019,61.06 379.208,62.47 547.208,-11.8 93.41,-41.29 144.24,-81.7 79.82,-122.7 -37.69,-23.99 -158.08,-40.48 -158.08,-40.48 0,0 -77.2,-134.66 -55,-194.2 70.8,-189.95 -236.187,-251.49 -297.641,26.99 -0.104,0.47 -41.846,155.03 -35.295,172.46 z"
   style="fill:#2c99a5"
   id="path55" />
                </g>
                <path
   d="m 1396.81,6891.71 c -29.92,7.48 -37.73,58.26 6.18,67.04 6.69,1.34 26.24,8.05 40.68,-20.83 4.94,-9.88 -19.87,-41.69 -46.21,-45.45 -0.07,-0.02 0,0 -0.65,-0.76 z"
   style="fill:#fcb215"
   id="path56" />
                <path
   d="m 1439.78,7027.14 c -23.57,-6.77 -36.8,17.27 -34.31,37.52 1.37,11.16 6.63,22.91 19.65,23.61 3.17,0.17 34.66,-0.3 31.24,-7.81 -1.22,-2.68 -13.49,-39.51 -14.64,-42.96 -1.18,-3.52 -0.38,-9.91 -1.94,-10.36 z"
   style="fill:#fcb215"
   id="path57" />
                <path
   d="m 1301.48,6967.99 c -23.64,14.13 -13.21,55.17 -0.67,63 31.58,19.74 59.79,-33.41 49.46,-47.18 -7.59,-10.13 -8.37,-9.24 -17.89,-17.57 -4.16,-3.64 -8.27,-9.89 -16.6,-4.89 -0.24,0.15 -13.51,2.98 -14.3,6.64 z"
   style="fill:#fcb215"
   id="path58" />
                <path
   d="m 1318.13,6897.37 c -4.95,-1.53 13.85,11.81 -16.34,36.97 -20.31,16.92 -37.31,10.14 -40.38,8.92 12.06,-15.52 20.47,-29.67 35.49,-35.93 17.54,-7.3 18.43,-5.96 21.23,-9.96 z"
   style="fill:#fcb215"
   id="path59" />
                <path
   d="m 1224.98,7042.06 c 2.24,-1.68 16.59,2.08 22.56,14.66 3.33,7 5.38,17.6 -1.37,33.34 -3.31,7.73 -12.77,11.11 -13.69,11.57 -15.63,7.81 -20.66,-0.21 -20.85,-0.26 1.6,-20.35 2.08,-20.19 13.35,-59.31 z"
   style="fill:#fcb215"
   id="path60" />
                <path
   d="m 1330.1,7068.09 c -3.35,0.34 -17.28,9.23 -22.73,22.89 -4.75,11.89 -2.91,28.39 24.99,36.36 30.03,8.59 49.44,-22.08 35.16,-38.74 -5.81,-6.78 -6.79,-12.61 -11.34,-15.78 -13.69,-9.53 -25.67,-4.45 -26.08,-4.73 z"
   style="fill:#fcb215"
   id="path61" />
                <path
   d="m 1432.61,7157.26 c -1.66,0.86 -2.57,-0.9 -11.07,6.18 -7.57,6.32 -13.29,23.67 1.84,30.54 31.12,14.15 45.44,4.42 51.99,-8.91 6.03,-12.29 3.31,-26.22 -10.87,-30.09 -21.53,-5.87 -28.65,3.21 -31.89,2.28 z"
   style="fill:#fcb215"
   id="path62" />
                <path
   d="m 1497.56,7125.64 c -3.69,3.08 7.32,25.37 16.34,27.81 27.81,7.52 37.89,-2.24 45.97,-13.9 -8.53,-2.69 -50.41,-14.55 -62.31,-13.91 z"
   style="fill:#fcb215"
   id="path63" />
                <path
   d="m 1582.88,7206.72 c 0.41,-3.63 6.79,-22.25 -15.55,-28.63 -41.08,-11.74 -57.14,16.3 -57.6,19.52 -0.06,0.45 7.14,28.1 8.14,29.29 0.54,0.66 2.15,2.59 6.43,8.5 26.18,-15.08 27.17,-12.6 58.58,-28.68 z"
   style="fill:#fcb215"
   id="path64" />
                <path
   d="m 1317.01,7226.97 c 5.44,-20.69 37.2,-37.16 48.28,-35.58 1.25,0.18 17.15,5.57 21.31,19.61 2.77,9.38 5.04,25.49 -11.06,37.27 -28.24,20.68 -62.44,8.5 -58.53,-21.3 z"
   style="fill:#fcb215"
   id="path65" />
                <path
   d="m 1197.31,7248.6 c -7.75,-9.2 12.35,-31.01 40.37,-32.76 13.65,-0.86 21.52,4.16 23.59,13.92 1.85,8.7 2.62,23.46 2.94,34.05 -31.89,-4.83 -36.69,-3.55 -66.9,-15.21 z"
   style="fill:#fcb215"
   id="path66" />
                <path
   d="m 1250.86,7147.7 c -4.84,1.24 -20.53,37.52 15.45,46.98 12.55,3.31 40.81,-3.21 46.06,-36.44 -14.99,0 -21.87,-2.86 -29.99,-4 -6.89,-0.96 -27.55,-6.91 -31.52,-6.54 z"
   style="fill:#fcb215"
   id="path67" />
                <path
   d="m 1134.95,7165.28 c -9.91,0.68 -24.76,17.84 1.14,20.72 3.69,0.41 45.41,5.05 43.48,-16.25 -0.01,-0.08 -15.12,-19.57 -44.62,-4.47 z"
   style="fill:#fcb215"
   id="path68" />
                <g
   id="g84">
                    <g
   transform="translate(502.856,-22.0625)"
   id="g72">
                        <g
   id="g71">
                            <g
   transform="matrix(0.706263,0,0,0.665444,167.203,2433.46)"
   id="g69">
                                <path
   d="m 759.074,7084.01 c 4.727,-7.11 -11.928,17.94 -103.889,24.51 -154.701,11.05 -55.062,117.23 22.877,145.22 170.019,61.06 379.208,62.47 547.208,-11.8 93.41,-41.29 144.24,-81.7 79.82,-122.7 -37.69,-23.99 -158.08,-40.48 -158.08,-40.48 0,0 -77.2,-134.66 -55,-194.2 70.8,-189.95 -236.187,-251.49 -297.641,26.99 -0.104,0.47 -41.846,155.03 -35.295,172.46 z"
   style="fill:none;stroke:#000000;stroke-width:8.5px"
   id="path69" />
                            </g>
                            <path
   d="m 701.127,7147.66 c 30.488,16.42 49.832,30.56 124.884,31.85 80.504,1.39 136.762,-25.9 139.171,-26.7"
   style="fill:none;stroke:#000000;stroke-width:2.92px"
   id="path70" />
                            <path
   d="m 941.652,7006.78 c -8.225,2.46 4.075,21.87 -41.691,31.5"
   style="fill:none;stroke:#000000;stroke-width:2.92px"
   id="path71" />
                        </g>
                    </g>
                    <path
   d="m 1169.24,7160.99 c -24.6,-12.46 -76.59,24.66 -26.15,28.02 24.06,1.61 56.82,-11.75 26.15,-28.02 z"
   style="fill:none;stroke:#000000;stroke-width:2.92px"
   id="path72" />
                    <path
   d="m 1248.95,7150.74 c -25.35,28.83 20.93,57.69 48.54,34.03 8.14,-6.98 10.44,-19.81 13.26,-25.47"
   style="fill:none;stroke:#000000;stroke-width:2.92px"
   id="path73" />
                    <path
   d="m 1195.34,7247.18 c -3.6,-12.28 25.3,-38.91 56.52,-31.11 17.27,4.32 11.42,65.49 7.96,45.63"
   style="fill:none;stroke:#000000;stroke-width:2.92px"
   id="path74" />
                    <path
   d="m 1376.37,7195.41 c -6.29,-1.8 -9.04,-14.39 -40.68,8.99 -36.25,26.79 -12.11,56.21 7.43,55.18 12.33,-0.65 74.33,-16.55 33.25,-64.17 z"
   style="fill:none;stroke:#000000;stroke-width:2.92px"
   id="path75" />
                    <path
   d="m 1459.46,7154.88 c -2.49,-3.25 -46.84,-7.71 -45.25,30.42 0.27,6.43 31.36,29.07 53.06,10.08 19.35,-16.93 8.18,-44.88 -7.81,-40.5 z"
   style="fill:none;stroke:#000000;stroke-width:2.92px"
   id="path76" />
                    <path
   d="m 1524.54,7232.99 c -0.53,-0.38 -44.09,-45.34 20.73,-58.3 20.03,-4.01 41.74,9.53 39.79,32.89"
   style="fill:none;stroke:#000000;stroke-width:2.92px"
   id="path77" />
                    <path
   d="m 1496.45,7126.94 c 1.87,4.91 10.54,44.34 52.53,23.34 5.72,-2.86 9.29,-10.88 9.55,-11.14"
   style="fill:none;stroke:#000000;stroke-width:2.92px"
   id="path78" />
                    <path
   d="m 1209.63,7097.84 c 6.6,9.24 31.05,8.7 37.99,-9.63 8.35,-22.07 1.52,-42.9 -21.76,-46.69"
   style="fill:none;stroke:#000000;stroke-width:2.92px"
   id="path79" />
                    <path
   d="m 1356.32,7072.97 c -31.49,-25.04 -66.22,25.96 -43.44,45.48 34.1,29.23 85.26,-10.74 43.44,-45.48 z"
   style="fill:none;stroke:#000000;stroke-width:2.92px"
   id="path80" />
                    <path
   d="m 1437.79,7023.94 c -30.23,-4.12 -46.06,46.68 -17.74,63.21 5.87,3.42 29.97,0.07 37.14,-5.31"
   style="fill:none;stroke:#000000;stroke-width:2.92px"
   id="path81" />
                    <path
   d="m 1329.65,6962.27 c -21.69,-14.17 -60.33,25 -33.22,62.27 18.4,25.3 53.42,1.67 56.24,-26.53 2.03,-20.36 -7.79,-21.22 -23.02,-35.74 z"
   style="fill:none;stroke:#000000;stroke-width:2.92px"
   id="path82" />
                    <path
   d="m 1394.94,6892.51 c -28.29,4.18 -34.13,62.65 15.03,67.83 24.87,2.62 32.97,-25.74 33.96,-29.18"
   style="fill:none;stroke:#000000;stroke-width:2.92px"
   id="path83" />
                    <path
   d="m 1319.87,6901.64 c -2.14,35.37 -38.99,54.52 -58.99,41.19"
   style="fill:none;stroke:#000000;stroke-width:2.92px"
   id="path84" />
                </g>
            </g>
<text
   xml:space="preserve"
   style="font-weight:bold;font-size:152.837px;font-family:Arial;-inkscape-font-specification:'Arial, Bold';text-align:center;writing-mode:lr-tb;direction:ltr;text-anchor:middle;fill:none;stroke:#727085;stroke-width:0;stroke-dasharray:none;stroke-dashoffset:0"
   x="654.93567"
   y="726.70068"
   id="text87"><tspan
     sodipodi:role="line"
     id="tspan87"
     x="654.93567"
     y="726.70068"
     style="fill:#ff0000;fill-opacity:1;stroke-width:0;stroke-dasharray:none;stroke-dashoffset:0">2</tspan></text><text
   xml:space="preserve"
   style="font-weight:bold;font-size:152.837px;font-family:Arial;-inkscape-font-specification:'Arial, Bold';text-align:center;writing-mode:lr-tb;direction:ltr;text-anchor:middle;clip-rule:evenodd;fill:none;fill-rule:evenodd;stroke:#727085;stroke-width:0;stroke-linecap:round;stroke-linejoin:round;stroke-miterlimit:1.5;stroke-dasharray:none;stroke-dashoffset:0"
   x="1288.8849"
   y="1174.8004"
   id="text87-9"><tspan
     sodipodi:role="line"
     id="tspan87-6"
     x="1288.8849"
     y="1174.8004"
     style="fill:#ff0000;fill-opacity:1;stroke-width:0;stroke-dasharray:none;stroke-dashoffset:0">4</tspan></text><text
   xml:space="preserve"
   style="font-weight:bold;font-size:152.837px;font-family:Arial;-inkscape-font-specification:'Arial, Bold';text-align:center;writing-mode:lr-tb;direction:ltr;text-anchor:middle;clip-rule:evenodd;fill:none;fill-rule:evenodd;stroke:#727085;stroke-width:0;stroke-linecap:round;stroke-linejoin:round;stroke-miterlimit:1.5;stroke-dasharray:none;stroke-dashoffset:0"
   x="476.91849"
   y="1479.9774"
   id="text87-9-4"><tspan
     sodipodi:role="line"
     id="tspan87-6-8"
     x="476.91849"
     y="1479.9774"
     style="fill:#ff0000;fill-opacity:1;stroke-width:0;stroke-dasharray:none;stroke-dashoffset:0">3</tspan></text><text
   xml:space="preserve"
   style="font-weight:bold;font-size:152.837px;font-family:Arial;-inkscape-font-specification:'Arial, Bold';text-align:center;writing-mode:lr-tb;direction:ltr;text-anchor:middle;clip-rule:evenodd;fill:none;fill-rule:evenodd;stroke:#727085;stroke-width:0;stroke-linecap:round;stroke-linejoin:round;stroke-miterlimit:1.5;stroke-dasharray:none;stroke-dashoffset:0"
   x="1042.7709"
   y="647.95801"
   id="text87-9-4-9"><tspan
     sodipodi:role="line"
     id="tspan87-6-8-9"
     x="1042.7709"
     y="647.95801"
     style="fill:#ff0000;fill-opacity:1;stroke-width:0;stroke-dasharray:none;stroke-dashoffset:0">1</tspan></text><text
   xml:space="preserve"
   style="font-weight:bold;font-size:152.837px;font-family:Arial;-inkscape-font-specification:'Arial, Bold';text-align:center;writing-mode:lr-tb;direction:ltr;text-anchor:middle;clip-rule:evenodd;fill:none;fill-rule:evenodd;stroke:#727085;stroke-width:0;stroke-linecap:round;stroke-linejoin:round;stroke-miterlimit:1.5;stroke-dasharray:none;stroke-dashoffset:0"
   x="1485.8463"
   y="1467.9711"
   id="text87-9-4-9-5"><tspan
     sodipodi:role="line"
     id="tspan87-6-8-9-5"
     x="1485.8463"
     y="1467.9711"
     style="fill:#ff0000;fill-opacity:1;stroke-width:0;stroke-dasharray:none;stroke-dashoffset:0">5</tspan></text><text
   xml:space="preserve"
   style="font-weight:bold;font-size:152.837px;font-family:Arial;-inkscape-font-specification:'Arial, Bold';text-align:center;writing-mode:lr-tb;direction:ltr;text-anchor:middle;clip-rule:evenodd;fill:none;fill-rule:evenodd;stroke:#727085;stroke-width:0;stroke-linecap:round;stroke-linejoin:round;stroke-miterlimit:1.5;stroke-dasharray:none;stroke-dashoffset:0"
   x="777.15076"
   y="1188.7916"
   id="text87-9-4-9-5-3"><tspan
     sodipodi:role="line"
     id="tspan87-6-8-9-5-3"
     x="777.15076"
     y="1188.7916"
     style="fill:#ff0000;fill-opacity:1;stroke-width:0;stroke-dasharray:none;stroke-dashoffset:0">6</tspan></text><path
   d="m 896.1081,1077.3797 7.9956,84.2164 -24.13237,-8.3011 c -4.59905,13.4008 -7.49895,25.629 -8.9753,36.9012 l -29.13627,-3.2057 c 1.72035,-13.5773 5.04785,-27.9829 10.22165,-43.2945 l -29.93888,-10.3128 z m -26.24941,132.8284 c 0.28903,14.0078 3.01232,26.4209 7.45489,37.7997 l -28.78403,8.2981 c -5.34068,-14.9462 -8.22822,-31.3257 -8.0521,-49.3305 z m 16.56634,56.249 c 7.21273,12.0669 16.24171,23.1407 26.05617,34.0513 5.55783,5.0778 5.25821,13.0534 -0.66879,17.8123 -5.9304,4.7477 -15.25316,4.4924 -20.81596,-0.5782 -13.84245,-12.5402 -25.50622,-26.7173 -34.14435,-42.7595 z"
   style="baseline-shift:baseline;clip-rule:nonzero;display:inline;overflow:visible;vector-effect:none;fill:#ff0000;fill-rule:nonzero;stroke-width:0.899503;stroke-linecap:butt;stroke-linejoin:miter;stroke-miterlimit:1.5;enable-background:accumulate;stop-color:#000000"
   id="path91" /><g
   id="g91"
   transform="matrix(0.92589436,0.00593299,-0.00549342,0.9999824,77.88412,-20.445461)"><g
     id="g92"
     transform="matrix(0.85712265,8.4770503e-4,8.4770503e-4,0.99999497,302.3953,136.82793)"><rect
       style="fill:#ff0000;fill-opacity:1;stroke:#727085;stroke-width:0;stroke-dasharray:none;stroke-dashoffset:0"
       id="rect91"
       width="129.18971"
       height="13.201869"
       x="1044.0709"
       y="635.81049"
       transform="rotate(30)" /><rect
       style="clip-rule:evenodd;fill:#ff0000;fill-opacity:1;fill-rule:evenodd;stroke:#727085;stroke-width:0;stroke-linecap:round;stroke-linejoin:round;stroke-miterlimit:1.5;stroke-dasharray:none;stroke-dashoffset:0"
       id="rect91-2"
       width="129.18971"
       height="13.201869"
       x="-62.583149"
       y="1274.7377"
       transform="matrix(-0.8660254,0.5,0.5,0.8660254,0,0)" /></g></g></svg>
