<?xml version="1.0" encoding="UTF-8" standalone="no"?>
<svg
   width="1300.1794"
   height="392.70935"
   viewBox="0 0 1300.1794 392.70935"
   version="1.1"
   xml:space="preserve"
   style="clip-rule:evenodd;fill-rule:evenodd;stroke-linecap:round;stroke-linejoin:round;stroke-miterlimit:1.5"
   id="svg87"
   sodipodi:docname="2026-LT_04_hats_explanation1.svg"
   inkscape:version="1.4.3 (0d15f75, 2025-12-25)"
   xmlns:inkscape="http://www.inkscape.org/namespaces/inkscape"
   xmlns:sodipodi="http://sodipodi.sourceforge.net/DTD/sodipodi-0.dtd"
   xmlns="http://www.w3.org/2000/svg"
   xmlns:svg="http://www.w3.org/2000/svg"><defs
   id="defs87">
        
    
            
            
            
            
            
            
            
            
            
        
                
                
            
                    
                    
                </defs><sodipodi:namedview
   id="namedview87"
   pagecolor="#ffffff"
   bordercolor="#000000"
   borderopacity="0.25"
   inkscape:showpageshadow="2"
   inkscape:pageopacity="0.0"
   inkscape:pagecheckerboard="0"
   inkscape:deskcolor="#d1d1d1"
   inkscape:zoom="0.26511398"
   inkscape:cx="737.41868"
   inkscape:cy="499.78504"
   inkscape:window-width="1920"
   inkscape:window-height="1001"
   inkscape:window-x="-9"
   inkscape:window-y="-9"
   inkscape:window-maximized="1"
   inkscape:current-layer="svg87" />
    <g
   transform="matrix(-1,0,0,1,2781.5121,-6780.262)"
   id="g39">
                <g
   transform="translate(-74.0364,-73.164)"
   id="g34">
                    <g
   transform="matrix(0.706263,0,0,0.665444,1910.45,2383.04)"
   id="g29">
                        <path
   d="m 759.074,7084.01 c 4.727,-7.11 -11.928,17.94 -103.889,24.51 -154.701,11.05 -55.062,117.23 22.877,145.22 170.019,61.06 379.208,62.47 547.208,-11.8 93.41,-41.29 144.24,-81.7 79.82,-122.7 -37.69,-23.99 -158.08,-40.48 -158.08,-40.48 0,0 -77.2,-134.66 -55,-194.2 70.8,-189.95 -236.187,-251.49 -297.641,26.99 -0.104,0.47 -41.846,155.03 -35.295,172.46 z"
   style="fill:#fff200"
   id="path28" />
                    </g>
                    <g
   transform="translate(1743.25,-50.4251)"
   id="g33">
                        <g
   id="g32">
                            <g
   id="g31">
                                <g
   transform="matrix(0.706263,0,0,0.665444,167.203,2433.46)"
   id="g30">
                                    <path
   d="m 759.074,7084.01 c 4.727,-7.11 -11.928,17.94 -103.889,24.51 -154.701,11.05 -55.062,117.23 22.877,145.22 170.019,61.06 379.208,62.47 547.208,-11.8 93.41,-41.29 144.24,-81.7 79.82,-122.7 -37.69,-23.99 -158.08,-40.48 -158.08,-40.48 0,0 -77.2,-134.66 -55,-194.2 70.8,-189.95 -236.187,-251.49 -297.641,26.99 -0.104,0.47 -41.846,155.03 -35.295,172.46 z"
   style="fill:none;stroke:#000000;stroke-width:8.5px"
   id="path29" />
                                </g>
                                <path
   d="m 701.127,7147.66 c 30.488,16.42 49.832,30.56 124.884,31.85 80.504,1.39 136.762,-25.9 139.171,-26.7"
   style="fill:none;stroke:#000000;stroke-width:2.92px"
   id="path30" />
                                <path
   d="m 941.652,7006.78 c -8.225,2.46 4.075,21.87 -41.691,31.5"
   style="fill:none;stroke:#000000;stroke-width:2.92px"
   id="path31" />
                            </g>
                        </g>
                    </g>
                </g>
                <path
   d="m 2324.2,7064.93 c -24.32,-2.53 -40.34,21.93 -15.43,37.63 17.47,11.02 51.32,-6.27 27.22,-30.91 -5.7,-5.82 -7.29,-6.25 -11.79,-6.72 z"
   style="stroke:#000000;stroke-width:5.83px"
   id="path34" />
                <g
   transform="translate(-3.82811,11.2637)"
   id="g35">
                    <path
   d="m 2421.09,7068.52 c -13.81,-4.68 -28.77,1.6 -32.22,12.39 -3.41,10.68 0.42,24.45 15.8,32.5 15.71,8.23 30.13,-2.64 31.67,-16.75 1.25,-11.41 -3.24,-24.07 -15.25,-28.14 z"
   style="stroke:#000000;stroke-width:5.83px"
   id="path35" />
                </g>
                <g
   transform="translate(5.47838,-5.82239)"
   id="g36">
                    <path
   d="m 2508.7,7101.08 c -19.95,-15.88 -46.37,22.4 -20.08,37.76 33.1,19.35 42.24,-20.11 20.08,-37.76 z"
   style="stroke:#000000;stroke-width:5.83px"
   id="path36" />
                </g>
                <g
   transform="matrix(1,0,0,1.20969,11.6665,-1466.99)"
   id="g37">
                    <path
   d="m 2591.22,7071.03 c -6.01,-2.73 -28.86,-7.97 -30.47,10.53 -2.44,28.03 28.13,23.65 36.06,16.44 17.1,-15.55 0.42,-24.23 -5.59,-26.97 z"
   style="stroke:#000000;stroke-width:5.26px"
   id="path37" />
                </g>
                <path
   d="m 2703.9,7067.32 c -25.52,-29.69 -68.7,30.59 -21.45,36.15 19.71,2.31 34.5,-20.39 21.45,-36.15 z"
   style="stroke:#000000;stroke-width:5.83px"
   id="path38" />
                <path
   d="m 2515.31,6944.58 c -7.2,-0.98 -51.11,-2.95 -37.56,33.19 2.24,5.98 16.76,24.93 43.2,5.83 15.54,-11.22 1.56,-38.05 -5.64,-39.02 z"
   style="stroke:#000000;stroke-width:5.83px"
   id="path39" />
            </g><g
   transform="rotate(42.327066,9261.4706,2523.2668)"
   id="g43">
                        <path
   d="m 1383.72,6527.98 4.09,26.43 82.84,-58.75 -96.71,-31.03 5.06,32.8 c -93.66,34.1 -178.24,114.83 -199.75,189.14 -2.32,8.03 2.31,16.43 10.33,18.76 8.03,2.32 16.43,-2.31 18.76,-10.34 18.94,-65.44 93.14,-135.33 175.38,-167.01 z"
   style="fill:#1d1d1e"
   id="path42" />
                    </g><g
   transform="matrix(-1,0,0,1,2372.5263,-6878.3899)"
   id="g85">
                <g
   transform="matrix(0.706263,0,0,0.665444,670.058,2411.4)"
   id="g55">
                    <path
   d="m 759.074,7084.01 c 4.727,-7.11 -11.928,17.94 -103.889,24.51 -154.701,11.05 -55.062,117.23 22.877,145.22 170.019,61.06 379.208,62.47 547.208,-11.8 93.41,-41.29 144.24,-81.7 79.82,-122.7 -37.69,-23.99 -158.08,-40.48 -158.08,-40.48 0,0 -77.2,-134.66 -55,-194.2 70.8,-189.95 -236.187,-251.49 -297.641,26.99 -0.104,0.47 -41.846,155.03 -35.295,172.46 z"
   style="fill:#2c99a5"
   id="path55" />
                </g>
                <path
   d="m 1396.81,6891.71 c -29.92,7.48 -37.73,58.26 6.18,67.04 6.69,1.34 26.24,8.05 40.68,-20.83 4.94,-9.88 -19.87,-41.69 -46.21,-45.45 -0.07,-0.02 0,0 -0.65,-0.76 z"
   style="fill:#fcb215"
   id="path56" />
                <path
   d="m 1439.78,7027.14 c -23.57,-6.77 -36.8,17.27 -34.31,37.52 1.37,11.16 6.63,22.91 19.65,23.61 3.17,0.17 34.66,-0.3 31.24,-7.81 -1.22,-2.68 -13.49,-39.51 -14.64,-42.96 -1.18,-3.52 -0.38,-9.91 -1.94,-10.36 z"
   style="fill:#fcb215"
   id="path57" />
                <path
   d="m 1301.48,6967.99 c -23.64,14.13 -13.21,55.17 -0.67,63 31.58,19.74 59.79,-33.41 49.46,-47.18 -7.59,-10.13 -8.37,-9.24 -17.89,-17.57 -4.16,-3.64 -8.27,-9.89 -16.6,-4.89 -0.24,0.15 -13.51,2.98 -14.3,6.64 z"
   style="fill:#fcb215"
   id="path58" />
                <path
   d="m 1318.13,6897.37 c -4.95,-1.53 13.85,11.81 -16.34,36.97 -20.31,16.92 -37.31,10.14 -40.38,8.92 12.06,-15.52 20.47,-29.67 35.49,-35.93 17.54,-7.3 18.43,-5.96 21.23,-9.96 z"
   style="fill:#fcb215"
   id="path59" />
                <path
   d="m 1224.98,7042.06 c 2.24,-1.68 16.59,2.08 22.56,14.66 3.33,7 5.38,17.6 -1.37,33.34 -3.31,7.73 -12.77,11.11 -13.69,11.57 -15.63,7.81 -20.66,-0.21 -20.85,-0.26 1.6,-20.35 2.08,-20.19 13.35,-59.31 z"
   style="fill:#fcb215"
   id="path60" />
                <path
   d="m 1330.1,7068.09 c -3.35,0.34 -17.28,9.23 -22.73,22.89 -4.75,11.89 -2.91,28.39 24.99,36.36 30.03,8.59 49.44,-22.08 35.16,-38.74 -5.81,-6.78 -6.79,-12.61 -11.34,-15.78 -13.69,-9.53 -25.67,-4.45 -26.08,-4.73 z"
   style="fill:#fcb215"
   id="path61" />
                <path
   d="m 1432.61,7157.26 c -1.66,0.86 -2.57,-0.9 -11.07,6.18 -7.57,6.32 -13.29,23.67 1.84,30.54 31.12,14.15 45.44,4.42 51.99,-8.91 6.03,-12.29 3.31,-26.22 -10.87,-30.09 -21.53,-5.87 -28.65,3.21 -31.89,2.28 z"
   style="fill:#fcb215"
   id="path62" />
                <path
   d="m 1497.56,7125.64 c -3.69,3.08 7.32,25.37 16.34,27.81 27.81,7.52 37.89,-2.24 45.97,-13.9 -8.53,-2.69 -50.41,-14.55 -62.31,-13.91 z"
   style="fill:#fcb215"
   id="path63" />
                <path
   d="m 1582.88,7206.72 c 0.41,-3.63 6.79,-22.25 -15.55,-28.63 -41.08,-11.74 -57.14,16.3 -57.6,19.52 -0.06,0.45 7.14,28.1 8.14,29.29 0.54,0.66 2.15,2.59 6.43,8.5 26.18,-15.08 27.17,-12.6 58.58,-28.68 z"
   style="fill:#fcb215"
   id="path64" />
                <path
   d="m 1317.01,7226.97 c 5.44,-20.69 37.2,-37.16 48.28,-35.58 1.25,0.18 17.15,5.57 21.31,19.61 2.77,9.38 5.04,25.49 -11.06,37.27 -28.24,20.68 -62.44,8.5 -58.53,-21.3 z"
   style="fill:#fcb215"
   id="path65" />
                <path
   d="m 1197.31,7248.6 c -7.75,-9.2 12.35,-31.01 40.37,-32.76 13.65,-0.86 21.52,4.16 23.59,13.92 1.85,8.7 2.62,23.46 2.94,34.05 -31.89,-4.83 -36.69,-3.55 -66.9,-15.21 z"
   style="fill:#fcb215"
   id="path66" />
                <path
   d="m 1250.86,7147.7 c -4.84,1.24 -20.53,37.52 15.45,46.98 12.55,3.31 40.81,-3.21 46.06,-36.44 -14.99,0 -21.87,-2.86 -29.99,-4 -6.89,-0.96 -27.55,-6.91 -31.52,-6.54 z"
   style="fill:#fcb215"
   id="path67" />
                <path
   d="m 1134.95,7165.28 c -9.91,0.68 -24.76,17.84 1.14,20.72 3.69,0.41 45.41,5.05 43.48,-16.25 -0.01,-0.08 -15.12,-19.57 -44.62,-4.47 z"
   style="fill:#fcb215"
   id="path68" />
                <g
   id="g84">
                    <g
   transform="translate(502.856,-22.0625)"
   id="g72">
                        <g
   id="g71">
                            <g
   transform="matrix(0.706263,0,0,0.665444,167.203,2433.46)"
   id="g69">
                                <path
   d="m 759.074,7084.01 c 4.727,-7.11 -11.928,17.94 -103.889,24.51 -154.701,11.05 -55.062,117.23 22.877,145.22 170.019,61.06 379.208,62.47 547.208,-11.8 93.41,-41.29 144.24,-81.7 79.82,-122.7 -37.69,-23.99 -158.08,-40.48 -158.08,-40.48 0,0 -77.2,-134.66 -55,-194.2 70.8,-189.95 -236.187,-251.49 -297.641,26.99 -0.104,0.47 -41.846,155.03 -35.295,172.46 z"
   style="fill:none;stroke:#000000;stroke-width:8.5px"
   id="path69" />
                            </g>
                            <path
   d="m 701.127,7147.66 c 30.488,16.42 49.832,30.56 124.884,31.85 80.504,1.39 136.762,-25.9 139.171,-26.7"
   style="fill:none;stroke:#000000;stroke-width:2.92px"
   id="path70" />
                            <path
   d="m 941.652,7006.78 c -8.225,2.46 4.075,21.87 -41.691,31.5"
   style="fill:none;stroke:#000000;stroke-width:2.92px"
   id="path71" />
                        </g>
                    </g>
                    <path
   d="m 1169.24,7160.99 c -24.6,-12.46 -76.59,24.66 -26.15,28.02 24.06,1.61 56.82,-11.75 26.15,-28.02 z"
   style="fill:none;stroke:#000000;stroke-width:2.92px"
   id="path72" />
                    <path
   d="m 1248.95,7150.74 c -25.35,28.83 20.93,57.69 48.54,34.03 8.14,-6.98 10.44,-19.81 13.26,-25.47"
   style="fill:none;stroke:#000000;stroke-width:2.92px"
   id="path73" />
                    <path
   d="m 1195.34,7247.18 c -3.6,-12.28 25.3,-38.91 56.52,-31.11 17.27,4.32 11.42,65.49 7.96,45.63"
   style="fill:none;stroke:#000000;stroke-width:2.92px"
   id="path74" />
                    <path
   d="m 1376.37,7195.41 c -6.29,-1.8 -9.04,-14.39 -40.68,8.99 -36.25,26.79 -12.11,56.21 7.43,55.18 12.33,-0.65 74.33,-16.55 33.25,-64.17 z"
   style="fill:none;stroke:#000000;stroke-width:2.92px"
   id="path75" />
                    <path
   d="m 1459.46,7154.88 c -2.49,-3.25 -46.84,-7.71 -45.25,30.42 0.27,6.43 31.36,29.07 53.06,10.08 19.35,-16.93 8.18,-44.88 -7.81,-40.5 z"
   style="fill:none;stroke:#000000;stroke-width:2.92px"
   id="path76" />
                    <path
   d="m 1524.54,7232.99 c -0.53,-0.38 -44.09,-45.34 20.73,-58.3 20.03,-4.01 41.74,9.53 39.79,32.89"
   style="fill:none;stroke:#000000;stroke-width:2.92px"
   id="path77" />
                    <path
   d="m 1496.45,7126.94 c 1.87,4.91 10.54,44.34 52.53,23.34 5.72,-2.86 9.29,-10.88 9.55,-11.14"
   style="fill:none;stroke:#000000;stroke-width:2.92px"
   id="path78" />
                    <path
   d="m 1209.63,7097.84 c 6.6,9.24 31.05,8.7 37.99,-9.63 8.35,-22.07 1.52,-42.9 -21.76,-46.69"
   style="fill:none;stroke:#000000;stroke-width:2.92px"
   id="path79" />
                    <path
   d="m 1356.32,7072.97 c -31.49,-25.04 -66.22,25.96 -43.44,45.48 34.1,29.23 85.26,-10.74 43.44,-45.48 z"
   style="fill:none;stroke:#000000;stroke-width:2.92px"
   id="path80" />
                    <path
   d="m 1437.79,7023.94 c -30.23,-4.12 -46.06,46.68 -17.74,63.21 5.87,3.42 29.97,0.07 37.14,-5.31"
   style="fill:none;stroke:#000000;stroke-width:2.92px"
   id="path81" />
                    <path
   d="m 1329.65,6962.27 c -21.69,-14.17 -60.33,25 -33.22,62.27 18.4,25.3 53.42,1.67 56.24,-26.53 2.03,-20.36 -7.79,-21.22 -23.02,-35.74 z"
   style="fill:none;stroke:#000000;stroke-width:2.92px"
   id="path82" />
                    <path
   d="m 1394.94,6892.51 c -28.29,4.18 -34.13,62.65 15.03,67.83 24.87,2.62 32.97,-25.74 33.96,-29.18"
   style="fill:none;stroke:#000000;stroke-width:2.92px"
   id="path83" />
                    <path
   d="m 1319.87,6901.64 c -2.14,35.37 -38.99,54.52 -58.99,41.19"
   style="fill:none;stroke:#000000;stroke-width:2.92px"
   id="path84" />
                </g>
            </g>
</svg>
