<?xml version="1.0" encoding="UTF-8" standalone="no"?>
<!DOCTYPE svg PUBLIC "-//W3C//DTD SVG 1.1//EN" "http://www.w3.org/Graphics/SVG/1.1/DTD/svg11.dtd">
<svg width="100%" height="100%" viewBox="0 0 2590 714" version="1.1" xmlns="http://www.w3.org/2000/svg" xmlns:xlink="http://www.w3.org/1999/xlink" xml:space="preserve" xmlns:serif="http://www.serif.com/" style="fill-rule:evenodd;clip-rule:evenodd;stroke-linecap:round;stroke-linejoin:round;stroke-miterlimit:1.5;">
    <g transform="matrix(1,0,0,1,-221.28,-400.533)">
        <g transform="matrix(0.995174,-0.00215357,0.00219055,1.01226,-399.9,-514.778)">
            <path d="M655.633,974.477C652.949,932.29 665.059,924.978 685.771,937.946L1002.49,1261.44C1014.31,1277.82 1010.48,1287.77 999.098,1294.61L685.825,1605.06C643.263,1619.39 627.855,1606.38 647.853,1575.6L655.633,974.477ZM2242.24,927.213L2484.83,1164.05C2491.99,1178.07 2488.81,1187.51 2480.69,1194.76L2264.09,1409.66C2252.8,1421.2 2245.01,1419.78 2242.24,1399.8L2242.24,927.213ZM2559.65,1294.19C2529.92,1296.36 2527.22,1287.27 2540.93,1271.34L2767.18,1064.06C2779.23,1049.83 2787.41,1050.84 2788.66,1079.23L2791.01,1274.51C2793.47,1289.25 2786.28,1297.04 2767.77,1296.69L2559.65,1294.19ZM1105.21,1126.07L1253.39,968.374C1270.11,957.633 1270.75,965.969 1277.76,998.949L1274.92,1259.27C1277.43,1289.66 1268.36,1309.72 1252.63,1323.82L1113.94,1458.86C1099.88,1467.4 1104.24,1463.25 1105.21,1438.5L1105.21,1126.07ZM2888.01,1286.75C2870.28,1282.44 2866.76,1279.86 2882.94,1266.52L3049.68,1095.72L3220.94,1256.92C3226.07,1269.55 3225.08,1279.15 3201.23,1277.45L2888.01,1286.75ZM2018.2,1048.78C2025.97,1043.32 2033.68,1045.14 2040.33,1052.46L2175.24,1202.03C2184.57,1215.94 2183.97,1229.19 2167.65,1241.39L2033.9,1375.13C2014.34,1396.5 2002.34,1392.15 1995.35,1370.77L1842.49,1217.91L2018.2,1048.78ZM1852.05,1408.32C1899.24,1440.28 1896.92,1459.27 1838.02,1460.43L1409.25,1461.2C1380.47,1466.51 1368.15,1458.01 1375.1,1433.36L1392.29,957.795L1852.05,1408.32Z" style="fill:rgb(193,191,191);"/>
        </g>
        <g transform="matrix(1,0,0,1,-430.846,-518.771)">
            <g transform="matrix(1,0,0,1,-91.6103,50.5463)">
                <path d="M747.903,872.925L747.903,1578.44L1109.25,1225.68L747.903,872.925Z" style="fill:rgb(40,101,186);stroke:rgb(0,51,122);stroke-width:8.33px;"/>
            </g>
            <g transform="matrix(1,0,0,1,-91.6103,50.5463)">
                <path d="M747.903,872.925L747.903,1578.44L1109.25,1225.68L747.903,872.925Z" style="fill:rgb(40,101,186);stroke:rgb(0,51,122);stroke-width:8.33px;"/>
            </g>
            <path d="M834.465,1149.2C826.743,1129.37 927.727,1234.41 963.982,1272.5C971.849,1280.76 965.539,1294.6 965.539,1294.6L915.301,1334.66C915.301,1334.66 890.173,1348 882.832,1342.46C875.093,1336.61 867.083,1325.75 866.826,1305.78C866.087,1248.41 840.488,1164.68 834.465,1149.2Z" style="fill:rgb(99,141,200);"/>
            <path d="M834.465,1149.2C826.743,1129.37 927.727,1234.41 963.982,1272.5C971.849,1280.76 965.539,1294.6 965.539,1294.6L915.301,1334.66C915.301,1334.66 890.173,1348 882.832,1342.46C875.093,1336.61 867.083,1325.75 866.826,1305.78C866.087,1248.41 840.488,1164.68 834.465,1149.2Z" style="fill:rgb(99,141,200);"/>
        </g>
        <g transform="matrix(1,0,0,1,-513.518,-526.299)">
            <g transform="matrix(0.709171,0,0,0.709171,1794.52,315.688)">
                <path d="M747.903,872.925L747.903,1578.44L1109.25,1225.68L747.903,872.925Z" style="fill:rgb(40,101,186);stroke:rgb(0,51,122);stroke-width:11.75px;"/>
            </g>
            <g transform="matrix(0.709171,0,0,0.709171,1794.52,315.688)">
                <path d="M747.903,872.925L747.903,1578.44L1109.25,1225.68L747.903,872.925Z" style="fill:rgb(40,101,186);stroke:rgb(0,51,122);stroke-width:11.75px;"/>
            </g>
            <path d="M2497.86,1142.87C2556.38,1177.98 2544.05,1189.28 2540.19,1192.82C2506.7,1223.53 2495.38,1241.6 2492.78,1218.22C2487.53,1170.99 2483.4,1149.66 2496.16,1145.41L2497.86,1142.87Z" style="fill:rgb(99,141,200);"/>
            <path d="M2497.86,1142.87C2556.38,1177.98 2544.05,1189.28 2540.19,1192.82C2506.7,1223.53 2495.38,1241.6 2492.78,1218.22C2487.53,1170.99 2483.4,1149.66 2496.16,1145.41L2497.86,1142.87Z" style="fill:rgb(99,141,200);"/>
        </g>
        <g transform="matrix(1,0,0,1,-513.518,-526.299)">
            <g transform="matrix(0.355621,0.355621,0.355621,-0.355621,2043.6,1345.91)">
                <path d="M747.903,872.925L747.903,1578.44L1109.25,1225.68L747.903,872.925Z" style="fill:rgb(40,101,186);stroke:rgb(0,51,122);stroke-width:16.57px;"/>
            </g>
            <g transform="matrix(0.355621,0.355621,0.355621,-0.355621,2043.6,1345.91)">
                <path d="M747.903,872.925L747.903,1578.44L1109.25,1225.68L747.903,872.925Z" style="fill:rgb(40,101,186);stroke:rgb(0,51,122);stroke-width:16.57px;"/>
            </g>
            <path d="M2850.91,1213.52C2852.74,1265.63 2852.37,1265.59 2852.67,1270.11C2853.91,1288.67 2797.67,1285.26 2796.51,1276.57C2794.04,1258.05 2848.28,1171.36 2850.91,1213.52Z" style="fill:rgb(99,141,200);"/>
            <path d="M2850.91,1213.52C2852.74,1265.63 2852.37,1265.59 2852.67,1270.11C2853.91,1288.67 2797.67,1285.26 2796.51,1276.57C2794.04,1258.05 2848.28,1171.36 2850.91,1213.52Z" style="fill:rgb(99,141,200);"/>
        </g>
        <g transform="matrix(1,0,0,1,-513.518,-526.299)">
            <g transform="matrix(-0.502924,-8.02271e-17,8.02271e-17,-0.502924,1745.46,1750.34)">
                <path d="M1108.67,1226.31L1108.67,520.962L748.021,873.039L747.903,1578.44L1108.67,1226.31" style="fill:rgb(40,101,186);stroke:rgb(0,51,122);stroke-width:16.57px;"/>
            </g>
            <g transform="matrix(-0.502924,-8.02271e-17,8.02271e-17,-0.502924,1745.46,1750.34)">
                <path d="M1108.67,1226.31L1108.67,520.962L748.021,873.039L747.903,1578.44L1108.67,1226.31" style="fill:rgb(40,101,186);stroke:rgb(0,51,122);stroke-width:16.57px;"/>
            </g>
            <g transform="matrix(0.588016,0.11863,-0.154641,0.76651,895.844,283.822)">
                <path d="M847.052,1190.03C841.671,1170.21 847.472,1154.84 870.075,1176.72C900.763,1206.43 943.105,1250.56 963.982,1272.5C971.849,1280.76 965.539,1294.6 965.539,1294.6L924.818,1331.73C924.818,1331.73 894.877,1368.23 887.536,1362.69C879.798,1356.84 859.479,1285.49 859.222,1265.52C858.758,1229.53 856.113,1223.41 847.052,1190.03Z" style="fill:rgb(99,141,200);"/>
            </g>
            <g transform="matrix(0.588016,0.11863,-0.154641,0.76651,895.844,283.822)">
                <path d="M847.052,1190.03C841.671,1170.21 847.472,1154.84 870.075,1176.72C900.763,1206.43 943.105,1250.56 963.982,1272.5C971.849,1280.76 965.539,1294.6 965.539,1294.6L924.818,1331.73C924.818,1331.73 894.877,1368.23 887.536,1362.69C879.798,1356.84 859.479,1285.49 859.222,1265.52C858.758,1229.53 856.113,1223.41 847.052,1190.03Z" style="fill:rgb(99,141,200);"/>
            </g>
        </g>
        <g transform="matrix(1,0,0,1,-513.518,-526.299)">
            <g transform="matrix(1.11022e-16,-0.502924,0.502924,1.11022e-16,2515.93,1661.12)">
                <path d="M747.903,872.925L747.903,1578.44L1109.25,1225.68L747.903,872.925Z" style="fill:rgb(40,101,186);stroke:rgb(0,51,122);stroke-width:16.57px;"/>
            </g>
            <g transform="matrix(1.11022e-16,-0.502924,0.502924,1.11022e-16,2515.93,1661.12)">
                <path d="M747.903,872.925L747.903,1578.44L1109.25,1225.68L747.903,872.925Z" style="fill:rgb(40,101,186);stroke:rgb(0,51,122);stroke-width:16.57px;"/>
            </g>
            <g transform="matrix(-0.707827,-0.706386,0.706386,-0.707827,4244.99,4049.43)">
                <path d="M2853.88,1221.41C2855.71,1273.53 2852.37,1265.59 2852.67,1270.11C2853.91,1288.67 2777.72,1285.07 2776.56,1276.39C2774.09,1257.86 2851.24,1179.26 2853.88,1221.41Z" style="fill:rgb(99,141,200);"/>
            </g>
            <g transform="matrix(-0.707827,-0.706386,0.706386,-0.707827,4244.99,4049.43)">
                <path d="M2853.88,1221.41C2855.71,1273.53 2852.37,1265.59 2852.67,1270.11C2853.91,1288.67 2777.72,1285.07 2776.56,1276.39C2774.09,1257.86 2851.24,1179.26 2853.88,1221.41Z" style="fill:rgb(99,141,200);"/>
            </g>
        </g>
        <g transform="matrix(1,0,0,1,-513.518,-526.299)">
            <g transform="matrix(0.635278,-0.635278,0.635278,0.635278,-1105.39,1925.85)">
                <rect x="2936.48" y="1833.95" width="274.399" height="274.399" style="fill:rgb(40,101,186);stroke:rgb(0,51,122);stroke-width:9.28px;"/>
            </g>
            <g transform="matrix(0.635278,-0.635278,0.635278,0.635278,-1105.39,1925.85)">
                <rect x="2936.48" y="1833.95" width="274.399" height="274.399" style="fill:rgb(40,101,186);stroke:rgb(0,51,122);stroke-width:9.28px;"/>
            </g>
            <path d="M2106.48,1091.09C2102.53,1089.71 2203.51,1179.78 2089.22,1141.68C2057.71,1131.18 2091.69,1092.12 2106.48,1091.09Z" style="fill:rgb(99,141,200);"/>
            <path d="M2106.48,1091.09C2102.53,1089.71 2203.51,1179.78 2089.22,1141.68C2057.71,1131.18 2091.69,1092.12 2106.48,1091.09Z" style="fill:rgb(99,141,200);"/>
        </g>
        <g transform="matrix(1,0,0,1,-583.851,-482.856)">
            <g transform="matrix(-0.707107,0.707107,-0.707107,-0.707107,3190.27,1509.16)">
                <path d="M747.903,872.925L747.903,1578.44L1109.25,1225.68L747.903,872.925Z" style="fill:rgb(40,101,186);stroke:rgb(0,51,122);stroke-width:8.33px;"/>
            </g>
            <g transform="matrix(-0.707107,0.707107,-0.707107,-0.707107,3190.27,1509.16)">
                <path d="M747.903,872.925L747.903,1578.44L1109.25,1225.68L747.903,872.925Z" style="fill:rgb(40,101,186);stroke:rgb(0,51,122);stroke-width:8.33px;"/>
            </g>
            <g transform="matrix(-0.683695,0.729768,-0.729768,-0.683695,3173.05,1562.47)">
                <path d="M834.465,1149.2C826.743,1129.37 927.727,1234.41 963.982,1272.5C971.849,1280.76 965.539,1294.6 965.539,1294.6L915.301,1334.66C915.301,1334.66 890.173,1348 882.832,1342.46C875.093,1336.61 867.083,1325.75 866.826,1305.78C866.087,1248.41 840.488,1164.68 834.465,1149.2Z" style="fill:rgb(99,141,200);"/>
            </g>
            <g transform="matrix(-0.683695,0.729768,-0.729768,-0.683695,3173.05,1562.47)">
                <path d="M834.465,1149.2C826.743,1129.37 927.727,1234.41 963.982,1272.5C971.849,1280.76 965.539,1294.6 965.539,1294.6L915.301,1334.66C915.301,1334.66 890.173,1348 882.832,1342.46C875.093,1336.61 867.083,1325.75 866.826,1305.78C866.087,1248.41 840.488,1164.68 834.465,1149.2Z" style="fill:rgb(99,141,200);"/>
            </g>
        </g>
    </g>
</svg>
