<?xml version="1.0" encoding="UTF-8" standalone="no"?>
<!DOCTYPE svg PUBLIC "-//W3C//DTD SVG 1.1//EN" "http://www.w3.org/Graphics/SVG/1.1/DTD/svg11.dtd">
<svg width="100%" height="100%" viewBox="0 0 1226 1304" version="1.1" xmlns="http://www.w3.org/2000/svg" xmlns:xlink="http://www.w3.org/1999/xlink" xml:space="preserve" xmlns:serif="http://www.serif.com/" style="fill-rule:evenodd;clip-rule:evenodd;stroke-linecap:round;stroke-linejoin:round;stroke-miterlimit:1.5;">
    <g transform="matrix(1,0,0,1,-514.886,-3404.27)">
        <g transform="matrix(1,0,0,1,-1653.7,166.736)">
            <path d="M2610.62,3701.01C2510.16,3652.11 2412.28,3652.72 2397.09,3586.63C2362.78,3437.39 2538.46,3238.77 2552.94,3272.25C2595.54,3370.78 2637.62,3565.35 2681.73,3665.56C2792.15,3619.25 2760.46,3573.17 2874.71,3545.3C2928.59,3652.14 3080.51,3851.52 3099.2,3627.18C3108.47,3516.03 3103.01,3457.99 3206.19,3499.26C3260.02,3520.8 3423.98,3553.17 3299.22,3615.55C3288.56,3620.89 3146.29,3721.49 3145.72,3727.19C3140.22,3782.19 3374.85,3855.67 3255.03,3915.58C3254.74,3915.72 3193.64,3961.71 3188.31,3965.72C3203.83,3980.74 3327.1,4036.8 3280.61,4224.91C3236.16,4404.82 3202.49,3982.32 3106.18,4043.49C3010.63,4104.18 2927.94,4347.11 2838.72,4213.28C2831.74,4202.81 2749.03,4133.89 2741.03,4127.22C2664.76,4063.66 2711.27,4333.82 2578.5,4504.52C2558.33,4530.45 2559.01,4439.02 2550.95,4413.3C2474.66,4169.83 2516.88,4237.17 2673.25,4093.81C2695.2,4073.69 2616.02,4033.32 2522.39,3930.32C2486.51,3890.85 2385.34,4151.42 2314.4,3988.39C2294.59,3942.86 2461.28,3888.73 2571.25,3866.74C2596.02,3861.78 2612.71,3818.06 2648,3803.94C2654.81,3801.22 2731.06,3759.65 2610.62,3701.01Z" style="fill:rgb(193,191,191);"/>
        </g>
        <g transform="matrix(1,0,0,1,575.027,2769.43)">
            <g transform="matrix(1,0,0,1,-91.6103,50.5463)">
                <path d="M747.903,872.925L747.903,1578.44L1109.25,1225.68L747.903,872.925Z" style="fill:rgb(40,101,186);stroke:rgb(0,51,122);stroke-width:8.33px;"/>
            </g>
            <path d="M834.465,1149.2C826.743,1129.37 927.727,1234.41 963.982,1272.5C971.849,1280.76 965.539,1294.6 965.539,1294.6L915.301,1334.66C915.301,1334.66 890.173,1348 882.832,1342.46C875.093,1336.61 867.083,1325.75 866.826,1305.78C866.087,1248.41 840.488,1164.68 834.465,1149.2Z" style="fill:rgb(99,141,200);"/>
        </g>
        <g transform="matrix(-0.943154,0.332356,0.332356,0.943154,2741.4,1754.14)">
            <g transform="matrix(0.709171,0,0,0.709171,1794.52,315.688)">
                <path d="M747.903,872.925L747.903,1578.44L1109.25,1225.68L747.903,872.925Z" style="fill:rgb(40,101,186);stroke:rgb(0,51,122);stroke-width:11.75px;"/>
            </g>
            <path d="M2497.86,1142.87C2556.38,1177.98 2544.05,1189.28 2540.19,1192.82C2506.7,1223.53 2495.38,1241.6 2492.78,1218.22C2487.53,1170.99 2483.4,1149.66 2496.16,1145.41L2497.86,1142.87Z" style="fill:rgb(99,141,200);"/>
        </g>
        <g transform="matrix(-0.943154,-0.332356,0.332356,-0.943154,2768.44,6357.58)">
            <g transform="matrix(0.709171,0,0,0.709171,1794.52,315.688)">
                <path d="M747.903,872.925L747.903,1578.44L1109.25,1225.68L747.903,872.925Z" style="fill:rgb(40,101,186);stroke:rgb(0,51,122);stroke-width:11.75px;"/>
            </g>
            <path d="M2497.86,1142.87C2556.38,1177.98 2544.05,1189.28 2540.19,1192.82C2506.7,1223.53 2495.38,1241.6 2492.78,1218.22C2487.53,1170.99 2483.4,1149.66 2496.16,1145.41L2497.86,1142.87Z" style="fill:rgb(99,141,200);"/>
        </g>
        <g transform="matrix(-0.98873,-0.149712,0.149712,-0.98873,4131.85,5368.52)">
            <g transform="matrix(0.355621,0.355621,0.355621,-0.355621,2043.6,1345.91)">
                <path d="M747.903,872.925L747.903,1578.44L1109.25,1225.68L747.903,872.925Z" style="fill:rgb(40,101,186);stroke:rgb(0,51,122);stroke-width:16.57px;"/>
            </g>
            <path d="M2850.91,1213.52C2852.74,1265.63 2852.37,1265.59 2852.67,1270.11C2853.91,1288.67 2797.67,1285.26 2796.51,1276.57C2794.04,1258.05 2848.28,1171.36 2850.91,1213.52Z" style="fill:rgb(99,141,200);"/>
        </g>
        <g transform="matrix(0.364859,0.931063,-0.931063,0.364859,1619.34,927.229)">
            <g transform="matrix(1.11022e-16,-0.502924,0.502924,1.11022e-16,2515.93,1661.12)">
                <path d="M747.903,872.925L747.903,1578.44L1109.25,1225.68L747.903,872.925Z" style="fill:rgb(40,101,186);stroke:rgb(0,51,122);stroke-width:16.57px;"/>
            </g>
            <g transform="matrix(-0.707827,-0.706386,0.706386,-0.707827,4244.99,4049.43)">
                <path d="M2853.88,1221.41C2855.71,1273.53 2852.37,1265.59 2852.67,1270.11C2853.91,1288.67 2777.72,1285.07 2776.56,1276.39C2774.09,1257.86 2851.24,1179.26 2853.88,1221.41Z" style="fill:rgb(99,141,200);"/>
            </g>
        </g>
        <g transform="matrix(1,0,0,1,-1406.11,2815.61)">
            <g transform="matrix(0.635278,-0.635278,0.635278,0.635278,-1105.39,1925.85)">
                <rect x="2936.48" y="1833.95" width="274.399" height="274.399" style="fill:rgb(40,101,186);stroke:rgb(0,51,122);stroke-width:9.28px;"/>
            </g>
            <path d="M2106.48,1091.09C2102.53,1089.71 2203.51,1179.78 2089.22,1141.68C2057.71,1131.18 2091.69,1092.12 2106.48,1091.09Z" style="fill:rgb(99,141,200);"/>
        </g>
        <g transform="matrix(0.707107,0.707107,-0.707107,0.707107,786.009,1946.59)">
            <g transform="matrix(-0.707107,0.707107,-0.707107,-0.707107,3190.27,1509.16)">
                <path d="M747.903,872.925L747.903,1578.44L1109.25,1225.68L747.903,872.925Z" style="fill:rgb(40,101,186);stroke:rgb(0,51,122);stroke-width:8.33px;"/>
            </g>
            <g transform="matrix(-0.683695,0.729768,-0.729768,-0.683695,3173.05,1562.47)">
                <path d="M834.465,1149.2C826.743,1129.37 927.727,1234.41 963.982,1272.5C971.849,1280.76 965.539,1294.6 965.539,1294.6L915.301,1334.66C915.301,1334.66 890.173,1348 882.832,1342.46C875.093,1336.61 867.083,1325.75 866.826,1305.78C866.087,1248.41 840.488,1164.68 834.465,1149.2Z" style="fill:rgb(99,141,200);"/>
            </g>
        </g>
    </g>
</svg>
