<?xml version="1.0" encoding="UTF-8" standalone="no"?>
<svg
   id="Layer_1"
   version="1.1"
   viewBox="0 0 662.09996 157.60001"
   sodipodi:docname="2026-IN-04_Pallanguzhi_sample.svg"
   width="662.09998"
   height="157.60001"
   inkscape:version="1.4.4 (dcaf3e7, 2026-05-05)"
   xmlns:inkscape="http://www.inkscape.org/namespaces/inkscape"
   xmlns:sodipodi="http://sodipodi.sourceforge.net/DTD/sodipodi-0.dtd"
   xmlns:xlink="http://www.w3.org/1999/xlink"
   xmlns="http://www.w3.org/2000/svg"
   xmlns:svg="http://www.w3.org/2000/svg">
  <sodipodi:namedview
     id="namedview134"
     pagecolor="#ffffff"
     bordercolor="#000000"
     borderopacity="0.25"
     inkscape:showpageshadow="2"
     inkscape:pageopacity="0.0"
     inkscape:pagecheckerboard="0"
     inkscape:deskcolor="#d1d1d1"
     inkscape:zoom="1.0375888"
     inkscape:cx="315.63564"
     inkscape:cy="106.49691"
     inkscape:window-width="1409"
     inkscape:window-height="734"
     inkscape:window-x="103"
     inkscape:window-y="131"
     inkscape:window-maximized="0"
     inkscape:current-layer="Layer_1" />
  <!-- Generator: Adobe Illustrator 29.1.0, SVG Export Plug-In . SVG Version: 2.1.0 Build 142)  -->
  <defs
     id="defs7">
    <style
       id="style1">
      .st0 {
        fill: url(#radial-gradient3);
      }

      .st0, .st1, .st2, .st3, .st4, .st5, .st6, .st7, .st8, .st9, .st10, .st11, .st12, .st13, .st14, .st15, .st16, .st17, .st18, .st19, .st20, .st21, .st22, .st23, .st24, .st25, .st26, .st27, .st28, .st29, .st30, .st31, .st32, .st33, .st34, .st35, .st36, .st37, .st38, .st39, .st40, .st41, .st42, .st43, .st44, .st45, .st46, .st47, .st48, .st49, .st50, .st51, .st52, .st53, .st54 {
        stroke-miterlimit: 10;
      }

      .st0, .st1, .st2, .st3, .st9, .st10, .st39, .st40, .st41, .st42, .st43, .st44, .st45, .st46, .st47, .st48, .st49, .st50, .st51, .st52, .st53, .st54 {
        stroke: #231f20;
      }

      .st0, .st1, .st2, .st3, .st43, .st44, .st45, .st46, .st47, .st48, .st49, .st50, .st51, .st52, .st53, .st54 {
        stroke-width: .5px;
      }

      .st1 {
        fill: url(#radial-gradient4);
      }

      .st2 {
        fill: url(#radial-gradient2);
      }

      .st3 {
        fill: url(#radial-gradient1);
      }

      .st55, .st42 {
        fill: #231f20;
      }

      .st4 {
        fill: url(#radial-gradient7);
      }

      .st4, .st5, .st6, .st7, .st8, .st11, .st12, .st13, .st14, .st15, .st16, .st17, .st18, .st19, .st20, .st21, .st22, .st23, .st24, .st25, .st26, .st27, .st28, .st29, .st30, .st31, .st32, .st33, .st34, .st35, .st36, .st37 {
        stroke: #d1d3d4;
        stroke-width: .2px;
      }

      .st5 {
        fill: url(#radial-gradient8);
      }

      .st6 {
        fill: url(#radial-gradient6);
      }

      .st7 {
        fill: url(#radial-gradient9);
      }

      .st8 {
        fill: url(#radial-gradient5);
      }

      .st9 {
        fill: url(#radial-gradient);
      }

      .st9, .st39, .st40, .st41, .st42 {
        stroke-width: 2px;
      }

      .st10 {
        fill: none;
        stroke-width: .8px;
      }

      .st56 {
        fill: #fff;
      }

      .st11 {
        fill: url(#radial-gradient19);
      }

      .st12 {
        fill: url(#radial-gradient10);
      }

      .st13 {
        fill: url(#radial-gradient11);
      }

      .st14 {
        fill: url(#radial-gradient18);
      }

      .st15 {
        fill: url(#radial-gradient12);
      }

      .st16 {
        fill: url(#radial-gradient45);
      }

      .st17 {
        fill: url(#radial-gradient44);
      }

      .st18 {
        fill: url(#radial-gradient46);
      }

      .st19 {
        fill: url(#radial-gradient49);
      }

      .st20 {
        fill: url(#radial-gradient48);
      }

      .st21 {
        fill: url(#radial-gradient47);
      }

      .st22 {
        fill: url(#radial-gradient21);
      }

      .st23 {
        fill: url(#radial-gradient36);
      }

      .st24 {
        fill: url(#radial-gradient37);
      }

      .st25 {
        fill: url(#radial-gradient34);
      }

      .st26 {
        fill: url(#radial-gradient38);
      }

      .st27 {
        fill: url(#radial-gradient32);
      }

      .st28 {
        fill: url(#radial-gradient33);
      }

      .st29 {
        fill: url(#radial-gradient35);
      }

      .st30 {
        fill: url(#radial-gradient31);
      }

      .st31 {
        fill: url(#radial-gradient23);
      }

      .st32 {
        fill: url(#radial-gradient24);
      }

      .st33 {
        fill: url(#radial-gradient25);
      }

      .st34 {
        fill: url(#radial-gradient20);
      }

      .st35 {
        fill: url(#radial-gradient22);
      }

      .st36 {
        fill: url(#radial-gradient51);
      }

      .st37 {
        fill: url(#radial-gradient50);
      }

      .st57 {
        fill: #fee3cb;
      }

      .st58, .st38 {
        fill: #cf9670;
      }

      .st38 {
        stroke: #cf9670;
      }

      .st39 {
        fill: url(#radial-gradient26);
      }

      .st40 {
        fill: url(#radial-gradient39);
      }

      .st41 {
        fill: url(#radial-gradient13);
      }

      .st43 {
        fill: url(#radial-gradient27);
      }

      .st44 {
        fill: url(#radial-gradient30);
      }

      .st45 {
        fill: url(#radial-gradient15);
      }

      .st46 {
        fill: url(#radial-gradient17);
      }

      .st47 {
        fill: url(#radial-gradient16);
      }

      .st48 {
        fill: url(#radial-gradient14);
      }

      .st49 {
        fill: url(#radial-gradient29);
      }

      .st50 {
        fill: url(#radial-gradient28);
      }

      .st51 {
        fill: url(#radial-gradient42);
      }

      .st52 {
        fill: url(#radial-gradient41);
      }

      .st53 {
        fill: url(#radial-gradient40);
      }

      .st54 {
        fill: url(#radial-gradient43);
      }
    </style>
    <radialGradient
       id="radial-gradient"
       cx="95.199997"
       cy="190.10001"
       fx="78.5"
       fy="121.3"
       r="70.900002"
       gradientTransform="matrix(1,0,0,0.5,0,34.2)"
       gradientUnits="userSpaceOnUse">
      <stop
         offset="0"
         stop-color="#a97c50"
         id="stop1" />
      <stop
         offset="1"
         stop-color="#754c29"
         id="stop2" />
    </radialGradient>
    <radialGradient
       id="radial-gradient1"
       cx="137.7"
       cy="190.10001"
       fx="137.7"
       fy="190.10001"
       r="17.700001"
       gradientTransform="matrix(1,0,0,0.5,0,34.2)"
       gradientUnits="userSpaceOnUse">
      <stop
         offset="0"
         stop-color="#754c29"
         id="stop3" />
      <stop
         offset="0"
         stop-color="#603913"
         id="stop4" />
      <stop
         offset="1"
         stop-color="#231f20"
         id="stop5" />
    </radialGradient>
    <radialGradient
       id="radial-gradient2"
       cx="95.199997"
       cy="147.60001"
       fx="95.199997"
       fy="147.60001"
       r="17.700001"
       xlink:href="#radial-gradient1" />
    <radialGradient
       id="radial-gradient3"
       cx="94.099998"
       cy="233.8"
       fx="94.099998"
       fy="233.8"
       r="17.700001"
       xlink:href="#radial-gradient1" />
    <radialGradient
       id="radial-gradient4"
       cx="52.299999"
       cy="188.3"
       fx="52.299999"
       fy="188.3"
       r="17.700001"
       xlink:href="#radial-gradient1" />
    <radialGradient
       id="radial-gradient5"
       cx="135.3"
       cy="129.2"
       fx="135.3"
       fy="129.2"
       r="3.5"
       gradientUnits="userSpaceOnUse">
      <stop
         offset="0"
         stop-color="#fff"
         id="stop6" />
      <stop
         offset="1"
         stop-color="#e6e7e8"
         id="stop7" />
    </radialGradient>
    <radialGradient
       id="radial-gradient6"
       cx="142.10001"
       cy="134.10001"
       fx="142.10001"
       fy="134.10001"
       r="3.5"
       xlink:href="#radial-gradient5" />
    <radialGradient
       id="radial-gradient7"
       cx="47.799999"
       cy="130.3"
       fx="47.799999"
       fy="130.3"
       r="3.5"
       xlink:href="#radial-gradient5" />
    <radialGradient
       id="radial-gradient8"
       cx="55.5"
       cy="132.10001"
       fx="55.5"
       fy="132.10001"
       r="3.5"
       xlink:href="#radial-gradient5" />
    <radialGradient
       id="radial-gradient9"
       cx="90.800003"
       cy="151.39999"
       fx="90.800003"
       fy="151.39999"
       r="3.5"
       xlink:href="#radial-gradient5" />
    <radialGradient
       id="radial-gradient10"
       cx="98.199997"
       cy="156.39999"
       fx="98.199997"
       fy="156.39999"
       r="3.5"
       xlink:href="#radial-gradient5" />
    <radialGradient
       id="radial-gradient11"
       cx="93.400002"
       cy="90.699997"
       fx="93.400002"
       fy="90.699997"
       xlink:href="#radial-gradient5" />
    <radialGradient
       id="radial-gradient12"
       cx="94.900002"
       cy="98.400002"
       fx="94.900002"
       fy="98.400002"
       r="3.5"
       xlink:href="#radial-gradient5" />
    <radialGradient
       id="radial-gradient13"
       cx="268.39999"
       fx="251.7"
       xlink:href="#radial-gradient" />
    <radialGradient
       id="radial-gradient14"
       cx="311"
       fx="311"
       xlink:href="#radial-gradient1" />
    <radialGradient
       id="radial-gradient15"
       cx="268.39999"
       cy="147.60001"
       fx="268.39999"
       fy="147.60001"
       r="17.700001"
       xlink:href="#radial-gradient1" />
    <radialGradient
       id="radial-gradient16"
       cx="267.29999"
       cy="233.8"
       fx="267.29999"
       fy="233.8"
       r="17.700001"
       xlink:href="#radial-gradient1" />
    <radialGradient
       id="radial-gradient17"
       cx="225.5"
       cy="188.3"
       fx="225.5"
       fy="188.3"
       r="17.700001"
       xlink:href="#radial-gradient1" />
    <radialGradient
       id="radial-gradient18"
       cx="315.39999"
       cy="117.9"
       fx="315.39999"
       fy="117.9"
       r="3.5"
       xlink:href="#radial-gradient5" />
    <radialGradient
       id="radial-gradient19"
       cx="309.5"
       cy="128.5"
       fx="309.5"
       fy="128.5"
       r="3.5"
       xlink:href="#radial-gradient5" />
    <radialGradient
       id="radial-gradient20"
       cx="311.29999"
       cy="136.10001"
       fx="311.29999"
       fy="136.10001"
       r="3.5"
       xlink:href="#radial-gradient5" />
    <radialGradient
       id="radial-gradient21"
       cx="220.8"
       cy="130.7"
       fx="220.8"
       fy="130.7"
       xlink:href="#radial-gradient5" />
    <radialGradient
       id="radial-gradient22"
       cx="228.5"
       cy="132.60001"
       fx="228.5"
       fy="132.60001"
       r="3.5"
       xlink:href="#radial-gradient5" />
    <radialGradient
       id="radial-gradient23"
       cx="263.70001"
       cy="151.89999"
       fx="263.70001"
       fy="151.89999"
       r="3.5"
       xlink:href="#radial-gradient5" />
    <radialGradient
       id="radial-gradient24"
       cx="271.20001"
       cy="156.89999"
       fx="271.20001"
       fy="156.89999"
       xlink:href="#radial-gradient5" />
    <radialGradient
       id="radial-gradient25"
       cx="318.39999"
       cy="131.7"
       fx="318.39999"
       fy="131.7"
       r="3.5"
       xlink:href="#radial-gradient5" />
    <radialGradient
       id="radial-gradient26"
       cx="440.5"
       fx="423.79999"
       fy="121.3"
       r="70.900002"
       xlink:href="#radial-gradient" />
    <radialGradient
       id="radial-gradient27"
       cx="483.10001"
       fx="483.10001"
       r="17.700001"
       xlink:href="#radial-gradient1" />
    <radialGradient
       id="radial-gradient28"
       cx="440.5"
       cy="147.60001"
       fx="440.5"
       fy="147.60001"
       r="17.700001"
       xlink:href="#radial-gradient1" />
    <radialGradient
       id="radial-gradient29"
       cx="439.39999"
       cy="233.8"
       fx="439.39999"
       fy="233.8"
       r="17.700001"
       xlink:href="#radial-gradient1" />
    <radialGradient
       id="radial-gradient30"
       cx="397.60001"
       cy="188.3"
       fx="397.60001"
       fy="188.3"
       r="17.700001"
       xlink:href="#radial-gradient1" />
    <radialGradient
       id="radial-gradient31"
       cx="481"
       cy="128.5"
       fx="481"
       fy="128.5"
       r="3.5"
       xlink:href="#radial-gradient5" />
    <radialGradient
       id="radial-gradient32"
       cx="482.79999"
       cy="136.10001"
       fx="482.79999"
       fy="136.10001"
       r="3.5"
       xlink:href="#radial-gradient5" />
    <radialGradient
       id="radial-gradient33"
       cx="392.29999"
       cy="130.7"
       fx="392.29999"
       fy="130.7"
       r="3.5"
       xlink:href="#radial-gradient5" />
    <radialGradient
       id="radial-gradient34"
       cx="400"
       cy="132.60001"
       fx="400"
       fy="132.60001"
       r="3.5"
       xlink:href="#radial-gradient5" />
    <radialGradient
       id="radial-gradient35"
       cx="434.70001"
       cy="151.3"
       fx="434.70001"
       fy="151.3"
       r="3.5"
       xlink:href="#radial-gradient5" />
    <radialGradient
       id="radial-gradient36"
       cx="447.79999"
       cy="154.10001"
       fx="447.79999"
       fy="154.10001"
       r="3.5"
       xlink:href="#radial-gradient5" />
    <radialGradient
       id="radial-gradient37"
       cx="489.89999"
       cy="131.7"
       fx="489.89999"
       fy="131.7"
       r="3.5"
       xlink:href="#radial-gradient5" />
    <radialGradient
       id="radial-gradient38"
       cx="439.79999"
       cy="158.7"
       fx="439.79999"
       fy="158.7"
       r="3.5"
       xlink:href="#radial-gradient5" />
    <radialGradient
       id="radial-gradient39"
       cx="613.5"
       fx="596.70001"
       fy="121.3"
       r="70.900002"
       xlink:href="#radial-gradient" />
    <radialGradient
       id="radial-gradient40"
       cx="656"
       fx="656"
       xlink:href="#radial-gradient1" />
    <radialGradient
       id="radial-gradient41"
       cx="613.40002"
       cy="147.60001"
       fx="613.40002"
       fy="147.60001"
       r="17.700001"
       xlink:href="#radial-gradient1" />
    <radialGradient
       id="radial-gradient42"
       cx="612.29999"
       cy="233.8"
       fx="612.29999"
       fy="233.8"
       r="17.700001"
       xlink:href="#radial-gradient1" />
    <radialGradient
       id="radial-gradient43"
       cx="570.5"
       cy="188.3"
       fx="570.5"
       fy="188.3"
       r="17.700001"
       xlink:href="#radial-gradient1" />
    <radialGradient
       id="radial-gradient44"
       cx="652.70001"
       cy="128.5"
       fx="652.70001"
       fy="128.5"
       r="3.5"
       xlink:href="#radial-gradient5" />
    <radialGradient
       id="radial-gradient45"
       cx="654.59998"
       cy="136.10001"
       fx="654.59998"
       fy="136.10001"
       r="3.5"
       xlink:href="#radial-gradient5" />
    <radialGradient
       id="radial-gradient46"
       cx="606.40002"
       cy="151.3"
       fx="606.40002"
       fy="151.3"
       r="3.5"
       xlink:href="#radial-gradient5" />
    <radialGradient
       id="radial-gradient47"
       cx="619.5"
       cy="154.10001"
       fx="619.5"
       fy="154.10001"
       r="3.5"
       xlink:href="#radial-gradient5" />
    <radialGradient
       id="radial-gradient48"
       cx="661.70001"
       cy="131.7"
       fx="661.70001"
       fy="131.7"
       r="3.5"
       xlink:href="#radial-gradient5" />
    <radialGradient
       id="radial-gradient49"
       cx="611.5"
       cy="158.7"
       fx="611.5"
       fy="158.7"
       r="3.5"
       xlink:href="#radial-gradient5" />
    <radialGradient
       id="radial-gradient50"
       cx="569.90002"
       cy="104.9"
       fx="569.90002"
       fy="104.9"
       r="3.5"
       xlink:href="#radial-gradient5" />
    <radialGradient
       id="radial-gradient51"
       cx="571.40002"
       cy="112.6"
       fx="571.40002"
       fy="112.6"
       r="3.5"
       xlink:href="#radial-gradient5" />
    <radialGradient
       inkscape:collect="always"
       xlink:href="#radial-gradient"
       id="radialGradient134"
       gradientUnits="userSpaceOnUse"
       gradientTransform="matrix(1,0,0,0.5,0,34.2)"
       cx="95.199997"
       cy="190.10001"
       fx="78.5"
       fy="121.3"
       r="70.900002" />
    <radialGradient
       inkscape:collect="always"
       xlink:href="#radial-gradient1"
       id="radialGradient135"
       gradientUnits="userSpaceOnUse"
       gradientTransform="matrix(1,0,0,0.5,0,34.2)"
       cx="137.7"
       cy="190.10001"
       fx="137.7"
       fy="190.10001"
       r="17.700001" />
    <radialGradient
       inkscape:collect="always"
       xlink:href="#radial-gradient5"
       id="radialGradient136"
       gradientUnits="userSpaceOnUse"
       cx="135.3"
       cy="129.2"
       fx="135.3"
       fy="129.2"
       r="3.5" />
  </defs>
  <g
     id="g39"
     transform="translate(-23.299995,-62.2)">
    <g
       id="g8">
      <path
         class="st10"
         d="m 80.6,86.7 c 25.2,-7.2 70,4.8 85,16.6"
         id="path7" />
      <path
         class="st55"
         d="m 168.9,106.5 c -2.1,-0.9 -4.9,-1.7 -7.1,-1.8 l 3.4,-1.7 1.5,-3.5 c 0.2,2.2 1.2,5 2.2,7 z"
         id="path8" />
    </g>
    <ellipse
       class="st42"
       cx="95.199997"
       cy="136.5"
       rx="70.900002"
       ry="36.700001"
       id="ellipse8" />
    <ellipse
       class="st42"
       cx="95.199997"
       cy="140.39999"
       rx="70.900002"
       ry="36.700001"
       id="ellipse9" />
    <ellipse
       class="st42"
       cx="95.199997"
       cy="144.3"
       rx="70.900002"
       ry="36.700001"
       id="ellipse10" />
    <ellipse
       class="st42"
       cx="95.199997"
       cy="148.2"
       rx="70.900002"
       ry="36.700001"
       id="ellipse11" />
    <ellipse
       class="st42"
       cx="95.199997"
       cy="152.10001"
       rx="70.900002"
       ry="36.700001"
       id="ellipse12" />
    <ellipse
       class="st9"
       cx="95.199997"
       cy="132.60001"
       rx="70.900002"
       ry="36.700001"
       id="ellipse13"
       style="fill:url(#radialGradient134)" />
    <ellipse
       class="st3"
       cx="137.7"
       cy="132.60001"
       rx="17.700001"
       ry="9.1999998"
       id="ellipse14"
       style="fill:url(#radialGradient135)" />
    <ellipse
       class="st2"
       cx="95.199997"
       cy="110.6"
       rx="17.700001"
       ry="9.1999998"
       id="ellipse15"
       style="fill:url(#radial-gradient2)" />
    <ellipse
       class="st0"
       cx="94.099998"
       cy="155.10001"
       rx="17.700001"
       ry="9.1999998"
       id="ellipse16"
       style="fill:url(#radial-gradient3)" />
    <ellipse
       class="st1"
       cx="52.299999"
       cy="131.60001"
       rx="17.700001"
       ry="9.1999998"
       id="ellipse17"
       style="fill:url(#radial-gradient4)" />
    <path
       class="st56"
       d="m 114.6,107.4 h 2.5 c 0.4,0 0.7,0.1 1,0.3 0.3,0.2 0.3,0.5 0.3,0.8 0,0.3 0,0.5 -0.2,0.7 -0.2,0.2 -0.3,0.2 -0.5,0.3 0.3,0 0.5,0.2 0.7,0.4 0.2,0.2 0.2,0.4 0.2,0.7 0,0.3 0,0.4 -0.2,0.6 -0.2,0.2 -0.2,0.3 -0.4,0.4 -0.1,0 -0.3,0.1 -0.5,0.1 -0.3,0 -0.5,0 -0.6,0 h -2.3 z m 1.4,1.7 h 0.6 c 0.2,0 0.4,0 0.4,-0.1 0,-0.1 0.1,-0.2 0.1,-0.3 0,-0.1 0,-0.2 -0.1,-0.3 -0.1,-0.1 -0.2,-0.1 -0.4,-0.1 H 116 Z m 0,1.7 h 0.7 c 0.2,0 0.4,0 0.5,-0.1 0.1,-0.1 0.1,-0.2 0.1,-0.3 0,-0.1 0,-0.2 -0.1,-0.3 -0.1,-0.1 -0.3,-0.1 -0.5,-0.1 H 116 v 0.9 z"
       id="path17" />
    <path
       class="st56"
       d="m 117,132.7 1.2,0.4 c 0,0.3 -0.2,0.6 -0.4,0.8 -0.2,0.2 -0.4,0.4 -0.6,0.5 -0.2,0.1 -0.6,0.2 -1,0.2 -0.4,0 -0.8,0 -1.1,-0.2 -0.3,-0.1 -0.6,-0.4 -0.8,-0.7 -0.2,-0.3 -0.3,-0.8 -0.3,-1.3 0,-0.5 0.2,-1.3 0.6,-1.6 0.4,-0.4 0.9,-0.6 1.6,-0.6 0.7,0 1,0.1 1.3,0.3 0.3,0.2 0.5,0.6 0.7,1 l -1.2,0.3 c 0,-0.1 0,-0.2 -0.1,-0.3 0,-0.1 -0.2,-0.2 -0.3,-0.2 -0.1,0 -0.2,0 -0.4,0 -0.3,0 -0.5,0.1 -0.7,0.4 -0.1,0.2 -0.2,0.5 -0.2,0.8 0,0.3 0,0.8 0.2,1 0.1,0.2 0.3,0.3 0.6,0.3 0.3,0 0.4,0 0.6,-0.2 0.2,-0.2 0.2,-0.3 0.3,-0.6 z"
       id="path18" />
    <path
       class="st56"
       d="m 93.4,139.9 h 2 c 0.4,0 0.7,0 0.9,0.2 0.2,0.1 0.4,0.3 0.6,0.5 0.2,0.2 0.3,0.4 0.3,0.7 0,0.3 0.1,0.5 0.1,0.8 0,0.5 0,0.8 -0.2,1.1 -0.2,0.3 -0.2,0.5 -0.4,0.6 -0.2,0.1 -0.4,0.3 -0.6,0.3 -0.3,0 -0.6,0.1 -0.8,0.1 h -2 v -4.3 z m 1.3,1 v 2.3 H 95 c 0.3,0 0.5,0 0.6,0 0.1,0 0.2,-0.2 0.3,-0.3 0.1,-0.1 0,-0.4 0,-0.7 0,-0.3 0,-0.8 -0.2,-0.9 C 95.5,141.2 95.3,141 95,141 h -0.3 z"
       id="path19" />
    <path
       class="st56"
       d="m 75,133.2 h -1.5 l -0.2,0.7 h -1.4 l 1.6,-4.3 h 1.4 l 1.6,4.3 h -1.4 l -0.2,-0.7 z m -0.3,-0.9 -0.5,-1.5 -0.5,1.5 h 0.9 z"
       id="path20" />
    <path
       class="st57"
       d="m 36,93.2 c 0.1,0.1 0.2,0.3 0.4,0.5"
       id="path21" />
    <g
       id="g26">
      <path
         class="st55"
         d="m 76.5,207.5 2.5,-0.2 c 0,0.4 0.2,0.7 0.3,0.9 0.3,0.3 0.7,0.5 1.2,0.5 0.5,0 0.7,0 0.9,-0.3 0.2,-0.3 0.3,-0.4 0.3,-0.6 0,-0.2 0,-0.4 -0.3,-0.6 -0.3,-0.2 -0.6,-0.3 -1.4,-0.5 -1.2,-0.3 -2,-0.6 -2.5,-1 -0.5,-0.4 -0.8,-1 -0.8,-1.7 0,-0.7 0.1,-0.9 0.4,-1.3 0.3,-0.4 0.6,-0.7 1.2,-0.9 0.6,-0.2 1.2,-0.3 2.1,-0.3 0.9,0 1.9,0.2 2.5,0.6 0.6,0.4 0.9,1.1 1,1.9 h -2.5 c 0,-0.2 -0.2,-0.5 -0.4,-0.7 -0.2,-0.2 -0.5,-0.3 -0.9,-0.3 -0.4,0 -0.5,0 -0.7,0.2 -0.2,0.2 -0.2,0.3 -0.2,0.5 0,0.2 0,0.3 0.2,0.4 0.1,0.1 0.4,0.2 0.9,0.3 1.2,0.2 2,0.5 2.5,0.8 0.5,0.3 0.9,0.6 1.1,1 0.2,0.4 0.3,0.8 0.3,1.3 0,0.5 -0.2,1.1 -0.5,1.5 -0.3,0.4 -0.7,0.8 -1.3,1.1 -0.6,0.3 -1.2,0.4 -2.1,0.4 -1.5,0 -2.5,-0.3 -3,-0.8 -0.5,-0.5 -0.9,-1.3 -1,-2.1 z"
         id="path22" />
      <path
         class="st55"
         d="m 88.4,201.7 v 2.4 h 1.3 v 1.7 h -1.3 v 2.2 c 0,0.3 0,0.4 0,0.5 0,0.1 0.2,0.2 0.4,0.2 0.2,0 0.4,0 0.7,-0.2 l 0.2,1.6 c -0.6,0.1 -1.1,0.2 -1.7,0.2 -0.6,0 -1,0 -1.3,-0.2 -0.3,-0.2 -0.5,-0.4 -0.6,-0.7 -0.1,-0.3 -0.2,-0.8 -0.2,-1.5 v -2.2 H 85 V 204 h 0.9 v -1.1 l 2.4,-1.2 z"
         id="path23" />
      <path
         class="st55"
         d="m 97.7,207.8 h -4.8 c 0,0.4 0.1,0.7 0.3,0.9 0.2,0.3 0.5,0.4 0.9,0.4 0.4,0 0.5,0 0.7,-0.2 0.1,0 0.3,-0.2 0.4,-0.4 l 2.3,0.2 c -0.4,0.6 -0.8,1.1 -1.3,1.3 -0.5,0.2 -1.2,0.4 -2.2,0.4 -1,0 -1.5,-0.1 -1.9,-0.3 -0.4,-0.2 -0.9,-0.6 -1.2,-1.1 -0.3,-0.5 -0.5,-1.1 -0.5,-1.8 0,-1 0.3,-1.8 0.9,-2.4 0.6,-0.6 1.5,-0.9 2.6,-0.9 1.1,0 1.6,0.1 2.1,0.4 0.5,0.3 0.9,0.7 1.2,1.2 0.3,0.5 0.4,1.2 0.4,2 v 0.3 z m -2.4,-1.1 c 0,-0.5 -0.2,-0.8 -0.4,-1 -0.2,-0.2 -0.5,-0.3 -0.8,-0.3 -0.3,0 -0.7,0.2 -0.9,0.5 -0.1,0.2 -0.2,0.5 -0.3,0.8 h 2.3 z"
         id="path24" />
      <path
         class="st55"
         d="m 98.8,212.7 v -8.6 h 2.2 v 0.9 c 0.3,-0.4 0.6,-0.6 0.8,-0.8 0.3,-0.2 0.7,-0.3 1.2,-0.3 0.8,0 1.5,0.3 1.9,1 0.4,0.7 0.7,1.4 0.7,2.4 0,1 -0.2,1.8 -0.7,2.4 -0.5,0.6 -1.1,0.8 -1.9,0.8 -0.8,0 -0.7,0 -1,-0.2 -0.3,-0.2 -0.6,-0.3 -0.8,-0.6 v 3 z m 2.4,-5.5 c 0,0.5 0.1,0.9 0.3,1.1 0.2,0.2 0.5,0.4 0.8,0.4 0.3,0 0.5,-0.1 0.7,-0.3 0.2,-0.2 0.3,-0.6 0.3,-1.2 0,-0.6 0,-0.9 -0.3,-1.1 -0.3,-0.2 -0.4,-0.4 -0.7,-0.4 -0.3,0 -0.6,0.1 -0.8,0.4 -0.2,0.3 -0.3,0.6 -0.3,1.2 z"
         id="path25" />
      <path
         class="st55"
         d="m 116,201.6 v 8.7 h -2.4 v -5.7 c -0.4,0.3 -0.8,0.5 -1.1,0.7 -0.3,0.2 -0.8,0.4 -1.4,0.5 v -2 c 0.8,-0.3 1.4,-0.6 1.9,-0.9 0.5,-0.3 0.8,-0.8 1.1,-1.4 h 2 z"
         id="path26" />
    </g>
    <circle
       class="st8"
       cx="135.3"
       cy="129.2"
       r="3.5"
       id="circle26"
       style="fill:url(#radialGradient136)" />
    <circle
       class="st6"
       cx="142.10001"
       cy="134.10001"
       r="3.5"
       id="circle27"
       style="fill:url(#radial-gradient6)" />
    <circle
       class="st4"
       cx="47.799999"
       cy="130.3"
       r="3.5"
       id="circle28"
       style="fill:url(#radial-gradient7)" />
    <circle
       class="st5"
       cx="55.5"
       cy="132.10001"
       r="3.5"
       id="circle29"
       style="fill:url(#radial-gradient8)" />
    <circle
       class="st7"
       cx="90.800003"
       cy="151.39999"
       r="3.5"
       id="circle30"
       style="fill:url(#radial-gradient9)" />
    <circle
       class="st12"
       cx="98.199997"
       cy="156.39999"
       r="3.5"
       id="circle31"
       style="fill:url(#radial-gradient10)" />
    <g
       id="g38">
      <g
         id="g36">
        <path
           class="st58"
           d="m 97.6,103.3 c 0.9,-1.5 1.7,-3 2,-4.7 0.4,-1.7 0.3,-3.4 0.3,-5.1 0,-1.9 0,-3.9 0,-5.8 0,-1.8 -0.8,-3.2 -1.7,-4.7 -1.9,-3 -3.9,-6.3 -6.3,-9 -2.3,-2.5 -6.2,-3.3 -9.3,-4.3 -3.6,-1.2 -7.3,-2.3 -11,-3.1 -3.7,-0.7 -7.4,-0.7 -11.1,-0.9 -2,-1.2 -4,-2.4 -6.1,-3.5 -2.7,1.8 -4.8,4.3 -6.3,7.2 -1,2 -1.9,4.1 -2.2,6.3 -0.1,0.9 -0.2,1.7 -0.2,2.6 4.7,1.9 9.4,3.7 14.2,5.3 1.3,4.9 5.1,9 8.9,12.2 0.5,1 1.2,2 2.1,2.7 1.4,1.1 3.3,0.9 4.9,0.5 0.2,0.2 0.5,0.4 0.8,0.5 2.1,1.3 4.7,2 6.7,0.2 1.1,0.8 2.4,1.3 4,1.6 1.8,0.3 3.3,0 4.3,-1.1 -0.3,2.2 0.3,4.6 1.8,6.1 1.8,1.8 3.7,-2.2 4.3,-3.3 z"
           id="path31" />
        <path
           class="st57"
           d="m 71,98.5 c -0.9,-0.6 -1.4,-1.7 -1.9,-2.6 -0.5,-1.1 -1,-2.1 -1.3,-3.2 -0.6,-1.9 0.8,-3.6 2.9,-2.1 0,0 0,0 0,0 -0.1,0.9 0.8,2.3 1,2.9 0.9,2.1 1.7,4 3.4,5.5 -1.4,0.2 -2.8,0.4 -4.1,-0.5 z"
           id="path32" />
        <path
           class="st57"
           d="m 80,100.7 c -1.1,0.1 -2.2,-0.5 -3.1,-1 -2,-1.1 -3.4,-2.9 -4.1,-5 -0.4,-1.2 -2.1,-4 -0.5,-4.8 1.7,-0.8 3.9,1.1 5,2.4 0.6,2.4 2.4,4.6 4.1,6.3 0.5,0.5 0.9,0.9 1.4,1.2 0,0 0,0.2 0.1,0.2 -0.4,-0.1 -2.4,0.7 -2.8,0.8 z"
           id="path33" />
        <path
           class="st57"
           d="m 87.5,101.2 c -2.1,-0.2 -3.8,-0.9 -5.3,-2.5 -1.1,-1.2 -2.1,-2.2 -3,-3.6 -0.9,-1.4 -2.6,-4.9 0.6,-4.4 0.4,0.2 0.8,0.4 1.2,0.7 2.6,1.9 4.7,4.3 7.5,5.9 1,0.6 2.2,1.1 3.5,1.3 0,0.2 -0.2,0.4 -0.2,0.6 -1,1.5 -2.3,2.1 -4.2,1.9 z"
           id="path34" />
        <path
           class="st57"
           d="m 94.7,106.2 c 0.6,-0.5 1,-1.1 1.4,-1.8 1.6,-2.8 3,-5.3 3.1,-8.6 0,-1.4 0,-2.9 0,-4.3 0,-1.6 0.2,-3.4 -0.1,-5 -0.6,-2.8 -2.8,-5.3 -4.4,-7.7 -1,-1.4 -1.9,-2.9 -3,-4.2 -1.3,-1.4 -2.8,-2.3 -4.6,-2.9 -3.1,-1.1 -6.2,-2.1 -9.3,-3 -3.2,-1 -6.4,-1.8 -9.7,-2.1 -2.3,-0.2 -4.5,-0.3 -6.8,-0.5 -0.4,0 -0.9,-0.1 -1.4,-0.2 -0.2,0 -0.4,0 -0.6,-0.1 0,0 -0.2,0 -0.3,0 0,0 0,0 0,0 0,0 0.2,0 0.3,0 -1.9,-1.1 -3.8,-2 -5.8,-3 -2.4,1.8 -4.3,4.1 -5.7,6.8 -1,2 -1.9,4.1 -2.2,6.3 -0.1,0.7 -0.2,1.4 -0.2,2 4.7,1.9 9.3,3.8 14.1,5.6 0,-0.3 -0.1,-0.6 -0.2,-1 0.2,0.3 0.4,0.6 0.6,0.9 0.1,0.2 0.3,0.5 0.4,0.8 0.3,0.8 0.5,1.5 0.9,2.3 0.7,1.2 1.4,2.4 2.2,3.5 0.8,1.2 1.7,2.2 2.7,3.3 0.6,0.6 1.3,1.2 1.9,1.8 -0.1,-0.3 -0.3,-0.6 -0.4,-0.9 -0.4,-1 -1.5,-3.6 0,-4.4 1.2,-0.6 2.2,-0.4 3.1,0.5 0,0 0,-0.1 0.1,-0.2 0.4,-0.5 1,-0.8 1.6,-0.9 -0.4,0 -0.7,0 -1.1,0 -2.6,-0.2 -5.1,-0.9 -7.1,-2.7 -1.8,-1.6 -2.9,-3.9 -3.9,-6.1 0,-0.2 0.4,-0.1 0.4,0 1.2,2.5 2.8,5.5 5.4,6.8 2.6,1.4 5.4,1.4 8.2,1.5 2.2,0 4.3,0.5 6.2,1.8 2.2,1.5 4,3.3 6,5 1.3,1.1 3,2.4 4.7,2.7 1.3,0.2 3.3,-0.2 2.5,-2.1 -1.1,-2.7 -3.6,-4.9 -5.6,-6.9 -2.3,-2.3 -4.8,-4.4 -6.9,-7 -0.2,-0.5 -0.4,-0.9 -0.6,-1.4 2.1,2.8 4.6,5.1 7.2,7.5 0,-0.1 -0.2,-0.2 -0.2,-0.3 -0.5,-0.6 -1,-1.1 -1.5,-1.7 0.3,0.2 0.6,0.3 0.8,0.5 0.8,0.9 1.8,1.7 2.2,2.8 1.2,1.2 2.4,2.4 3.5,3.7 0.1,0.1 0.2,0.3 0.4,0.5 -0.1,-1.6 0,-3.3 0,-4.9 0,-1 -0.1,-2.3 -0.5,-3.2 -0.2,-0.5 -0.6,-1 -1,-1.4 -1,-0.6 -2,-0.9 -3.1,-1.2 -0.4,-0.2 -0.9,-0.5 -1.3,-0.7 1.3,0 2.5,0.5 3.7,1.1 -0.4,-0.3 -0.7,-0.6 -1.1,-0.9 -0.2,-0.2 0,-0.3 0.2,-0.2 1.9,1.5 3.3,2.6 3.7,5.1 0.3,2.1 0.4,4.8 0,7 0,0 0,0 0,0 1,1.4 2,3.4 0.3,4 -0.5,0.2 -1,0.3 -1.5,0.3 -0.6,1.7 -0.6,3.4 -0.1,5.1 0.2,0.7 1,3.6 2.3,2.4 z"
           id="path35" />
        <path
           class="st57"
           d="m 59.8,66.5 c 1.3,0 2.4,0.5 3.7,0.7 1.5,0.2 3,0.5 4.6,0.7 3.3,0.5 6.6,1 9.8,1.7 5.7,1.2 11.5,3.3 15.2,8 1.8,2.4 4,4.9 5,7.7 1.1,2.8 0.3,5.7 0.5,8.7 0,1.5 0.3,3 0,4.5 -0.3,1.4 -1,2.7 -1.7,4 -0.7,1.4 -1.5,2.8 -2.4,4.1 0.1,0 0.2,-0.1 0.4,-0.2 0.6,-0.5 1,-1.1 1.4,-1.8 1.6,-2.8 3,-5.3 3.1,-8.6 0,-1.4 0,-2.9 0,-4.3 0,-1.6 0.2,-3.4 -0.1,-5 -0.6,-2.8 -2.8,-5.3 -4.4,-7.7 -1,-1.4 -1.9,-2.9 -3,-4.2 -1.3,-1.4 -2.8,-2.3 -4.6,-2.9 -3.1,-1.1 -6.2,-2.1 -9.3,-3 -3.2,-1 -6.4,-1.8 -9.7,-2.1 -2.3,-0.2 -4.5,-0.3 -6.8,-0.5 -0.4,0 -0.9,-0.1 -1.4,-0.2 -0.2,0 -0.4,0 -0.6,-0.1 0,0 -0.2,0 -0.3,0 0,0 0,0 0,0 0,0 0.2,0 0.3,0 -1.9,-1.1 -3.8,-2 -5.8,-3 -0.3,0.2 -0.6,0.5 -0.9,0.7 2,1.1 4,2.1 6,3.2 0.3,-0.1 0.6,-0.2 0.9,-0.2 z"
           id="path36" />
      </g>
      <circle
         class="st13"
         cx="93.400002"
         cy="90.699997"
         r="3.5"
         id="circle36"
         style="fill:url(#radial-gradient11)" />
      <circle
         class="st15"
         cx="94.900002"
         cy="98.400002"
         r="3.5"
         id="circle37"
         style="fill:url(#radial-gradient12)" />
      <path
         class="st38"
         d="m 93.9,96 c -1.1,-2.7 -3.6,-4.9 -5.6,-6.9 -0.9,-0.9 -1.8,-1.8 -2.7,-2.6 v 8.1 c 0.4,0.3 0.7,0.6 1.1,0.9 1.3,1.1 3,2.4 4.7,2.7 1.3,0.2 3.3,-0.2 2.5,-2.1 z"
         id="path37" />
      <path
         class="st57"
         d="M 93.9,96 C 92.8,93.3 90.3,91.1 88.3,89.1 86.2,87 83.9,85 81.9,82.7 v 8.8 c 1.6,1.3 3.1,2.7 4.7,4 1.3,1.1 3,2.4 4.7,2.7 1.3,0.2 3.3,-0.2 2.5,-2.1 z"
         id="path38" />
    </g>
  </g>
  <g
     id="g72"
     transform="translate(-23.299995,-62.2)">
    <g
       id="g40">
      <path
         class="st10"
         d="m 335.1,104.1 c 7.6,5.6 10.4,8.5 13.9,20.4"
         id="path39" />
      <path
         class="st55"
         d="m 350.2,128.9 c -1.3,-1.8 -3.4,-4 -5.2,-5.2 l 3.8,0.3 3.1,-2.2 c -0.9,2 -1.5,4.9 -1.7,7.1 z"
         id="path40" />
    </g>
    <ellipse
       class="st42"
       cx="268.39999"
       cy="136.5"
       rx="70.900002"
       ry="36.700001"
       id="ellipse40" />
    <ellipse
       class="st42"
       cx="268.39999"
       cy="140.39999"
       rx="70.900002"
       ry="36.700001"
       id="ellipse41" />
    <ellipse
       class="st42"
       cx="268.39999"
       cy="144.3"
       rx="70.900002"
       ry="36.700001"
       id="ellipse42" />
    <ellipse
       class="st42"
       cx="268.39999"
       cy="148.2"
       rx="70.900002"
       ry="36.700001"
       id="ellipse43" />
    <ellipse
       class="st42"
       cx="268.39999"
       cy="152.10001"
       rx="70.900002"
       ry="36.700001"
       id="ellipse44" />
    <ellipse
       class="st41"
       cx="268.39999"
       cy="132.60001"
       rx="70.900002"
       ry="36.700001"
       id="ellipse45"
       style="fill:url(#radial-gradient13)" />
    <ellipse
       class="st48"
       cx="311"
       cy="132.60001"
       rx="17.700001"
       ry="9.1999998"
       id="ellipse46"
       style="fill:url(#radial-gradient14)" />
    <ellipse
       class="st45"
       cx="268.39999"
       cy="110.6"
       rx="17.700001"
       ry="9.1999998"
       id="ellipse47"
       style="fill:url(#radial-gradient15)" />
    <ellipse
       class="st47"
       cx="267.29999"
       cy="155.10001"
       rx="17.700001"
       ry="9.1999998"
       id="ellipse48"
       style="fill:url(#radial-gradient16)" />
    <ellipse
       class="st46"
       cx="225.5"
       cy="131.60001"
       rx="17.700001"
       ry="9.1999998"
       id="ellipse49"
       style="fill:url(#radial-gradient17)" />
    <path
       class="st56"
       d="m 287.9,107.4 h 2.5 c 0.4,0 0.7,0.1 1,0.3 0.3,0.2 0.3,0.5 0.3,0.8 0,0.3 0,0.5 -0.2,0.7 -0.2,0.2 -0.3,0.2 -0.5,0.3 0.3,0 0.5,0.2 0.7,0.4 0.2,0.2 0.2,0.4 0.2,0.7 0,0.3 0,0.4 -0.2,0.6 -0.2,0.2 -0.2,0.3 -0.4,0.4 -0.1,0 -0.3,0.1 -0.5,0.1 -0.3,0 -0.5,0 -0.6,0 h -2.3 z m 1.3,1.7 h 0.6 c 0.2,0 0.4,0 0.4,-0.1 0,-0.1 0.1,-0.2 0.1,-0.3 0,-0.1 0,-0.2 -0.1,-0.3 -0.1,-0.1 -0.2,-0.1 -0.4,-0.1 h -0.6 z m 0,1.7 h 0.7 c 0.2,0 0.4,0 0.5,-0.1 0.1,-0.1 0.1,-0.2 0.1,-0.3 0,-0.1 0,-0.2 -0.1,-0.3 -0.1,-0.1 -0.3,-0.1 -0.5,-0.1 h -0.7 v 0.9 z"
       id="path49" />
    <path
       class="st56"
       d="m 290.3,132.7 1.2,0.4 c 0,0.3 -0.2,0.6 -0.4,0.8 -0.2,0.2 -0.4,0.4 -0.6,0.5 -0.2,0.1 -0.6,0.2 -1,0.2 -0.4,0 -0.8,0 -1.1,-0.2 -0.3,-0.1 -0.6,-0.4 -0.8,-0.7 -0.2,-0.3 -0.3,-0.8 -0.3,-1.3 0,-0.5 0.2,-1.3 0.6,-1.6 0.4,-0.4 0.9,-0.6 1.6,-0.6 0.7,0 1,0.1 1.3,0.3 0.3,0.2 0.5,0.6 0.7,1 l -1.2,0.3 c 0,-0.1 0,-0.2 -0.1,-0.3 0,-0.1 -0.2,-0.2 -0.3,-0.2 -0.1,0 -0.2,0 -0.4,0 -0.3,0 -0.5,0.1 -0.7,0.4 -0.1,0.2 -0.2,0.5 -0.2,0.8 0,0.3 0,0.8 0.2,1 0.1,0.2 0.3,0.3 0.6,0.3 0.3,0 0.4,0 0.6,-0.2 0.2,-0.2 0.2,-0.3 0.3,-0.6 z"
       id="path50" />
    <path
       class="st56"
       d="m 266.6,139.9 h 2 c 0.4,0 0.7,0 0.9,0.2 0.2,0.1 0.4,0.3 0.6,0.5 0.2,0.2 0.3,0.4 0.3,0.7 0,0.3 0.1,0.5 0.1,0.8 0,0.5 0,0.8 -0.2,1.1 -0.2,0.3 -0.2,0.5 -0.4,0.6 -0.2,0.1 -0.4,0.3 -0.6,0.3 -0.3,0 -0.6,0.1 -0.8,0.1 h -2 v -4.3 z m 1.3,1 v 2.3 h 0.3 c 0.3,0 0.5,0 0.6,0 0.1,0 0.2,-0.2 0.3,-0.3 0.1,-0.1 0,-0.4 0,-0.7 0,-0.3 0,-0.8 -0.2,-0.9 -0.2,-0.1 -0.4,-0.3 -0.7,-0.3 h -0.3 z"
       id="path51" />
    <path
       class="st56"
       d="m 248.2,133.2 h -1.5 l -0.2,0.7 h -1.4 l 1.6,-4.3 h 1.4 l 1.6,4.3 h -1.4 l -0.2,-0.7 z m -0.2,-0.9 -0.5,-1.5 -0.5,1.5 h 0.9 z"
       id="path52" />
    <path
       class="st57"
       d="m 209.3,93.2 c 0.1,0.1 0.2,0.3 0.4,0.5"
       id="path53" />
    <g
       id="g58">
      <path
         class="st55"
         d="m 250.2,209.9 2.5,-0.2 c 0,0.4 0.2,0.7 0.3,0.9 0.3,0.3 0.7,0.5 1.2,0.5 0.5,0 0.7,0 0.9,-0.3 0.2,-0.3 0.3,-0.4 0.3,-0.6 0,-0.2 0,-0.4 -0.3,-0.6 -0.3,-0.2 -0.6,-0.3 -1.4,-0.5 -1.2,-0.3 -2,-0.6 -2.5,-1 -0.5,-0.4 -0.8,-1 -0.8,-1.7 0,-0.7 0.1,-0.9 0.4,-1.3 0.3,-0.4 0.6,-0.7 1.2,-0.9 0.6,-0.2 1.2,-0.3 2.1,-0.3 0.9,0 1.9,0.2 2.5,0.6 0.6,0.4 0.9,1.1 1,1.9 h -2.5 c 0,-0.2 -0.2,-0.5 -0.4,-0.7 -0.2,-0.2 -0.5,-0.3 -0.9,-0.3 -0.4,0 -0.5,0 -0.7,0.2 -0.2,0.2 -0.2,0.3 -0.2,0.5 0,0.2 0,0.3 0.2,0.4 0.1,0.1 0.4,0.2 0.9,0.3 1.2,0.2 2,0.5 2.5,0.8 0.5,0.3 0.9,0.6 1.1,1 0.2,0.4 0.3,0.8 0.3,1.3 0,0.5 -0.2,1.1 -0.5,1.5 -0.3,0.4 -0.7,0.8 -1.3,1.1 -0.6,0.3 -1.2,0.4 -2.1,0.4 -1.5,0 -2.5,-0.3 -3,-0.8 -0.5,-0.5 -0.9,-1.3 -1,-2.1 z"
         id="path54" />
      <path
         class="st55"
         d="m 262.1,204.1 v 2.4 h 1.3 v 1.7 h -1.3 v 2.2 c 0,0.3 0,0.4 0,0.5 0,0.1 0.2,0.2 0.4,0.2 0.2,0 0.4,0 0.7,-0.2 l 0.2,1.6 c -0.6,0.1 -1.1,0.2 -1.7,0.2 -0.6,0 -1,0 -1.3,-0.2 -0.3,-0.2 -0.5,-0.4 -0.6,-0.7 -0.1,-0.3 -0.2,-0.8 -0.2,-1.5 v -2.2 h -0.9 v -1.7 h 0.9 v -1.1 l 2.4,-1.2 z"
         id="path55" />
      <path
         class="st55"
         d="m 271.5,210.2 h -4.8 c 0,0.4 0.1,0.7 0.3,0.9 0.2,0.3 0.5,0.4 0.9,0.4 0.4,0 0.5,0 0.7,-0.2 0.1,0 0.3,-0.2 0.4,-0.4 l 2.3,0.2 c -0.4,0.6 -0.8,1.1 -1.3,1.3 -0.5,0.2 -1.2,0.4 -2.2,0.4 -1,0 -1.5,-0.1 -1.9,-0.3 -0.4,-0.2 -0.9,-0.6 -1.2,-1.1 -0.3,-0.5 -0.5,-1.1 -0.5,-1.8 0,-1 0.3,-1.8 0.9,-2.4 0.6,-0.6 1.5,-0.9 2.6,-0.9 1.1,0 1.6,0.1 2.1,0.4 0.5,0.3 0.9,0.7 1.2,1.2 0.3,0.5 0.4,1.2 0.4,2 v 0.3 z M 269,209 c 0,-0.5 -0.2,-0.8 -0.4,-1 -0.2,-0.2 -0.5,-0.3 -0.8,-0.3 -0.3,0 -0.7,0.2 -0.9,0.5 -0.1,0.2 -0.2,0.5 -0.3,0.8 h 2.3 z"
         id="path56" />
      <path
         class="st55"
         d="m 272.6,215.1 v -8.6 h 2.2 v 0.9 c 0.3,-0.4 0.6,-0.6 0.8,-0.8 0.3,-0.2 0.7,-0.3 1.2,-0.3 0.8,0 1.5,0.3 1.9,1 0.4,0.7 0.7,1.4 0.7,2.4 0,1 -0.2,1.8 -0.7,2.4 -0.5,0.6 -1.1,0.8 -1.9,0.8 -0.8,0 -0.7,0 -1,-0.2 -0.3,-0.2 -0.6,-0.3 -0.8,-0.6 v 3 z m 2.4,-5.5 c 0,0.5 0.1,0.9 0.3,1.1 0.2,0.2 0.5,0.4 0.8,0.4 0.3,0 0.5,-0.1 0.7,-0.3 0.2,-0.2 0.3,-0.6 0.3,-1.2 0,-0.6 0,-0.9 -0.3,-1.1 -0.3,-0.2 -0.4,-0.4 -0.7,-0.4 -0.3,0 -0.6,0.1 -0.8,0.4 -0.2,0.3 -0.3,0.6 -0.3,1.2 z"
         id="path57" />
      <path
         class="st55"
         d="m 291.3,212.7 h -7.2 c 0,-0.7 0.3,-1.4 0.7,-2 0.4,-0.6 1.2,-1.4 2.3,-2.2 0.7,-0.5 1.1,-0.9 1.3,-1.2 0.2,-0.3 0.3,-0.5 0.3,-0.8 0,-0.3 0,-0.5 -0.3,-0.7 -0.3,-0.2 -0.4,-0.3 -0.7,-0.3 -0.3,0 -0.6,0 -0.7,0.3 -0.1,0.3 -0.3,0.5 -0.4,1 l -2.4,-0.2 c 0,-0.7 0.3,-1.2 0.5,-1.6 0.2,-0.4 0.6,-0.7 1.1,-0.9 0.5,-0.2 1.1,-0.3 1.9,-0.3 0.8,0 1.5,0 2,0.3 0.5,0.3 0.8,0.5 1.1,0.9 0.3,0.4 0.4,0.8 0.4,1.3 0,0.5 -0.2,1 -0.5,1.5 -0.3,0.5 -0.9,1 -1.7,1.6 -0.5,0.3 -0.8,0.6 -1,0.7 -0.2,0.1 -0.4,0.3 -0.6,0.5 h 3.7 v 1.9 z"
         id="path58" />
    </g>
    <g
       id="g66">
      <g
         id="g64">
        <path
           class="st58"
           d="m 318.1,122.7 c 0.9,-1.5 1.7,-3 2,-4.7 0.4,-1.7 0.3,-3.4 0.3,-5.1 0,-1.9 0,-3.9 0,-5.8 0,-1.8 -0.8,-3.2 -1.7,-4.7 -1.9,-3 -3.9,-6.3 -6.3,-9 -2.3,-2.5 -6.2,-3.3 -9.3,-4.3 -3.6,-1.2 -7.3,-2.3 -11,-3.1 -3.7,-0.7 -7.4,-0.7 -11.1,-0.9 -2,-1.2 -4,-2.4 -6.1,-3.5 -2.7,1.8 -4.8,4.3 -6.3,7.2 -1,2 -1.9,4.1 -2.2,6.3 -0.1,0.9 -0.2,1.7 -0.2,2.6 4.7,1.9 9.4,3.7 14.2,5.3 1.3,4.9 5.1,9 8.9,12.2 0.5,1 1.2,2 2.1,2.7 1.4,1.1 3.3,0.9 4.9,0.5 0.2,0.2 0.5,0.4 0.8,0.5 2.1,1.3 4.7,2 6.7,0.2 1.1,0.8 2.4,1.3 4,1.6 1.8,0.3 3.3,0 4.3,-1.1 -0.3,2.2 0.3,4.6 1.8,6.1 1.8,1.8 3.7,-2.2 4.3,-3.3 z"
           id="path59" />
        <path
           class="st57"
           d="m 291.6,117.9 c -0.9,-0.6 -1.4,-1.7 -1.9,-2.6 -0.5,-1.1 -1,-2.1 -1.3,-3.2 -0.6,-1.9 0.8,-3.6 2.9,-2.1 0,0 0,0 0,0 -0.1,0.9 0.8,2.3 1,2.9 0.9,2.1 1.7,4 3.4,5.5 -1.4,0.2 -2.8,0.4 -4.1,-0.5 z"
           id="path60" />
        <path
           class="st57"
           d="m 300.6,120.2 c -1.1,0.1 -2.2,-0.5 -3.1,-1 -2,-1.1 -3.4,-2.9 -4.1,-5 -0.4,-1.2 -2.1,-4 -0.5,-4.8 1.7,-0.8 3.9,1.1 5,2.4 0.6,2.4 2.4,4.6 4.1,6.3 0.5,0.5 0.9,0.9 1.4,1.2 0,0 0,0.2 0.1,0.2 -0.4,-0.1 -2.4,0.7 -2.8,0.8 z"
           id="path61" />
        <path
           class="st57"
           d="m 308,120.7 c -2.1,-0.2 -3.8,-0.9 -5.3,-2.5 -1.1,-1.2 -2.1,-2.2 -3,-3.6 -0.9,-1.4 -2.6,-4.9 0.6,-4.4 0.4,0.2 0.8,0.4 1.2,0.7 2.6,1.9 4.7,4.3 7.5,5.9 1,0.6 2.2,1.1 3.5,1.3 0,0.2 -0.2,0.4 -0.2,0.6 -1,1.5 -2.3,2.1 -4.2,1.9 z"
           id="path62" />
        <path
           class="st57"
           d="m 315.3,125.7 c 0.6,-0.5 1,-1.1 1.4,-1.8 1.6,-2.8 3,-5.3 3.1,-8.6 0,-1.4 0,-2.9 0,-4.3 0,-1.6 0.2,-3.4 -0.1,-5 -0.6,-2.8 -2.8,-5.3 -4.4,-7.7 -1,-1.4 -1.9,-2.9 -3,-4.2 -1.3,-1.4 -2.8,-2.3 -4.6,-2.9 -3.1,-1.1 -6.2,-2.1 -9.3,-3 -3.2,-1 -6.4,-1.8 -9.7,-2.1 -2.3,-0.2 -4.5,-0.3 -6.8,-0.5 -0.4,0 -0.9,-0.1 -1.4,-0.2 -0.2,0 -0.4,0 -0.6,-0.1 0,0 -0.2,0 -0.3,0 0,0 0,0 0,0 0,0 0.2,0 0.3,0 -1.9,-1.1 -3.8,-2 -5.8,-3 -2.4,1.8 -4.3,4.1 -5.7,6.8 -1,2 -1.9,4.1 -2.2,6.3 -0.1,0.7 -0.2,1.4 -0.2,2 4.7,1.9 9.3,3.8 14.1,5.6 0,-0.3 -0.1,-0.6 -0.2,-1 0.2,0.3 0.4,0.6 0.6,0.9 0.1,0.2 0.3,0.5 0.4,0.8 0.3,0.8 0.5,1.5 0.9,2.3 0.7,1.2 1.4,2.4 2.2,3.5 0.8,1.2 1.7,2.2 2.7,3.3 0.6,0.6 1.3,1.2 1.9,1.8 -0.1,-0.3 -0.3,-0.6 -0.4,-0.9 -0.4,-1 -1.5,-3.6 0,-4.4 1.2,-0.6 2.2,-0.4 3.1,0.5 0,0 0,-0.1 0.1,-0.2 0.4,-0.5 1,-0.8 1.6,-0.9 -0.4,0 -0.7,0 -1.1,0 -2.6,-0.2 -5.1,-0.9 -7.1,-2.7 -1.8,-1.6 -2.9,-3.9 -3.9,-6.1 0,-0.2 0.4,-0.1 0.4,0 1.2,2.5 2.8,5.5 5.4,6.8 2.6,1.4 5.4,1.4 8.2,1.5 2.2,0 4.3,0.5 6.2,1.8 2.2,1.5 4,3.3 6,5 1.3,1.1 3,2.4 4.7,2.7 1.3,0.2 3.3,-0.2 2.5,-2.1 -1.1,-2.7 -3.6,-4.9 -5.6,-6.9 -2.3,-2.3 -4.8,-4.4 -6.9,-7 -0.2,-0.5 -0.4,-0.9 -0.6,-1.4 2.1,2.8 4.6,5.1 7.2,7.5 0,-0.1 -0.2,-0.2 -0.2,-0.3 -0.5,-0.6 -1,-1.1 -1.5,-1.7 0.3,0.2 0.6,0.3 0.8,0.5 0.8,0.9 1.8,1.7 2.2,2.8 1.2,1.2 2.4,2.4 3.5,3.7 0.1,0.1 0.2,0.3 0.4,0.5 -0.1,-1.6 0,-3.3 0,-4.9 0,-1 -0.1,-2.3 -0.5,-3.2 -0.2,-0.5 -0.6,-1 -1,-1.4 -1,-0.6 -2,-0.9 -3.1,-1.2 -0.4,-0.2 -0.9,-0.5 -1.3,-0.7 1.3,0 2.5,0.5 3.7,1.1 -0.4,-0.3 -0.7,-0.6 -1.1,-0.9 -0.2,-0.2 0,-0.3 0.2,-0.2 1.9,1.5 3.3,2.6 3.7,5.1 0.3,2.1 0.4,4.8 0,7 0,0 0,0 0,0 1,1.4 2,3.4 0.3,4 -0.5,0.2 -1,0.3 -1.5,0.3 -0.6,1.7 -0.6,3.4 -0.1,5.1 0.2,0.7 1,3.6 2.3,2.4 z"
           id="path63" />
        <path
           class="st57"
           d="m 280.3,86 c 1.3,0 2.4,0.5 3.7,0.7 1.5,0.2 3,0.5 4.6,0.7 3.3,0.5 6.6,1 9.8,1.7 5.7,1.2 11.5,3.3 15.2,8 1.8,2.4 4,4.9 5,7.7 1.1,2.8 0.3,5.7 0.5,8.7 0,1.5 0.3,3 0,4.5 -0.3,1.4 -1,2.7 -1.7,4 -0.7,1.4 -1.5,2.8 -2.4,4.1 0.1,0 0.2,-0.1 0.4,-0.2 0.6,-0.5 1,-1.1 1.4,-1.8 1.6,-2.8 3,-5.3 3.1,-8.6 0,-1.4 0,-2.9 0,-4.3 0,-1.6 0.2,-3.4 -0.1,-5 -0.6,-2.8 -2.8,-5.3 -4.4,-7.7 -1,-1.4 -1.9,-2.9 -3,-4.2 -1.3,-1.4 -2.8,-2.3 -4.6,-2.9 -3.1,-1.1 -6.2,-2.1 -9.3,-3 -3.2,-1 -6.4,-1.8 -9.7,-2.1 -2.3,-0.2 -4.5,-0.3 -6.8,-0.5 -0.4,0 -0.9,-0.1 -1.4,-0.2 -0.2,0 -0.4,0 -0.6,-0.1 0,0 -0.2,0 -0.3,0 0,0 0,0 0,0 0,0 0.2,0 0.3,0 -1.9,-1.1 -3.8,-2 -5.8,-3 -0.3,0.2 -0.6,0.5 -0.9,0.7 2,1.1 4,2.1 6,3.2 0.3,-0.1 0.6,-0.2 0.9,-0.2 z"
           id="path64" />
      </g>
      <circle
         class="st14"
         cx="315.39999"
         cy="117.9"
         r="3.5"
         id="circle64"
         style="fill:url(#radial-gradient18)" />
      <path
         class="st38"
         d="m 314.4,115.5 c -1.1,-2.7 -3.6,-4.9 -5.6,-6.9 -0.9,-0.9 -1.8,-1.8 -2.7,-2.6 v 8.1 c 0.4,0.3 0.7,0.6 1.1,0.9 1.3,1.1 3,2.4 4.7,2.7 1.3,0.2 3.3,-0.2 2.5,-2.1 z"
         id="path65" />
      <path
         class="st57"
         d="m 314.4,115.5 c -1.1,-2.7 -3.6,-4.9 -5.6,-6.9 -2.1,-2.1 -4.4,-4.1 -6.4,-6.4 v 8.8 c 1.6,1.3 3.1,2.7 4.7,4 1.3,1.1 3,2.4 4.7,2.7 1.3,0.2 3.3,-0.2 2.5,-2.1 z"
         id="path66" />
    </g>
    <circle
       class="st11"
       cx="309.5"
       cy="128.5"
       r="3.5"
       id="circle66"
       style="fill:url(#radial-gradient19)" />
    <circle
       class="st34"
       cx="311.29999"
       cy="136.10001"
       r="3.5"
       id="circle67"
       style="fill:url(#radial-gradient20)" />
    <circle
       class="st22"
       cx="220.8"
       cy="130.7"
       r="3.5"
       id="circle68"
       style="fill:url(#radial-gradient21)" />
    <circle
       class="st35"
       cx="228.5"
       cy="132.60001"
       r="3.5"
       id="circle69"
       style="fill:url(#radial-gradient22)" />
    <circle
       class="st31"
       cx="263.70001"
       cy="151.89999"
       r="3.5"
       id="circle70"
       style="fill:url(#radial-gradient23)" />
    <circle
       class="st32"
       cx="271.20001"
       cy="156.89999"
       r="3.5"
       id="circle71"
       style="fill:url(#radial-gradient24)" />
    <circle
       class="st33"
       cx="318.39999"
       cy="131.7"
       r="3.5"
       id="circle72"
       style="fill:url(#radial-gradient25)" />
  </g>
  <g
     id="g103"
     transform="translate(-23.299995,-62.2)">
    <ellipse
       class="st42"
       cx="440.5"
       cy="136.5"
       rx="70.900002"
       ry="36.700001"
       id="ellipse72" />
    <ellipse
       class="st42"
       cx="440.5"
       cy="140.39999"
       rx="70.900002"
       ry="36.700001"
       id="ellipse73" />
    <ellipse
       class="st42"
       cx="440.5"
       cy="144.3"
       rx="70.900002"
       ry="36.700001"
       id="ellipse74" />
    <ellipse
       class="st42"
       cx="440.5"
       cy="148.2"
       rx="70.900002"
       ry="36.700001"
       id="ellipse75" />
    <ellipse
       class="st42"
       cx="440.5"
       cy="152.10001"
       rx="70.900002"
       ry="36.700001"
       id="ellipse76" />
    <ellipse
       class="st39"
       cx="440.5"
       cy="132.60001"
       rx="70.900002"
       ry="36.700001"
       id="ellipse77"
       style="fill:url(#radial-gradient26)" />
    <ellipse
       class="st43"
       cx="483.10001"
       cy="132.60001"
       rx="17.700001"
       ry="9.1999998"
       id="ellipse78"
       style="fill:url(#radial-gradient27)" />
    <ellipse
       class="st50"
       cx="440.5"
       cy="110.6"
       rx="17.700001"
       ry="9.1999998"
       id="ellipse79"
       style="fill:url(#radial-gradient28)" />
    <ellipse
       class="st49"
       cx="439.39999"
       cy="155.10001"
       rx="17.700001"
       ry="9.1999998"
       id="ellipse80"
       style="fill:url(#radial-gradient29)" />
    <ellipse
       class="st44"
       cx="397.60001"
       cy="131.60001"
       rx="17.700001"
       ry="9.1999998"
       id="ellipse81"
       style="fill:url(#radial-gradient30)" />
    <path
       class="st56"
       d="m 459.9,107.4 h 2.5 c 0.4,0 0.7,0.1 1,0.3 0.3,0.2 0.3,0.5 0.3,0.8 0,0.3 0,0.5 -0.2,0.7 -0.2,0.2 -0.3,0.2 -0.5,0.3 0.3,0 0.5,0.2 0.7,0.4 0.2,0.2 0.2,0.4 0.2,0.7 0,0.3 0,0.4 -0.2,0.6 -0.2,0.2 -0.2,0.3 -0.4,0.4 -0.1,0 -0.3,0.1 -0.5,0.1 -0.3,0 -0.5,0 -0.6,0 h -2.3 z m 1.4,1.7 h 0.6 c 0.2,0 0.4,0 0.4,-0.1 0,-0.1 0.1,-0.2 0.1,-0.3 0,-0.1 0,-0.2 -0.1,-0.3 -0.1,-0.1 -0.2,-0.1 -0.4,-0.1 h -0.6 z m 0,1.7 h 0.7 c 0.2,0 0.4,0 0.5,-0.1 0.1,-0.1 0.1,-0.2 0.1,-0.3 0,-0.1 0,-0.2 -0.1,-0.3 -0.1,-0.1 -0.3,-0.1 -0.5,-0.1 h -0.7 v 0.9 z"
       id="path81" />
    <path
       class="st56"
       d="m 462.4,132.7 1.2,0.4 c 0,0.3 -0.2,0.6 -0.4,0.8 -0.2,0.2 -0.4,0.4 -0.6,0.5 -0.2,0.1 -0.6,0.2 -1,0.2 -0.4,0 -0.8,0 -1.1,-0.2 -0.3,-0.1 -0.6,-0.4 -0.8,-0.7 -0.2,-0.3 -0.3,-0.8 -0.3,-1.3 0,-0.5 0.2,-1.3 0.6,-1.6 0.4,-0.4 0.9,-0.6 1.6,-0.6 0.7,0 1,0.1 1.3,0.3 0.3,0.2 0.5,0.6 0.7,1 l -1.2,0.3 c 0,-0.1 0,-0.2 -0.1,-0.3 0,-0.1 -0.2,-0.2 -0.3,-0.2 -0.1,0 -0.2,0 -0.4,0 -0.3,0 -0.5,0.1 -0.7,0.4 -0.1,0.2 -0.2,0.5 -0.2,0.8 0,0.3 0,0.8 0.2,1 0.1,0.2 0.3,0.3 0.6,0.3 0.3,0 0.4,0 0.6,-0.2 0.2,-0.2 0.2,-0.3 0.3,-0.6 z"
       id="path82" />
    <path
       class="st56"
       d="m 438.7,139.9 h 2 c 0.4,0 0.7,0 0.9,0.2 0.2,0.1 0.4,0.3 0.6,0.5 0.2,0.2 0.3,0.4 0.3,0.7 0,0.3 0.1,0.5 0.1,0.8 0,0.5 0,0.8 -0.2,1.1 -0.2,0.3 -0.2,0.5 -0.4,0.6 -0.2,0.1 -0.4,0.3 -0.6,0.3 -0.3,0 -0.6,0.1 -0.8,0.1 h -2 v -4.3 z m 1.3,1 v 2.3 h 0.3 c 0.3,0 0.5,0 0.6,0 0.1,0 0.2,-0.2 0.3,-0.3 0.1,-0.1 0,-0.4 0,-0.7 0,-0.3 0,-0.8 -0.2,-0.9 -0.2,-0.1 -0.4,-0.3 -0.7,-0.3 H 440 Z"
       id="path83" />
    <path
       class="st56"
       d="m 420.3,133.2 h -1.5 l -0.2,0.7 h -1.4 l 1.6,-4.3 h 1.4 l 1.6,4.3 h -1.4 l -0.2,-0.7 z m -0.3,-0.9 -0.5,-1.5 -0.5,1.5 h 0.9 z"
       id="path84" />
    <path
       class="st57"
       d="m 381.4,93.2 c 0.1,0.1 0.2,0.3 0.4,0.5"
       id="path85" />
    <g
       id="g91">
      <path
         class="st58"
         d="m 449.6,140.8 c 0.9,-1.5 1.7,-3 2,-4.7 0.4,-1.7 0.3,-3.4 0.3,-5.1 0,-1.9 0,-3.9 0,-5.8 0,-1.8 -0.8,-3.2 -1.7,-4.7 -1.9,-3 -3.9,-6.3 -6.3,-9 -2.3,-2.5 -6.2,-3.3 -9.3,-4.3 -3.6,-1.2 -7.3,-2.3 -11,-3.1 -3.7,-0.7 -7.4,-0.7 -11.1,-0.9 -2,-1.2 -4,-2.4 -6.1,-3.5 -2.7,1.8 -4.8,4.3 -6.3,7.2 -1,2 -1.9,4.1 -2.2,6.3 -0.1,0.9 -0.2,1.7 -0.2,2.6 4.7,1.9 9.4,3.7 14.2,5.3 1.3,4.9 5.1,9 8.9,12.2 0.5,1 1.2,2 2.1,2.7 1.4,1.1 3.3,0.9 4.9,0.5 0.2,0.2 0.5,0.4 0.8,0.5 2.1,1.3 4.7,2 6.7,0.2 1.1,0.8 2.4,1.3 4,1.6 1.8,0.3 3.3,0 4.3,-1.1 -0.3,2.2 0.3,4.6 1.8,6.1 1.8,1.8 3.7,-2.2 4.3,-3.3 z"
         id="path86" />
      <path
         class="st57"
         d="m 423,136 c -0.9,-0.6 -1.4,-1.7 -1.9,-2.6 -0.5,-1.1 -1,-2.1 -1.3,-3.2 -0.6,-1.9 0.8,-3.6 2.9,-2.1 0,0 0,0 0,0 -0.1,0.9 0.8,2.3 1,2.9 0.9,2.1 1.7,4 3.4,5.5 -1.4,0.2 -2.8,0.4 -4.1,-0.5 z"
         id="path87" />
      <path
         class="st57"
         d="m 432,138.3 c -1.1,0.1 -2.2,-0.5 -3.1,-1 -2,-1.1 -3.4,-2.9 -4.1,-5 -0.4,-1.2 -2.1,-4 -0.5,-4.8 1.7,-0.8 3.9,1.1 5,2.4 0.6,2.4 2.4,4.6 4.1,6.3 0.5,0.5 0.9,0.9 1.4,1.2 0,0 0,0.2 0.1,0.2 -0.4,-0.1 -2.4,0.7 -2.8,0.8 z"
         id="path88" />
      <path
         class="st57"
         d="m 439.5,138.8 c -2.1,-0.2 -3.8,-0.9 -5.3,-2.5 -1.1,-1.2 -2.1,-2.2 -3,-3.6 -0.9,-1.4 -2.6,-4.9 0.6,-4.4 0.4,0.2 0.8,0.4 1.2,0.7 2.6,1.9 4.7,4.3 7.5,5.9 1,0.6 2.2,1.1 3.5,1.3 0,0.2 -0.2,0.4 -0.2,0.6 -1,1.5 -2.3,2.1 -4.2,1.9 z"
         id="path89" />
      <path
         class="st57"
         d="m 446.7,143.8 c 0.6,-0.5 1,-1.1 1.4,-1.8 1.6,-2.8 3,-5.3 3.1,-8.6 0,-1.4 0,-2.9 0,-4.3 0,-1.6 0.2,-3.4 -0.1,-5 -0.6,-2.8 -2.8,-5.3 -4.4,-7.7 -1,-1.4 -1.9,-2.9 -3,-4.2 -1.3,-1.4 -2.8,-2.3 -4.6,-2.9 -3.1,-1.1 -6.2,-2.1 -9.3,-3 -3.2,-1 -6.4,-1.8 -9.7,-2.1 -2.3,-0.2 -4.5,-0.3 -6.8,-0.5 -0.4,0 -0.9,-0.1 -1.4,-0.2 -0.2,0 -0.4,0 -0.6,-0.1 0,0 -0.2,0 -0.3,0 0,0 0,0 0,0 0,0 0.2,0 0.3,0 -1.9,-1.1 -3.8,-2 -5.8,-3 -2.4,1.8 -4.3,4.1 -5.7,6.8 -1,2 -1.9,4.1 -2.2,6.3 -0.1,0.7 -0.2,1.4 -0.2,2 4.7,1.9 9.3,3.8 14.1,5.6 0,-0.3 -0.1,-0.6 -0.2,-1 0.2,0.3 0.4,0.6 0.6,0.9 0.1,0.2 0.3,0.5 0.4,0.8 0.3,0.8 0.5,1.5 0.9,2.3 0.7,1.2 1.4,2.4 2.2,3.5 0.8,1.2 1.7,2.2 2.7,3.3 0.6,0.6 1.3,1.2 1.9,1.8 -0.1,-0.3 -0.3,-0.6 -0.4,-0.9 -0.4,-1 -1.5,-3.6 0,-4.4 1.2,-0.6 2.2,-0.4 3.1,0.5 0,0 0,-0.1 0.1,-0.2 0.4,-0.5 1,-0.8 1.6,-0.9 -0.4,0 -0.7,0 -1.1,0 -2.6,-0.2 -5.1,-0.9 -7.1,-2.7 -1.8,-1.6 -2.9,-3.9 -3.9,-6.1 0,-0.2 0.4,-0.1 0.4,0 1.2,2.5 2.8,5.5 5.4,6.8 2.6,1.4 5.4,1.4 8.2,1.5 2.2,0 4.3,0.5 6.2,1.8 2.2,1.5 4,3.3 6,5 1.3,1.1 3,2.4 4.7,2.7 1.3,0.2 3.3,-0.2 2.5,-2.1 -1.1,-2.7 -3.6,-4.9 -5.6,-6.9 -2.3,-2.3 -4.8,-4.4 -6.9,-7 -0.2,-0.5 -0.4,-0.9 -0.6,-1.4 2.1,2.8 4.6,5.1 7.2,7.5 0,-0.1 -0.2,-0.2 -0.2,-0.3 -0.5,-0.6 -1,-1.1 -1.5,-1.7 0.3,0.2 0.6,0.3 0.8,0.5 0.8,0.9 1.8,1.7 2.2,2.8 1.2,1.2 2.4,2.4 3.5,3.7 0.1,0.1 0.2,0.3 0.4,0.5 -0.1,-1.6 0,-3.3 0,-4.9 0,-1 -0.1,-2.3 -0.5,-3.2 -0.2,-0.5 -0.6,-1 -1,-1.4 -1,-0.6 -2,-0.9 -3.1,-1.2 -0.4,-0.2 -0.9,-0.5 -1.3,-0.7 1.3,0 2.5,0.5 3.7,1.1 -0.4,-0.3 -0.7,-0.6 -1.1,-0.9 -0.2,-0.2 0,-0.3 0.2,-0.2 1.9,1.5 3.3,2.6 3.7,5.1 0.3,2.1 0.4,4.8 0,7 0,0 0,0 0,0 1,1.4 2,3.4 0.3,4 -0.5,0.2 -1,0.3 -1.5,0.3 -0.6,1.7 -0.6,3.4 -0.1,5.1 0.2,0.7 1,3.6 2.3,2.4 z"
         id="path90" />
      <path
         class="st57"
         d="m 411.7,104 c 1.3,0 2.4,0.5 3.7,0.7 1.5,0.2 3,0.5 4.6,0.7 3.3,0.5 6.6,1 9.8,1.7 5.7,1.2 11.5,3.3 15.2,8 1.8,2.4 4,4.9 5,7.7 1.1,2.8 0.3,5.7 0.5,8.7 0,1.5 0.3,3 0,4.5 -0.3,1.4 -1,2.7 -1.7,4 -0.7,1.4 -1.5,2.8 -2.4,4.1 0.1,0 0.2,-0.1 0.4,-0.2 0.6,-0.5 1,-1.1 1.4,-1.8 1.6,-2.8 3,-5.3 3.1,-8.6 0,-1.4 0,-2.9 0,-4.3 0,-1.6 0.2,-3.4 -0.1,-5 -0.6,-2.8 -2.8,-5.3 -4.4,-7.7 -1,-1.4 -1.9,-2.9 -3,-4.2 -1.3,-1.4 -2.8,-2.3 -4.6,-2.9 -3.1,-1.1 -6.2,-2.1 -9.3,-3 -3.2,-1 -6.4,-1.8 -9.7,-2.1 -2.3,-0.2 -4.5,-0.3 -6.8,-0.5 -0.4,0 -0.9,-0.1 -1.4,-0.2 -0.2,0 -0.4,0 -0.6,-0.1 0,0 -0.2,0 -0.3,0 0,0 0,0 0,0 0,0 0.2,0 0.3,0 -1.9,-1.1 -3.8,-2 -5.8,-3 -0.3,0.2 -0.6,0.5 -0.9,0.7 2,1.1 4,2.1 6,3.2 0.3,-0.1 0.6,-0.2 0.9,-0.2 z"
         id="path91" />
    </g>
    <g
       id="g96">
      <path
         class="st55"
         d="m 427.6,212.2 2.5,-0.2 c 0,0.4 0.2,0.7 0.3,0.9 0.3,0.3 0.7,0.5 1.2,0.5 0.5,0 0.7,0 0.9,-0.3 0.2,-0.3 0.3,-0.4 0.3,-0.6 0,-0.2 0,-0.4 -0.3,-0.6 -0.3,-0.2 -0.6,-0.3 -1.4,-0.5 -1.2,-0.3 -2,-0.6 -2.5,-1 -0.5,-0.4 -0.8,-1 -0.8,-1.7 0,-0.7 0.1,-0.9 0.4,-1.3 0.3,-0.4 0.6,-0.7 1.2,-0.9 0.6,-0.2 1.2,-0.3 2.1,-0.3 0.9,0 1.9,0.2 2.5,0.6 0.6,0.4 0.9,1.1 1,1.9 h -2.5 c 0,-0.2 -0.2,-0.5 -0.4,-0.7 -0.2,-0.2 -0.5,-0.3 -0.9,-0.3 -0.4,0 -0.5,0 -0.7,0.2 -0.2,0.2 -0.2,0.3 -0.2,0.5 0,0.2 0,0.3 0.2,0.4 0.1,0.1 0.4,0.2 0.9,0.3 1.2,0.2 2,0.5 2.5,0.8 0.5,0.3 0.9,0.6 1.1,1 0.2,0.4 0.3,0.8 0.3,1.3 0,0.5 -0.2,1.1 -0.5,1.5 -0.3,0.4 -0.7,0.8 -1.3,1.1 -0.6,0.3 -1.2,0.4 -2.1,0.4 -1.5,0 -2.5,-0.3 -3,-0.8 -0.5,-0.5 -0.9,-1.3 -1,-2.1 z"
         id="path92" />
      <path
         class="st55"
         d="m 439.4,206.5 v 2.4 h 1.3 v 1.7 h -1.3 v 2.2 c 0,0.3 0,0.4 0,0.5 0,0.1 0.2,0.2 0.4,0.2 0.2,0 0.4,0 0.7,-0.2 l 0.2,1.6 c -0.6,0.1 -1.1,0.2 -1.7,0.2 -0.6,0 -1,0 -1.3,-0.2 -0.3,-0.2 -0.5,-0.4 -0.6,-0.7 -0.1,-0.3 -0.2,-0.8 -0.2,-1.5 v -2.2 H 436 v -1.7 h 0.9 v -1.1 l 2.4,-1.2 z"
         id="path93" />
      <path
         class="st55"
         d="M 448.8,212.5 H 444 c 0,0.4 0.1,0.7 0.3,0.9 0.2,0.3 0.5,0.4 0.9,0.4 0.4,0 0.5,0 0.7,-0.2 0.1,0 0.3,-0.2 0.4,-0.4 l 2.3,0.2 c -0.4,0.6 -0.8,1.1 -1.3,1.3 -0.5,0.2 -1.2,0.4 -2.2,0.4 -1,0 -1.5,-0.1 -1.9,-0.3 -0.4,-0.2 -0.9,-0.6 -1.2,-1.1 -0.3,-0.5 -0.5,-1.1 -0.5,-1.8 0,-1 0.3,-1.8 0.9,-2.4 0.6,-0.6 1.5,-0.9 2.6,-0.9 1.1,0 1.6,0.1 2.1,0.4 0.5,0.3 0.9,0.7 1.2,1.2 0.3,0.5 0.4,1.2 0.4,2 v 0.3 z m -2.4,-1.1 c 0,-0.5 -0.2,-0.8 -0.4,-1 -0.2,-0.2 -0.5,-0.3 -0.8,-0.3 -0.3,0 -0.7,0.2 -0.9,0.5 -0.1,0.2 -0.2,0.5 -0.3,0.8 h 2.3 z"
         id="path94" />
      <path
         class="st55"
         d="m 449.9,217.4 v -8.6 h 2.2 v 0.9 c 0.3,-0.4 0.6,-0.6 0.8,-0.8 0.3,-0.2 0.7,-0.3 1.2,-0.3 0.8,0 1.5,0.3 1.9,1 0.4,0.7 0.7,1.4 0.7,2.4 0,1 -0.2,1.8 -0.7,2.4 -0.5,0.6 -1.1,0.8 -1.9,0.8 -0.8,0 -0.7,0 -1,-0.2 -0.3,-0.2 -0.6,-0.3 -0.8,-0.6 v 3 z m 2.4,-5.4 c 0,0.5 0.1,0.9 0.3,1.1 0.2,0.2 0.5,0.4 0.8,0.4 0.3,0 0.5,-0.1 0.7,-0.3 0.2,-0.2 0.3,-0.6 0.3,-1.2 0,-0.6 0,-0.9 -0.3,-1.1 -0.3,-0.2 -0.4,-0.4 -0.7,-0.4 -0.3,0 -0.6,0.1 -0.8,0.4 -0.2,0.3 -0.3,0.6 -0.3,1.2 z"
         id="path95" />
      <path
         class="st55"
         d="m 464,209 -2.3,-0.4 c 0.2,-0.7 0.5,-1.3 1.1,-1.7 0.6,-0.4 1.3,-0.6 2.3,-0.6 1,0 1.9,0.2 2.4,0.6 0.5,0.4 0.8,0.9 0.8,1.6 0,0.7 -0.1,0.7 -0.3,1 -0.2,0.3 -0.5,0.6 -0.9,0.8 0.3,0 0.6,0.2 0.8,0.3 0.3,0.2 0.5,0.4 0.7,0.7 0.2,0.3 0.2,0.6 0.2,1 0,0.4 -0.1,1 -0.4,1.4 -0.3,0.4 -0.6,0.8 -1.1,1.1 -0.5,0.3 -1.1,0.4 -1.9,0.4 -0.8,0 -1.4,0 -1.8,-0.3 -0.4,-0.3 -0.8,-0.5 -1.1,-0.8 -0.3,-0.3 -0.5,-0.8 -0.7,-1.3 l 2.4,-0.3 c 0,0.5 0.2,0.8 0.4,1 0.2,0.2 0.4,0.3 0.8,0.3 0.4,0 0.6,-0.1 0.8,-0.4 0.2,-0.3 0.3,-0.5 0.3,-0.9 0,-0.4 -0.1,-0.7 -0.3,-0.9 -0.2,-0.2 -0.5,-0.3 -0.8,-0.3 -0.3,0 -0.4,0 -0.8,0.1 v -1.7 c 0.3,0 0.4,0 0.4,0 0.3,0 0.6,0 0.8,-0.3 0.2,-0.3 0.3,-0.4 0.3,-0.7 0,-0.3 0,-0.5 -0.2,-0.6 -0.2,-0.1 -0.4,-0.2 -0.6,-0.2 -0.2,0 -0.5,0 -0.7,0.3 -0.2,0.3 -0.3,0.5 -0.4,0.9 z"
         id="path96" />
    </g>
    <circle
       class="st30"
       cx="481"
       cy="128.5"
       r="3.5"
       id="circle96"
       style="fill:url(#radial-gradient31)" />
    <circle
       class="st27"
       cx="482.79999"
       cy="136.10001"
       r="3.5"
       id="circle97"
       style="fill:url(#radial-gradient32)" />
    <circle
       class="st28"
       cx="392.29999"
       cy="130.7"
       r="3.5"
       id="circle98"
       style="fill:url(#radial-gradient33)" />
    <circle
       class="st25"
       cx="400"
       cy="132.60001"
       r="3.5"
       id="circle99"
       style="fill:url(#radial-gradient34)" />
    <circle
       class="st29"
       cx="434.70001"
       cy="151.3"
       r="3.5"
       id="circle100"
       style="fill:url(#radial-gradient35)" />
    <circle
       class="st23"
       cx="447.79999"
       cy="154.10001"
       r="3.5"
       id="circle101"
       style="fill:url(#radial-gradient36)" />
    <circle
       class="st24"
       cx="489.89999"
       cy="131.7"
       r="3.5"
       id="circle102"
       style="fill:url(#radial-gradient37)" />
    <circle
       class="st26"
       cx="439.79999"
       cy="158.7"
       r="3.5"
       id="circle103"
       style="fill:url(#radial-gradient38)" />
  </g>
  <g
     id="g134"
     inkscape:export-filename="g134.svg"
     inkscape:export-xdpi="96"
     inkscape:export-ydpi="96"
     transform="translate(-23.299995,-62.2)">
    <ellipse
       class="st42"
       cx="613.5"
       cy="136.5"
       rx="70.900002"
       ry="36.700001"
       id="ellipse103" />
    <ellipse
       class="st42"
       cx="613.5"
       cy="140.39999"
       rx="70.900002"
       ry="36.700001"
       id="ellipse104" />
    <ellipse
       class="st42"
       cx="613.5"
       cy="144.3"
       rx="70.900002"
       ry="36.700001"
       id="ellipse105" />
    <ellipse
       class="st42"
       cx="613.5"
       cy="148.2"
       rx="70.900002"
       ry="36.700001"
       id="ellipse106" />
    <ellipse
       class="st42"
       cx="613.5"
       cy="152.10001"
       rx="70.900002"
       ry="36.700001"
       id="ellipse107" />
    <ellipse
       class="st40"
       cx="613.5"
       cy="132.60001"
       rx="70.900002"
       ry="36.700001"
       id="ellipse108"
       style="fill:url(#radial-gradient39)" />
    <ellipse
       class="st53"
       cx="656"
       cy="132.60001"
       rx="17.700001"
       ry="9.1999998"
       id="ellipse109"
       style="fill:url(#radial-gradient40)" />
    <ellipse
       class="st52"
       cx="613.40002"
       cy="110.6"
       rx="17.700001"
       ry="9.1999998"
       id="ellipse110"
       style="fill:url(#radial-gradient41)" />
    <ellipse
       class="st51"
       cx="612.29999"
       cy="155.10001"
       rx="17.700001"
       ry="9.1999998"
       id="ellipse111"
       style="fill:url(#radial-gradient42)" />
    <ellipse
       class="st54"
       cx="570.5"
       cy="131.60001"
       rx="17.700001"
       ry="9.1999998"
       id="ellipse112"
       style="fill:url(#radial-gradient43)" />
    <path
       class="st56"
       d="m 632.9,107.4 h 2.5 c 0.4,0 0.7,0.1 1,0.3 0.3,0.2 0.3,0.5 0.3,0.8 0,0.3 0,0.5 -0.2,0.7 -0.2,0.2 -0.3,0.2 -0.5,0.3 0.3,0 0.5,0.2 0.7,0.4 0.2,0.2 0.2,0.4 0.2,0.7 0,0.3 0,0.4 -0.2,0.6 -0.2,0.2 -0.2,0.3 -0.4,0.4 -0.1,0 -0.3,0.1 -0.5,0.1 -0.3,0 -0.5,0 -0.6,0 h -2.3 z m 1.3,1.7 h 0.6 c 0.2,0 0.4,0 0.4,-0.1 0,-0.1 0.1,-0.2 0.1,-0.3 0,-0.1 0,-0.2 -0.1,-0.3 -0.1,-0.1 -0.2,-0.1 -0.4,-0.1 h -0.6 z m 0,1.7 h 0.7 c 0.2,0 0.4,0 0.5,-0.1 0.1,-0.1 0.1,-0.2 0.1,-0.3 0,-0.1 0,-0.2 -0.1,-0.3 -0.1,-0.1 -0.3,-0.1 -0.5,-0.1 h -0.7 v 0.9 z"
       id="path112" />
    <path
       class="st56"
       d="m 635.3,132.7 1.2,0.4 c 0,0.3 -0.2,0.6 -0.4,0.8 -0.2,0.2 -0.4,0.4 -0.6,0.5 -0.2,0.1 -0.6,0.2 -1,0.2 -0.4,0 -0.8,0 -1.1,-0.2 -0.3,-0.1 -0.6,-0.4 -0.8,-0.7 -0.2,-0.3 -0.3,-0.8 -0.3,-1.3 0,-0.5 0.2,-1.3 0.6,-1.6 0.4,-0.4 0.9,-0.6 1.6,-0.6 0.7,0 1,0.1 1.3,0.3 0.3,0.2 0.5,0.6 0.7,1 l -1.2,0.3 c 0,-0.1 0,-0.2 -0.1,-0.3 0,-0.1 -0.2,-0.2 -0.3,-0.2 -0.1,0 -0.2,0 -0.4,0 -0.3,0 -0.5,0.1 -0.7,0.4 -0.1,0.2 -0.2,0.5 -0.2,0.8 0,0.3 0,0.8 0.2,1 0.1,0.2 0.3,0.3 0.6,0.3 0.3,0 0.4,0 0.6,-0.2 0.2,-0.2 0.2,-0.3 0.3,-0.6 z"
       id="path113" />
    <path
       class="st56"
       d="m 611.6,139.9 h 2 c 0.4,0 0.7,0 0.9,0.2 0.2,0.1 0.4,0.3 0.6,0.5 0.2,0.2 0.3,0.4 0.3,0.7 0,0.3 0.1,0.5 0.1,0.8 0,0.5 0,0.8 -0.2,1.1 -0.2,0.3 -0.2,0.5 -0.4,0.6 -0.2,0.1 -0.4,0.3 -0.6,0.3 -0.3,0 -0.6,0.1 -0.8,0.1 h -2 v -4.3 z m 1.3,1 v 2.3 h 0.3 c 0.3,0 0.5,0 0.6,0 0.1,0 0.2,-0.2 0.3,-0.3 0.1,-0.1 0,-0.4 0,-0.7 0,-0.3 0,-0.8 -0.2,-0.9 -0.2,-0.1 -0.4,-0.3 -0.7,-0.3 h -0.3 z"
       id="path114" />
    <path
       class="st56"
       d="m 593.2,133.2 h -1.5 l -0.2,0.7 h -1.4 l 1.6,-4.3 h 1.4 l 1.6,4.3 h -1.4 l -0.2,-0.7 z m -0.2,-0.9 -0.5,-1.5 -0.5,1.5 h 0.9 z"
       id="path115" />
    <path
       class="st57"
       d="m 554.3,93.2 c 0.1,0.1 0.2,0.3 0.4,0.5"
       id="path116" />
    <g
       id="g121">
      <path
         class="st55"
         d="m 596.1,214.6 2.5,-0.2 c 0,0.4 0.2,0.7 0.3,0.9 0.3,0.3 0.7,0.5 1.2,0.5 0.5,0 0.7,0 0.9,-0.3 0.2,-0.3 0.3,-0.4 0.3,-0.6 0,-0.2 0,-0.4 -0.3,-0.6 -0.3,-0.2 -0.6,-0.3 -1.4,-0.5 -1.2,-0.3 -2,-0.6 -2.5,-1 -0.5,-0.4 -0.8,-1 -0.8,-1.7 0,-0.7 0.1,-0.9 0.4,-1.3 0.3,-0.4 0.6,-0.7 1.2,-0.9 0.6,-0.2 1.2,-0.3 2.1,-0.3 0.9,0 1.9,0.2 2.5,0.6 0.6,0.4 0.9,1.1 1,1.9 H 601 c 0,-0.2 -0.2,-0.5 -0.4,-0.7 -0.2,-0.2 -0.5,-0.3 -0.9,-0.3 -0.4,0 -0.5,0 -0.7,0.2 -0.2,0.2 -0.2,0.3 -0.2,0.5 0,0.2 0,0.3 0.2,0.4 0.1,0.1 0.4,0.2 0.9,0.3 1.2,0.2 2,0.5 2.5,0.8 0.5,0.3 0.9,0.6 1.1,1 0.2,0.4 0.3,0.8 0.3,1.3 0,0.5 -0.2,1.1 -0.5,1.5 -0.3,0.4 -0.7,0.8 -1.3,1.1 -0.6,0.3 -1.2,0.4 -2.1,0.4 -1.5,0 -2.5,-0.3 -3,-0.8 -0.5,-0.5 -0.9,-1.3 -1,-2.1 z"
         id="path117" />
      <path
         class="st55"
         d="m 608,208.8 v 2.4 h 1.3 v 1.7 H 608 v 2.2 c 0,0.3 0,0.4 0,0.5 0,0.1 0.2,0.2 0.4,0.2 0.2,0 0.4,0 0.7,-0.2 l 0.2,1.6 c -0.6,0.1 -1.1,0.2 -1.7,0.2 -0.6,0 -1,0 -1.3,-0.2 -0.3,-0.2 -0.5,-0.4 -0.6,-0.7 -0.1,-0.3 -0.2,-0.8 -0.2,-1.5 v -2.2 h -0.9 v -1.7 h 0.9 V 210 l 2.4,-1.2 z"
         id="path118" />
      <path
         class="st55"
         d="m 617.3,214.9 h -4.8 c 0,0.4 0.1,0.7 0.3,0.9 0.2,0.3 0.5,0.4 0.9,0.4 0.4,0 0.5,0 0.7,-0.2 0.1,0 0.3,-0.2 0.4,-0.4 l 2.3,0.2 c -0.4,0.6 -0.8,1.1 -1.3,1.3 -0.5,0.2 -1.2,0.4 -2.2,0.4 -1,0 -1.5,-0.1 -1.9,-0.3 -0.4,-0.2 -0.9,-0.6 -1.2,-1.1 -0.3,-0.5 -0.5,-1.1 -0.5,-1.8 0,-1 0.3,-1.8 0.9,-2.4 0.6,-0.6 1.5,-0.9 2.6,-0.9 1.1,0 1.6,0.1 2.1,0.4 0.5,0.3 0.9,0.7 1.2,1.2 0.3,0.5 0.4,1.2 0.4,2 v 0.3 z m -2.4,-1.1 c 0,-0.5 -0.2,-0.8 -0.4,-1 -0.2,-0.2 -0.5,-0.3 -0.8,-0.3 -0.3,0 -0.7,0.2 -0.9,0.5 -0.1,0.2 -0.2,0.5 -0.3,0.8 h 2.3 z"
         id="path119" />
      <path
         class="st55"
         d="m 618.5,219.8 v -8.6 h 2.2 v 0.9 c 0.3,-0.4 0.6,-0.6 0.8,-0.8 0.3,-0.2 0.7,-0.3 1.2,-0.3 0.8,0 1.5,0.3 1.9,1 0.4,0.7 0.7,1.4 0.7,2.4 0,1 -0.2,1.8 -0.7,2.4 -0.5,0.6 -1.1,0.8 -1.9,0.8 -0.8,0 -0.7,0 -1,-0.2 -0.3,-0.2 -0.6,-0.3 -0.8,-0.6 v 3 z m 2.3,-5.5 c 0,0.5 0.1,0.9 0.3,1.1 0.2,0.2 0.5,0.4 0.8,0.4 0.3,0 0.5,-0.1 0.7,-0.3 0.2,-0.2 0.3,-0.6 0.3,-1.2 0,-0.6 0,-0.9 -0.3,-1.1 -0.3,-0.2 -0.4,-0.4 -0.7,-0.4 -0.3,0 -0.6,0.1 -0.8,0.4 -0.2,0.3 -0.3,0.6 -0.3,1.2 z"
         id="path120" />
      <path
         class="st55"
         d="M 634.3,215.8 H 630 v -2 l 4.3,-5.2 h 2.1 v 5.3 h 1.1 v 1.9 h -1.1 v 1.6 h -2.1 z m 0,-1.8 v -2.7 L 632,214 Z"
         id="path121" />
    </g>
    <circle
       class="st17"
       cx="652.70001"
       cy="128.5"
       r="3.5"
       id="circle121"
       style="fill:url(#radial-gradient44)" />
    <circle
       class="st16"
       cx="654.59998"
       cy="136.10001"
       r="3.5"
       id="circle122"
       style="fill:url(#radial-gradient45)" />
    <circle
       class="st18"
       cx="606.40002"
       cy="151.3"
       r="3.5"
       id="circle123"
       style="fill:url(#radial-gradient46)" />
    <circle
       class="st21"
       cx="619.5"
       cy="154.10001"
       r="3.5"
       id="circle124"
       style="fill:url(#radial-gradient47)" />
    <circle
       class="st20"
       cx="661.70001"
       cy="131.7"
       r="3.5"
       id="circle125"
       style="fill:url(#radial-gradient48)" />
    <circle
       class="st19"
       cx="611.5"
       cy="158.7"
       r="3.5"
       id="circle126"
       style="fill:url(#radial-gradient49)" />
    <g
       id="g133">
      <g
         id="g131">
        <path
           class="st58"
           d="m 574.1,117.5 c 0.9,-1.5 1.7,-3 2,-4.7 0.4,-1.7 0.3,-3.4 0.3,-5.1 0,-1.9 0,-3.9 0,-5.8 0,-1.8 -0.8,-3.2 -1.7,-4.7 -1.9,-3 -3.9,-6.3 -6.3,-9 -2.3,-2.5 -6.2,-3.3 -9.3,-4.3 -3.6,-1.2 -7.3,-2.3 -11,-3.1 -3.7,-0.7 -7.4,-0.7 -11.1,-0.9 -2,-1.2 -4,-2.4 -6.1,-3.5 -2.7,1.8 -4.8,4.3 -6.3,7.2 -1,2 -1.9,4.1 -2.2,6.3 -0.1,0.9 -0.2,1.7 -0.2,2.6 4.7,1.9 9.4,3.7 14.2,5.3 1.3,4.9 5.1,9 8.9,12.2 0.5,1 1.2,2 2.1,2.7 1.4,1.1 3.3,0.9 4.9,0.5 0.2,0.2 0.5,0.4 0.8,0.5 2.1,1.3 4.7,2 6.7,0.2 1.1,0.8 2.4,1.3 4,1.6 1.8,0.3 3.3,0 4.3,-1.1 -0.3,2.2 0.3,4.6 1.8,6.1 1.8,1.8 3.7,-2.2 4.3,-3.3 z"
           id="path126" />
        <path
           class="st57"
           d="m 547.5,112.7 c -0.9,-0.6 -1.4,-1.7 -1.9,-2.6 -0.5,-1.1 -1,-2.1 -1.3,-3.2 -0.6,-1.9 0.8,-3.6 2.9,-2.1 0,0 0,0 0,0 -0.1,0.9 0.8,2.3 1,2.9 0.9,2.1 1.7,4 3.4,5.5 -1.4,0.2 -2.8,0.4 -4.1,-0.5 z"
           id="path127" />
        <path
           class="st57"
           d="m 556.5,114.9 c -1.1,0.1 -2.2,-0.5 -3.1,-1 -2,-1.1 -3.4,-2.9 -4.1,-5 -0.4,-1.2 -2.1,-4 -0.5,-4.8 1.7,-0.8 3.9,1.1 5,2.4 0.6,2.4 2.4,4.6 4.1,6.3 0.5,0.5 0.9,0.9 1.4,1.2 0,0 0,0.2 0.1,0.2 -0.4,-0.1 -2.4,0.7 -2.8,0.8 z"
           id="path128" />
        <path
           class="st57"
           d="m 564,115.4 c -2.1,-0.2 -3.8,-0.9 -5.3,-2.5 -1.1,-1.2 -2.1,-2.2 -3,-3.6 -0.9,-1.4 -2.6,-4.9 0.6,-4.4 0.4,0.2 0.8,0.4 1.2,0.7 2.6,1.9 4.7,4.3 7.5,5.9 1,0.6 2.2,1.1 3.5,1.3 0,0.2 -0.2,0.4 -0.2,0.6 -1,1.5 -2.3,2.1 -4.2,1.9 z"
           id="path129" />
        <path
           class="st57"
           d="m 571.2,120.4 c 0.6,-0.5 1,-1.1 1.4,-1.8 1.6,-2.8 3,-5.3 3.1,-8.6 0,-1.4 0,-2.9 0,-4.3 0,-1.6 0.2,-3.4 -0.1,-5 -0.6,-2.8 -2.8,-5.3 -4.4,-7.7 -1,-1.4 -1.9,-2.9 -3,-4.2 -1.3,-1.4 -2.8,-2.3 -4.6,-2.9 -3.1,-1.1 -6.2,-2.1 -9.3,-3 -3.2,-1 -6.4,-1.8 -9.7,-2.1 -2.3,-0.2 -4.5,-0.3 -6.8,-0.5 -0.4,0 -0.9,-0.1 -1.4,-0.2 -0.2,0 -0.4,0 -0.6,-0.1 0,0 -0.2,0 -0.3,0 0,0 0,0 0,0 0,0 0.2,0 0.3,0 -1.9,-1.1 -3.8,-2 -5.8,-3 -2.4,1.8 -4.3,4.1 -5.7,6.8 -1,2 -1.9,4.1 -2.2,6.3 -0.1,0.7 -0.2,1.4 -0.2,2 4.7,1.9 9.3,3.8 14.1,5.6 0,-0.3 -0.1,-0.6 -0.2,-1 0.2,0.3 0.4,0.6 0.6,0.9 0.1,0.2 0.3,0.5 0.4,0.8 0.3,0.8 0.5,1.5 0.9,2.3 0.7,1.2 1.4,2.4 2.2,3.5 0.8,1.2 1.7,2.2 2.7,3.3 0.6,0.6 1.3,1.2 1.9,1.8 -0.1,-0.3 -0.3,-0.6 -0.4,-0.9 -0.4,-1 -1.5,-3.6 0,-4.4 1.2,-0.6 2.2,-0.4 3.1,0.5 0,0 0,-0.1 0.1,-0.2 0.4,-0.5 1,-0.8 1.6,-0.9 -0.4,0 -0.7,0 -1.1,0 -2.6,-0.2 -5.1,-0.9 -7.1,-2.7 -1.8,-1.6 -2.9,-3.9 -3.9,-6.1 0,-0.2 0.4,-0.1 0.4,0 1.2,2.5 2.8,5.5 5.4,6.8 2.6,1.4 5.4,1.4 8.2,1.5 2.2,0 4.3,0.5 6.2,1.8 2.2,1.5 4,3.3 6,5 1.3,1.1 3,2.4 4.7,2.7 1.3,0.2 3.3,-0.2 2.5,-2.1 -1.1,-2.7 -3.6,-4.9 -5.6,-6.9 -2.3,-2.3 -4.8,-4.4 -6.9,-7 -0.2,-0.5 -0.4,-0.9 -0.6,-1.4 2.1,2.8 4.6,5.1 7.2,7.5 0,-0.1 -0.2,-0.2 -0.2,-0.3 -0.5,-0.6 -1,-1.1 -1.5,-1.7 0.3,0.2 0.6,0.3 0.8,0.5 0.8,0.9 1.8,1.7 2.2,2.8 1.2,1.2 2.4,2.4 3.5,3.7 0.1,0.1 0.2,0.3 0.4,0.5 -0.1,-1.6 0,-3.3 0,-4.9 0,-1 -0.1,-2.3 -0.5,-3.2 -0.2,-0.5 -0.6,-1 -1,-1.4 -1,-0.6 -2,-0.9 -3.1,-1.2 -0.4,-0.2 -0.9,-0.5 -1.3,-0.7 1.3,0 2.5,0.5 3.7,1.1 -0.4,-0.3 -0.7,-0.6 -1.1,-0.9 -0.2,-0.2 0,-0.3 0.2,-0.2 1.9,1.5 3.3,2.6 3.7,5.1 0.3,2.1 0.4,4.8 0,7 0,0 0,0 0,0 1,1.4 2,3.4 0.3,4 -0.5,0.2 -1,0.3 -1.5,0.3 -0.6,1.7 -0.6,3.4 -0.1,5.1 0.2,0.7 1,3.6 2.3,2.4 z"
           id="path130" />
        <path
           class="st57"
           d="m 536.3,80.7 c 1.3,0 2.4,0.5 3.7,0.7 1.5,0.2 3,0.5 4.6,0.7 3.3,0.5 6.6,1 9.8,1.7 5.7,1.2 11.5,3.3 15.2,8 1.8,2.4 4,4.9 5,7.7 1.1,2.8 0.3,5.7 0.5,8.7 0,1.5 0.3,3 0,4.5 -0.3,1.4 -1,2.7 -1.7,4 -0.7,1.4 -1.5,2.8 -2.4,4.1 0.1,0 0.2,-0.1 0.4,-0.2 0.6,-0.5 1,-1.1 1.4,-1.8 1.6,-2.8 3,-5.3 3.1,-8.6 0,-1.4 0,-2.9 0,-4.3 0,-1.6 0.2,-3.4 -0.1,-5 -0.6,-2.8 -2.8,-5.3 -4.4,-7.7 -1,-1.4 -1.9,-2.9 -3,-4.2 -1.3,-1.4 -2.8,-2.3 -4.6,-2.9 -3.1,-1.1 -6.2,-2.1 -9.3,-3 -3.2,-1 -6.4,-1.8 -9.7,-2.1 -2.3,-0.2 -4.5,-0.3 -6.8,-0.5 -0.4,0 -0.9,-0.1 -1.4,-0.2 -0.2,0 -0.4,0 -0.6,-0.1 0,0 -0.2,0 -0.3,0 0,0 0,0 0,0 0,0 0.2,0 0.3,0 -1.9,-1.1 -3.8,-2 -5.8,-3 -0.3,0.2 -0.6,0.5 -0.9,0.7 2,1.1 4,2.1 6,3.2 0.3,-0.1 0.6,-0.2 0.9,-0.2 z"
           id="path131" />
      </g>
      <circle
         class="st37"
         cx="569.90002"
         cy="104.9"
         r="3.5"
         id="circle131"
         style="fill:url(#radial-gradient50)" />
      <circle
         class="st36"
         cx="571.40002"
         cy="112.6"
         r="3.5"
         id="circle132"
         style="fill:url(#radial-gradient51)" />
      <path
         class="st38"
         d="m 570.4,110.2 c -1.1,-2.7 -3.6,-4.9 -5.6,-6.9 -0.9,-0.9 -1.8,-1.8 -2.7,-2.6 v 8.1 c 0.4,0.3 0.7,0.6 1.1,0.9 1.3,1.1 3,2.4 4.7,2.7 1.3,0.2 3.3,-0.2 2.5,-2.1 z"
         id="path132" />
      <path
         class="st57"
         d="m 570.4,110.2 c -1.1,-2.7 -3.6,-4.9 -5.6,-6.9 -2.1,-2.1 -4.4,-4.1 -6.4,-6.4 v 8.8 c 1.6,1.3 3.1,2.7 4.7,4 1.3,1.1 3,2.4 4.7,2.7 1.3,0.2 3.3,-0.2 2.5,-2.1 z"
         id="path133" />
    </g>
  </g>
</svg>
