<?xml version="1.0" encoding="UTF-8"?><svg id="uuid-8dced5be-22cb-41da-8f22-c8ca83ff656e" xmlns="http://www.w3.org/2000/svg" viewBox="0 0 374.23 102.56"><line x1=".38" y1="50.81" x2="374.23" y2="50.81" fill="none" stroke="#231f20" stroke-miterlimit="10"/><rect x="54.23" y="20.81" width="100" height="30" fill="#fecc81" stroke="#231f20" stroke-miterlimit="10"/><text transform="translate(88.67 39.48)" fill="#231f20" font-family="TimesNewRomanPSMT, &apos;Times New Roman&apos;" font-size="14"><tspan x="0" y="0">Abby</tspan></text><text transform="translate(31.45 11.63)" fill="#231f20" font-family="TimesNewRomanPSMT, &apos;Times New Roman&apos;" font-size="14"><tspan x="0" y="0">8:00 am</tspan></text><line x1="54.23" y1="15.81" x2="54.23" y2="85.81" fill="none" stroke="#231f20" stroke-miterlimit="10"/><line x1="154.23" y1="15.81" x2="154.23" y2="85.81" fill="none" stroke="#231f20" stroke-miterlimit="10"/><text transform="translate(124.23 11.63)" fill="#231f20" font-family="TimesNewRomanPSMT, &apos;Times New Roman&apos;" font-size="14"><tspan x="0" y="0">1:00 pm</tspan></text><rect x="94.23" y="50.81" width="60" height="30" fill="#02bdda" stroke="#231f20" stroke-miterlimit="10"/><text transform="translate(107.51 69.48)" fill="#231f20" font-family="TimesNewRomanPSMT, &apos;Times New Roman&apos;" font-size="14"><tspan x="0" y="0">Bojan</tspan></text><text transform="translate(.16 38.89)" fill="#231f20" font-family="TimesNewRomanPSMT, &apos;Times New Roman&apos;" font-size="14"><tspan x="0" y="0">Printer</tspan><tspan x="38.1" y="0" xml:space="preserve" letter-spacing="-.06em"> A</tspan></text><text transform="translate(0 72.81)" fill="#231f20" font-family="TimesNewRomanPSMT, &apos;Times New Roman&apos;" font-size="14"><tspan x="0" y="0">Printer B</tspan></text><rect x="154.23" y="20.81" width="40" height="30" fill="#dd96c2" stroke="#231f20" stroke-miterlimit="10"/><text transform="translate(157.51 39.48)" fill="#231f20" font-family="TimesNewRomanPSMT, &apos;Times New Roman&apos;" font-size="14"><tspan x="0" y="0">Chloe</tspan></text><rect x="154.23" y="50.81" width="80" height="30" fill="#d1d3d4" stroke="#231f20" stroke-miterlimit="10"/><text transform="translate(175.18 69.48)" fill="#231f20" font-family="TimesNewRomanPSMT, &apos;Times New Roman&apos;" font-size="14"><tspan x="0" y="0">Dipika</tspan></text><line x1="194.23" y1="15.81" x2="194.23" y2="50.81" fill="none" stroke="#231f20" stroke-miterlimit="10"/><text transform="translate(185.11 11.63)" fill="#231f20" font-family="TimesNewRomanPSMT, &apos;Times New Roman&apos;" font-size="14"><tspan x="0" y="0">3:00 pm</tspan></text><line x1="234.23" y1="50.81" x2="234.23" y2="85.81" fill="none" stroke="#231f20" stroke-miterlimit="10"/><text transform="translate(211.09 98.27)" fill="#231f20" font-family="TimesNewRomanPSMT, &apos;Times New Roman&apos;" font-size="14"><tspan x="0" y="0">5:00 pm</tspan></text><line x1="94.23" y1="50.81" x2="94.23" y2="85.81" fill="none" stroke="#231f20" stroke-miterlimit="10"/><text transform="translate(68.09 98.27)" fill="#231f20" font-family="TimesNewRomanPSMT, &apos;Times New Roman&apos;" font-size="14"><tspan x="0" y="0">10:00 am</tspan></text></svg>