<?xml version="1.0" encoding="UTF-8" standalone="no"?>
<!DOCTYPE svg PUBLIC "-//W3C//DTD SVG 1.1//EN" "http://www.w3.org/Graphics/SVG/1.1/DTD/svg11.dtd">
<svg width="100%" height="100%" viewBox="0 0 201 122" version="1.1" xmlns="http://www.w3.org/2000/svg" xmlns:xlink="http://www.w3.org/1999/xlink" xml:space="preserve" xmlns:serif="http://www.serif.com/" style="fill-rule:evenodd;clip-rule:evenodd;stroke-linejoin:round;stroke-miterlimit:2;">
    <g transform="matrix(1,0,0,1,-517.758,-1931.43)">
        <g id="path16-0" transform="matrix(4.44736,0,0,4.44736,579.653,1931.94)">
            <path d="M0.261,26.973C-2.097,26.766 -6.574,25.394 -7.013,20.523C-7.419,14.278 -4.334,13.074 -3.721,11.499C-3.146,9.425 -3.588,5.908 -1.412,4.67C-1.723,4.583 -3.251,3.497 -3.477,2.304C-3.703,1.11 -2.974,0.177 -1.57,0.716C-0.164,1.258 -0.482,4.012 -0.482,4.012C-0.482,4.012 6.102,-0.261 15.88,4.033C15.715,1.446 15.971,0.329 16.704,-0.038C17.438,-0.401 19.616,0.581 19.294,1.687C18.971,2.792 17.187,4.407 16.642,4.798C17.62,6.286 18.074,8.109 18.518,8.769C19.828,11.31 22.647,12.435 23.322,16.597C23.645,18.58 22.783,20.695 21.55,22.266C20.194,23.993 18.467,25.224 17.393,25.827C15.253,27.027 3.946,27.595 0.622,27.023" style="fill:rgb(41,35,27);fill-rule:nonzero;"/>
        </g>
        <g id="path18-9" transform="matrix(4.44736,0,0,4.44736,587.756,1944.37)">
            <path d="M-0.065,23.615C-3.265,23.531 -7.685,22.173 -7.98,17.592C-8.274,13.016 -5.722,11.462 -4.7,8.427C-3.706,5.421 -5.65,3.773 -0.926,1.372C3.036,-1.028 8.639,-0.267 12.421,1.492C15.248,2.72 15.199,5.459 16.038,6.805C16.878,8.151 20.169,10.06 20.668,13.38C21.181,14.734 20.462,17.263 19.304,18.999C18.08,20.834 16.367,21.855 15.173,22.394C10.523,24.49 1.198,23.648 -0.065,23.615Z" style="fill:rgb(229,155,76);fill-rule:nonzero;"/>
        </g>
        <g id="path20-7" transform="matrix(2.21895,0,0,2.21895,598.456,2032.28)">
            <path d="M0.27,-17.011C1.959,-18.772 10.355,-19.473 12.929,-17.312C15.049,-14.843 15.863,-12.217 15.398,-9.615C15.023,-7.512 13.964,-4.838 12.51,-3.539C12.478,-3.51 12.924,-1.602 12.647,0.25C12.262,2.828 11.109,5.592 10.935,5.65C10.935,5.65 6.459,5.383 5.827,5.32C5.059,5.243 4.434,3.938 4.434,3.938C3.916,3.082 2.198,-2.927 1.813,-3.392C0.047,-5.524 -1.282,-8.931 -1.458,-10.536C-1.67,-12.49 -1.42,-15.249 0.27,-17.01" style="fill:rgb(41,35,27);fill-rule:nonzero;"/>
        </g>
        <g id="path22-7" transform="matrix(2.21895,0,0,2.21895,601.59,2021.44)">
            <path d="M0,-12.416C-2.458,-11.171 -3.089,-5.133 -0.485,-1.101C0.234,0.011 0.194,0.843 1.453,1.509C2.377,1.824 5.297,0.397 5.216,-0.196C5.375,-0.511 4.812,-9.89 5.303,-9.782C5.795,-9.674 6.051,-0.082 6.051,-0.082C6.051,-0.082 7.926,0.827 10.222,1.164C15.49,-3.345 13.81,-11.282 10.563,-11.802C8.564,-13.062 2.479,-13.895 0,-12.416" style="fill:rgb(240,199,149);fill-rule:nonzero;"/>
        </g>
        <g id="path24-7" transform="matrix(2.21895,0,0,2.21895,599.848,2001.23)">
            <path d="M0.442,-3.366C1.932,-4.281 8.871,-5.219 12.068,-3.3C12.521,-2.878 8.463,1.29 6.012,1.44C3.563,1.59 -1.086,-2.417 0.406,-3.33" style="fill:rgb(41,35,27);fill-rule:nonzero;"/>
        </g>
        <g id="path26-1" transform="matrix(-3.71691,-0.183623,-0.183623,3.71691,604.494,2042.36)">
            <path d="M-2.286,-5.308C-1.624,-4.583 0.135,-4.228 0.171,-4.417C0.171,-4.417 -1.242,-0.233 -1.739,-0.15C-2.233,-0.067 -3.077,0.037 -3.077,0.037C-3.077,0.037 -2.424,-3.58 -2.276,-5.284" style="fill:white;fill-rule:nonzero;"/>
        </g>
        <g id="path28-2" transform="matrix(-3.66816,0.627507,0.627507,3.66816,625.813,2041.65)">
            <path d="M1.94,-5.431C2.086,-3.656 2.393,0.022 2.393,0.022C2.393,0.022 1.394,0.245 1.194,0.24C0.89,0.231 -0.75,-2.412 -0.641,-4.338C0.846,-4.715 1.805,-5.458 1.938,-5.443" style="fill:white;fill-rule:nonzero;"/>
        </g>
        <g id="path30-1" transform="matrix(2.21895,0,0,2.21895,616.07,1994.71)">
            <path d="M0,-0.476C0.074,-1.063 3.613,-0.754 3.482,-0.085C3.352,0.587 -0.072,0.11 0,-0.476" style="fill:white;fill-rule:nonzero;"/>
        </g>
        <g id="path32-7" transform="matrix(4.44736,0,0,4.44736,574.298,1935.99)">
            <path d="M0.048,3.09C0.048,3.09 -1.828,1.911 -1.785,1.139C-1.74,0.366 -0.838,-0.084 -0.323,0.557C0.192,1.204 0.06,3.066 0.06,3.066" style="fill:rgb(229,155,76);fill-rule:nonzero;"/>
        </g>
        <g id="path34-8" transform="matrix(4.44736,0,0,4.44736,653.101,1934.85)">
            <path d="M0,3.426C0,3.426 -0.041,0.246 0.393,-0.026C0.83,-0.299 2.004,0.376 2.047,1.061C2.091,1.749 0,3.426 0,3.426" style="fill:rgb(229,155,76);fill-rule:nonzero;"/>
        </g>
        <g id="path44-0" transform="matrix(-1.93511,5.29392,4.68561,2.18634,590.803,1954.34)">
            <path d="M2.63,-2.003C2.509,-2.098 0.489,0.447 1.156,1.198C1.669,1.862 2.335,1.592 2.661,0.917C2.99,0.243 2.42,-0.303 2.405,-0.75C2.387,-1.199 2.727,-1.956 2.727,-1.956" style="fill:rgb(41,35,27);fill-rule:nonzero;"/>
        </g>
        <g id="path46-5" transform="matrix(0.554252,-4.41269,-4.41269,-0.554252,589.196,1961.96)">
            <path d="M-0.552,-0.826C-0.819,-0.825 -1.038,-0.609 -1.037,-0.342C-1.034,-0.074 -0.82,0.144 -0.552,0.143C-0.284,0.143 -0.069,-0.072 -0.067,-0.343C-0.066,-0.609 -0.285,-0.824 -0.552,-0.826" style="fill:white;fill-rule:nonzero;"/>
        </g>
        <g id="path44-1-3" transform="matrix(1.93511,5.29392,-4.68561,2.18634,636.146,1953.5)">
            <path d="M2.746,-2.088C2.598,-2.17 0.486,0.449 1.156,1.198C1.669,1.862 2.335,1.592 2.661,0.917C2.99,0.243 2.42,-0.303 2.405,-0.75C2.387,-1.199 2.801,-2.042 2.801,-2.042" style="fill:rgb(41,35,27);fill-rule:nonzero;"/>
        </g>
        <g id="path46-4-9" transform="matrix(-0.470702,-3.7475,3.7475,-0.470702,637.399,1961.23)">
            <path d="M-0.666,-0.772C-0.994,-0.771 -1.262,-0.505 -1.261,-0.178C-1.258,0.152 -0.996,0.418 -0.666,0.417C-0.337,0.417 -0.073,0.153 -0.072,-0.179C-0.07,-0.505 -0.338,-0.769 -0.666,-0.772" style="fill:white;fill-rule:nonzero;"/>
        </g>
        <g id="path48-1" transform="matrix(4.44736,0,0,4.44736,629.708,1987.48)">
            <path d="M-0.591,3.082C0.735,1.432 16.975,1.237 19.243,5.728C16.411,1.617 1.002,2.371 -0.404,3.559C-0.572,3.701 -0.911,3.481 -0.591,3.082Z" style="fill:rgb(41,35,27);fill-rule:nonzero;"/>
        </g>
        <g id="path50-0" transform="matrix(4.44736,0,0,4.44736,638.878,2015.9)">
            <path d="M-2.187,-2.497C-2.187,-2.497 16.834,-0.802 17.82,3.892C16.312,-0.339 -2.37,-1.918 -2.37,-1.918C-2.695,-1.869 -2.687,-2.496 -2.187,-2.497Z" style="fill:rgb(41,35,27);fill-rule:nonzero;"/>
        </g>
        <g id="path52-6" transform="matrix(4.44736,0,0,4.44736,632.603,2037.37)">
            <path d="M-1.028,-5.947C-1.028,-5.947 15.515,-2.62 16.138,2.584C14.41,-1.97 -0.98,-5.572 -1.114,-5.375C-1.548,-5.452 -1.606,-6.028 -1.028,-5.947Z" style="fill:rgb(41,35,27);fill-rule:nonzero;"/>
        </g>
        <g id="path54-8" transform="matrix(4.44736,0,0,4.44736,597.251,1991.04)">
            <path d="M0.831,2.361C-1.138,1.103 -16.123,3.096 -17.874,8.318C-15.759,4.354 -3.391,1.822 0.087,2.584C0.342,2.64 1.513,3.303 1.498,2.912C1.46,2.52 1.114,2.542 0.831,2.361Z" style="fill:rgb(41,35,27);fill-rule:nonzero;"/>
        </g>
        <g id="path56-1" transform="matrix(4.44736,0,0,4.44736,588.703,2017.53)">
            <path d="M2.897,-2.106C2.543,-2.983 -13.629,-0.346 -13.973,4.126C-12.767,-0.409 2.365,-2.122 2.702,-1.778C2.847,-1.757 3,-1.851 2.897,-2.106Z" style="fill:rgb(41,35,27);fill-rule:nonzero;"/>
        </g>
        <g id="path58-0" transform="matrix(4.44736,0,0,4.44736,594.556,2040.59)">
            <path d="M1.82,-6.059C1.82,-6.059 -14.47,-2.127 -13.959,2.336C-13.785,-2.201 1.924,-5.574 1.924,-5.574C2.193,-5.606 2.115,-6.114 1.82,-6.059Z" style="fill:rgb(41,35,27);fill-rule:nonzero;"/>
        </g>
    </g>
</svg>
