<?xml version="1.0" encoding="UTF-8" standalone="no"?>
<svg
   width="449.1532"
   height="226.25555"
   viewBox="0 0 449.1532 226.25555"
   version="1.1"
   xml:space="preserve"
   style="clip-rule:evenodd;fill-rule:evenodd;stroke-linecap:round;stroke-linejoin:round;stroke-miterlimit:1.5"
   id="svg14"
   sodipodi:docname="beaver_fish_explanation.svg"
   inkscape:version="1.4.3 (0d15f75, 2025-12-25)"
   xmlns:inkscape="http://www.inkscape.org/namespaces/inkscape"
   xmlns:sodipodi="http://sodipodi.sourceforge.net/DTD/sodipodi-0.dtd"
   xmlns="http://www.w3.org/2000/svg"
   xmlns:svg="http://www.w3.org/2000/svg"
   xmlns:serif="http://www.serif.com/"><defs
   id="defs14"><marker
     style="overflow:visible"
     id="ConcaveTriangle"
     refX="0"
     refY="0"
     orient="auto-start-reverse"
     inkscape:stockid="Concave triangle arrow"
     markerWidth="1"
     markerHeight="1"
     viewBox="0 0 1 1"
     inkscape:isstock="true"
     inkscape:collect="always"
     preserveAspectRatio="xMidYMid"><path
       transform="scale(0.7)"
       d="M -2,-4 9,0 -2,4 c 2,-2.33 2,-5.66 0,-8 z"
       style="fill:context-stroke;fill-rule:evenodd;stroke:none"
       id="path22" /></marker></defs><sodipodi:namedview
   id="namedview14"
   pagecolor="#ffffff"
   bordercolor="#000000"
   borderopacity="0.25"
   inkscape:showpageshadow="2"
   inkscape:pageopacity="0.0"
   inkscape:pagecheckerboard="0"
   inkscape:deskcolor="#d1d1d1"
   inkscape:zoom="1.3597009"
   inkscape:cx="362.94746"
   inkscape:cy="121.71794"
   inkscape:window-width="1920"
   inkscape:window-height="1111"
   inkscape:window-x="-9"
   inkscape:window-y="-9"
   inkscape:window-maximized="1"
   inkscape:current-layer="svg14" />
    
<g
   transform="translate(-1940.4775,-820.45921)"
   id="g20"
   style="clip-rule:evenodd;fill-rule:evenodd;stroke-linejoin:round;stroke-miterlimit:2">
        <g
   id="path16-0"
   transform="matrix(4.44736,0,0,4.44736,1971.83,872.748)">
            <path
   d="m 0.261,26.973 c -2.358,-0.207 -6.835,-1.579 -7.274,-6.45 -0.406,-6.245 2.679,-7.449 3.292,-9.024 C -3.146,9.425 -3.588,5.908 -1.412,4.67 -1.723,4.583 -3.251,3.497 -3.477,2.304 -3.703,1.11 -2.974,0.177 -1.57,0.716 c 1.406,0.542 1.088,3.296 1.088,3.296 0,0 6.584,-4.273 16.362,0.021 -0.165,-2.587 0.091,-3.704 0.824,-4.071 0.734,-0.363 2.912,0.619 2.59,1.725 -0.323,1.105 -2.107,2.72 -2.652,3.111 0.978,1.488 1.432,3.311 1.876,3.971 1.31,2.541 4.129,3.666 4.804,7.828 0.323,1.983 -0.539,4.098 -1.772,5.669 -1.356,1.727 -3.083,2.958 -4.157,3.561 -2.14,1.2 -13.447,1.768 -16.771,1.196"
   style="fill:#29231b;fill-rule:nonzero"
   id="path1-5" />
        </g>
        <g
   id="path18-9"
   transform="matrix(4.44736,0,0,4.44736,1979.93,885.178)">
            <path
   d="m -0.065,23.615 c -3.2,-0.084 -7.62,-1.442 -7.915,-6.023 -0.294,-4.576 2.258,-6.13 3.28,-9.165 0.994,-3.006 -0.95,-4.654 3.774,-7.055 3.962,-2.4 9.565,-1.639 13.347,0.12 2.827,1.228 2.778,3.967 3.617,5.313 0.84,1.346 4.131,3.255 4.63,6.575 0.513,1.354 -0.206,3.883 -1.364,5.619 -1.224,1.835 -2.937,2.856 -4.131,3.395 -4.65,2.096 -13.975,1.254 -15.238,1.221 z"
   style="fill:#e59b4c;fill-rule:nonzero"
   id="path2-1" />
        </g>
        <g
   id="path20-7"
   transform="matrix(2.21895,0,0,2.21895,1990.63,973.087)">
            <path
   d="m 0.27,-17.011 c 1.689,-1.761 10.085,-2.462 12.659,-0.301 2.12,2.469 2.934,5.095 2.469,7.697 -0.375,2.103 -1.434,4.777 -2.888,6.076 -0.032,0.029 0.414,1.937 0.137,3.789 -0.385,2.578 -1.538,5.342 -1.712,5.4 0,0 -4.476,-0.267 -5.108,-0.33 C 5.059,5.243 4.434,3.938 4.434,3.938 3.916,3.082 2.198,-2.927 1.813,-3.392 0.047,-5.524 -1.282,-8.931 -1.458,-10.536 -1.67,-12.49 -1.42,-15.249 0.27,-17.01"
   style="fill:#29231b;fill-rule:nonzero"
   id="path3" />
        </g>
        <g
   id="path22-7"
   transform="matrix(2.21895,0,0,2.21895,1993.76,962.245)">
            <path
   d="m 0,-12.416 c -2.458,1.245 -3.089,7.283 -0.485,11.315 0.719,1.112 0.679,1.944 1.938,2.61 0.924,0.315 3.844,-1.112 3.763,-1.705 0.159,-0.315 -0.404,-9.694 0.087,-9.586 0.492,0.108 0.748,9.7 0.748,9.7 0,0 1.875,0.909 4.171,1.246 5.268,-4.509 3.588,-12.446 0.341,-12.966 C 8.564,-13.062 2.479,-13.895 0,-12.416"
   style="fill:#f0c795;fill-rule:nonzero"
   id="path4" />
        </g>
        <g
   id="path24-7"
   transform="matrix(2.21895,0,0,2.21895,1992.02,942.033)">
            <path
   d="M 0.442,-3.366 C 1.932,-4.281 8.871,-5.219 12.068,-3.3 12.521,-2.878 8.463,1.29 6.012,1.44 3.563,1.59 -1.086,-2.417 0.406,-3.33"
   style="fill:#29231b;fill-rule:nonzero"
   id="path5" />
        </g>
        <g
   id="path26-1"
   transform="matrix(-3.71691,-0.183623,-0.183623,3.71691,1996.67,983.167)">
            <path
   d="m -2.286,-5.308 c 0.662,0.725 2.421,1.08 2.457,0.891 0,0 -1.413,4.184 -1.91,4.267 -0.494,0.083 -1.338,0.187 -1.338,0.187 0,0 0.653,-3.617 0.801,-5.321"
   style="fill:#ffffff;fill-rule:nonzero"
   id="path6-7" />
        </g>
        <g
   id="path28-2"
   transform="matrix(-3.66816,0.627507,0.627507,3.66816,2017.99,982.457)">
            <path
   d="m 1.94,-5.431 c 0.146,1.775 0.453,5.453 0.453,5.453 0,0 -0.999,0.223 -1.199,0.218 C 0.89,0.231 -0.75,-2.412 -0.641,-4.338 0.846,-4.715 1.805,-5.458 1.938,-5.443"
   style="fill:#ffffff;fill-rule:nonzero"
   id="path7-1" />
        </g>
        <g
   id="path30-1"
   transform="matrix(2.21895,0,0,2.21895,2008.24,935.516)">
            <path
   d="M 0,-0.476 C 0.074,-1.063 3.613,-0.754 3.482,-0.085 3.352,0.587 -0.072,0.11 0,-0.476"
   style="fill:#ffffff;fill-rule:nonzero"
   id="path8-1" />
        </g>
        <g
   id="path32-7"
   transform="matrix(4.44736,0,0,4.44736,1966.47,876.795)">
            <path
   d="m 0.048,3.09 c 0,0 -1.876,-1.179 -1.833,-1.951 0.045,-0.773 0.947,-1.223 1.462,-0.582 0.515,0.647 0.383,2.509 0.383,2.509"
   style="fill:#e59b4c;fill-rule:nonzero"
   id="path9-5" />
        </g>
        <g
   id="path34-8"
   transform="matrix(4.44736,0,0,4.44736,2045.27,875.657)">
            <path
   d="m 0,3.426 c 0,0 -0.041,-3.18 0.393,-3.452 C 0.83,-0.299 2.004,0.376 2.047,1.061 2.091,1.749 0,3.426 0,3.426"
   style="fill:#e59b4c;fill-rule:nonzero"
   id="path10-2" />
        </g>
        <g
   id="path48-1"
   transform="matrix(4.44736,0,0,4.44736,2021.88,928.287)">
            <path
   d="M 0.396,2.222 C 2.107,1.629 8.853,-0.422 10.705,3.345 8.296,-0.107 2.193,2.05 0.583,2.699 0.373,2.762 -0.072,2.427 0.396,2.222 Z"
   style="fill:#29231b;fill-rule:nonzero"
   id="path11-7" />
        </g>
        <g
   id="path50-0"
   transform="matrix(4.44736,0,0,4.44736,2031.05,956.705)">
            <path
   d="m 0.43,-2.929 c 0,0 7.323,-0.428 8.01,3.584 C 7.139,-3.248 0.247,-2.35 0.247,-2.35 -0.078,-2.301 -0.069,-2.927 0.43,-2.929 Z"
   style="fill:#29231b;fill-rule:nonzero"
   id="path12" />
        </g>
        <g
   id="path52-6"
   transform="matrix(4.44736,0,0,4.44736,2024.78,978.182)">
            <path
   d="m 0.397,-5.878 c 0,0 8.247,1.153 7.7,5.938 C 7.909,-4.805 0.311,-5.306 0.311,-5.306 -0.123,-5.383 -0.181,-5.96 0.397,-5.878 Z"
   style="fill:#29231b;fill-rule:nonzero"
   id="path13" />
        </g>
        <g
   id="path54-8"
   transform="matrix(4.44736,0,0,4.44736,1989.42,931.845)">
            <path
   d="M -0.5,2.029 C -2.281,1.428 -8.331,-0.125 -10.013,3.297 -8.033,0.454 -3.402,1.569 -1.245,2.253 -0.996,2.332 0.181,2.971 0.166,2.581 0.128,2.189 -0.183,2.138 -0.5,2.029 Z"
   style="fill:#29231b;fill-rule:nonzero"
   id="path14" />
        </g>
        <g
   id="path56-1"
   transform="matrix(4.44736,0,0,4.44736,1980.88,958.338)">
            <path
   d="m 0,-2.519 c 0,0 -7.229,-0.611 -7.869,3.13 1.215,-3.64 7.84,-2.711 7.84,-2.711 C 0.115,-2.079 0.438,-2.463 0,-2.519 Z"
   style="fill:#29231b;fill-rule:nonzero"
   id="path15" />
        </g>
        <g
   id="path58-0"
   transform="matrix(4.44736,0,0,4.44736,1986.73,981.397)">
            <path
   d="m 0,-6.162 c 0,0 -8.414,1.699 -7.903,6.162 0.174,-4.537 8.007,-5.677 8.007,-5.677 C 0.373,-5.709 0.294,-6.218 0,-6.162 Z"
   style="fill:#29231b;fill-rule:nonzero"
   id="path16" />
        </g>
        <g
   id="path44-0"
   transform="matrix(-1.93511,5.29392,4.68561,2.18634,1983.18,903.959)">
            <path
   d="M 2.63,-2.003 C 2.152,-2.421 -1.57,-0.063 -0.681,1.44 0.46,3.371 2.442,2.784 2.661,0.917 2.748,0.172 2.42,-0.303 2.405,-0.75 2.387,-1.199 2.727,-1.956 2.727,-1.956"
   style="fill:#29231b;fill-rule:nonzero"
   id="path17" />
        </g>
        <g
   id="path44-1-3"
   transform="matrix(1.93511,5.29392,-4.68561,2.18634,2028.52,903.12)">
            <path
   d="M 2.746,-2.088 C 2.598,-2.17 -0.501,-0.708 -0.755,0.777 -1.164,3.171 2.011,2.772 2.661,0.917 2.909,0.209 2.42,-0.303 2.405,-0.75 2.387,-1.199 2.801,-2.042 2.801,-2.042"
   style="fill:#29231b;fill-rule:nonzero"
   id="path18" />
        </g>
        <g
   id="path46-4-9"
   transform="matrix(-0.737628,-5.87264,5.87264,-0.737628,2025.85,901.634)">
            <path
   d="m -0.666,-0.772 c -0.328,0.001 -0.596,0.267 -0.595,0.594 0.003,0.33 0.265,0.596 0.595,0.595 0.329,0 0.593,-0.264 0.594,-0.596 0.002,-0.326 -0.266,-0.59 -0.594,-0.593"
   style="fill:#ffffff;fill-rule:nonzero"
   id="path19" />
        </g>
        <g
   id="path46-4-91"
   serif:id="path46-4-9"
   transform="matrix(-0.737628,-5.87264,5.87264,-0.737628,1986.67,902.754)">
            <path
   d="m -0.666,-0.772 c -0.328,0.001 -0.596,0.267 -0.595,0.594 0.003,0.33 0.265,0.596 0.595,0.595 0.329,0 0.593,-0.264 0.594,-0.596 0.002,-0.326 -0.266,-0.59 -0.594,-0.593"
   style="fill:#ffffff;fill-rule:nonzero"
   id="path20" />
        </g>
    </g><g
   transform="translate(-1933.4537,-1595.3151)"
   id="g14"
   style="clip-rule:evenodd;fill-rule:evenodd;stroke-linecap:round;stroke-linejoin:round;stroke-miterlimit:1.5">
        <g
   id="g13">
            <g
   transform="translate(2.77896,933.06)"
   id="g1">
                <path
   d="m 2360.4,792.813 0.19,33.467 -62.57,-6.498 0.92,-25.551 c 0,0 61.66,-2.419 61.46,-1.418 z"
   style="fill:#1a2c48"
   id="path1" />
            </g>
            <g
   transform="translate(0,931.113)"
   id="g2">
                <path
   d="m 2367.16,809.551 c -7.64,-42.475 -2.04,-59.113 -13.36,-77.028 -11.48,-18.176 5.95,-19.439 2.66,-40.789 -4.26,9.13 -4.68,9.12 -14.14,12.985 1.68,-11.983 1.54,-11.844 3.5,-23.626 -4.87,9.13 -11.45,26.788 -16.42,15.812 5.67,-12.614 3.89,-12.873 4.56,-24.363 -0.88,0.986 -0.87,0.931 -20.35,20.079 0.9,-20.704 0.62,-21.245 -5.93,-27.794 1.61,26.436 -0.78,26.278 -0.87,26.907 -1.09,-1.608 -15.97,-23.628 -17.74,-16.552 -0.39,1.587 21.99,30.483 1.19,13.005 -20.59,-17.29 -23.75,-16.857 -23.06,-14.778 3.08,9.24 9.56,7.655 17.31,29.372 -6.21,-3.645 -5.08,-6.069 -21.86,-10.263 4.79,12.242 18.28,18.554 12.53,22.862 -20.82,15.615 -5.97,54.701 -40.94,82.681 -17.39,13.906 -48.73,-28.193 -49.73,-28.882 22.94,41.476 -2.69,67.029 -4.37,70.451 -2.79,5.69 18.72,0.033 27.67,-12.688 13.19,-18.762 23.52,-15.276 43.28,-3.878 35.05,20.225 2.8,73.254 85.57,66.111 39.23,-3.386 26.47,-46.05 26.2,-60.434 -0.12,-6.227 11.88,-16.392 -1.05,-14.29 -9.51,1.543 -9.33,-3.001 -6.9,-3.441 1.51,-0.275 1.95,4.045 12.25,-1.459 z"
   style="fill:#69bac9;stroke:#000000;stroke-width:1.25px"
   id="path2" />
            </g>
            <g
   transform="matrix(2.37899,0,0,2.37899,29.9262,-2013.26)"
   id="g3">
                <circle
   cx="979.76898"
   cy="1554.49"
   r="8.9619999"
   style="fill:#ebebeb;stroke:#000000;stroke-width:0.42px"
   id="circle2" />
            </g>
            <g
   transform="matrix(2.37899,0,0,2.37899,-8.43921,-2013.07)"
   id="g4">
                <circle
   cx="979.76898"
   cy="1554.49"
   r="8.9619999"
   style="fill:#ebebeb;stroke:#000000;stroke-width:0.42px"
   id="circle3" />
            </g>
            <g
   transform="matrix(1.00431,0,0,1.00431,1335.66,120.634)"
   id="g5">
                <circle
   cx="979.76898"
   cy="1554.49"
   r="8.9619999"
   style="stroke:#000000;stroke-width:1px"
   id="circle4" />
            </g>
            <g
   transform="matrix(1.00296,0,0,1.00296,1375.18,121.977)"
   id="g6">
                <circle
   cx="979.76898"
   cy="1554.49"
   r="8.9619999"
   style="stroke:#000000;stroke-width:1px"
   id="circle5" />
            </g>
            <g
   transform="translate(0,931.113)"
   id="g7">
                <path
   d="m 2212.47,804.952 c -9.22,-2.341 -7.55,-4.742 -12.87,-12.714"
   style="fill:none;stroke:#000000;stroke-width:1.25px"
   id="path6" />
            </g>
            <g
   transform="translate(0,931.113)"
   id="g8">
                <path
   d="m 2212.07,809.059 c 0.95,0.774 -3.62,-2.917 -13.83,6.762"
   style="fill:none;stroke:#000000;stroke-width:1.25px"
   id="path7" />
            </g>
            <g
   transform="translate(0,931.113)"
   id="g9">
                <path
   d="m 2210.38,814.933 c -0.54,1.005 -6.49,7.118 -7.18,8.088 -3.44,4.888 -3.72,5.996 -12.66,12.164"
   style="fill:none;stroke:#000000;stroke-width:1.25px"
   id="path8" />
            </g>
            <g
   transform="matrix(0.732039,0,0,0.637614,616.548,1222.69)"
   id="g10">
                <path
   d="m 2291.41,791.226 c -10.55,10.548 -31.74,11.867 -41.82,11.175 -4.83,-0.332 18.85,36.046 37.91,27.875 7.41,-3.174 8.93,-22.369 8.48,-30.086 -0.55,-9.357 -4.09,-7.268 -4.57,-8.964 z"
   style="fill:#bbe7ef;stroke:#000000;stroke-width:1.82px"
   id="path9" />
            </g>
            <g
   transform="translate(0,931.113)"
   id="g11">
                <path
   d="m 2289.2,804.639 c -7.4,4.789 -8.83,2.757 -13.92,2.207"
   style="fill:none;stroke:#000000;stroke-width:1.25px"
   id="path10" />
            </g>
            <g
   transform="translate(0,931.113)"
   id="g12">
                <path
   d="m 2290.79,811.07 c -0.57,-0.365 -0.37,0.786 -8.21,2.058"
   style="fill:none;stroke:#000000;stroke-width:1.25px"
   id="path11" />
            </g>
        </g>
    </g><path
   style="fill:none;stroke:#f90000;stroke-width:3.78;stroke-dasharray:none;stroke-opacity:1;marker-end:url(#ConcaveTriangle)"
   d="M 113.56871,74.635583 C 213.73919,38.768521 284.9316,47.213641 340.08911,73.900127"
   id="path21"
   sodipodi:nodetypes="cc" /><path
   style="fill:none;stroke:#f90000;stroke-width:3.78;stroke-dasharray:none;stroke-opacity:1;marker-end:url(#ConcaveTriangle)"
   d="M 114.30416,120.23384 C 225.80911,96.050485 278.49125,103.7412 315.81907,120.9693"
   id="path23"
   sodipodi:nodetypes="cc"
   inkscape:transform-center-x="-12.685713"
   inkscape:transform-center-y="5.0881167" /><path
   style="fill:none;stroke:#f90000;stroke-width:3.78;stroke-dasharray:none;stroke-opacity:1;marker-end:url(#ConcaveTriangle)"
   d="m 91.505024,145.23934 c 77.371356,53.1231 229.463906,62.30367 303.743276,23.53459"
   id="path24"
   sodipodi:nodetypes="cc" /></svg>
