<?xml version="1.0" encoding="UTF-8" standalone="no"?>
<!DOCTYPE svg PUBLIC "-//W3C//DTD SVG 1.1//EN" "http://www.w3.org/Graphics/SVG/1.1/DTD/svg11.dtd">
<svg width="100%" height="100%" viewBox="0 0 85 102" version="1.1" xmlns="http://www.w3.org/2000/svg" xmlns:xlink="http://www.w3.org/1999/xlink" xml:space="preserve" xmlns:serif="http://www.serif.com/" style="fill-rule:evenodd;clip-rule:evenodd;stroke-linecap:round;stroke-linejoin:round;stroke-miterlimit:1.5;">
    <g transform="matrix(1,0,0,1,-1142.63,-1790.13)">
        <g transform="matrix(1,0,0,1,215.115,286.852)">
            <path d="M995.903,1580.09C993.692,1582.3 1011.92,1579.4 1011.35,1584.31C1011.06,1586.89 1006.44,1587.85 1009.08,1589.75C1011.05,1591.18 1009.72,1593.67 1008.19,1594.56C1006.99,1595.26 1008,1596.62 1005.91,1597.66C1003.98,1598.63 1005.63,1604.65 1004.02,1603.8C986.7,1594.65 988.694,1591.96 987.19,1591.21C987.128,1591.18 987.168,1591.18 987.127,1591.14L995.903,1580.09Z" style="fill:rgb(255,167,0);"/>
        </g>
        <g transform="matrix(1,0,0,1,215.115,286.852)">
            <path d="M968.283,1530.46C967.982,1529.1 970.713,1496.19 962.588,1505.4C957.495,1511.17 948.42,1514.06 953.787,1519.17C961.345,1526.37 961.184,1526.76 961.76,1528.49C962.328,1530.19 961.861,1530.25 962.692,1531.91L968.283,1530.46Z" style="fill:rgb(255,167,0);"/>
        </g>
        <g transform="matrix(1,0,0,1,215.115,286.852)">
            <path d="M955.642,1534.52C956.647,1528.78 938.343,1516.75 930.799,1520.52C930.135,1520.85 931.01,1520.94 936.287,1527.97C942.925,1536.82 941.435,1549.02 940.843,1545.47C940.611,1544.08 925.308,1555.84 928.54,1573.35C930.184,1570.88 933.504,1564.95 936.184,1563.08C941.509,1559.35 946.142,1559.4 946.642,1560.9L958.087,1549.93L955.642,1534.52Z" style="fill:rgb(255,167,0);"/>
        </g>
        <g transform="matrix(1,0,0,1,215.115,286.852)">
            <path d="M952.836,1593.6C950.227,1595.24 945.522,1599.23 933.921,1599.73C928.308,1599.97 926.139,1593.68 929.882,1591.91C934.848,1589.56 929.799,1588.5 929.538,1586.67C929.502,1586.41 929.207,1584.35 930.311,1583.57C931.869,1582.48 931.944,1582.37 931.682,1580.45C932.369,1580.27 935.962,1579.13 937.702,1579.28C941.201,1579.57 941.249,1579.32 944.491,1580.74C948.597,1578.13 957.169,1590.87 952.836,1593.6Z" style="fill:rgb(255,167,0);"/>
        </g>
        <g transform="matrix(1,0,0,1,215.115,286.852)">
            <path d="M977.988,1578.64C979.656,1579.47 978.48,1581.76 978.356,1582C976.136,1586.31 975.358,1586.38 972.468,1591.75C970.952,1594.57 963.512,1593.35 962.118,1591.29C959.111,1586.83 958.669,1587.18 956.047,1582.46C955.689,1581.81 953.353,1580.01 956.507,1579.15C958.906,1578.49 959.987,1580.04 966.994,1579.01C968.867,1578.73 970.066,1579.63 971.18,1579.7C972.781,1579.8 972.815,1579.47 975.826,1580.34C977.437,1580.81 978.559,1580.1 978.724,1580.43" style="fill:none;stroke:black;stroke-width:4.17px;"/>
        </g>
        <g transform="matrix(1,0,0,1,215.115,286.852)">
            <path d="M995.903,1580.09C993.692,1582.3 1011.92,1579.4 1011.35,1584.31C1011.06,1586.89 1006.44,1587.85 1009.08,1589.75C1011.05,1591.18 1009.72,1593.67 1008.19,1594.56C1006.99,1595.26 1008,1596.62 1005.91,1597.66C1003.98,1598.63 1005.63,1604.65 1004.02,1603.8C986.7,1594.65 988.694,1591.96 987.19,1591.21C987.128,1591.18 987.168,1591.18 987.127,1591.14" style="fill:none;stroke:black;stroke-width:1px;"/>
        </g>
        <g transform="matrix(1,0,0,1,215.115,286.852)">
            <path d="M995.097,1582.61C1000.53,1584.71 1001.38,1584.73 1003.45,1586.97" style="fill:none;stroke:black;stroke-width:1px;"/>
        </g>
        <g transform="matrix(1,0,0,1,215.115,286.852)">
            <path d="M965.243,1531.31C965.587,1531.14 975.415,1527.4 978.375,1535.01C980.225,1539.77 978.685,1541.33 984.614,1548.66C995.207,1561.74 1008.27,1574.99 983.574,1593.76C963.771,1608.81 955.418,1594.65 950.169,1588.17C936.501,1571.29 949.825,1568.07 947.83,1554.77C945.194,1537.2 959.098,1532.44 964.727,1531.5L965.243,1531.31Z" style="fill:rgb(255,167,0);stroke:black;stroke-width:1px;"/>
        </g>
        <g transform="matrix(1,0,0,1,215.115,286.852)">
            <path d="M992.883,1585.33C993.47,1585.03 999.263,1588.36 1001.42,1592.09" style="fill:none;stroke:black;stroke-width:1px;"/>
        </g>
        <g transform="matrix(1,0,0,1,215.115,286.852)">
            <path d="M990.723,1588.6C990.914,1588.47 992.189,1589.99 992.314,1590.19C994.388,1593.65 994.918,1593.11 998.197,1595.51" style="fill:none;stroke:black;stroke-width:1px;"/>
        </g>
        <g transform="matrix(1,0,0,1,215.115,286.852)">
            <path d="M968.283,1530.46C967.982,1529.1 970.713,1496.19 962.588,1505.4C957.495,1511.17 948.42,1514.06 953.787,1519.17C961.345,1526.37 961.184,1526.76 961.76,1528.49C962.328,1530.19 961.861,1530.25 962.692,1531.91" style="fill:none;stroke:black;stroke-width:1px;"/>
        </g>
        <g transform="matrix(1,0,0,1,215.115,286.852)">
            <path d="M965.745,1528.32C966.028,1527.51 965.876,1527.49 964.97,1515.86" style="fill:none;stroke:black;stroke-width:1px;"/>
        </g>
        <g transform="matrix(1,0,0,1,215.115,286.852)">
            <path d="M962.778,1522.75C963.3,1523.39 962.729,1520.6 962.692,1520.41C961.9,1516.54 961.95,1516.48 959.378,1513.48" style="fill:none;stroke:black;stroke-width:1px;"/>
        </g>
        <g transform="matrix(1,0,0,1,215.115,286.852)">
            <path d="M973.798,1577.08C975.16,1576.95 983.566,1574.63 980.882,1581.78C980.394,1583.08 978.32,1587.4 977.759,1588.47C976.106,1591.61 973.768,1594.22 970.562,1595.11C968.006,1595.82 966.049,1596.05 964.32,1595.72C962.573,1595.38 961.003,1594.49 959.333,1592.75C957.304,1590.64 956.028,1586.31 951.576,1581.52C950.127,1579.96 950.218,1575.19 952.201,1576C960.333,1579.32 967.659,1577.62 973.798,1577.08Z" style="fill:rgb(37,53,40);"/>
        </g>
        <g transform="matrix(1,0,0,1,215.115,286.852)">
            <path d="M958.86,1519.17C957.585,1516.62 957.611,1516.68 955.65,1514.72" style="fill:none;stroke:black;stroke-width:1px;"/>
        </g>
        <g transform="matrix(1,0,0,1,215.115,286.852)">
            <path d="M955.642,1534.52C956.647,1528.78 938.343,1516.75 930.799,1520.52C930.135,1520.85 931.01,1520.94 936.287,1527.97C942.925,1536.82 941.435,1549.02 940.843,1545.47C940.611,1544.08 925.308,1555.84 928.54,1573.35C930.184,1570.88 933.504,1564.95 936.184,1563.08C941.509,1559.35 946.142,1559.4 946.642,1560.9" style="fill:none;stroke:black;stroke-width:1px;"/>
        </g>
        <g transform="matrix(1,0,0,1,215.115,286.852)">
            <path d="M973.798,1577.08C975.16,1576.95 983.566,1574.63 980.882,1581.78C980.394,1583.08 978.32,1587.4 977.759,1588.47C976.106,1591.61 973.768,1594.22 970.562,1595.11C968.006,1595.82 966.049,1596.05 964.32,1595.72C962.573,1595.38 961.003,1594.49 959.333,1592.75C957.304,1590.64 956.028,1586.31 951.576,1581.52C950.127,1579.96 950.218,1575.19 952.201,1576C960.333,1579.32 967.659,1577.62 973.798,1577.08ZM976.343,1580.83C975.739,1581.01 975.027,1581.15 974.167,1581.23C969.025,1581.68 962.804,1582.69 956.313,1581.25C958.074,1584.08 959.489,1586.28 960.741,1587.95C962.206,1589.9 963.321,1591.06 964.658,1591.51C965.974,1591.94 967.427,1591.65 969.446,1591.09C971.574,1590.5 972.974,1588.62 974.071,1586.53C975.044,1584.68 975.764,1582.64 976.343,1580.83Z" style="fill:rgb(66,181,91);stroke:black;stroke-width:1px;stroke-linecap:butt;stroke-miterlimit:2;"/>
        </g>
        <g transform="matrix(1,0,0,1,215.115,286.852)">
            <path d="M952.836,1593.6C950.208,1595.21 945.522,1599.23 933.921,1599.73C928.308,1599.97 926.139,1593.68 929.882,1591.91C934.848,1589.56 929.799,1588.5 929.538,1586.67C929.502,1586.41 929.207,1584.35 930.311,1583.57C931.869,1582.48 931.944,1582.37 931.682,1580.45C932.369,1580.27 935.962,1579.13 937.702,1579.28C941.201,1579.57 941.249,1579.32 944.491,1580.74" style="fill:none;stroke:black;stroke-width:1px;"/>
        </g>
        <g transform="matrix(1,0,0,1,215.115,286.852)">
            <path d="M949.991,1590.97C949.991,1590.8 947.812,1590.54 946.124,1590.71C940.474,1591.25 940.595,1591.79 935.983,1595.18" style="fill:none;stroke:black;stroke-width:1px;"/>
        </g>
        <g transform="matrix(1,0,0,1,215.115,286.852)">
            <path d="M943.631,1586.5C943.187,1585.83 935.557,1587.47 934.866,1587.61" style="fill:none;stroke:black;stroke-width:1px;"/>
        </g>
        <g transform="matrix(1,0,0,1,215.115,286.852)">
            <path d="M941.741,1582.89C940.28,1582.8 935.416,1582.34 934.866,1582.29" style="fill:none;stroke:black;stroke-width:1px;"/>
        </g>
        <g transform="matrix(1.60888,0,0,1.60888,-407.152,-663.68)">
            <circle cx="979.769" cy="1554.49" r="8.962" style="fill:rgb(235,235,235);stroke:black;stroke-width:0.62px;"/>
        </g>
        <g transform="matrix(1.60888,0,0,1.60888,-380.205,-664.015)">
            <circle cx="979.769" cy="1554.49" r="8.962" style="fill:rgb(235,235,235);stroke:black;stroke-width:0.62px;"/>
        </g>
        <g transform="matrix(0.679205,0,0,0.679205,501.843,779.318)">
            <circle cx="979.769" cy="1554.49" r="8.962" style="stroke:black;stroke-width:1.47px;"/>
        </g>
        <g transform="matrix(0.678287,0,0,0.678287,529.573,780.018)">
            <circle cx="979.769" cy="1554.49" r="8.962" style="stroke:black;stroke-width:1.47px;"/>
        </g>
    </g>
</svg>
