<?xml version="1.0" encoding="UTF-8" standalone="no"?>
<!DOCTYPE svg PUBLIC "-//W3C//DTD SVG 1.1//EN" "http://www.w3.org/Graphics/SVG/1.1/DTD/svg11.dtd">
<svg width="100%" height="100%" viewBox="0 0 197 227" version="1.1" xmlns="http://www.w3.org/2000/svg" xmlns:xlink="http://www.w3.org/1999/xlink" xml:space="preserve" xmlns:serif="http://www.serif.com/" style="fill-rule:evenodd;clip-rule:evenodd;stroke-linecap:round;stroke-linejoin:round;stroke-miterlimit:1.5;">
    <g transform="matrix(1,0,0,1,-2179.27,-664.202)">
        <g>
            <g transform="matrix(1,0,0,1,2.77896,1.94681)">
                <path d="M2360.4,792.813L2360.59,826.28L2298.02,819.782L2298.94,794.231C2298.94,794.231 2360.6,791.812 2360.4,792.813Z" style="fill:rgb(26,44,72);"/>
            </g>
            <path d="M2363.52,799.137C2363.11,799.964 2363.3,804.652 2363.08,807.62C2362.08,806.181 2361.86,806.453 2360.64,805.228C2360.44,805.035 2358.53,803.456 2358.19,803.542L2363.52,799.137Z" style="fill:white;stroke:black;stroke-width:1.25px;"/>
            <path d="M2353.95,805.337C2353.34,808.078 2353.34,808.024 2352.91,810.776C2352.44,809.362 2350.54,806.506 2350.3,806.153L2353.95,805.337Z" style="fill:white;stroke:black;stroke-width:1.25px;"/>
            <path d="M2343.48,806.219C2341.03,807.791 2341.57,808.277 2339.64,810.613C2338.94,808.678 2338.96,808.702 2338.06,806.86C2338.02,806.768 2337.73,806.18 2337.63,805.663L2343.48,806.219Z" style="fill:white;stroke:black;stroke-width:1.25px;"/>
            <path d="M2333.03,804.412C2332.24,804.873 2330.07,809.397 2329.85,809.851C2327.63,803.728 2327.82,803.667 2327.57,803.161L2333.03,804.412Z" style="fill:white;stroke:black;stroke-width:1.25px;"/>
            <path d="M2322.35,800.986C2321.91,802.146 2320.73,802.296 2320.28,804.412C2319.83,806.524 2319.84,806.473 2319.32,808.613C2316.07,803.935 2315.14,799.91 2315.17,799.789L2322.35,800.986Z" style="fill:white;stroke:black;stroke-width:1.25px;"/>
            <path d="M2363.51,820.208C2360.66,817.282 2359.85,816.056 2357.59,813.604C2357.3,813.284 2357.41,817.167 2356.39,822.252L2363.51,820.208Z" style="fill:white;stroke:black;stroke-width:1.25px;"/>
            <path d="M2350.81,823.391C2350.62,822.705 2350.03,823.008 2347.28,815.219C2347.01,815.839 2345.29,819.691 2345.03,823.394L2350.81,823.391Z" style="fill:white;stroke:black;stroke-width:1.25px;"/>
            <path d="M2337.37,822.731C2337.04,820.974 2335.56,814.077 2335.4,814.148C2333.31,815.063 2331.03,818.174 2328.55,820.24L2337.37,822.731Z" style="fill:white;stroke:black;stroke-width:1.25px;"/>
            <path d="M2323.54,819.859C2323.99,819.119 2324.68,810.762 2324.68,810.496C2324.37,810.774 2321.46,813.345 2320.88,814.094C2318.17,817.558 2318.63,817.944 2318.27,818.064L2323.54,819.859Z" style="fill:white;stroke:black;stroke-width:1.25px;"/>
            <path d="M2365.86,794.869C2358.22,752.394 2365.12,750.438 2353.8,732.523C2342.32,714.347 2359.75,713.084 2356.46,691.734C2352.2,700.864 2351.78,700.854 2342.32,704.719C2344,692.736 2343.86,692.875 2345.82,681.093C2340.95,690.223 2334.37,707.881 2329.4,696.905C2335.07,684.291 2333.29,684.032 2333.96,672.542C2333.08,673.528 2333.09,673.473 2313.61,692.621C2314.51,671.917 2314.23,671.376 2307.68,664.827C2309.29,691.263 2306.9,691.105 2306.81,691.734C2305.72,690.126 2290.84,668.106 2289.07,675.182C2288.68,676.769 2311.06,705.665 2290.26,688.187C2269.67,670.897 2266.51,671.33 2267.2,673.409C2270.28,682.649 2276.76,681.064 2284.51,702.781C2278.3,699.136 2279.43,696.712 2262.65,692.518C2267.44,704.76 2280.93,711.072 2275.18,715.38C2254.36,730.995 2269.21,770.081 2234.24,798.061C2216.85,811.967 2185.51,769.868 2184.51,769.179C2207.45,810.655 2181.82,836.208 2180.14,839.63C2177.35,845.32 2198.86,839.663 2207.81,826.942C2221,808.18 2231.33,811.666 2251.09,823.064C2286.14,843.289 2253.89,896.318 2336.66,889.175C2375.89,885.789 2359.1,843.048 2363.85,829.469C2365.27,825.424 2374.7,811.481 2362.97,820.011C2350.31,829.217 2297.7,818.739 2310.06,799.321C2312.74,795.107 2353.63,819.85 2365.86,794.869Z" style="fill:rgb(105,186,201);stroke:black;stroke-width:1.25px;"/>
            <g transform="matrix(1.45456,0,0,1.45456,936.928,-1505.91)">
                <circle cx="979.769" cy="1554.49" r="8.962" style="fill:rgb(235,235,235);stroke:black;stroke-width:0.69px;"/>
            </g>
            <g transform="matrix(1.45456,0,0,1.45456,903.24,-1505.91)">
                <circle cx="979.769" cy="1554.49" r="8.962" style="fill:rgb(235,235,235);stroke:black;stroke-width:0.69px;"/>
            </g>
            <g transform="matrix(0.614056,0,0,0.614056,1725.04,-201.327)">
                <circle cx="979.769" cy="1554.49" r="8.962" style="stroke:black;stroke-width:1.63px;"/>
            </g>
            <g transform="matrix(0.613226,0,0,0.613226,1759.44,-200.391)">
                <circle cx="979.769" cy="1554.49" r="8.962" style="stroke:black;stroke-width:1.63px;"/>
            </g>
            <path d="M2212.47,804.952C2203.25,802.611 2204.92,800.21 2199.6,792.238" style="fill:none;stroke:black;stroke-width:1.25px;"/>
            <path d="M2212.07,809.059C2213.02,809.833 2208.45,806.142 2198.24,815.821" style="fill:none;stroke:black;stroke-width:1.25px;"/>
            <path d="M2210.38,814.933C2209.84,815.938 2203.89,822.051 2203.2,823.021C2199.76,827.909 2199.48,829.017 2190.54,835.185" style="fill:none;stroke:black;stroke-width:1.25px;"/>
            <g transform="matrix(0.732039,0,0,0.637614,616.548,291.58)">
                <path d="M2291.41,791.226C2280.86,801.774 2259.67,803.093 2249.59,802.401C2244.76,802.069 2268.44,838.447 2287.5,830.276C2294.91,827.102 2296.43,807.907 2295.98,800.19C2295.43,790.833 2291.89,792.922 2291.41,791.226Z" style="fill:rgb(187,231,239);stroke:black;stroke-width:1.82px;"/>
            </g>
            <path d="M2289.2,804.639C2281.8,809.428 2280.37,807.396 2275.28,806.846" style="fill:none;stroke:black;stroke-width:1.25px;"/>
            <path d="M2290.79,811.07C2290.22,810.705 2290.42,811.856 2282.58,813.128" style="fill:none;stroke:black;stroke-width:1.25px;"/>
        </g>
    </g>
</svg>
