<?xml version="1.0" encoding="UTF-8" standalone="no"?>
<svg
   width="100%"
   height="100%"
   viewBox="0 0 121 104"
   version="1.1"
   xml:space="preserve"
   style="fill-rule:evenodd;clip-rule:evenodd;stroke-linecap:round;stroke-linejoin:round;stroke-miterlimit:1.5;"
   id="svg26"
   sodipodi:docname="fishexampleD.svg"
   inkscape:version="1.4.3 (0d15f75, 2025-12-25)"
   xmlns:inkscape="http://www.inkscape.org/namespaces/inkscape"
   xmlns:sodipodi="http://sodipodi.sourceforge.net/DTD/sodipodi-0.dtd"
   xmlns="http://www.w3.org/2000/svg"
   xmlns:svg="http://www.w3.org/2000/svg"><defs
   id="defs26" /><sodipodi:namedview
   id="namedview26"
   pagecolor="#ffffff"
   bordercolor="#000000"
   borderopacity="0.25"
   inkscape:showpageshadow="2"
   inkscape:pageopacity="0.0"
   inkscape:pagecheckerboard="0"
   inkscape:deskcolor="#d1d1d1"
   inkscape:zoom="8.3942308"
   inkscape:cx="60.45819"
   inkscape:cy="52"
   inkscape:window-width="1920"
   inkscape:window-height="1111"
   inkscape:window-x="-9"
   inkscape:window-y="-9"
   inkscape:window-maximized="1"
   inkscape:current-layer="g22" />
    <g
   transform="matrix(1,0,0,1,-1125.75,-1941.5)"
   id="g26">
        <g
   transform="matrix(2.11321,0,0,1.39559,-891.657,-193.992)"
   id="g1">
            <path
   d="M995.903,1580.09C993.692,1582.3 1011.92,1579.4 1011.35,1584.31C1011.06,1586.89 1006.44,1587.85 1009.08,1589.75C1011.05,1591.18 1009.72,1593.67 1008.19,1594.56C1006.99,1595.26 1008,1596.62 1005.91,1597.66C1003.98,1598.63 1005.63,1604.65 1004.02,1603.8C986.7,1594.65 988.694,1591.96 987.19,1591.21C987.128,1591.18 987.168,1591.18 987.127,1591.14L995.903,1580.09Z"
   style="fill:rgb(255,167,0);"
   id="path1" />
        </g>
        <g
   transform="matrix(1,0,0,1,215.115,438.225)"
   id="g2">
            <path
   d="M968.283,1530.46C967.982,1529.1 970.713,1496.19 962.588,1505.4C957.495,1511.17 948.42,1514.06 953.787,1519.17C961.345,1526.37 961.184,1526.76 961.76,1528.49C962.328,1530.19 961.861,1530.25 962.692,1531.91L968.283,1530.46Z"
   style="fill:rgb(255,167,0);"
   id="path2" />
        </g>
        <g
   transform="matrix(1,0,0,1,215.115,438.225)"
   id="g3">
            <path
   d="M955.642,1534.52C956.647,1528.78 938.343,1516.75 930.799,1520.52C930.135,1520.85 931.01,1520.94 936.287,1527.97C942.925,1536.82 941.435,1549.02 940.843,1545.47C940.611,1544.08 925.308,1555.84 928.54,1573.35C930.184,1570.88 933.504,1564.95 936.184,1563.08C941.509,1559.35 946.142,1559.4 946.642,1560.9L958.087,1549.93L955.642,1534.52Z"
   style="fill:rgb(255,167,0);"
   id="path3" />
        </g>
        <g
   transform="matrix(1.8206,0,0,1.33802,-563.298,-98.5928)"
   id="g4">
            <path
   d="M952.836,1593.6C950.227,1595.24 945.522,1599.23 933.921,1599.73C928.308,1599.97 926.139,1593.68 929.882,1591.91C934.848,1589.56 929.799,1588.5 929.538,1586.67C929.502,1586.41 929.207,1584.35 930.311,1583.57C931.869,1582.48 931.944,1582.37 931.682,1580.45C932.369,1580.27 935.962,1579.13 937.702,1579.28C941.201,1579.57 941.249,1579.32 944.491,1580.74C948.597,1578.13 957.169,1590.87 952.836,1593.6Z"
   style="fill:rgb(255,167,0);"
   id="path4" />
        </g>
        <g
   transform="matrix(1,0,0,1,215.115,438.225)"
   id="g5">
            <path
   d="M977.988,1578.64C979.656,1579.47 978.48,1581.76 978.356,1582C976.136,1586.31 975.358,1586.38 972.468,1591.75C970.952,1594.57 963.512,1593.35 962.118,1591.29C959.111,1586.83 958.669,1587.18 956.047,1582.46C955.689,1581.81 953.353,1580.01 956.507,1579.15C958.906,1578.49 959.987,1580.04 966.994,1579.01C968.867,1578.73 970.066,1579.63 971.18,1579.7C972.781,1579.8 972.815,1579.47 975.826,1580.34C977.437,1580.81 978.559,1580.1 978.724,1580.43"
   style="fill:none;stroke:black;stroke-width:4.17px;"
   id="path5" />
        </g>
        <g
   transform="matrix(2.11321,0,0,1.39559,-891.657,-193.992)"
   id="g6">
            <path
   d="M995.903,1580.09C993.692,1582.3 1011.92,1579.4 1011.35,1584.31C1011.06,1586.89 1006.44,1587.85 1009.08,1589.75C1011.05,1591.18 1009.72,1593.67 1008.19,1594.56C1006.99,1595.26 1008,1596.62 1005.91,1597.66C1003.98,1598.63 1005.63,1604.65 1004.02,1603.8C986.7,1594.65 988.694,1591.96 987.19,1591.21C987.128,1591.18 987.168,1591.18 987.127,1591.14"
   style="fill:none;stroke:black;stroke-width:0.56px;"
   id="path6" />
        </g>
        <g
   transform="matrix(2.11321,0,0,1.39559,-891.657,-193.992)"
   id="g7">
            <path
   d="M995.097,1582.61C1000.53,1584.71 1001.38,1584.73 1003.45,1586.97"
   style="fill:none;stroke:black;stroke-width:0.56px;"
   id="path7" />
        </g>
        <g
   transform="matrix(1,0,0,1,215.115,438.225)"
   id="g8">
            <path
   d="M965.243,1531.31C965.587,1531.14 975.415,1527.4 978.375,1535.01C980.225,1539.77 978.685,1541.33 984.614,1548.66C995.207,1561.74 1008.27,1574.99 983.574,1593.76C963.771,1608.81 955.418,1594.65 950.169,1588.17C936.501,1571.29 949.825,1568.07 947.83,1554.77C945.194,1537.2 959.098,1532.44 964.727,1531.5L965.243,1531.31Z"
   style="fill:rgb(255,167,0);stroke:black;stroke-width:1px;"
   id="path8" />
        </g><g
   transform="matrix(1.27714,0,0,1,-322.3555,310.69339)"
   id="g16"
   style="clip-rule:evenodd;fill-rule:evenodd;stroke-linecap:round;stroke-linejoin:round;stroke-miterlimit:1.5">
            <ellipse
   cx="1179.1"
   cy="1716.87"
   rx="3.8139999"
   ry="4.5799999"
   style="fill:#253528"
   id="ellipse15" />
        </g><path
   d="m 1188.0191,2020.7378 c 2.32,1.25 3.41,3.96 3.17,6.65 -0.21,2.35 -1.44,4.6 -3.38,5.71 -1.36,0.78 -3.1,1.07 -5.17,0.38 -5.18,-1.7 -6.47,-5.04 -5.99,-7.81 0.72,-4.15 6.09,-7.79 11.37,-4.93 z m -1.98,3.66 c -2.4,-1.3 -4.96,0.09 -5.29,1.98 -0.21,1.26 0.84,2.37 3.2,3.15 0.71,0.23 1.32,0.22 1.8,-0.05 0.81,-0.47 1.2,-1.48 1.29,-2.46 0.09,-1.03 -0.12,-2.14 -1,-2.62 z"
   style="clip-rule:evenodd;fill:#42b55b;fill-rule:evenodd;stroke:#000000;stroke-width:1px;stroke-linecap:butt;stroke-linejoin:round;stroke-miterlimit:2"
   id="path16-9" />
        <g
   transform="matrix(1,0,0,1,215.115,438.225)"
   id="g9">
            <circle
   cx="979.769"
   cy="1554.49"
   r="8.962"
   style="fill:rgb(235,235,235);stroke:black;stroke-width:1px;"
   id="circle8" />
        </g>
        <g
   transform="matrix(1,0,0,1,191.955,438.225)"
   id="g10">
            <circle
   cx="979.769"
   cy="1554.49"
   r="8.962"
   style="fill:rgb(235,235,235);stroke:black;stroke-width:1px;"
   id="circle9" />
        </g>
        <g
   transform="matrix(2.11321,0,0,1.39559,-885.237,-191.618)"
   id="g11">
            <path
   d="M992.883,1585.33C993.47,1585.03 999.263,1588.36 1001.42,1592.09"
   style="fill:none;stroke:black;stroke-width:0.56px;"
   id="path10" />
        </g>
        <g
   transform="matrix(2.11321,0,0,1.39559,-885.823,-191.539)"
   id="g12">
            <path
   d="M990.723,1588.6C990.914,1588.47 992.189,1589.99 992.314,1590.19C994.388,1593.65 994.918,1593.11 998.197,1595.51"
   style="fill:none;stroke:black;stroke-width:0.56px;"
   id="path11" />
        </g>
        <g
   transform="matrix(1,0,0,1,215.115,438.225)"
   id="g13">
            <path
   d="M968.283,1530.46C967.982,1529.1 970.713,1496.19 962.588,1505.4C957.495,1511.17 948.42,1514.06 953.787,1519.17C961.345,1526.37 961.184,1526.76 961.76,1528.49C962.328,1530.19 961.861,1530.25 962.692,1531.91"
   style="fill:none;stroke:black;stroke-width:1px;"
   id="path12" />
        </g>
        <g
   transform="matrix(1,0,0,1,215.115,438.225)"
   id="g14">
            <path
   d="M965.745,1528.32C966.028,1527.51 965.876,1527.49 964.97,1515.86"
   style="fill:none;stroke:black;stroke-width:1px;"
   id="path13" />
        </g>
        <g
   transform="matrix(1,0,0,1,215.115,438.225)"
   id="g15">
            <path
   d="M962.778,1522.75C963.3,1523.39 962.729,1520.6 962.692,1520.41C961.9,1516.54 961.95,1516.48 959.378,1513.48"
   style="fill:none;stroke:black;stroke-width:1px;"
   id="path14" />
        </g>
        
        <g
   transform="matrix(1,0,0,1,215.115,438.225)"
   id="g17">
            <path
   d="M958.86,1519.17C957.585,1516.62 957.611,1516.68 955.65,1514.72"
   style="fill:none;stroke:black;stroke-width:1px;"
   id="path16" />
        </g>
        <g
   transform="matrix(1,0,0,1,215.115,438.225)"
   id="g18">
            <path
   d="M955.642,1534.52C956.647,1528.78 938.343,1516.75 930.799,1520.52C930.135,1520.85 931.01,1520.94 936.287,1527.97C942.925,1536.82 941.435,1549.02 940.843,1545.47C940.611,1544.08 925.308,1555.84 928.54,1573.35C930.184,1570.88 933.504,1564.95 936.184,1563.08C941.509,1559.35 946.142,1559.4 946.642,1560.9"
   style="fill:none;stroke:black;stroke-width:1px;"
   id="path17" />
        </g>
        
        <g
   transform="matrix(0.422159,0,0,0.422159,756.94,1335.12)"
   id="g20">
            <circle
   cx="979.769"
   cy="1554.49"
   r="8.962"
   style="stroke:black;stroke-width:2.37px;"
   id="circle19" />
        </g>
        <g
   transform="matrix(0.421589,0,0,0.421589,780.587,1335.76)"
   id="g21">
            <circle
   cx="979.769"
   cy="1554.49"
   r="8.962"
   style="stroke:black;stroke-width:2.37px;"
   id="circle20" />
        </g>
        <g
   transform="matrix(1.8206,0,0,1.33802,-563.298,-98.5928)"
   id="g22">
            <path
   d="m 952.836,1593.6 c -2.628,1.61 -7.314,5.63 -18.915,6.13 -5.613,0.24 -7.782,-6.05 -4.039,-7.82 4.966,-2.35 -0.083,-3.41 -0.344,-5.24 -0.036,-0.26 -0.331,-2.32 0.773,-3.1 1.558,-1.09 1.633,-1.2 1.371,-3.12 0.687,-0.18 4.28,-1.32 6.02,-1.17 3.499,0.29 3.87417,0.4852 7.11617,1.9052"
   style="fill:none;stroke:#000000;stroke-width:0.63px"
   id="path21"
   sodipodi:nodetypes="cccccccc" />
        </g>
        <g
   transform="matrix(1.8206,0,0,1.33802,-563.298,-98.5928)"
   id="g23">
            <path
   d="M949.991,1590.97C949.991,1590.8 947.812,1590.54 946.124,1590.71C940.474,1591.25 940.595,1591.79 935.983,1595.18"
   style="fill:none;stroke:black;stroke-width:0.63px;"
   id="path22" />
        </g>
        <g
   transform="matrix(1.8206,0,0,1.33802,-563.298,-98.5928)"
   id="g24">
            <path
   d="M943.631,1586.5C943.187,1585.83 935.557,1587.47 934.866,1587.61"
   style="fill:none;stroke:black;stroke-width:0.63px;"
   id="path23" />
        </g>
        <g
   transform="matrix(1.8206,0,0,1.33802,-563.298,-98.5928)"
   id="g25">
            <path
   d="M941.741,1582.89C940.28,1582.8 935.416,1582.34 934.866,1582.29"
   style="fill:none;stroke:black;stroke-width:0.63px;"
   id="path24" />
        </g>
    </g>
</svg>
