<?xml version="1.0" encoding="UTF-8" standalone="no"?>
<svg
   width="931.89935"
   height="205.40962"
   viewBox="0 0 931.89935 205.40962"
   version="1.1"
   xml:space="preserve"
   style="clip-rule:evenodd;fill-rule:evenodd;stroke-linecap:round;stroke-linejoin:round;stroke-miterlimit:1.5"
   id="svg1140"
   sodipodi:docname="optionC.svg"
   inkscape:version="1.2.1 (9c6d41e410, 2022-07-14)"
   xmlns:inkscape="http://www.inkscape.org/namespaces/inkscape"
   xmlns:sodipodi="http://sodipodi.sourceforge.net/DTD/sodipodi-0.dtd"
   xmlns="http://www.w3.org/2000/svg"
   xmlns:svg="http://www.w3.org/2000/svg"><defs
   id="defs1140">
        
        
        
        
        
        
        
        
        
        
        
        
        
        
        
        
        
    </defs><sodipodi:namedview
   id="namedview1140"
   pagecolor="#ffffff"
   bordercolor="#000000"
   borderopacity="0.25"
   inkscape:showpageshadow="2"
   inkscape:pageopacity="0.0"
   inkscape:pagecheckerboard="0"
   inkscape:deskcolor="#d1d1d1"
   inkscape:zoom="0.4368932"
   inkscape:cx="334.17778"
   inkscape:cy="8.0111112"
   inkscape:window-width="2560"
   inkscape:window-height="1560"
   inkscape:window-x="-12"
   inkscape:window-y="-12"
   inkscape:window-maximized="1"
   inkscape:current-layer="svg1140"
   showgrid="false" />
    <g
   transform="translate(-2056.9237,-1650.771)"
   id="g493">
            <g
   transform="matrix(0.44368,0,0,0.44368,2166.43,1224.49)"
   id="g357">
                <g
   transform="matrix(1.17645,0,0,1.17645,-181.78,256.525)"
   id="g296">
                    <path
   d="m 1728.31,607.561 v 375.69 c 0,3.94 -3.2,7.139 -7.14,7.139 h -375.69 c -3.94,0 -7.14,-3.199 -7.14,-7.139 v -375.69 c 0,-3.94 3.2,-7.138 7.14,-7.138 h 375.69 c 3.94,0 7.14,3.198 7.14,7.138 z"
   style="fill:#ffffff"
   id="path295" />
                </g>
                <g
   transform="translate(-17.2845,518.895)"
   id="g297">
                    <path
   d="m 1630.82,596.026 0.26,-0.092"
   style="fill:none;stroke:#2b3f72;stroke-width:4.7px"
   id="path296" />
                </g>
                <g
   transform="translate(57.8682,362.466)"
   id="g298">
                    <path
   d="m 1350.02,836.67 c -0.84,187.03 -7.4,188.12 -0.15,202.62 5.6,11.2 58.09,6.72 67.59,2.16 -18.08,-10.68 -47.56,-0.87 -57.72,-9.19 -4.32,-131.174 2.39,-177.461 -7.36,-199.815 z"
   style="fill:#f0ede0"
   id="path297" />
                </g>
                <g
   transform="matrix(1.17645,0,0,1.17645,-181.78,256.525)"
   id="g299">
                    <path
   d="m 1730.08,607.561 v 375.69 c 0,4.917 -4,8.91 -8.91,8.91 h -375.69 c -4.92,0 -8.91,-3.993 -8.91,-8.91 v -375.69 c 0,-4.917 3.99,-8.909 8.91,-8.909 h 375.69 c 4.91,0 8.91,3.992 8.91,8.909 z m -1.77,0 c 0,-3.94 -3.2,-7.138 -7.14,-7.138 h -375.69 c -3.94,0 -7.14,3.198 -7.14,7.138 v 375.69 c 0,3.94 3.2,7.139 7.14,7.139 h 375.69 c 3.94,0 7.14,-3.199 7.14,-7.139 z"
   style="fill:#3e3300"
   id="path298" />
                </g>
                <g
   transform="matrix(1.17645,0,0,1.17645,-181.78,256.525)"
   id="g300">
                    <path
   d="m 1455.3,600.423 c 0,63.171 -51.28,114.458 -114.46,114.458 -0.83,0 -1.67,-0.009 -2.5,-0.027 v -28.623 c 0.83,0.024 1.67,0.036 2.5,0.036 47.38,0 85.85,-38.466 85.85,-85.844 z m 273.01,114.455 c -62.74,-0.507 -113.52,-51.598 -113.52,-114.455 h 28.61 c 0,47.064 37.96,85.333 84.91,85.839 z M 1614.79,990.39 c 0,-62.857 50.78,-113.948 113.52,-114.455 v 28.616 c -46.95,0.506 -84.91,38.775 -84.91,85.839 z M 1338.34,875.935 c 0.31,-0.003 0.63,-0.004 0.94,-0.004 63.17,0 114.46,51.287 114.46,114.459 h -28.62 c 0,-47.379 -38.46,-85.844 -85.84,-85.844 -0.31,0 -0.63,10e-4 -0.94,0.005 z"
   style="fill:#ffd000"
   id="path299" />
                </g>
                <g
   transform="translate(-32.2359,427.562)"
   id="g301">
                    <path
   d="m 1555.56,863.477 c -54.51,0 -98.76,-44.254 -98.76,-98.763 0,-54.509 44.25,-98.763 98.76,-98.763 0,-54.509 44.26,-98.763 98.76,-98.763 54.51,0 98.77,44.254 98.77,98.763 54.51,0 98.76,44.254 98.76,98.763 0,54.509 -44.25,98.763 -98.76,98.763 0,54.509 -44.26,98.764 -98.77,98.764 -54.5,0 -98.76,-44.255 -98.76,-98.764 z m 31.91,-31.905 c -4.63,9.664 -7.22,20.485 -7.22,31.905 0,40.882 33.19,74.073 74.07,74.073 40.89,0 74.08,-33.191 74.08,-74.073 0,-11.42 -2.59,-22.241 -7.22,-31.905 9.67,4.624 20.49,7.215 31.91,7.215 40.88,0 74.07,-33.191 74.07,-74.073 0,-40.882 -33.19,-74.072 -74.07,-74.072 -11.42,0 -22.24,2.59 -31.91,7.215 4.63,-9.665 7.22,-20.485 7.22,-31.906 0,-40.882 -33.19,-74.073 -74.08,-74.073 -40.88,0 -74.07,33.191 -74.07,74.073 0,11.421 2.59,22.241 7.22,31.906 -9.67,-4.625 -20.49,-7.215 -31.91,-7.215 -40.88,0 -74.07,33.19 -74.07,74.072 0,40.882 33.19,74.073 74.07,74.073 11.42,0 22.24,-2.591 31.91,-7.215 z"
   style="fill:#2b3f72"
   id="path300" />
                </g>
                <g
   transform="matrix(1.31251,-1.31251,1.31251,1.31251,-1552.91,2359.89)"
   id="g302">
                    <path
   d="m 1623.31,731.707 c 9.67,4.625 19.59,13.452 31.01,13.452 11.43,0 22.25,-7.726 31.91,-12.351 -4.62,9.665 -12.35,20.485 -12.35,31.906 0,11.421 7.73,22.242 12.35,31.906 -9.66,-4.625 -20.48,-12.351 -31.91,-12.351 -11.42,0 -22.24,7.726 -31.9,12.351 4.62,-9.664 12.35,-20.485 12.35,-31.906 0,-11.421 -6.84,-23.342 -11.46,-33.007 z"
   style="fill:#ffd000"
   id="path301" />
                </g>
                <g
   transform="translate(-17.2845,518.895)"
   id="g303">
                    <path
   d="m 1694.59,605.816 c 17.55,-30.765 5.11,-121.501 -85.73,-88.035 -32.15,11.845 -37.25,74.174 -16.6,81.058"
   style="fill:none;stroke:#2b3f72;stroke-width:4.7px"
   id="path302" />
                </g>
                <g
   transform="translate(-17.2845,518.895)"
   id="g304">
                    <path
   d="m 1563,617.917 c -11.24,-9.215 -99.33,-13.597 -78.65,78.095 10.63,47.134 74.77,48.017 84.47,25.392"
   style="fill:none;stroke:#2b3f72;stroke-width:4.7px"
   id="path303" />
                </g>
                <g
   transform="translate(-17.2845,518.895)"
   id="g305">
                    <path
   d="m 1583.24,746.85 c 0.99,6.039 -16.51,39.362 19.76,75.633 3.22,3.213 41.57,20.843 71.3,2.441 21.3,-13.188 34.15,-57.57 21.97,-80.57"
   style="fill:none;stroke:#2b3f72;stroke-width:4.7px"
   id="path304" />
                </g>
                <g
   transform="translate(-17.2845,518.895)"
   id="g306">
                    <path
   d="m 1714.32,730.95 c 4.17,5.006 24.65,7.579 35.17,5.103 62.98,-14.819 73.29,-114.639 6.35,-122.076 -0.55,-0.062 -0.42,-0.183 -6.83,-1.465 -16.98,-3.396 -16.95,-0.806 -32.23,6.836"
   style="fill:none;stroke:#2b3f72;stroke-width:4.7px"
   id="path305" />
                </g>
                <g
   transform="translate(-17.2845,518.895)"
   id="g307">
                    <path
   d="m 1639.37,589.37 c 5.44,2.807 17.57,-30.84 12.4,-40.381 -2.82,-5.211 -2.32,1.187 -9.22,19.395 -1.63,-12.066 -8.19,-20.84 -8.93,-20.656 -1.47,0.367 1.94,1.693 -4.03,18.474 0.05,-1.571 0.65,-18.541 -10.34,-16.709 -0.5,0.083 2.72,18.071 5.8,24.455 3.36,6.983 13.74,16.001 14.32,15.422 z"
   style="fill:#2b3f72;stroke:#2b3f72;stroke-width:4.7px"
   id="path306" />
                </g>
                <g
   transform="rotate(90,1369.608,925.772)"
   id="g308">
                    <path
   d="m 1636.76,589.536 c 5.43,2.807 20.18,-31.006 15.01,-40.547 -2.82,-5.211 -2.32,1.187 -9.22,19.395 -1.63,-12.066 -8.19,-20.84 -8.93,-20.656 -1.47,0.367 1.94,1.693 -4.03,18.474 0.05,-1.571 0.65,-18.541 -10.34,-16.709 -0.5,0.083 2.72,18.071 5.8,24.455 3.36,6.983 11.13,16.166 11.71,15.588 z"
   style="fill:#2b3f72;stroke:#2b3f72;stroke-width:4.7px"
   id="path307" />
                </g>
                <g
   transform="rotate(180,1629.1,932.83)"
   id="g309">
                    <path
   d="m 1636.25,590.019 c 5.44,2.806 20.69,-31.489 15.52,-41.03 -2.82,-5.211 -2.32,1.187 -9.22,19.395 -1.63,-12.066 -8.19,-20.84 -8.93,-20.656 -1.47,0.367 1.94,1.693 -4.03,18.474 0.05,-1.571 0.65,-18.541 -10.34,-16.709 -0.5,0.083 2.72,18.071 5.8,24.455 3.36,6.983 10.62,16.649 11.2,16.071 z"
   style="fill:#2b3f72;stroke:#2b3f72;stroke-width:4.7px"
   id="path308" />
                </g>
                <g
   transform="rotate(-90,1888.8605,940.1695)"
   id="g310">
                    <path
   d="m 1639.37,589.37 c 5.44,2.807 17.57,-30.84 12.4,-40.381 -2.82,-5.211 -2.32,1.187 -9.22,19.395 -1.63,-12.066 -8.19,-20.84 -8.93,-20.656 -1.47,0.367 1.94,1.693 -4.03,18.474 0.05,-1.571 0.65,-18.541 -10.34,-16.709 -0.5,0.083 2.72,18.071 5.8,24.455 3.36,6.983 13.74,16.001 14.32,15.422 z"
   style="fill:#2b3f72;stroke:#2b3f72;stroke-width:4.7px"
   id="path309" />
                </g>
                <g
   transform="translate(-17.2845,518.895)"
   id="g311">
                    <path
   d="m 1628.84,605.049 c 0.09,0.035 0.34,0.274 0.36,0.283"
   style="fill:none;stroke:#2b3f72;stroke-width:4.7px"
   id="path310" />
                </g>
                <g
   transform="translate(-17.2845,518.895)"
   id="g312">
                    <path
   d="m 1625.38,616.302 0.22,-0.006"
   style="fill:none;stroke:#2b3f72;stroke-width:4.7px"
   id="path311" />
                </g>
                <g
   transform="translate(-17.2845,518.895)"
   id="g313">
                    <path
   d="m 1621.08,626.461 0.45,0.017"
   style="fill:none;stroke:#2b3f72;stroke-width:4.7px"
   id="path312" />
                </g>
                <g
   transform="translate(-17.2845,518.895)"
   id="g314">
                    <path
   d="m 1614.48,636.413 c 0.11,0.03 0.21,0.06 0.31,0.089"
   style="fill:none;stroke:#2b3f72;stroke-width:4.7px"
   id="path313" />
                </g>
                <g
   transform="translate(-17.2845,518.895)"
   id="g315">
                    <path
   d="m 1606.44,645.209 0.21,0.065"
   style="fill:none;stroke:#2b3f72;stroke-width:4.7px"
   id="path314" />
                </g>
                <g
   transform="translate(-17.2845,518.895)"
   id="g316">
                    <path
   d="m 1594.36,652.829 c 0.13,-0.065 0.26,-0.129 0.38,-0.193"
   style="fill:none;stroke:#2b3f72;stroke-width:4.7px"
   id="path315" />
                </g>
                <g
   transform="translate(-17.2845,518.895)"
   id="g317">
                    <path
   d="m 1580.71,657.763 c 0.07,0.03 0.04,0.147 0.09,0.198"
   style="fill:none;stroke:#2b3f72;stroke-width:4.7px"
   id="path316" />
                </g>
                <g
   transform="translate(-17.2845,518.895)"
   id="g318">
                    <path
   d="m 1568.63,662.306 -0.04,0.041"
   style="fill:none;stroke:#2b3f72;stroke-width:4.7px"
   id="path317" />
                </g>
                <g
   transform="translate(-17.2845,518.895)"
   id="g319">
                    <path
   d="M 1559.66,664.722"
   style="fill:none;stroke:#2b3f72;stroke-width:4.7px"
   id="path318" />
                </g>
                <g
   transform="translate(-17.2845,518.895)"
   id="g320">
                    <path
   d="m 1561.08,678.06 -0.01,-0.206"
   style="fill:none;stroke:#2b3f72;stroke-width:4.7px"
   id="path319" />
                </g>
                <g
   transform="translate(-17.2845,518.895)"
   id="g321">
                    <path
   d="m 1572.79,681.22 0.02,0.08"
   style="fill:none;stroke:#2b3f72;stroke-width:4.7px"
   id="path320" />
                </g>
                <g
   transform="translate(-17.2845,518.895)"
   id="g322">
                    <path
   d="m 1583.13,685.948 c 0.12,-0.072 0.21,0.019 0.34,-0.106"
   style="fill:none;stroke:#2b3f72;stroke-width:4.7px"
   id="path321" />
                </g>
                <g
   transform="translate(-17.2845,518.895)"
   id="g323">
                    <path
   d="m 1593.8,692.246 0.32,0.018"
   style="fill:none;stroke:#2b3f72;stroke-width:4.7px"
   id="path322" />
                </g>
                <g
   transform="translate(-17.2845,518.895)"
   id="g324">
                    <path
   d="m 1602.61,697.883 c 0.09,-0.046 0.19,-0.091 0.28,-0.137"
   style="fill:none;stroke:#2b3f72;stroke-width:4.7px"
   id="path323" />
                </g>
                <g
   transform="translate(-17.2845,518.895)"
   id="g325">
                    <path
   d="m 1611.88,706.328 0.25,0.033"
   style="fill:none;stroke:#2b3f72;stroke-width:4.7px"
   id="path324" />
                </g>
                <g
   transform="translate(-17.2845,518.895)"
   id="g326">
                    <path
   d="m 1617.58,715.784 0.34,-0.025"
   style="fill:none;stroke:#2b3f72;stroke-width:4.7px"
   id="path325" />
                </g>
                <g
   transform="translate(-17.2845,518.895)"
   id="g327">
                    <path
   d="m 1623.21,727.653 0.35,-0.627"
   style="fill:none;stroke:#2b3f72;stroke-width:4.7px"
   id="path326" />
                </g>
                <g
   transform="translate(-17.2845,518.895)"
   id="g328">
                    <path
   d="m 1627.54,736.493 c 0.12,-0.084 0.25,-0.168 0.37,-0.253"
   style="fill:none;stroke:#2b3f72;stroke-width:4.7px"
   id="path327" />
                </g>
                <g
   transform="translate(-17.2845,518.895)"
   id="g329">
                    <path
   d="m 1631.15,746.919 0.09,0.071"
   style="fill:none;stroke:#2b3f72;stroke-width:4.7px"
   id="path328" />
                </g>
                <g
   transform="translate(-17.2845,518.895)"
   id="g330">
                    <path
   d="m 1647.01,749.214 0.61,0.08"
   style="fill:none;stroke:#2b3f72;stroke-width:4.7px"
   id="path329" />
                </g>
                <g
   transform="translate(-17.2845,518.895)"
   id="g331">
                    <path
   d="m 1650.96,737.641 -0.02,-0.121"
   style="fill:none;stroke:#2b3f72;stroke-width:4.7px"
   id="path330" />
                </g>
                <g
   transform="translate(-17.2845,518.895)"
   id="g332">
                    <path
   d="M 1655.56,725.292"
   style="fill:none;stroke:#2b3f72;stroke-width:4.7px"
   id="path331" />
                </g>
                <g
   transform="translate(-17.2845,518.895)"
   id="g333">
                    <path
   d="m 1660.76,712.808 -0.09,-0.115"
   style="fill:none;stroke:#2b3f72;stroke-width:4.7px"
   id="path332" />
                </g>
                <g
   transform="translate(-17.2845,518.895)"
   id="g334">
                    <path
   d="m 1668.13,702.146 c 0.25,-0.231 0.25,0.019 0.47,-0.203"
   style="fill:none;stroke:#2b3f72;stroke-width:4.7px"
   id="path333" />
                </g>
                <g
   transform="translate(-17.2845,518.895)"
   id="g335">
                    <path
   d="m 1679.41,693.812 0.46,-0.06"
   style="fill:none;stroke:#2b3f72;stroke-width:4.7px"
   id="path334" />
                </g>
                <g
   transform="translate(-17.2845,518.895)"
   id="g336">
                    <path
   d="m 1694.62,687.199 0.09,-0.102"
   style="fill:none;stroke:#2b3f72;stroke-width:4.7px"
   id="path335" />
                </g>
                <g
   transform="translate(-17.2845,518.895)"
   id="g337">
                    <path
   d="m 1707.97,683.42 c -0.1,-0.203 -0.12,-0.162 -0.2,-0.162"
   style="fill:none;stroke:#2b3f72;stroke-width:4.7px"
   id="path336" />
                </g>
                <g
   transform="translate(-17.2845,518.895)"
   id="g338">
                    <path
   d="m 1719.02,680.923 c 0.09,-0.075 0.18,-0.15 0.26,-0.225"
   style="fill:none;stroke:#2b3f72;stroke-width:4.7px"
   id="path337" />
                </g>
                <g
   transform="translate(-17.2845,518.895)"
   id="g339">
                    <path
   d="m 1718.79,667.427 0.24,-0.038"
   style="fill:none;stroke:#2b3f72;stroke-width:4.7px"
   id="path338" />
                </g>
                <g
   transform="translate(-17.2845,518.895)"
   id="g340">
                    <path
   d="m 1701.79,661.59 0.6,-0.088"
   style="fill:none;stroke:#2b3f72;stroke-width:4.7px"
   id="path339" />
                </g>
                <g
   transform="translate(-17.2845,518.895)"
   id="g341">
                    <path
   d="m 1684.65,653.289 0.34,0.022"
   style="fill:none;stroke:#2b3f72;stroke-width:4.7px"
   id="path340" />
                </g>
                <g
   transform="translate(-17.2845,518.895)"
   id="g342">
                    <path
   d="m 1673.8,647.52 c 0.06,-0.032 0.12,-0.064 0.18,-0.096"
   style="fill:none;stroke:#2b3f72;stroke-width:4.7px"
   id="path341" />
                </g>
                <g
   transform="translate(-17.2845,518.895)"
   id="g343">
                    <path
   d="m 1664.11,638.579 c 0.13,-0.038 0.27,-0.075 0.4,-0.113"
   style="fill:none;stroke:#2b3f72;stroke-width:4.7px"
   id="path342" />
                </g>
                <g
   transform="translate(-17.2845,518.895)"
   id="g344">
                    <path
   d="m 1657.79,626.702 c 0.1,-0.174 0.21,-0.348 0.32,-0.522"
   style="fill:none;stroke:#2b3f72;stroke-width:4.7px"
   id="path343" />
                </g>
                <g
   transform="translate(-17.2845,518.895)"
   id="g345">
                    <path
   d="m 1653.36,614.218 c -0.04,0.063 -0.08,0.126 -0.11,0.189"
   style="fill:none;stroke:#2b3f72;stroke-width:4.7px"
   id="path344" />
                </g>
                <g
   transform="translate(-17.2845,518.895)"
   id="g346">
                    <path
   d="m 1648.56,603.826 c 0.08,-0.17 0.31,-0.627 0.34,-0.681"
   style="fill:none;stroke:#2b3f72;stroke-width:4.7px"
   id="path345" />
                </g>
                <g
   transform="translate(-17.2845,518.895)"
   id="g347">
                    <path
   d="m 1645.01,595.425 0.82,0.041"
   style="fill:none;stroke:#2b3f72;stroke-width:4.7px"
   id="path346" />
                </g>
                <g
   transform="translate(-17.2845,518.895)"
   id="g348">
                    <path
   d="m 1460.31,451.585 c -36,-5.143 -37.74,-0.887 -40.13,1.198 -8.24,7.214 -3.25,41.683 -1.06,50.062 6.46,-10.305 5.02,-10.687 8.52,-22.116 13.09,14.453 13.84,14.855 15.38,15.688 4.83,2.601 -0.03,-9.039 -6.17,-19.684 10.62,2 10.36,1.918 21.01,4.256 -0.23,-4.512 -2.34,-9.676 -15.97,-16.755 1.76,-0.441 23.52,-3.697 24.59,-6.887 0.45,-1.358 -1.59,-5.762 -6.17,-5.762"
   style="fill:#2b3f72"
   id="path347" />
                </g>
                <g
   transform="matrix(1,0,0,-1,-12.9666,1863.75)"
   id="g349">
                    <path
   d="m 1460.31,451.585 c -36,-5.143 -37.74,-0.887 -40.13,1.198 -8.24,7.214 -3.25,41.683 -1.06,50.062 6.46,-10.305 5.02,-10.687 8.52,-22.116 13.09,14.453 13.84,14.855 15.38,15.688 4.83,2.601 -0.03,-9.039 -6.17,-19.684 10.62,2 10.36,1.918 21.01,4.256 -0.23,-4.512 -2.34,-9.676 -15.97,-16.755 1.76,-0.441 23.52,-3.697 24.59,-6.887 0.45,-1.358 -1.59,-5.762 -6.17,-5.762"
   style="fill:#2b3f72"
   id="path348" />
                </g>
                <g
   transform="matrix(1,0,0,-1,-12.9666,1863.75)"
   id="g350">
                    <path
   d="m 1417.64,495.353 c 0.52,3.227 1.05,5.856 1.48,7.492 6.46,-10.305 5.02,-10.687 8.52,-22.116 0.88,0.98 1.72,1.895 2.49,2.75 0.14,-4.703 0.28,-9.522 0.45,-14.462 3.03,-2.485 7.79,-3.352 13.45,-3.631 -0.68,-0.378 -1.39,-0.762 -2.14,-1.152 1.76,-0.441 23.52,-3.697 24.59,-6.887 0.12,-0.366 0.06,-0.952 -0.18,-1.614 -18.57,-1.676 -41.96,-1.013 -45.6,6.261 -3.46,6.929 -3.77,10.794 -3.06,33.359 z"
   style="fill:#7486b4"
   id="path349" />
                </g>
                <g
   transform="rotate(180,1629.25,929.65)"
   id="g351">
                    <path
   d="m 1460.31,451.585 c -36,-5.143 -37.74,-0.887 -40.13,1.198 -8.24,7.214 -3.25,41.683 -1.06,50.062 6.46,-10.305 5.02,-10.687 8.52,-22.116 13.09,14.453 13.84,14.855 15.38,15.688 4.83,2.601 -0.03,-9.039 -6.17,-19.684 10.62,2 10.36,1.918 21.01,4.256 -0.23,-4.512 -2.34,-9.676 -15.97,-16.755 1.76,-0.441 23.52,-3.697 24.59,-6.887 0.45,-1.358 -1.59,-5.762 -6.17,-5.762"
   style="fill:#2b3f72"
   id="path350" />
                </g>
                <g
   transform="matrix(-1,0,0,1,3254.18,523.338)"
   id="g352">
                    <path
   d="m 1460.31,451.585 c -36,-5.143 -37.74,-0.887 -40.13,1.198 -8.24,7.214 -3.25,41.683 -1.06,50.062 6.46,-10.305 5.02,-10.687 8.52,-22.116 13.09,14.453 13.84,14.855 15.38,15.688 4.83,2.601 -0.03,-9.039 -6.17,-19.684 10.62,2 10.36,1.918 21.01,4.256 -0.23,-4.512 -2.34,-9.676 -15.97,-16.755 1.76,-0.441 23.52,-3.697 24.59,-6.887 0.45,-1.358 -1.59,-5.762 -6.17,-5.762"
   style="fill:#2b3f72"
   id="path351" />
                </g>
                <g
   transform="translate(50.4638,363.26)"
   id="g353">
                    <path
   d="m 1776.13,615.335 c 2.84,-1.208 6.19,-2.955 7.64,-0.089 0.41,0.824 3.26,143.02 -1.03,225.955 -1.32,-10.71 1.93,-10.822 -8.83,-134.607 -1.99,-22.837 -7.74,-87.012 2.22,-91.259 z"
   style="fill:#f0ede0"
   id="path352" />
                </g>
                <g
   transform="matrix(1.17645,0,0,1.17645,-181.78,256.525)"
   id="g354">
                    <path
   d="m 1707.08,712.733 c -0.54,-6.6 -1.15,-13.714 -1.81,-21.388 -0.21,-2.412 -0.47,-5.367 -0.75,-8.699 3.32,0.998 6.72,1.8 10.2,2.394 0.04,9.267 0.05,19.003 0.03,28.93 -2.59,-0.327 -5.14,-0.741 -7.67,-1.237 z"
   style="fill:#d1ac0b"
   id="path353" />
                </g>
                <g
   transform="matrix(-1,0,0,1,3254.18,523.338)"
   id="g355">
                    <path
   d="m 1433.27,486.909 c 0.03,-16.385 -1.31,-29.788 -5.69,-31.651 -2.83,-1.209 -6.18,-2.956 -7.63,-0.09 -0.15,0.3 -0.62,19.221 -0.96,47.172 0.05,0.177 0.09,0.346 0.13,0.505 6.46,-10.305 5.02,-10.687 8.52,-22.116 2.2,2.436 4.06,4.473 5.63,6.18 z"
   style="fill:#7486b4"
   id="path354" />
                </g>
                <g
   transform="translate(57.8682,362.466)"
   id="g356">
                    <path
   d="m 1349.04,925.174 c 3.04,0.294 6.06,0.69 9.04,1.183 0,10.347 0.03,21.745 0.15,34.321 -3.26,-0.735 -6.58,-1.313 -9.95,-1.724 0.26,-9.815 0.52,-21.001 0.76,-33.78 z"
   style="fill:#d1ac0b"
   id="path355" />
                </g>
            </g>
            <g
   transform="matrix(0.44368,0,0,0.44368,1682.1,1224.49)"
   id="g419">
                <g
   transform="matrix(1.17645,0,0,1.17645,-181.78,256.525)"
   id="g358">
                    <path
   d="m 1728.31,607.561 v 375.69 c 0,3.94 -3.2,7.139 -7.14,7.139 h -375.69 c -3.94,0 -7.14,-3.199 -7.14,-7.139 v -375.69 c 0,-3.94 3.2,-7.138 7.14,-7.138 h 375.69 c 3.94,0 7.14,3.198 7.14,7.138 z"
   style="fill:#ffffff"
   id="path357" />
                </g>
                <g
   transform="translate(-17.2845,518.895)"
   id="g359">
                    <path
   d="m 1630.82,596.026 0.26,-0.092"
   style="fill:none;stroke:#2b3f72;stroke-width:4.7px"
   id="path358" />
                </g>
                <g
   transform="translate(57.8682,362.466)"
   id="g360">
                    <path
   d="m 1350.02,836.67 c -0.84,187.03 -7.4,188.12 -0.15,202.62 5.6,11.2 58.09,6.72 67.59,2.16 -18.08,-10.68 -47.56,-0.87 -57.72,-9.19 -4.32,-131.174 2.39,-177.461 -7.36,-199.815 z"
   style="fill:#f0ede0"
   id="path359" />
                </g>
                <g
   transform="matrix(1.17645,0,0,1.17645,-181.78,256.525)"
   id="g361">
                    <path
   d="m 1730.08,607.561 v 375.69 c 0,4.917 -4,8.91 -8.91,8.91 h -375.69 c -4.92,0 -8.91,-3.993 -8.91,-8.91 v -375.69 c 0,-4.917 3.99,-8.909 8.91,-8.909 h 375.69 c 4.91,0 8.91,3.992 8.91,8.909 z m -1.77,0 c 0,-3.94 -3.2,-7.138 -7.14,-7.138 h -375.69 c -3.94,0 -7.14,3.198 -7.14,7.138 v 375.69 c 0,3.94 3.2,7.139 7.14,7.139 h 375.69 c 3.94,0 7.14,-3.199 7.14,-7.139 z"
   style="fill:#3e3300"
   id="path360" />
                </g>
                <g
   transform="matrix(1.17645,0,0,1.17645,-181.78,256.525)"
   id="g362">
                    <path
   d="m 1455.3,600.423 c 0,63.171 -51.28,114.458 -114.46,114.458 -0.83,0 -1.67,-0.009 -2.5,-0.027 v -28.623 c 0.83,0.024 1.67,0.036 2.5,0.036 47.38,0 85.85,-38.466 85.85,-85.844 z m 273.01,114.455 c -62.74,-0.507 -113.52,-51.598 -113.52,-114.455 h 28.61 c 0,47.064 37.96,85.333 84.91,85.839 z M 1614.79,990.39 c 0,-62.857 50.78,-113.948 113.52,-114.455 v 28.616 c -46.95,0.506 -84.91,38.775 -84.91,85.839 z M 1338.34,875.935 c 0.31,-0.003 0.63,-0.004 0.94,-0.004 63.17,0 114.46,51.287 114.46,114.459 h -28.62 c 0,-47.379 -38.46,-85.844 -85.84,-85.844 -0.31,0 -0.63,10e-4 -0.94,0.005 z"
   style="fill:#ffd000"
   id="path361" />
                </g>
                <g
   transform="translate(-32.2359,427.562)"
   id="g363">
                    <path
   d="m 1555.56,863.477 c -54.51,0 -98.76,-44.254 -98.76,-98.763 0,-54.509 44.25,-98.763 98.76,-98.763 0,-54.509 44.26,-98.763 98.76,-98.763 54.51,0 98.77,44.254 98.77,98.763 54.51,0 98.76,44.254 98.76,98.763 0,54.509 -44.25,98.763 -98.76,98.763 0,54.509 -44.26,98.764 -98.77,98.764 -54.5,0 -98.76,-44.255 -98.76,-98.764 z m 31.91,-31.905 c -4.63,9.664 -7.22,20.485 -7.22,31.905 0,40.882 33.19,74.073 74.07,74.073 40.89,0 74.08,-33.191 74.08,-74.073 0,-11.42 -2.59,-22.241 -7.22,-31.905 9.67,4.624 20.49,7.215 31.91,7.215 40.88,0 74.07,-33.191 74.07,-74.073 0,-40.882 -33.19,-74.072 -74.07,-74.072 -11.42,0 -22.24,2.59 -31.91,7.215 4.63,-9.665 7.22,-20.485 7.22,-31.906 0,-40.882 -33.19,-74.073 -74.08,-74.073 -40.88,0 -74.07,33.191 -74.07,74.073 0,11.421 2.59,22.241 7.22,31.906 -9.67,-4.625 -20.49,-7.215 -31.91,-7.215 -40.88,0 -74.07,33.19 -74.07,74.072 0,40.882 33.19,74.073 74.07,74.073 11.42,0 22.24,-2.591 31.91,-7.215 z"
   style="fill:#2b3f72"
   id="path362" />
                </g>
                <g
   transform="matrix(1.31251,-1.31251,1.31251,1.31251,-1552.91,2359.89)"
   id="g364">
                    <path
   d="m 1623.31,731.707 c 9.67,4.625 19.59,13.452 31.01,13.452 11.43,0 22.25,-7.726 31.91,-12.351 -4.62,9.665 -12.35,20.485 -12.35,31.906 0,11.421 7.73,22.242 12.35,31.906 -9.66,-4.625 -20.48,-12.351 -31.91,-12.351 -11.42,0 -22.24,7.726 -31.9,12.351 4.62,-9.664 12.35,-20.485 12.35,-31.906 0,-11.421 -6.84,-23.342 -11.46,-33.007 z"
   style="fill:#ffd000"
   id="path363" />
                </g>
                <g
   transform="translate(-17.2845,518.895)"
   id="g365">
                    <path
   d="m 1694.59,605.816 c 17.55,-30.765 5.11,-121.501 -85.73,-88.035 -32.15,11.845 -37.25,74.174 -16.6,81.058"
   style="fill:none;stroke:#2b3f72;stroke-width:4.7px"
   id="path364" />
                </g>
                <g
   transform="translate(-17.2845,518.895)"
   id="g366">
                    <path
   d="m 1563,617.917 c -11.24,-9.215 -99.33,-13.597 -78.65,78.095 10.63,47.134 74.77,48.017 84.47,25.392"
   style="fill:none;stroke:#2b3f72;stroke-width:4.7px"
   id="path365" />
                </g>
                <g
   transform="translate(-17.2845,518.895)"
   id="g367">
                    <path
   d="m 1583.24,746.85 c 0.99,6.039 -16.51,39.362 19.76,75.633 3.22,3.213 41.57,20.843 71.3,2.441 21.3,-13.188 34.15,-57.57 21.97,-80.57"
   style="fill:none;stroke:#2b3f72;stroke-width:4.7px"
   id="path366" />
                </g>
                <g
   transform="translate(-17.2845,518.895)"
   id="g368">
                    <path
   d="m 1714.32,730.95 c 4.17,5.006 24.65,7.579 35.17,5.103 62.98,-14.819 73.29,-114.639 6.35,-122.076 -0.55,-0.062 -0.42,-0.183 -6.83,-1.465 -16.98,-3.396 -16.95,-0.806 -32.23,6.836"
   style="fill:none;stroke:#2b3f72;stroke-width:4.7px"
   id="path367" />
                </g>
                <g
   transform="translate(-17.2845,518.895)"
   id="g369">
                    <path
   d="m 1639.37,589.37 c 5.44,2.807 17.57,-30.84 12.4,-40.381 -2.82,-5.211 -2.32,1.187 -9.22,19.395 -1.63,-12.066 -8.19,-20.84 -8.93,-20.656 -1.47,0.367 1.94,1.693 -4.03,18.474 0.05,-1.571 0.65,-18.541 -10.34,-16.709 -0.5,0.083 2.72,18.071 5.8,24.455 3.36,6.983 13.74,16.001 14.32,15.422 z"
   style="fill:#2b3f72;stroke:#2b3f72;stroke-width:4.7px"
   id="path368" />
                </g>
                <g
   transform="rotate(90,1369.608,925.772)"
   id="g370">
                    <path
   d="m 1636.76,589.536 c 5.43,2.807 20.18,-31.006 15.01,-40.547 -2.82,-5.211 -2.32,1.187 -9.22,19.395 -1.63,-12.066 -8.19,-20.84 -8.93,-20.656 -1.47,0.367 1.94,1.693 -4.03,18.474 0.05,-1.571 0.65,-18.541 -10.34,-16.709 -0.5,0.083 2.72,18.071 5.8,24.455 3.36,6.983 11.13,16.166 11.71,15.588 z"
   style="fill:#2b3f72;stroke:#2b3f72;stroke-width:4.7px"
   id="path369" />
                </g>
                <g
   transform="rotate(180,1629.1,932.83)"
   id="g371">
                    <path
   d="m 1636.25,590.019 c 5.44,2.806 20.69,-31.489 15.52,-41.03 -2.82,-5.211 -2.32,1.187 -9.22,19.395 -1.63,-12.066 -8.19,-20.84 -8.93,-20.656 -1.47,0.367 1.94,1.693 -4.03,18.474 0.05,-1.571 0.65,-18.541 -10.34,-16.709 -0.5,0.083 2.72,18.071 5.8,24.455 3.36,6.983 10.62,16.649 11.2,16.071 z"
   style="fill:#2b3f72;stroke:#2b3f72;stroke-width:4.7px"
   id="path370" />
                </g>
                <g
   transform="rotate(-90,1888.8605,940.1695)"
   id="g372">
                    <path
   d="m 1639.37,589.37 c 5.44,2.807 17.57,-30.84 12.4,-40.381 -2.82,-5.211 -2.32,1.187 -9.22,19.395 -1.63,-12.066 -8.19,-20.84 -8.93,-20.656 -1.47,0.367 1.94,1.693 -4.03,18.474 0.05,-1.571 0.65,-18.541 -10.34,-16.709 -0.5,0.083 2.72,18.071 5.8,24.455 3.36,6.983 13.74,16.001 14.32,15.422 z"
   style="fill:#2b3f72;stroke:#2b3f72;stroke-width:4.7px"
   id="path371" />
                </g>
                <g
   transform="translate(-17.2845,518.895)"
   id="g373">
                    <path
   d="m 1628.84,605.049 c 0.09,0.035 0.34,0.274 0.36,0.283"
   style="fill:none;stroke:#2b3f72;stroke-width:4.7px"
   id="path372" />
                </g>
                <g
   transform="translate(-17.2845,518.895)"
   id="g374">
                    <path
   d="m 1625.38,616.302 0.22,-0.006"
   style="fill:none;stroke:#2b3f72;stroke-width:4.7px"
   id="path373" />
                </g>
                <g
   transform="translate(-17.2845,518.895)"
   id="g375">
                    <path
   d="m 1621.08,626.461 0.45,0.017"
   style="fill:none;stroke:#2b3f72;stroke-width:4.7px"
   id="path374" />
                </g>
                <g
   transform="translate(-17.2845,518.895)"
   id="g376">
                    <path
   d="m 1614.48,636.413 c 0.11,0.03 0.21,0.06 0.31,0.089"
   style="fill:none;stroke:#2b3f72;stroke-width:4.7px"
   id="path375" />
                </g>
                <g
   transform="translate(-17.2845,518.895)"
   id="g377">
                    <path
   d="m 1606.44,645.209 0.21,0.065"
   style="fill:none;stroke:#2b3f72;stroke-width:4.7px"
   id="path376" />
                </g>
                <g
   transform="translate(-17.2845,518.895)"
   id="g378">
                    <path
   d="m 1594.36,652.829 c 0.13,-0.065 0.26,-0.129 0.38,-0.193"
   style="fill:none;stroke:#2b3f72;stroke-width:4.7px"
   id="path377" />
                </g>
                <g
   transform="translate(-17.2845,518.895)"
   id="g379">
                    <path
   d="m 1580.71,657.763 c 0.07,0.03 0.04,0.147 0.09,0.198"
   style="fill:none;stroke:#2b3f72;stroke-width:4.7px"
   id="path378" />
                </g>
                <g
   transform="translate(-17.2845,518.895)"
   id="g380">
                    <path
   d="m 1568.63,662.306 -0.04,0.041"
   style="fill:none;stroke:#2b3f72;stroke-width:4.7px"
   id="path379" />
                </g>
                <g
   transform="translate(-17.2845,518.895)"
   id="g381">
                    <path
   d="M 1559.66,664.722"
   style="fill:none;stroke:#2b3f72;stroke-width:4.7px"
   id="path380" />
                </g>
                <g
   transform="translate(-17.2845,518.895)"
   id="g382">
                    <path
   d="m 1561.08,678.06 -0.01,-0.206"
   style="fill:none;stroke:#2b3f72;stroke-width:4.7px"
   id="path381" />
                </g>
                <g
   transform="translate(-17.2845,518.895)"
   id="g383">
                    <path
   d="m 1572.79,681.22 0.02,0.08"
   style="fill:none;stroke:#2b3f72;stroke-width:4.7px"
   id="path382" />
                </g>
                <g
   transform="translate(-17.2845,518.895)"
   id="g384">
                    <path
   d="m 1583.13,685.948 c 0.12,-0.072 0.21,0.019 0.34,-0.106"
   style="fill:none;stroke:#2b3f72;stroke-width:4.7px"
   id="path383" />
                </g>
                <g
   transform="translate(-17.2845,518.895)"
   id="g385">
                    <path
   d="m 1593.8,692.246 0.32,0.018"
   style="fill:none;stroke:#2b3f72;stroke-width:4.7px"
   id="path384" />
                </g>
                <g
   transform="translate(-17.2845,518.895)"
   id="g386">
                    <path
   d="m 1602.61,697.883 c 0.09,-0.046 0.19,-0.091 0.28,-0.137"
   style="fill:none;stroke:#2b3f72;stroke-width:4.7px"
   id="path385" />
                </g>
                <g
   transform="translate(-17.2845,518.895)"
   id="g387">
                    <path
   d="m 1611.88,706.328 0.25,0.033"
   style="fill:none;stroke:#2b3f72;stroke-width:4.7px"
   id="path386" />
                </g>
                <g
   transform="translate(-17.2845,518.895)"
   id="g388">
                    <path
   d="m 1617.58,715.784 0.34,-0.025"
   style="fill:none;stroke:#2b3f72;stroke-width:4.7px"
   id="path387" />
                </g>
                <g
   transform="translate(-17.2845,518.895)"
   id="g389">
                    <path
   d="m 1623.21,727.653 0.35,-0.627"
   style="fill:none;stroke:#2b3f72;stroke-width:4.7px"
   id="path388" />
                </g>
                <g
   transform="translate(-17.2845,518.895)"
   id="g390">
                    <path
   d="m 1627.54,736.493 c 0.12,-0.084 0.25,-0.168 0.37,-0.253"
   style="fill:none;stroke:#2b3f72;stroke-width:4.7px"
   id="path389" />
                </g>
                <g
   transform="translate(-17.2845,518.895)"
   id="g391">
                    <path
   d="m 1631.15,746.919 0.09,0.071"
   style="fill:none;stroke:#2b3f72;stroke-width:4.7px"
   id="path390" />
                </g>
                <g
   transform="translate(-17.2845,518.895)"
   id="g392">
                    <path
   d="m 1647.01,749.214 0.61,0.08"
   style="fill:none;stroke:#2b3f72;stroke-width:4.7px"
   id="path391" />
                </g>
                <g
   transform="translate(-17.2845,518.895)"
   id="g393">
                    <path
   d="m 1650.96,737.641 -0.02,-0.121"
   style="fill:none;stroke:#2b3f72;stroke-width:4.7px"
   id="path392" />
                </g>
                <g
   transform="translate(-17.2845,518.895)"
   id="g394">
                    <path
   d="M 1655.56,725.292"
   style="fill:none;stroke:#2b3f72;stroke-width:4.7px"
   id="path393" />
                </g>
                <g
   transform="translate(-17.2845,518.895)"
   id="g395">
                    <path
   d="m 1660.76,712.808 -0.09,-0.115"
   style="fill:none;stroke:#2b3f72;stroke-width:4.7px"
   id="path394" />
                </g>
                <g
   transform="translate(-17.2845,518.895)"
   id="g396">
                    <path
   d="m 1668.13,702.146 c 0.25,-0.231 0.25,0.019 0.47,-0.203"
   style="fill:none;stroke:#2b3f72;stroke-width:4.7px"
   id="path395" />
                </g>
                <g
   transform="translate(-17.2845,518.895)"
   id="g397">
                    <path
   d="m 1679.41,693.812 0.46,-0.06"
   style="fill:none;stroke:#2b3f72;stroke-width:4.7px"
   id="path396" />
                </g>
                <g
   transform="translate(-17.2845,518.895)"
   id="g398">
                    <path
   d="m 1694.62,687.199 0.09,-0.102"
   style="fill:none;stroke:#2b3f72;stroke-width:4.7px"
   id="path397" />
                </g>
                <g
   transform="translate(-17.2845,518.895)"
   id="g399">
                    <path
   d="m 1707.97,683.42 c -0.1,-0.203 -0.12,-0.162 -0.2,-0.162"
   style="fill:none;stroke:#2b3f72;stroke-width:4.7px"
   id="path398" />
                </g>
                <g
   transform="translate(-17.2845,518.895)"
   id="g400">
                    <path
   d="m 1719.02,680.923 c 0.09,-0.075 0.18,-0.15 0.26,-0.225"
   style="fill:none;stroke:#2b3f72;stroke-width:4.7px"
   id="path399" />
                </g>
                <g
   transform="translate(-17.2845,518.895)"
   id="g401">
                    <path
   d="m 1718.79,667.427 0.24,-0.038"
   style="fill:none;stroke:#2b3f72;stroke-width:4.7px"
   id="path400" />
                </g>
                <g
   transform="translate(-17.2845,518.895)"
   id="g402">
                    <path
   d="m 1701.79,661.59 0.6,-0.088"
   style="fill:none;stroke:#2b3f72;stroke-width:4.7px"
   id="path401" />
                </g>
                <g
   transform="translate(-17.2845,518.895)"
   id="g403">
                    <path
   d="m 1684.65,653.289 0.34,0.022"
   style="fill:none;stroke:#2b3f72;stroke-width:4.7px"
   id="path402" />
                </g>
                <g
   transform="translate(-17.2845,518.895)"
   id="g404">
                    <path
   d="m 1673.8,647.52 c 0.06,-0.032 0.12,-0.064 0.18,-0.096"
   style="fill:none;stroke:#2b3f72;stroke-width:4.7px"
   id="path403" />
                </g>
                <g
   transform="translate(-17.2845,518.895)"
   id="g405">
                    <path
   d="m 1664.11,638.579 c 0.13,-0.038 0.27,-0.075 0.4,-0.113"
   style="fill:none;stroke:#2b3f72;stroke-width:4.7px"
   id="path404" />
                </g>
                <g
   transform="translate(-17.2845,518.895)"
   id="g406">
                    <path
   d="m 1657.79,626.702 c 0.1,-0.174 0.21,-0.348 0.32,-0.522"
   style="fill:none;stroke:#2b3f72;stroke-width:4.7px"
   id="path405" />
                </g>
                <g
   transform="translate(-17.2845,518.895)"
   id="g407">
                    <path
   d="m 1653.36,614.218 c -0.04,0.063 -0.08,0.126 -0.11,0.189"
   style="fill:none;stroke:#2b3f72;stroke-width:4.7px"
   id="path406" />
                </g>
                <g
   transform="translate(-17.2845,518.895)"
   id="g408">
                    <path
   d="m 1648.56,603.826 c 0.08,-0.17 0.31,-0.627 0.34,-0.681"
   style="fill:none;stroke:#2b3f72;stroke-width:4.7px"
   id="path407" />
                </g>
                <g
   transform="translate(-17.2845,518.895)"
   id="g409">
                    <path
   d="m 1645.01,595.425 0.82,0.041"
   style="fill:none;stroke:#2b3f72;stroke-width:4.7px"
   id="path408" />
                </g>
                <g
   transform="translate(-17.2845,518.895)"
   id="g410">
                    <path
   d="m 1460.31,451.585 c -36,-5.143 -37.74,-0.887 -40.13,1.198 -8.24,7.214 -3.25,41.683 -1.06,50.062 6.46,-10.305 5.02,-10.687 8.52,-22.116 13.09,14.453 13.84,14.855 15.38,15.688 4.83,2.601 -0.03,-9.039 -6.17,-19.684 10.62,2 10.36,1.918 21.01,4.256 -0.23,-4.512 -2.34,-9.676 -15.97,-16.755 1.76,-0.441 23.52,-3.697 24.59,-6.887 0.45,-1.358 -1.59,-5.762 -6.17,-5.762"
   style="fill:#2b3f72"
   id="path409" />
                </g>
                <g
   transform="matrix(1,0,0,-1,-12.9666,1863.75)"
   id="g411">
                    <path
   d="m 1460.31,451.585 c -36,-5.143 -37.74,-0.887 -40.13,1.198 -8.24,7.214 -3.25,41.683 -1.06,50.062 6.46,-10.305 5.02,-10.687 8.52,-22.116 13.09,14.453 13.84,14.855 15.38,15.688 4.83,2.601 -0.03,-9.039 -6.17,-19.684 10.62,2 10.36,1.918 21.01,4.256 -0.23,-4.512 -2.34,-9.676 -15.97,-16.755 1.76,-0.441 23.52,-3.697 24.59,-6.887 0.45,-1.358 -1.59,-5.762 -6.17,-5.762"
   style="fill:#2b3f72"
   id="path410" />
                </g>
                <g
   transform="matrix(1,0,0,-1,-12.9666,1863.75)"
   id="g412">
                    <path
   d="m 1417.64,495.353 c 0.52,3.227 1.05,5.856 1.48,7.492 6.46,-10.305 5.02,-10.687 8.52,-22.116 0.88,0.98 1.72,1.895 2.49,2.75 0.14,-4.703 0.28,-9.522 0.45,-14.462 3.03,-2.485 7.79,-3.352 13.45,-3.631 -0.68,-0.378 -1.39,-0.762 -2.14,-1.152 1.76,-0.441 23.52,-3.697 24.59,-6.887 0.12,-0.366 0.06,-0.952 -0.18,-1.614 -18.57,-1.676 -41.96,-1.013 -45.6,6.261 -3.46,6.929 -3.77,10.794 -3.06,33.359 z"
   style="fill:#7486b4"
   id="path411" />
                </g>
                <g
   transform="rotate(180,1629.25,929.65)"
   id="g413">
                    <path
   d="m 1460.31,451.585 c -36,-5.143 -37.74,-0.887 -40.13,1.198 -8.24,7.214 -3.25,41.683 -1.06,50.062 6.46,-10.305 5.02,-10.687 8.52,-22.116 13.09,14.453 13.84,14.855 15.38,15.688 4.83,2.601 -0.03,-9.039 -6.17,-19.684 10.62,2 10.36,1.918 21.01,4.256 -0.23,-4.512 -2.34,-9.676 -15.97,-16.755 1.76,-0.441 23.52,-3.697 24.59,-6.887 0.45,-1.358 -1.59,-5.762 -6.17,-5.762"
   style="fill:#2b3f72"
   id="path412" />
                </g>
                <g
   transform="matrix(-1,0,0,1,3254.18,523.338)"
   id="g414">
                    <path
   d="m 1460.31,451.585 c -36,-5.143 -37.74,-0.887 -40.13,1.198 -8.24,7.214 -3.25,41.683 -1.06,50.062 6.46,-10.305 5.02,-10.687 8.52,-22.116 13.09,14.453 13.84,14.855 15.38,15.688 4.83,2.601 -0.03,-9.039 -6.17,-19.684 10.62,2 10.36,1.918 21.01,4.256 -0.23,-4.512 -2.34,-9.676 -15.97,-16.755 1.76,-0.441 23.52,-3.697 24.59,-6.887 0.45,-1.358 -1.59,-5.762 -6.17,-5.762"
   style="fill:#2b3f72"
   id="path413" />
                </g>
                <g
   transform="translate(50.4638,363.26)"
   id="g415">
                    <path
   d="m 1776.13,615.335 c 2.84,-1.208 6.19,-2.955 7.64,-0.089 0.41,0.824 3.26,143.02 -1.03,225.955 -1.32,-10.71 1.93,-10.822 -8.83,-134.607 -1.99,-22.837 -7.74,-87.012 2.22,-91.259 z"
   style="fill:#f0ede0"
   id="path414" />
                </g>
                <g
   transform="matrix(1.17645,0,0,1.17645,-181.78,256.525)"
   id="g416">
                    <path
   d="m 1707.08,712.733 c -0.54,-6.6 -1.15,-13.714 -1.81,-21.388 -0.21,-2.412 -0.47,-5.367 -0.75,-8.699 3.32,0.998 6.72,1.8 10.2,2.394 0.04,9.267 0.05,19.003 0.03,28.93 -2.59,-0.327 -5.14,-0.741 -7.67,-1.237 z"
   style="fill:#d1ac0b"
   id="path415" />
                </g>
                <g
   transform="matrix(-1,0,0,1,3254.18,523.338)"
   id="g417">
                    <path
   d="m 1433.27,486.909 c 0.03,-16.385 -1.31,-29.788 -5.69,-31.651 -2.83,-1.209 -6.18,-2.956 -7.63,-0.09 -0.15,0.3 -0.62,19.221 -0.96,47.172 0.05,0.177 0.09,0.346 0.13,0.505 6.46,-10.305 5.02,-10.687 8.52,-22.116 2.2,2.436 4.06,4.473 5.63,6.18 z"
   style="fill:#7486b4"
   id="path416" />
                </g>
                <g
   transform="translate(57.8682,362.466)"
   id="g418">
                    <path
   d="m 1349.04,925.174 c 3.04,0.294 6.06,0.69 9.04,1.183 0,10.347 0.03,21.745 0.15,34.321 -3.26,-0.735 -6.58,-1.313 -9.95,-1.724 0.26,-9.815 0.52,-21.001 0.76,-33.78 z"
   style="fill:#d1ac0b"
   id="path417" />
                </g>
            </g>
            <g
   transform="matrix(0.44368,0,0,0.44368,1646.18,1466.63)"
   id="g430">
                <g
   transform="matrix(1.17645,0,0,1.18713,444.976,-297.749)"
   id="g420">
                    <path
   d="m 1728.31,607.497 v 375.818 c 0,3.905 -3.2,7.075 -7.14,7.075 h -375.69 c -3.94,0 -7.14,-3.17 -7.14,-7.075 V 607.497 c 0,-3.904 3.2,-7.074 7.14,-7.074 h 375.69 c 3.94,0 7.14,3.17 7.14,7.074 z"
   style="fill:#2b3f72"
   id="path419" />
                </g>
                <g
   transform="matrix(1.17645,0,0,1.17645,444.976,-289.251)"
   id="g421">
                    <path
   d="m 1730.08,607.561 v 375.69 c 0,4.917 -4,8.91 -8.91,8.91 h -375.69 c -4.92,0 -8.91,-3.993 -8.91,-8.91 v -375.69 c 0,-4.917 3.99,-8.909 8.91,-8.909 h 375.69 c 4.91,0 8.91,3.992 8.91,8.909 z m -1.77,0 c 0,-3.94 -3.2,-7.138 -7.14,-7.138 h -375.69 c -3.94,0 -7.14,3.198 -7.14,7.138 v 375.69 c 0,3.94 3.2,7.139 7.14,7.139 h 375.69 c 3.94,0 7.14,-3.199 7.14,-7.139 z"
   style="fill:#3e3300"
   id="path420" />
                </g>
                <g
   transform="translate(682.227,-183.309)"
   id="g422">
                    <path
   d="m 1350.02,836.67 c -0.84,187.03 -7.4,188.12 -0.15,202.62 5.6,11.2 58.09,6.72 67.59,2.16 -18.08,-10.68 -47.56,-0.87 -57.72,-9.19 -4.32,-131.174 2.39,-177.461 -7.36,-199.815 z"
   style="fill:#7486b4"
   id="path421" />
                </g>
                <g
   transform="matrix(1.17645,0,0,1.17645,444.976,-289.251)"
   id="g423">
                    <path
   d="m 1478.07,600.423 h 34.19 c 0,95.47 -77.51,172.98 -172.98,172.98 -0.31,0 -0.63,-10e-4 -0.94,-0.003 v -34.188 c 0.31,0.002 0.63,0.003 0.94,0.003 76.6,0 138.79,-62.191 138.79,-138.792 z M 1728.31,773.4 c -95.04,-0.508 -172.04,-77.821 -172.04,-172.977 h 34.18 c 0,76.287 61.69,138.281 137.86,138.789 z m -172.04,216.99 c 0,-95.156 77,-172.47 172.04,-172.978 v 34.189 c -76.17,0.507 -137.86,62.501 -137.86,138.789 z M 1338.34,817.412 c 0.31,-0.001 0.63,-0.002 0.94,-0.002 95.47,0 172.98,77.51 172.98,172.98 h -34.19 c 0,-76.602 -62.19,-138.792 -138.79,-138.792 -0.31,0 -0.63,0.001 -0.94,0.003 z M 1455.3,600.423 c 0,63.171 -51.28,114.458 -114.46,114.458 -0.83,0 -1.67,-0.009 -2.5,-0.027 v -28.623 c 0.83,0.024 1.67,0.036 2.5,0.036 47.38,0 85.85,-38.466 85.85,-85.844 z m 273.01,114.455 c -62.74,-0.507 -113.52,-51.598 -113.52,-114.455 h 28.61 c 0,47.064 37.96,85.333 84.91,85.839 z M 1614.79,990.39 c 0,-62.857 50.78,-113.948 113.52,-114.455 v 28.616 c -46.95,0.506 -84.91,38.775 -84.91,85.839 z M 1338.34,875.935 c 0.31,-0.003 0.63,-0.004 0.94,-0.004 63.17,0 114.46,51.287 114.46,114.459 h -28.62 c 0,-47.379 -38.46,-85.844 -85.84,-85.844 -0.31,0 -0.63,10e-4 -0.94,0.005 z m 61.63,-275.512 c 0,33.495 -27.19,60.689 -60.69,60.689 -0.31,0 -0.63,-0.003 -0.94,-0.007 v -30.352 c 0.31,0.009 0.62,0.014 0.94,0.014 16.75,0 30.34,-13.597 30.34,-30.344 z m 328.34,60.682 c -33.07,-0.505 -59.75,-27.502 -59.75,-60.682 h 30.34 c 0,16.432 13.09,29.832 29.41,30.33 z m -59.75,329.285 c 0,-33.181 26.68,-60.178 59.75,-60.682 v 30.352 c -16.32,0.498 -29.41,13.897 -29.41,30.33 z m -330.22,-60.682 c 0.31,-0.005 0.63,-0.007 0.94,-0.007 33.5,0 60.69,27.194 60.69,60.689 h -30.35 c 0,-16.748 -13.59,-30.345 -30.34,-30.345 -0.32,0 -0.63,0.005 -0.94,0.015 z"
   style="fill:#ffffff"
   id="path422" />
                </g>
                <g
   transform="translate(682.227,-183.309)"
   id="g424">
                    <path
   d="m 1776.13,615.335 c 2.84,-1.208 6.19,-2.955 7.64,-0.089 0.41,0.824 3.26,143.02 -1.03,225.955 -1.32,-10.71 1.93,-10.822 -8.83,-134.607 -1.99,-22.837 -7.74,-87.012 2.22,-91.259 z"
   style="fill:#6b98d6"
   id="path423" />
                </g>
                <g
   transform="translate(682.227,-183.309)"
   id="g425">
                    <path
   d="m 1776.13,615.335 c 2.84,-1.208 6.19,-2.955 7.64,-0.089 0.41,0.824 3.26,143.02 -1.03,225.955 -1.32,-10.71 1.93,-10.822 -8.83,-134.607 -1.99,-22.837 -7.74,-87.012 2.22,-91.259 z"
   style="fill:#7486b4"
   id="path424" />
                </g>
                <g
   transform="matrix(1.17645,0,0,1.17645,444.976,-289.251)"
   id="g426">
                    <path
   d="m 1478.07,600.423 h 34.19 c 0,95.47 -77.51,172.98 -172.98,172.98 -0.31,0 -0.63,-10e-4 -0.94,-0.003 v -34.188 c 0.31,0.002 0.63,0.003 0.94,0.003 76.6,0 138.79,-62.191 138.79,-138.792 z M 1728.31,773.4 c -95.04,-0.508 -172.04,-77.821 -172.04,-172.977 h 34.18 c 0,76.287 61.69,138.281 137.86,138.789 z m -172.04,216.99 c 0,-95.156 77,-172.47 172.04,-172.978 v 34.189 c -76.17,0.507 -137.86,62.501 -137.86,138.789 z M 1338.34,817.412 c 0.31,-0.001 0.63,-0.002 0.94,-0.002 95.47,0 172.98,77.51 172.98,172.98 h -34.19 c 0,-76.602 -62.19,-138.792 -138.79,-138.792 -0.31,0 -0.63,0.001 -0.94,0.003 z M 1455.3,600.423 c 0,63.171 -51.28,114.458 -114.46,114.458 -0.83,0 -1.67,-0.009 -2.5,-0.027 v -28.623 c 0.83,0.024 1.67,0.036 2.5,0.036 47.38,0 85.85,-38.466 85.85,-85.844 z m 273.01,114.455 c -62.74,-0.507 -113.52,-51.598 -113.52,-114.455 h 28.61 c 0,47.064 37.96,85.333 84.91,85.839 z M 1614.79,990.39 c 0,-62.857 50.78,-113.948 113.52,-114.455 v 28.616 c -46.95,0.506 -84.91,38.775 -84.91,85.839 z M 1338.34,875.935 c 0.31,-0.003 0.63,-0.004 0.94,-0.004 63.17,0 114.46,51.287 114.46,114.459 h -28.62 c 0,-47.379 -38.46,-85.844 -85.84,-85.844 -0.31,0 -0.63,10e-4 -0.94,0.005 z m 61.63,-275.512 c 0,33.495 -27.19,60.689 -60.69,60.689 -0.31,0 -0.63,-0.003 -0.94,-0.007 v -30.352 c 0.31,0.009 0.62,0.014 0.94,0.014 16.75,0 30.34,-13.597 30.34,-30.344 z m 328.34,60.682 c -33.07,-0.505 -59.75,-27.502 -59.75,-60.682 h 30.34 c 0,16.432 13.09,29.832 29.41,30.33 z m -59.75,329.285 c 0,-33.181 26.68,-60.178 59.75,-60.682 v 30.352 c -16.32,0.498 -29.41,13.897 -29.41,30.33 z m -330.22,-60.682 c 0.31,-0.005 0.63,-0.007 0.94,-0.007 33.5,0 60.69,27.194 60.69,60.689 h -30.35 c 0,-16.748 -13.59,-30.345 -30.34,-30.345 -0.32,0 -0.63,0.005 -0.94,0.015 z"
   style="fill:#ffffff"
   id="path425" />
                </g>
                <g
   transform="matrix(-1,0,0,1,3818.17,-183.309)"
   id="g427">
                    <path
   d="m 1570.03,830.993 c -0.23,0.176 -0.47,0.353 -0.71,0.531 54.37,43.656 106.84,38.6 157.99,0 -53.68,-35.145 -106.21,-38.442 -157.28,-0.531 z m -0.71,0.531 c -38.6,51.154 -42.06,101.906 1.6,156.276 38.47,-51.285 33.71,-102.349 -1.6,-156.276 z m 0.71,-0.531 c 38.6,-51.154 41.35,-104.803 -2.3,-159.173 -38.48,51.286 -33,105.245 2.3,159.173 z m -0.71,0.415 c -54.37,-43.657 -106.83,-38.6 -157.99,0 53.93,35.308 106.71,38.472 157.99,0 z"
   style="fill:#ffffff"
   id="path426" />
                </g>
                <g
   transform="translate(682.227,-183.309)"
   id="g428">
                    <path
   d="m 1349.91,856.02 c 2.44,0.137 4.86,0.317 7.28,0.539 0.77,10.368 0.91,23.513 0.91,40.544 -2.84,-0.344 -5.71,-0.615 -8.6,-0.81 0.17,-12.236 0.31,-25.62 0.41,-40.273 z m -0.86,68.944 c 3.04,0.239 6.05,0.58 9.03,1.018 0,10.306 0.03,21.659 0.14,34.185 -3.26,-0.652 -6.57,-1.146 -9.93,-1.476 0.26,-9.806 0.52,-20.975 0.76,-33.727 z m -1.66,63.406 c 3.86,0.489 7.62,1.287 11.26,2.367 0.24,12.323 0.57,25.583 1.04,39.853 -3.86,-2.88 -8.31,-5 -13.15,-6.14 -0.2,-6.87 0.23,-17.42 0.85,-36.08 z m 58.94,48.99 c 0.69,2.14 1.28,4.33 1.76,6.56 -9.73,1.72 -24.33,2.87 -36.53,2.2 -1.71,-4.35 -4.26,-8.28 -7.43,-11.6 9.94,3.17 27.43,-0.2 42.2,2.84 z"
   style="fill:#f0ede0"
   id="path427" />
                </g>
                <g
   transform="translate(682.227,-183.309)"
   id="g429">
                    <path
   d="m 1781.23,803.312 c -0.56,-9.984 -1.41,-23.119 -2.73,-40.659 2.11,0.239 4.23,0.439 6.36,0.597 -0.15,13.664 -0.38,27.255 -0.72,40.267 -0.97,-0.062 -1.94,-0.13 -2.91,-0.205 z m 3.83,-68.769 c -2.99,-0.265 -5.95,-0.628 -8.88,-1.085 -0.67,-8.24 -1.43,-17.173 -2.27,-26.864 -0.2,-2.294 -0.44,-5.005 -0.7,-8.03 3.86,0.938 7.81,1.653 11.82,2.133 0.05,10.861 0.06,22.25 0.03,33.846 z m -0.24,-63.78 c -4.78,-0.831 -9.4,-2.139 -13.81,-3.871 -0.76,-15.589 -0.94,-31.445 0.67,-41.43 3.53,3.59 7.82,6.436 12.61,8.282 0.18,9.54 0.37,22.274 0.53,37.019 z"
   style="fill:#f0ede0"
   id="path428" />
                </g>
            </g>
            <g
   transform="matrix(0.44368,0,0,0.44368,1439.93,1224.49)"
   id="g492">
                <g
   transform="matrix(1.17645,0,0,1.17645,-181.78,256.525)"
   id="g431">
                    <path
   d="m 1728.31,607.561 v 375.69 c 0,3.94 -3.2,7.139 -7.14,7.139 h -375.69 c -3.94,0 -7.14,-3.199 -7.14,-7.139 v -375.69 c 0,-3.94 3.2,-7.138 7.14,-7.138 h 375.69 c 3.94,0 7.14,3.198 7.14,7.138 z"
   style="fill:#ffffff"
   id="path430" />
                </g>
                <g
   transform="translate(-17.2845,518.895)"
   id="g432">
                    <path
   d="m 1630.82,596.026 0.26,-0.092"
   style="fill:none;stroke:#2b3f72;stroke-width:4.7px"
   id="path431" />
                </g>
                <g
   transform="translate(57.8682,362.466)"
   id="g433">
                    <path
   d="m 1350.02,836.67 c -0.84,187.03 -7.4,188.12 -0.15,202.62 5.6,11.2 58.09,6.72 67.59,2.16 -18.08,-10.68 -47.56,-0.87 -57.72,-9.19 -4.32,-131.174 2.39,-177.461 -7.36,-199.815 z"
   style="fill:#f0ede0"
   id="path432" />
                </g>
                <g
   transform="matrix(1.17645,0,0,1.17645,-181.78,256.525)"
   id="g434">
                    <path
   d="m 1730.08,607.561 v 375.69 c 0,4.917 -4,8.91 -8.91,8.91 h -375.69 c -4.92,0 -8.91,-3.993 -8.91,-8.91 v -375.69 c 0,-4.917 3.99,-8.909 8.91,-8.909 h 375.69 c 4.91,0 8.91,3.992 8.91,8.909 z m -1.77,0 c 0,-3.94 -3.2,-7.138 -7.14,-7.138 h -375.69 c -3.94,0 -7.14,3.198 -7.14,7.138 v 375.69 c 0,3.94 3.2,7.139 7.14,7.139 h 375.69 c 3.94,0 7.14,-3.199 7.14,-7.139 z"
   style="fill:#3e3300"
   id="path433" />
                </g>
                <g
   transform="matrix(1.17645,0,0,1.17645,-181.78,256.525)"
   id="g435">
                    <path
   d="m 1455.3,600.423 c 0,63.171 -51.28,114.458 -114.46,114.458 -0.83,0 -1.67,-0.009 -2.5,-0.027 v -28.623 c 0.83,0.024 1.67,0.036 2.5,0.036 47.38,0 85.85,-38.466 85.85,-85.844 z m 273.01,114.455 c -62.74,-0.507 -113.52,-51.598 -113.52,-114.455 h 28.61 c 0,47.064 37.96,85.333 84.91,85.839 z M 1614.79,990.39 c 0,-62.857 50.78,-113.948 113.52,-114.455 v 28.616 c -46.95,0.506 -84.91,38.775 -84.91,85.839 z M 1338.34,875.935 c 0.31,-0.003 0.63,-0.004 0.94,-0.004 63.17,0 114.46,51.287 114.46,114.459 h -28.62 c 0,-47.379 -38.46,-85.844 -85.84,-85.844 -0.31,0 -0.63,10e-4 -0.94,0.005 z"
   style="fill:#ffd000"
   id="path434" />
                </g>
                <g
   transform="translate(-32.2359,427.562)"
   id="g436">
                    <path
   d="m 1555.56,863.477 c -54.51,0 -98.76,-44.254 -98.76,-98.763 0,-54.509 44.25,-98.763 98.76,-98.763 0,-54.509 44.26,-98.763 98.76,-98.763 54.51,0 98.77,44.254 98.77,98.763 54.51,0 98.76,44.254 98.76,98.763 0,54.509 -44.25,98.763 -98.76,98.763 0,54.509 -44.26,98.764 -98.77,98.764 -54.5,0 -98.76,-44.255 -98.76,-98.764 z m 31.91,-31.905 c -4.63,9.664 -7.22,20.485 -7.22,31.905 0,40.882 33.19,74.073 74.07,74.073 40.89,0 74.08,-33.191 74.08,-74.073 0,-11.42 -2.59,-22.241 -7.22,-31.905 9.67,4.624 20.49,7.215 31.91,7.215 40.88,0 74.07,-33.191 74.07,-74.073 0,-40.882 -33.19,-74.072 -74.07,-74.072 -11.42,0 -22.24,2.59 -31.91,7.215 4.63,-9.665 7.22,-20.485 7.22,-31.906 0,-40.882 -33.19,-74.073 -74.08,-74.073 -40.88,0 -74.07,33.191 -74.07,74.073 0,11.421 2.59,22.241 7.22,31.906 -9.67,-4.625 -20.49,-7.215 -31.91,-7.215 -40.88,0 -74.07,33.19 -74.07,74.072 0,40.882 33.19,74.073 74.07,74.073 11.42,0 22.24,-2.591 31.91,-7.215 z"
   style="fill:#2b3f72"
   id="path435" />
                </g>
                <g
   transform="matrix(1.31251,-1.31251,1.31251,1.31251,-1552.91,2359.89)"
   id="g437">
                    <path
   d="m 1623.31,731.707 c 9.67,4.625 19.59,13.452 31.01,13.452 11.43,0 22.25,-7.726 31.91,-12.351 -4.62,9.665 -12.35,20.485 -12.35,31.906 0,11.421 7.73,22.242 12.35,31.906 -9.66,-4.625 -20.48,-12.351 -31.91,-12.351 -11.42,0 -22.24,7.726 -31.9,12.351 4.62,-9.664 12.35,-20.485 12.35,-31.906 0,-11.421 -6.84,-23.342 -11.46,-33.007 z"
   style="fill:#ffd000"
   id="path436" />
                </g>
                <g
   transform="translate(-17.2845,518.895)"
   id="g438">
                    <path
   d="m 1694.59,605.816 c 17.55,-30.765 5.11,-121.501 -85.73,-88.035 -32.15,11.845 -37.25,74.174 -16.6,81.058"
   style="fill:none;stroke:#2b3f72;stroke-width:4.7px"
   id="path437" />
                </g>
                <g
   transform="translate(-17.2845,518.895)"
   id="g439">
                    <path
   d="m 1563,617.917 c -11.24,-9.215 -99.33,-13.597 -78.65,78.095 10.63,47.134 74.77,48.017 84.47,25.392"
   style="fill:none;stroke:#2b3f72;stroke-width:4.7px"
   id="path438" />
                </g>
                <g
   transform="translate(-17.2845,518.895)"
   id="g440">
                    <path
   d="m 1583.24,746.85 c 0.99,6.039 -16.51,39.362 19.76,75.633 3.22,3.213 41.57,20.843 71.3,2.441 21.3,-13.188 34.15,-57.57 21.97,-80.57"
   style="fill:none;stroke:#2b3f72;stroke-width:4.7px"
   id="path439" />
                </g>
                <g
   transform="translate(-17.2845,518.895)"
   id="g441">
                    <path
   d="m 1714.32,730.95 c 4.17,5.006 24.65,7.579 35.17,5.103 62.98,-14.819 73.29,-114.639 6.35,-122.076 -0.55,-0.062 -0.42,-0.183 -6.83,-1.465 -16.98,-3.396 -16.95,-0.806 -32.23,6.836"
   style="fill:none;stroke:#2b3f72;stroke-width:4.7px"
   id="path440" />
                </g>
                <g
   transform="translate(-17.2845,518.895)"
   id="g442">
                    <path
   d="m 1639.37,589.37 c 5.44,2.807 17.57,-30.84 12.4,-40.381 -2.82,-5.211 -2.32,1.187 -9.22,19.395 -1.63,-12.066 -8.19,-20.84 -8.93,-20.656 -1.47,0.367 1.94,1.693 -4.03,18.474 0.05,-1.571 0.65,-18.541 -10.34,-16.709 -0.5,0.083 2.72,18.071 5.8,24.455 3.36,6.983 13.74,16.001 14.32,15.422 z"
   style="fill:#2b3f72;stroke:#2b3f72;stroke-width:4.7px"
   id="path441" />
                </g>
                <g
   transform="rotate(90,1369.608,925.772)"
   id="g443">
                    <path
   d="m 1636.76,589.536 c 5.43,2.807 20.18,-31.006 15.01,-40.547 -2.82,-5.211 -2.32,1.187 -9.22,19.395 -1.63,-12.066 -8.19,-20.84 -8.93,-20.656 -1.47,0.367 1.94,1.693 -4.03,18.474 0.05,-1.571 0.65,-18.541 -10.34,-16.709 -0.5,0.083 2.72,18.071 5.8,24.455 3.36,6.983 11.13,16.166 11.71,15.588 z"
   style="fill:#2b3f72;stroke:#2b3f72;stroke-width:4.7px"
   id="path442" />
                </g>
                <g
   transform="rotate(180,1629.1,932.83)"
   id="g444">
                    <path
   d="m 1636.25,590.019 c 5.44,2.806 20.69,-31.489 15.52,-41.03 -2.82,-5.211 -2.32,1.187 -9.22,19.395 -1.63,-12.066 -8.19,-20.84 -8.93,-20.656 -1.47,0.367 1.94,1.693 -4.03,18.474 0.05,-1.571 0.65,-18.541 -10.34,-16.709 -0.5,0.083 2.72,18.071 5.8,24.455 3.36,6.983 10.62,16.649 11.2,16.071 z"
   style="fill:#2b3f72;stroke:#2b3f72;stroke-width:4.7px"
   id="path443" />
                </g>
                <g
   transform="rotate(-90,1888.8605,940.1695)"
   id="g445">
                    <path
   d="m 1639.37,589.37 c 5.44,2.807 17.57,-30.84 12.4,-40.381 -2.82,-5.211 -2.32,1.187 -9.22,19.395 -1.63,-12.066 -8.19,-20.84 -8.93,-20.656 -1.47,0.367 1.94,1.693 -4.03,18.474 0.05,-1.571 0.65,-18.541 -10.34,-16.709 -0.5,0.083 2.72,18.071 5.8,24.455 3.36,6.983 13.74,16.001 14.32,15.422 z"
   style="fill:#2b3f72;stroke:#2b3f72;stroke-width:4.7px"
   id="path444" />
                </g>
                <g
   transform="translate(-17.2845,518.895)"
   id="g446">
                    <path
   d="m 1628.84,605.049 c 0.09,0.035 0.34,0.274 0.36,0.283"
   style="fill:none;stroke:#2b3f72;stroke-width:4.7px"
   id="path445" />
                </g>
                <g
   transform="translate(-17.2845,518.895)"
   id="g447">
                    <path
   d="m 1625.38,616.302 0.22,-0.006"
   style="fill:none;stroke:#2b3f72;stroke-width:4.7px"
   id="path446" />
                </g>
                <g
   transform="translate(-17.2845,518.895)"
   id="g448">
                    <path
   d="m 1621.08,626.461 0.45,0.017"
   style="fill:none;stroke:#2b3f72;stroke-width:4.7px"
   id="path447" />
                </g>
                <g
   transform="translate(-17.2845,518.895)"
   id="g449">
                    <path
   d="m 1614.48,636.413 c 0.11,0.03 0.21,0.06 0.31,0.089"
   style="fill:none;stroke:#2b3f72;stroke-width:4.7px"
   id="path448" />
                </g>
                <g
   transform="translate(-17.2845,518.895)"
   id="g450">
                    <path
   d="m 1606.44,645.209 0.21,0.065"
   style="fill:none;stroke:#2b3f72;stroke-width:4.7px"
   id="path449" />
                </g>
                <g
   transform="translate(-17.2845,518.895)"
   id="g451">
                    <path
   d="m 1594.36,652.829 c 0.13,-0.065 0.26,-0.129 0.38,-0.193"
   style="fill:none;stroke:#2b3f72;stroke-width:4.7px"
   id="path450" />
                </g>
                <g
   transform="translate(-17.2845,518.895)"
   id="g452">
                    <path
   d="m 1580.71,657.763 c 0.07,0.03 0.04,0.147 0.09,0.198"
   style="fill:none;stroke:#2b3f72;stroke-width:4.7px"
   id="path451" />
                </g>
                <g
   transform="translate(-17.2845,518.895)"
   id="g453">
                    <path
   d="m 1568.63,662.306 -0.04,0.041"
   style="fill:none;stroke:#2b3f72;stroke-width:4.7px"
   id="path452" />
                </g>
                <g
   transform="translate(-17.2845,518.895)"
   id="g454">
                    <path
   d="M 1559.66,664.722"
   style="fill:none;stroke:#2b3f72;stroke-width:4.7px"
   id="path453" />
                </g>
                <g
   transform="translate(-17.2845,518.895)"
   id="g455">
                    <path
   d="m 1561.08,678.06 -0.01,-0.206"
   style="fill:none;stroke:#2b3f72;stroke-width:4.7px"
   id="path454" />
                </g>
                <g
   transform="translate(-17.2845,518.895)"
   id="g456">
                    <path
   d="m 1572.79,681.22 0.02,0.08"
   style="fill:none;stroke:#2b3f72;stroke-width:4.7px"
   id="path455" />
                </g>
                <g
   transform="translate(-17.2845,518.895)"
   id="g457">
                    <path
   d="m 1583.13,685.948 c 0.12,-0.072 0.21,0.019 0.34,-0.106"
   style="fill:none;stroke:#2b3f72;stroke-width:4.7px"
   id="path456" />
                </g>
                <g
   transform="translate(-17.2845,518.895)"
   id="g458">
                    <path
   d="m 1593.8,692.246 0.32,0.018"
   style="fill:none;stroke:#2b3f72;stroke-width:4.7px"
   id="path457" />
                </g>
                <g
   transform="translate(-17.2845,518.895)"
   id="g459">
                    <path
   d="m 1602.61,697.883 c 0.09,-0.046 0.19,-0.091 0.28,-0.137"
   style="fill:none;stroke:#2b3f72;stroke-width:4.7px"
   id="path458" />
                </g>
                <g
   transform="translate(-17.2845,518.895)"
   id="g460">
                    <path
   d="m 1611.88,706.328 0.25,0.033"
   style="fill:none;stroke:#2b3f72;stroke-width:4.7px"
   id="path459" />
                </g>
                <g
   transform="translate(-17.2845,518.895)"
   id="g461">
                    <path
   d="m 1617.58,715.784 0.34,-0.025"
   style="fill:none;stroke:#2b3f72;stroke-width:4.7px"
   id="path460" />
                </g>
                <g
   transform="translate(-17.2845,518.895)"
   id="g462">
                    <path
   d="m 1623.21,727.653 0.35,-0.627"
   style="fill:none;stroke:#2b3f72;stroke-width:4.7px"
   id="path461" />
                </g>
                <g
   transform="translate(-17.2845,518.895)"
   id="g463">
                    <path
   d="m 1627.54,736.493 c 0.12,-0.084 0.25,-0.168 0.37,-0.253"
   style="fill:none;stroke:#2b3f72;stroke-width:4.7px"
   id="path462" />
                </g>
                <g
   transform="translate(-17.2845,518.895)"
   id="g464">
                    <path
   d="m 1631.15,746.919 0.09,0.071"
   style="fill:none;stroke:#2b3f72;stroke-width:4.7px"
   id="path463" />
                </g>
                <g
   transform="translate(-17.2845,518.895)"
   id="g465">
                    <path
   d="m 1647.01,749.214 0.61,0.08"
   style="fill:none;stroke:#2b3f72;stroke-width:4.7px"
   id="path464" />
                </g>
                <g
   transform="translate(-17.2845,518.895)"
   id="g466">
                    <path
   d="m 1650.96,737.641 -0.02,-0.121"
   style="fill:none;stroke:#2b3f72;stroke-width:4.7px"
   id="path465" />
                </g>
                <g
   transform="translate(-17.2845,518.895)"
   id="g467">
                    <path
   d="M 1655.56,725.292"
   style="fill:none;stroke:#2b3f72;stroke-width:4.7px"
   id="path466" />
                </g>
                <g
   transform="translate(-17.2845,518.895)"
   id="g468">
                    <path
   d="m 1660.76,712.808 -0.09,-0.115"
   style="fill:none;stroke:#2b3f72;stroke-width:4.7px"
   id="path467" />
                </g>
                <g
   transform="translate(-17.2845,518.895)"
   id="g469">
                    <path
   d="m 1668.13,702.146 c 0.25,-0.231 0.25,0.019 0.47,-0.203"
   style="fill:none;stroke:#2b3f72;stroke-width:4.7px"
   id="path468" />
                </g>
                <g
   transform="translate(-17.2845,518.895)"
   id="g470">
                    <path
   d="m 1679.41,693.812 0.46,-0.06"
   style="fill:none;stroke:#2b3f72;stroke-width:4.7px"
   id="path469" />
                </g>
                <g
   transform="translate(-17.2845,518.895)"
   id="g471">
                    <path
   d="m 1694.62,687.199 0.09,-0.102"
   style="fill:none;stroke:#2b3f72;stroke-width:4.7px"
   id="path470" />
                </g>
                <g
   transform="translate(-17.2845,518.895)"
   id="g472">
                    <path
   d="m 1707.97,683.42 c -0.1,-0.203 -0.12,-0.162 -0.2,-0.162"
   style="fill:none;stroke:#2b3f72;stroke-width:4.7px"
   id="path471" />
                </g>
                <g
   transform="translate(-17.2845,518.895)"
   id="g473">
                    <path
   d="m 1719.02,680.923 c 0.09,-0.075 0.18,-0.15 0.26,-0.225"
   style="fill:none;stroke:#2b3f72;stroke-width:4.7px"
   id="path472" />
                </g>
                <g
   transform="translate(-17.2845,518.895)"
   id="g474">
                    <path
   d="m 1718.79,667.427 0.24,-0.038"
   style="fill:none;stroke:#2b3f72;stroke-width:4.7px"
   id="path473" />
                </g>
                <g
   transform="translate(-17.2845,518.895)"
   id="g475">
                    <path
   d="m 1701.79,661.59 0.6,-0.088"
   style="fill:none;stroke:#2b3f72;stroke-width:4.7px"
   id="path474" />
                </g>
                <g
   transform="translate(-17.2845,518.895)"
   id="g476">
                    <path
   d="m 1684.65,653.289 0.34,0.022"
   style="fill:none;stroke:#2b3f72;stroke-width:4.7px"
   id="path475" />
                </g>
                <g
   transform="translate(-17.2845,518.895)"
   id="g477">
                    <path
   d="m 1673.8,647.52 c 0.06,-0.032 0.12,-0.064 0.18,-0.096"
   style="fill:none;stroke:#2b3f72;stroke-width:4.7px"
   id="path476" />
                </g>
                <g
   transform="translate(-17.2845,518.895)"
   id="g478">
                    <path
   d="m 1664.11,638.579 c 0.13,-0.038 0.27,-0.075 0.4,-0.113"
   style="fill:none;stroke:#2b3f72;stroke-width:4.7px"
   id="path477" />
                </g>
                <g
   transform="translate(-17.2845,518.895)"
   id="g479">
                    <path
   d="m 1657.79,626.702 c 0.1,-0.174 0.21,-0.348 0.32,-0.522"
   style="fill:none;stroke:#2b3f72;stroke-width:4.7px"
   id="path478" />
                </g>
                <g
   transform="translate(-17.2845,518.895)"
   id="g480">
                    <path
   d="m 1653.36,614.218 c -0.04,0.063 -0.08,0.126 -0.11,0.189"
   style="fill:none;stroke:#2b3f72;stroke-width:4.7px"
   id="path479" />
                </g>
                <g
   transform="translate(-17.2845,518.895)"
   id="g481">
                    <path
   d="m 1648.56,603.826 c 0.08,-0.17 0.31,-0.627 0.34,-0.681"
   style="fill:none;stroke:#2b3f72;stroke-width:4.7px"
   id="path480" />
                </g>
                <g
   transform="translate(-17.2845,518.895)"
   id="g482">
                    <path
   d="m 1645.01,595.425 0.82,0.041"
   style="fill:none;stroke:#2b3f72;stroke-width:4.7px"
   id="path481" />
                </g>
                <g
   transform="translate(-17.2845,518.895)"
   id="g483">
                    <path
   d="m 1460.31,451.585 c -36,-5.143 -37.74,-0.887 -40.13,1.198 -8.24,7.214 -3.25,41.683 -1.06,50.062 6.46,-10.305 5.02,-10.687 8.52,-22.116 13.09,14.453 13.84,14.855 15.38,15.688 4.83,2.601 -0.03,-9.039 -6.17,-19.684 10.62,2 10.36,1.918 21.01,4.256 -0.23,-4.512 -2.34,-9.676 -15.97,-16.755 1.76,-0.441 23.52,-3.697 24.59,-6.887 0.45,-1.358 -1.59,-5.762 -6.17,-5.762"
   style="fill:#2b3f72"
   id="path482" />
                </g>
                <g
   transform="matrix(1,0,0,-1,-12.9666,1863.75)"
   id="g484">
                    <path
   d="m 1460.31,451.585 c -36,-5.143 -37.74,-0.887 -40.13,1.198 -8.24,7.214 -3.25,41.683 -1.06,50.062 6.46,-10.305 5.02,-10.687 8.52,-22.116 13.09,14.453 13.84,14.855 15.38,15.688 4.83,2.601 -0.03,-9.039 -6.17,-19.684 10.62,2 10.36,1.918 21.01,4.256 -0.23,-4.512 -2.34,-9.676 -15.97,-16.755 1.76,-0.441 23.52,-3.697 24.59,-6.887 0.45,-1.358 -1.59,-5.762 -6.17,-5.762"
   style="fill:#2b3f72"
   id="path483" />
                </g>
                <g
   transform="matrix(1,0,0,-1,-12.9666,1863.75)"
   id="g485">
                    <path
   d="m 1417.64,495.353 c 0.52,3.227 1.05,5.856 1.48,7.492 6.46,-10.305 5.02,-10.687 8.52,-22.116 0.88,0.98 1.72,1.895 2.49,2.75 0.14,-4.703 0.28,-9.522 0.45,-14.462 3.03,-2.485 7.79,-3.352 13.45,-3.631 -0.68,-0.378 -1.39,-0.762 -2.14,-1.152 1.76,-0.441 23.52,-3.697 24.59,-6.887 0.12,-0.366 0.06,-0.952 -0.18,-1.614 -18.57,-1.676 -41.96,-1.013 -45.6,6.261 -3.46,6.929 -3.77,10.794 -3.06,33.359 z"
   style="fill:#7486b4"
   id="path484" />
                </g>
                <g
   transform="rotate(180,1629.25,929.65)"
   id="g486">
                    <path
   d="m 1460.31,451.585 c -36,-5.143 -37.74,-0.887 -40.13,1.198 -8.24,7.214 -3.25,41.683 -1.06,50.062 6.46,-10.305 5.02,-10.687 8.52,-22.116 13.09,14.453 13.84,14.855 15.38,15.688 4.83,2.601 -0.03,-9.039 -6.17,-19.684 10.62,2 10.36,1.918 21.01,4.256 -0.23,-4.512 -2.34,-9.676 -15.97,-16.755 1.76,-0.441 23.52,-3.697 24.59,-6.887 0.45,-1.358 -1.59,-5.762 -6.17,-5.762"
   style="fill:#2b3f72"
   id="path485" />
                </g>
                <g
   transform="matrix(-1,0,0,1,3254.18,523.338)"
   id="g487">
                    <path
   d="m 1460.31,451.585 c -36,-5.143 -37.74,-0.887 -40.13,1.198 -8.24,7.214 -3.25,41.683 -1.06,50.062 6.46,-10.305 5.02,-10.687 8.52,-22.116 13.09,14.453 13.84,14.855 15.38,15.688 4.83,2.601 -0.03,-9.039 -6.17,-19.684 10.62,2 10.36,1.918 21.01,4.256 -0.23,-4.512 -2.34,-9.676 -15.97,-16.755 1.76,-0.441 23.52,-3.697 24.59,-6.887 0.45,-1.358 -1.59,-5.762 -6.17,-5.762"
   style="fill:#2b3f72"
   id="path486" />
                </g>
                <g
   transform="translate(50.4638,363.26)"
   id="g488">
                    <path
   d="m 1776.13,615.335 c 2.84,-1.208 6.19,-2.955 7.64,-0.089 0.41,0.824 3.26,143.02 -1.03,225.955 -1.32,-10.71 1.93,-10.822 -8.83,-134.607 -1.99,-22.837 -7.74,-87.012 2.22,-91.259 z"
   style="fill:#f0ede0"
   id="path487" />
                </g>
                <g
   transform="matrix(1.17645,0,0,1.17645,-181.78,256.525)"
   id="g489">
                    <path
   d="m 1707.08,712.733 c -0.54,-6.6 -1.15,-13.714 -1.81,-21.388 -0.21,-2.412 -0.47,-5.367 -0.75,-8.699 3.32,0.998 6.72,1.8 10.2,2.394 0.04,9.267 0.05,19.003 0.03,28.93 -2.59,-0.327 -5.14,-0.741 -7.67,-1.237 z"
   style="fill:#d1ac0b"
   id="path488" />
                </g>
                <g
   transform="matrix(-1,0,0,1,3254.18,523.338)"
   id="g490">
                    <path
   d="m 1433.27,486.909 c 0.03,-16.385 -1.31,-29.788 -5.69,-31.651 -2.83,-1.209 -6.18,-2.956 -7.63,-0.09 -0.15,0.3 -0.62,19.221 -0.96,47.172 0.05,0.177 0.09,0.346 0.13,0.505 6.46,-10.305 5.02,-10.687 8.52,-22.116 2.2,2.436 4.06,4.473 5.63,6.18 z"
   style="fill:#7486b4"
   id="path489" />
                </g>
                <g
   transform="translate(57.8682,362.466)"
   id="g491">
                    <path
   d="m 1349.04,925.174 c 3.04,0.294 6.06,0.69 9.04,1.183 0,10.347 0.03,21.745 0.15,34.321 -3.26,-0.735 -6.58,-1.313 -9.95,-1.724 0.26,-9.815 0.52,-21.001 0.76,-33.78 z"
   style="fill:#d1ac0b"
   id="path490" />
                </g>
            </g>
        </g>
</svg>
