<?xml version="1.0" encoding="UTF-8" standalone="no"?>
<!DOCTYPE svg PUBLIC "-//W3C//DTD SVG 1.1//EN" "http://www.w3.org/Graphics/SVG/1.1/DTD/svg11.dtd">
<svg width="100%" height="100%" viewBox="0 0 463 463" version="1.1" xmlns="http://www.w3.org/2000/svg" xmlns:xlink="http://www.w3.org/1999/xlink" xml:space="preserve" xmlns:serif="http://www.serif.com/" style="fill-rule:evenodd;clip-rule:evenodd;stroke-linejoin:round;stroke-miterlimit:2;">
    <g transform="matrix(1,0,0,1,-2017.37,-415.031)">
        <g>
            <g transform="matrix(1.17645,0,0,1.18713,444.976,-297.749)">
                <path d="M1728.31,607.497L1728.31,983.315C1728.31,987.22 1725.11,990.39 1721.17,990.39L1345.48,990.39C1341.54,990.39 1338.34,987.22 1338.34,983.315L1338.34,607.497C1338.34,603.593 1341.54,600.423 1345.48,600.423L1721.17,600.423C1725.11,600.423 1728.31,603.593 1728.31,607.497Z" style="fill:rgb(43,63,114);"/>
            </g>
            <g transform="matrix(1.17645,0,0,1.17645,444.976,-289.251)">
                <path d="M1730.08,607.561L1730.08,983.251C1730.08,988.168 1726.08,992.161 1721.17,992.161L1345.48,992.161C1340.56,992.161 1336.57,988.168 1336.57,983.251L1336.57,607.561C1336.57,602.644 1340.56,598.652 1345.48,598.652L1721.17,598.652C1726.08,598.652 1730.08,602.644 1730.08,607.561ZM1728.31,607.561C1728.31,603.621 1725.11,600.423 1721.17,600.423L1345.48,600.423C1341.54,600.423 1338.34,603.621 1338.34,607.561L1338.34,983.251C1338.34,987.191 1341.54,990.39 1345.48,990.39L1721.17,990.39C1725.11,990.39 1728.31,987.191 1728.31,983.251L1728.31,607.561Z" style="fill:rgb(62,51,0);"/>
            </g>
            <g transform="matrix(1,0,0,1,682.227,-183.309)">
                <path d="M1350.02,836.67C1349.18,1023.7 1342.62,1024.79 1349.87,1039.29C1355.47,1050.49 1407.96,1046.01 1417.46,1041.45C1399.38,1030.77 1369.9,1040.58 1359.74,1032.26C1355.42,901.086 1362.13,854.799 1352.38,832.445L1350.02,836.67Z" style="fill:rgb(116,134,180);"/>
            </g>
            <g transform="matrix(1.17645,0,0,1.17645,444.976,-289.251)">
                <path d="M1478.07,600.423L1512.26,600.423C1512.26,695.893 1434.75,773.403 1339.28,773.403C1338.97,773.403 1338.65,773.402 1338.34,773.4L1338.34,739.212C1338.65,739.214 1338.97,739.215 1339.28,739.215C1415.88,739.215 1478.07,677.024 1478.07,600.423ZM1728.31,773.4C1633.27,772.892 1556.27,695.579 1556.27,600.423L1590.45,600.423C1590.45,676.71 1652.14,738.704 1728.31,739.212L1728.31,773.4ZM1556.27,990.39C1556.27,895.234 1633.27,817.92 1728.31,817.412L1728.31,851.601C1652.14,852.108 1590.45,914.102 1590.45,990.39L1556.27,990.39ZM1338.34,817.412C1338.65,817.411 1338.97,817.41 1339.28,817.41C1434.75,817.41 1512.26,894.92 1512.26,990.39L1478.07,990.39C1478.07,913.788 1415.88,851.598 1339.28,851.598C1338.97,851.598 1338.65,851.599 1338.34,851.601L1338.34,817.412ZM1455.3,600.423C1455.3,663.594 1404.02,714.881 1340.84,714.881C1340.01,714.881 1339.17,714.872 1338.34,714.854L1338.34,686.231C1339.17,686.255 1340.01,686.267 1340.84,686.267C1388.22,686.267 1426.69,647.801 1426.69,600.423L1455.3,600.423ZM1728.31,714.878C1665.57,714.371 1614.79,663.28 1614.79,600.423L1643.4,600.423C1643.4,647.487 1681.36,685.756 1728.31,686.262L1728.31,714.878ZM1614.79,990.39C1614.79,927.533 1665.57,876.442 1728.31,875.935L1728.31,904.551C1681.36,905.057 1643.4,943.326 1643.4,990.39L1614.79,990.39ZM1338.34,875.935C1338.65,875.932 1338.97,875.931 1339.28,875.931C1402.45,875.931 1453.74,927.218 1453.74,990.39L1425.12,990.39C1425.12,943.011 1386.66,904.546 1339.28,904.546C1338.97,904.546 1338.65,904.547 1338.34,904.551L1338.34,875.935ZM1399.97,600.423C1399.97,633.918 1372.78,661.112 1339.28,661.112C1338.97,661.112 1338.65,661.109 1338.34,661.105L1338.34,630.753C1338.65,630.762 1338.96,630.767 1339.28,630.767C1356.03,630.767 1369.62,617.17 1369.62,600.423L1399.97,600.423ZM1728.31,661.105C1695.24,660.6 1668.56,633.603 1668.56,600.423L1698.9,600.423C1698.9,616.855 1711.99,630.255 1728.31,630.753L1728.31,661.105ZM1668.56,990.39C1668.56,957.209 1695.24,930.212 1728.31,929.708L1728.31,960.06C1711.99,960.558 1698.9,973.957 1698.9,990.39L1668.56,990.39ZM1338.34,929.708C1338.65,929.703 1338.97,929.701 1339.28,929.701C1372.78,929.701 1399.97,956.895 1399.97,990.39L1369.62,990.39C1369.62,973.642 1356.03,960.045 1339.28,960.045C1338.96,960.045 1338.65,960.05 1338.34,960.06L1338.34,929.708Z" style="fill:white;"/>
            </g>
            <g transform="matrix(1,0,0,1,682.227,-183.309)">
                <path d="M1776.13,615.335C1778.97,614.127 1782.32,612.38 1783.77,615.246C1784.18,616.07 1787.03,758.266 1782.74,841.201C1781.42,830.491 1784.67,830.379 1773.91,706.594C1771.92,683.757 1766.17,619.582 1776.13,615.335Z" style="fill:rgb(107,152,214);"/>
            </g>
            <g transform="matrix(1,0,0,1,682.227,-183.309)">
                <path d="M1776.13,615.335C1778.97,614.127 1782.32,612.38 1783.77,615.246C1784.18,616.07 1787.03,758.266 1782.74,841.201C1781.42,830.491 1784.67,830.379 1773.91,706.594C1771.92,683.757 1766.17,619.582 1776.13,615.335Z" style="fill:rgb(116,134,180);"/>
            </g>
            <g transform="matrix(1.17645,0,0,1.17645,444.976,-289.251)">
                <path d="M1478.07,600.423L1512.26,600.423C1512.26,695.893 1434.75,773.403 1339.28,773.403C1338.97,773.403 1338.65,773.402 1338.34,773.4L1338.34,739.212C1338.65,739.214 1338.97,739.215 1339.28,739.215C1415.88,739.215 1478.07,677.024 1478.07,600.423ZM1728.31,773.4C1633.27,772.892 1556.27,695.579 1556.27,600.423L1590.45,600.423C1590.45,676.71 1652.14,738.704 1728.31,739.212L1728.31,773.4ZM1556.27,990.39C1556.27,895.234 1633.27,817.92 1728.31,817.412L1728.31,851.601C1652.14,852.108 1590.45,914.102 1590.45,990.39L1556.27,990.39ZM1338.34,817.412C1338.65,817.411 1338.97,817.41 1339.28,817.41C1434.75,817.41 1512.26,894.92 1512.26,990.39L1478.07,990.39C1478.07,913.788 1415.88,851.598 1339.28,851.598C1338.97,851.598 1338.65,851.599 1338.34,851.601L1338.34,817.412ZM1455.3,600.423C1455.3,663.594 1404.02,714.881 1340.84,714.881C1340.01,714.881 1339.17,714.872 1338.34,714.854L1338.34,686.231C1339.17,686.255 1340.01,686.267 1340.84,686.267C1388.22,686.267 1426.69,647.801 1426.69,600.423L1455.3,600.423ZM1728.31,714.878C1665.57,714.371 1614.79,663.28 1614.79,600.423L1643.4,600.423C1643.4,647.487 1681.36,685.756 1728.31,686.262L1728.31,714.878ZM1614.79,990.39C1614.79,927.533 1665.57,876.442 1728.31,875.935L1728.31,904.551C1681.36,905.057 1643.4,943.326 1643.4,990.39L1614.79,990.39ZM1338.34,875.935C1338.65,875.932 1338.97,875.931 1339.28,875.931C1402.45,875.931 1453.74,927.218 1453.74,990.39L1425.12,990.39C1425.12,943.011 1386.66,904.546 1339.28,904.546C1338.97,904.546 1338.65,904.547 1338.34,904.551L1338.34,875.935ZM1399.97,600.423C1399.97,633.918 1372.78,661.112 1339.28,661.112C1338.97,661.112 1338.65,661.109 1338.34,661.105L1338.34,630.753C1338.65,630.762 1338.96,630.767 1339.28,630.767C1356.03,630.767 1369.62,617.17 1369.62,600.423L1399.97,600.423ZM1728.31,661.105C1695.24,660.6 1668.56,633.603 1668.56,600.423L1698.9,600.423C1698.9,616.855 1711.99,630.255 1728.31,630.753L1728.31,661.105ZM1668.56,990.39C1668.56,957.209 1695.24,930.212 1728.31,929.708L1728.31,960.06C1711.99,960.558 1698.9,973.957 1698.9,990.39L1668.56,990.39ZM1338.34,929.708C1338.65,929.703 1338.97,929.701 1339.28,929.701C1372.78,929.701 1399.97,956.895 1399.97,990.39L1369.62,990.39C1369.62,973.642 1356.03,960.045 1339.28,960.045C1338.96,960.045 1338.65,960.05 1338.34,960.06L1338.34,929.708Z" style="fill:white;"/>
            </g>
            <g transform="matrix(-1,0,0,1,3818.17,-183.309)">
                <path d="M1570.03,830.993C1569.8,831.169 1569.56,831.346 1569.32,831.524C1623.69,875.18 1676.16,870.124 1727.31,831.524C1673.63,796.379 1621.1,793.082 1570.03,830.993ZM1569.32,831.524C1530.72,882.678 1527.26,933.43 1570.92,987.8C1609.39,936.515 1604.63,885.451 1569.32,831.524ZM1570.03,830.993C1608.63,779.839 1611.38,726.19 1567.73,671.82C1529.25,723.106 1534.73,777.065 1570.03,830.993ZM1569.32,831.408C1514.95,787.751 1462.49,792.808 1411.33,831.408C1465.26,866.716 1518.04,869.88 1569.32,831.408Z" style="fill:white;"/>
            </g>
            <g transform="matrix(1,0,0,1,682.227,-183.309)">
                <path d="M1349.91,856.02C1352.35,856.157 1354.77,856.337 1357.19,856.559C1357.96,866.927 1358.1,880.072 1358.1,897.103C1355.26,896.759 1352.39,896.488 1349.5,896.293C1349.67,884.057 1349.81,870.673 1349.91,856.02ZM1349.05,924.964C1352.09,925.203 1355.1,925.544 1358.08,925.982C1358.08,936.288 1358.11,947.641 1358.22,960.167C1354.96,959.515 1351.65,959.021 1348.29,958.691C1348.55,948.885 1348.81,937.716 1349.05,924.964ZM1347.39,988.37C1351.25,988.859 1355.01,989.657 1358.65,990.737C1358.89,1003.06 1359.22,1016.32 1359.69,1030.59C1355.83,1027.71 1351.38,1025.59 1346.54,1024.45C1346.34,1017.58 1346.77,1007.03 1347.39,988.37ZM1406.33,1037.36C1407.02,1039.5 1407.61,1041.69 1408.09,1043.92C1398.36,1045.64 1383.76,1046.79 1371.56,1046.12C1369.85,1041.77 1367.3,1037.84 1364.13,1034.52C1374.07,1037.69 1391.56,1034.32 1406.33,1037.36Z" style="fill:rgb(240,237,224);"/>
            </g>
            <g transform="matrix(1,0,0,1,682.227,-183.309)">
                <path d="M1781.23,803.312C1780.67,793.328 1779.82,780.193 1778.5,762.653C1780.61,762.892 1782.73,763.092 1784.86,763.25C1784.71,776.914 1784.48,790.505 1784.14,803.517C1783.17,803.455 1782.2,803.387 1781.23,803.312ZM1785.06,734.543C1782.07,734.278 1779.11,733.915 1776.18,733.458C1775.51,725.218 1774.75,716.285 1773.91,706.594C1773.71,704.3 1773.47,701.589 1773.21,698.564C1777.07,699.502 1781.02,700.217 1785.03,700.697C1785.08,711.558 1785.09,722.947 1785.06,734.543ZM1784.82,670.763C1780.04,669.932 1775.42,668.624 1771.01,666.892C1770.25,651.303 1770.07,635.447 1771.68,625.462C1775.21,629.052 1779.5,631.898 1784.29,633.744C1784.47,643.284 1784.66,656.018 1784.82,670.763Z" style="fill:rgb(240,237,224);"/>
            </g>
        </g>
    </g>
</svg>
