<?xml version="1.0" encoding="UTF-8" standalone="no"?>
<!DOCTYPE svg PUBLIC "-//W3C//DTD SVG 1.1//EN" "http://www.w3.org/Graphics/SVG/1.1/DTD/svg11.dtd">
<svg width="100%" height="100%" viewBox="0 0 463 463" version="1.1" xmlns="http://www.w3.org/2000/svg" xmlns:xlink="http://www.w3.org/1999/xlink" xml:space="preserve" xmlns:serif="http://www.serif.com/" style="fill-rule:evenodd;clip-rule:evenodd;stroke-linecap:round;stroke-linejoin:round;stroke-miterlimit:1.5;">
    <g transform="matrix(1,0,0,1,-1306.24,-610.577)">
        <g transform="matrix(1,0,0,1,-84.3819,-350.229)">
            <g transform="matrix(1.17645,0,0,1.17645,-181.78,256.525)">
                <path d="M1728.31,607.561L1728.31,983.251C1728.31,987.191 1725.11,990.39 1721.17,990.39L1345.48,990.39C1341.54,990.39 1338.34,987.191 1338.34,983.251L1338.34,607.561C1338.34,603.621 1341.54,600.423 1345.48,600.423L1721.17,600.423C1725.11,600.423 1728.31,603.621 1728.31,607.561Z" style="fill:white;"/>
            </g>
            <g transform="matrix(1,0,0,1,-17.2845,518.895)">
                <path d="M1630.82,596.026L1631.08,595.934" style="fill:none;stroke:rgb(43,63,114);stroke-width:2.08px;"/>
            </g>
            <g transform="matrix(1,0,0,1,57.8682,362.466)">
                <path d="M1350.02,836.67C1349.18,1023.7 1342.62,1024.79 1349.87,1039.29C1355.47,1050.49 1407.96,1046.01 1417.46,1041.45C1399.38,1030.77 1369.9,1040.58 1359.74,1032.26C1355.42,901.086 1362.13,854.799 1352.38,832.445L1350.02,836.67Z" style="fill:rgb(240,237,224);"/>
            </g>
            <g transform="matrix(1.17645,0,0,1.17645,-181.78,256.525)">
                <path d="M1730.08,607.561L1730.08,983.251C1730.08,988.168 1726.08,992.161 1721.17,992.161L1345.48,992.161C1340.56,992.161 1336.57,988.168 1336.57,983.251L1336.57,607.561C1336.57,602.644 1340.56,598.652 1345.48,598.652L1721.17,598.652C1726.08,598.652 1730.08,602.644 1730.08,607.561ZM1728.31,607.561C1728.31,603.621 1725.11,600.423 1721.17,600.423L1345.48,600.423C1341.54,600.423 1338.34,603.621 1338.34,607.561L1338.34,983.251C1338.34,987.191 1341.54,990.39 1345.48,990.39L1721.17,990.39C1725.11,990.39 1728.31,987.191 1728.31,983.251L1728.31,607.561Z" style="fill:rgb(62,51,0);"/>
            </g>
            <g transform="matrix(1.17645,0,0,1.17645,-181.78,256.525)">
                <path d="M1455.3,600.423C1455.3,663.594 1404.02,714.881 1340.84,714.881C1340.01,714.881 1339.17,714.872 1338.34,714.854L1338.34,686.231C1339.17,686.255 1340.01,686.267 1340.84,686.267C1388.22,686.267 1426.69,647.801 1426.69,600.423L1455.3,600.423ZM1728.31,714.878C1665.57,714.371 1614.79,663.28 1614.79,600.423L1643.4,600.423C1643.4,647.487 1681.36,685.756 1728.31,686.262L1728.31,714.878ZM1614.79,990.39C1614.79,927.533 1665.57,876.442 1728.31,875.935L1728.31,904.551C1681.36,905.057 1643.4,943.326 1643.4,990.39L1614.79,990.39ZM1338.34,875.935C1338.65,875.932 1338.97,875.931 1339.28,875.931C1402.45,875.931 1453.74,927.218 1453.74,990.39L1425.12,990.39C1425.12,943.011 1386.66,904.546 1339.28,904.546C1338.97,904.546 1338.65,904.547 1338.34,904.551L1338.34,875.935Z" style="fill:rgb(255,208,0);"/>
            </g>
            <g transform="matrix(1,0,0,1,-32.2359,427.562)">
                <path d="M1555.56,863.477C1501.05,863.477 1456.8,819.223 1456.8,764.714C1456.8,710.205 1501.05,665.951 1555.56,665.951C1555.56,611.442 1599.82,567.188 1654.32,567.188C1708.83,567.188 1753.09,611.442 1753.09,665.951C1807.6,665.951 1851.85,710.205 1851.85,764.714C1851.85,819.223 1807.6,863.477 1753.09,863.477C1753.09,917.986 1708.83,962.241 1654.32,962.241C1599.82,962.241 1555.56,917.986 1555.56,863.477ZM1587.47,831.572C1582.84,841.236 1580.25,852.057 1580.25,863.477C1580.25,904.359 1613.44,937.55 1654.32,937.55C1695.21,937.55 1728.4,904.359 1728.4,863.477C1728.4,852.057 1725.81,841.236 1721.18,831.572C1730.85,836.196 1741.67,838.787 1753.09,838.787C1793.97,838.787 1827.16,805.596 1827.16,764.714C1827.16,723.832 1793.97,690.642 1753.09,690.642C1741.67,690.642 1730.85,693.232 1721.18,697.857C1725.81,688.192 1728.4,677.372 1728.4,665.951C1728.4,625.069 1695.21,591.878 1654.32,591.878C1613.44,591.878 1580.25,625.069 1580.25,665.951C1580.25,677.372 1582.84,688.192 1587.47,697.857C1577.8,693.232 1566.98,690.642 1555.56,690.642C1514.68,690.642 1481.49,723.832 1481.49,764.714C1481.49,805.596 1514.68,838.787 1555.56,838.787C1566.98,838.787 1577.8,836.196 1587.47,831.572Z" style="fill:rgb(43,63,114);"/>
            </g>
            <g transform="matrix(1.31251,-1.31251,1.31251,1.31251,-1552.91,2359.89)">
                <path d="M1623.31,731.707C1632.98,736.332 1642.9,745.159 1654.32,745.159C1665.75,745.159 1676.57,737.433 1686.23,732.808C1681.61,742.473 1673.88,753.293 1673.88,764.714C1673.88,776.135 1681.61,786.956 1686.23,796.62C1676.57,791.995 1665.75,784.269 1654.32,784.269C1642.9,784.269 1632.08,791.995 1622.42,796.62C1627.04,786.956 1634.77,776.135 1634.77,764.714C1634.77,753.293 1627.93,741.372 1623.31,731.707Z" style="fill:rgb(255,208,0);"/>
            </g>
            <g transform="matrix(1,0,0,1,-17.2845,518.895)">
                <path d="M1694.59,605.816C1712.14,575.051 1699.7,484.315 1608.86,517.781C1576.71,529.626 1571.61,591.955 1592.26,598.839" style="fill:none;stroke:rgb(43,63,114);stroke-width:2.08px;"/>
            </g>
            <g transform="matrix(1,0,0,1,-17.2845,518.895)">
                <path d="M1563,617.917C1551.76,608.702 1463.67,604.32 1484.35,696.012C1494.98,743.146 1559.12,744.029 1568.82,721.404" style="fill:none;stroke:rgb(43,63,114);stroke-width:2.08px;"/>
            </g>
            <g transform="matrix(1,0,0,1,-17.2845,518.895)">
                <path d="M1583.24,746.85C1584.23,752.889 1566.73,786.212 1603,822.483C1606.22,825.696 1644.57,843.326 1674.3,824.924C1695.6,811.736 1708.45,767.354 1696.27,744.354" style="fill:none;stroke:rgb(43,63,114);stroke-width:2.08px;"/>
            </g>
            <g transform="matrix(1,0,0,1,-17.2845,518.895)">
                <path d="M1714.32,730.95C1718.49,735.956 1738.97,738.529 1749.49,736.053C1812.47,721.234 1822.78,621.414 1755.84,613.977C1755.29,613.915 1755.42,613.794 1749.01,612.512C1732.03,609.116 1732.06,611.706 1716.78,619.348" style="fill:none;stroke:rgb(43,63,114);stroke-width:2.08px;"/>
            </g>
            <g transform="matrix(1,0,0,1,-17.2845,518.895)">
                <path d="M1639.37,589.37C1644.81,592.177 1656.94,558.53 1651.77,548.989C1648.95,543.778 1649.45,550.176 1642.55,568.384C1640.92,556.318 1634.36,547.544 1633.62,547.728C1632.15,548.095 1635.56,549.421 1629.59,566.202C1629.64,564.631 1630.24,547.661 1619.25,549.493C1618.75,549.576 1621.97,567.564 1625.05,573.948C1628.41,580.931 1638.79,589.949 1639.37,589.37Z" style="fill:rgb(43,63,114);stroke:rgb(43,63,114);stroke-width:2.08px;"/>
            </g>
            <g transform="matrix(6.12323e-17,1,-1,6.12323e-17,2295.38,-443.836)">
                <path d="M1636.76,589.536C1642.19,592.343 1656.94,558.53 1651.77,548.989C1648.95,543.778 1649.45,550.176 1642.55,568.384C1640.92,556.318 1634.36,547.544 1633.62,547.728C1632.15,548.095 1635.56,549.421 1629.59,566.202C1629.64,564.631 1630.24,547.661 1619.25,549.493C1618.75,549.576 1621.97,567.564 1625.05,573.948C1628.41,580.931 1636.18,590.114 1636.76,589.536Z" style="fill:rgb(43,63,114);stroke:rgb(43,63,114);stroke-width:2.08px;"/>
            </g>
            <g transform="matrix(-1,0,0,-1,3258.2,1865.66)">
                <path d="M1636.25,590.019C1641.69,592.825 1656.94,558.53 1651.77,548.989C1648.95,543.778 1649.45,550.176 1642.55,568.384C1640.92,556.318 1634.36,547.544 1633.62,547.728C1632.15,548.095 1635.56,549.421 1629.59,566.202C1629.64,564.631 1630.24,547.661 1619.25,549.493C1618.75,549.576 1621.97,567.564 1625.05,573.948C1628.41,580.931 1635.67,590.597 1636.25,590.019Z" style="fill:rgb(43,63,114);stroke:rgb(43,63,114);stroke-width:2.08px;"/>
            </g>
            <g transform="matrix(6.12323e-17,-1,1,6.12323e-17,948.691,2829.03)">
                <path d="M1639.37,589.37C1644.81,592.177 1656.94,558.53 1651.77,548.989C1648.95,543.778 1649.45,550.176 1642.55,568.384C1640.92,556.318 1634.36,547.544 1633.62,547.728C1632.15,548.095 1635.56,549.421 1629.59,566.202C1629.64,564.631 1630.24,547.661 1619.25,549.493C1618.75,549.576 1621.97,567.564 1625.05,573.948C1628.41,580.931 1638.79,589.949 1639.37,589.37Z" style="fill:rgb(43,63,114);stroke:rgb(43,63,114);stroke-width:2.08px;"/>
            </g>
            <g transform="matrix(1,0,0,1,-17.2845,518.895)">
                <path d="M1628.84,605.049C1628.93,605.084 1629.18,605.323 1629.2,605.332" style="fill:none;stroke:rgb(43,63,114);stroke-width:2.08px;"/>
            </g>
            <g transform="matrix(1,0,0,1,-17.2845,518.895)">
                <path d="M1625.38,616.302L1625.6,616.296" style="fill:none;stroke:rgb(43,63,114);stroke-width:2.08px;"/>
            </g>
            <g transform="matrix(1,0,0,1,-17.2845,518.895)">
                <path d="M1621.08,626.461L1621.53,626.478" style="fill:none;stroke:rgb(43,63,114);stroke-width:2.08px;"/>
            </g>
            <g transform="matrix(1,0,0,1,-17.2845,518.895)">
                <path d="M1614.48,636.413C1614.59,636.443 1614.69,636.473 1614.79,636.502" style="fill:none;stroke:rgb(43,63,114);stroke-width:2.08px;"/>
            </g>
            <g transform="matrix(1,0,0,1,-17.2845,518.895)">
                <path d="M1606.44,645.209L1606.65,645.274" style="fill:none;stroke:rgb(43,63,114);stroke-width:2.08px;"/>
            </g>
            <g transform="matrix(1,0,0,1,-17.2845,518.895)">
                <path d="M1594.36,652.829C1594.49,652.764 1594.62,652.7 1594.74,652.636" style="fill:none;stroke:rgb(43,63,114);stroke-width:2.08px;"/>
            </g>
            <g transform="matrix(1,0,0,1,-17.2845,518.895)">
                <path d="M1580.71,657.763C1580.78,657.793 1580.75,657.91 1580.8,657.961" style="fill:none;stroke:rgb(43,63,114);stroke-width:2.08px;"/>
            </g>
            <g transform="matrix(1,0,0,1,-17.2845,518.895)">
                <path d="M1568.63,662.306L1568.59,662.347" style="fill:none;stroke:rgb(43,63,114);stroke-width:2.08px;"/>
            </g>
            <g transform="matrix(1,0,0,1,-17.2845,518.895)">
                <path d="M1559.66,664.722C1559.71,664.609 nan,nan 1559.81,664.383" style="fill:none;stroke:rgb(43,63,114);stroke-width:2.08px;"/>
            </g>
            <g transform="matrix(1,0,0,1,-17.2845,518.895)">
                <path d="M1561.08,678.06L1561.07,677.854" style="fill:none;stroke:rgb(43,63,114);stroke-width:2.08px;"/>
            </g>
            <g transform="matrix(1,0,0,1,-17.2845,518.895)">
                <path d="M1572.79,681.22L1572.81,681.3" style="fill:none;stroke:rgb(43,63,114);stroke-width:2.08px;"/>
            </g>
            <g transform="matrix(1,0,0,1,-17.2845,518.895)">
                <path d="M1583.13,685.948C1583.25,685.876 1583.34,685.967 1583.47,685.842" style="fill:none;stroke:rgb(43,63,114);stroke-width:2.08px;"/>
            </g>
            <g transform="matrix(1,0,0,1,-17.2845,518.895)">
                <path d="M1593.8,692.246L1594.12,692.264" style="fill:none;stroke:rgb(43,63,114);stroke-width:2.08px;"/>
            </g>
            <g transform="matrix(1,0,0,1,-17.2845,518.895)">
                <path d="M1602.61,697.883C1602.7,697.837 1602.8,697.792 1602.89,697.746" style="fill:none;stroke:rgb(43,63,114);stroke-width:2.08px;"/>
            </g>
            <g transform="matrix(1,0,0,1,-17.2845,518.895)">
                <path d="M1611.88,706.328L1612.13,706.361" style="fill:none;stroke:rgb(43,63,114);stroke-width:2.08px;"/>
            </g>
            <g transform="matrix(1,0,0,1,-17.2845,518.895)">
                <path d="M1617.58,715.784L1617.92,715.759" style="fill:none;stroke:rgb(43,63,114);stroke-width:2.08px;"/>
            </g>
            <g transform="matrix(1,0,0,1,-17.2845,518.895)">
                <path d="M1623.21,727.653L1623.56,727.026" style="fill:none;stroke:rgb(43,63,114);stroke-width:2.08px;"/>
            </g>
            <g transform="matrix(1,0,0,1,-17.2845,518.895)">
                <path d="M1627.54,736.493C1627.66,736.409 1627.79,736.325 1627.91,736.24" style="fill:none;stroke:rgb(43,63,114);stroke-width:2.08px;"/>
            </g>
            <g transform="matrix(1,0,0,1,-17.2845,518.895)">
                <path d="M1631.15,746.919L1631.24,746.99" style="fill:none;stroke:rgb(43,63,114);stroke-width:2.08px;"/>
            </g>
            <g transform="matrix(1,0,0,1,-17.2845,518.895)">
                <path d="M1647.01,749.214L1647.62,749.294" style="fill:none;stroke:rgb(43,63,114);stroke-width:2.08px;"/>
            </g>
            <g transform="matrix(1,0,0,1,-17.2845,518.895)">
                <path d="M1650.96,737.641L1650.94,737.52" style="fill:none;stroke:rgb(43,63,114);stroke-width:2.08px;"/>
            </g>
            <g transform="matrix(1,0,0,1,-17.2845,518.895)">
                <path d="M1655.56,725.292C1655.62,725.21 nan,nan 1655.55,724.978" style="fill:none;stroke:rgb(43,63,114);stroke-width:2.08px;"/>
            </g>
            <g transform="matrix(1,0,0,1,-17.2845,518.895)">
                <path d="M1660.76,712.808L1660.67,712.693" style="fill:none;stroke:rgb(43,63,114);stroke-width:2.08px;"/>
            </g>
            <g transform="matrix(1,0,0,1,-17.2845,518.895)">
                <path d="M1668.13,702.146C1668.38,701.915 1668.38,702.165 1668.6,701.943" style="fill:none;stroke:rgb(43,63,114);stroke-width:2.08px;"/>
            </g>
            <g transform="matrix(1,0,0,1,-17.2845,518.895)">
                <path d="M1679.41,693.812L1679.87,693.752" style="fill:none;stroke:rgb(43,63,114);stroke-width:2.08px;"/>
            </g>
            <g transform="matrix(1,0,0,1,-17.2845,518.895)">
                <path d="M1694.62,687.199L1694.71,687.097" style="fill:none;stroke:rgb(43,63,114);stroke-width:2.08px;"/>
            </g>
            <g transform="matrix(1,0,0,1,-17.2845,518.895)">
                <path d="M1707.97,683.42C1707.87,683.217 1707.85,683.258 1707.77,683.258" style="fill:none;stroke:rgb(43,63,114);stroke-width:2.08px;"/>
            </g>
            <g transform="matrix(1,0,0,1,-17.2845,518.895)">
                <path d="M1719.02,680.923C1719.11,680.848 1719.2,680.773 1719.28,680.698" style="fill:none;stroke:rgb(43,63,114);stroke-width:2.08px;"/>
            </g>
            <g transform="matrix(1,0,0,1,-17.2845,518.895)">
                <path d="M1718.79,667.427L1719.03,667.389" style="fill:none;stroke:rgb(43,63,114);stroke-width:2.08px;"/>
            </g>
            <g transform="matrix(1,0,0,1,-17.2845,518.895)">
                <path d="M1701.79,661.59L1702.39,661.502" style="fill:none;stroke:rgb(43,63,114);stroke-width:2.08px;"/>
            </g>
            <g transform="matrix(1,0,0,1,-17.2845,518.895)">
                <path d="M1684.65,653.289L1684.99,653.311" style="fill:none;stroke:rgb(43,63,114);stroke-width:2.08px;"/>
            </g>
            <g transform="matrix(1,0,0,1,-17.2845,518.895)">
                <path d="M1673.8,647.52C1673.86,647.488 1673.92,647.456 1673.98,647.424" style="fill:none;stroke:rgb(43,63,114);stroke-width:2.08px;"/>
            </g>
            <g transform="matrix(1,0,0,1,-17.2845,518.895)">
                <path d="M1664.11,638.579C1664.24,638.541 1664.38,638.504 1664.51,638.466" style="fill:none;stroke:rgb(43,63,114);stroke-width:2.08px;"/>
            </g>
            <g transform="matrix(1,0,0,1,-17.2845,518.895)">
                <path d="M1657.79,626.702C1657.89,626.528 1658,626.354 1658.11,626.18" style="fill:none;stroke:rgb(43,63,114);stroke-width:2.08px;"/>
            </g>
            <g transform="matrix(1,0,0,1,-17.2845,518.895)">
                <path d="M1653.36,614.218C1653.32,614.281 1653.28,614.344 1653.25,614.407" style="fill:none;stroke:rgb(43,63,114);stroke-width:2.08px;"/>
            </g>
            <g transform="matrix(1,0,0,1,-17.2845,518.895)">
                <path d="M1648.56,603.826C1648.64,603.656 1648.87,603.199 1648.9,603.145" style="fill:none;stroke:rgb(43,63,114);stroke-width:2.08px;"/>
            </g>
            <g transform="matrix(1,0,0,1,-17.2845,518.895)">
                <path d="M1645.01,595.425L1645.83,595.466" style="fill:none;stroke:rgb(43,63,114);stroke-width:2.08px;"/>
            </g>
            <g transform="matrix(1,0,0,1,-17.2845,518.895)">
                <path d="M1460.31,451.585C1424.31,446.442 1422.57,450.698 1420.18,452.783C1411.94,459.997 1416.93,494.466 1419.12,502.845C1425.58,492.54 1424.14,492.158 1427.64,480.729C1440.73,495.182 1441.48,495.584 1443.02,496.417C1447.85,499.018 1442.99,487.378 1436.85,476.733C1447.47,478.733 1447.21,478.651 1457.86,480.989C1457.63,476.477 1455.52,471.313 1441.89,464.234C1443.65,463.793 1465.41,460.537 1466.48,457.347C1466.93,455.989 1464.89,451.585 1460.31,451.585" style="fill:rgb(43,63,114);"/>
            </g>
            <g transform="matrix(1,0,0,-1,-12.9666,1863.75)">
                <path d="M1460.31,451.585C1424.31,446.442 1422.57,450.698 1420.18,452.783C1411.94,459.997 1416.93,494.466 1419.12,502.845C1425.58,492.54 1424.14,492.158 1427.64,480.729C1440.73,495.182 1441.48,495.584 1443.02,496.417C1447.85,499.018 1442.99,487.378 1436.85,476.733C1447.47,478.733 1447.21,478.651 1457.86,480.989C1457.63,476.477 1455.52,471.313 1441.89,464.234C1443.65,463.793 1465.41,460.537 1466.48,457.347C1466.93,455.989 1464.89,451.585 1460.31,451.585" style="fill:rgb(43,63,114);"/>
            </g>
            <g transform="matrix(1,0,0,-1,-12.9666,1863.75)">
                <path d="M1417.64,495.353C1418.16,498.58 1418.69,501.209 1419.12,502.845C1425.58,492.54 1424.14,492.158 1427.64,480.729C1428.52,481.709 1429.36,482.624 1430.13,483.479C1430.27,478.776 1430.41,473.957 1430.58,469.017C1433.61,466.532 1438.37,465.665 1444.03,465.386C1443.35,465.008 1442.64,464.624 1441.89,464.234C1443.65,463.793 1465.41,460.537 1466.48,457.347C1466.6,456.981 1466.54,456.395 1466.3,455.733C1447.73,454.057 1424.34,454.72 1420.7,461.994C1417.24,468.923 1416.93,472.788 1417.64,495.353Z" style="fill:rgb(116,134,180);"/>
            </g>
            <g transform="matrix(-1,0,0,-1,3258.5,1859.3)">
                <path d="M1460.31,451.585C1424.31,446.442 1422.57,450.698 1420.18,452.783C1411.94,459.997 1416.93,494.466 1419.12,502.845C1425.58,492.54 1424.14,492.158 1427.64,480.729C1440.73,495.182 1441.48,495.584 1443.02,496.417C1447.85,499.018 1442.99,487.378 1436.85,476.733C1447.47,478.733 1447.21,478.651 1457.86,480.989C1457.63,476.477 1455.52,471.313 1441.89,464.234C1443.65,463.793 1465.41,460.537 1466.48,457.347C1466.93,455.989 1464.89,451.585 1460.31,451.585" style="fill:rgb(43,63,114);"/>
            </g>
            <g transform="matrix(-1,0,0,1,3254.18,523.338)">
                <path d="M1460.31,451.585C1424.31,446.442 1422.57,450.698 1420.18,452.783C1411.94,459.997 1416.93,494.466 1419.12,502.845C1425.58,492.54 1424.14,492.158 1427.64,480.729C1440.73,495.182 1441.48,495.584 1443.02,496.417C1447.85,499.018 1442.99,487.378 1436.85,476.733C1447.47,478.733 1447.21,478.651 1457.86,480.989C1457.63,476.477 1455.52,471.313 1441.89,464.234C1443.65,463.793 1465.41,460.537 1466.48,457.347C1466.93,455.989 1464.89,451.585 1460.31,451.585" style="fill:rgb(43,63,114);"/>
            </g>
            <g transform="matrix(1,0,0,1,50.4638,363.26)">
                <path d="M1776.13,615.335C1778.97,614.127 1782.32,612.38 1783.77,615.246C1784.18,616.07 1787.03,758.266 1782.74,841.201C1781.42,830.491 1784.67,830.379 1773.91,706.594C1771.92,683.757 1766.17,619.582 1776.13,615.335Z" style="fill:rgb(240,237,224);"/>
            </g>
            <g transform="matrix(1.17645,0,0,1.17645,-181.78,256.525)">
                <path d="M1707.08,712.733C1706.54,706.133 1705.93,699.019 1705.27,691.345C1705.06,688.933 1704.8,685.978 1704.52,682.646C1707.84,683.644 1711.24,684.446 1714.72,685.04C1714.76,694.307 1714.77,704.043 1714.75,713.97C1712.16,713.643 1709.61,713.229 1707.08,712.733Z" style="fill:rgb(209,172,11);"/>
            </g>
            <g transform="matrix(-1,0,0,1,3254.18,523.338)">
                <path d="M1433.27,486.909C1433.3,470.524 1431.96,457.121 1427.58,455.258C1424.75,454.049 1421.4,452.302 1419.95,455.168C1419.8,455.468 1419.33,474.389 1418.99,502.34C1419.04,502.517 1419.08,502.686 1419.12,502.845C1425.58,492.54 1424.14,492.158 1427.64,480.729C1429.84,483.165 1431.7,485.202 1433.27,486.909Z" style="fill:rgb(116,134,180);"/>
            </g>
            <g transform="matrix(1,0,0,1,57.8682,362.466)">
                <path d="M1349.04,925.174C1352.08,925.468 1355.1,925.864 1358.08,926.357C1358.08,936.704 1358.11,948.102 1358.23,960.678C1354.97,959.943 1351.65,959.365 1348.28,958.954C1348.54,949.139 1348.8,937.953 1349.04,925.174Z" style="fill:rgb(209,172,11);"/>
            </g>
        </g>
    </g>
</svg>
