<?xml version="1.0" encoding="UTF-8" standalone="no"?>
<svg
   width="931.88934"
   height="206.32895"
   viewBox="0 0 931.88934 206.32895"
   version="1.1"
   xml:space="preserve"
   style="clip-rule:evenodd;fill-rule:evenodd;stroke-linecap:round;stroke-linejoin:round;stroke-miterlimit:1.5"
   id="svg1140"
   sodipodi:docname="optionB.svg"
   inkscape:version="1.2.1 (9c6d41e410, 2022-07-14)"
   xmlns:inkscape="http://www.inkscape.org/namespaces/inkscape"
   xmlns:sodipodi="http://sodipodi.sourceforge.net/DTD/sodipodi-0.dtd"
   xmlns="http://www.w3.org/2000/svg"
   xmlns:svg="http://www.w3.org/2000/svg"><defs
   id="defs1140">
        
        
        
        
        
        
        
        
        
        
        
        
        
        
        
        
        
    </defs><sodipodi:namedview
   id="namedview1140"
   pagecolor="#ffffff"
   bordercolor="#000000"
   borderopacity="0.25"
   inkscape:showpageshadow="2"
   inkscape:pageopacity="0.0"
   inkscape:pagecheckerboard="0"
   inkscape:deskcolor="#d1d1d1"
   inkscape:zoom="0.4368932"
   inkscape:cx="334.17778"
   inkscape:cy="8.0111112"
   inkscape:window-width="2560"
   inkscape:window-height="1560"
   inkscape:window-x="-12"
   inkscape:window-y="-12"
   inkscape:window-maximized="1"
   inkscape:current-layer="svg1140"
   showgrid="false" />
    <g
   transform="translate(-2064.2237,-1948.6118)"
   id="g295">
            <g
   id="g294">
                <g
   transform="matrix(0.44368,0,0,0.44368,2173.72,1523.25)"
   id="g209">
                    <g
   transform="matrix(1.17645,0,0,1.17645,-181.78,256.525)"
   id="g148">
                        <path
   d="m 1728.31,607.561 v 375.69 c 0,3.94 -3.2,7.139 -7.14,7.139 h -375.69 c -3.94,0 -7.14,-3.199 -7.14,-7.139 v -375.69 c 0,-3.94 3.2,-7.138 7.14,-7.138 h 375.69 c 3.94,0 7.14,3.198 7.14,7.138 z"
   style="fill:#ffffff"
   id="path147" />
                    </g>
                    <g
   transform="translate(-17.2845,518.895)"
   id="g149">
                        <path
   d="m 1630.82,596.026 0.26,-0.092"
   style="fill:none;stroke:#2b3f72;stroke-width:4.7px"
   id="path148" />
                    </g>
                    <g
   transform="translate(57.8682,362.466)"
   id="g150">
                        <path
   d="m 1350.02,836.67 c -0.84,187.03 -7.4,188.12 -0.15,202.62 5.6,11.2 58.09,6.72 67.59,2.16 -18.08,-10.68 -47.56,-0.87 -57.72,-9.19 -4.32,-131.174 2.39,-177.461 -7.36,-199.815 z"
   style="fill:#f0ede0"
   id="path149" />
                    </g>
                    <g
   transform="matrix(1.17645,0,0,1.17645,-181.78,256.525)"
   id="g151">
                        <path
   d="m 1730.08,607.561 v 375.69 c 0,4.917 -4,8.91 -8.91,8.91 h -375.69 c -4.92,0 -8.91,-3.993 -8.91,-8.91 v -375.69 c 0,-4.917 3.99,-8.909 8.91,-8.909 h 375.69 c 4.91,0 8.91,3.992 8.91,8.909 z m -1.77,0 c 0,-3.94 -3.2,-7.138 -7.14,-7.138 h -375.69 c -3.94,0 -7.14,3.198 -7.14,7.138 v 375.69 c 0,3.94 3.2,7.139 7.14,7.139 h 375.69 c 3.94,0 7.14,-3.199 7.14,-7.139 z"
   style="fill:#3e3300"
   id="path150" />
                    </g>
                    <g
   transform="matrix(1.17645,0,0,1.17645,-181.78,256.525)"
   id="g152">
                        <path
   d="m 1455.3,600.423 c 0,63.171 -51.28,114.458 -114.46,114.458 -0.83,0 -1.67,-0.009 -2.5,-0.027 v -28.623 c 0.83,0.024 1.67,0.036 2.5,0.036 47.38,0 85.85,-38.466 85.85,-85.844 z m 273.01,114.455 c -62.74,-0.507 -113.52,-51.598 -113.52,-114.455 h 28.61 c 0,47.064 37.96,85.333 84.91,85.839 z M 1614.79,990.39 c 0,-62.857 50.78,-113.948 113.52,-114.455 v 28.616 c -46.95,0.506 -84.91,38.775 -84.91,85.839 z M 1338.34,875.935 c 0.31,-0.003 0.63,-0.004 0.94,-0.004 63.17,0 114.46,51.287 114.46,114.459 h -28.62 c 0,-47.379 -38.46,-85.844 -85.84,-85.844 -0.31,0 -0.63,10e-4 -0.94,0.005 z"
   style="fill:#ffd000"
   id="path151" />
                    </g>
                    <g
   transform="translate(-32.2359,427.562)"
   id="g153">
                        <path
   d="m 1555.56,863.477 c -54.51,0 -98.76,-44.254 -98.76,-98.763 0,-54.509 44.25,-98.763 98.76,-98.763 0,-54.509 44.26,-98.763 98.76,-98.763 54.51,0 98.77,44.254 98.77,98.763 54.51,0 98.76,44.254 98.76,98.763 0,54.509 -44.25,98.763 -98.76,98.763 0,54.509 -44.26,98.764 -98.77,98.764 -54.5,0 -98.76,-44.255 -98.76,-98.764 z m 31.91,-31.905 c -4.63,9.664 -7.22,20.485 -7.22,31.905 0,40.882 33.19,74.073 74.07,74.073 40.89,0 74.08,-33.191 74.08,-74.073 0,-11.42 -2.59,-22.241 -7.22,-31.905 9.67,4.624 20.49,7.215 31.91,7.215 40.88,0 74.07,-33.191 74.07,-74.073 0,-40.882 -33.19,-74.072 -74.07,-74.072 -11.42,0 -22.24,2.59 -31.91,7.215 4.63,-9.665 7.22,-20.485 7.22,-31.906 0,-40.882 -33.19,-74.073 -74.08,-74.073 -40.88,0 -74.07,33.191 -74.07,74.073 0,11.421 2.59,22.241 7.22,31.906 -9.67,-4.625 -20.49,-7.215 -31.91,-7.215 -40.88,0 -74.07,33.19 -74.07,74.072 0,40.882 33.19,74.073 74.07,74.073 11.42,0 22.24,-2.591 31.91,-7.215 z"
   style="fill:#2b3f72"
   id="path152" />
                    </g>
                    <g
   transform="matrix(1.31251,-1.31251,1.31251,1.31251,-1552.91,2359.89)"
   id="g154">
                        <path
   d="m 1623.31,731.707 c 9.67,4.625 19.59,13.452 31.01,13.452 11.43,0 22.25,-7.726 31.91,-12.351 -4.62,9.665 -12.35,20.485 -12.35,31.906 0,11.421 7.73,22.242 12.35,31.906 -9.66,-4.625 -20.48,-12.351 -31.91,-12.351 -11.42,0 -22.24,7.726 -31.9,12.351 4.62,-9.664 12.35,-20.485 12.35,-31.906 0,-11.421 -6.84,-23.342 -11.46,-33.007 z"
   style="fill:#ffd000"
   id="path153" />
                    </g>
                    <g
   transform="translate(-17.2845,518.895)"
   id="g155">
                        <path
   d="m 1694.59,605.816 c 17.55,-30.765 5.11,-121.501 -85.73,-88.035 -32.15,11.845 -37.25,74.174 -16.6,81.058"
   style="fill:none;stroke:#2b3f72;stroke-width:4.7px"
   id="path154" />
                    </g>
                    <g
   transform="translate(-17.2845,518.895)"
   id="g156">
                        <path
   d="m 1563,617.917 c -11.24,-9.215 -99.33,-13.597 -78.65,78.095 10.63,47.134 74.77,48.017 84.47,25.392"
   style="fill:none;stroke:#2b3f72;stroke-width:4.7px"
   id="path155" />
                    </g>
                    <g
   transform="translate(-17.2845,518.895)"
   id="g157">
                        <path
   d="m 1583.24,746.85 c 0.99,6.039 -16.51,39.362 19.76,75.633 3.22,3.213 41.57,20.843 71.3,2.441 21.3,-13.188 34.15,-57.57 21.97,-80.57"
   style="fill:none;stroke:#2b3f72;stroke-width:4.7px"
   id="path156" />
                    </g>
                    <g
   transform="translate(-17.2845,518.895)"
   id="g158">
                        <path
   d="m 1714.32,730.95 c 4.17,5.006 24.65,7.579 35.17,5.103 62.98,-14.819 73.29,-114.639 6.35,-122.076 -0.55,-0.062 -0.42,-0.183 -6.83,-1.465 -16.98,-3.396 -16.95,-0.806 -32.23,6.836"
   style="fill:none;stroke:#2b3f72;stroke-width:4.7px"
   id="path157" />
                    </g>
                    <g
   transform="translate(-17.2845,518.895)"
   id="g159">
                        <path
   d="m 1639.37,589.37 c 5.44,2.807 17.57,-30.84 12.4,-40.381 -2.82,-5.211 -2.32,1.187 -9.22,19.395 -1.63,-12.066 -8.19,-20.84 -8.93,-20.656 -1.47,0.367 1.94,1.693 -4.03,18.474 0.05,-1.571 0.65,-18.541 -10.34,-16.709 -0.5,0.083 2.72,18.071 5.8,24.455 3.36,6.983 13.74,16.001 14.32,15.422 z"
   style="fill:#2b3f72;stroke:#2b3f72;stroke-width:4.7px"
   id="path158" />
                    </g>
                    <g
   transform="rotate(90,1369.608,925.772)"
   id="g160">
                        <path
   d="m 1636.76,589.536 c 5.43,2.807 20.18,-31.006 15.01,-40.547 -2.82,-5.211 -2.32,1.187 -9.22,19.395 -1.63,-12.066 -8.19,-20.84 -8.93,-20.656 -1.47,0.367 1.94,1.693 -4.03,18.474 0.05,-1.571 0.65,-18.541 -10.34,-16.709 -0.5,0.083 2.72,18.071 5.8,24.455 3.36,6.983 11.13,16.166 11.71,15.588 z"
   style="fill:#2b3f72;stroke:#2b3f72;stroke-width:4.7px"
   id="path159" />
                    </g>
                    <g
   transform="rotate(180,1629.1,932.83)"
   id="g161">
                        <path
   d="m 1636.25,590.019 c 5.44,2.806 20.69,-31.489 15.52,-41.03 -2.82,-5.211 -2.32,1.187 -9.22,19.395 -1.63,-12.066 -8.19,-20.84 -8.93,-20.656 -1.47,0.367 1.94,1.693 -4.03,18.474 0.05,-1.571 0.65,-18.541 -10.34,-16.709 -0.5,0.083 2.72,18.071 5.8,24.455 3.36,6.983 10.62,16.649 11.2,16.071 z"
   style="fill:#2b3f72;stroke:#2b3f72;stroke-width:4.7px"
   id="path160" />
                    </g>
                    <g
   transform="rotate(-90,1888.8605,940.1695)"
   id="g162">
                        <path
   d="m 1639.37,589.37 c 5.44,2.807 17.57,-30.84 12.4,-40.381 -2.82,-5.211 -2.32,1.187 -9.22,19.395 -1.63,-12.066 -8.19,-20.84 -8.93,-20.656 -1.47,0.367 1.94,1.693 -4.03,18.474 0.05,-1.571 0.65,-18.541 -10.34,-16.709 -0.5,0.083 2.72,18.071 5.8,24.455 3.36,6.983 13.74,16.001 14.32,15.422 z"
   style="fill:#2b3f72;stroke:#2b3f72;stroke-width:4.7px"
   id="path161" />
                    </g>
                    <g
   transform="translate(-17.2845,518.895)"
   id="g163">
                        <path
   d="m 1628.84,605.049 c 0.09,0.035 0.34,0.274 0.36,0.283"
   style="fill:none;stroke:#2b3f72;stroke-width:4.7px"
   id="path162" />
                    </g>
                    <g
   transform="translate(-17.2845,518.895)"
   id="g164">
                        <path
   d="m 1625.38,616.302 0.22,-0.006"
   style="fill:none;stroke:#2b3f72;stroke-width:4.7px"
   id="path163" />
                    </g>
                    <g
   transform="translate(-17.2845,518.895)"
   id="g165">
                        <path
   d="m 1621.08,626.461 0.45,0.017"
   style="fill:none;stroke:#2b3f72;stroke-width:4.7px"
   id="path164" />
                    </g>
                    <g
   transform="translate(-17.2845,518.895)"
   id="g166">
                        <path
   d="m 1614.48,636.413 c 0.11,0.03 0.21,0.06 0.31,0.089"
   style="fill:none;stroke:#2b3f72;stroke-width:4.7px"
   id="path165" />
                    </g>
                    <g
   transform="translate(-17.2845,518.895)"
   id="g167">
                        <path
   d="m 1606.44,645.209 0.21,0.065"
   style="fill:none;stroke:#2b3f72;stroke-width:4.7px"
   id="path166" />
                    </g>
                    <g
   transform="translate(-17.2845,518.895)"
   id="g168">
                        <path
   d="m 1594.36,652.829 c 0.13,-0.065 0.26,-0.129 0.38,-0.193"
   style="fill:none;stroke:#2b3f72;stroke-width:4.7px"
   id="path167" />
                    </g>
                    <g
   transform="translate(-17.2845,518.895)"
   id="g169">
                        <path
   d="m 1580.71,657.763 c 0.07,0.03 0.04,0.147 0.09,0.198"
   style="fill:none;stroke:#2b3f72;stroke-width:4.7px"
   id="path168" />
                    </g>
                    <g
   transform="translate(-17.2845,518.895)"
   id="g170">
                        <path
   d="m 1568.63,662.306 -0.04,0.041"
   style="fill:none;stroke:#2b3f72;stroke-width:4.7px"
   id="path169" />
                    </g>
                    <g
   transform="translate(-17.2845,518.895)"
   id="g171">
                        <path
   d="M 1559.66,664.722"
   style="fill:none;stroke:#2b3f72;stroke-width:4.7px"
   id="path170" />
                    </g>
                    <g
   transform="translate(-17.2845,518.895)"
   id="g172">
                        <path
   d="m 1561.08,678.06 -0.01,-0.206"
   style="fill:none;stroke:#2b3f72;stroke-width:4.7px"
   id="path171" />
                    </g>
                    <g
   transform="translate(-17.2845,518.895)"
   id="g173">
                        <path
   d="m 1572.79,681.22 0.02,0.08"
   style="fill:none;stroke:#2b3f72;stroke-width:4.7px"
   id="path172" />
                    </g>
                    <g
   transform="translate(-17.2845,518.895)"
   id="g174">
                        <path
   d="m 1583.13,685.948 c 0.12,-0.072 0.21,0.019 0.34,-0.106"
   style="fill:none;stroke:#2b3f72;stroke-width:4.7px"
   id="path173" />
                    </g>
                    <g
   transform="translate(-17.2845,518.895)"
   id="g175">
                        <path
   d="m 1593.8,692.246 0.32,0.018"
   style="fill:none;stroke:#2b3f72;stroke-width:4.7px"
   id="path174" />
                    </g>
                    <g
   transform="translate(-17.2845,518.895)"
   id="g176">
                        <path
   d="m 1602.61,697.883 c 0.09,-0.046 0.19,-0.091 0.28,-0.137"
   style="fill:none;stroke:#2b3f72;stroke-width:4.7px"
   id="path175" />
                    </g>
                    <g
   transform="translate(-17.2845,518.895)"
   id="g177">
                        <path
   d="m 1611.88,706.328 0.25,0.033"
   style="fill:none;stroke:#2b3f72;stroke-width:4.7px"
   id="path176" />
                    </g>
                    <g
   transform="translate(-17.2845,518.895)"
   id="g178">
                        <path
   d="m 1617.58,715.784 0.34,-0.025"
   style="fill:none;stroke:#2b3f72;stroke-width:4.7px"
   id="path177" />
                    </g>
                    <g
   transform="translate(-17.2845,518.895)"
   id="g179">
                        <path
   d="m 1623.21,727.653 0.35,-0.627"
   style="fill:none;stroke:#2b3f72;stroke-width:4.7px"
   id="path178" />
                    </g>
                    <g
   transform="translate(-17.2845,518.895)"
   id="g180">
                        <path
   d="m 1627.54,736.493 c 0.12,-0.084 0.25,-0.168 0.37,-0.253"
   style="fill:none;stroke:#2b3f72;stroke-width:4.7px"
   id="path179" />
                    </g>
                    <g
   transform="translate(-17.2845,518.895)"
   id="g181">
                        <path
   d="m 1631.15,746.919 0.09,0.071"
   style="fill:none;stroke:#2b3f72;stroke-width:4.7px"
   id="path180" />
                    </g>
                    <g
   transform="translate(-17.2845,518.895)"
   id="g182">
                        <path
   d="m 1647.01,749.214 0.61,0.08"
   style="fill:none;stroke:#2b3f72;stroke-width:4.7px"
   id="path181" />
                    </g>
                    <g
   transform="translate(-17.2845,518.895)"
   id="g183">
                        <path
   d="m 1650.96,737.641 -0.02,-0.121"
   style="fill:none;stroke:#2b3f72;stroke-width:4.7px"
   id="path182" />
                    </g>
                    <g
   transform="translate(-17.2845,518.895)"
   id="g184">
                        <path
   d="M 1655.56,725.292"
   style="fill:none;stroke:#2b3f72;stroke-width:4.7px"
   id="path183" />
                    </g>
                    <g
   transform="translate(-17.2845,518.895)"
   id="g185">
                        <path
   d="m 1660.76,712.808 -0.09,-0.115"
   style="fill:none;stroke:#2b3f72;stroke-width:4.7px"
   id="path184" />
                    </g>
                    <g
   transform="translate(-17.2845,518.895)"
   id="g186">
                        <path
   d="m 1668.13,702.146 c 0.25,-0.231 0.25,0.019 0.47,-0.203"
   style="fill:none;stroke:#2b3f72;stroke-width:4.7px"
   id="path185" />
                    </g>
                    <g
   transform="translate(-17.2845,518.895)"
   id="g187">
                        <path
   d="m 1679.41,693.812 0.46,-0.06"
   style="fill:none;stroke:#2b3f72;stroke-width:4.7px"
   id="path186" />
                    </g>
                    <g
   transform="translate(-17.2845,518.895)"
   id="g188">
                        <path
   d="m 1694.62,687.199 0.09,-0.102"
   style="fill:none;stroke:#2b3f72;stroke-width:4.7px"
   id="path187" />
                    </g>
                    <g
   transform="translate(-17.2845,518.895)"
   id="g189">
                        <path
   d="m 1707.97,683.42 c -0.1,-0.203 -0.12,-0.162 -0.2,-0.162"
   style="fill:none;stroke:#2b3f72;stroke-width:4.7px"
   id="path188" />
                    </g>
                    <g
   transform="translate(-17.2845,518.895)"
   id="g190">
                        <path
   d="m 1719.02,680.923 c 0.09,-0.075 0.18,-0.15 0.26,-0.225"
   style="fill:none;stroke:#2b3f72;stroke-width:4.7px"
   id="path189" />
                    </g>
                    <g
   transform="translate(-17.2845,518.895)"
   id="g191">
                        <path
   d="m 1718.79,667.427 0.24,-0.038"
   style="fill:none;stroke:#2b3f72;stroke-width:4.7px"
   id="path190" />
                    </g>
                    <g
   transform="translate(-17.2845,518.895)"
   id="g192">
                        <path
   d="m 1701.79,661.59 0.6,-0.088"
   style="fill:none;stroke:#2b3f72;stroke-width:4.7px"
   id="path191" />
                    </g>
                    <g
   transform="translate(-17.2845,518.895)"
   id="g193">
                        <path
   d="m 1684.65,653.289 0.34,0.022"
   style="fill:none;stroke:#2b3f72;stroke-width:4.7px"
   id="path192" />
                    </g>
                    <g
   transform="translate(-17.2845,518.895)"
   id="g194">
                        <path
   d="m 1673.8,647.52 c 0.06,-0.032 0.12,-0.064 0.18,-0.096"
   style="fill:none;stroke:#2b3f72;stroke-width:4.7px"
   id="path193" />
                    </g>
                    <g
   transform="translate(-17.2845,518.895)"
   id="g195">
                        <path
   d="m 1664.11,638.579 c 0.13,-0.038 0.27,-0.075 0.4,-0.113"
   style="fill:none;stroke:#2b3f72;stroke-width:4.7px"
   id="path194" />
                    </g>
                    <g
   transform="translate(-17.2845,518.895)"
   id="g196">
                        <path
   d="m 1657.79,626.702 c 0.1,-0.174 0.21,-0.348 0.32,-0.522"
   style="fill:none;stroke:#2b3f72;stroke-width:4.7px"
   id="path195" />
                    </g>
                    <g
   transform="translate(-17.2845,518.895)"
   id="g197">
                        <path
   d="m 1653.36,614.218 c -0.04,0.063 -0.08,0.126 -0.11,0.189"
   style="fill:none;stroke:#2b3f72;stroke-width:4.7px"
   id="path196" />
                    </g>
                    <g
   transform="translate(-17.2845,518.895)"
   id="g198">
                        <path
   d="m 1648.56,603.826 c 0.08,-0.17 0.31,-0.627 0.34,-0.681"
   style="fill:none;stroke:#2b3f72;stroke-width:4.7px"
   id="path197" />
                    </g>
                    <g
   transform="translate(-17.2845,518.895)"
   id="g199">
                        <path
   d="m 1645.01,595.425 0.82,0.041"
   style="fill:none;stroke:#2b3f72;stroke-width:4.7px"
   id="path198" />
                    </g>
                    <g
   transform="translate(-17.2845,518.895)"
   id="g200">
                        <path
   d="m 1460.31,451.585 c -36,-5.143 -37.74,-0.887 -40.13,1.198 -8.24,7.214 -3.25,41.683 -1.06,50.062 6.46,-10.305 5.02,-10.687 8.52,-22.116 13.09,14.453 13.84,14.855 15.38,15.688 4.83,2.601 -0.03,-9.039 -6.17,-19.684 10.62,2 10.36,1.918 21.01,4.256 -0.23,-4.512 -2.34,-9.676 -15.97,-16.755 1.76,-0.441 23.52,-3.697 24.59,-6.887 0.45,-1.358 -1.59,-5.762 -6.17,-5.762"
   style="fill:#2b3f72"
   id="path199" />
                    </g>
                    <g
   transform="matrix(1,0,0,-1,-12.9666,1863.75)"
   id="g201">
                        <path
   d="m 1460.31,451.585 c -36,-5.143 -37.74,-0.887 -40.13,1.198 -8.24,7.214 -3.25,41.683 -1.06,50.062 6.46,-10.305 5.02,-10.687 8.52,-22.116 13.09,14.453 13.84,14.855 15.38,15.688 4.83,2.601 -0.03,-9.039 -6.17,-19.684 10.62,2 10.36,1.918 21.01,4.256 -0.23,-4.512 -2.34,-9.676 -15.97,-16.755 1.76,-0.441 23.52,-3.697 24.59,-6.887 0.45,-1.358 -1.59,-5.762 -6.17,-5.762"
   style="fill:#2b3f72"
   id="path200" />
                    </g>
                    <g
   transform="matrix(1,0,0,-1,-12.9666,1863.75)"
   id="g202">
                        <path
   d="m 1417.64,495.353 c 0.52,3.227 1.05,5.856 1.48,7.492 6.46,-10.305 5.02,-10.687 8.52,-22.116 0.88,0.98 1.72,1.895 2.49,2.75 0.14,-4.703 0.28,-9.522 0.45,-14.462 3.03,-2.485 7.79,-3.352 13.45,-3.631 -0.68,-0.378 -1.39,-0.762 -2.14,-1.152 1.76,-0.441 23.52,-3.697 24.59,-6.887 0.12,-0.366 0.06,-0.952 -0.18,-1.614 -18.57,-1.676 -41.96,-1.013 -45.6,6.261 -3.46,6.929 -3.77,10.794 -3.06,33.359 z"
   style="fill:#7486b4"
   id="path201" />
                    </g>
                    <g
   transform="rotate(180,1629.25,929.65)"
   id="g203">
                        <path
   d="m 1460.31,451.585 c -36,-5.143 -37.74,-0.887 -40.13,1.198 -8.24,7.214 -3.25,41.683 -1.06,50.062 6.46,-10.305 5.02,-10.687 8.52,-22.116 13.09,14.453 13.84,14.855 15.38,15.688 4.83,2.601 -0.03,-9.039 -6.17,-19.684 10.62,2 10.36,1.918 21.01,4.256 -0.23,-4.512 -2.34,-9.676 -15.97,-16.755 1.76,-0.441 23.52,-3.697 24.59,-6.887 0.45,-1.358 -1.59,-5.762 -6.17,-5.762"
   style="fill:#2b3f72"
   id="path202" />
                    </g>
                    <g
   transform="matrix(-1,0,0,1,3254.18,523.338)"
   id="g204">
                        <path
   d="m 1460.31,451.585 c -36,-5.143 -37.74,-0.887 -40.13,1.198 -8.24,7.214 -3.25,41.683 -1.06,50.062 6.46,-10.305 5.02,-10.687 8.52,-22.116 13.09,14.453 13.84,14.855 15.38,15.688 4.83,2.601 -0.03,-9.039 -6.17,-19.684 10.62,2 10.36,1.918 21.01,4.256 -0.23,-4.512 -2.34,-9.676 -15.97,-16.755 1.76,-0.441 23.52,-3.697 24.59,-6.887 0.45,-1.358 -1.59,-5.762 -6.17,-5.762"
   style="fill:#2b3f72"
   id="path203" />
                    </g>
                    <g
   transform="translate(50.4638,363.26)"
   id="g205">
                        <path
   d="m 1776.13,615.335 c 2.84,-1.208 6.19,-2.955 7.64,-0.089 0.41,0.824 3.26,143.02 -1.03,225.955 -1.32,-10.71 1.93,-10.822 -8.83,-134.607 -1.99,-22.837 -7.74,-87.012 2.22,-91.259 z"
   style="fill:#f0ede0"
   id="path204" />
                    </g>
                    <g
   transform="matrix(1.17645,0,0,1.17645,-181.78,256.525)"
   id="g206">
                        <path
   d="m 1707.08,712.733 c -0.54,-6.6 -1.15,-13.714 -1.81,-21.388 -0.21,-2.412 -0.47,-5.367 -0.75,-8.699 3.32,0.998 6.72,1.8 10.2,2.394 0.04,9.267 0.05,19.003 0.03,28.93 -2.59,-0.327 -5.14,-0.741 -7.67,-1.237 z"
   style="fill:#d1ac0b"
   id="path205" />
                    </g>
                    <g
   transform="matrix(-1,0,0,1,3254.18,523.338)"
   id="g207">
                        <path
   d="m 1433.27,486.909 c 0.03,-16.385 -1.31,-29.788 -5.69,-31.651 -2.83,-1.209 -6.18,-2.956 -7.63,-0.09 -0.15,0.3 -0.62,19.221 -0.96,47.172 0.05,0.177 0.09,0.346 0.13,0.505 6.46,-10.305 5.02,-10.687 8.52,-22.116 2.2,2.436 4.06,4.473 5.63,6.18 z"
   style="fill:#7486b4"
   id="path206" />
                    </g>
                    <g
   transform="translate(57.8682,362.466)"
   id="g208">
                        <path
   d="m 1349.04,925.174 c 3.04,0.294 6.06,0.69 9.04,1.183 0,10.347 0.03,21.745 0.15,34.321 -3.26,-0.735 -6.58,-1.313 -9.95,-1.724 0.26,-9.815 0.52,-21.001 0.76,-33.78 z"
   style="fill:#d1ac0b"
   id="path207" />
                    </g>
                </g>
                <g
   transform="matrix(0.44368,0,0,0.44368,1411.31,1765.4)"
   id="g220">
                    <g
   transform="matrix(1.17645,0,0,1.18713,444.976,-297.749)"
   id="g210">
                        <path
   d="m 1728.31,607.497 v 375.818 c 0,3.905 -3.2,7.075 -7.14,7.075 h -375.69 c -3.94,0 -7.14,-3.17 -7.14,-7.075 V 607.497 c 0,-3.904 3.2,-7.074 7.14,-7.074 h 375.69 c 3.94,0 7.14,3.17 7.14,7.074 z"
   style="fill:#2b3f72"
   id="path209" />
                    </g>
                    <g
   transform="matrix(1.17645,0,0,1.17645,444.976,-289.251)"
   id="g211">
                        <path
   d="m 1730.08,607.561 v 375.69 c 0,4.917 -4,8.91 -8.91,8.91 h -375.69 c -4.92,0 -8.91,-3.993 -8.91,-8.91 v -375.69 c 0,-4.917 3.99,-8.909 8.91,-8.909 h 375.69 c 4.91,0 8.91,3.992 8.91,8.909 z m -1.77,0 c 0,-3.94 -3.2,-7.138 -7.14,-7.138 h -375.69 c -3.94,0 -7.14,3.198 -7.14,7.138 v 375.69 c 0,3.94 3.2,7.139 7.14,7.139 h 375.69 c 3.94,0 7.14,-3.199 7.14,-7.139 z"
   style="fill:#3e3300"
   id="path210" />
                    </g>
                    <g
   transform="translate(682.227,-183.309)"
   id="g212">
                        <path
   d="m 1350.02,836.67 c -0.84,187.03 -7.4,188.12 -0.15,202.62 5.6,11.2 58.09,6.72 67.59,2.16 -18.08,-10.68 -47.56,-0.87 -57.72,-9.19 -4.32,-131.174 2.39,-177.461 -7.36,-199.815 z"
   style="fill:#7486b4"
   id="path211" />
                    </g>
                    <g
   transform="matrix(1.17645,0,0,1.17645,444.976,-289.251)"
   id="g213">
                        <path
   d="m 1478.07,600.423 h 34.19 c 0,95.47 -77.51,172.98 -172.98,172.98 -0.31,0 -0.63,-10e-4 -0.94,-0.003 v -34.188 c 0.31,0.002 0.63,0.003 0.94,0.003 76.6,0 138.79,-62.191 138.79,-138.792 z M 1728.31,773.4 c -95.04,-0.508 -172.04,-77.821 -172.04,-172.977 h 34.18 c 0,76.287 61.69,138.281 137.86,138.789 z m -172.04,216.99 c 0,-95.156 77,-172.47 172.04,-172.978 v 34.189 c -76.17,0.507 -137.86,62.501 -137.86,138.789 z M 1338.34,817.412 c 0.31,-0.001 0.63,-0.002 0.94,-0.002 95.47,0 172.98,77.51 172.98,172.98 h -34.19 c 0,-76.602 -62.19,-138.792 -138.79,-138.792 -0.31,0 -0.63,0.001 -0.94,0.003 z M 1455.3,600.423 c 0,63.171 -51.28,114.458 -114.46,114.458 -0.83,0 -1.67,-0.009 -2.5,-0.027 v -28.623 c 0.83,0.024 1.67,0.036 2.5,0.036 47.38,0 85.85,-38.466 85.85,-85.844 z m 273.01,114.455 c -62.74,-0.507 -113.52,-51.598 -113.52,-114.455 h 28.61 c 0,47.064 37.96,85.333 84.91,85.839 z M 1614.79,990.39 c 0,-62.857 50.78,-113.948 113.52,-114.455 v 28.616 c -46.95,0.506 -84.91,38.775 -84.91,85.839 z M 1338.34,875.935 c 0.31,-0.003 0.63,-0.004 0.94,-0.004 63.17,0 114.46,51.287 114.46,114.459 h -28.62 c 0,-47.379 -38.46,-85.844 -85.84,-85.844 -0.31,0 -0.63,10e-4 -0.94,0.005 z m 61.63,-275.512 c 0,33.495 -27.19,60.689 -60.69,60.689 -0.31,0 -0.63,-0.003 -0.94,-0.007 v -30.352 c 0.31,0.009 0.62,0.014 0.94,0.014 16.75,0 30.34,-13.597 30.34,-30.344 z m 328.34,60.682 c -33.07,-0.505 -59.75,-27.502 -59.75,-60.682 h 30.34 c 0,16.432 13.09,29.832 29.41,30.33 z m -59.75,329.285 c 0,-33.181 26.68,-60.178 59.75,-60.682 v 30.352 c -16.32,0.498 -29.41,13.897 -29.41,30.33 z m -330.22,-60.682 c 0.31,-0.005 0.63,-0.007 0.94,-0.007 33.5,0 60.69,27.194 60.69,60.689 h -30.35 c 0,-16.748 -13.59,-30.345 -30.34,-30.345 -0.32,0 -0.63,0.005 -0.94,0.015 z"
   style="fill:#ffffff"
   id="path212" />
                    </g>
                    <g
   transform="translate(682.227,-183.309)"
   id="g214">
                        <path
   d="m 1776.13,615.335 c 2.84,-1.208 6.19,-2.955 7.64,-0.089 0.41,0.824 3.26,143.02 -1.03,225.955 -1.32,-10.71 1.93,-10.822 -8.83,-134.607 -1.99,-22.837 -7.74,-87.012 2.22,-91.259 z"
   style="fill:#6b98d6"
   id="path213" />
                    </g>
                    <g
   transform="translate(682.227,-183.309)"
   id="g215">
                        <path
   d="m 1776.13,615.335 c 2.84,-1.208 6.19,-2.955 7.64,-0.089 0.41,0.824 3.26,143.02 -1.03,225.955 -1.32,-10.71 1.93,-10.822 -8.83,-134.607 -1.99,-22.837 -7.74,-87.012 2.22,-91.259 z"
   style="fill:#7486b4"
   id="path214" />
                    </g>
                    <g
   transform="matrix(1.17645,0,0,1.17645,444.976,-289.251)"
   id="g216">
                        <path
   d="m 1478.07,600.423 h 34.19 c 0,95.47 -77.51,172.98 -172.98,172.98 -0.31,0 -0.63,-10e-4 -0.94,-0.003 v -34.188 c 0.31,0.002 0.63,0.003 0.94,0.003 76.6,0 138.79,-62.191 138.79,-138.792 z M 1728.31,773.4 c -95.04,-0.508 -172.04,-77.821 -172.04,-172.977 h 34.18 c 0,76.287 61.69,138.281 137.86,138.789 z m -172.04,216.99 c 0,-95.156 77,-172.47 172.04,-172.978 v 34.189 c -76.17,0.507 -137.86,62.501 -137.86,138.789 z M 1338.34,817.412 c 0.31,-0.001 0.63,-0.002 0.94,-0.002 95.47,0 172.98,77.51 172.98,172.98 h -34.19 c 0,-76.602 -62.19,-138.792 -138.79,-138.792 -0.31,0 -0.63,0.001 -0.94,0.003 z M 1455.3,600.423 c 0,63.171 -51.28,114.458 -114.46,114.458 -0.83,0 -1.67,-0.009 -2.5,-0.027 v -28.623 c 0.83,0.024 1.67,0.036 2.5,0.036 47.38,0 85.85,-38.466 85.85,-85.844 z m 273.01,114.455 c -62.74,-0.507 -113.52,-51.598 -113.52,-114.455 h 28.61 c 0,47.064 37.96,85.333 84.91,85.839 z M 1614.79,990.39 c 0,-62.857 50.78,-113.948 113.52,-114.455 v 28.616 c -46.95,0.506 -84.91,38.775 -84.91,85.839 z M 1338.34,875.935 c 0.31,-0.003 0.63,-0.004 0.94,-0.004 63.17,0 114.46,51.287 114.46,114.459 h -28.62 c 0,-47.379 -38.46,-85.844 -85.84,-85.844 -0.31,0 -0.63,10e-4 -0.94,0.005 z m 61.63,-275.512 c 0,33.495 -27.19,60.689 -60.69,60.689 -0.31,0 -0.63,-0.003 -0.94,-0.007 v -30.352 c 0.31,0.009 0.62,0.014 0.94,0.014 16.75,0 30.34,-13.597 30.34,-30.344 z m 328.34,60.682 c -33.07,-0.505 -59.75,-27.502 -59.75,-60.682 h 30.34 c 0,16.432 13.09,29.832 29.41,30.33 z m -59.75,329.285 c 0,-33.181 26.68,-60.178 59.75,-60.682 v 30.352 c -16.32,0.498 -29.41,13.897 -29.41,30.33 z m -330.22,-60.682 c 0.31,-0.005 0.63,-0.007 0.94,-0.007 33.5,0 60.69,27.194 60.69,60.689 h -30.35 c 0,-16.748 -13.59,-30.345 -30.34,-30.345 -0.32,0 -0.63,0.005 -0.94,0.015 z"
   style="fill:#ffffff"
   id="path215" />
                    </g>
                    <g
   transform="matrix(-1,0,0,1,3818.17,-183.309)"
   id="g217">
                        <path
   d="m 1570.03,830.993 c -0.23,0.176 -0.47,0.353 -0.71,0.531 54.37,43.656 106.84,38.6 157.99,0 -53.68,-35.145 -106.21,-38.442 -157.28,-0.531 z m -0.71,0.531 c -38.6,51.154 -42.06,101.906 1.6,156.276 38.47,-51.285 33.71,-102.349 -1.6,-156.276 z m 0.71,-0.531 c 38.6,-51.154 41.35,-104.803 -2.3,-159.173 -38.48,51.286 -33,105.245 2.3,159.173 z m -0.71,0.415 c -54.37,-43.657 -106.83,-38.6 -157.99,0 53.93,35.308 106.71,38.472 157.99,0 z"
   style="fill:#ffffff"
   id="path216" />
                    </g>
                    <g
   transform="translate(682.227,-183.309)"
   id="g218">
                        <path
   d="m 1349.91,856.02 c 2.44,0.137 4.86,0.317 7.28,0.539 0.77,10.368 0.91,23.513 0.91,40.544 -2.84,-0.344 -5.71,-0.615 -8.6,-0.81 0.17,-12.236 0.31,-25.62 0.41,-40.273 z m -0.86,68.944 c 3.04,0.239 6.05,0.58 9.03,1.018 0,10.306 0.03,21.659 0.14,34.185 -3.26,-0.652 -6.57,-1.146 -9.93,-1.476 0.26,-9.806 0.52,-20.975 0.76,-33.727 z m -1.66,63.406 c 3.86,0.489 7.62,1.287 11.26,2.367 0.24,12.323 0.57,25.583 1.04,39.853 -3.86,-2.88 -8.31,-5 -13.15,-6.14 -0.2,-6.87 0.23,-17.42 0.85,-36.08 z m 58.94,48.99 c 0.69,2.14 1.28,4.33 1.76,6.56 -9.73,1.72 -24.33,2.87 -36.53,2.2 -1.71,-4.35 -4.26,-8.28 -7.43,-11.6 9.94,3.17 27.43,-0.2 42.2,2.84 z"
   style="fill:#f0ede0"
   id="path217" />
                    </g>
                    <g
   transform="translate(682.227,-183.309)"
   id="g219">
                        <path
   d="m 1781.23,803.312 c -0.56,-9.984 -1.41,-23.119 -2.73,-40.659 2.11,0.239 4.23,0.439 6.36,0.597 -0.15,13.664 -0.38,27.255 -0.72,40.267 -0.97,-0.062 -1.94,-0.13 -2.91,-0.205 z m 3.83,-68.769 c -2.99,-0.265 -5.95,-0.628 -8.88,-1.085 -0.67,-8.24 -1.43,-17.173 -2.27,-26.864 -0.2,-2.294 -0.44,-5.005 -0.7,-8.03 3.86,0.938 7.81,1.653 11.82,2.133 0.05,10.861 0.06,22.25 0.03,33.846 z m -0.24,-63.78 c -4.78,-0.831 -9.4,-2.139 -13.81,-3.871 -0.76,-15.589 -0.94,-31.445 0.67,-41.43 3.53,3.59 7.82,6.436 12.61,8.282 0.18,9.54 0.37,22.274 0.53,37.019 z"
   style="fill:#f0ede0"
   id="path218" />
                    </g>
                </g>
                <g
   transform="matrix(0.44368,0,0,0.44368,1653.47,1765.4)"
   id="g231">
                    <g
   transform="matrix(1.17645,0,0,1.18713,444.976,-297.749)"
   id="g221">
                        <path
   d="m 1728.31,607.497 v 375.818 c 0,3.905 -3.2,7.075 -7.14,7.075 h -375.69 c -3.94,0 -7.14,-3.17 -7.14,-7.075 V 607.497 c 0,-3.904 3.2,-7.074 7.14,-7.074 h 375.69 c 3.94,0 7.14,3.17 7.14,7.074 z"
   style="fill:#2b3f72"
   id="path220" />
                    </g>
                    <g
   transform="matrix(1.17645,0,0,1.17645,444.976,-289.251)"
   id="g222">
                        <path
   d="m 1730.08,607.561 v 375.69 c 0,4.917 -4,8.91 -8.91,8.91 h -375.69 c -4.92,0 -8.91,-3.993 -8.91,-8.91 v -375.69 c 0,-4.917 3.99,-8.909 8.91,-8.909 h 375.69 c 4.91,0 8.91,3.992 8.91,8.909 z m -1.77,0 c 0,-3.94 -3.2,-7.138 -7.14,-7.138 h -375.69 c -3.94,0 -7.14,3.198 -7.14,7.138 v 375.69 c 0,3.94 3.2,7.139 7.14,7.139 h 375.69 c 3.94,0 7.14,-3.199 7.14,-7.139 z"
   style="fill:#3e3300"
   id="path221" />
                    </g>
                    <g
   transform="translate(682.227,-183.309)"
   id="g223">
                        <path
   d="m 1350.02,836.67 c -0.84,187.03 -7.4,188.12 -0.15,202.62 5.6,11.2 58.09,6.72 67.59,2.16 -18.08,-10.68 -47.56,-0.87 -57.72,-9.19 -4.32,-131.174 2.39,-177.461 -7.36,-199.815 z"
   style="fill:#7486b4"
   id="path222" />
                    </g>
                    <g
   transform="matrix(1.17645,0,0,1.17645,444.976,-289.251)"
   id="g224">
                        <path
   d="m 1478.07,600.423 h 34.19 c 0,95.47 -77.51,172.98 -172.98,172.98 -0.31,0 -0.63,-10e-4 -0.94,-0.003 v -34.188 c 0.31,0.002 0.63,0.003 0.94,0.003 76.6,0 138.79,-62.191 138.79,-138.792 z M 1728.31,773.4 c -95.04,-0.508 -172.04,-77.821 -172.04,-172.977 h 34.18 c 0,76.287 61.69,138.281 137.86,138.789 z m -172.04,216.99 c 0,-95.156 77,-172.47 172.04,-172.978 v 34.189 c -76.17,0.507 -137.86,62.501 -137.86,138.789 z M 1338.34,817.412 c 0.31,-0.001 0.63,-0.002 0.94,-0.002 95.47,0 172.98,77.51 172.98,172.98 h -34.19 c 0,-76.602 -62.19,-138.792 -138.79,-138.792 -0.31,0 -0.63,0.001 -0.94,0.003 z M 1455.3,600.423 c 0,63.171 -51.28,114.458 -114.46,114.458 -0.83,0 -1.67,-0.009 -2.5,-0.027 v -28.623 c 0.83,0.024 1.67,0.036 2.5,0.036 47.38,0 85.85,-38.466 85.85,-85.844 z m 273.01,114.455 c -62.74,-0.507 -113.52,-51.598 -113.52,-114.455 h 28.61 c 0,47.064 37.96,85.333 84.91,85.839 z M 1614.79,990.39 c 0,-62.857 50.78,-113.948 113.52,-114.455 v 28.616 c -46.95,0.506 -84.91,38.775 -84.91,85.839 z M 1338.34,875.935 c 0.31,-0.003 0.63,-0.004 0.94,-0.004 63.17,0 114.46,51.287 114.46,114.459 h -28.62 c 0,-47.379 -38.46,-85.844 -85.84,-85.844 -0.31,0 -0.63,10e-4 -0.94,0.005 z m 61.63,-275.512 c 0,33.495 -27.19,60.689 -60.69,60.689 -0.31,0 -0.63,-0.003 -0.94,-0.007 v -30.352 c 0.31,0.009 0.62,0.014 0.94,0.014 16.75,0 30.34,-13.597 30.34,-30.344 z m 328.34,60.682 c -33.07,-0.505 -59.75,-27.502 -59.75,-60.682 h 30.34 c 0,16.432 13.09,29.832 29.41,30.33 z m -59.75,329.285 c 0,-33.181 26.68,-60.178 59.75,-60.682 v 30.352 c -16.32,0.498 -29.41,13.897 -29.41,30.33 z m -330.22,-60.682 c 0.31,-0.005 0.63,-0.007 0.94,-0.007 33.5,0 60.69,27.194 60.69,60.689 h -30.35 c 0,-16.748 -13.59,-30.345 -30.34,-30.345 -0.32,0 -0.63,0.005 -0.94,0.015 z"
   style="fill:#ffffff"
   id="path223" />
                    </g>
                    <g
   transform="translate(682.227,-183.309)"
   id="g225">
                        <path
   d="m 1776.13,615.335 c 2.84,-1.208 6.19,-2.955 7.64,-0.089 0.41,0.824 3.26,143.02 -1.03,225.955 -1.32,-10.71 1.93,-10.822 -8.83,-134.607 -1.99,-22.837 -7.74,-87.012 2.22,-91.259 z"
   style="fill:#6b98d6"
   id="path224" />
                    </g>
                    <g
   transform="translate(682.227,-183.309)"
   id="g226">
                        <path
   d="m 1776.13,615.335 c 2.84,-1.208 6.19,-2.955 7.64,-0.089 0.41,0.824 3.26,143.02 -1.03,225.955 -1.32,-10.71 1.93,-10.822 -8.83,-134.607 -1.99,-22.837 -7.74,-87.012 2.22,-91.259 z"
   style="fill:#7486b4"
   id="path225" />
                    </g>
                    <g
   transform="matrix(1.17645,0,0,1.17645,444.976,-289.251)"
   id="g227">
                        <path
   d="m 1478.07,600.423 h 34.19 c 0,95.47 -77.51,172.98 -172.98,172.98 -0.31,0 -0.63,-10e-4 -0.94,-0.003 v -34.188 c 0.31,0.002 0.63,0.003 0.94,0.003 76.6,0 138.79,-62.191 138.79,-138.792 z M 1728.31,773.4 c -95.04,-0.508 -172.04,-77.821 -172.04,-172.977 h 34.18 c 0,76.287 61.69,138.281 137.86,138.789 z m -172.04,216.99 c 0,-95.156 77,-172.47 172.04,-172.978 v 34.189 c -76.17,0.507 -137.86,62.501 -137.86,138.789 z M 1338.34,817.412 c 0.31,-0.001 0.63,-0.002 0.94,-0.002 95.47,0 172.98,77.51 172.98,172.98 h -34.19 c 0,-76.602 -62.19,-138.792 -138.79,-138.792 -0.31,0 -0.63,0.001 -0.94,0.003 z M 1455.3,600.423 c 0,63.171 -51.28,114.458 -114.46,114.458 -0.83,0 -1.67,-0.009 -2.5,-0.027 v -28.623 c 0.83,0.024 1.67,0.036 2.5,0.036 47.38,0 85.85,-38.466 85.85,-85.844 z m 273.01,114.455 c -62.74,-0.507 -113.52,-51.598 -113.52,-114.455 h 28.61 c 0,47.064 37.96,85.333 84.91,85.839 z M 1614.79,990.39 c 0,-62.857 50.78,-113.948 113.52,-114.455 v 28.616 c -46.95,0.506 -84.91,38.775 -84.91,85.839 z M 1338.34,875.935 c 0.31,-0.003 0.63,-0.004 0.94,-0.004 63.17,0 114.46,51.287 114.46,114.459 h -28.62 c 0,-47.379 -38.46,-85.844 -85.84,-85.844 -0.31,0 -0.63,10e-4 -0.94,0.005 z m 61.63,-275.512 c 0,33.495 -27.19,60.689 -60.69,60.689 -0.31,0 -0.63,-0.003 -0.94,-0.007 v -30.352 c 0.31,0.009 0.62,0.014 0.94,0.014 16.75,0 30.34,-13.597 30.34,-30.344 z m 328.34,60.682 c -33.07,-0.505 -59.75,-27.502 -59.75,-60.682 h 30.34 c 0,16.432 13.09,29.832 29.41,30.33 z m -59.75,329.285 c 0,-33.181 26.68,-60.178 59.75,-60.682 v 30.352 c -16.32,0.498 -29.41,13.897 -29.41,30.33 z m -330.22,-60.682 c 0.31,-0.005 0.63,-0.007 0.94,-0.007 33.5,0 60.69,27.194 60.69,60.689 h -30.35 c 0,-16.748 -13.59,-30.345 -30.34,-30.345 -0.32,0 -0.63,0.005 -0.94,0.015 z"
   style="fill:#ffffff"
   id="path226" />
                    </g>
                    <g
   transform="matrix(-1,0,0,1,3818.17,-183.309)"
   id="g228">
                        <path
   d="m 1570.03,830.993 c -0.23,0.176 -0.47,0.353 -0.71,0.531 54.37,43.656 106.84,38.6 157.99,0 -53.68,-35.145 -106.21,-38.442 -157.28,-0.531 z m -0.71,0.531 c -38.6,51.154 -42.06,101.906 1.6,156.276 38.47,-51.285 33.71,-102.349 -1.6,-156.276 z m 0.71,-0.531 c 38.6,-51.154 41.35,-104.803 -2.3,-159.173 -38.48,51.286 -33,105.245 2.3,159.173 z m -0.71,0.415 c -54.37,-43.657 -106.83,-38.6 -157.99,0 53.93,35.308 106.71,38.472 157.99,0 z"
   style="fill:#ffffff"
   id="path227" />
                    </g>
                    <g
   transform="translate(682.227,-183.309)"
   id="g229">
                        <path
   d="m 1349.91,856.02 c 2.44,0.137 4.86,0.317 7.28,0.539 0.77,10.368 0.91,23.513 0.91,40.544 -2.84,-0.344 -5.71,-0.615 -8.6,-0.81 0.17,-12.236 0.31,-25.62 0.41,-40.273 z m -0.86,68.944 c 3.04,0.239 6.05,0.58 9.03,1.018 0,10.306 0.03,21.659 0.14,34.185 -3.26,-0.652 -6.57,-1.146 -9.93,-1.476 0.26,-9.806 0.52,-20.975 0.76,-33.727 z m -1.66,63.406 c 3.86,0.489 7.62,1.287 11.26,2.367 0.24,12.323 0.57,25.583 1.04,39.853 -3.86,-2.88 -8.31,-5 -13.15,-6.14 -0.2,-6.87 0.23,-17.42 0.85,-36.08 z m 58.94,48.99 c 0.69,2.14 1.28,4.33 1.76,6.56 -9.73,1.72 -24.33,2.87 -36.53,2.2 -1.71,-4.35 -4.26,-8.28 -7.43,-11.6 9.94,3.17 27.43,-0.2 42.2,2.84 z"
   style="fill:#f0ede0"
   id="path228" />
                    </g>
                    <g
   transform="translate(682.227,-183.309)"
   id="g230">
                        <path
   d="m 1781.23,803.312 c -0.56,-9.984 -1.41,-23.119 -2.73,-40.659 2.11,0.239 4.23,0.439 6.36,0.597 -0.15,13.664 -0.38,27.255 -0.72,40.267 -0.97,-0.062 -1.94,-0.13 -2.91,-0.205 z m 3.83,-68.769 c -2.99,-0.265 -5.95,-0.628 -8.88,-1.085 -0.67,-8.24 -1.43,-17.173 -2.27,-26.864 -0.2,-2.294 -0.44,-5.005 -0.7,-8.03 3.86,0.938 7.81,1.653 11.82,2.133 0.05,10.861 0.06,22.25 0.03,33.846 z m -0.24,-63.78 c -4.78,-0.831 -9.4,-2.139 -13.81,-3.871 -0.76,-15.589 -0.94,-31.445 0.67,-41.43 3.53,3.59 7.82,6.436 12.61,8.282 0.18,9.54 0.37,22.274 0.53,37.019 z"
   style="fill:#f0ede0"
   id="path229" />
                    </g>
                </g>
                <g
   transform="matrix(0.44368,0,0,0.44368,1447.23,1522.32)"
   id="g293">
                    <g
   transform="matrix(1.17645,0,0,1.17645,-181.78,256.525)"
   id="g232">
                        <path
   d="m 1728.31,607.561 v 375.69 c 0,3.94 -3.2,7.139 -7.14,7.139 h -375.69 c -3.94,0 -7.14,-3.199 -7.14,-7.139 v -375.69 c 0,-3.94 3.2,-7.138 7.14,-7.138 h 375.69 c 3.94,0 7.14,3.198 7.14,7.138 z"
   style="fill:#ffffff"
   id="path231" />
                    </g>
                    <g
   transform="translate(-17.2845,518.895)"
   id="g233">
                        <path
   d="m 1630.82,596.026 0.26,-0.092"
   style="fill:none;stroke:#2b3f72;stroke-width:4.7px"
   id="path232" />
                    </g>
                    <g
   transform="translate(57.8682,362.466)"
   id="g234">
                        <path
   d="m 1350.02,836.67 c -0.84,187.03 -7.4,188.12 -0.15,202.62 5.6,11.2 58.09,6.72 67.59,2.16 -18.08,-10.68 -47.56,-0.87 -57.72,-9.19 -4.32,-131.174 2.39,-177.461 -7.36,-199.815 z"
   style="fill:#f0ede0"
   id="path233" />
                    </g>
                    <g
   transform="matrix(1.17645,0,0,1.17645,-181.78,256.525)"
   id="g235">
                        <path
   d="m 1730.08,607.561 v 375.69 c 0,4.917 -4,8.91 -8.91,8.91 h -375.69 c -4.92,0 -8.91,-3.993 -8.91,-8.91 v -375.69 c 0,-4.917 3.99,-8.909 8.91,-8.909 h 375.69 c 4.91,0 8.91,3.992 8.91,8.909 z m -1.77,0 c 0,-3.94 -3.2,-7.138 -7.14,-7.138 h -375.69 c -3.94,0 -7.14,3.198 -7.14,7.138 v 375.69 c 0,3.94 3.2,7.139 7.14,7.139 h 375.69 c 3.94,0 7.14,-3.199 7.14,-7.139 z"
   style="fill:#3e3300"
   id="path234" />
                    </g>
                    <g
   transform="matrix(1.17645,0,0,1.17645,-181.78,256.525)"
   id="g236">
                        <path
   d="m 1455.3,600.423 c 0,63.171 -51.28,114.458 -114.46,114.458 -0.83,0 -1.67,-0.009 -2.5,-0.027 v -28.623 c 0.83,0.024 1.67,0.036 2.5,0.036 47.38,0 85.85,-38.466 85.85,-85.844 z m 273.01,114.455 c -62.74,-0.507 -113.52,-51.598 -113.52,-114.455 h 28.61 c 0,47.064 37.96,85.333 84.91,85.839 z M 1614.79,990.39 c 0,-62.857 50.78,-113.948 113.52,-114.455 v 28.616 c -46.95,0.506 -84.91,38.775 -84.91,85.839 z M 1338.34,875.935 c 0.31,-0.003 0.63,-0.004 0.94,-0.004 63.17,0 114.46,51.287 114.46,114.459 h -28.62 c 0,-47.379 -38.46,-85.844 -85.84,-85.844 -0.31,0 -0.63,10e-4 -0.94,0.005 z"
   style="fill:#ffd000"
   id="path235" />
                    </g>
                    <g
   transform="translate(-32.2359,427.562)"
   id="g237">
                        <path
   d="m 1555.56,863.477 c -54.51,0 -98.76,-44.254 -98.76,-98.763 0,-54.509 44.25,-98.763 98.76,-98.763 0,-54.509 44.26,-98.763 98.76,-98.763 54.51,0 98.77,44.254 98.77,98.763 54.51,0 98.76,44.254 98.76,98.763 0,54.509 -44.25,98.763 -98.76,98.763 0,54.509 -44.26,98.764 -98.77,98.764 -54.5,0 -98.76,-44.255 -98.76,-98.764 z m 31.91,-31.905 c -4.63,9.664 -7.22,20.485 -7.22,31.905 0,40.882 33.19,74.073 74.07,74.073 40.89,0 74.08,-33.191 74.08,-74.073 0,-11.42 -2.59,-22.241 -7.22,-31.905 9.67,4.624 20.49,7.215 31.91,7.215 40.88,0 74.07,-33.191 74.07,-74.073 0,-40.882 -33.19,-74.072 -74.07,-74.072 -11.42,0 -22.24,2.59 -31.91,7.215 4.63,-9.665 7.22,-20.485 7.22,-31.906 0,-40.882 -33.19,-74.073 -74.08,-74.073 -40.88,0 -74.07,33.191 -74.07,74.073 0,11.421 2.59,22.241 7.22,31.906 -9.67,-4.625 -20.49,-7.215 -31.91,-7.215 -40.88,0 -74.07,33.19 -74.07,74.072 0,40.882 33.19,74.073 74.07,74.073 11.42,0 22.24,-2.591 31.91,-7.215 z"
   style="fill:#2b3f72"
   id="path236" />
                    </g>
                    <g
   transform="matrix(1.31251,-1.31251,1.31251,1.31251,-1552.91,2359.89)"
   id="g238">
                        <path
   d="m 1623.31,731.707 c 9.67,4.625 19.59,13.452 31.01,13.452 11.43,0 22.25,-7.726 31.91,-12.351 -4.62,9.665 -12.35,20.485 -12.35,31.906 0,11.421 7.73,22.242 12.35,31.906 -9.66,-4.625 -20.48,-12.351 -31.91,-12.351 -11.42,0 -22.24,7.726 -31.9,12.351 4.62,-9.664 12.35,-20.485 12.35,-31.906 0,-11.421 -6.84,-23.342 -11.46,-33.007 z"
   style="fill:#ffd000"
   id="path237" />
                    </g>
                    <g
   transform="translate(-17.2845,518.895)"
   id="g239">
                        <path
   d="m 1694.59,605.816 c 17.55,-30.765 5.11,-121.501 -85.73,-88.035 -32.15,11.845 -37.25,74.174 -16.6,81.058"
   style="fill:none;stroke:#2b3f72;stroke-width:4.7px"
   id="path238" />
                    </g>
                    <g
   transform="translate(-17.2845,518.895)"
   id="g240">
                        <path
   d="m 1563,617.917 c -11.24,-9.215 -99.33,-13.597 -78.65,78.095 10.63,47.134 74.77,48.017 84.47,25.392"
   style="fill:none;stroke:#2b3f72;stroke-width:4.7px"
   id="path239" />
                    </g>
                    <g
   transform="translate(-17.2845,518.895)"
   id="g241">
                        <path
   d="m 1583.24,746.85 c 0.99,6.039 -16.51,39.362 19.76,75.633 3.22,3.213 41.57,20.843 71.3,2.441 21.3,-13.188 34.15,-57.57 21.97,-80.57"
   style="fill:none;stroke:#2b3f72;stroke-width:4.7px"
   id="path240" />
                    </g>
                    <g
   transform="translate(-17.2845,518.895)"
   id="g242">
                        <path
   d="m 1714.32,730.95 c 4.17,5.006 24.65,7.579 35.17,5.103 62.98,-14.819 73.29,-114.639 6.35,-122.076 -0.55,-0.062 -0.42,-0.183 -6.83,-1.465 -16.98,-3.396 -16.95,-0.806 -32.23,6.836"
   style="fill:none;stroke:#2b3f72;stroke-width:4.7px"
   id="path241" />
                    </g>
                    <g
   transform="translate(-17.2845,518.895)"
   id="g243">
                        <path
   d="m 1639.37,589.37 c 5.44,2.807 17.57,-30.84 12.4,-40.381 -2.82,-5.211 -2.32,1.187 -9.22,19.395 -1.63,-12.066 -8.19,-20.84 -8.93,-20.656 -1.47,0.367 1.94,1.693 -4.03,18.474 0.05,-1.571 0.65,-18.541 -10.34,-16.709 -0.5,0.083 2.72,18.071 5.8,24.455 3.36,6.983 13.74,16.001 14.32,15.422 z"
   style="fill:#2b3f72;stroke:#2b3f72;stroke-width:4.7px"
   id="path242" />
                    </g>
                    <g
   transform="rotate(90,1369.608,925.772)"
   id="g244">
                        <path
   d="m 1636.76,589.536 c 5.43,2.807 20.18,-31.006 15.01,-40.547 -2.82,-5.211 -2.32,1.187 -9.22,19.395 -1.63,-12.066 -8.19,-20.84 -8.93,-20.656 -1.47,0.367 1.94,1.693 -4.03,18.474 0.05,-1.571 0.65,-18.541 -10.34,-16.709 -0.5,0.083 2.72,18.071 5.8,24.455 3.36,6.983 11.13,16.166 11.71,15.588 z"
   style="fill:#2b3f72;stroke:#2b3f72;stroke-width:4.7px"
   id="path243" />
                    </g>
                    <g
   transform="rotate(180,1629.1,932.83)"
   id="g245">
                        <path
   d="m 1636.25,590.019 c 5.44,2.806 20.69,-31.489 15.52,-41.03 -2.82,-5.211 -2.32,1.187 -9.22,19.395 -1.63,-12.066 -8.19,-20.84 -8.93,-20.656 -1.47,0.367 1.94,1.693 -4.03,18.474 0.05,-1.571 0.65,-18.541 -10.34,-16.709 -0.5,0.083 2.72,18.071 5.8,24.455 3.36,6.983 10.62,16.649 11.2,16.071 z"
   style="fill:#2b3f72;stroke:#2b3f72;stroke-width:4.7px"
   id="path244" />
                    </g>
                    <g
   transform="rotate(-90,1888.8605,940.1695)"
   id="g246">
                        <path
   d="m 1639.37,589.37 c 5.44,2.807 17.57,-30.84 12.4,-40.381 -2.82,-5.211 -2.32,1.187 -9.22,19.395 -1.63,-12.066 -8.19,-20.84 -8.93,-20.656 -1.47,0.367 1.94,1.693 -4.03,18.474 0.05,-1.571 0.65,-18.541 -10.34,-16.709 -0.5,0.083 2.72,18.071 5.8,24.455 3.36,6.983 13.74,16.001 14.32,15.422 z"
   style="fill:#2b3f72;stroke:#2b3f72;stroke-width:4.7px"
   id="path245" />
                    </g>
                    <g
   transform="translate(-17.2845,518.895)"
   id="g247">
                        <path
   d="m 1628.84,605.049 c 0.09,0.035 0.34,0.274 0.36,0.283"
   style="fill:none;stroke:#2b3f72;stroke-width:4.7px"
   id="path246" />
                    </g>
                    <g
   transform="translate(-17.2845,518.895)"
   id="g248">
                        <path
   d="m 1625.38,616.302 0.22,-0.006"
   style="fill:none;stroke:#2b3f72;stroke-width:4.7px"
   id="path247" />
                    </g>
                    <g
   transform="translate(-17.2845,518.895)"
   id="g249">
                        <path
   d="m 1621.08,626.461 0.45,0.017"
   style="fill:none;stroke:#2b3f72;stroke-width:4.7px"
   id="path248" />
                    </g>
                    <g
   transform="translate(-17.2845,518.895)"
   id="g250">
                        <path
   d="m 1614.48,636.413 c 0.11,0.03 0.21,0.06 0.31,0.089"
   style="fill:none;stroke:#2b3f72;stroke-width:4.7px"
   id="path249" />
                    </g>
                    <g
   transform="translate(-17.2845,518.895)"
   id="g251">
                        <path
   d="m 1606.44,645.209 0.21,0.065"
   style="fill:none;stroke:#2b3f72;stroke-width:4.7px"
   id="path250" />
                    </g>
                    <g
   transform="translate(-17.2845,518.895)"
   id="g252">
                        <path
   d="m 1594.36,652.829 c 0.13,-0.065 0.26,-0.129 0.38,-0.193"
   style="fill:none;stroke:#2b3f72;stroke-width:4.7px"
   id="path251" />
                    </g>
                    <g
   transform="translate(-17.2845,518.895)"
   id="g253">
                        <path
   d="m 1580.71,657.763 c 0.07,0.03 0.04,0.147 0.09,0.198"
   style="fill:none;stroke:#2b3f72;stroke-width:4.7px"
   id="path252" />
                    </g>
                    <g
   transform="translate(-17.2845,518.895)"
   id="g254">
                        <path
   d="m 1568.63,662.306 -0.04,0.041"
   style="fill:none;stroke:#2b3f72;stroke-width:4.7px"
   id="path253" />
                    </g>
                    <g
   transform="translate(-17.2845,518.895)"
   id="g255">
                        <path
   d="M 1559.66,664.722"
   style="fill:none;stroke:#2b3f72;stroke-width:4.7px"
   id="path254" />
                    </g>
                    <g
   transform="translate(-17.2845,518.895)"
   id="g256">
                        <path
   d="m 1561.08,678.06 -0.01,-0.206"
   style="fill:none;stroke:#2b3f72;stroke-width:4.7px"
   id="path255" />
                    </g>
                    <g
   transform="translate(-17.2845,518.895)"
   id="g257">
                        <path
   d="m 1572.79,681.22 0.02,0.08"
   style="fill:none;stroke:#2b3f72;stroke-width:4.7px"
   id="path256" />
                    </g>
                    <g
   transform="translate(-17.2845,518.895)"
   id="g258">
                        <path
   d="m 1583.13,685.948 c 0.12,-0.072 0.21,0.019 0.34,-0.106"
   style="fill:none;stroke:#2b3f72;stroke-width:4.7px"
   id="path257" />
                    </g>
                    <g
   transform="translate(-17.2845,518.895)"
   id="g259">
                        <path
   d="m 1593.8,692.246 0.32,0.018"
   style="fill:none;stroke:#2b3f72;stroke-width:4.7px"
   id="path258" />
                    </g>
                    <g
   transform="translate(-17.2845,518.895)"
   id="g260">
                        <path
   d="m 1602.61,697.883 c 0.09,-0.046 0.19,-0.091 0.28,-0.137"
   style="fill:none;stroke:#2b3f72;stroke-width:4.7px"
   id="path259" />
                    </g>
                    <g
   transform="translate(-17.2845,518.895)"
   id="g261">
                        <path
   d="m 1611.88,706.328 0.25,0.033"
   style="fill:none;stroke:#2b3f72;stroke-width:4.7px"
   id="path260" />
                    </g>
                    <g
   transform="translate(-17.2845,518.895)"
   id="g262">
                        <path
   d="m 1617.58,715.784 0.34,-0.025"
   style="fill:none;stroke:#2b3f72;stroke-width:4.7px"
   id="path261" />
                    </g>
                    <g
   transform="translate(-17.2845,518.895)"
   id="g263">
                        <path
   d="m 1623.21,727.653 0.35,-0.627"
   style="fill:none;stroke:#2b3f72;stroke-width:4.7px"
   id="path262" />
                    </g>
                    <g
   transform="translate(-17.2845,518.895)"
   id="g264">
                        <path
   d="m 1627.54,736.493 c 0.12,-0.084 0.25,-0.168 0.37,-0.253"
   style="fill:none;stroke:#2b3f72;stroke-width:4.7px"
   id="path263" />
                    </g>
                    <g
   transform="translate(-17.2845,518.895)"
   id="g265">
                        <path
   d="m 1631.15,746.919 0.09,0.071"
   style="fill:none;stroke:#2b3f72;stroke-width:4.7px"
   id="path264" />
                    </g>
                    <g
   transform="translate(-17.2845,518.895)"
   id="g266">
                        <path
   d="m 1647.01,749.214 0.61,0.08"
   style="fill:none;stroke:#2b3f72;stroke-width:4.7px"
   id="path265" />
                    </g>
                    <g
   transform="translate(-17.2845,518.895)"
   id="g267">
                        <path
   d="m 1650.96,737.641 -0.02,-0.121"
   style="fill:none;stroke:#2b3f72;stroke-width:4.7px"
   id="path266" />
                    </g>
                    <g
   transform="translate(-17.2845,518.895)"
   id="g268">
                        <path
   d="M 1655.56,725.292"
   style="fill:none;stroke:#2b3f72;stroke-width:4.7px"
   id="path267" />
                    </g>
                    <g
   transform="translate(-17.2845,518.895)"
   id="g269">
                        <path
   d="m 1660.76,712.808 -0.09,-0.115"
   style="fill:none;stroke:#2b3f72;stroke-width:4.7px"
   id="path268" />
                    </g>
                    <g
   transform="translate(-17.2845,518.895)"
   id="g270">
                        <path
   d="m 1668.13,702.146 c 0.25,-0.231 0.25,0.019 0.47,-0.203"
   style="fill:none;stroke:#2b3f72;stroke-width:4.7px"
   id="path269" />
                    </g>
                    <g
   transform="translate(-17.2845,518.895)"
   id="g271">
                        <path
   d="m 1679.41,693.812 0.46,-0.06"
   style="fill:none;stroke:#2b3f72;stroke-width:4.7px"
   id="path270" />
                    </g>
                    <g
   transform="translate(-17.2845,518.895)"
   id="g272">
                        <path
   d="m 1694.62,687.199 0.09,-0.102"
   style="fill:none;stroke:#2b3f72;stroke-width:4.7px"
   id="path271" />
                    </g>
                    <g
   transform="translate(-17.2845,518.895)"
   id="g273">
                        <path
   d="m 1707.97,683.42 c -0.1,-0.203 -0.12,-0.162 -0.2,-0.162"
   style="fill:none;stroke:#2b3f72;stroke-width:4.7px"
   id="path272" />
                    </g>
                    <g
   transform="translate(-17.2845,518.895)"
   id="g274">
                        <path
   d="m 1719.02,680.923 c 0.09,-0.075 0.18,-0.15 0.26,-0.225"
   style="fill:none;stroke:#2b3f72;stroke-width:4.7px"
   id="path273" />
                    </g>
                    <g
   transform="translate(-17.2845,518.895)"
   id="g275">
                        <path
   d="m 1718.79,667.427 0.24,-0.038"
   style="fill:none;stroke:#2b3f72;stroke-width:4.7px"
   id="path274" />
                    </g>
                    <g
   transform="translate(-17.2845,518.895)"
   id="g276">
                        <path
   d="m 1701.79,661.59 0.6,-0.088"
   style="fill:none;stroke:#2b3f72;stroke-width:4.7px"
   id="path275" />
                    </g>
                    <g
   transform="translate(-17.2845,518.895)"
   id="g277">
                        <path
   d="m 1684.65,653.289 0.34,0.022"
   style="fill:none;stroke:#2b3f72;stroke-width:4.7px"
   id="path276" />
                    </g>
                    <g
   transform="translate(-17.2845,518.895)"
   id="g278">
                        <path
   d="m 1673.8,647.52 c 0.06,-0.032 0.12,-0.064 0.18,-0.096"
   style="fill:none;stroke:#2b3f72;stroke-width:4.7px"
   id="path277" />
                    </g>
                    <g
   transform="translate(-17.2845,518.895)"
   id="g279">
                        <path
   d="m 1664.11,638.579 c 0.13,-0.038 0.27,-0.075 0.4,-0.113"
   style="fill:none;stroke:#2b3f72;stroke-width:4.7px"
   id="path278" />
                    </g>
                    <g
   transform="translate(-17.2845,518.895)"
   id="g280">
                        <path
   d="m 1657.79,626.702 c 0.1,-0.174 0.21,-0.348 0.32,-0.522"
   style="fill:none;stroke:#2b3f72;stroke-width:4.7px"
   id="path279" />
                    </g>
                    <g
   transform="translate(-17.2845,518.895)"
   id="g281">
                        <path
   d="m 1653.36,614.218 c -0.04,0.063 -0.08,0.126 -0.11,0.189"
   style="fill:none;stroke:#2b3f72;stroke-width:4.7px"
   id="path280" />
                    </g>
                    <g
   transform="translate(-17.2845,518.895)"
   id="g282">
                        <path
   d="m 1648.56,603.826 c 0.08,-0.17 0.31,-0.627 0.34,-0.681"
   style="fill:none;stroke:#2b3f72;stroke-width:4.7px"
   id="path281" />
                    </g>
                    <g
   transform="translate(-17.2845,518.895)"
   id="g283">
                        <path
   d="m 1645.01,595.425 0.82,0.041"
   style="fill:none;stroke:#2b3f72;stroke-width:4.7px"
   id="path282" />
                    </g>
                    <g
   transform="translate(-17.2845,518.895)"
   id="g284">
                        <path
   d="m 1460.31,451.585 c -36,-5.143 -37.74,-0.887 -40.13,1.198 -8.24,7.214 -3.25,41.683 -1.06,50.062 6.46,-10.305 5.02,-10.687 8.52,-22.116 13.09,14.453 13.84,14.855 15.38,15.688 4.83,2.601 -0.03,-9.039 -6.17,-19.684 10.62,2 10.36,1.918 21.01,4.256 -0.23,-4.512 -2.34,-9.676 -15.97,-16.755 1.76,-0.441 23.52,-3.697 24.59,-6.887 0.45,-1.358 -1.59,-5.762 -6.17,-5.762"
   style="fill:#2b3f72"
   id="path283" />
                    </g>
                    <g
   transform="matrix(1,0,0,-1,-12.9666,1863.75)"
   id="g285">
                        <path
   d="m 1460.31,451.585 c -36,-5.143 -37.74,-0.887 -40.13,1.198 -8.24,7.214 -3.25,41.683 -1.06,50.062 6.46,-10.305 5.02,-10.687 8.52,-22.116 13.09,14.453 13.84,14.855 15.38,15.688 4.83,2.601 -0.03,-9.039 -6.17,-19.684 10.62,2 10.36,1.918 21.01,4.256 -0.23,-4.512 -2.34,-9.676 -15.97,-16.755 1.76,-0.441 23.52,-3.697 24.59,-6.887 0.45,-1.358 -1.59,-5.762 -6.17,-5.762"
   style="fill:#2b3f72"
   id="path284" />
                    </g>
                    <g
   transform="matrix(1,0,0,-1,-12.9666,1863.75)"
   id="g286">
                        <path
   d="m 1417.64,495.353 c 0.52,3.227 1.05,5.856 1.48,7.492 6.46,-10.305 5.02,-10.687 8.52,-22.116 0.88,0.98 1.72,1.895 2.49,2.75 0.14,-4.703 0.28,-9.522 0.45,-14.462 3.03,-2.485 7.79,-3.352 13.45,-3.631 -0.68,-0.378 -1.39,-0.762 -2.14,-1.152 1.76,-0.441 23.52,-3.697 24.59,-6.887 0.12,-0.366 0.06,-0.952 -0.18,-1.614 -18.57,-1.676 -41.96,-1.013 -45.6,6.261 -3.46,6.929 -3.77,10.794 -3.06,33.359 z"
   style="fill:#7486b4"
   id="path285" />
                    </g>
                    <g
   transform="rotate(180,1629.25,929.65)"
   id="g287">
                        <path
   d="m 1460.31,451.585 c -36,-5.143 -37.74,-0.887 -40.13,1.198 -8.24,7.214 -3.25,41.683 -1.06,50.062 6.46,-10.305 5.02,-10.687 8.52,-22.116 13.09,14.453 13.84,14.855 15.38,15.688 4.83,2.601 -0.03,-9.039 -6.17,-19.684 10.62,2 10.36,1.918 21.01,4.256 -0.23,-4.512 -2.34,-9.676 -15.97,-16.755 1.76,-0.441 23.52,-3.697 24.59,-6.887 0.45,-1.358 -1.59,-5.762 -6.17,-5.762"
   style="fill:#2b3f72"
   id="path286" />
                    </g>
                    <g
   transform="matrix(-1,0,0,1,3254.18,523.338)"
   id="g288">
                        <path
   d="m 1460.31,451.585 c -36,-5.143 -37.74,-0.887 -40.13,1.198 -8.24,7.214 -3.25,41.683 -1.06,50.062 6.46,-10.305 5.02,-10.687 8.52,-22.116 13.09,14.453 13.84,14.855 15.38,15.688 4.83,2.601 -0.03,-9.039 -6.17,-19.684 10.62,2 10.36,1.918 21.01,4.256 -0.23,-4.512 -2.34,-9.676 -15.97,-16.755 1.76,-0.441 23.52,-3.697 24.59,-6.887 0.45,-1.358 -1.59,-5.762 -6.17,-5.762"
   style="fill:#2b3f72"
   id="path287" />
                    </g>
                    <g
   transform="translate(50.4638,363.26)"
   id="g289">
                        <path
   d="m 1776.13,615.335 c 2.84,-1.208 6.19,-2.955 7.64,-0.089 0.41,0.824 3.26,143.02 -1.03,225.955 -1.32,-10.71 1.93,-10.822 -8.83,-134.607 -1.99,-22.837 -7.74,-87.012 2.22,-91.259 z"
   style="fill:#f0ede0"
   id="path288" />
                    </g>
                    <g
   transform="matrix(1.17645,0,0,1.17645,-181.78,256.525)"
   id="g290">
                        <path
   d="m 1707.08,712.733 c -0.54,-6.6 -1.15,-13.714 -1.81,-21.388 -0.21,-2.412 -0.47,-5.367 -0.75,-8.699 3.32,0.998 6.72,1.8 10.2,2.394 0.04,9.267 0.05,19.003 0.03,28.93 -2.59,-0.327 -5.14,-0.741 -7.67,-1.237 z"
   style="fill:#d1ac0b"
   id="path289" />
                    </g>
                    <g
   transform="matrix(-1,0,0,1,3254.18,523.338)"
   id="g291">
                        <path
   d="m 1433.27,486.909 c 0.03,-16.385 -1.31,-29.788 -5.69,-31.651 -2.83,-1.209 -6.18,-2.956 -7.63,-0.09 -0.15,0.3 -0.62,19.221 -0.96,47.172 0.05,0.177 0.09,0.346 0.13,0.505 6.46,-10.305 5.02,-10.687 8.52,-22.116 2.2,2.436 4.06,4.473 5.63,6.18 z"
   style="fill:#7486b4"
   id="path290" />
                    </g>
                    <g
   transform="translate(57.8682,362.466)"
   id="g292">
                        <path
   d="m 1349.04,925.174 c 3.04,0.294 6.06,0.69 9.04,1.183 0,10.347 0.03,21.745 0.15,34.321 -3.26,-0.735 -6.58,-1.313 -9.95,-1.724 0.26,-9.815 0.52,-21.001 0.76,-33.78 z"
   style="fill:#d1ac0b"
   id="path291" />
                    </g>
                </g>
            </g>
        </g>
</svg>
