<?xml version="1.0" encoding="UTF-8"?>
<svg id="Layer_1" xmlns="http://www.w3.org/2000/svg" version="1.1" viewBox="0 0 1773.8 580.2">
  <!-- Generator: Adobe Illustrator 29.1.0, SVG Export Plug-In . SVG Version: 2.1.0 Build 142)  -->
  <defs>
    <style>
      .st0 {
        stroke-dasharray: 20 20;
      }

      .st0, .st1, .st2 {
        stroke-width: 7px;
      }

      .st0, .st1, .st2, .st3 {
        fill: none;
        stroke: #010101;
        stroke-miterlimit: 10;
      }

      .st2 {
        stroke-dasharray: 20.8 20.8;
      }

      .st4 {
        fill: #fff;
      }

      .st3 {
        stroke-width: 2px;
      }

      .st5 {
        fill: #010101;
      }
    </style>
  </defs>
  <g>
    <path class="st4" d="M1743.9,412.6c-1.4,11.8-10.1,22.5-21.8,26.8,3.2,10.2,6.5,21,4.1,31.5-2.4,10.4-12.5,20.2-23.7,18.7,9.2,8.8,7.9,25.4-2.6,32.8-2.2-2.2-4.4-4.3-6.7-6.5-13.1,6.5-17.9,26.8-32.7,26.2-8.2-.3-14.3-7.7-22.2-9.8-23-6.2-38.5,32.1-61.9,27.6-9.8-1.9-17.5-11.3-27.5-10.5-5.8.4-10.7,4.3-16,6.6-18.1,7.9-38.8-2.6-55.9-12.4-4.3-2.4-9-5-14-4.5-5.2.5-9.5,4.1-13.8,6.9-17.6,11.4-42.8,10.8-59.8-1.4-3-2.1-6.2-4.8-10-4.4-3.5.4-6,3.2-8.7,5.3-16.4,12.7-40.7-.6-61.8.9-18.5,1.3-38.4,14.1-54,4.5-3.8-2.3-6.7-5.7-10.7-7.6-5.9-2.8-13-1.7-19.5-.5-16.3,3.1-33.2,6.8-49.4,3.2-16.2-3.6-31.4-17.1-29.8-32.7-10,4.3-21.1,7.5-31.8,5.3-10.7-2.2-20.3-11.5-19.1-21.8.5-4.3,2.9-8.5,2.8-12.8-.2-6.5-5.5-11.6-9.4-16.9-11-15-11.4-36.3-1-51.7,3.4-5,8-10.1,7.2-15.9-.5-3.6-3-6.6-5-9.7-10.5-15.7-10.3-37.2.5-52.7,2.3-3.3,5.1-6.6,5.2-10.5,0-4.4-3.2-8-5.8-11.7-9.7-13.4-10.4-32.1-1.8-46.2,3.6-6,9-12.3,7.2-18.9-1.1-3.9-4.5-6.8-7-10.1-8.8-11.4-5.9-29.4,6.2-37.8,3.5-2.4,7.9-4.7,8.4-8.7.4-3.1-1.9-5.8-3.6-8.5-6.5-9.6-7.9-22.2-3.6-32.9,1.5-3.7,3.7-7.5,3-11.4-.6-3.5-3.4-6.2-5.9-8.9-5.1-5.4-9.8-11.7-10.7-18.9s3-15.4,10.4-17.4c-7.8-6.4-7.9-19.4-.1-25.8-9-5.2,5.1-24.5,15.5-22.5-3.2-7.4,5.8-15.6,14.3-14.9s15.2,7.1,19.7,13.9c6.8-9.4,16-18.3,27.9-20.6,11.9-2.3,26.2,4.9,27.1,16.3,8.9-11.2,22.2-20.3,37-20.8,14.8-.6,30.4,9.5,31.8,23.5,11.1-7,22.8-14.2,36.1-15.6,13.3-1.5,28.6,4.8,32.2,17,17.6-5.7,29.2-27.1,47.6-24.9,11.1,1.3,18.5,11,24.7,19.8,11.9-9.7,24.8-19.7,40.3-21.9,15.5-2.2,34,7.2,34.7,22,12.7-9.4,26.2-19.1,42.1-21.3,15.9-2.2,34.7,6.2,37.3,21.2,9.8-11.6,22-23.4,37.7-24.8,15.7-1.4,32.6,14.4,25.3,27.6,9-7.5,19-15.4,30.9-15.6,12-.2,24.1,12.1,18.3,21.9,6.1-6.8,12.5-13.8,21.1-17.5,8.6-3.6,20.1-2.8,25.8,4.3,8.6,10.9-1.3,25.9-10.9,36.1,23.6,3,36,34.9,20.2,51.7-2.5,2.7-5.7,5.3-5.9,8.9-.2,4.6,4.6,7.8,8.3,10.9,16.7,13.9,13.9,43-5.1,53.8,13.2,8.6,20.8,24.5,18.9,39.6-1.9,15.1-13.3,28.8-28.3,34.2,15.1,4.5,24.2,22,18.6,36-1.5,3.8-4,7.5-3.8,11.5.2,4.5,3.6,8.2,6.2,12,10.7,15.8,7.2,38.8-7.8,51,10.4,6.5,16.5,18.8,15.2,30.6Z"/>
    <path class="st5" d="M1741,411.8c-1.6,11.3-9.1,20.5-19.7,24.7s-2.6,2-2.1,3.7c3.1,10,7,21.5,3.5,31.9-2.9,8.7-10.9,15.3-20.2,14.4s-3.8,3.4-2.1,5.1c7.7,7.9,6.9,21.4-2,28.1l3.6.5c-2.2-2.2-4.4-4.3-6.7-6.5s-2.4-1.1-3.6-.5c-7.2,3.8-11.6,10.6-16.7,16.7-6.2,7.6-12.8,11.7-22.3,6.4s-13.6-8.6-22.2-7.6c-6.6.8-12.4,4.4-17.6,8.4-10.6,8.1-23.4,24.1-38.4,19.1s-15.7-10.5-25.6-9.9-9,2.6-13.2,4.8-11.4,4.7-18,4.4c-12.4-.4-24.1-6.3-34.7-12.2s-17.3-10.3-27.4-5.2-8.4,5.7-13,7.9-10.1,3.8-15.4,4.5c-10.4,1.3-21.4-.4-30.7-5.3s-15-12.2-24.4-4.9-7.7,5.9-13,6.9-11.2.6-16.7-.2c-10.1-1.4-20.2-4.1-30.4-4-11,.1-21.3,4.1-31.9,6.5-5.7,1.3-11.8,2.3-17.6,1s-9.9-6.3-15.2-9.3c-11-6.3-25.1-1-36.6.9s-30.1,4.1-43.5-2.4c-10.4-5-19.4-14.5-18.6-26.7s-2-3.6-3.8-2.9c-9.4,3.9-19.9,7.5-30.2,5.3s-16.5-7.7-17-16.3,2.1-8.6,2.7-13.1-.2-6.5-1.7-9.6c-3.7-7.7-10.4-13.2-13.4-21.4s-3.5-17-1.4-25.4c2.2-8.7,8-14.4,11.7-22.2,3.7-7.6.5-13.2-3.7-19.7s-7.3-15.5-7.3-24.2c0-8.6,2.3-17,7-24.3,3.9-6.1,8.5-11.5,5.1-19-1.6-3.5-4.2-6.2-6.2-9.4s-4.2-8.2-5.2-12.7c-1.9-8.6-.8-17.9,3.2-25.9,3.5-6.9,10.1-13.3,9.4-21.6-.7-7.8-8.6-12.2-11.1-19.2s-1.5-14.9,2.4-21.1,11.5-8,14.8-14.1c1.7-3.1,1.3-6.6-.3-9.7-2.4-4.6-5.5-8.2-7-13.3-1.4-5-1.8-10.3-.8-15.4s3.8-9.2,4.7-14.1c1.7-9.3-7.1-14.6-11.8-21.3s-8-21.3,3.5-25.1,3.1-3.4,1.3-5c-6.6-5.8-6.6-15.7-.1-21.6s.9-3.7-.6-4.7c-3.7-2.4.5-8.6,2.4-10.9,2.8-3.4,6.9-6.6,11.5-6s3.5-2.1,2.9-3.8c-2.5-7.2,6.4-11.9,12.4-11s12.2,6.7,16.1,12.3,3.8,1.9,5.2,0c6.6-8.9,15.5-17.8,27-19.3s21.2,3.5,22.4,13.5,3.3,4.4,5.1,2.1c8.7-10.8,21.2-19.8,35.6-20s26.4,7.5,28.1,20.5c.3,2.1,2.4,3.9,4.5,2.6,11.3-7.1,23.6-14.9,37.3-15.4,10.5-.4,23,4.2,26.6,14.9.5,1.5,2.1,2.6,3.7,2.1,12.7-4.4,21.1-15,32.6-21.5,6.3-3.5,13.4-4.7,20-1.4,7,3.5,11.9,10.2,16.2,16.4s3.1,1.9,4.7.6c11.8-9.6,25.5-20.6,41.4-21.3s27.4,6,28.4,19.3c.2,2,2.5,4.1,4.5,2.6,13-9.6,27.7-20.7,44.5-21.2s27.7,5.8,30.5,19.3,3.6,3,5,1.3c9.1-10.7,20.7-22.7,35.6-23.9s29.2,10,22.7,23.1,2.1,5.8,4.7,3.6c8.1-6.7,17.7-14.7,28.8-14.7s20.6,8.1,15.7,17.4c-1.5,2.9,2.3,6.3,4.7,3.6,8.9-10,21.7-23.3,36.7-17.5,17.8,7,2.9,27.7-4.9,36.2s-1,4.7,1.3,5c12.5,1.9,21.8,11.8,24.4,23.9,1.2,5.6.9,11.7-1.6,16.9-2.7,5.6-9.4,9.1-10.5,15.4s4.5,10.6,8.9,14.4,8,9.4,9.4,15.6c2.9,12.8-2.5,26.7-13.9,33.5s-1.8,3.9,0,5.2c12,8.2,19.7,22.9,17.3,37.6-2.3,14.1-12.9,25.7-26,30.7s-3,4.8,0,5.8c9.8,3.2,17.2,12.2,18,22.5.7,9.9-8.5,18.1-3.8,27.9,2.2,4.7,6,8.5,8.1,13.3s2.8,9.5,2.7,14.4c-.2,10.7-5,20.5-13.1,27.4s-.9,3.7.6,4.7c9.4,6.2,14.7,16.7,13.7,28s5.7,3.8,6,0c1.2-13.4-5.6-25.8-16.7-33.2l.6,4.7c8.4-7.2,13.6-17.3,14.7-28.3s0-10.8-1.5-16-5.3-10.3-8.5-15.5-2.5-7-.8-11.2,2.5-5.2,3.2-8c1.2-4.8,1-10-.4-14.8-3-10.4-11-18.6-21.3-21.9v5.8c15.6-5.9,28.1-19.4,30.4-36.3,2.4-17-6.3-33.5-20.2-43v5.2c18.3-10.9,23.4-37.5,9.9-54.2-3.1-3.9-12.9-8.8-11.1-14.4s4.3-4.9,6-7.2,3-4.2,4-6.7c3.9-9.1,2.9-19.5-1.2-28.3s-14.4-18.3-25.8-20l1.3,5c10.2-11,24.4-32.8,6.5-44.2-17.6-11.1-35.6,4.6-46.7,17l4.7,3.6c5.9-11.3-3.9-22.7-14.8-25.7-14.7-4-28.6,6.9-39.1,15.7l4.7,3.6c7.5-15-7.4-29.6-21.7-31.9-18.8-3-34.9,12.3-46,25.4l5,1.3c-3-14.8-18.3-22.7-32.3-23.7-19.4-1.3-36.7,11-51.5,21.9l4.5,2.6c-1.2-15.4-16.2-24.2-30.4-25.2s-35.7,11.7-49.7,23l4.7.6c-8.6-12.3-20.5-25.2-37.1-20.4s-23.9,19.1-38.5,24.1l3.7,2.1c-4.1-12.1-16.2-18.3-28.3-19.2s-31.2,7.9-44.4,16.1l4.5,2.6c-2-15-15.5-24.7-29.9-26.3s-33.5,8.6-44,21.5l5.1,2.1c-1.5-12.4-13.7-19.7-25.5-19.7s-26.7,11.2-35,22.5h5.2c-5.7-8.2-14.5-16.7-25.4-15.3s-17.3,9.4-14.1,18.6l2.9-3.8c-11.7-1.5-30.1,19.4-17,28.1l-.6-4.7c-8.8,8-8.8,22.2.1,30.1l1.3-5c-6.6,2.2-11.1,7.6-12.4,14.3s2.2,15.6,6.9,21.8,7,6.6,8.8,10.6-2.2,10.8-3.5,15.7c-2.3,8.3-1.6,17.3,1.8,25.3,1.5,3.6,4.7,6.7,6,10.3,1.9,5.5-4.6,7.5-8,10.3-5.5,4.4-9.2,10.8-10.5,17.7s-.4,13.7,2.8,19.7c2,3.7,5.3,6.4,7.5,10,3.5,5.7-.2,11-3.3,15.8-9.3,14.4-11.5,31.7-3.6,47.4s4.6,6.7,6.7,10.2c3.6,5.8.4,9.4-2.9,14.2-4.6,6.7-7.4,14.5-8.3,22.6-.9,8.2.1,16.7,3.2,24.4s3.6,7.3,5.9,10.7c3.4,5,4.1,8.9.9,14.3-4.7,7.7-9.6,14.1-11.3,23.2-1.6,8-1.2,16.4,1.2,24.2s3.3,8.6,5.9,12.4,7.2,8.2,9.1,13.2-1.3,10.5-1.9,15.9.3,7.5,2,10.9c10,20.1,35.8,16.1,52.7,9l-3.8-2.9c-1.5,20.9,19.6,34.4,38,36.6,12.8,1.6,25.7-.6,38.3-3,6.2-1.2,12.8-3.1,19.1-2.3s10.6,6.1,16.1,9.2c9,5.1,19.5,3.8,29.1,1.4,11.1-2.7,21.8-6.6,33.4-5.8,11,.7,21.6,3.9,32.6,4.5s18.1-2,26-8.2c3.5-2.8,6.1-2.9,10.1-.4s4.1,3,6.3,4.2c4.4,2.6,9.3,4.5,14.3,5.8,9.6,2.4,19.9,2.4,29.4,0s8.9-2.9,12.9-5.2,10.2-8.3,16.5-8,11.7,4.7,16.9,7.5,10.9,5.6,16.6,7.8c10.2,3.9,21.8,6.1,32.5,2.7,5.1-1.6,9.5-5,14.5-6.7,6.2-2.2,11.4.3,16.7,3.3s14.6,7.9,23.4,6.1,13-5.8,18.5-10.1,13.1-12,21-15.8,7.4-2.6,11.3-1.9c5.6.9,10.1,4.9,15,7.4,8.6,4.4,17.1,3.2,24.1-3.4,6.9-6.5,11.1-15.8,19.7-20.4l-3.6-.5c2.2,2.2,4.4,4.3,6.7,6.5s2.6,1.3,3.6.5c11.9-9,13.8-26.7,3.2-37.5l-2.1,5.1c10.7,1,20.3-6,24.7-15.5,5.7-12.3,1.7-26.3-2.2-38.5l-2.1,3.7c12.4-4.9,22-15.4,23.9-28.9.5-3.8-5.2-5.4-5.8-1.6Z"/>
  </g>
  <path class="st5" d="M115.8,433.8c-2.3,0-4.2-1.9-4.2-4.3,0-2.8-.6-281.8,0-316v-5.5c.4-32.4.8-63.1,64.3-68.3,84.3-7,445.6-.1,449.1,0,25.7.6,53.2,15.5,53.4,55.4.2,39.5,8.5,340.7,8.6,343.7,0,1.2-.4,2.3-1.2,3.1-.8.8-1.9,1.3-3.1,1.3-81.4,0-562-9.3-566.9-9.4ZM176.5,48.3c-55.7,4.6-55.9,27.8-56.3,59.8v5.6c-.6,31.9-.2,276.5,0,311.7,46.9.9,469.9,9.1,558.1,9.3-1-37.6-8.3-302.6-8.5-339.5-.2-42.5-34.5-46.6-45-46.9-22.9-.5-170.4-3-293.1-3s-127.6.8-155.1,3Z"/>
  <g>
    <path class="st4" d="M652,389.5c0,6.1-1.4,8.3-2.5,9.4-3.3,3.3-10.9,4-22.2,3.9-12.2,0-194-.4-324.1-.4s-123.8.1-130.5.4c-9.1.4-15.9,0-19.3-3.3-2.8-2.7-4-7.8-4-16.2.2-21.6.8-232.3,0-264.1-.7-31.2,7.8-40.5,39.6-43.3,35.1-3.1,398.5,3.1,416.4,3.5,19.2.4,33.9,15,36.8,36.2,2.9,21.5,9.7,269.9,9.8,273.8Z"/>
    <path class="st5" d="M650.7,114.5c-3.4-25.1-22-43.1-45.1-43.6-18.7-.4-381.2-6.6-417.4-3.5-36.3,3.1-48.3,16.2-47.5,52,.8,31.7.2,242.2,0,263.8,0,11,1.9,18,6.6,22.5,4.7,4.6,11.4,5.9,20.3,5.9s3.4,0,5.3-.1c19.3-.8,435.5,0,454.2,0,14.4,0,22.9-1,28.4-6.5,3.5-3.5,5.1-8.5,5-15.6h0c-.3-10.4-6.9-252.9-9.8-274.9ZM649.5,398.9c-3.3,3.3-10.9,4-22.2,3.9-12.2,0-194-.4-324.1-.4s-123.8.1-130.5.4c-9.1.4-15.9,0-19.3-3.3-2.8-2.7-4-7.8-4-16.2.2-21.6.8-232.3,0-264.1-.7-31.2,7.8-40.5,39.6-43.3,35.1-3.1,398.5,3.1,416.4,3.5,19.2.4,33.9,15,36.8,36.2,2.9,21.5,9.7,269.9,9.8,273.8,0,6.1-1.4,8.3-2.5,9.4Z"/>
  </g>
  <path class="st5" d="M748.7,564.7c17.6,0,24.5-1.4,27-6.1,2.7-5.1,3.7-23,0-30.2-7.7-15.1-82-85.1-90.4-93.1l-5.9,6.3c22.7,21.3,82.7,79.1,88.6,90.7,2.4,4.7,1.5,19.6,0,22.3-2.8,2.1-24.4,1.5-33.6,1.3-11.2-.3-183.5-1.1-350.1-1.9-158-.8-307.3-1.5-316.2-1.7h-7.2c-17.1-.3-28.4-.9-30.2-8.2-2.8-11.1-.2-19.6,8.5-27.6,13.5-12.5,51.1-53.1,69.2-72.6,5.7-6.2,9.5-10.3,10.1-10.9l-2.9-2.9-.8-4.4q-1.5.3-12.7,12.4c-18,19.4-55.5,59.8-68.7,72.1-10.9,10.1-14.5,21.9-11,36,3.5,14.2,21.3,14.4,38.4,14.5h7.1c9,.3,158.3,1,316.4,1.8,166.6.8,338.8,1.6,349.9,1.9,5.5.1,10.2.2,14.4.2Z"/>
  <path class="st5" d="M771.9,535.4v-8.6s-385.4-1.7-602.8-2.8h0c-2.4,0-4.3,1.9-4.3,4.3,0,2.4,1.9,4.3,4.3,4.3,217.4,1.1,602.8,2.8,602.8,2.8Z"/>
  <path class="st5" d="M123.9,532.4c2.4,0,4.3-1.9,4.3-4.3,0-2.4-1.9-4.3-4.3-4.3-30.6-.2-50.7-.3-65.6-.5-13.4-.1-22.6-.2-31.5-.2s-4.3,1.9-4.3,4.3,1.9,4.3,4.3,4.3c8.9,0,18,0,31.4.2,14.9.1,35,.3,65.6.5h0Z"/>
  <g>
    <path class="st5" d="M354.1,464.5v-9.7s0,0,0-.1c-14,.2-28.5.4-43,.5-.1,2-.2,5.4-.4,9.7,14.6-.1,29.1-.3,43.3-.4Z"/>
    <path class="st5" d="M254.4,465.5c16.5-.2,33.6-.4,50.7-.5.1-4.1.3-7.6.4-9.7-17.1.2-34,.4-50.2.6,0,.3.3.6.2.9-.4,2.7-.8,5.6-1.1,8.7Z"/>
    <path class="st5" d="M359.9,464.4c16.2-.1,31.7-.3,46.3-.4,0,0-.8-9.6-.7-10-14,.2-29.5.4-45.7.6,0,0,0,.1,0,.2v9.6Z"/>
    <path class="st5" d="M209.4,466c12.4-.1,25.6-.3,39.2-.4.4-3,.8-6.1,1.3-9.5,0,0,0,0,0-.1-13.1.2-25.5.3-36.9.4,0,.4-2.5,7-3.6,9.6Z"/>
    <path class="st5" d="M411.9,464c15.4-.1,29.5-.2,41.6-.2-.8-3.6-1.6-7-2.2-9.9,0-.1-24.5,0-40.7.2,0,.2,1.3,10,1.3,10Z"/>
    <path class="st5" d="M460.7,469.4l2.7,12.2c.3,1.2.5,2.3.8,3.5,21.9.1,37.5.3,43.2.4-2.4-5.4-5.1-11.2-7.4-16.2-.5.3-17.5,0-39.3.1Z"/>
    <path class="st5" d="M497.4,464c-1.7-3.7-3.1-6.3-3.5-7.1-1.8-3.2-10.1-3.5-21.2-3.6-1.3,0-6.9,0-15.6.2l2.3,10.3c19.6,0,33.3,0,38,.2Z"/>
    <path class="st5" d="M167.6,466.5c10.7-.1,22.7-.3,35.6-.4,1.4-3.3,2.8-6.6,4.1-9.6-13,.1-24.5.3-33.6.3,0,.5-6.2,9.7-6.2,9.7Z"/>
    <path class="st5" d="M359.9,470.1v14.4c16.9,0,33.2.2,48.6.3l-1.6-15.1c-14.6.1-30.4.2-46.9.4Z"/>
    <path class="st5" d="M459.6,490.8c-13.1,0-28.2-.2-44.8-.3l2.2,20.5c0,.1,0,.2,0,.3,17.8.2,33.9.4,47.3.5h0c-.2-1.1-2.2-10-4.7-21Z"/>
    <path class="st5" d="M167.3,456.8c-9.3,0-15.1,0-16.4,0-10-.4-19.9-1.3-24.7,4.3-.7.8-2.7,3-5.6,5.9,6,0,20.3-.3,39.8-.5l6.8-9.8Z"/>
    <path class="st5" d="M163.5,472.3l-7.9,11.2c11.9,0,25.4.1,39.9.2,1.7-3.8,3.4-7.9,5.1-11.9-12.8.1-25.2.3-37.2.4Z"/>
    <path class="st5" d="M509.8,491c-.2,0-19.6,0-44.4-.2,2.2,9.8,4,20.7,4,21,21.6.2,35.4.3,36.7.2,7.1-.5,9.4-4.1,8.3-9.4-.3-1.6-2.1-6.1-4.6-11.7Z"/>
    <path class="st5" d="M310.6,470.6c-.1,4.3-.3,9-.4,13.7,14.8,0,29.5.1,43.9.2v-14.3c-14.1.1-28.7.3-43.5.4Z"/>
    <path class="st5" d="M253.6,471.2c-.6,4.3-1.1,8.6-1.7,12.8,17.1,0,34.8.2,52.5.3.1-4.6.3-9.3.4-13.6-16.9.2-34.1.4-51.2.6Z"/>
    <path class="st5" d="M207,471.8c-1.9,4.5-3.6,8.5-5.1,12,14,0,29,.1,44.4.2.5-3.7,1-7.9,1.7-12.7-13.8.2-27.5.3-40.9.5Z"/>
    <path class="st5" d="M245.5,489.7c-16.1,0-31.6-.2-46.1-.2-4.8,11.1-7.4,16.6-8.9,19.2,16.5.2,34.3.4,52.9.6,0-2.3.5-7.4,2.1-19.6Z"/>
    <path class="st5" d="M144.7,489.2c-25.2-.1-43.7-.2-44.5-.2-.8,0-15.1,15.3-15.5,16.2-.9,2.1,4.6,2.3,13.4,2.3,1.5,0,14.3.1,34.2.4,0-.5,0-1.1.3-1.5l12.1-17.3Z"/>
    <path class="st5" d="M193.1,489.4c-15.2,0-29.2-.1-41.4-.2l-13.1,18.8c13.9.2,28.8.4,47.4.6,0,0,3.1-10,7.1-19.2Z"/>
    <path class="st5" d="M359.9,490.2v19.5c0,.4-.3.6-.4.9,18.2.2,35.6.4,51.8.6l-2.3-20.7c-15.5,0-32.1-.2-49.2-.3Z"/>
    <path class="st5" d="M156.5,472.4c-13.6.2-40.7.5-40.7.5-.8,0-6.8,6.5-10.6,10.5,6.2,0,21.9,0,43.6.2l7.8-11.1Z"/>
    <path class="st5" d="M304.3,490c-17.9,0-35.7-.2-53.1-.3-1.3,10.1-2.2,18.1-2.3,19.7,18,.2,36.5.4,55,.7,0-.1-.1-.2-.1-.4,0-.8.2-9.4.5-19.7Z"/>
    <path class="st5" d="M412.5,469.7l1.6,15.1c16.2,0,31.1.2,44.1.3-1.1-5.1-2.3-10.5-3.5-15.6-12.2,0-26.5.1-42.3.2Z"/>
    <path class="st5" d="M354.1,490.2c-14.5,0-29.3-.1-44.1-.2-.3,10.7-.5,19.6-.5,19.8,0,.1-.1.2-.1.3,15.2.2,30.4.4,45.1.5-.1-.3-.4-.5-.4-.9v-19.5Z"/>
    <path class="st5" d="M528.1,464c.8,0,14,0,28.2-.1,5.6,0,10.8,0,16,0-2.7-4.9-6-9.7-6.3-10.3,0,0-19.4-.4-22.3-.3-9.1.5-22.9-1.5-19.5,4.5.9,1.6,4,6.3,4,6.3Z"/>
    <path class="st5" d="M624.7,463.6c-2.4-5-5.1-8.4-5.5-9.8-14.5-.4-31.3.1-46.7-.2,1.6,2.4,3.8,6,6.2,10.2,18.4,0,33.5-.2,46-.2Z"/>
    <path class="st5" d="M633.9,469.3c2.2,4.2,4.6,8.8,6.9,13.4,24.2,0,45.3,0,52.9.4-4-4.4-8.5-9.5-12.5-13.9-.4.2-24.1,0-47.3.1Z"/>
    <path class="st5" d="M676.7,464.2c-2.7-3.1-4.9-5.4-5.7-6.4-3.1-3.6-16.9-3.8-28-4-2.6,0-8.9-.2-17.2-.4.8,1.6,3,6.2,5.1,10.2,26.6,0,39.5,0,45.8.6Z"/>
    <path class="st5" d="M623.3,454.8s0,0-.1,0h0s0,0,0,0Z"/>
    <path class="st5" d="M581.9,469.5c2.4,4.3,4.9,9,7.3,13.4,14.3,0,30.1-.2,45.2-.2-2.8-5.5-5-9.8-6.8-13.4-14.9,0-31.1.1-45.6.2Z"/>
    <path class="st5" d="M701.9,492.2c-1-1.1-2.3-2.6-3.8-4.3-.5.6-27.3.5-54.3.5,3.2,6.2,7.4,13.4,9.4,17.3.2.5,45.6,0,48.7-.1,7.7-.4,6.9-5.7,0-13.4Z"/>
    <path class="st5" d="M592.2,488.7c4.7,8.9,8.3,16,8.6,16.9,14,0,30.1,0,45.4.1-3.4-6.5-6.3-12.2-8.9-17.2-14.4,0-29.9,0-45.1.2Z"/>
    <path class="st5" d="M582.7,483c-2.5-4.6-5-9.2-7.3-13.4-7,0-13.5,0-19,0-14.9.1-21.9.1-25.3,0,2.6,4.5,5.5,9.4,8.3,14.2.4-.2.7-.5,1.2-.5,2,0,19.6-.2,42.2-.3Z"/>
    <path class="st5" d="M542.4,489c3,5.2,5.5,9.5,6.4,11.1,2.9,5.1,7.3,6.1,15.1,5.6,2.3-.1,14.6-.2,31-.1-1.5-2.7-5-9.3-9.1-16.8-15.9,0-30.9.2-43.4.3Z"/>
  </g>
  <path class="st5" d="M176,117c3.1-.5,6.1-1,9.2-1.4s7.2-1.7,10.7-.9,7.2,2.4,11.4.2,1.4-1.1,2.1-1.3c3.9-1.3,3.7.4,6,1.7s2.8.9,4.4.8,4.2-1.2,6.4-1.2c3.9,0,3.7,3.9,5.8,6.2s6-.2,8.5-1.5,4.9-2.7,7.3-4.3,4.9-3.9,7.3-2,1.7,2.8,2.3,4c4.2,7.9,10.6,6.6,17,2.8,2.2-1.3,4.5-2.9,7-3.5s6.2.5,9.4,1.2,7.4.8,11-1.7,3.8-3.3,6-4c3.5-1.3,5.2,1.5,8.2,2.6s7-.3,10.1-2.1,3.9-2.5,5.9-3.6c3.6-2,6.4-1.5,9.3,1.7s4.4,3.2,7.2,2.9,6.1-2,9-3.2,3.3-1.4,5-1.7c3.4-.5,4.5.8,7.3,2.7,4,2.7,8.2.3,12.4-1s7.2-3.5,9.9,0,1.4,2.6,3,3.5c3.8,2.1,8.5.6,12.2-.7,6.7-2.3,13.8-5.6,20.3-1s2.2-1.3,1.1-2.1c-9.4-6.6-18.3,1.3-27.9,2.3s-2.8.2-4.1-.4c-3.2-1.3-2.1-2.5-3.7-4.7s-1.4-1.6-2.8-1.7c-4.5-.4-9.3,3.3-13.8,4s-7.6-3.7-12.3-3.7-6.5,1.6-9.5,3-8.2,3.7-11.8,0-4.1-4.9-8-3.8-8.4,5.4-13,7-5.1,0-8.4-1.8-2.6-1.3-4.1-1.1c-4.4.4-7.3,5.1-11.3,6.5s-10.4-2.3-15.7-1.6-8.6,4.6-13.2,6.2-6.7.8-9-2.7-1.6-3.7-2.8-5.3c-2-2.7-4.3-2.9-7.1-1.5s-4.7,3.1-7,4.5-3,1.7-4.5,2.4c-3,1.5-4.2,1.6-6.1-1s-1.1-2.5-2.5-3.4-3.6-1-5.4-.8-1.7.4-2.5.5c-3.2.7-4.7.2-7.6-1.4s-2.2-1.5-3.9-1.3c-2.9.4-5,3.2-8.1,3.4s-5.1-1.4-7.7-1.8-5.2.4-7.8.8c-3.9.6-7.8,1.2-11.7,1.8s-.8,2.5.6,2.3h0Z"/>
  <path class="st5" d="M184.4,143.4c8.2-2.8,15.4,5.2,23.6,4.1s6.4-2.8,9.5-4.6c5.5-3.2,9.1-1.1,14.5.6,8.7,2.9,17-7.1,25.1-1.8s5,3.6,8.4,3.7,7.8-1.4,11.7-2.5,9.7-1.7,14.8,1,6.8,3.6,10.7,3.5c7.4-.2,13.7-5.5,20.8-7.5,5.4-1.5,8.7.5,13.6,2.9s6.5,1.8,9.9,1.3c8.9-1.4,16.8-6.7,25.9-3.1s8.2,3.1,13,2.3,9.3-2.9,14-3.9c9.4-1.8,19.3,5.3,28.1-.4s.1-2.8-1.1-2.1c-8,5.2-17.6-1.4-26.3-.1s-8.2,2.4-12.4,3.4-10,.2-15.5-1.9c-7.8-2.9-14.8.4-22.4,2.5s-9.3,1.4-14.1-1.1-6.1-3.2-9.8-2.9c-7.3.6-13.6,5.9-20.7,7.6s-15.3-6.4-24.1-5.1-7.7,2.2-11.6,3.1-6,.9-8.9-.6-3.4-2.7-5.3-3.5c-7.7-3.6-15,5.3-22.8,3.1-4-1.1-7.7-3.7-12-2.8s-7.3,4.5-11.3,5.9c-8.9,3.2-17-6.6-26.1-3.5s-.7,2.8.6,2.3h0Z"/>
  <path class="st5" d="M183.3,173c4.5-2.6,9.6-3.6,14.6-2.4,4.3,1.1,7.8,4,11.9,5.5,7.1,2.7,14.2.2,21-2.2s7.9-2.8,12.1-3,8.6,1.9,12.9,3.5c7.7,2.9,15.2,1.3,22.5-2.1s17.8-12.1,24.9-3.4,3.5,4.8,6.7,5.6,6.4,0,9.5-.6c8.8-1.9,16.2-7.7,24.9-9.8,9.2-2.2,14.5,7.2,23.3,8.1,9.3.9,17.6-4.2,26.1-7.6,11.9-4.8,22.4-1.9,33.9,2.8,1.3.5,1.9-1.8.6-2.3-8.5-3.4-17.4-6.8-26.6-5.3s-16.7,7.1-25.4,9.3c-5.2,1.3-10.8,1.3-15.6-1.6s-5.9-4.9-9.8-5.8c-8.1-1.9-15.8,4.2-23,7.2-4.2,1.7-8.6,3-13.1,3.5s-5.7,0-8-2.5-2.2-3.3-3.7-4.6c-5.1-4.7-12.2-2.1-17.6.6-9.2,4.6-18.1,10.3-28.5,6.6-3.6-1.3-6.9-3.1-10.7-3.6-3.8-.5-7.6.2-11.3,1.3s-8.6,3.2-13,4.2c-6.3,1.4-10.9.1-16.5-2.9-7.6-4.2-15.5-4.8-23.2-.4s-.1,2.8,1.1,2.1h0Z"/>
  <path class="st5" d="M180.3,202.2c8.2.9,16.4-.2,24-3.7,5-2.3,8.7-4.3,13.9-1.4s6,4,9.5,4.8c6.9,1.5,13.7-1.7,20.4-3.2,9.9-2.2,17.7,2.6,27.2,3.8,8.2,1.1,16.2-1.6,23.6-5.1s8.8-4.6,13.6-5.7,9.6.3,14.4,2.2c7.5,3,13.4,3.2,21.2,1s8.4-2.6,12.7-2.1,8,3.8,11.9,6.5c7.5,5.1,16.5,2.4,24.6.5s21.1-6.1,31.2-10.6c1.3-.6.7-2.9-.6-2.3-8.5,3.8-17.2,6.9-26.1,9.4-9.8,2.7-20.7,6.6-29.6-.2-5.7-4.3-10.6-6.4-17.6-5.1s-7.5,2.1-11.2,2.9-9.5.4-14.3-1.5c-7.7-3-13.8-4.4-21.7-1.3-8.9,3.5-17,8.9-26.7,9.4s-16.7-4.9-25.4-5c-8.1,0-15.5,4.6-23.5,4.5s-13.9-9-22.2-6.2c-4.4,1.5-8.4,4-13,5.2s-10.6,1.6-16,1-1.4,2.2,0,2.4h0Z"/>
  <path class="st5" d="M192.7,221.9c8.3-.2,15.9-4.5,24.2-4.5s14.2,6.9,21.9,10.1c13.6,5.7,26.7-5,40.1-6.1,8.7-.8,15.7,4.5,24,6.1s15.3-.7,22.4-3.4c7.7-2.9,15.5-6.4,24-6s9.6,2.5,13.6,6.1,4.7,3.9,7.8,4.8c7.9,2.4,16.6-.5,24.2-2.5s22-5.6,32.6-.9,2.6-1.4,1.2-2.1c-15.9-7.1-31.4,1.5-47.3,3.6-4.7.6-9.7.5-13.8-2.2s-6.1-5.9-10.3-7.6c-6.1-2.5-12.9-1.8-19.2-.2s-16.7,6.9-25.7,8.2-17.1-4-26.4-5.9c-15.1-3-28.6,10.6-43.4,6.8-8.2-2.1-13.7-9.6-22.2-10.9-9.4-1.5-18.2,4-27.5,4.2-1.5,0-1.5,2.4,0,2.4h0Z"/>
  <path class="st5" d="M188.1,246.5c3.8-3.6,9.6-4.2,13.8-.9s4.4,5.6,7.4,7.6c5.7,3.9,13.1,2.5,19.2.2s7.1-3.2,10.8-4.3c5.4-1.7,10.6-1.2,16-.2,7.9,1.4,14.8,2,22.7,0s17.5-6.2,26.4-3.4c8,2.5,14,8.8,22.4,10.3,16.4,2.9,31.6-8.3,48.1-5.5s16.5,3.8,25.7.7c7.7-2.6,22.3-9.1,26.9,2.1.6,1.4,2.9.8,2.3-.6-6.8-16.4-26.7-2.7-37.7-1.9-9.6.7-18.5-4-28.3-2.9s-16.9,4.3-25.5,5.6-9.9.8-14.7-.8-9.3-5-13.9-7.4c-7.3-3.7-14.5-3.4-22.3-1.4s-8.2,2.5-12.4,3.4-10.9,1-16.6,0c-9.2-1.7-16.4-1.9-25.2,1.8s-10.1,4.6-15.6,4.5-9.1-5-13.6-9.1-12.7-4-17.5.6.6,2.7,1.7,1.7h0Z"/>
  <path class="st5" d="M184.4,274.1c8.8-2.4,16.6,3.9,24.5,7.2s13.9,2.6,21,.4c7.8-2.4,15.7-6.8,24-6.4s15.2,7.6,23.7,8.9c16.6,2.4,32.3-9.4,48.9-6.3s14.7,6.2,23,4.8,14-5.8,21.1-8.3,9.9-2.2,15-.5,8.3,3.9,12.8,4.7c9.2,1.6,21.6-9.9,29.2-.9.9,1.1,2.5-.6,1.5-1.7-4.9-5.8-12-4.3-18.1-2s-10.2,3.3-15.8,1.3-8.6-4.1-13.3-4.8c-7.4-1.1-14.4,2.5-21.1,5.6s-6.9,3.2-10.5,4c-5.6,1.2-10.7-.4-16.1-2.4-7.7-2.8-14.8-3.2-22.8-1.7s-17.4,5.2-26.4,5.9c-4.4.4-8.7,0-12.9-1.6s-8.3-4.9-12.8-6.4c-7.2-2.3-14.6,0-21.5,2.5-10.2,3.7-19.3,6.8-29.7,2.1s-15.5-9.1-24.4-6.6c-1.3.4-.8,2.7.6,2.3h0Z"/>
  <path class="st5" d="M185.4,307.7c4.9-2.5,10.2-5.1,15.7-4.5s8.9,4.3,12.8,7.9c5.6,5.2,11.3,8.2,18.6,8s15.4-3.6,22.8-6.5,18.6-5.6,28.6-1.4c7.3,3.1,13.5,4.9,21.2,2.8s13.6-6.2,20.7-7.8,8.7-.9,12.9,1.2,7.3,4.6,11.3,5.9c7.8,2.6,15.9-.2,23.4-3,4.9-1.8,9.8-4,14.9-4.6s9.7,1.7,14.7,4.1c8.3,4.1,17.2,4.3,25.7.9s.7-2.8-.5-2.3c-10,4-18.7,1.9-28.1-2.8-7.3-3.6-13.8-2.5-21.2.1s-19.3,8.7-29,5-12.6-8.2-20.7-7.5c-7.3.7-14.1,4.7-21,7.3s-7.2,2.4-10.9,2.3-9.2-2.3-13.6-4.2c-8.3-3.4-16.1-2.8-24.5,0s-16.5,7.3-25.3,8-10.5-.7-15.1-4.2-6.7-6.6-10.5-9.1c-7.9-5.1-16.3-1.6-24,2.3s-.2,2.7,1,2.1h0Z"/>
  <path class="st5" d="M189.1,343.5c4.2-4.3,9.7-1.8,14.5-.7s6.6.7,9.9-.1c9.3-2.3,17.7-5.5,27.5-5.3s17.3,4.2,25.9,2.9,9.1-1.9,13.8-1.6c5.2.3,10.3,1.5,15.2,3.1,7,2.3,14.5,6.3,22,4.3,6.9-1.9,12.9-10.2,20.5-8.5s6.2,3.3,9.4,4.6,5.7,1.4,8.7,1c4.7-.7,9-2.1,13.8-1s7.1,2.3,11,1.9,8.4-2.3,12.7-3,10.4,1.2,15.5,3.4,14.8,5.3,21.1-.1,0-3-1.1-2.1c-7.9,6.8-17.3.2-25.4-2.5s-6.8-1.6-10.3-1.1-8.6,2.8-13.1,3.1-8.2-1.9-12.5-2.4-6.2.4-9.3,1c-5.2,1-9,.5-13.7-2.2s-5.3-3.1-8.3-3.2c-7-.3-12,6.1-18.2,8.4s-18.5-3.2-26.9-5.3-7.8-1.7-11.8-1.8-8.8,1-13.3,1.7-10.3-.9-15.5-1.9-8.3-1.1-12.5-1-8.9.7-13.3,1.7-9.1,3.2-13.8,4.1c-7.9,1.4-17-6-23.8,1.1s.5,2.7,1.5,1.7h0Z"/>
  <path class="st5" d="M192.2,374.1c6.8-4.1,13.3-11.6,21.5-11.5,4.4,0,8.4,2.6,12.3,4.5s6.9,2.8,10.6,3.3c8.2,1.2,16.4-.3,24.5-1.2,9-1,17.2,0,26.1,1.3s7.7.9,11.6.4,8.8-1.9,13.3-1.9c7.8,0,14.3,5.9,22.3,4.8s6.7-1.7,10.1-2.4c5.2-1.1,9.4-.1,14.3,2,7,3.2,12.9,3.8,20.3,1.4,4.7-1.5,9.8-4.6,14.8-4.6s8.5,3.8,13,4.4c7.9,1.1,15.8-3.9,23.6-.7s1.9-1.8.6-2.3c-6.9-2.9-13.6.3-20.6.7s-7.5-1.6-11.4-3.3-6.6-1.3-10.1-.2c-8.9,2.6-16.8,7.6-26.2,3.8s-7.2-3.6-11.1-4.1-6.6.2-9.9,1.1c-4.6,1.2-9.1,2.6-13.8,1.5s-8-3.4-12.3-4.2c-8.3-1.5-16.6,2.4-25,1.6s-17.3-2.8-26.4-2.1-17.3,2.6-26,1.7-10.4-2.9-15.5-5.3-6.8-2.9-10.5-2.6c-8.1.6-14.4,7.7-21.2,11.8s-.1,2.8,1.1,2.1h0Z"/>
  <path class="st5" d="M598.5,110.4c-28.4-3.5-57-3.9-85.6-3.5-7.1,0-14.3.2-21.4.4s-10.6.1-15.5,1.8c-10.2,3.5-12.5,12.7-13.1,22.4-1.6,28.9-3.4,57.8-3.7,86.7-.2,28.8,3.4,56.9,5.5,85.5s.9,14.1.9,21.2-.7,13.7-.4,20.6c.5,10.1,3.7,21.1,12.8,26.7s24,2,35.1.6c14-1.8,28.1-2.8,42.2-2.9,7.1,0,14.1.1,21.2.5s11.4,1.4,16.8.3c11.6-2.4,12.7-17.7,14.6-27.2,5.2-26.7,4.6-54.1,5.4-81.2s5.3-63.7,6.2-95.6c.2-8.5.2-17-.3-25.5s-.7-13.1-3.1-19.1c-3.7-9.2-13.9-15.9-23.5-10.8s-.3,6.3,2.7,4.7c5.4-2.9,11.5.5,14.4,5.3s3.6,11.9,4,18c.8,12.4.6,24.8,0,37.2-1.2,25.5-4.3,50.9-5.5,76.5-1.1,24.4-.4,48.9-3.1,73.2-.7,5.9-1.6,11.8-2.8,17.7s-2.1,15.5-6.3,19.5-10.8,2.2-15.7,1.8-12.8-.7-19.2-.8c-12.2-.1-24.4.4-36.5,1.5-6,.6-12,1.3-17.9,2.2s-12.1,2.3-18.1,1.7c-13.5-1.3-17.7-14.7-18-26.4-.2-12.7.6-25.3-.3-38-1.7-24.9-5.3-49.6-5.6-74.7s1.2-51.2,2.5-76.8.7-13.8,1.1-20.8.2-13.9,6.1-17.7,11.5-3,17.2-3.1,14.3-.3,21.4-.4c28.6-.4,57.2,0,85.6,3.5,3.4.4,3.4-5,0-5.4h0Z"/>
  <path class="st5" d="M491.3,132.9c-4.4,20.9-8.9,41.8-13.3,62.7s4.5,4.8,5.2,1.4c4.4-20.9,8.9-41.8,13.3-62.7s-4.5-4.8-5.2-1.4h0Z"/>
  <path class="st5" d="M491.7,135.5c7.2,7,10.8,16.1,14.2,25.3s7.8,20.9,11.7,31.3,6.4,1.8,5.2-1.4c-4.3-11.5-8.5-22.9-12.8-34.4s-7.4-17.8-14.5-24.7-6.3,1.4-3.8,3.8h0Z"/>
  <path class="st5" d="M484.6,170.9c9-1.1,18.1-1.7,27.1-1.9s3.5-5.5,0-5.4c-9.1.2-18.1.8-27.1,1.9-3.4.4-3.4,5.8,0,5.4h0Z"/>
  <path class="st5" d="M530,135.3c.5,18.4.6,36.9.3,55.3s5.4,3.5,5.4,0c.3-18.4.2-36.9-.3-55.3s-5.5-3.5-5.4,0h0Z"/>
  <path class="st5" d="M536.1,138c13.1-3.4,29,5.8,25.1,20.9s-14.7,25.8-28.5,27-3.5,5.7,0,5.4c8.7-.7,16.5-4.8,22.4-11.2s11.3-15.1,12-23.7c1.6-17.8-17.1-27.5-32.5-23.6-3.4.9-1.9,6.1,1.4,5.2h0Z"/>
  <path class="st5" d="M596.5,130.4c-16.4,0-29.7,17.5-19.8,32.6,4.4,6.8,20.7,10.8,18.6,20.4-2.7,12.3-22.3,12.4-30.8,7.7s-5.8,3-2.7,4.7c8.3,4.6,18.2,4.8,26.9,1.2,7.6-3.1,14.5-10.7,11.5-19.5s-15-10.3-19.5-18.4c-6.5-11.5,4.2-23.3,15.9-23.3s3.5-5.4,0-5.4h0Z"/>
  <path class="st5" d="M523.9,266.5c-.9,19.9-.6,39.8.9,59.6s3.1,1.9,3,0c-1.5-19.8-1.8-39.7-.9-59.6s-2.9-1.9-3,0h0Z"/>
  <path class="st5" d="M532.9,265.7c-1.8,19.7,0,39.5-2.1,59.2s2.8,1.9,3,0c2.2-19.7.3-39.5,2.1-59.2s-2.8-1.9-3,0h0Z"/>
  <path class="st5" d="M556.3,320.5c-.2.3-.6.4-.9.6s-.7.5-1,.9c-.6.7-.9,1.7-.6,2.6.6,1.8,2.9,2.2,4.5,1.6s2.8-2,2.9-3.7-1.6-3-3.5-2.9-1.9,3.1,0,3,.7,0,.7,0c0,0-.2-.3-.2-.3,0,0,0,.2,0,.3-.3.3-.5.7-1,.8s-.5,0-.5,0c-.2,0-.2,0,0,.2,0,.3,0,.3.1.2,0,0,.1-.1.1-.2.8-.3,1.5-1.1,2-1.7s0-1.7-.5-2.1-1.6-.1-2.1.5h0Z"/>
  <path class="st5" d="M554.2,283.8c-.1-2.6,0-2.6,1.6-5.1.4-1.8,1.3-2.7,2.9-2.8l5.4,2.4c1,1.4-1.2,8.3-1.6,10.3-1.2,5.6-2.2,11.1-3,16.7s-.6,8.3-3,5.6-.2-7.6-.2-9.1c0-6.1-1.9-11.9-2-17.9s-3-1.9-3,0c0,6,1.9,11.8,2,17.9s-1,10,1.2,13.3,4,1.9,5.6,0c2.9-3.4,2.5-11.5,3.2-15.6,1-5.9,2.7-11.7,3.5-17.6s.8-6.8-2.5-8.6-7.2-.6-9.7,1.1-3.5,6-3.3,9.5,3.1,1.9,3,0h0Z"/>
  <path class="st3" d="M544.3,254.6l1.8-4.2c.8-2,3.8-1.5,4,.6l.4,4.6c.3,3.6,4.8,5.1,7.2,2.3l3-3.5c1.4-1.6,4.1-.3,3.6,1.8l-1.1,4.5c-.8,3.5,3,6.3,6.1,4.4l3.9-2.4c1.9-1.1,4,1,2.9,2.9l-2.4,3.9c-1.9,3.1.9,7,4.4,6.1l4.5-1.1c2.1-.5,3.5,2.2,1.8,3.6l-3.5,3c-2.8,2.4-1.3,6.9,2.3,7.2l4.6.4c2.2.2,2.6,3.1.6,4l-4.2,1.8c-3.4,1.4-3.4,6.2,0,7.6l4.2,1.8c2,.8,1.5,3.8-.6,4l-4.6.4c-3.6.3-5.1,4.8-2.3,7.2l3.5,3c1.6,1.4.3,4.1-1.8,3.6l-4.5-1.1c-3.5-.8-6.3,3-4.4,6.1l2.4,3.9c1.1,1.9-1,4-2.9,2.9l-3.9-2.4c-3.1-1.9-7,.9-6.1,4.4l1.1,4.5c.5,2.1-2.2,3.5-3.6,1.8l-3-3.5c-2.4-2.8-6.9-1.3-7.2,2.3l-.4,4.6c-.2,2.2-3.1,2.6-4,.6l-1.8-4.2c-1.4-3.4-6.2-3.4-7.6,0l-1.8,4.2c-.8,2-3.8,1.5-4-.6l-.4-4.6c-.3-3.6-4.8-5.1-7.2-2.3l-3,3.5c-1.4,1.6-4.1.3-3.6-1.8l1.1-4.5c.8-3.5-3-6.3-6.1-4.4l-3.9,2.4c-1.9,1.1-4-1-2.9-2.9l2.4-3.9c1.9-3.1-.9-7-4.4-6.1l-4.5,1.1c-2.1.5-3.5-2.2-1.8-3.6l3.5-3c2.8-2.4,1.3-6.9-2.3-7.2l-4.6-.4c-2.2-.2-2.6-3.1-.6-4l4.2-1.8c3.4-1.4,3.4-6.2,0-7.6l-4.2-1.8c-2-.8-1.5-3.8.6-4l4.6-.4c3.6-.3,5.1-4.8,2.3-7.2l-3.5-3c-1.6-1.4-.3-4.1,1.8-3.6l4.5,1.1c3.5.8,6.3-3,4.4-6.1l-2.4-3.9c-1.1-1.9,1-4,2.9-2.9l3.9,2.4c3.1,1.9,7-.9,6.1-4.4l-1.1-4.5c-.5-2.1,2.2-3.5,3.6-1.8l3,3.5c2.4,2.8,6.9,1.3,7.2-2.3l.4-4.6c.2-2.2,3.1-2.6,4-.6l1.8,4.2c1.4,3.4,6.2,3.4,7.6,0Z"/>
  <path class="st5" d="M541.7,275.4c-10.6-15.1-33.2-3.2-29.6,14.1s11.6,8.5,19.7,10.1,7.1,1.4,9.4,3.7c4,3.8,2.6,9.9-.8,13.6-5.3,5.7-14.2,4.2-19.9.2s-3.1,1.5-1.5,2.6c6.4,4.4,15.8,5.9,22.2.6,5.5-4.6,7.9-13.7,2.2-19.1-2.8-2.6-7-3.7-10.7-4.4-5.2-1-13,.4-16.3-4.5s-.8-14.1,4-17.9,14.4-3.6,18.8,2.7,3.7,0,2.6-1.5h0Z"/>
  <path class="st5" d="M1603.6,74.4c-87.9-.8-175.9-1.6-263.8-2.4l-131.4-1.2c-15.3-.1-36.9-2.4-48.9,9.5s-6.5,11.6-7.2,18.3c-1.1,10.7-1.2,21.6-.5,32.4.7,9.8,2.2,19.6,4.4,29.2,1.9,8.2,4.5,16.3,10.7,22.4,12.5,12.3,32.7,14.9,49.3,15.8,21.4,1.1,43,0,64.3-.3s43.9-.7,65.9-1c43.9-.6,87.8-1.1,131.8-.9s43.9.4,65.8,1,40.1,2,60,.5c16.3-1.2,33.3-4.5,46.4-15s19.8-27.1,22-43.1c2.6-17.9-.9-37-10.1-52.7-9.4-16.2-31.1-13.4-47.2-13.4s-21.9.2-32.8.7-3.9,6.2,0,6c10.3-.4,20.5-.7,30.8-.7s20-.6,29.6,1,14,7.7,17.7,16.2,6.3,18.6,6.7,28.3c.7,16.8-4.1,35.7-15.6,48.3-11.5,12.6-28.7,16.7-45.1,18.2s-36.4.4-54.5,0-40.6-.9-60.8-1.1c-40.9-.4-81.8,0-122.8.5-40.9.5-81.9,1.3-122.8,1.8s-38.7,1.1-57-4.7-16.9-6.9-21.6-14.7-5.9-17.3-7.3-25.9c-1.6-9.8-2.4-19.7-2.4-29.6,0-8.6-.4-18.5,2.5-26.7,5.9-17.1,32.4-14.3,46.6-14.1l122.5,1.1,244.9,2.2c10,0,19.9.2,29.9.3s3.9-6,0-6h0Z"/>
  <g>
    <path class="st5" d="M1220.6,106.8c3.7-.2,7.3-.4,10.8-.6,3.5-.2,6.7-.3,9.6-.3,2.9,0,5.6,0,7.9.2,2.3.2,4.2.5,5.6,1,.9.4,1.7.9,2.2,1.5s.9,1.3,1,2c.1.7,0,1.3-.2,1.9s-.8,1-1.5,1.3c-.5.2-.9.2-1.4,0s-.9-.3-1.3-.6c-.4-.3-.7-.6-.9-1-.2-.4-.4-.7-.4-1.1-.3,0-.9-.1-1.6-.2-.8,0-1.7,0-2.8,0s-2.2,0-3.5,0c-1.3,0-2.6,0-3.9,0-1.3,0-2.6,0-3.9.1-1.3,0-2.4,0-3.5.1-1.1,0-2,0-2.8,0s-1.3,0-1.6,0c0,0,0,.3.1.8,0,.5.1,1.2.2,2.1,0,.9.2,1.9.3,3s.2,2.3.3,3.5.2,2.4.3,3.5c0,1.2.2,2.2.2,3.1,0,.9.1,1.7.1,2.3,0,.6,0,.9,0,1,.9,0,1.9,0,3.1.1,1.2,0,2.5.2,3.8.2,1.4,0,2.8.2,4.2.2,1.4,0,2.9.1,4.2.1,1.4,0,2.7,0,3.9-.1,1.2,0,2.3-.2,3.2-.5.5-.2,1.1-.1,1.6.3s.9.9,1.2,1.5.4,1.2.4,1.9c0,.6-.3,1.1-.9,1.3-2.1.5-4.2.8-6.2,1s-4,.2-6,.1c-2,0-4-.1-6.1-.2-2.1-.1-4.2-.2-6.4-.2v19.3c0,.9-.4,1.5-1,1.9s-1.3.6-2,.5c-.7,0-1.4-.3-2-.8-.6-.5-.9-1.2-.9-2.1s0-.8,0-1.5c0-.8,0-1.7,0-2.8s0-2.3,0-3.6c0-1.3,0-2.7,0-4.1,0-1.4,0-2.8,0-4.2s0-2.7,0-3.9c0-1.2,0-2.3,0-3.2,0-.9,0-1.6,0-2.1s0-1.5,0-2.5c0-1,0-2-.1-3.1,0-1.1,0-2.2-.1-3.4,0-1.2,0-2.3-.1-3.4,0-1.1,0-2.1,0-3.1,0-.9,0-1.7,0-2.4h-2.3c-1,0-1.8-.3-2.3-.7-.5-.4-.8-.9-.8-1.4,0-.5.2-1.1.6-1.7.4-.6,1.1-1.1,2-1.5Z"/>
    <path class="st5" d="M1268.5,111.1c0,3.4,0,6.3,0,9,.1,2.6.3,5.1.4,7.3.2,2.2.4,4.3.6,6.2.2,1.9.4,3.8.5,5.7s.3,3.9.3,5.9c0,2.1,0,4.3-.1,6.8,1.4-.1,2.8-.2,4.2-.3,1.5,0,2.9,0,4.3,0,1.4,0,2.8,0,4.1.2,1.3,0,2.5.2,3.5.2,1.1,0,2,.2,2.7.2.8,0,1.3,0,1.6,0-.1-.9-.2-1.7-.3-2.5,0-.7-.1-1.4-.2-2.1s0-1.2,0-1.7c0-.4.3-.8.5-1.2.3-.3.6-.6,1-.8.4-.2.8-.4,1.3-.4s.9,0,1.2,0c.4.1.7.4.9.7.2.4.4.8.4,1.5,0,.4,0,1,0,1.7,0,.8,0,1.6,0,2.4,0,.9,0,1.7,0,2.5s0,1.5-.1,2c-.1.4-.3.8-.6,1.1-.3.3-.5.6-.9.8s-.7.4-1,.5c-.4.1-.7.2-1,.2s-.9,0-1.9,0-2.2,0-3.7-.1c-1.4,0-3,0-4.8-.1s-3.5,0-5.2,0-3.4,0-5,0-3,.2-4.2.3c-.8,0-1.4,0-1.8-.3-.4-.2-.7-.6-.9-.9-.2-.4-.3-.8-.3-1.3,0-.4,0-.9,0-1.2.1-2.7.2-5.2.1-7.4,0-2.2-.1-4.3-.3-6.4-.1-2-.3-4-.5-6-.2-2-.4-4.1-.5-6.3s-.3-4.7-.4-7.3c0-2.6-.1-5.6,0-9,0-.7.1-1.2.4-1.6.3-.4.6-.8,1.1-1,.4-.2.9-.3,1.4-.3s.9.1,1.4.3c.4.2.8.5,1.1,1,.3.4.4,1,.4,1.6Z"/>
    <path class="st5" d="M1321.2,110.4c.8,2.2,1.6,4.6,2.4,7.1.8,2.5,1.6,5,2.3,7.3.8,2.4,1.5,4.5,2.2,6.5.7,2,1.4,3.6,2.1,4.8.8,0,1.5-.1,2.2-.2s1.5-.1,2.4-.2c1.2,0,2.2.3,2.8.8.6.5,1,1.1,1,1.8s-.3,1.3-1,1.9c-.7.6-1.7,1-3.1,1.1-.3,0-.7,0-1,0s-.7,0-1,0c.4,1.2.9,2.2,1.3,3.2.4,1,.8,1.9,1.3,2.8.4.9.9,1.9,1.4,2.8s1.1,2,1.7,3.2c.4,1.2.6,2.2.5,2.9,0,.7-.2,1.3-.6,1.6-.3.3-.8.5-1.3.5-.5,0-1.1-.2-1.6-.5-.6-.3-1.1-.7-1.6-1.3-.5-.6-.9-1.2-1.2-1.9-.7-1.7-1.3-3.1-1.8-4.3-.6-1.2-1.1-2.3-1.6-3.3-.5-1-1-1.9-1.4-2.8s-.9-1.9-1.2-3h-2.2c-.9,0-2,0-3,0-1.1,0-2.2,0-3.4,0-1.2,0-2.3,0-3.3,0-1,0-1.9,0-2.6,0-.7,0-1.2,0-1.5,0-.7,1.4-1.3,2.6-1.9,3.7-.6,1.1-1.1,2.2-1.6,3.3-.5,1.1-1,2.3-1.4,3.5-.5,1.2-.9,2.7-1.4,4.3-.1.5-.4.9-.8,1.2-.4.3-.9.5-1.3.6s-1,0-1.5,0c-.5-.1-.9-.4-1.2-.7-.3-.4-.5-.9-.6-1.5,0-.6,0-1.4.4-2.3.2-.8.5-1.8.9-2.8.4-1,.8-2.1,1.3-3.1.4-1.1.9-2.1,1.4-3.2.5-1.1.9-2.1,1.3-3-1.4,0-2.4-.4-3-.9-.7-.5-1-1.1-1.1-1.6,0-.6.2-1.1.7-1.6.5-.5,1.3-.7,2.4-.7h3.1c.5-1.2,1-2.5,1.5-3.9.5-1.4,1-2.9,1.5-4.4s1-3.1,1.5-4.7c.5-1.6,1-3.2,1.5-4.7.5-1.5,1-3,1.5-4.4.5-1.4,1-2.7,1.5-3.9.4-1.1,1-1.9,1.5-2.4s1.2-.8,1.8-.8c.6,0,1.1.2,1.7.7.5.5.9,1.1,1.1,2ZM1318.4,118.6c-.5,1.4-1,3-1.6,4.6-.5,1.7-1.1,3.3-1.6,4.9-.5,1.6-1,3.1-1.5,4.6-.5,1.4-.9,2.6-1.3,3.6.2,0,.6,0,1.1,0,.5,0,1.2,0,1.9,0,.8,0,1.6,0,2.4,0,.8,0,1.7,0,2.5,0,.8,0,1.5,0,2.2,0,.6,0,1.1,0,1.4,0-.5-1-1-2.2-1.4-3.4-.4-1.3-.8-2.6-1.2-4.1-.4-1.5-.9-3-1.3-4.7-.5-1.7-1-3.4-1.6-5.2Z"/>
    <path class="st5" d="M1372.9,109.4c.1,1.1.2,2.3.2,3.4,0,1.2,0,2.4,0,3.6s0,2.5,0,3.8.2,2.6.4,3.8c0,.4,0,.7-.1,1s-.5.5-.8.6c-.4.1-.7.2-1.2.2-.4,0-.9-.1-1.2-.3-.4-.2-.7-.4-1-.7-.3-.3-.4-.7-.3-1.2-.1-1-.4-1.9-.8-2.8s-1-1.7-1.6-2.5c-.6-.8-1.3-1.4-2-2-.7-.6-1.4-1.1-2.2-1.4-.7-.4-1.5-.7-2.2-.9-.8-.2-1.6-.4-2.3-.5-.8,0-1.5,0-2.2.1-.7.2-1.3.5-1.8.9-.5.5-.9,1.2-1.1,2-.3.8-.3,1.7-.3,2.7,0,.9.4,1.9.8,2.9.5,1,1.2,1.8,2.2,2.6,1.5,1.2,3,2.3,4.6,3.3,1.6.9,3.1,1.8,4.5,2.6,1.2.7,2.4,1.5,3.6,2.2,1.2.8,2.2,1.7,3.2,2.7s1.8,2.1,2.6,3.3c.7,1.2,1.3,2.5,1.7,4,.5,1.9.6,3.7.2,5.5s-1.1,3.2-2.2,4.5c-1.1,1.3-2.6,2.3-4.4,3.1s-3.9,1.2-6.4,1.3c-1.5,0-3,0-4.6-.3s-3.1-.6-4.6-1.2c-1.5-.6-3-1.4-4.3-2.5-1.4-1-2.7-2.4-3.8-4-.4-.6-.8-1.3-1.2-2.1s-.7-1.6-1-2.5c-.3-.8-.5-1.7-.7-2.5-.2-.8-.3-1.6-.3-2.4,0-.8.2-1.4.8-1.9s1.2-.8,1.9-.9c.7,0,1.3,0,1.9.3.6.3.9.8.9,1.6,0,1.4.3,2.7.8,3.9.4,1.3,1.2,2.6,2.1,4,.6.7,1.3,1.4,2.1,2,.8.6,1.7,1.2,2.7,1.6,1,.5,2,.8,3,1.1,1,.3,2,.4,3,.4s2.4-.1,3.5-.4c1.1-.3,2.1-.7,2.9-1.4.8-.6,1.4-1.4,1.8-2.3.4-.9.5-2.1.4-3.4-.3-1.3-.8-2.4-1.6-3.5-.8-1.1-1.8-2-2.9-3-1.1-.9-2.3-1.8-3.6-2.6-1.3-.8-2.6-1.6-3.9-2.4-1.3-.8-2.6-1.6-3.8-2.4-1.2-.8-2.3-1.6-3.2-2.5-1.6-1.5-2.8-3-3.5-4.7-.7-1.6-1.1-3.2-1.1-4.8,0-1.5.3-3,.8-4.3.5-1.3,1.3-2.4,2.1-3.3.8-.8,1.7-1.4,2.8-1.7,1.1-.4,2.2-.6,3.4-.7,1.2,0,2.4,0,3.6.3s2.4.6,3.5,1.1c1.1.5,2.2,1.1,3.1,1.7.9.7,1.7,1.4,2.4,2.2,0-.6,0-1.3-.1-2-.2-.7-.4-1.3-.5-1.8,0-.3,0-.6.1-.8.2-.2.4-.4.8-.6.3-.2.7-.3,1.2-.4.4,0,.9,0,1.3,0,.4,0,.8.2,1.1.3.3.2.6.4.7.8Z"/>
    <path class="st5" d="M1416,110.4c0,2.4,0,4.6,0,6.6,0,2,0,3.9.1,5.6,0,1.7.1,3.3.2,4.8,0,1.5.2,2.9.3,4.2.3,0,.6,0,.8.1.2,0,.5,0,.7,0h1.6c.5,0,.9.3,1.1.8.2.5.3,1.2.2,1.8s-.2,1.3-.5,1.8c-.3.6-.6.9-.9.9-.7,0-1.2,0-1.5,0-.3,0-.7,0-1.1-.2,0,.4,0,1,.1,1.8,0,.8.2,1.8.3,2.8s.2,2.2.3,3.4c.1,1.2.2,2.3.3,3.5s.2,2.2.3,3.1c0,1,.1,1.7.2,2.3,0,.7,0,1.2-.3,1.7-.2.5-.6.8-1,1.1-.4.3-.8.4-1.3.5-.5,0-.9,0-1.4-.2-.4-.2-.8-.5-1.1-.9-.3-.4-.5-.9-.5-1.6,0-.6,0-1.4-.2-2.4,0-1-.2-2.1-.3-3.3,0-1.2-.2-2.4-.3-3.6-.1-1.3-.2-2.4-.3-3.6,0-1.1-.2-2.1-.3-3,0-.9-.2-1.6-.2-2-.6,0-1.4,0-2.3,0-1,0-2,0-3.2,0-1.2,0-2.4,0-3.7,0-1.3,0-2.6,0-3.8,0-1.2,0-2.4,0-3.5,0s-2,0-2.8-.1l.3,8.6c0,1.4,0,2.6.1,3.6s0,1.9,0,2.7c0,.8,0,1.5,0,2.2v2.1c0,.4-.1.8-.4,1.1-.3.3-.7.6-1.1.8-.4.2-.9.3-1.4.4-.5,0-1,0-1.4,0-.4-.1-.8-.3-1.1-.6s-.4-.7-.4-1.2,0-.8,0-1.4c0-.6,0-1.3,0-2s0-1.5,0-2.3,0-1.5,0-2.3,0-1.4,0-2c0-.6,0-1.1,0-1.4-.1-1.6-.3-3.1-.4-4.4,0-1.4-.2-2.8-.3-4.4-.3,0-.7,0-1.1-.1-.4,0-.8,0-1.2,0-.9,0-1.6-.2-2.1-.7-.4-.4-.7-.9-.7-1.5,0-.6.2-1.2.5-1.7s.9-1,1.5-1.2c.6,0,1.1-.1,1.5,0,.4,0,.8,0,1.2,0-.1-2.2-.2-4.7-.3-7.7s-.2-6.6-.3-10.9c.1-.7.4-1.3.7-1.8.3-.5.7-.8,1.1-1,.4-.2.9-.3,1.4-.3s.9,0,1.3.3c.4.2.7.5,1,.9.3.4.4.9.4,1.5,0,3.3.2,6.5.2,9.7,0,3.2.2,6.3.3,9.5.6,0,1.5,0,2.6,0,1.1,0,2.2,0,3.5.1,1.3,0,2.6,0,4,.1s2.7,0,3.9.1c1.2,0,2.3,0,3.3.1,1,0,1.7,0,2.1,0-.2-2.1-.3-4-.4-5.7,0-1.7-.1-3.3-.2-4.9,0-1.6,0-3.1,0-4.7,0-1.6,0-3.3,0-5.1s.3-1.5.9-2c.6-.5,1.2-.8,1.9-.9.7,0,1.4,0,1.9.5.6.4.9,1.1.9,2Z"/>
    <path class="st5" d="M1479.1,107.7c0,.5,0,1.1.1,1.9,0,.8,0,1.6,0,2.5,0,.9,0,1.8,0,2.8,0,1,0,1.9.1,2.9,0,.9.1,1.9.2,2.7,0,.9.2,1.6.3,2.2,0,.5-.2.9-.7,1.2-.5.3-1,.4-1.6.5-.6,0-1.1,0-1.7-.2-.5-.2-.8-.5-.9-.9-.1-1-.4-2.2-.7-3.3-.3-1.2-.7-2.3-1.2-3.4-.5-1.1-1.2-2-2-2.9-.8-.8-1.8-1.5-2.9-1.9-.9-.4-1.7-.7-2.6-1-.9-.2-1.8-.4-2.7-.4s-1.8,0-2.6.3c-.9.2-1.6.6-2.3,1.1-.5.5-.9,1.2-1,2s-.1,1.6,0,2.5c.2.9.5,1.7,1,2.6.5.8,1,1.6,1.7,2.2,1.2,1,2.4,2,3.8,3,1.4,1,2.8,1.9,4.3,2.9,1.5,1,2.9,2,4.4,3s2.8,2.1,4.1,3.4c1.3,1.2,2.4,2.5,3.4,3.9,1,1.4,1.8,3,2.4,4.7.5,1.4.7,2.8.7,4.1,0,1.3-.3,2.6-.8,3.8-.5,1.2-1.2,2.3-2.1,3.4-.9,1-2,1.9-3.2,2.7s-2.6,1.3-4.2,1.8-3.2.7-4.9.7c-1.7,0-3.3,0-4.9-.3-1.6-.3-3.3-.7-4.8-1.4-1.6-.7-3.1-1.6-4.6-2.8-1.5-1.2-2.9-2.6-4.2-4.4-.4-.7-.9-1.5-1.3-2.4-.4-.9-.8-1.8-1.1-2.8-.3-.9-.6-1.9-.8-2.8-.2-.9-.3-1.8-.3-2.6,0-.4.1-.7.4-1,.3-.3.7-.5,1.1-.7s.9-.3,1.4-.4,1-.1,1.5,0c.4,0,.8.2,1.1.4s.4.5.5.8c0,1.6.3,3.1.7,4.7.4,1.5,1.2,3.1,2.3,4.7.7.8,1.5,1.6,2.4,2.2,1,.7,2,1.2,3.2,1.7,1.1.5,2.3.9,3.5,1.1s2.4.4,3.5.4,2.8-.2,4-.5c1.3-.3,2.4-.8,3.3-1.6.9-.7,1.6-1.6,2.1-2.7.4-1.1.6-2.4.3-3.9-.2-1.3-.7-2.6-1.6-3.9-.9-1.3-1.9-2.5-3.2-3.6-1.3-1.2-2.7-2.3-4.2-3.4s-3-2.1-4.6-3.1c-1.5-1-3-1.9-4.3-2.8s-2.5-1.7-3.4-2.6c-1.4-1.3-2.4-2.6-3.1-4.1s-1.1-3-1.2-4.4c0-1.5,0-2.9.6-4.2s1.2-2.5,2.1-3.4c.9-.9,1.9-1.5,3.1-2s2.4-.8,3.7-.9,2.6,0,3.9.1c1.3.2,2.6.5,3.8,1s2.3,1.1,3.4,1.8c1,.7,1.9,1.6,2.6,2.5,0-.1,0-.3,0-.6s0-.6-.1-.9c0-.3,0-.6,0-.9s0-.5,0-.7c0-.4,0-.7.3-1,.2-.2.5-.4.9-.5.4,0,.8-.1,1.2-.1.4,0,.9,0,1.3.2.4.1.7.3,1,.5s.4.4.5.7Z"/>
    <path class="st5" d="M1510.3,110.4c.8,2.2,1.6,4.6,2.4,7.1.8,2.5,1.6,5,2.3,7.3.8,2.4,1.5,4.5,2.2,6.5.7,2,1.4,3.6,2.1,4.8.8,0,1.5-.1,2.2-.2s1.5-.1,2.4-.2c1.2,0,2.2.3,2.8.8.6.5,1,1.1,1,1.8s-.3,1.3-1,1.9c-.7.6-1.7,1-3.1,1.1-.3,0-.7,0-1,0s-.7,0-1,0c.4,1.2.9,2.2,1.3,3.2.4,1,.8,1.9,1.3,2.8.4.9.9,1.9,1.4,2.8s1.1,2,1.7,3.2c.4,1.2.6,2.2.5,2.9,0,.7-.2,1.3-.6,1.6-.3.3-.8.5-1.3.5-.5,0-1.1-.2-1.6-.5-.6-.3-1.1-.7-1.6-1.3-.5-.6-.9-1.2-1.2-1.9-.7-1.7-1.3-3.1-1.8-4.3-.6-1.2-1.1-2.3-1.6-3.3-.5-1-1-1.9-1.4-2.8s-.9-1.9-1.2-3h-2.2c-.9,0-2,0-3,0-1.1,0-2.2,0-3.4,0-1.2,0-2.3,0-3.3,0-1,0-1.9,0-2.6,0-.7,0-1.2,0-1.5,0-.7,1.4-1.3,2.6-1.9,3.7-.6,1.1-1.1,2.2-1.6,3.3-.5,1.1-1,2.3-1.4,3.5-.5,1.2-.9,2.7-1.4,4.3-.1.5-.4.9-.8,1.2-.4.3-.9.5-1.3.6s-1,0-1.5,0c-.5-.1-.9-.4-1.2-.7-.3-.4-.5-.9-.6-1.5,0-.6,0-1.4.4-2.3.2-.8.5-1.8.9-2.8.4-1,.8-2.1,1.3-3.1.4-1.1.9-2.1,1.4-3.2.5-1.1.9-2.1,1.3-3-1.4,0-2.4-.4-3-.9-.7-.5-1-1.1-1.1-1.6,0-.6.2-1.1.7-1.6.5-.5,1.3-.7,2.4-.7h3.1c.5-1.2,1-2.5,1.5-3.9.5-1.4,1-2.9,1.5-4.4s1-3.1,1.5-4.7c.5-1.6,1-3.2,1.5-4.7.5-1.5,1-3,1.5-4.4.5-1.4,1-2.7,1.5-3.9.4-1.1,1-1.9,1.5-2.4s1.2-.8,1.8-.8c.6,0,1.1.2,1.7.7.5.5.9,1.1,1.1,2ZM1507.5,118.6c-.5,1.4-1,3-1.6,4.6-.5,1.7-1.1,3.3-1.6,4.9-.5,1.6-1,3.1-1.5,4.6-.5,1.4-.9,2.6-1.3,3.6.2,0,.6,0,1.1,0,.5,0,1.2,0,1.9,0,.8,0,1.6,0,2.4,0,.8,0,1.7,0,2.5,0,.8,0,1.5,0,2.2,0,.6,0,1.1,0,1.4,0-.5-1-1-2.2-1.4-3.4-.4-1.3-.8-2.6-1.2-4.1-.4-1.5-.9-3-1.3-4.7-.5-1.7-1-3.4-1.6-5.2Z"/>
    <path class="st5" d="M1536.6,111.1c0,3.4,0,6.3,0,9,.1,2.6.3,5.1.4,7.3.2,2.2.4,4.3.6,6.2.2,1.9.4,3.8.5,5.7s.3,3.9.3,5.9c0,2.1,0,4.3-.1,6.8,1.4-.1,2.8-.2,4.2-.3,1.5,0,2.9,0,4.3,0,1.4,0,2.8,0,4.1.2,1.3,0,2.5.2,3.5.2,1.1,0,2,.2,2.7.2.8,0,1.3,0,1.6,0-.1-.9-.2-1.7-.3-2.5,0-.7-.1-1.4-.2-2.1,0-.7,0-1.2,0-1.7,0-.4.3-.8.5-1.2.3-.3.6-.6,1-.8s.8-.4,1.3-.4c.4,0,.9,0,1.2,0,.4.1.7.4.9.7.2.4.4.8.4,1.5,0,.4,0,1,0,1.7,0,.8,0,1.6,0,2.4,0,.9,0,1.7,0,2.5,0,.8,0,1.5-.1,2-.1.4-.3.8-.6,1.1-.3.3-.5.6-.9.8s-.7.4-1,.5c-.4.1-.7.2-1,.2s-.9,0-1.9,0c-1,0-2.2,0-3.7-.1-1.4,0-3,0-4.8-.1-1.7,0-3.5,0-5.2,0s-3.4,0-5,0c-1.6,0-3,.2-4.2.3-.8,0-1.4,0-1.8-.3-.4-.2-.7-.6-.9-.9-.2-.4-.3-.8-.3-1.3,0-.4,0-.9,0-1.2.1-2.7.2-5.2.1-7.4s-.1-4.3-.3-6.4c-.1-2-.3-4-.5-6-.2-2-.4-4.1-.5-6.3s-.3-4.7-.4-7.3c0-2.6-.1-5.6,0-9,0-.7.1-1.2.4-1.6.3-.4.6-.8,1.1-1,.4-.2.9-.3,1.4-.3s.9.1,1.4.3c.4.2.8.5,1.1,1,.3.4.4,1,.4,1.6Z"/>
    <path class="st5" d="M1601.8,108.9c.7,0,1.2,0,1.7.3.4.3.8.6,1,1,.2.4.3.8.3,1.3s-.1.9-.3,1.3-.6.8-1,1.1-1,.5-1.7.5c-.6,0-1.6,0-3,0s-2.9,0-4.7,0c-1.7,0-3.6,0-5.5,0-1.9,0-3.7,0-5.4,0-1.7,0-3.2,0-4.5,0-1.3,0-2.2,0-2.7,0,0,.3,0,.8,0,1.5,0,.7,0,1.5.1,2.5,0,1,0,2,.1,3.2,0,1.1,0,2.2.1,3.4,0,1.1,0,2.2,0,3.2s0,1.8,0,2.5c1.1,0,2.3.1,3.7.2,1.4,0,2.8,0,4.3,0s3,0,4.6,0c1.6,0,3.1,0,4.5-.1,1.5,0,2.9-.1,4.2-.2,1.3,0,2.5-.2,3.6-.3,1.1,0,2,0,2.7.3.7.3,1.2.7,1.5,1.3.2.5.2,1.1-.2,1.8-.4.6-1.1,1.3-2.2,1.8-2.3.4-4.8.7-7.3.9-2.6.1-5,.2-7.4.2s-4.6,0-6.7-.1c-2.1,0-3.8-.1-5.1-.1,0,.2,0,.7,0,1.5,0,.8,0,1.8,0,3,0,1.2,0,2.4,0,3.8,0,1.3,0,2.6.1,3.8s0,2.3.1,3.2c0,.9,0,1.5.1,1.8,1.3,0,2.8,0,4.6,0,1.7,0,3.5,0,5.4-.2,1.9,0,3.7-.2,5.6-.3,1.9-.1,3.6-.2,5.2-.3,1.6,0,2.9-.2,4-.3,1.1,0,1.9-.1,2.3-.1,1.3.1,2.3.5,2.8,1.1.5.6.7,1.2.6,1.9-.1.7-.6,1.3-1.4,1.8s-1.8.8-3.1.8c-2.1,0-3.9,0-5.2,0-1.3,0-2.5.1-3.6.2-.7,0-1.4.1-2.1.2-.7,0-1.4.1-2.1.2-.8,0-1.6.1-2.5.2-.9,0-2,0-3.3.1-1.3,0-2.7,0-4.4.1s-3.6,0-5.8,0-.3,0-.5-.2-.5-.3-.8-.5c-.3-.2-.5-.4-.7-.7-.2-.3-.3-.5-.3-.8-.2-.9-.4-1.8-.5-2.6-.1-.8-.2-1.6-.3-2.4s0-1.6,0-2.5v-2.9c0-.8,0-1.6,0-2.6,0-1,0-1.9-.1-2.8,0-.9,0-1.7-.1-2.4,0-.7,0-1.1,0-1.4,0-1.4,0-2.9-.1-4.5,0-1.6,0-3.2-.1-4.8s0-3.1-.1-4.6c0-1.5,0-2.9,0-4,0-1.2,0-2.2,0-3,0-.8,0-1.3,0-1.5l-1.3.2c-1,0-1.8-.2-2.3-.7-.5-.5-.8-1.1-.8-1.7,0-.6.2-1.3.6-1.9s1-1,1.8-1.3c.6,0,1.2-.1,1.7-.2.5,0,1.1-.1,1.5-.2.5,0,1.5-.1,2.9-.2,1.4,0,3.1,0,4.9,0,1.9,0,3.9,0,6.1,0,2.2,0,4.3,0,6.4,0,2.1,0,4,0,5.7,0s3.2,0,4.3.1Z"/>
  </g>
  <path class="st5" d="M1603.6,227.8c-87.9-.8-175.9-1.6-263.8-2.4l-131.4-1.2c-15.3-.1-36.9-2.4-48.9,9.5s-6.5,11.6-7.2,18.3c-1.1,10.7-1.2,21.6-.5,32.4.7,9.8,2.2,19.6,4.4,29.2,1.9,8.2,4.5,16.3,10.7,22.4,12.5,12.3,32.7,14.9,49.3,15.8,21.4,1.1,43,0,64.3-.3,22-.3,43.9-.7,65.9-1,43.9-.6,87.8-1.1,131.8-.9,21.9.1,43.9.4,65.8,1s40.1,2,60,.5,33.3-4.5,46.4-15,19.8-27.1,22-43.1-.9-37-10.1-52.7-31.1-13.4-47.2-13.4-21.9.2-32.8.7-3.9,6.2,0,6c10.3-.4,20.5-.7,30.8-.7s20-.6,29.6,1,14,7.7,17.7,16.2,6.3,18.6,6.7,28.3c.7,16.8-4.1,35.7-15.6,48.3-11.5,12.6-28.7,16.7-45.1,18.2-18.1,1.6-36.4.4-54.5,0s-40.6-.9-60.8-1.1c-40.9-.4-81.8,0-122.8.5-40.9.5-81.9,1.3-122.8,1.8-18.9.2-38.7,1.1-57-4.7-8.4-2.7-16.9-6.9-21.6-14.7-4.5-7.6-5.9-17.3-7.3-25.9-1.6-9.8-2.4-19.7-2.4-29.6,0-8.6-.4-18.5,2.5-26.7,5.9-17.1,32.4-14.3,46.6-14.1,40.8.4,81.6.7,122.5,1.1,81.6.7,163.3,1.5,244.9,2.2,10,0,19.9.2,29.9.3s3.9-6,0-6h0Z"/>
  <g>
    <path class="st5" d="M1221.2,261.1c0,.5,0,1.1.1,1.9,0,.8,0,1.6,0,2.5,0,.9,0,1.8,0,2.8,0,1,0,1.9.1,2.9,0,.9.1,1.9.2,2.7,0,.9.2,1.6.3,2.2,0,.5-.2.9-.7,1.2-.5.3-1,.4-1.6.5-.6,0-1.1,0-1.7-.2-.5-.2-.8-.5-.9-.9-.1-1-.4-2.2-.7-3.3-.3-1.2-.7-2.3-1.2-3.4-.5-1.1-1.2-2-2-2.9-.8-.8-1.8-1.5-2.9-1.9-.9-.4-1.7-.7-2.6-1-.9-.2-1.8-.4-2.7-.4s-1.8,0-2.6.3c-.9.2-1.6.6-2.3,1.1-.5.5-.9,1.2-1,2s-.1,1.6,0,2.5c.2.9.5,1.7,1,2.6.5.8,1,1.6,1.7,2.2,1.2,1,2.4,2,3.8,3,1.4,1,2.8,1.9,4.3,2.9,1.5,1,2.9,2,4.4,3s2.8,2.1,4.1,3.4c1.3,1.2,2.4,2.5,3.4,3.9,1,1.4,1.8,3,2.4,4.7.5,1.4.7,2.8.7,4.1,0,1.3-.3,2.6-.8,3.8-.5,1.2-1.2,2.3-2.1,3.4-.9,1-2,1.9-3.2,2.7s-2.6,1.3-4.2,1.8-3.2.7-4.9.7c-1.7,0-3.3,0-4.9-.3-1.6-.3-3.3-.7-4.8-1.4-1.6-.7-3.1-1.6-4.6-2.8-1.5-1.2-2.9-2.6-4.2-4.4-.4-.7-.9-1.5-1.3-2.4-.4-.9-.8-1.8-1.1-2.8-.3-.9-.6-1.9-.8-2.8-.2-.9-.3-1.8-.3-2.6,0-.4.1-.7.4-1,.3-.3.7-.5,1.1-.7s.9-.3,1.4-.4,1-.1,1.5,0c.4,0,.8.2,1.1.4s.4.5.5.8c0,1.6.3,3.1.7,4.7.4,1.5,1.2,3.1,2.3,4.7.7.8,1.5,1.6,2.4,2.2,1,.7,2,1.2,3.2,1.7,1.1.5,2.3.9,3.5,1.1s2.4.4,3.5.4,2.8-.2,4-.5c1.3-.3,2.4-.8,3.3-1.6.9-.7,1.6-1.6,2.1-2.7.4-1.1.6-2.4.3-3.9-.2-1.3-.7-2.6-1.6-3.9-.9-1.3-1.9-2.5-3.2-3.6-1.3-1.2-2.7-2.3-4.2-3.4s-3-2.1-4.6-3.1c-1.5-1-3-1.9-4.3-2.8s-2.5-1.7-3.4-2.6c-1.4-1.3-2.4-2.6-3.1-4.1s-1.1-3-1.2-4.4c0-1.5,0-2.9.6-4.2s1.2-2.5,2.1-3.4c.9-.9,1.9-1.5,3.1-2s2.4-.8,3.7-.9,2.6,0,3.9.1c1.3.2,2.6.5,3.8,1s2.3,1.1,3.4,1.8c1,.7,1.9,1.6,2.6,2.5,0-.1,0-.3,0-.6s0-.6-.1-.9c0-.3,0-.6,0-.9s0-.5,0-.7c0-.4,0-.7.3-1,.2-.2.5-.4.9-.5.4,0,.8-.1,1.2-.1.4,0,.9,0,1.3.2.4.1.7.3,1,.5s.4.4.5.7Z"/>
    <path class="st5" d="M1259.8,263c0-.4.2-.7.5-.9s.7-.4,1.1-.4c.5,0,1,0,1.5,0,.5,0,1,.2,1.5.4.4.2.8.4,1.1.7.3.3.4.6.4.9,0,1.5,0,3.3,0,5.2,0,1.9.1,4,.2,6.1,0,2.1.1,4.3.2,6.4,0,2.2,0,4.3,0,6.4,0,2.1-.3,4-.5,5.8-.3,1.8-.7,3.4-1.2,4.8-.7,1.5-1.5,3-2.5,4.5-1,1.5-2.1,2.8-3.4,4-1.3,1.2-2.7,2.1-4.3,2.8-1.6.7-3.3,1.1-5.1,1-1,0-2.1-.1-3.1-.3-1.1-.2-2.1-.5-3.1-.9-1-.4-2-.8-2.9-1.4-.9-.5-1.7-1.1-2.4-1.8-1.1-1-2.1-2-2.9-3.1-.8-1.1-1.5-2.3-2.1-3.6-.6-1.3-1-2.9-1.3-4.6-.3-1.7-.5-3.7-.5-6,0-4.3,0-8.5,0-12.6,0-4.1,0-8.3,0-12.6,0-.6.5-1.1,1.1-1.5.6-.4,1.3-.6,2-.6.7,0,1.4,0,1.9.4.6.3.8.8.8,1.5v24c0,1.4,0,2.7.1,3.9,0,1.3.2,2.4.5,3.5.3,1.1.6,2.1,1.1,3.1.5.9,1.1,1.8,1.9,2.6,1.5,1.5,3.1,2.6,4.7,3.2,1.6.6,3.1.9,4.4.9s2.3-.3,3.3-.8c1-.5,2-1.2,2.8-2.1.8-.9,1.6-1.9,2.2-3.1.6-1.2,1.1-2.4,1.5-3.7.5-1.8.8-3.8,1-6.1.2-2.3.2-4.9.2-7.7s0-4.6,0-6.6c0-2.1-.1-3.9-.2-5.5,0-1.6-.1-2.9-.2-4,0-1.1-.1-1.8-.1-2.3Z"/>
    <path class="st5" d="M1295.2,262c2.2.1,4.2.5,6,1.1,1.8.6,3.4,1.6,4.8,2.8,1.3,1.3,2.4,2.8,3.1,4.7.7,1.9,1.1,4.1,1,6.6-.3,4.3-1.5,7.8-3.6,10.5-2,2.8-4.8,4.7-8.2,5.9-1.4.5-2.9.8-4.5,1s-3.2.4-4.8.4c-1.6,0-3,0-4.3,0s-2.3,0-3-.1c0,2.2.2,4.3.4,6.4.2,2.1.4,3.9.7,5.5,0,.7,0,1.3-.1,1.8s-.4.9-.8,1.1-.7.4-1.2.5-.9,0-1.3-.2c-.4-.2-.8-.4-1.1-.8-.3-.4-.6-.9-.7-1.4-.3-1.7-.6-3.6-.8-5.8-.2-2.1-.4-4.4-.4-6.9-.6,0-1.2-.1-1.8-.2-.6,0-1-.2-1.4-.3-.8-.2-1.4-.5-1.8-.9s-.7-.9-.7-1.4c0-.5.2-1,.6-1.6.4-.5,1.1-1,2.1-1.3.4,0,.8-.1,1.4,0,.6,0,1.1,0,1.6,0,0-.3,0-.9,0-1.8,0-.9,0-2,0-3.3,0-1.3,0-2.6,0-4,0-1.4,0-2.8,0-4.1,0-1.3,0-2.4,0-3.4,0-1,0-1.6,0-1.9-.3.2-.7.4-1.2.5-.5.1-.9.3-1.2.4-.8.2-1.5.2-2.1,0-.6-.3-1-.7-1.3-1.3-.3-.5-.3-1.1-.1-1.7.2-.6.6-1.1,1.2-1.4,1.9-.9,3.9-1.7,6-2.4,2.1-.7,4.1-1.3,6.2-1.9,2.1-.5,4.1-.9,6.1-1.1s3.9-.3,5.7-.3ZM1296,267.5c-2-.3-4.3-.3-6.8,0-2.5.3-5.2,1-8,1.9,0,.3,0,1,0,2s0,2.3.1,3.7c0,1.4,0,2.9.1,4.6,0,1.6,0,3.2,0,4.6,0,1.4,0,2.7,0,3.8,0,1.1,0,1.8,0,2.1.9,0,1.9,0,3.1,0,1.2,0,2.5,0,3.9-.1,1.3,0,2.7-.2,4.1-.4,1.4-.2,2.6-.5,3.8-.9,1.1-.5,2.2-1.1,3.1-1.9.9-.8,1.7-1.7,2.4-2.8.7-1.1,1.2-2.3,1.6-3.6s.6-2.8.6-4.4c0-1.5-.2-2.8-.6-3.8-.4-1-1-1.9-1.7-2.6-.7-.7-1.6-1.2-2.6-1.6-1-.4-2.1-.7-3.2-.8Z"/>
    <path class="st5" d="M1349.6,262.3c.7,0,1.2,0,1.7.3.4.3.8.6,1,1,.2.4.3.8.3,1.3s-.1.9-.3,1.3-.6.8-1,1.1-1,.5-1.7.5c-.6,0-1.6,0-3,0s-2.9,0-4.7,0c-1.7,0-3.6,0-5.5,0-1.9,0-3.7,0-5.4,0-1.7,0-3.2,0-4.5,0-1.3,0-2.2,0-2.7,0,0,.3,0,.8,0,1.5,0,.7,0,1.5.1,2.5,0,1,0,2,.1,3.2,0,1.1,0,2.2.1,3.4,0,1.1,0,2.2,0,3.2s0,1.8,0,2.5c1.1,0,2.3.1,3.7.2,1.4,0,2.8,0,4.3,0s3,0,4.6,0c1.6,0,3.1,0,4.5-.1,1.5,0,2.9-.1,4.2-.2,1.3,0,2.5-.2,3.6-.3,1.1,0,2,0,2.7.3.7.3,1.2.7,1.5,1.3.2.5.2,1.1-.2,1.8-.4.6-1.1,1.3-2.2,1.8-2.3.4-4.8.7-7.3.9-2.6.1-5,.2-7.4.2s-4.6,0-6.7-.1c-2.1,0-3.8-.1-5.1-.1,0,.2,0,.7,0,1.5,0,.8,0,1.8,0,3,0,1.2,0,2.4,0,3.8,0,1.3,0,2.6.1,3.8s0,2.3.1,3.2c0,.9,0,1.5.1,1.8,1.3,0,2.8,0,4.6,0,1.7,0,3.5,0,5.4-.2,1.9,0,3.7-.2,5.6-.3,1.9-.1,3.6-.2,5.2-.3,1.6,0,2.9-.2,4-.3,1.1,0,1.9-.1,2.3-.1,1.3.1,2.3.5,2.8,1.1.5.6.7,1.2.6,1.9-.1.7-.6,1.3-1.4,1.8s-1.8.8-3.1.8c-2.1,0-3.9,0-5.2,0-1.3,0-2.5.1-3.6.2-.7,0-1.4.1-2.1.2-.7,0-1.4.1-2.1.2-.8,0-1.6.1-2.5.2-.9,0-2,0-3.3.1-1.3,0-2.7,0-4.4.1s-3.6,0-5.8,0-.3,0-.5-.2-.5-.3-.8-.5c-.3-.2-.5-.4-.7-.7-.2-.3-.3-.5-.3-.8-.2-.9-.4-1.8-.5-2.6-.1-.8-.2-1.6-.3-2.4s0-1.6,0-2.5v-2.9c0-.8,0-1.6,0-2.6,0-1,0-1.9-.1-2.8,0-.9,0-1.7-.1-2.4,0-.7,0-1.1,0-1.4,0-1.4,0-2.9-.1-4.5,0-1.6,0-3.2-.1-4.8s0-3.1-.1-4.6c0-1.5,0-2.9,0-4,0-1.2,0-2.2,0-3,0-.8,0-1.3,0-1.5l-1.3.2c-1,0-1.8-.2-2.3-.7-.5-.5-.8-1.1-.8-1.7,0-.6.2-1.3.6-1.9s1-1,1.8-1.3c.6,0,1.2-.1,1.7-.2.5,0,1.1-.1,1.5-.2.5,0,1.5-.1,2.9-.2,1.4,0,3.1,0,4.9,0,1.9,0,3.9,0,6.1,0,2.2,0,4.3,0,6.4,0,2.1,0,4,0,5.7,0s3.2,0,4.3.1Z"/>
    <path class="st5" d="M1367.4,261.8c1.5,0,3-.1,4.5-.1s3.1,0,4.7.3c1.6.2,3.2.5,4.9,1,1.7.5,3.4,1.1,5.2,1.9,1.3.5,2.5,1.2,3.7,2.1,1.2.9,2.3,2,3.2,3.2s1.6,2.6,2.1,4.1.7,3.2.5,4.9c-.3,1.9-.9,3.5-2,4.9-1.1,1.3-2.4,2.4-3.9,3.2-1.5.8-3.2,1.3-5,1.6-1.8.3-3.6.4-5.4.2.6.6,1.4,1.4,2.3,2.4.9,1,1.8,2.1,2.9,3.3,1,1.2,2.1,2.4,3.3,3.6s2.4,2.3,3.6,3.3c1.2,1,2.4,1.8,3.6,2.4s2.4.9,3.5.9,1.5.3,1.8.8c.3.5.4,1.1.3,1.8-.1.7-.4,1.3-1,1.8-.5.5-1.2.8-1.9.8-1.8,0-3.5-.3-5.2-1.1-1.7-.8-3.3-1.8-4.8-3-1.6-1.3-3-2.7-4.5-4.2s-2.8-3.1-4.2-4.6c-1.3-1.5-2.7-3-3.9-4.3-1.3-1.3-2.5-2.4-3.7-3.3-.5-.2-1.1-.4-1.6-.6-.5-.2-1.1-.3-1.8-.4,0,1.5,0,3.1.1,4.8,0,1.7.1,3.3.2,5,0,1.7.1,3.3.2,5,0,1.7,0,3.2.1,4.7,0,.8-.4,1.4-.9,1.7-.6.4-1.2.5-1.9.5-.7,0-1.3-.3-1.8-.7-.5-.4-.8-1.1-.8-1.9-.2-4.4-.4-8.5-.5-12.4-.1-3.8-.2-7.4-.3-10.6,0-3.3-.1-6.3-.1-9.1,0-2.8,0-5.4,0-7.8-.5.1-.9.2-1.3.3s-.7.2-1,.2c-.8.1-1.4,0-1.8-.4-.5-.4-.7-.9-.9-1.5-.1-.6,0-1.2.2-1.7.2-.6.6-1,1.3-1.2.5-.2,1-.4,1.5-.6.5-.2,1.1-.3,1.8-.5.7-.1,1.4-.3,2.2-.4.8,0,1.7-.2,2.8-.2ZM1368.9,267.2c0,1.1-.1,2.2-.2,3.3,0,1.2,0,2.4,0,3.7s0,2.7,0,4.2c0,1.5,0,3.1.1,4.8,1.4.4,2.8.8,4.3,1.1,1.5.3,3,.4,4.6.5s3,0,4.4-.1c1.4-.2,2.7-.4,3.8-.9s2.1-1,2.8-1.7,1.2-1.7,1.4-2.8c.1-.8.1-1.7,0-2.6-.2-.9-.5-1.7-.9-2.5-.5-.8-1.1-1.5-1.8-2.2-.7-.7-1.6-1.3-2.6-1.7-1.3-.6-2.7-1.1-4.2-1.5-1.5-.4-2.9-.7-4.3-1-1.4-.3-2.8-.4-4.1-.5-1.3,0-2.4,0-3.4,0Z"/>
    <path class="st5" d="M1459.2,261.1c0,.5,0,1.1.1,1.9s0,1.6,0,2.5c0,.9,0,1.8,0,2.8,0,1,0,1.9.1,2.9,0,.9.1,1.9.2,2.7,0,.9.2,1.6.3,2.2,0,.5-.2.9-.7,1.2-.5.3-1,.4-1.6.5-.6,0-1.1,0-1.7-.2-.5-.2-.8-.5-.9-.9-.1-1-.4-2.2-.7-3.3-.3-1.2-.7-2.3-1.2-3.4s-1.2-2-2-2.9c-.8-.8-1.8-1.5-2.9-1.9-.8-.4-1.7-.7-2.6-1-.9-.2-1.8-.4-2.7-.4-.9,0-1.8,0-2.6.3-.8.2-1.6.6-2.3,1.1-.5.5-.9,1.2-1,2-.1.8-.1,1.6,0,2.5.2.9.5,1.7,1,2.6.5.8,1.1,1.6,1.7,2.2,1.2,1,2.4,2,3.8,3,1.4,1,2.8,1.9,4.3,2.9,1.5,1,2.9,2,4.4,3,1.4,1,2.8,2.1,4.1,3.4,1.3,1.2,2.4,2.5,3.4,3.9,1,1.4,1.8,3,2.4,4.7.5,1.4.7,2.8.7,4.1,0,1.3-.3,2.6-.8,3.8s-1.2,2.3-2.1,3.4c-.9,1-2,1.9-3.2,2.7-1.2.7-2.6,1.3-4.2,1.8-1.5.4-3.2.7-4.9.7-1.7,0-3.3,0-4.9-.3s-3.3-.7-4.8-1.4c-1.6-.7-3.1-1.6-4.6-2.8-1.5-1.2-2.9-2.6-4.2-4.4-.4-.7-.9-1.5-1.3-2.4-.4-.9-.8-1.8-1.1-2.8-.3-.9-.6-1.9-.8-2.8-.2-.9-.3-1.8-.3-2.6,0-.4.1-.7.4-1,.3-.3.7-.5,1.1-.7.4-.2.9-.3,1.4-.4s1-.1,1.5,0c.4,0,.8.2,1.1.4s.4.5.5.8c0,1.6.3,3.1.7,4.7.4,1.5,1.2,3.1,2.4,4.7.7.8,1.5,1.6,2.4,2.2,1,.7,2,1.2,3.2,1.7,1.1.5,2.3.9,3.5,1.1s2.4.4,3.5.4,2.8-.2,4-.5c1.3-.3,2.4-.8,3.3-1.6s1.6-1.6,2.1-2.7c.4-1.1.6-2.4.3-3.9-.2-1.3-.7-2.6-1.6-3.9-.9-1.3-1.9-2.5-3.2-3.6-1.3-1.2-2.7-2.3-4.2-3.4-1.5-1.1-3-2.1-4.6-3.1-1.5-1-3-1.9-4.3-2.8-1.4-.9-2.5-1.7-3.4-2.6-1.4-1.3-2.4-2.6-3.1-4.1s-1.1-3-1.2-4.4c0-1.5,0-2.9.6-4.2.5-1.3,1.2-2.5,2.1-3.4.9-.9,1.9-1.5,3.1-2s2.4-.8,3.7-.9,2.6,0,3.9.1c1.3.2,2.6.5,3.8,1,1.2.5,2.3,1.1,3.4,1.8s1.9,1.6,2.6,2.5c0-.1,0-.3,0-.6s0-.6-.1-.9,0-.6,0-.9c0-.3,0-.5,0-.7,0-.4,0-.7.3-1s.5-.4.9-.5c.4,0,.8-.1,1.2-.1.4,0,.9,0,1.3.2.4.1.7.3,1,.5.3.2.4.4.5.7Z"/>
    <path class="st5" d="M1490.4,263.8c.8,2.2,1.6,4.6,2.4,7.1.8,2.5,1.6,5,2.3,7.3.8,2.4,1.5,4.5,2.2,6.5.7,2,1.4,3.6,2.1,4.8.8,0,1.5-.1,2.2-.2.7,0,1.5-.1,2.4-.2,1.2,0,2.2.3,2.8.8.6.5,1,1.1,1,1.8s-.3,1.3-1,1.9-1.7,1-3.1,1.1c-.3,0-.7,0-1,0s-.7,0-1,0c.4,1.2.9,2.2,1.3,3.2.4,1,.8,1.9,1.3,2.8.4.9.9,1.9,1.4,2.8s1.1,2,1.7,3.2c.4,1.2.6,2.2.5,2.9s-.2,1.3-.6,1.6-.8.5-1.3.5c-.5,0-1.1-.2-1.6-.5s-1.1-.7-1.6-1.3c-.5-.6-.9-1.2-1.2-1.9-.7-1.7-1.3-3.1-1.8-4.3-.6-1.2-1.1-2.3-1.6-3.3-.5-1-1-1.9-1.4-2.8-.4-.9-.9-1.9-1.2-3h-2.2c-.9,0-1.9,0-3,0-1.1,0-2.2,0-3.4,0-1.2,0-2.3,0-3.3,0-1,0-1.9,0-2.6,0-.7,0-1.2,0-1.5,0-.7,1.4-1.3,2.6-1.9,3.7-.6,1.1-1.1,2.2-1.6,3.3s-1,2.3-1.4,3.5c-.5,1.2-.9,2.7-1.4,4.3-.1.5-.4.9-.8,1.2-.4.3-.9.5-1.3.6s-1,0-1.5,0c-.5-.1-.9-.4-1.2-.7-.3-.4-.5-.9-.6-1.5,0-.6,0-1.4.4-2.3.2-.8.5-1.8.9-2.8.4-1,.8-2.1,1.3-3.1s.9-2.1,1.4-3.2c.5-1.1.9-2.1,1.3-3-1.4,0-2.4-.4-3-.9-.7-.5-1-1.1-1.1-1.6s.2-1.1.7-1.6c.5-.5,1.3-.7,2.4-.7h3.1c.5-1.2,1-2.5,1.5-3.9.5-1.4,1-2.9,1.5-4.4s1-3.1,1.5-4.7c.5-1.6,1-3.2,1.5-4.7.5-1.5,1-3,1.5-4.4s1-2.7,1.5-3.9c.4-1.1,1-1.9,1.5-2.4s1.2-.8,1.8-.8c.6,0,1.1.2,1.7.7.5.5.9,1.1,1.1,2ZM1487.6,272c-.5,1.4-1,3-1.6,4.6-.5,1.7-1.1,3.3-1.6,4.9-.5,1.6-1,3.1-1.5,4.6-.5,1.4-.9,2.6-1.3,3.6.2,0,.6,0,1.1,0,.5,0,1.2,0,2,0,.8,0,1.6,0,2.4,0s1.7,0,2.5,0c.8,0,1.5,0,2.1,0,.6,0,1.1,0,1.4,0-.5-1-1-2.2-1.4-3.4-.4-1.3-.8-2.6-1.2-4.1-.4-1.5-.9-3-1.3-4.7-.5-1.7-1-3.4-1.6-5.2Z"/>
    <path class="st5" d="M1546.6,265.2c-.4,1.6-.9,3.3-1.5,5-.6,1.7-1.3,3.4-2.1,5.1s-1.6,3.4-2.4,5.1c-.9,1.7-1.7,3.3-2.5,4.9-.8,1.6-1.6,3.2-2.4,4.8s-1.5,3.3-2.3,5c-.7,1.7-1.4,3.5-2.1,5.4-.6,1.9-1.2,3.8-1.8,5.9-.2,1.5-.6,2.5-1.1,3.2-.5.6-1.1.9-1.7.9-.6,0-1.2-.5-1.9-1.2-.6-.7-1.2-1.8-1.6-3.1-1.5-4.1-2.9-8-4.3-11.7-1.3-3.7-2.6-7.3-3.8-10.6s-2.2-6.6-3.2-9.7c-1-3.1-1.8-6.1-2.5-9,0-.5,0-.9.2-1.2.2-.4.5-.7.9-.9.4-.3.8-.5,1.3-.6.5-.1.9-.2,1.3-.1.4,0,.8.2,1.2.4.4.2.6.6.7,1,.6,2.4,1.3,5,2.2,7.9.9,2.9,1.8,5.9,2.8,9.1,1,3.2,2,6.4,3.1,9.7,1.1,3.3,2.2,6.6,3.2,9.7.5-1.7,1-3.5,1.6-5.4.6-1.8,1.2-3.6,1.9-5.3s1.3-3.3,1.9-4.7c.6-1.4,1.2-2.7,1.8-3.7.7-1.2,1.4-2.6,2.2-4.2s1.5-3.2,2.2-4.8c.7-1.6,1.3-3.1,1.8-4.6.5-1.4.9-2.7,1-3.6.1-.8.5-1.3,1.2-1.6.7-.3,1.4-.4,2.1-.2.7.2,1.3.5,1.8,1.1.5.6.7,1.3.5,2.2Z"/>
    <path class="st5" d="M1584.7,262.3c.7,0,1.2,0,1.7.3.4.3.8.6,1,1,.2.4.3.8.3,1.3,0,.5-.1.9-.3,1.3s-.6.8-1,1.1-1,.5-1.7.5c-.6,0-1.6,0-3,0s-2.9,0-4.7,0c-1.7,0-3.6,0-5.5,0-1.9,0-3.7,0-5.4,0-1.7,0-3.2,0-4.5,0-1.3,0-2.2,0-2.7,0,0,.3,0,.8,0,1.5,0,.7,0,1.5.1,2.5,0,1,0,2,.1,3.2s0,2.2.1,3.4,0,2.2,0,3.2c0,1,0,1.8,0,2.5,1.1,0,2.3.1,3.7.2,1.4,0,2.8,0,4.3,0s3,0,4.6,0c1.6,0,3.1,0,4.5-.1,1.5,0,2.9-.1,4.2-.2,1.3,0,2.5-.2,3.6-.3,1.1,0,2,0,2.7.3s1.2.7,1.5,1.3c.2.5.2,1.1-.2,1.8-.4.6-1.1,1.3-2.2,1.8-2.3.4-4.8.7-7.3.9-2.6.1-5,.2-7.4.2s-4.6,0-6.7-.1c-2.1,0-3.8-.1-5.1-.1,0,.2,0,.7,0,1.5,0,.8,0,1.8,0,3,0,1.2,0,2.4,0,3.8,0,1.3,0,2.6.1,3.8,0,1.2,0,2.3.1,3.2,0,.9,0,1.5.1,1.8,1.3,0,2.8,0,4.6,0,1.7,0,3.5,0,5.4-.2,1.9,0,3.7-.2,5.6-.3,1.9-.1,3.6-.2,5.2-.3,1.6,0,2.9-.2,4-.3,1.1,0,1.9-.1,2.3-.1,1.3.1,2.3.5,2.8,1.1s.7,1.2.6,1.9c-.1.7-.6,1.3-1.4,1.8-.8.5-1.8.8-3.1.8-2.1,0-3.9,0-5.2,0-1.3,0-2.5.1-3.6.2-.7,0-1.4.1-2.1.2s-1.4.1-2.1.2c-.8,0-1.6.1-2.5.2-.9,0-2,0-3.3.1s-2.7,0-4.4.1c-1.7,0-3.6,0-5.8,0s-.3,0-.5-.2c-.2-.1-.5-.3-.8-.5s-.5-.4-.7-.7c-.2-.3-.3-.5-.3-.8-.2-.9-.4-1.8-.5-2.6-.1-.8-.2-1.6-.3-2.4,0-.8,0-1.6,0-2.5v-2.9c0-.8,0-1.6,0-2.6,0-1,0-1.9-.1-2.8,0-.9,0-1.7-.1-2.4,0-.7,0-1.1,0-1.4,0-1.4,0-2.9-.1-4.5,0-1.6,0-3.2-.1-4.8,0-1.6,0-3.1-.1-4.6,0-1.5,0-2.9,0-4,0-1.2,0-2.2,0-3,0-.8,0-1.3,0-1.5l-1.3.2c-1,0-1.8-.2-2.3-.7-.5-.5-.8-1.1-.8-1.7,0-.6.2-1.3.6-1.9s1-1,1.8-1.3c.6,0,1.2-.1,1.7-.2.5,0,1.1-.1,1.5-.2.5,0,1.5-.1,2.9-.2,1.4,0,3.1,0,4.9,0,1.9,0,3.9,0,6.1,0,2.2,0,4.3,0,6.4,0,2.1,0,4,0,5.7,0,1.8,0,3.2,0,4.3.1Z"/>
    <path class="st5" d="M1602.5,261.8c1.5,0,3-.1,4.5-.1s3.1,0,4.7.3c1.6.2,3.2.5,4.9,1,1.7.5,3.4,1.1,5.2,1.9,1.3.5,2.5,1.2,3.7,2.1,1.2.9,2.3,2,3.2,3.2.9,1.2,1.6,2.6,2.1,4.1s.7,3.2.5,4.9c-.3,1.9-.9,3.5-2,4.9-1.1,1.3-2.4,2.4-3.9,3.2-1.5.8-3.2,1.3-5,1.6-1.8.3-3.6.4-5.4.2.6.6,1.4,1.4,2.3,2.4s1.8,2.1,2.9,3.3c1,1.2,2.2,2.4,3.3,3.6s2.4,2.3,3.6,3.3c1.2,1,2.4,1.8,3.6,2.4,1.2.6,2.4.9,3.5.9s1.5.3,1.8.8c.3.5.4,1.1.3,1.8-.1.7-.4,1.3-1,1.8-.5.5-1.2.8-1.9.8-1.8,0-3.5-.3-5.2-1.1s-3.3-1.8-4.8-3c-1.6-1.3-3-2.7-4.5-4.2s-2.8-3.1-4.2-4.6-2.7-3-3.9-4.3c-1.3-1.3-2.5-2.4-3.7-3.3-.5-.2-1.1-.4-1.6-.6-.5-.2-1.1-.3-1.8-.4,0,1.5,0,3.1.1,4.8,0,1.7.1,3.3.2,5,0,1.7.1,3.3.2,5,0,1.7,0,3.2.1,4.7,0,.8-.4,1.4-.9,1.7-.6.4-1.2.5-1.9.5-.7,0-1.3-.3-1.8-.7-.5-.4-.8-1.1-.8-1.9-.2-4.4-.4-8.5-.5-12.4-.1-3.8-.2-7.4-.3-10.6s-.1-6.3-.1-9.1c0-2.8,0-5.4,0-7.8-.5.1-.9.2-1.3.3-.4,0-.7.2-1,.2-.8.1-1.4,0-1.8-.4-.4-.4-.7-.9-.9-1.5-.1-.6,0-1.2.2-1.7.2-.6.6-1,1.3-1.2.5-.2,1-.4,1.5-.6.5-.2,1.1-.3,1.8-.5s1.4-.3,2.2-.4c.8,0,1.7-.2,2.8-.2ZM1603.9,267.2c0,1.1-.1,2.2-.2,3.3,0,1.2,0,2.4,0,3.7s0,2.7,0,4.2c0,1.5,0,3.1.1,4.8,1.4.4,2.8.8,4.3,1.1s3,.4,4.6.5c1.5,0,3,0,4.4-.1,1.4-.2,2.7-.4,3.8-.9,1.1-.4,2.1-1,2.8-1.7s1.2-1.7,1.4-2.8c.1-.8.1-1.7,0-2.6-.2-.9-.5-1.7-.9-2.5-.5-.8-1.1-1.5-1.8-2.2-.7-.7-1.6-1.3-2.6-1.7-1.3-.6-2.7-1.1-4.2-1.5-1.5-.4-2.9-.7-4.3-1-1.4-.3-2.8-.4-4.1-.5s-2.4,0-3.4,0Z"/>
  </g>
  <path class="st5" d="M1603.6,384.3c-87.9-.8-175.9-1.6-263.8-2.4-43.8-.4-87.6-.8-131.4-1.2-15.3-.1-36.9-2.4-48.9,9.5s-6.5,11.6-7.2,18.3c-1.1,10.7-1.2,21.6-.5,32.4.7,9.8,2.2,19.6,4.4,29.2,1.9,8.2,4.5,16.3,10.7,22.4,12.5,12.3,32.7,14.9,49.3,15.8,21.4,1.1,43,0,64.3-.3,22-.3,43.9-.7,65.9-1,43.9-.6,87.8-1.1,131.8-.9,21.9.1,43.9.4,65.8,1s40.1,2,60,.5,33.3-4.5,46.4-15,19.8-27.1,22-43.1c2.6-17.9-.9-37-10.1-52.7s-31.1-13.4-47.2-13.4-21.9.2-32.8.7-3.9,6.2,0,6c10.3-.4,20.5-.7,30.8-.7,9.7,0,20-.6,29.6,1,9.7,1.6,14,7.7,17.7,16.2s6.3,18.6,6.7,28.3c.7,16.8-4.1,35.7-15.6,48.3-11.5,12.6-28.7,16.7-45.1,18.2-18.1,1.6-36.4.4-54.5,0s-40.6-.9-60.8-1.1c-40.9-.4-81.8,0-122.8.5-40.9.5-81.9,1.3-122.8,1.8-18.9.2-38.7,1.1-57-4.7-8.4-2.7-16.9-6.9-21.6-14.7s-5.9-17.3-7.3-25.9c-1.6-9.8-2.4-19.7-2.4-29.6,0-8.6-.4-18.5,2.5-26.7,5.9-17.1,32.4-14.3,46.6-14.1,40.8.4,81.6.7,122.5,1.1,81.6.7,163.3,1.5,244.9,2.2l29.9.3c3.9,0,3.9-6,0-6h0Z"/>
  <g>
    <path class="st5" d="M1223.1,416.6c0,2.1,0,4.4.1,7,0,2.5.2,5.2.3,7.9.1,2.8.2,5.6.4,8.5s.2,5.7.3,8.5c0,2.8.1,5.6,0,8.2,0,2.7,0,5.1-.2,7.5,0,.9-.3,1.7-.7,2.2-.4.5-.9.8-1.5.9-.6,0-1.1-.1-1.7-.6-.6-.4-1.1-1.2-1.6-2.3-1.1-1.6-2.2-3.2-3.4-4.8-1.1-1.6-2.3-3.2-3.6-5s-2.6-3.5-4.1-5.5c-1.5-1.9-3.1-4-4.9-6.2s-3.8-4.7-6-7.4c-2.2-2.7-4.7-5.6-7.4-8.8.2,2.7.4,5.3.5,7.6.2,2.3.3,4.6.4,6.7.1,2.1.2,4.1.2,6.1,0,2,0,3.9,0,5.9,0,2-.1,3.9-.2,6s-.3,4.2-.5,6.4c-.1.7-.4,1.3-.8,1.7s-.8.8-1.3,1c-.5.2-1,.3-1.5.2-.5,0-1-.2-1.4-.5-.4-.3-.7-.7-.9-1.2-.2-.5-.3-1.1-.1-1.9.3-3.2.6-6.4.7-9.7.1-3.3.1-6.8,0-10.3s-.2-7.1-.3-10.8c-.2-3.7-.3-7.5-.5-11.3,0-.7-.1-1.5-.2-2.4,0-.9,0-1.7,0-2.5,0-.9.3-1.6.7-2.2.4-.5.9-.9,1.5-.9.6,0,1.1,0,1.7.5.6.4,1.1,1.1,1.4,2.2.9,1.2,1.9,2.5,3.1,3.9,1.2,1.4,2.4,2.9,3.6,4.4s2.5,2.9,3.7,4.3c1.2,1.4,2.3,2.6,3.3,3.7.6.7,1.3,1.5,2.1,2.5s1.7,2.1,2.7,3.4c.9,1.2,1.9,2.5,3,3.9,1,1.4,2,2.7,3.1,4.1,1,1.4,2,2.7,3,4.1.9,1.3,1.8,2.5,2.6,3.7,0-1.3-.1-2.9-.2-4.7,0-1.8-.2-3.8-.3-6-.1-2.1-.2-4.4-.3-6.7-.1-2.4-.2-4.7-.3-7.1,0-2.4-.2-4.8-.2-7.1,0-2.3,0-4.5,0-6.6s.1-.8.4-1.1c.3-.3.7-.5,1.1-.7.4-.2.9-.2,1.4-.3.5,0,1,0,1.4.1.4.1.8.3,1.1.6.3.3.4.6.4,1Z"/>
    <path class="st5" d="M1264.8,418.8c.7,0,1.2,0,1.7.3s.8.6,1,1c.2.4.3.8.3,1.3,0,.5-.1.9-.3,1.3s-.6.8-1,1.1c-.5.3-1,.5-1.7.5-.6,0-1.6,0-3,0s-2.9,0-4.7,0c-1.7,0-3.6,0-5.5,0-1.9,0-3.7,0-5.4,0s-3.2,0-4.5,0c-1.3,0-2.2,0-2.7,0,0,.3,0,.8,0,1.5,0,.7,0,1.5.1,2.5,0,1,0,2,.1,3.2,0,1.1,0,2.2.1,3.4,0,1.1,0,2.2,0,3.2,0,1,0,1.8,0,2.5,1.1,0,2.3.1,3.7.2,1.4,0,2.8,0,4.3,0s3,0,4.6,0c1.6,0,3.1,0,4.5-.1,1.5,0,2.9-.1,4.2-.2,1.3,0,2.5-.2,3.6-.3,1.1,0,2,0,2.7.3.7.3,1.2.7,1.5,1.3.2.5.2,1.1-.2,1.8-.4.6-1.1,1.3-2.2,1.8-2.3.4-4.8.7-7.3.9-2.6.1-5,.2-7.4.2s-4.6,0-6.7-.1c-2.1,0-3.8-.1-5.1-.1,0,.2,0,.7,0,1.5,0,.8,0,1.8,0,3,0,1.2,0,2.4,0,3.8,0,1.3,0,2.6.1,3.8,0,1.2,0,2.3.1,3.2,0,.9,0,1.5.1,1.8,1.3,0,2.8,0,4.6,0s3.5,0,5.4-.2,3.7-.2,5.6-.3c1.9-.1,3.6-.2,5.2-.3s2.9-.2,4-.3c1.1,0,1.9-.1,2.3-.1,1.3.1,2.3.5,2.8,1.1.5.6.7,1.2.6,1.9-.1.7-.6,1.3-1.4,1.8s-1.8.8-3.1.8c-2.1,0-3.9,0-5.2,0s-2.5.1-3.6.2c-.7,0-1.4.1-2.1.2s-1.4.1-2.1.2c-.8,0-1.6.1-2.5.2s-2,0-3.3.1c-1.3,0-2.7,0-4.4.1-1.7,0-3.6,0-5.8,0s-.3,0-.5-.2c-.2-.1-.5-.3-.8-.5-.3-.2-.5-.4-.7-.7s-.3-.5-.3-.8c-.2-.9-.4-1.8-.5-2.6-.1-.8-.2-1.6-.3-2.4,0-.8,0-1.6,0-2.5v-2.9c0-.8,0-1.6,0-2.6,0-1,0-1.9-.1-2.8,0-.9,0-1.7-.1-2.4,0-.7,0-1.1,0-1.4,0-1.4,0-2.9-.1-4.5,0-1.6,0-3.2-.1-4.8,0-1.6,0-3.1-.1-4.6,0-1.5,0-2.9,0-4,0-1.2,0-2.2,0-3,0-.8,0-1.3,0-1.5l-1.3.2c-1,0-1.8-.2-2.3-.7-.5-.5-.8-1.1-.8-1.7,0-.6.2-1.3.6-1.9.4-.6,1-1,1.8-1.3.6,0,1.2-.1,1.7-.2.5,0,1.1-.1,1.5-.2.5,0,1.5-.1,2.9-.2,1.4,0,3.1,0,4.9,0,1.9,0,3.9,0,6.1,0,2.2,0,4.3,0,6.4,0,2.1,0,4,0,5.7,0s3.2,0,4.3.1Z"/>
    <path class="st5" d="M1278.9,419.7c1.2,2.4,2.2,4.7,3,7,.8,2.2,1.6,4.4,2.2,6.5.6,2.1,1.2,4.1,1.6,6.1.5,2,.9,3.9,1.3,5.8.4,1.9.9,3.8,1.3,5.6.4,1.8,1,3.7,1.6,5.5.4-1.3.9-2.9,1.5-4.7.6-1.8,1.3-3.8,2-5.8.7-2.1,1.5-4.2,2.3-6.3.8-2.2,1.5-4.3,2.2-6.3.7-2,1.3-3.9,1.8-5.7.5-1.7.9-3.2,1.1-4.4.2-1,.6-1.8,1.1-2.2s1.1-.6,1.7-.5c.6,0,1.2.4,1.8.9s.9,1.2,1.1,2.1c.5,1.4,1.1,3.1,1.8,4.9s1.4,3.8,2.1,5.8c.7,2,1.4,4,2.1,6.1.7,2.1,1.4,4.1,2,6,.6,1.9,1.1,3.7,1.6,5.4.5,1.7.8,3.2,1.1,4.4.9-3.4,1.9-6.8,2.8-10.2.9-3.4,1.9-6.7,2.8-9.8.9-3.1,1.8-6,2.6-8.7s1.6-4.9,2.4-6.8c.2-.6.6-1.1,1-1.4.4-.3.9-.6,1.4-.7.5-.1,1-.1,1.5,0s.9.3,1.2.6c.3.3.6.7.7,1.2.1.5,0,1.1-.2,1.7-1.2,3.3-2.4,6.7-3.6,10.4-1.2,3.7-2.5,7.4-3.7,11.1-1.2,3.7-2.4,7.5-3.6,11.1s-2.2,7.2-3.2,10.4c-.3.9-.7,1.5-1.2,1.8-.5.4-1,.5-1.6.4-.6,0-1.1-.4-1.6-.9-.5-.5-.8-1.3-1-2.3-.6-2.8-1.3-5.7-2.1-8.7-.9-3-1.7-5.8-2.7-8.7-.9-2.8-1.8-5.6-2.8-8.2-.9-2.6-1.7-5.1-2.4-7.3-.9,3-1.8,6-2.8,8.8-1,2.8-2,5.6-3.1,8.4-1,2.8-2.1,5.6-3.1,8.4-1,2.8-1.9,5.7-2.8,8.7-.3.7-.7,1.1-1.2,1.4-.5.3-1,.4-1.6.3-.5,0-1.1-.3-1.5-.7-.5-.4-.8-.9-1.1-1.5-.5-1.6-1.1-3.5-1.7-5.8-.6-2.3-1.3-4.7-1.9-7.3-.7-2.6-1.4-5.3-2.2-8.1-.8-2.8-1.5-5.5-2.4-8.1-.8-2.6-1.6-5.1-2.4-7.4-.8-2.3-1.7-4.3-2.5-5.9-.3-.5-.4-1-.3-1.5,0-.5.3-.9.5-1.3.3-.4.7-.7,1.1-.9.4-.2.9-.4,1.3-.4s.9,0,1.3.3.7.6,1,1.1Z"/>
    <path class="st5" d="M1380.8,418.1c.5,1.5,1.1,3,1.7,4.7.6,1.6,1.2,3.3,1.9,4.9.6,1.6,1.3,3.3,1.9,4.8.6,1.6,1.3,3.1,1.9,4.5.6,1.4,1.2,2.7,1.7,3.8s1,2.1,1.5,2.9c.8,0,1.5,0,2.2-.1.7,0,1.5,0,2.4-.1.9,0,1.6.1,2.2.4.6.3,1,.6,1.3,1,.3.4.4.8.4,1.3,0,.5-.2.9-.5,1.4-.3.4-.8.8-1.5,1.1-.6.3-1.4.5-2.4.6-.3,0-.7,0-1.1,0-.4,0-.7,0-1.1,0,.9,2.4,1.9,4.7,3,7,1.1,2.3,2,4.7,2.9,7,.4,1.2.6,2.2.5,2.9s-.3,1.3-.6,1.6c-.4.3-.8.5-1.3.5-.5,0-1.1-.2-1.7-.5-.6-.3-1.1-.7-1.6-1.3-.5-.6-.8-1.2-1.1-1.9-.5-1.7-1-3.2-1.5-4.6-.5-1.4-1.1-2.7-1.6-4-.5-1.2-1.1-2.4-1.6-3.5-.5-1.1-1-2.2-1.3-3.3-.5,0-1.3,0-2.3,0-1,0-2.1,0-3.3,0h-3.8c-1.3,0-2.5,0-3.6,0-1.1,0-2.1,0-2.9,0h-1.6c-.5,1.4-1.1,2.7-1.7,4-.6,1.3-1.3,2.7-1.9,4.1-.6,1.4-1.3,2.8-1.9,4.3-.6,1.5-1.2,3-1.6,4.7-.2.5-.5.9-.9,1.2-.4.3-.8.5-1.3.6-.5.1-1,.1-1.5,0-.5-.1-.9-.4-1.2-.7-.3-.4-.5-.9-.6-1.5,0-.6,0-1.4.4-2.3.2-.8.5-1.9.9-3.1.4-1.3.9-2.6,1.4-3.9.5-1.3,1.1-2.7,1.6-4,.6-1.3,1.1-2.4,1.7-3.3-1.3,0-2.3-.4-3-.9-.7-.5-1-1.1-1.1-1.7,0-.6.2-1.1.7-1.6.5-.5,1.3-.7,2.4-.7h3.1c.5-1.2,1-2.5,1.5-3.9.5-1.4,1-2.9,1.5-4.4.5-1.5,1-3.1,1.5-4.7s1-3.2,1.5-4.7c.5-1.5,1-3,1.5-4.4.5-1.4,1-2.7,1.6-3.9.4-1.1,1-1.9,1.6-2.4.6-.5,1.2-.8,1.8-.8.6,0,1.1.2,1.6.7.5.5.9,1.1,1.1,2ZM1378,426.2c-.5,1.4-1.1,3-1.6,4.6-.5,1.7-1.1,3.3-1.6,4.9s-1,3.1-1.5,4.6c-.5,1.4-.9,2.6-1.3,3.6.2,0,.6,0,1.2,0,.6,0,1.4,0,2.2,0s1.8,0,2.8,0c1,0,1.9,0,2.8,0,.9,0,1.7,0,2.4,0h1.5c-1-2.1-2.1-4.6-3.4-7.5-1.2-3-2.4-6.3-3.6-9.9Z"/>
    <path class="st5" d="M1413.4,418.3c1.5,0,3-.1,4.5-.1s3.1,0,4.7.3c1.6.2,3.2.5,4.9,1,1.7.5,3.4,1.1,5.2,1.9,1.3.5,2.5,1.2,3.7,2.1,1.2.9,2.3,2,3.2,3.2.9,1.2,1.6,2.6,2.1,4.1s.7,3.2.5,4.9c-.3,1.9-.9,3.5-2,4.9-1.1,1.3-2.4,2.4-3.9,3.2-1.5.8-3.2,1.3-5,1.6-1.8.3-3.6.4-5.4.2.6.6,1.4,1.4,2.3,2.4s1.8,2.1,2.9,3.3c1,1.2,2.2,2.4,3.3,3.6s2.4,2.3,3.6,3.3c1.2,1,2.4,1.8,3.6,2.4,1.2.6,2.4.9,3.5.9s1.5.3,1.8.8c.3.5.4,1.1.3,1.8-.1.7-.4,1.3-1,1.8-.5.5-1.2.8-1.9.8-1.8,0-3.5-.3-5.2-1.1s-3.3-1.8-4.8-3c-1.6-1.3-3-2.7-4.5-4.2s-2.8-3.1-4.2-4.6-2.7-3-3.9-4.3c-1.3-1.3-2.5-2.4-3.7-3.3-.5-.2-1.1-.4-1.6-.6-.5-.2-1.1-.3-1.8-.4,0,1.5,0,3.1.1,4.8,0,1.7.1,3.3.2,5,0,1.7.1,3.3.2,5,0,1.7,0,3.2.1,4.7,0,.8-.4,1.4-.9,1.7-.6.4-1.2.5-1.9.5-.7,0-1.3-.3-1.8-.7-.5-.4-.8-1.1-.8-1.9-.2-4.4-.4-8.5-.5-12.4-.1-3.8-.2-7.4-.3-10.6s-.1-6.3-.1-9.1c0-2.8,0-5.4,0-7.8-.5.1-.9.2-1.3.3-.4,0-.7.2-1,.2-.8.1-1.4,0-1.8-.4-.4-.4-.7-.9-.9-1.5-.1-.6,0-1.2.2-1.7.2-.6.6-1,1.3-1.2.5-.2,1-.4,1.5-.6.5-.2,1.1-.3,1.8-.5s1.4-.3,2.2-.4c.8,0,1.7-.2,2.8-.2ZM1414.8,423.7c0,1.1-.1,2.2-.2,3.3,0,1.2,0,2.4,0,3.7s0,2.7,0,4.2c0,1.5,0,3.1.1,4.8,1.4.4,2.8.8,4.3,1.1s3,.4,4.6.5c1.5,0,3,0,4.4-.1,1.4-.2,2.7-.4,3.8-.9,1.1-.4,2.1-1,2.8-1.7s1.2-1.7,1.4-2.8c.1-.8.1-1.7,0-2.6-.2-.9-.5-1.7-.9-2.5-.5-.8-1.1-1.5-1.8-2.2-.7-.7-1.6-1.3-2.6-1.7-1.3-.6-2.7-1.1-4.2-1.5-1.5-.4-2.9-.7-4.3-1-1.4-.3-2.8-.4-4.1-.5s-2.4,0-3.4,0Z"/>
    <path class="st5" d="M1460.4,418.3c1.5,0,3-.1,4.5-.1s3.1,0,4.7.3c1.6.2,3.2.5,4.9,1,1.7.5,3.4,1.1,5.2,1.9,1.3.5,2.5,1.2,3.7,2.1,1.2.9,2.3,2,3.2,3.2s1.6,2.6,2.1,4.1.7,3.2.5,4.9c-.3,1.9-.9,3.5-2,4.9-1.1,1.3-2.4,2.4-3.9,3.2s-3.2,1.3-5,1.6c-1.8.3-3.6.4-5.4.2.6.6,1.4,1.4,2.3,2.4s1.8,2.1,2.9,3.3c1,1.2,2.1,2.4,3.3,3.6s2.4,2.3,3.6,3.3c1.2,1,2.4,1.8,3.6,2.4,1.2.6,2.4.9,3.5.9s1.5.3,1.8.8c.3.5.4,1.1.3,1.8-.1.7-.4,1.3-1,1.8-.5.5-1.2.8-1.9.8-1.8,0-3.5-.3-5.2-1.1-1.7-.8-3.3-1.8-4.8-3-1.6-1.3-3-2.7-4.5-4.2-1.4-1.6-2.8-3.1-4.2-4.6s-2.7-3-3.9-4.3c-1.3-1.3-2.5-2.4-3.7-3.3-.5-.2-1.1-.4-1.6-.6-.5-.2-1.1-.3-1.8-.4,0,1.5,0,3.1.1,4.8s.1,3.3.2,5c0,1.7.1,3.3.2,5,0,1.7,0,3.2.1,4.7,0,.8-.4,1.4-.9,1.7-.6.4-1.2.5-1.9.5-.7,0-1.3-.3-1.8-.7-.5-.4-.8-1.1-.8-1.9-.2-4.4-.4-8.5-.5-12.4-.1-3.8-.2-7.4-.3-10.6,0-3.3-.1-6.3-.1-9.1,0-2.8,0-5.4,0-7.8-.5.1-.9.2-1.3.3s-.7.2-1,.2c-.8.1-1.4,0-1.8-.4-.5-.4-.7-.9-.9-1.5s0-1.2.2-1.7.7-1,1.3-1.2c.5-.2,1-.4,1.5-.6.5-.2,1.1-.3,1.8-.5.7-.1,1.4-.3,2.2-.4.8,0,1.7-.2,2.8-.2ZM1461.8,423.7c0,1.1-.1,2.2-.2,3.3,0,1.2,0,2.4,0,3.7s0,2.7,0,4.2c0,1.5,0,3.1.1,4.8,1.4.4,2.8.8,4.3,1.1,1.5.3,3,.4,4.6.5,1.5,0,3,0,4.4-.1,1.4-.2,2.7-.4,3.8-.9,1.1-.4,2.1-1,2.8-1.7.8-.7,1.2-1.7,1.4-2.8.1-.8.1-1.7,0-2.6s-.5-1.7-.9-2.5c-.5-.8-1.1-1.5-1.8-2.2s-1.6-1.3-2.6-1.7c-1.3-.6-2.7-1.1-4.2-1.5-1.5-.4-2.9-.7-4.3-1s-2.8-.4-4.1-.5c-1.3,0-2.4,0-3.4,0Z"/>
    <path class="st5" d="M1519.2,417.9c.7,0,1.3,0,1.9.3s1.1.4,1.6.8c.5.4.8.8,1.1,1.3.3.5.4,1.1.4,1.8,0,.8-.2,1.4-.5,1.9-.4.5-.8.8-1.3.9-.5.1-1,0-1.6-.1-.6-.2-1-.6-1.5-1.2-.2-.4-.6-.6-.9-.7-.4-.1-.8-.2-1.3-.1-.5,0-1,0-1.6.1-.6,0-1.2,0-1.8,0v7c0,2,0,3.9,0,5.6,0,1.7,0,3.2.1,4.6,0,1.4.1,2.7.2,4,0,1.4.2,2.8.2,4s.1,2.5.1,3.8,0,2.7,0,4.2c0,1.5,0,3.3,0,5.3.7,0,1.4.1,2.2.2.8,0,1.6,0,2.4,0,.8,0,1.6,0,2.4,0,.8,0,1.5-.1,2.2-.2.4,0,.8,0,1.1.3.3.2.5.6.6.9s.1.8.1,1.3c0,.5-.1.9-.3,1.3-.2.4-.4.8-.8,1.1s-.7.5-1.2.5c-1,.1-2.2.2-3.6.2-1.4,0-3,0-4.9-.1-1.8,0-3.8-.1-6.1-.1s-4.6,0-7.2,0c-.4,0-.7,0-.9-.3s-.4-.6-.5-1c0-.4-.1-.8-.1-1.3,0-.5.1-.9.2-1.3.1-.4.3-.8.6-1,.2-.3.5-.4.9-.5.6,0,1.2,0,1.8,0,.6,0,1.3,0,1.9,0,.6,0,1.2,0,1.8,0,.6,0,1.1,0,1.5,0,0-.7,0-1.7,0-3,0-1.3,0-2.7,0-4.2,0-1.6,0-3.2-.1-4.9s-.1-3.4-.2-5c0-1.2-.1-2.5-.2-3.9,0-1.4,0-2.9-.1-4.5,0-1.7,0-3.5-.1-5.5,0-2-.1-4.3-.2-6.9-.4,0-.8,0-1.1,0-.3,0-.7,0-1.2,0-.5,0-1.1,0-1.9.1s-1.8.1-3.1.2c-.5,0-.9-.1-1.2-.4-.3-.3-.5-.6-.6-.9,0-.4,0-.8,0-1.2,0-.4.2-.8.4-1.2s.4-.7.7-1c.3-.3.6-.4.9-.4,1.3,0,2.3,0,3.2-.1.8,0,1.5,0,2.1-.1.6,0,1.1,0,1.4,0,.4,0,.8,0,1.2,0s.9,0,1.4,0c.5,0,1.2,0,1.9,0,.8,0,1.8,0,3,0h4.4Z"/>
    <path class="st5" d="M1565.2,421.7c-.4,1.6-.9,3.3-1.5,5-.6,1.7-1.3,3.4-2.1,5.1-.8,1.7-1.6,3.4-2.4,5.1-.9,1.7-1.7,3.3-2.5,4.9-.8,1.6-1.6,3.2-2.3,4.8-.8,1.6-1.5,3.3-2.3,5-.7,1.7-1.4,3.5-2.1,5.4s-1.2,3.8-1.8,5.9c-.2,1.5-.6,2.5-1.1,3.2-.5.6-1.1.9-1.7.9-.6,0-1.2-.5-1.9-1.2-.6-.7-1.2-1.8-1.6-3.1-1.5-4.1-2.9-8-4.3-11.7-1.3-3.7-2.6-7.3-3.8-10.6s-2.2-6.6-3.2-9.7c-1-3.1-1.8-6.1-2.5-9,0-.5,0-.9.2-1.2.2-.4.5-.7.9-.9.4-.3.8-.5,1.3-.6.5-.1.9-.2,1.3-.1.4,0,.8.2,1.2.4.4.2.6.6.7,1,.6,2.4,1.3,5,2.2,7.9.9,2.9,1.8,5.9,2.8,9.1,1,3.2,2,6.4,3.1,9.7,1.1,3.3,2.2,6.6,3.2,9.7.5-1.7,1-3.5,1.6-5.4s1.2-3.6,1.9-5.3,1.3-3.3,1.9-4.7c.6-1.4,1.2-2.7,1.8-3.7.7-1.2,1.4-2.6,2.2-4.2.8-1.6,1.5-3.2,2.2-4.8.7-1.6,1.3-3.1,1.8-4.6.5-1.4.9-2.7,1-3.6.1-.8.5-1.3,1.2-1.6.7-.3,1.4-.4,2.1-.2.7.2,1.3.5,1.8,1.1.5.6.7,1.3.5,2.2Z"/>
    <path class="st5" d="M1590.1,420.3c.8,2.2,1.6,4.6,2.4,7.1.8,2.5,1.6,5,2.3,7.3.8,2.4,1.5,4.5,2.2,6.5.7,2,1.4,3.6,2.1,4.8.8,0,1.5-.1,2.2-.2.7,0,1.5-.1,2.4-.2,1.2,0,2.2.3,2.8.8.6.5,1,1.1,1,1.8s-.3,1.3-1,1.9-1.7,1-3.1,1.1c-.3,0-.7,0-1,0s-.7,0-1,0c.4,1.2.9,2.2,1.3,3.2.4,1,.8,1.9,1.3,2.8.4.9.9,1.9,1.4,2.8s1.1,2,1.7,3.2c.4,1.2.6,2.2.5,2.9s-.2,1.3-.6,1.6-.8.5-1.3.5c-.5,0-1.1-.2-1.6-.5s-1.1-.7-1.6-1.3c-.5-.6-.9-1.2-1.2-1.9-.7-1.7-1.3-3.1-1.8-4.3-.6-1.2-1.1-2.3-1.6-3.3-.5-1-1-1.9-1.4-2.8-.4-.9-.9-1.9-1.2-3h-2.2c-.9,0-1.9,0-3,0-1.1,0-2.2,0-3.4,0-1.2,0-2.3,0-3.3,0-1,0-1.9,0-2.6,0-.7,0-1.2,0-1.5,0-.7,1.4-1.3,2.6-1.9,3.7-.6,1.1-1.1,2.2-1.6,3.3s-1,2.3-1.4,3.5c-.5,1.2-.9,2.7-1.4,4.3-.1.5-.4.9-.8,1.2-.4.3-.9.5-1.3.6s-1,0-1.5,0c-.5-.1-.9-.4-1.2-.7-.3-.4-.5-.9-.6-1.5,0-.6,0-1.4.4-2.3.2-.8.5-1.8.9-2.8.4-1,.8-2.1,1.3-3.1s.9-2.1,1.4-3.2c.5-1.1.9-2.1,1.3-3-1.4,0-2.4-.4-3-.9-.7-.5-1-1.1-1.1-1.6s.2-1.1.7-1.6c.5-.5,1.3-.7,2.4-.7h3.1c.5-1.2,1-2.5,1.5-3.9.5-1.4,1-2.9,1.5-4.4s1-3.1,1.5-4.7c.5-1.6,1-3.2,1.5-4.7.5-1.5,1-3,1.5-4.4s1-2.7,1.5-3.9c.4-1.1,1-1.9,1.5-2.4s1.2-.8,1.8-.8c.6,0,1.1.2,1.7.7.5.5.9,1.1,1.1,2ZM1587.2,428.5c-.5,1.4-1,3-1.6,4.6-.5,1.7-1.1,3.3-1.6,4.9-.5,1.6-1,3.1-1.5,4.6-.5,1.4-.9,2.6-1.3,3.6.2,0,.6,0,1.1,0,.5,0,1.2,0,2,0,.8,0,1.6,0,2.4,0s1.7,0,2.5,0c.8,0,1.5,0,2.1,0,.6,0,1.1,0,1.4,0-.5-1-1-2.2-1.4-3.4-.4-1.3-.8-2.6-1.2-4.1-.4-1.5-.9-3-1.3-4.7-.5-1.7-1-3.4-1.6-5.2Z"/>
    <path class="st5" d="M1616.3,421c0,3.4,0,6.3,0,9,.1,2.6.3,5.1.4,7.3.2,2.2.4,4.3.6,6.2.2,1.9.4,3.8.5,5.7s.3,3.9.3,5.9c0,2.1,0,4.3-.1,6.8,1.4-.1,2.8-.2,4.2-.3,1.5,0,2.9,0,4.3,0,1.4,0,2.8,0,4.1.2,1.3,0,2.5.2,3.5.2,1.1,0,2,.2,2.7.2.8,0,1.3,0,1.6,0-.1-.9-.2-1.7-.3-2.5,0-.7-.1-1.4-.2-2.1,0-.7,0-1.2,0-1.7,0-.4.3-.8.5-1.2.3-.3.6-.6,1-.8s.8-.4,1.3-.4c.4,0,.9,0,1.2,0,.4.1.7.4.9.7.2.4.4.8.4,1.5,0,.4,0,1,0,1.7,0,.8,0,1.6,0,2.4,0,.9,0,1.7,0,2.5,0,.8,0,1.5-.1,2-.1.4-.3.8-.6,1.1-.3.3-.5.6-.9.8s-.7.4-1,.5c-.4.1-.7.2-1,.2s-.9,0-1.9,0-2.2,0-3.7-.1c-1.4,0-3,0-4.8-.1s-3.5,0-5.2,0-3.4,0-5,0c-1.6,0-3,.2-4.2.3-.8,0-1.4,0-1.8-.3-.4-.2-.7-.6-.9-.9-.2-.4-.3-.8-.3-1.3,0-.4,0-.9,0-1.2.1-2.7.2-5.2.1-7.4s-.1-4.3-.3-6.4c-.1-2-.3-4-.5-6-.2-2-.4-4.1-.5-6.3-.2-2.2-.3-4.7-.4-7.3,0-2.6-.1-5.6,0-9,0-.7.1-1.2.4-1.6.3-.4.6-.8,1.1-1,.4-.2.9-.3,1.4-.3s.9.1,1.4.3c.4.2.8.5,1.1,1s.4,1,.4,1.6Z"/>
  </g>
  <g>
    <line class="st1" x1="566.9" y1="239" x2="576.9" y2="239"/>
    <line class="st2" x1="597.7" y1="239" x2="961.4" y2="239"/>
    <line class="st1" x1="971.8" y1="239" x2="981.8" y2="239"/>
  </g>
  <line class="st0" x1="984.9" y1="130.4" x2="984.9" y2="434.7"/>
  <line class="st0" x1="1152.4" y1="434.7" x2="984.9" y2="434.7"/>
  <line class="st0" x1="1146.9" y1="284.4" x2="984.9" y2="284.4"/>
  <line class="st0" x1="984.9" y1="130.4" x2="1154.8" y2="130.4"/>
</svg>