<?xml version="1.0" encoding="UTF-8" standalone="no"?>
<svg
   viewBox="2132.897 281.275 1036.141 941.321"
   width="1036.141"
   height="941.321"
   version="1.1"
   id="svg2470"
   sodipodi:docname="2026-NL-01-graph.svg"
   inkscape:version="1.2.2 (732a01da63, 2022-12-09)"
   xmlns:inkscape="http://www.inkscape.org/namespaces/inkscape"
   xmlns:sodipodi="http://sodipodi.sourceforge.net/DTD/sodipodi-0.dtd"
   xmlns="http://www.w3.org/2000/svg"
   xmlns:svg="http://www.w3.org/2000/svg"
   xmlns:bx="https://boxy-svg.com">
  <sodipodi:namedview
     id="namedview2472"
     pagecolor="#ffffff"
     bordercolor="#000000"
     borderopacity="0.25"
     inkscape:showpageshadow="2"
     inkscape:pageopacity="0.0"
     inkscape:pagecheckerboard="0"
     inkscape:deskcolor="#d1d1d1"
     showgrid="false"
     inkscape:zoom="0.35455961"
     inkscape:cx="537.28624"
     inkscape:cy="494.98024"
     inkscape:window-width="739"
     inkscape:window-height="822"
     inkscape:window-x="714"
     inkscape:window-y="0"
     inkscape:window-maximized="0"
     inkscape:current-layer="svg2470" />
  <defs
     id="defs2376">
    <style
       id="style2374">@import url(https://fonts.googleapis.com/css2?family=Amiko%3Aital%2Cwght%400%2C400%3B0%2C600%3B0%2C700&amp;display=swap);</style>
    <bx:export>
      <bx:file
         format="png"
         path="2026-NL-01-graph.png" />
    </bx:export>
  </defs>
  <g
     id="g2742">
    <path
       style="fill: none; stroke: rgb(0, 0, 0); stroke-width: 7px;"
       d="M 2700 1150.426 L 2753.588 349.291 L 2244.654 858.225 L 2351.085 449.917 L 2556.207 349.291 L 3100 655.038 L 2700 1150.426 Z"
       id="path2378" />
    <line
       style="fill: none; stroke: rgb(0, 0, 0); stroke-width: 7px;"
       x1="2954.839"
       y1="1047.866"
       x2="2774.874"
       y2="362.837"
       id="line2380" />
    <path
       style="fill: none; stroke: rgb(0, 0, 0); stroke-width: 7px;"
       d="M 2354.955 453.787 L 2954.839 1047.866 L 2200 647.298 L 2945.164 447.982 L 3039.984 846.614 L 2700 1154.296"
       id="path2382" />
    <line
       style="fill: none; stroke-width: 13px; stroke: rgb(103, 200, 0);"
       x1="2451.71"
       y1="1043.995"
       x2="3072.881"
       y2="653.103"
       id="line2384" />
    <line
       style="fill: none; stroke: rgb(103, 200, 0); stroke-width: 15px;"
       x1="2700"
       y1="1142.686"
       x2="3100"
       y2="655.038"
       id="line2386" />
    <line
       style="fill: none; stroke: rgb(103, 200, 0); stroke-width: 15px;"
       x1="2721.286"
       y1="1136.881"
       x2="3049.687"
       y2="840.809"
       id="line2388" />
    <line
       style="fill: none; stroke: rgb(103, 200, 0); stroke-width: 15px;"
       x1="2943.823"
       y1="440.241"
       x2="3041.946"
       y2="840.809"
       id="line2390" />
    <line
       style="fill: none; stroke: rgb(103, 200, 0); stroke-width: 15px;"
       x1="2945.758"
       y1="446.046"
       x2="2200"
       y2="651.168"
       id="line2392" />
    <line
       style="fill: none; stroke: rgb(103, 200, 0); stroke-width: 15px;"
       x1="2941.888"
       y1="1038.19"
       x2="2200"
       y2="651.168"
       id="line2394" />
    <line
       style="fill: none; stroke: rgb(103, 200, 0); stroke-width: 15px;"
       x1="2951.563"
       y1="1036.255"
       x2="2772.793"
       y2="353.161"
       id="line2396" />
    <line
       style="fill: none; stroke: rgb(103, 200, 0); stroke-width: 15px;"
       x1="2266.534"
       y1="831.133"
       x2="2743.766"
       y2="355.096"
       id="line2398" />
    <line
       style="fill: none; stroke: rgb(103, 200, 0); stroke-width: 15px;"
       x1="2251.053"
       y1="831.133"
       x2="2347.069"
       y2="459.592"
       id="line2400" />
    <line
       style="fill: none; stroke: rgb(103, 200, 0); stroke-width: 15px;"
       x1="2539.384"
       y1="351.226"
       x2="2347.069"
       y2="459.592"
       id="line2402" />
    <g
       id="g2686">
      <rect
         width="100"
         height="100"
         style="fill:#ffffff;stroke:#326100;stroke-width:3px"
         id="rect2404"
         x="2400"
         y="1000" />
      <path
         d="m 2464.65,1066.11 v 7.55 h -31.64 v -7.55 h 12.69 v -27.73 l -8.33,3.64 h -0.26 l -1.82,-5.53 v -0.26 l 12.95,-7.88 h 6.05 v 37.76 z"
         style="fill:#000000"
         id="path2406" />
    </g>
    <g
       id="g2682">
      <rect
         width="100"
         height="100"
         style="fill:#ffffff;stroke:#326100;stroke-width:3px"
         x="2653.5571"
         id="rect2410"
         y="1100" />
      <path
         d="m 2711.1671,1149.97 q 3.32,1.75 5.18,4.72 1.86,2.96 1.86,6.54 0,3.97 -2.22,6.96 -2.21,3 -6.25,4.63 -4.03,1.62 -9.18,1.62 -3.77,0 -7.19,-0.91 -3.42,-0.91 -6.8,-2.8 v -8.4 h 0.26 q 6.77,4.69 13.41,4.69 4.16,0 6.64,-1.66 2.47,-1.66 2.47,-4.59 0,-3.19 -2.8,-5.17 -2.8,-1.99 -7.55,-1.99 h -2.73 v -7.16 h 2.73 q 4.43,0 6.97,-1.63 2.54,-1.62 2.54,-4.49 0,-2.54 -2.12,-3.91 -2.12,-1.36 -5.89,-1.36 -2.93,0 -5.89,0.91 -2.97,0.91 -6.48,2.86 h -0.26 v -8.07 q 6.18,-3.19 13.02,-3.19 7.42,0 11.88,3.22 4.46,3.23 4.46,8.76 0,3.25 -1.6,5.96 -1.59,2.7 -4.46,4.46 z"
         style="fill:#000000"
         id="path2412" />
    </g>
    <g
       id="g2678">
      <rect
         width="100"
         height="100"
         style="fill:#ffffff;stroke:#326100;stroke-width:3px"
         x="2900"
         y="1000"
         id="rect2416" />
      <path
         d="m 2964.65,1028.35 v 4.36 l -17.52,40.95 h -7.87 l -1.57,-0.26 16.93,-37.56 h -20.12 v -7.49 z"
         style="fill:#000000"
         id="path2418" />
    </g>
    <g
       id="g2670">
      <rect
         width="100"
         height="100"
         style="fill:#ffffff;stroke:#326100;stroke-width:3px"
         x="3050.3125"
         y="600"
         id="rect2422" />
      <path
         d="m 3094.7825,666.11 v 7.55 h -31.64 v -7.55 h 12.69 v -27.73 l -8.33,3.64 h -0.26 l -1.82,-5.53 v -0.26 l 12.95,-7.88 h 6.05 v 37.76 z m 39.95,-0.06 v 7.61 h -30.86 v -6.51 l 14.52,-15.23 q 3.58,-3.71 4.95,-6.19 1.36,-2.47 1.36,-4.75 0,-5.99 -7.42,-5.99 -3.06,0 -6.15,0.91 -3.09,0.92 -5.89,2.74 v -7.88 q 5.73,-3.19 12.43,-3.19 7.23,0 11.49,3.39 4.27,3.38 4.27,9.31 0,6.77 -6.12,13.54 l -11.13,12.24 z"
         style="fill:#000000"
         id="path2424" />
    </g>
    <g
       id="g2666">
      <rect
         width="100"
         height="100"
         style="fill:#ffffff;stroke:#326100;stroke-width:3px"
         x="2900"
         y="400"
         id="rect2428" />
      <path
         d="m 2944.47,466.11 v 7.55 h -31.64 v -7.55 h 12.69 v -27.73 l -8.33,3.64 h -0.26 l -1.82,-5.53 v -0.26 l 12.95,-7.88 h 6.05 v 37.76 z m 33.31,-16.14 q 3.32,1.75 5.17,4.72 1.86,2.96 1.86,6.54 0,3.97 -2.21,6.96 -2.22,3 -6.25,4.63 -4.04,1.62 -9.18,1.62 -3.78,0 -7.2,-0.91 -3.41,-0.91 -6.8,-2.8 v -8.4 h 0.26 q 6.77,4.69 13.41,4.69 4.17,0 6.64,-1.66 2.48,-1.66 2.48,-4.59 0,-3.19 -2.8,-5.17 -2.8,-1.99 -7.55,-1.99 h -2.74 v -7.16 h 2.74 q 4.42,0 6.96,-1.63 2.54,-1.62 2.54,-4.49 0,-2.54 -2.12,-3.91 -2.11,-1.36 -5.89,-1.36 -2.93,0 -5.89,0.91 -2.96,0.91 -6.48,2.86 h -0.26 v -8.07 q 6.19,-3.19 13.02,-3.19 7.42,0 11.88,3.22 4.46,3.23 4.46,8.76 0,3.25 -1.59,5.96 -1.6,2.7 -4.46,4.46 z"
         style="fill:#000000"
         id="path2430" />
    </g>
    <g
       id="g2662">
      <rect
         width="100"
         height="100"
         style="fill:#ffffff;stroke:#326100;stroke-width:3px"
         x="2700"
         y="300"
         id="rect2434" />
      <path
         d="m 2744.47,366.10999 v 7.55 h -31.64 v -7.55 h 12.69 v -27.73 l -8.33,3.64 h -0.26 l -1.82,-5.53 v -0.26 l 12.95,-7.88 h 6.05 v 37.76 z m 42.03,-2.34 h -6.25 v 9.89 h -8.59 v -9.89 h -20.31 v -6.71 l 20.31,-28.71 h 8.59 v 28.06 h 6.25 z m -14.84,-7.36 v -15.95 l -10.29,15.95 z"
         style="fill:#000000"
         id="path2436" />
    </g>
    <g
       id="g2674">
      <rect
         width="100"
         height="100"
         style="fill:#ffffff;stroke:#326100;stroke-width:3px"
         x="3000"
         y="800"
         id="rect2440" />
      <path
         d="m 3044.47,866.11 v 7.55 h -31.64 v -7.55 h 12.69 v -27.73 l -8.33,3.64 h -0.26 l -1.82,-5.53 v -0.26 l 12.95,-7.88 h 6.05 v 37.76 z m 24.52,8.33 q -9.18,0 -13.54,-6.41 -4.36,-6.41 -4.36,-17.02 0,-10.61 4.36,-17.03 4.36,-6.41 13.54,-6.41 9.18,0 13.54,6.41 4.36,6.42 4.36,17.03 0,10.61 -4.36,17.02 -4.36,6.41 -13.54,6.41 z m 0,-7.35 q 4.69,0 6.77,-4.43 2.08,-4.43 2.08,-11.65 0,-7.23 -2.08,-11.66 -2.08,-4.42 -6.77,-4.42 -4.69,0 -6.77,4.42 -2.08,4.43 -2.08,11.66 0,7.22 2.08,11.65 2.08,4.43 6.77,4.43 z"
         style="fill:#000000"
         id="path2442" />
    </g>
    <g
       id="g2654">
      <rect
         width="100"
         height="100"
         style="fill:#ffffff;stroke:#326100;stroke-width:3px"
         x="2300"
         y="400"
         id="rect2446" />
      <path
         d="m 2344.47,466.11 v 7.55 h -31.64 v -7.55 h 12.69 v -27.73 l -8.33,3.64 h -0.26 l -1.82,-5.53 v -0.26 l 12.95,-7.88 h 6.05 v 37.76 z m 24.59,8.33 q -5.08,0 -9.05,-1.69 -3.97,-1.69 -6.19,-4.75 -2.21,-3.06 -2.21,-6.9 0,-3.71 2.05,-6.64 2.05,-2.93 5.17,-4.1 -2.92,-0.98 -4.65,-3.91 -1.73,-2.93 -1.73,-6.38 0,-3.71 2.12,-6.57 2.12,-2.87 5.89,-4.4 3.78,-1.53 8.53,-1.53 4.82,0 8.56,1.53 3.74,1.53 5.86,4.36 2.12,2.83 2.12,6.55 0,3.45 -1.76,6.38 -1.76,2.92 -4.69,3.97 3.45,1.23 5.37,4.2 1.92,2.96 1.92,6.54 0,3.9 -2.21,6.93 -2.21,3.03 -6.15,4.72 -3.94,1.69 -8.95,1.69 z m -0.07,-27.79 q 3.71,0 5.76,-1.53 2.05,-1.53 2.05,-4.4 0,-2.86 -2.02,-4.43 -2.01,-1.56 -5.79,-1.56 -3.78,0 -5.79,1.56 -2.02,1.57 -2.02,4.43 0,2.87 2.02,4.4 2.01,1.53 5.79,1.53 z m 0,20.57 q 4.1,0 6.32,-1.76 2.21,-1.76 2.21,-4.88 0,-3.19 -2.21,-4.92 -2.22,-1.72 -6.32,-1.72 -4.04,0 -6.28,1.72 -2.25,1.73 -2.25,4.92 0,3.19 2.22,4.91 2.21,1.73 6.31,1.73 z"
         style="fill:#000000"
         id="path2448" />
    </g>
    <g
       id="g2694">
      <rect
         width="100"
         height="100"
         style="fill:#ffffff;stroke:#326100;stroke-width:3px"
         y="600"
         id="rect2452"
         x="2147.752" />
      <path
         d="m 2192.222,666.11 v 7.55 h -31.64 v -7.55 h 12.69 v -27.73 l -8.33,3.64 h -0.26 l -1.82,-5.53 v -0.26 l 12.95,-7.88 h 6.05 v 37.76 z m 25.82,-21.55 q 4.69,0 8.27,1.86 3.58,1.85 5.53,5.21 1.96,3.35 1.96,7.64 0,4.5 -2.12,7.95 -2.11,3.45 -5.89,5.34 -3.78,1.88 -8.53,1.88 -8.46,0 -13.02,-5.86 -4.56,-5.85 -4.56,-16.4 0,-7.62 2.35,-13.15 2.34,-5.53 6.7,-8.5 4.36,-2.96 10.35,-2.96 6.84,0 12.7,3.65 v 7.87 h -0.26 q -2.74,-2.08 -5.93,-3.15 -3.19,-1.08 -5.92,-1.08 -4.49,0 -7.19,3.16 -2.71,3.16 -3.42,9.15 2.02,-1.37 4.2,-1.99 2.18,-0.62 4.78,-0.62 z m -0.91,22.59 q 3.32,0 5.5,-2.15 2.18,-2.14 2.18,-5.59 0,-3.26 -1.98,-5.38 -1.99,-2.11 -5.57,-2.11 -3.97,0 -8.46,2.6 0.32,6.19 2.41,9.41 2.08,3.22 5.92,3.22 z"
         style="fill:#000000"
         id="path2454" />
    </g>
    <g
       id="g2658">
      <rect
         width="100"
         height="100"
         style="fill:#cccccc;stroke:#326100;stroke-width:3px"
         y="300"
         id="rect2458"
         x="2500" />
      <path
         d="m 2544.08,366.05 v 7.61 h -30.86 v -6.51 l 14.52,-15.23 q 3.58,-3.71 4.94,-6.19 1.37,-2.47 1.37,-4.75 0,-5.99 -7.42,-5.99 -3.06,0 -6.15,0.91 -3.1,0.92 -5.9,2.74 v -7.88 q 5.73,-3.19 12.44,-3.19 7.23,0 11.49,3.39 4.26,3.38 4.26,9.31 0,6.77 -6.12,13.54 l -11.13,12.24 z m 40.73,0.06 v 7.55 h -31.64 v -7.55 h 12.7 v -27.73 l -8.34,3.64 h -0.26 l -1.82,-5.53 v -0.26 l 12.95,-7.88 h 6.06 v 37.76 z"
         id="path2460"
         style="fill:#000000" />
    </g>
    <g
       id="g2690">
      <rect
         width="100"
         height="100"
         style="fill:#ffffff;stroke:#326100;stroke-width:3px"
         y="800"
         x="2200"
         id="rect2464" />
      <path
         d="m 2244.08,866.05 v 7.61 h -30.86 v -6.51 l 14.52,-15.23 q 3.58,-3.71 4.94,-6.19 1.37,-2.47 1.37,-4.75 0,-5.99 -7.42,-5.99 -3.06,0 -6.15,0.91 -3.1,0.92 -5.9,2.74 v -7.88 q 5.73,-3.19 12.44,-3.19 7.23,0 11.49,3.39 4.26,3.38 4.26,9.31 0,6.77 -6.12,13.54 l -11.13,12.24 z m 26.47,-20.84 q 4.36,0 7.75,1.89 3.38,1.89 5.27,5.21 1.89,3.32 1.89,7.42 0,4.43 -2.21,7.75 -2.22,3.32 -6.25,5.11 -4.04,1.79 -9.38,1.79 -4.1,0 -8.07,-1.08 -3.97,-1.07 -7.03,-3.09 v -8.33 h 0.26 q 2.93,2.28 7.03,3.71 4.1,1.43 7.62,1.43 4.16,0 6.7,-2.05 2.54,-2.05 2.54,-5.37 0,-3.12 -2.18,-5.08 -2.18,-1.95 -5.69,-1.95 -4.69,0 -8.92,3.45 h -0.26 l -5.67,-1.76 v -0.32 l 2.93,-25.59 h 26.43 v 7.49 h -19.27 l -1.23,11.07 q 3.71,-1.7 7.74,-1.7 z"
         style="fill:#000000"
         id="path2466" />
    </g>
  </g>
</svg>
