<?xml version="1.0" encoding="UTF-8" standalone="no"?>
<svg
   width="161.16888"
   height="150.76492"
   viewBox="-245.745 270.19 202.76894 2153.446"
   version="1.1"
   id="svg350"
   sodipodi:docname="2026-NL-01_flowchart.svg"
   inkscape:version="1.2.2 (732a01da63, 2022-12-09)"
   xmlns:inkscape="http://www.inkscape.org/namespaces/inkscape"
   xmlns:sodipodi="http://sodipodi.sourceforge.net/DTD/sodipodi-0.dtd"
   xmlns="http://www.w3.org/2000/svg"
   xmlns:svg="http://www.w3.org/2000/svg"
   xmlns:bx="https://boxy-svg.com">
  <sodipodi:namedview
     id="namedview352"
     pagecolor="#ffffff"
     bordercolor="#000000"
     borderopacity="0.25"
     inkscape:showpageshadow="2"
     inkscape:pageopacity="0.0"
     inkscape:pagecheckerboard="0"
     inkscape:deskcolor="#d1d1d1"
     showgrid="false"
     inkscape:zoom="3.048405"
     inkscape:cx="64.787979"
     inkscape:cy="31.655899"
     inkscape:window-width="1440"
     inkscape:window-height="830"
     inkscape:window-x="-6"
     inkscape:window-y="-6"
     inkscape:window-maximized="1"
     inkscape:current-layer="svg350" />
  <defs
     id="defs4">
    <style
       id="style2">@import url(https://fonts.googleapis.com/css2?family=Amiko%3Aital%2Cwght%400%2C400%3B0%2C600%3B0%2C700&amp;display=swap);</style>
    <bx:export>
      <bx:file
         format="png"
         path="2026-NL-01_flowchart.png" />
    </bx:export>
  </defs>
  <g
     id="g812">
    <path
       d="m -12791.592,123.87874 -17.098,17.09784 -17.084,-17.0837 -34.174,-34.174472 17.097,-17.097842 34.175,34.174474 74.444,-76.226114 17.091,17.090771 z"
       style="fill:#7dff00;stroke-width:1"
       id="path290" />
    <path
       style="fill:none;stroke:#000000;stroke-width:20px"
       d="M 95.451368,1773.7409 -489.76163,586.40779 m 722.752,1533.51511 -12.31,-748.194 18.604,-790.93411 -528.261,-110.874 -203.476,119.93 -148.884,180.771 -50.626,200.61206"
       id="path6" />
    <polyline
       style="fill:none;stroke:#326100;stroke-width:20px;stroke-miterlimit:1"
       points="654.147 351.082 1167.803 458.349"
       id="polyline8"
       transform="translate(-941.33653,119.92279)" />
    <polyline
       style="fill:#37c837;fill-opacity:1;stroke:#326100;stroke-width:20px;stroke-miterlimit:1"
       points="1665.24 660.188 1663.65 1356.53 1669.99 1935.882"
       id="polyline10"
       transform="translate(-941.33653,119.92279)" />
    <polyline
       style="fill:none;stroke:#000000;stroke-width:20px;stroke-miterlimit:6.44"
       points="449.98 1053.248 445.577 855.72 549.19 646.29"
       id="polyline12"
       transform="translate(-941.33653,119.92279)" />
    <polyline
       style="fill:none;stroke:#000000;stroke-width:20px"
       points="1375.04 1242.16 1376.63 850.674 1175.24 641.353"
       id="polyline14"
       transform="translate(-941.33653,119.92279)" />
    <polyline
       style="fill:none;stroke:#326100;stroke-width:20px;stroke-miterlimit:1"
       points="1665.24 660.188 1468.6 541.45 1169.41 467.436"
       id="polyline16"
       transform="translate(-941.33653,119.92279)" />
    <line
       style="fill:none;stroke:#000000;stroke-width:20px"
       x1="-90.434494"
       y1="1782.4716"
       x2="-0.13176088"
       y2="1563.0605"
       id="line18" />
    <line
       style="fill:none;stroke:#000000;stroke-width:20px"
       x1="-441.33682"
       y1="2119.9231"
       x2="-441.33682"
       y2="1369.5596"
       id="line20" />
    <line
       style="fill:none;stroke:#000000;stroke-width:20px;stroke-miterlimit:5.63"
       x1="425.78326"
       y1="2109.6631"
       x2="425.78326"
       y2="1766.6526"
       id="line22" />
    <line
       style="fill:none;stroke:#000000;stroke-width:20px"
       x1="-289.75089"
       y1="1579.2856"
       x2="-276.85245"
       y2="1698.5186"
       id="line24" />
    <line
       style="fill:none;stroke:#000000;stroke-width:20px"
       x1="-84.62883"
       y1="1761.1855"
       x2="-89.146408"
       y2="2219.9231"
       id="line26" />
    <line
       style="fill:none;stroke:#000000;stroke-width:20px"
       x1="58.663177"
       y1="1765.0557"
       x2="58.663177"
       y2="2219.9231"
       id="line28" />
    <line
       style="fill:none;stroke:#000000;stroke-width:20px;stroke-miterlimit:5.63"
       x1="235.48347"
       y1="1566.8427"
       x2="425.78326"
       y2="1766.6526"
       id="line30" />
    <line
       style="fill:none;stroke:#000000;stroke-width:20px"
       x1="-1116.1123"
       y1="1919.9229"
       x2="-506.78214"
       y2="985.56366"
       id="line32" />
    <line
       style="fill:none;stroke:#000000;stroke-width:20px"
       x1="-645.04089"
       y1="1167.7327"
       x2="-585.54675"
       y2="1746.8086"
       id="line34" />
    <line
       style="fill:none;stroke:#000000;stroke-width:20px"
       x1="-485.70596"
       y1="1167.0946"
       x2="-441.33682"
       y2="1369.5596"
       id="line36" />
    <line
       style="fill:none;stroke:#000000;stroke-width:20px"
       x1="-289.75089"
       y1="1579.2856"
       x2="-441.33682"
       y2="1371.4846"
       id="line38" />
    <g
       id="g2826">
      <rect
         width="100"
         height="100"
         style="fill:#ffffff;stroke:#326100;stroke-width:3px"
         id="rect40"
         x="679.56567"
         y="1819.9229" />
      <path
         d="m 744.21567,1886.0329 v 7.55 h -31.64 v -7.55 h 12.69 v -27.73 l -8.33,3.64 h -0.26 l -1.82,-5.53 v -0.26 l 12.95,-7.88 h 6.05 v 37.76 z"
         style="fill:#000000"
         id="path42" />
    </g>
    <g
       id="g2818">
      <rect
         width="100"
         height="100"
         style="fill:#ffffff;stroke:#326100;stroke-width:3px"
         x="679.56567"
         id="rect46"
         y="1489.0566" />
      <path
         d="m 737.17567,1539.0266 q 3.32,1.75 5.18,4.72 1.86,2.96 1.86,6.54 0,3.97 -2.22,6.96 -2.21,3 -6.25,4.63 -4.03,1.62 -9.18,1.62 -3.77,0 -7.19,-0.91 -3.42,-0.91 -6.8,-2.8 v -8.4 h 0.26 q 6.77,4.69 13.41,4.69 4.16,0 6.64,-1.66 2.47,-1.66 2.47,-4.59 0,-3.19 -2.8,-5.17 -2.8,-1.99 -7.55,-1.99 h -2.73 v -7.16 h 2.73 q 4.43,0 6.97,-1.63 2.54,-1.62 2.54,-4.49 0,-2.54 -2.12,-3.91 -2.12,-1.36 -5.89,-1.36 -2.93,0 -5.89,0.91 -2.97,0.91 -6.48,2.86 h -0.26 v -8.07 q 6.18,-3.19 13.02,-3.19 7.42,0 11.88,3.22 4.46,3.23 4.46,8.76 0,3.25 -1.6,5.96 -1.59,2.7 -4.46,4.46 z"
         style="fill:#000000"
         id="path48" />
    </g>
    <g
       id="g2802">
      <rect
         width="100"
         height="100"
         style="fill:#ffffff;stroke:#326100;stroke-width:3px"
         x="679.56567"
         y="870.95691"
         id="rect52" />
      <path
         d="m 744.21567,899.30691 v 4.36 l -17.52,40.95 h -7.87 l -1.57,-0.26 16.93,-37.56 h -20.12 v -7.49 z"
         style="fill:#000000"
         id="path54" />
    </g>
    <g
       id="g2822">
      <rect
         width="100"
         height="100"
         style="fill:#ffffff;stroke:#326100;stroke-width:3px"
         x="679.56567"
         y="1644.5492"
         id="rect58" />
      <path
         d="m 724.03567,1710.6592 v 7.55 h -31.64 v -7.55 h 12.69 v -27.73 l -8.33,3.64 h -0.26 l -1.82,-5.53 v -0.26 l 12.95,-7.88 h 6.05 v 37.76 z m 39.95,-0.06 v 7.61 h -30.86 v -6.51 l 14.52,-15.23 q 3.58,-3.71 4.95,-6.19 1.36,-2.47 1.36,-4.75 0,-5.99 -7.42,-5.99 -3.06,0 -6.15,0.91 -3.09,0.92 -5.89,2.74 v -7.88 q 5.73,-3.19 12.43,-3.19 7.23,0 11.49,3.39 4.27,3.38 4.27,9.31 0,6.77 -6.12,13.54 l -11.13,12.24 z"
         style="fill:#000000"
         id="path60" />
    </g>
    <g
       id="g2810">
      <rect
         width="100"
         height="100"
         style="fill:#ffffff;stroke:#326100;stroke-width:3px"
         x="679.56567"
         y="1180.0068"
         id="rect64" />
      <path
         d="m 724.03567,1246.1168 v 7.5501 h -31.64 v -7.5501 h 12.69 v -27.7299 l -8.33,3.64 h -0.26 l -1.82,-5.53 v -0.26 l 12.95,-7.88 h 6.05 v 37.7599 z m 33.31,-16.1399 q 3.32,1.75 5.17,4.72 1.86,2.96 1.86,6.54 0,3.97 -2.21,6.96 -2.22,3 -6.25,4.63 -4.04,1.62 -9.18,1.62 -3.78,0 -7.2,-0.91 -3.41,-0.9101 -6.8,-2.8 v -8.4 h 0.26 q 6.77,4.69 13.41,4.69 4.17,0 6.64,-1.6601 2.48,-1.6599 2.48,-4.5899 0,-3.19 -2.8,-5.1701 -2.8,-1.99 -7.55,-1.99 h -2.74 v -7.1599 h 2.74 q 4.42,0 6.96,-1.63 2.54,-1.62 2.54,-4.49 0,-2.54 -2.12,-3.91 -2.11,-1.36 -5.89,-1.36 -2.93,0 -5.89,0.91 -2.96,0.9099 -6.48,2.86 h -0.26 v -8.07 q 6.19,-3.19 13.02,-3.19 7.42,0 11.88,3.22 4.46,3.23 4.46,8.76 0,3.25 -1.59,5.96 -1.6,2.7 -4.46,4.46 z"
         style="fill:#000000"
         id="path66" />
    </g>
    <g
       id="g2798">
      <rect
         width="100"
         height="100"
         style="fill:#ffffff;stroke:#326100;stroke-width:3px"
         x="679.56567"
         y="709.65912"
         id="rect70" />
      <path
         d="m 724.03567,775.76912 v 7.55 h -31.64 v -7.55 h 12.69 v -27.73 l -8.33,3.64 h -0.26 l -1.82,-5.53 v -0.26 l 12.95,-7.88 h 6.05 v 37.76 z m 42.03,-2.34 h -6.25 v 9.89 h -8.59 v -9.89 h -20.31 v -6.71 l 20.31,-28.71 h 8.59 v 28.06 h 6.25 z m -14.84,-7.36 v -15.95 l -10.29,15.95 z"
         style="fill:#000000"
         id="path72" />
    </g>
    <g
       id="g2814">
      <rect
         width="100"
         height="100"
         style="fill:#ffffff;stroke:#326100;stroke-width:3px"
         x="679.56586"
         y="1343.2397"
         id="rect76" />
      <path
         d="m 724.03587,1409.3497 v 7.55 h -31.64 v -7.55 h 12.69 v -27.73 l -8.33,3.64 h -0.26 l -1.82,-5.53 v -0.26 l 12.95,-7.88 h 6.05 v 37.76 z m 24.52,8.33 q -9.18,0 -13.54,-6.41 -4.36,-6.41 -4.36,-17.02 0,-10.61 4.36,-17.03 4.36,-6.41 13.54,-6.41 9.18,0 13.54,6.41 4.36,6.42 4.36,17.03 0,10.61 -4.36,17.02 -4.36,6.41 -13.54,6.41 z m 0,-7.35 q 4.69,0 6.77,-4.43 2.08,-4.43 2.08,-11.65 0,-7.23 -2.08,-11.66 -2.08,-4.42 -6.77,-4.42 -4.69,0 -6.77,4.42 -2.08,4.43 -2.08,11.66 0,7.22 2.08,11.65 2.08,4.43 6.77,4.43 z"
         style="fill:#000000"
         id="path78" />
    </g>
    <g
       id="g2746">
      <rect
         width="100"
         height="100"
         style="fill:#ffffff;stroke:#326100;stroke-width:3px"
         x="179.56587"
         y="536.60358"
         id="rect82" />
      <path
         d="m 224.03587,602.7136 v 7.55 h -31.64 v -7.55 h 12.69 v -27.73 l -8.33,3.64 h -0.26 l -1.82,-5.53 v -0.26 l 12.95,-7.88 h 6.05 v 37.76 z m 24.59,8.33 q -5.08,0 -9.05,-1.69 -3.97,-1.69 -6.19,-4.75 -2.21,-3.06 -2.21,-6.9 0,-3.71 2.05,-6.64 2.05,-2.93 5.17,-4.1 -2.92,-0.98 -4.65,-3.91 -1.73,-2.93 -1.73,-6.38 0,-3.71 2.12,-6.57 2.12,-2.87 5.89,-4.4 3.78,-1.53 8.53,-1.53 4.82,0 8.56,1.53 3.74,1.53 5.86,4.36 2.12,2.83 2.12,6.55 0,3.45 -1.76,6.38 -1.76,2.92 -4.69,3.97 3.45,1.23 5.37,4.2 1.92,2.96 1.92,6.54 0,3.9 -2.21,6.93 -2.21,3.03 -6.15,4.72 -3.94,1.69 -8.95,1.69 z m -0.07,-27.79 q 3.71,0 5.76,-1.53 2.05,-1.53 2.05,-4.4 0,-2.86 -2.02,-4.43 -2.01,-1.56 -5.79,-1.56 -3.78,0 -5.79,1.56 -2.02,1.57 -2.02,4.43 0,2.87 2.02,4.4 2.01,1.53 5.79,1.53 z m 0,20.57 q 4.1,0 6.32,-1.76 2.21,-1.76 2.21,-4.88 0,-3.19 -2.21,-4.92 -2.22,-1.72 -6.32,-1.72 -4.04,0 -6.28,1.72 -2.25,1.73 -2.25,4.92 0,3.19 2.22,4.91 2.21,1.73 6.31,1.73 z"
         style="fill:#000000"
         id="path84" />
    </g>
    <g
       id="g2806">
      <rect
         width="100"
         height="100"
         style="fill:#ffffff;stroke:#326100;stroke-width:3px"
         y="1019.9228"
         id="rect88"
         x="679.56567" />
      <path
         d="m 724.03567,1086.0328 v 7.55 h -31.64 v -7.55 h 12.69 v -27.73 l -8.33,3.64 h -0.26 l -1.82,-5.53 v -0.26 l 12.95,-7.88 h 6.05 v 37.76 z m 25.82,-21.55 q 4.69,0 8.27,1.86 3.58,1.85 5.53,5.21 1.96,3.35 1.96,7.64 0,4.5 -2.12,7.95 -2.11,3.45 -5.89,5.34 -3.78,1.88 -8.53,1.88 -8.46,0 -13.02,-5.86 -4.56,-5.85 -4.56,-16.4 0,-7.62 2.35,-13.15 2.34,-5.53 6.7,-8.5 4.36,-2.96 10.35,-2.96 6.84,0 12.7,3.65 v 7.87 h -0.26 q -2.74,-2.08 -5.93,-3.15 -3.19,-1.08 -5.92,-1.08 -4.49,0 -7.19,3.16 -2.71,3.16 -3.42,9.15 2.02,-1.37 4.2,-1.99 2.18,-0.62 4.78,-0.62 z m -0.91,22.59 q 3.32,0 5.5,-2.15 2.18,-2.14 2.18,-5.59 0,-3.26 -1.98,-5.38 -1.99,-2.11 -5.57,-2.11 -3.97,0 -8.46,2.6 0.32,6.19 2.41,9.41 2.08,3.22 5.92,3.22 z"
         style="fill:#000000"
         id="path90" />
    </g>
    <g
       id="g2786">
      <rect
         width="100"
         height="100"
         style="fill:#ffffff;stroke:#326100;stroke-width:3px"
         y="1109.6592"
         x="379.56586"
         id="rect94" />
      <path
         d="m 423.64587,1175.7091 v 7.61 h -30.86 v -6.51 l 14.52,-15.23 q 3.58,-3.71 4.94,-6.19 1.37,-2.47 1.37,-4.75 0,-5.99 -7.42,-5.99 -3.06,0 -6.15,0.91 -3.1,0.92 -5.9,2.74 v -7.88 q 5.73,-3.19 12.44,-3.19 7.23,0 11.49,3.39 4.26,3.38 4.26,9.31 0,6.77 -6.12,13.54 l -11.13,12.24 z m 26.47,-20.84 q 4.36,0 7.75,1.89 3.38,1.89 5.27,5.21 1.89,3.32 1.89,7.42 0,4.43 -2.21,7.75 -2.22,3.32 -6.25,5.11 -4.04,1.79 -9.38,1.79 -4.1,0 -8.07,-1.08 -3.97,-1.07 -7.03,-3.09 v -8.33 h 0.26 q 2.93,2.28 7.03,3.71 4.1,1.43 7.62,1.43 4.16,0 6.7,-2.05 2.54,-2.05 2.54,-5.37 0,-3.12 -2.18,-5.08 -2.18,-1.95 -5.69,-1.95 -4.69,0 -8.92,3.45 h -0.26 l -5.67,-1.76 v -0.32 l 2.93,-25.59 h 26.43 v 7.49 h -19.27 l -1.23,11.07 q 3.71,-1.7 7.74,-1.7 z"
         style="fill:#000000"
         id="path96" />
    </g>
    <g
       id="g637">
      <rect
         width="100"
         height="100"
         style="fill:#b3b3b3;stroke:#326100;stroke-width:3px"
         y="419.92279"
         id="rect100"
         x="-341.33664" />
      <path
         d="m -297.25663,485.97278 v 7.61 h -30.86 v -6.51 l 14.52,-15.23 q 3.58,-3.71 4.94,-6.19 1.37,-2.47 1.37,-4.75 0,-5.99 -7.42,-5.99 -3.06,0 -6.15,0.91 -3.1,0.92001 -5.9,2.74001 v -7.88 q 5.73,-3.19 12.44,-3.19 7.23,0 11.49,3.38999 4.26,3.38 4.26,9.31001 0,6.76999 -6.12,13.54 l -11.13,12.24 z m 40.73,0.06 v 7.55 h -31.64 v -7.55 h 12.7 v -27.73 l -8.34,3.64 h -0.26 l -1.82,-5.53 v -0.26 l 12.95,-7.88 h 6.06 v 37.76 z"
         id="path102"
         style="fill:#000000" />
    </g>
    <g
       id="g2698">
      <rect
         width="100"
         height="100"
         style="fill:#ffffff;stroke:#326100;stroke-width:3px"
         x="-541.33661"
         y="549.99005"
         id="rect106" />
      <path
         d="m -496.86663,616.10005 v 7.55 h -31.64 v -7.55 h 12.69 v -27.73 l -8.33,3.64 h -0.26 l -1.82,-5.53 v -0.26 l 12.95,-7.88 h 6.05 v 37.76 z m 39.95,-0.06 v 7.61 h -30.86 v -6.51 l 14.52,-15.23 q 3.58,-3.71 4.95,-6.19 1.36,-2.47 1.36,-4.75 0,-5.99 -7.42,-5.99 -3.06,0 -6.15,0.91 -3.09,0.92 -5.89,2.74 v -7.88 q 5.73,-3.19 12.43,-3.19 7.23,0 11.49,3.39 4.27,3.38 4.27,9.31 0,6.77 -6.12,13.54 l -11.13,12.24 z"
         style="fill:#000000"
         id="path108" />
    </g>
    <g
       id="g2694">
      <rect
         width="100"
         height="100"
         style="fill:#ffffff;stroke:#326100;stroke-width:3px"
         id="rect112"
         x="-694.61182"
         y="719.92279" />
      <path
         d="m -629.96183,786.03279 v 7.55 h -31.64 v -7.55 h 12.69 v -27.73 l -8.33,3.64 h -0.26 l -1.82,-5.53 v -0.26 l 12.95,-7.88 h 6.05 v 37.76 z"
         style="fill:#000000"
         id="path114" />
    </g>
    <path
       d="m -401.61287,2203.6164 -14.143,14.1428 -28.28396,-28.2843 -28.284,28.2836 -14.143,-14.1428 28.284,-28.2836 -28.284,-28.2836 14.143,-14.1428 28.284,28.2836 28.28396,-28.2843 14.143,14.1428 -28.28496,28.2843 z"
       bx:shape="cross -45.047 456.367 100 100 20.001 20.001 0.5 1@1eef54fe"
       style="fill:#ff0000"
       id="path118" />
    <g
       id="g2690">
      <rect
         width="100"
         height="100"
         style="fill:#ffffff;stroke:#326100;stroke-width:3px"
         x="-441.33652"
         id="rect120"
         y="719.92279" />
      <path
         d="m -383.72653,769.89279 q 3.32,1.75 5.18,4.72 1.86,2.96 1.86,6.54 0,3.97 -2.22,6.96 -2.21,3 -6.25,4.63 -4.03,1.62 -9.18,1.62 -3.77,0 -7.19,-0.91 -3.42,-0.91 -6.8,-2.8 v -8.4 h 0.26 q 6.77,4.69 13.41,4.69 4.16,0 6.64,-1.66 2.47,-1.66 2.47,-4.59 0,-3.19 -2.8,-5.17 -2.8,-1.99 -7.55,-1.99 h -2.73 v -7.16 h 2.73 q 4.43,0 6.97,-1.63 2.54,-1.62 2.54,-4.49 0,-2.54 -2.12,-3.91 -2.12,-1.36 -5.89,-1.36 -2.93,0 -5.89,0.91 -2.97,0.91 -6.48,2.86 h -0.26 v -8.07 q 6.18,-3.19 13.02,-3.19 7.42,0 11.88,3.22 4.46,3.23 4.46,8.76 0,3.25 -1.6,5.96 -1.59,2.7 -4.46,4.46 z"
         style="fill:#000000"
         id="path122" />
    </g>
    <g
       id="g2706">
      <rect
         width="100"
         height="100"
         style="fill:#ffffff;stroke:#326100;stroke-width:3px"
         x="-341.33652"
         y="919.92273"
         id="rect126" />
      <path
         d="m -296.86653,986.03276 v 7.55 h -31.64 v -7.55 h 12.69 v -27.73 l -8.33,3.64 h -0.26 l -1.82,-5.53 v -0.26 l 12.95,-7.88 h 6.05 v 37.76 z m 24.52,8.33 q -9.18,0 -13.54,-6.41 -4.36,-6.41 -4.36,-17.02 0,-10.61 4.36,-17.03 4.36,-6.41 13.54,-6.41 9.18,0 13.54,6.41 4.36,6.42 4.36,17.03 0,10.61 -4.36,17.02 -4.36,6.41 -13.54,6.41 z m 0,-7.35 q 4.69,0 6.77,-4.43 2.08,-4.43 2.08,-11.65 0,-7.23 -2.08,-11.66 -2.08,-4.42 -6.77,-4.42 -4.69,0 -6.77,4.42 -2.08,4.43 -2.08,11.66 0,7.22 2.08,11.65 2.08,4.43 6.77,4.43 z"
         style="fill:#000000"
         id="path128" />
    </g>
    <rect
       width="100"
       height="100"
       style="fill:#ffffff;stroke:#326100;stroke-width:3px"
       x="-541.33655"
       y="919.92279"
       id="rect132" />
    <path
       d="m -496.86653,986.03279 v 7.55 h -31.64 v -7.55 h 12.69 v -27.73 l -8.33,3.64 h -0.26 l -1.82,-5.53 v -0.26 l 12.95,-7.88 h 6.05 v 37.76 z m 42.03,-2.34 h -6.25 v 9.89 h -8.59 v -9.89 h -20.31 v -6.71 l 20.31,-28.71 h 8.59 v 28.06 h 6.25 z m -14.84,-7.36 v -15.95 l -10.29,15.95 z"
       style="fill:#000000"
       id="path134" />
    <g
       id="g2649">
      <rect
         width="100"
         height="100"
         style="fill:#ffffff;stroke:#326100;stroke-width:3px"
         x="-690.93854"
         y="1119.9229"
         id="rect138" />
      <path
         d="m -626.28853,1148.2729 v 4.36 l -17.52,40.95 h -7.87 l -1.57,-0.26 16.93,-37.56 h -20.12 v -7.49 z"
         style="fill:#000000"
         id="path140" />
    </g>
    <g
       id="g2686">
      <rect
         width="100"
         height="100"
         style="fill:#ffffff;stroke:#326100;stroke-width:3px"
         y="1119.9227"
         x="-541.33655"
         id="rect144" />
      <path
         d="m -497.25653,1185.9728 v 7.61 h -30.86 v -6.51 l 14.52,-15.23 q 3.58,-3.71 4.94,-6.19 1.37,-2.47 1.37,-4.75 0,-5.99 -7.42,-5.99 -3.06,0 -6.15,0.91 -3.1,0.92 -5.9,2.74 v -7.88 q 5.73,-3.19 12.44,-3.19 7.23,0 11.49,3.39 4.26,3.38 4.26,9.31 0,6.77 -6.12,13.54 l -11.13,12.24 z m 26.47,-20.84 q 4.36,0 7.75,1.89 3.38,1.89 5.27,5.21 1.89,3.32 1.89,7.42 0,4.43 -2.21,7.75 -2.22,3.32 -6.25,5.11 -4.04,1.79 -9.38,1.79 -4.1,0 -8.07,-1.08 -3.97,-1.07 -7.03,-3.09 v -8.33 h 0.26 q 2.93,2.28 7.03,3.71 4.1,1.43 7.62,1.43 4.16,0 6.7,-2.05 2.54,-2.05 2.54,-5.37 0,-3.12 -2.18,-5.08 -2.18,-1.95 -5.69,-1.95 -4.69,0 -8.92,3.45 h -0.26 l -5.67,-1.76 v -0.32 l 2.93,-25.59 h 26.43 v 7.49 h -19.27 l -1.23,11.07 q 3.71,-1.7 7.74,-1.7 z"
         style="fill:#000000"
         id="path146" />
    </g>
    <g
       id="g2645">
      <rect
         width="100"
         height="100"
         style="fill:#ffffff;stroke:#326100;stroke-width:3px"
         y="1319.9229"
         id="rect150"
         x="-817.53851" />
      <path
         d="m -773.06853,1386.0329 v 7.55 h -31.64 v -7.55 h 12.69 v -27.73 l -8.33,3.64 h -0.26 l -1.82,-5.53 v -0.26 l 12.95,-7.88 h 6.05 v 37.76 z m 25.82,-21.55 q 4.69,0 8.27,1.86 3.58,1.85 5.53,5.21 1.96,3.35 1.96,7.64 0,4.5 -2.12,7.95 -2.11,3.45 -5.89,5.34 -3.78,1.88 -8.53,1.88 -8.46,0 -13.02,-5.86 -4.56,-5.85 -4.56,-16.4 0,-7.62 2.35,-13.15 2.34,-5.53 6.7,-8.5 4.36,-2.96 10.35,-2.96 6.84,0 12.7,3.65 v 7.87 h -0.26 q -2.74,-2.08 -5.93,-3.15 -3.19,-1.08 -5.92,-1.08 -4.49,0 -7.19,3.16 -2.71,3.16 -3.42,9.15 2.02,-1.37 4.2,-1.99 2.18,-0.62 4.78,-0.62 z m -0.91,22.59 q 3.32,0 5.5,-2.15 2.18,-2.14 2.18,-5.59 0,-3.26 -1.98,-5.38 -1.99,-2.11 -5.57,-2.11 -3.97,0 -8.46,2.6 0.32,6.19 2.41,9.41 2.08,3.22 5.92,3.22 z"
         style="fill:#000000"
         id="path152" />
    </g>
    <g
       id="g2653"
       transform="translate(-19.879125,0.82829687)">
      <rect
         width="100"
         height="100"
         style="fill:#ffffff;stroke:#326100;stroke-width:3px"
         x="-641.33655"
         y="1319.9229"
         id="rect156" />
      <path
         d="m -596.86653,1386.0329 v 7.55 h -31.64 v -7.55 h 12.69 v -27.73 l -8.33,3.64 h -0.26 l -1.82,-5.53 v -0.26 l 12.95,-7.88 h 6.05 v 37.76 z m 24.59,8.33 q -5.08,0 -9.05,-1.69 -3.97,-1.69 -6.19,-4.75 -2.21,-3.06 -2.21,-6.9 0,-3.71 2.05,-6.64 2.05,-2.93 5.17,-4.1 -2.92,-0.98 -4.65,-3.91 -1.73,-2.93 -1.73,-6.38 0,-3.71 2.12,-6.57 2.12,-2.87 5.89,-4.4 3.78,-1.53 8.53,-1.53 4.82,0 8.56,1.53 3.74,1.53 5.86,4.36 2.12,2.83 2.12,6.55 0,3.45 -1.76,6.38 -1.76,2.92 -4.69,3.97 3.45,1.23 5.37,4.2 1.92,2.96 1.92,6.54 0,3.9 -2.21,6.93 -2.21,3.03 -6.15,4.72 -3.94,1.69 -8.95,1.69 z m -0.07,-27.79 q 3.71,0 5.76,-1.53 2.05,-1.53 2.05,-4.4 0,-2.86 -2.02,-4.43 -2.01,-1.56 -5.79,-1.56 -3.78,0 -5.79,1.56 -2.02,1.57 -2.02,4.43 0,2.87 2.02,4.4 2.01,1.53 5.79,1.53 z m 0,20.57 q 4.1,0 6.32,-1.76 2.21,-1.76 2.21,-4.88 0,-3.19 -2.21,-4.92 -2.22,-1.72 -6.32,-1.72 -4.04,0 -6.28,1.72 -2.25,1.73 -2.25,4.92 0,3.19 2.22,4.91 2.21,1.73 6.31,1.73 z"
         style="fill:#000000"
         id="path158" />
    </g>
    <g
       id="g2641">
      <rect
         width="100"
         height="100"
         style="fill:#ffffff;stroke:#326100;stroke-width:3px"
         x="-941.33649"
         y="1519.9229"
         id="rect162" />
      <path
         d="m -896.8665,1586.0329 v 7.55 h -31.64 v -7.55 h 12.69 v -27.73 l -8.33,3.64 h -0.26 l -1.82,-5.53 v -0.26 l 12.95,-7.88 h 6.05 v 37.76 z m 33.31,-16.14 q 3.32,1.75 5.17,4.72 1.86,2.96 1.86,6.54 0,3.97 -2.21,6.96 -2.22,3 -6.25,4.63 -4.04,1.62 -9.18,1.62 -3.78,0 -7.2,-0.91 -3.41,-0.91 -6.8,-2.8 v -8.4 h 0.26 q 6.77,4.69 13.41,4.69 4.17,0 6.64,-1.66 2.48,-1.66 2.48,-4.59 0,-3.19 -2.8,-5.17 -2.8,-1.99 -7.55,-1.99 h -2.74 v -7.16 h 2.74 q 4.42,0 6.96,-1.63 2.54,-1.62 2.54,-4.49 0,-2.54 -2.12,-3.91 -2.11,-1.36 -5.89,-1.36 -2.93,0 -5.89,0.91 -2.96,0.91 -6.48,2.86 h -0.26 v -8.07 q 6.19,-3.19 13.02,-3.19 7.42,0 11.88,3.22 4.46,3.23 4.46,8.76 0,3.25 -1.59,5.96 -1.6,2.7 -4.46,4.46 z"
         style="fill:#000000"
         id="path164" />
    </g>
    <g
       id="g2637">
      <rect
         width="100"
         height="100"
         style="fill:#ffffff;stroke:#326100;stroke-width:3px"
         x="-1041.3365"
         y="1719.9229"
         id="rect168" />
      <path
         d="m -996.8665,1786.0329 v 7.55 h -31.64 v -7.55 h 12.69 v -27.73 l -8.33,3.64 h -0.26 l -1.82,-5.53 v -0.26 l 12.95,-7.88 h 6.05 v 37.76 z m 24.52,8.33 q -9.18,0 -13.54,-6.41 -4.36,-6.41 -4.36,-17.02 0,-10.61 4.36,-17.03 4.36,-6.41 13.54,-6.41 9.18,0 13.54,6.41 4.36,6.42 4.36,17.03 0,10.61 -4.36,17.02 -4.36,6.41 -13.54,6.41 z m 0,-7.35 q 4.69,0 6.77,-4.43 2.08,-4.43 2.08,-11.65 0,-7.23 -2.08,-11.66 -2.08,-4.42 -6.77,-4.42 -4.69,0 -6.77,4.42 -2.08,4.43 -2.08,11.66 0,7.22 2.08,11.65 2.08,4.43 6.77,4.43 z"
         style="fill:#000000"
         id="path170" />
    </g>
    <path
       d="m -1075.3438,2009.7234 -14.142,14.1429 -28.285,-28.2843 -28.283,28.2836 -14.143,-14.1429 28.283,-28.2835 -28.283,-28.2836 14.143,-14.1428 28.283,28.2835 28.285,-28.2842 14.142,14.1428 -28.284,28.2843 z"
       bx:shape="cross -45.047 456.366 100 100 20.001 20.001 0.5 1@d1b92a9d"
       style="fill:#ff0000;stroke-width:1"
       id="path174" />
    <g
       id="g2657">
      <rect
         width="100"
         height="100"
         style="fill:#ffffff;stroke:#326100;stroke-width:3px"
         y="1519.9229"
         x="-641.33649"
         id="rect176" />
      <path
         d="m -597.2565,1585.9729 v 7.61 h -30.86 v -6.51 l 14.52,-15.23 q 3.58,-3.71 4.94,-6.19 1.37,-2.47 1.37,-4.75 0,-5.99 -7.42,-5.99 -3.06,0 -6.15,0.91 -3.1,0.92 -5.9,2.74 v -7.88 q 5.73,-3.19 12.44,-3.19 7.23,0 11.49,3.39 4.26,3.38 4.26,9.31 0,6.77 -6.12,13.54 l -11.13,12.24 z m 26.47,-20.84 q 4.36,0 7.75,1.89 3.38,1.89 5.27,5.21 1.89,3.32 1.89,7.42 0,4.43 -2.21,7.75 -2.22,3.32 -6.25,5.11 -4.04,1.79 -9.38,1.79 -4.1,0 -8.07,-1.08 -3.97,-1.07 -7.03,-3.09 v -8.33 h 0.26 q 2.93,2.28 7.03,3.71 4.1,1.43 7.62,1.43 4.16,0 6.7,-2.05 2.54,-2.05 2.54,-5.37 0,-3.12 -2.18,-5.08 -2.18,-1.95 -5.69,-1.95 -4.69,0 -8.92,3.45 h -0.26 l -5.67,-1.76 v -0.32 l 2.93,-25.59 h 26.43 v 7.49 h -19.27 l -1.23,11.07 q 3.71,-1.7 7.74,-1.7 z"
         style="fill:#000000"
         id="path178" />
    </g>
    <path
       d="m -647.54547,1057.146 -14.143,14.1429 -28.284,-28.2843 -28.283,28.2836 -14.143,-14.1429 28.283,-28.2835 -28.283,-28.2836 14.143,-14.14285 28.283,28.28355 28.284,-28.28425 14.143,14.14285 -28.284,28.2843 z"
       bx:shape="cross -45.047 456.365 100 100 20.001 20.001 0.5 1@532e7ee4"
       style="fill:#ff0000;stroke-width:1"
       id="path182" />
    <g
       id="g2661">
      <rect
         width="100"
         height="100"
         style="fill:#ffffff;stroke:#326100;stroke-width:3px"
         x="-489.98032"
         y="1319.9229"
         id="rect184" />
      <path
         d="m -425.33033,1348.2728 v 4.36 l -17.52,40.95 h -7.87 l -1.57,-0.26 16.93,-37.56 h -20.12 v -7.49 z"
         style="fill:#000000"
         id="path186" />
    </g>
    <g
       id="g2682">
      <g
         id="g2665">
        <rect
           width="100"
           height="100"
           style="fill:#ffffff;stroke:#326100;stroke-width:3px"
           x="-341.33664"
           y="1519.9229"
           id="rect190" />
        <path
           d="m -296.86663,1586.0329 v 7.55 h -31.64 v -7.55 h 12.69 v -27.73 l -8.33,3.64 h -0.26 l -1.82,-5.53 v -0.26 l 12.95,-7.88 h 6.05 v 37.76 z m 24.59,8.33 q -5.08,0 -9.05,-1.69 -3.97,-1.69 -6.19,-4.75 -2.21,-3.06 -2.21,-6.9 0,-3.71 2.05,-6.64 2.05,-2.93 5.17,-4.1 -2.92,-0.98 -4.65,-3.91 -1.73,-2.93 -1.73,-6.38 0,-3.71 2.12,-6.57 2.12,-2.87 5.89,-4.4 3.78,-1.53 8.53,-1.53 4.82,0 8.56,1.53 3.74,1.53 5.86,4.36 2.12,2.83 2.12,6.55 0,3.45 -1.76,6.38 -1.76,2.92 -4.69,3.97 3.45,1.23 5.37,4.2 1.92,2.96 1.92,6.54 0,3.9 -2.21,6.93 -2.21,3.03 -6.15,4.72 -3.94,1.69 -8.95,1.69 z m -0.07,-27.79 q 3.71,0 5.76,-1.53 2.05,-1.53 2.05,-4.4 0,-2.86 -2.02,-4.43 -2.01,-1.56 -5.79,-1.56 -3.78,0 -5.79,1.56 -2.02,1.57 -2.02,4.43 0,2.87 2.02,4.4 2.01,1.53 5.79,1.53 z m 0,20.57 q 4.1,0 6.32,-1.76 2.21,-1.76 2.21,-4.88 0,-3.19 -2.21,-4.92 -2.22,-1.72 -6.32,-1.72 -4.04,0 -6.28,1.72 -2.25,1.73 -2.25,4.92 0,3.19 2.22,4.91 2.21,1.73 6.31,1.73 z"
           style="fill:#000000"
           id="path192" />
      </g>
    </g>
    <g
       id="g2669">
      <rect
         width="100"
         height="100"
         style="fill:#ffffff;stroke:#326100;stroke-width:3px"
         y="1519.9229"
         id="rect196"
         x="-490.98184" />
      <path
         d="m -446.51183,1586.0329 v 7.55 h -31.64 v -7.55 h 12.69 v -27.73 l -8.33,3.64 h -0.26 l -1.82,-5.53 v -0.26 l 12.95,-7.88 h 6.05 v 37.76 z m 25.82,-21.55 q 4.69,0 8.27,1.86 3.58,1.85 5.53,5.21 1.96,3.35 1.96,7.64 0,4.5 -2.12,7.95 -2.11,3.45 -5.89,5.34 -3.78,1.88 -8.53,1.88 -8.46,0 -13.02,-5.86 -4.56,-5.85 -4.56,-16.4 0,-7.62 2.35,-13.15 2.34,-5.53 6.7,-8.5 4.36,-2.96 10.35,-2.96 6.84,0 12.7,3.65 v 7.87 h -0.26 q -2.74,-2.08 -5.93,-3.15 -3.19,-1.08 -5.92,-1.08 -4.49,0 -7.19,3.16 -2.71,3.16 -3.42,9.15 2.02,-1.37 4.2,-1.99 2.18,-0.62 4.78,-0.62 z m -0.91,22.59 q 3.32,0 5.5,-2.15 2.18,-2.14 2.18,-5.59 0,-3.26 -1.98,-5.38 -1.99,-2.11 -5.57,-2.11 -3.97,0 -8.46,2.6 0.32,6.19 2.41,9.41 2.08,3.22 5.92,3.22 z"
         style="fill:#000000"
         id="path198" />
    </g>
    <g
       id="g2673">
      <rect
         width="100"
         height="100"
         style="fill:#ffffff;stroke:#326100;stroke-width:3px"
         x="-494.46893"
         y="1719.9229"
         id="rect202" />
      <path
         d="m -449.99893,1786.0329 v 7.55 h -31.64 v -7.55 h 12.69 v -27.73 l -8.33,3.64 h -0.26 l -1.82,-5.53 v -0.26 l 12.95,-7.88 h 6.05 v 37.76 z m 33.31,-16.14 q 3.32,1.75 5.17,4.72 1.86,2.96 1.86,6.54 0,3.97 -2.21,6.96 -2.22,3 -6.25,4.63 -4.04,1.62 -9.18,1.62 -3.78,0 -7.2,-0.91 -3.41,-0.91 -6.8,-2.8 v -8.4 h 0.26 q 6.77,4.69 13.41,4.69 4.17,0 6.64,-1.66 2.48,-1.66 2.48,-4.59 0,-3.19 -2.8,-5.17 -2.8,-1.99 -7.55,-1.99 h -2.74 v -7.16 h 2.74 q 4.42,0 6.96,-1.63 2.54,-1.62 2.54,-4.49 0,-2.54 -2.12,-3.91 -2.11,-1.36 -5.89,-1.36 -2.93,0 -5.89,0.91 -2.96,0.91 -6.48,2.86 h -0.26 v -8.07 q 6.19,-3.19 13.02,-3.19 7.42,0 11.88,3.22 4.46,3.23 4.46,8.76 0,3.25 -1.59,5.96 -1.6,2.7 -4.46,4.46 z"
         style="fill:#000000"
         id="path204" />
    </g>
    <g
       id="g2677">
      <rect
         width="100"
         height="100"
         style="fill:#ffffff;stroke:#326100;stroke-width:3px"
         x="-490.02353"
         y="1919.9229"
         id="rect208" />
      <path
         d="m -445.55353,1986.0329 v 7.55 h -31.64 v -7.55 h 12.69 v -27.73 l -8.33,3.64 h -0.26 l -1.82,-5.53 v -0.26 l 12.95,-7.88 h 6.05 v 37.76 z m 24.52,8.33 q -9.18,0 -13.54,-6.41 -4.36,-6.41 -4.36,-17.02 0,-10.61 4.36,-17.03 4.36,-6.41 13.54,-6.41 9.18,0 13.54,6.41 4.36,6.42 4.36,17.03 0,10.61 -4.36,17.02 -4.36,6.41 -13.54,6.41 z m 0,-7.35 q 4.69,0 6.77,-4.43 2.08,-4.43 2.08,-11.65 0,-7.23 -2.08,-11.66 -2.08,-4.42 -6.77,-4.42 -4.69,0 -6.77,4.42 -2.08,4.43 -2.08,11.66 0,7.22 2.08,11.65 2.08,4.43 6.77,4.43 z"
         style="fill:#000000"
         id="path210" />
    </g>
    <path
       d="m -243.29173,1776.3713 -14.1428,14.1428 -28.2843,-28.2843 -28.2836,28.2836 -14.1428,-14.1429 28.2836,-28.2836 -28.2836,-28.2836 14.1428,-14.1428 28.2836,28.2835 28.2843,-28.2842 14.1428,14.1428 -28.2843,28.2843 z"
       bx:shape="cross -45.047 456.364 100 100 20.001 20.001 0.5 1@041fbf1b"
       style="fill:#ff0000;stroke-width:1"
       id="path214" />
    <path
       d="m -546.90946,1827.5333 -14.142,14.1428 -28.285,-28.2843 -28.283,28.2836 -14.143,-14.1429 28.283,-28.2835 -28.283,-28.2836 14.143,-14.1428 28.283,28.2835 28.285,-28.2842 14.142,14.1428 -28.284,28.2843 z"
       bx:shape="cross -45.047 456.363 100 100 20.001 20.001 0.5 1@afd70b6a"
       style="fill:#ff0000;stroke-width:1"
       id="path216" />
    <g
       id="g2750">
      <rect
         width="100"
         height="100"
         style="fill:#ffffff;stroke:#326100;stroke-width:3px"
         x="179.56567"
         y="709.65918"
         id="rect218" />
      <path
         d="m 244.21567,738.00915 v 4.36 l -17.52,40.95 h -7.87 l -1.57,-0.26 16.93,-37.56 h -20.12 v -7.49 z"
         style="fill:#000000"
         id="path220" />
    </g>
    <g
       id="g2754">
      <rect
         width="100"
         height="100"
         style="fill:#ffffff;stroke:#326100;stroke-width:3px"
         y="909.65912"
         id="rect224"
         x="179.56587" />
      <path
         d="m 224.03587,975.76912 v 7.55 h -31.64 v -7.55 h 12.69 v -27.73 l -8.33,3.64 h -0.26 l -1.82,-5.53 v -0.26 l 12.95,-7.88 h 6.05 v 37.76 z m 25.82,-21.55 q 4.69,0 8.27,1.86 3.58,1.85 5.53,5.21 1.96,3.35 1.96,7.64 0,4.5 -2.12,7.95 -2.11,3.45 -5.89,5.34 -3.78,1.88 -8.53,1.88 -8.46,0 -13.02,-5.86 -4.56,-5.85 -4.56,-16.4 0,-7.62 2.35,-13.15 2.34,-5.53 6.7,-8.5 4.36,-2.96 10.35,-2.96 6.84,0 12.7,3.65 v 7.87 h -0.26 q -2.74,-2.08 -5.93,-3.15 -3.19,-1.08 -5.92,-1.08 -4.49,0 -7.19,3.16 -2.71,3.16 -3.42,9.15 2.02,-1.37 4.2,-1.99 2.18,-0.62 4.78,-0.62 z m -0.91,22.59 q 3.32,0 5.5,-2.15 2.18,-2.14 2.18,-5.59 0,-3.26 -1.98,-5.38 -1.99,-2.11 -5.57,-2.11 -3.97,0 -8.46,2.6 0.32,6.19 2.41,9.41 2.08,3.22 5.92,3.22 z"
         style="fill:#000000"
         id="path226" />
    </g>
    <g
       id="g2790">
      <rect
         width="100"
         height="100"
         style="fill:#ffffff;stroke:#326100;stroke-width:3px"
         x="379.56577"
         y="909.65912"
         id="rect230" />
      <path
         d="m 424.03577,975.76912 v 7.55 h -31.64 v -7.55 h 12.69 v -27.73 l -8.33,3.64 h -0.26 l -1.82,-5.53 v -0.26 l 12.95,-7.88 h 6.05 v 37.76 z m 42.03,-2.34 h -6.25 v 9.89 h -8.59 v -9.89 h -20.31 v -6.71 l 20.31,-28.71 h 8.59 v 28.06 h 6.25 z m -14.84,-7.36 v -15.95 l -10.29,15.95 z"
         style="fill:#000000"
         id="path232" />
    </g>
    <g
       id="g2794">
      <rect
         width="100"
         height="100"
         style="fill:#ffffff;stroke:#326100;stroke-width:3px"
         y="609.65912"
         x="479.56577"
         id="rect236" />
      <path
         d="m 523.64577,675.70911 v 7.61 h -30.86 v -6.51 l 14.52,-15.23 q 3.58,-3.71 4.94,-6.19 1.37,-2.47 1.37,-4.75 0,-5.99 -7.42,-5.99 -3.06,0 -6.15,0.91 -3.1,0.92 -5.9,2.74 v -7.88 q 5.73,-3.19 12.44,-3.19 7.23,0 11.49,3.39 4.26,3.38 4.26,9.31 0,6.77 -6.12,13.54 l -11.13,12.24 z m 26.47,-20.84 q 4.36,0 7.75,1.89 3.38,1.89 5.27,5.21 1.89,3.32 1.89,7.42 0,4.43 -2.21,7.75 -2.22,3.32 -6.25,5.11 -4.04,1.79 -9.38,1.79 -4.1,0 -8.07,-1.08 -3.97,-1.07 -7.03,-3.09 v -8.33 h 0.26 q 2.93,2.28 7.03,3.71 4.1,1.43 7.62,1.43 4.16,0 6.7,-2.05 2.54,-2.05 2.54,-5.37 0,-3.12 -2.18,-5.08 -2.18,-1.95 -5.69,-1.95 -4.69,0 -8.92,3.45 h -0.26 l -5.67,-1.76 v -0.32 l 2.93,-25.59 h 26.43 v 7.49 h -19.27 l -1.23,11.07 q 3.71,-1.7 7.74,-1.7 z"
         style="fill:#000000"
         id="path238" />
    </g>
    <a
       id="a2758">
      <rect
         width="100"
         height="100"
         style="fill:#ffffff;stroke:#326100;stroke-width:3px"
         x="179.56587"
         y="1109.6592"
         id="rect242" />
      <path
         d="m 224.03587,1175.7692 v 7.55 h -31.64 v -7.55 h 12.69 v -27.73 l -8.33,3.64 h -0.26 l -1.82,-5.53 v -0.26 l 12.95,-7.88 h 6.05 v 37.76 z m 33.31,-16.14 q 3.32,1.75 5.17,4.72 1.86,2.96 1.86,6.54 0,3.97 -2.21,6.96 -2.22,3 -6.25,4.63 -4.04,1.62 -9.18,1.62 -3.78,0 -7.2,-0.91 -3.41,-0.91 -6.8,-2.8 v -8.4 h 0.26 q 6.77,4.69 13.41,4.69 4.17,0 6.64,-1.66 2.48,-1.66 2.48,-4.59 0,-3.19 -2.8,-5.17 -2.8,-1.99 -7.55,-1.99 h -2.74 v -7.16 h 2.74 q 4.42,0 6.96,-1.63 2.54,-1.62 2.54,-4.49 0,-2.54 -2.12,-3.91 -2.11,-1.36 -5.89,-1.36 -2.93,0 -5.89,0.91 -2.96,0.91 -6.48,2.86 h -0.26 v -8.07 q 6.19,-3.19 13.02,-3.19 7.42,0 11.88,3.22 4.46,3.23 4.46,8.76 0,3.25 -1.59,5.96 -1.6,2.7 -4.46,4.46 z"
         style="fill:#000000"
         id="path244" />
    </a>
    <g
       id="g2762">
      <rect
         width="100"
         height="100"
         style="fill:#ffffff;stroke:#326100;stroke-width:3px"
         x="179.56577"
         y="1309.6592"
         id="rect248" />
      <path
         d="m 224.03577,1375.7692 v 7.55 h -31.64 v -7.55 h 12.69 v -27.73 l -8.33,3.64 h -0.26 l -1.82,-5.53 v -0.26 l 12.95,-7.88 h 6.05 v 37.76 z m 24.52,8.33 q -9.18,0 -13.54,-6.41 -4.36,-6.41 -4.36,-17.02 0,-10.61 4.36,-17.03 4.36,-6.41 13.54,-6.41 9.18,0 13.54,6.41 4.36,6.42 4.36,17.03 0,10.61 -4.36,17.02 -4.36,6.41 -13.54,6.41 z m 0,-7.35 q 4.69,0 6.77,-4.43 2.08,-4.43 2.08,-11.65 0,-7.23 -2.08,-11.66 -2.08,-4.42 -6.77,-4.42 -4.69,0 -6.77,4.42 -2.08,4.43 -2.08,11.66 0,7.22 2.08,11.65 2.08,4.43 6.77,4.43 z"
         style="fill:#000000"
         id="path250" />
    </g>
    <g
       id="g2766">
      <rect
         width="100"
         height="100"
         style="fill:#ffffff;stroke:#326100;stroke-width:3px"
         x="179.56587"
         id="rect254"
         y="1509.6592" />
      <path
         d="m 237.17587,1559.6292 q 3.32,1.75 5.18,4.72 1.86,2.96 1.86,6.54 0,3.97 -2.22,6.96 -2.21,3 -6.25,4.63 -4.03,1.62 -9.18,1.62 -3.77,0 -7.19,-0.91 -3.42,-0.91 -6.8,-2.8 v -8.4 h 0.26 q 6.77,4.69 13.41,4.69 4.16,0 6.64,-1.66 2.47,-1.66 2.47,-4.59 0,-3.19 -2.8,-5.17 -2.8,-1.99 -7.55,-1.99 h -2.73 v -7.16 h 2.73 q 4.43,0 6.97,-1.63 2.54,-1.62 2.54,-4.49 0,-2.54 -2.12,-3.91 -2.12,-1.36 -5.89,-1.36 -2.93,0 -5.89,0.91 -2.97,0.91 -6.48,2.86 h -0.26 v -8.07 q 6.18,-3.19 13.02,-3.19 7.42,0 11.88,3.22 4.46,3.23 4.46,8.76 0,3.25 -1.6,5.96 -1.59,2.7 -4.46,4.46 z"
         style="fill:#000000"
         id="path256" />
    </g>
    <g
       id="g2770">
      <rect
         width="100"
         height="100"
         style="fill:#ffffff;stroke:#326100;stroke-width:3px"
         x="179.56577"
         y="1709.6594"
         id="rect260" />
      <path
         d="m 224.03577,1775.7694 v 7.55 h -31.64 v -7.55 h 12.69 v -27.73 l -8.33,3.64 h -0.26 l -1.82,-5.53 v -0.26 l 12.95,-7.88 h 6.05 v 37.76 z m 39.95,-0.06 v 7.61 h -30.86 v -6.51 l 14.52,-15.23 q 3.58,-3.71 4.95,-6.19 1.36,-2.47 1.36,-4.75 0,-5.99 -7.42,-5.99 -3.06,0 -6.15,0.91 -3.09,0.92 -5.89,2.74 v -7.88 q 5.73,-3.19 12.43,-3.19 7.23,0 11.49,3.39 4.27,3.38 4.27,9.31 0,6.77 -6.12,13.54 l -11.13,12.24 z"
         style="fill:#000000"
         id="path262" />
    </g>
    <g
       id="g2782">
      <rect
         width="100"
         height="100"
         style="fill:#ffffff;stroke:#326100;stroke-width:3px"
         x="379.56577"
         y="1709.6592"
         id="rect266" />
      <path
         d="m 424.03577,1775.7692 v 7.55 h -31.64 v -7.55 h 12.69 v -27.73 l -8.33,3.64 h -0.26 l -1.82,-5.53 v -0.26 l 12.95,-7.88 h 6.05 v 37.76 z m 42.03,-2.34 h -6.25 v 9.89 h -8.59 v -9.89 h -20.31 v -6.71 l 20.31,-28.71 h 8.59 v 28.06 h 6.25 z m -14.84,-7.36 v -15.95 l -10.29,15.95 z"
         style="fill:#000000"
         id="path268" />
    </g>
    <g
       id="g2774">
      <rect
         width="100"
         height="100"
         style="fill:#ffffff;stroke:#326100;stroke-width:3px"
         id="rect272"
         x="179.56567"
         y="1878.6976" />
      <path
         d="m 244.21567,1944.8076 v 7.55 h -31.64 v -7.55 h 12.69 v -27.73 l -8.33,3.64 h -0.26 l -1.82,-5.53 v -0.26 l 12.95,-7.88 h 6.05 v 37.76 z"
         style="fill:#000000"
         id="path274" />
    </g>
    <path
       d="m 275.45099,2192.1809 -14.1428,14.1429 -28.2843,-28.2843 -28.2835,28.2836 -14.1429,-14.1429 28.2836,-28.2836 -28.2836,-28.2835 14.1429,-14.1429 28.2835,28.2836 28.2843,-28.2843 14.1428,14.1429 -28.2842,28.2842 z"
       bx:shape="cross -45.047 456.363 100 100 20.001 20.001 0.5 1@afd70b6a"
       style="fill:#ff0000;stroke-width:1"
       id="path278" />
    <g
       id="g2778">
      <rect
         width="100"
         height="100"
         style="fill:#ffffff;stroke:#326100;stroke-width:3px"
         y="1880.6326"
         x="379.56586"
         id="rect280" />
      <path
         d="m 423.64587,1946.6826 v 7.61 h -30.86 v -6.51 l 14.52,-15.23 q 3.58,-3.71 4.94,-6.19 1.37,-2.47 1.37,-4.75 0,-5.99 -7.42,-5.99 -3.06,0 -6.15,0.91 -3.1,0.92 -5.9,2.74 v -7.88 q 5.73,-3.19 12.44,-3.19 7.23,0 11.49,3.39 4.26,3.38 4.26,9.31 0,6.77 -6.12,13.54 l -11.13,12.24 z m 26.47,-20.84 q 4.36,0 7.75,1.89 3.38,1.89 5.27,5.21 1.89,3.32 1.89,7.42 0,4.43 -2.21,7.75 -2.22,3.32 -6.25,5.11 -4.04,1.79 -9.38,1.79 -4.1,0 -8.07,-1.08 -3.97,-1.07 -7.03,-3.09 v -8.33 h 0.26 q 2.93,2.28 7.03,3.71 4.1,1.43 7.62,1.43 4.16,0 6.7,-2.05 2.54,-2.05 2.54,-5.37 0,-3.12 -2.18,-5.08 -2.18,-1.95 -5.69,-1.95 -4.69,0 -8.92,3.45 h -0.26 l -5.67,-1.76 v -0.32 l 2.93,-25.59 h 26.43 v 7.49 h -19.27 l -1.23,11.07 q 3.71,-1.7 7.74,-1.7 z"
         style="fill:#000000"
         id="path282" />
    </g>
    <path
       d="m 475.25869,2190.5978 -14.1428,14.1429 -28.2843,-28.2843 -28.2836,28.2835 -14.1428,-14.1428 28.2836,-28.2836 -28.2836,-28.2835 14.1428,-14.1429 28.2836,28.2836 28.2843,-28.2843 14.1428,14.1429 -28.2843,28.2842 z"
       bx:shape="cross -45.047 456.362 100 100 20.001 20.001 0.5 1@f37705f1"
       style="fill:#ff0000;stroke-width:1"
       id="path286" />
    <path
       d="m 472.16073,1451.4194 -14.1428,14.1429 -28.2843,-28.2843 -28.28359,28.2836 -14.1428,-14.1429 28.2836,-28.2835 -28.2836,-28.2836 14.1428,-14.1428 28.28359,28.2835 28.2843,-28.2842 14.1428,14.1428 -28.2843,28.2843 z"
       bx:shape="cross -45.047 456.361 100 100 20.001 20.001 0.5 1@540b43e0"
       style="fill:#ff0000;stroke-width:1"
       id="path288" />
    <g
       id="g2710">
      <rect
         width="100"
         height="100"
         style="fill:#ffffff;stroke:#326100;stroke-width:3px"
         x="-241.33662"
         y="1119.9229"
         id="rect292" />
      <path
         d="m -196.86663,1186.0328 v 7.55 h -31.64 v -7.55 h 12.69 v -27.73 l -8.33,3.64 h -0.26 l -1.82,-5.53 v -0.26 l 12.95,-7.88 h 6.05 v 37.76 z m 33.31,-16.14 q 3.32,1.75 5.17,4.72 1.86,2.96 1.86,6.54 0,3.97 -2.21,6.96 -2.22,3 -6.25,4.63 -4.04,1.62 -9.18,1.62 -3.78,0 -7.2,-0.91 -3.41,-0.91 -6.8,-2.8 v -8.4 h 0.26 q 6.77,4.69 13.41,4.69 4.17,0 6.64,-1.66 2.48,-1.66 2.48,-4.59 0,-3.19 -2.8,-5.17 -2.8,-1.99 -7.55,-1.99 h -2.74 v -7.16 h 2.74 q 4.42,0 6.96,-1.63 2.54,-1.62 2.54,-4.49 0,-2.54 -2.12,-3.91 -2.11,-1.36 -5.89,-1.36 -2.93,0 -5.89,0.91 -2.96,0.91 -6.48,2.86 h -0.26 v -8.07 q 6.19,-3.19 13.02,-3.19 7.42,0 11.88,3.22 4.46,3.23 4.46,8.76 0,3.25 -1.59,5.96 -1.6,2.7 -4.46,4.46 z"
         style="fill:#000000"
         id="path294" />
    </g>
    <g
       id="g2714">
      <rect
         width="100"
         height="100"
         style="fill:#ffffff;stroke:#326100;stroke-width:3px"
         y="1319.9229"
         id="rect298"
         x="-141.33662" />
      <path
         d="m -96.86663,1386.0329 v 7.55 h -31.64 v -7.55 h 12.69 v -27.73 l -8.33,3.64 h -0.26 l -1.82,-5.53 v -0.26 l 12.95,-7.88 h 6.05 v 37.76 z m 25.82,-21.55 q 4.69,0 8.27,1.86 3.58,1.85 5.53,5.21 1.96,3.35 1.96,7.64 0,4.5 -2.12,7.95 -2.11,3.45 -5.89,5.34 -3.78,1.88 -8.53,1.88 -8.46,0 -13.02,-5.86 -4.56,-5.85 -4.56,-16.4 0,-7.62 2.35,-13.15 2.34,-5.53 6.7,-8.5 4.36,-2.96 10.35,-2.96 6.84,0 12.7,3.65 v 7.87 h -0.26 q -2.74,-2.08 -5.93,-3.15 -3.19,-1.08 -5.92,-1.08 -4.49,0 -7.19,3.16 -2.71,3.16 -3.42,9.15 2.02,-1.37 4.2,-1.99 2.18,-0.62 4.78,-0.62 z m -0.91,22.59 q 3.32,0 5.5,-2.15 2.18,-2.14 2.18,-5.59 0,-3.26 -1.98,-5.38 -1.99,-2.11 -5.57,-2.11 -3.97,0 -8.46,2.6 0.32,6.19 2.41,9.41 2.08,3.22 5.92,3.22 z"
         style="fill:#000000"
         id="path300" />
    </g>
    <g
       id="g2718">
      <rect
         width="100"
         height="100"
         style="fill:#ffffff;stroke:#326100;stroke-width:3px"
         x="-41.336632"
         y="1519.9229"
         id="rect304" />
      <path
         d="m 23.31337,1548.2729 v 4.36 l -17.52,40.95 h -7.87 l -1.57,-0.26 16.93,-37.56 h -20.12 v -7.49 z"
         style="fill:#000000"
         id="path306" />
    </g>
    <g
       id="g2722">
      <rect
         width="100"
         height="100"
         style="fill:#ffffff;stroke:#326100;stroke-width:3px"
         x="16.71677"
         y="1719.9229"
         id="rect310" />
      <path
         d="m 61.18677,1786.0329 v 7.55 h -31.64 v -7.55 h 12.69 v -27.73 l -8.33,3.64 h -0.26 l -1.82,-5.53 v -0.26 l 12.95,-7.88 h 6.05 v 37.76 z m 42.03,-2.34 h -6.25 v 9.89 h -8.59 v -9.89 h -20.31 v -6.71 l 20.31,-28.71 h 8.59 v 28.06 h 6.25 z m -14.84,-7.36 v -15.95 l -10.29,15.95 z"
         style="fill:#000000"
         id="path312" />
    </g>
    <g
       id="g2742">
      <rect
         width="100"
         height="100"
         style="fill:#ffffff;stroke:#326100;stroke-width:3px"
         x="-141.33662"
         y="1719.9229"
         id="rect316" />
      <path
         d="m -96.86663,1786.0329 v 7.55 h -31.64 v -7.55 h 12.69 v -27.73 l -8.33,3.64 h -0.26 l -1.82,-5.53 v -0.26 l 12.95,-7.88 h 6.05 v 37.76 z m 24.59,8.33 q -5.08,0 -9.05,-1.69 -3.97,-1.69 -6.19,-4.75 -2.21,-3.06 -2.21,-6.9 0,-3.71 2.05,-6.64 2.05,-2.93 5.17,-4.1 -2.92,-0.98 -4.65,-3.91 -1.73,-2.93 -1.73,-6.38 0,-3.71 2.12,-6.57 2.12,-2.87 5.89,-4.4 3.78,-1.53 8.53,-1.53 4.82,0 8.56,1.53 3.74,1.53 5.86,4.36 2.12,2.83 2.12,6.55 0,3.45 -1.76,6.38 -1.76,2.92 -4.69,3.97 3.45,1.23 5.37,4.2 1.92,2.96 1.92,6.54 0,3.9 -2.21,6.93 -2.21,3.03 -6.15,4.72 -3.94,1.69 -8.95,1.69 z m -0.07,-27.79 q 3.71,0 5.76,-1.53 2.05,-1.53 2.05,-4.4 0,-2.86 -2.02,-4.43 -2.01,-1.56 -5.79,-1.56 -3.78,0 -5.79,1.56 -2.02,1.57 -2.02,4.43 0,2.87 2.02,4.4 2.01,1.53 5.79,1.53 z m 0,20.57 q 4.1,0 6.32,-1.76 2.21,-1.76 2.21,-4.88 0,-3.19 -2.21,-4.92 -2.22,-1.72 -6.32,-1.72 -4.04,0 -6.28,1.72 -2.25,1.73 -2.25,4.92 0,3.19 2.22,4.91 2.21,1.73 6.31,1.73 z"
         style="fill:#000000"
         id="path318" />
    </g>
    <g
       id="g2738">
      <rect
         width="100"
         height="100"
         style="fill:#ffffff;stroke:#326100;stroke-width:3px"
         y="1871.5452"
         x="-141.33662"
         id="rect322" />
      <path
         d="m -97.25663,1937.5952 v 7.61 h -30.86 v -6.51 l 14.52,-15.23 q 3.58,-3.71 4.94,-6.19 1.37,-2.47 1.37,-4.75 0,-5.99 -7.42,-5.99 -3.06,0 -6.15,0.91 -3.1,0.92 -5.9,2.74 v -7.88 q 5.73,-3.19 12.44,-3.19 7.23,0 11.49,3.39 4.26,3.38 4.26,9.31 0,6.77 -6.12,13.54 l -11.13,12.24 z m 26.47,-20.84 q 4.36,0 7.75,1.89 3.38,1.89 5.27,5.21 1.89,3.32 1.89,7.42 0,4.43 -2.21,7.75 -2.22,3.32 -6.25,5.11 -4.04,1.79 -9.38,1.79 -4.1,0 -8.07,-1.08 -3.97,-1.07 -7.03,-3.09 v -8.33 h 0.26 q 2.93,2.28 7.03,3.71 4.1,1.43 7.62,1.43 4.16,0 6.7,-2.05 2.54,-2.05 2.54,-5.37 0,-3.12 -2.18,-5.08 -2.18,-1.95 -5.69,-1.95 -4.69,0 -8.92,3.45 h -0.26 l -5.67,-1.76 v -0.32 l 2.93,-25.59 h 26.43 v 7.49 h -19.27 l -1.23,11.07 q 3.71,-1.7 7.74,-1.7 z"
         style="fill:#000000"
         id="path324" />
    </g>
    <g
       id="g2726">
      <rect
         width="100"
         height="100"
         style="fill:#ffffff;stroke:#326100;stroke-width:3px"
         y="1871.5452"
         x="17.34227"
         id="rect328" />
      <path
         d="m 61.42227,1937.5952 v 7.61 h -30.86 v -6.51 l 14.52,-15.23 q 3.58,-3.71 4.94,-6.19 1.37,-2.47 1.37,-4.75 0,-5.99 -7.42,-5.99 -3.06,0 -6.15,0.91 -3.1,0.92 -5.9,2.74 v -7.88 q 5.73,-3.19 12.44,-3.19 7.23,0 11.49,3.39 4.26,3.38 4.26,9.31 0,6.77 -6.12,13.54 l -11.13,12.24 z m 26.47,-20.84 q 4.36,0 7.75,1.89 3.38,1.89 5.27,5.21 1.89,3.32 1.89,7.42 0,4.43 -2.21,7.75 -2.22,3.32 -6.25,5.11 -4.04,1.79 -9.38,1.79 -4.1,0 -8.07,-1.08 -3.97,-1.07 -7.03,-3.09 v -8.33 h 0.26 q 2.93,2.28 7.03,3.71 4.1,1.43 7.62,1.43 4.16,0 6.7,-2.05 2.54,-2.05 2.54,-5.37 0,-3.12 -2.18,-5.08 -2.18,-1.95 -5.69,-1.95 -4.69,0 -8.92,3.45 h -0.26 l -5.67,-1.76 v -0.32 l 2.93,-25.59 h 26.43 v 7.49 h -19.27 l -1.23,11.07 q 3.71,-1.7 7.74,-1.7 z"
         style="fill:#000000"
         id="path330" />
    </g>
    <g
       id="g2734">
      <rect
         width="100"
         height="100"
         style="fill:#ffffff;stroke:#326100;stroke-width:3px"
         x="-141.33662"
         y="2019.9229"
         id="rect334" />
      <path
         d="m -96.86663,2086.0329 v 7.55 h -31.64 v -7.55 h 12.69 v -27.73 l -8.33,3.64 h -0.26 l -1.82,-5.53 v -0.26 l 12.95,-7.88 h 6.05 v 37.76 z m 42.03,-2.34 h -6.25 v 9.89 h -8.59 v -9.89 h -20.31 v -6.71 l 20.31,-28.71 h 8.59 v 28.06 h 6.25 z m -14.84,-7.36 v -15.95 l -10.29,15.95 z"
         style="fill:#000000"
         id="path336" />
    </g>
    <g
       id="g2730">
      <rect
         width="100"
         height="100"
         style="fill:#ffffff;stroke:#326100;stroke-width:3px"
         x="15.40727"
         y="2019.9229"
         id="rect340" />
      <path
         d="m 59.87727,2086.0329 v 7.55 h -31.64 v -7.55 h 12.69 v -27.73 l -8.33,3.64 h -0.26 l -1.82,-5.53 v -0.26 l 12.95,-7.88 h 6.05 v 37.76 z m 24.59,8.33 q -5.08,0 -9.05,-1.69 -3.97,-1.69 -6.19,-4.75 -2.21,-3.06 -2.21,-6.9 0,-3.71 2.05,-6.64 2.05,-2.93 5.17,-4.1 -2.92,-0.98 -4.65,-3.91 -1.73,-2.93 -1.73,-6.38 0,-3.71 2.12,-6.57 2.12,-2.87 5.89,-4.4 3.78,-1.53 8.53,-1.53 4.82,0 8.56,1.53 3.74,1.53 5.86,4.36 2.12,2.83 2.12,6.55 0,3.45 -1.76,6.38 -1.76,2.92 -4.69,3.97 3.45,1.23 5.37,4.2 1.92,2.96 1.92,6.54 0,3.9 -2.21,6.93 -2.21,3.03 -6.15,4.72 -3.94,1.69 -8.95,1.69 z m -0.07,-27.79 q 3.71,0 5.76,-1.53 2.05,-1.53 2.05,-4.4 0,-2.86 -2.02,-4.43 -2.01,-1.56 -5.79,-1.56 -3.78,0 -5.79,1.56 -2.02,1.57 -2.02,4.43 0,2.87 2.02,4.4 2.01,1.53 5.79,1.53 z m 0,20.57 q 4.1,0 6.32,-1.76 2.21,-1.76 2.21,-4.88 0,-3.19 -2.21,-4.92 -2.22,-1.72 -6.32,-1.72 -4.04,0 -6.28,1.72 -2.25,1.73 -2.25,4.92 0,3.19 2.22,4.91 2.21,1.73 6.31,1.73 z"
         style="fill:#000000"
         id="path342" />
    </g>
    <path
       d="m -46.426415,2303.143 -14.1429,14.1428 -28.2842,-28.2842 -28.283595,28.2835 -14.1429,-14.1428 28.2836,-28.2836 -28.2836,-28.2835 14.1429,-14.1429 28.283595,28.2836 28.2842,-28.2843 14.1429,14.1429 -28.2843,28.2842 z"
       bx:shape="cross -45.047 456.363 100 100 20.001 20.001 0.5 1@afd70b6a"
       style="fill:#ff0000;stroke-width:1"
       id="path346" />
    <path
       d="m 103.06869,2300.8983 -14.142802,14.1429 -28.2843,-28.2843 -28.283503,28.2836 -14.1429,-14.1429 28.2836,-28.2835 -28.2836,-28.2836 14.1429,-14.1428 28.283503,28.2835 28.2843,-28.2842 14.142802,14.1428 -28.284202,28.2843 z"
       bx:shape="cross -45.047 456.362 100 100 20.001 20.001 0.5 1@f37705f1"
       style="fill:#ff0000;stroke-width:1"
       id="path348" />
    <path
       d="m 711.49638,2094.94 c -0.55701,0 -1.47174,0.3487 -1.87597,0.7846 l -18.00844,19.0707 c -0.80807,0.847 -0.80687,1.8894 0,2.725 l 28.30796,27.8899 18.38407,19.0721 c 0.40823,0.4229 0.94358,0.7724 1.50074,0.7724 0.41185,0 0.80206,-0.4479 1.125,-0.7724 l 18.38406,-18.6824 58.15584,-60.328 c 0.81808,-0.8345 0.81543,-2.2755 0,-3.1137 l -18.3854,-19.0707 c -0.81673,-0.8345 -1.82063,-0.847 -2.62668,0 l -56.65335,58.7693 -26.80681,-26.3326 c -0.40463,-0.4235 -0.94375,-0.7846 -1.50075,-0.7846 h 5.3e-4 z"
       stroke-width="0.838663"
       id="path1826"
       style="fill:#37c837" />
  </g>
</svg>
