<?xml version="1.0" encoding="UTF-8"?>
<svg id="Capa_1" xmlns="http://www.w3.org/2000/svg" version="1.1" viewBox="0 0 595.3 198.4">
  <!-- Generator: Adobe Illustrator 30.2.1, SVG Export Plug-In . SVG Version: 2.1.1 Build 1)  -->
  <defs>
    <style>
      .st0, .st1, .st2, .st3, .st4, .st5, .st6, .st7, .st8, .st9, .st10, .st11, .st12 {
        fill-rule: evenodd;
      }

      .st0, .st13 {
        fill: #4e4e4e;
      }

      .st1 {
        fill: #e7eff6;
      }

      .st2, .st14, .st15 {
        fill: #fff;
      }

      .st3 {
        fill: #c3d1db;
      }

      .st4 {
        fill: #dd9457;
      }

      .st5 {
        fill: #a7bcc9;
      }

      .st16 {
        stroke: #361b1a;
        stroke-width: 2px;
      }

      .st16, .st7 {
        stroke-linecap: round;
        stroke-linejoin: round;
      }

      .st16, .st7, .st10 {
        fill: none;
      }

      .st6 {
        fill: #789d9c;
      }

      .st14 {
        opacity: .1;
      }

      .st7, .st10 {
        stroke: #fff;
        stroke-width: 5.7px;
      }

      .st17, .st12 {
        fill: #4f4f4e;
      }

      .st18 {
        fill: #c31d20;
      }

      .st8 {
        fill: #b8cccd;
      }

      .st9 {
        fill: #a1bbbc;
      }

      .st19 {
        fill: #9a9a99;
      }

      .st10 {
        stroke-miterlimit: 10;
      }

      .st20 {
        fill: #989898;
      }

      .st21 {
        fill: #c73438;
      }

      .st11 {
        fill: #e9f3f4;
      }
    </style>
  </defs>
  <g>
    <path class="st10" d="M316.4,106.4c0-.2,0-.4,0-.6,0-.4,0-.8,0-1.1,0-.2,0-.3,0-.5,0-.6,0-1.1,0-1.7s0-.7,0-1c0,0,0,0,0,0,0-.3,0-.6,0-.8,0,0,0,0,0,0,0-.2,0-.3,0-.5,0-.4,0-.8,0-1.2,0,0,0,0,0,0-.4-4.3-1.7-8.4-3.6-12,.7-.7,1.4-1.5,2.1-2.4,5.6-7.5,6.2-17.2,2.4-25.1-8.7-1.4-17.8,1.9-23.4,9.4-.3.3-.5.7-.7,1,0,0-.1,0-.2,0-.3-.1-.7-.2-1-.3-.2,0-.4-.1-.6-.2-.3,0-.7-.2-1-.3-.2,0-.4-.1-.7-.2-.3,0-.7-.1-1-.2-.1,0-.2,0-.3,0h0c-2-.4-4.1-.6-6.3-.6s-4.2.2-6.3.6h0c0,0-.2,0-.3,0-.4,0-.7.1-1.1.2-.2,0-.4,0-.6.1-.4,0-.8.2-1.2.3-.2,0-.3,0-.5.1-.4.1-.8.2-1.2.4-.2,0-.3.1-.5.2,0,0,0,0,0,0-.3-.4-.5-.8-.8-1.2-5.6-7.5-14.8-10.8-23.4-9.4-3.8,7.9-3.2,17.6,2.4,25.1.7,1,1.5,1.9,2.4,2.7-2,4-3.2,8.4-3.5,13,0,.1,0,.3,0,.4,0,0,0,0,0,0,0,.3,0,.5,0,.8,0,0,0,0,0,0,0,.3,0,.7,0,1,0,.6,0,1.1,0,1.7,0,.2,0,.3,0,.5,0,.4,0,.8,0,1.1,0,.2,0,.4,0,.6,0,.3,0,.7.1,1,0,.2,0,.4.1.7,0,.2,0,.3,0,.5,0,0,0,0,0,0,2.9,16.2,17,28.4,34,28.4s31.1-12.3,34-28.4c0,0,0,0,0,0,0-.2,0-.3,0-.5,0-.2,0-.4,0-.6,0-.3,0-.7.1-1Z"/>
    <g>
      <path class="st3" d="M272.1,93.8c-8.7,1.4-17.8-1.9-23.4-9.4-5.6-7.5-6.2-17.2-2.4-25.1,8.7-1.4,17.8,1.9,23.4,9.4,5.6,7.5,6.2,17.2,2.4,25.1h0Z"/>
      <path class="st1" d="M267,87c-4.8.5-10-1.7-13.4-6.3-3.4-4.6-4.1-10.2-2.2-14.6,4.8-.5,10,1.7,13.4,6.3,3.4,4.6,4.1,10.2,2.2,14.6h0Z"/>
      <path class="st3" d="M291.5,93.8c8.7,1.4,17.8-1.9,23.4-9.4,5.6-7.5,6.2-17.2,2.4-25.1-8.7-1.4-17.8,1.9-23.4,9.4-5.6,7.5-6.2,17.2-2.4,25.1h0Z"/>
      <path class="st1" d="M296.5,87c4.8.5,10-1.7,13.4-6.3,3.4-4.6,4.1-10.2,2.2-14.6-4.8-.5-10,1.7-13.4,6.3-3.4,4.6-4.1,10.2-2.2,14.6h0Z"/>
      <path class="st3" d="M282,67.9c19.1,0,34.6,15.5,34.6,34.5s-15.5,34.5-34.6,34.5-34.6-15.4-34.6-34.5,15.5-34.5,34.6-34.5h0Z"/>
      <path class="st1" d="M282,103.9c7.2,0,13.1,5.9,13.1,13.1s-5.9,13.1-13.1,13.1-13.1-5.9-13.1-13.1,5.9-13.1,13.1-13.1h0Z"/>
      <path class="st13" d="M282,115.6c-.5,0-.8-.4-.8-.8v-8.5c0-.5.4-.8.8-.8s.8.4.8.8v8.5c0,.5-.4.8-.8.8Z"/>
      <path class="st0" d="M287.3,104.1c0,3.1-3.7,5.8-5.3,7-1.5-1.2-5.3-3.8-5.3-7s10.5-3.2,10.5,0h0Z"/>
      <path class="st13" d="M278,119.6c-2.7,0-4.9-2.2-4.9-4.9s.4-.8.8-.8.8.4.8.8c0,1.8,1.4,3.2,3.2,3.2s3.2-1.4,3.2-3.2.4-.8.8-.8.8.4.8.8c0,2.7-2.2,4.9-4.9,4.9Z"/>
      <path class="st13" d="M286.1,119.6c-2.7,0-4.9-2.2-4.9-4.9s.4-.8.8-.8.8.4.8.8c0,1.8,1.4,3.2,3.2,3.2s3.2-1.4,3.2-3.2.4-.8.8-.8.8.4.8.8c0,2.7-2.2,4.9-4.9,4.9Z"/>
      <path class="st15" d="M310.3,117.8h-13.3c-.5,0-.8-.4-.8-.8s.4-.8.8-.8h13.3c.5,0,.8.4.8.8s-.4.8-.8.8Z"/>
      <path class="st15" d="M306.3,124.3c0,0-.1,0-.2,0l-9.8-2.6c-.4-.1-.7-.6-.6-1,.1-.4.6-.7,1-.6l9.8,2.6c.4.1.7.6.6,1,0,.4-.4.6-.8.6Z"/>
      <path class="st15" d="M296.6,113.9c-.4,0-.7-.2-.8-.6-.1-.4.1-.9.6-1l10-2.7c.4-.1.9.1,1,.6.1.4-.1.9-.6,1l-10,2.7c0,0-.1,0-.2,0Z"/>
      <path class="st15" d="M267,117.8h-13.3c-.5,0-.8-.4-.8-.8s.4-.8.8-.8h13.3c.5,0,.8.4.8.8s-.4.8-.8.8Z"/>
      <path class="st15" d="M257.7,124.3c-.4,0-.7-.2-.8-.6-.1-.4.1-.9.6-1l9.8-2.6c.4-.1.9.1,1,.6s-.1.9-.6,1l-9.8,2.6c0,0-.1,0-.2,0Z"/>
      <path class="st15" d="M267.5,113.9c0,0-.1,0-.2,0l-10-2.7c-.4-.1-.7-.6-.6-1,.1-.4.6-.7,1-.6l10,2.7c.4.1.7.6.6,1,0,.4-.4.6-.8.6Z"/>
      <path class="st5" d="M285.6,68.1c0,1.8.2,3.7.2,5.7,0,10.9-1.7,19.7-3.8,19.7s-3.8-8.8-3.8-19.7,0-3.9.2-5.7c1.2-.1,2.4-.2,3.6-.2s2.4,0,3.6.2h0Z"/>
      <path class="st5" d="M275.7,68.5v.8c0,9.6-1.5,17.4-3.3,17.4s-3.2-7.2-3.3-16.3c2.1-.8,4.3-1.5,6.6-1.9h0Z"/>
      <path class="st5" d="M294.9,70.4c-.1,9.1-1.5,16.3-3.3,16.3s-3.3-7.8-3.3-17.4v-.8c2.3.4,4.5,1.1,6.6,1.9h0Z"/>
      <path class="st5" d="M316,108.5c-9-2.6-15.6-5.9-15.1-7.6.4-1.7,7.2-1.4,15.6.5,0,.3,0,.7,0,1,0,2.1-.2,4.1-.5,6.1h0Z"/>
      <path class="st5" d="M316.5,100.6c-6.4-2.2-10.7-4.7-10.4-6.1.3-1.2,4-1.4,9.3-.6.6,2.2.9,4.4,1,6.8h0Z"/>
      <path class="st5" d="M248,108.5c9-2.6,15.6-5.9,15.1-7.6-.4-1.7-7.2-1.4-15.6.5,0,.3,0,.7,0,1,0,2.1.2,4.1.5,6.1h0Z"/>
      <path class="st5" d="M247.5,100.6c6.4-2.2,10.7-4.7,10.4-6.1-.3-1.2-4-1.4-9.3-.6-.6,2.2-.9,4.4-1,6.8h0Z"/>
      <path class="st19" d="M278.2,104.6c-.2,0-.3,0-.4-.3-.1-.2,0-.6.2-.7h0c1-.7,2-1.2,4-1.1.3,0,.5.3.5.5,0,.3-.3.5-.5.5-1.8-.1-2.5.3-3.4.9h0c0,.1-.2.1-.3.1Z"/>
      <path class="st0" d="M271,90c1.6,0,2.8,2.4,2.8,5.3s-1.3,5.3-2.8,5.3-2.8-2.4-2.8-5.3,1.3-5.3,2.8-5.3h0Z"/>
      <path class="st0" d="M293,90c1.6,0,2.8,2.4,2.8,5.3s-1.3,5.3-2.8,5.3-2.8-2.4-2.8-5.3,1.3-5.3,2.8-5.3h0Z"/>
      <path class="st2" d="M270.1,91.2c.5,0,.9.4.9.9s-.4.9-.9.9-.9-.4-.9-.9.4-.9.9-.9h0Z"/>
      <path class="st2" d="M292.3,91.2c.5,0,.9.4.9.9s-.4.9-.9.9-.9-.4-.9-.9.4-.9.9-.9h0Z"/>
    </g>
  </g>
  <g>
    <path class="st7" d="M123.8,80.9c.3-3.2-21.3-17.8-23.6-16-3.2,2.5-6.4,5.1-8.7,8.3-5.2-3.1-11.2-4.9-17.7-4.9s-11.3,1.5-16.2,4.1c-2.2-2.8-5.1-5.1-8-7.4-2.3-1.8-23.9,12.8-23.6,16,.1,1.4,9.4,6.5,16,8.9-1.6,3.9-2.5,8.2-2.5,12.7,0,17.7,13.5,32.3,30.7,34.1,1.5,2.6,5.6,2.6,7.1,0,17.2-1.8,30.7-16.4,30.7-34.1s-.8-8.3-2.2-12.1c6.6-2,17.8-8,17.9-9.6Z"/>
    <g>
      <path class="st8" d="M49.7,64.9c3.4,2.7,6.8,5.4,9.1,8.9,2.3,3.5-15.5,9.5-15.5,9.5,0,0,3.7-14.4,6.4-18.4Z"/>
      <path class="st8" d="M100.2,64.9c-3.4,2.7-6.8,5.4-9.1,8.9-2.3,3.5,15.5,9.5,15.5,9.5,0,0-3.7-14.4-6.4-18.4Z"/>
      <path class="st9" d="M73.9,136.8c18.9,0,34.3-15.4,34.3-34.3s-15.4-34.3-34.3-34.3-34.3,15.4-34.3,34.3,15.4,34.3,34.3,34.3Z"/>
      <path class="st11" d="M89.3,91.4c5.3,2.3,8.3,7,6.7,10.6-1.5,3.6-7.1,4.7-12.4,2.5-5.3-2.3-8.3-7-6.7-10.6,1.5-3.6,7.1-4.7,12.4-2.5Z"/>
      <path class="st11" d="M73.9,136.5c9.2,0,16.8-7.5,16.8-16.8s-7.5-16.8-16.8-16.8-16.8,7.5-16.8,16.8,7.5,16.8,16.8,16.8Z"/>
      <path class="st12" d="M80.8,130.2c0,0,0-.1,0-.2-2-.2-3.9-1-5.2-2.4-.7-.7-1.3-1.6-1.7-2.6-.4,1-1,1.8-1.7,2.6-1.4,1.4-3.2,2.2-5.2,2.4,0,0,0,.1,0,.2,0,7.8,13.9,7.8,13.9,0Z"/>
      <path class="st6" d="M26.1,80.9c.2,2,19.6,11.9,22.3,10,3.2-2.2,3.6-24.2,1.3-26-2.3-1.8-23.9,12.8-23.6,16Z"/>
      <path class="st12" d="M81.3,112.2c0,4.4-5.3,8.2-7.5,9.9-2.1-1.7-7.5-5.5-7.5-9.9s14.9-4.5,14.9,0Z"/>
      <path class="st6" d="M123.8,80.9c-.2,2-19.6,11.9-22.3,10-3.2-2.2-3.6-24.2-1.3-26,2.3-1.8,23.9,12.8,23.6,16Z"/>
      <path class="st17" d="M73.2,121.8c0-.4.3-.7.7-.7s.7.3.7.7c0,2.3-.9,4.4-2.4,5.9-1.5,1.5-3.6,2.4-5.9,2.4s-4.4-.9-5.9-2.4c-1.5-1.5-2.4-3.6-2.4-5.9s.3-.7.7-.7.7.3.7.7c0,1.9.8,3.6,2,4.9,1.3,1.3,3,2,4.9,2s3.6-.8,4.9-2c1.3-1.3,2-3,2-4.9Z"/>
      <path class="st17" d="M73.2,121.8c0-.4.3-.7.7-.7s.7.3.7.7c0,1.9.8,3.6,2,4.9,1.3,1.3,3,2,4.9,2s3.6-.8,4.9-2c1.3-1.3,2-3,2-4.9s.3-.7.7-.7.7.3.7.7c0,2.3-.9,4.4-2.4,5.9-1.5,1.5-3.6,2.4-5.9,2.4s-4.4-.9-5.9-2.4c-1.5-1.5-2.4-3.6-2.4-5.9Z"/>
      <path class="st4" d="M77.9,129.3v5.2c0,5.4-8.2,5.4-8.2,0v-5.2c.9-.4,1.7-1,2.3-1.6.7-.7,1.3-1.6,1.7-2.6.4,1,1,1.8,1.7,2.6.7.7,1.5,1.2,2.3,1.6Z"/>
      <path class="st20" d="M67.9,112.4c-.2,0-.3,0-.4-.3-.1-.2,0-.6.2-.7h.2c1.5-1,2.9-1.8,5.9-1.6.3,0,.5.3.5.5,0,.3-.3.5-.5.5-2.7-.2-3.9.5-5.3,1.3h-.2c0,.2-.2.2-.3.2Z"/>
      <g>
        <path class="st12" d="M62.9,102.9c1.5,0,2.8-2.3,2.8-5.2s-1.3-5.2-2.8-5.2-2.8,2.3-2.8,5.2,1.3,5.2,2.8,5.2Z"/>
        <path class="st12" d="M84.8,102.9c1.5,0,2.8-2.3,2.8-5.2s-1.3-5.2-2.8-5.2-2.8,2.3-2.8,5.2,1.3,5.2,2.8,5.2Z"/>
      </g>
      <path class="st2" d="M62,95.4c.5,0,.9-.4.9-.9s-.4-.9-.9-.9-.9.4-.9.9.4.9.9.9Z"/>
      <path class="st2" d="M84,95.4c.5,0,.9-.4.9-.9s-.4-.9-.9-.9-.9.4-.9.9.4.9.9.9Z"/>
    </g>
  </g>
  <g>
    <path class="st7" d="M231.6,80.9c.3-3.2-21.3-17.8-23.6-16-3.2,2.5-6.4,5.1-8.7,8.3-5.2-3.1-11.2-4.9-17.7-4.9s-11.3,1.5-16.2,4.1c-2.2-2.8-5.1-5.1-8-7.4-2.3-1.8-23.9,12.8-23.6,16,.1,1.4,9.4,6.5,16,8.9-1.6,3.9-2.5,8.2-2.5,12.7,0,17.7,13.5,32.3,30.7,34.1,1.5,2.6,5.6,2.6,7.1,0,17.2-1.8,30.7-16.4,30.7-34.1s-.8-8.3-2.2-12.1c6.6-2,17.8-8,17.9-9.6Z"/>
    <g>
      <path class="st8" d="M157.4,64.9c3.4,2.7,6.8,5.4,9.1,8.9,2.3,3.5-15.5,9.5-15.5,9.5,0,0,3.7-14.4,6.4-18.4Z"/>
      <path class="st8" d="M208,64.9c-3.4,2.7-6.8,5.4-9.1,8.9-2.3,3.5,15.5,9.5,15.5,9.5,0,0-3.7-14.4-6.4-18.4Z"/>
      <path class="st9" d="M181.6,136.8c18.9,0,34.3-15.4,34.3-34.3s-15.4-34.3-34.3-34.3-34.3,15.4-34.3,34.3,15.4,34.3,34.3,34.3Z"/>
      <path class="st11" d="M197.1,91.4c5.3,2.3,8.3,7,6.7,10.6-1.5,3.6-7.1,4.7-12.4,2.5-5.3-2.3-8.3-7-6.7-10.6,1.5-3.6,7.1-4.7,12.4-2.5Z"/>
      <path class="st11" d="M181.6,136.5c9.2,0,16.8-7.5,16.8-16.8s-7.5-16.8-16.8-16.8-16.8,7.5-16.8,16.8,7.5,16.8,16.8,16.8Z"/>
      <path class="st12" d="M188.6,130.2c0,0,0-.1,0-.2-2-.2-3.9-1-5.2-2.4-.7-.7-1.3-1.6-1.7-2.6-.4,1-1,1.8-1.7,2.6-1.4,1.4-3.2,2.2-5.2,2.4,0,0,0,.1,0,.2,0,7.8,13.9,7.8,13.9,0Z"/>
      <path class="st6" d="M133.8,80.9c.2,2,19.6,11.9,22.3,10,3.2-2.2,3.6-24.2,1.3-26-2.3-1.8-23.9,12.8-23.6,16Z"/>
      <path class="st12" d="M189.1,112.2c0,4.4-5.3,8.2-7.5,9.9-2.1-1.7-7.5-5.5-7.5-9.9s14.9-4.5,14.9,0Z"/>
      <path class="st6" d="M231.6,80.9c-.2,2-19.6,11.9-22.3,10-3.2-2.2-3.6-24.2-1.3-26,2.3-1.8,23.9,12.8,23.6,16Z"/>
      <path class="st17" d="M180.9,121.8c0-.4.3-.7.7-.7s.7.3.7.7c0,2.3-.9,4.4-2.4,5.9-1.5,1.5-3.6,2.4-5.9,2.4s-4.4-.9-5.9-2.4c-1.5-1.5-2.4-3.6-2.4-5.9s.3-.7.7-.7.7.3.7.7c0,1.9.8,3.6,2,4.9,1.3,1.3,3,2,4.9,2s3.6-.8,4.9-2c1.3-1.3,2-3,2-4.9Z"/>
      <path class="st17" d="M180.9,121.8c0-.4.3-.7.7-.7s.7.3.7.7c0,1.9.8,3.6,2,4.9,1.3,1.3,3,2,4.9,2s3.6-.8,4.9-2c1.3-1.3,2-3,2-4.9s.3-.7.7-.7.7.3.7.7c0,2.3-.9,4.4-2.4,5.9-1.5,1.5-3.6,2.4-5.9,2.4s-4.4-.9-5.9-2.4c-1.5-1.5-2.4-3.6-2.4-5.9Z"/>
      <path class="st4" d="M185.7,129.3v5.2c0,5.4-8.2,5.4-8.2,0v-5.2c.9-.4,1.7-1,2.3-1.6.7-.7,1.3-1.6,1.7-2.6.4,1,1,1.8,1.7,2.6.7.7,1.5,1.2,2.3,1.6Z"/>
      <path class="st20" d="M175.7,112.4c-.2,0-.3,0-.4-.3-.1-.2,0-.6.2-.7h.2c1.5-1,2.9-1.8,5.9-1.6.3,0,.5.3.5.5,0,.3-.3.5-.5.5-2.7-.2-3.9.5-5.3,1.3h-.2c0,.2-.2.2-.3.2Z"/>
      <g>
        <path class="st12" d="M170.7,102.9c1.5,0,2.8-2.3,2.8-5.2s-1.3-5.2-2.8-5.2-2.8,2.3-2.8,5.2,1.3,5.2,2.8,5.2Z"/>
        <path class="st12" d="M192.6,102.9c1.5,0,2.8-2.3,2.8-5.2s-1.3-5.2-2.8-5.2-2.8,2.3-2.8,5.2,1.3,5.2,2.8,5.2Z"/>
      </g>
      <path class="st2" d="M169.8,95.4c.5,0,.9-.4.9-.9s-.4-.9-.9-.9-.9.4-.9.9.4.9.9.9Z"/>
      <path class="st2" d="M191.8,95.4c.5,0,.9-.4.9-.9s-.4-.9-.9-.9-.9.4-.9.9.4.9.9.9Z"/>
    </g>
  </g>
  <g>
    <path class="st15" d="M332.5,92.3c0,.4,0,.8.2,1.3,0,0,0,0,0,.1.1.9.3,1.8.6,2.7v.2c.2.4.3.7.4,1.2v.2c.4.8.7,1.7,1.1,2.5v.3c.3.3.5.6.6.9l.2.3c.5.8,1,1.5,1.5,2.2l.2.3c.2.3.4.5.7.8l.3.3c.3.3.6.7,1,1,8.6,8.3,34.2,32.9,34.5,33.2.8.8,1.8,1.1,2.8,1.1s2.1-.4,2.9-1.2c.2-.3,24.8-25.3,32.9-33.7.3-.3.6-.7.9-1,0,0,.1-.2.2-.3h0c.2-.3.4-.6.6-.8l.3-.3c.2-.3.4-.6.6-.9v-.2c.4-.4.6-.7.8-1.2v-.2c.3-.3.4-.7.6-1v-.3c.3-.3.4-.6.6-.9,0,0,0,0,0,0v-.2c.4-.8.7-1.7.9-2.5,0,0,0-.1,0-.2,0-.4.2-.8.3-1.2h0c0-.5.1-.9.2-1.4,0,0,0,0,0,0,.1-.9.2-1.8.2-2.8,0-.4,0-.9,0-1.3,0,0,0,0,0,0,0-1.4-.3-2.7-.6-4.1-1-4.2-3.2-8-6.3-11-4.3-4.2-10-6.4-16-6.3-6,.1-11.6,2.6-15.7,6.9l-4.3,4.5-5.3-5.1c-8.9-8.6-23.1-8.3-31.7.6-2.8,2.9-4.7,6.4-5.6,10.3-.2.9-.4,1.9-.5,2.8,0,0,0,0,0,0,0,.5,0,.9-.1,1.4h0s0,0,0,0c0,.9,0,1.9,0,2.7v.2Z"/>
    <g>
      <path class="st21" d="M376.6,136.8s-25.8-24.8-34.4-33.2c-7.3-7.1-7.5-18.6-.5-25.9,7-7.3,18.6-7.5,25.9-.5l8.2,7.9,7.2-7.4c7-7.3,18.6-7.5,25.9-.5,7.3,7,7.6,18.7.5,25.9-8.2,8.4-32.8,33.7-32.8,33.7h0Z"/>
      <path class="st18" d="M409.4,94.6c-8.2,8.4-32.8,33.7-32.8,33.7,0,0-25.8-24.8-34.4-33.2-2.6-2.5-4.3-5.7-5.1-9-1.5,6.1.3,12.8,5.1,17.5,8.6,8.4,34.4,33.2,34.4,33.2,0,0,24.7-25.2,32.8-33.7,4.5-4.7,6-11.1,4.6-17-.7,3.1-2.3,6-4.6,8.4Z"/>
      <path class="st14" d="M371.9,90h0c-1.2,1.7-3.6,2-5.3.8l-10-7.8c-1.7-1.2-2-3.6-.8-5.3h0c1.2-1.7,3.6-2,5.3-.8l10,7.8c1.7,1.2,2,3.6.8,5.3Z"/>
      <path class="st14" d="M381.1,88.3h0c-1.4-1.6-1.2-3.9.3-5.3l3.8-3.4c1.6-1.4,3.9-1.2,5.3.3h0c1.4,1.6,1.2,3.9-.3,5.3l-3.8,3.4c-1.6,1.4-3.9,1.2-5.3-.3Z"/>
      <path class="st16" d="M369,95.2v-2.6c0-2.5-2-4.5-4.5-4.5h0c-2.5,0-4.5,2-4.5,4.5v1.1"/>
      <path class="st16" d="M391,93.7v-1.1c0-2.5-2-4.5-4.5-4.5h0c-2.5,0-4.5,2-4.5,4.5v2.6"/>
      <path class="st15" d="M375.6,102.4c-7.7,0-14.6-2.7-19.6-7-.7-.6-1.8,0-1.6.9,2.1,10.4,10.8,18.3,21.2,18.3s19.1-7.8,21.2-18.3c.2-.9-.9-1.5-1.6-.9-5,4.3-11.9,7-19.6,7Z"/>
    </g>
  </g>
</svg>