<?xml version="1.0" encoding="UTF-8"?>
<svg id="Capa_1" xmlns="http://www.w3.org/2000/svg" version="1.1" viewBox="0 0 206.3 187.2">
  <!-- Generator: Adobe Illustrator 30.2.1, SVG Export Plug-In . SVG Version: 2.1.1 Build 1)  -->
  <defs>
    <style>
      .st0, .st1 {
        fill: #fff;
      }

      .st0, .st2, .st3, .st4 {
        fill-rule: evenodd;
      }

      .st5 {
        fill: none;
        stroke: #fff;
        stroke-miterlimit: 10;
        stroke-width: 5.7px;
      }

      .st2 {
        fill: #edccd1;
      }

      .st3 {
        fill: #d99ea6;
      }

      .st6 {
        fill: #989898;
      }

      .st4 {
        fill: #4f4f4e;
      }
    </style>
  </defs>
  <path class="st5" d="M158.7,11.1c-20.6-6.7-36.9,35.1-37.9,63.9-5.5-1.9-11.5-3-17.6-3s-12.1,1.1-17.6,3c-1-28.8-17.2-70.6-37.9-63.9-23.2,7.6-5.7,61.2,13.3,81.7-7,9-11.2,20.3-11.2,32.6,0,29.4,24,53.4,53.4,53.4s53.4-24,53.4-53.4-4.2-23.5-11.2-32.6c19-20.4,36.5-74.1,13.3-81.7Z"/>
  <g>
    <g>
      <path class="st2" d="M47.7,11.1c-29.8,9.8,7.8,96.1,29.2,89.1,21.3-7,.7-98.9-29.2-89.1Z"/>
      <path class="st3" d="M52.5,25.5c-19.1,6.2,10,72.7,23.6,68.3,13.6-4.4-4.6-74.5-23.6-68.3Z"/>
      <path class="st2" d="M158.7,11.1c29.8,9.8-7.8,96.1-29.2,89.1-21.3-7-.7-98.9,29.2-89.1Z"/>
      <path class="st3" d="M153.8,25.5c19.1,6.2-10,72.7-23.6,68.3-13.6-4.4,4.6-74.5,23.6-68.3Z"/>
    </g>
    <path class="st3" d="M103.2,178.7c29.4,0,53.4-24,53.4-53.4s-24-53.4-53.4-53.4-53.4,24-53.4,53.4,24,53.4,53.4,53.4Z"/>
    <g>
      <g>
        <path class="st4" d="M86.1,126.6c2.4,0,4.4-3.7,4.4-8.1s-2-8.1-4.4-8.1-4.4,3.7-4.4,8.1,2,8.1,4.4,8.1Z"/>
        <path class="st4" d="M120.2,126.6c2.4,0,4.4-3.7,4.4-8.1s-2-8.1-4.4-8.1-4.4,3.7-4.4,8.1,2,8.1,4.4,8.1Z"/>
      </g>
      <path class="st0" d="M84.7,114.9c.8,0,1.4-.6,1.4-1.4s-.6-1.4-1.4-1.4-1.4.6-1.4,1.4.6,1.4,1.4,1.4Z"/>
      <path class="st0" d="M119,114.9c.8,0,1.4-.6,1.4-1.4s-.6-1.4-1.4-1.4-1.4.6-1.4,1.4.6,1.4,1.4,1.4Z"/>
    </g>
    <g>
      <rect class="st1" x="95.4" y="147.6" width="7.1" height="25.3" rx="3.5" ry="3.5"/>
      <rect class="st1" x="103.8" y="147.6" width="7.1" height="25.3" rx="3.5" ry="3.5"/>
    </g>
    <g>
      <path class="st2" d="M91.3,165.3c9.3,0,16.9-7.6,16.9-16.9s-7.6-16.9-16.9-16.9-16.9,7.6-16.9,16.9,7.6,16.9,16.9,16.9Z"/>
      <path class="st2" d="M115,165.3c9.3,0,16.9-7.6,16.9-16.9s-7.6-16.9-16.9-16.9-16.9,7.6-16.9,16.9,7.6,16.9,16.9,16.9Z"/>
    </g>
    <g>
      <path class="st4" d="M111.3,133.4c0,4.8-5.8,8.9-8.1,10.8-2.3-1.8-8.1-5.9-8.1-10.8s16.2-4.9,16.2,0Z"/>
      <path class="st6" d="M97.3,134.2c-.3,0-.5-.1-.7-.4-.2-.4,0-.9.3-1.1h.2c1.5-1,3-1.9,6.2-1.7.4,0,.8.4.7.8,0,.4-.4.8-.8.7-2.7-.2-3.8.5-5.3,1.3h-.2c-.1.2-.3.2-.4.2Z"/>
    </g>
    <g>
      <g>
        <path class="st1" d="M87.5,149.4h-31c-.7,0-1.3-.6-1.3-1.3s.6-1.3,1.3-1.3h31c.7,0,1.3.6,1.3,1.3s-.6,1.3-1.3,1.3Z"/>
        <path class="st1" d="M65.8,159.4c-.6,0-1.1-.4-1.3-1-.1-.7.3-1.4,1-1.5l22.9-4.1c.7-.1,1.4.3,1.5,1,.1.7-.3,1.4-1,1.5l-22.9,4.1c0,0-.2,0-.2,0Z"/>
        <path class="st1" d="M88.7,143.4c0,0-.1,0-.2,0l-23.4-4.1c-.7-.1-1.2-.8-1-1.5.1-.7.8-1.2,1.5-1l23.4,4.1c.7.1,1.2.8,1,1.5-.1.6-.6,1-1.3,1Z"/>
      </g>
      <g>
        <path class="st1" d="M149.8,149.4h-31c-.7,0-1.3-.6-1.3-1.3s.6-1.3,1.3-1.3h31c.7,0,1.3.6,1.3,1.3s-.6,1.3-1.3,1.3Z"/>
        <path class="st1" d="M140.5,159.4c0,0-.1,0-.2,0l-22.9-4.1c-.7-.1-1.2-.8-1-1.5.1-.7.8-1.2,1.5-1l22.9,4.1c.7.1,1.2.8,1,1.5-.1.6-.6,1-1.3,1Z"/>
        <path class="st1" d="M117.7,143.4c-.6,0-1.1-.4-1.3-1-.1-.7.3-1.4,1-1.5l23.4-4.1c.7-.1,1.4.3,1.5,1,.1.7-.3,1.4-1,1.5l-23.4,4.1c0,0-.2,0-.2,0Z"/>
      </g>
    </g>
  </g>
</svg>