<?xml version="1.0" encoding="UTF-8" standalone="no"?>
<svg
   id="Capa_1"
   version="1.1"
   viewBox="0 0 595.3 198.4"
   sodipodi:docname="STICKERS-14.svg"
   inkscape:version="1.4.4 (dcaf3e7, 2026-05-05)"
   xmlns:inkscape="http://www.inkscape.org/namespaces/inkscape"
   xmlns:sodipodi="http://sodipodi.sourceforge.net/DTD/sodipodi-0.dtd"
   xmlns="http://www.w3.org/2000/svg"
   xmlns:svg="http://www.w3.org/2000/svg">
  <sodipodi:namedview
     id="namedview67"
     pagecolor="#ffffff"
     bordercolor="#000000"
     borderopacity="0.25"
     inkscape:showpageshadow="2"
     inkscape:pageopacity="0.0"
     inkscape:pagecheckerboard="0"
     inkscape:deskcolor="#d1d1d1"
     inkscape:zoom="0.90509668"
     inkscape:cx="299.41553"
     inkscape:cy="85.626212"
     inkscape:current-layer="Capa_1" />
  <!-- Generator: Adobe Illustrator 30.2.1, SVG Export Plug-In . SVG Version: 2.1.1 Build 1)  -->
  <defs
     id="defs1">
    <style
       id="style1">
      .st0, .st1, .st2, .st3, .st4, .st5, .st6, .st7, .st8, .st9, .st10, .st11, .st12 {
        fill-rule: evenodd;
      }

      .st0, .st13 {
        fill: #4e4e4e;
      }

      .st1 {
        fill: #e7eff6;
      }

      .st14 {
        fill: #d4762a;
        opacity: .4;
      }

      .st2, .st15 {
        fill: #fff;
      }

      .st3 {
        fill: #c3d1db;
      }

      .st4 {
        fill: #dd9457;
      }

      .st5 {
        fill: #a7bcc9;
      }

      .st6 {
        fill: #789d9c;
      }

      .st16 {
        fill: #533b1b;
      }

      .st7 {
        stroke-linecap: round;
        stroke-linejoin: round;
      }

      .st7, .st10 {
        fill: none;
        stroke: #fff;
        stroke-width: 5.7px;
      }

      .st17, .st12 {
        fill: #4f4f4e;
      }

      .st8 {
        fill: #b8cccd;
      }

      .st18 {
        fill: #f6da70;
      }

      .st9 {
        fill: #a1bbbc;
      }

      .st19 {
        fill: #9a9a99;
      }

      .st20 {
        fill: #fae8a4;
      }

      .st10 {
        stroke-miterlimit: 10;
      }

      .st21 {
        fill: #989898;
      }

      .st11 {
        fill: #e9f3f4;
      }

      .st22 {
        fill: #060606;
        opacity: 0;
      }
    </style>
  </defs>
  <g
     id="g30">
    <path
       class="st10"
       d="M207.1,106.4c0-.2,0-.4,0-.6,0-.4,0-.8,0-1.1,0-.2,0-.3,0-.5,0-.6,0-1.1,0-1.7s0-.7,0-1c0,0,0,0,0,0,0-.3,0-.6,0-.8,0,0,0,0,0,0,0-.2,0-.3,0-.5,0-.4,0-.8,0-1.2,0,0,0,0,0,0-.4-4.3-1.7-8.4-3.6-12,.7-.7,1.4-1.5,2.1-2.4,5.6-7.5,6.2-17.2,2.4-25.1-8.7-1.4-17.8,1.9-23.4,9.4-.3.3-.5.7-.7,1,0,0-.1,0-.2,0-.3-.1-.7-.2-1-.3-.2,0-.4-.1-.6-.2-.3,0-.7-.2-1-.3-.2,0-.4-.1-.7-.2-.3,0-.7-.1-1-.2-.1,0-.2,0-.3,0h0c-2-.4-4.1-.6-6.3-.6s-4.2.2-6.3.6h0c0,0-.2,0-.3,0-.4,0-.7.1-1.1.2-.2,0-.4,0-.6.1-.4,0-.8.2-1.2.3-.2,0-.3,0-.5.1-.4.1-.8.2-1.2.4-.2,0-.3.1-.5.2,0,0,0,0,0,0-.3-.4-.5-.8-.8-1.2-5.6-7.5-14.8-10.8-23.4-9.4-3.8,7.9-3.2,17.6,2.4,25.1.7,1,1.5,1.9,2.4,2.7-2,4-3.2,8.4-3.5,13,0,.1,0,.3,0,.4,0,0,0,0,0,0,0,.3,0,.5,0,.8,0,0,0,0,0,0,0,.3,0,.7,0,1,0,.6,0,1.1,0,1.7,0,.2,0,.3,0,.5,0,.4,0,.8,0,1.1,0,.2,0,.4,0,.6,0,.3,0,.7.1,1,0,.2,0,.4.1.7,0,.2,0,.3,0,.5,0,0,0,0,0,0,2.9,16.2,17,28.4,34,28.4s31.1-12.3,34-28.4c0,0,0,0,0,0,0-.2,0-.3,0-.5,0-.2,0-.4,0-.6,0-.3,0-.7.1-1Z"
       id="path1" />
    <g
       id="g29">
      <path
         class="st3"
         d="M162.8,93.8c-8.7,1.4-17.8-1.9-23.4-9.4-5.6-7.5-6.2-17.2-2.4-25.1,8.7-1.4,17.8,1.9,23.4,9.4,5.6,7.5,6.2,17.2,2.4,25.1h0Z"
         id="path2" />
      <path
         class="st1"
         d="M157.7,87c-4.8.5-10-1.7-13.4-6.3-3.4-4.6-4.1-10.2-2.2-14.6,4.8-.5,10,1.7,13.4,6.3,3.4,4.6,4.1,10.2,2.2,14.6h0Z"
         id="path3" />
      <path
         class="st3"
         d="M182.2,93.8c8.7,1.4,17.8-1.9,23.4-9.4,5.6-7.5,6.2-17.2,2.4-25.1-8.7-1.4-17.8,1.9-23.4,9.4-5.6,7.5-6.2,17.2-2.4,25.1h0Z"
         id="path4" />
      <path
         class="st1"
         d="M187.3,87c4.8.5,10-1.7,13.4-6.3,3.4-4.6,4.1-10.2,2.2-14.6-4.8-.5-10,1.7-13.4,6.3-3.4,4.6-4.1,10.2-2.2,14.6h0Z"
         id="path5" />
      <path
         class="st3"
         d="M172.8,67.9c19.1,0,34.6,15.5,34.6,34.5s-15.5,34.5-34.6,34.5-34.6-15.4-34.6-34.5,15.5-34.5,34.6-34.5h0Z"
         id="path6" />
      <path
         class="st1"
         d="M172.8,103.9c7.2,0,13.1,5.9,13.1,13.1s-5.9,13.1-13.1,13.1-13.1-5.9-13.1-13.1,5.9-13.1,13.1-13.1h0Z"
         id="path7" />
      <path
         class="st13"
         d="M172.8,115.6c-.5,0-.8-.4-.8-.8v-8.5c0-.5.4-.8.8-.8s.8.4.8.8v8.5c0,.5-.4.8-.8.8Z"
         id="path8" />
      <path
         class="st0"
         d="M178,104.1c0,3.1-3.7,5.8-5.3,7-1.5-1.2-5.3-3.8-5.3-7s10.5-3.2,10.5,0h0Z"
         id="path9" />
      <path
         class="st13"
         d="M168.7,119.6c-2.7,0-4.9-2.2-4.9-4.9s.4-.8.8-.8.8.4.8.8c0,1.8,1.4,3.2,3.2,3.2s3.2-1.4,3.2-3.2.4-.8.8-.8.8.4.8.8c0,2.7-2.2,4.9-4.9,4.9Z"
         id="path10" />
      <path
         class="st13"
         d="M176.8,119.6c-2.7,0-4.9-2.2-4.9-4.9s.4-.8.8-.8.8.4.8.8c0,1.8,1.4,3.2,3.2,3.2s3.2-1.4,3.2-3.2.4-.8.8-.8.8.4.8.8c0,2.7-2.2,4.9-4.9,4.9Z"
         id="path11" />
      <path
         class="st15"
         d="M201.1,117.8h-13.3c-.5,0-.8-.4-.8-.8s.4-.8.8-.8h13.3c.5,0,.8.4.8.8s-.4.8-.8.8Z"
         id="path12" />
      <path
         class="st15"
         d="M197.1,124.3c0,0-.1,0-.2,0l-9.8-2.6c-.4-.1-.7-.6-.6-1,.1-.4.6-.7,1-.6l9.8,2.6c.4.1.7.6.6,1,0,.4-.4.6-.8.6Z"
         id="path13" />
      <path
         class="st15"
         d="M187.3,113.9c-.4,0-.7-.2-.8-.6-.1-.4.1-.9.6-1l10-2.7c.4-.1.9.1,1,.6.1.4-.1.9-.6,1l-10,2.7c0,0-.1,0-.2,0Z"
         id="path14" />
      <path
         class="st15"
         d="M157.7,117.8h-13.3c-.5,0-.8-.4-.8-.8s.4-.8.8-.8h13.3c.5,0,.8.4.8.8s-.4.8-.8.8Z"
         id="path15" />
      <path
         class="st15"
         d="M148.5,124.3c-.4,0-.7-.2-.8-.6-.1-.4.1-.9.6-1l9.8-2.6c.4-.1.9.1,1,.6s-.1.9-.6,1l-9.8,2.6c0,0-.1,0-.2,0Z"
         id="path16" />
      <path
         class="st15"
         d="M158.2,113.9c0,0-.1,0-.2,0l-10-2.7c-.4-.1-.7-.6-.6-1,.1-.4.6-.7,1-.6l10,2.7c.4.1.7.6.6,1,0,.4-.4.6-.8.6Z"
         id="path17" />
      <path
         class="st5"
         d="M176.4,68.1c0,1.8.2,3.7.2,5.7,0,10.9-1.7,19.7-3.8,19.7s-3.8-8.8-3.8-19.7,0-3.9.2-5.7c1.2-.1,2.4-.2,3.6-.2s2.4,0,3.6.2h0Z"
         id="path18" />
      <path
         class="st5"
         d="M166.5,68.5v.8c0,9.6-1.5,17.4-3.3,17.4s-3.2-7.2-3.3-16.3c2.1-.8,4.3-1.5,6.6-1.9h0Z"
         id="path19" />
      <path
         class="st5"
         d="M185.7,70.4c-.1,9.1-1.5,16.3-3.3,16.3s-3.3-7.8-3.3-17.4v-.8c2.3.4,4.5,1.1,6.6,1.9h0Z"
         id="path20" />
      <path
         class="st5"
         d="M206.8,108.5c-9-2.6-15.6-5.9-15.1-7.6.4-1.7,7.2-1.4,15.6.5,0,.3,0,.7,0,1,0,2.1-.2,4.1-.5,6.1h0Z"
         id="path21" />
      <path
         class="st5"
         d="M207.3,100.6c-6.4-2.2-10.7-4.7-10.4-6.1.3-1.2,4-1.4,9.3-.6.6,2.2.9,4.4,1,6.8h0Z"
         id="path22" />
      <path
         class="st5"
         d="M138.7,108.5c9-2.6,15.6-5.9,15.1-7.6-.4-1.7-7.2-1.4-15.6.5,0,.3,0,.7,0,1,0,2.1.2,4.1.5,6.1h0Z"
         id="path23" />
      <path
         class="st5"
         d="M138.3,100.6c6.4-2.2,10.7-4.7,10.4-6.1-.3-1.2-4-1.4-9.3-.6-.6,2.2-.9,4.4-1,6.8h0Z"
         id="path24" />
      <path
         class="st19"
         d="M169,104.6c-.2,0-.3,0-.4-.3-.1-.2,0-.6.2-.7h0c1-.7,2-1.2,4-1.1.3,0,.5.3.5.5,0,.3-.3.5-.5.5-1.8-.1-2.5.3-3.4.9h0c0,.1-.2.1-.3.1Z"
         id="path25" />
      <path
         class="st0"
         d="M161.7,90c1.6,0,2.8,2.4,2.8,5.3s-1.3,5.3-2.8,5.3-2.8-2.4-2.8-5.3,1.3-5.3,2.8-5.3h0Z"
         id="path26" />
      <path
         class="st0"
         d="M183.8,90c1.6,0,2.8,2.4,2.8,5.3s-1.3,5.3-2.8,5.3-2.8-2.4-2.8-5.3,1.3-5.3,2.8-5.3h0Z"
         id="path27" />
      <path
         class="st2"
         d="M160.8,91.2c.5,0,.9.4.9.9s-.4.9-.9.9-.9-.4-.9-.9.4-.9.9-.9h0Z"
         id="path28" />
      <path
         class="st2"
         d="M183,91.2c.5,0,.9.4.9.9s-.4.9-.9.9-.9-.4-.9-.9.4-.9.9-.9h0Z"
         id="path29" />
    </g>
  </g>
  <g
     id="g48">
    <path
       class="st7"
       d="M123.8,80.9c.3-3.2-21.3-17.8-23.6-16-3.2,2.5-6.4,5.1-8.7,8.3-5.2-3.1-11.2-4.9-17.7-4.9s-11.3,1.5-16.2,4.1c-2.2-2.8-5.1-5.1-8-7.4-2.3-1.8-23.9,12.8-23.6,16,.1,1.4,9.4,6.5,16,8.9-1.6,3.9-2.5,8.2-2.5,12.7,0,17.7,13.5,32.3,30.7,34.1,1.5,2.6,5.6,2.6,7.1,0,17.2-1.8,30.7-16.4,30.7-34.1s-.8-8.3-2.2-12.1c6.6-2,17.8-8,17.9-9.6Z"
       id="path30" />
    <g
       id="g47">
      <path
         class="st8"
         d="M49.7,64.9c3.4,2.7,6.8,5.4,9.1,8.9,2.3,3.5-15.5,9.5-15.5,9.5,0,0,3.7-14.4,6.4-18.4Z"
         id="path31" />
      <path
         class="st8"
         d="M100.2,64.9c-3.4,2.7-6.8,5.4-9.1,8.9-2.3,3.5,15.5,9.5,15.5,9.5,0,0-3.7-14.4-6.4-18.4Z"
         id="path32" />
      <path
         class="st9"
         d="M73.9,136.8c18.9,0,34.3-15.4,34.3-34.3s-15.4-34.3-34.3-34.3-34.3,15.4-34.3,34.3,15.4,34.3,34.3,34.3Z"
         id="path33" />
      <path
         class="st11"
         d="M89.3,91.4c5.3,2.3,8.3,7,6.7,10.6-1.5,3.6-7.1,4.7-12.4,2.5-5.3-2.3-8.3-7-6.7-10.6,1.5-3.6,7.1-4.7,12.4-2.5Z"
         id="path34" />
      <path
         class="st11"
         d="M73.9,136.5c9.2,0,16.8-7.5,16.8-16.8s-7.5-16.8-16.8-16.8-16.8,7.5-16.8,16.8,7.5,16.8,16.8,16.8Z"
         id="path35" />
      <path
         class="st12"
         d="M80.8,130.2c0,0,0-.1,0-.2-2-.2-3.9-1-5.2-2.4-.7-.7-1.3-1.6-1.7-2.6-.4,1-1,1.8-1.7,2.6-1.4,1.4-3.2,2.2-5.2,2.4,0,0,0,.1,0,.2,0,7.8,13.9,7.8,13.9,0Z"
         id="path36" />
      <path
         class="st6"
         d="M26.1,80.9c.2,2,19.6,11.9,22.3,10,3.2-2.2,3.6-24.2,1.3-26-2.3-1.8-23.9,12.8-23.6,16Z"
         id="path37" />
      <path
         class="st12"
         d="M81.3,112.2c0,4.4-5.3,8.2-7.5,9.9-2.1-1.7-7.5-5.5-7.5-9.9s14.9-4.5,14.9,0Z"
         id="path38" />
      <path
         class="st6"
         d="M123.8,80.9c-.2,2-19.6,11.9-22.3,10-3.2-2.2-3.6-24.2-1.3-26,2.3-1.8,23.9,12.8,23.6,16Z"
         id="path39" />
      <path
         class="st17"
         d="M73.2,121.8c0-.4.3-.7.7-.7s.7.3.7.7c0,2.3-.9,4.4-2.4,5.9-1.5,1.5-3.6,2.4-5.9,2.4s-4.4-.9-5.9-2.4c-1.5-1.5-2.4-3.6-2.4-5.9s.3-.7.7-.7.7.3.7.7c0,1.9.8,3.6,2,4.9,1.3,1.3,3,2,4.9,2s3.6-.8,4.9-2c1.3-1.3,2-3,2-4.9Z"
         id="path40" />
      <path
         class="st17"
         d="M73.2,121.8c0-.4.3-.7.7-.7s.7.3.7.7c0,1.9.8,3.6,2,4.9,1.3,1.3,3,2,4.9,2s3.6-.8,4.9-2c1.3-1.3,2-3,2-4.9s.3-.7.7-.7.7.3.7.7c0,2.3-.9,4.4-2.4,5.9-1.5,1.5-3.6,2.4-5.9,2.4s-4.4-.9-5.9-2.4c-1.5-1.5-2.4-3.6-2.4-5.9Z"
         id="path41" />
      <path
         class="st4"
         d="M77.9,129.3v5.2c0,5.4-8.2,5.4-8.2,0v-5.2c.9-.4,1.7-1,2.3-1.6.7-.7,1.3-1.6,1.7-2.6.4,1,1,1.8,1.7,2.6.7.7,1.5,1.2,2.3,1.6Z"
         id="path42" />
      <path
         class="st21"
         d="M67.9,112.4c-.2,0-.3,0-.4-.3-.1-.2,0-.6.2-.7h.2c1.5-1,2.9-1.8,5.9-1.6.3,0,.5.3.5.5,0,.3-.3.5-.5.5-2.7-.2-3.9.5-5.3,1.3h-.2c0,.2-.2.2-.3.2Z"
         id="path43" />
      <g
         id="g45">
        <path
           class="st12"
           d="M62.9,102.9c1.5,0,2.8-2.3,2.8-5.2s-1.3-5.2-2.8-5.2-2.8,2.3-2.8,5.2,1.3,5.2,2.8,5.2Z"
           id="path44" />
        <path
           class="st12"
           d="M84.8,102.9c1.5,0,2.8-2.3,2.8-5.2s-1.3-5.2-2.8-5.2-2.8,2.3-2.8,5.2,1.3,5.2,2.8,5.2Z"
           id="path45" />
      </g>
      <path
         class="st2"
         d="M62,95.4c.5,0,.9-.4.9-.9s-.4-.9-.9-.9-.9.4-.9.9.4.9.9.9Z"
         id="path46" />
      <path
         class="st2"
         d="M84,95.4c.5,0,.9-.4.9-.9s-.4-.9-.9-.9-.9.4-.9.9.4.9.9.9Z"
         id="path47" />
    </g>
  </g>
  <g
     id="g67">
    <path
       class="st15"
       d="M300,90.7c0-.2,0-.4-.1-.6,0-.2,0-.4-.2-.6,0-.2-.1-.4-.2-.6,0-.2-.1-.4-.2-.6,0-.2-.2-.4-.2-.5,0-.2-.2-.4-.3-.5,0-.2-.2-.3-.3-.5-.1-.2-.2-.3-.4-.5-.1-.1-.2-.3-.3-.4-.1-.1-.3-.3-.4-.4h0c-.1-.2-.3-.3-.4-.5-.1-.1-.3-.2-.4-.4h0c-.2-.2-.3-.3-.5-.4-.2-.1-.3-.2-.5-.3h0c-.2-.2-.3-.2-.5-.3-.2,0-.4-.2-.6-.2h-.1c-.2-.1-.3-.2-.5-.2-.4-.1-.9-.2-1.3-.3l-8.5-1.4c-3.8-.6-7.2-3.1-9-6.5l-3.9-7.7c-1.6-3.2-4.9-5.2-8.4-5.2s-6.8,2-8.4,5.2l-3.9,7.7c-1.8,3.5-5.1,5.9-9,6.5l-8.5,1.4c-3.5.6-6.4,3-7.5,6.4-1.1,3.4-.2,7.1,2.3,9.6l6.1,6.1c2.7,2.8,4,6.7,3.4,10.6l-1.3,8.5c-.2,1.1-.1,2.3,0,3.4,0,0,0,.2,0,.3,0,0,0,.2,0,.3,0,.2,0,.3.1.5,0,.2.1.4.2.6,0,.2.2.4.2.6,0,.2.2.3.3.5,0,.2.2.3.3.5.1.2.2.3.4.5.1.2.3.4.4.5.2.2.4.4.6.7.1.1.2.2.4.3.2.1.3.3.5.4.1,0,.3.2.4.3.2.1.4.2.5.3.1,0,.3.2.4.2.2.1.4.2.7.3.1,0,.2.1.4.2.3,0,.5.2.8.3,0,0,.2,0,.3,0,.4,0,.7.2,1.2.2.1,0,.2,0,.4,0,.3,0,.5,0,.8,0,.1,0,.3,0,.5,0,.3,0,.5,0,.8,0,.2,0,.3,0,.5,0,.3,0,.6-.1.8-.2.1,0,.2,0,.4-.1.4-.2.8-.3,1.2-.5l7.7-3.9c.6-.3,1.3-.6,2-.8.2,0,.5-.1.7-.2,2.8-.7,5.8-.3,8.4,1l7.7,3.9c1.4.7,2.8,1,4.3,1s1.5,0,2.2-.3c2.4-.6,4.6-2.2,5.9-4.3.5-.7.8-1.5,1-2.4.2-.9.4-1.8.3-2.7,0-.5,0-.9-.1-1.4l-1.3-8.5c-.1-.7-.2-1.4-.1-2.1,0,0,0,0,0,0,0-2.4.8-4.7,2.2-6.7.4-.6.9-1.2,1.4-1.7l6.1-6.1c.3-.3.6-.7.9-1,0-.1.2-.3.3-.4.2-.2.3-.5.4-.7,0,0,0,0,0,0,0-.1.1-.3.2-.5.1-.2.2-.4.3-.7,0-.2.1-.3.2-.5,0-.2.1-.4.2-.7,0-.2,0-.3.1-.5,0-.2,0-.5,0-.7,0-.2,0-.4,0-.6,0-.2,0-.4,0-.7,0-.2,0-.4,0-.6,0-.2,0-.4,0-.6Z"
       id="path58" />
    <g
       id="g66">
      <g
         id="g60">
        <path
           class="st18"
           d="M267.4,69l3.9,7.7c2.3,4.5,6.7,7.7,11.7,8.5l8.5,1.4c4.6.7,6.5,6.4,3.2,9.8l-6.1,6.1c-3.6,3.6-5.3,8.7-4.5,13.7l1.3,8.5c.7,4.7-4.1,8.2-8.3,6l-7.7-3.9c-4.5-2.3-9.9-2.3-14.5,0l-7.7,3.9c-4.2,2.1-9-1.4-8.3-6l1.3-8.5c.8-5-.9-10.1-4.5-13.7l-6.1-6.1c-3.3-3.3-1.5-9,3.2-9.8l8.5-1.4c5-.8,9.4-4,11.7-8.5l3.9-7.7c2.1-4.2,8.1-4.2,10.3,0Z"
           id="path59" />
        <path
           class="st22"
           d="M292.3,86.7c.5,1.8,0,3.9-1.5,5.4l-6.1,6.1c-3.6,3.6-5.3,8.7-4.5,13.7l1.3,8.5c.7,4.7-4.1,8.2-8.3,6l-7.7-3.9c-4.5-2.3-9.9-2.3-14.5,0l-7.7,3.9c-1.5.7-3,.8-4.4.4.8,3.4,4.7,5.6,8.2,3.8l7.7-3.9c4.5-2.3,9.9-2.3,14.5,0l7.7,3.9c4.2,2.1,9-1.4,8.3-6l-1.3-8.5c-.8-5,.9-10.1,4.5-13.7l6.1-6.1c3.1-3.1,1.7-8.3-2.4-9.6Z"
           id="path60" />
      </g>
      <g
         id="g65">
        <ellipse
           class="st14"
           cx="246.6"
           cy="101.7"
           rx="3.2"
           ry="1"
           id="ellipse60" />
        <ellipse
           class="st14"
           cx="277.9"
           cy="101.7"
           rx="3.2"
           ry="1"
           id="ellipse61" />
        <g
           id="g64">
          <ellipse
             class="st16"
             cx="251.1"
             cy="95.7"
             rx="1.9"
             ry="2.7"
             id="ellipse62" />
          <ellipse
             class="st16"
             cx="273.4"
             cy="95.7"
             rx="1.9"
             ry="2.7"
             id="ellipse63" />
          <path
             class="st15"
             d="M274.8,96.3c0,.4-.3.7-.7.7s-.7-.3-.7-.7.3-.7.7-.7.7.3.7.7Z"
             id="path63" />
          <path
             class="st15"
             d="M252.2,96.3c0,.4-.3.7-.7.7s-.7-.3-.7-.7.3-.7.7-.7.7.3.7.7Z"
             id="path64" />
        </g>
        <path
           class="st15"
           d="M254.5,104c0,3.1,3.5,5.7,7.7,5.7s7.7-2.5,7.7-5.7h-15.4Z"
           id="path65" />
      </g>
    </g>
  </g>
</svg>
