<?xml version="1.0" encoding="UTF-8"?>
<svg id="Capa_1" xmlns="http://www.w3.org/2000/svg" version="1.1" viewBox="0 0 206.3 187.2">
  <!-- Generator: Adobe Illustrator 30.2.1, SVG Export Plug-In . SVG Version: 2.1.1 Build 1)  -->
  <defs>
    <style>
      .st0 {
        fill: none;
        stroke: #361b1a;
        stroke-linecap: round;
        stroke-linejoin: round;
        stroke-width: 2px;
      }

      .st1 {
        opacity: .1;
      }

      .st1, .st2 {
        fill: #fff;
      }

      .st3 {
        fill: #c31d20;
      }

      .st4 {
        fill: #c73438;
      }
    </style>
  </defs>
  <path class="st2" d="M35.9,81.2c0,.7.1,1.3.2,2,0,0,0,.1,0,.2.2,1.4.5,2.8.9,4.2v.3c.3.6.4,1.1.7,1.8v.3c.6,1.3,1.1,2.6,1.8,3.9l.2.4c.3.5.5,1,.8,1.4l.3.5c.7,1.2,1.5,2.4,2.4,3.5l.4.5c.3.4.7.8,1,1.2l.4.4c.5.5,1,1,1.5,1.5,13.4,13,53.5,51.5,53.9,51.9,1.2,1.2,2.8,1.8,4.4,1.8s3.3-.6,4.6-1.9c.4-.4,38.8-39.6,51.4-52.7.5-.5,1-1,1.4-1.5.1-.1.2-.3.3-.4h0c.3-.5.6-.9.9-1.3l.4-.5c.3-.4.6-.9,1-1.4l.2-.3c.4-.6.7-1.2,1.1-1.8v-.2c.4-.5.7-1,.9-1.6l.2-.5c.2-.5.4-1,.6-1.5,0,0,0-.1,0-.1v-.3c.6-1.3,1.1-2.6,1.4-3.9,0,0,0-.2,0-.2.2-.6.3-1.2.4-1.9v-.2c.2-.6.3-1.3.4-1.9,0,0,0,0,0,0,.2-1.4.3-2.8.3-4.3,0-.7,0-1.4,0-2.1,0,0,0,0,0,0-.1-2.1-.4-4.3-.9-6.3-1.6-6.6-5-12.5-9.8-17.2-6.8-6.5-15.6-10-25-9.8-9.4.2-18.1,4-24.6,10.8l-6.8,7-8.3-8c-13.9-13.4-36.2-13-49.6.9-4.3,4.5-7.4,10.1-8.8,16.1-.3,1.4-.6,2.9-.8,4.3,0,0,0,0,0,.1,0,.7-.1,1.4-.2,2.1h0s0,0,0,0c0,1.5,0,2.9,0,4.3v.3Z"/>
  <g>
    <path class="st4" d="M104.8,150.7s-40.4-38.8-53.9-51.9c-11.4-11-11.8-29.2-.8-40.6,11-11.4,29.2-11.8,40.6-.8l12.9,12.4,11.2-11.6c11-11.4,29.2-11.8,40.6-.8,11.4,11,11.8,29.2.8,40.6-12.8,13.2-51.4,52.7-51.4,52.7h0Z"/>
    <path class="st3" d="M156.2,84.7c-12.8,13.2-51.4,52.7-51.4,52.7,0,0-40.4-38.8-53.9-51.9-4.1-4-6.8-8.9-8-14-2.3,9.6.4,20.1,8,27.4,13.5,13.1,53.9,51.9,53.9,51.9,0,0,38.6-39.5,51.4-52.7,7.1-7.3,9.4-17.4,7.2-26.5-1.1,4.8-3.6,9.4-7.2,13.2Z"/>
    <path class="st1" d="M97.5,77.5h0c-1.9,2.6-5.7,3.1-8.3,1.2l-15.6-12.3c-2.6-1.9-3.1-5.7-1.2-8.3h0c1.9-2.6,5.7-3.1,8.3-1.2l15.6,12.3c2.6,1.9,3.1,5.7,1.2,8.3Z"/>
    <path class="st1" d="M111.9,74.8h0c-2.2-2.4-1.9-6.2.5-8.3l5.9-5.4c2.4-2.2,6.2-1.9,8.3.5h0c2.2,2.4,1.9,6.2-.5,8.3l-5.9,5.4c-2.4,2.2-6.2,1.9-8.3-.5Z"/>
    <path class="st0" d="M92.9,85.6v-4.1c0-3.8-3.1-7-7-7h0c-3.8,0-7,3.1-7,7v1.7"/>
    <path class="st0" d="M127.4,83.3v-1.7c0-3.8-3.1-7-7-7h0c-3.8,0-7,3.1-7,7v4.1"/>
    <path class="st2" d="M103.2,96.9c-12,0-22.8-4.2-30.6-10.9-1.1-1-2.9,0-2.6,1.4,3.3,16.3,16.9,28.6,33.2,28.6s29.9-12.2,33.2-28.6c.3-1.5-1.4-2.4-2.6-1.4-7.8,6.7-18.6,10.9-30.6,10.9Z"/>
  </g>
</svg>