<?xml version="1.0" encoding="UTF-8" standalone="no"?>
<svg
   id="Capa_1"
   version="1.1"
   viewBox="0 0 595.3 198.4"
   sodipodi:docname="STICKERS-16.svg"
   inkscape:version="1.4.4 (dcaf3e7, 2026-05-05)"
   xmlns:inkscape="http://www.inkscape.org/namespaces/inkscape"
   xmlns:sodipodi="http://sodipodi.sourceforge.net/DTD/sodipodi-0.dtd"
   xmlns="http://www.w3.org/2000/svg"
   xmlns:svg="http://www.w3.org/2000/svg">
  <sodipodi:namedview
     id="namedview51"
     pagecolor="#ffffff"
     bordercolor="#000000"
     borderopacity="0.25"
     inkscape:showpageshadow="2"
     inkscape:pageopacity="0.0"
     inkscape:pagecheckerboard="0"
     inkscape:deskcolor="#d1d1d1"
     inkscape:zoom="0.90509668"
     inkscape:cx="299.41553"
     inkscape:cy="85.626212"
     inkscape:current-layer="Capa_1" />
  <!-- Generator: Adobe Illustrator 30.2.1, SVG Export Plug-In . SVG Version: 2.1.1 Build 1)  -->
  <defs
     id="defs1">
    <style
       id="style1">
      .st0 {
        fill: #d4762a;
        opacity: .4;
      }

      .st1, .st2, .st3, .st4, .st5, .st6, .st7, .st8, .st9, .st10 {
        fill-rule: evenodd;
      }

      .st1, .st11 {
        fill: #fff;
      }

      .st12 {
        stroke-miterlimit: 10;
      }

      .st12, .st4 {
        fill: none;
        stroke: #fff;
        stroke-width: 5.7px;
      }

      .st2 {
        fill: #dd9457;
      }

      .st3 {
        fill: #789d9c;
      }

      .st13 {
        fill: #533b1b;
      }

      .st4 {
        stroke-linecap: round;
        stroke-linejoin: round;
      }

      .st14, .st10 {
        fill: #4f4f4e;
      }

      .st5 {
        fill: #b8cccd;
      }

      .st15 {
        fill: #f6da70;
      }

      .st6 {
        fill: #a1bbbc;
      }

      .st7 {
        fill: #edccd1;
      }

      .st8 {
        fill: #d99ea6;
      }

      .st16 {
        fill: #fae8a4;
      }

      .st17 {
        fill: #989898;
      }

      .st9 {
        fill: #e9f3f4;
      }

      .st18 {
        fill: #060606;
        opacity: 0;
      }
    </style>
  </defs>
  <g
     id="g11"
     transform="translate(0,0.49999695)">
    <path
       class="st11"
       d="m 302.3,96 c -4.7,-2.7 -6.3,-8.8 -3.6,-13.5 0.5,-1 0.5,-2.1 0,-3.1 -0.5,-0.9 -1.6,-1.5 -2.7,-1.5 -5.4,0 -9.8,-4.4 -9.9,-9.9 0,-1.1 -0.6,-2.1 -1.5,-2.7 -0.9,-0.5 -2.1,-0.6 -3.1,0 -4.7,2.7 -10.7,1.1 -13.5,-3.6 -0.6,-0.9 -1.6,-1.5 -2.7,-1.5 -1.1,0 -2.1,0.6 -2.7,1.5 -2.7,4.7 -8.8,6.3 -13.5,3.6 -1,-0.5 -2.1,-0.5 -3.1,0 -0.9,0.5 -1.5,1.6 -1.5,2.7 0,5.4 -4.4,9.8 -9.9,9.9 -1.1,0 -2.1,0.6 -2.7,1.5 -0.5,0.9 -0.6,2.1 0,3.1 2.7,4.7 1.1,10.7 -3.6,13.5 -0.9,0.6 -1.5,1.6 -1.5,2.7 0,1.1 0.6,2.1 1.5,2.7 4.7,2.7 6.3,8.8 3.6,13.5 -0.5,1 -0.5,2.1 0,3.1 0.5,0.9 1.6,1.5 2.7,1.5 5.4,0 9.8,4.4 9.9,9.9 0,1.1 0.6,2.1 1.5,2.7 0.9,0.5 2.1,0.6 3.1,0 4.7,-2.7 10.7,-1.1 13.5,3.6 0.6,0.9 1.6,1.5 2.7,1.5 1.1,0 2.1,-0.6 2.7,-1.5 2.7,-4.7 8.8,-6.3 13.5,-3.6 1,0.5 2.1,0.5 3.1,0 0.9,-0.5 1.5,-1.6 1.5,-2.7 0,-5.4 4.4,-9.8 9.9,-9.9 1.1,0 2.1,-0.6 2.7,-1.5 0.5,-0.9 0.6,-2.1 0,-3.1 -2.7,-4.7 -1.1,-10.7 3.6,-13.5 0.9,-0.6 1.5,-1.6 1.5,-2.7 0,-1.1 -0.6,-2.1 -1.5,-2.7 z"
       id="path1" />
    <g
       id="g10">
      <g
         id="g3">
        <path
           class="st16"
           d="m 265.4,63.3 v 0 c 3.6,6.2 11.5,8.3 17.7,4.7 v 0 c 0,7.1 5.8,12.9 12.9,12.9 v 0 c -3.5,6.2 -1.4,14.1 4.7,17.7 v 0 0 c -6.2,3.6 -8.3,11.5 -4.7,17.7 v 0 c -7.1,0 -12.9,5.8 -12.9,12.9 v 0 c -6.2,-3.5 -14.1,-1.4 -17.7,4.7 v 0 c -3.6,-6.2 -11.5,-8.3 -17.7,-4.7 v 0 c 0,-7.1 -5.8,-12.9 -12.9,-12.9 v 0 0 c 3.5,-6.2 1.4,-14.1 -4.7,-17.7 v 0 c 6.2,-3.6 8.3,-11.5 4.7,-17.7 v 0 c 0,0 0,0 0,0 7.1,0 12.9,-5.8 12.9,-12.9 v 0 c 6.2,3.5 14.1,1.4 17.7,-4.7 z"
           id="path2" />
        <circle
           class="st15"
           cx="265.39999"
           cy="98.599998"
           r="26.9"
           id="circle2" />
        <path
           class="st18"
           d="m 277.8,74.7 c 3.8,4.6 6.1,10.6 6.1,17.1 0,14.9 -12,26.9 -26.9,26.9 -14.9,0 -8.7,-1.1 -12.4,-3 4.9,6 12.4,9.8 20.8,9.8 14.9,0 26.9,-12 26.9,-26.9 0,-14.9 -5.9,-19.4 -14.5,-23.9 z"
           id="path3" />
      </g>
      <g
         id="g9">
        <path
           class="st0"
           d="m 253.4,100.6 c 0,0.5 -1.4,1 -3.1,1 -1.7,0 -3.1,-0.4 -3.1,-1 0,-0.6 1.4,-1 3.1,-1 1.7,0 3.1,0.4 3.1,1 z"
           id="path4" />
        <path
           class="st0"
           d="m 283.8,100.6 c 0,0.5 -1.4,1 -3.1,1 -1.7,0 -3.1,-0.4 -3.1,-1 0,-0.6 1.4,-1 3.1,-1 1.7,0 3.1,0.4 3.1,1 z"
           id="path5" />
        <g
           id="g8">
          <ellipse
             class="st13"
             cx="254.60001"
             cy="94.699997"
             rx="1.8"
             ry="2.5999999"
             id="ellipse5" />
          <path
             class="st13"
             d="m 278.1,94.7 c 0,1.5 -0.8,2.6 -1.8,2.6 -1,0 -1.8,-1.2 -1.8,-2.6 0,-1.4 0.8,-2.6 1.8,-2.6 1,0 1.8,1.2 1.8,2.6 z"
             id="path6" />
          <path
             class="st11"
             d="m 277.6,95.3 c 0,0.4 -0.3,0.7 -0.7,0.7 -0.4,0 -0.7,-0.3 -0.7,-0.7 0,-0.4 0.3,-0.7 0.7,-0.7 0.4,0 0.7,0.3 0.7,0.7 z"
             id="path7" />
          <path
             class="st11"
             d="m 255.7,95.3 c 0,0.4 -0.3,0.7 -0.7,0.7 -0.4,0 -0.7,-0.3 -0.7,-0.7 0,-0.4 0.3,-0.7 0.7,-0.7 0.4,0 0.7,0.3 0.7,0.7 z"
             id="path8" />
        </g>
        <path
           class="st11"
           d="m 257.9,102.9 c 0,3.1 3.4,5.5 7.5,5.5 4.1,0 7.5,-2.5 7.5,-5.5 z"
           id="path9" />
      </g>
    </g>
  </g>
  <g
     id="g33">
    <path
       class="st12"
       d="M109.4,32.4c-13.2-4.3-23.6,22.4-24.2,40.8-3.5-1.2-7.3-1.9-11.3-1.9s-7.7.7-11.3,1.9c-.6-18.4-11-45.1-24.2-40.8-14.8,4.8-3.6,39.1,8.5,52.2-4.5,5.8-7.1,13-7.1,20.8,0,18.8,15.3,34.1,34.1,34.1s34.1-15.3,34.1-34.1-2.7-15-7.1-20.8c12.1-13.1,23.3-47.3,8.5-52.2Z"
       id="path11" />
    <g
       id="g32">
      <g
         id="g15">
        <path
           class="st7"
           d="M38.4,32.4c-19.1,6.2,5,61.4,18.6,57,13.6-4.5.4-63.2-18.6-57Z"
           id="path12" />
        <path
           class="st8"
           d="M41.5,41.7c-12.2,4,6.4,46.5,15.1,43.6,8.7-2.8-2.9-47.6-15.1-43.6Z"
           id="path13" />
        <path
           class="st7"
           d="M109.4,32.4c19.1,6.2-5,61.4-18.6,57-13.6-4.5-.4-63.2,18.6-57Z"
           id="path14" />
        <path
           class="st8"
           d="M106.3,41.7c12.2,4-6.4,46.5-15.1,43.6-8.7-2.8,2.9-47.6,15.1-43.6Z"
           id="path15" />
      </g>
      <path
         class="st8"
         d="M73.9,139.5c18.8,0,34.1-15.3,34.1-34.1s-15.3-34.1-34.1-34.1-34.1,15.3-34.1,34.1,15.3,34.1,34.1,34.1Z"
         id="path16" />
      <g
         id="g20">
        <g
           id="g18">
          <path
             class="st10"
             d="M63,106.2c1.5,0,2.8-2.3,2.8-5.2s-1.3-5.2-2.8-5.2-2.8,2.3-2.8,5.2,1.3,5.2,2.8,5.2Z"
             id="path17" />
          <path
             class="st10"
             d="M84.8,106.2c1.5,0,2.8-2.3,2.8-5.2s-1.3-5.2-2.8-5.2-2.8,2.3-2.8,5.2,1.3,5.2,2.8,5.2Z"
             id="path18" />
        </g>
        <path
           class="st1"
           d="M62.1,98.8c.5,0,.9-.4.9-.9s-.4-.9-.9-.9-.9.4-.9.9.4.9.9.9Z"
           id="path19" />
        <path
           class="st1"
           d="M84,98.8c.5,0,.9-.4.9-.9s-.4-.9-.9-.9-.9.4-.9.9.4.9.9.9Z"
           id="path20" />
      </g>
      <g
         id="g21">
        <rect
           class="st11"
           x="69"
           y="119.7"
           width="4.5"
           height="16.2"
           rx="2.3"
           ry="2.3"
           id="rect20" />
        <rect
           class="st11"
           x="74.3"
           y="119.7"
           width="4.5"
           height="16.2"
           rx="2.3"
           ry="2.3"
           id="rect21" />
      </g>
      <g
         id="g22">
        <path
           class="st7"
           d="M66.3,131c5.9,0,10.8-4.8,10.8-10.8s-4.8-10.8-10.8-10.8-10.8,4.8-10.8,10.8,4.8,10.8,10.8,10.8Z"
           id="path21" />
        <path
           class="st7"
           d="M81.5,131c5.9,0,10.8-4.8,10.8-10.8s-4.8-10.8-10.8-10.8-10.8,4.8-10.8,10.8,4.8,10.8,10.8,10.8Z"
           id="path22" />
      </g>
      <g
         id="g24">
        <path
           class="st10"
           d="M79.1,110.5c0,3.1-3.7,5.7-5.2,6.9-1.5-1.2-5.2-3.8-5.2-6.9s10.4-3.1,10.4,0Z"
           id="path23" />
        <path
           class="st17"
           d="M70.2,111.1c-.2,0-.3,0-.4-.2-.1-.2,0-.6.2-.7h.1c1-.7,1.9-1.2,4-1.1.3,0,.5.3.5.5,0,.3-.3.5-.5.5-1.7-.1-2.4.3-3.4.9h-.1c0,.1-.2.1-.3.1Z"
           id="path24" />
      </g>
      <g
         id="g31">
        <g
           id="g27">
          <path
             class="st11"
             d="M63.9,120.8h-19.8c-.4,0-.8-.4-.8-.8s.4-.8.8-.8h19.8c.4,0,.8.4.8.8s-.4.8-.8.8Z"
             id="path25" />
          <path
             class="st11"
             d="M50,127.2c-.4,0-.7-.3-.8-.7,0-.4.2-.9.7-.9l14.6-2.6c.4,0,.9.2.9.7,0,.4-.2.9-.7.9l-14.6,2.6s0,0-.1,0Z"
             id="path26" />
          <path
             class="st11"
             d="M64.6,116.9s0,0-.1,0l-14.9-2.6c-.4,0-.7-.5-.7-.9,0-.4.5-.7.9-.7l14.9,2.6c.4,0,.7.5.7.9,0,.4-.4.7-.8.7Z"
             id="path27" />
        </g>
        <g
           id="g30">
          <path
             class="st11"
             d="M103.7,120.8h-19.8c-.4,0-.8-.4-.8-.8s.4-.8.8-.8h19.8c.4,0,.8.4.8.8s-.4.8-.8.8Z"
             id="path28" />
          <path
             class="st11"
             d="M97.8,127.2s0,0-.1,0l-14.6-2.6c-.4,0-.7-.5-.7-.9,0-.4.5-.7.9-.7l14.6,2.6c.4,0,.7.5.7.9,0,.4-.4.7-.8.7Z"
             id="path29" />
          <path
             class="st11"
             d="M83.2,116.9c-.4,0-.7-.3-.8-.7,0-.4.2-.9.7-.9l14.9-2.6c.4,0,.9.2.9.7,0,.4-.2.9-.7.9l-14.9,2.6s0,0-.1,0Z"
             id="path30" />
        </g>
      </g>
    </g>
  </g>
  <g
     id="g51">
    <path
       class="st4"
       d="M220,80.9c.3-3.2-21.3-17.8-23.6-16-3.2,2.5-6.4,5.1-8.7,8.3-5.2-3.1-11.2-4.9-17.7-4.9s-11.3,1.5-16.2,4.1c-2.2-2.8-5.1-5.1-8-7.4-2.3-1.8-23.9,12.8-23.6,16,.1,1.4,9.4,6.5,16,8.9-1.6,3.9-2.5,8.2-2.5,12.7,0,17.7,13.5,32.3,30.7,34.1,1.5,2.6,5.6,2.6,7.1,0,17.2-1.8,30.7-16.4,30.7-34.1s-.8-8.3-2.2-12.1c6.6-2,17.8-8,17.9-9.6Z"
       id="path33" />
    <g
       id="g50">
      <path
         class="st5"
         d="M145.8,64.9c3.4,2.7,6.8,5.4,9.1,8.9,2.3,3.5-15.5,9.5-15.5,9.5,0,0,3.7-14.4,6.4-18.4Z"
         id="path34" />
      <path
         class="st5"
         d="M196.4,64.9c-3.4,2.7-6.8,5.4-9.1,8.9-2.3,3.5,15.5,9.5,15.5,9.5,0,0-3.7-14.4-6.4-18.4Z"
         id="path35" />
      <path
         class="st6"
         d="M170,136.8c18.9,0,34.3-15.4,34.3-34.3s-15.4-34.3-34.3-34.3-34.3,15.4-34.3,34.3,15.4,34.3,34.3,34.3Z"
         id="path36" />
      <path
         class="st9"
         d="M185.5,91.4c5.3,2.3,8.3,7,6.7,10.6-1.5,3.6-7.1,4.7-12.4,2.5-5.3-2.3-8.3-7-6.7-10.6,1.5-3.6,7.1-4.7,12.4-2.5Z"
         id="path37" />
      <path
         class="st9"
         d="M170,136.5c9.2,0,16.8-7.5,16.8-16.8s-7.5-16.8-16.8-16.8-16.8,7.5-16.8,16.8,7.5,16.8,16.8,16.8Z"
         id="path38" />
      <path
         class="st10"
         d="M177,130.2c0,0,0-.1,0-.2-2-.2-3.9-1-5.2-2.4-.7-.7-1.3-1.6-1.7-2.6-.4,1-1,1.8-1.7,2.6-1.4,1.4-3.2,2.2-5.2,2.4,0,0,0,.1,0,.2,0,7.8,13.9,7.8,13.9,0Z"
         id="path39" />
      <path
         class="st3"
         d="M122.2,80.9c.2,2,19.6,11.9,22.3,10,3.2-2.2,3.6-24.2,1.3-26-2.3-1.8-23.9,12.8-23.6,16Z"
         id="path40" />
      <path
         class="st10"
         d="M177.5,112.2c0,4.4-5.3,8.2-7.5,9.9-2.1-1.7-7.5-5.5-7.5-9.9s14.9-4.5,14.9,0Z"
         id="path41" />
      <path
         class="st3"
         d="M220,80.9c-.2,2-19.6,11.9-22.3,10-3.2-2.2-3.6-24.2-1.3-26,2.3-1.8,23.9,12.8,23.6,16Z"
         id="path42" />
      <path
         class="st14"
         d="M169.4,121.8c0-.4.3-.7.7-.7s.7.3.7.7c0,2.3-.9,4.4-2.4,5.9-1.5,1.5-3.6,2.4-5.9,2.4s-4.4-.9-5.9-2.4c-1.5-1.5-2.4-3.6-2.4-5.9s.3-.7.7-.7.7.3.7.7c0,1.9.8,3.6,2,4.9,1.3,1.3,3,2,4.9,2s3.6-.8,4.9-2c1.3-1.3,2-3,2-4.9Z"
         id="path43" />
      <path
         class="st14"
         d="M169.4,121.8c0-.4.3-.7.7-.7s.7.3.7.7c0,1.9.8,3.6,2,4.9,1.3,1.3,3,2,4.9,2s3.6-.8,4.9-2c1.3-1.3,2-3,2-4.9s.3-.7.7-.7.7.3.7.7c0,2.3-.9,4.4-2.4,5.9-1.5,1.5-3.6,2.4-5.9,2.4s-4.4-.9-5.9-2.4c-1.5-1.5-2.4-3.6-2.4-5.9Z"
         id="path44" />
      <path
         class="st2"
         d="M174.1,129.3v5.2c0,5.4-8.2,5.4-8.2,0v-5.2c.9-.4,1.7-1,2.3-1.6.7-.7,1.3-1.6,1.7-2.6.4,1,1,1.8,1.7,2.6.7.7,1.5,1.2,2.3,1.6Z"
         id="path45" />
      <path
         class="st17"
         d="M164.1,112.4c-.2,0-.3,0-.4-.3-.1-.2,0-.6.2-.7h.2c1.5-1,2.9-1.8,5.9-1.6.3,0,.5.3.5.5,0,.3-.3.5-.5.5-2.7-.2-3.9.5-5.3,1.3h-.2c0,.2-.2.2-.3.2Z"
         id="path46" />
      <g
         id="g48">
        <path
           class="st10"
           d="M159.1,102.9c1.5,0,2.8-2.3,2.8-5.2s-1.3-5.2-2.8-5.2-2.8,2.3-2.8,5.2,1.3,5.2,2.8,5.2Z"
           id="path47" />
        <path
           class="st10"
           d="M181,102.9c1.5,0,2.8-2.3,2.8-5.2s-1.3-5.2-2.8-5.2-2.8,2.3-2.8,5.2,1.3,5.2,2.8,5.2Z"
           id="path48" />
      </g>
      <path
         class="st1"
         d="M158.2,95.4c.5,0,.9-.4.9-.9s-.4-.9-.9-.9-.9.4-.9.9.4.9.9.9Z"
         id="path49" />
      <path
         class="st1"
         d="M180.2,95.4c.5,0,.9-.4.9-.9s-.4-.9-.9-.9-.9.4-.9.9.4.9.9.9Z"
         id="path50" />
    </g>
  </g>
  <g
     id="g78"
     transform="translate(-6.5718456,-5.1983711)">
    <path
       class="st17"
       d="m 318.5,92.3 c 0,0.4 0,0.8 0.2,1.3 0,0 0,0 0,0.1 0.1,0.9 0.3,1.8 0.6,2.7 v 0.2 c 0.2,0.4 0.3,0.7 0.4,1.2 V 98 c 0.4,0.8 0.7,1.7 1.1,2.5 v 0.3 c 0.3,0.3 0.5,0.6 0.6,0.9 l 0.2,0.3 c 0.5,0.8 1,1.5 1.5,2.2 l 0.2,0.3 c 0.2,0.3 0.4,0.5 0.7,0.8 l 0.3,0.3 c 0.3,0.3 0.6,0.7 1,1 8.6,8.3 34.2,32.9 34.5,33.2 0.8,0.8 1.8,1.1 2.8,1.1 1,0 2.1,-0.4 2.9,-1.2 0.2,-0.3 24.8,-25.3 32.9,-33.7 0.3,-0.3 0.6,-0.7 0.9,-1 0,0 0.1,-0.2 0.2,-0.3 v 0 c 0.2,-0.3 0.4,-0.6 0.6,-0.8 l 0.3,-0.3 c 0.2,-0.3 0.4,-0.6 0.6,-0.9 v -0.2 c 0.4,-0.4 0.6,-0.7 0.8,-1.2 v -0.2 c 0.3,-0.3 0.4,-0.7 0.6,-1 v -0.3 c 0.3,-0.3 0.4,-0.6 0.6,-0.9 0,0 0,0 0,0 v -0.2 c 0.4,-0.8 0.7,-1.7 0.9,-2.5 0,0 0,-0.1 0,-0.2 0,-0.4 0.2,-0.8 0.3,-1.2 v 0 c 0,-0.5 0.1,-0.9 0.2,-1.4 0,0 0,0 0,0 0.1,-0.9 0.2,-1.8 0.2,-2.8 0,-0.4 0,-0.9 0,-1.3 0,0 0,0 0,0 0,-1.4 -0.3,-2.7 -0.6,-4.1 -1,-4.2 -3.2,-8 -6.3,-11 -4.3,-4.2 -10,-6.4 -16,-6.3 -6,0.1 -11.6,2.6 -15.7,6.9 l -4.3,4.5 -5.3,-5.1 c -8.9,-8.6 -23.1,-8.3 -31.7,0.6 -2.8,2.9 -4.7,6.4 -5.6,10.3 -0.2,0.9 -0.4,1.9 -0.5,2.8 0,0 0,0 0,0 0,0.5 0,0.9 -0.1,1.4 v 0 c 0,0 0,0 0,0 0,0.9 0,1.9 0,2.7 v 0.2 z"
       id="path70"
       style="fill:#ffffff" />
    <g
       id="g77">
      <path
         class="st24"
         d="m 362.6,136.8 c 0,0 -25.8,-24.8 -34.4,-33.2 -7.3,-7.1 -7.5,-18.6 -0.5,-25.9 7,-7.3 18.6,-7.5 25.9,-0.5 l 8.2,7.9 7.2,-7.4 c 7,-7.3 18.6,-7.5 25.9,-0.5 7.3,7 7.6,18.7 0.5,25.9 -8.2,8.4 -32.8,33.7 -32.8,33.7 z"
         id="path71"
         style="fill:#c73438" />
      <path
         class="st21"
         d="m 395.4,94.6 c -8.2,8.4 -32.8,33.7 -32.8,33.7 0,0 -25.8,-24.8 -34.4,-33.2 -2.6,-2.5 -4.3,-5.7 -5.1,-9 -1.5,6.1 0.3,12.8 5.1,17.5 8.6,8.4 34.4,33.2 34.4,33.2 0,0 24.7,-25.2 32.8,-33.7 4.5,-4.7 6,-11.1 4.6,-17 -0.7,3.1 -2.3,6 -4.6,8.4 z"
         id="path72"
         style="fill:#c31d20" />
      <path
         class="st16"
         d="m 357.9,90 v 0 c -1.2,1.7 -3.6,2 -5.3,0.8 l -10,-7.8 c -1.7,-1.2 -2,-3.6 -0.8,-5.3 v 0 c 1.2,-1.7 3.6,-2 5.3,-0.8 l 10,7.8 c 1.7,1.2 2,3.6 0.8,5.3 z"
         id="path73"
         style="opacity:0.1;fill:#ffffff" />
      <path
         class="st16"
         d="m 367.1,88.3 v 0 c -1.4,-1.6 -1.2,-3.9 0.3,-5.3 l 3.8,-3.4 c 1.6,-1.4 3.9,-1.2 5.3,0.3 v 0 c 1.4,1.6 1.2,3.9 -0.3,5.3 l -3.8,3.4 c -1.6,1.4 -3.9,1.2 -5.3,-0.3 z"
         id="path74"
         style="opacity:0.1;fill:#ffffff" />
      <path
         class="st19"
         d="m 355,95.2 v -2.6 c 0,-2.5 -2,-4.5 -4.5,-4.5 v 0 c -2.5,0 -4.5,2 -4.5,4.5 v 1.1"
         id="path75"
         style="fill:none;stroke:#361b1a;stroke-width:2px;stroke-linecap:round;stroke-linejoin:round" />
      <path
         class="st19"
         d="m 377,93.7 v -1.1 c 0,-2.5 -2,-4.5 -4.5,-4.5 v 0 c -2.5,0 -4.5,2 -4.5,4.5 v 2.6"
         id="path76"
         style="fill:none;stroke:#361b1a;stroke-width:2px;stroke-linecap:round;stroke-linejoin:round" />
      <path
         class="st17"
         d="m 361.5,102.4 c -7.7,0 -14.6,-2.7 -19.6,-7 -0.7,-0.6 -1.8,0 -1.6,0.9 2.1,10.4 10.8,18.3 21.2,18.3 10.4,0 19.1,-7.8 21.2,-18.3 0.2,-0.9 -0.9,-1.5 -1.6,-0.9 -5,4.3 -11.9,7 -19.6,7 z"
         id="path77"
         style="fill:#ffffff" />
    </g>
  </g>
</svg>
