<?xml version="1.0" encoding="UTF-8"?>
<svg id="Capa_1" xmlns="http://www.w3.org/2000/svg" version="1.1" viewBox="0 0 206.3 187.2">
  <!-- Generator: Adobe Illustrator 30.2.1, SVG Export Plug-In . SVG Version: 2.1.1 Build 1)  -->
  <defs>
    <style>
      .st0 {
        fill: #d4762a;
        opacity: .4;
      }

      .st1 {
        fill: #533b1b;
      }

      .st2 {
        fill: #fff;
      }

      .st3 {
        fill: #f6da70;
      }

      .st4 {
        fill: #fae8a4;
      }

      .st5 {
        fill: #060606;
        opacity: 0;
      }
    </style>
  </defs>
  <path class="st2" d="M163.8,85.5c-7.3-4.3-9.9-13.7-5.6-21.1.9-1.5.9-3.3,0-4.8-.9-1.5-2.4-2.4-4.2-2.4-8.5,0-15.4-7-15.4-15.4,0-1.7-.9-3.3-2.4-4.2-1.5-.9-3.3-.9-4.8,0-7.4,4.2-16.8,1.7-21.1-5.6-.9-1.5-2.4-2.4-4.2-2.4s-3.3.9-4.2,2.4c-4.3,7.3-13.7,9.9-21.1,5.6-1.5-.9-3.3-.8-4.8,0-1.5.9-2.4,2.4-2.4,4.2,0,8.5-6.9,15.4-15.4,15.4-1.7,0-3.3.9-4.2,2.4-.9,1.5-.9,3.3,0,4.8,4.2,7.4,1.7,16.8-5.6,21.1-1.5.9-2.4,2.4-2.4,4.2s.9,3.3,2.4,4.2c7.3,4.3,9.9,13.7,5.6,21.1-.9,1.5-.8,3.3,0,4.8.9,1.5,2.4,2.4,4.2,2.4,8.5,0,15.4,6.9,15.4,15.4,0,1.7.9,3.3,2.4,4.2,1.5.9,3.3.9,4.8,0,7.4-4.2,16.8-1.7,21.1,5.6.9,1.5,2.4,2.4,4.2,2.4s3.3-.9,4.2-2.4c4.3-7.3,13.7-9.9,21.1-5.6,1.5.9,3.3.8,4.8,0,1.5-.9,2.4-2.4,2.4-4.2,0-8.5,7-15.4,15.4-15.4,1.7,0,3.3-.9,4.2-2.4.9-1.5.9-3.3,0-4.8-4.2-7.4-1.7-16.8,5.6-21.1,1.5-.9,2.4-2.4,2.4-4.2s-.9-3.3-2.4-4.2Z"/>
  <g>
    <g>
      <path class="st4" d="M106.1,34.4h0c5.6,9.6,18,13,27.6,7.4h0c0,11.2,9.1,20.2,20.2,20.2h0c-5.5,9.7-2.2,22,7.4,27.6h0,0c-9.6,5.6-13,18-7.4,27.6h0c-11.2,0-20.2,9.1-20.2,20.2h0c-9.7-5.5-22-2.2-27.6,7.4h0c-5.6-9.6-18-13-27.6-7.4h0c0-11.2-9.1-20.2-20.2-20.2h0,0c5.5-9.7,2.2-22-7.4-27.6h0c9.6-5.6,13-18,7.4-27.6h0s0,0,0,0c11.2,0,20.2-9.1,20.2-20.2h0c9.7,5.5,22,2.2,27.6-7.4h0Z"/>
      <circle class="st3" cx="106.1" cy="89.7" r="42.1"/>
      <path class="st5" d="M125.5,52.3c6,7.3,9.6,16.6,9.6,26.8,0,23.3-18.8,42.1-42.1,42.1s-13.6-1.7-19.4-4.7c7.7,9.4,19.4,15.4,32.5,15.4,23.3,0,42.1-18.8,42.1-42.1s-9.2-30.4-22.7-37.4Z"/>
    </g>
    <g>
      <path class="st0" d="M87.3,92.7c0,.9-2.2,1.6-4.9,1.6s-4.9-.7-4.9-1.6,2.2-1.6,4.9-1.6,4.9.7,4.9,1.6Z"/>
      <path class="st0" d="M134.8,92.7c0,.9-2.2,1.6-4.9,1.6s-4.9-.7-4.9-1.6,2.2-1.6,4.9-1.6,4.9.7,4.9,1.6Z"/>
      <g>
        <ellipse class="st1" cx="89.1" cy="83.6" rx="2.8" ry="4.1"/>
        <path class="st1" d="M126,83.6c0,2.3-1.3,4.1-2.8,4.1s-2.8-1.9-2.8-4.1,1.3-4.1,2.8-4.1,2.8,1.9,2.8,4.1Z"/>
        <path class="st2" d="M125.1,84.5c0,.6-.5,1.1-1.1,1.1s-1.1-.5-1.1-1.1.5-1.1,1.1-1.1,1.1.5,1.1,1.1Z"/>
        <path class="st2" d="M90.9,84.5c0,.6-.5,1.1-1.1,1.1s-1.1-.5-1.1-1.1.5-1.1,1.1-1.1,1.1.5,1.1,1.1Z"/>
      </g>
      <path class="st2" d="M94.4,96.3c0,4.8,5.3,8.6,11.7,8.6s11.7-3.9,11.7-8.6h-23.5Z"/>
    </g>
  </g>
</svg>