<?xml version="1.0" encoding="UTF-8"?>
<svg id="Capa_1" xmlns="http://www.w3.org/2000/svg" version="1.1" viewBox="0 0 206.3 187.2">
  <!-- Generator: Adobe Illustrator 30.2.1, SVG Export Plug-In . SVG Version: 2.1.1 Build 1)  -->
  <defs>
    <style>
      .st0 {
        fill: #fff;
      }

      .st0, .st1, .st2, .st3, .st4, .st5, .st6, .st7 {
        fill-rule: evenodd;
      }

      .st1 {
        fill: #dd9457;
      }

      .st2 {
        fill: #789d9c;
      }

      .st3 {
        fill: none;
        stroke: #fff;
        stroke-linecap: round;
        stroke-linejoin: round;
        stroke-width: 5.7px;
      }

      .st8, .st7 {
        fill: #4f4f4e;
      }

      .st4 {
        fill: #b8cccd;
      }

      .st5 {
        fill: #a1bbbc;
      }

      .st9 {
        fill: #989898;
      }

      .st6 {
        fill: #e9f3f4;
      }
    </style>
  </defs>
  <path class="st3" d="M181.6,68.3c.4-5-33.4-27.9-37-25-5.1,3.9-10,7.9-13.6,12.9-8.1-4.9-17.5-7.7-27.6-7.7s-17.7,2.3-25.3,6.4c-3.5-4.4-8-8-12.6-11.6-3.6-2.8-37.4,20-37,25,.2,2.2,14.7,10.2,25.1,14-2.5,6.1-3.8,12.8-3.8,19.9,0,27.7,21.1,50.5,48.1,53.3,2.3,4,8.7,4,11.1,0,26.9-2.8,48.1-25.7,48.1-53.3s-1.2-13-3.4-18.9c10.3-3.2,27.8-12.6,28-15Z"/>
  <g>
    <path class="st4" d="M65.6,43.3c5.4,4.2,10.6,8.4,14.2,13.9,3.6,5.5-24.2,14.9-24.2,14.9,0,0,5.7-22.5,10-28.8Z"/>
    <path class="st4" d="M144.6,43.3c-5.4,4.2-10.6,8.4-14.2,13.9-3.6,5.5,24.2,14.9,24.2,14.9,0,0-5.7-22.5-10-28.8Z"/>
    <path class="st5" d="M103.4,155.7c29.5,0,53.6-24.1,53.6-53.6s-24.1-53.6-53.6-53.6-53.6,24.1-53.6,53.6,24.1,53.6,53.6,53.6Z"/>
    <path class="st6" d="M127.6,84.8c8.3,3.5,13,11,10.6,16.6-2.4,5.7-11.1,7.4-19.3,3.9-8.3-3.5-13-11-10.6-16.6,2.4-5.7,11.1-7.4,19.3-3.9Z"/>
    <path class="st6" d="M103.4,155.4c14.5,0,26.3-11.8,26.3-26.3s-11.8-26.3-26.3-26.3-26.3,11.8-26.3,26.3,11.8,26.3,26.3,26.3Z"/>
    <path class="st7" d="M114.3,145.5c0,0,0-.2,0-.3-3.2-.2-6-1.6-8.2-3.8-1.1-1.1-2.1-2.5-2.7-4-.7,1.5-1.6,2.9-2.7,4-2.1,2.1-5,3.5-8.2,3.8,0,0,0,.2,0,.3,0,12.2,21.8,12.2,21.8,0Z"/>
    <path class="st2" d="M28.6,68.3c.3,3.1,30.7,18.6,34.9,15.6,5-3.5,5.6-37.8,2-40.7-3.6-2.9-37.4,20-37,25Z"/>
    <path class="st7" d="M115.1,117.3c0,6.9-8.3,12.8-11.7,15.5-3.3-2.7-11.7-8.6-11.7-15.5s23.4-7.1,23.4,0Z"/>
    <path class="st2" d="M181.6,68.3c-.3,3.1-30.7,18.6-34.9,15.6-5-3.5-5.6-37.8-2-40.7,3.6-2.9,37.4,20,37,25Z"/>
    <path class="st8" d="M102.4,132.3c0-.6.5-1.1,1.1-1.1s1.1.5,1.1,1.1c0,3.6-1.5,6.8-3.8,9.2-2.3,2.3-5.6,3.8-9.2,3.8s-6.8-1.5-9.2-3.8c-2.3-2.3-3.8-5.6-3.8-9.2s.5-1.1,1.1-1.1,1.1.5,1.1,1.1c0,3,1.2,5.7,3.2,7.7,2,2,4.7,3.2,7.7,3.2s5.7-1.2,7.7-3.2c2-2,3.2-4.7,3.2-7.7Z"/>
    <path class="st8" d="M102.4,132.3c0-.6.5-1.1,1.1-1.1s1.1.5,1.1,1.1c0,3,1.2,5.7,3.2,7.7,2,2,4.7,3.2,7.7,3.2s5.7-1.2,7.7-3.2c2-2,3.2-4.7,3.2-7.7s.5-1.1,1.1-1.1,1.1.5,1.1,1.1c0,3.6-1.5,6.8-3.8,9.2-2.3,2.3-5.6,3.8-9.2,3.8s-6.8-1.5-9.2-3.8c-2.3-2.3-3.8-5.6-3.8-9.2Z"/>
    <path class="st1" d="M109.8,144v8.1c0,8.4-12.8,8.4-12.8,0v-8.1c1.4-.6,2.6-1.5,3.7-2.6,1.1-1.1,2.1-2.5,2.7-4,.7,1.5,1.6,2.9,2.7,4,1.1,1.1,2.3,1.9,3.7,2.6Z"/>
    <path class="st9" d="M94.1,117.5c-.3,0-.5-.1-.7-.4-.2-.4,0-.9.3-1.1l.3-.2c2.3-1.4,4.5-2.7,9.2-2.3.4,0,.8.4.7.9,0,.4-.4.8-.9.7-4.2-.3-6,.8-8.3,2.1l-.3.2c-.1,0-.3.1-.4.1Z"/>
    <g>
      <path class="st7" d="M86.3,102.7c2.4,0,4.4-3.7,4.4-8.2s-2-8.2-4.4-8.2-4.4,3.7-4.4,8.2,2,8.2,4.4,8.2Z"/>
      <path class="st7" d="M120.5,102.7c2.4,0,4.4-3.7,4.4-8.2s-2-8.2-4.4-8.2-4.4,3.7-4.4,8.2,2,8.2,4.4,8.2Z"/>
    </g>
    <path class="st0" d="M84.9,91c.8,0,1.4-.6,1.4-1.4s-.6-1.4-1.4-1.4-1.4.6-1.4,1.4.6,1.4,1.4,1.4Z"/>
    <path class="st0" d="M119.3,91c.8,0,1.4-.6,1.4-1.4s-.6-1.4-1.4-1.4-1.4.6-1.4,1.4.6,1.4,1.4,1.4Z"/>
  </g>
</svg>