<?xml version="1.0" encoding="UTF-8"?>
<svg id="Capa_1" xmlns="http://www.w3.org/2000/svg" version="1.1" viewBox="0 0 206.3 187.2">
  <!-- Generator: Adobe Illustrator 30.2.1, SVG Export Plug-In . SVG Version: 2.1.1 Build 1)  -->
  <defs>
    <style>
      .st0, .st1, .st2, .st3, .st4, .st5 {
        fill-rule: evenodd;
      }

      .st0, .st6 {
        fill: #4e4e4e;
      }

      .st1 {
        fill: #e7eff6;
      }

      .st2, .st7 {
        fill: #fff;
      }

      .st3 {
        fill: #c3d1db;
      }

      .st4 {
        fill: #a7bcc9;
      }

      .st8 {
        fill: #9a9a99;
      }

      .st5 {
        fill: none;
        stroke: #fff;
        stroke-miterlimit: 10;
        stroke-width: 5.7px;
      }
    </style>
  </defs>
  <path class="st5" d="M156.4,108.2c0-.3,0-.6.1-.9,0-.6,0-1.2.1-1.8,0-.3,0-.5,0-.8,0-.9,0-1.7,0-2.6s0-1.1,0-1.6c0,0,0,0,0,0,0-.4,0-.9,0-1.3,0,0,0,0,0,0,0-.3,0-.5,0-.8,0-.6,0-1.3-.1-1.9,0,0,0,0,0,0-.7-6.7-2.6-13.1-5.6-18.8,1.1-1.2,2.2-2.4,3.2-3.7,8.8-11.7,9.8-26.9,3.8-39.3-13.5-2.3-27.9,2.9-36.7,14.7-.4.5-.8,1.1-1.1,1.6-.1,0-.2,0-.3-.1-.5-.2-1.1-.3-1.6-.5-.3,0-.7-.2-1-.3-.5-.1-1.1-.3-1.6-.4-.3,0-.7-.2-1-.2-.5-.1-1-.2-1.6-.3-.2,0-.3,0-.5,0h0c-3.2-.6-6.5-.9-9.8-.9s-6.6.3-9.8.9h0c-.2,0-.3,0-.5,0-.6.1-1.1.2-1.7.3-.3,0-.6.1-.9.2-.6.2-1.2.3-1.9.5-.2,0-.5.1-.7.2-.6.2-1.2.4-1.9.6-.2,0-.5.2-.7.2,0,0,0,0-.1,0-.4-.6-.8-1.3-1.3-1.9-8.8-11.7-23.1-16.9-36.7-14.7-6,12.3-5,27.5,3.8,39.3,1.2,1.5,2.4,3,3.8,4.3-3.1,6.2-5,13.1-5.4,20.3,0,.2,0,.5,0,.7,0,0,0,0,0,0,0,.4,0,.9,0,1.3,0,0,0,0,0,0,0,.5,0,1,0,1.6,0,.9,0,1.8,0,2.6,0,.3,0,.5,0,.8,0,.6,0,1.2.1,1.8,0,.3,0,.6.1,1,0,.5.1,1.1.2,1.6,0,.3.1.7.2,1,0,.2,0,.5.1.7,0,0,0,0,0,0,4.5,25.3,26.6,44.5,53.2,44.5s48.7-19.2,53.2-44.5c0,0,0,0,0,0,0-.3,0-.5.1-.8,0-.3.1-.7.2-1,0-.5.1-1.1.2-1.6Z"/>
  <g>
    <path class="st3" d="M87.1,88.5c-13.5,2.3-27.9-2.9-36.7-14.6-8.8-11.7-9.8-26.9-3.8-39.3,13.5-2.3,27.9,2.9,36.7,14.7,8.8,11.7,9.8,26.9,3.8,39.2h0Z"/>
    <path class="st1" d="M79.1,77.9c-7.5.8-15.7-2.7-21-9.8-5.3-7.1-6.4-16-3.5-22.9,7.5-.8,15.7,2.7,21,9.8,5.3,7.1,6.4,16,3.5,22.9h0Z"/>
    <path class="st3" d="M117.4,88.5c13.5,2.3,27.9-2.9,36.7-14.6,8.8-11.7,9.8-26.9,3.8-39.3-13.5-2.3-27.9,2.9-36.7,14.7-8.8,11.7-9.8,26.9-3.8,39.2h0Z"/>
    <path class="st1" d="M125.4,77.9c7.5.8,15.7-2.7,21-9.8,5.3-7.1,6.4-16,3.5-22.9-7.5-.8-15.7,2.7-21,9.8-5.3,7.1-6.4,16-3.5,22.9h0Z"/>
    <path class="st3" d="M102.6,48c29.9,0,54.1,24.2,54.1,54s-24.2,54-54.1,54-54.1-24.2-54.1-54,24.2-54,54.1-54h0Z"/>
    <path class="st1" d="M102.6,104.3c11.3,0,20.5,9.2,20.5,20.5s-9.2,20.5-20.5,20.5-20.5-9.2-20.5-20.5,9.2-20.5,20.5-20.5h0Z"/>
    <path class="st6" d="M102.6,122.6c-.7,0-1.3-.6-1.3-1.3v-13.3c0-.7.6-1.3,1.3-1.3s1.3.6,1.3,1.3v13.3c0,.7-.6,1.3-1.3,1.3Z"/>
    <path class="st0" d="M110.9,104.6c0,4.9-5.9,9-8.2,10.9-2.3-1.9-8.2-6-8.2-10.9s16.4-5,16.4,0h0Z"/>
    <path class="st6" d="M96.3,128.9c-4.2,0-7.6-3.4-7.6-7.6s.6-1.3,1.3-1.3,1.3.6,1.3,1.3c0,2.8,2.3,5,5.1,5s5.1-2.3,5.1-5,.6-1.3,1.3-1.3,1.3.6,1.3,1.3c0,4.2-3.4,7.6-7.6,7.6Z"/>
    <path class="st6" d="M109,128.9c-4.2,0-7.6-3.4-7.6-7.6s.6-1.3,1.3-1.3,1.3.6,1.3,1.3c0,2.8,2.3,5,5.1,5s5.1-2.3,5.1-5,.6-1.3,1.3-1.3,1.3.6,1.3,1.3c0,4.2-3.4,7.6-7.6,7.6Z"/>
    <path class="st7" d="M146.9,126.1h-20.7c-.7,0-1.3-.6-1.3-1.3s.6-1.3,1.3-1.3h20.7c.7,0,1.3.6,1.3,1.3s-.6,1.3-1.3,1.3Z"/>
    <path class="st7" d="M140.7,136.3c-.1,0-.2,0-.3,0l-15.3-4.1c-.7-.2-1.1-.9-.9-1.6.2-.7.9-1.1,1.6-.9l15.3,4.1c.7.2,1.1.9.9,1.6-.2.6-.7,1-1.2,1Z"/>
    <path class="st7" d="M125.4,120c-.6,0-1.1-.4-1.2-1-.2-.7.2-1.4.9-1.6l15.6-4.2c.7-.2,1.4.2,1.6.9.2.7-.2,1.4-.9,1.6l-15.6,4.2c-.1,0-.2,0-.3,0Z"/>
    <path class="st7" d="M79.1,126.1h-20.7c-.7,0-1.3-.6-1.3-1.3s.6-1.3,1.3-1.3h20.7c.7,0,1.3.6,1.3,1.3s-.6,1.3-1.3,1.3Z"/>
    <path class="st7" d="M64.6,136.3c-.6,0-1.1-.4-1.2-1-.2-.7.2-1.4.9-1.6l15.3-4.1c.7-.2,1.4.2,1.6.9s-.2,1.4-.9,1.6l-15.3,4.1c-.1,0-.2,0-.3,0Z"/>
    <path class="st7" d="M79.9,120c-.1,0-.2,0-.3,0l-15.7-4.2c-.7-.2-1.1-.9-.9-1.6.2-.7.9-1.1,1.6-.9l15.7,4.2c.7.2,1.1.9.9,1.6-.2.6-.7,1-1.2,1Z"/>
    <path class="st4" d="M108.3,48.3c.2,2.8.2,5.8.2,8.9,0,17-2.6,30.9-5.9,30.9s-5.9-13.8-5.9-30.9,0-6.1.2-8.9c1.9-.2,3.7-.3,5.6-.3s3.8.1,5.6.3h0Z"/>
    <path class="st4" d="M92.8,48.9v1.2c0,15-2.3,27.2-5.2,27.2s-5-11.2-5.2-25.4c3.3-1.3,6.8-2.3,10.4-3h0Z"/>
    <path class="st4" d="M122.8,51.9c-.2,14.2-2.4,25.4-5.2,25.4s-5.2-12.2-5.2-27.2v-1.2c3.6.7,7.1,1.7,10.4,3h0Z"/>
    <path class="st4" d="M155.9,111.5c-14-4-24.4-9.2-23.7-11.9.7-2.6,11.2-2.2,24.5.8,0,.5,0,1,0,1.6,0,3.2-.3,6.4-.8,9.5h0Z"/>
    <path class="st4" d="M156.7,99.2c-10.1-3.5-16.8-7.3-16.2-9.6.5-1.9,6.3-2.2,14.6-1,.9,3.4,1.4,7,1.6,10.6h0Z"/>
    <path class="st4" d="M49.4,111.5c14-4,24.4-9.2,23.7-11.9-.7-2.6-11.2-2.2-24.5.8,0,.5,0,1,0,1.6,0,3.2.3,6.4.8,9.5h0Z"/>
    <path class="st4" d="M48.6,99.2c10.1-3.5,16.8-7.3,16.2-9.6-.5-1.9-6.3-2.2-14.6-1-.9,3.4-1.4,7-1.6,10.6h0Z"/>
    <path class="st8" d="M96.7,105.4c-.3,0-.5-.1-.7-.4-.2-.4-.1-.9.3-1.1h.1c1.6-1,3.1-1.9,6.3-1.7.4,0,.8.4.8.9,0,.4-.4.8-.9.8-2.8-.2-3.9.5-5.4,1.4h-.1c-.1.2-.3.2-.4.2Z"/>
    <path class="st0" d="M85.4,82.6c2.5,0,4.5,3.7,4.5,8.2s-2,8.2-4.5,8.2-4.4-3.7-4.4-8.2,2-8.2,4.4-8.2h0Z"/>
    <path class="st0" d="M119.9,82.6c2.5,0,4.5,3.7,4.5,8.2s-2,8.2-4.5,8.2-4.4-3.7-4.4-8.2,2-8.2,4.4-8.2h0Z"/>
    <path class="st2" d="M83.9,84.4c.8,0,1.4.6,1.4,1.4s-.6,1.5-1.4,1.5-1.4-.7-1.4-1.5.6-1.4,1.4-1.4h0Z"/>
    <path class="st2" d="M118.7,84.4c.8,0,1.4.6,1.4,1.4s-.6,1.5-1.4,1.5-1.4-.7-1.4-1.5.6-1.4,1.4-1.4h0Z"/>
  </g>
</svg>