<?xml version="1.0" encoding="UTF-8"?>
<svg id="Capa_1" xmlns="http://www.w3.org/2000/svg" version="1.1" viewBox="0 0 206.3 187.2">
  <!-- Generator: Adobe Illustrator 30.2.1, SVG Export Plug-In . SVG Version: 2.1.1 Build 1)  -->
  <defs>
    <style>
      .st0 {
        fill: #d4762a;
        opacity: .4;
      }

      .st1 {
        fill: #533b1b;
      }

      .st2 {
        fill: #fff;
      }

      .st3 {
        fill: #f6da70;
      }

      .st4 {
        fill: #060606;
        opacity: 0;
      }
    </style>
  </defs>
  <path class="st2" d="M162.7,75.9c0-.3-.1-.6-.2-.9,0-.3-.2-.6-.2-.9,0-.3-.2-.6-.3-.9-.1-.3-.2-.6-.4-.9-.1-.3-.2-.6-.4-.8-.1-.3-.3-.6-.5-.8-.2-.3-.3-.5-.5-.8-.2-.3-.4-.5-.6-.9-.2-.2-.4-.5-.5-.7-.2-.2-.4-.4-.6-.7h-.1c-.2-.3-.4-.5-.6-.7-.2-.2-.5-.4-.7-.6h-.1c-.2-.3-.5-.5-.7-.6-.3-.2-.5-.3-.8-.5h-.2c-.3-.2-.5-.4-.8-.5-.3-.1-.6-.3-.9-.4h-.2c-.3-.2-.5-.3-.8-.4-.7-.2-1.4-.4-2.1-.5l-13.3-2.1c-6-1-11.3-4.8-14.1-10.2l-6.1-12c-2.6-5-7.6-8.1-13.2-8.1s-10.7,3.1-13.2,8.1l-6.1,12c-2.8,5.4-8,9.2-14.1,10.2l-13.3,2.1c-5.5.9-10,4.7-11.8,10.1-1.7,5.3-.4,11.1,3.6,15.1l9.5,9.5c4.3,4.3,6.3,10.5,5.4,16.5l-2.1,13.3c-.3,1.8-.2,3.6.1,5.3,0,.1,0,.3,0,.4,0,.1,0,.3.1.4,0,.3.1.5.2.7,0,.3.2.6.3.9.1.3.2.6.4.9.1.3.3.5.4.8.1.3.3.5.4.8.2.3.3.5.6.8.2.3.4.6.7.8.3.4.6.7,1,1,.2.2.3.3.6.5.3.2.5.4.8.6.2.2.4.3.6.5.3.2.6.4.9.5.2.1.5.3.7.4.3.2.7.3,1.1.5.2,0,.4.2.6.2.4.1.8.3,1.3.4.1,0,.3,0,.4.1.6.1,1.2.2,1.8.3.2,0,.4,0,.6,0,.4,0,.9,0,1.3,0,.2,0,.4,0,.7,0,.4,0,.8,0,1.2-.1.2,0,.5,0,.7-.1.4,0,.9-.2,1.3-.3.2,0,.4-.1.6-.2.7-.2,1.3-.5,1.9-.8l12-6.1c1-.5,2.1-.9,3.2-1.3.4-.1.7-.2,1.1-.3,4.4-1,9.1-.5,13.1,1.6l12,6.1c2.1,1.1,4.4,1.6,6.7,1.6s2.3-.1,3.4-.4c3.8-.9,7.2-3.4,9.3-6.7.7-1.2,1.3-2.4,1.6-3.7.4-1.3.6-2.7.5-4.2,0-.7,0-1.4-.2-2.2l-2.1-13.3c-.2-1.1-.2-2.2-.2-3.3,0,0,0,0,0-.1,0-3.8,1.3-7.4,3.4-10.5.6-.9,1.4-1.8,2.2-2.6l9.5-9.5c.5-.5,1-1,1.4-1.6.2-.2.3-.4.4-.6.2-.4.5-.7.7-1.1,0,0,0,0,0,0,.1-.2.2-.5.4-.8.2-.4.3-.7.5-1.1,0-.2.2-.5.3-.8.1-.4.2-.7.3-1.1,0-.3.1-.5.2-.8,0-.4.1-.7.2-1.1,0-.3,0-.6,0-.9,0-.3,0-.7,0-1,0-.3,0-.6,0-.9,0-.3,0-.7-.1-1Z"/>
  <g>
    <g>
      <path class="st3" d="M111.7,41.9l6.1,12c3.6,7.1,10.4,12,18.3,13.3l13.3,2.1c7.3,1.2,10.2,10.1,5,15.3l-9.5,9.5c-5.6,5.6-8.2,13.6-7,21.5l2.1,13.3c1.1,7.3-6.4,12.8-13,9.5l-12-6.1c-7.1-3.6-15.5-3.6-22.6,0l-12,6.1c-6.6,3.3-14.2-2.2-13-9.5l2.1-13.3c1.2-7.9-1.4-15.9-7-21.5l-9.5-9.5c-5.2-5.2-2.3-14.1,5-15.3l13.3-2.1c7.9-1.3,14.7-6.2,18.3-13.3l6.1-12c3.4-6.6,12.7-6.6,16.1,0Z"/>
      <path class="st4" d="M150.7,69.6c.7,2.9,0,6.1-2.4,8.5l-9.5,9.5c-5.6,5.6-8.2,13.6-7,21.5l2.1,13.3c1.1,7.3-6.4,12.8-13,9.5l-12-6.1c-7.1-3.6-15.5-3.6-22.6,0l-12,6.1c-2.3,1.2-4.7,1.2-6.8.6,1.3,5.4,7.4,8.7,12.9,5.9l12-6.1c7.1-3.6,15.5-3.6,22.6,0l12,6.1c6.6,3.3,14.2-2.2,13-9.5l-2.1-13.3c-1.2-7.9,1.4-15.9,7-21.5l9.5-9.5c4.9-4.9,2.6-13.1-3.7-15Z"/>
    </g>
    <g>
      <ellipse class="st0" cx="79.2" cy="93" rx="5.1" ry="1.6"/>
      <ellipse class="st0" cx="128.1" cy="93" rx="5.1" ry="1.6"/>
      <g>
        <ellipse class="st1" cx="86.2" cy="83.6" rx="2.9" ry="4.3"/>
        <ellipse class="st1" cx="121.2" cy="83.6" rx="2.9" ry="4.3"/>
        <path class="st2" d="M123.2,84.5c0,.6-.5,1.1-1.1,1.1s-1.1-.5-1.1-1.1.5-1.1,1.1-1.1,1.1.5,1.1,1.1Z"/>
        <path class="st2" d="M88,84.5c0,.6-.5,1.1-1.1,1.1s-1.1-.5-1.1-1.1.5-1.1,1.1-1.1,1.1.5,1.1,1.1Z"/>
      </g>
      <path class="st2" d="M91.6,96.7c0,4.9,5.4,8.9,12.1,8.9s12.1-4,12.1-8.9h-24.2Z"/>
    </g>
  </g>
</svg>