<?xml version="1.0" encoding="UTF-8" standalone="no"?>
<svg
   width="350"
   height="472"
   viewBox="0 0 350 472"
   version="1.1"
   id="svg52"
   sodipodi:docname="receipt.svg"
   inkscape:version="1.4 (86a8ad7, 2024-10-11)"
   xmlns:inkscape="http://www.inkscape.org/namespaces/inkscape"
   xmlns:sodipodi="http://sodipodi.sourceforge.net/DTD/sodipodi-0.dtd"
   xmlns="http://www.w3.org/2000/svg"
   xmlns:svg="http://www.w3.org/2000/svg">
  <defs
     id="defs52">
    <filter
       id="paperTexture"
       x="0"
       y="0"
       width="1"
       height="1">
      <feTurbulence
         type="fractalNoise"
         baseFrequency="0.04"
         numOctaves="5"
         result="noise"
         id="feTurbulence1" />
      <feDiffuseLighting
         in="noise"
         lighting-color="#f9f7f0"
         surfaceScale="2"
         id="feDiffuseLighting1">
        <feDistantLight
           azimuth="45"
           elevation="60"
           id="feDistantLight1" />
      </feDiffuseLighting>
    </filter>
  </defs>
  <sodipodi:namedview
     id="namedview52"
     pagecolor="#ffffff"
     bordercolor="#000000"
     borderopacity="0.25"
     inkscape:showpageshadow="2"
     inkscape:pageopacity="0.0"
     inkscape:pagecheckerboard="0"
     inkscape:deskcolor="#d1d1d1"
     inkscape:zoom="1.37"
     inkscape:cx="169.70803"
     inkscape:cy="274.45255"
     inkscape:window-width="1920"
     inkscape:window-height="991"
     inkscape:window-x="-9"
     inkscape:window-y="-9"
     inkscape:window-maximized="1"
     inkscape:current-layer="svg52" />
  <path
     id="use1"
     d="m 1.7285531,2.0153649 24.9999999,-1.99999998 25,3.99999998 30,-3 29.999997,2 30,-2.99999998 30,3.99999998 30,-3 30,2 30,-2.99999998 30,3.99999998 20,-2 2,30.0000001 -4,30 5,30 -4,29.999995 2,30 -3,30 4,30 -3,30 2,30 -3,30 4,30 -3,30 2,30 -3,30 4,30 -3,30 2,30 -3,30 2,20 -20,-2 -30,4 -30,-3 -30,2 -30,-3 -30,4 -30,-3 -29.999997,2 -30,-3 -30,4 -19.9999999,-2 -1.99999996,-30 3.99999996,-30 -2.99999996,-30 1.99999996,-30 -2.99999996,-30 3.99999996,-30 -2.99999996,-30 1.99999996,-30 -2.99999996,-30 3.99999996,-30 -2.99999996,-30 1.99999996,-30 -2.99999996,-30 3.99999996,-30 -2.99999996,-30 1.99999996,-29.999995 -2.99999996,-30 3.99999996,-30 z"
     style="filter:url(#paperTexture)"
     transform="matrix(1.1135297,0,0,0.83687944,0.03081727,0.00250634)" />
  <style
     id="style1">
            .receipt-text { font-family: 'Courier New', Courier, monospace; font-size: 14px; fill: black; }
            .header { font-weight: bold; font-size: 18px; text-anchor: middle; }
            .price { text-anchor: end; }
            .total { font-weight: bold; font-size: 16px; }
            .barcode-rect { fill: black; }
        </style>
  <text
     x="175"
     y="40"
     class="receipt-text header"
     id="text1">MAYNOOTH SUPERSAVINGS</text>
  <line
     x1="20"
     y1="66"
     x2="330"
     y2="66"
     stroke="#000000"
     stroke-width="1"
     stroke-dasharray="4, 4"
     id="line5" />
  <text
     x="20"
     y="86"
     class="receipt-text total"
     id="text6">ITEM CODE</text>
  <text
     x="330"
     y="86"
     class="receipt-text total price"
     id="text7">PRICE</text>
  <text
     x="20"
     y="111"
     class="receipt-text"
     id="text8">123484929354.............</text>
  <text
     x="330"
     y="111"
     class="receipt-text price"
     id="text9">€1.00</text>
  <text
     x="20"
     y="131"
     class="receipt-text"
     id="text10">123484920354.............</text>
  <text
     x="330"
     y="131"
     class="receipt-text price"
     id="text11">€2.00</text>
  <text
     x="20"
     y="151"
     class="receipt-text"
     id="text12">123484921354.............</text>
  <text
     x="330"
     y="151"
     class="receipt-text price"
     id="text13">€3.00</text>
  <text
     x="20"
     y="171"
     class="receipt-text"
     id="text14">123484922354.............</text>
  <text
     x="330"
     y="171"
     class="receipt-text price"
     id="text15">€4.00</text>
  <text
     x="20"
     y="191"
     class="receipt-text"
     id="text16">123484929354.............</text>
  <text
     x="330"
     y="191"
     class="receipt-text price"
     id="text17">€1.00</text>
  <text
     x="20"
     y="211"
     class="receipt-text"
     id="text18">123484921354.............</text>
  <text
     x="330"
     y="211"
     class="receipt-text price"
     id="text19">€3.00</text>
  <text
     x="20"
     y="231"
     class="receipt-text"
     id="text20">123484922354.............</text>
  <text
     x="330"
     y="231"
     class="receipt-text price"
     id="text21">€4.00</text>
  <text
     x="20"
     y="251"
     class="receipt-text"
     id="text22">123484929354.............</text>
  <text
     x="330"
     y="251"
     class="receipt-text price"
     id="text23">€1.00</text>
  <text
     x="20"
     y="271"
     class="receipt-text"
     id="text24">123484923354.............</text>
  <text
     x="330"
     y="271"
     class="receipt-text price"
     id="text25">€5.00</text>
  <text
     x="20"
     y="291"
     class="receipt-text"
     id="text26">123484929354.............</text>
  <text
     x="330"
     y="291"
     class="receipt-text price"
     id="text27">€1.00</text>
  <text
     x="20"
     y="311"
     class="receipt-text"
     id="text28">123484922354.............</text>
  <text
     x="330"
     y="311"
     class="receipt-text price"
     id="text29">€4.00</text>
  <line
     x1="20"
     y1="331"
     x2="330"
     y2="331"
     stroke="#000000"
     stroke-width="1"
     id="line29" />
  <text
     x="20"
     y="356"
     class="receipt-text total"
     id="text30">TOTAL</text>
  <text
     x="330"
     y="356"
     class="receipt-text total price"
     id="text31">€29.00</text>
  <text
     x="20"
     y="381"
     class="receipt-text"
     id="text32">ITEMS COUNT: 11</text>
  <line
     x1="20"
     y1="390.5"
     x2="330"
     y2="390.5"
     stroke="#000000"
     stroke-width="1"
     stroke-dasharray="4, 4"
     id="line36" />
  <text
     x="175"
     y="410.5"
     class="receipt-text"
     text-anchor="middle"
     id="text37">THANK YOU FOR SHOPPING!</text>
  <text
     x="175"
     y="425.5"
     class="receipt-text"
     text-anchor="middle"
     id="text38">Please come again.</text>
  <g
     transform="translate(100,440.5)"
     id="g52">
    <rect
       x="0"
       y="0"
       width="3"
       height="15"
       class="barcode-rect"
       id="rect38" />
    <rect
       x="5"
       y="0"
       width="1"
       height="15"
       class="barcode-rect"
       id="rect39" />
    <rect
       x="8"
       y="0"
       width="4"
       height="15"
       class="barcode-rect"
       id="rect40" />
    <rect
       x="14"
       y="0"
       width="2"
       height="15"
       class="barcode-rect"
       id="rect41" />
    <rect
       x="18"
       y="0"
       width="5"
       height="15"
       class="barcode-rect"
       id="rect42" />
    <rect
       x="25"
       y="0"
       width="1"
       height="15"
       class="barcode-rect"
       id="rect43" />
    <rect
       x="28"
       y="0"
       width="3"
       height="15"
       class="barcode-rect"
       id="rect44" />
    <rect
       x="33"
       y="0"
       width="6"
       height="15"
       class="barcode-rect"
       id="rect45" />
    <rect
       x="41"
       y="0"
       width="2"
       height="15"
       class="barcode-rect"
       id="rect46" />
    <rect
       x="45"
       y="0"
       width="4"
       height="15"
       class="barcode-rect"
       id="rect47" />
    <rect
       x="51"
       y="0"
       width="1"
       height="15"
       class="barcode-rect"
       id="rect48" />
    <rect
       x="54"
       y="0"
       width="5"
       height="15"
       class="barcode-rect"
       id="rect49" />
    <rect
       x="61"
       y="0"
       width="3"
       height="15"
       class="barcode-rect"
       id="rect50" />
    <rect
       x="66"
       y="0"
       width="1"
       height="15"
       class="barcode-rect"
       id="rect51" />
    <rect
       x="69"
       y="0"
       width="4"
       height="15"
       class="barcode-rect"
       id="rect52" />
  </g>
</svg>
