<?xml version="1.0" encoding="UTF-8" standalone="no"?>
<svg
   width="350"
   height="472"
   viewBox="0 0 350 472"
   version="1.1"
   id="svg52"
   sodipodi:docname="receipt-IN.svg"
   inkscape:version="1.2.1 (9c6d41e410, 2022-07-14)"
   inkscape:export-filename="receipt.png"
   inkscape:export-xdpi="96"
   inkscape:export-ydpi="96"
   xmlns:inkscape="http://www.inkscape.org/namespaces/inkscape"
   xmlns:sodipodi="http://sodipodi.sourceforge.net/DTD/sodipodi-0.dtd"
   xmlns="http://www.w3.org/2000/svg"
   xmlns:svg="http://www.w3.org/2000/svg">
  <defs
     id="defs52">
    <filter
       id="paperTexture"
       x="0"
       y="0"
       width="1"
       height="1">
      <feTurbulence
         type="fractalNoise"
         baseFrequency="0.04"
         numOctaves="5"
         result="noise"
         id="feTurbulence1" />
      <feDiffuseLighting
         in="noise"
         lighting-color="#f9f7f0"
         surfaceScale="2"
         id="feDiffuseLighting1">
        <feDistantLight
           azimuth="45"
           elevation="60"
           id="feDistantLight1" />
      </feDiffuseLighting>
    </filter>
  </defs>
  <sodipodi:namedview
     id="namedview52"
     pagecolor="#ffffff"
     bordercolor="#000000"
     borderopacity="0.25"
     inkscape:showpageshadow="2"
     inkscape:pageopacity="0.0"
     inkscape:pagecheckerboard="0"
     inkscape:deskcolor="#d1d1d1"
     inkscape:zoom="1.37"
     inkscape:cx="170.07299"
     inkscape:cy="274.08759"
     inkscape:window-width="2560"
     inkscape:window-height="1560"
     inkscape:window-x="-12"
     inkscape:window-y="-12"
     inkscape:window-maximized="1"
     inkscape:current-layer="svg52"
     showgrid="false" />
  <path
     id="use1"
     d="m 1.7285531,2.0153649 24.9999999,-1.99999998 25,3.99999998 30,-3 29.999997,2 30,-2.99999998 30,3.99999998 30,-3 30,2 30,-2.99999998 30,3.99999998 20,-2 2,30.0000001 -4,30 5,30 -4,29.999995 2,30 -3,30 4,30 -3,30 2,30 -3,30 4,30 -3,30 2,30 -3,30 4,30 -3,30 2,30 -3,30 2,20 -20,-2 -30,4 -30,-3 -30,2 -30,-3 -30,4 -30,-3 -29.999997,2 -30,-3 -30,4 -19.9999999,-2 -1.99999996,-30 3.99999996,-30 -2.99999996,-30 1.99999996,-30 -2.99999996,-30 3.99999996,-30 -2.99999996,-30 1.99999996,-30 -2.99999996,-30 3.99999996,-30 -2.99999996,-30 1.99999996,-30 -2.99999996,-30 3.99999996,-30 -2.99999996,-30 1.99999996,-29.999995 -2.99999996,-30 3.99999996,-30 z"
     style="filter:url(#paperTexture)"
     transform="matrix(1.1135297,0,0,0.83687944,0.03081727,0.00250634)" />
  <style
     id="style1">
            .receipt-text { font-family: 'Courier New', Courier, monospace; font-size: 14px; fill: black; }
            .header { font-weight: bold; font-size: 18px; text-anchor: middle; }
            .price { text-anchor: end; }
            .total { font-weight: bold; font-size: 16px; }
            .barcode-rect { fill: black; }
        </style>
  <text
     x="175"
     y="40"
     class="receipt-text header"
     id="text1">BALAJI SUPERMART</text>
  <line
     x1="20"
     y1="66"
     x2="330"
     y2="66"
     stroke="#000000"
     stroke-width="1"
     stroke-dasharray="4, 4"
     id="line5" />
  <text
     x="20"
     y="86"
     class="receipt-text total"
     id="text6">ITEM CODE</text>
  <text
     x="330"
     y="86"
     class="receipt-text total price"
     id="text7">PRICE</text>
  <text
     x="20"
     y="111"
     class="receipt-text"
     id="text8">123484929354.............</text>
  <g
     aria-label="₹10.00"
     id="text9"
     class="receipt-text price"
     style="font-size:14px;font-family:'Courier New', Courier, monospace;text-anchor:end">
    <path
       d="m 285.28613,110.49414 q 0.22559,0.19824 0.22559,0.35547 0,0.0957 -0.082,0.17773 -0.082,0.082 -0.17774,0.082 -0.0752,0 -0.1709,-0.0547 -0.0889,-0.0478 -0.17773,-0.12989 l -3.5752,-3.19921 q -0.17773,-0.16407 -0.17773,-0.29395 0,-0.13672 0.10938,-0.21191 0.10937,-0.0752 0.2871,-0.0752 h 1.14844 q 0.34864,0 0.71094,-0.10254 0.36914,-0.10254 0.67676,-0.29394 0.31445,-0.19825 0.54004,-0.47168 0.22558,-0.28028 0.30078,-0.63574 h -3.37012 q -0.38965,0 -0.38965,-0.29395 0,-0.28711 0.38965,-0.28711 h 3.37695 q -0.0615,-0.33496 -0.25976,-0.6084 -0.19141,-0.27344 -0.47168,-0.46484 -0.27344,-0.19824 -0.61524,-0.30078 -0.33496,-0.10938 -0.67675,-0.10938 h -1.36036 q -0.38281,0 -0.38281,-0.28711 0,-0.28711 0.38281,-0.28711 h 4.55274 q 0.45801,0 0.45801,0.28711 0,0.28711 -0.45801,0.28711 h -1.46289 q 0.35547,0.2666 0.58789,0.64258 0.23242,0.36914 0.28711,0.84082 h 0.58789 q 0.45801,0 0.45801,0.28711 0,0.29395 -0.45801,0.29395 h -0.58789 q -0.0684,0.50585 -0.3418,0.8955 -0.27344,0.38282 -0.66992,0.64942 -0.39648,0.25976 -0.875,0.39648 -0.47852,0.13672 -0.96387,0.13672 h -0.47851 z"
       id="path266" />
    <path
       d="m 292.47754,102.30469 v 8.12109 h 1.96875 q 0.20508,0 0.29394,0.082 0.0889,0.0752 0.0889,0.20508 0,0.12305 -0.0889,0.20508 -0.0889,0.082 -0.29394,0.082 h -4.51172 q -0.20508,0 -0.29395,-0.082 -0.0889,-0.082 -0.0889,-0.20508 0,-0.12988 0.0889,-0.20508 0.0889,-0.082 0.29395,-0.082 h 1.96875 v -7.32812 l -1.87305,0.58789 q -0.13672,0.041 -0.19824,0.041 -0.10254,0 -0.19141,-0.082 -0.082,-0.0889 -0.082,-0.20508 0,-0.10254 0.0684,-0.1914 0.0547,-0.0547 0.22559,-0.11621 z"
       id="path268" />
    <path
       d="m 303.23047,106.00293 v 1.42187 q 0,1.85254 -0.88184,2.93262 -0.69043,0.84766 -1.74316,0.84766 -0.50586,0 -0.95703,-0.20508 -0.44434,-0.19824 -0.75879,-0.56055 -0.19824,-0.22558 -0.4375,-0.72461 -0.23242,-0.49902 -0.33496,-0.91601 -0.15723,-0.58789 -0.15723,-1.37403 v -1.42187 q 0,-1.85938 0.88184,-2.93945 0.69043,-0.84766 1.74316,-0.84766 0.5127,0 0.95703,0.20508 0.44434,0.19824 0.75879,0.56055 0.20508,0.23242 0.4375,0.73144 0.23242,0.49902 0.3418,0.90918 0.15039,0.58789 0.15039,1.38086 z m -0.57422,0.0752 q 0,-0.81348 -0.23242,-1.51075 -0.22559,-0.7041 -0.5127,-1.12109 -0.1709,-0.23926 -0.44433,-0.41016 -0.38965,-0.23925 -0.875,-0.23925 -0.96387,0 -1.51075,0.98437 -0.54687,0.98438 -0.54687,2.29688 v 1.26464 q 0,0.81348 0.22559,1.51758 0.23242,0.7041 0.52636,1.1211 0.16407,0.23242 0.4375,0.40332 0.38965,0.24609 0.88184,0.24609 0.95703,0 1.5039,-0.98438 0.54688,-0.99121 0.54688,-2.30371 z"
       id="path270" />
    <path
       d="m 308.87695,109.35254 h 0.2461 q 0.38281,0 0.65625,0.27344 0.27343,0.2666 0.27343,0.64941 0,0.39649 -0.28027,0.66309 -0.27344,0.2666 -0.64941,0.2666 h -0.2461 q -0.38281,0 -0.65625,-0.2666 -0.27343,-0.27344 -0.27343,-0.65625 0,-0.39649 0.27343,-0.66309 0.28028,-0.2666 0.65625,-0.2666 z"
       id="path272" />
    <path
       d="m 320.0332,106.00293 v 1.42187 q 0,1.85254 -0.88183,2.93262 -0.69043,0.84766 -1.74317,0.84766 -0.50586,0 -0.95703,-0.20508 -0.44433,-0.19824 -0.75879,-0.56055 -0.19824,-0.22558 -0.4375,-0.72461 -0.23242,-0.49902 -0.33496,-0.91601 -0.15722,-0.58789 -0.15722,-1.37403 v -1.42187 q 0,-1.85938 0.88183,-2.93945 0.69043,-0.84766 1.74317,-0.84766 0.51269,0 0.95703,0.20508 0.44433,0.19824 0.75879,0.56055 0.20507,0.23242 0.4375,0.73144 0.23242,0.49902 0.34179,0.90918 0.15039,0.58789 0.15039,1.38086 z m -0.57422,0.0752 q 0,-0.81348 -0.23242,-1.51075 -0.22558,-0.7041 -0.51269,-1.12109 -0.1709,-0.23926 -0.44434,-0.41016 -0.38965,-0.23925 -0.875,-0.23925 -0.96387,0 -1.51074,0.98437 -0.54688,0.98438 -0.54688,2.29688 v 1.26464 q 0,0.81348 0.22559,1.51758 0.23242,0.7041 0.52637,1.1211 0.16406,0.23242 0.4375,0.40332 0.38965,0.24609 0.88183,0.24609 0.95703,0 1.50391,-0.98438 0.54687,-0.99121 0.54687,-2.30371 z"
       id="path274" />
    <path
       d="m 328.43457,106.00293 v 1.42187 q 0,1.85254 -0.88184,2.93262 -0.69043,0.84766 -1.74316,0.84766 -0.50586,0 -0.95703,-0.20508 -0.44434,-0.19824 -0.75879,-0.56055 -0.19824,-0.22558 -0.4375,-0.72461 -0.23242,-0.49902 -0.33496,-0.91601 -0.15723,-0.58789 -0.15723,-1.37403 v -1.42187 q 0,-1.85938 0.88184,-2.93945 0.69043,-0.84766 1.74316,-0.84766 0.5127,0 0.95703,0.20508 0.44434,0.19824 0.75879,0.56055 0.20508,0.23242 0.4375,0.73144 0.23242,0.49902 0.3418,0.90918 0.15039,0.58789 0.15039,1.38086 z m -0.57422,0.0752 q 0,-0.81348 -0.23242,-1.51075 -0.22559,-0.7041 -0.5127,-1.12109 -0.17089,-0.23926 -0.44433,-0.41016 -0.38965,-0.23925 -0.875,-0.23925 -0.96387,0 -1.51074,0.98437 -0.54688,0.98438 -0.54688,2.29688 v 1.26464 q 0,0.81348 0.22559,1.51758 0.23242,0.7041 0.52636,1.1211 0.16407,0.23242 0.4375,0.40332 0.38965,0.24609 0.88184,0.24609 0.95703,0 1.50391,-0.98438 0.54687,-0.99121 0.54687,-2.30371 z"
       id="path276" />
  </g>
  <text
     x="20"
     y="131"
     class="receipt-text"
     id="text10">123484920354.............</text>
  <g
     aria-label="₹20.00"
     id="text11"
     class="receipt-text price"
     style="font-size:14px;font-family:'Courier New', Courier, monospace;text-anchor:end">
    <path
       d="m 285.28613,130.49414 q 0.22559,0.19824 0.22559,0.35547 0,0.0957 -0.082,0.17773 -0.082,0.082 -0.17774,0.082 -0.0752,0 -0.1709,-0.0547 -0.0889,-0.0478 -0.17773,-0.12989 l -3.5752,-3.19921 q -0.17773,-0.16407 -0.17773,-0.29395 0,-0.13672 0.10938,-0.21191 0.10937,-0.0752 0.2871,-0.0752 h 1.14844 q 0.34864,0 0.71094,-0.10254 0.36914,-0.10254 0.67676,-0.29394 0.31445,-0.19825 0.54004,-0.47168 0.22558,-0.28028 0.30078,-0.63574 h -3.37012 q -0.38965,0 -0.38965,-0.29395 0,-0.28711 0.38965,-0.28711 h 3.37695 q -0.0615,-0.33496 -0.25976,-0.6084 -0.19141,-0.27344 -0.47168,-0.46484 -0.27344,-0.19824 -0.61524,-0.30078 -0.33496,-0.10938 -0.67675,-0.10938 h -1.36036 q -0.38281,0 -0.38281,-0.28711 0,-0.28711 0.38281,-0.28711 h 4.55274 q 0.45801,0 0.45801,0.28711 0,0.28711 -0.45801,0.28711 h -1.46289 q 0.35547,0.2666 0.58789,0.64258 0.23242,0.36914 0.28711,0.84082 h 0.58789 q 0.45801,0 0.45801,0.28711 0,0.29395 -0.45801,0.29395 h -0.58789 q -0.0684,0.50585 -0.3418,0.8955 -0.27344,0.38282 -0.66992,0.64942 -0.39648,0.25976 -0.875,0.39648 -0.47852,0.13672 -0.96387,0.13672 h -0.47851 z"
       id="path279" />
    <path
       d="m 289.72266,130.42578 h 4.40918 v -0.22558 q 0,-0.20508 0.082,-0.29395 0.082,-0.0889 0.21191,-0.0889 0.12305,0 0.20508,0.0889 0.082,0.0889 0.082,0.29395 V 131 h -5.55078 v -0.84766 q 1.75,-1.57226 3.4043,-3.19921 0.77246,-0.75879 1.05957,-1.11426 0.28711,-0.35547 0.38964,-0.62207 0.10938,-0.27344 0.10938,-0.54688 0,-0.73828 -0.59473,-1.30566 -0.59472,-0.56738 -1.43554,-0.56738 -0.75196,0 -1.33301,0.43066 -0.58106,0.43066 -0.75195,1.06641 -0.041,0.16406 -0.10254,0.21191 -0.082,0.0684 -0.19141,0.0684 -0.11621,0 -0.19824,-0.0752 -0.0752,-0.082 -0.0752,-0.1914 0,-0.32813 0.35547,-0.88867 0.36231,-0.56055 0.99121,-0.88184 0.63574,-0.32129 1.29883,-0.32129 1.07324,0 1.8457,0.74512 0.77246,0.74511 0.77246,1.68847 0,0.39649 -0.12988,0.73145 -0.12988,0.32812 -0.44433,0.72461 -0.30762,0.38965 -1.11426,1.18262 -2.02344,1.99609 -3.29492,3.09668 z"
       id="path281" />
    <path
       d="m 303.23047,126.00293 v 1.42187 q 0,1.85254 -0.88184,2.93262 -0.69043,0.84766 -1.74316,0.84766 -0.50586,0 -0.95703,-0.20508 -0.44434,-0.19824 -0.75879,-0.56055 -0.19824,-0.22558 -0.4375,-0.72461 -0.23242,-0.49902 -0.33496,-0.91601 -0.15723,-0.58789 -0.15723,-1.37403 v -1.42187 q 0,-1.85938 0.88184,-2.93945 0.69043,-0.84766 1.74316,-0.84766 0.5127,0 0.95703,0.20508 0.44434,0.19824 0.75879,0.56055 0.20508,0.23242 0.4375,0.73144 0.23242,0.49902 0.3418,0.90918 0.15039,0.58789 0.15039,1.38086 z m -0.57422,0.0752 q 0,-0.81348 -0.23242,-1.51075 -0.22559,-0.7041 -0.5127,-1.12109 -0.1709,-0.23926 -0.44433,-0.41016 -0.38965,-0.23925 -0.875,-0.23925 -0.96387,0 -1.51075,0.98437 -0.54687,0.98438 -0.54687,2.29688 v 1.26464 q 0,0.81348 0.22559,1.51758 0.23242,0.7041 0.52636,1.1211 0.16407,0.23242 0.4375,0.40332 0.38965,0.24609 0.88184,0.24609 0.95703,0 1.5039,-0.98438 0.54688,-0.99121 0.54688,-2.30371 z"
       id="path283" />
    <path
       d="m 308.87695,129.35254 h 0.2461 q 0.38281,0 0.65625,0.27344 0.27343,0.2666 0.27343,0.64941 0,0.39648 -0.28027,0.66309 -0.27344,0.2666 -0.64941,0.2666 h -0.2461 q -0.38281,0 -0.65625,-0.2666 -0.27343,-0.27344 -0.27343,-0.65625 0,-0.39649 0.27343,-0.66309 0.28028,-0.2666 0.65625,-0.2666 z"
       id="path285" />
    <path
       d="m 320.0332,126.00293 v 1.42187 q 0,1.85254 -0.88183,2.93262 -0.69043,0.84766 -1.74317,0.84766 -0.50586,0 -0.95703,-0.20508 -0.44433,-0.19824 -0.75879,-0.56055 -0.19824,-0.22558 -0.4375,-0.72461 -0.23242,-0.49902 -0.33496,-0.91601 -0.15722,-0.58789 -0.15722,-1.37403 v -1.42187 q 0,-1.85938 0.88183,-2.93945 0.69043,-0.84766 1.74317,-0.84766 0.51269,0 0.95703,0.20508 0.44433,0.19824 0.75879,0.56055 0.20507,0.23242 0.4375,0.73144 0.23242,0.49902 0.34179,0.90918 0.15039,0.58789 0.15039,1.38086 z m -0.57422,0.0752 q 0,-0.81348 -0.23242,-1.51075 -0.22558,-0.7041 -0.51269,-1.12109 -0.1709,-0.23926 -0.44434,-0.41016 -0.38965,-0.23925 -0.875,-0.23925 -0.96387,0 -1.51074,0.98437 -0.54688,0.98438 -0.54688,2.29688 v 1.26464 q 0,0.81348 0.22559,1.51758 0.23242,0.7041 0.52637,1.1211 0.16406,0.23242 0.4375,0.40332 0.38965,0.24609 0.88183,0.24609 0.95703,0 1.50391,-0.98438 0.54687,-0.99121 0.54687,-2.30371 z"
       id="path287" />
    <path
       d="m 328.43457,126.00293 v 1.42187 q 0,1.85254 -0.88184,2.93262 -0.69043,0.84766 -1.74316,0.84766 -0.50586,0 -0.95703,-0.20508 -0.44434,-0.19824 -0.75879,-0.56055 -0.19824,-0.22558 -0.4375,-0.72461 -0.23242,-0.49902 -0.33496,-0.91601 -0.15723,-0.58789 -0.15723,-1.37403 v -1.42187 q 0,-1.85938 0.88184,-2.93945 0.69043,-0.84766 1.74316,-0.84766 0.5127,0 0.95703,0.20508 0.44434,0.19824 0.75879,0.56055 0.20508,0.23242 0.4375,0.73144 0.23242,0.49902 0.3418,0.90918 0.15039,0.58789 0.15039,1.38086 z m -0.57422,0.0752 q 0,-0.81348 -0.23242,-1.51075 -0.22559,-0.7041 -0.5127,-1.12109 -0.17089,-0.23926 -0.44433,-0.41016 -0.38965,-0.23925 -0.875,-0.23925 -0.96387,0 -1.51074,0.98437 -0.54688,0.98438 -0.54688,2.29688 v 1.26464 q 0,0.81348 0.22559,1.51758 0.23242,0.7041 0.52636,1.1211 0.16407,0.23242 0.4375,0.40332 0.38965,0.24609 0.88184,0.24609 0.95703,0 1.50391,-0.98438 0.54687,-0.99121 0.54687,-2.30371 z"
       id="path289" />
  </g>
  <text
     x="20"
     y="151"
     class="receipt-text"
     id="text12">123484921354.............</text>
  <g
     aria-label="₹30.00"
     id="text13"
     class="receipt-text price"
     style="font-size:14px;font-family:'Courier New', Courier, monospace;text-anchor:end">
    <path
       d="m 285.28613,150.49414 q 0.22559,0.19824 0.22559,0.35547 0,0.0957 -0.082,0.17773 -0.082,0.082 -0.17774,0.082 -0.0752,0 -0.1709,-0.0547 -0.0889,-0.0478 -0.17773,-0.12989 l -3.5752,-3.19921 q -0.17773,-0.16407 -0.17773,-0.29395 0,-0.13672 0.10938,-0.21191 0.10937,-0.0752 0.2871,-0.0752 h 1.14844 q 0.34864,0 0.71094,-0.10254 0.36914,-0.10254 0.67676,-0.29394 0.31445,-0.19825 0.54004,-0.47168 0.22558,-0.28028 0.30078,-0.63575 h -3.37012 q -0.38965,0 -0.38965,-0.29394 0,-0.28711 0.38965,-0.28711 h 3.37695 q -0.0615,-0.33496 -0.25976,-0.6084 -0.19141,-0.27344 -0.47168,-0.46484 -0.27344,-0.19824 -0.61524,-0.30078 -0.33496,-0.10938 -0.67675,-0.10938 h -1.36036 q -0.38281,0 -0.38281,-0.28711 0,-0.28711 0.38281,-0.28711 h 4.55274 q 0.45801,0 0.45801,0.28711 0,0.28711 -0.45801,0.28711 h -1.46289 q 0.35547,0.2666 0.58789,0.64258 0.23242,0.36914 0.28711,0.84082 h 0.58789 q 0.45801,0 0.45801,0.28711 0,0.29394 -0.45801,0.29394 h -0.58789 q -0.0684,0.50586 -0.3418,0.89551 -0.27344,0.38282 -0.66992,0.64942 -0.39648,0.25976 -0.875,0.39648 -0.47852,0.13672 -0.96387,0.13672 h -0.47851 z"
       id="path292" />
    <path
       d="m 293.37305,146.33105 q 0.79297,0.35547 1.20996,0.97754 0.41699,0.61524 0.41699,1.28516 0,1.03223 -0.84082,1.8252 -0.83398,0.78613 -2.0918,0.78613 -0.73828,0 -1.53125,-0.31446 -0.79297,-0.31445 -1.10742,-0.64257 -0.10254,-0.10938 -0.10254,-0.23243 0,-0.10937 0.0752,-0.1914 0.082,-0.082 0.1914,-0.082 0.10938,0 0.2461,0.10254 1.05957,0.78613 2.24218,0.78613 0.99805,0 1.66797,-0.62207 0.67676,-0.62891 0.67676,-1.39453 0,-0.5127 -0.33496,-1.00489 -0.32812,-0.49218 -0.9502,-0.77246 -0.62207,-0.28711 -1.25781,-0.28711 -0.20508,0 -0.29394,-0.0752 -0.0889,-0.082 -0.0889,-0.21191 0,-0.12305 0.082,-0.20508 0.0889,-0.082 0.25977,-0.082 l 0.49218,0.007 q 0.77247,0 1.27149,-0.47168 0.50586,-0.47168 0.50586,-1.09375 0,-0.64258 -0.52637,-1.13476 -0.52637,-0.49219 -1.37402,-0.49219 -0.59473,0 -1.09375,0.20508 -0.49903,0.20508 -0.79981,0.56054 -0.10937,0.13672 -0.1709,0.1709 -0.0547,0.0273 -0.12988,0.0273 -0.11621,0 -0.19824,-0.0752 -0.082,-0.082 -0.082,-0.19141 0,-0.27343 0.59472,-0.69043 0.82715,-0.58105 1.87989,-0.58105 1.08691,0 1.78418,0.65625 0.69726,0.64941 0.69726,1.55176 0,0.57422 -0.33496,1.08691 -0.33496,0.5127 -0.98437,0.82031 z"
       id="path294" />
    <path
       d="m 303.23047,146.00293 v 1.42187 q 0,1.85254 -0.88184,2.93262 -0.69043,0.84766 -1.74316,0.84766 -0.50586,0 -0.95703,-0.20508 -0.44434,-0.19824 -0.75879,-0.56055 -0.19824,-0.22558 -0.4375,-0.72461 -0.23242,-0.49902 -0.33496,-0.91601 -0.15723,-0.58789 -0.15723,-1.37403 v -1.42187 q 0,-1.85938 0.88184,-2.93945 0.69043,-0.84766 1.74316,-0.84766 0.5127,0 0.95703,0.20508 0.44434,0.19824 0.75879,0.56055 0.20508,0.23242 0.4375,0.73144 0.23242,0.49902 0.3418,0.90918 0.15039,0.58789 0.15039,1.38086 z m -0.57422,0.0752 q 0,-0.81347 -0.23242,-1.51074 -0.22559,-0.7041 -0.5127,-1.12109 -0.1709,-0.23926 -0.44433,-0.41016 -0.38965,-0.23926 -0.875,-0.23926 -0.96387,0 -1.51075,0.98438 -0.54687,0.98437 -0.54687,2.29687 v 1.26465 q 0,0.81348 0.22559,1.51758 0.23242,0.7041 0.52636,1.1211 0.16407,0.23242 0.4375,0.40332 0.38965,0.24609 0.88184,0.24609 0.95703,0 1.5039,-0.98438 0.54688,-0.99121 0.54688,-2.30371 z"
       id="path296" />
    <path
       d="m 308.87695,149.35254 h 0.2461 q 0.38281,0 0.65625,0.27344 0.27343,0.2666 0.27343,0.64941 0,0.39648 -0.28027,0.66309 -0.27344,0.2666 -0.64941,0.2666 h -0.2461 q -0.38281,0 -0.65625,-0.2666 -0.27343,-0.27344 -0.27343,-0.65625 0,-0.39649 0.27343,-0.66309 0.28028,-0.2666 0.65625,-0.2666 z"
       id="path298" />
    <path
       d="m 320.0332,146.00293 v 1.42187 q 0,1.85254 -0.88183,2.93262 -0.69043,0.84766 -1.74317,0.84766 -0.50586,0 -0.95703,-0.20508 -0.44433,-0.19824 -0.75879,-0.56055 -0.19824,-0.22558 -0.4375,-0.72461 -0.23242,-0.49902 -0.33496,-0.91601 -0.15722,-0.58789 -0.15722,-1.37403 v -1.42187 q 0,-1.85938 0.88183,-2.93945 0.69043,-0.84766 1.74317,-0.84766 0.51269,0 0.95703,0.20508 0.44433,0.19824 0.75879,0.56055 0.20507,0.23242 0.4375,0.73144 0.23242,0.49902 0.34179,0.90918 0.15039,0.58789 0.15039,1.38086 z m -0.57422,0.0752 q 0,-0.81347 -0.23242,-1.51074 -0.22558,-0.7041 -0.51269,-1.12109 -0.1709,-0.23926 -0.44434,-0.41016 -0.38965,-0.23926 -0.875,-0.23926 -0.96387,0 -1.51074,0.98438 -0.54688,0.98437 -0.54688,2.29687 v 1.26465 q 0,0.81348 0.22559,1.51758 0.23242,0.7041 0.52637,1.1211 0.16406,0.23242 0.4375,0.40332 0.38965,0.24609 0.88183,0.24609 0.95703,0 1.50391,-0.98438 0.54687,-0.99121 0.54687,-2.30371 z"
       id="path300" />
    <path
       d="m 328.43457,146.00293 v 1.42187 q 0,1.85254 -0.88184,2.93262 -0.69043,0.84766 -1.74316,0.84766 -0.50586,0 -0.95703,-0.20508 -0.44434,-0.19824 -0.75879,-0.56055 -0.19824,-0.22558 -0.4375,-0.72461 -0.23242,-0.49902 -0.33496,-0.91601 -0.15723,-0.58789 -0.15723,-1.37403 v -1.42187 q 0,-1.85938 0.88184,-2.93945 0.69043,-0.84766 1.74316,-0.84766 0.5127,0 0.95703,0.20508 0.44434,0.19824 0.75879,0.56055 0.20508,0.23242 0.4375,0.73144 0.23242,0.49902 0.3418,0.90918 0.15039,0.58789 0.15039,1.38086 z m -0.57422,0.0752 q 0,-0.81347 -0.23242,-1.51074 -0.22559,-0.7041 -0.5127,-1.12109 -0.17089,-0.23926 -0.44433,-0.41016 -0.38965,-0.23926 -0.875,-0.23926 -0.96387,0 -1.51074,0.98438 -0.54688,0.98437 -0.54688,2.29687 v 1.26465 q 0,0.81348 0.22559,1.51758 0.23242,0.7041 0.52636,1.1211 0.16407,0.23242 0.4375,0.40332 0.38965,0.24609 0.88184,0.24609 0.95703,0 1.50391,-0.98438 0.54687,-0.99121 0.54687,-2.30371 z"
       id="path302" />
  </g>
  <text
     x="20"
     y="171"
     class="receipt-text"
     id="text14">123484922354.............</text>
  <g
     aria-label="₹40.00"
     id="text15"
     class="receipt-text price"
     style="font-size:14px;font-family:'Courier New', Courier, monospace;text-anchor:end">
    <path
       d="m 285.28613,170.49414 q 0.22559,0.19824 0.22559,0.35547 0,0.0957 -0.082,0.17773 -0.082,0.082 -0.17774,0.082 -0.0752,0 -0.1709,-0.0547 -0.0889,-0.0478 -0.17773,-0.12989 l -3.5752,-3.19921 q -0.17773,-0.16407 -0.17773,-0.29395 0,-0.13672 0.10938,-0.21191 0.10937,-0.0752 0.2871,-0.0752 h 1.14844 q 0.34864,0 0.71094,-0.10254 0.36914,-0.10254 0.67676,-0.29394 0.31445,-0.19825 0.54004,-0.47168 0.22558,-0.28028 0.30078,-0.63575 h -3.37012 q -0.38965,0 -0.38965,-0.29394 0,-0.28711 0.38965,-0.28711 h 3.37695 q -0.0615,-0.33496 -0.25976,-0.6084 -0.19141,-0.27344 -0.47168,-0.46484 -0.27344,-0.19824 -0.61524,-0.30078 -0.33496,-0.10938 -0.67675,-0.10938 h -1.36036 q -0.38281,0 -0.38281,-0.28711 0,-0.28711 0.38281,-0.28711 h 4.55274 q 0.45801,0 0.45801,0.28711 0,0.28711 -0.45801,0.28711 h -1.46289 q 0.35547,0.2666 0.58789,0.64258 0.23242,0.36914 0.28711,0.84082 h 0.58789 q 0.45801,0 0.45801,0.28711 0,0.29394 -0.45801,0.29394 h -0.58789 q -0.0684,0.50586 -0.3418,0.89551 -0.27344,0.38282 -0.66992,0.64942 -0.39648,0.25976 -0.875,0.39648 -0.47852,0.13672 -0.96387,0.13672 h -0.47851 z"
       id="path305" />
    <path
       d="m 293.26367,168.60059 h -3.80762 v -0.66309 l 3.19239,-5.5166 h 1.19629 v 5.60547 h 0.47851 q 0.21192,0 0.30078,0.082 0.0889,0.0752 0.0889,0.20508 0,0.12304 -0.0889,0.20507 -0.0889,0.082 -0.30078,0.082 h -0.47851 v 1.82519 h 0.47851 q 0.21192,0 0.30078,0.082 0.0889,0.0752 0.0889,0.20508 0,0.12305 -0.0889,0.20508 -0.0889,0.082 -0.30078,0.082 h -2.13281 q -0.21191,0 -0.30078,-0.082 -0.0889,-0.082 -0.0889,-0.20508 0,-0.12988 0.0889,-0.20508 0.0889,-0.082 0.30078,-0.082 h 1.07324 z m 0,-0.57422 v -5.02442 h -0.30078 l -2.90527,5.02442 z"
       id="path307" />
    <path
       d="m 303.23047,166.00293 v 1.42187 q 0,1.85254 -0.88184,2.93262 -0.69043,0.84766 -1.74316,0.84766 -0.50586,0 -0.95703,-0.20508 -0.44434,-0.19824 -0.75879,-0.56055 -0.19824,-0.22558 -0.4375,-0.72461 -0.23242,-0.49902 -0.33496,-0.91601 -0.15723,-0.58789 -0.15723,-1.37403 v -1.42187 q 0,-1.85938 0.88184,-2.93945 0.69043,-0.84766 1.74316,-0.84766 0.5127,0 0.95703,0.20508 0.44434,0.19824 0.75879,0.56055 0.20508,0.23242 0.4375,0.73144 0.23242,0.49902 0.3418,0.90918 0.15039,0.58789 0.15039,1.38086 z m -0.57422,0.0752 q 0,-0.81347 -0.23242,-1.51074 -0.22559,-0.7041 -0.5127,-1.12109 -0.1709,-0.23926 -0.44433,-0.41016 -0.38965,-0.23926 -0.875,-0.23926 -0.96387,0 -1.51075,0.98438 -0.54687,0.98437 -0.54687,2.29687 v 1.26465 q 0,0.81348 0.22559,1.51758 0.23242,0.7041 0.52636,1.1211 0.16407,0.23242 0.4375,0.40332 0.38965,0.24609 0.88184,0.24609 0.95703,0 1.5039,-0.98438 0.54688,-0.99121 0.54688,-2.30371 z"
       id="path309" />
    <path
       d="m 308.87695,169.35254 h 0.2461 q 0.38281,0 0.65625,0.27344 0.27343,0.2666 0.27343,0.64941 0,0.39648 -0.28027,0.66309 -0.27344,0.2666 -0.64941,0.2666 h -0.2461 q -0.38281,0 -0.65625,-0.2666 -0.27343,-0.27344 -0.27343,-0.65625 0,-0.39649 0.27343,-0.66309 0.28028,-0.2666 0.65625,-0.2666 z"
       id="path311" />
    <path
       d="m 320.0332,166.00293 v 1.42187 q 0,1.85254 -0.88183,2.93262 -0.69043,0.84766 -1.74317,0.84766 -0.50586,0 -0.95703,-0.20508 -0.44433,-0.19824 -0.75879,-0.56055 -0.19824,-0.22558 -0.4375,-0.72461 -0.23242,-0.49902 -0.33496,-0.91601 -0.15722,-0.58789 -0.15722,-1.37403 v -1.42187 q 0,-1.85938 0.88183,-2.93945 0.69043,-0.84766 1.74317,-0.84766 0.51269,0 0.95703,0.20508 0.44433,0.19824 0.75879,0.56055 0.20507,0.23242 0.4375,0.73144 0.23242,0.49902 0.34179,0.90918 0.15039,0.58789 0.15039,1.38086 z m -0.57422,0.0752 q 0,-0.81347 -0.23242,-1.51074 -0.22558,-0.7041 -0.51269,-1.12109 -0.1709,-0.23926 -0.44434,-0.41016 -0.38965,-0.23926 -0.875,-0.23926 -0.96387,0 -1.51074,0.98438 -0.54688,0.98437 -0.54688,2.29687 v 1.26465 q 0,0.81348 0.22559,1.51758 0.23242,0.7041 0.52637,1.1211 0.16406,0.23242 0.4375,0.40332 0.38965,0.24609 0.88183,0.24609 0.95703,0 1.50391,-0.98438 0.54687,-0.99121 0.54687,-2.30371 z"
       id="path313" />
    <path
       d="m 328.43457,166.00293 v 1.42187 q 0,1.85254 -0.88184,2.93262 -0.69043,0.84766 -1.74316,0.84766 -0.50586,0 -0.95703,-0.20508 -0.44434,-0.19824 -0.75879,-0.56055 -0.19824,-0.22558 -0.4375,-0.72461 -0.23242,-0.49902 -0.33496,-0.91601 -0.15723,-0.58789 -0.15723,-1.37403 v -1.42187 q 0,-1.85938 0.88184,-2.93945 0.69043,-0.84766 1.74316,-0.84766 0.5127,0 0.95703,0.20508 0.44434,0.19824 0.75879,0.56055 0.20508,0.23242 0.4375,0.73144 0.23242,0.49902 0.3418,0.90918 0.15039,0.58789 0.15039,1.38086 z m -0.57422,0.0752 q 0,-0.81347 -0.23242,-1.51074 -0.22559,-0.7041 -0.5127,-1.12109 -0.17089,-0.23926 -0.44433,-0.41016 -0.38965,-0.23926 -0.875,-0.23926 -0.96387,0 -1.51074,0.98438 -0.54688,0.98437 -0.54688,2.29687 v 1.26465 q 0,0.81348 0.22559,1.51758 0.23242,0.7041 0.52636,1.1211 0.16407,0.23242 0.4375,0.40332 0.38965,0.24609 0.88184,0.24609 0.95703,0 1.50391,-0.98438 0.54687,-0.99121 0.54687,-2.30371 z"
       id="path315" />
  </g>
  <text
     x="20"
     y="191"
     class="receipt-text"
     id="text16">123484929354.............</text>
  <g
     aria-label="₹10.00"
     id="text17"
     class="receipt-text price"
     style="font-size:14px;font-family:'Courier New', Courier, monospace;text-anchor:end">
    <path
       d="m 285.28613,190.49414 q 0.22559,0.19824 0.22559,0.35547 0,0.0957 -0.082,0.17773 -0.082,0.082 -0.17774,0.082 -0.0752,0 -0.1709,-0.0547 -0.0889,-0.0478 -0.17773,-0.12989 l -3.5752,-3.19921 q -0.17773,-0.16407 -0.17773,-0.29395 0,-0.13672 0.10938,-0.21191 0.10937,-0.0752 0.2871,-0.0752 h 1.14844 q 0.34864,0 0.71094,-0.10254 0.36914,-0.10254 0.67676,-0.29394 0.31445,-0.19825 0.54004,-0.47168 0.22558,-0.28028 0.30078,-0.63575 h -3.37012 q -0.38965,0 -0.38965,-0.29394 0,-0.28711 0.38965,-0.28711 h 3.37695 q -0.0615,-0.33496 -0.25976,-0.6084 -0.19141,-0.27344 -0.47168,-0.46484 -0.27344,-0.19824 -0.61524,-0.30078 -0.33496,-0.10938 -0.67675,-0.10938 h -1.36036 q -0.38281,0 -0.38281,-0.28711 0,-0.28711 0.38281,-0.28711 h 4.55274 q 0.45801,0 0.45801,0.28711 0,0.28711 -0.45801,0.28711 h -1.46289 q 0.35547,0.2666 0.58789,0.64258 0.23242,0.36914 0.28711,0.84082 h 0.58789 q 0.45801,0 0.45801,0.28711 0,0.29394 -0.45801,0.29394 h -0.58789 q -0.0684,0.50586 -0.3418,0.89551 -0.27344,0.38282 -0.66992,0.64942 -0.39648,0.25976 -0.875,0.39648 -0.47852,0.13672 -0.96387,0.13672 h -0.47851 z"
       id="path318" />
    <path
       d="m 292.47754,182.30469 v 8.12109 h 1.96875 q 0.20508,0 0.29394,0.082 0.0889,0.0752 0.0889,0.20508 0,0.12305 -0.0889,0.20508 -0.0889,0.082 -0.29394,0.082 h -4.51172 q -0.20508,0 -0.29395,-0.082 -0.0889,-0.082 -0.0889,-0.20508 0,-0.12988 0.0889,-0.20508 0.0889,-0.082 0.29395,-0.082 h 1.96875 v -7.32812 l -1.87305,0.58789 q -0.13672,0.041 -0.19824,0.041 -0.10254,0 -0.19141,-0.082 -0.082,-0.0889 -0.082,-0.20508 0,-0.10254 0.0684,-0.1914 0.0547,-0.0547 0.22559,-0.11621 z"
       id="path320" />
    <path
       d="m 303.23047,186.00293 v 1.42187 q 0,1.85254 -0.88184,2.93262 -0.69043,0.84766 -1.74316,0.84766 -0.50586,0 -0.95703,-0.20508 -0.44434,-0.19824 -0.75879,-0.56055 -0.19824,-0.22558 -0.4375,-0.72461 -0.23242,-0.49902 -0.33496,-0.91601 -0.15723,-0.58789 -0.15723,-1.37403 v -1.42187 q 0,-1.85938 0.88184,-2.93945 0.69043,-0.84766 1.74316,-0.84766 0.5127,0 0.95703,0.20508 0.44434,0.19824 0.75879,0.56055 0.20508,0.23242 0.4375,0.73144 0.23242,0.49902 0.3418,0.90918 0.15039,0.58789 0.15039,1.38086 z m -0.57422,0.0752 q 0,-0.81347 -0.23242,-1.51074 -0.22559,-0.7041 -0.5127,-1.12109 -0.1709,-0.23926 -0.44433,-0.41016 -0.38965,-0.23926 -0.875,-0.23926 -0.96387,0 -1.51075,0.98438 -0.54687,0.98437 -0.54687,2.29687 v 1.26465 q 0,0.81348 0.22559,1.51758 0.23242,0.7041 0.52636,1.1211 0.16407,0.23242 0.4375,0.40332 0.38965,0.24609 0.88184,0.24609 0.95703,0 1.5039,-0.98438 0.54688,-0.99121 0.54688,-2.30371 z"
       id="path322" />
    <path
       d="m 308.87695,189.35254 h 0.2461 q 0.38281,0 0.65625,0.27344 0.27343,0.2666 0.27343,0.64941 0,0.39648 -0.28027,0.66309 -0.27344,0.2666 -0.64941,0.2666 h -0.2461 q -0.38281,0 -0.65625,-0.2666 -0.27343,-0.27344 -0.27343,-0.65625 0,-0.39649 0.27343,-0.66309 0.28028,-0.2666 0.65625,-0.2666 z"
       id="path324" />
    <path
       d="m 320.0332,186.00293 v 1.42187 q 0,1.85254 -0.88183,2.93262 -0.69043,0.84766 -1.74317,0.84766 -0.50586,0 -0.95703,-0.20508 -0.44433,-0.19824 -0.75879,-0.56055 -0.19824,-0.22558 -0.4375,-0.72461 -0.23242,-0.49902 -0.33496,-0.91601 -0.15722,-0.58789 -0.15722,-1.37403 v -1.42187 q 0,-1.85938 0.88183,-2.93945 0.69043,-0.84766 1.74317,-0.84766 0.51269,0 0.95703,0.20508 0.44433,0.19824 0.75879,0.56055 0.20507,0.23242 0.4375,0.73144 0.23242,0.49902 0.34179,0.90918 0.15039,0.58789 0.15039,1.38086 z m -0.57422,0.0752 q 0,-0.81347 -0.23242,-1.51074 -0.22558,-0.7041 -0.51269,-1.12109 -0.1709,-0.23926 -0.44434,-0.41016 -0.38965,-0.23926 -0.875,-0.23926 -0.96387,0 -1.51074,0.98438 -0.54688,0.98437 -0.54688,2.29687 v 1.26465 q 0,0.81348 0.22559,1.51758 0.23242,0.7041 0.52637,1.1211 0.16406,0.23242 0.4375,0.40332 0.38965,0.24609 0.88183,0.24609 0.95703,0 1.50391,-0.98438 0.54687,-0.99121 0.54687,-2.30371 z"
       id="path326" />
    <path
       d="m 328.43457,186.00293 v 1.42187 q 0,1.85254 -0.88184,2.93262 -0.69043,0.84766 -1.74316,0.84766 -0.50586,0 -0.95703,-0.20508 -0.44434,-0.19824 -0.75879,-0.56055 -0.19824,-0.22558 -0.4375,-0.72461 -0.23242,-0.49902 -0.33496,-0.91601 -0.15723,-0.58789 -0.15723,-1.37403 v -1.42187 q 0,-1.85938 0.88184,-2.93945 0.69043,-0.84766 1.74316,-0.84766 0.5127,0 0.95703,0.20508 0.44434,0.19824 0.75879,0.56055 0.20508,0.23242 0.4375,0.73144 0.23242,0.49902 0.3418,0.90918 0.15039,0.58789 0.15039,1.38086 z m -0.57422,0.0752 q 0,-0.81347 -0.23242,-1.51074 -0.22559,-0.7041 -0.5127,-1.12109 -0.17089,-0.23926 -0.44433,-0.41016 -0.38965,-0.23926 -0.875,-0.23926 -0.96387,0 -1.51074,0.98438 -0.54688,0.98437 -0.54688,2.29687 v 1.26465 q 0,0.81348 0.22559,1.51758 0.23242,0.7041 0.52636,1.1211 0.16407,0.23242 0.4375,0.40332 0.38965,0.24609 0.88184,0.24609 0.95703,0 1.50391,-0.98438 0.54687,-0.99121 0.54687,-2.30371 z"
       id="path328" />
  </g>
  <text
     x="20"
     y="211"
     class="receipt-text"
     id="text18">123484921354.............</text>
  <g
     aria-label="₹30.00"
     id="text19"
     class="receipt-text price"
     style="font-size:14px;font-family:'Courier New', Courier, monospace;text-anchor:end">
    <path
       d="m 285.28613,210.49414 q 0.22559,0.19824 0.22559,0.35547 0,0.0957 -0.082,0.17773 -0.082,0.082 -0.17774,0.082 -0.0752,0 -0.1709,-0.0547 -0.0889,-0.0478 -0.17773,-0.12989 l -3.5752,-3.19921 q -0.17773,-0.16407 -0.17773,-0.29395 0,-0.13672 0.10938,-0.21191 0.10937,-0.0752 0.2871,-0.0752 h 1.14844 q 0.34864,0 0.71094,-0.10254 0.36914,-0.10254 0.67676,-0.29394 0.31445,-0.19825 0.54004,-0.47168 0.22558,-0.28028 0.30078,-0.63575 h -3.37012 q -0.38965,0 -0.38965,-0.29394 0,-0.28711 0.38965,-0.28711 h 3.37695 q -0.0615,-0.33496 -0.25976,-0.6084 -0.19141,-0.27344 -0.47168,-0.46484 -0.27344,-0.19824 -0.61524,-0.30078 -0.33496,-0.10938 -0.67675,-0.10938 h -1.36036 q -0.38281,0 -0.38281,-0.28711 0,-0.28711 0.38281,-0.28711 h 4.55274 q 0.45801,0 0.45801,0.28711 0,0.28711 -0.45801,0.28711 h -1.46289 q 0.35547,0.2666 0.58789,0.64258 0.23242,0.36914 0.28711,0.84082 h 0.58789 q 0.45801,0 0.45801,0.28711 0,0.29394 -0.45801,0.29394 h -0.58789 q -0.0684,0.50586 -0.3418,0.89551 -0.27344,0.38282 -0.66992,0.64942 -0.39648,0.25976 -0.875,0.39648 -0.47852,0.13672 -0.96387,0.13672 h -0.47851 z"
       id="path331" />
    <path
       d="m 293.37305,206.33105 q 0.79297,0.35547 1.20996,0.97754 0.41699,0.61524 0.41699,1.28516 0,1.03223 -0.84082,1.8252 -0.83398,0.78613 -2.0918,0.78613 -0.73828,0 -1.53125,-0.31446 -0.79297,-0.31445 -1.10742,-0.64257 -0.10254,-0.10938 -0.10254,-0.23243 0,-0.10937 0.0752,-0.1914 0.082,-0.082 0.1914,-0.082 0.10938,0 0.2461,0.10254 1.05957,0.78613 2.24218,0.78613 0.99805,0 1.66797,-0.62207 0.67676,-0.62891 0.67676,-1.39453 0,-0.5127 -0.33496,-1.00489 -0.32812,-0.49218 -0.9502,-0.77246 -0.62207,-0.28711 -1.25781,-0.28711 -0.20508,0 -0.29394,-0.0752 -0.0889,-0.082 -0.0889,-0.21191 0,-0.12305 0.082,-0.20508 0.0889,-0.082 0.25977,-0.082 l 0.49218,0.007 q 0.77247,0 1.27149,-0.47168 0.50586,-0.47168 0.50586,-1.09375 0,-0.64258 -0.52637,-1.13476 -0.52637,-0.49219 -1.37402,-0.49219 -0.59473,0 -1.09375,0.20508 -0.49903,0.20508 -0.79981,0.56054 -0.10937,0.13672 -0.1709,0.1709 -0.0547,0.0273 -0.12988,0.0273 -0.11621,0 -0.19824,-0.0752 -0.082,-0.082 -0.082,-0.19141 0,-0.27343 0.59472,-0.69043 0.82715,-0.58105 1.87989,-0.58105 1.08691,0 1.78418,0.65625 0.69726,0.64941 0.69726,1.55176 0,0.57422 -0.33496,1.08691 -0.33496,0.5127 -0.98437,0.82031 z"
       id="path333" />
    <path
       d="m 303.23047,206.00293 v 1.42187 q 0,1.85254 -0.88184,2.93262 -0.69043,0.84766 -1.74316,0.84766 -0.50586,0 -0.95703,-0.20508 -0.44434,-0.19824 -0.75879,-0.56055 -0.19824,-0.22558 -0.4375,-0.72461 -0.23242,-0.49902 -0.33496,-0.91601 -0.15723,-0.58789 -0.15723,-1.37403 v -1.42187 q 0,-1.85938 0.88184,-2.93945 0.69043,-0.84766 1.74316,-0.84766 0.5127,0 0.95703,0.20508 0.44434,0.19824 0.75879,0.56055 0.20508,0.23242 0.4375,0.73144 0.23242,0.49902 0.3418,0.90918 0.15039,0.58789 0.15039,1.38086 z m -0.57422,0.0752 q 0,-0.81347 -0.23242,-1.51074 -0.22559,-0.7041 -0.5127,-1.12109 -0.1709,-0.23926 -0.44433,-0.41016 -0.38965,-0.23926 -0.875,-0.23926 -0.96387,0 -1.51075,0.98438 -0.54687,0.98437 -0.54687,2.29687 v 1.26465 q 0,0.81348 0.22559,1.51758 0.23242,0.7041 0.52636,1.1211 0.16407,0.23242 0.4375,0.40332 0.38965,0.24609 0.88184,0.24609 0.95703,0 1.5039,-0.98438 0.54688,-0.99121 0.54688,-2.30371 z"
       id="path335" />
    <path
       d="m 308.87695,209.35254 h 0.2461 q 0.38281,0 0.65625,0.27344 0.27343,0.2666 0.27343,0.64941 0,0.39648 -0.28027,0.66309 -0.27344,0.2666 -0.64941,0.2666 h -0.2461 q -0.38281,0 -0.65625,-0.2666 -0.27343,-0.27344 -0.27343,-0.65625 0,-0.39649 0.27343,-0.66309 0.28028,-0.2666 0.65625,-0.2666 z"
       id="path337" />
    <path
       d="m 320.0332,206.00293 v 1.42187 q 0,1.85254 -0.88183,2.93262 -0.69043,0.84766 -1.74317,0.84766 -0.50586,0 -0.95703,-0.20508 -0.44433,-0.19824 -0.75879,-0.56055 -0.19824,-0.22558 -0.4375,-0.72461 -0.23242,-0.49902 -0.33496,-0.91601 -0.15722,-0.58789 -0.15722,-1.37403 v -1.42187 q 0,-1.85938 0.88183,-2.93945 0.69043,-0.84766 1.74317,-0.84766 0.51269,0 0.95703,0.20508 0.44433,0.19824 0.75879,0.56055 0.20507,0.23242 0.4375,0.73144 0.23242,0.49902 0.34179,0.90918 0.15039,0.58789 0.15039,1.38086 z m -0.57422,0.0752 q 0,-0.81347 -0.23242,-1.51074 -0.22558,-0.7041 -0.51269,-1.12109 -0.1709,-0.23926 -0.44434,-0.41016 -0.38965,-0.23926 -0.875,-0.23926 -0.96387,0 -1.51074,0.98438 -0.54688,0.98437 -0.54688,2.29687 v 1.26465 q 0,0.81348 0.22559,1.51758 0.23242,0.7041 0.52637,1.1211 0.16406,0.23242 0.4375,0.40332 0.38965,0.24609 0.88183,0.24609 0.95703,0 1.50391,-0.98438 0.54687,-0.99121 0.54687,-2.30371 z"
       id="path339" />
    <path
       d="m 328.43457,206.00293 v 1.42187 q 0,1.85254 -0.88184,2.93262 -0.69043,0.84766 -1.74316,0.84766 -0.50586,0 -0.95703,-0.20508 -0.44434,-0.19824 -0.75879,-0.56055 -0.19824,-0.22558 -0.4375,-0.72461 -0.23242,-0.49902 -0.33496,-0.91601 -0.15723,-0.58789 -0.15723,-1.37403 v -1.42187 q 0,-1.85938 0.88184,-2.93945 0.69043,-0.84766 1.74316,-0.84766 0.5127,0 0.95703,0.20508 0.44434,0.19824 0.75879,0.56055 0.20508,0.23242 0.4375,0.73144 0.23242,0.49902 0.3418,0.90918 0.15039,0.58789 0.15039,1.38086 z m -0.57422,0.0752 q 0,-0.81347 -0.23242,-1.51074 -0.22559,-0.7041 -0.5127,-1.12109 -0.17089,-0.23926 -0.44433,-0.41016 -0.38965,-0.23926 -0.875,-0.23926 -0.96387,0 -1.51074,0.98438 -0.54688,0.98437 -0.54688,2.29687 v 1.26465 q 0,0.81348 0.22559,1.51758 0.23242,0.7041 0.52636,1.1211 0.16407,0.23242 0.4375,0.40332 0.38965,0.24609 0.88184,0.24609 0.95703,0 1.50391,-0.98438 0.54687,-0.99121 0.54687,-2.30371 z"
       id="path341" />
  </g>
  <text
     x="20"
     y="231"
     class="receipt-text"
     id="text20">123484922354.............</text>
  <g
     aria-label="₹40.00"
     id="text21"
     class="receipt-text price"
     style="font-size:14px;font-family:'Courier New', Courier, monospace;text-anchor:end">
    <path
       d="m 285.28613,230.49414 q 0.22559,0.19824 0.22559,0.35547 0,0.0957 -0.082,0.17773 -0.082,0.082 -0.17774,0.082 -0.0752,0 -0.1709,-0.0547 -0.0889,-0.0478 -0.17773,-0.12989 l -3.5752,-3.19921 q -0.17773,-0.16407 -0.17773,-0.29395 0,-0.13672 0.10938,-0.21191 0.10937,-0.0752 0.2871,-0.0752 h 1.14844 q 0.34864,0 0.71094,-0.10254 0.36914,-0.10254 0.67676,-0.29394 0.31445,-0.19825 0.54004,-0.47168 0.22558,-0.28028 0.30078,-0.63575 h -3.37012 q -0.38965,0 -0.38965,-0.29394 0,-0.28711 0.38965,-0.28711 h 3.37695 q -0.0615,-0.33496 -0.25976,-0.6084 -0.19141,-0.27344 -0.47168,-0.46484 -0.27344,-0.19824 -0.61524,-0.30078 -0.33496,-0.10938 -0.67675,-0.10938 h -1.36036 q -0.38281,0 -0.38281,-0.28711 0,-0.28711 0.38281,-0.28711 h 4.55274 q 0.45801,0 0.45801,0.28711 0,0.28711 -0.45801,0.28711 h -1.46289 q 0.35547,0.2666 0.58789,0.64258 0.23242,0.36914 0.28711,0.84082 h 0.58789 q 0.45801,0 0.45801,0.28711 0,0.29394 -0.45801,0.29394 h -0.58789 q -0.0684,0.50586 -0.3418,0.89551 -0.27344,0.38282 -0.66992,0.64942 -0.39648,0.25976 -0.875,0.39648 -0.47852,0.13672 -0.96387,0.13672 h -0.47851 z"
       id="path344" />
    <path
       d="m 293.26367,228.60059 h -3.80762 v -0.66309 l 3.19239,-5.5166 h 1.19629 v 5.60547 h 0.47851 q 0.21192,0 0.30078,0.082 0.0889,0.0752 0.0889,0.20508 0,0.12304 -0.0889,0.20507 -0.0889,0.082 -0.30078,0.082 h -0.47851 v 1.82519 h 0.47851 q 0.21192,0 0.30078,0.082 0.0889,0.0752 0.0889,0.20508 0,0.12305 -0.0889,0.20508 -0.0889,0.082 -0.30078,0.082 h -2.13281 q -0.21191,0 -0.30078,-0.082 -0.0889,-0.082 -0.0889,-0.20508 0,-0.12988 0.0889,-0.20508 0.0889,-0.082 0.30078,-0.082 h 1.07324 z m 0,-0.57422 v -5.02442 h -0.30078 l -2.90527,5.02442 z"
       id="path346" />
    <path
       d="m 303.23047,226.00293 v 1.42187 q 0,1.85254 -0.88184,2.93262 -0.69043,0.84766 -1.74316,0.84766 -0.50586,0 -0.95703,-0.20508 -0.44434,-0.19824 -0.75879,-0.56055 -0.19824,-0.22558 -0.4375,-0.72461 -0.23242,-0.49902 -0.33496,-0.91601 -0.15723,-0.58789 -0.15723,-1.37403 v -1.42187 q 0,-1.85938 0.88184,-2.93945 0.69043,-0.84766 1.74316,-0.84766 0.5127,0 0.95703,0.20508 0.44434,0.19824 0.75879,0.56055 0.20508,0.23242 0.4375,0.73144 0.23242,0.49902 0.3418,0.90918 0.15039,0.58789 0.15039,1.38086 z m -0.57422,0.0752 q 0,-0.81347 -0.23242,-1.51074 -0.22559,-0.7041 -0.5127,-1.12109 -0.1709,-0.23926 -0.44433,-0.41016 -0.38965,-0.23926 -0.875,-0.23926 -0.96387,0 -1.51075,0.98438 -0.54687,0.98437 -0.54687,2.29687 v 1.26465 q 0,0.81348 0.22559,1.51758 0.23242,0.7041 0.52636,1.1211 0.16407,0.23242 0.4375,0.40332 0.38965,0.24609 0.88184,0.24609 0.95703,0 1.5039,-0.98438 0.54688,-0.99121 0.54688,-2.30371 z"
       id="path348" />
    <path
       d="m 308.87695,229.35254 h 0.2461 q 0.38281,0 0.65625,0.27344 0.27343,0.2666 0.27343,0.64941 0,0.39648 -0.28027,0.66309 -0.27344,0.2666 -0.64941,0.2666 h -0.2461 q -0.38281,0 -0.65625,-0.2666 -0.27343,-0.27344 -0.27343,-0.65625 0,-0.39649 0.27343,-0.66309 0.28028,-0.2666 0.65625,-0.2666 z"
       id="path350" />
    <path
       d="m 320.0332,226.00293 v 1.42187 q 0,1.85254 -0.88183,2.93262 -0.69043,0.84766 -1.74317,0.84766 -0.50586,0 -0.95703,-0.20508 -0.44433,-0.19824 -0.75879,-0.56055 -0.19824,-0.22558 -0.4375,-0.72461 -0.23242,-0.49902 -0.33496,-0.91601 -0.15722,-0.58789 -0.15722,-1.37403 v -1.42187 q 0,-1.85938 0.88183,-2.93945 0.69043,-0.84766 1.74317,-0.84766 0.51269,0 0.95703,0.20508 0.44433,0.19824 0.75879,0.56055 0.20507,0.23242 0.4375,0.73144 0.23242,0.49902 0.34179,0.90918 0.15039,0.58789 0.15039,1.38086 z m -0.57422,0.0752 q 0,-0.81347 -0.23242,-1.51074 -0.22558,-0.7041 -0.51269,-1.12109 -0.1709,-0.23926 -0.44434,-0.41016 -0.38965,-0.23926 -0.875,-0.23926 -0.96387,0 -1.51074,0.98438 -0.54688,0.98437 -0.54688,2.29687 v 1.26465 q 0,0.81348 0.22559,1.51758 0.23242,0.7041 0.52637,1.1211 0.16406,0.23242 0.4375,0.40332 0.38965,0.24609 0.88183,0.24609 0.95703,0 1.50391,-0.98438 0.54687,-0.99121 0.54687,-2.30371 z"
       id="path352" />
    <path
       d="m 328.43457,226.00293 v 1.42187 q 0,1.85254 -0.88184,2.93262 -0.69043,0.84766 -1.74316,0.84766 -0.50586,0 -0.95703,-0.20508 -0.44434,-0.19824 -0.75879,-0.56055 -0.19824,-0.22558 -0.4375,-0.72461 -0.23242,-0.49902 -0.33496,-0.91601 -0.15723,-0.58789 -0.15723,-1.37403 v -1.42187 q 0,-1.85938 0.88184,-2.93945 0.69043,-0.84766 1.74316,-0.84766 0.5127,0 0.95703,0.20508 0.44434,0.19824 0.75879,0.56055 0.20508,0.23242 0.4375,0.73144 0.23242,0.49902 0.3418,0.90918 0.15039,0.58789 0.15039,1.38086 z m -0.57422,0.0752 q 0,-0.81347 -0.23242,-1.51074 -0.22559,-0.7041 -0.5127,-1.12109 -0.17089,-0.23926 -0.44433,-0.41016 -0.38965,-0.23926 -0.875,-0.23926 -0.96387,0 -1.51074,0.98438 -0.54688,0.98437 -0.54688,2.29687 v 1.26465 q 0,0.81348 0.22559,1.51758 0.23242,0.7041 0.52636,1.1211 0.16407,0.23242 0.4375,0.40332 0.38965,0.24609 0.88184,0.24609 0.95703,0 1.50391,-0.98438 0.54687,-0.99121 0.54687,-2.30371 z"
       id="path354" />
  </g>
  <text
     x="20"
     y="251"
     class="receipt-text"
     id="text22">123484929354.............</text>
  <g
     aria-label="₹10.00"
     id="text23"
     class="receipt-text price"
     style="font-size:14px;font-family:'Courier New', Courier, monospace;text-anchor:end">
    <path
       d="m 285.28613,250.49414 q 0.22559,0.19824 0.22559,0.35547 0,0.0957 -0.082,0.17773 -0.082,0.082 -0.17774,0.082 -0.0752,0 -0.1709,-0.0547 -0.0889,-0.0478 -0.17773,-0.12989 l -3.5752,-3.19921 q -0.17773,-0.16407 -0.17773,-0.29395 0,-0.13672 0.10938,-0.21191 0.10937,-0.0752 0.2871,-0.0752 h 1.14844 q 0.34864,0 0.71094,-0.10254 0.36914,-0.10254 0.67676,-0.29394 0.31445,-0.19825 0.54004,-0.47168 0.22558,-0.28028 0.30078,-0.63575 h -3.37012 q -0.38965,0 -0.38965,-0.29394 0,-0.28711 0.38965,-0.28711 h 3.37695 q -0.0615,-0.33496 -0.25976,-0.6084 -0.19141,-0.27344 -0.47168,-0.46484 -0.27344,-0.19824 -0.61524,-0.30078 -0.33496,-0.10938 -0.67675,-0.10938 h -1.36036 q -0.38281,0 -0.38281,-0.28711 0,-0.28711 0.38281,-0.28711 h 4.55274 q 0.45801,0 0.45801,0.28711 0,0.28711 -0.45801,0.28711 h -1.46289 q 0.35547,0.2666 0.58789,0.64258 0.23242,0.36914 0.28711,0.84082 h 0.58789 q 0.45801,0 0.45801,0.28711 0,0.29394 -0.45801,0.29394 h -0.58789 q -0.0684,0.50586 -0.3418,0.89551 -0.27344,0.38282 -0.66992,0.64942 -0.39648,0.25976 -0.875,0.39648 -0.47852,0.13672 -0.96387,0.13672 h -0.47851 z"
       id="path357" />
    <path
       d="m 292.47754,242.30469 v 8.12109 h 1.96875 q 0.20508,0 0.29394,0.082 0.0889,0.0752 0.0889,0.20508 0,0.12305 -0.0889,0.20508 -0.0889,0.082 -0.29394,0.082 h -4.51172 q -0.20508,0 -0.29395,-0.082 -0.0889,-0.082 -0.0889,-0.20508 0,-0.12988 0.0889,-0.20508 0.0889,-0.082 0.29395,-0.082 h 1.96875 v -7.32812 l -1.87305,0.58789 q -0.13672,0.041 -0.19824,0.041 -0.10254,0 -0.19141,-0.082 -0.082,-0.0889 -0.082,-0.20508 0,-0.10254 0.0684,-0.1914 0.0547,-0.0547 0.22559,-0.11621 z"
       id="path359" />
    <path
       d="m 303.23047,246.00293 v 1.42187 q 0,1.85254 -0.88184,2.93262 -0.69043,0.84766 -1.74316,0.84766 -0.50586,0 -0.95703,-0.20508 -0.44434,-0.19824 -0.75879,-0.56055 -0.19824,-0.22558 -0.4375,-0.72461 -0.23242,-0.49902 -0.33496,-0.91601 -0.15723,-0.58789 -0.15723,-1.37403 v -1.42187 q 0,-1.85938 0.88184,-2.93945 0.69043,-0.84766 1.74316,-0.84766 0.5127,0 0.95703,0.20508 0.44434,0.19824 0.75879,0.56055 0.20508,0.23242 0.4375,0.73144 0.23242,0.49902 0.3418,0.90918 0.15039,0.58789 0.15039,1.38086 z m -0.57422,0.0752 q 0,-0.81347 -0.23242,-1.51074 -0.22559,-0.7041 -0.5127,-1.12109 -0.1709,-0.23926 -0.44433,-0.41016 -0.38965,-0.23926 -0.875,-0.23926 -0.96387,0 -1.51075,0.98438 -0.54687,0.98437 -0.54687,2.29687 v 1.26465 q 0,0.81348 0.22559,1.51758 0.23242,0.7041 0.52636,1.1211 0.16407,0.23242 0.4375,0.40332 0.38965,0.24609 0.88184,0.24609 0.95703,0 1.5039,-0.98438 0.54688,-0.99121 0.54688,-2.30371 z"
       id="path361" />
    <path
       d="m 308.87695,249.35254 h 0.2461 q 0.38281,0 0.65625,0.27344 0.27343,0.2666 0.27343,0.64941 0,0.39648 -0.28027,0.66309 -0.27344,0.2666 -0.64941,0.2666 h -0.2461 q -0.38281,0 -0.65625,-0.2666 -0.27343,-0.27344 -0.27343,-0.65625 0,-0.39649 0.27343,-0.66309 0.28028,-0.2666 0.65625,-0.2666 z"
       id="path363" />
    <path
       d="m 320.0332,246.00293 v 1.42187 q 0,1.85254 -0.88183,2.93262 -0.69043,0.84766 -1.74317,0.84766 -0.50586,0 -0.95703,-0.20508 -0.44433,-0.19824 -0.75879,-0.56055 -0.19824,-0.22558 -0.4375,-0.72461 -0.23242,-0.49902 -0.33496,-0.91601 -0.15722,-0.58789 -0.15722,-1.37403 v -1.42187 q 0,-1.85938 0.88183,-2.93945 0.69043,-0.84766 1.74317,-0.84766 0.51269,0 0.95703,0.20508 0.44433,0.19824 0.75879,0.56055 0.20507,0.23242 0.4375,0.73144 0.23242,0.49902 0.34179,0.90918 0.15039,0.58789 0.15039,1.38086 z m -0.57422,0.0752 q 0,-0.81347 -0.23242,-1.51074 -0.22558,-0.7041 -0.51269,-1.12109 -0.1709,-0.23926 -0.44434,-0.41016 -0.38965,-0.23926 -0.875,-0.23926 -0.96387,0 -1.51074,0.98438 -0.54688,0.98437 -0.54688,2.29687 v 1.26465 q 0,0.81348 0.22559,1.51758 0.23242,0.7041 0.52637,1.1211 0.16406,0.23242 0.4375,0.40332 0.38965,0.24609 0.88183,0.24609 0.95703,0 1.50391,-0.98438 0.54687,-0.99121 0.54687,-2.30371 z"
       id="path365" />
    <path
       d="m 328.43457,246.00293 v 1.42187 q 0,1.85254 -0.88184,2.93262 -0.69043,0.84766 -1.74316,0.84766 -0.50586,0 -0.95703,-0.20508 -0.44434,-0.19824 -0.75879,-0.56055 -0.19824,-0.22558 -0.4375,-0.72461 -0.23242,-0.49902 -0.33496,-0.91601 -0.15723,-0.58789 -0.15723,-1.37403 v -1.42187 q 0,-1.85938 0.88184,-2.93945 0.69043,-0.84766 1.74316,-0.84766 0.5127,0 0.95703,0.20508 0.44434,0.19824 0.75879,0.56055 0.20508,0.23242 0.4375,0.73144 0.23242,0.49902 0.3418,0.90918 0.15039,0.58789 0.15039,1.38086 z m -0.57422,0.0752 q 0,-0.81347 -0.23242,-1.51074 -0.22559,-0.7041 -0.5127,-1.12109 -0.17089,-0.23926 -0.44433,-0.41016 -0.38965,-0.23926 -0.875,-0.23926 -0.96387,0 -1.51074,0.98438 -0.54688,0.98437 -0.54688,2.29687 v 1.26465 q 0,0.81348 0.22559,1.51758 0.23242,0.7041 0.52636,1.1211 0.16407,0.23242 0.4375,0.40332 0.38965,0.24609 0.88184,0.24609 0.95703,0 1.50391,-0.98438 0.54687,-0.99121 0.54687,-2.30371 z"
       id="path367" />
  </g>
  <text
     x="20"
     y="271"
     class="receipt-text"
     id="text24">123484923354.............</text>
  <g
     aria-label="₹50.00"
     id="text25"
     class="receipt-text price"
     style="font-size:14px;font-family:'Courier New', Courier, monospace;text-anchor:end">
    <path
       d="m 285.28613,270.49414 q 0.22559,0.19824 0.22559,0.35547 0,0.0957 -0.082,0.17773 -0.082,0.082 -0.17774,0.082 -0.0752,0 -0.1709,-0.0547 -0.0889,-0.0478 -0.17773,-0.12989 l -3.5752,-3.19921 q -0.17773,-0.16407 -0.17773,-0.29395 0,-0.13672 0.10938,-0.21191 0.10937,-0.0752 0.2871,-0.0752 h 1.14844 q 0.34864,0 0.71094,-0.10254 0.36914,-0.10254 0.67676,-0.29394 0.31445,-0.19825 0.54004,-0.47168 0.22558,-0.28028 0.30078,-0.63575 h -3.37012 q -0.38965,0 -0.38965,-0.29394 0,-0.28711 0.38965,-0.28711 h 3.37695 q -0.0615,-0.33496 -0.25976,-0.6084 -0.19141,-0.27344 -0.47168,-0.46484 -0.27344,-0.19824 -0.61524,-0.30078 -0.33496,-0.10938 -0.67675,-0.10938 h -1.36036 q -0.38281,0 -0.38281,-0.28711 0,-0.28711 0.38281,-0.28711 h 4.55274 q 0.45801,0 0.45801,0.28711 0,0.28711 -0.45801,0.28711 h -1.46289 q 0.35547,0.2666 0.58789,0.64258 0.23242,0.36914 0.28711,0.84082 h 0.58789 q 0.45801,0 0.45801,0.28711 0,0.29394 -0.45801,0.29394 h -0.58789 q -0.0684,0.50586 -0.3418,0.89551 -0.27344,0.38282 -0.66992,0.64942 -0.39648,0.25976 -0.875,0.39648 -0.47852,0.13672 -0.96387,0.13672 h -0.47851 z"
       id="path370" />
    <path
       d="m 290.61133,263.00195 v 2.80957 q 0.50586,-0.21191 0.9707,-0.31445 0.46484,-0.10937 0.88184,-0.10937 1.08008,0 1.80468,0.75878 0.73145,0.75879 0.73145,1.9961 0,1.36719 -0.82031,2.21484 -0.82032,0.84766 -2.05078,0.84766 -0.81348,0 -1.56543,-0.36231 -0.53321,-0.25293 -0.97071,-0.6289 -0.25976,-0.22559 -0.25976,-0.37598 0,-0.12305 0.082,-0.20508 0.082,-0.0889 0.19141,-0.0889 0.11621,0 0.24609,0.12304 1.03223,0.96387 2.24902,0.96387 1.00489,0 1.66114,-0.68359 0.65625,-0.69043 0.65625,-1.83204 0,-0.9707 -0.56739,-1.55859 -0.56738,-0.59473 -1.44238,-0.59473 -0.89551,0 -1.79102,0.47168 -0.21875,0.10938 -0.30761,0.10938 -0.12305,0 -0.19825,-0.082 -0.0752,-0.082 -0.0752,-0.23242 v -3.80762 h 4.00586 q 0.20508,0 0.29394,0.082 0.0889,0.082 0.0889,0.21191 0,0.12305 -0.0889,0.20508 -0.0889,0.082 -0.29394,0.082 z"
       id="path372" />
    <path
       d="m 303.23047,266.00293 v 1.42187 q 0,1.85254 -0.88184,2.93262 -0.69043,0.84766 -1.74316,0.84766 -0.50586,0 -0.95703,-0.20508 -0.44434,-0.19824 -0.75879,-0.56055 -0.19824,-0.22558 -0.4375,-0.72461 -0.23242,-0.49902 -0.33496,-0.91601 -0.15723,-0.58789 -0.15723,-1.37403 v -1.42187 q 0,-1.85938 0.88184,-2.93945 0.69043,-0.84766 1.74316,-0.84766 0.5127,0 0.95703,0.20508 0.44434,0.19824 0.75879,0.56055 0.20508,0.23242 0.4375,0.73144 0.23242,0.49902 0.3418,0.90918 0.15039,0.58789 0.15039,1.38086 z m -0.57422,0.0752 q 0,-0.81347 -0.23242,-1.51074 -0.22559,-0.7041 -0.5127,-1.12109 -0.1709,-0.23926 -0.44433,-0.41016 -0.38965,-0.23926 -0.875,-0.23926 -0.96387,0 -1.51075,0.98438 -0.54687,0.98437 -0.54687,2.29687 v 1.26465 q 0,0.81348 0.22559,1.51758 0.23242,0.7041 0.52636,1.1211 0.16407,0.23242 0.4375,0.40332 0.38965,0.24609 0.88184,0.24609 0.95703,0 1.5039,-0.98438 0.54688,-0.99121 0.54688,-2.30371 z"
       id="path374" />
    <path
       d="m 308.87695,269.35254 h 0.2461 q 0.38281,0 0.65625,0.27344 0.27343,0.2666 0.27343,0.64941 0,0.39648 -0.28027,0.66309 -0.27344,0.2666 -0.64941,0.2666 h -0.2461 q -0.38281,0 -0.65625,-0.2666 -0.27343,-0.27344 -0.27343,-0.65625 0,-0.39649 0.27343,-0.66309 0.28028,-0.2666 0.65625,-0.2666 z"
       id="path376" />
    <path
       d="m 320.0332,266.00293 v 1.42187 q 0,1.85254 -0.88183,2.93262 -0.69043,0.84766 -1.74317,0.84766 -0.50586,0 -0.95703,-0.20508 -0.44433,-0.19824 -0.75879,-0.56055 -0.19824,-0.22558 -0.4375,-0.72461 -0.23242,-0.49902 -0.33496,-0.91601 -0.15722,-0.58789 -0.15722,-1.37403 v -1.42187 q 0,-1.85938 0.88183,-2.93945 0.69043,-0.84766 1.74317,-0.84766 0.51269,0 0.95703,0.20508 0.44433,0.19824 0.75879,0.56055 0.20507,0.23242 0.4375,0.73144 0.23242,0.49902 0.34179,0.90918 0.15039,0.58789 0.15039,1.38086 z m -0.57422,0.0752 q 0,-0.81347 -0.23242,-1.51074 -0.22558,-0.7041 -0.51269,-1.12109 -0.1709,-0.23926 -0.44434,-0.41016 -0.38965,-0.23926 -0.875,-0.23926 -0.96387,0 -1.51074,0.98438 -0.54688,0.98437 -0.54688,2.29687 v 1.26465 q 0,0.81348 0.22559,1.51758 0.23242,0.7041 0.52637,1.1211 0.16406,0.23242 0.4375,0.40332 0.38965,0.24609 0.88183,0.24609 0.95703,0 1.50391,-0.98438 0.54687,-0.99121 0.54687,-2.30371 z"
       id="path378" />
    <path
       d="m 328.43457,266.00293 v 1.42187 q 0,1.85254 -0.88184,2.93262 -0.69043,0.84766 -1.74316,0.84766 -0.50586,0 -0.95703,-0.20508 -0.44434,-0.19824 -0.75879,-0.56055 -0.19824,-0.22558 -0.4375,-0.72461 -0.23242,-0.49902 -0.33496,-0.91601 -0.15723,-0.58789 -0.15723,-1.37403 v -1.42187 q 0,-1.85938 0.88184,-2.93945 0.69043,-0.84766 1.74316,-0.84766 0.5127,0 0.95703,0.20508 0.44434,0.19824 0.75879,0.56055 0.20508,0.23242 0.4375,0.73144 0.23242,0.49902 0.3418,0.90918 0.15039,0.58789 0.15039,1.38086 z m -0.57422,0.0752 q 0,-0.81347 -0.23242,-1.51074 -0.22559,-0.7041 -0.5127,-1.12109 -0.17089,-0.23926 -0.44433,-0.41016 -0.38965,-0.23926 -0.875,-0.23926 -0.96387,0 -1.51074,0.98438 -0.54688,0.98437 -0.54688,2.29687 v 1.26465 q 0,0.81348 0.22559,1.51758 0.23242,0.7041 0.52636,1.1211 0.16407,0.23242 0.4375,0.40332 0.38965,0.24609 0.88184,0.24609 0.95703,0 1.50391,-0.98438 0.54687,-0.99121 0.54687,-2.30371 z"
       id="path380" />
  </g>
  <text
     x="20"
     y="291"
     class="receipt-text"
     id="text26">123484929354.............</text>
  <g
     aria-label="₹10.00"
     id="text27"
     class="receipt-text price"
     style="font-size:14px;font-family:'Courier New', Courier, monospace;text-anchor:end">
    <path
       d="m 285.28613,290.49414 q 0.22559,0.19824 0.22559,0.35547 0,0.0957 -0.082,0.17773 -0.082,0.082 -0.17774,0.082 -0.0752,0 -0.1709,-0.0547 -0.0889,-0.0478 -0.17773,-0.12989 l -3.5752,-3.19921 q -0.17773,-0.16407 -0.17773,-0.29395 0,-0.13672 0.10938,-0.21191 0.10937,-0.0752 0.2871,-0.0752 h 1.14844 q 0.34864,0 0.71094,-0.10254 0.36914,-0.10254 0.67676,-0.29394 0.31445,-0.19825 0.54004,-0.47168 0.22558,-0.28028 0.30078,-0.63575 h -3.37012 q -0.38965,0 -0.38965,-0.29394 0,-0.28711 0.38965,-0.28711 h 3.37695 q -0.0615,-0.33496 -0.25976,-0.6084 -0.19141,-0.27344 -0.47168,-0.46484 -0.27344,-0.19824 -0.61524,-0.30078 -0.33496,-0.10938 -0.67675,-0.10938 h -1.36036 q -0.38281,0 -0.38281,-0.28711 0,-0.28711 0.38281,-0.28711 h 4.55274 q 0.45801,0 0.45801,0.28711 0,0.28711 -0.45801,0.28711 h -1.46289 q 0.35547,0.2666 0.58789,0.64258 0.23242,0.36914 0.28711,0.84082 h 0.58789 q 0.45801,0 0.45801,0.28711 0,0.29394 -0.45801,0.29394 h -0.58789 q -0.0684,0.50586 -0.3418,0.89551 -0.27344,0.38282 -0.66992,0.64942 -0.39648,0.25976 -0.875,0.39648 -0.47852,0.13672 -0.96387,0.13672 h -0.47851 z"
       id="path383" />
    <path
       d="m 292.47754,282.30469 v 8.12109 h 1.96875 q 0.20508,0 0.29394,0.082 0.0889,0.0752 0.0889,0.20508 0,0.12305 -0.0889,0.20508 -0.0889,0.082 -0.29394,0.082 h -4.51172 q -0.20508,0 -0.29395,-0.082 -0.0889,-0.082 -0.0889,-0.20508 0,-0.12988 0.0889,-0.20508 0.0889,-0.082 0.29395,-0.082 h 1.96875 v -7.32812 l -1.87305,0.58789 q -0.13672,0.041 -0.19824,0.041 -0.10254,0 -0.19141,-0.082 -0.082,-0.0889 -0.082,-0.20508 0,-0.10254 0.0684,-0.1914 0.0547,-0.0547 0.22559,-0.11621 z"
       id="path385" />
    <path
       d="m 303.23047,286.00293 v 1.42187 q 0,1.85254 -0.88184,2.93262 -0.69043,0.84766 -1.74316,0.84766 -0.50586,0 -0.95703,-0.20508 -0.44434,-0.19824 -0.75879,-0.56055 -0.19824,-0.22558 -0.4375,-0.72461 -0.23242,-0.49902 -0.33496,-0.91601 -0.15723,-0.58789 -0.15723,-1.37403 v -1.42187 q 0,-1.85938 0.88184,-2.93945 0.69043,-0.84766 1.74316,-0.84766 0.5127,0 0.95703,0.20508 0.44434,0.19824 0.75879,0.56055 0.20508,0.23242 0.4375,0.73144 0.23242,0.49902 0.3418,0.90918 0.15039,0.58789 0.15039,1.38086 z m -0.57422,0.0752 q 0,-0.81347 -0.23242,-1.51074 -0.22559,-0.7041 -0.5127,-1.12109 -0.1709,-0.23926 -0.44433,-0.41016 -0.38965,-0.23926 -0.875,-0.23926 -0.96387,0 -1.51075,0.98438 -0.54687,0.98437 -0.54687,2.29687 v 1.26465 q 0,0.81348 0.22559,1.51758 0.23242,0.7041 0.52636,1.1211 0.16407,0.23242 0.4375,0.40332 0.38965,0.24609 0.88184,0.24609 0.95703,0 1.5039,-0.98438 0.54688,-0.99121 0.54688,-2.30371 z"
       id="path387" />
    <path
       d="m 308.87695,289.35254 h 0.2461 q 0.38281,0 0.65625,0.27344 0.27343,0.2666 0.27343,0.64941 0,0.39648 -0.28027,0.66309 -0.27344,0.2666 -0.64941,0.2666 h -0.2461 q -0.38281,0 -0.65625,-0.2666 -0.27343,-0.27344 -0.27343,-0.65625 0,-0.39649 0.27343,-0.66309 0.28028,-0.2666 0.65625,-0.2666 z"
       id="path389" />
    <path
       d="m 320.0332,286.00293 v 1.42187 q 0,1.85254 -0.88183,2.93262 -0.69043,0.84766 -1.74317,0.84766 -0.50586,0 -0.95703,-0.20508 -0.44433,-0.19824 -0.75879,-0.56055 -0.19824,-0.22558 -0.4375,-0.72461 -0.23242,-0.49902 -0.33496,-0.91601 -0.15722,-0.58789 -0.15722,-1.37403 v -1.42187 q 0,-1.85938 0.88183,-2.93945 0.69043,-0.84766 1.74317,-0.84766 0.51269,0 0.95703,0.20508 0.44433,0.19824 0.75879,0.56055 0.20507,0.23242 0.4375,0.73144 0.23242,0.49902 0.34179,0.90918 0.15039,0.58789 0.15039,1.38086 z m -0.57422,0.0752 q 0,-0.81347 -0.23242,-1.51074 -0.22558,-0.7041 -0.51269,-1.12109 -0.1709,-0.23926 -0.44434,-0.41016 -0.38965,-0.23926 -0.875,-0.23926 -0.96387,0 -1.51074,0.98438 -0.54688,0.98437 -0.54688,2.29687 v 1.26465 q 0,0.81348 0.22559,1.51758 0.23242,0.7041 0.52637,1.1211 0.16406,0.23242 0.4375,0.40332 0.38965,0.24609 0.88183,0.24609 0.95703,0 1.50391,-0.98438 0.54687,-0.99121 0.54687,-2.30371 z"
       id="path391" />
    <path
       d="m 328.43457,286.00293 v 1.42187 q 0,1.85254 -0.88184,2.93262 -0.69043,0.84766 -1.74316,0.84766 -0.50586,0 -0.95703,-0.20508 -0.44434,-0.19824 -0.75879,-0.56055 -0.19824,-0.22558 -0.4375,-0.72461 -0.23242,-0.49902 -0.33496,-0.91601 -0.15723,-0.58789 -0.15723,-1.37403 v -1.42187 q 0,-1.85938 0.88184,-2.93945 0.69043,-0.84766 1.74316,-0.84766 0.5127,0 0.95703,0.20508 0.44434,0.19824 0.75879,0.56055 0.20508,0.23242 0.4375,0.73144 0.23242,0.49902 0.3418,0.90918 0.15039,0.58789 0.15039,1.38086 z m -0.57422,0.0752 q 0,-0.81347 -0.23242,-1.51074 -0.22559,-0.7041 -0.5127,-1.12109 -0.17089,-0.23926 -0.44433,-0.41016 -0.38965,-0.23926 -0.875,-0.23926 -0.96387,0 -1.51074,0.98438 -0.54688,0.98437 -0.54688,2.29687 v 1.26465 q 0,0.81348 0.22559,1.51758 0.23242,0.7041 0.52636,1.1211 0.16407,0.23242 0.4375,0.40332 0.38965,0.24609 0.88184,0.24609 0.95703,0 1.50391,-0.98438 0.54687,-0.99121 0.54687,-2.30371 z"
       id="path393" />
  </g>
  <text
     x="20"
     y="311"
     class="receipt-text"
     id="text28">123484922354.............</text>
  <g
     aria-label="₹40.00"
     id="text29"
     class="receipt-text price"
     style="font-size:14px;font-family:'Courier New', Courier, monospace;text-anchor:end">
    <path
       d="m 285.28613,310.49414 q 0.22559,0.19824 0.22559,0.35547 0,0.0957 -0.082,0.17773 -0.082,0.082 -0.17774,0.082 -0.0752,0 -0.1709,-0.0547 -0.0889,-0.0478 -0.17773,-0.12989 l -3.5752,-3.19921 q -0.17773,-0.16407 -0.17773,-0.29395 0,-0.13672 0.10938,-0.21191 0.10937,-0.0752 0.2871,-0.0752 h 1.14844 q 0.34864,0 0.71094,-0.10254 0.36914,-0.10254 0.67676,-0.29394 0.31445,-0.19825 0.54004,-0.47168 0.22558,-0.28028 0.30078,-0.63575 h -3.37012 q -0.38965,0 -0.38965,-0.29394 0,-0.28711 0.38965,-0.28711 h 3.37695 q -0.0615,-0.33496 -0.25976,-0.6084 -0.19141,-0.27344 -0.47168,-0.46484 -0.27344,-0.19824 -0.61524,-0.30078 -0.33496,-0.10938 -0.67675,-0.10938 h -1.36036 q -0.38281,0 -0.38281,-0.28711 0,-0.28711 0.38281,-0.28711 h 4.55274 q 0.45801,0 0.45801,0.28711 0,0.28711 -0.45801,0.28711 h -1.46289 q 0.35547,0.2666 0.58789,0.64258 0.23242,0.36914 0.28711,0.84082 h 0.58789 q 0.45801,0 0.45801,0.28711 0,0.29394 -0.45801,0.29394 h -0.58789 q -0.0684,0.50586 -0.3418,0.89551 -0.27344,0.38282 -0.66992,0.64942 -0.39648,0.25976 -0.875,0.39648 -0.47852,0.13672 -0.96387,0.13672 h -0.47851 z"
       id="path396" />
    <path
       d="m 293.26367,308.60059 h -3.80762 v -0.66309 l 3.19239,-5.5166 h 1.19629 v 5.60547 h 0.47851 q 0.21192,0 0.30078,0.082 0.0889,0.0752 0.0889,0.20508 0,0.12304 -0.0889,0.20507 -0.0889,0.082 -0.30078,0.082 h -0.47851 v 1.82519 h 0.47851 q 0.21192,0 0.30078,0.082 0.0889,0.0752 0.0889,0.20508 0,0.12305 -0.0889,0.20508 -0.0889,0.082 -0.30078,0.082 h -2.13281 q -0.21191,0 -0.30078,-0.082 -0.0889,-0.082 -0.0889,-0.20508 0,-0.12988 0.0889,-0.20508 0.0889,-0.082 0.30078,-0.082 h 1.07324 z m 0,-0.57422 v -5.02442 h -0.30078 l -2.90527,5.02442 z"
       id="path398" />
    <path
       d="m 303.23047,306.00293 v 1.42187 q 0,1.85254 -0.88184,2.93262 -0.69043,0.84766 -1.74316,0.84766 -0.50586,0 -0.95703,-0.20508 -0.44434,-0.19824 -0.75879,-0.56055 -0.19824,-0.22558 -0.4375,-0.72461 -0.23242,-0.49902 -0.33496,-0.91601 -0.15723,-0.58789 -0.15723,-1.37403 v -1.42187 q 0,-1.85938 0.88184,-2.93945 0.69043,-0.84766 1.74316,-0.84766 0.5127,0 0.95703,0.20508 0.44434,0.19824 0.75879,0.56055 0.20508,0.23242 0.4375,0.73144 0.23242,0.49902 0.3418,0.90918 0.15039,0.58789 0.15039,1.38086 z m -0.57422,0.0752 q 0,-0.81347 -0.23242,-1.51074 -0.22559,-0.7041 -0.5127,-1.12109 -0.1709,-0.23926 -0.44433,-0.41016 -0.38965,-0.23926 -0.875,-0.23926 -0.96387,0 -1.51075,0.98438 -0.54687,0.98437 -0.54687,2.29687 v 1.26465 q 0,0.81348 0.22559,1.51758 0.23242,0.7041 0.52636,1.1211 0.16407,0.23242 0.4375,0.40332 0.38965,0.24609 0.88184,0.24609 0.95703,0 1.5039,-0.98438 0.54688,-0.99121 0.54688,-2.30371 z"
       id="path400" />
    <path
       d="m 308.87695,309.35254 h 0.2461 q 0.38281,0 0.65625,0.27344 0.27343,0.2666 0.27343,0.64941 0,0.39648 -0.28027,0.66309 -0.27344,0.2666 -0.64941,0.2666 h -0.2461 q -0.38281,0 -0.65625,-0.2666 -0.27343,-0.27344 -0.27343,-0.65625 0,-0.39649 0.27343,-0.66309 0.28028,-0.2666 0.65625,-0.2666 z"
       id="path402" />
    <path
       d="m 320.0332,306.00293 v 1.42187 q 0,1.85254 -0.88183,2.93262 -0.69043,0.84766 -1.74317,0.84766 -0.50586,0 -0.95703,-0.20508 -0.44433,-0.19824 -0.75879,-0.56055 -0.19824,-0.22558 -0.4375,-0.72461 -0.23242,-0.49902 -0.33496,-0.91601 -0.15722,-0.58789 -0.15722,-1.37403 v -1.42187 q 0,-1.85938 0.88183,-2.93945 0.69043,-0.84766 1.74317,-0.84766 0.51269,0 0.95703,0.20508 0.44433,0.19824 0.75879,0.56055 0.20507,0.23242 0.4375,0.73144 0.23242,0.49902 0.34179,0.90918 0.15039,0.58789 0.15039,1.38086 z m -0.57422,0.0752 q 0,-0.81347 -0.23242,-1.51074 -0.22558,-0.7041 -0.51269,-1.12109 -0.1709,-0.23926 -0.44434,-0.41016 -0.38965,-0.23926 -0.875,-0.23926 -0.96387,0 -1.51074,0.98438 -0.54688,0.98437 -0.54688,2.29687 v 1.26465 q 0,0.81348 0.22559,1.51758 0.23242,0.7041 0.52637,1.1211 0.16406,0.23242 0.4375,0.40332 0.38965,0.24609 0.88183,0.24609 0.95703,0 1.50391,-0.98438 0.54687,-0.99121 0.54687,-2.30371 z"
       id="path404" />
    <path
       d="m 328.43457,306.00293 v 1.42187 q 0,1.85254 -0.88184,2.93262 -0.69043,0.84766 -1.74316,0.84766 -0.50586,0 -0.95703,-0.20508 -0.44434,-0.19824 -0.75879,-0.56055 -0.19824,-0.22558 -0.4375,-0.72461 -0.23242,-0.49902 -0.33496,-0.91601 -0.15723,-0.58789 -0.15723,-1.37403 v -1.42187 q 0,-1.85938 0.88184,-2.93945 0.69043,-0.84766 1.74316,-0.84766 0.5127,0 0.95703,0.20508 0.44434,0.19824 0.75879,0.56055 0.20508,0.23242 0.4375,0.73144 0.23242,0.49902 0.3418,0.90918 0.15039,0.58789 0.15039,1.38086 z m -0.57422,0.0752 q 0,-0.81347 -0.23242,-1.51074 -0.22559,-0.7041 -0.5127,-1.12109 -0.17089,-0.23926 -0.44433,-0.41016 -0.38965,-0.23926 -0.875,-0.23926 -0.96387,0 -1.51074,0.98438 -0.54688,0.98437 -0.54688,2.29687 v 1.26465 q 0,0.81348 0.22559,1.51758 0.23242,0.7041 0.52636,1.1211 0.16407,0.23242 0.4375,0.40332 0.38965,0.24609 0.88184,0.24609 0.95703,0 1.50391,-0.98438 0.54687,-0.99121 0.54687,-2.30371 z"
       id="path406" />
  </g>
  <line
     x1="20"
     y1="331"
     x2="330"
     y2="331"
     stroke="#000000"
     stroke-width="1"
     id="line29" />
  <text
     x="20"
     y="356"
     class="receipt-text total"
     id="text30">TOTAL</text>
  <g
     aria-label="₹290.00"
     id="text31"
     class="receipt-text total price"
     style="font-weight:bold;font-size:16px;font-family:'Courier New', Courier, monospace;text-anchor:end">
    <path
       d="m 264.8125,350.54687 q -0.57813,0 -0.82813,-0.22656 -0.24218,-0.22656 -0.24218,-0.58594 0,-0.35156 0.25,-0.57031 0.25781,-0.22656 0.82031,-0.22656 h 3.13281 q -0.13281,-0.19531 -0.32812,-0.34375 -0.1875,-0.14844 -0.41407,-0.25 -0.21875,-0.10156 -0.46093,-0.15625 -0.24219,-0.0547 -0.47657,-0.0547 h -1.45312 q -1.07031,0 -1.07031,-0.80469 0,-0.80468 1.07031,-0.80468 h 5.59375 q 0.57812,0 0.82031,0.21875 0.25,0.21875 0.25,0.57812 0,0.35938 -0.25,0.58594 -0.24219,0.22656 -0.82031,0.22656 h -1.0625 q 0.21875,0.36719 0.33594,0.80469 h 0.72656 q 0.57812,0 0.82031,0.21875 0.25,0.21875 0.25,0.57812 0,0.35938 -0.25,0.58594 -0.24219,0.22656 -0.82031,0.22656 h -0.73438 q -0.13281,0.46094 -0.39843,0.84375 -0.26563,0.38282 -0.63282,0.67969 -0.35937,0.29688 -0.80468,0.50781 -0.44532,0.20313 -0.9375,0.30469 l 2.30468,1.60938 q 0.30469,0.21093 0.4375,0.42187 0.14063,0.20313 0.14063,0.40625 0,0.14844 -0.0625,0.28906 -0.0625,0.13282 -0.17188,0.24219 -0.10156,0.10938 -0.23437,0.17188 -0.13281,0.0703 -0.28125,0.0703 -0.15625,0 -0.34375,-0.0703 -0.17969,-0.0625 -0.39844,-0.21094 l -3.98437,-2.78906 q -0.22657,-0.15625 -0.39844,-0.33594 -0.16406,-0.1875 -0.16406,-0.50781 0,-0.79688 1.07031,-0.79688 h 1.09375 q 0.26562,0 0.54687,-0.0469 0.28125,-0.0547 0.54688,-0.15625 0.26562,-0.10938 0.49219,-0.26563 0.22656,-0.15625 0.39062,-0.36719 z"
       id="path332" />
    <path
       d="m 275.69531,354.39844 h 3.50781 q 0.28907,-0.23438 0.54688,-0.23438 0.36719,0 0.57812,0.24219 0.21875,0.24219 0.21875,0.82812 V 356 H 273.25 v -1.69531 q 4.32812,-3.57032 5.22656,-4.59375 0.45313,-0.52344 0.45313,-0.99219 0,-0.58594 -0.51563,-1.03125 -0.50781,-0.45313 -1.35937,-0.45313 -0.85938,0 -1.42969,0.5 -0.29688,0.26563 -0.47656,0.78907 -0.10938,0.32812 -0.30469,0.46875 -0.1875,0.14062 -0.46875,0.14062 -0.32813,0 -0.57031,-0.23437 -0.23438,-0.23438 -0.23438,-0.54688 0,-0.46875 0.42969,-1.17187 0.4375,-0.70313 1.26562,-1.125 0.83594,-0.42188 1.8125,-0.42188 1.51563,0 2.48438,0.92188 0.96875,0.91406 0.96875,2.21875 0,0.66406 -0.28125,1.23437 -0.27344,0.5625 -1.32813,1.5625 -0.82812,0.78906 -3.22656,2.82813 z"
       id="path334" />
    <path
       d="m 289.04687,351.79687 q -0.60156,0.51563 -1.10156,0.73438 -0.5,0.21094 -1.05469,0.21094 -1.28906,0 -2.25781,-1.03125 -0.96094,-1.03125 -0.96094,-2.5625 0,-1.19532 0.66407,-2.17188 0.90625,-1.34375 2.55468,-1.34375 1.17969,0 2.0625,0.71094 0.88282,0.70312 1.29688,2.03906 0.41406,1.32813 0.41406,2.77344 0,2.45312 -1.89844,3.9375 -1.46875,1.14062 -3.21875,1.14062 -0.96875,0 -1.5,-0.39062 -0.35937,-0.25781 -0.35937,-0.67969 0,-0.34375 0.22656,-0.57031 0.23438,-0.23438 0.57031,-0.23438 0.1875,0 0.42188,0.11719 0.30469,0.15625 0.64062,0.15625 1.21094,0 2.23438,-0.82031 1.02344,-0.82813 1.26562,-2.01563 z m -0.22656,-2.52343 q -0.25781,-1.10938 -0.76562,-1.57032 -0.5,-0.46875 -1.14844,-0.46875 -0.67969,0 -1.15625,0.52344 -0.47656,0.51563 -0.47656,1.375 0,0.89844 0.47656,1.45313 0.48437,0.55468 1.10156,0.55468 1.08594,0 1.96875,-1.86718 z"
       id="path336" />
    <path
       d="m 299.89062,350.05469 v 1.75781 q 0,1.5625 -0.90625,2.99219 -0.89843,1.42968 -2.57812,1.42968 -0.96875,0 -1.64063,-0.42187 -0.66406,-0.42969 -1.26562,-1.57031 -0.59375,-1.14844 -0.59375,-2.42969 v -1.75781 q 0,-1.55469 0.89844,-2.98438 0.89843,-1.4375 2.57812,-1.4375 0.96094,0 1.625,0.42188 0.67188,0.42187 1.27344,1.57031 0.60937,1.14062 0.60937,2.42969 z m -1.60937,0 q 0,-1.30469 -0.72656,-2.28125 -0.41407,-0.53907 -1.16407,-0.53907 -0.72656,0 -1.1875,0.59375 -0.69531,0.89844 -0.69531,2.22657 v 1.75781 q 0,1.3125 0.73438,2.28125 0.40625,0.53906 1.16406,0.53906 0.71875,0 1.17969,-0.59375 0.69531,-0.89844 0.69531,-2.22656 z"
       id="path338" />
    <path
       d="m 307.21875,355.19531 q 0,0.45313 -0.32031,0.75781 -0.32032,0.30469 -0.88282,0.30469 -0.5625,0 -0.88281,-0.30469 -0.32031,-0.30468 -0.32031,-0.75781 0,-0.45312 0.32031,-0.75781 0.32031,-0.30469 0.88281,-0.30469 0.5625,0 0.88282,0.30469 0.32031,0.30469 0.32031,0.75781 z"
       id="path340" />
    <path
       d="m 319.09375,350.05469 v 1.75781 q 0,1.5625 -0.90625,2.99219 -0.89844,1.42968 -2.57813,1.42968 -0.96875,0 -1.64062,-0.42187 -0.66406,-0.42969 -1.26563,-1.57031 -0.59375,-1.14844 -0.59375,-2.42969 v -1.75781 q 0,-1.55469 0.89844,-2.98438 0.89844,-1.4375 2.57813,-1.4375 0.96093,0 1.625,0.42188 0.67187,0.42187 1.27343,1.57031 0.60938,1.14062 0.60938,2.42969 z m -1.60938,0 q 0,-1.30469 -0.72656,-2.28125 -0.41406,-0.53907 -1.16406,-0.53907 -0.72656,0 -1.1875,0.59375 -0.69531,0.89844 -0.69531,2.22657 v 1.75781 q 0,1.3125 0.73437,2.28125 0.40625,0.53906 1.16406,0.53906 0.71875,0 1.17969,-0.59375 0.69531,-0.89844 0.69531,-2.22656 z"
       id="path342" />
    <path
       d="m 328.69531,350.05469 v 1.75781 q 0,1.5625 -0.90625,2.99219 -0.89844,1.42968 -2.57812,1.42968 -0.96875,0 -1.64063,-0.42187 -0.66406,-0.42969 -1.26562,-1.57031 -0.59375,-1.14844 -0.59375,-2.42969 v -1.75781 q 0,-1.55469 0.89843,-2.98438 0.89844,-1.4375 2.57813,-1.4375 0.96094,0 1.625,0.42188 0.67187,0.42187 1.27344,1.57031 0.60937,1.14062 0.60937,2.42969 z m -1.60937,0 q 0,-1.30469 -0.72657,-2.28125 -0.41406,-0.53907 -1.16406,-0.53907 -0.72656,0 -1.1875,0.59375 -0.69531,0.89844 -0.69531,2.22657 v 1.75781 q 0,1.3125 0.73437,2.28125 0.40625,0.53906 1.16407,0.53906 0.71875,0 1.17968,-0.59375 0.69532,-0.89844 0.69532,-2.22656 z"
       id="path345" />
  </g>
  <text
     x="20"
     y="381"
     class="receipt-text"
     id="text32">ITEMS COUNT: 11</text>
  <line
     x1="20"
     y1="390.5"
     x2="330"
     y2="390.5"
     stroke="#000000"
     stroke-width="1"
     stroke-dasharray="4, 4"
     id="line36" />
  <text
     x="175"
     y="410.5"
     class="receipt-text"
     text-anchor="middle"
     id="text37">THANK YOU FOR SHOPPING!</text>
  <text
     x="175"
     y="425.5"
     class="receipt-text"
     text-anchor="middle"
     id="text38">Please come again.</text>
  <g
     transform="translate(100,440.5)"
     id="g52">
    <rect
       x="0"
       y="0"
       width="3"
       height="15"
       class="barcode-rect"
       id="rect38" />
    <rect
       x="5"
       y="0"
       width="1"
       height="15"
       class="barcode-rect"
       id="rect39" />
    <rect
       x="8"
       y="0"
       width="4"
       height="15"
       class="barcode-rect"
       id="rect40" />
    <rect
       x="14"
       y="0"
       width="2"
       height="15"
       class="barcode-rect"
       id="rect41" />
    <rect
       x="18"
       y="0"
       width="5"
       height="15"
       class="barcode-rect"
       id="rect42" />
    <rect
       x="25"
       y="0"
       width="1"
       height="15"
       class="barcode-rect"
       id="rect43" />
    <rect
       x="28"
       y="0"
       width="3"
       height="15"
       class="barcode-rect"
       id="rect44" />
    <rect
       x="33"
       y="0"
       width="6"
       height="15"
       class="barcode-rect"
       id="rect45" />
    <rect
       x="41"
       y="0"
       width="2"
       height="15"
       class="barcode-rect"
       id="rect46" />
    <rect
       x="45"
       y="0"
       width="4"
       height="15"
       class="barcode-rect"
       id="rect47" />
    <rect
       x="51"
       y="0"
       width="1"
       height="15"
       class="barcode-rect"
       id="rect48" />
    <rect
       x="54"
       y="0"
       width="5"
       height="15"
       class="barcode-rect"
       id="rect49" />
    <rect
       x="61"
       y="0"
       width="3"
       height="15"
       class="barcode-rect"
       id="rect50" />
    <rect
       x="66"
       y="0"
       width="1"
       height="15"
       class="barcode-rect"
       id="rect51" />
    <rect
       x="69"
       y="0"
       width="4"
       height="15"
       class="barcode-rect"
       id="rect52" />
  </g>
</svg>
