<?xml version="1.0" encoding="UTF-8" standalone="no"?>
<svg
   width="470"
   height="450"
   viewBox="0 0 470 450"
   version="1.1"
   id="svg20"
   sodipodi:docname="shopping.svg"
   inkscape:version="1.4 (86a8ad7, 2024-10-11)"
   xmlns:inkscape="http://www.inkscape.org/namespaces/inkscape"
   xmlns:sodipodi="http://sodipodi.sourceforge.net/DTD/sodipodi-0.dtd"
   xmlns:xlink="http://www.w3.org/1999/xlink"
   xmlns="http://www.w3.org/2000/svg"
   xmlns:svg="http://www.w3.org/2000/svg">
  <sodipodi:namedview
     id="namedview20"
     pagecolor="#ffffff"
     bordercolor="#000000"
     borderopacity="0.25"
     inkscape:showpageshadow="2"
     inkscape:pageopacity="0.0"
     inkscape:pagecheckerboard="0"
     inkscape:deskcolor="#d1d1d1"
     inkscape:zoom="1.5778583"
     inkscape:cx="411.63392"
     inkscape:cy="64.327703"
     inkscape:window-width="1920"
     inkscape:window-height="986"
     inkscape:window-x="1909"
     inkscape:window-y="-11"
     inkscape:window-maximized="1"
     inkscape:current-layer="g20" />
  <defs
     id="defs6">
    <filter
       id="objShadow"
       x="-0.26"
       y="-0.26"
       width="1.6"
       height="1.64">
      <feGaussianBlur
         in="SourceAlpha"
         stdDeviation="5"
         id="feGaussianBlur1" />
      <feOffset
         dx="4"
         dy="6"
         id="feOffset1" />
      <feComponentTransfer
         id="feComponentTransfer1">
        <feFuncA
           type="linear"
           slope="0.3"
           id="feFuncA1" />
      </feComponentTransfer>
      <feMerge
         id="feMerge2">
        <feMergeNode
           id="feMergeNode1" />
        <feMergeNode
           in="SourceGraphic"
           id="feMergeNode2" />
      </feMerge>
    </filter>
    <linearGradient
       id="bagGrad"
       x1="71.353226"
       y1="141.40689"
       x2="554.54822"
       y2="141.40689"
       gradientTransform="scale(0.95871357,1.0430644)"
       gradientUnits="userSpaceOnUse">
      <stop
         offset="0%"
         style="stop-color:#d2b48c"
         id="stop2" />
      <stop
         offset="50%"
         style="stop-color:#c3a478"
         id="stop3" />
      <stop
         offset="100%"
         style="stop-color:#b59468"
         id="stop4" />
    </linearGradient>
    <radialGradient
       id="appleGrad"
       cx="0.30000001"
       cy="0.30000001"
       r="0.69999999">
      <stop
         offset="0%"
         style="stop-color:#ff7675"
         id="stop5" />
      <stop
         offset="100%"
         style="stop-color:#d63031"
         id="stop6" />
    </radialGradient>
    <radialGradient
       inkscape:collect="always"
       xlink:href="#appleGrad"
       id="radialGradient20"
       cx="139.60001"
       cy="389.60001"
       r="36.399998"
       fx="139.60001"
       fy="389.60001"
       gradientUnits="userSpaceOnUse"
       gradientTransform="translate(-66,-144)" />
    <radialGradient
       inkscape:collect="always"
       xlink:href="#appleGrad"
       id="radialGradient22"
       cx="169.60001"
       cy="429.60001"
       r="36.399998"
       fx="169.60001"
       fy="429.60001"
       gradientUnits="userSpaceOnUse"
       gradientTransform="translate(-60,-140)" />
    <radialGradient
       inkscape:collect="always"
       xlink:href="#appleGrad"
       id="radialGradient24"
       cx="229.60001"
       cy="439.60001"
       r="36.399998"
       fx="229.60001"
       fy="439.60001"
       gradientUnits="userSpaceOnUse"
       gradientTransform="translate(-60,-140)" />
    <radialGradient
       inkscape:collect="always"
       xlink:href="#appleGrad"
       id="radialGradient25"
       cx="149.60001"
       cy="499.60001"
       r="36.399998"
       fx="149.60001"
       fy="499.60001"
       gradientUnits="userSpaceOnUse"
       gradientTransform="translate(-60,-140)" />
  </defs>
  <g
     id="paper-bag"
     filter="url(#objShadow)"
     transform="matrix(1.000514,0,0,0.87276697,-66.154213,-127.31862)">
    <path
       d="m 100,650 h 400 l 30,-500 -40,20 -40,-20 -40,20 -40,-20 -40,20 -40,-20 -40,20 -40,-20 -40,20 -40,-20 H 70 Z"
       fill="url(#bagGrad)"
       stroke="#8d6e63"
       stroke-width="3"
       id="path6"
       style="fill:url(#bagGrad)" />
    <line
       x1="160"
       y1="180"
       x2="180"
       y2="650"
       stroke="#a6855d"
       stroke-width="2"
       opacity="0.6"
       id="line6" />
    <line
       x1="440"
       y1="180"
       x2="420"
       y2="650"
       stroke="#a6855d"
       stroke-width="2"
       opacity="0.6"
       id="line7" />
  </g>
  <g
     id="milks"
     transform="translate(266,170)"
     filter="url(#objShadow)">
    <g
       transform="rotate(-5)"
       id="g7">
      <rect
         width="60"
         height="90"
         fill="#f5f6fa"
         stroke="#2f3640"
         stroke-width="2.5"
         id="rect7"
         x="0"
         y="0" />
      <path
         d="M 0,0 30,-30 60,0 Z"
         fill="#00a8ff"
         stroke="#2f3640"
         stroke-width="2.5"
         id="path7" />
    </g>
    <g
       transform="rotate(10,-188.60105,477.20209)"
       id="g8">
      <rect
         width="60"
         height="90"
         fill="#f5f6fa"
         stroke="#2f3640"
         stroke-width="2.5"
         id="rect8"
         x="0"
         y="0" />
      <path
         d="M 0,0 30,-30 60,0 Z"
         fill="#00a8ff"
         stroke="#2f3640"
         stroke-width="2.5"
         id="path8" />
    </g>
    <g
       transform="rotate(-2,3698.8475,1497.249)"
       id="g9">
      <rect
         width="60"
         height="90"
         fill="#f5f6fa"
         stroke="#2f3640"
         stroke-width="2.5"
         id="rect9"
         x="0"
         y="0" />
      <path
         d="M 0,0 30,-30 60,0 Z"
         fill="#00a8ff"
         stroke="#2f3640"
         stroke-width="2.5"
         id="path9" />
    </g>
  </g>
  <g
     transform="rotate(-15,683.86175,-305.60889)"
     id="g10"
     style="filter:url(#objShadow)">
    <rect
       width="130"
       height="60"
       rx="25"
       fill="#e1b12c"
       stroke="#4b2c20"
       stroke-width="2.5"
       id="rect10"
       x="0"
       y="0" />
    <path
       d="M 30,15 45,45 M 65,15 80,45"
       stroke="#9c7c38"
       stroke-width="4"
       stroke-linecap="round"
       id="path10" />
  </g>
  <g
     transform="rotate(5,-534.95726,749.00573)"
     id="g11"
     style="filter:url(#objShadow)">
    <rect
       width="130"
       height="60"
       rx="25"
       fill="#e1b12c"
       stroke="#4b2c20"
       stroke-width="2.5"
       id="rect11"
       x="0"
       y="0" />
    <path
       d="M 30,15 45,45 M 65,15 80,45"
       stroke="#9c7c38"
       stroke-width="4"
       stroke-linecap="round"
       id="path11" />
  </g>
  <circle
     cx="84"
     cy="256"
     r="25"
     fill="url(#appleGrad)"
     stroke="#2d3436"
     stroke-width="2"
     id="circle11"
     style="fill:url(#radialGradient20);filter:url(#objShadow)" />
  <circle
     cx="120"
     cy="300"
     r="25"
     fill="url(#appleGrad)"
     stroke="#2d3436"
     stroke-width="2"
     id="circle13"
     style="fill:url(#radialGradient22);filter:url(#objShadow)" />
  <circle
     cx="180"
     cy="310"
     r="25"
     fill="url(#appleGrad)"
     stroke="#2d3436"
     stroke-width="2"
     id="circle15"
     style="fill:url(#radialGradient24);filter:url(#objShadow)" />
  <circle
     cx="100"
     cy="370"
     r="25"
     fill="url(#appleGrad)"
     stroke="#2d3436"
     stroke-width="2"
     id="circle16"
     style="fill:url(#radialGradient25);filter:url(#objShadow)" />
  <g
     transform="translate(297.49552,346.19974)"
     filter="url(#objShadow)"
     id="g19">
    <path
       d="M 0,60 H 100 V 10 Q 50,-15 0,25 Z"
       fill="#fbc531"
       stroke="#2f3640"
       stroke-width="2.5"
       id="path17" />
    <circle
       cx="30"
       cy="40"
       r="6"
       fill="#e1b12c"
       id="circle18" />
    <circle
       cx="70"
       cy="35"
       r="8"
       fill="#e1b12c"
       id="circle19" />
  </g>
  <g
     transform="translate(344,83.77977)"
     filter="url(#objShadow)"
     id="g20">
    <path
       id="path19"
       d="M 36.25 -32.852036 C 27.5 -33.034327 18.75 -28.750473 10 -20.000473 C -23.333333 -20.000473 -30 -6.6671398 -10 19.999527 L 20.671875 28.763199 L 20.671875 55.589371 C 20.671875 58.359371 22.901875 60.589371 25.671875 60.589371 L 40.671875 60.589371 C 43.441875 60.589371 45.671875 58.359371 45.671875 55.589371 L 45.671875 35.905777 L 60 39.999527 C 80 19.999527 83.333333 3.3328602 70 -10.000473 C 58.75 -25.000473 47.5 -32.617661 36.25 -32.852036 z " />
    <path
       style="fill:#008000;stroke-width:1.924;stroke:#000000;stroke-dasharray:none"
       d="m 368.04206,143.94926 c -0.4906,-0.18241 -1.23023,-0.65658 -1.64364,-1.05371 -1.58119,-1.51895 -1.48573,-0.55396 -1.60969,-16.27109 l -0.11204,-14.2046 -15.23687,-4.34533 c -13.61149,-3.88179 -15.29181,-4.4102 -15.75185,-4.95352 -1.55154,-1.83246 -5.67922,-8.418553 -7.20584,-11.497576 -2.7368,-5.519857 -3.76048,-9.307816 -3.53283,-13.072711 0.55306,-9.146929 9.35146,-13.836056 27.3868,-14.595866 l 3.80922,-0.160478 1.68054,-1.572309 c 10.64537,-9.959792 21.59254,-13.277322 32.28381,-9.783577 4.1309,1.349914 9.12425,4.292857 13.33952,7.861945 2.65459,2.247648 7.48719,7.304595 10.04667,10.513057 1.22589,1.536732 2.73067,3.348636 3.34396,4.026453 4.36433,4.823533 6.65495,9.876773 6.99786,15.437691 0.55199,8.951528 -5.17988,20.248181 -15.83716,31.212681 l -2.11128,2.17214 -6.94622,-2.00392 c -3.82043,-1.10215 -7.01636,-2.00398 -7.10208,-2.00408 -0.0857,-9e-5 -0.18655,4.71374 -0.22407,10.47518 -0.0666,10.22971 -0.0795,10.49637 -0.55057,11.37164 -0.55898,1.03866 -1.21674,1.6828 -2.31855,2.27052 -0.72133,0.38478 -1.4673,0.42198 -9.29897,0.46373 -7.04889,0.0376 -8.66828,-0.0117 -9.40672,-0.28627 z"
       id="path1"
       transform="translate(-344,-83.77977)" />
  </g>
</svg>
