<?xml version="1.0" encoding="UTF-8" standalone="no"?>
<!DOCTYPE svg PUBLIC "-//W3C//DTD SVG 1.1//EN" "http://www.w3.org/Graphics/SVG/1.1/DTD/svg11.dtd">
<svg width="100%" height="100%" viewBox="0 0 350 691" version="1.1" xmlns="http://www.w3.org/2000/svg" xmlns:xlink="http://www.w3.org/1999/xlink" xml:space="preserve" xmlns:serif="http://www.serif.com/" style="fill-rule:evenodd;clip-rule:evenodd;stroke-linecap:round;stroke-linejoin:round;stroke-miterlimit:1.5;">
    <g transform="matrix(1,0,0,1,-3382.04,-3509.52)">
        <g>
            <g transform="matrix(1,0,0,1,1268.82,3690.14)">
                <g transform="matrix(0.548491,0,0,0.539128,1101.92,218.716)">
                    <path d="M2440.74,294.717L2440.74,475.113C2440.74,490.385 2428.55,502.785 2413.54,502.785L2229.08,502.785C2214.07,502.785 2201.88,490.385 2201.88,475.113L2201.88,294.717C2201.88,279.444 2214.07,267.045 2229.08,267.045L2413.54,267.045C2428.55,267.045 2440.74,279.444 2440.74,294.717Z" style="fill:rgb(198,198,213);stroke:rgb(236,236,245);stroke-width:1.53px;"/>
                </g>
                <g transform="matrix(0.795257,0,0,1.79528,700.416,-1951.38)">
                    <path d="M2165.67,1300.72C2165.99,1301.3 2164.69,1349.97 2164.69,1349.97L2048.62,1349.29L2048.73,1302.17C2047.88,1299.43 2164.1,1297.83 2165.67,1300.72Z" style="fill:white;stroke:white;stroke-width:3px;"/>
                </g>
                <g transform="matrix(1.75596,-0.0794777,0.0794777,1.75596,-1437.89,-1684.66)">
                    <g transform="matrix(50,0,0,50,2133.5,1318.18)">
                    </g>
                    <text x="2095.75px" y="1318.18px" style="font-family:'Noteworthy-Bold', 'Noteworthy';font-weight:700;font-size:50px;">A</text>
                </g>
            </g>
            <g transform="matrix(1,0,0,1,1270.6,3385.36)">
                <g transform="matrix(0.548491,0,0,0.539128,1101.92,375.313)">
                    <path d="M2440.74,294.717L2440.74,475.113C2440.74,490.385 2428.55,502.785 2413.54,502.785L2229.08,502.785C2214.07,502.785 2201.88,490.385 2201.88,475.113L2201.88,294.717C2201.88,279.444 2214.07,267.045 2229.08,267.045L2413.54,267.045C2428.55,267.045 2440.74,279.444 2440.74,294.717Z" style="fill:rgb(147,51,61);stroke:rgb(236,236,245);stroke-width:1.53px;"/>
                </g>
                <g transform="matrix(0.795257,0,0,1.79528,700.416,-1794.78)">
                    <path d="M2165.67,1300.72C2165.99,1301.3 2164.69,1349.97 2164.69,1349.97L2048.62,1349.29L2048.73,1302.17C2047.88,1299.43 2164.1,1297.83 2165.67,1300.72Z" style="fill:white;stroke:white;stroke-width:3px;"/>
                </g>
                <g transform="matrix(1.75596,-0.0794777,0.0794777,1.75596,-1437.89,-1528.06)">
                    <g transform="matrix(50,0,0,50,2131.31,1318.18)">
                    </g>
                    <text x="2095.75px" y="1318.18px" style="font-family:'Noteworthy-Bold', 'Noteworthy';font-weight:700;font-size:50px;">B</text>
                </g>
            </g>
            <g transform="matrix(1,0,0,2.51583,893.466,2943.51)">
                <path d="M2834.3,267.9L2834.3,497.984L2669.11,497.984L2669.11,267.9" style="fill:none;stroke:rgb(91,132,120);stroke-width:4.35px;"/>
            </g>
            <g transform="matrix(1,0,0,1,1269.71,3078.77)">
                <g transform="matrix(0.548491,0,0,0.539128,1101.92,531.911)">
                    <path d="M2440.74,294.717L2440.74,475.113C2440.74,490.385 2428.55,502.785 2413.54,502.785L2229.08,502.785C2214.07,502.785 2201.88,490.385 2201.88,475.113L2201.88,294.717C2201.88,279.444 2214.07,267.045 2229.08,267.045L2413.54,267.045C2428.55,267.045 2440.74,279.444 2440.74,294.717Z" style="fill:rgb(14,17,156);stroke:rgb(236,236,245);stroke-width:1.53px;"/>
                </g>
                <g transform="matrix(0.795257,0,0,1.79528,700.416,-1638.18)">
                    <path d="M2165.67,1300.72C2165.99,1301.3 2164.69,1349.97 2164.69,1349.97L2048.62,1349.29L2048.73,1302.17C2047.88,1299.43 2164.1,1297.83 2165.67,1300.72Z" style="fill:white;stroke:white;stroke-width:3px;"/>
                </g>
                <g transform="matrix(1.75596,-0.0794777,0.0794777,1.75596,-1437.89,-1371.46)">
                    <g transform="matrix(50,0,0,50,2130.87,1318.18)">
                    </g>
                    <text x="2095.75px" y="1318.18px" style="font-family:'Noteworthy-Bold', 'Noteworthy';font-weight:700;font-size:50px;">C</text>
                </g>
            </g>
            <g transform="matrix(1,0,0,1,1072.83,2677.46)">
                <g transform="matrix(0.548491,0,0,0.539128,1101.92,688.509)">
                    <path d="M2440.74,294.717L2440.74,475.113C2440.74,490.385 2428.55,502.785 2413.54,502.785L2229.08,502.785C2214.07,502.785 2201.88,490.385 2201.88,475.113L2201.88,294.717C2201.88,279.444 2214.07,267.045 2229.08,267.045L2413.54,267.045C2428.55,267.045 2440.74,279.444 2440.74,294.717Z" style="fill:rgb(71,71,71);stroke:rgb(236,236,245);stroke-width:1.53px;"/>
                </g>
                <g transform="matrix(0.795257,0,0,1.79528,700.416,-1481.59)">
                    <path d="M2165.67,1300.72C2165.99,1301.3 2164.69,1349.97 2164.69,1349.97L2048.62,1349.29L2048.73,1302.17C2047.88,1299.43 2164.1,1297.83 2165.67,1300.72Z" style="fill:white;stroke:white;stroke-width:3px;"/>
                </g>
                <g transform="matrix(1.75596,-0.0794777,0.0794777,1.75596,-1437.89,-1214.87)">
                    <g transform="matrix(50,0,0,50,2130.5,1318.18)">
                    </g>
                    <text x="2095.75px" y="1318.18px" style="font-family:'Noteworthy-Bold', 'Noteworthy';font-weight:700;font-size:50px;">D</text>
                </g>
            </g>
            <g transform="matrix(1,0,0,1,216.035,-3.8069)">
                <path d="M3319.79,3565.52C3355.93,3546.08 3402.23,3568.68 3416.69,3580.63C3441.74,3601.33 3439.25,3627.06 3440.93,3664.9C3442.8,3661.07 3441.85,3648.18 3473.73,3611.75C3469.72,3617.77 3445.8,3662.8 3442.54,3670.72C3440.16,3667.38 3415.51,3632.77 3409.77,3631.34C3408.67,3631.06 3404.41,3625.97 3405.74,3627.3" style="fill:none;stroke:black;stroke-width:20.83px;"/>
            </g>
        </g>
    </g>
</svg>
