<?xml version="1.0" encoding="UTF-8" standalone="no"?>
<!DOCTYPE svg PUBLIC "-//W3C//DTD SVG 1.1//EN" "http://www.w3.org/Graphics/SVG/1.1/DTD/svg11.dtd">
<svg width="100%" height="100%" viewBox="0 0 188 758" version="1.1" xmlns="http://www.w3.org/2000/svg" xmlns:xlink="http://www.w3.org/1999/xlink" xml:space="preserve" xmlns:serif="http://www.serif.com/" style="fill-rule:evenodd;clip-rule:evenodd;stroke-linecap:round;stroke-linejoin:round;stroke-miterlimit:1.5;">
    <g transform="matrix(1,0,0,1,-3848.05,-3446.88)">
        <g>
            <g transform="matrix(1,0,0,1,1558.47,3693.94)">
                <g transform="matrix(0.548491,0,0,0.539128,1101.92,218.716)">
                    <path d="M2440.74,294.717L2440.74,475.113C2440.74,490.385 2428.55,502.785 2413.54,502.785L2229.08,502.785C2214.07,502.785 2201.88,490.385 2201.88,475.113L2201.88,294.717C2201.88,279.444 2214.07,267.045 2229.08,267.045L2413.54,267.045C2428.55,267.045 2440.74,279.444 2440.74,294.717Z" style="fill:rgb(198,198,213);stroke:rgb(236,236,245);stroke-width:1.53px;"/>
                </g>
                <g transform="matrix(0.795257,0,0,1.79528,700.416,-1951.38)">
                    <path d="M2165.67,1300.72C2165.99,1301.3 2164.69,1349.97 2164.69,1349.97L2048.62,1349.29L2048.73,1302.17C2047.88,1299.43 2164.1,1297.83 2165.67,1300.72Z" style="fill:white;stroke:white;stroke-width:3px;"/>
                </g>
                <g transform="matrix(1.75596,-0.0794777,0.0794777,1.75596,-1437.89,-1684.66)">
                    <g transform="matrix(50,0,0,50,2133.5,1318.18)">
                    </g>
                    <text x="2095.75px" y="1318.18px" style="font-family:'Noteworthy-Bold', 'Noteworthy';font-weight:700;font-size:50px;">A</text>
                </g>
            </g>
            <g transform="matrix(1,0,0,1,1560.24,3389.17)">
                <g transform="matrix(0.548491,0,0,0.539128,1101.92,375.313)">
                    <path d="M2440.74,294.717L2440.74,475.113C2440.74,490.385 2428.55,502.785 2413.54,502.785L2229.08,502.785C2214.07,502.785 2201.88,490.385 2201.88,475.113L2201.88,294.717C2201.88,279.444 2214.07,267.045 2229.08,267.045L2413.54,267.045C2428.55,267.045 2440.74,279.444 2440.74,294.717Z" style="fill:rgb(147,51,61);stroke:rgb(236,236,245);stroke-width:1.53px;"/>
                </g>
                <g transform="matrix(0.795257,0,0,1.79528,700.416,-1794.78)">
                    <path d="M2165.67,1300.72C2165.99,1301.3 2164.69,1349.97 2164.69,1349.97L2048.62,1349.29L2048.73,1302.17C2047.88,1299.43 2164.1,1297.83 2165.67,1300.72Z" style="fill:white;stroke:white;stroke-width:3px;"/>
                </g>
                <g transform="matrix(1.75596,-0.0794777,0.0794777,1.75596,-1437.89,-1528.06)">
                    <g transform="matrix(50,0,0,50,2131.31,1318.18)">
                    </g>
                    <text x="2095.75px" y="1318.18px" style="font-family:'Noteworthy-Bold', 'Noteworthy';font-weight:700;font-size:50px;">B</text>
                </g>
            </g>
            <g transform="matrix(1,0,0,2.51583,1183.11,2947.31)">
                <path d="M2834.3,267.9L2834.3,497.984L2669.11,497.984L2669.11,267.9" style="fill:none;stroke:rgb(91,132,120);stroke-width:4.35px;"/>
            </g>
            <g transform="matrix(1,0,0,1,1559.35,3082.58)">
                <g transform="matrix(0.548491,0,0,0.539128,1101.92,531.911)">
                    <path d="M2440.74,294.717L2440.74,475.113C2440.74,490.385 2428.55,502.785 2413.54,502.785L2229.08,502.785C2214.07,502.785 2201.88,490.385 2201.88,475.113L2201.88,294.717C2201.88,279.444 2214.07,267.045 2229.08,267.045L2413.54,267.045C2428.55,267.045 2440.74,279.444 2440.74,294.717Z" style="fill:rgb(14,17,156);stroke:rgb(236,236,245);stroke-width:1.53px;"/>
                </g>
                <g transform="matrix(0.795257,0,0,1.79528,700.416,-1638.18)">
                    <path d="M2165.67,1300.72C2165.99,1301.3 2164.69,1349.97 2164.69,1349.97L2048.62,1349.29L2048.73,1302.17C2047.88,1299.43 2164.1,1297.83 2165.67,1300.72Z" style="fill:white;stroke:white;stroke-width:3px;"/>
                </g>
                <g transform="matrix(1.75596,-0.0794777,0.0794777,1.75596,-1437.89,-1371.46)">
                    <g transform="matrix(50,0,0,50,2130.87,1318.18)">
                    </g>
                    <text x="2095.75px" y="1318.18px" style="font-family:'Noteworthy-Bold', 'Noteworthy';font-weight:700;font-size:50px;">C</text>
                </g>
            </g>
            <g transform="matrix(1,0,0,1,1622.47,2640.43)">
                <g transform="matrix(0.548491,0,0,0.539128,1073.63,662.898)">
                    <path d="M2440.74,294.717L2440.74,475.113C2440.74,490.385 2428.55,502.785 2413.54,502.785L2229.08,502.785C2214.07,502.785 2201.88,490.385 2201.88,475.113L2201.88,294.717C2201.88,279.444 2214.07,267.045 2229.08,267.045L2413.54,267.045C2428.55,267.045 2440.74,279.444 2440.74,294.717Z" style="fill:rgb(71,71,71);stroke:rgb(236,236,245);stroke-width:1.53px;"/>
                </g>
                <g transform="matrix(0.795257,0,0,1.79528,672.128,-1507.2)">
                    <path d="M2165.67,1300.72C2165.99,1301.3 2164.69,1349.97 2164.69,1349.97L2048.62,1349.29L2048.73,1302.17C2047.88,1299.43 2164.1,1297.83 2165.67,1300.72Z" style="fill:white;stroke:white;stroke-width:3px;"/>
                </g>
                <g transform="matrix(1.75596,-0.0794777,0.0794777,1.75596,-1466.18,-1240.48)">
                    <g transform="matrix(50,0,0,50,2130.5,1318.18)">
                    </g>
                    <text x="2095.75px" y="1318.18px" style="font-family:'Noteworthy-Bold', 'Noteworthy';font-weight:700;font-size:50px;">D</text>
                </g>
            </g>
            <path d="M3918.71,3734.36C3918.39,3727.77 3922.45,3671.66 3940.77,3637.64C3960.16,3601.62 3887.76,3658.51 3885.73,3660.87C3899.89,3645.04 3923.92,3635.01 3946.87,3628.45C3954.19,3656.58 3949.85,3657.95 3966.06,3682.26" style="fill:none;stroke:black;stroke-width:20.83px;"/>
        </g>
    </g>
</svg>
