<?xml version="1.0" encoding="UTF-8" standalone="no"?>
<!-- Created with Inkscape (http://www.inkscape.org/) -->

<svg
   width="54.059479mm"
   height="64.38131mm"
   viewBox="0 0 54.059479 64.38131"
   version="1.1"
   id="svg1"
   inkscape:version="1.4.3 (fcd0343856, 2026-01-01)"
   sodipodi:docname="pin.svg"
   xmlns:inkscape="http://www.inkscape.org/namespaces/inkscape"
   xmlns:sodipodi="http://sodipodi.sourceforge.net/DTD/sodipodi-0.dtd"
   xmlns="http://www.w3.org/2000/svg"
   xmlns:svg="http://www.w3.org/2000/svg">
  <sodipodi:namedview
     id="namedview1"
     pagecolor="#ffffff"
     bordercolor="#000000"
     borderopacity="0.25"
     inkscape:showpageshadow="2"
     inkscape:pageopacity="0.0"
     inkscape:pagecheckerboard="0"
     inkscape:deskcolor="#d1d1d1"
     inkscape:document-units="mm"
     inkscape:zoom="0.7180275"
     inkscape:cx="179.65886"
     inkscape:cy="343.99797"
     inkscape:window-width="1854"
     inkscape:window-height="1011"
     inkscape:window-x="0"
     inkscape:window-y="0"
     inkscape:window-maximized="1"
     inkscape:current-layer="layer1" />
  <defs
     id="defs1" />
  <g
     inkscape:label="Layer 1"
     inkscape:groupmode="layer"
     id="layer1"
     transform="translate(-57.414561,-57.414579)">
    <path
       fill="#782b28"
       stroke="#2e2e2d"
       stroke-width="0.468789"
       stroke-linecap="round"
       stroke-linejoin="round"
       d="m 82.411454,116.75872 c 1.322917,-1.05833 4.233334,-4.7625 7.9375,-8.20208 1.058334,-0.79375 2.116667,-1.32292 2.910417,-0.52917 0.264583,0.52917 0,0.79375 -1.058333,2.11667 -2.116667,2.38125 -6.614584,6.35 -7.672917,7.40833 -0.529167,0.52917 -4.497917,4.49792 -5.55625,3.70417 0.264583,-3.96875 1.058333,-2.38125 3.439583,-4.49792 z"
       id="path31" />
    <path
       fill="#782b28"
       stroke="#2e2e2d"
       stroke-width="0.468789"
       stroke-linecap="round"
       stroke-linejoin="round"
       d="m 79.236454,113.84831 c 1.058334,-1.05834 5.820834,-6.35 8.466667,-9.26042 0.79375,-1.05833 1.852083,-1.32292 2.116667,-0.52917 0.264583,0.52917 -0.264584,1.5875 -1.322917,2.91042 -2.116667,2.64583 -5.55625,6.35 -6.614583,7.67292 -0.264584,0.52916 -3.96875,4.49791 -5.291667,4.49791 0.264583,-4.23333 0.529167,-3.175 2.645833,-5.29166 z"
       id="path32" />
    <path
       fill="#782b28"
       stroke="#2e2e2d"
       stroke-width="0.468789"
       stroke-linecap="round"
       stroke-linejoin="round"
       d="m 77.119788,111.20247 c 1.058333,-1.05833 5.820833,-6.35 8.466666,-8.99583 1.058334,-1.05833 1.852084,-1.32292 2.116667,-0.79375 0.264583,0.79375 -0.264583,1.85208 -1.322917,3.175 -1.852083,2.64583 -5.55625,6.08542 -6.35,7.40833 -0.529166,0.79375 -4.233333,4.7625 -5.55625,4.49792 0.264584,-3.96875 0.79375,-2.91042 2.645834,-5.29167 z"
       id="path33" />
    <path
       fill="#782b28"
       stroke="#2e2e2d"
       stroke-width="0.468789"
       stroke-linecap="round"
       stroke-linejoin="round"
       d="m 75.003121,109.61497 c 1.058333,-1.05833 5.820833,-6.35 8.466667,-9.26041 1.058333,-0.793753 1.852083,-1.058336 2.116666,-0.529169 0.264584,0.529169 -0.264583,1.852079 -1.322916,3.174999 -2.116667,2.38125 -5.55625,6.08542 -6.35,7.40833 -0.529167,0.79375 -4.233334,4.7625 -5.55625,4.49792 0.264583,-3.96875 0.529166,-2.91042 2.645833,-5.29167 z"
       id="path34" />
    <path
       fill="#782b28"
       stroke="#2e2e2d"
       stroke-width="0.468789"
       stroke-linecap="round"
       stroke-linejoin="round"
       d="m 72.886454,106.70456 c 0.79375,-1.05834 5.820834,-5.02709 8.466667,-7.937503 0.79375,-1.058333 1.852083,-1.322916 1.852083,-0.529166 0.264584,0.529166 -0.264583,1.852079 -1.058333,2.910419 -2.116667,2.64583 -5.820833,4.7625 -7.408333,6.08541 -1.5875,1.5875 -4.497917,4.7625 -5.291667,3.70417 -0.79375,-1.05833 1.322917,-1.85208 3.439583,-4.23333 z"
       id="path35" />
    <path
       fill="#d67e29"
       stroke="#2e2e2d"
       stroke-width="0.781315"
       stroke-linecap="round"
       stroke-linejoin="round"
       d="m 103.8427,62.519141 c -3.43958,-1.5875 -7.143746,-0.79375 -9.524996,1.852084 -4.233333,4.497916 -0.264583,14.552083 8.731246,11.641666 5.29167,-1.5875 6.08542,-11.1125 0.79375,-13.49375 z m -13.229162,13.49375 c -0.264584,-1.5875 -2.116667,-3.175 -2.116667,-6.085417 -0.264583,-13.229166 20.108329,-17.991666 22.489579,-2.116666 0.79375,5.027083 -3.43958,11.377083 -8.73125,12.170833 -2.381246,0.264583 -4.762496,0.264583 -6.349996,-1.058333 -0.264583,0 -1.058333,-0.79375 -1.322916,-0.264584 -1.058334,0 -11.377084,10.054167 -12.964584,11.641667 -2.910416,2.38125 -6.35,6.614583 -9.260416,8.995833 -0.529167,0.529167 -2.116667,-1.852083 -2.116667,-1.852083 -0.264583,-0.529167 18.520833,-18.785417 20.372917,-21.43125 z"
       id="path37" />
    <path
       fill="#c32329"
       stroke="#2e2e2d"
       stroke-width="0.781315"
       stroke-linecap="round"
       stroke-linejoin="round"
       d="m 57.805178,101.41289 c 6.35,-3.174997 13.229167,-10.847913 15.610417,-15.081246 0.264583,0.264583 1.322916,1.5875 2.645833,2.645833 -3.704167,3.704166 -8.73125,8.466666 -8.466667,8.73125 0,0 4.497917,4.762503 5.027084,4.497913 2.38125,-2.381247 6.085416,-6.349997 8.202083,-8.731247 1.322917,1.058334 2.116667,2.116667 2.38125,2.645834 -1.852083,2.645833 -12.435417,12.170833 -15.08125,14.816663 0,-0.26458 -8.202083,-8.20208 -10.31875,-9.525 z"
       id="path38" />
    <path
       fill="#c32329"
       stroke="#2e2e2d"
       stroke-width="0.468789"
       stroke-linecap="round"
       stroke-linejoin="round"
       d="m 81.617704,98.502474 c 0.79375,-2.38125 2.910417,-1.058333 1.852084,0.79375 -1.058334,1.852086 -6.35,10.583336 -9.260417,14.287496 -0.79375,1.05834 -1.322917,1.85209 -1.5875,1.85209 -0.79375,0 -0.79375,-1.85209 0,-3.43959 2.645833,-3.96875 8.466667,-12.435413 8.995833,-13.493746 z"
       id="path39" />
    <path
       fill="#c32329"
       stroke="#2e2e2d"
       stroke-width="0.468789"
       stroke-linecap="round"
       stroke-linejoin="round"
       d="m 83.734371,100.61914 c 0.79375,-2.381249 2.910417,-1.322916 1.852083,0.52917 -1.058333,1.85208 -6.35,10.84791 -9.260416,14.55208 -0.79375,1.05833 -1.322917,1.5875 -1.5875,1.5875 -0.79375,0.26458 -0.79375,-1.5875 0.264583,-3.175 2.645833,-3.96875 8.202083,-12.43542 8.73125,-13.49375 z"
       id="path40" />
    <path
       fill="#c32329"
       stroke="#2e2e2d"
       stroke-width="0.468789"
       stroke-linecap="round"
       stroke-linejoin="round"
       d="m 85.851038,102.73581 c 0.79375,-2.64584 2.910416,-1.32292 1.852083,0.52916 -0.79375,1.85209 -6.35,10.84792 -9.260417,14.2875 -0.79375,1.05834 -1.322916,1.85209 -1.5875,1.85209 -0.79375,0 -0.79375,-1.5875 0.264584,-3.175 2.645833,-3.96875 8.466666,-12.43542 8.73125,-13.49375 z"
       id="path41" />
    <path
       fill="#c32329"
       stroke="#2e2e2d"
       stroke-width="0.468789"
       stroke-linecap="round"
       stroke-linejoin="round"
       d="m 87.967704,104.58789 c 1.058334,-2.38125 2.910417,-1.05833 1.852084,0.79375 -0.79375,1.85208 -6.35,10.58333 -8.995834,14.2875 -0.79375,1.05833 -1.322916,2.11667 -1.5875,1.85208 -1.058333,-0.79375 -1.058333,-1.85208 0,-3.43958 2.645834,-3.96875 8.466667,-12.43542 8.73125,-13.49375 z"
       id="path42" />
  </g>
</svg>
