<?xml version="1.0" encoding="UTF-8" standalone="no"?>
<!-- Created with Inkscape (http://www.inkscape.org/) -->

<svg
   width="148.89754mm"
   height="53.022194mm"
   viewBox="0 0 148.89754 53.022194"
   version="1.1"
   id="svg1"
   inkscape:version="1.4.2 (f4327f4, 2025-05-13)"
   sodipodi:docname="2026-LT-06-anthill.svg"
   xmlns:inkscape="http://www.inkscape.org/namespaces/inkscape"
   xmlns:sodipodi="http://sodipodi.sourceforge.net/DTD/sodipodi-0.dtd"
   xmlns="http://www.w3.org/2000/svg"
   xmlns:svg="http://www.w3.org/2000/svg">
  <sodipodi:namedview
     id="namedview1"
     pagecolor="#ffffff"
     bordercolor="#000000"
     borderopacity="0.25"
     inkscape:showpageshadow="2"
     inkscape:pageopacity="0.0"
     inkscape:pagecheckerboard="0"
     inkscape:deskcolor="#d1d1d1"
     inkscape:document-units="mm"
     inkscape:zoom="0.79553171"
     inkscape:cx="-52.166368"
     inkscape:cy="-351.33735"
     inkscape:window-width="1920"
     inkscape:window-height="1137"
     inkscape:window-x="-8"
     inkscape:window-y="-8"
     inkscape:window-maximized="1"
     inkscape:current-layer="layer1" />
  <defs
     id="defs1" />
  <g
     inkscape:label="Layer 1"
     inkscape:groupmode="layer"
     id="layer1"
     transform="translate(-118.79792,-241.29997)">
    <g
       transform="matrix(0.22480296,0,0,0.19498786,-53.072449,-2546.683)"
       id="g60"
       style="clip-rule:evenodd;fill-rule:evenodd;stroke-linecap:round;stroke-linejoin:round;stroke-miterlimit:1.5">
            <path
   d="m 777.793,14502.6 c -0.694,-3.9 50.081,-76.7 84.103,-84.8 48.608,-11.6 39.294,-40 187.464,-66.6 61.65,-11.1 165.01,31.5 168.09,34.1 43.98,37.4 54.56,18.5 101.47,52.7 8.94,6.5 85.2,61.9 104.3,90.6 -102.8,5.5 -151.97,23.2 -173.24,13.9 -1.03,-0.4 -20.14,-14.7 -20.14,-7.7 0,4.6 3.68,0.1 53.45,21.7 -38.8,-3.6 -54.9,-6.2 -59.64,-7 -33.39,-5.4 -30.2,12.4 -32.54,17 0,0 -4.65,-17 -4.65,-17 -4.04,10.4 -3.33,21.1 -9.29,11.6 -14.88,-23.5 -21.33,-10.4 -48.8,-11.6 -7.78,-0.3 -62.28,-5.1 -80.56,-4.6 -33.75,0.8 -32.6,6 -65.847,11.6 10.279,-23.2 10.584,-24.4 8.521,-24.8 -8.502,-1.6 -7.903,6.3 -107.673,8.5 l 24.788,-15.5 c -8.326,-0.4 -8.442,-4.2 -27.887,3.1 -60.282,22.6 -62.187,-23.8 -87.532,-9.3 -17.329,9.9 -35.798,-4.4 -14.387,-15.9 z"
   style="fill:#caad8e;stroke:#231f20;stroke-width:7.33px"
   id="path42" />

            <path
   d="m 1228.52,14423.5 c 30.93,-1.5 52.52,-25.1 58.64,-29.7"
   style="fill:none;stroke:#231f20;stroke-width:3.67px"
   id="path43" />

            <path
   d="m 1320.46,14462.4 c 1.69,-1.4 6.21,-5.1 23.25,-14.4 4.8,-2.6 -24.95,15.7 -23.25,14.4 z"
   style="fill:none;stroke:#231f20;stroke-width:3.67px"
   id="path44" />

            <path
   d="m 1043.63,14451 c 2.3,-4.7 15.79,-18.9 50.65,40.4"
   style="fill:none;stroke:#231f20;stroke-width:3.67px"
   id="path45" />

            <path
   d="m 1132.69,14408.5 c 9.57,-6.7 8.54,1.3 23.56,17.8 3.98,4.4 -28.4,-14.4 -23.56,-17.8 z"
   style="fill:none;stroke:#231f20;stroke-width:3.67px"
   id="path46" />

            <path
   d="m 973.78,14349 c -0.338,1.4 27.43,17.8 29.87,19.2"
   style="fill:none;stroke:#231f20;stroke-width:3.67px"
   id="path47" />

            <path
   d="m 894.07,14388.1 c 27.298,8.6 26.727,8.6 38.317,11.9"
   style="fill:none;stroke:#231f20;stroke-width:3.67px"
   id="path48" />

            <path
   d="m 1128.99,14375.2 c -1.46,-12.7 22.87,-21.8 34.24,-28.6"
   style="fill:none;stroke:#231f20;stroke-width:3.67px"
   id="path49" />

            <path
   d="m 1344.29,14506.2 c 3.42,0.5 6.84,1 10.27,1.5"
   style="fill:none;stroke:#231f20;stroke-width:3.67px"
   id="path50" />

            <g
   transform="matrix(1.83432,0,0,1.83432,-1008.5,-11987.2)"
   id="g59">
                <path
   d="m 1206.93,14346 c -1.34,-6.1 -15.45,2.1 -7.7,5.9 10.49,5.3 14.15,-4.8 7.7,-5.9 z"
   style="fill:#221e1f;stroke:#231f20;stroke-width:2px"
   id="path51" />

                <path
   d="m 1217.83,14354.5 c -0.59,0 -6.79,-0.9 -7.18,2 -0.73,5.5 3.94,7.6 6.53,3.3 0.54,-0.9 1.24,-5.2 0.65,-5.3 z"
   style="fill:#221e1f;stroke:#231f20;stroke-width:2px"
   id="path52" />

                <g
   transform="translate(-3.14068,-1.70315)"
   id="g53">
                    <path
   d="m 1230.43,14363.7 c -5.17,-1.6 -7.48,-6.8 -8.03,-1.3 -0.99,9.9 14.7,16 18.93,11.7 2.56,-2.5 -2.06,-5.9 -10.9,-10.4 z"
   style="fill:#221e1f;stroke:#231f20;stroke-width:2px"
   id="path53" />

                </g>

                <path
   d="m 1211.96,14363.4 c 3.59,1.2 -0.79,14.5 -1.64,17.6"
   style="fill:none;stroke:#231f20;stroke-width:2px"
   id="path54" />

                <path
   d="m 1208.05,14361.7 c -2.93,1.3 -5.77,8.7 -6.09,9.5"
   style="fill:none;stroke:#231f20;stroke-width:2px"
   id="path55" />

                <path
   d="m 1217.72,14364.4 c -0.32,3.8 1.74,4.1 0.26,13.7"
   style="fill:none;stroke:#231f20;stroke-width:2px"
   id="path56" />

                <path
   d="m 1206.97,14356.9 c -2.75,0.4 -3.77,1.5 -5.53,1.2 -2.95,-0.6 -2.94,-0.3 -5.65,1"
   style="fill:none;stroke:#231f20;stroke-width:2px"
   id="path57" />

                <path
   d="m 1203.7,14343.5 c -0.05,-0.9 -0.45,-7.9 -1.64,-10.4 -0.74,-1.6 -1,-1.5 -2.77,-1.2"
   style="fill:none;stroke:#231f20;stroke-width:2px"
   id="path58" />

                <path
   d="m 1207.29,14344.9 c 0.14,-1 3.87,-10.8 4.22,-11.7 0.43,-1.1 -1.25,-2.2 -1.44,-2.4"
   style="fill:none;stroke:#231f20;stroke-width:2px"
   id="path59" />

            </g>

        </g>
  </g>
</svg>
