<?xml version="1.0" encoding="UTF-8" standalone="no"?>
<!-- Created with Inkscape (http://www.inkscape.org/) -->

<svg
   width="111.86336mm"
   height="72.336243mm"
   viewBox="0 0 111.86336 72.336243"
   version="1.1"
   id="svg1"
   inkscape:version="1.4.2 (f4327f4, 2025-05-13)"
   sodipodi:docname="2026-LT-06-stump.svg"
   xmlns:inkscape="http://www.inkscape.org/namespaces/inkscape"
   xmlns:sodipodi="http://sodipodi.sourceforge.net/DTD/sodipodi-0.dtd"
   xmlns="http://www.w3.org/2000/svg"
   xmlns:svg="http://www.w3.org/2000/svg">
  <sodipodi:namedview
     id="namedview1"
     pagecolor="#ffffff"
     bordercolor="#000000"
     borderopacity="0.25"
     inkscape:showpageshadow="2"
     inkscape:pageopacity="0.0"
     inkscape:pagecheckerboard="0"
     inkscape:deskcolor="#d1d1d1"
     inkscape:document-units="mm"
     inkscape:zoom="0.79553171"
     inkscape:cx="-88.619975"
     inkscape:cy="-170.32634"
     inkscape:window-width="1920"
     inkscape:window-height="1137"
     inkscape:window-x="-8"
     inkscape:window-y="-8"
     inkscape:window-maximized="1"
     inkscape:current-layer="layer1" />
  <defs
     id="defs1" />
  <g
     inkscape:label="Layer 1"
     inkscape:groupmode="layer"
     id="layer1"
     transform="translate(-128.32291,-193.41046)">
    <g
       id="g1">
      <g
         transform="matrix(0.23519791,0,0,0.23682192,-78.625098,-3039.193)"
         id="g73"
         style="clip-rule:evenodd;fill-rule:evenodd;stroke-linecap:round;stroke-linejoin:round;stroke-miterlimit:1.5">
            <path
   d="m 955.027,13772.6 c 0,0 8.44,19.9 30.852,31.5 21.711,11.3 92.401,16.4 101.191,16.2 11.73,-0.3 82.99,-10 97.34,-15.4 24.41,-9.1 37.47,-17.2 48.92,-42 0,12.2 7.9,16.7 5.71,33 -0.76,5.7 -1.86,21.4 19.98,27.3 8.49,2.4 25.74,10.1 42.5,21.8 26.06,18.1 52.25,42.2 52.82,42.6 -19.35,0.4 -31.18,-2.5 -41.45,-5.7 -20.04,-6.2 -31.76,-16.9 -64.88,-30.1 -12.8,-5.1 -28.47,-0.4 -30.58,2.4 -3.37,4.5 1.68,40 0.78,52 -16.29,0.8 -19.69,-8.2 -32.57,-18.1 -12.48,-9.6 -13.63,-29.5 -43.62,-25.7 -15.18,1.9 -24.34,4.8 -31.91,6.6 -7.93,1.9 -13.99,2.7 -18.65,8.9 -17.45,23 -28.67,28.5 -36.74,48.2 1.95,-24.9 4.49,-29.8 -0.15,-44.2 -28.03,18.8 -41.11,68.2 -40.97,68.9 0.24,1.2 -0.88,-0.9 -4.48,-14.2 -4.85,-18 6.23,-20.6 8.15,-27.3 0.5,-1.8 1.86,-16.9 -22.83,-2.5 -10.702,6.3 -5.448,16.2 -29.653,20.6 33.218,-38.9 26.443,-50.9 25.169,-51.2 -3.433,-0.5 -32.94,3.2 -38.729,5.3 -16.54,6.2 -15.489,8.1 -31.798,15.1 18.453,-25.1 23.428,-33.8 16.307,-31.8 -13.278,3.8 -17.354,8.2 -33.429,13.9 -16.697,5.9 -17.051,3.1 -19.393,3.1 26.253,-23.5 25.067,-27.5 59.752,-32.5 10.524,-1.5 10.605,-7 15.133,-33.8 1.027,-6.1 -3.216,-15.2 -2.773,-19.6 2.501,-25.1 0.001,-23.3 0.001,-23.3 z"
   style="fill:#a77565"
   id="path60" />

            <path
   d="m 1229,13779.5 c 5.85,11.3 -53.2,33.8 -53.56,35.6 -0.54,2.7 1.08,2.2 8.97,33.8 5.41,21.7 5.63,21.5 17.11,40.7 1.38,-28.9 0.7,-49.2 22.44,-50.5 10.38,-0.5 22.46,-3.3 72.2,18.1 -7.7,-9.5 -8.32,-8.9 -56.3,-34.8 -16.91,-9.1 -6.01,-14.9 -7.94,-57.8 z"
   style="fill:#80584b"
   id="path61" />

            <path
   d="m 985.354,13742.3 c 0.434,-3.8 90.266,-31 179.896,-16.1 31.11,5.2 29.95,8.4 34.65,11.8 14.37,10.5 37.02,9.1 30.17,31 -4.17,13.4 -4.79,13.9 -24.87,24.9 -15.96,8.8 -46.31,19.1 -81.53,23.8 -54.64,7.3 -118.93,4 -143.498,-16.5 -5.618,-4.6 -8.081,-1.8 -20.791,-18.7 -6.078,-8.1 2.116,-27.9 25.973,-40.2 z"
   style="fill:#e49e88"
   id="path62" />

            <g
   id="g72">
                <g
   transform="matrix(0.347307,0,0,0.377705,289.32,8157.34)"
   id="g63">
                    <path
   d="m 1709.44,15158.1 c 78.48,-117.7 198.62,-33 208.82,-145.3 11.17,-122.8 -44.1,-152.7 62.06,-216.9 90.84,-55 411.43,-103.8 627.74,-28.5 80.27,28 99.02,48.5 116.41,86.2 24.01,52.1 7.64,101.8 7.9,107.8 1.76,40.5 125.4,47.6 175.53,87.7 107.05,85.7 213.77,132.6 111.98,124.1 -101.71,-8.5 -321.36,-147.2 -354.09,-81.7 -5.92,11.8 -2.72,11.9 9.35,126.8 -25.66,-1.6 -34.12,14.8 -78.96,-39 -93.7,-112.5 -116.55,-72.4 -260.27,-48.5 -14.89,2.5 -6.93,11.4 -132.17,134.7 -9.43,-68.5 36.26,-121.8 -17.58,-103.8 -17.75,5.9 -95.47,170.6 -96.37,180 -21.34,-33.6 -24.65,-58 -1.82,-92.7 36.86,-55.9 -26.18,-37.1 -28.74,-36.2 -38.58,12.9 -72.27,63.3 -113.22,63.3 9.54,-11.5 97.13,-99.7 90.28,-127.1 -1.03,-4.1 -91.3,-35.4 -219.49,50.7 -17.92,-37.7 97.4,-86.9 54.5,-87.6 -15.77,-0.2 -164.19,61.6 -161.86,46 z"
   style="fill:none;stroke:#231f20;stroke-width:18.02px"
   id="path63" />

                </g>

                <g
   transform="matrix(0.347307,0,0,0.377705,289.32,8157.34)"
   id="g64">
                    <path
   d="m 1929.33,14878.8 c 37.67,175.2 783.08,134.4 781.98,-37.9"
   style="fill:none;stroke:#231f20;stroke-width:9.01px"
   id="path64" />

                </g>

                <path
   d="m 996.922,13757.3 c 116.158,-36.3 191.608,-12.4 198.908,-6.2 3.86,3.3 22.84,28.5 -49.74,39.1"
   style="fill:none;stroke:#231f20;stroke-width:3.27px"
   id="path65" />

                <path
   d="m 986.705,13764.9 c -3.69,0.4 -18.553,15.1 11.404,26.1 33.271,12.3 111.091,6.5 127.191,2.5"
   style="fill:none;stroke:#231f20;stroke-width:3.27px"
   id="path66" />

                <path
   d="m 1115.58,13749.6 c -40.53,-6.1 -74.85,11.7 -80.78,18.2 -18.63,20.3 25.71,17.4 36.69,17.1"
   style="fill:none;stroke:#231f20;stroke-width:3.27px"
   id="path67" />

                <path
   d="m 1147.31,13755.7 c 6.57,-5.3 18.86,6.5 16.72,11.3 -3.09,6.9 -24.62,8.9 -24.87,9"
   style="fill:none;stroke:#231f20;stroke-width:3.27px"
   id="path68" />

                <path
   d="m 1072.28,13770.8 c 1.26,-0.2 22.48,6.9 46.91,-6.3"
   style="fill:none;stroke:#231f20;stroke-width:3.27px"
   id="path69" />

                <g
   transform="matrix(1,0,0,0.783451,0,2976.04)"
   id="g70">
                    <path
   d="m 1010.55,13743 c 6.97,0.8 17.85,5.7 63.38,17.1"
   style="fill:none;stroke:#231f20;stroke-width:3.64px"
   id="path70" />

                </g>

                <g
   transform="matrix(0.640498,0,0,0.655361,354.742,4754.51)"
   id="g71">
                    <path
   d="m 986.759,13795.6 c 40.251,-22.2 109.181,-34.2 118.971,-36"
   style="fill:none;stroke:#231f20;stroke-width:5.05px"
   id="path71" />

                </g>

                <path
   d="m 1142.77,13764.4 c 48.2,2.1 77.06,8.5 83.63,9.9"
   style="fill:none;stroke:#231f20;stroke-width:3.27px"
   id="path72" />

            </g>

        </g>
      <g
         transform="matrix(0.26458333,0,0,0.26458333,-114.01127,-3416.1086)"
         id="g81"
         style="clip-rule:evenodd;fill-rule:evenodd;stroke-linecap:round;stroke-linejoin:round;stroke-miterlimit:1.5">
            <path
   d="m 1150.22,13660.1 c -4.99,-5 -25.56,1.2 -18.03,11.3 4.61,6.1 35.65,4.3 18.03,-11.3 z"
   style="fill:#221e1f;stroke:#231f20;stroke-width:2.92px"
   id="path73" />

            <path
   d="m 1131.92,13674.2 c -10.57,-7.1 -18.3,3.2 -13.97,8.8 3.21,4.2 18.12,-2.8 13.97,-8.8 z"
   style="fill:#221e1f;stroke:#231f20;stroke-width:2.92px"
   id="path74" />

            <path
   d="m 1113.96,13678.8 c -15.9,-9.1 -34.77,10.9 -36.92,13.2 31.51,18.5 44.49,-7.4 36.92,-13.2 z"
   style="fill:#221e1f;stroke:#231f20;stroke-width:2.92px"
   id="path75" />

            <path
   d="m 1118.72,13685.8 c -6.3,2.9 -10.58,27 -9.25,29.6"
   style="fill:none;stroke:#231f20;stroke-width:2.92px"
   id="path76" />

            <path
   d="m 1123.62,13686.6 c -3.1,14.4 -4.55,14.1 -4.17,28.8"
   style="fill:none;stroke:#231f20;stroke-width:2.92px"
   id="path77" />

            <path
   d="m 1128.93,13684.3 c 9.59,5.4 6.99,12.5 6.99,19.7"
   style="fill:none;stroke:#231f20;stroke-width:2.92px"
   id="path78" />

            <path
   d="m 1132.35,13678.2 c -1.22,0.5 10.28,-4.5 11.05,12.5"
   style="fill:none;stroke:#231f20;stroke-width:2.92px"
   id="path79" />

            <path
   d="m 1146.02,13657.8 c -0.36,-0.7 9.13,-12 9.61,-12.7 2.49,-3.8 7.75,1.5 8.23,2"
   style="fill:none;stroke:#231f20;stroke-width:2.92px"
   id="path80" />

            <path
   d="m 1151.67,13660.7 c 1.93,-4.5 10.68,-11.5 16.93,-3.1"
   style="fill:none;stroke:#231f20;stroke-width:2.92px"
   id="path81" />

        </g>
    </g>
  </g>
</svg>
