<?xml version="1.0" encoding="UTF-8" standalone="no"?>
<svg
   width="100%"
   height="100%"
   viewBox="0 0 1011 1200"
   version="1.1"
   xml:space="preserve"
   style="fill-rule:evenodd;clip-rule:evenodd;stroke-linecap:round;stroke-linejoin:round;stroke-miterlimit:1.5;"
   id="svg84"
   sodipodi:docname="LT_06-task.svg"
   inkscape:version="1.4 (86a8ad7, 2024-10-11)"
   xmlns:inkscape="http://www.inkscape.org/namespaces/inkscape"
   xmlns:sodipodi="http://sodipodi.sourceforge.net/DTD/sodipodi-0.dtd"
   xmlns="http://www.w3.org/2000/svg"
   xmlns:svg="http://www.w3.org/2000/svg"><defs
   id="defs84">
        
        
        
        
        
        
        
        
        
        
        
        
        
        
        
    
            
        </defs><sodipodi:namedview
   id="namedview84"
   pagecolor="#ffffff"
   bordercolor="#000000"
   borderopacity="0.25"
   inkscape:showpageshadow="2"
   inkscape:pageopacity="0.0"
   inkscape:pagecheckerboard="0"
   inkscape:deskcolor="#d1d1d1"
   inkscape:zoom="0.54083333"
   inkscape:cx="-13.867488"
   inkscape:cy="679.50693"
   inkscape:window-width="1600"
   inkscape:window-height="829"
   inkscape:window-x="-8"
   inkscape:window-y="-8"
   inkscape:window-maximized="1"
   inkscape:current-layer="svg84" />
    <path
   style="clip-rule:nonzero;fill:#221e1f;fill-rule:nonzero;stroke-linecap:butt;stroke-linejoin:miter;stroke-dasharray:8.33168, 20.205, 0, 0, 0, 0"
   d="m -125.45898,399.75 c -2.30087,-10e-5 -4.16612,1.86515 -4.16602,4.16602 0.12754,1.81482 1.41801,3.33698 3.1875,3.75976 l 3.31055,0.40625 6,0 c 2.30086,9e-5 4.1661,-1.86515 4.16601,-4.16601 10e-5,-2.30087 -1.86514,-4.16611 -4.16601,-4.16602 z m 28.537105,0 c -2.300869,-10e-5 -4.166115,1.86515 -4.166015,4.16602 -9e-5,2.30086 1.86515,4.16611 4.166015,4.16601 h 8.332031 c 2.300865,1e-4 4.16611,-1.86514 4.166016,-4.16601 9.9e-5,-2.30087 -1.865147,-4.16612 -4.166016,-4.16602 z m 28.537109,0 c -2.300869,-10e-5 -4.166114,1.86515 -4.166015,4.16602 -9.4e-5,2.30086 1.86515,4.16611 4.166015,4.16601 h 8.332032 c 2.300102,-9.8e-4 4.164156,-1.86591 4.164062,-4.16601 10e-5,-2.30011 -1.863956,-4.16504 -4.164062,-4.16602 z m 28.535157,0 c -2.300106,9.8e-4 -4.164163,1.86591 -4.164063,4.16602 -9.4e-5,2.3001 1.863961,4.16503 4.164063,4.16601 h 8.332031 c 2.300865,1e-4 4.16611,-1.86514 4.166016,-4.16601 9.9e-5,-2.30087 -1.865147,-4.16612 -4.166016,-4.16602 z m 28.537109,0 c -2.300869,-10e-5 -4.166115,1.86515 -4.166016,4.16602 0.04151,2.19128 1.773802,3.97565 3.962891,4.08203 l 0,0.28711 c -9.4e-5,2.30086 1.8651508,4.16611 4.1660156,4.16601 2.3008648,1e-4 4.1661094,-1.86515 4.1660156,-4.16601 v -4.36914 c -1.307e-4,-2.30077 -1.8652422,-4.16589 -4.1660156,-4.16602 z m 3.9628906,24.57422 c -2.3008648,-1e-4 -4.1661096,1.86515 -4.1660156,4.16601 l 0,8.33204 c -9.4e-5,2.30086 1.8651508,4.16611 4.1660156,4.16601 2.3008648,1e-4 4.1661094,-1.86515 4.1660156,-4.16601 v -8.33204 c 9.38e-5,-2.30086 -1.8651508,-4.16611 -4.1660156,-4.16601 z m 0,28.53711 c -2.3008648,-1e-4 -4.1661096,1.86515 -4.1660156,4.16601 l 0,8.33008 c -9.9e-5,2.30087 1.8651468,4.16612 4.1660156,4.16602 2.3008688,1e-4 4.166115,-1.86515 4.1660156,-4.16602 v -8.33008 c 9.38e-5,-2.30086 -1.8651508,-4.16611 -4.1660156,-4.16601 z m 0,28.53711 c -2.3001035,-10e-5 -4.1650326,1.86396 -4.1660156,4.16406 v 8.33203 c -9.9e-5,2.30087 1.8651468,4.16612 4.1660156,4.16602 2.3008688,1e-4 4.166115,-1.86515 4.1660156,-4.16602 v -8.33203 c -9.829e-4,-2.3001 -1.8659121,-4.16416 -4.1660156,-4.16406 z m 0,28.53515 c -2.3008688,-10e-5 -4.1661146,1.86515 -4.1660156,4.16602 v 6.95117 c -0.175681,0.30703 -0.31154,0.63519 -0.404297,0.97656 9.77e-4,2.30011 1.865908,4.16417 4.1660158,4.16407 h 0.4042968 c 2.3000122,-1.3e-4 4.1648084,-1.86406 4.1660156,-4.16407 l 0,-7.92773 c 9.94e-5,-2.30087 -1.8651468,-4.16612 -4.1660156,-4.16602 z m -114.5507806,7.92774 c -2.30087,-10e-5 -4.16611,1.86514 -4.16602,4.16601 9.8e-4,2.30011 1.86591,4.16417 4.16602,4.16407 l 8.33203,0 c 2.29934,-9.8e-4 4.16308,-1.86473 4.16406,-4.16407 9e-5,-2.3001 -1.86396,-4.16503 -4.16406,-4.16601 z"
   id="rect38"
   sodipodi:nodetypes="ccccccccccccccccccccccccccccccccsccccccccccccccccccccccccccccccsscccccccccc"
   transform="rotate(-45)" /><g
   transform="translate(-732.048,-13296.132)"
   id="g33">
            <path
   d="m 1502.53,13854.3 c -7.6,-67.6 1.32,-127.1 -3.17,-182.4 -11.33,-139.7 184.78,-133.6 236.39,96.4 13.66,60.9 -10.06,149.6 -30.1,180.9 -117.85,184.3 -139.86,145.3 -166.67,129.8 -87.22,-50.2 -37.2,-219.7 -36.45,-224.7 z"
   style="fill:#83412e;stroke:#231f20;stroke-width:5.83px"
   id="path1" />
            <path
   d="m 1584.49,13608.6 c -8.36,2.9 -60.2,98.9 -64.04,125.8"
   style="fill:none;stroke:#231f20;stroke-width:2.92px"
   id="path2" />
            <path
   d="m 1637.03,13642.8 c -6.34,7.8 -31.24,38.8 -58.65,111.9"
   style="fill:none;stroke:#231f20;stroke-width:2.92px"
   id="path3" />
            <path
   d="m 1670.45,13694.2 c -32.49,52.5 -32.53,52.2 -56.16,109.1"
   style="fill:none;stroke:#231f20;stroke-width:2.92px"
   id="path4" />
            <path
   d="m 1698.41,13770.2 c -19.29,19.3 -49.39,94.6 -52.83,103.2"
   style="fill:none;stroke:#231f20;stroke-width:2.92px"
   id="path5" />
            <path
   d="m 1707.4,13851.1 c -26.96,42.2 -23.88,43.5 -40.97,90.7"
   style="fill:none;stroke:#231f20;stroke-width:2.92px"
   id="path6" />
            <path
   d="m 1539.78,13626.3 c 15.91,20.7 68.06,39.3 82.62,50.7 5.95,4.7 2.83,7.8 68.36,65.5"
   style="fill:none;stroke:#231f20;stroke-width:2.92px"
   id="path7" />
            <path
   d="m 1556.38,13697.8 c 11.83,20.9 35.88,25.4 72.98,66.1 21.63,23.8 47.49,79.1 57.34,99.1"
   style="fill:none;stroke:#231f20;stroke-width:2.92px"
   id="path8" />
            <g
   transform="translate(0.998192,0.0722853)"
   id="g9">
                <path
   d="m 1393.84,13712.1 c 1.85,-9.3 36.48,-29 24.86,4.1 -2.74,7.8 9.84,-9.3 99.35,28.9 39.16,-19.2 55.72,5.8 31.38,30.2 -8.8,8.8 12.43,13.7 19.68,24.6 3.65,5.4 97.17,83.6 82.93,197.5 -1.61,12.8 -28.05,148.8 -89.49,169.3 -1.98,0.7 -21.08,7 -26,2.1 -8.57,-8.5 7.84,-33.2 9.48,-35.7 -16.16,-32 -104.01,-31.3 -149.11,-39.5 -3.19,2.6 -73.76,13.6 -69.89,-2.4 3.51,-14.5 18.04,-26.5 47.17,-36.5 -9.35,-27.9 -8.15,-56.5 -7.41,-86.4 1.11,-44.7 26.81,-84.6 3.99,-98.9 -67.03,-41.9 -8.18,-152.6 23.06,-157.3 z"
   style="fill:#d6935e;stroke:#231f20;stroke-width:5.83px"
   id="path9" />
            </g>
            <path
   d="m 1343.77,14082.1 c -6.93,6.4 -5.42,7.3 -8.35,16.1"
   style="fill:#e49e88;stroke:#231f20;stroke-width:2.92px"
   id="path10" />
            <path
   d="m 1358.05,14085.5 c -0.05,0 -3.26,0.5 -3.99,13.5"
   style="fill:#e49e88;stroke:#231f20;stroke-width:2.92px"
   id="path11" />
            <path
   d="m 1542.72,14154.8 c -0.21,-0.7 -0.93,0 -1.82,8.9 -0.35,3.4 -0.94,3.6 1.02,6.5"
   style="fill:#e49e88;stroke:#231f20;stroke-width:2.92px"
   id="path12" />
            <path
   d="m 1560.5,14153.5 c -0.98,11.1 -1.35,10.9 -0.74,14 0.55,2.7 0.99,-16.8 0.74,-14 z"
   style="fill:#e49e88;stroke:#231f20;stroke-width:2.92px"
   id="path13" />
            <path
   d="m 1572.74,14150.4 c -0.13,0.8 -1.14,6.5 0.4,9.5 0.85,1.7 -0.27,-10.2 -0.4,-9.5 z"
   style="fill:#e49e88;stroke:#231f20;stroke-width:2.92px"
   id="path14" />
            <path
   d="m 1465.38,13741.2 c -43.85,-15.8 -89.45,-15.5 -101.37,6.8 -9.1,17.1 -24.5,41.9 30.93,58 6.56,1.9 78.78,16.1 98.11,-14 8.73,-13.6 -0.27,-40.9 -27.67,-50.8 z"
   style="fill:#eab281"
   id="path15" />
            <g
   transform="translate(13.7355,-7.88714)"
   id="g16">
                <path
   d="m 1450.94,13781.2 c -1.87,0.4 -6.33,-3.3 -13.92,-0.3 -20.13,8.1 -1.02,23 17.59,16 11.11,-4.1 5.82,-8.7 -3.67,-15.7 z"
   style="fill:#ffffff;stroke:#231f20;stroke-width:2.92px"
   id="path16" />
            </g>
            <g
   transform="rotate(-22.089232,1373.0063,13766.175)"
   id="g17">
                <path
   d="m 1376.26,13759.2 c -8.7,-11 -21.47,1.8 -7.57,13.4 0.9,0.8 12.66,10.6 14.5,-0.5 1.3,-7.8 -1.7,-6.7 -6.93,-12.9 z"
   style="fill:#ffffff;stroke:#231f20;stroke-width:2.92px"
   id="path17" />
            </g>
            <g
   transform="translate(13.7355,-7.88714)"
   id="g18">
                <path
   d="m 1433.81,13782.9 c -2.03,-1.1 -7.14,8.8 -0.63,12 16.09,8.1 13.14,-10.3 12.45,-11.4 -1.29,-2.3 -7.2,-3.5 -11.82,-0.6 z"
   style="fill:#231d1f;stroke:#231f20;stroke-width:2.92px"
   id="path18" />
            </g>
            <g
   transform="rotate(-22.089232,1373.0063,13766.175)"
   id="g19">
                <path
   d="m 1373.65,13756.8 c -11.84,-3.1 -12.82,12.1 -4.78,12.6 6.49,0.4 7.83,-4.8 7.02,-7.6 -0.77,-2.8 -1.36,-2.4 -2.24,-5 z"
   style="fill:#231d1f;stroke:#231f20;stroke-width:2.92px"
   id="path19" />
            </g>
            <path
   d="m 1530.99,13754.3 c -2.75,0.6 19.87,-8.8 14.57,4.5 -0.82,2 -2.28,3.4 -4.1,6.1 -0.05,0.1 0,0 -0.51,1"
   style="fill:none;stroke:#231f20;stroke-width:2.92px"
   id="path20" />
            <path
   d="m 1525.11,13759.4 c 2.74,0.6 13.67,8.3 16.35,11.4"
   style="fill:none;stroke:#231f20;stroke-width:2.92px"
   id="path21" />
            <path
   d="m 1399.33,13719.9 c 1.37,0.4 17.93,0.2 20.3,0.2"
   style="fill:none;stroke:#231f20;stroke-width:2.92px"
   id="path22" />
            <path
   d="m 1371.13,13742.7 c 0.53,-1.4 6.2,-2.6 9.34,-2.6 7.97,0 10.53,4.1 11.77,5.4"
   style="fill:none;stroke:#231f20;stroke-width:2.92px"
   id="path23" />
            <path
   d="m 1446.91,13753.8 c 5.08,-7.5 28.51,1.3 30.82,2.2"
   style="fill:none;stroke:#231f20;stroke-width:2.92px"
   id="path24" />
            <path
   d="m 1372.65,13823.6 c -0.44,6.2 1.85,5.7 4.8,19.3 12.55,1.5 12.43,1.1 24.97,3.2 0.39,-8.5 0.48,-8.4 1.91,-16.7 -11.38,-5 -11.23,-5.1 -23.35,-7.9 -4.92,-1.2 -6.07,-2.4 -8.33,2.1 z"
   style="fill:#ffffff;stroke:#231f20;stroke-width:2.92px"
   id="path25" />
            <path
   d="m 1388.23,13824.9 c -1.13,2.6 -0.76,13.6 0.43,18.3"
   style="fill:none;stroke:#231f20;stroke-width:2.92px"
   id="path26" />
            <path
   d="m 1389.59,13785.8 c -20.44,-4.4 -38.95,27.5 -14.24,38.5 15.31,6.8 15.1,8.2 31.99,7.9 0.94,0 22.72,-8.3 14.08,-24.5 -10.49,-19.7 -25.33,-19.1 -31.83,-21.9 z"
   style="fill:#e49e88;stroke:#231f20;stroke-width:2.92px"
   id="path27" />
            <path
   d="m 1394.61,13780.4 c -1.06,0.3 -15.61,-4.6 -16.96,7.5 -2.2,19.9 30.57,17.1 31.23,8.5 1.03,-13.5 -9.47,-12.9 -14.27,-16 z"
   style="fill:#231d1f;stroke:#231f20;stroke-width:2.92px"
   id="path28" />
            <path
   d="m 1590.25,13866.6 c 0.03,0.1 -0.02,0 5.63,10.5 10.65,19.8 -7.05,130.1 -61.95,125.1 -32.75,-3 1.5,-25.5 2.07,-38.8 1.26,-29.8 -9.69,-47.1 -12.39,-71.4"
   style="fill:none;stroke:#231f20;stroke-width:2.92px"
   id="path29" />
            <path
   d="m 1529.39,13990.2 c -2.31,5.4 -2.43,5.2 -2.89,10.8 -0.19,2.2 3.76,-12.8 2.89,-10.8 z"
   style="fill:none;stroke:#231f20;stroke-width:2.92px"
   id="path30" />
            <path
   d="m 1539.54,13992.9 c -2.49,4.5 -2.51,4.2 -3.54,9.3 -0.4,2 4.51,-11.1 3.54,-9.3 z"
   style="fill:none;stroke:#231f20;stroke-width:2.92px"
   id="path31" />
            <path
   d="m 1551.86,13991.5 c -2.36,3 -1.28,3.2 -1.82,7 -0.21,1.4 2.73,-8.2 1.82,-7 z"
   style="fill:none;stroke:#231f20;stroke-width:2.92px"
   id="path32" />
            <path
   d="m 1402.19,13889.1 c -10.3,10.3 -23.04,105.1 3.72,148.2 29.62,47.7 78.96,43.3 99.94,4.2 8.38,-15.7 12.39,-110.4 -30.56,-144.2 -44.02,-34.6 -64.64,-12.4 -73.1,-8.2 z"
   style="fill:#eab281"
   id="path33" />
        </g><g
   transform="matrix(0.617948,-0.617948,0.634314,0.634314,-9427.883,-7797.08)"
   id="g34">
            <path
   style="clip-rule:nonzero;fill:#221e1f;fill-rule:nonzero;stroke-linecap:butt;stroke-linejoin:miter;stroke-dasharray:9.41, 22.82, 0, 0, 0, 0"
   d="m 906.9707,14023.195 c -2.59853,0 -4.70508,2.106 -4.70508,4.705 0,2.599 2.10655,4.705 4.70508,4.705 h 9.41016 c 2.59853,0 4.70508,-2.106 4.70508,-4.705 0,-2.599 -2.10655,-4.705 -4.70508,-4.705 z m 32.22852,0 c -2.59853,0 -4.70508,2.106 -4.70508,4.705 0,2.599 2.10655,4.705 4.70508,4.705 h 9.41015 c 2.59853,0 4.70508,-2.106 4.70508,-4.705 0,-2.599 -2.10655,-4.705 -4.70508,-4.705 z m 32.23047,0 c -2.59853,0 -4.70508,2.106 -4.70508,4.705 0,2.599 2.10655,4.705 4.70508,4.705 h 9.41015 c 2.59853,0 4.70508,-2.106 4.70508,-4.705 0,-2.599 -2.10655,-4.705 -4.70508,-4.705 z m 32.23051,0 c -2.5985,0 -4.70512,2.106 -4.70512,4.705 0,2.599 2.10662,4.705 4.70512,4.705 h 9.4101 c 2.5985,0 4.7051,-2.106 4.7051,-4.705 0,-2.599 -2.1066,-4.705 -4.7051,-4.705 z m 32.2304,0 c -2.5985,0 -4.7051,2.106 -4.7051,4.705 0,2.599 2.1066,4.705 4.7051,4.705 h 9.4102 c 2.5985,0 4.7051,-2.106 4.7051,-4.705 0,-2.599 -2.1066,-4.705 -4.7051,-4.705 z m 32.2285,0 c -2.5985,0 -4.705,2.107 -4.705,4.705 0,2.598 2.1065,4.705 4.705,4.705 h 9.4102 c 2.5985,0 4.7051,-2.106 4.7051,-4.705 0,-2.599 -2.1066,-4.705 -4.7051,-4.705 z m 32.2305,0 c -2.5985,0 -4.7051,2.106 -4.7051,4.705 0,2.599 2.1066,4.705 4.7051,4.705 h 9.4102 c 2.5985,0 4.705,-2.107 4.705,-4.705 0,-2.598 -2.1065,-4.705 -4.705,-4.705 z m 32.2305,0 c -2.5985,0 -4.7051,2.106 -4.7051,4.705 0,2.599 2.1066,4.705 4.7051,4.705 h 9.4101 c 2.5985,0 4.7051,-2.106 4.7051,-4.705 0,-2.599 -2.1066,-4.705 -4.7051,-4.705 z m 32.2304,0 c -2.5985,0 -4.705,2.107 -4.705,4.705 0,2.598 2.1065,4.705 4.705,4.705 l 9.4102,0 c 2.5985,0 4.7051,-2.106 4.7051,-4.705 0,-2.599 -2.1066,-4.705 -4.7051,-4.705 z m -257.8398,18.416 c -2.59853,0 -4.70508,2.106 -4.70508,4.705 v 9.411 c 0,2.599 2.10655,4.705 4.70508,4.705 2.59853,0 4.70508,-2.106 4.70508,-4.705 v -9.411 c 0,-2.599 -2.10655,-4.705 -4.70508,-4.705 z m 269.0078,2.645 c -2.5985,0 -4.7051,2.106 -4.7051,4.705 v 9.41 c 0,2.599 2.1066,4.705 4.7051,4.705 2.5985,0 4.7051,-2.106 4.7051,-4.705 v -9.41 c 0,-2.599 -2.1066,-4.705 -4.7051,-4.705 z m -269.0078,29.586 c -2.59853,0 -4.70508,2.106 -4.70508,4.705 l 0,9.41 c 0,2.599 2.10655,4.705 4.70508,4.705 2.59853,0 4.70508,-2.106 4.70508,-4.705 v -9.41 c 0,-2.599 -2.10655,-4.705 -4.70508,-4.705 z m 269.0078,2.644 c -2.5985,0 -4.7051,2.106 -4.7051,4.705 v 9.411 c 0,2.599 2.1066,4.705 4.7051,4.705 2.5985,0 4.7051,-2.106 4.7051,-4.705 v -9.411 c 0,-2.599 -2.1066,-4.705 -4.7051,-4.705 z m -269.0078,29.586 c -2.59853,0 -4.70508,2.106 -4.70508,4.705 l 0,9.409 c 0,2.599 2.10655,4.705 4.70508,4.705 2.59853,0 4.70508,-2.106 4.70508,-4.705 v -9.409 c 0,-2.599 -2.10655,-4.705 -4.70508,-4.705 z m 269.0078,2.645 c -2.5985,0 -4.7051,2.106 -4.7051,4.705 v 9.41 c 0,2.599 2.1066,4.705 4.7051,4.705 2.5985,0 4.7051,-2.106 4.7051,-4.705 v -9.41 c 0,-2.599 -2.1066,-4.705 -4.7051,-4.705 z m -269.0078,29.584 c -2.59853,0 -4.70508,2.106 -4.70508,4.705 v 9.41 c 0,2.599 2.10655,4.705 4.70508,4.705 2.59853,0 4.70508,-2.106 4.70508,-4.705 l 0,-9.41 c 0,-2.599 -2.10655,-4.705 -4.70508,-4.705 z m 269.0078,2.646 c -2.5985,0 -4.7051,2.106 -4.7051,4.705 v 9.409 c 0,2.599 2.1066,4.705 4.7051,4.705 2.5985,0 4.7051,-2.106 4.7051,-4.705 v -9.409 c 0,-2.599 -2.1066,-4.705 -4.7051,-4.705 z"
   id="rect33"
   sodipodi:nodetypes="csccscccsccscccsccscccsccscccsccsccssscscscscsssccsccsccssscscsssssssscsscsscssssssscsscsscssssssscssssscssssssssssssss" />
        </g><g
   transform="matrix(0.617948,-0.617948,0.634314,0.634314,-9260.853,-7797.08)"
   id="g35">
            <path
   style="clip-rule:nonzero;fill:#221e1f;fill-rule:nonzero;stroke-linecap:butt;stroke-linejoin:miter;stroke-dasharray:9.41, 22.82, 0, 0, 0, 0"
   d="m 906.9707,14023.195 c -2.59853,0 -4.70508,2.106 -4.70508,4.705 0,2.599 2.10655,4.705 4.70508,4.705 h 9.41016 c 2.59853,0 4.70508,-2.106 4.70508,-4.705 0,-2.599 -2.10655,-4.705 -4.70508,-4.705 z m 32.22852,0 c -2.59853,0 -4.70508,2.106 -4.70508,4.705 0,2.599 2.10655,4.705 4.70508,4.705 h 9.41015 c 2.59853,0 4.70508,-2.106 4.70508,-4.705 0,-2.599 -2.10655,-4.705 -4.70508,-4.705 z m 32.23047,0 c -2.59853,0 -4.70508,2.106 -4.70508,4.705 0,2.599 2.10655,4.705 4.70508,4.705 h 9.41015 c 2.59853,0 4.70508,-2.106 4.70508,-4.705 0,-2.599 -2.10655,-4.705 -4.70508,-4.705 z m 32.23051,0 c -2.5985,0 -4.70512,2.106 -4.70512,4.705 0,2.599 2.10662,4.705 4.70512,4.705 h 9.4101 c 2.5985,0 4.7051,-2.106 4.7051,-4.705 0,-2.599 -2.1066,-4.705 -4.7051,-4.705 z m 32.2304,0 c -2.5985,0 -4.7051,2.106 -4.7051,4.705 0,2.599 2.1066,4.705 4.7051,4.705 h 9.4102 c 2.5985,0 4.7051,-2.106 4.7051,-4.705 0,-2.599 -2.1066,-4.705 -4.7051,-4.705 z m 32.2285,0 c -2.5985,0 -4.705,2.107 -4.705,4.705 0,2.598 2.1065,4.705 4.705,4.705 h 9.4102 c 2.5985,0 4.7051,-2.106 4.7051,-4.705 0,-2.599 -2.1066,-4.705 -4.7051,-4.705 z m 32.2305,0 c -2.5985,0 -4.7051,2.106 -4.7051,4.705 0,2.599 2.1066,4.705 4.7051,4.705 h 9.4102 c 2.5985,0 4.705,-2.107 4.705,-4.705 0,-2.598 -2.1065,-4.705 -4.705,-4.705 z m 32.2305,0 c -2.5985,0 -4.7051,2.106 -4.7051,4.705 0,2.599 2.1066,4.705 4.7051,4.705 h 9.4101 c 2.5985,0 4.7051,-2.106 4.7051,-4.705 0,-2.599 -2.1066,-4.705 -4.7051,-4.705 z m 32.2304,0 c -2.5985,0 -4.705,2.107 -4.705,4.705 0,2.598 2.1065,4.705 4.705,4.705 h 9.4102 c 2.5985,0 4.7051,-2.106 4.7051,-4.705 0,-2.599 -2.1066,-4.705 -4.7051,-4.705 z m -257.8398,18.416 c -2.59853,0 -4.70508,2.106 -4.70508,4.705 v 9.411 c 0,2.599 2.10655,4.705 4.70508,4.705 2.59853,0 4.70508,-2.106 4.70508,-4.705 v -9.411 c 0,-2.599 -2.10655,-4.705 -4.70508,-4.705 z m 269.0078,2.645 c -2.5985,0 -4.7051,2.106 -4.7051,4.705 v 9.41 c 0,2.599 2.1066,4.705 4.7051,4.705 2.5985,0 4.7051,-2.106 4.7051,-4.705 v -9.41 c 0,-2.599 -2.1066,-4.705 -4.7051,-4.705 z m -269.0078,29.586 c -2.59853,0 -4.70508,2.106 -4.70508,4.705 v 9.41 c 0,2.599 2.10655,4.705 4.70508,4.705 2.59853,0 4.70508,-2.106 4.70508,-4.705 v -9.41 c 0,-2.599 -2.10655,-4.705 -4.70508,-4.705 z m 269.0078,2.644 c -2.5985,0 -4.7051,2.106 -4.7051,4.705 v 9.411 c 0,2.599 2.1066,4.705 4.7051,4.705 2.5985,0 4.7051,-2.106 4.7051,-4.705 v -9.411 c 0,-2.599 -2.1066,-4.705 -4.7051,-4.705 z m -269.0078,29.586 c -2.59853,0 -4.70508,2.106 -4.70508,4.705 v 9.409 c 0,2.599 2.10655,4.705 4.70508,4.705 2.59853,0 4.70508,-2.106 4.70508,-4.705 l 0,-9.409 c 0,-2.599 -2.10655,-4.705 -4.70508,-4.705 z m 269.0078,2.645 c -2.5985,0 -4.7051,2.106 -4.7051,4.705 v 9.41 c 0,2.599 2.1066,4.705 4.7051,4.705 2.5985,0 4.7051,-2.106 4.7051,-4.705 v -9.41 c 0,-2.599 -2.1066,-4.705 -4.7051,-4.705 z m -269.0078,29.584 c -2.59853,0 -4.70508,2.106 -4.70508,4.705 v 9.41 c 0,2.599 2.10655,4.705 4.70508,4.705 2.59853,0 4.70508,-2.106 4.70508,-4.705 v -9.41 c 0,-2.599 -2.10655,-4.705 -4.70508,-4.705 z m 269.0078,2.646 c -2.5985,0 -4.7051,2.106 -4.7051,4.705 v 9.409 c 0,2.599 2.1066,4.705 4.7051,4.705 2.5985,0 4.7051,-2.106 4.7051,-4.705 v -9.409 c 0,-2.599 -2.1066,-4.705 -4.7051,-4.705 z"
   id="rect34"
   sodipodi:nodetypes="csccscccsccscccsccscccsccscccsccsccssscscscscsssccsccsccssscscsssssssssssssssssssssssssssssssssssssssssssssssssssssssss" />
        </g><g
   transform="matrix(0.617948,0.617948,-0.634314,0.634314,8701.947,-8916.8)"
   id="g36">
            <path
   style="clip-rule:nonzero;fill:#221e1f;fill-rule:nonzero;stroke-linecap:butt;stroke-linejoin:miter;stroke-dasharray:9.41, 22.82, 0, 0, 0, 0"
   d="m 906.9707,14023.195 a 4.7049999,4.7049999 0 0 0 -4.70508,4.705 4.7049999,4.7049999 0 0 0 4.70508,4.705 h 9.41016 a 4.7049999,4.7049999 0 0 0 4.70508,-4.705 4.7049999,4.7049999 0 0 0 -4.70508,-4.705 z m 32.22852,0 a 4.7049999,4.7049999 0 0 0 -4.70508,4.705 4.7049999,4.7049999 0 0 0 4.70508,4.705 h 9.41015 a 4.7049999,4.7049999 0 0 0 4.70508,-4.705 4.7049999,4.7049999 0 0 0 -4.70508,-4.705 z m 32.23047,0 a 4.7049999,4.7049999 0 0 0 -4.70508,4.705 4.7049999,4.7049999 0 0 0 4.70508,4.705 h 9.41015 a 4.7049999,4.7049999 0 0 0 4.70508,-4.705 4.7049999,4.7049999 0 0 0 -4.70508,-4.705 z m 32.23051,0 a 4.7049999,4.7049999 0 0 0 -4.70512,4.705 4.7049999,4.7049999 0 0 0 4.70512,4.705 h 9.4101 a 4.7049999,4.7049999 0 0 0 4.7051,-4.705 4.7049999,4.7049999 0 0 0 -4.7051,-4.705 z m 32.2304,0 a 4.7049999,4.7049999 0 0 0 -4.7051,4.705 4.7049999,4.7049999 0 0 0 4.7051,4.705 h 9.4102 a 4.7049999,4.7049999 0 0 0 4.7051,-4.705 4.7049999,4.7049999 0 0 0 -4.7051,-4.705 z m 32.2285,0 a 4.7049999,4.7049999 0 0 0 -4.705,4.705 4.7049999,4.7049999 0 0 0 4.705,4.705 h 9.4102 a 4.7049999,4.7049999 0 0 0 4.7051,-4.705 4.7049999,4.7049999 0 0 0 -4.7051,-4.705 z m 32.2305,0 a 4.7049999,4.7049999 0 0 0 -4.7051,4.705 4.7049999,4.7049999 0 0 0 4.7051,4.705 h 9.4102 a 4.7049999,4.7049999 0 0 0 4.705,-4.705 4.7049999,4.7049999 0 0 0 -4.705,-4.705 z m 32.2305,0 a 4.7049999,4.7049999 0 0 0 -4.7051,4.705 4.7049999,4.7049999 0 0 0 4.7051,4.705 h 9.4101 a 4.7049999,4.7049999 0 0 0 4.7051,-4.705 4.7049999,4.7049999 0 0 0 -4.7051,-4.705 z m 32.2304,0 a 4.7049999,4.7049999 0 0 0 -4.705,4.705 4.7049999,4.7049999 0 0 0 4.705,4.705 h 9.4102 a 4.7049999,4.7049999 0 0 0 4.7051,-4.705 4.7049999,4.7049999 0 0 0 -4.7051,-4.705 z m -257.8398,18.416 a 4.7049999,4.7049999 0 0 0 -4.70508,4.705 v 9.411 a 4.7049999,4.7049999 0 0 0 4.70508,4.705 4.7049999,4.7049999 0 0 0 4.70508,-4.705 v -9.411 a 4.7049999,4.7049999 0 0 0 -4.70508,-4.705 z m 269.0078,2.645 a 4.7049999,4.7049999 0 0 0 -4.7051,4.705 v 9.41 a 4.7049999,4.7049999 0 0 0 4.7051,4.705 4.7049999,4.7049999 0 0 0 4.7051,-4.705 v -9.41 a 4.7049999,4.7049999 0 0 0 -4.7051,-4.705 z m -269.0078,29.586 a 4.7049999,4.7049999 0 0 0 -4.70508,4.705 v 9.41 a 4.7049999,4.7049999 0 0 0 4.70508,4.705 4.7049999,4.7049999 0 0 0 4.70508,-4.705 v -9.41 a 4.7049999,4.7049999 0 0 0 -4.70508,-4.705 z m 269.0078,2.644 a 4.7049999,4.7049999 0 0 0 -4.7051,4.705 v 9.411 a 4.7049999,4.7049999 0 0 0 4.7051,4.705 4.7049999,4.7049999 0 0 0 4.7051,-4.705 v -9.411 a 4.7049999,4.7049999 0 0 0 -4.7051,-4.705 z m -269.0078,29.586 a 4.7049999,4.7049999 0 0 0 -4.70508,4.705 v 9.409 a 4.7049999,4.7049999 0 0 0 4.70508,4.705 4.7049999,4.7049999 0 0 0 4.70508,-4.705 v -9.409 a 4.7049999,4.7049999 0 0 0 -4.70508,-4.705 z m 269.0078,2.645 a 4.7049999,4.7049999 0 0 0 -4.7051,4.705 v 9.41 a 4.7049999,4.7049999 0 0 0 4.7051,4.705 4.7049999,4.7049999 0 0 0 4.7051,-4.705 v -9.41 a 4.7049999,4.7049999 0 0 0 -4.7051,-4.705 z m -269.0078,29.584 a 4.7049999,4.7049999 0 0 0 -4.70508,4.705 v 9.41 a 4.7049999,4.7049999 0 0 0 4.70508,4.705 4.7049999,4.7049999 0 0 0 4.70508,-4.705 v -9.41 a 4.7049999,4.7049999 0 0 0 -4.70508,-4.705 z m 269.0078,2.646 a 4.7049999,4.7049999 0 0 0 -4.7051,4.705 v 9.409 a 4.7049999,4.7049999 0 0 0 4.7051,4.705 4.7049999,4.7049999 0 0 0 4.7051,-4.705 v -9.409 a 4.7049999,4.7049999 0 0 0 -4.7051,-4.705 z m -253.33592,13.912 a 4.7049999,4.7049999 0 0 0 -4.70508,4.705 4.7049999,4.7049999 0 0 0 4.70508,4.706 h 9.41015 a 4.7049999,4.7049999 0 0 0 4.70508,-4.706 4.7049999,4.7049999 0 0 0 -4.70508,-4.705 z m 32.22851,0 a 4.7049999,4.7049999 0 0 0 -4.70507,4.705 4.7049999,4.7049999 0 0 0 4.70507,4.706 h 9.41016 a 4.7049999,4.7049999 0 0 0 4.70508,-4.706 4.7049999,4.7049999 0 0 0 -4.70508,-4.705 z m 32.23047,0 a 4.7049999,4.7049999 0 0 0 -4.70508,4.705 4.7049999,4.7049999 0 0 0 4.70508,4.706 h 9.41016 a 4.7049999,4.7049999 0 0 0 4.70508,-4.706 4.7049999,4.7049999 0 0 0 -4.70508,-4.705 z m 32.23044,0 a 4.7049999,4.7049999 0 0 0 -4.705,4.705 4.7049999,4.7049999 0 0 0 4.705,4.706 h 9.4102 a 4.7049999,4.7049999 0 0 0 4.7051,-4.706 4.7049999,4.7049999 0 0 0 -4.7051,-4.705 z m 32.2305,0 a 4.7049999,4.7049999 0 0 0 -4.7051,4.705 4.7049999,4.7049999 0 0 0 4.7051,4.706 h 9.4102 a 4.7049999,4.7049999 0 0 0 4.705,-4.706 4.7049999,4.7049999 0 0 0 -4.705,-4.705 z m 32.2285,0 a 4.7049999,4.7049999 0 0 0 -4.7031,4.705 4.7049999,4.7049999 0 0 0 4.7031,4.706 h 9.4102 a 4.7049999,4.7049999 0 0 0 4.7051,-4.706 4.7049999,4.7049999 0 0 0 -4.7051,-4.705 z m 32.2305,0 a 4.7049999,4.7049999 0 0 0 -4.7051,4.705 4.7049999,4.7049999 0 0 0 4.7051,4.706 h 9.4101 a 4.7049999,4.7049999 0 0 0 4.7051,-4.706 4.7049999,4.7049999 0 0 0 -4.7051,-4.705 z m 32.2305,0 a 4.7049999,4.7049999 0 0 0 -4.7051,4.705 4.7049999,4.7049999 0 0 0 4.7051,4.706 h 9.4101 a 4.7049999,4.7049999 0 0 0 4.7051,-4.706 4.7049999,4.7049999 0 0 0 -4.7051,-4.705 z"
   id="rect35" />
        </g><g
   transform="matrix(0.617948,-0.617948,0.634314,0.634314,-9427.093,-7630.84)"
   id="g37">
            <path
   style="clip-rule:nonzero;fill:#221e1f;fill-rule:nonzero;stroke-linecap:butt;stroke-linejoin:miter;stroke-dasharray:9.41, 22.82, 0, 0, 0, 0"
   d="m 906.9707,14023.195 c -2.59853,0 -4.70508,2.106 -4.70508,4.705 0,2.599 2.10655,4.705 4.70508,4.705 h 9.41016 c 2.59853,0 4.70508,-2.106 4.70508,-4.705 0,-2.599 -2.10655,-4.705 -4.70508,-4.705 z m 32.22852,0 c -2.59853,0 -4.70508,2.106 -4.70508,4.705 0,2.599 2.10655,4.705 4.70508,4.705 h 9.41015 c 2.59853,0 4.70508,-2.106 4.70508,-4.705 0,-2.599 -2.10655,-4.705 -4.70508,-4.705 z m 32.23047,0 c -2.59853,0 -4.70508,2.106 -4.70508,4.705 0,2.599 2.10655,4.705 4.70508,4.705 h 9.41015 c 2.59853,0 4.70508,-2.106 4.70508,-4.705 0,-2.599 -2.10655,-4.705 -4.70508,-4.705 z m 32.23051,0 c -2.5985,0 -4.70512,2.106 -4.70512,4.705 0,2.599 2.10662,4.705 4.70512,4.705 h 9.4101 c 2.5985,0 4.7051,-2.106 4.7051,-4.705 0,-2.599 -2.1066,-4.705 -4.7051,-4.705 z m 32.2304,0 c -2.5985,0 -4.7051,2.106 -4.7051,4.705 0,2.599 2.1066,4.705 4.7051,4.705 h 9.4102 c 2.5985,0 4.7051,-2.106 4.7051,-4.705 0,-2.599 -2.1066,-4.705 -4.7051,-4.705 z m 32.2285,0 c -2.5985,0 -4.705,2.107 -4.705,4.705 0,2.598 2.1065,4.705 4.705,4.705 h 9.4102 c 2.5985,0 4.7051,-2.106 4.7051,-4.705 0,-2.599 -2.1066,-4.705 -4.7051,-4.705 z m 32.2305,0 c -2.5985,0 -4.7051,2.106 -4.7051,4.705 0,2.599 2.1066,4.705 4.7051,4.705 h 9.4102 c 2.5985,0 4.705,-2.107 4.705,-4.705 0,-2.598 -2.1065,-4.705 -4.705,-4.705 z m 32.2305,0 c -2.5985,0 -4.7051,2.106 -4.7051,4.705 0,2.599 2.1066,4.705 4.7051,4.705 h 9.4101 c 2.5985,0 4.7051,-2.106 4.7051,-4.705 0,-2.599 -2.1066,-4.705 -4.7051,-4.705 z m 32.2304,0 c -2.5985,0 -4.705,2.107 -4.705,4.705 0,2.598 2.1065,4.705 4.705,4.705 h 9.4102 c 2.5985,0 4.7051,-2.106 4.7051,-4.705 0,-2.599 -2.1066,-4.705 -4.7051,-4.705 z m -257.8398,18.416 c -2.59853,0 -4.70508,2.106 -4.70508,4.705 l 0,9.411 c 0,2.599 2.10655,4.705 4.70508,4.705 2.59853,0 4.70508,-2.106 4.70508,-4.705 v -9.411 c 0,-2.599 -2.10655,-4.705 -4.70508,-4.705 z m 269.0078,2.645 c -2.5985,0 -4.7051,2.106 -4.7051,4.705 v 9.41 c 0,2.599 2.1066,4.705 4.7051,4.705 2.5985,0 4.7051,-2.106 4.7051,-4.705 v -9.41 c 0,-2.599 -2.1066,-4.705 -4.7051,-4.705 z m -269.0078,29.586 c -2.59853,0 -4.70508,2.106 -4.70508,4.705 l 0,9.41 c 0.001,2.598 2.10733,4.703 4.70508,4.703 2.59775,0 4.70398,-2.105 4.70508,-4.703 v -9.41 c 0,-2.599 -2.10655,-4.705 -4.70508,-4.705 z m 269.0078,2.644 c -2.5985,0 -4.7051,2.106 -4.7051,4.705 v 9.411 c 0,2.599 2.1066,4.705 4.7051,4.705 2.5985,0 4.7051,-2.106 4.7051,-4.705 v -9.411 c 0,-2.599 -2.1066,-4.705 -4.7051,-4.705 z m -269.0078,29.584 c -2.59853,0 -4.70508,2.106 -4.70508,4.705 v 9.411 c 0,2.599 2.10655,4.705 4.70508,4.705 2.59853,0 4.70508,-2.106 4.70508,-4.705 v -9.411 c 0,-2.599 -2.10655,-4.705 -4.70508,-4.705 z m 269.0078,2.647 c -2.5985,0 -4.7051,2.106 -4.7051,4.705 v 9.408 c 0,2.599 2.1066,4.705 4.7051,4.705 2.5985,0 4.7051,-2.106 4.7051,-4.705 v -9.408 c 0,-2.599 -2.1066,-4.705 -4.7051,-4.705 z m -269.0078,29.584 c -2.59853,0 -4.70508,2.106 -4.70508,4.705 l 0,9.41 c 0,2.599 2.10655,4.705 4.70508,4.705 2.59853,0 4.70508,-2.106 4.70508,-4.705 l 0,-9.41 c 0,-2.599 -2.10655,-4.705 -4.70508,-4.705 z m 269.0078,2.644 c -2.5985,0 -4.7051,2.106 -4.7051,4.705 v 9.411 c 0,2.599 2.1066,4.705 4.7051,4.705 2.5985,0 4.7051,-2.106 4.7051,-4.705 v -9.411 c 0,-2.599 -2.1066,-4.705 -4.7051,-4.705 z"
   id="rect36"
   sodipodi:nodetypes="csccscccsccscccsccscccsccscccsccsccssscscscscsssccsccsccssscscssssssssssssssssscscsssssssssssssssssssssssssssssssssssss" />
        </g><g
   transform="matrix(0.617948,-0.617948,0.634314,0.634314,-9344.373,-7546.53)"
   id="g38">
            <path
   style="clip-rule:nonzero;fill:#221e1f;fill-rule:nonzero;stroke-linecap:butt;stroke-linejoin:miter;stroke-dasharray:9.41, 22.82, 0, 0, 0, 0"
   d="m 906.9707,14023.195 c -2.59853,0 -4.70508,2.106 -4.70508,4.705 0,2.599 2.10655,4.705 4.70508,4.705 h 9.41016 c 2.59853,0 4.70508,-2.106 4.70508,-4.705 0,-2.599 -2.10655,-4.705 -4.70508,-4.705 z m 32.22852,0 c -2.59853,0 -4.70508,2.106 -4.70508,4.705 0,2.599 2.10655,4.705 4.70508,4.705 h 9.41015 c 2.59853,0 4.70508,-2.106 4.70508,-4.705 0,-2.599 -2.10655,-4.705 -4.70508,-4.705 z m 32.23047,0 c -2.59853,0 -4.70508,2.106 -4.70508,4.705 0,2.599 2.10655,4.705 4.70508,4.705 h 9.41015 c 2.59853,0 4.70508,-2.106 4.70508,-4.705 0,-2.599 -2.10655,-4.705 -4.70508,-4.705 z m 32.23051,0 c -2.5985,0 -4.70512,2.106 -4.70512,4.705 0,2.599 2.10662,4.705 4.70512,4.705 h 9.4101 c 2.5985,0 4.7051,-2.106 4.7051,-4.705 0,-2.599 -2.1066,-4.705 -4.7051,-4.705 z m 32.2304,0 c -2.5985,0 -4.7051,2.106 -4.7051,4.705 0,2.599 2.1066,4.705 4.7051,4.705 h 9.4102 c 2.5985,0 4.7051,-2.106 4.7051,-4.705 0,-2.599 -2.1066,-4.705 -4.7051,-4.705 z m 32.2285,0 c -2.5985,0 -4.705,2.107 -4.705,4.705 0,2.598 2.1065,4.705 4.705,4.705 h 9.4102 c 2.5985,0 4.7051,-2.106 4.7051,-4.705 0,-2.599 -2.1066,-4.705 -4.7051,-4.705 z m 32.2305,0 c -2.5985,0 -4.7051,2.106 -4.7051,4.705 0,2.599 2.1066,4.705 4.7051,4.705 h 9.4102 c 2.5985,0 4.705,-2.107 4.705,-4.705 0,-2.598 -2.1065,-4.705 -4.705,-4.705 z m 32.2305,0 c -2.5985,0 -4.7051,2.106 -4.7051,4.705 0,2.599 2.1066,4.705 4.7051,4.705 h 9.4101 c 2.5985,0 4.7051,-2.106 4.7051,-4.705 0,-2.599 -2.1066,-4.705 -4.7051,-4.705 z m 32.2304,0 c -2.5985,0 -4.705,2.107 -4.705,4.705 0,2.598 2.1065,4.705 4.705,4.705 l 9.4102,0 c 2.5985,0 4.7051,-2.106 4.7051,-4.705 0,-2.599 -2.1066,-4.705 -4.7051,-4.705 z m -257.8398,18.416 c -2.59853,0 -4.70508,2.106 -4.70508,4.705 l 0,9.411 c 0,2.599 2.10655,4.705 4.70508,4.705 2.59853,0 4.70508,-2.106 4.70508,-4.705 v -9.411 c 0,-2.599 -2.10655,-4.705 -4.70508,-4.705 z m 0,32.231 c -2.59853,0 -4.70508,2.106 -4.70508,4.705 v 9.41 c 0,2.599 2.10655,4.705 4.70508,4.705 2.59853,0 4.70508,-2.106 4.70508,-4.705 v -9.41 c 0,-2.599 -2.10655,-4.705 -4.70508,-4.705 z m 0,32.23 c -2.59853,0 -4.70508,2.106 -4.70508,4.705 l 0,9.409 c 0,2.599 2.10655,4.705 4.70508,4.705 2.59853,0 4.70508,-2.106 4.70508,-4.705 v -9.409 c 0,-2.599 -2.10655,-4.705 -4.70508,-4.705 z m 0,32.229 c -2.59853,0 -4.70508,2.106 -4.70508,4.705 l 0,9.41 c 0,2.599 2.10655,4.705 4.70508,4.705 2.59853,0 4.70508,-2.106 4.70508,-4.705 v -9.41 c 0,-2.599 -2.10655,-4.705 -4.70508,-4.705 z"
   id="rect37"
   sodipodi:nodetypes="ssssssssssssssssssssscsccscccsccsccssscscscscsssccsccsccssscscsssssssssssssssssssssssssssss" />
        </g><g
   transform="matrix(0.617948,-0.617948,0.634314,0.634314,-9176.933,-7713.96)"
   id="g40">
            <path
   style="clip-rule:nonzero;fill:#221e1f;fill-rule:nonzero;stroke-linecap:butt;stroke-linejoin:miter;stroke-dasharray:9.41, 22.82, 0, 0, 0, 0"
   d="m 1040.8301,14023.195 c -2.5985,0 -4.7051,2.106 -4.7051,4.705 0.1411,2.075 1.6277,3.811 3.6563,4.27 -2.0282,0.459 -3.5148,2.194 -3.6563,4.269 l 7.2715,-3.834 h 6.8437 c 2.5985,0 4.7051,-2.106 4.7051,-4.705 0,-2.599 -2.1066,-4.705 -4.7051,-4.705 z m 32.2304,0 c -2.5985,0 -4.705,2.107 -4.705,4.705 0,2.598 2.1065,4.705 4.705,4.705 h 9.4102 c 2.5985,0 4.7051,-2.106 4.7051,-4.705 0,-2.599 -2.1066,-4.705 -4.7051,-4.705 z m 32.2286,0 c -2.5985,0 -4.7051,2.106 -4.7051,4.705 0,2.599 2.1066,4.705 4.7051,4.705 h 9.4101 c 2.5985,0 4.7051,-2.106 4.7051,-4.705 0,-2.599 -2.1066,-4.705 -4.7051,-4.705 z m 32.2304,0 c -2.5985,0 -4.705,2.107 -4.705,4.705 0,2.598 2.1065,4.705 4.705,4.705 h 9.4102 c 2.5985,0 4.7051,-2.106 4.7051,-4.705 0,-2.599 -2.1066,-4.705 -4.7051,-4.705 z m 32.2305,0 c -2.5985,0 -4.7051,2.106 -4.7051,4.705 0,2.599 2.1066,4.705 4.7051,4.705 h 2.1582 c 0.6019,1.777 2.2022,3.027 4.0723,3.18 2.5985,0 4.705,-2.107 4.705,-4.705 v -3.18 c -3e-4,-2.598 -2.1066,-4.705 -4.705,-4.705 z m 6.2305,26 c -2.5978,0 -4.704,2.105 -4.7051,4.703 l 0,9.411 c 0,2.599 2.1066,4.705 4.7051,4.705 2.5985,0 4.705,-2.107 4.705,-4.705 v -9.411 c 0,-2.598 -2.1073,-4.703 -4.705,-4.703 z m 0,32.229 c -2.5985,0 -4.7051,2.106 -4.7051,4.705 l 0,9.41 c 0,2.599 2.1066,4.705 4.7051,4.705 2.5985,0 4.705,-2.107 4.705,-4.705 v -9.41 c 0,-2.598 -2.1065,-4.705 -4.705,-4.705 z m 0,32.23 c -2.5985,0 -4.7051,2.106 -4.7051,4.705 l 0,9.411 c 0,2.599 2.1066,4.705 4.7051,4.705 2.5985,0 4.705,-2.107 4.705,-4.705 v -9.411 c 0,-2.598 -2.1065,-4.705 -4.705,-4.705 z m 0,32.231 c -2.5985,0 -4.7051,2.106 -4.7051,4.705 v 7.928 c -0.1861,0.33 -0.3317,0.681 -0.4336,1.046 -6e-4,2.599 2.1062,4.706 4.7051,4.706 h 0.4336 c 2.5988,0 4.7053,-2.107 4.705,-4.706 v -8.974 c 0,-2.598 -2.1065,-4.705 -4.705,-4.705 z m -129.3555,8.974 c -2.5978,0 -4.7031,2.107 -4.7031,4.705 -6e-4,2.598 2.105,4.705 4.7031,4.706 h 9.4102 c 2.5989,0 4.7056,-2.107 4.705,-4.706 0,-2.598 -2.1065,-4.705 -4.705,-4.705 z m 32.2305,0 c -2.5985,0 -4.7051,2.106 -4.7051,4.705 -6e-4,2.599 2.1062,4.706 4.7051,4.706 h 9.4101 c 2.5989,0 4.7057,-2.107 4.7051,-4.706 0,-2.599 -2.1066,-4.705 -4.7051,-4.705 z m 32.2304,0 c -2.5985,0 -4.705,2.107 -4.705,4.705 -6e-4,2.599 2.1061,4.706 4.705,4.706 h 9.4102 c 2.5989,0 4.7057,-2.107 4.7051,-4.706 0,-2.599 -2.1066,-4.705 -4.7051,-4.705 z m 32.2305,0 c -2.5985,0 -4.7051,2.106 -4.7051,4.705 -6e-4,2.599 2.1062,4.706 4.7051,4.706 h 9.4102 c 2.5989,0 4.7056,-2.107 4.705,-4.706 0,-2.598 -2.1065,-4.705 -4.705,-4.705 z"
   id="rect39"
   sodipodi:nodetypes="cccccssccssscscscsccsccssscscssssccsccsscssscsssssssssssssssssccsscsscccscsccccccccscscccscccscsc" />
        </g><g
   transform="matrix(0.617948,-0.617948,0.634314,0.634314,-9260.853,-7463.01)"
   id="g41">
            <path
   style="clip-rule:nonzero;fill:#221e1f;fill-rule:nonzero;stroke-linecap:butt;stroke-linejoin:miter;stroke-dasharray:9.41, 22.82, 0, 0, 0, 0"
   d="m 1040.8301,14023.195 c -2.5985,0 -4.7051,2.106 -4.7051,4.705 0.1411,2.075 1.6277,3.811 3.6563,4.27 l 3.6152,0.435 6.8437,0 c 2.5985,0 4.7051,-2.106 4.7051,-4.705 0,-2.599 -2.1066,-4.705 -4.7051,-4.705 z m 32.2304,0 c -2.5985,0 -4.705,2.107 -4.705,4.705 0,2.598 2.1065,4.705 4.705,4.705 h 9.4102 c 2.5985,0 4.7051,-2.106 4.7051,-4.705 0,-2.599 -2.1066,-4.705 -4.7051,-4.705 z m 32.2286,0 c -2.5985,0 -4.7051,2.106 -4.7051,4.705 0,2.599 2.1066,4.705 4.7051,4.705 h 9.4101 c 2.5985,0 4.7051,-2.106 4.7051,-4.705 0,-2.599 -2.1066,-4.705 -4.7051,-4.705 z m 32.2304,0 c -2.5985,0 -4.705,2.107 -4.705,4.705 0,2.598 2.1065,4.705 4.705,4.705 h 9.4102 c 2.5985,0 4.7051,-2.106 4.7051,-4.705 0,-2.599 -2.1066,-4.705 -4.7051,-4.705 z m 32.2305,0 c -2.5985,0 -4.7051,2.106 -4.7051,4.705 0,2.599 2.1066,4.705 4.7051,4.705 h 2.1582 c 0.6019,1.777 2.2022,3.027 4.0723,3.18 2.5985,0 4.705,-2.107 4.705,-4.705 v -3.18 c -3e-4,-2.598 -2.1066,-4.705 -4.705,-4.705 z m -123.125,131.664 c -2.5978,0 -4.7031,2.107 -4.7031,4.705 -6e-4,2.598 2.105,4.705 4.7031,4.706 h 9.4102 c 2.5989,0 4.7056,-2.107 4.705,-4.706 0,-2.598 -2.1065,-4.705 -4.705,-4.705 z m 32.2305,0 c -2.5985,0 -4.7051,2.106 -4.7051,4.705 -6e-4,2.599 2.1062,4.706 4.7051,4.706 h 9.4101 c 2.5989,0 4.7057,-2.107 4.7051,-4.706 0,-2.599 -2.1066,-4.705 -4.7051,-4.705 z m 32.2304,0 c -2.5985,0 -4.705,2.107 -4.705,4.705 -6e-4,2.599 2.1061,4.706 4.705,4.706 h 9.4102 c 2.5989,0 4.7057,-2.107 4.7051,-4.706 0,-2.599 -2.1066,-4.705 -4.7051,-4.705 z m 32.2305,0 c -2.5985,0 -4.7051,2.106 -4.7051,4.705 -6e-4,2.599 2.1062,4.706 4.7051,4.706 h 9.4102 c 2.5989,0 4.7056,-2.107 4.705,-4.706 0,-2.598 -2.1065,-4.705 -4.705,-4.705 z"
   id="rect40"
   sodipodi:nodetypes="ccccssccssscscscsccsccssscscssssccsccscccscscscsscssscsscssscsscss" />
        </g><g
   transform="matrix(0.617948,-0.617948,0.634314,0.634314,-9344.773,-7379.89)"
   id="g42">
            <path
   style="clip-rule:nonzero;fill:#221e1f;fill-rule:nonzero;stroke-linecap:butt;stroke-linejoin:miter;stroke-dasharray:9.41, 22.82, 0, 0, 0, 0"
   d="m 1040.8301,14023.195 a 4.7049999,4.7049999 0 0 0 -4.7051,4.705 4.7049999,4.7049999 0 0 0 3.6563,4.27 4.7049999,4.7049999 0 0 0 -3.6563,4.269 v 9.411 a 4.7049999,4.7049999 0 0 0 4.7051,4.705 4.7049999,4.7049999 0 0 0 4.7051,-4.705 v -9.411 a 4.7049999,4.7049999 0 0 0 -2.1387,-3.834 h 6.8437 a 4.7049999,4.7049999 0 0 0 4.7051,-4.705 4.7049999,4.7049999 0 0 0 -4.7051,-4.705 z m 32.2304,0 a 4.7049999,4.7049999 0 0 0 -4.705,4.705 4.7049999,4.7049999 0 0 0 4.705,4.705 h 9.4102 a 4.7049999,4.7049999 0 0 0 4.7051,-4.705 4.7049999,4.7049999 0 0 0 -4.7051,-4.705 z m 32.2286,0 a 4.7049999,4.7049999 0 0 0 -4.7051,4.705 4.7049999,4.7049999 0 0 0 4.7051,4.705 h 9.4101 a 4.7049999,4.7049999 0 0 0 4.7051,-4.705 4.7049999,4.7049999 0 0 0 -4.7051,-4.705 z m 32.2304,0 a 4.7049999,4.7049999 0 0 0 -4.705,4.705 4.7049999,4.7049999 0 0 0 4.705,4.705 h 9.4102 a 4.7049999,4.7049999 0 0 0 4.7051,-4.705 4.7049999,4.7049999 0 0 0 -4.7051,-4.705 z m 32.2305,0 a 4.7049999,4.7049999 0 0 0 -4.7051,4.705 4.7049999,4.7049999 0 0 0 4.7051,4.705 h 2.1582 a 4.7049999,4.7049999 0 0 0 4.0723,3.18 4.7049999,4.7049999 0 0 0 4.705,-4.705 v -3.18 a 4.7054704,4.7054704 0 0 0 -4.705,-4.705 z m 6.2305,26 a 4.7049999,4.7049999 0 0 0 -4.7051,4.703 v 9.411 a 4.7049999,4.7049999 0 0 0 4.7051,4.705 4.7049999,4.7049999 0 0 0 4.705,-4.705 v -9.411 a 4.7049999,4.7049999 0 0 0 -4.705,-4.703 z m -135.1504,14.77 a 4.7049999,4.7049999 0 0 0 -4.7051,4.705 v 9.41 a 4.7049999,4.7049999 0 0 0 4.7051,4.705 4.7049999,4.7049999 0 0 0 4.7051,-4.705 v -9.41 a 4.7049999,4.7049999 0 0 0 -4.7051,-4.705 z m 135.1504,17.459 a 4.7049999,4.7049999 0 0 0 -4.7051,4.705 v 9.41 a 4.7049999,4.7049999 0 0 0 4.7051,4.705 4.7049999,4.7049999 0 0 0 4.705,-4.705 v -9.41 a 4.7049999,4.7049999 0 0 0 -4.705,-4.705 z m -135.1504,14.771 a 4.7049999,4.7049999 0 0 0 -4.7051,4.705 v 9.411 a 4.7049999,4.7049999 0 0 0 4.7051,4.705 4.7049999,4.7049999 0 0 0 4.7051,-4.705 v -9.411 a 4.7049999,4.7049999 0 0 0 -4.7051,-4.705 z m 135.1504,17.459 a 4.7049999,4.7049999 0 0 0 -4.7051,4.705 v 9.411 a 4.7049999,4.7049999 0 0 0 4.7051,4.705 4.7049999,4.7049999 0 0 0 4.705,-4.705 v -9.411 a 4.7049999,4.7049999 0 0 0 -4.705,-4.705 z m -135.1504,14.772 a 4.7049999,4.7049999 0 0 0 -4.7051,4.705 v 9.41 a 4.7049999,4.7049999 0 0 0 4.7051,4.705 4.7049999,4.7049999 0 0 0 4.7051,-4.705 v -9.41 a 4.7049999,4.7049999 0 0 0 -4.7051,-4.705 z m 135.1504,17.459 a 4.7049999,4.7049999 0 0 0 -4.7051,4.705 v 7.928 a 4.7049999,4.7049999 0 0 0 -0.4336,1.046 4.7049999,4.7049999 0 0 0 4.7051,4.706 h 0.4336 a 4.7054704,4.7054704 0 0 0 4.705,-4.706 v -8.974 a 4.7049999,4.7049999 0 0 0 -4.705,-4.705 z m -129.3555,8.974 a 4.7049999,4.7049999 0 0 0 -4.7031,4.705 4.7049999,4.7049999 0 0 0 4.7031,4.706 h 9.4102 a 4.7049999,4.7049999 0 0 0 4.705,-4.706 4.7049999,4.7049999 0 0 0 -4.705,-4.705 z m 32.2305,0 a 4.7049999,4.7049999 0 0 0 -4.7051,4.705 4.7049999,4.7049999 0 0 0 4.7051,4.706 h 9.4101 a 4.7049999,4.7049999 0 0 0 4.7051,-4.706 4.7049999,4.7049999 0 0 0 -4.7051,-4.705 z m 32.2304,0 a 4.7049999,4.7049999 0 0 0 -4.705,4.705 4.7049999,4.7049999 0 0 0 4.705,4.706 h 9.4102 a 4.7049999,4.7049999 0 0 0 4.7051,-4.706 4.7049999,4.7049999 0 0 0 -4.7051,-4.705 z m 32.2305,0 a 4.7049999,4.7049999 0 0 0 -4.7051,4.705 4.7049999,4.7049999 0 0 0 4.7051,4.706 h 9.4102 a 4.7049999,4.7049999 0 0 0 4.705,-4.706 4.7049999,4.7049999 0 0 0 -4.705,-4.705 z"
   id="rect41" />
        </g><g
   transform="matrix(0.849649,0,0,0.736962,-649.737,-9537.95)"
   id="g60">
            <path
   d="m 777.793,14502.6 c -0.694,-3.9 50.081,-76.7 84.103,-84.8 48.608,-11.6 39.294,-40 187.464,-66.6 61.65,-11.1 165.01,31.5 168.09,34.1 43.98,37.4 54.56,18.5 101.47,52.7 8.94,6.5 85.2,61.9 104.3,90.6 -102.8,5.5 -151.97,23.2 -173.24,13.9 -1.03,-0.4 -20.14,-14.7 -20.14,-7.7 0,4.6 3.68,0.1 53.45,21.7 -38.8,-3.6 -54.9,-6.2 -59.64,-7 -33.39,-5.4 -30.2,12.4 -32.54,17 0,0 -4.65,-17 -4.65,-17 -4.04,10.4 -3.33,21.1 -9.29,11.6 -14.88,-23.5 -21.33,-10.4 -48.8,-11.6 -7.78,-0.3 -62.28,-5.1 -80.56,-4.6 -33.75,0.8 -32.6,6 -65.847,11.6 10.279,-23.2 10.584,-24.4 8.521,-24.8 -8.502,-1.6 -7.903,6.3 -107.673,8.5 l 24.788,-15.5 c -8.326,-0.4 -8.442,-4.2 -27.887,3.1 -60.282,22.6 -62.187,-23.8 -87.532,-9.3 -17.329,9.9 -35.798,-4.4 -14.387,-15.9 z"
   style="fill:#caad8e;stroke:#231f20;stroke-width:7.33px"
   id="path42" />
            <path
   d="m 1228.52,14423.5 c 30.93,-1.5 52.52,-25.1 58.64,-29.7"
   style="fill:none;stroke:#231f20;stroke-width:3.67px"
   id="path43" />
            <path
   d="m 1320.46,14462.4 c 1.69,-1.4 6.21,-5.1 23.25,-14.4 4.8,-2.6 -24.95,15.7 -23.25,14.4 z"
   style="fill:none;stroke:#231f20;stroke-width:3.67px"
   id="path44" />
            <path
   d="m 1043.63,14451 c 2.3,-4.7 15.79,-18.9 50.65,40.4"
   style="fill:none;stroke:#231f20;stroke-width:3.67px"
   id="path45" />
            <path
   d="m 1132.69,14408.5 c 9.57,-6.7 8.54,1.3 23.56,17.8 3.98,4.4 -28.4,-14.4 -23.56,-17.8 z"
   style="fill:none;stroke:#231f20;stroke-width:3.67px"
   id="path46" />
            <path
   d="m 973.78,14349 c -0.338,1.4 27.43,17.8 29.87,19.2"
   style="fill:none;stroke:#231f20;stroke-width:3.67px"
   id="path47" />
            <path
   d="m 894.07,14388.1 c 27.298,8.6 26.727,8.6 38.317,11.9"
   style="fill:none;stroke:#231f20;stroke-width:3.67px"
   id="path48" />
            <path
   d="m 1128.99,14375.2 c -1.46,-12.7 22.87,-21.8 34.24,-28.6"
   style="fill:none;stroke:#231f20;stroke-width:3.67px"
   id="path49" />
            <path
   d="m 1344.29,14506.2 c 3.42,0.5 6.84,1 10.27,1.5"
   style="fill:none;stroke:#231f20;stroke-width:3.67px"
   id="path50" />
            <g
   transform="matrix(1.83432,0,0,1.83432,-1008.5,-11987.2)"
   id="g59">
                <path
   d="m 1206.93,14346 c -1.34,-6.1 -15.45,2.1 -7.7,5.9 10.49,5.3 14.15,-4.8 7.7,-5.9 z"
   style="fill:#221e1f;stroke:#231f20;stroke-width:2px"
   id="path51" />
                <path
   d="m 1217.83,14354.5 c -0.59,0 -6.79,-0.9 -7.18,2 -0.73,5.5 3.94,7.6 6.53,3.3 0.54,-0.9 1.24,-5.2 0.65,-5.3 z"
   style="fill:#221e1f;stroke:#231f20;stroke-width:2px"
   id="path52" />
                <g
   transform="translate(-3.14068,-1.70315)"
   id="g53">
                    <path
   d="m 1230.43,14363.7 c -5.17,-1.6 -7.48,-6.8 -8.03,-1.3 -0.99,9.9 14.7,16 18.93,11.7 2.56,-2.5 -2.06,-5.9 -10.9,-10.4 z"
   style="fill:#221e1f;stroke:#231f20;stroke-width:2px"
   id="path53" />
                </g>
                <path
   d="m 1211.96,14363.4 c 3.59,1.2 -0.79,14.5 -1.64,17.6"
   style="fill:none;stroke:#231f20;stroke-width:2px"
   id="path54" />
                <path
   d="m 1208.05,14361.7 c -2.93,1.3 -5.77,8.7 -6.09,9.5"
   style="fill:none;stroke:#231f20;stroke-width:2px"
   id="path55" />
                <path
   d="m 1217.72,14364.4 c -0.32,3.8 1.74,4.1 0.26,13.7"
   style="fill:none;stroke:#231f20;stroke-width:2px"
   id="path56" />
                <path
   d="m 1206.97,14356.9 c -2.75,0.4 -3.77,1.5 -5.53,1.2 -2.95,-0.6 -2.94,-0.3 -5.65,1"
   style="fill:none;stroke:#231f20;stroke-width:2px"
   id="path57" />
                <path
   d="m 1203.7,14343.5 c -0.05,-0.9 -0.45,-7.9 -1.64,-10.4 -0.74,-1.6 -1,-1.5 -2.77,-1.2"
   style="fill:none;stroke:#231f20;stroke-width:2px"
   id="path58" />
                <path
   d="m 1207.29,14344.9 c 0.14,-1 3.87,-10.8 4.22,-11.7 0.43,-1.1 -1.25,-2.2 -1.44,-2.4"
   style="fill:none;stroke:#231f20;stroke-width:2px"
   id="path59" />
            </g>
        </g><g
   transform="matrix(0.888937,0,0,0.895075,-698.016,-12217.749)"
   id="g73">
            <path
   d="m 955.027,13772.6 c 0,0 8.44,19.9 30.852,31.5 21.711,11.3 92.401,16.4 101.191,16.2 11.73,-0.3 82.99,-10 97.34,-15.4 24.41,-9.1 37.47,-17.2 48.92,-42 0,12.2 7.9,16.7 5.71,33 -0.76,5.7 -1.86,21.4 19.98,27.3 8.49,2.4 25.74,10.1 42.5,21.8 26.06,18.1 52.25,42.2 52.82,42.6 -19.35,0.4 -31.18,-2.5 -41.45,-5.7 -20.04,-6.2 -31.76,-16.9 -64.88,-30.1 -12.8,-5.1 -28.47,-0.4 -30.58,2.4 -3.37,4.5 1.68,40 0.78,52 -16.29,0.8 -19.69,-8.2 -32.57,-18.1 -12.48,-9.6 -13.63,-29.5 -43.62,-25.7 -15.18,1.9 -24.34,4.8 -31.91,6.6 -7.93,1.9 -13.99,2.7 -18.65,8.9 -17.45,23 -28.67,28.5 -36.74,48.2 1.95,-24.9 4.49,-29.8 -0.15,-44.2 -28.03,18.8 -41.11,68.2 -40.97,68.9 0.24,1.2 -0.88,-0.9 -4.48,-14.2 -4.85,-18 6.23,-20.6 8.15,-27.3 0.5,-1.8 1.86,-16.9 -22.83,-2.5 -10.702,6.3 -5.448,16.2 -29.653,20.6 33.218,-38.9 26.443,-50.9 25.169,-51.2 -3.433,-0.5 -32.94,3.2 -38.729,5.3 -16.54,6.2 -15.489,8.1 -31.798,15.1 18.453,-25.1 23.428,-33.8 16.307,-31.8 -13.278,3.8 -17.354,8.2 -33.429,13.9 -16.697,5.9 -17.051,3.1 -19.393,3.1 26.253,-23.5 25.067,-27.5 59.752,-32.5 10.524,-1.5 10.605,-7 15.133,-33.8 1.027,-6.1 -3.216,-15.2 -2.773,-19.6 2.501,-25.1 0.001,-23.3 0.001,-23.3 z"
   style="fill:#a77565"
   id="path60" />
            <path
   d="m 1229,13779.5 c 5.85,11.3 -53.2,33.8 -53.56,35.6 -0.54,2.7 1.08,2.2 8.97,33.8 5.41,21.7 5.63,21.5 17.11,40.7 1.38,-28.9 0.7,-49.2 22.44,-50.5 10.38,-0.5 22.46,-3.3 72.2,18.1 -7.7,-9.5 -8.32,-8.9 -56.3,-34.8 -16.91,-9.1 -6.01,-14.9 -7.94,-57.8 z"
   style="fill:#80584b"
   id="path61" />
            <path
   d="m 985.354,13742.3 c 0.434,-3.8 90.266,-31 179.896,-16.1 31.11,5.2 29.95,8.4 34.65,11.8 14.37,10.5 37.02,9.1 30.17,31 -4.17,13.4 -4.79,13.9 -24.87,24.9 -15.96,8.8 -46.31,19.1 -81.53,23.8 -54.64,7.3 -118.93,4 -143.498,-16.5 -5.618,-4.6 -8.081,-1.8 -20.791,-18.7 -6.078,-8.1 2.116,-27.9 25.973,-40.2 z"
   style="fill:#e49e88"
   id="path62" />
            <g
   id="g72">
                <g
   transform="matrix(0.347307,0,0,0.377705,289.32,8157.34)"
   id="g63">
                    <path
   d="m 1709.44,15158.1 c 78.48,-117.7 198.62,-33 208.82,-145.3 11.17,-122.8 -44.1,-152.7 62.06,-216.9 90.84,-55 411.43,-103.8 627.74,-28.5 80.27,28 99.02,48.5 116.41,86.2 24.01,52.1 7.64,101.8 7.9,107.8 1.76,40.5 125.4,47.6 175.53,87.7 107.05,85.7 213.77,132.6 111.98,124.1 -101.71,-8.5 -321.36,-147.2 -354.09,-81.7 -5.92,11.8 -2.72,11.9 9.35,126.8 -25.66,-1.6 -34.12,14.8 -78.96,-39 -93.7,-112.5 -116.55,-72.4 -260.27,-48.5 -14.89,2.5 -6.93,11.4 -132.17,134.7 -9.43,-68.5 36.26,-121.8 -17.58,-103.8 -17.75,5.9 -95.47,170.6 -96.37,180 -21.34,-33.6 -24.65,-58 -1.82,-92.7 36.86,-55.9 -26.18,-37.1 -28.74,-36.2 -38.58,12.9 -72.27,63.3 -113.22,63.3 9.54,-11.5 97.13,-99.7 90.28,-127.1 -1.03,-4.1 -91.3,-35.4 -219.49,50.7 -17.92,-37.7 97.4,-86.9 54.5,-87.6 -15.77,-0.2 -164.19,61.6 -161.86,46 z"
   style="fill:none;stroke:#231f20;stroke-width:18.02px"
   id="path63" />
                </g>
                <g
   transform="matrix(0.347307,0,0,0.377705,289.32,8157.34)"
   id="g64">
                    <path
   d="m 1929.33,14878.8 c 37.67,175.2 783.08,134.4 781.98,-37.9"
   style="fill:none;stroke:#231f20;stroke-width:9.01px"
   id="path64" />
                </g>
                <path
   d="m 996.922,13757.3 c 116.158,-36.3 191.608,-12.4 198.908,-6.2 3.86,3.3 22.84,28.5 -49.74,39.1"
   style="fill:none;stroke:#231f20;stroke-width:3.27px"
   id="path65" />
                <path
   d="m 986.705,13764.9 c -3.69,0.4 -18.553,15.1 11.404,26.1 33.271,12.3 111.091,6.5 127.191,2.5"
   style="fill:none;stroke:#231f20;stroke-width:3.27px"
   id="path66" />
                <path
   d="m 1115.58,13749.6 c -40.53,-6.1 -74.85,11.7 -80.78,18.2 -18.63,20.3 25.71,17.4 36.69,17.1"
   style="fill:none;stroke:#231f20;stroke-width:3.27px"
   id="path67" />
                <path
   d="m 1147.31,13755.7 c 6.57,-5.3 18.86,6.5 16.72,11.3 -3.09,6.9 -24.62,8.9 -24.87,9"
   style="fill:none;stroke:#231f20;stroke-width:3.27px"
   id="path68" />
                <path
   d="m 1072.28,13770.8 c 1.26,-0.2 22.48,6.9 46.91,-6.3"
   style="fill:none;stroke:#231f20;stroke-width:3.27px"
   id="path69" />
                <g
   transform="matrix(1,0,0,0.783451,0,2976.04)"
   id="g70">
                    <path
   d="m 1010.55,13743 c 6.97,0.8 17.85,5.7 63.38,17.1"
   style="fill:none;stroke:#231f20;stroke-width:3.64px"
   id="path70" />
                </g>
                <g
   transform="matrix(0.640498,0,0,0.655361,354.742,4754.51)"
   id="g71">
                    <path
   d="m 986.759,13795.6 c 40.251,-22.2 109.181,-34.2 118.971,-36"
   style="fill:none;stroke:#231f20;stroke-width:5.05px"
   id="path71" />
                </g>
                <path
   d="m 1142.77,13764.4 c 48.2,2.1 77.06,8.5 83.63,9.9"
   style="fill:none;stroke:#231f20;stroke-width:3.27px"
   id="path72" />
            </g>
        </g><g
   transform="translate(-831.759,-13642.312)"
   id="g81">
            <path
   d="m 1150.22,13660.1 c -4.99,-5 -25.56,1.2 -18.03,11.3 4.61,6.1 35.65,4.3 18.03,-11.3 z"
   style="fill:#221e1f;stroke:#231f20;stroke-width:2.92px"
   id="path73" />
            <path
   d="m 1131.92,13674.2 c -10.57,-7.1 -18.3,3.2 -13.97,8.8 3.21,4.2 18.12,-2.8 13.97,-8.8 z"
   style="fill:#221e1f;stroke:#231f20;stroke-width:2.92px"
   id="path74" />
            <path
   d="m 1113.96,13678.8 c -15.9,-9.1 -34.77,10.9 -36.92,13.2 31.51,18.5 44.49,-7.4 36.92,-13.2 z"
   style="fill:#221e1f;stroke:#231f20;stroke-width:2.92px"
   id="path75" />
            <path
   d="m 1118.72,13685.8 c -6.3,2.9 -10.58,27 -9.25,29.6"
   style="fill:none;stroke:#231f20;stroke-width:2.92px"
   id="path76" />
            <path
   d="m 1123.62,13686.6 c -3.1,14.4 -4.55,14.1 -4.17,28.8"
   style="fill:none;stroke:#231f20;stroke-width:2.92px"
   id="path77" />
            <path
   d="m 1128.93,13684.3 c 9.59,5.4 6.99,12.5 6.99,19.7"
   style="fill:none;stroke:#231f20;stroke-width:2.92px"
   id="path78" />
            <path
   d="m 1132.35,13678.2 c -1.22,0.5 10.28,-4.5 11.05,12.5"
   style="fill:none;stroke:#231f20;stroke-width:2.92px"
   id="path79" />
            <path
   d="m 1146.02,13657.8 c -0.36,-0.7 9.13,-12 9.61,-12.7 2.49,-3.8 7.75,1.5 8.23,2"
   style="fill:none;stroke:#231f20;stroke-width:2.92px"
   id="path80" />
            <path
   d="m 1151.67,13660.7 c 1.93,-4.5 10.68,-11.5 16.93,-3.1"
   style="fill:none;stroke:#231f20;stroke-width:2.92px"
   id="path81" />
        </g><g
   transform="translate(-815.292,-13657.533)"
   id="g82">
            <path
   style="clip-rule:nonzero;fill:#221e1f;fill-rule:nonzero;stroke-linecap:butt;stroke-linejoin:miter;stroke-dasharray:8.33, 20.21, 0, 0, 0, 0"
   d="m 1096.5527,13867.436 a 4.165,4.165 0 0 0 -4.2168,4.111 l -0.068,5.324 a 4.165,4.165 0 0 0 4.1113,4.219 4.165,4.165 0 0 0 4.2168,-4.111 l 0.068,-5.325 a 4.165,4.165 0 0 0 -4.1114,-4.218 z m -0.3261,25.533 a 4.165,4.165 0 0 0 -4.2188,4.111 l -0.1074,8.328 a 4.165,4.165 0 0 0 4.1113,4.219 4.165,4.165 0 0 0 4.2188,-4.111 l 0.1074,-8.33 a 4.165,4.165 0 0 0 -4.1113,-4.217 z m -0.3672,28.537 a 4.165,4.165 0 0 0 -4.2168,4.111 l -0.1074,8.33 a 4.165,4.165 0 0 0 4.1113,4.217 4.165,4.165 0 0 0 4.2187,-4.111 l 0.1055,-8.328 a 4.165,4.165 0 0 0 -4.1113,-4.219 z"
   id="path82" />
        </g><g
   transform="matrix(1.15702,0,0,1.15702,-988.261,-15078.8)"
   id="g83">
            <path
   style="clip-rule:nonzero;fill:#221e1f;fill-rule:nonzero;stroke-linecap:butt;stroke-linejoin:miter;stroke-dasharray:7.2, 17.47, 0, 0, 0, 0"
   d="m 1096.4707,13873.865 a 3.5999999,3.5999999 0 0 0 -3.6465,3.553 l -0.092,7.199 a 3.5999999,3.5999999 0 0 0 3.5547,3.647 3.5999999,3.5999999 0 0 0 3.6445,-3.553 l 0.094,-7.199 a 3.5999999,3.5999999 0 0 0 -3.5547,-3.647 z m -0.3164,24.668 a 3.5999999,3.5999999 0 0 0 -3.6445,3.553 l -0.094,7.199 a 3.5999999,3.5999999 0 0 0 3.5547,3.647 3.5999999,3.5999999 0 0 0 3.6445,-3.553 l 0.094,-7.199 a 3.5999999,3.5999999 0 0 0 -3.5547,-3.647 z m -0.3164,24.668 a 3.5999999,3.5999999 0 0 0 -3.6445,3.553 l -0.094,7.199 a 3.5999999,3.5999999 0 0 0 3.5547,3.647 3.5999999,3.5999999 0 0 0 3.6445,-3.553 l 0.094,-7.199 a 3.5999999,3.5999999 0 0 0 -3.5547,-3.647 z"
   id="path83" />
        </g>
</svg>
