<?xml version="1.0" encoding="UTF-8"?>
<svg id="Layer_1" data-name="Layer 1" xmlns="http://www.w3.org/2000/svg" viewBox="0 0 372.35 792.54">
  <defs>
    <style>
      .cls-1, .cls-2, .cls-3, .cls-4, .cls-5, .cls-6, .cls-7, .cls-8, .cls-9, .cls-10, .cls-11, .cls-12, .cls-13, .cls-14 {
        stroke-linecap: round;
        stroke-linejoin: round;
      }

      .cls-1, .cls-2, .cls-3, .cls-4, .cls-5, .cls-6, .cls-7, .cls-8, .cls-9, .cls-14 {
        stroke: #231f20;
      }

      .cls-1, .cls-2, .cls-3, .cls-4, .cls-5, .cls-6, .cls-7, .cls-10, .cls-11, .cls-12 {
        fill: none;
      }

      .cls-1, .cls-9 {
        stroke-width: 2px;
      }

      .cls-15 {
        fill: #a77565;
      }

      .cls-15, .cls-16, .cls-8, .cls-9, .cls-14, .cls-17 {
        fill-rule: evenodd;
      }

      .cls-16 {
        fill: #80584b;
      }

      .cls-2, .cls-14 {
        stroke-width: 1.93px;
      }

      .cls-18 {
        fill: #ed1c24;
        font-family: Arial-BoldMT, Arial;
        font-size: 33px;
        font-weight: 700;
        isolation: isolate;
      }

      .cls-3, .cls-8, .cls-12, .cls-13 {
        stroke-width: 5px;
      }

      .cls-4 {
        stroke-width: 5.05px;
      }

      .cls-5 {
        stroke-width: 3.27px;
      }

      .cls-6 {
        stroke-width: 3.64px;
      }

      .cls-7 {
        stroke-width: 3.67px;
      }

      .cls-8 {
        fill: #caad8e;
      }

      .cls-9, .cls-14 {
        fill: #221e1f;
      }

      .cls-10 {
        stroke-width: 5.5px;
      }

      .cls-10, .cls-11, .cls-12, .cls-13 {
        stroke: #221e1f;
      }

      .cls-11 {
        stroke-width: 5.5px;
      }

      .cls-13 {
        fill: #fff;
      }

      .cls-17 {
        fill: #e49e88;
      }
    </style>
  </defs>
  <rect class="cls-12" x="25.65" y="290.52" width="155.16" height="77.95" transform="translate(-202.75 169.5) rotate(-45)"/>
  <rect class="cls-12" x="135.89" y="290.52" width="155.16" height="77.95" transform="translate(-170.46 247.46) rotate(-45)"/>
  <rect class="cls-12" x="229.32" y="362.42" width="77.95" height="155.16" transform="translate(-232.55 318.59) rotate(-45)"/>
  <rect class="cls-12" x="26.18" y="400.23" width="155.16" height="77.95" transform="translate(-280.17 202.01) rotate(-45)"/>
  <rect class="cls-12" x="80.77" y="455.88" width="155.16" height="77.95" transform="translate(-303.54 256.91) rotate(-45)"/>
  <rect class="cls-12" x="146.67" y="208.1" width="77.95" height="77.95" transform="translate(-120.33 203.64) rotate(-45)"/>
  <rect class="cls-12" x="257.18" y="318.08" width="77.95" height="77.95" transform="translate(-165.73 314) rotate(-45)"/>
  <rect class="cls-12" x="201.8" y="483.7" width="77.95" height="77.95" transform="translate(-299.07 323.34) rotate(-45)"/>
  <rect class="cls-12" x="146.41" y="538.56" width="77.95" height="77.95" transform="translate(-354.08 300.24) rotate(-45)"/>
  <path class="cls-10" d="M185.64,182.49l.53-41.18"/>
  <path class="cls-11" d="M185.04,688.48l.61-47.65"/>
  <path class="cls-8" d="M7.91,758.96c-.39-1.9,28.08-37.31,47.16-41.25,27.26-5.64,22.03-19.46,105.12-32.39,34.57-5.4,92.53,15.32,94.26,16.59,24.66,18.19,30.6,9,56.9,25.63,5.01,3.16,47.78,30.11,58.49,44.07-57.65,2.68-85.22,11.28-97.15,6.76-.58-.19-11.29-7.15-11.29-3.75,0,2.24,2.06.05,29.97,10.55-21.76-1.75-30.79-3.02-33.44-3.4-18.72-2.63-16.94,6.03-18.25,8.27l-2.61-8.27c-2.27,5.06-1.87,10.26-5.21,5.64-8.34-11.43-11.96-5.06-27.37-5.64-4.36-.15-34.92-2.48-45.18-2.24-18.93.39-18.28,2.92-36.92,5.64,5.76-11.28,5.94-11.87,4.78-12.06-4.77-.78-4.43,3.06-60.38,4.13l13.9-7.54c-4.67-.19-4.73-2.04-15.64,1.51-33.8,10.99-34.87-11.58-49.09-4.52-9.72,4.82-20.07-2.14-8.07-7.73Z"/>
  <path class="cls-7" d="M260.66,720.49c17.34-.73,29.45-12.21,32.88-14.45"/>
  <path class="cls-7" d="M312.22,739.41c.95-.68,3.48-2.48,13.04-7,2.69-1.26-13.99,7.64-13.04,7Z"/>
  <path class="cls-7" d="M156.98,733.87c1.29-2.29,8.85-9.19,28.4,19.65"/>
  <path class="cls-7" d="M206.93,713.19c5.37-3.26,4.79.63,13.21,8.66,2.23,2.14-15.93-7-13.21-8.66Z"/>
  <path class="cls-7" d="M117.81,684.25c-.19.68,15.38,8.66,16.75,9.34"/>
  <path class="cls-7" d="M73.11,703.27c15.31,4.18,14.99,4.18,21.49,5.79"/>
  <path class="cls-7" d="M204.85,697c-.82-6.18,12.82-10.6,19.2-13.91"/>
  <path class="cls-7" d="M325.58,760.72c1.92.24,3.84.49,5.76.73"/>
  <g>
    <path class="cls-9" d="M247.7,674.02c-1.38-5.44-15.89,1.87-7.92,5.26,10.79,4.73,14.56-4.28,7.92-5.26Z"/>
    <path class="cls-9" d="M258.91,681.6c-.61,0-6.98-.8-7.39,1.78-.75,4.91,4.05,6.78,6.72,2.94.56-.8,1.28-4.64.67-4.73Z"/>
    <path class="cls-9" d="M268.64,688.29c-5.32-1.43-7.69-6.07-8.26-1.16-1.02,8.83,15.12,14.28,19.47,10.44,2.63-2.23-2.12-5.26-11.21-9.28Z"/>
    <path class="cls-1" d="M252.87,689.54c3.69,1.07-.81,12.94-1.69,15.7"/>
    <path class="cls-1" d="M248.85,688.02c-3.01,1.16-5.94,7.76-6.26,8.48"/>
    <path class="cls-1" d="M258.8,690.43c-.33,3.39,1.79,3.66.27,12.22"/>
    <path class="cls-1" d="M247.74,683.74c-2.83.36-3.88,1.34-5.69,1.07-3.03-.53-3.02-.27-5.81.89"/>
    <path class="cls-1" d="M244.37,671.79c-.05-.8-.46-7.05-1.69-9.28-.76-1.43-1.03-1.34-2.85-1.07"/>
    <path class="cls-1" d="M248.07,673.04c.14-.89,3.98-9.64,4.34-10.44.44-.98-1.29-1.96-1.48-2.14"/>
  </g>
  <path class="cls-15" d="M100.2,72.47s4.95,11.76,18.1,18.61c12.74,6.68,54.21,9.69,59.37,9.57,6.88-.18,48.69-5.91,57.11-9.1,14.32-5.38,21.98-10.16,28.7-24.81,0,7.21,4.63,9.87,3.35,19.49-.45,3.37-1.09,12.64,11.72,16.13,4.98,1.42,15.1,5.97,24.93,12.88,15.29,10.69,30.65,24.93,30.99,25.17-11.35.24-18.29-1.48-24.32-3.37-11.76-3.66-18.63-9.98-38.06-17.78-7.51-3.01-16.7-.24-17.94,1.42-1.98,2.66.99,23.63.46,30.72-9.56.47-11.55-4.84-19.11-10.69-7.32-5.67-8-17.43-25.59-15.18-8.91,1.12-14.28,2.84-18.72,3.9-4.65,1.12-8.21,1.6-10.94,5.26-10.24,13.59-16.82,16.84-21.56,28.47,1.14-14.71,2.63-17.6-.09-26.11-16.45,11.11-24.12,40.29-24.04,40.7.14.71-.52-.53-2.63-8.39-2.85-10.63,3.66-12.17,4.78-16.13.29-1.06,1.09-9.98-13.39-1.48-6.28,3.72-3.2,9.57-17.4,12.17,19.49-22.98,15.51-30.07,14.77-30.25-2.01-.3-19.33,1.89-22.72,3.13-9.7,3.66-9.09,4.78-18.66,8.92,10.83-14.83,13.75-19.97,9.57-18.79-7.79,2.24-10.18,4.84-19.61,8.21-9.8,3.49-10,1.83-11.38,1.83,15.4-13.88,14.71-16.25,35.06-19.2,6.17-.89,6.22-4.14,8.88-19.97.6-3.6-1.89-8.98-1.63-11.58,1.47-14.83,0-13.76,0-13.76Z"/>
  <path class="cls-16" d="M260.94,76.54c3.43,6.68-31.21,19.97-31.42,21.03-.32,1.6.63,1.3,5.26,19.97,3.17,12.82,3.3,12.7,10.04,24.04.81-17.07.41-29.06,13.17-29.83,6.09-.3,13.18-1.95,42.36,10.69-4.52-5.61-4.88-5.26-33.03-20.56-9.92-5.38-3.53-8.8-4.66-34.15l-1.71,8.8Z"/>
  <path class="cls-17" d="M117.99,54.57c.25-2.24,52.96-18.31,105.54-9.51,18.25,3.07,17.57,4.96,20.33,6.97,8.43,6.2,21.72,5.38,17.7,18.31-2.45,7.92-2.81,8.21-14.59,14.71-9.36,5.2-27.17,11.28-47.83,14.06-32.06,4.31-69.78,2.36-84.19-9.75-3.3-2.72-4.74-1.06-12.2-11.05-3.57-4.78,1.24-16.48,15.24-23.75Z"/>
  <path class="cls-3" d="M57.95,137.47c15.99-26.26,40.47-7.36,42.55-32.42,2.28-27.4-8.99-34.07,12.65-48.4,18.51-12.27,83.83-23.16,127.91-6.36,16.36,6.25,20.18,10.82,23.72,19.23,4.89,11.63,1.56,22.71,1.61,24.05.36,9.04,25.55,10.62,35.77,19.57,21.81,19.12,43.56,29.59,22.82,27.69-20.72-1.9-65.48-32.84-72.15-18.23-1.21,2.63-.55,2.66,1.91,28.29-5.23-.36-6.95,3.3-16.09-8.7-19.09-25.1-23.75-16.15-53.03-10.82-3.03.56-1.41,2.54-26.93,30.06-1.92-15.28,7.39-27.18-3.58-23.16-3.62,1.32-19.45,38.07-19.64,40.16-4.35-7.5-5.02-12.94-.37-20.68,7.51-12.47-5.33-8.28-5.86-8.08-7.86,2.88-14.73,14.12-23.07,14.12,1.94-2.57,19.79-22.25,18.4-28.36-.21-.91-18.6-7.9-44.72,11.31-3.65-8.41,19.85-19.39,11.11-19.55-3.21-.04-33.46,13.74-32.98,10.26Z"/>
  <path class="cls-3" d="M102.76,75.15c7.68,39.09,159.56,29.99,159.34-8.46"/>
  <path class="cls-5" d="M124.78,63.43c68.15-21.44,112.42-7.32,116.7-3.66,2.26,1.95,13.4,16.84-29.18,23.1"/>
  <path class="cls-5" d="M118.78,67.92c-2.16.24-10.89,8.92,6.69,15.42,19.52,7.27,65.18,3.84,74.62,1.48"/>
  <path class="cls-5" d="M194.39,58.88c-23.78-3.6-43.91,6.91-47.39,10.75-10.93,11.99,15.08,10.28,21.53,10.1"/>
  <path class="cls-5" d="M213.01,62.48c3.85-3.13,11.07,3.84,9.81,6.68-1.81,4.08-14.44,5.26-14.59,5.32"/>
  <path class="cls-5" d="M168.99,71.4c.74-.12,13.19,4.08,27.52-3.72"/>
  <path class="cls-6" d="M132.77,54.98c4.09.37,10.47,2.64,37.18,7.91"/>
  <path class="cls-4" d="M118.81,86.06c15.13-8.59,41.03-13.24,44.71-13.94"/>
  <path class="cls-5" d="M210.35,67.62c28.28,1.24,45.21,5.02,49.07,5.85"/>
  <g>
    <path class="cls-14" d="M210.76,11.76c-3.29-3.3-16.87.79-11.9,7.46,3.04,4.03,23.53,2.84,11.9-7.46Z"/>
    <path class="cls-14" d="M198.68,21.07c-6.98-4.69-12.08,2.11-9.22,5.81,2.12,2.77,11.96-1.85,9.22-5.81Z"/>
    <path class="cls-14" d="M186.83,24.11c-10.49-6.01-22.95,7.19-24.37,8.71,20.8,12.21,29.36-4.88,24.37-8.71Z"/>
    <path class="cls-2" d="M189.97,28.73c-4.16,1.91-6.98,17.82-6.11,19.54"/>
    <path class="cls-2" d="M193.2,29.25c-2.05,9.5-3,9.31-2.75,19.01"/>
    <path class="cls-2" d="M196.71,27.74c6.33,3.56,4.61,8.25,4.61,13"/>
    <path class="cls-2" d="M198.96,23.71c-.81.33,6.78-2.97,7.29,8.25"/>
    <path class="cls-2" d="M207.99,10.25c-.24-.46,6.03-7.92,6.34-8.38,1.64-2.51,5.12.99,5.43,1.32"/>
    <path class="cls-2" d="M211.72,12.16c1.27-2.97,7.05-7.59,11.17-2.05"/>
  </g>
  <circle class="cls-13" cx="240.77" cy="357.56" r="23.39"/>
  <circle class="cls-13" cx="240.77" cy="248.05" r="23.39"/>
  <circle class="cls-13" cx="240.77" cy="575.31" r="23.39"/>
  <circle class="cls-13" cx="240.77" cy="466.9" r="23.39"/>
  <circle class="cls-13" cx="130.79" cy="357.56" r="23.39"/>
  <circle class="cls-13" cx="130.79" cy="248.05" r="23.39"/>
  <circle class="cls-13" cx="130.79" cy="575.31" r="23.39"/>
  <circle class="cls-13" cx="185.91" cy="412.15" r="23.39"/>
  <circle class="cls-13" cx="185.91" cy="522.4" r="23.39"/>
  <circle class="cls-13" cx="76.82" cy="522.4" r="23.39"/>
  <circle class="cls-13" cx="295.42" cy="522.4" r="23.39"/>
  <circle class="cls-13" cx="295.42" cy="412.15" r="23.39"/>
  <circle class="cls-13" cx="76.82" cy="412.15" r="23.39"/>
  <circle class="cls-13" cx="295.42" cy="301.91" r="23.39"/>
  <circle class="cls-13" cx="185.91" cy="301.91" r="23.39"/>
  <circle class="cls-13" cx="185.91" cy="191.67" r="23.39"/>
  <circle class="cls-13" cx="185.38" cy="632.64" r="23.39"/>
  <text class="cls-18" transform="translate(175.85 202.14)"><tspan x="0" y="0">1</tspan></text>
</svg>