<?xml version="1.0" encoding="UTF-8"?>
<svg xmlns="http://www.w3.org/2000/svg" xmlns:xlink="http://www.w3.org/1999/xlink" viewBox="0 0 1615.6 295.54">
  <defs>
    <style>
      .cls-1 {
        fill: #954d23;
      }

      .cls-2 {
        fill: #d2ceb9;
      }

      .cls-3 {
        fill: #996d25;
      }

      .cls-4 {
        fill: #635837;
      }

      .cls-4, .cls-5, .cls-6, .cls-7, .cls-8, .cls-9, .cls-10, .cls-11, .cls-12, .cls-13 {
        mix-blend-mode: multiply;
        opacity: .32;
      }

      .cls-14 {
        fill: #cdae8b;
      }

      .cls-14, .cls-15, .cls-16, .cls-17, .cls-18 {
        opacity: .74;
      }

      .cls-19 {
        fill: #c5c1aa;
      }

      .cls-20, .cls-21, .cls-22, .cls-23 {
        fill: none;
      }

      .cls-20, .cls-22 {
        stroke-miterlimit: 10;
      }

      .cls-20, .cls-22, .cls-23, .cls-24, .cls-25, .cls-26, .cls-27 {
        stroke: #231815;
      }

      .cls-20, .cls-23 {
        stroke-width: 2px;
      }

      .cls-28 {
        fill: #fff;
      }

      .cls-29 {
        fill: #989368;
      }

      .cls-15 {
        fill: #823e21;
      }

      .cls-5 {
        fill: #6d6b46;
      }

      .cls-22, .cls-24, .cls-25, .cls-26, .cls-27 {
        stroke-width: 3px;
      }

      .cls-23, .cls-24, .cls-25, .cls-26, .cls-27 {
        stroke-linecap: round;
        stroke-linejoin: round;
      }

      .cls-30 {
        fill: #5d7467;
      }

      .cls-6 {
        fill: #6c2d30;
      }

      .cls-7 {
        fill: #2a0602;
      }

      .cls-8 {
        fill: #685d3c;
      }

      .cls-16 {
        fill: #e2caaa;
      }

      .cls-24 {
        fill: #e4ded2;
      }

      .cls-31 {
        fill: #632917;
      }

      .cls-32 {
        isolation: isolate;
      }

      .cls-25 {
        fill: #baae8e;
      }

      .cls-33 {
        fill: #ac8458;
      }

      .cls-34 {
        fill: #231815;
      }

      .cls-35 {
        fill: #87544f;
      }

      .cls-9 {
        fill: #72714b;
      }

      .cls-10 {
        fill: #765040;
      }

      .cls-17 {
        fill: #d5d0ba;
      }

      .cls-11 {
        fill: #878558;
      }

      .cls-36 {
        fill: #9f5423;
      }

      .cls-18 {
        fill: #dcd7c0;
      }

      .cls-26 {
        fill: #9c9787;
      }

      .cls-12 {
        fill: #361807;
      }

      .cls-37 {
        clip-path: url(#clippath);
      }

      .cls-13 {
        fill: #7c6f48;
      }

      .cls-27 {
        fill: #d0c29e;
      }
    </style>
    <clipPath id="clippath">
      <path class="cls-21" d="M1074.06,182.53s-11.18,6.43-19.8,3.89c-6.89-2.02-11.41-12.7-12.77-15.37-3.06-6.01,6.46-28.33,6.46-28.33l6.89-7.49-10.07-7.01v-4.7h10.07v-16.81l-10.07-15.31,6.24-10.89v-12.12c0-2.32,3.83-40.57,3.83-40.57h-425.46l8.43,9.96-6.89,13.79,6.13,11.55-2.3,7.6-8.43,14.18,3.06,8.01,3.06,18.12-2.3,5.66-5.21,26.05,21.42,16.85-13.91,13.78-3.06,20.86s-1.53,18.69,3.06,26.11c4.6,7.42,422.39,0,422.39,0,0,0,7.91-2.54,8.17-7.65l11.05-30.14Z"/>
    </clipPath>
  </defs>
  <g class="cls-32">
    <g id="_圖層_1" data-name="圖層 1">
      <g>
        <g>
          <path class="cls-27" d="M1054.88,194.21s-10.29-17.15-13.35-23.15c-3.06-6.01,6.46-28.33,6.46-28.33l6.89-7.49-10.07-7.01v-4.7h10.07v-16.81l-10.07-15.31,6.24-10.89v-12.12c0-2.32,3.83-40.57,3.83-40.57h-425.46l8.43,9.96-6.89,13.79,6.13,11.55-2.3,7.6-8.43,14.18,3.06,8.01,3.06,18.12-2.3,5.66-5.21,26.05,21.42,16.85-13.91,13.78-3.06,20.86s-1.53,18.69,3.06,26.11c4.6,7.42,422.39,0,422.39,0,0,0,7.91-2.54,8.17-7.65l-8.17-18.46Z"/>
          <path class="cls-26" d="M632.48,220.32s-21.64-12.42-21.45-37.79c0,0,42.73,10.65,76.26,10.69,33.53.03,352.4-1.5,352.4-1.5l34.36-9.19s-1.56,34.63-19.18,37.79c-17.62,3.16-405.03,5.61-422.39,0Z"/>
        </g>
        <g class="cls-37">
          <path class="cls-17" d="M924.01,29.01c-40.45,2.13-79.45,2.4-119.37,4.31-41.34,1.98-84.36,3.24-125.3,4.47-14.39.43-28.96.98-43.61,1.56-6.64,1.93-12.11,3.94-16.61,6.03,33.4-.92,67.69-2.79,101.86-4.42,46.33-2.2,91.66-4.15,136.8-4.71,33.77-.42,160.47,1.46,196.26-2.7,14.75-1.71,26.71-4.39,43.8-5.94,14.27-1.3-23.75.29-10.78-1.83-44.84,3.89-118.63.89-163.04,3.23Z"/>
          <path class="cls-17" d="M904.28,100.24c-40.54.3-79.63-2.4-119.65-2.43-41.44-.03-84.55-1.39-125.6-2.63-14.42-.44-29.03-.7-43.71-.92-6.65,2.69-12.13,5.62-16.63,8.76,33.48,1.16,67.85.79,102.09.83,46.44.06,91.88.46,137.12,3.17,33.85,2.03,160.69,9.2,196.54,5.12,14.78-1.68,26.76-5.19,43.88-6.41,14.3-1.02-23.81-1.43-10.81-3.94-44.94,2.9-118.73-1.88-163.24-1.55Z"/>
          <path class="cls-17" d="M919.26,43.91c-48.14,2.45-93.44,3.18-140.91,4.82-40.54,1.4-82.01,3.03-122.55,3.97-13.68.32-26.67.59-39.6.97-3.07,2.18-5.33,4.41-6.99,6.68,15-.89,29.92-1.63,44.83-1.99,42.74-1.05,86.4-2.53,129.81-4.26,46.53-1.85,96-4.64,140.96-5.86,33.35-.9,129.05,1.09,149.75,5.25,2.08-4.07,11.58-11.18,28.81-14.61-31.18-.09-150.15,3.31-184.11,5.03Z"/>
          <path class="cls-17" d="M919.26,120.17c-48.14,2.45-93.44,3.18-140.91,4.82-40.54,1.4-82.01,3.03-122.55,3.97-13.68.32-26.67.59-39.6.97-3.07,2.18-5.33,4.41-6.99,6.68,15-.89,29.92-1.63,44.83-1.99,42.74-1.05,86.4-2.53,129.81-4.26,46.53-1.85,96-4.64,140.96-5.86,33.35-.9,129.05,1.09,149.75,5.25,2.08-4.07,11.58-11.18,28.81-14.61-31.18-.09-150.15,3.31-184.11,5.03Z"/>
          <path class="cls-17" d="M919.26,144.63c-48.14,2.45-93.44,3.18-140.91,4.82-40.54,1.4-82.01,3.03-122.55,3.97-13.68.32-26.67.59-39.6.97-3.07,2.18-5.33,4.41-6.99,6.68,15-.89,29.92-1.63,44.83-1.99,42.74-1.05,86.4-2.53,129.81-4.26,46.53-1.85,96-4.64,140.96-5.86,33.35-.9,129.05,1.09,149.75,5.25,2.08-4.07,11.58-11.18,28.81-14.61-31.18-.09-150.15,3.31-184.11,5.03Z"/>
          <path class="cls-17" d="M596.52,71.33c.06.12.18.23.25.35,20.41-1.34,41.75-.18,62.43-1.42,43.89-2.63,88.23-4.27,132.2-6.31,41.81-1.94,78.71-3,118.46-2.73,25.3.17,146.23.99,173.05-3.24-119.85-4.73-349.94,2.59-486.39,13.35Z"/>
          <path class="cls-17" d="M606.04,182.53c.06.12.18.23.25.35,20.41-1.34,41.75-.18,62.43-1.42,43.89-2.63,91.27-.21,135.24-2.25,41.81-1.94,78.71-3,118.46-2.73,25.3.17,143.2-3.07,170.01-7.31-119.85-4.73-349.94,2.59-486.39,13.35Z"/>
          <path class="cls-17" d="M596.52,119.74c.06.12.18.23.25.35,20.41-1.34,41.75-.18,62.43-1.42,43.89-2.63,88.23-4.27,132.2-6.31,41.81-1.94,78.71-3,118.46-2.73,25.3.17,146.23.99,173.05-3.24-119.85-4.73-349.94,2.59-486.39,13.35Z"/>
          <path class="cls-17" d="M1097.28,156.75c-9.41-2.49-28.67-1.16-46.12-.62-46.16,1.43-164.59-1.08-210.56.64-49.34,1.85-98.47,4.62-148.21,7.04-22.22,1.08-45.84,1.32-68.88,2.12.03.01.05.03.08.04,4.63,2.49,16.08,3.61,29.38,3.14,66.06-2.33,133.36-4.78,201.58-6.7,44.1-1.24,164.82-2.06,209.78-3.33,11.28-.32,23.82-.46,36.94-.57-.87-.68-2.13-1.28-3.98-1.77Z"/>
          <g>
            <path class="cls-13" d="M1080.8,191.3c-5.33-3.27-23.3-28.81-20.9-32.4-11.62.51-145.14,24.22-154.65,24.71-67.89,3.54-97.43,3.75-156.16.8-47.19-2.37-96-11.64-144.89-12.1-3.54-.03-7.06-.1-10.6-.14-.58,1.3-1.07,2.61-1.4,3.94-1.05,4.19,101.85,17.38,137.27,18.37,1.35.04,2.69.07,4.04.11,9.63.27,19.3.56,28.98.85,2.68.08,5.35.15,8.04.24,12.11.37,24.26.76,36.43,1.17,9.99.34,19.96.7,29.93,1.08,29.92,1.13,59.86,2.37,90.41,3.4,2.12.07,4.31.16,6.52.25,27.64,1.16,154.19-5.84,146.97-10.27Z"/>
            <path class="cls-11" d="M1107.24,206.16c.08,0,.17,0,.25,0-.08,0-.17,0-.25,0Z"/>
            <path class="cls-11" d="M1103.5,206.15c.44,0,.89.01,1.34.01-.45,0-.9,0-1.34-.01Z"/>
          </g>
          <g>
            <path class="cls-4" d="M1063.02,84.35c-5.3-1.61-.86-16.69,1.58-18.53-11.62.37-145.36,12.93-154.88,13.27-67.91,2.45-97.44,2.84-156.14,1.91-47.16-.75-95.87-4.97-144.74-4.74-3.54.02-7.06.02-10.59.03-.6.66-1.09,1.33-1.44,2.01-1.09,2.13,1.07,3.87,5.63,5.4,4.04,1.35,14.25,2.16,26.28,2.2,34.7.12,69.75.23,105.15.39,1.35,0,2.69.01,4.04.02,9.63.04,19.29.1,28.97.15,2.68.02,5.35.03,8.03.04,12.11.07,24.25.15,36.41.24,9.99.07,19.95.16,29.92.26,29.9.28,59.82.63,90.36.85,2.12.02,4.31.04,6.52.06,27.62.32,132.87,1.34,164.94,1.42-21.53-.25-32.87-2.8-40.04-4.98Z"/>
            <path class="cls-5" d="M1103.06,89.33c.98.01,2,.02,3.04.02-1.04,0-2.06,0-3.04-.02Z"/>
            <path class="cls-5" d="M1111.47,89.31c.08,0,.17,0,.25,0-.08,0-.17,0-.25,0Z"/>
            <path class="cls-5" d="M1107.73,89.34c.44,0,.89,0,1.34,0-.45,0-.9,0-1.34,0Z"/>
          </g>
        </g>
      </g>
      <path class="cls-34" d="M834.55,272.01c.75.81,2.13,1.53,3.42,1.53,2.28,0,4.08-1.62,4.29-6.51-1.08,1.44-2.97,2.25-4.26,2.25-3.75,0-6.54-2.22-6.54-7.02s3.36-7.56,7.35-7.56c4.23,0,8.34,3.21,8.34,11.31s-4.26,11.85-8.82,11.85c-3,0-5.16-1.26-6.57-2.67l2.79-3.18ZM842.17,263.43c-.45-3.69-1.86-4.74-3.24-4.74s-2.61.99-2.61,3.57c0,2.4,1.2,3.27,2.7,3.27,1.08,0,2.28-.57,3.15-2.1Z"/>
      <g>
        <line class="cls-22" x1="1080.8" y1="132.93" x2="1134.64" y2="132.93"/>
        <polygon class="cls-34" points="1130.26 147.89 1156.16 132.94 1130.26 117.98 1130.26 147.89"/>
      </g>
      <g>
        <line class="cls-22" x1="485.47" y1="132.93" x2="539.3" y2="132.93"/>
        <polygon class="cls-34" points="534.93 147.89 560.83 132.94 534.93 117.98 534.93 147.89"/>
      </g>
      <g>
        <g>
          <path class="cls-25" d="M1201.6,113.68c1.84-1.8,4.09-2.95,6.48-3.36,27.24-4.73,224.88,1.32,254.67,3.09,32.92,1.95,23.14-4.93,58.02-2.83,11.85.71,32.57.88,44.49,2.13-7.17,13.61-8.31,35.47-6.24,50.1-8.97.14-17.32-1.99-25.08-2.16-10.65-.24.03-.05-10.42-.29-25.93-.6-29.09,1.25-53.51.91-33.63-.46-231.73-.67-262.57-5.17-4.33-.63-8.22-3.67-10.25-8.19-4.73-10.51-5.32-24.71,4.42-34.22Z"/>
          <path class="cls-18" d="M1546.36,115.66c-10.05,2.48-22.08.91-32.36,1.8-9.37.81,2.35.6-6.94,1.19-9.62.61-19.8.43-29.48.29-12.43-.18-3.2,2-15.73,1.28-6.4-.37-41.04-.41-47.38.31,9.93,3.18-.07,1.15,10.26,3.06,11.78,2.18,51.83.82,63.66.08,10.78-.67,21.37-1.12,32.22-.13,8.12.74-.52,3.54,7.27.47,3.21-1.27,5.54-3.62,9.35-4.64,3.18-.85,6.44-1.97,9.13-3.71Z"/>
          <path class="cls-18" d="M1408.17,122.36c-7.29-3.15-44.28-4.93-51.94-6.79-7.06-1.72-14.43-.07-21.62,1.01-3.7.55-116.01,1.27-119.72,1.77-1.86.25-3.96.11-5.73.6,7.49,2.77,124.23,4.15,132.07,2.47-5.07,1.1-118.63,2.62-123.7,3.72-4.12.9-10.23.87-13.8,2.94,1.12-.65,3.96-.64,5.35-.88,2.27-.38,4.59-.58,6.87-.89,4.72-.63,118.07-1.28,122.83-1.47,18.1-.71,65.33,2.55,83.05,4.56,6.05.69,38.01-1.61,43.99-1.24-9.6-2.51-48.38-1.8-57.64-5.8Z"/>
          <path class="cls-18" d="M1420.68,130.89c8.25-1.79,43.88-1.22,52.25-.84,9.65.44,19.37.18,28.92.14,11.18-.05.89-.11,12.06-.98,7.88-.61,17.35-2.68,24.95-1.5-3.44,2.96-4.2,10.01-3.82,14.16-5.94-5.04-10.93-7.75-18.84-7.98-10.66-.3-.94,1.75-11.85,2.05-10.18.28-20.46.3-30.62-.1-9.95-.39,2.65,3.15-7.5,3.95-17.49,1.38-92.44-1.53-109.74-2.31-12.14-.55-132.91-2.03-144.72-3.95,8.5-1.68,125.3-3.12,133.88-2.74,9.15.4,47.63,3.83,56.88,3.63,8.03-.17,16.31.51,24.25-.02,4.58-.31-9.4-.09-6.1-3.54Z"/>
          <path class="cls-18" d="M1403.37,143.83c-10.35-.33-49.7-.12-60.04-1.74-8.93-1.4-126.65-2.95-135.52-4.28-4.41-.66-9.15-1.73-13.8-1.87.21,2.34.67,4.66,1.31,6.88,1.8.27,3.6.6,5.5,1.06,11.32,2.72,131.1,1.77,142.48,3.1,10.68,1.25,50.07,2.36,60.81,2,24.85-.83,57.95-.35,81.99-7.54-15.33-4.41-41.47,1.91-57.21,2.92-8.43.54-17.23-.27-25.53-.54Z"/>
          <path class="cls-18" d="M1465.11,150c30.89-6.47,45.51-9.65,75.77-.55-5.59,3.46-16.46,1.08-22.65.02-9.72-1.66,2.68-.97-7.06-.41-10.24.59-20.66.75-30.75,1.95-5.47.65-11.84-2.03-16.91-.21-.96-.2,1.33-.5,1.6-.8Z"/>
          <path class="cls-18" d="M1355.12,152.9c-9.37-.58-43.36-1.82-52.61-2.83-5.63-.62-97.35-1.09-104.09.06,1.52,2.29,3.57,4.04,5.89,5.06.24-.01.49-.03.73-.04,16.94-.24,180.29,3.4,197.28,2.33,9.08-.57,10.01-1.62,19.13-2.01,9.4-.41-1.84-.04,7.26-2.38-2.14-1.17,45.37.17,42.94.01-19.81-1.28-96.63,1.04-116.53-.2Z"/>
          <path class="cls-18" d="M1523.52,160.35c10.45.24-.23.04,10.42.29,2.67.06,5.69.35,8.85.69-.36-.73-.8-1.4-1.35-1.98-2.83-2.91-7.22-2.2-11.34-2.24-10.91-.12-.4-3.3-11.2-3.1-11.59.21-22.93,1.37-34.49,2.15-7.54.51-44.5-.99-51.8.39-2.65.5,44.24,2.95,41.41,4.74,23.16.2,24.98-1.52,49.5-.94Z"/>
          <path class="cls-19" d="M1580.21,139.46c-.8,6.09-3.29,12.35-7.1,16.76-3.04,3.51-9.4,6.84-14.08,6.58-5.67-.31-9.8-5.44-12.66-9.83-3.38-5.17-3.77-11.53-3.06-17.52.52-4.38,1.84-8.99,4.71-12.32,5.52-6.43,12.55-13.89,21.63-8.87,2.03,1.12,3.78,1.56,5.36,3.43,1.4,1.67,2.37,3.69,3.35,5.62,1.8,3.58,1.98,6.92,2.13,10.83.07,1.72-.02,3.51-.26,5.32Z"/>
          <path class="cls-29" d="M1568.14,117.49c-7.78-1.24-15.77,8.37-18.3,14.6-2.56,6.3.2,17.13,4.57,22.23,1.84,2.15,6.05,2.93,8.71,2.47,3.68-.63,6.7-4.3,8.6-7.25,2.28-3.56,5-7,5.58-11.34.55-4.09-.5-8.76-2.29-12.42-1.95-3.97-2.71-7.63-6.86-8.29Z"/>
          <path class="cls-2" d="M1566.74,121.25c-3.93-.35-8.84,3.6-11.15,6.59-2.18,2.82-3.55,7.22-3.5,10.71.06,5.26,2.37,17.19,9.78,15.49,6.25-1.43,11.5-10.41,12.18-16.5.36-3.22-.29-7.72-1.44-10.82-1.23-3.29-2.29-5.15-5.86-5.47Z"/>
          <path class="cls-29" d="M1566.67,124.96c-4.41-1.23-8.7,3.79-10.26,7.23-1.5,3.3-1.36,7.89-.64,11.44.66,3.24,2.38,8.07,6.58,6.62,4.41-1.52,6.29-7.16,7.99-11.08,1.49-3.41,1.35-5.69.24-9.18-.76-2.39-1.14-4.25-3.92-5.02Z"/>
          <path class="cls-2" d="M1564.88,128.86c-4.63.69-6.81,6.86-6.8,10.82,0,2.83.04,8.65,4.4,6.22,2.73-1.52,6.04-6.45,6.14-9.59.07-2.31-.26-7.97-3.75-7.45Z"/>
          <path class="cls-29" d="M1564.55,133.24c-3.16.49-6.25,9.07-2.07,8.49,3-.41,5.5-9.02,2.07-8.49Z"/>
          <path class="cls-29" d="M1548.71,117.9c2.01.47,6.31,1.93,8.32,2.3-.8-.63-3.97-3.93-4.87-4.18-1.16-.32-2.45,1.3-3.45,1.74.26-.04-.24.23,0,.14Z"/>
          <path class="cls-29" d="M1540.86,136.41c1.51-.32,5.53-1.19,6.97-.71-.84.48-3.24,1.5-4.11,1.98-.8.44-1.74.63-2.47,1.1-.37-.92-.23-1.41-.39-2.37Z"/>
          <path class="cls-29" d="M1543.96,152.99c1.22-1.55,4.43-2.89,6.22-3.53-1.63,1.71-3.58,4.15-5.14,5.75-.53-.7-.95-1.35-1.08-2.22Z"/>
          <path class="cls-29" d="M1564.97,157.5c.13.87.97,2.82,1.2,3.66.64-.29,1.28-.62,1.89-.97-.7-.69-2.58-2.32-3.1-2.69Z"/>
          <path class="cls-29" d="M1576.79,150.63c-1.04-.24-2.95-1.12-3.65-.92.47.87,1.87,2.26,2.57,2.89.38-.64.74-1.3,1.08-1.97Z"/>
          <path class="cls-29" d="M1572.8,119.66c.44-.47,1.52-1.68,1.99-2.18-.31-.34-.63-.65-.95-.9-.31.78-1.08,2.35-1.04,3.08Z"/>
          <g>
            <path class="cls-8" d="M1546.36,152.97c-2.12-3.24-3.06-6.95-3.3-10.74-2.31.71-4.76,1.75-6.24,1.8-5.87.19-11.7.53-17.57.86-12.47.7-2.98-3.71-15.36-4.79-12.52-1.1-25.03-.28-37.53.65-12.72.95-31.89,1.83-44.58,3.12-11.33,1.15-52.23,2.97-63.64,3.18-19.8.36-148.26-6.2-163.96-18.45-.42,2.99-.38,6.04.04,9.01,0,.07.02.13.03.2.16,1.09.36,2.16.61,3.22.02.08.04.15.05.23.56,2.32,1.34,4.55,2.28,6.64.79,1.76,1.86,3.29,3.13,4.54.03.03.06.06.09.09.19.19.39.37.59.54.06.05.12.1.18.15.18.15.36.29.54.43.07.05.14.11.22.16.18.13.36.25.54.37.08.05.15.1.23.15.19.12.39.23.59.35.07.04.13.08.2.11,1.24.66,2.57,1.1,3.95,1.3,30.84,4.5,228.94,4.71,262.57,5.17,18.02.25,14.49-1.13,33.31-1.12.35,0,.7,0,1.05,0,2.51,0,5.02.02,7.55.04.7,0,1.39,0,2.09.01,3.16.03,6.33.08,9.51.16,2.61.06,5.22.15,7.84.25,7.85.3-5.41-.14,2.58.04.55.01,1.13.04,1.71.07,7.28.41,15.06,2.22,23.37,2.09-5.67-.31-9.8-5.44-12.66-9.83Z"/>
            <path class="cls-9" d="M1559.02,162.8c.26.01.52.01.79,0-.27,0-.53,0-.79,0Z"/>
            <path class="cls-9" d="M1561.18,162.69s.04,0,.06,0c-.02,0-.04,0-.06,0Z"/>
            <path class="cls-9" d="M1560.23,162.78c.11,0,.23-.02.34-.03-.11.01-.23.02-.34.03Z"/>
          </g>
        </g>
        <path class="cls-23" d="M1580.47,134.14c-.15-3.91-.33-7.25-2.13-10.83-.97-1.94-1.95-3.95-3.35-5.62-.07-.08-.13-.14-.2-.21h0s0,0,0,0c-1.52-1.69-3.21-2.15-5.15-3.22-1.52-.84-2.98-1.32-4.38-1.53,0,0,0-.02.01-.02-11.92-1.24-32.65-1.42-44.49-2.13-34.88-2.1-25.1,4.78-58.02,2.83-29.79-1.77-227.43-7.82-254.67-3.09-2.39.41-4.64,1.57-6.48,3.36-4.38,4.28-6.67,9.5-7.43,14.92,0,0,0,0,0,0,0,0,0,.01,0,.02-.1.74-.18,1.48-.23,2.23,0,0,0,.01,0,.02-.05.75-.07,1.5-.06,2.24,0,0,0,.01,0,.02,0,.75.04,1.5.09,2.24,0,0,0,0,0,.01.01.19.03.38.05.57h0s0,0,0,0c.05.56.12,1.11.19,1.66,0,.07.02.13.03.2,0,0,0,0,0,0,0,0,0,0,0,0,.16,1.09.36,2.16.61,3.22.02.08.04.15.05.23,0,0,0,0,0,0,0,0,0,0,0,0,.13.53.27,1.05.42,1.57,0,0,0,0,0,0h0c.18.61.37,1.21.57,1.8,0,.01,0,.03.01.04.18.51.36,1.02.56,1.52.03.09.07.18.11.26.2.49.4.97.61,1.45.18.4.37.77.58,1.15.04.08.08.15.13.23.17.29.34.58.53.85h0s0,0,0,0c.05.07.1.15.15.22,0,0,0,.01.01.02.25.36.51.7.78,1.02.02.03.04.06.07.08.28.34.58.66.88.96.03.03.06.06.09.09,0,0,0,0,0,0h0c.19.19.38.37.58.54h0s0,0,0,0c.06.05.11.1.17.15,0,0,0,0,0,0,0,0,0,0,0,0,.18.15.36.29.54.43.07.05.14.11.22.16,0,0,0,0,0,0s0,0,0,0c.18.13.36.25.54.37.08.05.15.1.23.15.19.12.39.23.59.34h0s0,0,0,0c.06.04.13.07.19.11.27.14.54.28.82.4,0,0,0,0,0,0h0s.06.03.1.04c.05.02.09.04.14.06.25.1.5.2.75.29.09.03.17.06.26.08.23.07.45.14.68.19.09.02.17.05.26.07.31.07.62.13.94.18,30.84,4.5,228.94,4.71,262.57,5.17.57,0,1.12.01,1.65.02,1.24.01,2.42.02,3.55.02,20.03.12,23.68-1.23,42.29-1.05,2.01.03,4.01.05,6.02.1,2.58.06,5.17.15,7.76.25.03-.01.71,0,2.66.04.55.01,1.13.04,1.71.07,0,0,0,0,.01,0,3.3.19,6.7.66,10.2,1.11.07,0,.15.02.22.03.38.05.77.1,1.15.15.77.1,1.55.19,2.34.28.19.02.38.04.57.06.84.09,1.69.17,2.55.24.14.01.28.02.43.03.9.07,1.8.12,2.71.16.09,0,.18,0,.27,0,.97.03,1.94.05,2.92.03,2.19.12,4.74-.55,7.16-1.65h0s0,0,0,0c2.75-1.25,5.31-3.07,6.93-4.93.95-1.1,1.82-2.32,2.6-3.61h0s0,0,0,0c.15-.25.28-.51.42-.76.22-.4.46-.79.66-1.21,0,0,0,0,0,0,1.74-3.46,2.91-7.35,3.42-11.18.24-1.81.33-3.6.26-5.32Z"/>
      </g>
      <g>
        <g>
          <path class="cls-3" d="M389.99,116.14c-20.13-.99-3.8.49-23.09,1.48-5.18.27-10.09,2.95-12.81,7.49-3.95,6.57-3.9,14.83-2.54,23.56.64,4.13,1.92,7.47,3.69,10.36,1.57,2.57,4.43,4,7.4,3.95,14.81-.28-6.03-.63,9.36-.44,9.95.12,19.92.66,30.06.78,7.4.09,15.34,2.01,23.88,1.79-1.83-13.8-.53-34.47,6.43-47.41-11.35-1.06-31.1-1.01-42.38-1.56Z"/>
          <path class="cls-15" d="M383.48,122.72c-8.93.86-17.9-.07-26.76.59-9.17.68,17.05.61,7.83.57-3.24-.01-6.5.08-9.78.2-1.15,1.68-2.02,3.49-2.65,5.39,7.54.11,15.1-.68,22.69-1.23,10.28-.75-15.54-1.27-5.21-.45,7.73.62,19.61,3.97,27.06.98,3.07-1.23,5.31-3.48,8.96-4.48,3.04-.84,6.15-1.92,8.73-3.6-9.6,2.45-21.05,1.09-30.86,2.03Z"/>
          <path class="cls-15" d="M383.28,133.83c-10.65.93-20.98.27-31.64.43-9.1.14,17.55.47,8.36.16-3.1-.11-6.05-.24-8.97-.26-.28,2.04-.36,4.15-.3,6.33,3.29-.41,6.6-.68,9.97-.59,9.68.27-16.44.15-6.74-.22,10.4-.4,21.29-1.63,31.45-1.45,7.54.13,12.27,2.65,17.88,7.35-.32-3.92.47-10.59,3.77-13.42-7.23-1.04-16.28,1.01-23.79,1.67Z"/>
          <path class="cls-15" d="M350.96,144.06c.14,1.52.34,3.06.58,4.62.04.26.11.47.16.73,7.06-.93,14.01-2.28,20.75-4.34-6.54-1.8-13.95-1.73-21.49-1Z"/>
          <path class="cls-15" d="M352.65,153.3c.04.12.09.23.13.35,4.46-.69,9.62,1.09,14.16.51,9.63-1.24-16.36-1.5-6.59-2.16,9.29-.62,17.61-.54,26.86.93,5.89.93,16.22,3.08,21.59-.25-28.66-8.27-26.71-5.76-56.14.62Z"/>
          <path class="cls-15" d="M409.23,162.03c-2.67-2.72-6.86-2-10.79-2-10.39,0-20.49-3.72-30.78-3.43-11.04.32,14.06,1.52,3.04,2.39-4.93.38-10.34-.11-15.51-.02,0,.01.02.03.03.04,1.56,2.58,4.43,4.02,7.41,3.96,14.82-.27-6.02-.62,9.37-.43,9.95.12,19.92.66,30.06.78,2.55.03,5.42.27,8.43.56-.33-.69-.75-1.32-1.27-1.85Z"/>
          <path class="cls-36" d="M446.37,142.84c-.82,5.76-3.25,11.71-6.93,15.91-2.93,3.34-9.02,6.56-13.49,6.36-5.4-.24-9.28-5.04-11.98-9.16-3.17-4.85-3.49-10.86-2.75-16.53.54-4.15,1.84-8.51,4.6-11.69,5.33-6.13,12.09-13.25,20.7-8.61,1.92,1.04,3.59,1.43,5.07,3.19,1.32,1.56,2.23,3.46,3.14,5.28,1.68,3.37,1.82,6.52,1.93,10.21.05,1.63-.06,3.32-.3,5.03Z"/>
          <path class="cls-31" d="M435.08,122.19c-7.4-1.09-15.11,8.07-17.58,13.98-2.5,5.98.02,16.19,4.14,20.96,1.74,2.01,5.74,2.71,8.28,2.25,3.51-.63,6.43-4.14,8.26-6.94,2.21-3.38,4.83-6.66,5.42-10.78.56-3.88-.39-8.28-2.06-11.72-1.82-3.73-2.51-7.18-6.46-7.76Z"/>
          <path class="cls-36" d="M433.71,125.76c-3.74-.29-8.46,3.49-10.69,6.34-2.1,2.69-3.45,6.85-3.44,10.16,0,4.97,2.09,16.22,9.17,14.54,5.97-1.42,11.06-9.96,11.76-15.72.37-3.05-.2-7.29-1.27-10.21-1.14-3.1-2.13-4.85-5.53-5.11Z"/>
          <path class="cls-31" d="M433.6,129.27c-4.19-1.12-8.33,3.67-9.85,6.93-1.46,3.14-1.37,7.47-.72,10.82.59,3.05,2.19,7.6,6.21,6.19,4.21-1.48,6.06-6.83,7.73-10.55,1.45-3.24,1.34-5.39.32-8.68-.7-2.25-1.05-4-3.69-4.71Z"/>
          <path class="cls-36" d="M431.86,132.97c-4.42.7-6.55,6.55-6.58,10.29-.02,2.67-.04,8.17,4.14,5.83,2.61-1.46,5.82-6.15,5.95-9.13.09-2.19-.17-7.53-3.5-7Z"/>
          <path class="cls-31" d="M431.5,137.12c-3.02.5-6.04,8.63-2.06,8.05,2.87-.42,5.33-8.58,2.06-8.05Z"/>
          <path class="cls-31" d="M416.55,122.78c1.91.42,6,1.76,7.91,2.09-.76-.59-3.75-3.67-4.6-3.9-1.1-.29-2.35,1.25-3.3,1.67.25-.04-.23.22,0,.13Z"/>
          <path class="cls-31" d="M408.9,140.36c1.45-.32,5.28-1.18,6.65-.74-.81.47-3.1,1.45-3.94,1.91-.77.42-1.66.62-2.36,1.06-.35-.87-.2-1.33-.35-2.23Z"/>
          <path class="cls-31" d="M411.69,155.99c1.18-1.48,4.25-2.78,5.96-3.4-1.57,1.63-3.46,3.96-4.96,5.48-.5-.65-.89-1.27-1-2.09Z"/>
          <path class="cls-31" d="M417.26,162.39c1.81-.55,4.4-2.78,6.26-2.94-.59,1.13-2.3,3.46-3.58,3.84-.9.27-2.38.26-2.68-.9Z"/>
          <path class="cls-31" d="M431.67,160.04c.11.82.9,2.65,1.11,3.44.62-.28,1.22-.6,1.81-.93-.66-.64-2.44-2.17-2.92-2.51Z"/>
          <path class="cls-31" d="M443,153.43c-.99-.22-2.8-1.02-3.47-.83.44.81,1.76,2.12,2.42,2.71.37-.61.72-1.23,1.05-1.87Z"/>
          <path class="cls-31" d="M439.49,124.19c.43-.45,1.47-1.6,1.92-2.08-.29-.32-.59-.6-.9-.84-.3.74-1.05,2.23-1.02,2.93Z"/>
          <path class="cls-31" d="M446.65,137.31c-.02-.55-.04-1.09-.07-1.63-.91.4-1.77.84-2.09,1.42.66.1,1.4.18,2.16.21Z"/>
          <g>
            <path class="cls-7" d="M413.97,155.95c-1.99-3.04-2.85-6.54-3.04-10.12-2.7.85-5.61,2.17-6.76,1.65-2.1-.96-4.32-1.58-6.52-.81-15.66,5.5-29.33-1.93-44.17-3.07-11.92-.91,12.07,0,.15,1-.86.07-1.73.11-2.59.18.14,1.29.3,2.58.5,3.9.64,4.13,1.92,7.46,3.69,10.36,1.57,2.57,4.43,4,7.4,3.95,8.59-.16-4.09-.47-1.69-.48.67,0,1.33,0,1.99,0,3.01,0,6.03.02,9.06.05,2.49.03,4.98.09,7.47.16,7.48.21,14.99.53,22.6.62.53,0,1.08.03,1.63.05,6.93.31,14.33,1.95,22.25,1.74-5.4-.24-9.28-5.04-11.98-9.16Z"/>
            <path class="cls-12" d="M425.95,165.11c.25.01.5,0,.76,0-.26,0-.51.01-.76,0Z"/>
            <path class="cls-12" d="M428.01,164.98s.04,0,.06,0c-.02,0-.04,0-.06,0Z"/>
            <path class="cls-12" d="M427.11,165.08c.11,0,.22-.02.33-.03-.11.01-.22.02-.33.03Z"/>
          </g>
        </g>
        <path class="cls-23" d="M446.59,135.69s0,0,0,0h0c-.14-2.82-.49-5.39-1.85-8.09-.91-1.82-1.82-3.72-3.14-5.28-.06-.07-.13-.13-.19-.2h0s0,0,0,0c-1.44-1.58-3.04-2-4.88-2.99-1.44-.78-2.83-1.22-4.16-1.4,0,0,0-.02.01-.02-11.35-1.06-31.1-1.01-42.38-1.56-20.13-.99-3.8.49-23.09,1.48-4.77.24-9.3,2.55-12.12,6.45,0,0-.01,0-.02,0-.04.06-.07.11-.11.17-.2.28-.39.58-.57.88-.04.07-.08.15-.12.22-.02.03-.04.06-.05.1-.23.4-.45.81-.65,1.23-.02.03-.03.07-.05.1-.2.42-.39.84-.56,1.26-.01.03-.02.06-.03.09-.18.44-.34.89-.49,1.34,0,0,0,0,0,0h0c-.5,1.51-.85,3.08-1.07,4.7h0s0,.03,0,.04c-.43,3.12-.4,6.43-.07,9.85,0,0,0,0,0,0,0,.01,0,.02,0,.04.06.68.14,1.37.23,2.06.02.13.03.26.05.38.09.71.19,1.42.3,2.14.22,1.41.52,2.72.88,3.97.03.12.07.24.1.36.09.31.2.6.3.9.05.14.09.28.14.41.11.32.24.62.36.93.04.11.08.22.13.33.09.2.18.4.27.59.09.2.18.41.28.61.05.1.1.2.15.29.14.29.29.58.44.86.04.07.08.13.12.2.16.28.32.56.49.84,0,0,0,0-.01,0,0,.01.02.03.03.04.98,1.61,2.47,2.78,4.17,3.41,1.03.38,2.13.58,3.25.55,1.74-.03,3.48-.07,5.23-.1,6.88-.13-9.33-.38-6.92-.38.43,0,.86,0,1.3,0,.45,0,.91,0,1.36,0,2.79,0,5.59.01,8.4.05,2.49.03,4.98.09,7.47.16,0,0,0,0,0,0,2.6.07,5.2.16,7.81.24,1.8.06,3.61.11,5.42.17.78.02,1.57.05,2.36.07,2.33.06,4.66.12,7.01.14.53,0,1.08.03,1.63.05,0,0,0,0,0,0,3.13.14,6.37.55,9.7.94.08,0,.16.02.24.03.36.04.72.08,1.08.12.74.08,1.48.16,2.23.24.18.02.36.03.54.05.8.08,1.61.15,2.43.2.13,0,.27.02.4.03.86.06,1.72.1,2.59.12.08,0,.17,0,.25,0,.92.02,1.85.03,2.78,0h0c2.09.09,4.53-.57,6.84-1.63h0s0,0,0,0c2.63-1.21,5.09-2.95,6.65-4.73.92-1.05,1.76-2.21,2.51-3.44h0s0,0,0,0c.13-.21.24-.43.36-.64.24-.41.48-.81.69-1.24,0,0,0,0,0,0,1.7-3.29,2.85-6.98,3.36-10.6.24-1.71.35-3.4.3-5.03-.02-.73-.05-1.43-.08-2.12Z"/>
      </g>
      <g>
        <g>
          <path class="cls-3" d="M994.1,116.14c-20.13-.99-3.8.49-23.09,1.48-5.18.27-10.09,2.95-12.81,7.49-3.95,6.57-3.9,14.83-2.54,23.56.64,4.13,1.92,7.47,3.69,10.36,1.57,2.57,4.43,4,7.4,3.95,14.81-.28-6.03-.63,9.36-.44,9.95.12,19.92.66,30.06.78,7.4.09,15.34,2.01,23.88,1.79-1.83-13.8-.53-34.47,6.43-47.41-11.35-1.06-31.1-1.01-42.38-1.56Z"/>
          <path class="cls-15" d="M987.58,122.72c-8.93.86-17.9-.07-26.76.59-9.17.68,17.05.61,7.83.57-3.24-.01-6.5.08-9.78.2-1.15,1.68-2.02,3.49-2.65,5.39,7.54.11,15.1-.68,22.69-1.23,10.28-.75-15.54-1.27-5.21-.45,7.73.62,19.61,3.97,27.06.98,3.07-1.23,5.31-3.48,8.96-4.48,3.04-.84,6.15-1.92,8.73-3.6-9.6,2.45-21.05,1.09-30.86,2.03Z"/>
          <path class="cls-15" d="M987.39,133.83c-10.65.93-20.98.27-31.64.43-9.1.14,17.55.47,8.36.16-3.1-.11-6.05-.24-8.97-.26-.28,2.04-.36,4.15-.3,6.33,3.29-.41,6.6-.68,9.97-.59,9.68.27-16.44.15-6.74-.22,10.4-.4,21.29-1.63,31.45-1.45,7.54.13,12.27,2.65,17.88,7.35-.32-3.92.47-10.59,3.77-13.42-7.23-1.04-16.28,1.01-23.79,1.67Z"/>
          <path class="cls-15" d="M955.07,144.06c.14,1.52.34,3.06.58,4.62.04.26.11.47.16.73,7.06-.93,14.01-2.28,20.75-4.34-6.54-1.8-13.95-1.73-21.49-1Z"/>
          <path class="cls-15" d="M956.76,153.3c.04.12.09.23.13.35,4.46-.69,9.62,1.09,14.16.51,9.63-1.24-16.36-1.5-6.59-2.16,9.29-.62,17.61-.54,26.86.93,5.89.93,16.22,3.08,21.59-.25-28.66-8.27-26.71-5.76-56.14.62Z"/>
          <path class="cls-15" d="M1013.33,162.03c-2.67-2.72-6.86-2-10.79-2-10.39,0-20.49-3.72-30.78-3.43-11.04.32,14.06,1.52,3.04,2.39-4.93.38-10.34-.11-15.51-.02,0,.01.02.03.03.04,1.56,2.58,4.43,4.02,7.41,3.96,14.82-.27-6.02-.62,9.37-.43,9.95.12,19.92.66,30.06.78,2.55.03,5.42.27,8.43.56-.33-.69-.75-1.32-1.27-1.85Z"/>
          <path class="cls-1" d="M1050.47,142.84c-.82,5.76-3.25,11.71-6.93,15.91-2.93,3.34-9.02,6.56-13.49,6.36-5.4-.24-9.28-5.04-11.98-9.16-3.17-4.85-3.49-10.86-2.75-16.53.54-4.15,1.84-8.51,4.6-11.69,5.33-6.13,12.09-13.25,20.7-8.61,1.92,1.04,3.59,1.43,5.07,3.19,1.32,1.56,2.23,3.46,3.14,5.28,1.68,3.37,1.82,6.52,1.93,10.21.05,1.63-.06,3.32-.3,5.03Z"/>
          <path class="cls-31" d="M1039.18,122.19c-7.4-1.09-15.11,8.07-17.58,13.98-2.5,5.98.02,16.19,4.14,20.96,1.74,2.01,5.74,2.71,8.28,2.25,3.51-.63,6.43-4.14,8.26-6.94,2.21-3.38,4.83-6.66,5.42-10.78.56-3.88-.39-8.28-2.06-11.72-1.82-3.73-2.51-7.18-6.46-7.76Z"/>
          <path class="cls-36" d="M1037.81,125.76c-3.74-.29-8.46,3.49-10.69,6.34-2.1,2.69-3.45,6.85-3.44,10.16,0,4.97,2.09,16.22,9.17,14.54,5.97-1.42,11.06-9.96,11.76-15.72.37-3.05-.2-7.29-1.27-10.21-1.14-3.1-2.13-4.85-5.53-5.11Z"/>
          <path class="cls-31" d="M1037.71,129.27c-4.19-1.12-8.33,3.67-9.85,6.93-1.46,3.14-1.37,7.47-.72,10.82.59,3.05,2.19,7.6,6.21,6.19,4.21-1.48,6.06-6.83,7.73-10.55,1.45-3.24,1.34-5.39.32-8.68-.7-2.25-1.05-4-3.69-4.71Z"/>
          <path class="cls-36" d="M1035.97,132.97c-4.42.7-6.55,6.55-6.58,10.29-.02,2.67-.04,8.17,4.14,5.83,2.61-1.46,5.82-6.15,5.95-9.13.09-2.19-.17-7.53-3.5-7Z"/>
          <path class="cls-31" d="M1035.61,137.12c-3.02.5-6.04,8.63-2.06,8.05,2.87-.42,5.33-8.58,2.06-8.05Z"/>
          <path class="cls-31" d="M1020.66,122.78c1.91.42,6,1.76,7.91,2.09-.76-.59-3.75-3.67-4.6-3.9-1.1-.29-2.35,1.25-3.3,1.67.25-.04-.23.22,0,.13Z"/>
          <path class="cls-31" d="M1013.01,140.36c1.45-.32,5.28-1.18,6.65-.74-.81.47-3.1,1.45-3.94,1.91-.77.42-1.66.62-2.36,1.06-.35-.87-.2-1.33-.35-2.23Z"/>
          <path class="cls-31" d="M1015.8,155.99c1.18-1.48,4.25-2.78,5.96-3.4-1.57,1.63-3.46,3.96-4.96,5.48-.5-.65-.89-1.27-1-2.09Z"/>
          <path class="cls-31" d="M1021.37,162.39c1.81-.55,4.4-2.78,6.26-2.94-.59,1.13-2.3,3.46-3.58,3.84-.9.27-2.38.26-2.68-.9Z"/>
          <path class="cls-31" d="M1035.78,160.04c.11.82.9,2.65,1.11,3.44.62-.28,1.22-.6,1.81-.93-.66-.64-2.44-2.17-2.92-2.51Z"/>
          <path class="cls-31" d="M1047.11,153.43c-.99-.22-2.8-1.02-3.47-.83.44.81,1.76,2.12,2.42,2.71.37-.61.72-1.23,1.05-1.87Z"/>
          <path class="cls-31" d="M1043.6,124.19c.43-.45,1.47-1.6,1.92-2.08-.29-.32-.59-.6-.9-.84-.3.74-1.05,2.23-1.02,2.93Z"/>
          <path class="cls-31" d="M1050.76,137.31c-.02-.55-.04-1.09-.07-1.63-.91.4-1.77.84-2.09,1.42.66.1,1.4.18,2.16.21Z"/>
          <g>
            <path class="cls-7" d="M1018.08,155.95c-1.99-3.04-2.85-6.54-3.04-10.12-2.7.85-5.61,2.17-6.76,1.65-2.1-.96-4.32-1.58-6.52-.81-15.66,5.5-29.33-1.93-44.17-3.07-11.92-.91,12.07,0,.15,1-.86.07-1.73.11-2.59.18.14,1.29.3,2.58.5,3.9.64,4.13,1.92,7.46,3.69,10.36,1.57,2.57,4.43,4,7.4,3.95,8.59-.16-4.09-.47-1.69-.48.67,0,1.33,0,1.99,0,3.01,0,6.03.02,9.06.05,2.49.03,4.98.09,7.47.16,7.48.21,14.99.53,22.6.62.53,0,1.08.03,1.63.05,6.93.31,14.33,1.95,22.25,1.74-5.4-.24-9.28-5.04-11.98-9.16Z"/>
            <path class="cls-12" d="M1030.06,165.11c.25.01.5,0,.76,0-.26,0-.51.01-.76,0Z"/>
            <path class="cls-12" d="M1032.12,164.98s.04,0,.06,0c-.02,0-.04,0-.06,0Z"/>
            <path class="cls-12" d="M1031.21,165.08c.11,0,.22-.02.33-.03-.11.01-.22.02-.33.03Z"/>
          </g>
        </g>
        <path class="cls-23" d="M1050.69,135.69s0,0,0,0h0c-.14-2.82-.49-5.39-1.85-8.09-.91-1.82-1.82-3.72-3.14-5.28-.06-.07-.13-.13-.19-.2h0s0,0,0,0c-1.44-1.58-3.04-2-4.88-2.99-1.44-.78-2.83-1.22-4.16-1.4,0,0,0-.02.01-.02-11.35-1.06-31.1-1.01-42.38-1.56-20.13-.99-3.8.49-23.09,1.48-4.77.24-9.3,2.55-12.12,6.45,0,0-.01,0-.02,0-.04.06-.07.11-.11.17-.2.28-.39.58-.57.88-.04.07-.08.15-.12.22-.02.03-.04.06-.05.1-.23.4-.45.81-.65,1.23-.02.03-.03.07-.05.1-.2.42-.39.84-.56,1.26-.01.03-.02.06-.03.09-.18.44-.34.89-.49,1.34,0,0,0,0,0,0h0c-.5,1.51-.85,3.08-1.07,4.7h0s0,.03,0,.04c-.43,3.12-.4,6.43-.07,9.85,0,0,0,0,0,0,0,.01,0,.02,0,.04.06.68.14,1.37.23,2.06.02.13.03.26.05.38.09.71.19,1.42.3,2.14.22,1.41.52,2.72.88,3.97.03.12.07.24.1.36.09.31.2.6.3.9.05.14.09.28.14.41.11.32.24.62.36.93.04.11.08.22.13.33.09.2.18.4.27.59.09.2.18.41.28.61.05.1.1.2.15.29.14.29.29.58.44.86.04.07.08.13.12.2.16.28.32.56.49.84,0,0,0,0-.01,0,0,.01.02.03.03.04.98,1.61,2.47,2.78,4.17,3.41,1.03.38,2.13.58,3.25.55,1.74-.03,3.48-.07,5.23-.1,6.88-.13-9.33-.38-6.92-.38.43,0,.86,0,1.3,0,.45,0,.91,0,1.36,0,2.79,0,5.59.01,8.4.05,2.49.03,4.98.09,7.47.16,0,0,0,0,0,0,2.6.07,5.2.16,7.81.24,1.8.06,3.61.11,5.42.17.78.02,1.57.05,2.36.07,2.33.06,4.66.12,7.01.14.53,0,1.08.03,1.63.05,0,0,0,0,0,0,3.13.14,6.37.55,9.7.94.08,0,.16.02.24.03.36.04.72.08,1.08.12.74.08,1.48.16,2.23.24.18.02.36.03.54.05.8.08,1.61.15,2.43.2.13,0,.27.02.4.03.86.06,1.72.1,2.59.12.08,0,.17,0,.25,0,.92.02,1.85.03,2.78,0h0c2.09.09,4.53-.57,6.84-1.63h0s0,0,0,0c2.63-1.21,5.09-2.95,6.65-4.73.92-1.05,1.76-2.21,2.51-3.44h0s0,0,0,0c.13-.21.24-.43.36-.64.24-.41.48-.81.69-1.24,0,0,0,0,0,0,1.7-3.29,2.85-6.98,3.36-10.6.24-1.71.35-3.4.3-5.03-.02-.73-.05-1.43-.08-2.12Z"/>
      </g>
      <path class="cls-30" d="M1372.76,123.08c-5.71,0-9.86,4.23-9.86,10.06,0,3.31,1.17,5.96,3.19,7.62l-2.17,2.47c-1.04,1.19-.98,2.98.13,4.1,1.54,1.54,4.22,3.37,8.25,3.37,5.59,0,11.23-4.35,11.23-14.06s-5.81-13.56-10.78-13.56Z"/>
      <path class="cls-30" d="M394.69,145.78h-.75v-13.8c0-1.66-1.34-3-3-3h-3.67c-.56,0-1.1.15-1.57.45-.99.61-2.07,1.1-4.13,1.48-1.42.27-2.45,1.5-2.45,2.95v3.08c0,1.66,1.34,3,3,3h.84v5.84h-1.42c-1.66,0-3,1.34-3,3v4.03c0,1.66,1.34,3,3,3h13.16c1.66,0,3-1.34,3-3v-4.03c0-1.66-1.34-3-3-3Z"/>
      <path class="cls-30" d="M998.8,145.78h-.75v-13.8c0-1.66-1.34-3-3-3h-3.67c-.56,0-1.1.15-1.57.45-.99.61-2.07,1.1-4.13,1.48-1.42.27-2.45,1.5-2.45,2.95v3.08c0,1.66,1.34,3,3,3h.84v5.84h-1.42c-1.66,0-3,1.34-3,3v4.03c0,1.66,1.34,3,3,3h13.16c1.66,0,3-1.34,3-3v-4.03c0-1.66-1.34-3-3-3Z"/>
      <g id="Manual_Dimension" data-name="Manual Dimension">
        <line class="cls-23" x1="1054.26" y1="229.8" x2="1054.26" y2="262.31"/>
        <line class="cls-23" x1="631.29" y1="229.8" x2="631.29" y2="262.31"/>
        <g>
          <line class="cls-20" x1="645.64" y1="246.06" x2="1039.9" y2="246.06"/>
          <polygon class="cls-34" points="648.56 256.03 631.29 246.06 648.56 236.08 648.56 256.03"/>
          <polygon class="cls-34" points="1036.99 256.03 1054.26 246.06 1036.99 236.08 1036.99 256.03"/>
        </g>
      </g>
      <path class="cls-28" d="M1368.79,142.24c.7.76,1.99,1.43,3.19,1.43,2.13,0,3.81-1.51,4-6.08-1.01,1.34-2.77,2.1-3.98,2.1-3.5,0-6.1-2.07-6.1-6.55s3.14-7.06,6.86-7.06c3.95,0,7.78,3,7.78,10.56s-3.98,11.06-8.23,11.06c-2.8,0-4.82-1.18-6.13-2.49l2.6-2.97ZM1375.9,134.23c-.42-3.44-1.74-4.42-3.02-4.42s-2.44.92-2.44,3.33c0,2.24,1.12,3.05,2.52,3.05,1.01,0,2.13-.53,2.94-1.96Z"/>
      <path class="cls-28" d="M381.53,148.78h4.42v-11.84h-3.84v-3.08c2.24-.42,3.7-.98,5.15-1.88h3.67v16.8h3.75v4.03h-13.16v-4.03Z"/>
      <path class="cls-28" d="M985.64,148.78h4.42v-11.84h-3.84v-3.08c2.24-.42,3.7-.98,5.15-1.88h3.67v16.8h3.75v4.03h-13.16v-4.03Z"/>
      <g>
        <g>
          <path class="cls-24" d="M34.41,116.1c1.84-1.8,4.09-2.95,6.48-3.36,27.24-4.73,152.72,1.32,182.51,3.09,32.92,1.95,23.14-4.93,58.02-2.83,11.85.71,32.57.88,44.49,2.13-7.17,13.61-8.31,35.47-6.24,50.1-8.97.14-17.32-1.99-25.08-2.16-10.65-.24.03-.05-10.42-.29-25.93-.6-29.09,1.25-53.51.91-33.63-.46-159.57-.67-190.41-5.17-4.33-.63-8.22-3.67-10.25-8.19-4.73-10.51-5.32-24.71,4.42-34.22Z"/>
          <path class="cls-16" d="M307.01,118.08c-10.05,2.48-22.08.91-32.36,1.8-9.37.81,2.35.6-6.94,1.19-9.62.61-19.8.43-29.48.29-12.43-.18-3.2,2-15.73,1.28-6.4-.37-41.04-.41-47.38.31,9.93,3.18-.07,1.15,10.26,3.06,11.78,2.18,51.83.82,63.66.08,10.78-.67,21.37-1.12,32.22-.13,8.12.74-.52,3.54,7.27.47,3.21-1.27,5.54-3.62,9.35-4.64,3.18-.85,6.44-1.97,9.13-3.71Z"/>
          <path class="cls-16" d="M168.81,124.79c-7.29-3.15-44.28-4.93-51.94-6.79-7.06-1.72-14.43-.07-21.62,1.01-3.7.55-43.85,1.27-47.56,1.77-1.86.25-3.96.11-5.73.6,7.49,2.77,52.07,4.15,59.91,2.47-5.07,1.1-46.47,2.62-51.54,3.72-4.12.9-10.23.87-13.8,2.94,1.12-.65,3.96-.64,5.35-.88,2.27-.38,4.59-.58,6.87-.89,4.72-.63,45.91-1.28,50.67-1.47,18.1-.71,65.33,2.55,83.05,4.56,6.05.69,38.01-1.61,43.99-1.24-9.6-2.51-48.38-1.8-57.64-5.8Z"/>
          <path class="cls-16" d="M181.33,133.32c8.25-1.79,43.88-1.22,52.25-.84,9.65.44,19.37.18,28.92.14,11.18-.05.89-.11,12.06-.98,7.88-.61,17.35-2.68,24.95-1.5-3.44,2.96-4.2,10.01-3.82,14.16-5.94-5.04-10.93-7.75-18.84-7.98-10.66-.3-.94,1.75-11.85,2.05-10.18.28-20.46.3-30.62-.1-9.95-.39,2.65,3.15-7.5,3.95-17.49,1.38-92.44-1.53-109.74-2.31-12.14-.55-60.75-2.03-72.56-3.95,8.5-1.68,53.14-3.12,61.72-2.74,9.15.4,47.63,3.83,56.88,3.63,8.03-.17,16.31.51,24.25-.02,4.58-.31-9.4-.09-6.1-3.54Z"/>
          <path class="cls-14" d="M164.02,146.26c-10.35-.33-49.7-.12-60.04-1.74-8.93-1.4-54.49-2.95-63.36-4.28-4.41-.66-9.15-1.73-13.8-1.87.21,2.34.67,4.66,1.31,6.88,1.8.27,3.6.6,5.5,1.06,11.32,2.72,58.94,1.77,70.32,3.1,10.68,1.25,50.07,2.36,60.81,2,24.85-.83,57.95-.35,81.99-7.54-15.33-4.41-41.47,1.91-57.21,2.92-8.43.54-17.23-.27-25.53-.54Z"/>
          <path class="cls-14" d="M225.76,152.43c30.89-6.47,45.51-9.65,75.77-.55-5.59,3.46-16.46,1.08-22.65.02-9.72-1.66,2.68-.97-7.06-.41-10.24.59-20.66.75-30.75,1.95-5.47.65-11.84-2.03-16.91-.21-.96-.2,1.33-.5,1.6-.8Z"/>
          <path class="cls-14" d="M115.76,155.32c-9.37-.58-43.36-1.82-52.61-2.83-5.63-.62-25.19-1.09-31.93.06,1.52,2.29,3.57,4.04,5.89,5.06.24-.01.49-.03.73-.04,16.94-.24,108.13,3.4,125.12,2.33,9.08-.57,10.01-1.62,19.13-2.01,9.4-.41-1.84-.04,7.26-2.38-2.14-1.17,45.37.17,42.94.01-19.81-1.28-96.63,1.04-116.53-.2Z"/>
          <path class="cls-14" d="M284.16,162.77c10.45.24-.23.04,10.42.29,2.67.06,5.69.35,8.85.69-.36-.73-.8-1.4-1.35-1.98-2.83-2.91-7.22-2.2-11.34-2.24-10.91-.12-.4-3.3-11.2-3.1-11.59.21-22.93,1.37-34.49,2.15-7.54.51-44.5-.99-51.8.39-2.65.5,44.24,2.95,41.41,4.74,23.16.2,24.98-1.52,49.5-.94Z"/>
          <path class="cls-33" d="M340.85,141.88c-.8,6.09-3.29,12.35-7.1,16.76-3.04,3.51-9.4,6.84-14.08,6.58-5.67-.31-9.8-5.44-12.66-9.83-3.38-5.17-3.77-11.53-3.06-17.52.52-4.38,1.84-8.99,4.71-12.32,5.52-6.43,12.55-13.89,21.63-8.87,2.03,1.12,3.78,1.56,5.36,3.43,1.4,1.67,2.37,3.69,3.35,5.62,1.8,3.58,1.98,6.92,2.13,10.83.07,1.72-.02,3.51-.26,5.32Z"/>
          <path class="cls-35" d="M328.78,119.91c-7.78-1.24-15.77,8.37-18.3,14.6-2.56,6.3.2,17.13,4.57,22.23,1.84,2.15,6.05,2.93,8.71,2.47,3.68-.63,6.7-4.3,8.6-7.25,2.28-3.56,5-7,5.58-11.34.55-4.09-.5-8.76-2.29-12.42-1.95-3.97-2.71-7.63-6.86-8.29Z"/>
          <path class="cls-33" d="M327.38,123.67c-3.93-.35-8.84,3.6-11.15,6.59-2.18,2.82-3.55,7.22-3.5,10.71.06,5.26,2.37,17.19,9.78,15.49,6.25-1.43,11.5-10.41,12.18-16.5.36-3.22-.29-7.72-1.44-10.82-1.23-3.29-2.29-5.15-5.86-5.47Z"/>
          <path class="cls-35" d="M327.31,127.38c-4.41-1.23-8.7,3.79-10.26,7.23-1.5,3.3-1.36,7.89-.64,11.44.66,3.24,2.38,8.07,6.58,6.62,4.41-1.52,6.29-7.16,7.99-11.08,1.49-3.41,1.35-5.69.24-9.18-.76-2.39-1.14-4.25-3.92-5.02Z"/>
          <path class="cls-33" d="M325.53,131.28c-4.63.69-6.81,6.86-6.8,10.82,0,2.83.04,8.65,4.4,6.22,2.73-1.52,6.04-6.45,6.14-9.59.07-2.31-.26-7.97-3.75-7.45Z"/>
          <path class="cls-35" d="M325.2,135.67c-3.16.49-6.25,9.07-2.07,8.49,3-.41,5.5-9.02,2.07-8.49Z"/>
          <path class="cls-35" d="M309.35,120.33c2.01.47,6.31,1.93,8.32,2.3-.8-.63-3.97-3.93-4.87-4.18-1.16-.32-2.45,1.3-3.45,1.74.26-.04-.24.23,0,.14Z"/>
          <path class="cls-35" d="M301.51,138.84c1.51-.32,5.53-1.19,6.97-.71-.84.48-3.24,1.5-4.11,1.98-.8.44-1.74.63-2.47,1.1-.37-.92-.23-1.41-.39-2.37Z"/>
          <path class="cls-35" d="M304.61,155.41c1.22-1.55,4.43-2.89,6.22-3.53-1.63,1.71-3.58,4.15-5.14,5.75-.53-.7-.95-1.35-1.08-2.22Z"/>
          <path class="cls-35" d="M325.62,159.92c.13.87.97,2.82,1.2,3.66.64-.29,1.28-.62,1.89-.97-.7-.69-2.58-2.32-3.1-2.69Z"/>
          <path class="cls-35" d="M337.43,153.06c-1.04-.24-2.95-1.12-3.65-.92.47.87,1.87,2.26,2.57,2.89.38-.64.74-1.3,1.08-1.97Z"/>
          <path class="cls-35" d="M333.44,122.08c.44-.47,1.52-1.68,1.99-2.18-.31-.34-.63-.65-.95-.9-.31.78-1.08,2.35-1.04,3.08Z"/>
          <g>
            <path class="cls-6" d="M307,155.4c-2.12-3.24-3.06-6.95-3.3-10.74-2.31.71-4.76,1.75-6.24,1.8-5.87.19-11.7.53-17.57.86-12.47.7-2.98-3.71-15.36-4.79-12.52-1.1-25.03-.28-37.53.65-12.72.95-31.89,1.83-44.58,3.12-11.33,1.15-52.23,2.97-63.64,3.18-19.8.36-76.1-6.2-91.8-18.45-.42,2.99-.38,6.04.04,9.01,0,.07.02.13.03.2.16,1.09.36,2.16.61,3.22.02.08.04.15.05.23.56,2.32,1.34,4.55,2.28,6.64.79,1.76,1.86,3.29,3.13,4.54.03.03.06.06.09.09.19.19.39.37.59.54.06.05.12.1.18.15.18.15.36.29.54.43.07.05.14.11.22.16.18.13.36.25.54.37.08.05.15.1.23.15.19.12.39.23.59.35.07.04.13.08.2.11,1.24.66,2.57,1.1,3.95,1.3,30.84,4.5,156.78,4.71,190.41,5.17,18.02.25,14.49-1.13,33.31-1.12.35,0,.7,0,1.05,0,2.51,0,5.02.02,7.55.04.7,0,1.39,0,2.09.01,3.16.03,6.33.08,9.51.16,2.61.06,5.22.15,7.84.25,7.85.3-5.41-.14,2.58.04.55.01,1.13.04,1.71.07,7.28.41,15.06,2.22,23.37,2.09-5.67-.31-9.8-5.44-12.66-9.83Z"/>
            <path class="cls-10" d="M319.66,165.23c.26.01.52.01.79,0-.27,0-.53,0-.79,0Z"/>
            <path class="cls-10" d="M321.83,165.11s.04,0,.06,0c-.02,0-.04,0-.06,0Z"/>
            <path class="cls-10" d="M320.88,165.21c.11,0,.23-.02.34-.03-.11.01-.23.02-.34.03Z"/>
          </g>
        </g>
        <path class="cls-23" d="M341.11,136.56c-.15-3.91-.33-7.25-2.13-10.83-.97-1.94-1.95-3.95-3.35-5.62-.07-.08-.13-.14-.2-.21h0s0,0,0,0c-1.52-1.69-3.21-2.15-5.15-3.22-1.52-.84-2.98-1.32-4.38-1.53,0,0,0-.02.01-.02-11.92-1.24-32.65-1.42-44.49-2.13-34.88-2.1-25.1,4.78-58.02,2.83-29.79-1.77-155.27-7.82-182.51-3.09-2.39.41-4.64,1.57-6.48,3.36-4.38,4.28-6.67,9.5-7.43,14.92,0,0,0,0,0,0,0,0,0,.01,0,.02-.1.74-.18,1.48-.23,2.23,0,0,0,.01,0,.02-.05.75-.07,1.5-.06,2.24,0,0,0,.01,0,.02,0,.75.04,1.5.09,2.24,0,0,0,0,0,.01.01.19.03.38.05.57h0s0,0,0,0c.05.56.12,1.11.19,1.66,0,.07.02.13.03.2,0,0,0,0,0,0,0,0,0,0,0,0,.16,1.09.36,2.16.61,3.22.02.08.04.15.05.23,0,0,0,0,0,0,0,0,0,0,0,0,.13.53.27,1.05.42,1.57,0,0,0,0,0,0h0c.18.61.37,1.21.57,1.8,0,.01,0,.03.01.04.18.51.36,1.02.56,1.52.03.09.07.18.11.26.2.49.4.97.61,1.45.18.4.37.77.58,1.15.04.08.08.15.13.23.17.29.34.58.53.85h0s0,0,0,0c.05.07.1.15.15.22,0,0,0,.01.01.02.25.36.51.7.78,1.02.02.03.04.06.07.08.28.34.58.66.88.96.03.03.06.06.09.09,0,0,0,0,0,0h0c.19.19.38.37.58.54h0s0,0,0,0c.06.05.11.1.17.15,0,0,0,0,0,0,0,0,0,0,0,0,.18.15.36.29.54.43.07.05.14.11.22.16,0,0,0,0,0,0s0,0,0,0c.18.13.36.25.54.37.08.05.15.1.23.15.19.12.39.23.59.34h0s0,0,0,0c.06.04.13.07.19.11.27.14.54.28.82.4,0,0,0,0,0,0h0s.06.03.1.04c.05.02.09.04.14.06.25.1.5.2.75.29.09.03.17.06.26.08.23.07.45.14.68.19.09.02.17.05.26.07.31.07.62.13.94.18,30.84,4.5,156.78,4.71,190.41,5.17.57,0,1.12.01,1.65.02,1.24.01,2.42.02,3.55.02,20.03.12,23.68-1.23,42.29-1.05,2.01.03,4.01.05,6.02.1,2.58.06,5.17.15,7.76.25.03-.01.71,0,2.66.04.55.01,1.13.04,1.71.07,0,0,0,0,.01,0,3.3.19,6.7.66,10.2,1.11.07,0,.15.02.22.03.38.05.77.1,1.15.15.77.1,1.55.19,2.34.28.19.02.38.04.57.06.84.09,1.69.17,2.55.24.14.01.28.02.43.03.9.07,1.8.12,2.71.16.09,0,.18,0,.27,0,.97.03,1.94.05,2.92.03,2.19.12,4.74-.55,7.16-1.65h0s0,0,0,0c2.75-1.25,5.31-3.07,6.93-4.93.95-1.1,1.82-2.32,2.6-3.61h0s0,0,0,0c.15-.25.28-.51.42-.76.22-.4.46-.79.66-1.21,0,0,0,0,0,0,1.74-3.46,2.91-7.35,3.42-11.18.24-1.81.33-3.6.26-5.32Z"/>
      </g>
      <path class="cls-30" d="M189.67,134.08c0-5.05-3.8-8.57-9.24-8.57s-9.61,3.55-9.61,8.63c0,1.34.29,3.06,1.38,4.76-1.66,1.88-2.08,3.99-2.08,5.66,0,4.97,4.26,8.57,10.14,8.57s10.28-3.64,10.28-8.66c0-2.33-.75-4.39-2.17-6.01.84-1.33,1.3-2.84,1.3-4.38Z"/>
      <path class="cls-28" d="M173.12,144.55c0-2.6,1.48-4.23,3.42-5.26v-.14c-1.62-1.2-2.72-2.8-2.72-5.01,0-3.47,2.74-5.63,6.61-5.63s6.24,2.18,6.24,5.57c0,1.99-1.2,3.64-2.63,4.62v.14c1.99,1.04,3.5,2.77,3.5,5.63,0,3.22-2.91,5.66-7.28,5.66-4.09,0-7.14-2.27-7.14-5.57ZM182.92,144.27c0-1.82-1.6-2.6-4.14-3.7-.84.81-1.4,2.07-1.4,3.39,0,1.71,1.37,2.69,3,2.69,1.43,0,2.55-.73,2.55-2.38ZM182.64,134.41c0-1.51-.87-2.46-2.35-2.46-1.12,0-2.1.7-2.1,2.18,0,1.65,1.29,2.55,3.33,3.36.78-.95,1.12-2.02,1.12-3.08Z"/>
      <g>
        <g>
          <path class="cls-24" d="M631.74,115.05c1.84-1.8,4.09-2.95,6.48-3.36,27.24-4.73,152.72,1.32,182.51,3.09,32.92,1.95,23.14-4.93,58.02-2.83,11.85.71,32.57.88,44.49,2.13-7.17,13.61-8.31,35.47-6.24,50.1-8.97.14-17.32-1.99-25.08-2.16-10.65-.24.03-.05-10.42-.29-25.93-.6-29.09,1.25-53.51.91-33.63-.46-159.57-.67-190.41-5.17-4.33-.63-8.22-3.67-10.25-8.19-4.73-10.51-5.32-24.71,4.42-34.22Z"/>
          <path class="cls-16" d="M904.34,117.02c-10.05,2.48-22.08.91-32.36,1.8-9.37.81,2.35.6-6.94,1.19-9.62.61-19.8.43-29.48.29-12.43-.18-3.2,2-15.73,1.28-6.4-.37-41.04-.41-47.38.31,9.93,3.18-.07,1.15,10.26,3.06,11.78,2.18,51.83.82,63.66.08,10.78-.67,21.37-1.12,32.22-.13,8.12.74-.52,3.54,7.27.47,3.21-1.27,5.54-3.62,9.35-4.64,3.18-.85,6.44-1.97,9.13-3.71Z"/>
          <path class="cls-16" d="M766.14,123.73c-7.29-3.15-44.28-4.93-51.94-6.79-7.06-1.72-14.43-.07-21.62,1.01-3.7.55-43.85,1.27-47.56,1.77-1.86.25-3.96.11-5.73.6,7.49,2.77,52.07,4.15,59.91,2.47-5.07,1.1-46.47,2.62-51.54,3.72-4.12.9-10.23.87-13.8,2.94,1.12-.65,3.96-.64,5.35-.88,2.27-.38,4.59-.58,6.87-.89,4.72-.63,45.91-1.28,50.67-1.47,18.1-.71,65.33,2.55,83.05,4.56,6.05.69,38.01-1.61,43.99-1.24-9.6-2.51-48.38-1.8-57.64-5.8Z"/>
          <path class="cls-16" d="M778.66,132.26c8.25-1.79,43.88-1.22,52.25-.84,9.65.44,19.37.18,28.92.14,11.18-.05.89-.11,12.06-.98,7.88-.61,17.35-2.68,24.95-1.5-3.44,2.96-4.2,10.01-3.82,14.16-5.94-5.04-10.93-7.75-18.84-7.98-10.66-.3-.94,1.75-11.85,2.05-10.18.28-20.46.3-30.62-.1-9.95-.39,2.65,3.15-7.5,3.95-17.49,1.38-92.44-1.53-109.74-2.31-12.14-.55-60.75-2.03-72.56-3.95,8.5-1.68,53.14-3.12,61.72-2.74,9.15.4,47.63,3.83,56.88,3.63,8.03-.17,16.31.51,24.25-.02,4.58-.31-9.4-.09-6.1-3.54Z"/>
          <path class="cls-14" d="M761.34,145.2c-10.35-.33-49.7-.12-60.04-1.74-8.93-1.4-54.49-2.95-63.36-4.28-4.41-.66-9.15-1.73-13.8-1.87.21,2.34.67,4.66,1.31,6.88,1.8.27,3.6.6,5.5,1.06,11.32,2.72,58.94,1.77,70.32,3.1,10.68,1.25,50.07,2.36,60.81,2,24.85-.83,57.95-.35,81.99-7.54-15.33-4.41-41.47,1.91-57.21,2.92-8.43.54-17.23-.27-25.53-.54Z"/>
          <path class="cls-14" d="M823.08,151.37c30.89-6.47,45.51-9.65,75.77-.55-5.59,3.46-16.46,1.08-22.65.02-9.72-1.66,2.68-.97-7.06-.41-10.24.59-20.66.75-30.75,1.95-5.47.65-11.84-2.03-16.91-.21-.96-.2,1.33-.5,1.6-.8Z"/>
          <path class="cls-14" d="M713.09,154.26c-9.37-.58-43.36-1.82-52.61-2.83-5.63-.62-25.19-1.09-31.93.06,1.52,2.29,3.57,4.04,5.89,5.06.24-.01.49-.03.73-.04,16.94-.24,108.13,3.4,125.12,2.33,9.08-.57,10.01-1.62,19.13-2.01,9.4-.41-1.84-.04,7.26-2.38-2.14-1.17,45.37.17,42.94.01-19.81-1.28-96.63,1.04-116.53-.2Z"/>
          <path class="cls-14" d="M881.49,161.72c10.45.24-.23.04,10.42.29,2.67.06,5.69.35,8.85.69-.36-.73-.8-1.4-1.35-1.98-2.83-2.91-7.22-2.2-11.34-2.24-10.91-.12-.4-3.3-11.2-3.1-11.59.21-22.93,1.37-34.49,2.15-7.54.51-44.5-.99-51.8.39-2.65.5,44.24,2.95,41.41,4.74,23.16.2,24.98-1.52,49.5-.94Z"/>
          <path class="cls-33" d="M938.18,140.83c-.8,6.09-3.29,12.35-7.1,16.76-3.04,3.51-9.4,6.84-14.08,6.58-5.67-.31-9.8-5.44-12.66-9.83-3.38-5.17-3.77-11.53-3.06-17.52.52-4.38,1.84-8.99,4.71-12.32,5.52-6.43,12.55-13.89,21.63-8.87,2.03,1.12,3.78,1.56,5.36,3.43,1.4,1.67,2.37,3.69,3.35,5.62,1.8,3.58,1.98,6.92,2.13,10.83.07,1.72-.02,3.51-.26,5.32Z"/>
          <path class="cls-35" d="M926.11,118.85c-7.78-1.24-15.77,8.37-18.3,14.6-2.56,6.3.2,17.13,4.57,22.23,1.84,2.15,6.05,2.93,8.71,2.47,3.68-.63,6.7-4.3,8.6-7.25,2.28-3.56,5-7,5.58-11.34.55-4.09-.5-8.76-2.29-12.42-1.95-3.97-2.71-7.63-6.86-8.29Z"/>
          <path class="cls-33" d="M924.71,122.61c-3.93-.35-8.84,3.6-11.15,6.59-2.18,2.82-3.55,7.22-3.5,10.71.06,5.26,2.37,17.19,9.78,15.49,6.25-1.43,11.5-10.41,12.18-16.5.36-3.22-.29-7.72-1.44-10.82-1.23-3.29-2.29-5.15-5.86-5.47Z"/>
          <path class="cls-35" d="M924.64,126.32c-4.41-1.23-8.7,3.79-10.26,7.23-1.5,3.3-1.36,7.89-.64,11.44.66,3.24,2.38,8.07,6.58,6.62,4.41-1.52,6.29-7.16,7.99-11.08,1.49-3.41,1.35-5.69.24-9.18-.76-2.39-1.14-4.25-3.92-5.02Z"/>
          <path class="cls-33" d="M922.86,130.22c-4.63.69-6.81,6.86-6.8,10.82,0,2.83.04,8.65,4.4,6.22,2.73-1.52,6.04-6.45,6.14-9.59.07-2.31-.26-7.97-3.75-7.45Z"/>
          <path class="cls-35" d="M922.52,134.61c-3.16.49-6.25,9.07-2.07,8.49,3-.41,5.5-9.02,2.07-8.49Z"/>
          <path class="cls-35" d="M906.68,119.27c2.01.47,6.31,1.93,8.32,2.3-.8-.63-3.97-3.93-4.87-4.18-1.16-.32-2.45,1.3-3.45,1.74.26-.04-.24.23,0,.14Z"/>
          <path class="cls-35" d="M898.84,137.78c1.51-.32,5.53-1.19,6.97-.71-.84.48-3.24,1.5-4.11,1.98-.8.44-1.74.63-2.47,1.1-.37-.92-.23-1.41-.39-2.37Z"/>
          <path class="cls-35" d="M901.94,154.35c1.22-1.55,4.43-2.89,6.22-3.53-1.63,1.71-3.58,4.15-5.14,5.75-.53-.7-.95-1.35-1.08-2.22Z"/>
          <path class="cls-35" d="M922.95,158.86c.13.87.97,2.82,1.2,3.66.64-.29,1.28-.62,1.89-.97-.7-.69-2.58-2.32-3.1-2.69Z"/>
          <path class="cls-35" d="M934.76,152c-1.04-.24-2.95-1.12-3.65-.92.47.87,1.87,2.26,2.57,2.89.38-.64.74-1.3,1.08-1.97Z"/>
          <path class="cls-35" d="M930.77,121.02c.44-.47,1.52-1.68,1.99-2.18-.31-.34-.63-.65-.95-.9-.31.78-1.08,2.35-1.04,3.08Z"/>
          <g>
            <path class="cls-6" d="M904.33,154.34c-2.12-3.24-3.06-6.95-3.3-10.74-2.31.71-4.76,1.75-6.24,1.8-5.87.19-11.7.53-17.57.86-12.47.7-2.98-3.71-15.36-4.79-12.52-1.1-25.03-.28-37.53.65-12.72.95-31.89,1.83-44.58,3.12-11.33,1.15-52.23,2.97-63.64,3.18-19.8.36-76.1-6.2-91.8-18.45-.42,2.99-.38,6.04.04,9.01,0,.07.02.13.03.2.16,1.09.36,2.16.61,3.22.02.08.04.15.05.23.56,2.32,1.34,4.55,2.28,6.64.79,1.76,1.86,3.29,3.13,4.54.03.03.06.06.09.09.19.19.39.37.59.54.06.05.12.1.18.15.18.15.36.29.54.43.07.05.14.11.22.16.18.13.36.25.54.37.08.05.15.1.23.15.19.12.39.23.59.35.07.04.13.08.2.11,1.24.66,2.57,1.1,3.95,1.3,30.84,4.5,156.78,4.71,190.41,5.17,18.02.25,14.49-1.13,33.31-1.12.35,0,.7,0,1.05,0,2.51,0,5.02.02,7.55.04.7,0,1.39,0,2.09.01,3.16.03,6.33.08,9.51.16,2.61.06,5.22.15,7.84.25,7.85.3-5.41-.14,2.58.04.55.01,1.13.04,1.71.07,7.28.41,15.06,2.22,23.37,2.09-5.67-.31-9.8-5.44-12.66-9.83Z"/>
            <path class="cls-10" d="M916.99,164.17c.26.01.52.01.79,0-.27,0-.53,0-.79,0Z"/>
            <path class="cls-10" d="M919.16,164.05s.04,0,.06,0c-.02,0-.04,0-.06,0Z"/>
            <path class="cls-10" d="M918.21,164.15c.11,0,.23-.02.34-.03-.11.01-.23.02-.34.03Z"/>
          </g>
        </g>
        <path class="cls-23" d="M938.44,135.51c-.15-3.91-.33-7.25-2.13-10.83-.97-1.94-1.95-3.95-3.35-5.62-.07-.08-.13-.14-.2-.21h0s0,0,0,0c-1.52-1.69-3.21-2.15-5.15-3.22-1.52-.84-2.98-1.32-4.38-1.53,0,0,0-.02.01-.02-11.92-1.24-32.65-1.42-44.49-2.13-34.88-2.1-25.1,4.78-58.02,2.83-29.79-1.77-155.27-7.82-182.51-3.09-2.39.41-4.64,1.57-6.48,3.36-4.38,4.28-6.67,9.5-7.43,14.92,0,0,0,0,0,0,0,0,0,.01,0,.02-.1.74-.18,1.48-.23,2.23,0,0,0,.01,0,.02-.05.75-.07,1.5-.06,2.24,0,0,0,.01,0,.02,0,.75.04,1.5.09,2.24,0,0,0,0,0,.01.01.19.03.38.05.57h0s0,0,0,0c.05.56.12,1.11.19,1.66,0,.07.02.13.03.2,0,0,0,0,0,0,0,0,0,0,0,0,.16,1.09.36,2.16.61,3.22.02.08.04.15.05.23,0,0,0,0,0,0,0,0,0,0,0,0,.13.53.27,1.05.42,1.57,0,0,0,0,0,0h0c.18.61.37,1.21.57,1.8,0,.01,0,.03.01.04.18.51.36,1.02.56,1.52.03.09.07.18.11.26.2.49.4.97.61,1.45.18.4.37.77.58,1.15.04.08.08.15.13.23.17.29.34.58.53.85h0s0,0,0,0c.05.07.1.15.15.22,0,0,0,.01.01.02.25.36.51.7.78,1.02.02.03.04.06.07.08.28.34.58.66.88.96.03.03.06.06.09.09,0,0,0,0,0,0h0c.19.19.38.37.58.54h0s0,0,0,0c.06.05.11.1.17.15,0,0,0,0,0,0,0,0,0,0,0,0,.18.15.36.29.54.43.07.05.14.11.22.16,0,0,0,0,0,0s0,0,0,0c.18.13.36.25.54.37.08.05.15.1.23.15.19.12.39.23.59.34h0s0,0,0,0c.06.04.13.07.19.11.27.14.54.28.82.4,0,0,0,0,0,0h0s.06.03.1.04c.05.02.09.04.14.06.25.1.5.2.75.29.09.03.17.06.26.08.23.07.45.14.68.19.09.02.17.05.26.07.31.07.62.13.94.18,30.84,4.5,156.78,4.71,190.41,5.17.57,0,1.12.01,1.65.02,1.24.01,2.42.02,3.55.02,20.03.12,23.68-1.23,42.29-1.05,2.01.03,4.01.05,6.02.1,2.58.06,5.17.15,7.76.25.03-.01.71,0,2.66.04.55.01,1.13.04,1.71.07,0,0,0,0,.01,0,3.3.19,6.7.66,10.2,1.11.07,0,.15.02.22.03.38.05.77.1,1.15.15.77.1,1.55.19,2.34.28.19.02.38.04.57.06.84.09,1.69.17,2.55.24.14.01.28.02.43.03.9.07,1.8.12,2.71.16.09,0,.18,0,.27,0,.97.03,1.94.05,2.92.03,2.19.12,4.74-.55,7.16-1.65h0s0,0,0,0c2.75-1.25,5.31-3.07,6.93-4.93.95-1.1,1.82-2.32,2.6-3.61h0s0,0,0,0c.15-.25.28-.51.42-.76.22-.4.46-.79.66-1.21,0,0,0,0,0,0,1.74-3.46,2.91-7.35,3.42-11.18.24-1.81.33-3.6.26-5.32Z"/>
      </g>
      <path class="cls-30" d="M787,133.02c0-5.05-3.8-8.57-9.24-8.57s-9.61,3.55-9.61,8.63c0,1.34.29,3.06,1.38,4.76-1.66,1.88-2.08,3.99-2.08,5.66,0,4.97,4.26,8.57,10.14,8.57s10.28-3.64,10.28-8.66c0-2.33-.75-4.39-2.17-6.01.84-1.33,1.3-2.84,1.3-4.38Z"/>
      <path class="cls-28" d="M770.45,143.49c0-2.6,1.48-4.23,3.42-5.26v-.14c-1.62-1.2-2.72-2.8-2.72-5.01,0-3.47,2.74-5.63,6.61-5.63s6.24,2.18,6.24,5.57c0,1.99-1.2,3.64-2.63,4.62v.14c1.99,1.04,3.5,2.77,3.5,5.63,0,3.22-2.91,5.66-7.28,5.66-4.09,0-7.14-2.27-7.14-5.57ZM780.25,143.21c0-1.82-1.6-2.6-4.14-3.7-.84.81-1.4,2.07-1.4,3.39,0,1.71,1.37,2.69,3,2.69,1.43,0,2.55-.73,2.55-2.38ZM779.97,133.36c0-1.51-.87-2.46-2.35-2.46-1.12,0-2.1.7-2.1,2.18,0,1.65,1.29,2.55,3.33,3.36.78-.95,1.12-2.02,1.12-3.08Z"/>
    </g>
  </g>
</svg>