<?xml version="1.0" encoding="UTF-8"?>
<svg xmlns="http://www.w3.org/2000/svg" xmlns:xlink="http://www.w3.org/1999/xlink" viewBox="0 0 1615.6 295.54">
  <defs>
    <style>
      .cls-1 {
        fill: #bdb0a5;
      }

      .cls-1, .cls-2, .cls-3, .cls-4, .cls-5, .cls-6, .cls-7 {
        stroke: #231815;
      }

      .cls-1, .cls-3, .cls-5, .cls-7 {
        stroke-width: 3px;
      }

      .cls-1, .cls-4, .cls-5, .cls-6, .cls-7 {
        stroke-linecap: round;
        stroke-linejoin: round;
      }

      .cls-8 {
        fill: #593016;
      }

      .cls-8, .cls-9, .cls-10, .cls-11, .cls-12, .cls-13, .cls-14, .cls-15, .cls-6 {
        opacity: .32;
      }

      .cls-8, .cls-9, .cls-10, .cls-11, .cls-12, .cls-13, .cls-14, .cls-15, .cls-6, .cls-16 {
        mix-blend-mode: multiply;
      }

      .cls-17 {
        fill: #cdae8b;
      }

      .cls-17, .cls-18, .cls-19, .cls-20, .cls-21 {
        opacity: .74;
      }

      .cls-2, .cls-22, .cls-3, .cls-4, .cls-6 {
        fill: none;
      }

      .cls-2, .cls-3 {
        stroke-miterlimit: 10;
      }

      .cls-2, .cls-4, .cls-6 {
        stroke-width: 2px;
      }

      .cls-23 {
        fill: #fff;
      }

      .cls-24 {
        fill: #833d23;
      }

      .cls-9, .cls-16 {
        fill: #4d150d;
      }

      .cls-10 {
        fill: #70604a;
      }

      .cls-25 {
        fill: #874725;
      }

      .cls-26 {
        fill: #5d7467;
      }

      .cls-11 {
        fill: #531d1f;
      }

      .cls-12 {
        fill: #6c2d30;
      }

      .cls-18 {
        fill: #e2caaa;
      }

      .cls-5 {
        fill: #e4ded2;
      }

      .cls-27 {
        isolation: isolate;
      }

      .cls-19 {
        fill: #cbbfa0;
      }

      .cls-13 {
        fill: #675b57;
      }

      .cls-28 {
        fill: #ac8458;
      }

      .cls-29 {
        fill: #231815;
      }

      .cls-20 {
        fill: #ded7c1;
      }

      .cls-30 {
        fill: #87544f;
      }

      .cls-14 {
        fill: #5d3a2b;
      }

      .cls-15 {
        fill: #765040;
      }

      .cls-31 {
        fill: #c67c47;
      }

      .cls-21 {
        fill: #a86030;
      }

      .cls-16 {
        opacity: .44;
      }

      .cls-32 {
        clip-path: url(#clippath);
      }

      .cls-7 {
        fill: #e7e1d3;
      }
    </style>
    <clipPath id="clippath">
      <path class="cls-22" d="M1003.74,191.46s-13.96-29.54-17.03-35.55c-3.06-6.01,6.46-28.33,6.46-28.33l6.89-7.49-10.07-7.01v-4.7h10.07v-16.81l-10.07-15.31,6.24-10.89v-12.12c0-2.32,3.83-40.57,3.83-40.57l-340.74,3.66,8.43,9.96-6.89,13.79,6.13,11.55-2.3,7.6-8.43,14.18,3.06,8.01,3.06,18.12-2.3,5.66-5.21,26.05,21.42,16.85-13.91,13.78-3.06,20.86s-1.53,18.69,3.06,26.11c4.6,7.42,341.35-17.37,341.35-17.37Z"/>
    </clipPath>
  </defs>
  <g class="cls-27">
    <g id="_圖層_1" data-name="圖層 1">
      <g>
        <g>
          <path class="cls-7" d="M1003.74,191.46s-13.92-29.54-16.98-35.55c-3.06-6.01,6.46-28.33,6.46-28.33l6.89-7.49-10.07-7.01v-4.7h10.07v-16.81l-10.07-15.31,6.24-10.89v-12.12c0-2.32,3.83-40.57,3.83-40.57l-340.74,3.66,8.43,9.96-6.89,13.79,6.13,11.55-2.3,7.6-8.43,14.18,3.06,8.01,3.06,18.12-2.3,5.66-5.21,26.05,21.42,16.85-13.91,13.78-3.06,20.86s-1.53,18.69,3.06,26.11c4.6,7.42,341.31-17.37,341.31-17.37Z"/>
          <path class="cls-1" d="M662.44,208.83s-21.64-12.42-21.45-37.79c0,0,42.73,10.65,76.26,10.69,33.53.03,275.46-1.5,275.46-1.5l20.87-5.02s2.49,29.63-15.13,32.79c-17.62,3.16-318.64,6.44-336.01.82Z"/>
        </g>
        <g class="cls-32">
          <path class="cls-20" d="M953.96,17.53c-40.45,2.13-79.45,2.4-119.37,4.31-41.34,1.98-84.36,3.24-125.3,4.47-14.39.43-28.96.98-43.61,1.56-6.64,1.93-12.11,3.94-16.61,6.03,33.4-.92,67.69-2.79,101.86-4.42,46.33-2.2,91.66-4.15,136.8-4.71,33.77-.42,75.76-2.2,111.54-6.35,14.75-1.71,34.47-.73,51.56-2.29,14.27-1.3-31.52-3.37-18.55-5.49-44.84,3.89-33.92,4.54-78.33,6.89Z"/>
          <path class="cls-19" d="M934.23,88.76c-40.54.3-79.63-2.4-119.65-2.43-41.44-.03-84.55-1.39-125.6-2.63-14.42-.44-29.03-.7-43.71-.92-6.65,2.69-12.13,5.62-16.63,8.76,33.48,1.16,67.85.79,102.09.83,46.44.06,91.88.46,137.12,3.17,33.85,2.03,83.74,9.2,119.59,5.12,14.78-1.68,18.99-8.84,36.12-10.07,14.3-1.02-23.81-1.43-10.81-3.94-44.94,2.9-34.02,1.77-78.53,2.11Z"/>
          <path class="cls-20" d="M949.21,32.43c-48.14,2.45-93.44,3.18-140.91,4.82-40.54,1.4-82.01,3.03-122.55,3.97-13.68.32-26.67.59-39.6.97-3.07,2.18-5.33,4.41-6.99,6.68,15-.89,29.92-1.63,44.83-1.99,42.74-1.05,86.4-2.53,129.81-4.26,46.53-1.85,96-4.64,140.96-5.86,33.35-.9,44.34-2.57,65.03,1.59,2.08-4.07,19.34-7.53,36.58-10.96-39.12-.11-80.46,3.68-107.16,5.03Z"/>
          <path class="cls-19" d="M949.21,108.69c-48.14,2.45-93.44,3.18-140.91,4.82-40.54,1.4-82.01,3.03-122.55,3.97-13.68.32-26.67.59-39.6.97-3.07,2.18-5.33,4.41-6.99,6.68,15-.89,29.92-1.63,44.83-1.99,42.74-1.05,86.4-2.53,129.81-4.26,46.53-1.85,96-4.64,140.96-5.86,33.35-.9,44.34-2.57,65.03,1.59,2.08-4.07,19.34-7.53,36.58-10.96-39.12-.11-80.46,3.68-107.16,5.03Z"/>
          <path class="cls-20" d="M949.21,133.14c-48.14,2.45-93.44,3.18-140.91,4.82-40.54,1.4-82.01,3.03-122.55,3.97-13.68.32-26.67.59-39.6.97-3.07,2.18-5.33,4.41-6.99,6.68,15-.89,29.92-1.63,44.83-1.99,42.74-1.05,86.4-2.53,129.81-4.26,46.53-1.85,96-4.64,140.96-5.86,33.35-.9,44.34-2.57,65.03,1.59,2.08-4.07,19.34-7.53,36.58-10.96-39.12-.11-80.46,3.68-107.16,5.03Z"/>
          <path class="cls-20" d="M626.47,59.85c.06.12.18.23.25.35,20.41-1.34,41.75-.18,62.43-1.42,43.89-2.63,88.23-4.27,132.2-6.31,41.81-1.94,78.71-3,118.46-2.73,25.3.17,61.52-2.66,88.33-6.9-119.85-4.73-265.23,6.25-401.67,17Z"/>
          <path class="cls-20" d="M635.99,171.04c.06.12.18.23.25.35,20.41-1.34,41.75-.18,62.43-1.42,43.89-2.63,91.27-.21,135.24-2.25,41.81-1.94,78.71-3,118.46-2.73,17.87.12,58.9-1.91,93.06-7.31-127.8-5.04-280.36,3.17-409.44,13.35Z"/>
          <path class="cls-20" d="M626.47,108.25c.06.12.18.23.25.35,20.41-1.34,41.75-.18,62.43-1.42,43.89-2.63,88.23-4.27,132.2-6.31,41.81-1.94,78.71-3,118.46-2.73,25.3.17,61.52-2.66,88.33-6.9-119.85-4.73-265.23,6.25-401.67,17Z"/>
          <path class="cls-20" d="M1050.29,145.27c-9.41-2.49-36.44-4.81-53.89-4.27-46.16,1.43-79.87,2.57-125.85,4.3-49.34,1.85-98.47,4.62-148.21,7.04-22.22,1.08-45.84,1.32-68.88,2.12.03.01.05.03.08.04,4.63,2.49,16.08,3.61,29.38,3.14,66.06-2.33,133.36-4.78,201.58-6.7,44.1-1.24,80.11-5.71,125.06-6.99,11.28-.32,31.58,3.19,44.71,3.09-.87-.68-2.13-1.28-3.98-1.77Z"/>
          <g>
            <path class="cls-11" d="M1000.09,178.46c-5.33-3.27-12.01-15.76-9.61-19.35-11.62.51-45.77,12.52-55.28,13.02-67.89,3.54-97.43,3.75-156.16.8-47.19-2.37-68.11-3.42-116.99-3.88-3.54-.03-15.37,14.4,97.38,13.95,1.35,0,2.69.07,4.04.11,9.63.27,187.18-2.71,189.39-2.62,27.64,1.16,54.45,2.4,47.23-2.02Z"/>
            <path class="cls-14" d="M1060.25,194.68c.08,0,.17,0,.25,0-.08,0-.17,0-.25,0Z"/>
            <path class="cls-14" d="M1056.51,194.67c.44,0,.89.01,1.34.01-.45,0-.9,0-1.34-.01Z"/>
          </g>
          <g>
            <path class="cls-13" d="M1008.26,69.21c-5.3-1.61-.86-16.69,1.58-18.53-11.62.37-60.65,16.58-70.16,16.93-67.91,2.45-97.44,2.84-156.14,1.91-47.16-.75-95.87-4.97-144.74-4.74-3.54.02-7.06.02-10.59.03-.6.66-1.09,1.33-1.44,2.01-1.09,2.13,1.07,3.87,5.63,5.4,4.04,1.35,14.25,2.16,26.28,2.2,34.7.12,69.75.23,105.15.39,1.35,0,2.69.01,4.04.02,9.63.04,19.29.1,28.97.15,2.68.02,5.35.03,8.03.04,12.11.07,24.25.15,36.41.24,9.99.07,19.95.16,29.92.26,29.9.28,59.82.63,90.36.85,2.12.02,4.31.04,6.52.06,20.13.24,47.98,1.32,87.99,1.42-21.53-.25-40.64-6.46-47.81-8.63Z"/>
            <path class="cls-10" d="M1056.06,77.85c.98.01,2,.02,3.04.02-1.04,0-2.06,0-3.04-.02Z"/>
            <path class="cls-10" d="M1064.48,77.83c.08,0,.17,0,.25,0-.08,0-.17,0-.25,0Z"/>
            <path class="cls-10" d="M1060.74,77.86c.44,0,.89,0,1.34,0-.45,0-.9,0-1.34,0Z"/>
          </g>
        </g>
      </g>
      <g>
        <g>
          <g>
            <path class="cls-24" d="M737.25,95.25c-20.13-.99-39.72.49-59.02,1.48-5.18.27-10.09,2.95-12.81,7.49-3.95,6.57-3.9,14.83-2.54,23.56.64,4.13,1.92,7.47,3.69,10.36,1.57,2.57,4.43,4,7.4,3.95,14.81-.28,29.9-.63,45.29-.44,9.95.12,19.92.66,30.06.78,7.4.09,15.34,2.01,23.88,1.79-1.83-13.8-.53-34.47,6.43-47.41-11.35-1.06-31.1-1.01-42.38-1.56Z"/>
            <path class="cls-21" d="M730.73,101.82c-8.93.86-17.9-.07-26.76.59-9.17.68-18.87.61-28.1.57-3.24-.01-6.5.08-9.78.2-1.15,1.68-2.02,3.49-2.65,5.39,7.54.11,15.1-.68,22.69-1.23,10.28-.75,20.38-1.27,30.71-.45,7.73.62,19.61,3.97,27.06.98,3.07-1.23,5.31-3.48,8.96-4.48,3.04-.84,6.15-1.92,8.73-3.6-9.6,2.45-21.05,1.09-30.86,2.03Z"/>
            <path class="cls-21" d="M730.54,112.93c-10.65.93-20.98.27-31.64.43-9.1.14-18.37.47-27.56.16-3.1-.11-6.05-.24-8.97-.26-.28,2.04-.36,4.15-.3,6.33,3.29-.41,6.6-.68,9.97-.59,9.68.27,19.48.15,29.18-.22,10.4-.4,21.29-1.63,31.45-1.45,7.54.13,12.27,2.65,17.88,7.35-.32-3.92.47-10.59,3.77-13.42-7.23-1.04-16.28,1.01-23.79,1.67Z"/>
            <path class="cls-21" d="M662.29,123.16c.14,1.52.34,3.06.58,4.62.04.26.11.47.16.73,7.06-.93,14.01-2.28,20.75-4.34-6.54-1.8-13.95-1.73-21.49-1Z"/>
            <path class="cls-21" d="M663.98,132.4c.04.12.09.23.13.35,4.46-.69,9.62,1.09,14.16.51,9.63-1.24,19.56-1.5,29.33-2.16,9.29-.62,17.61-.54,26.86.93,5.89.93,16.22,3.08,21.59-.25-28.66-8.27-62.63-5.76-92.06.62Z"/>
            <path class="cls-21" d="M756.48,141.14c-2.67-2.72-6.86-2-10.79-2-10.39,0-20.49-3.72-30.78-3.43-11.04.32-21.86,1.52-32.89,2.39-4.93.38-10.34-.11-15.51-.02,0,.01.02.03.03.04,1.56,2.58,4.43,4.02,7.41,3.96,14.82-.27,29.9-.62,45.3-.43,9.95.12,19.92.66,30.06.78,2.55.03,5.42.27,8.43.56-.33-.69-.75-1.32-1.27-1.85Z"/>
            <path class="cls-31" d="M793.62,121.94c-.82,5.76-3.25,11.71-6.93,15.91-2.93,3.34-9.02,6.56-13.49,6.36-5.4-.24-9.28-5.04-11.98-9.16-3.17-4.85-3.49-10.86-2.75-16.53.54-4.15,1.84-8.51,4.6-11.69,5.33-6.13,12.09-13.25,20.7-8.61,1.92,1.04,3.59,1.43,5.07,3.19,1.32,1.56,2.23,3.46,3.14,5.28,1.68,3.37,1.82,6.52,1.93,10.21.05,1.63-.06,3.32-.3,5.03Z"/>
            <path class="cls-25" d="M782.33,101.3c-7.4-1.09-15.11,8.07-17.58,13.98-2.5,5.98.02,16.19,4.14,20.96,1.74,2.01,5.74,2.71,8.28,2.25,3.51-.63,6.43-4.14,8.26-6.94,2.21-3.38,4.83-6.66,5.42-10.78.56-3.88-.39-8.28-2.06-11.72-1.82-3.73-2.51-7.18-6.46-7.76Z"/>
            <path class="cls-31" d="M780.96,104.86c-3.74-.29-8.46,3.49-10.69,6.34-2.1,2.69-3.45,6.85-3.44,10.16,0,4.97,2.09,16.22,9.17,14.54,5.97-1.42,11.06-9.96,11.76-15.72.37-3.05-.2-7.29-1.27-10.21-1.14-3.1-2.13-4.85-5.53-5.11Z"/>
            <path class="cls-25" d="M780.86,108.37c-4.19-1.12-8.33,3.67-9.85,6.93-1.46,3.14-1.37,7.47-.72,10.82.59,3.05,2.19,7.6,6.21,6.19,4.21-1.48,6.06-6.83,7.73-10.55,1.45-3.24,1.34-5.39.32-8.68-.7-2.25-1.05-4-3.69-4.71Z"/>
            <path class="cls-31" d="M779.12,112.08c-4.42.7-6.55,6.55-6.58,10.29-.02,2.67-.04,8.17,4.14,5.83,2.61-1.46,5.82-6.15,5.95-9.13.09-2.19-.17-7.53-3.5-7Z"/>
            <path class="cls-25" d="M778.76,116.22c-3.02.5-6.04,8.63-2.06,8.05,2.87-.42,5.33-8.58,2.06-8.05Z"/>
            <path class="cls-25" d="M763.81,101.89c1.91.42,6,1.76,7.91,2.09-.76-.59-3.75-3.67-4.6-3.9-1.1-.29-2.35,1.25-3.3,1.67.25-.04-.23.22,0,.13Z"/>
            <path class="cls-25" d="M756.16,119.46c1.45-.32,5.28-1.18,6.65-.74-.81.47-3.1,1.45-3.94,1.91-.77.42-1.66.62-2.36,1.06-.35-.87-.2-1.33-.35-2.23Z"/>
            <path class="cls-25" d="M758.95,135.09c1.18-1.48,4.25-2.78,5.96-3.4-1.57,1.63-3.46,3.96-4.96,5.48-.5-.65-.89-1.27-1-2.09Z"/>
            <path class="cls-25" d="M764.52,141.49c1.81-.55,4.4-2.78,6.26-2.94-.59,1.13-2.3,3.46-3.58,3.84-.9.27-2.38.26-2.68-.9Z"/>
            <path class="cls-25" d="M778.93,139.14c.11.82.9,2.65,1.11,3.44.62-.28,1.22-.6,1.81-.93-.66-.64-2.44-2.17-2.92-2.51Z"/>
            <path class="cls-25" d="M790.26,132.54c-.99-.22-2.8-1.02-3.47-.83.44.81,1.76,2.12,2.42,2.71.37-.61.72-1.23,1.05-1.87Z"/>
            <path class="cls-25" d="M786.75,103.3c.43-.45,1.47-1.6,1.92-2.08-.29-.32-.59-.6-.9-.84-.3.74-1.05,2.23-1.02,2.93Z"/>
            <path class="cls-25" d="M793.91,116.42c-.02-.55-.04-1.09-.07-1.63-.91.4-1.77.84-2.09,1.42.66.1,1.4.18,2.16.21Z"/>
            <g>
              <path class="cls-9" d="M761.23,135.06c-1.99-3.04-2.85-6.54-3.04-10.12-2.7.85-5.61,2.17-6.76,1.65-2.1-.96-4.32-1.58-6.52-.81-15.66,5.5-29.33-1.93-44.17-3.07-11.92-.91-23.85,0-35.78,1-.86.07-1.73.11-2.59.18.14,1.29.3,2.58.5,3.9.64,4.13,1.92,7.46,3.69,10.36,1.57,2.57,4.43,4,7.4,3.95,8.59-.16,17.26-.34,26.04-.43.33,0,.67,0,1-.01,2.39-.02,4.79-.03,7.19-.04.67,0,1.33,0,1.99,0,3.01,0,6.03.02,9.06.05,2.49.03,4.98.09,7.47.16,7.48.21,14.99.53,22.6.62.53,0,1.08.03,1.63.05,6.93.31,14.33,1.95,22.25,1.74-5.4-.24-9.28-5.04-11.98-9.16Z"/>
              <path class="cls-8" d="M773.21,144.22c.25.01.5,0,.76,0-.26,0-.51.01-.76,0Z"/>
              <path class="cls-8" d="M775.27,144.08s.04,0,.06,0c-.02,0-.04,0-.06,0Z"/>
              <path class="cls-8" d="M774.36,144.19c.11,0,.22-.02.33-.03-.11.01-.22.02-.33.03Z"/>
            </g>
          </g>
          <path class="cls-4" d="M793.84,114.79s0,0,0,0h0c-.14-2.82-.49-5.39-1.85-8.09-.91-1.82-1.82-3.72-3.14-5.28-.06-.07-.13-.13-.19-.2h0s0,0,0,0c-1.44-1.58-3.04-2-4.88-2.99-1.44-.78-2.83-1.22-4.16-1.4,0,0,0-.02.01-.02-11.35-1.06-31.1-1.01-42.38-1.56-20.13-.99-39.72.49-59.02,1.48-4.77.24-9.3,2.55-12.12,6.45,0,0-.01,0-.02,0-.04.06-.07.11-.11.17-.2.28-.39.58-.57.88-.04.07-.08.15-.12.22-.02.03-.04.06-.05.1-.23.4-.45.81-.65,1.23-.02.03-.03.07-.05.1-.2.42-.39.84-.56,1.26-.01.03-.02.06-.03.09-.18.44-.34.89-.49,1.34,0,0,0,0,0,0h0c-.5,1.51-.85,3.08-1.07,4.7h0s0,.03,0,.04c-.43,3.12-.4,6.43-.07,9.85,0,0,0,0,0,0,0,.01,0,.02,0,.04.06.68.14,1.37.23,2.06.02.13.03.26.05.38.09.71.19,1.42.3,2.14.22,1.41.52,2.72.88,3.97.03.12.07.24.1.36.09.31.2.6.3.9.05.14.09.28.14.41.11.32.24.62.36.93.04.11.08.22.13.33.09.2.18.4.27.59.09.2.18.41.28.61.05.1.1.2.15.29.14.29.29.58.44.86.04.07.08.13.12.2.16.28.32.56.49.84,0,0,0,0-.01,0,0,.01.02.03.03.04.98,1.61,2.47,2.78,4.17,3.41,1.03.38,2.13.58,3.25.55,1.74-.03,3.48-.07,5.23-.1,6.88-.13,13.8-.26,20.81-.33.33,0,.67,0,1-.01h0c2.39-.02,4.79-.03,7.19-.04.43,0,.86,0,1.3,0,.45,0,.91,0,1.36,0,2.79,0,5.59.01,8.4.05,2.49.03,4.98.09,7.47.16,0,0,0,0,0,0,2.6.07,5.2.16,7.81.24,1.8.06,3.61.11,5.42.17.78.02,1.57.05,2.36.07,2.33.06,4.66.12,7.01.14.53,0,1.08.03,1.63.05,0,0,0,0,0,0,3.13.14,6.37.55,9.7.94.08,0,.16.02.24.03.36.04.72.08,1.08.12.74.08,1.48.16,2.23.24.18.02.36.03.54.05.8.08,1.61.15,2.43.2.13,0,.27.02.4.03.86.06,1.72.1,2.59.12.08,0,.17,0,.25,0,.92.02,1.85.03,2.78,0h0c2.09.09,4.53-.57,6.84-1.63h0s0,0,0,0c2.63-1.21,5.09-2.95,6.65-4.73.92-1.05,1.76-2.21,2.51-3.44h0s0,0,0,0c.13-.21.24-.43.36-.64.24-.41.48-.81.69-1.24,0,0,0,0,0,0,1.7-3.29,2.85-6.98,3.36-10.6.24-1.71.35-3.4.3-5.03-.02-.73-.05-1.43-.08-2.12Z"/>
        </g>
        <g>
          <g>
            <path class="cls-24" d="M806.88,99.78c1.63-1.72,3.63-2.83,5.75-3.23,24.15-4.53,44.54,1.27,70.95,2.96,29.19,1.87,20.51-4.72,51.44-2.71,10.5.68,28.88.85,39.45,2.04-6.35,13.05-7.36,34-5.53,48.02-7.95.13-15.35-1.9-22.24-2.07-9.44-.23.02-.04-9.24-.28-22.99-.58-25.8,1.19-47.45.87-29.82-.44-50.62-.64-77.96-4.96-3.84-.61-7.28-3.52-9.09-7.85-4.19-10.07-4.71-23.69,3.92-32.8Z"/>
            <path class="cls-21" d="M957.72,101.68c-8.91,2.38-19.58.88-28.7,1.73-8.3.77,2.08.58-6.15,1.14-8.53.59-17.55.41-26.14.27-11.02-.18-2.84,1.92-13.95,1.23-5.68-.35-11.31-.4-16.93.3,8.8,3.05-.07,1.1,9.1,2.93,10.44,2.09,20.88.79,31.36.08,9.56-.65,18.95-1.07,28.57-.12,7.2.71-.46,3.4,6.45.45,2.85-1.21,4.91-3.47,8.29-4.45,2.82-.82,5.71-1.89,8.09-3.56Z"/>
            <path class="cls-21" d="M860.27,108.1c-6.47-3.02-5.81-4.72-12.6-6.51-6.26-1.65-12.79-.07-19.17.97-3.28.53-6.54,1.22-9.83,1.69-1.65.24-3.51.11-5.08.57,6.64,2.66,13.83,3.98,20.78,2.37-4.49,1.05-8.86,2.51-13.36,3.57-3.65.86-9.07.83-12.23,2.81,1-.62,3.51-.61,4.74-.84,2.01-.37,4.07-.55,6.09-.85,4.18-.61,8.37-1.23,12.59-1.41,16.05-.68,24.48,2.44,40.19,4.37,5.36.66,8.62-1.54,13.92-1.19-8.51-2.41-17.82-1.72-26.03-5.56Z"/>
            <path class="cls-21" d="M871.36,116.28c7.31-1.71,13.83-1.17,21.25-.81,8.55.42,17.17.17,25.64.14,9.91-.05.79-.11,10.69-.94,6.99-.59,15.38-2.56,22.12-1.44-3.05,2.84-3.72,9.6-3.39,13.57-5.26-4.83-9.69-7.43-16.7-7.65-9.45-.29-.83,1.68-10.5,1.97-9.02.27-18.14.29-27.15-.09-8.82-.37,2.35,3.02-6.65,3.79-15.5,1.33-23.43-1.47-38.77-2.21-10.76-.52-21.53-1.95-32-3.78,7.53-1.61,14.78-2.99,22.39-2.63,8.11.39,8.78,3.67,16.98,3.48,7.12-.16,14.46.49,21.5-.02,4.06-.29-8.33-.09-5.41-3.39Z"/>
            <path class="cls-21" d="M856.01,128.68c-9.18-.32-10.62-.12-19.79-1.67-7.92-1.34-15.97-2.83-23.84-4.1-3.91-.63-8.11-1.66-12.24-1.79.19,2.25.59,4.47,1.16,6.6,1.6.25,3.19.58,4.87,1.01,10.04,2.61,19.92,1.7,30.01,2.98,9.47,1.2,10.95,2.26,20.47,1.92,22.03-.79,26.3-.33,47.62-7.23-13.59-4.23-11.69,1.83-25.64,2.8-7.48.52-15.27-.26-22.64-.51Z"/>
            <path class="cls-21" d="M885.68,134.6c27.39-6.2,40.35-9.25,67.18-.53-4.96,3.32-14.6,1.04-20.08.02-8.62-1.59,2.38-.93-6.26-.4-9.08.56-18.32.72-27.27,1.87-4.85.62-10.5-1.94-14.99-.2-.85-.19,1.18-.48,1.42-.77Z"/>
            <path class="cls-21" d="M846.68,137.37c-8.31-.56-16.6-1.74-24.8-2.72-5-.59-11.85-1.04-17.82.06,1.35,2.19,3.16,3.87,5.22,4.85.22,0,.44-.03.65-.04,15.02-.23,30.09,3.26,45.15,2.24,8.05-.55,8.87-1.55,16.96-1.93,8.33-.39-1.63-.03,6.44-2.28-1.9-1.12,15.15.16,12.99,0-17.56-1.23-27.15,1-44.79-.19Z"/>
            <path class="cls-21" d="M937.46,144.51c9.26.23-.2.04,9.24.28,2.37.06,5.04.33,7.85.66-.32-.7-.71-1.35-1.2-1.89-2.51-2.79-6.4-2.11-10.06-2.15-9.67-.11-.35-3.16-9.93-2.97-10.27.2-20.33,1.31-30.58,2.06-6.69.49-14.37-.95-20.85.38-2.35.48,14.15,2.83,11.63,4.54,20.53.19,22.15-1.45,43.89-.91Z"/>
            <path class="cls-31" d="M987.73,124.49c-.71,5.83-2.91,11.84-6.3,16.06-2.69,3.36-8.33,6.56-12.49,6.31-5.03-.3-8.68-5.21-11.23-9.42-3-4.96-3.35-11.05-2.71-16.8.46-4.2,1.63-8.61,4.17-11.81,4.9-6.16,11.13-13.31,19.18-8.51,1.8,1.07,3.35,1.49,4.75,3.29,1.24,1.6,2.11,3.53,2.97,5.39,1.6,3.43,1.76,6.63,1.89,10.38.06,1.65-.02,3.37-.23,5.1Z"/>
            <path class="cls-25" d="M977.03,103.43c-6.9-1.19-13.99,8.03-16.23,13.99-2.27,6.04.17,16.42,4.05,21.31,1.63,2.06,5.36,2.81,7.73,2.37,3.26-.61,5.94-4.13,7.62-6.95,2.03-3.41,4.43-6.71,4.94-10.87.48-3.92-.44-8.4-2.03-11.91-1.73-3.81-2.41-7.31-6.08-7.94Z"/>
            <path class="cls-31" d="M975.78,107.03c-3.48-.33-7.84,3.45-9.88,6.32-1.93,2.71-3.14,6.92-3.11,10.26.05,5.04,2.1,16.48,8.67,14.85,5.54-1.37,10.19-9.98,10.8-15.82.32-3.09-.26-7.4-1.28-10.37-1.09-3.16-2.03-4.94-5.19-5.24Z"/>
            <path class="cls-25" d="M975.72,110.59c-3.91-1.18-7.72,3.63-9.1,6.93-1.33,3.17-1.21,7.56-.57,10.96.58,3.1,2.11,7.73,5.84,6.34,3.91-1.46,5.57-6.86,7.09-10.62,1.32-3.27,1.2-5.45.21-8.8-.67-2.29-1.01-4.07-3.48-4.81Z"/>
            <path class="cls-31" d="M974.14,114.33c-4.11.66-6.04,6.57-6.03,10.37,0,2.71.04,8.29,3.9,5.96,2.42-1.45,5.36-6.18,5.45-9.19.07-2.22-.23-7.64-3.32-7.14Z"/>
            <path class="cls-25" d="M973.84,118.53c-2.81.47-5.54,8.69-1.84,8.14,2.66-.4,4.87-8.65,1.84-8.14Z"/>
            <path class="cls-25" d="M959.8,103.83c1.78.45,5.6,1.85,7.38,2.21-.71-.61-3.52-3.77-4.32-4-1.03-.31-2.18,1.24-3.06,1.66.23-.04-.21.22,0,.13Z"/>
            <path class="cls-25" d="M952.84,121.57c1.34-.31,4.9-1.14,6.18-.68-.75.46-2.87,1.44-3.64,1.89-.71.42-1.54.61-2.19,1.05-.33-.89-.2-1.36-.35-2.27Z"/>
            <path class="cls-25" d="M955.59,137.46c1.08-1.48,3.93-2.77,5.51-3.38-1.44,1.64-3.18,3.98-4.56,5.51-.47-.67-.84-1.29-.95-2.13Z"/>
            <path class="cls-25" d="M974.22,141.78c.11.83.86,2.7,1.07,3.5.57-.28,1.13-.59,1.68-.93-.62-.66-2.29-2.23-2.74-2.58Z"/>
            <path class="cls-25" d="M984.7,135.2c-.92-.23-2.61-1.07-3.24-.88.42.83,1.66,2.16,2.27,2.77.34-.61.66-1.24.96-1.89Z"/>
            <path class="cls-25" d="M981.15,105.51c.39-.45,1.35-1.61,1.77-2.09-.28-.33-.56-.62-.85-.87-.27.75-.95,2.25-.92,2.96Z"/>
            <g>
              <path class="cls-16" d="M957.71,137.44c-1.88-3.11-2.72-6.66-2.92-10.3-2.05.68-4.22,1.68-5.53,1.72-5.21.18-10.38.51-15.58.83-11.06.67-2.64-3.55-13.62-4.59-11.1-1.05-22.19-.27-33.28.63-11.28.91-3.2,1.75-14.45,2.99-10.05,1.1-12.86,2.85-22.98,3.05-17.56.34-35.13-5.94-49.06-17.69-.37,2.87-.34,5.79.03,8.64,0,.06.02.13.03.19.14,1.04.32,2.07.55,3.09.02.07.03.14.05.22.5,2.22,1.19,4.36,2.02,6.37.7,1.68,1.65,3.15,2.77,4.35.03.03.06.06.08.09.17.18.34.35.52.52.05.05.1.09.16.14.16.14.32.28.48.41.06.05.13.1.19.16.16.12.32.24.48.36.07.05.14.1.2.14.17.12.35.23.52.33.06.03.12.07.18.11,1.1.63,2.28,1.06,3.5,1.25,27.35,4.31,48.14,4.52,77.96,4.96,15.98.24,12.84-1.08,29.54-1.08.31,0,.62,0,.93,0,2.22,0,4.45.02,6.69.04.62,0,1.24,0,1.86.01,2.8.03,5.61.08,8.43.15,2.32.06,4.63.14,6.95.24,6.96.29-4.79-.14,2.29.04.49.01,1,.04,1.52.07,6.45.39,13.35,2.13,20.72,2.01-5.03-.3-8.68-5.21-11.23-9.42Z"/>
              <path class="cls-8" d="M968.94,146.86c.23.01.46.01.7,0-.24,0-.47,0-.7,0Z"/>
              <path class="cls-8" d="M970.86,146.75s.04,0,.06,0c-.02,0-.04,0-.06,0Z"/>
              <path class="cls-8" d="M970.02,146.85c.1,0,.2-.01.3-.03-.1.01-.2.02-.3.03Z"/>
            </g>
          </g>
          <path class="cls-4" d="M987.96,119.39c-.13-3.75-.29-6.95-1.89-10.38-.86-1.85-1.73-3.79-2.97-5.39-.06-.08-.12-.14-.18-.21h0s0,0,0,0c-1.35-1.62-2.85-2.06-4.57-3.08-1.35-.8-2.64-1.27-3.89-1.46,0,0,0-.02.01-.02-10.57-1.19-28.95-1.36-39.45-2.04-30.93-2.01-22.25,4.58-51.44,2.71-26.41-1.69-46.8-7.49-70.95-2.96-2.12.4-4.11,1.5-5.75,3.23-3.88,4.1-5.91,9.11-6.59,14.3,0,0,0,0,0,0,0,0,0,.01,0,.02-.09.71-.16,1.42-.2,2.13,0,0,0,.01,0,.02-.04.72-.06,1.43-.06,2.15,0,0,0,0,0,.01,0,.72.03,1.44.08,2.15,0,0,0,0,0,.01.01.18.02.37.04.55h0s0,0,0,0c.05.53.1,1.06.17,1.59,0,.06.02.13.03.19,0,0,0,0,0,0,0,0,0,0,0,0,.14,1.04.32,2.07.55,3.09.02.07.03.14.05.22,0,0,0,0,0,0,0,0,0,0,0,0,.11.51.24,1.01.37,1.51,0,0,0,0,0,0h0c.16.58.33,1.16.51,1.73,0,.01,0,.03.01.04.16.49.32.97.5,1.45.03.08.06.17.09.25.17.47.35.93.54,1.39.16.38.33.74.51,1.1.04.07.07.15.11.22.15.28.3.55.47.82h0s0,0,0,0c.04.07.09.14.13.21,0,0,0,.01.01.02.22.34.45.67.69.98.02.03.04.05.06.08.25.32.51.63.78.92.03.03.06.06.08.09,0,0,0,0,0,0h0c.17.18.34.35.52.52h0s0,0,0,0c.05.05.1.09.15.14,0,0,0,0,0,0,0,0,0,0,0,0,.16.14.32.28.48.41.06.05.13.1.19.15,0,0,0,0,0,0s0,0,0,0c.16.12.32.24.48.35.07.05.14.1.21.15.17.12.35.22.52.33h0s0,0,0,0c.06.03.11.07.17.1.24.14.48.26.72.38,0,0,0,0,0,0h0s.06.02.08.04c.04.02.08.04.13.05.22.1.44.19.67.27.08.03.15.05.23.08.2.07.4.13.61.19.08.02.15.04.23.06.27.07.55.13.83.17,27.35,4.31,48.14,4.52,77.96,4.96.51,0,1,.01,1.47.02,1.1.01,2.14.02,3.15.02,17.76.11,20.99-1.18,37.49-1.01,1.78.03,3.55.05,5.34.1,2.29.06,4.58.14,6.88.24.03-.01.63,0,2.36.04.49.01,1,.04,1.51.07,0,0,0,0,0,0,2.92.18,5.94.63,9.05,1.06.07,0,.13.02.2.03.34.05.68.09,1.02.14.69.09,1.38.18,2.07.26.17.02.34.04.51.06.75.09,1.5.16,2.26.23.13.01.25.02.38.03.8.07,1.6.12,2.41.15.08,0,.16,0,.24,0,.86.03,1.72.05,2.59.03,1.94.12,4.21-.53,6.34-1.58h0s0,0,0,0c2.44-1.2,4.71-2.94,6.14-4.73.84-1.05,1.61-2.22,2.31-3.46h0s0,0,0,0c.13-.24.25-.49.37-.73.2-.38.4-.76.59-1.16,0,0,0,0,0,0,1.55-3.32,2.58-7.05,3.03-10.71.21-1.73.29-3.45.23-5.1Z"/>
        </g>
        <path class="cls-6" d="M935.72,144.75s-.05,0-.07,0c-.09.03,5.33.22.07,0Z"/>
      </g>
      <g>
        <rect class="cls-22" x="816.66" y="256.04" width="25.35" height="33.86"/>
        <path class="cls-29" d="M818.1,276.89c0-2.79,1.59-4.53,3.66-5.64v-.15c-1.74-1.29-2.91-3-2.91-5.37,0-3.72,2.94-6.03,7.08-6.03s6.69,2.34,6.69,5.97c0,2.13-1.29,3.9-2.82,4.95v.15c2.13,1.11,3.75,2.97,3.75,6.03,0,3.45-3.12,6.06-7.8,6.06-4.38,0-7.65-2.43-7.65-5.97ZM828.6,276.59c0-1.95-1.71-2.79-4.44-3.96-.9.87-1.5,2.22-1.5,3.63,0,1.83,1.47,2.88,3.21,2.88,1.53,0,2.73-.78,2.73-2.55ZM828.3,266.03c0-1.62-.93-2.64-2.52-2.64-1.2,0-2.25.75-2.25,2.34,0,1.77,1.38,2.73,3.57,3.6.84-1.02,1.2-2.16,1.2-3.3Z"/>
      </g>
      <g>
        <g>
          <g>
            <path class="cls-24" d="M183.09,94.38c-20.13-.99-39.72.49-59.02,1.48-5.18.27-10.09,2.95-12.81,7.49-3.95,6.57-3.9,14.83-2.54,23.56.64,4.13,1.92,7.47,3.69,10.36,1.57,2.57,4.43,4,7.4,3.95,14.81-.28,29.9-.63,45.29-.44,9.95.12,19.92.66,30.06.78,7.4.09,15.34,2.01,23.88,1.79-1.83-13.8-.53-34.47,6.43-47.41-11.35-1.06-31.1-1.01-42.38-1.56Z"/>
            <path class="cls-21" d="M176.57,100.95c-8.93.86-17.9-.07-26.76.59-9.17.68-18.87.61-28.1.57-3.24-.01-6.5.08-9.78.2-1.15,1.68-2.02,3.49-2.65,5.39,7.54.11,15.1-.68,22.69-1.23,10.28-.75,20.38-1.27,30.71-.45,7.73.62,19.61,3.97,27.06.98,3.07-1.23,5.31-3.48,8.96-4.48,3.04-.84,6.15-1.92,8.73-3.6-9.6,2.45-21.05,1.09-30.86,2.03Z"/>
            <path class="cls-21" d="M176.38,112.06c-10.65.93-20.98.27-31.64.43-9.1.14-18.37.47-27.56.16-3.1-.11-6.05-.24-8.97-.26-.28,2.04-.36,4.15-.3,6.33,3.29-.41,6.6-.68,9.97-.59,9.68.27,19.48.15,29.18-.22,10.4-.4,21.29-1.63,31.45-1.45,7.54.13,12.27,2.65,17.88,7.35-.32-3.92.47-10.59,3.77-13.42-7.23-1.04-16.28,1.01-23.79,1.67Z"/>
            <path class="cls-21" d="M108.13,122.29c.14,1.52.34,3.06.58,4.62.04.26.11.47.16.73,7.06-.93,14.01-2.28,20.75-4.34-6.54-1.8-13.95-1.73-21.49-1Z"/>
            <path class="cls-21" d="M109.82,131.53c.04.12.09.23.13.35,4.46-.69,9.62,1.09,14.16.51,9.63-1.24,19.56-1.5,29.33-2.16,9.29-.62,17.61-.54,26.86.93,5.89.93,16.22,3.08,21.59-.25-28.66-8.27-62.63-5.76-92.06.62Z"/>
            <path class="cls-21" d="M202.32,140.27c-2.67-2.72-6.86-2-10.79-2-10.39,0-20.49-3.72-30.78-3.43-11.04.32-21.86,1.52-32.89,2.39-4.93.38-10.34-.11-15.51-.02,0,.01.02.03.03.04,1.56,2.58,4.43,4.02,7.41,3.96,14.82-.27,29.9-.62,45.3-.43,9.95.12,19.92.66,30.06.78,2.55.03,5.42.27,8.43.56-.33-.69-.75-1.32-1.27-1.85Z"/>
            <path class="cls-31" d="M239.46,121.07c-.82,5.76-3.25,11.71-6.93,15.91-2.93,3.34-9.02,6.56-13.49,6.36-5.4-.24-9.28-5.04-11.98-9.16-3.17-4.85-3.49-10.86-2.75-16.53.54-4.15,1.84-8.51,4.6-11.69,5.33-6.13,12.09-13.25,20.7-8.61,1.92,1.04,3.59,1.43,5.07,3.19,1.32,1.56,2.23,3.46,3.14,5.28,1.68,3.37,1.82,6.52,1.93,10.21.05,1.63-.06,3.32-.3,5.03Z"/>
            <path class="cls-25" d="M228.17,100.43c-7.4-1.09-15.11,8.07-17.58,13.98-2.5,5.98.02,16.19,4.14,20.96,1.74,2.01,5.74,2.71,8.28,2.25,3.51-.63,6.43-4.14,8.26-6.94,2.21-3.38,4.83-6.66,5.42-10.78.56-3.88-.39-8.28-2.06-11.72-1.82-3.73-2.51-7.18-6.46-7.76Z"/>
            <path class="cls-31" d="M226.8,103.99c-3.74-.29-8.46,3.49-10.69,6.34-2.1,2.69-3.45,6.85-3.44,10.16,0,4.97,2.09,16.22,9.17,14.54,5.97-1.42,11.06-9.96,11.76-15.72.37-3.05-.2-7.29-1.27-10.21-1.14-3.1-2.13-4.85-5.53-5.11Z"/>
            <path class="cls-25" d="M226.7,107.5c-4.19-1.12-8.33,3.67-9.85,6.93-1.46,3.14-1.37,7.47-.72,10.82.59,3.05,2.19,7.6,6.21,6.19,4.21-1.48,6.06-6.83,7.73-10.55,1.45-3.24,1.34-5.39.32-8.68-.7-2.25-1.05-4-3.69-4.71Z"/>
            <path class="cls-31" d="M224.96,111.2c-4.42.7-6.55,6.55-6.58,10.29-.02,2.67-.04,8.17,4.14,5.83,2.61-1.46,5.82-6.15,5.95-9.13.09-2.19-.17-7.53-3.5-7Z"/>
            <path class="cls-25" d="M224.6,115.35c-3.02.5-6.04,8.63-2.06,8.05,2.87-.42,5.33-8.58,2.06-8.05Z"/>
            <path class="cls-25" d="M209.65,101.02c1.91.42,6,1.76,7.91,2.09-.76-.59-3.75-3.67-4.6-3.9-1.1-.29-2.35,1.25-3.3,1.67.25-.04-.23.22,0,.13Z"/>
            <path class="cls-25" d="M202,118.59c1.45-.32,5.28-1.18,6.65-.74-.81.47-3.1,1.45-3.94,1.91-.77.42-1.66.62-2.36,1.06-.35-.87-.2-1.33-.35-2.23Z"/>
            <path class="cls-25" d="M204.79,134.22c1.18-1.48,4.25-2.78,5.96-3.4-1.57,1.63-3.46,3.96-4.96,5.48-.5-.65-.89-1.27-1-2.09Z"/>
            <path class="cls-25" d="M210.36,140.62c1.81-.55,4.4-2.78,6.26-2.94-.59,1.13-2.3,3.46-3.58,3.84-.9.27-2.38.26-2.68-.9Z"/>
            <path class="cls-25" d="M224.77,138.27c.11.82.9,2.65,1.11,3.44.62-.28,1.22-.6,1.81-.93-.66-.64-2.44-2.17-2.92-2.51Z"/>
            <path class="cls-25" d="M236.1,131.67c-.99-.22-2.8-1.02-3.47-.83.44.81,1.76,2.12,2.42,2.71.37-.61.72-1.23,1.05-1.87Z"/>
            <path class="cls-25" d="M232.59,102.43c.43-.45,1.47-1.6,1.92-2.08-.29-.32-.59-.6-.9-.84-.3.74-1.05,2.23-1.02,2.93Z"/>
            <path class="cls-25" d="M239.75,115.55c-.02-.55-.04-1.09-.07-1.63-.91.4-1.77.84-2.09,1.42.66.1,1.4.18,2.16.21Z"/>
            <g>
              <path class="cls-9" d="M207.07,134.19c-1.99-3.04-2.85-6.54-3.04-10.12-2.7.85-5.61,2.17-6.76,1.65-2.1-.96-4.32-1.58-6.52-.81-15.66,5.5-29.33-1.93-44.17-3.07-11.92-.91-23.85,0-35.78,1-.86.07-1.73.11-2.59.18.14,1.29.3,2.58.5,3.9.64,4.13,1.92,7.46,3.69,10.36,1.57,2.57,4.43,4,7.4,3.95,8.59-.16,17.26-.34,26.04-.43.33,0,.67,0,1-.01,2.39-.02,4.79-.03,7.19-.04.67,0,1.33,0,1.99,0,3.01,0,6.03.02,9.06.05,2.49.03,4.98.09,7.47.16,7.48.21,14.99.53,22.6.62.53,0,1.08.03,1.63.05,6.93.31,14.33,1.95,22.25,1.74-5.4-.24-9.28-5.04-11.98-9.16Z"/>
              <path class="cls-8" d="M219.05,143.35c.25.01.5,0,.76,0-.26,0-.51.01-.76,0Z"/>
              <path class="cls-8" d="M221.11,143.21s.04,0,.06,0c-.02,0-.04,0-.06,0Z"/>
              <path class="cls-8" d="M220.2,143.32c.11,0,.22-.02.33-.03-.11.01-.22.02-.33.03Z"/>
            </g>
          </g>
          <path class="cls-4" d="M239.68,113.92s0,0,0,0h0c-.14-2.82-.49-5.39-1.85-8.09-.91-1.82-1.82-3.72-3.14-5.28-.06-.07-.13-.13-.19-.2h0s0,0,0,0c-1.44-1.58-3.04-2-4.88-2.99-1.44-.78-2.83-1.22-4.16-1.4,0,0,0-.02.01-.02-11.35-1.06-31.1-1.01-42.38-1.56-20.13-.99-39.72.49-59.02,1.48-4.77.24-9.3,2.55-12.12,6.45,0,0-.01,0-.02,0-.04.06-.07.11-.11.17-.2.28-.39.58-.57.88-.04.07-.08.15-.12.22-.02.03-.04.06-.05.1-.23.4-.45.81-.65,1.23-.02.03-.03.07-.05.1-.2.42-.39.84-.56,1.26-.01.03-.02.06-.03.09-.18.44-.34.89-.49,1.34,0,0,0,0,0,0h0c-.5,1.51-.85,3.08-1.07,4.7h0s0,.03,0,.04c-.43,3.12-.4,6.43-.07,9.85,0,0,0,0,0,0,0,.01,0,.02,0,.04.06.68.14,1.37.23,2.06.02.13.03.26.05.38.09.71.19,1.42.3,2.14.22,1.41.52,2.72.88,3.97.03.12.07.24.1.36.09.31.2.6.3.9.05.14.09.28.14.41.11.32.24.62.36.93.04.11.08.22.13.33.09.2.18.4.27.59.09.2.18.41.28.61.05.1.1.2.15.29.14.29.29.58.44.86.04.07.08.13.12.2.16.28.32.56.49.84,0,0,0,0-.01,0,0,.01.02.03.03.04.98,1.61,2.47,2.78,4.17,3.41,1.03.38,2.13.58,3.25.55,1.74-.03,3.48-.07,5.23-.1,6.88-.13,13.8-.26,20.81-.33.33,0,.67,0,1-.01h0c2.39-.02,4.79-.03,7.19-.04.43,0,.86,0,1.3,0,.45,0,.91,0,1.36,0,2.79,0,5.59.01,8.4.05,2.49.03,4.98.09,7.47.16,0,0,0,0,0,0,2.6.07,5.2.16,7.81.24,1.8.06,3.61.11,5.42.17.78.02,1.57.05,2.36.07,2.33.06,4.66.12,7.01.14.53,0,1.08.03,1.63.05,0,0,0,0,0,0,3.13.14,6.37.55,9.7.94.08,0,.16.02.24.03.36.04.72.08,1.08.12.74.08,1.48.16,2.23.24.18.02.36.03.54.05.8.08,1.61.15,2.43.2.13,0,.27.02.4.03.86.06,1.72.1,2.59.12.08,0,.17,0,.25,0,.92.02,1.85.03,2.78,0h0c2.09.09,4.53-.57,6.84-1.63h0s0,0,0,0c2.63-1.21,5.09-2.95,6.65-4.73.92-1.05,1.76-2.21,2.51-3.44h0s0,0,0,0c.13-.21.24-.43.36-.64.24-.41.48-.81.69-1.24,0,0,0,0,0,0,1.7-3.29,2.85-6.98,3.36-10.6.24-1.71.35-3.4.3-5.03-.02-.73-.05-1.43-.08-2.12Z"/>
        </g>
        <g>
          <g>
            <path class="cls-24" d="M252.72,98.91c1.63-1.72,3.63-2.83,5.75-3.23,24.15-4.53,44.54,1.27,70.95,2.96,29.19,1.87,20.51-4.72,51.44-2.71,10.5.68,28.88.85,39.45,2.04-6.35,13.05-7.36,34-5.53,48.02-7.95.13-15.35-1.9-22.24-2.07-9.44-.23.02-.04-9.24-.28-22.99-.58-25.8,1.19-47.45.87-29.82-.44-50.62-.64-77.96-4.96-3.84-.61-7.28-3.52-9.09-7.85-4.19-10.07-4.71-23.69,3.92-32.8Z"/>
            <path class="cls-21" d="M403.56,100.81c-8.91,2.38-19.58.88-28.7,1.73-8.3.77,2.08.58-6.15,1.14-8.53.59-17.55.41-26.14.27-11.02-.18-2.84,1.92-13.95,1.23-5.68-.35-11.31-.4-16.93.3,8.8,3.05-.07,1.1,9.1,2.93,10.44,2.09,20.88.79,31.36.08,9.56-.65,18.95-1.07,28.57-.12,7.2.71-.46,3.4,6.45.45,2.85-1.21,4.91-3.47,8.29-4.45,2.82-.82,5.71-1.89,8.09-3.56Z"/>
            <path class="cls-21" d="M306.11,107.23c-6.47-3.02-5.81-4.72-12.6-6.51-6.26-1.65-12.79-.07-19.17.97-3.28.53-6.54,1.22-9.83,1.69-1.65.24-3.51.11-5.08.57,6.64,2.66,13.83,3.98,20.78,2.37-4.49,1.05-8.86,2.51-13.36,3.57-3.65.86-9.07.83-12.23,2.81,1-.62,3.51-.61,4.74-.84,2.01-.37,4.07-.55,6.09-.85,4.18-.61,8.37-1.23,12.59-1.41,16.05-.68,24.48,2.44,40.19,4.37,5.36.66,8.62-1.54,13.92-1.19-8.51-2.41-17.82-1.72-26.03-5.56Z"/>
            <path class="cls-21" d="M317.2,115.41c7.31-1.71,13.83-1.17,21.25-.81,8.55.42,17.17.17,25.64.14,9.91-.05.79-.11,10.69-.94,6.99-.59,15.38-2.56,22.12-1.44-3.05,2.84-3.72,9.6-3.39,13.57-5.26-4.83-9.69-7.43-16.7-7.65-9.45-.29-.83,1.68-10.5,1.97-9.02.27-18.14.29-27.15-.09-8.82-.37,2.35,3.02-6.65,3.79-15.5,1.33-23.43-1.47-38.77-2.21-10.76-.52-21.53-1.95-32-3.78,7.53-1.61,14.78-2.99,22.39-2.63,8.11.39,8.78,3.67,16.98,3.48,7.12-.16,14.46.49,21.5-.02,4.06-.29-8.33-.09-5.41-3.39Z"/>
            <path class="cls-21" d="M301.86,127.81c-9.18-.32-10.62-.12-19.79-1.67-7.92-1.34-15.97-2.83-23.84-4.1-3.91-.63-8.11-1.66-12.24-1.79.19,2.25.59,4.47,1.16,6.6,1.6.25,3.19.58,4.87,1.01,10.04,2.61,19.92,1.7,30.01,2.98,9.47,1.2,10.95,2.26,20.47,1.92,22.03-.79,26.3-.33,47.62-7.23-13.59-4.23-11.69,1.83-25.64,2.8-7.48.52-15.27-.26-22.64-.51Z"/>
            <path class="cls-21" d="M331.52,133.73c27.39-6.2,40.35-9.25,67.18-.53-4.96,3.32-14.6,1.04-20.08.02-8.62-1.59,2.38-.93-6.26-.4-9.08.56-18.32.72-27.27,1.87-4.85.62-10.5-1.94-14.99-.2-.85-.19,1.18-.48,1.42-.77Z"/>
            <path class="cls-21" d="M292.52,136.5c-8.31-.56-16.6-1.74-24.8-2.72-5-.59-11.85-1.04-17.82.06,1.35,2.19,3.16,3.87,5.22,4.85.22,0,.44-.03.65-.04,15.02-.23,30.09,3.26,45.15,2.24,8.05-.55,8.87-1.55,16.96-1.93,8.33-.39-1.63-.03,6.44-2.28-1.9-1.12,15.15.16,12.99,0-17.56-1.23-27.15,1-44.79-.19Z"/>
            <path class="cls-21" d="M383.3,143.64c9.26.23-.2.04,9.24.28,2.37.06,5.04.33,7.85.66-.32-.7-.71-1.35-1.2-1.89-2.51-2.79-6.4-2.11-10.06-2.15-9.67-.11-.35-3.16-9.93-2.97-10.27.2-20.33,1.31-30.58,2.06-6.69.49-14.37-.95-20.85.38-2.35.48,14.15,2.83,11.63,4.54,20.53.19,22.15-1.45,43.89-.91Z"/>
            <path class="cls-31" d="M433.57,123.62c-.71,5.83-2.91,11.84-6.3,16.06-2.69,3.36-8.33,6.56-12.49,6.31-5.03-.3-8.68-5.21-11.23-9.42-3-4.96-3.35-11.05-2.71-16.8.46-4.2,1.63-8.61,4.17-11.81,4.9-6.16,11.13-13.31,19.18-8.51,1.8,1.07,3.35,1.49,4.75,3.29,1.24,1.6,2.11,3.53,2.97,5.39,1.6,3.43,1.76,6.63,1.89,10.38.06,1.65-.02,3.37-.23,5.1Z"/>
            <path class="cls-25" d="M422.87,102.56c-6.9-1.19-13.99,8.03-16.23,13.99-2.27,6.04.17,16.42,4.05,21.31,1.63,2.06,5.36,2.81,7.73,2.37,3.26-.61,5.94-4.13,7.62-6.95,2.03-3.41,4.43-6.71,4.94-10.87.48-3.92-.44-8.4-2.03-11.91-1.73-3.81-2.41-7.31-6.08-7.94Z"/>
            <path class="cls-31" d="M421.63,106.16c-3.48-.33-7.84,3.45-9.88,6.32-1.93,2.71-3.14,6.92-3.11,10.26.05,5.04,2.1,16.48,8.67,14.85,5.54-1.37,10.19-9.98,10.8-15.82.32-3.09-.26-7.4-1.28-10.37-1.09-3.16-2.03-4.94-5.19-5.24Z"/>
            <path class="cls-25" d="M421.56,109.72c-3.91-1.18-7.72,3.63-9.1,6.93-1.33,3.17-1.21,7.56-.57,10.96.58,3.1,2.11,7.73,5.84,6.34,3.91-1.46,5.57-6.86,7.09-10.62,1.32-3.27,1.2-5.45.21-8.8-.67-2.29-1.01-4.07-3.48-4.81Z"/>
            <path class="cls-31" d="M419.98,113.46c-4.11.66-6.04,6.57-6.03,10.37,0,2.71.04,8.29,3.9,5.96,2.42-1.45,5.36-6.18,5.45-9.19.07-2.22-.23-7.64-3.32-7.14Z"/>
            <path class="cls-25" d="M419.69,117.66c-2.81.47-5.54,8.69-1.84,8.14,2.66-.4,4.87-8.65,1.84-8.14Z"/>
            <path class="cls-25" d="M405.64,102.96c1.78.45,5.6,1.85,7.38,2.21-.71-.61-3.52-3.77-4.32-4-1.03-.31-2.18,1.24-3.06,1.66.23-.04-.21.22,0,.13Z"/>
            <path class="cls-25" d="M398.68,120.7c1.34-.31,4.9-1.14,6.18-.68-.75.46-2.87,1.44-3.64,1.89-.71.42-1.54.61-2.19,1.05-.33-.89-.2-1.36-.35-2.27Z"/>
            <path class="cls-25" d="M401.43,136.59c1.08-1.48,3.93-2.77,5.51-3.38-1.44,1.64-3.18,3.98-4.56,5.51-.47-.67-.84-1.29-.95-2.13Z"/>
            <path class="cls-25" d="M420.06,140.91c.11.83.86,2.7,1.07,3.5.57-.28,1.13-.59,1.68-.93-.62-.66-2.29-2.23-2.74-2.58Z"/>
            <path class="cls-25" d="M430.54,134.33c-.92-.23-2.61-1.07-3.24-.88.42.83,1.66,2.16,2.27,2.77.34-.61.66-1.24.96-1.89Z"/>
            <path class="cls-25" d="M427,104.64c.39-.45,1.35-1.61,1.77-2.09-.28-.33-.56-.62-.85-.87-.27.75-.95,2.25-.92,2.96Z"/>
            <g>
              <path class="cls-16" d="M403.55,136.57c-1.88-3.11-2.72-6.66-2.92-10.3-2.05.68-4.22,1.68-5.53,1.72-5.21.18-10.38.51-15.58.83-11.06.67-2.64-3.55-13.62-4.59-11.1-1.05-22.19-.27-33.28.63-11.28.91-3.2,1.75-14.45,2.99-10.05,1.1-12.86,2.85-22.98,3.05-17.56.34-35.13-5.94-49.06-17.69-.37,2.87-.34,5.79.03,8.64,0,.06.02.13.03.19.14,1.04.32,2.07.55,3.09.02.07.03.14.05.22.5,2.22,1.19,4.36,2.02,6.37.7,1.68,1.65,3.15,2.77,4.35.03.03.06.06.08.09.17.18.34.35.52.52.05.05.1.09.16.14.16.14.32.28.48.41.06.05.13.1.19.16.16.12.32.24.48.36.07.05.14.1.2.14.17.12.35.23.52.33.06.03.12.07.18.11,1.1.63,2.28,1.06,3.5,1.25,27.35,4.31,48.14,4.52,77.96,4.96,15.98.24,12.84-1.08,29.54-1.08.31,0,.62,0,.93,0,2.22,0,4.45.02,6.69.04.62,0,1.24,0,1.86.01,2.8.03,5.61.08,8.43.15,2.32.06,4.63.14,6.95.24,6.96.29-4.79-.14,2.29.04.49.01,1,.04,1.52.07,6.45.39,13.35,2.13,20.72,2.01-5.03-.3-8.68-5.21-11.23-9.42Z"/>
              <path class="cls-8" d="M414.78,145.99c.23.01.46.01.7,0-.24,0-.47,0-.7,0Z"/>
              <path class="cls-8" d="M416.7,145.88s.04,0,.06,0c-.02,0-.04,0-.06,0Z"/>
              <path class="cls-8" d="M415.86,145.98c.1,0,.2-.01.3-.03-.1.01-.2.02-.3.03Z"/>
            </g>
          </g>
          <path class="cls-4" d="M433.8,118.52c-.13-3.75-.29-6.95-1.89-10.38-.86-1.85-1.73-3.79-2.97-5.39-.06-.08-.12-.14-.18-.21h0s0,0,0,0c-1.35-1.62-2.85-2.06-4.57-3.08-1.35-.8-2.64-1.27-3.89-1.46,0,0,0-.02.01-.02-10.57-1.19-28.95-1.36-39.45-2.04-30.93-2.01-22.25,4.58-51.44,2.71-26.41-1.69-46.8-7.49-70.95-2.96-2.12.4-4.11,1.5-5.75,3.23-3.88,4.1-5.91,9.11-6.59,14.3,0,0,0,0,0,0,0,0,0,.01,0,.02-.09.71-.16,1.42-.2,2.13,0,0,0,.01,0,.02-.04.72-.06,1.43-.06,2.15,0,0,0,0,0,.01,0,.72.03,1.44.08,2.15,0,0,0,0,0,.01.01.18.02.37.04.55h0s0,0,0,0c.05.53.1,1.06.17,1.59,0,.06.02.13.03.19,0,0,0,0,0,0,0,0,0,0,0,0,.14,1.04.32,2.07.55,3.09.02.07.03.14.05.22,0,0,0,0,0,0,0,0,0,0,0,0,.11.51.24,1.01.37,1.51,0,0,0,0,0,0h0c.16.58.33,1.16.51,1.73,0,.01,0,.03.01.04.16.49.32.97.5,1.45.03.08.06.17.09.25.17.47.35.93.54,1.39.16.38.33.74.51,1.1.04.07.07.15.11.22.15.28.3.55.47.82h0s0,0,0,0c.04.07.09.14.13.21,0,0,0,.01.01.02.22.34.45.67.69.98.02.03.04.05.06.08.25.32.51.63.78.92.03.03.06.06.08.09,0,0,0,0,0,0h0c.17.18.34.35.52.52h0s0,0,0,0c.05.05.1.09.15.14,0,0,0,0,0,0,0,0,0,0,0,0,.16.14.32.28.48.41.06.05.13.1.19.15,0,0,0,0,0,0s0,0,0,0c.16.12.32.24.48.35.07.05.14.1.21.15.17.12.35.22.52.33h0s0,0,0,0c.06.03.11.07.17.1.24.14.48.26.72.38,0,0,0,0,0,0h0s.06.02.08.04c.04.02.08.04.13.05.22.1.44.19.67.27.08.03.15.05.23.08.2.07.4.13.61.19.08.02.15.04.23.06.27.07.55.13.83.17,27.35,4.31,48.14,4.52,77.96,4.96.51,0,1,.01,1.47.02,1.1.01,2.14.02,3.15.02,17.76.11,20.99-1.18,37.49-1.01,1.78.03,3.55.05,5.34.1,2.29.06,4.58.14,6.88.24.03-.01.63,0,2.36.04.49.01,1,.04,1.51.07,0,0,0,0,0,0,2.92.18,5.94.63,9.05,1.06.07,0,.13.02.2.03.34.05.68.09,1.02.14.69.09,1.38.18,2.07.26.17.02.34.04.51.06.75.09,1.5.16,2.26.23.13.01.25.02.38.03.8.07,1.6.12,2.41.15.08,0,.16,0,.24,0,.86.03,1.72.05,2.59.03,1.94.12,4.21-.53,6.34-1.58h0s0,0,0,0c2.44-1.2,4.71-2.94,6.14-4.73.84-1.05,1.61-2.22,2.31-3.46h0s0,0,0,0c.13-.24.25-.49.37-.73.2-.38.4-.76.59-1.16,0,0,0,0,0,0,1.55-3.32,2.58-7.05,3.03-10.71.21-1.73.29-3.45.23-5.1Z"/>
        </g>
        <path class="cls-6" d="M381.57,143.88s-.05,0-.07,0c-.09.03,5.33.22.07,0Z"/>
      </g>
      <g>
        <line class="cls-3" x1="1105.58" y1="127.47" x2="1159.42" y2="127.47"/>
        <polygon class="cls-29" points="1155.04 142.43 1180.95 127.48 1155.04 112.52 1155.04 142.43"/>
      </g>
      <g>
        <line class="cls-3" x1="510.25" y1="127.47" x2="564.09" y2="127.47"/>
        <polygon class="cls-29" points="559.71 142.43 585.61 127.48 559.71 112.52 559.71 142.43"/>
      </g>
      <g>
        <g>
          <path class="cls-5" d="M1226.38,107.93c1.84-1.8,4.09-2.95,6.48-3.36,27.24-4.73,152.72,1.32,182.51,3.09,32.92,1.95,23.14-4.93,58.02-2.83,11.85.71,32.57.88,44.49,2.13-7.17,13.61-8.31,35.47-6.24,50.1-8.97.14-17.32-1.99-25.08-2.16-10.65-.24.03-.05-10.42-.29-25.93-.6-29.09,1.25-53.51.91-33.63-.46-159.57-.67-190.41-5.17-4.33-.63-8.22-3.67-10.25-8.19-4.73-10.51-5.32-24.71,4.42-34.22Z"/>
          <path class="cls-18" d="M1498.98,109.91c-10.05,2.48-22.08.91-32.36,1.8-9.37.81,2.35.6-6.94,1.19-9.62.61-19.8.43-29.48.29-12.43-.18-3.2,2-15.73,1.28-6.4-.37-41.04-.41-47.38.31,9.93,3.18-.07,1.15,10.26,3.06,11.78,2.18,51.83.82,63.66.08,10.78-.67,21.37-1.12,32.22-.13,8.12.74-.52,3.54,7.27.47,3.21-1.27,5.54-3.62,9.35-4.64,3.18-.85,6.44-1.97,9.13-3.71Z"/>
          <path class="cls-18" d="M1360.79,116.62c-7.29-3.15-44.28-4.93-51.94-6.79-7.06-1.72-14.43-.07-21.62,1.01-3.7.55-43.85,1.27-47.56,1.77-1.86.25-3.96.11-5.73.6,7.49,2.77,52.07,4.15,59.91,2.47-5.07,1.1-46.47,2.62-51.54,3.72-4.12.9-10.23.87-13.8,2.94,1.12-.65,3.96-.64,5.35-.88,2.27-.38,4.59-.58,6.87-.89,4.72-.63,45.91-1.28,50.67-1.47,18.1-.71,65.33,2.55,83.05,4.56,6.05.69,38.01-1.61,43.99-1.24-9.6-2.51-48.38-1.8-57.64-5.8Z"/>
          <path class="cls-18" d="M1373.3,125.15c8.25-1.79,43.88-1.22,52.25-.84,9.65.44,19.37.18,28.92.14,11.18-.05.89-.11,12.06-.98,7.88-.61,17.35-2.68,24.95-1.5-3.44,2.96-4.2,10.01-3.82,14.16-5.94-5.04-10.93-7.75-18.84-7.98-10.66-.3-.94,1.75-11.85,2.05-10.18.28-20.46.3-30.62-.1-9.95-.39,2.65,3.15-7.5,3.95-17.49,1.38-92.44-1.53-109.74-2.31-12.14-.55-60.75-2.03-72.56-3.95,8.5-1.68,53.14-3.12,61.72-2.74,9.15.4,47.63,3.83,56.88,3.63,8.03-.17,16.31.51,24.25-.02,4.58-.31-9.4-.09-6.1-3.54Z"/>
          <path class="cls-17" d="M1355.99,138.09c-10.35-.33-49.7-.12-60.04-1.74-8.93-1.4-54.49-2.95-63.36-4.28-4.41-.66-9.15-1.73-13.8-1.87.21,2.34.67,4.66,1.31,6.88,1.8.27,3.6.6,5.5,1.06,11.32,2.72,58.94,1.77,70.32,3.1,10.68,1.25,50.07,2.36,60.81,2,24.85-.83,57.95-.35,81.99-7.54-15.33-4.41-41.47,1.91-57.21,2.92-8.43.54-17.23-.27-25.53-.54Z"/>
          <path class="cls-17" d="M1417.73,144.26c30.89-6.47,45.51-9.65,75.77-.55-5.59,3.46-16.46,1.08-22.65.02-9.72-1.66,2.68-.97-7.06-.41-10.24.59-20.66.75-30.75,1.95-5.47.65-11.84-2.03-16.91-.21-.96-.2,1.33-.5,1.6-.8Z"/>
          <path class="cls-17" d="M1307.74,147.15c-9.37-.58-43.36-1.82-52.61-2.83-5.63-.62-25.19-1.09-31.93.06,1.52,2.29,3.57,4.04,5.89,5.06.24-.01.49-.03.73-.04,16.94-.24,108.13,3.4,125.12,2.33,9.08-.57,10.01-1.62,19.13-2.01,9.4-.41-1.84-.04,7.26-2.38-2.14-1.17,45.37.17,42.94.01-19.81-1.28-96.63,1.04-116.53-.2Z"/>
          <path class="cls-17" d="M1476.14,154.6c10.45.24-.23.04,10.42.29,2.67.06,5.69.35,8.85.69-.36-.73-.8-1.4-1.35-1.98-2.83-2.91-7.22-2.2-11.34-2.24-10.91-.12-.4-3.3-11.2-3.1-11.59.21-22.93,1.37-34.49,2.15-7.54.51-44.5-.99-51.8.39-2.65.5,44.24,2.95,41.41,4.74,23.16.2,24.98-1.52,49.5-.94Z"/>
          <path class="cls-28" d="M1532.83,133.71c-.8,6.09-3.29,12.35-7.1,16.76-3.04,3.51-9.4,6.84-14.08,6.58-5.67-.31-9.8-5.44-12.66-9.83-3.38-5.17-3.77-11.53-3.06-17.52.52-4.38,1.84-8.99,4.71-12.32,5.52-6.43,12.55-13.89,21.63-8.87,2.03,1.12,3.78,1.56,5.36,3.43,1.4,1.67,2.37,3.69,3.35,5.62,1.8,3.58,1.98,6.92,2.13,10.83.07,1.72-.02,3.51-.26,5.32Z"/>
          <path class="cls-30" d="M1520.76,111.74c-7.78-1.24-15.77,8.37-18.3,14.6-2.56,6.3.2,17.13,4.57,22.23,1.84,2.15,6.05,2.93,8.71,2.47,3.68-.63,6.7-4.3,8.6-7.25,2.28-3.56,5-7,5.58-11.34.55-4.09-.5-8.76-2.29-12.42-1.95-3.97-2.71-7.63-6.86-8.29Z"/>
          <path class="cls-28" d="M1519.36,115.5c-3.93-.35-8.84,3.6-11.15,6.59-2.18,2.82-3.55,7.22-3.5,10.71.06,5.26,2.37,17.19,9.78,15.49,6.25-1.43,11.5-10.41,12.18-16.5.36-3.22-.29-7.72-1.44-10.82-1.23-3.29-2.29-5.15-5.86-5.47Z"/>
          <path class="cls-30" d="M1519.29,119.21c-4.41-1.23-8.7,3.79-10.26,7.23-1.5,3.3-1.36,7.89-.64,11.44.66,3.24,2.38,8.07,6.58,6.62,4.41-1.52,6.29-7.16,7.99-11.08,1.49-3.41,1.35-5.69.24-9.18-.76-2.39-1.14-4.25-3.92-5.02Z"/>
          <path class="cls-28" d="M1517.5,123.11c-4.63.69-6.81,6.86-6.8,10.82,0,2.83.04,8.65,4.4,6.22,2.73-1.52,6.04-6.45,6.14-9.59.07-2.31-.26-7.97-3.75-7.45Z"/>
          <path class="cls-30" d="M1517.17,127.5c-3.16.49-6.25,9.07-2.07,8.49,3-.41,5.5-9.02,2.07-8.49Z"/>
          <path class="cls-30" d="M1501.33,112.16c2.01.47,6.31,1.93,8.32,2.3-.8-.63-3.97-3.93-4.87-4.18-1.16-.32-2.45,1.3-3.45,1.74.26-.04-.24.23,0,.14Z"/>
          <path class="cls-30" d="M1493.49,130.67c1.51-.32,5.53-1.19,6.97-.71-.84.48-3.24,1.5-4.11,1.98-.8.44-1.74.63-2.47,1.1-.37-.92-.23-1.41-.39-2.37Z"/>
          <path class="cls-30" d="M1496.59,147.24c1.22-1.55,4.43-2.89,6.22-3.53-1.63,1.71-3.58,4.15-5.14,5.75-.53-.7-.95-1.35-1.08-2.22Z"/>
          <path class="cls-30" d="M1517.59,151.75c.13.87.97,2.82,1.2,3.66.64-.29,1.28-.62,1.89-.97-.7-.69-2.58-2.32-3.1-2.69Z"/>
          <path class="cls-30" d="M1529.41,144.89c-1.04-.24-2.95-1.12-3.65-.92.47.87,1.87,2.26,2.57,2.89.38-.64.74-1.3,1.08-1.97Z"/>
          <path class="cls-30" d="M1525.42,113.91c.44-.47,1.52-1.68,1.99-2.18-.31-.34-.63-.65-.95-.9-.31.78-1.08,2.35-1.04,3.08Z"/>
          <g>
            <path class="cls-12" d="M1498.98,147.23c-2.12-3.24-3.06-6.95-3.3-10.74-2.31.71-4.76,1.75-6.24,1.8-5.87.19-11.7.53-17.57.86-12.47.7-2.98-3.71-15.36-4.79-12.52-1.1-25.03-.28-37.53.65-12.72.95-31.89,1.83-44.58,3.12-11.33,1.15-52.23,2.97-63.64,3.18-19.8.36-76.1-6.2-91.8-18.45-.42,2.99-.38,6.04.04,9.01,0,.07.02.13.03.2.16,1.09.36,2.16.61,3.22.02.08.04.15.05.23.56,2.32,1.34,4.55,2.28,6.64.79,1.76,1.86,3.29,3.13,4.54.03.03.06.06.09.09.19.19.39.37.59.54.06.05.12.1.18.15.18.15.36.29.54.43.07.05.14.11.22.16.18.13.36.25.54.37.08.05.15.1.23.15.19.12.39.23.59.35.07.04.13.08.2.11,1.24.66,2.57,1.1,3.95,1.3,30.84,4.5,156.78,4.71,190.41,5.17,18.02.25,14.49-1.13,33.31-1.12.35,0,.7,0,1.05,0,2.51,0,5.02.02,7.55.04.7,0,1.39,0,2.09.01,3.16.03,6.33.08,9.51.16,2.61.06,5.22.15,7.84.25,7.85.3-5.41-.14,2.58.04.55.01,1.13.04,1.71.07,7.28.41,15.06,2.22,23.37,2.09-5.67-.31-9.8-5.44-12.66-9.83Z"/>
            <path class="cls-15" d="M1511.64,157.06c.26.01.52.01.79,0-.27,0-.53,0-.79,0Z"/>
            <path class="cls-15" d="M1513.8,156.94s.04,0,.06,0c-.02,0-.04,0-.06,0Z"/>
            <path class="cls-15" d="M1512.85,157.04c.11,0,.23-.02.34-.03-.11.01-.23.02-.34.03Z"/>
          </g>
        </g>
        <path class="cls-4" d="M1533.09,128.39c-.15-3.91-.33-7.25-2.13-10.83-.97-1.94-1.95-3.95-3.35-5.62-.07-.08-.13-.14-.2-.21h0s0,0,0,0c-1.52-1.69-3.21-2.15-5.15-3.22-1.52-.84-2.98-1.32-4.38-1.53,0,0,0-.02.01-.02-11.92-1.24-32.65-1.42-44.49-2.13-34.88-2.1-25.1,4.78-58.02,2.83-29.79-1.77-155.27-7.82-182.51-3.09-2.39.41-4.64,1.57-6.48,3.36-4.38,4.28-6.67,9.5-7.43,14.92,0,0,0,0,0,0,0,0,0,.01,0,.02-.1.74-.18,1.48-.23,2.23,0,0,0,.01,0,.02-.05.75-.07,1.5-.06,2.24,0,0,0,.01,0,.02,0,.75.04,1.5.09,2.24,0,0,0,0,0,.01.01.19.03.38.05.57h0s0,0,0,0c.05.56.12,1.11.19,1.66,0,.07.02.13.03.2,0,0,0,0,0,0,0,0,0,0,0,0,.16,1.09.36,2.16.61,3.22.02.08.04.15.05.23,0,0,0,0,0,0,0,0,0,0,0,0,.13.53.27,1.05.42,1.57,0,0,0,0,0,0h0c.18.61.37,1.21.57,1.8,0,.01,0,.03.01.04.18.51.36,1.02.56,1.52.03.09.07.18.11.26.2.49.4.97.61,1.45.18.4.37.77.58,1.15.04.08.08.15.13.23.17.29.34.58.53.85h0s0,0,0,0c.05.07.1.15.15.22,0,0,0,.01.01.02.25.36.51.7.78,1.02.02.03.04.06.07.08.28.34.58.66.88.96.03.03.06.06.09.09,0,0,0,0,0,0h0c.19.19.38.37.58.54h0s0,0,0,0c.06.05.11.1.17.15,0,0,0,0,0,0,0,0,0,0,0,0,.18.15.36.29.54.43.07.05.14.11.22.16,0,0,0,0,0,0s0,0,0,0c.18.13.36.25.54.37.08.05.15.1.23.15.19.12.39.23.59.34h0s0,0,0,0c.06.04.13.07.19.11.27.14.54.28.82.4,0,0,0,0,0,0h0s.06.03.1.04c.05.02.09.04.14.06.25.1.5.2.75.29.09.03.17.06.26.08.23.07.45.14.68.19.09.02.17.05.26.07.31.07.62.13.94.18,30.84,4.5,156.78,4.71,190.41,5.17.57,0,1.12.01,1.65.02,1.24.01,2.42.02,3.55.02,20.03.12,23.68-1.23,42.29-1.05,2.01.03,4.01.05,6.02.1,2.58.06,5.17.15,7.76.25.03-.01.71,0,2.66.04.55.01,1.13.04,1.71.07,0,0,0,0,.01,0,3.3.19,6.7.66,10.2,1.11.07,0,.15.02.22.03.38.05.77.1,1.15.15.77.1,1.55.19,2.34.28.19.02.38.04.57.06.84.09,1.69.17,2.55.24.14.01.28.02.43.03.9.07,1.8.12,2.71.16.09,0,.18,0,.27,0,.97.03,1.94.05,2.92.03,2.19.12,4.74-.55,7.16-1.65h0s0,0,0,0c2.75-1.25,5.31-3.07,6.93-4.93.95-1.1,1.82-2.32,2.6-3.61h0s0,0,0,0c.15-.25.28-.51.42-.76.22-.4.46-.79.66-1.21,0,0,0,0,0,0,1.74-3.46,2.91-7.35,3.42-11.18.24-1.81.33-3.6.26-5.32Z"/>
      </g>
      <g>
        <path class="cls-26" d="M724.35,116.43c0-5.31-3.98-8.74-10.14-8.74-3.03,0-5.77,1.07-8.4,3.28-1.26,1.06-1.43,2.94-.38,4.21l2.52,3.05c.23.28.5.51.81.68-.04.2-.07.41-.07.63v3.5c0,.11,0,.22.02.32-.66.17-1.24.57-1.65,1.13l-2.3,3.14c-.82,1.12-.76,2.67.14,3.72,1.55,1.81,4.44,3.96,9.42,3.96,6.2,0,10.7-3.82,10.7-9.08,0-2.12-.71-3.97-2.01-5.41.87-1.25,1.34-2.74,1.34-4.39Z"/>
        <path class="cls-26" d="M896.26,115.23v-4.14c0-1.66-1.34-3-3-3h-11.7c-1.6,0-2.91,1.25-3,2.85l-.53,10.3c-.05,1.07.46,2.08,1.35,2.67l.25.16c-.16.14-.3.3-.42.47l-2.27,3.14c-.87,1.2-.73,2.86.33,3.9,2.53,2.48,5.68,3.75,9.38,3.75,6,0,10.53-4.47,10.53-10.39,0-2.88-.97-5.29-2.65-6.97,1.02-.48,1.73-1.52,1.73-2.72ZM886.15,124.81s.03,0,.04,0c0,.06.01.13.01.22,0,.1,0,.17-.01.23-.21.03-.66,0-1.01-.14.51-.31.61-.31.97-.31Z"/>
        <path class="cls-26" d="M170.19,115.56c0-5.31-3.98-8.74-10.14-8.74-3.03,0-5.77,1.07-8.4,3.28-1.26,1.06-1.43,2.94-.38,4.21l2.52,3.05c.23.28.5.51.81.68-.04.2-.07.41-.07.63v3.5c0,.11,0,.22.02.32-.66.17-1.24.57-1.65,1.13l-2.3,3.14c-.82,1.12-.76,2.67.14,3.72,1.55,1.81,4.44,3.96,9.42,3.96,6.2,0,10.7-3.82,10.7-9.08,0-2.12-.71-3.97-2.01-5.41.87-1.25,1.34-2.74,1.34-4.39Z"/>
        <path class="cls-26" d="M342.1,114.36v-4.14c0-1.66-1.34-3-3-3h-11.7c-1.6,0-2.91,1.25-3,2.85l-.53,10.3c-.05,1.07.46,2.08,1.35,2.67l.25.16c-.16.14-.3.3-.42.47l-2.27,3.14c-.87,1.2-.73,2.86.33,3.9,2.53,2.48,5.68,3.75,9.38,3.75,6,0,10.53-4.47,10.53-10.39,0-2.88-.97-5.29-2.65-6.97,1.02-.48,1.73-1.52,1.73-2.72ZM331.99,123.94s.03,0,.04,0c0,.06.01.13.01.22,0,.1,0,.17-.01.23-.21.03-.66,0-1.01-.14.51-.31.61-.31.97-.31Z"/>
        <path class="cls-26" d="M1381.65,125.91c0-5.05-3.8-8.57-9.24-8.57s-9.61,3.55-9.61,8.63c0,1.34.29,3.06,1.38,4.76-1.66,1.88-2.08,3.99-2.08,5.66,0,4.97,4.26,8.57,10.14,8.57s10.28-3.64,10.28-8.66c0-2.33-.75-4.39-2.17-6.01.84-1.33,1.3-2.84,1.3-4.38Z"/>
      </g>
      <g id="Manual_Dimension" data-name="Manual Dimension">
        <line class="cls-4" x1="1000.09" y1="231.72" x2="1000.09" y2="264.23"/>
        <line class="cls-4" x1="656.07" y1="231.72" x2="656.07" y2="264.23"/>
        <g>
          <line class="cls-2" x1="670.42" y1="247.98" x2="985.74" y2="247.98"/>
          <polygon class="cls-29" points="673.34 257.95 656.07 247.98 673.34 238 673.34 257.95"/>
          <polygon class="cls-29" points="982.82 257.95 1000.09 247.98 982.82 238 982.82 257.95"/>
        </g>
      </g>
      <path class="cls-23" d="M707.18,129.39l2.3-3.14c1.26,1.2,2.72,2.02,4.34,2.02,1.93,0,3.19-.81,3.19-2.38,0-1.79-.95-2.86-5.32-2.86v-3.5c3.56,0,4.68-1.09,4.68-2.74,0-1.43-.84-2.21-2.38-2.21-1.4,0-2.46.64-3.72,1.74l-2.52-3.05c1.93-1.62,4-2.58,6.47-2.58,4.31,0,7.14,2.02,7.14,5.74,0,2.07-1.12,3.7-3.36,4.59v.14c2.32.7,4.03,2.38,4.03,5.07,0,3.89-3.56,6.08-7.7,6.08-3.3,0-5.63-1.15-7.14-2.91Z"/>
      <path class="cls-23" d="M879.37,129.42l2.27-3.14c1.18,1.12,2.63,1.99,4.28,1.99,2.02,0,3.28-1.09,3.28-3.25s-1.26-3.22-3.05-3.22c-1.15,0-1.71.22-2.94,1.01l-2.18-1.43.53-10.3h11.7v4.14h-7.42l-.31,3.53c.76-.31,1.37-.42,2.16-.42,3.53,0,6.5,2.07,6.5,6.58s-3.53,7.39-7.53,7.39c-3.33,0-5.63-1.26-7.28-2.88Z"/>
      <path class="cls-23" d="M153.02,128.52l2.3-3.14c1.26,1.2,2.72,2.02,4.34,2.02,1.93,0,3.19-.81,3.19-2.38,0-1.79-.95-2.86-5.32-2.86v-3.5c3.56,0,4.68-1.09,4.68-2.74,0-1.43-.84-2.21-2.38-2.21-1.4,0-2.46.64-3.72,1.74l-2.52-3.05c1.93-1.62,4-2.58,6.47-2.58,4.31,0,7.14,2.02,7.14,5.74,0,2.07-1.12,3.7-3.36,4.59v.14c2.32.7,4.03,2.38,4.03,5.07,0,3.89-3.56,6.08-7.7,6.08-3.3,0-5.63-1.15-7.14-2.91Z"/>
      <path class="cls-23" d="M325.21,128.55l2.27-3.14c1.18,1.12,2.63,1.99,4.28,1.99,2.02,0,3.28-1.09,3.28-3.25s-1.26-3.22-3.05-3.22c-1.15,0-1.71.22-2.94,1.01l-2.18-1.43.53-10.3h11.7v4.14h-7.42l-.31,3.53c.76-.31,1.37-.42,2.16-.42,3.53,0,6.5,2.07,6.5,6.58s-3.53,7.39-7.53,7.39c-3.33,0-5.63-1.26-7.28-2.88Z"/>
      <path class="cls-23" d="M1365.1,136.38c0-2.6,1.48-4.23,3.42-5.26v-.14c-1.62-1.2-2.72-2.8-2.72-5.01,0-3.47,2.74-5.63,6.61-5.63s6.24,2.18,6.24,5.57c0,1.99-1.2,3.64-2.63,4.62v.14c1.99,1.04,3.5,2.77,3.5,5.63,0,3.22-2.91,5.66-7.28,5.66-4.09,0-7.14-2.27-7.14-5.57ZM1374.9,136.1c0-1.82-1.6-2.6-4.14-3.7-.84.81-1.4,2.07-1.4,3.39,0,1.71,1.37,2.69,3,2.69,1.43,0,2.55-.73,2.55-2.38ZM1374.62,126.24c0-1.51-.87-2.46-2.35-2.46-1.12,0-2.1.7-2.1,2.18,0,1.65,1.29,2.55,3.33,3.36.78-.95,1.12-2.02,1.12-3.08Z"/>
    </g>
  </g>
</svg>