<?xml version="1.0" encoding="UTF-8"?>
<svg id="_圖層_2" data-name="圖層 2" xmlns="http://www.w3.org/2000/svg" viewBox="0 0 661.78 489.72">
  <defs>
    <style>
      .cls-1 {
        fill: #fff;
      }

      .cls-2 {
        fill: #ce6729;
      }

      .cls-3 {
        fill: #f29119;
      }
    </style>
  </defs>
  <path class="cls-3" d="M167.55,30.11h326.68c66.6,0,120.66,54.07,120.66,120.66v308.84H46.89V150.77c0-66.6,54.07-120.66,120.66-120.66Z"/>
  <polygon class="cls-1" points="330.71 429.82 587.79 172.78 73.63 172.78 330.71 429.82"/>
  <path class="cls-2" d="M348.17,250.8c4.09-25.81-17.47-39.39-17.47-39.39-.4.25-21.55,13.58-17.46,39.39,0,0-25.74-11.44-28.91,12.07,0,0,43.42-2.8,46.28,36.28h.36c2.86-39.08,46.11-36.28,46.11-36.28-3.18-23.51-28.91-12.07-28.91-12.07Z"/>
</svg>