<?xml version="1.0" encoding="UTF-8"?>
<svg id="_圖層_1" data-name="圖層 1" xmlns="http://www.w3.org/2000/svg" viewBox="0 0 4554.67 581.1">
  <defs>
    <style>
      .cls-1 {
        stroke: #b5b5b5;
        stroke-dasharray: 50;
        stroke-width: 4px;
      }

      .cls-1, .cls-2 {
        fill: none;
        stroke-linecap: round;
        stroke-linejoin: round;
      }

      .cls-3 {
        fill: #fff;
      }

      .cls-4 {
        fill: #bbbaba;
      }

      .cls-5 {
        fill: #5d8897;
      }

      .cls-6 {
        fill: #aacddf;
      }

      .cls-7 {
        fill: #231815;
      }

      .cls-2 {
        stroke: #231815;
        stroke-width: 16px;
      }

      .cls-8 {
        fill: #ce6729;
      }

      .cls-9 {
        fill: #577f89;
      }

      .cls-10 {
        fill: #e8e8e8;
      }
    </style>
  </defs>
  <rect class="cls-10" x="-40.29" width="4594.96" height="581.1"/>
  <g>
    <line class="cls-2" x1="1669.55" y1="293.18" x2="1791.08" y2="293.18"/>
    <polygon class="cls-7" points="1767.74 372.96 1905.9 293.19 1767.74 213.41 1767.74 372.96"/>
  </g>
  <g>
    <line class="cls-2" x1="2654.77" y1="293.18" x2="2776.31" y2="293.18"/>
    <polygon class="cls-7" points="2752.97 372.96 2891.12 293.19 2752.97 213.41 2752.97 372.96"/>
  </g>
  <g>
    <line class="cls-2" x1="3640" y1="293.18" x2="3761.54" y2="293.18"/>
    <polygon class="cls-7" points="3738.2 372.96 3876.35 293.19 3738.2 213.41 3738.2 372.96"/>
  </g>
  <g>
    <g>
      <rect class="cls-3" x="1031.55" y="33.13" width="510.24" height="510.24"/>
      <rect class="cls-4" x="1541.59" y="33.13" width="13" height="523.96"/>
      <rect class="cls-4" x="1284.54" y="291.1" width="13" height="518.97" transform="translate(1841.63 -740.45) rotate(90)"/>
    </g>
    <g>
      <line class="cls-1" x1="1034.67" y1="36.66" x2="1541.79" y2="543.36"/>
      <line class="cls-1" x1="1034.67" y1="540.21" x2="1538.22" y2="36.66"/>
    </g>
    <g>
      <path class="cls-5" d="M1282.33,193.87c1.27,2.27,1.88,4.5,2.38,6.92,3.73-15.04-3.37-31.42-10.36-44.47-3.23-6.02-7.36-11.83-13.56-15.06-5.94-3.1-13.16-3.9-19.47-1.44-12.26,4.79-18.08,20-10.01,31.06,7,9.59,20.59,8.97,31.08,10.89,5.18.95,10.33,2.53,14.54,5.82,2.21,1.73,4.03,3.83,5.4,6.27Z"/>
      <path class="cls-5" d="M1288.94,200.8c.5-2.42,1.11-4.65,2.38-6.92,1.37-2.45,3.19-4.54,5.4-6.28,4.21-3.29,9.35-4.87,14.54-5.82,10.49-1.93,24.08-1.3,31.08-10.89,8.07-11.05,2.25-26.27-10.01-31.06-6.3-2.46-13.53-1.67-19.47,1.44-6.19,3.24-10.33,9.04-13.56,15.06-6.99,13.04-14.09,29.43-10.36,44.47Z"/>
      <path class="cls-6" d="M1252.95,125.45c3.22,3.92,7.48,6.79,11.16,10.23,3.73,3.49,6.93,7.53,9.7,11.82,4.99,7.73,8.55,16.25,11.92,24.79.12-12.46-1.57-24.94-5.26-36.86-3-9.71-7.29-22.5-17.42-26.95-4.54-1.99-10.81-1.86-13.1,3.32-2.04,4.6-.01,9.99,2.99,13.64Z"/>
      <path class="cls-6" d="M1287.91,172.29c3.37-8.54,6.93-17.06,11.92-24.79,2.77-4.29,5.97-8.33,9.7-11.82,3.68-3.44,7.94-6.31,11.16-10.23,3-3.65,5.02-9.04,2.99-13.64-2.29-5.18-8.56-5.31-13.1-3.32-10.13,4.45-14.42,17.24-17.42,26.95-3.69,11.92-5.38,24.4-5.26,36.86Z"/>
      <path class="cls-9" d="M1284.42,136.05c.9,4.98,1.82,9.99,2.6,15.03.78-5.05,1.69-10.06,2.6-15.03,2.46-13.57,4.93-28.71,2.66-42.93-.73-4.53-2.77-10.78-5.25-11.29-2.48.51-4.53,6.76-5.25,11.29-2.28,14.22.19,29.36,2.66,42.93Z"/>
      <path class="cls-9" d="M1288.46,283.73s.06,0,.09,0c0-4.32.03-8.64.1-12.95.33-20.04.12-39.19.53-60.07.04-1.94-3.76-2.26-3.85-.25-.48,11.38-.47,22.78-.55,34.16-.09,13.05-.18,26.1-.27,39.14.73-.05,1.47-.09,2.21-.09.58,0,1.16.02,1.73.05Z"/>
      <path class="cls-8" d="M1269.57,240.49c3.55.67,6.77-1.28,8.04-4.63,1.35-3.56-.8-7.4-3.96-9.14-2.61-1.44-5.29-.72-7.13,1.06-1.76,1.39-2.81,3.74-2.7,5.99.16,3.28,2.5,6.11,5.76,6.72Z"/>
      <path class="cls-8" d="M1299.25,239.43c.96.52,2,.8,3.04.85,1.23.13,2.5-.08,3.72-.67,2.09-1.02,3.49-3.21,3.79-5.47.36-2.68-.83-5.2-3.09-6.7-4.04-2.68-9.86-.54-10.77,4.34-.55,2.96.57,6.16,3.32,7.66Z"/>
    </g>
  </g>
  <g>
    <g>
      <rect class="cls-3" x="2007.45" y="31.2" width="510.24" height="510.24"/>
      <rect class="cls-4" x="2517.49" y="31.2" width="13" height="523.96"/>
      <rect class="cls-4" x="2260.44" y="289.18" width="13" height="518.97" transform="translate(2815.6 -1718.27) rotate(90)"/>
    </g>
    <g>
      <line class="cls-1" x1="2010.57" y1="34.73" x2="2517.69" y2="541.44"/>
      <line class="cls-1" x1="2010.57" y1="538.29" x2="2514.12" y2="34.73"/>
    </g>
    <g>
      <path class="cls-5" d="M2258.23,191.95c1.27,2.27,1.88,4.5,2.38,6.92,3.73-15.04-3.37-31.42-10.36-44.47-3.23-6.02-7.36-11.83-13.56-15.06-5.94-3.1-13.16-3.9-19.47-1.44-12.26,4.79-18.08,20-10.01,31.06,7,9.59,20.59,8.97,31.08,10.89,5.18.95,10.33,2.53,14.54,5.82,2.21,1.73,4.03,3.83,5.4,6.27Z"/>
      <path class="cls-5" d="M2264.84,198.87c.5-2.42,1.11-4.65,2.38-6.92,1.37-2.45,3.19-4.54,5.4-6.28,4.21-3.29,9.35-4.87,14.54-5.82,10.49-1.93,24.08-1.3,31.08-10.89,8.07-11.05,2.25-26.27-10.01-31.06-6.3-2.46-13.53-1.67-19.47,1.44-6.19,3.24-10.33,9.04-13.56,15.06-6.99,13.04-14.09,29.43-10.36,44.47Z"/>
      <path class="cls-6" d="M2228.85,123.52c3.22,3.92,7.48,6.79,11.16,10.23,3.73,3.49,6.93,7.53,9.7,11.82,4.99,7.73,8.55,16.25,11.92,24.79.12-12.46-1.57-24.94-5.26-36.86-3-9.71-7.29-22.5-17.42-26.95-4.54-1.99-10.81-1.86-13.1,3.32-2.04,4.6-.01,9.99,2.99,13.64Z"/>
      <path class="cls-6" d="M2263.81,170.37c3.37-8.54,6.93-17.06,11.92-24.79,2.77-4.29,5.97-8.33,9.7-11.82,3.68-3.44,7.94-6.31,11.16-10.23,3-3.65,5.02-9.04,2.99-13.64-2.29-5.18-8.56-5.31-13.1-3.32-10.13,4.45-14.42,17.24-17.42,26.95-3.69,11.92-5.38,24.4-5.26,36.86Z"/>
      <path class="cls-9" d="M2260.32,134.13c.9,4.98,1.82,9.99,2.6,15.03.78-5.05,1.69-10.06,2.6-15.03,2.46-13.57,4.93-28.71,2.66-42.93-.73-4.53-2.77-10.78-5.25-11.29-2.48.51-4.53,6.76-5.25,11.29-2.28,14.22.19,29.36,2.66,42.93Z"/>
      <path class="cls-9" d="M2264.36,281.8s.06,0,.09,0c0-4.32.03-8.64.1-12.95.33-20.04.12-39.19.53-60.07.04-1.94-3.76-2.26-3.85-.25-.48,11.38-.47,22.78-.55,34.16-.09,13.05-.18,26.1-.27,39.14.73-.05,1.47-.09,2.21-.09.58,0,1.16.02,1.73.05Z"/>
      <path class="cls-8" d="M2245.46,238.57c3.55.67,6.77-1.28,8.04-4.63,1.35-3.56-.8-7.4-3.96-9.14-2.61-1.44-5.29-.72-7.13,1.06-1.76,1.39-2.81,3.74-2.7,5.99.16,3.28,2.5,6.11,5.76,6.72Z"/>
      <path class="cls-8" d="M2275.14,237.5c.96.52,2,.8,3.04.85,1.23.13,2.5-.08,3.72-.67,2.09-1.02,3.49-3.21,3.79-5.47.36-2.68-.83-5.2-3.09-6.7-4.04-2.68-9.86-.54-10.77,4.34-.55,2.96.57,6.16,3.32,7.66Z"/>
    </g>
    <g>
      <path class="cls-5" d="M2357.54,282.2c-2.27,1.27-4.5,1.88-6.92,2.38,15.04,3.73,31.42-3.37,44.47-10.36,6.02-3.23,11.83-7.36,15.06-13.56,3.1-5.94,3.9-13.16,1.44-19.47-4.79-12.26-20-18.08-31.06-10.01-9.59,7-8.97,20.59-10.89,31.08-.95,5.18-2.53,10.33-5.82,14.54-1.73,2.21-3.83,4.03-6.27,5.4Z"/>
      <path class="cls-5" d="M2350.61,288.81c2.42.5,4.65,1.11,6.92,2.38,2.45,1.37,4.54,3.19,6.28,5.4,3.29,4.21,4.87,9.35,5.82,14.54,1.93,10.49,1.3,24.08,10.89,31.08,11.05,8.07,26.27,2.25,31.06-10.01,2.46-6.3,1.67-13.53-1.44-19.47-3.24-6.19-9.04-10.33-15.06-13.56-13.04-6.99-29.43-14.09-44.47-10.36Z"/>
      <path class="cls-6" d="M2425.96,252.82c-3.92,3.22-6.79,7.48-10.23,11.16-3.49,3.73-7.53,6.93-11.82,9.7-7.73,4.99-16.25,8.55-24.79,11.92,12.46.12,24.94-1.57,36.86-5.26,9.71-3,22.5-7.29,26.95-17.42,1.99-4.54,1.86-10.81-3.32-13.1-4.6-2.04-9.99-.01-13.64,2.99Z"/>
      <path class="cls-6" d="M2379.12,287.78c8.54,3.37,17.06,6.93,24.79,11.92,4.29,2.77,8.33,5.97,11.82,9.7,3.44,3.68,6.31,7.94,10.23,11.16,3.65,3,9.04,5.02,13.64,2.99,5.18-2.29,5.31-8.56,3.32-13.1-4.45-10.13-17.24-14.42-26.95-17.42-11.92-3.69-24.4-5.38-36.86-5.26Z"/>
      <path class="cls-9" d="M2415.35,284.29c-4.98.9-9.99,1.82-15.03,2.6,5.05.78,10.06,1.69,15.03,2.6,13.57,2.46,28.71,4.93,42.93,2.66,4.53-.73,10.78-2.77,11.29-5.25-.51-2.48-6.76-4.53-11.29-5.25-14.22-2.28-29.36.19-42.93,2.66Z"/>
      <path class="cls-9" d="M2267.68,288.33s0,.06,0,.09c4.32,0,8.64.03,12.95.1,20.04.33,39.19.12,60.07.53,1.94.04,2.26-3.76.25-3.85-11.38-.48-22.78-.47-34.16-.55-13.05-.09-26.1-.18-39.14-.27.05.73.09,1.47.09,2.21,0,.58-.02,1.16-.05,1.73Z"/>
      <path class="cls-8" d="M2310.92,269.43c-.67,3.55,1.28,6.77,4.63,8.04,3.56,1.35,7.4-.8,9.14-3.96,1.44-2.61.72-5.29-1.06-7.13-1.39-1.76-3.74-2.81-5.99-2.7-3.28.16-6.11,2.5-6.72,5.76Z"/>
      <path class="cls-8" d="M2311.98,299.11c-.52.96-.8,2-.85,3.04-.13,1.23.08,2.5.67,3.72,1.02,2.09,3.21,3.49,5.47,3.79,2.68.36,5.2-.83,6.7-3.09,2.68-4.04.54-9.86-4.34-10.77-2.96-.55-6.16.57-7.66,3.32Z"/>
    </g>
  </g>
  <g>
    <g>
      <rect class="cls-3" x="2975.78" y="27.14" width="510.24" height="510.24"/>
      <rect class="cls-4" x="3485.82" y="27.14" width="13" height="523.96"/>
      <rect class="cls-4" x="3228.77" y="285.12" width="13" height="518.97" transform="translate(3779.87 -2690.67) rotate(90)"/>
    </g>
    <g>
      <line class="cls-1" x1="2978.9" y1="30.67" x2="3486.02" y2="537.38"/>
      <line class="cls-1" x1="2978.9" y1="534.23" x2="3482.45" y2="30.67"/>
    </g>
    <g>
      <path class="cls-5" d="M3226.56,187.89c1.27,2.27,1.88,4.5,2.38,6.92,3.73-15.04-3.37-31.42-10.36-44.47-3.23-6.02-7.36-11.83-13.56-15.06-5.94-3.1-13.16-3.9-19.47-1.44-12.26,4.79-18.08,20-10.01,31.06,7,9.59,20.59,8.97,31.08,10.89,5.18.95,10.33,2.53,14.54,5.82,2.21,1.73,4.03,3.83,5.4,6.27Z"/>
      <path class="cls-5" d="M3233.17,194.81c.5-2.42,1.11-4.65,2.38-6.92,1.37-2.45,3.19-4.54,5.4-6.28,4.21-3.29,9.35-4.87,14.54-5.82,10.49-1.93,24.08-1.3,31.08-10.89,8.07-11.05,2.25-26.27-10.01-31.06-6.3-2.46-13.53-1.67-19.47,1.44-6.19,3.24-10.33,9.04-13.56,15.06-6.99,13.04-14.09,29.43-10.36,44.47Z"/>
      <path class="cls-6" d="M3197.18,119.46c3.22,3.92,7.48,6.79,11.16,10.23,3.73,3.49,6.93,7.53,9.7,11.82,4.99,7.73,8.55,16.25,11.92,24.79.12-12.46-1.57-24.94-5.26-36.86-3-9.71-7.29-22.5-17.42-26.95-4.54-1.99-10.81-1.86-13.1,3.32-2.04,4.6-.01,9.99,2.99,13.64Z"/>
      <path class="cls-6" d="M3232.14,166.31c3.37-8.54,6.93-17.06,11.92-24.79,2.77-4.29,5.97-8.33,9.7-11.82,3.68-3.44,7.94-6.31,11.16-10.23,3-3.65,5.02-9.04,2.99-13.64-2.29-5.18-8.56-5.31-13.1-3.32-10.13,4.45-14.42,17.24-17.42,26.95-3.69,11.92-5.38,24.4-5.26,36.86Z"/>
      <path class="cls-9" d="M3228.65,130.07c.9,4.98,1.82,9.99,2.6,15.03.78-5.05,1.69-10.06,2.6-15.03,2.46-13.57,4.93-28.71,2.66-42.93-.73-4.53-2.77-10.78-5.25-11.29-2.48.51-4.53,6.76-5.25,11.29-2.28,14.22.19,29.36,2.66,42.93Z"/>
      <path class="cls-9" d="M3232.69,277.74s.06,0,.09,0c0-4.32.03-8.64.1-12.95.33-20.04.12-39.19.53-60.07.04-1.94-3.76-2.26-3.85-.25-.48,11.38-.47,22.78-.55,34.16-.09,13.05-.18,26.1-.27,39.14.73-.05,1.47-.09,2.21-.09.58,0,1.16.02,1.73.05Z"/>
      <path class="cls-8" d="M3213.8,234.5c3.55.67,6.77-1.28,8.04-4.63,1.35-3.56-.8-7.4-3.96-9.14-2.61-1.44-5.29-.72-7.13,1.06-1.76,1.39-2.81,3.74-2.7,5.99.16,3.28,2.5,6.11,5.76,6.72Z"/>
      <path class="cls-8" d="M3243.48,233.44c.96.52,2,.8,3.04.85,1.23.13,2.5-.08,3.72-.67,2.09-1.02,3.49-3.21,3.79-5.47.36-2.68-.83-5.2-3.09-6.7-4.04-2.68-9.86-.54-10.77,4.34-.55,2.96.57,6.16,3.32,7.66Z"/>
    </g>
    <g>
      <path class="cls-5" d="M3234.87,376.94c-1.27-2.27-1.88-4.5-2.38-6.92-3.73,15.04,3.37,31.42,10.36,44.47,3.23,6.02,7.36,11.83,13.56,15.06,5.94,3.1,13.16,3.9,19.47,1.44,12.26-4.79,18.08-20,10.01-31.06-7-9.59-20.59-8.97-31.08-10.89-5.18-.95-10.33-2.53-14.54-5.82-2.21-1.73-4.03-3.83-5.4-6.27Z"/>
      <path class="cls-5" d="M3228.26,370.01c-.5,2.42-1.11,4.65-2.38,6.92-1.37,2.45-3.19,4.54-5.4,6.28-4.21,3.29-9.35,4.87-14.54,5.82-10.49,1.93-24.08,1.3-31.08,10.89-8.07,11.05-2.25,26.27,10.01,31.06,6.3,2.46,13.53,1.67,19.47-1.44,6.19-3.24,10.33-9.04,13.56-15.06,6.99-13.04,14.09-29.43,10.36-44.47Z"/>
      <path class="cls-6" d="M3264.25,445.37c-3.22-3.92-7.48-6.79-11.16-10.23-3.73-3.49-6.93-7.53-9.7-11.82-4.99-7.73-8.55-16.25-11.92-24.79-.12,12.46,1.57,24.94,5.26,36.86,3,9.71,7.29,22.5,17.42,26.95,4.54,1.99,10.81,1.86,13.1-3.32,2.04-4.6.01-9.99-2.99-13.64Z"/>
      <path class="cls-6" d="M3229.28,398.52c-3.37,8.54-6.93,17.06-11.92,24.79-2.77,4.29-5.97,8.33-9.7,11.82-3.68,3.44-7.94,6.31-11.16,10.23-3,3.65-5.02,9.04-2.99,13.64,2.29,5.18,8.56,5.31,13.1,3.32,10.13-4.45,14.42-17.24,17.42-26.95,3.69-11.92,5.38-24.4,5.26-36.86Z"/>
      <path class="cls-9" d="M3232.78,434.76c-.9-4.98-1.82-9.99-2.6-15.03-.78,5.05-1.69,10.06-2.6,15.03-2.46,13.57-4.93,28.71-2.66,42.93.73,4.53,2.77,10.78,5.25,11.29,2.48-.51,4.53-6.76,5.25-11.29,2.28-14.22-.19-29.36-2.66-42.93Z"/>
      <path class="cls-9" d="M3228.73,287.08s-.06,0-.09,0c0,4.32-.03,8.64-.1,12.95-.33,20.04-.12,39.19-.53,60.07-.04,1.94,3.76,2.26,3.85.25.48-11.38.47-22.78.55-34.16.09-13.05.18-26.1.27-39.14-.73.05-1.47.09-2.21.09-.58,0-1.16-.02-1.73-.05Z"/>
      <path class="cls-8" d="M3247.63,330.32c-3.55-.67-6.77,1.28-8.04,4.63-1.35,3.56.8,7.4,3.96,9.14,2.61,1.44,5.29.72,7.13-1.06,1.76-1.39,2.81-3.74,2.7-5.99-.16-3.28-2.5-6.11-5.76-6.72Z"/>
      <path class="cls-8" d="M3217.95,331.38c-.96-.52-2-.8-3.04-.85-1.23-.13-2.5.08-3.72.67-2.09,1.02-3.49,3.21-3.79,5.47-.36,2.68.83,5.2,3.09,6.7,4.04,2.68,9.86.54,10.77-4.34.55-2.96-.57-6.16-3.32-7.66Z"/>
    </g>
    <g>
      <path class="cls-5" d="M3325.87,278.14c-2.27,1.27-4.5,1.88-6.92,2.38,15.04,3.73,31.42-3.37,44.47-10.36,6.02-3.23,11.83-7.36,15.06-13.56,3.1-5.94,3.9-13.16,1.44-19.47-4.79-12.26-20-18.08-31.06-10.01-9.59,7-8.97,20.59-10.89,31.08-.95,5.18-2.53,10.33-5.82,14.54-1.73,2.21-3.83,4.03-6.27,5.4Z"/>
      <path class="cls-5" d="M3318.94,284.75c2.42.5,4.65,1.11,6.92,2.38,2.45,1.37,4.54,3.19,6.28,5.4,3.29,4.21,4.87,9.35,5.82,14.54,1.93,10.49,1.3,24.08,10.89,31.08,11.05,8.07,26.27,2.25,31.06-10.01,2.46-6.3,1.67-13.53-1.44-19.47-3.24-6.19-9.04-10.33-15.06-13.56-13.04-6.99-29.43-14.09-44.47-10.36Z"/>
      <path class="cls-6" d="M3394.29,248.76c-3.92,3.22-6.79,7.48-10.23,11.16-3.49,3.73-7.53,6.93-11.82,9.7-7.73,4.99-16.25,8.55-24.79,11.92,12.46.12,24.94-1.57,36.86-5.26,9.71-3,22.5-7.29,26.95-17.42,1.99-4.54,1.86-10.81-3.32-13.1-4.6-2.04-9.99-.01-13.64,2.99Z"/>
      <path class="cls-6" d="M3347.45,283.72c8.54,3.37,17.06,6.93,24.79,11.92,4.29,2.77,8.33,5.97,11.82,9.7,3.44,3.68,6.31,7.94,10.23,11.16,3.65,3,9.04,5.02,13.64,2.99,5.18-2.29,5.31-8.56,3.32-13.1-4.45-10.13-17.24-14.42-26.95-17.42-11.92-3.69-24.4-5.38-36.86-5.26Z"/>
      <path class="cls-9" d="M3383.69,280.23c-4.98.9-9.99,1.82-15.03,2.6,5.05.78,10.06,1.69,15.03,2.6,13.57,2.46,28.71,4.93,42.93,2.66,4.53-.73,10.78-2.77,11.29-5.25-.51-2.48-6.76-4.53-11.29-5.25-14.22-2.28-29.36.19-42.93,2.66Z"/>
      <path class="cls-9" d="M3236.01,284.27s0,.06,0,.09c4.32,0,8.64.03,12.95.1,20.04.33,39.19.12,60.07.53,1.94.04,2.26-3.76.25-3.85-11.38-.48-22.78-.47-34.16-.55-13.05-.09-26.1-.18-39.14-.27.05.73.09,1.47.09,2.21,0,.58-.02,1.16-.05,1.73Z"/>
      <path class="cls-8" d="M3279.25,265.37c-.67,3.55,1.28,6.77,4.63,8.04,3.56,1.35,7.4-.8,9.14-3.96,1.44-2.61.72-5.29-1.06-7.13-1.39-1.76-3.74-2.81-5.99-2.7-3.28.16-6.11,2.5-6.72,5.76Z"/>
      <path class="cls-8" d="M3280.31,295.05c-.52.96-.8,2-.85,3.04-.13,1.23.08,2.5.67,3.72,1.02,2.09,3.21,3.49,5.47,3.79,2.68.36,5.2-.83,6.7-3.09,2.68-4.04.54-9.86-4.34-10.77-2.96-.55-6.16.57-7.66,3.32Z"/>
    </g>
  </g>
  <g>
    <g>
      <rect class="cls-3" x="3996.39" y="33.13" width="510.24" height="510.24"/>
      <rect class="cls-4" x="4506.43" y="33.13" width="13" height="523.96"/>
      <rect class="cls-4" x="4249.38" y="291.1" width="13" height="518.97" transform="translate(4806.47 -3705.29) rotate(90)"/>
    </g>
    <g>
      <line class="cls-1" x1="3999.51" y1="36.66" x2="4506.63" y2="543.36"/>
      <line class="cls-1" x1="3999.51" y1="540.21" x2="4503.06" y2="36.66"/>
    </g>
    <g>
      <path class="cls-5" d="M4247.17,193.87c1.27,2.27,1.88,4.5,2.38,6.92,3.73-15.04-3.37-31.42-10.36-44.47-3.23-6.02-7.36-11.83-13.56-15.06-5.94-3.1-13.16-3.9-19.47-1.44-12.26,4.79-18.08,20-10.01,31.06,7,9.59,20.59,8.97,31.08,10.89,5.18.95,10.33,2.53,14.54,5.82,2.21,1.73,4.03,3.83,5.4,6.27Z"/>
      <path class="cls-5" d="M4253.78,200.8c.5-2.42,1.11-4.65,2.38-6.92,1.37-2.45,3.19-4.54,5.4-6.28,4.21-3.29,9.35-4.87,14.54-5.82,10.49-1.93,24.08-1.3,31.08-10.89,8.07-11.05,2.25-26.27-10.01-31.06-6.3-2.46-13.53-1.67-19.47,1.44-6.19,3.24-10.33,9.04-13.56,15.06-6.99,13.04-14.09,29.43-10.36,44.47Z"/>
      <path class="cls-6" d="M4217.79,125.45c3.22,3.92,7.48,6.79,11.16,10.23,3.73,3.49,6.93,7.53,9.7,11.82,4.99,7.73,8.55,16.25,11.92,24.79.12-12.46-1.57-24.94-5.26-36.86-3-9.71-7.29-22.5-17.42-26.95-4.54-1.99-10.81-1.86-13.1,3.32-2.04,4.6-.01,9.99,2.99,13.64Z"/>
      <path class="cls-6" d="M4252.76,172.29c3.37-8.54,6.93-17.06,11.92-24.79,2.77-4.29,5.97-8.33,9.7-11.82,3.68-3.44,7.94-6.31,11.16-10.23,3-3.65,5.02-9.04,2.99-13.64-2.29-5.18-8.56-5.31-13.1-3.32-10.13,4.45-14.42,17.24-17.42,26.95-3.69,11.92-5.38,24.4-5.26,36.86Z"/>
      <path class="cls-9" d="M4249.26,136.05c.9,4.98,1.82,9.99,2.6,15.03.78-5.05,1.69-10.06,2.6-15.03,2.46-13.57,4.93-28.71,2.66-42.93-.73-4.53-2.77-10.78-5.25-11.29-2.48.51-4.53,6.76-5.25,11.29-2.28,14.22.19,29.36,2.66,42.93Z"/>
      <path class="cls-9" d="M4253.31,283.73s.06,0,.09,0c0-4.32.03-8.64.1-12.95.33-20.04.12-39.19.53-60.07.04-1.94-3.76-2.26-3.85-.25-.48,11.38-.47,22.78-.55,34.16-.09,13.05-.18,26.1-.27,39.14.73-.05,1.47-.09,2.21-.09.58,0,1.16.02,1.73.05Z"/>
      <path class="cls-8" d="M4234.41,240.49c3.55.67,6.77-1.28,8.04-4.63,1.35-3.56-.8-7.4-3.96-9.14-2.61-1.44-5.29-.72-7.13,1.06-1.76,1.39-2.81,3.74-2.7,5.99.16,3.28,2.5,6.11,5.76,6.72Z"/>
      <path class="cls-8" d="M4264.09,239.43c.96.52,2,.8,3.04.85,1.23.13,2.5-.08,3.72-.67,2.09-1.02,3.49-3.21,3.79-5.47.36-2.68-.83-5.2-3.09-6.7-4.04-2.68-9.86-.54-10.77,4.34-.55,2.96.57,6.16,3.32,7.66Z"/>
    </g>
    <g>
      <path class="cls-5" d="M4255.48,382.92c-1.27-2.27-1.88-4.5-2.38-6.92-3.73,15.04,3.37,31.42,10.36,44.47,3.23,6.02,7.36,11.83,13.56,15.06,5.94,3.1,13.16,3.9,19.47,1.44,12.26-4.79,18.08-20,10.01-31.06-7-9.59-20.59-8.97-31.08-10.89-5.18-.95-10.33-2.53-14.54-5.82-2.21-1.73-4.03-3.83-5.4-6.27Z"/>
      <path class="cls-5" d="M4248.87,376c-.5,2.42-1.11,4.65-2.38,6.92-1.37,2.45-3.19,4.54-5.4,6.28-4.21,3.29-9.35,4.87-14.54,5.82-10.49,1.93-24.08,1.3-31.08,10.89-8.07,11.05-2.25,26.27,10.01,31.06,6.3,2.46,13.53,1.67,19.47-1.44,6.19-3.24,10.33-9.04,13.56-15.06,6.99-13.04,14.09-29.43,10.36-44.47Z"/>
      <path class="cls-6" d="M4284.86,451.35c-3.22-3.92-7.48-6.79-11.16-10.23-3.73-3.49-6.93-7.53-9.7-11.82-4.99-7.73-8.55-16.25-11.92-24.79-.12,12.46,1.57,24.94,5.26,36.86,3,9.71,7.29,22.5,17.42,26.95,4.54,1.99,10.81,1.86,13.1-3.32,2.04-4.6.01-9.99-2.99-13.64Z"/>
      <path class="cls-6" d="M4249.89,404.51c-3.37,8.54-6.93,17.06-11.92,24.79-2.77,4.29-5.97,8.33-9.7,11.82-3.68,3.44-7.94,6.31-11.16,10.23-3,3.65-5.02,9.04-2.99,13.64,2.29,5.18,8.56,5.31,13.1,3.32,10.13-4.45,14.42-17.24,17.42-26.95,3.69-11.92,5.38-24.4,5.26-36.86Z"/>
      <path class="cls-9" d="M4253.39,440.74c-.9-4.98-1.82-9.99-2.6-15.03-.78,5.05-1.69,10.06-2.6,15.03-2.46,13.57-4.93,28.71-2.66,42.93.73,4.53,2.77,10.78,5.25,11.29,2.48-.51,4.53-6.76,5.25-11.29,2.28-14.22-.19-29.36-2.66-42.93Z"/>
      <path class="cls-9" d="M4249.34,293.07s-.06,0-.09,0c0,4.32-.03,8.64-.1,12.95-.33,20.04-.12,39.19-.53,60.07-.04,1.94,3.76,2.26,3.85.25.48-11.38.47-22.78.55-34.16.09-13.05.18-26.1.27-39.14-.73.05-1.47.09-2.21.09-.58,0-1.16-.02-1.73-.05Z"/>
      <path class="cls-8" d="M4268.24,336.31c-3.55-.67-6.77,1.28-8.04,4.63-1.35,3.56.8,7.4,3.96,9.14,2.61,1.44,5.29.72,7.13-1.06,1.76-1.39,2.81-3.74,2.7-5.99-.16-3.28-2.5-6.11-5.76-6.72Z"/>
      <path class="cls-8" d="M4238.56,337.37c-.96-.52-2-.8-3.04-.85-1.23-.13-2.5.08-3.72.67-2.09,1.02-3.49,3.21-3.79,5.47-.36,2.68.83,5.2,3.09,6.7,4.04,2.68,9.86.54,10.77-4.34.55-2.96-.57-6.16-3.32-7.66Z"/>
    </g>
    <g>
      <path class="cls-5" d="M4346.48,284.12c-2.27,1.27-4.5,1.88-6.92,2.38,15.04,3.73,31.42-3.37,44.47-10.36,6.02-3.23,11.83-7.36,15.06-13.56,3.1-5.94,3.9-13.16,1.44-19.47-4.79-12.26-20-18.08-31.06-10.01-9.59,7-8.97,20.59-10.89,31.08-.95,5.18-2.53,10.33-5.82,14.54-1.73,2.21-3.83,4.03-6.27,5.4Z"/>
      <path class="cls-5" d="M4339.55,290.73c2.42.5,4.65,1.11,6.92,2.38,2.45,1.37,4.54,3.19,6.28,5.4,3.29,4.21,4.87,9.35,5.82,14.54,1.93,10.49,1.3,24.08,10.89,31.08,11.05,8.07,26.27,2.25,31.06-10.01,2.46-6.3,1.67-13.53-1.44-19.47-3.24-6.19-9.04-10.33-15.06-13.56-13.04-6.99-29.43-14.09-44.47-10.36Z"/>
      <path class="cls-6" d="M4414.91,254.74c-3.92,3.22-6.79,7.48-10.23,11.16-3.49,3.73-7.53,6.93-11.82,9.7-7.73,4.99-16.25,8.55-24.79,11.92,12.46.12,24.94-1.57,36.86-5.26,9.71-3,22.5-7.29,26.95-17.42,1.99-4.54,1.86-10.81-3.32-13.1-4.6-2.04-9.99-.01-13.64,2.99Z"/>
      <path class="cls-6" d="M4368.06,289.71c8.54,3.37,17.06,6.93,24.79,11.92,4.29,2.77,8.33,5.97,11.82,9.7,3.44,3.68,6.31,7.94,10.23,11.16,3.65,3,9.04,5.02,13.64,2.99,5.18-2.29,5.31-8.56,3.32-13.1-4.45-10.13-17.24-14.42-26.95-17.42-11.92-3.69-24.4-5.38-36.86-5.26Z"/>
      <path class="cls-9" d="M4404.3,286.21c-4.98.9-9.99,1.82-15.03,2.6,5.05.78,10.06,1.69,15.03,2.6,13.57,2.46,28.71,4.93,42.93,2.66,4.53-.73,10.78-2.77,11.29-5.25-.51-2.48-6.76-4.53-11.29-5.25-14.22-2.28-29.36.19-42.93,2.66Z"/>
      <path class="cls-9" d="M4256.62,290.26s0,.06,0,.09c4.32,0,8.64.03,12.95.1,20.04.33,39.19.12,60.07.53,1.94.04,2.26-3.76.25-3.85-11.38-.48-22.78-.47-34.16-.55-13.05-.09-26.1-.18-39.14-.27.05.73.09,1.47.09,2.21,0,.58-.02,1.16-.05,1.73Z"/>
      <path class="cls-8" d="M4299.86,271.36c-.67,3.55,1.28,6.77,4.63,8.04,3.56,1.35,7.4-.8,9.14-3.96,1.44-2.61.72-5.29-1.06-7.13-1.39-1.76-3.74-2.81-5.99-2.7-3.28.16-6.11,2.5-6.72,5.76Z"/>
      <path class="cls-8" d="M4300.92,301.04c-.52.96-.8,2-.85,3.04-.13,1.23.08,2.5.67,3.72,1.02,2.09,3.21,3.49,5.47,3.79,2.68.36,5.2-.83,6.7-3.09,2.68-4.04.54-9.86-4.34-10.77-2.96-.55-6.16.57-7.66,3.32Z"/>
    </g>
    <g>
      <path class="cls-5" d="M4157.43,292.43c2.27-1.27,4.5-1.88,6.92-2.38-15.04-3.73-31.42,3.37-44.47,10.36-6.02,3.23-11.83,7.36-15.06,13.56-3.1,5.94-3.9,13.16-1.44,19.47,4.79,12.26,20,18.08,31.06,10.01,9.59-7,8.97-20.59,10.89-31.08.95-5.18,2.53-10.33,5.82-14.54,1.73-2.21,3.83-4.03,6.27-5.4Z"/>
      <path class="cls-5" d="M4164.35,285.82c-2.42-.5-4.65-1.11-6.92-2.38-2.45-1.37-4.54-3.19-6.28-5.4-3.29-4.21-4.87-9.35-5.82-14.54-1.93-10.49-1.3-24.08-10.89-31.08-11.05-8.07-26.27-2.25-31.06,10.01-2.46,6.3-1.67,13.53,1.44,19.47,3.24,6.19,9.04,10.33,15.06,13.56,13.04,6.99,29.43,14.09,44.47,10.36Z"/>
      <path class="cls-6" d="M4089,321.81c3.92-3.22,6.79-7.48,10.23-11.16,3.49-3.73,7.53-6.93,11.82-9.7,7.73-4.99,16.25-8.55,24.79-11.92-12.46-.12-24.94,1.57-36.86,5.26-9.71,3-22.5,7.29-26.95,17.42-1.99,4.54-1.86,10.81,3.32,13.1,4.6,2.04,9.99.01,13.64-2.99Z"/>
      <path class="cls-6" d="M4135.85,286.84c-8.54-3.37-17.06-6.93-24.79-11.92-4.29-2.77-8.33-5.97-11.82-9.7-3.44-3.68-6.31-7.94-10.23-11.16-3.65-3-9.04-5.02-13.64-2.99-5.18,2.29-5.31,8.56-3.32,13.1,4.45,10.13,17.24,14.42,26.95,17.42,11.92,3.69,24.4,5.38,36.86,5.26Z"/>
      <path class="cls-9" d="M4099.61,290.34c4.98-.9,9.99-1.82,15.03-2.6-5.05-.78-10.06-1.69-15.03-2.6-13.57-2.46-28.71-4.93-42.93-2.66-4.53.73-10.78,2.77-11.29,5.25.51,2.48,6.76,4.53,11.29,5.25,14.22,2.28,29.36-.19,42.93-2.66Z"/>
      <path class="cls-9" d="M4247.28,286.29s0-.06,0-.09c-4.32,0-8.64-.03-12.95-.1-20.04-.33-39.19-.12-60.07-.53-1.94-.04-2.26,3.76-.25,3.85,11.38.48,22.78.47,34.16.55,13.05.09,26.1.18,39.14.27-.05-.73-.09-1.47-.09-2.21,0-.58.02-1.16.05-1.73Z"/>
      <path class="cls-8" d="M4204.04,305.19c.67-3.55-1.28-6.77-4.63-8.04-3.56-1.35-7.4.8-9.14,3.96-1.44,2.61-.72,5.29,1.06,7.13,1.39,1.76,3.74,2.81,5.99,2.7,3.28-.16,6.11-2.5,6.72-5.76Z"/>
      <path class="cls-8" d="M4202.98,275.51c.52-.96.8-2,.85-3.04.13-1.23-.08-2.5-.67-3.72-1.02-2.09-3.21-3.49-5.47-3.79-2.68-.36-5.2.83-6.7,3.09-2.68,4.04-.54,9.86,4.34,10.77,2.96.55,6.16-.57,7.66-3.32Z"/>
    </g>
  </g>
  <g>
    <line class="cls-2" x1="683.01" y1="295.96" x2="804.55" y2="295.96"/>
    <polygon class="cls-7" points="781.21 375.74 919.36 295.97 781.21 216.19 781.21 375.74"/>
  </g>
  <g>
    <rect class="cls-3" x="45.02" y="35.91" width="510.24" height="510.24"/>
    <rect class="cls-4" x="555.06" y="35.91" width="13" height="523.96"/>
    <rect class="cls-4" x="298" y="293.88" width="13" height="518.97" transform="translate(857.87 248.87) rotate(90)"/>
  </g>
</svg>