<?xml version="1.0" encoding="UTF-8"?>
<svg id="_圖層_2" data-name="圖層 2" xmlns="http://www.w3.org/2000/svg" xmlns:xlink="http://www.w3.org/1999/xlink" viewBox="0 0 661.78 489.72">
  <defs>
    <style>
      .cls-1 {
        fill: #fff;
      }

      .cls-2 {
        fill: #aacddf;
      }

      .cls-3 {
        clip-path: url(#clippath);
      }

      .cls-4 {
        fill: #183460;
      }
    </style>
    <clipPath id="clippath">
      <rect class="cls-1" x="196.02" y="142.68" width="259.49" height="259.49"/>
    </clipPath>
  </defs>
  <path class="cls-4" d="M508.81,30.11H152.97c-45.85,0-83.15,2.52-83.15,49.87v19.33c0,39.76,26.13,22.1,63.09,31.53v328.77h395.95V130.84c36.95-9.44,63.09,8.23,63.09-31.53v-19.33c0-47.35-37.29-49.87-83.15-49.87Z"/>
  <g>
    <rect class="cls-1" x="196.02" y="142.68" width="259.49" height="259.49"/>
    <g class="cls-3">
      <g>
        <path class="cls-2" d="M521.53,378.48c6.08-16.11,2.97-29.32-7.35-34.91-5.63-10.31-18.04-13.04-34.96-7.49,1.29-21.03-7.55-37.29-23.47-50.81-16.33,13.23-24.82,29.77-23.92,50.87-16.11-6.08-29.32-2.97-34.91,7.35-10.31,5.63-13.04,18.04-7.49,34.96-21.03-1.29-37.29,7.55-50.81,23.47,13.23,16.33,29.77,24.82,50.87,23.92-6.08,16.11-2.97,29.32,7.35,34.91,5.63,10.31,18.04,13.04,34.96,7.49-1.29,21.03,7.55,37.29,23.47,50.81,16.33-13.23,24.82-29.77,23.92-50.87,16.11,6.08,29.32,2.97,34.91-7.35,10.31-5.63,13.04-18.04,7.49-34.96,21.03,1.29,37.29-7.55,50.81-23.47-13.23-16.33-29.77-24.82-50.87-23.92Z"/>
        <circle class="cls-1" cx="455.5" cy="402.17" r="44.13"/>
      </g>
    </g>
  </g>
</svg>