<?xml version="1.0" encoding="UTF-8"?>
<svg xmlns="http://www.w3.org/2000/svg" viewBox="0 0 4554.67 581.1">
  <defs>
    <style>
      .cls-1 {
        stroke: #b5b5b5;
        stroke-dasharray: 50;
        stroke-width: 4px;
      }

      .cls-1, .cls-2 {
        fill: none;
        stroke-linecap: round;
        stroke-linejoin: round;
      }

      .cls-3 {
        fill: #fff;
      }

      .cls-4 {
        fill: #bbbaba;
      }

      .cls-5 {
        fill: #5d8897;
      }

      .cls-6 {
        fill: #aacddf;
      }

      .cls-7 {
        fill: #231815;
      }

      .cls-2 {
        stroke: #231815;
        stroke-width: 16px;
      }

      .cls-8 {
        fill: #ce6729;
      }

      .cls-9 {
        fill: #577f89;
      }

      .cls-10 {
        fill: #e8e8e8;
      }
    </style>
  </defs>
  <g id="_圖層_1" data-name="圖層 1">
    <rect class="cls-10" x="-7.29" width="4561.96" height="581.1"/>
    <g>
      <line class="cls-2" x1="1669.55" y1="293.18" x2="1791.08" y2="293.18"/>
      <polygon class="cls-7" points="1767.74 372.96 1905.9 293.19 1767.74 213.41 1767.74 372.96"/>
    </g>
    <g>
      <line class="cls-2" x1="2654.77" y1="293.18" x2="2776.31" y2="293.18"/>
      <polygon class="cls-7" points="2752.97 372.96 2891.12 293.19 2752.97 213.41 2752.97 372.96"/>
    </g>
    <g>
      <line class="cls-2" x1="3640" y1="293.18" x2="3761.54" y2="293.18"/>
      <polygon class="cls-7" points="3738.2 372.96 3876.35 293.19 3738.2 213.41 3738.2 372.96"/>
    </g>
    <g>
      <rect class="cls-3" x="1031.55" y="33.13" width="510.24" height="510.24"/>
      <rect class="cls-4" x="1541.59" y="33.13" width="13" height="523.96"/>
      <rect class="cls-4" x="1284.54" y="291.1" width="13" height="518.97" transform="translate(1841.63 -740.45) rotate(90)"/>
    </g>
    <g>
      <line class="cls-1" x1="1285.3" y1="34.81" x2="1285.73" y2="550.59"/>
      <line class="cls-1" x1="1029.23" y1="291.1" x2="1541.59" y2="290.88"/>
    </g>
    <g>
      <rect class="cls-3" x="2008.17" y="30.72" width="510.24" height="510.24"/>
      <rect class="cls-4" x="2518.21" y="30.72" width="13" height="523.96"/>
      <rect class="cls-4" x="2261.16" y="288.69" width="13" height="518.97" transform="translate(2815.84 -1719.48) rotate(90)"/>
    </g>
    <g>
      <line class="cls-1" x1="2261.92" y1="32.4" x2="2262.35" y2="548.18"/>
      <line class="cls-1" x1="2005.85" y1="288.69" x2="2518.21" y2="288.47"/>
    </g>
    <g>
      <rect class="cls-3" x="2976.19" y="21.99" width="510.24" height="510.24"/>
      <rect class="cls-4" x="3486.23" y="21.99" width="13" height="523.96"/>
      <rect class="cls-4" x="3229.17" y="279.97" width="13" height="518.97" transform="translate(3775.13 -2696.22) rotate(90)"/>
    </g>
    <g>
      <line class="cls-1" x1="3229.94" y1="23.67" x2="3230.36" y2="539.46"/>
      <line class="cls-1" x1="2973.86" y1="279.96" x2="3486.23" y2="279.75"/>
    </g>
    <g>
      <rect class="cls-3" x="3998.56" y="27.98" width="510.24" height="510.24"/>
      <rect class="cls-4" x="4508.6" y="27.98" width="13" height="523.96"/>
      <rect class="cls-4" x="4251.55" y="285.96" width="13" height="518.97" transform="translate(4803.49 -3712.6) rotate(90)"/>
    </g>
    <g>
      <line class="cls-1" x1="4252.31" y1="29.66" x2="4252.74" y2="545.44"/>
      <line class="cls-1" x1="3996.23" y1="285.95" x2="4508.6" y2="285.74"/>
    </g>
    <g>
      <path class="cls-5" d="M1216.62,224.76c2.5.71,4.51,1.86,6.58,3.21-7.99-13.27-24.6-19.84-38.77-24.12-6.54-1.98-13.57-3.16-20.24-1.07-6.39,2-12.07,6.55-14.78,12.75-5.28,12.05,1.36,26.93,14.88,29.04,11.73,1.83,20.9-8.22,29.68-14.27,4.34-2.99,9.09-5.52,14.39-6.16,2.79-.34,5.55-.14,8.25.62Z"/>
      <path class="cls-5" d="M1226.19,224.98c-1.36-2.07-2.51-4.08-3.21-6.58-.76-2.7-.96-5.47-.62-8.25.65-5.3,3.17-10.05,6.17-14.39,6.06-8.78,16.11-17.95,14.27-29.68-2.11-13.52-16.99-20.16-29.04-14.88-6.2,2.72-10.74,8.39-12.75,14.78-2.09,6.67-.91,13.7,1.07,20.24,4.28,14.16,10.84,30.77,24.12,38.77Z"/>
      <path class="cls-6" d="M1147.46,197.15c5.05.49,10.09-.49,15.12-.66,5.11-.17,10.23.43,15.22,1.5,9,1.94,17.54,5.44,25.96,9.1-8.73-8.9-18.75-16.52-29.78-22.35-8.99-4.74-21.07-10.76-31.37-6.74-4.62,1.8-8.96,6.32-6.92,11.61,1.81,4.7,7.05,7.07,11.76,7.53Z"/>
      <path class="cls-6" d="M1205.31,205.55c-3.66-8.42-7.16-16.96-9.1-25.96-1.08-4.99-1.67-10.11-1.5-15.22.17-5.04,1.15-10.08.66-15.12-.46-4.71-2.84-9.94-7.53-11.76-5.29-2.04-9.81,2.29-11.61,6.92-4.02,10.3,2,22.38,6.74,31.37,5.82,11.03,13.45,21.05,22.35,29.78Z"/>
      <path class="cls-9" d="M1177.21,182.39c4.16,2.88,8.35,5.78,12.47,8.79-3.02-4.12-5.91-8.31-8.79-12.47-7.86-11.34-16.81-23.79-28.48-32.24-3.72-2.69-9.59-5.66-11.7-4.27-1.39,2.11,1.58,7.98,4.27,11.7,8.44,11.66,20.9,20.62,32.24,28.48Z"/>
      <path class="cls-9" d="M1284.49,283.96s.05-.04.07-.06c-3.05-3.06-6.09-6.13-9.08-9.23-13.94-14.4-27.63-27.79-42.1-42.85-1.34-1.4-4.26,1.07-2.9,2.54,7.71,8.38,15.78,16.44,23.77,24.54,9.16,9.29,18.32,18.58,27.49,27.87.48-.55.98-1.1,1.5-1.62.41-.41.83-.8,1.26-1.19Z"/>
      <path class="cls-8" d="M1240.56,266.74c2.98-2.04,3.88-5.7,2.41-8.96-1.57-3.47-5.8-4.67-9.26-3.66-2.86.83-4.25,3.23-4.3,5.79-.26,2.23.66,4.63,2.33,6.15,2.43,2.21,6.09,2.55,8.83.68Z"/>
      <path class="cls-8" d="M1260.79,245.01c1.05-.31,1.98-.85,2.75-1.55.96-.78,1.71-1.83,2.15-3.1.76-2.2.19-4.74-1.19-6.55-1.64-2.15-4.27-3.09-6.92-2.55-4.75.96-7.36,6.59-4.55,10.69,1.7,2.48,4.76,3.95,7.76,3.07Z"/>
    </g>
    <g>
      <path class="cls-5" d="M2192.52,222.83c2.5.71,4.51,1.86,6.58,3.21-7.99-13.27-24.6-19.84-38.77-24.12-6.54-1.98-13.57-3.16-20.24-1.07-6.39,2-12.07,6.55-14.78,12.75-5.28,12.05,1.36,26.93,14.88,29.04,11.73,1.83,20.9-8.22,29.68-14.27,4.34-2.99,9.09-5.52,14.39-6.16,2.79-.34,5.55-.14,8.25.62Z"/>
      <path class="cls-5" d="M2202.09,223.05c-1.36-2.07-2.51-4.08-3.21-6.58-.76-2.7-.96-5.47-.62-8.25.65-5.3,3.17-10.05,6.17-14.39,6.06-8.78,16.11-17.95,14.27-29.68-2.11-13.52-16.99-20.16-29.04-14.88-6.2,2.72-10.74,8.39-12.75,14.78-2.09,6.67-.91,13.7,1.07,20.24,4.28,14.16,10.84,30.77,24.12,38.77Z"/>
      <path class="cls-6" d="M2123.36,195.22c5.05.49,10.09-.49,15.12-.66,5.11-.17,10.23.43,15.22,1.5,9,1.94,17.54,5.44,25.96,9.1-8.73-8.9-18.75-16.52-29.78-22.35-8.99-4.74-21.07-10.76-31.37-6.74-4.62,1.8-8.96,6.32-6.92,11.61,1.81,4.7,7.05,7.07,11.76,7.53Z"/>
      <path class="cls-6" d="M2181.21,203.62c-3.66-8.42-7.16-16.96-9.1-25.96-1.08-4.99-1.67-10.11-1.5-15.22.17-5.04,1.15-10.08.66-15.12-.46-4.71-2.84-9.94-7.53-11.76-5.29-2.04-9.81,2.29-11.61,6.92-4.02,10.3,2,22.38,6.74,31.37,5.82,11.03,13.45,21.05,22.35,29.78Z"/>
      <path class="cls-9" d="M2153.11,180.47c4.16,2.88,8.35,5.78,12.47,8.79-3.02-4.12-5.91-8.31-8.79-12.47-7.86-11.34-16.81-23.79-28.48-32.24-3.72-2.69-9.59-5.66-11.7-4.27-1.39,2.11,1.58,7.98,4.27,11.7,8.44,11.66,20.9,20.62,32.24,28.48Z"/>
      <path class="cls-9" d="M2260.39,282.03s.05-.04.07-.06c-3.05-3.06-6.09-6.13-9.08-9.23-13.94-14.4-27.63-27.79-42.1-42.85-1.34-1.4-4.26,1.07-2.9,2.54,7.71,8.38,15.78,16.44,23.77,24.54,9.16,9.29,18.32,18.58,27.49,27.87.48-.55.98-1.1,1.5-1.62.41-.41.83-.8,1.26-1.19Z"/>
      <path class="cls-8" d="M2216.46,264.82c2.98-2.04,3.88-5.7,2.41-8.96-1.57-3.47-5.8-4.67-9.26-3.66-2.86.83-4.25,3.23-4.3,5.79-.26,2.23.66,4.63,2.33,6.15,2.43,2.21,6.09,2.55,8.83.68Z"/>
      <path class="cls-8" d="M2236.69,243.08c1.05-.31,1.98-.85,2.75-1.55.96-.78,1.71-1.83,2.15-3.1.76-2.2.19-4.74-1.19-6.55-1.64-2.15-4.27-3.09-6.92-2.55-4.75.96-7.36,6.59-4.55,10.69,1.7,2.48,4.76,3.95,7.76,3.07Z"/>
    </g>
    <g>
      <path class="cls-5" d="M2326.55,216.43c-.71,2.5-1.86,4.51-3.21,6.58,13.27-7.99,19.84-24.6,24.12-38.77,1.98-6.54,3.16-13.57,1.07-20.24-2-6.39-6.55-12.07-12.75-14.78-12.05-5.28-26.93,1.36-29.04,14.88-1.83,11.73,8.22,20.9,14.27,29.68,2.99,4.34,5.52,9.09,6.16,14.39.34,2.79.14,5.55-.62,8.25Z"/>
      <path class="cls-5" d="M2326.33,226c2.07-1.36,4.08-2.51,6.58-3.21,2.7-.76,5.47-.96,8.25-.62,5.3.65,10.05,3.17,14.39,6.17,8.78,6.06,17.95,16.11,29.68,14.27,13.52-2.11,20.16-16.99,14.88-29.04-2.72-6.2-8.39-10.74-14.78-12.75-6.67-2.09-13.7-.91-20.24,1.07-14.16,4.28-30.77,10.84-38.77,24.12Z"/>
      <path class="cls-6" d="M2354.16,147.27c-.49,5.05.49,10.09.66,15.12.17,5.11-.43,10.23-1.5,15.22-1.94,9-5.44,17.54-9.1,25.96,8.9-8.73,16.52-18.75,22.35-29.78,4.74-8.99,10.76-21.07,6.74-31.37-1.8-4.62-6.32-8.96-11.61-6.92-4.7,1.81-7.07,7.05-7.53,11.76Z"/>
      <path class="cls-6" d="M2345.76,205.12c8.42-3.66,16.96-7.16,25.96-9.1,4.99-1.08,10.11-1.67,15.22-1.5,5.04.17,10.08,1.15,15.12.66,4.71-.46,9.94-2.84,11.76-7.53,2.04-5.29-2.29-9.81-6.92-11.61-10.3-4.02-22.38,2-31.37,6.74-11.03,5.82-21.05,13.45-29.78,22.35Z"/>
      <path class="cls-9" d="M2368.92,177.02c-2.88,4.16-5.78,8.35-8.79,12.47,4.12-3.02,8.31-5.91,12.47-8.79,11.34-7.86,23.79-16.81,32.24-28.48,2.69-3.72,5.66-9.59,4.27-11.7-2.11-1.39-7.98,1.58-11.7,4.27-11.66,8.44-20.62,20.9-28.48,32.24Z"/>
      <path class="cls-9" d="M2267.35,284.3s.04.05.06.07c3.06-3.05,6.13-6.09,9.23-9.08,14.4-13.94,27.79-27.63,42.85-42.1,1.4-1.34-1.07-4.26-2.54-2.9-8.38,7.71-16.44,15.78-24.54,23.77-9.29,9.16-18.58,18.32-27.87,27.49.55.48,1.1.98,1.62,1.5.41.41.8.83,1.19,1.26Z"/>
      <path class="cls-8" d="M2284.57,240.36c2.04,2.98,5.7,3.88,8.96,2.41,3.47-1.57,4.67-5.8,3.66-9.26-.83-2.86-3.23-4.25-5.79-4.3-2.23-.26-4.63.66-6.15,2.33-2.21,2.43-2.55,6.09-.68,8.83Z"/>
      <path class="cls-8" d="M2306.3,260.6c.31,1.05.85,1.98,1.55,2.75.78.96,1.83,1.71,3.1,2.15,2.2.76,4.74.19,6.55-1.19,2.15-1.64,3.09-4.27,2.55-6.92-.96-4.75-6.59-7.36-10.69-4.55-2.48,1.7-3.95,4.76-3.07,7.76Z"/>
    </g>
    <g>
      <g>
        <path class="cls-5" d="M3160.85,218.77c2.5.71,4.51,1.86,6.58,3.21-7.99-13.27-24.6-19.84-38.77-24.12-6.54-1.98-13.57-3.16-20.24-1.07-6.39,2-12.07,6.55-14.78,12.75-5.28,12.05,1.36,26.93,14.88,29.04,11.73,1.83,20.9-8.22,29.68-14.27,4.34-2.99,9.09-5.52,14.39-6.16,2.79-.34,5.55-.14,8.25.62Z"/>
        <path class="cls-5" d="M3170.42,218.99c-1.36-2.07-2.51-4.08-3.21-6.58-.76-2.7-.96-5.47-.62-8.25.65-5.3,3.17-10.05,6.17-14.39,6.06-8.78,16.11-17.95,14.27-29.68-2.11-13.52-16.99-20.16-29.04-14.88-6.2,2.72-10.74,8.39-12.75,14.78-2.09,6.67-.91,13.7,1.07,20.24,4.28,14.16,10.84,30.77,24.12,38.77Z"/>
        <path class="cls-6" d="M3091.69,191.16c5.05.49,10.09-.49,15.12-.66,5.11-.17,10.23.43,15.22,1.5,9,1.94,17.54,5.44,25.96,9.1-8.73-8.9-18.75-16.52-29.78-22.35-8.99-4.74-21.07-10.76-31.37-6.74-4.62,1.8-8.96,6.32-6.92,11.61,1.81,4.7,7.05,7.07,11.76,7.53Z"/>
        <path class="cls-6" d="M3149.54,199.56c-3.66-8.42-7.16-16.96-9.1-25.96-1.08-4.99-1.67-10.11-1.5-15.22.17-5.04,1.15-10.08.66-15.12-.46-4.71-2.84-9.94-7.53-11.76-5.29-2.04-9.81,2.29-11.61,6.92-4.02,10.3,2,22.38,6.74,31.37,5.82,11.03,13.45,21.05,22.35,29.78Z"/>
        <path class="cls-9" d="M3121.44,176.41c4.16,2.88,8.35,5.78,12.47,8.79-3.02-4.12-5.91-8.31-8.79-12.47-7.86-11.34-16.81-23.79-28.48-32.24-3.72-2.69-9.59-5.66-11.7-4.27-1.39,2.11,1.58,7.98,4.27,11.7,8.44,11.66,20.9,20.62,32.24,28.48Z"/>
        <path class="cls-9" d="M3228.72,277.97s.05-.04.07-.06c-3.05-3.06-6.09-6.13-9.08-9.23-13.94-14.4-27.63-27.79-42.1-42.85-1.34-1.4-4.26,1.07-2.9,2.54,7.71,8.38,15.78,16.44,23.77,24.54,9.16,9.29,18.32,18.58,27.49,27.87.48-.55.98-1.1,1.5-1.62.41-.41.83-.8,1.26-1.19Z"/>
        <path class="cls-8" d="M3184.79,260.76c2.98-2.04,3.88-5.7,2.41-8.96-1.57-3.47-5.8-4.67-9.26-3.66-2.86.83-4.25,3.23-4.3,5.79-.26,2.23.66,4.63,2.33,6.15,2.43,2.21,6.09,2.55,8.83.68Z"/>
        <path class="cls-8" d="M3205.02,239.02c1.05-.31,1.98-.85,2.75-1.55.96-.78,1.71-1.83,2.15-3.1.76-2.2.19-4.74-1.19-6.55-1.64-2.15-4.27-3.09-6.92-2.55-4.75.96-7.36,6.59-4.55,10.69,1.7,2.48,4.76,3.95,7.76,3.07Z"/>
      </g>
      <g>
        <path class="cls-5" d="M3300.4,346.57c-2.5-.71-4.51-1.86-6.58-3.21,7.99,13.27,24.61,19.84,38.77,24.12,6.54,1.98,13.57,3.16,20.24,1.07,6.39-2,12.07-6.55,14.78-12.75,5.28-12.05-1.36-26.93-14.88-29.04-11.73-1.83-20.9,8.22-29.68,14.27-4.34,2.99-9.09,5.52-14.39,6.16-2.79.34-5.55.14-8.25-.62Z"/>
        <path class="cls-5" d="M3290.83,346.35c1.36,2.07,2.51,4.08,3.21,6.58.76,2.7.96,5.47.62,8.25-.65,5.3-3.17,10.05-6.17,14.39-6.06,8.78-16.11,17.95-14.27,29.68,2.11,13.52,16.99,20.16,29.04,14.88,6.2-2.72,10.74-8.39,12.75-14.78,2.09-6.67.91-13.7-1.07-20.24-4.28-14.16-10.84-30.77-24.12-38.77Z"/>
        <path class="cls-6" d="M3369.56,374.19c-5.05-.49-10.09.49-15.12.66-5.11.17-10.23-.43-15.22-1.5-9-1.94-17.54-5.44-25.96-9.1,8.73,8.9,18.75,16.52,29.78,22.35,8.99,4.74,21.07,10.76,31.37,6.74,4.62-1.8,8.96-6.32,6.92-11.61-1.81-4.7-7.05-7.07-11.76-7.53Z"/>
        <path class="cls-6" d="M3311.71,365.78c3.66,8.42,7.16,16.96,9.1,25.96,1.08,4.99,1.67,10.11,1.5,15.22-.17,5.04-1.15,10.08-.66,15.12.46,4.71,2.84,9.94,7.53,11.76,5.29,2.04,9.81-2.29,11.61-6.92,4.02-10.3-2-22.38-6.74-31.37-5.82-11.03-13.45-21.05-22.35-29.78Z"/>
        <path class="cls-9" d="M3339.81,388.94c-4.16-2.88-8.35-5.78-12.47-8.79,3.02,4.12,5.91,8.31,8.79,12.47,7.86,11.34,16.81,23.79,28.48,32.24,3.72,2.69,9.59,5.66,11.7,4.27,1.39-2.11-1.58-7.98-4.27-11.7-8.44-11.66-20.9-20.62-32.24-28.48Z"/>
        <path class="cls-9" d="M3232.53,287.38s-.05.04-.07.06c3.05,3.06,6.09,6.13,9.08,9.23,13.94,14.4,27.63,27.79,42.1,42.85,1.34,1.4,4.26-1.07,2.9-2.54-7.71-8.38-15.78-16.44-23.77-24.54-9.16-9.29-18.32-18.58-27.49-27.87-.48.55-.98,1.1-1.5,1.62-.41.41-.83.8-1.26,1.19Z"/>
        <path class="cls-8" d="M3276.46,304.59c-2.98,2.04-3.88,5.7-2.41,8.96,1.57,3.47,5.8,4.67,9.26,3.66,2.86-.83,4.25-3.23,4.3-5.79.26-2.23-.66-4.63-2.33-6.15-2.43-2.21-6.09-2.55-8.83-.68Z"/>
        <path class="cls-8" d="M3256.23,326.33c-1.05.31-1.98.85-2.75,1.55-.96.78-1.71,1.83-2.15,3.1-.76,2.2-.19,4.74,1.19,6.55,1.64,2.15,4.27,3.09,6.92,2.55,4.75-.96,7.36-6.59,4.55-10.69-1.7-2.48-4.76-3.95-7.76-3.07Z"/>
      </g>
      <g>
        <path class="cls-5" d="M3294.88,212.36c-.71,2.5-1.86,4.51-3.21,6.58,13.27-7.99,19.84-24.6,24.12-38.77,1.98-6.54,3.16-13.57,1.07-20.24-2-6.39-6.55-12.07-12.75-14.78-12.05-5.28-26.93,1.36-29.04,14.88-1.83,11.73,8.22,20.9,14.27,29.68,2.99,4.34,5.52,9.09,6.16,14.39.34,2.79.14,5.55-.62,8.25Z"/>
        <path class="cls-5" d="M3294.66,221.93c2.07-1.36,4.08-2.51,6.58-3.21,2.7-.76,5.47-.96,8.25-.62,5.3.65,10.05,3.17,14.39,6.17,8.78,6.06,17.95,16.11,29.68,14.27,13.52-2.11,20.16-16.99,14.88-29.04-2.72-6.2-8.39-10.74-14.78-12.75-6.67-2.09-13.7-.91-20.24,1.07-14.16,4.28-30.77,10.84-38.77,24.12Z"/>
        <path class="cls-6" d="M3322.5,143.2c-.49,5.05.49,10.09.66,15.12.17,5.11-.43,10.23-1.5,15.22-1.94,9-5.44,17.54-9.1,25.96,8.9-8.73,16.52-18.75,22.35-29.78,4.74-8.99,10.76-21.07,6.74-31.37-1.8-4.62-6.32-8.96-11.61-6.92-4.7,1.81-7.07,7.05-7.53,11.76Z"/>
        <path class="cls-6" d="M3314.09,201.05c8.42-3.66,16.96-7.16,25.96-9.1,4.99-1.08,10.11-1.67,15.22-1.5,5.04.17,10.08,1.15,15.12.66,4.71-.46,9.94-2.84,11.76-7.53,2.04-5.29-2.29-9.81-6.92-11.61-10.3-4.02-22.38,2-31.37,6.74-11.03,5.82-21.05,13.45-29.78,22.35Z"/>
        <path class="cls-9" d="M3337.25,172.96c-2.88,4.16-5.78,8.35-8.79,12.47,4.12-3.02,8.31-5.91,12.47-8.79,11.34-7.86,23.79-16.81,32.24-28.48,2.69-3.72,5.66-9.59,4.27-11.7-2.11-1.39-7.98,1.58-11.7,4.27-11.66,8.44-20.62,20.9-28.48,32.24Z"/>
        <path class="cls-9" d="M3235.69,280.24s.04.05.06.07c3.06-3.05,6.13-6.09,9.23-9.08,14.4-13.94,27.79-27.63,42.85-42.1,1.4-1.34-1.07-4.26-2.54-2.9-8.38,7.71-16.44,15.78-24.54,23.77-9.29,9.16-18.58,18.32-27.87,27.49.55.48,1.1.98,1.62,1.5.41.41.8.83,1.19,1.26Z"/>
        <path class="cls-8" d="M3252.9,236.3c2.04,2.98,5.7,3.88,8.96,2.41,3.47-1.57,4.67-5.8,3.66-9.26-.83-2.86-3.23-4.25-5.79-4.3-2.23-.26-4.63.66-6.15,2.33-2.21,2.43-2.55,6.09-.68,8.83Z"/>
        <path class="cls-8" d="M3274.64,256.54c.31,1.05.85,1.98,1.55,2.75.78.96,1.83,1.71,3.1,2.15,2.2.76,4.74.19,6.55-1.19,2.15-1.64,3.09-4.27,2.55-6.92-.96-4.75-6.59-7.36-10.69-4.55-2.48,1.7-3.95,4.76-3.07,7.76Z"/>
      </g>
    </g>
    <g>
      <g>
        <path class="cls-5" d="M4181.46,224.76c2.5.71,4.51,1.86,6.58,3.21-7.99-13.27-24.6-19.84-38.77-24.12-6.54-1.98-13.57-3.16-20.24-1.07-6.39,2-12.07,6.55-14.78,12.75-5.28,12.05,1.36,26.93,14.88,29.04,11.73,1.83,20.9-8.22,29.68-14.27,4.34-2.99,9.09-5.52,14.39-6.16,2.79-.34,5.55-.14,8.25.62Z"/>
        <path class="cls-5" d="M4191.03,224.98c-1.36-2.07-2.51-4.08-3.21-6.58-.76-2.7-.96-5.47-.62-8.25.65-5.3,3.17-10.05,6.17-14.39,6.06-8.78,16.11-17.95,14.27-29.68-2.11-13.52-16.99-20.16-29.04-14.88-6.2,2.72-10.74,8.39-12.75,14.78-2.09,6.67-.91,13.7,1.07,20.24,4.28,14.16,10.84,30.77,24.12,38.77Z"/>
        <path class="cls-6" d="M4112.3,197.15c5.05.49,10.09-.49,15.12-.66,5.11-.17,10.23.43,15.22,1.5,9,1.94,17.54,5.44,25.96,9.1-8.73-8.9-18.75-16.52-29.78-22.35-8.99-4.74-21.07-10.76-31.37-6.74-4.62,1.8-8.96,6.32-6.92,11.61,1.81,4.7,7.05,7.07,11.76,7.53Z"/>
        <path class="cls-6" d="M4170.15,205.55c-3.66-8.42-7.16-16.96-9.1-25.96-1.08-4.99-1.67-10.11-1.5-15.22.17-5.04,1.15-10.08.66-15.12-.46-4.71-2.84-9.94-7.53-11.76-5.29-2.04-9.81,2.29-11.61,6.92-4.02,10.3,2,22.38,6.74,31.37,5.82,11.03,13.45,21.05,22.35,29.78Z"/>
        <path class="cls-9" d="M4142.05,182.39c4.16,2.88,8.35,5.78,12.47,8.79-3.02-4.12-5.91-8.31-8.79-12.47-7.86-11.34-16.81-23.79-28.48-32.24-3.72-2.69-9.59-5.66-11.7-4.27-1.39,2.11,1.58,7.98,4.27,11.7,8.44,11.66,20.9,20.62,32.24,28.48Z"/>
        <path class="cls-9" d="M4249.34,283.96s.05-.04.07-.06c-3.05-3.06-6.09-6.13-9.08-9.23-13.94-14.4-27.63-27.79-42.1-42.85-1.34-1.4-4.26,1.07-2.9,2.54,7.71,8.38,15.78,16.44,23.77,24.54,9.16,9.29,18.32,18.58,27.49,27.87.48-.55.98-1.1,1.5-1.62.41-.41.83-.8,1.26-1.19Z"/>
        <path class="cls-8" d="M4205.4,266.74c2.98-2.04,3.88-5.7,2.41-8.96-1.57-3.47-5.8-4.67-9.26-3.66-2.86.83-4.25,3.23-4.3,5.79-.26,2.23.66,4.63,2.33,6.15,2.43,2.21,6.09,2.55,8.83.68Z"/>
        <path class="cls-8" d="M4225.63,245.01c1.05-.31,1.98-.85,2.75-1.55.96-.78,1.71-1.83,2.15-3.1.76-2.2.19-4.74-1.19-6.55-1.64-2.15-4.27-3.09-6.92-2.55-4.75.96-7.36,6.59-4.55,10.69,1.7,2.48,4.76,3.95,7.76,3.07Z"/>
      </g>
      <g>
        <path class="cls-5" d="M4321.01,352.56c-2.5-.71-4.51-1.86-6.58-3.21,7.99,13.27,24.61,19.84,38.77,24.12,6.54,1.98,13.57,3.16,20.24,1.07,6.39-2,12.07-6.55,14.78-12.75,5.28-12.05-1.36-26.93-14.88-29.04-11.73-1.83-20.9,8.22-29.68,14.27-4.34,2.99-9.09,5.52-14.39,6.16-2.79.34-5.55.14-8.25-.62Z"/>
        <path class="cls-5" d="M4311.44,352.34c1.36,2.07,2.51,4.08,3.21,6.58.76,2.7.96,5.47.62,8.25-.65,5.3-3.17,10.05-6.17,14.39-6.06,8.78-16.11,17.95-14.27,29.68,2.11,13.52,16.99,20.16,29.04,14.88,6.2-2.72,10.74-8.39,12.75-14.78,2.09-6.67.91-13.7-1.07-20.24-4.28-14.16-10.84-30.77-24.12-38.77Z"/>
        <path class="cls-6" d="M4390.17,380.17c-5.05-.49-10.09.49-15.12.66-5.11.17-10.23-.43-15.22-1.5-9-1.94-17.54-5.44-25.96-9.1,8.73,8.9,18.75,16.52,29.78,22.35,8.99,4.74,21.07,10.76,31.37,6.74,4.62-1.8,8.96-6.32,6.92-11.61-1.81-4.7-7.05-7.07-11.76-7.53Z"/>
        <path class="cls-6" d="M4332.32,371.77c3.66,8.42,7.16,16.96,9.1,25.96,1.08,4.99,1.67,10.11,1.5,15.22-.17,5.04-1.15,10.08-.66,15.12.46,4.71,2.84,9.94,7.53,11.76,5.29,2.04,9.81-2.29,11.61-6.92,4.02-10.3-2-22.38-6.74-31.37-5.82-11.03-13.45-21.05-22.35-29.78Z"/>
        <path class="cls-9" d="M4360.42,394.92c-4.16-2.88-8.35-5.78-12.47-8.79,3.02,4.12,5.91,8.31,8.79,12.47,7.86,11.34,16.81,23.79,28.48,32.24,3.72,2.69,9.59,5.66,11.7,4.27,1.39-2.11-1.58-7.98-4.27-11.7-8.44-11.66-20.9-20.62-32.24-28.48Z"/>
        <path class="cls-9" d="M4253.14,293.36s-.05.04-.07.06c3.05,3.06,6.09,6.13,9.08,9.23,13.94,14.4,27.63,27.79,42.1,42.85,1.34,1.4,4.26-1.07,2.9-2.54-7.71-8.38-15.78-16.44-23.77-24.54-9.16-9.29-18.32-18.58-27.49-27.87-.48.55-.98,1.1-1.5,1.62-.41.41-.83.8-1.26,1.19Z"/>
        <path class="cls-8" d="M4297.08,310.57c-2.98,2.04-3.88,5.7-2.41,8.96,1.57,3.47,5.8,4.67,9.26,3.66,2.86-.83,4.25-3.23,4.3-5.79.26-2.23-.66-4.63-2.33-6.15-2.43-2.21-6.09-2.55-8.83-.68Z"/>
        <path class="cls-8" d="M4276.84,332.31c-1.05.31-1.98.85-2.75,1.55-.96.78-1.71,1.83-2.15,3.1-.76,2.2-.19,4.74,1.19,6.55,1.64,2.15,4.27,3.09,6.92,2.55,4.75-.96,7.36-6.59,4.55-10.69-1.7-2.48-4.76-3.95-7.76-3.07Z"/>
      </g>
      <g>
        <path class="cls-5" d="M4315.5,218.35c-.71,2.5-1.86,4.51-3.21,6.58,13.27-7.99,19.84-24.6,24.12-38.77,1.98-6.54,3.16-13.57,1.07-20.24-2-6.39-6.55-12.07-12.75-14.78-12.05-5.28-26.93,1.36-29.04,14.88-1.83,11.73,8.22,20.9,14.27,29.68,2.99,4.34,5.52,9.09,6.16,14.39.34,2.79.14,5.55-.62,8.25Z"/>
        <path class="cls-5" d="M4315.27,227.92c2.07-1.36,4.08-2.51,6.58-3.21,2.7-.76,5.47-.96,8.25-.62,5.3.65,10.05,3.17,14.39,6.17,8.78,6.06,17.95,16.11,29.68,14.27,13.52-2.11,20.16-16.99,14.88-29.04-2.72-6.2-8.39-10.74-14.78-12.75-6.67-2.09-13.7-.91-20.24,1.07-14.16,4.28-30.77,10.84-38.77,24.12Z"/>
        <path class="cls-6" d="M4343.11,149.19c-.49,5.05.49,10.09.66,15.12.17,5.11-.43,10.23-1.5,15.22-1.94,9-5.44,17.54-9.1,25.96,8.9-8.73,16.52-18.75,22.35-29.78,4.74-8.99,10.76-21.07,6.74-31.37-1.8-4.62-6.32-8.96-11.61-6.92-4.7,1.81-7.07,7.05-7.53,11.76Z"/>
        <path class="cls-6" d="M4334.71,207.04c8.42-3.66,16.96-7.16,25.96-9.1,4.99-1.08,10.11-1.67,15.22-1.5,5.04.17,10.08,1.15,15.12.66,4.71-.46,9.94-2.84,11.76-7.53,2.04-5.29-2.29-9.81-6.92-11.61-10.3-4.02-22.38,2-31.37,6.74-11.03,5.82-21.05,13.45-29.78,22.35Z"/>
        <path class="cls-9" d="M4357.86,178.94c-2.88,4.16-5.78,8.35-8.79,12.47,4.12-3.02,8.31-5.91,12.47-8.79,11.34-7.86,23.79-16.81,32.24-28.48,2.69-3.72,5.66-9.59,4.27-11.7-2.11-1.39-7.98,1.58-11.7,4.27-11.66,8.44-20.62,20.9-28.48,32.24Z"/>
        <path class="cls-9" d="M4256.3,286.23s.04.05.06.07c3.06-3.05,6.13-6.09,9.23-9.08,14.4-13.94,27.79-27.63,42.85-42.1,1.4-1.34-1.07-4.26-2.54-2.9-8.38,7.71-16.44,15.78-24.54,23.77-9.29,9.16-18.58,18.32-27.87,27.49.55.48,1.1.98,1.62,1.5.41.41.8.83,1.19,1.26Z"/>
        <path class="cls-8" d="M4273.51,242.29c2.04,2.98,5.7,3.88,8.96,2.41,3.47-1.57,4.67-5.8,3.66-9.26-.83-2.86-3.23-4.25-5.79-4.3-2.23-.26-4.63.66-6.15,2.33-2.21,2.43-2.55,6.09-.68,8.83Z"/>
        <path class="cls-8" d="M4295.25,262.52c.31,1.05.85,1.98,1.55,2.75.78.96,1.83,1.71,3.1,2.15,2.2.76,4.74.19,6.55-1.19,2.15-1.64,3.09-4.27,2.55-6.92-.96-4.75-6.59-7.36-10.69-4.55-2.48,1.7-3.95,4.76-3.07,7.76Z"/>
      </g>
      <g>
        <path class="cls-5" d="M4187.69,357.9c.71-2.5,1.86-4.51,3.21-6.58-13.27,7.99-19.84,24.61-24.12,38.77-1.98,6.54-3.16,13.57-1.07,20.24,2,6.39,6.55,12.07,12.75,14.78,12.05,5.28,26.93-1.36,29.04-14.88,1.83-11.73-8.22-20.9-14.27-29.68-2.99-4.34-5.52-9.09-6.16-14.39-.34-2.79-.14-5.55.62-8.25Z"/>
        <path class="cls-5" d="M4187.91,348.34c-2.07,1.36-4.08,2.51-6.58,3.21-2.7.76-5.47.96-8.25.62-5.3-.65-10.05-3.17-14.39-6.17-8.78-6.06-17.95-16.11-29.68-14.27-13.52,2.11-20.16,16.99-14.88,29.04,2.72,6.2,8.39,10.74,14.78,12.75,6.67,2.09,13.7.91,20.24-1.07,14.16-4.28,30.77-10.84,38.77-24.12Z"/>
        <path class="cls-6" d="M4160.08,427.06c.49-5.05-.49-10.09-.66-15.12-.17-5.11.43-10.23,1.5-15.22,1.94-9,5.44-17.54,9.1-25.96-8.9,8.73-16.52,18.75-22.35,29.78-4.74,8.99-10.76,21.07-6.74,31.37,1.8,4.62,6.32,8.96,11.61,6.92,4.7-1.81,7.07-7.05,7.53-11.76Z"/>
        <path class="cls-6" d="M4168.48,369.22c-8.42,3.66-16.96,7.16-25.96,9.1-4.99,1.08-10.11,1.67-15.22,1.5-5.04-.17-10.08-1.15-15.12-.66-4.71.46-9.94,2.84-11.76,7.53-2.04,5.29,2.29,9.81,6.92,11.61,10.3,4.02,22.38-2,31.37-6.74,11.03-5.82,21.05-13.45,29.78-22.35Z"/>
        <path class="cls-9" d="M4145.33,397.31c2.88-4.16,5.78-8.35,8.79-12.47-4.12,3.02-8.31,5.91-12.47,8.79-11.34,7.86-23.79,16.81-32.24,28.48-2.69,3.72-5.66,9.59-4.27,11.7,2.11,1.39,7.98-1.58,11.7-4.27,11.66-8.44,20.62-20.9,28.48-32.24Z"/>
        <path class="cls-9" d="M4246.89,290.03s-.04-.05-.06-.07c-3.06,3.05-6.13,6.09-9.23,9.08-14.4,13.94-27.79,27.63-42.85,42.1-1.4,1.34,1.07,4.26,2.54,2.9,8.38-7.71,16.44-15.78,24.54-23.77,9.29-9.16,18.58-18.32,27.87-27.49-.55-.48-1.1-.98-1.62-1.5-.41-.41-.8-.83-1.19-1.26Z"/>
        <path class="cls-8" d="M4229.68,333.97c-2.04-2.98-5.7-3.88-8.96-2.41-3.47,1.57-4.67,5.8-3.66,9.26.83,2.86,3.23,4.25,5.79,4.3,2.23.26,4.63-.66,6.15-2.33,2.21-2.43,2.55-6.09.68-8.83Z"/>
        <path class="cls-8" d="M4207.94,313.73c-.31-1.05-.85-1.98-1.55-2.75-.78-.96-1.83-1.71-3.1-2.15-2.2-.76-4.74-.19-6.55,1.19-2.15,1.64-3.09,4.27-2.55,6.92.96,4.75,6.59,7.36,10.69,4.55,2.48-1.7,3.95-4.76,3.07-7.76Z"/>
      </g>
    </g>
  </g>
  <g id="_圖層_2" data-name="圖層 2">
    <g>
      <line class="cls-2" x1="683.01" y1="295.96" x2="804.55" y2="295.96"/>
      <polygon class="cls-7" points="781.21 375.74 919.36 295.97 781.21 216.19 781.21 375.74"/>
    </g>
    <g>
      <rect class="cls-3" x="45.02" y="35.91" width="510.24" height="510.24"/>
      <rect class="cls-4" x="555.06" y="35.91" width="13" height="523.96"/>
      <rect class="cls-4" x="298" y="293.88" width="13" height="518.97" transform="translate(857.87 248.87) rotate(90)"/>
    </g>
  </g>
</svg>