<?xml version="1.0" encoding="UTF-8"?>
<svg id="_圖層_1" data-name="圖層 1" xmlns="http://www.w3.org/2000/svg" viewBox="0 0 1479.68 581.1">
  <defs>
    <style>
      .cls-1 {
        fill: #fff;
      }

      .cls-2 {
        fill: #bbbaba;
      }

      .cls-3 {
        fill: #f6b491;
      }

      .cls-4 {
        fill: #231815;
      }

      .cls-5 {
        fill: none;
        stroke: #231815;
        stroke-linecap: round;
        stroke-linejoin: round;
        stroke-width: 16px;
      }

      .cls-6 {
        fill: #ce6729;
      }

      .cls-7 {
        fill: #e8e8e8;
      }
    </style>
  </defs>
  <rect class="cls-7" x="-53.02" y="0" width="1646.06" height="638.3"/>
  <g>
    <line class="cls-5" x1="621.67" y1="290.55" x2="743.2" y2="290.55"/>
    <polygon class="cls-4" points="719.86 370.33 858.01 290.56 719.86 210.78 719.86 370.33"/>
  </g>
  <g>
    <g>
      <rect class="cls-1" x="43.86" y="28.57" width="510.24" height="510.24"/>
      <rect class="cls-2" x="553.9" y="28.57" width="13" height="523.96"/>
      <rect class="cls-2" x="296.85" y="286.55" width="13" height="518.97" transform="translate(849.38 242.68) rotate(90)"/>
    </g>
    <g>
      <rect class="cls-3" x="45.06" y="283.39" width="507.85" height="7.83"/>
      <rect class="cls-3" x="295.07" y="33.38" width="7.83" height="507.85"/>
    </g>
  </g>
  <g>
    <g>
      <rect class="cls-1" x="909.26" y="28.57" width="510.24" height="510.24"/>
      <rect class="cls-2" x="1419.3" y="28.57" width="13" height="523.96"/>
      <rect class="cls-2" x="1162.24" y="286.55" width="13" height="518.97" transform="translate(1714.77 -622.71) rotate(90)"/>
    </g>
    <g>
      <path class="cls-6" d="M1181.82,104.24c4.09-25.81-17.47-39.39-17.47-39.39-.4.25-21.55,13.58-17.46,39.39,0,0-25.74-11.44-28.91,12.07,0,0,43.42-2.8,46.28,36.28h.36c2.86-39.08,46.11-36.28,46.11-36.28-3.18-23.51-28.91-12.07-28.91-12.07Z"/>
      <path class="cls-6" d="M981.31,269.86c-25.81-4.09-39.39,17.47-39.39,17.47.25.4,13.58,21.55,39.39,17.46,0,0-11.44,25.74,12.07,28.91,0,0-2.8-43.42,36.28-46.28v-.36c-39.08-2.86-36.28-46.11-36.28-46.11-23.51,3.18-12.07,28.91-12.07,28.91Z"/>
      <path class="cls-6" d="M1146.93,470.37c-4.09,25.81,17.47,39.39,17.47,39.39.4-.25,21.55-13.58,17.46-39.39,0,0,25.74,11.44,28.91-12.07,0,0-43.42,2.8-46.28-36.28h-.36c-2.86,39.08-46.11,36.28-46.11,36.28,3.18,23.51,28.91,12.07,28.91,12.07Z"/>
      <path class="cls-6" d="M1347.44,304.75c25.81,4.09,39.39-17.47,39.39-17.47-.25-.4-13.58-21.55-39.39-17.46,0,0,11.44-25.74-12.07-28.91,0,0,2.8,43.42-36.28,46.28v.36c39.08,2.86,36.28,46.11,36.28,46.11,23.51-3.18,12.07-28.91,12.07-28.91Z"/>
    </g>
  </g>
</svg>