<?xml version="1.0" encoding="UTF-8"?>
<svg id="_圖層_2" data-name="圖層 2" xmlns="http://www.w3.org/2000/svg" xmlns:xlink="http://www.w3.org/1999/xlink" viewBox="0 0 661.78 489.72">
  <defs>
    <style>
      .cls-1 {
        fill: #fff;
      }

      .cls-2 {
        fill: #5d8897;
      }

      .cls-3 {
        fill: #aacddf;
      }

      .cls-4 {
        fill: #f29119;
      }

      .cls-5 {
        clip-path: url(#clippath);
      }
    </style>
    <clipPath id="clippath">
      <polygon class="cls-1" points="330.71 429.82 587.79 172.78 73.63 172.78 330.71 429.82"/>
    </clipPath>
  </defs>
  <path class="cls-4" d="M167.55,30.11h326.68c66.6,0,120.66,54.07,120.66,120.66v308.84H46.89V150.77c0-66.6,54.07-120.66,120.66-120.66Z"/>
  <g>
    <polygon class="cls-1" points="330.71 429.82 587.79 172.78 73.63 172.78 330.71 429.82"/>
    <g class="cls-5">
      <g>
        <g>
          <path class="cls-3" d="M517.62,237.03c-5.44-5.44-8.43-12.68-8.43-20.39,0-4.6,1.07-9.03,3.09-13.02l-12.61,9.05c-1.36.97-2.63,2.05-3.78,3.2-5.72,5.72-8.87,13.33-8.87,21.44s3.15,15.73,8.87,21.44c5.72,5.72,13.33,8.87,21.44,8.87s15.73-3.15,21.44-8.87c1.15-1.15,2.23-2.42,3.2-3.78l9.04-12.6c-3.98,2.01-8.41,3.09-13.01,3.09-7.71,0-14.95-3-20.39-8.43Z"/>
          <path class="cls-1" d="M488.82,265.83c-7.61-7.61-11.79-17.73-11.79-28.51,0-8.12,2.38-15.86,6.79-22.44l-14.37,10.32c-1.92,1.38-3.73,2.91-5.36,4.54-8.11,8.11-12.58,18.91-12.58,30.42s4.47,22.31,12.58,30.42c16.77,16.77,44.06,16.77,60.83,0,1.63-1.63,3.16-3.43,4.54-5.36l10.33-14.38c-6.58,4.42-14.33,6.8-22.45,6.8-10.78,0-20.91-4.19-28.51-11.8Z"/>
          <path class="cls-1" d="M458.72,216.77c2.3,0,4.66-.2,7-.58l17.48-2.87c-18.51-3.65-32.52-20-32.52-39.56h0s-34.98,0-34.98,0h0c0,23.72,19.3,43.02,43.01,43.02Z"/>
          <path class="cls-3" d="M491.01,204.08c1.63,0,3.29-.14,4.93-.41l15.34-2.52c-11.52-3.78-19.87-14.63-19.87-27.4h0s-30.73,0-30.73,0h0c0,16.72,13.6,30.33,30.33,30.33Z"/>
          <path class="cls-4" d="M501.41,173.76h0c0,10.39,8.45,18.83,18.83,18.83,1.01,0,2.04-.08,3.06-.25l21.1-3.47-17.37,12.47c-.85.61-1.64,1.28-2.35,1.99-3.55,3.55-5.5,8.28-5.5,13.32s1.96,9.77,5.5,13.32c7.34,7.34,19.29,7.34,26.64,0,.71-.71,1.38-1.5,1.99-2.35l12.47-17.37-3.48,21.1c-.17,1.02-.25,2.05-.25,3.06,0,10.38,8.45,18.83,18.83,18.83v-79.48h-79.48Z"/>
          <path class="cls-3" d="M553.5,243.37l-2.52,15.34c-.27,1.65-.41,3.31-.41,4.93,0,16.72,13.6,30.33,30.33,30.33v-30.73c-12.77,0-23.62-8.35-27.4-19.87Z"/>
          <path class="cls-1" d="M541.33,271.45l-2.87,17.48c-.38,2.34-.58,4.69-.58,7,0,23.72,19.3,43.01,43.02,43.01v-34.98c-19.57,0-35.92-14.01-39.56-32.52Z"/>
          <path class="cls-2" d="M562.06,234.4c0-1.01.08-2.04.25-3.06l3.48-21.1-12.47,17.37c-.61.84-1.28,1.63-1.99,2.35-7.34,7.34-19.29,7.34-26.64,0-3.55-3.55-5.5-8.28-5.5-13.32s1.96-9.77,5.5-13.32c.71-.71,1.5-1.38,2.35-1.99l17.37-12.47-21.1,3.47c-1.02.17-2.05.25-3.06.25-10.38,0-18.83-8.45-18.83-18.83h0s-10,0-10,0h0c0,12.77,8.35,23.62,19.87,27.4l-15.34,2.52c-1.65.27-3.31.41-4.93.41-16.72,0-30.33-13.6-30.33-30.33h0s-10,0-10,0h0c0,19.57,14.01,35.92,32.52,39.56l-17.48,2.87c-2.34.38-4.69.58-7,.58-23.72,0-43.01-19.3-43.01-43.01h0s-10,0-10,0h0c0,27.48,21.01,50.14,47.81,52.76-7.77,9.45-12,21.21-12,33.63,0,14.18,5.51,27.49,15.51,37.49,19.43,19.43,50.31,20.6,71.11,3.5,2.62,26.8,25.29,47.81,52.76,47.81v-10c-23.72,0-43.02-19.3-43.02-43.01,0-2.3.2-4.66.58-7l2.87-17.48c3.65,18.51,20,32.52,39.56,32.52v-10c-16.72,0-30.33-13.6-30.33-30.33,0-1.63.14-3.29.41-4.93l2.52-15.34c3.78,11.52,14.63,19.87,27.4,19.87v-10c-10.39,0-18.83-8.45-18.83-18.83ZM529.46,285.2c-1.38,1.92-2.91,3.73-4.54,5.36-16.77,16.77-44.06,16.77-60.83,0-8.11-8.11-12.58-18.91-12.58-30.42s4.47-22.31,12.58-30.42c1.63-1.63,3.44-3.16,5.36-4.54l14.37-10.32c-4.42,6.58-6.79,14.33-6.79,22.44,0,10.78,4.19,20.91,11.79,28.51,7.61,7.61,17.73,11.8,28.51,11.8,8.12,0,15.87-2.38,22.45-6.8l-10.33,14.38ZM541.98,254.98c-.97,1.35-2.05,2.62-3.2,3.78-5.72,5.72-13.33,8.87-21.44,8.87s-15.73-3.15-21.44-8.87c-5.72-5.72-8.87-13.33-8.87-21.44s3.15-15.73,8.87-21.44c1.15-1.15,2.42-2.23,3.78-3.2l12.61-9.05c-2.02,3.98-3.09,8.42-3.09,13.02,0,7.71,3,14.95,8.43,20.39,5.44,5.44,12.68,8.43,20.39,8.43,4.6,0,9.03-1.07,13.01-3.09l-9.04,12.6Z"/>
        </g>
        <g>
          <path class="cls-3" d="M140.01,237.03c5.44-5.44,8.43-12.68,8.43-20.39,0-4.6-1.07-9.03-3.09-13.02l12.61,9.05c1.36.97,2.63,2.05,3.78,3.2,5.72,5.72,8.87,13.33,8.87,21.44,0,8.11-3.15,15.73-8.87,21.44-5.72,5.72-13.33,8.87-21.44,8.87s-15.73-3.15-21.44-8.87c-1.15-1.15-2.23-2.42-3.2-3.78l-9.04-12.6c3.98,2.01,8.41,3.09,13.01,3.09,7.71,0,14.95-3,20.39-8.43Z"/>
          <path class="cls-1" d="M168.81,265.83c7.61-7.61,11.79-17.73,11.79-28.51,0-8.12-2.37-15.86-6.79-22.44l14.37,10.32c1.92,1.38,3.73,2.91,5.36,4.54,8.11,8.11,12.58,18.91,12.58,30.42,0,11.5-4.47,22.31-12.58,30.42-16.77,16.77-44.06,16.77-60.83,0-1.63-1.63-3.16-3.43-4.54-5.36l-10.33-14.38c6.58,4.42,14.33,6.8,22.45,6.8,10.78,0,20.91-4.19,28.51-11.79Z"/>
          <path class="cls-1" d="M198.91,216.77c-2.3,0-4.66-.2-7-.58l-17.48-2.87c18.51-3.65,32.52-20,32.52-39.56h0s34.98,0,34.98,0h0c0,23.72-19.3,43.02-43.01,43.02Z"/>
          <path class="cls-3" d="M166.62,204.08c-1.63,0-3.29-.14-4.93-.41l-15.34-2.52c11.52-3.78,19.87-14.63,19.87-27.4h0s30.73,0,30.73,0h0c0,16.72-13.6,30.33-30.33,30.33Z"/>
          <path class="cls-4" d="M156.22,173.76h0c0,10.39-8.45,18.83-18.83,18.83-1.01,0-2.04-.08-3.06-.25l-21.1-3.47,17.37,12.47c.85.61,1.64,1.28,2.35,1.99,3.55,3.55,5.5,8.28,5.5,13.32,0,5.04-1.96,9.77-5.5,13.32-7.34,7.34-19.29,7.34-26.64,0-.71-.71-1.38-1.5-1.99-2.35l-12.47-17.37,3.48,21.1c.17,1.02.25,2.05.25,3.06,0,10.38-8.45,18.83-18.83,18.83v-79.48h79.48Z"/>
          <path class="cls-3" d="M104.14,243.37l2.52,15.34c.27,1.65.41,3.31.41,4.93,0,16.72-13.6,30.33-30.33,30.33v-30.73c12.77,0,23.62-8.35,27.4-19.87Z"/>
          <path class="cls-1" d="M116.3,271.45l2.87,17.48c.38,2.34.58,4.69.58,7,0,23.72-19.3,43.01-43.02,43.01v-34.98c19.57,0,35.92-14.01,39.56-32.52Z"/>
          <path class="cls-2" d="M76.74,253.24v10c12.77,0,23.62-8.35,27.4-19.87l2.52,15.34c.27,1.65.41,3.31.41,4.93,0,16.72-13.6,30.33-30.33,30.33v10c19.57,0,35.92-14.01,39.56-32.52l2.87,17.48c.38,2.34.58,4.69.58,7,0,23.72-19.3,43.01-43.02,43.01v10c27.48,0,50.14-21.01,52.76-47.81,20.81,17.09,51.69,15.92,71.11-3.5,10-10,15.51-23.31,15.51-37.49,0-12.42-4.23-24.18-12-33.63,26.8-2.62,47.81-25.29,47.81-52.76h0s-10,0-10,0h0c0,23.72-19.3,43.02-43.01,43.02-2.3,0-4.66-.2-7-.58l-17.48-2.87c18.51-3.65,32.52-20,32.52-39.56h0s-10,0-10,0h0c0,16.72-13.6,30.33-30.33,30.33-1.63,0-3.29-.14-4.93-.41l-15.34-2.52c11.52-3.78,19.87-14.63,19.87-27.4h0s-10,0-10,0h0c0,10.39-8.45,18.83-18.83,18.83-1.01,0-2.04-.08-3.06-.25l-21.1-3.47,17.37,12.47c.85.61,1.64,1.28,2.35,1.99,3.55,3.55,5.5,8.28,5.5,13.32,0,5.04-1.96,9.77-5.5,13.32-7.34,7.34-19.29,7.34-26.64,0-.71-.71-1.38-1.5-1.99-2.35l-12.47-17.37,3.48,21.1c.17,1.02.25,2.05.25,3.06,0,10.38-8.45,18.83-18.83,18.83ZM117.84,270.82c6.58,4.42,14.33,6.8,22.45,6.8,10.78,0,20.91-4.19,28.51-11.79,7.61-7.61,11.79-17.73,11.79-28.51,0-8.12-2.37-15.86-6.79-22.44l14.37,10.32c1.92,1.38,3.73,2.91,5.36,4.54,8.11,8.11,12.58,18.91,12.58,30.42,0,11.5-4.47,22.31-12.58,30.42-16.77,16.77-44.06,16.77-60.83,0-1.63-1.63-3.16-3.43-4.54-5.36l-10.33-14.38ZM106.61,242.38c3.98,2.01,8.41,3.09,13.01,3.09,7.71,0,14.95-3,20.39-8.43,5.44-5.44,8.43-12.68,8.43-20.39,0-4.6-1.07-9.03-3.09-13.02l12.61,9.05c1.36.97,2.63,2.05,3.78,3.2,5.72,5.72,8.87,13.33,8.87,21.44,0,8.11-3.15,15.73-8.87,21.44-5.72,5.72-13.33,8.87-21.44,8.87s-15.73-3.15-21.44-8.87c-1.15-1.15-2.23-2.42-3.2-3.78l-9.04-12.6Z"/>
        </g>
      </g>
    </g>
  </g>
</svg>