<?xml version="1.0" encoding="UTF-8"?>
<svg xmlns="http://www.w3.org/2000/svg" viewBox="0 0 643.84 489.72">
  <defs>
    <style>
      .cls-1 {
        fill: #fff;
      }

      .cls-2 {
        fill: #5d8897;
      }

      .cls-3 {
        fill: #aacddf;
      }

      .cls-4 {
        fill: #ce6729;
      }

      .cls-5 {
        fill: #577f89;
      }

      .cls-6 {
        fill: #183460;
      }
    </style>
  </defs>
  <g id="_圖層_1" data-name="圖層 1">
    <path class="cls-6" d="M499.84,41.44H144c-45.85,0-83.15,2.52-83.15,49.87v19.33c0,39.76,26.13,22.1,63.09,31.53v328.77h395.95V142.18c36.95-9.44,63.09,8.23,63.09-31.53v-19.33c0-47.35-37.29-49.87-83.15-49.87Z"/>
  </g>
  <g id="_圖層_2" data-name="圖層 2">
    <rect class="cls-1" x="187.05" y="154.02" width="259.49" height="259.49"/>
    <g>
      <path class="cls-2" d="M372.12,345.64c2.5.7,4.52,1.85,6.58,3.21-8-13.27-24.62-19.82-38.79-24.08-6.54-1.97-13.57-3.14-20.24-1.05-6.39,2.01-12.06,6.56-14.77,12.76-5.27,12.06,1.38,26.93,14.9,29.03,11.74,1.82,20.89-8.24,29.67-14.3,4.34-3,9.09-5.53,14.39-6.18,2.79-.34,5.55-.15,8.25.61Z"/>
      <path class="cls-2" d="M381.69,345.86c-1.36-2.07-2.51-4.08-3.22-6.58-.76-2.7-.96-5.47-.63-8.25.64-5.3,3.16-10.06,6.15-14.4,6.05-8.78,16.09-17.96,14.25-29.69-2.12-13.52-17-20.15-29.05-14.86-6.2,2.72-10.74,8.4-12.74,14.79-2.08,6.67-.9,13.7,1.08,20.24,4.29,14.16,10.87,30.77,24.15,38.75Z"/>
      <path class="cls-3" d="M302.94,318.09c5.05.49,10.09-.5,15.12-.67,5.11-.17,10.23.42,15.22,1.49,9,1.93,17.54,5.43,25.97,9.08-8.74-8.89-18.76-16.51-29.8-22.32-8.99-4.73-21.08-10.74-31.38-6.71-4.62,1.8-8.95,6.33-6.91,11.62,1.82,4.69,7.06,7.07,11.77,7.52Z"/>
      <path class="cls-3" d="M360.8,326.44c-3.66-8.42-7.17-16.96-9.12-25.96-1.08-4.99-1.68-10.11-1.51-15.22.16-5.04,1.14-10.08.64-15.12-.46-4.71-2.85-9.94-7.54-11.75-5.29-2.04-9.81,2.3-11.6,6.93-4.01,10.31,2.02,22.38,6.77,31.37,5.83,11.03,13.47,21.04,22.37,29.76Z"/>
      <path class="cls-5" d="M332.68,303.31c4.16,2.88,8.35,5.77,12.47,8.78-3.02-4.12-5.92-8.3-8.8-12.46-7.87-11.33-16.83-23.78-28.51-32.21-3.72-2.69-9.59-5.66-11.71-4.26-1.39,2.12,1.58,7.98,4.28,11.7,8.45,11.66,20.91,20.61,32.26,28.45Z"/>
      <path class="cls-5" d="M440.05,404.79s.05-.04.07-.06c-3.05-3.06-6.09-6.13-9.09-9.22-13.95-14.39-27.65-27.77-42.14-42.82-1.34-1.4-4.26,1.07-2.9,2.54,7.71,8.38,15.79,16.43,23.79,24.52,9.17,9.28,18.34,18.57,27.51,27.85.48-.55.98-1.1,1.5-1.62.41-.41.83-.8,1.26-1.19Z"/>
      <path class="cls-4" d="M396.1,387.61c2.98-2.05,3.88-5.7,2.4-8.96-1.57-3.47-5.8-4.66-9.27-3.65-2.86.83-4.25,3.23-4.29,5.79-.26,2.23.66,4.63,2.33,6.15,2.43,2.21,6.09,2.54,8.83.67Z"/>
      <path class="cls-4" d="M416.31,365.86c1.05-.31,1.98-.85,2.74-1.55.96-.78,1.71-1.83,2.15-3.1.76-2.2.19-4.74-1.2-6.55-1.64-2.15-4.27-3.09-6.92-2.55-4.75.96-7.35,6.6-4.54,10.69,1.7,2.48,4.77,3.95,7.76,3.06Z"/>
    </g>
  </g>
</svg>