<?xml version="1.0" encoding="UTF-8"?>
<svg id="_圖層_1" data-name="圖層 1" xmlns="http://www.w3.org/2000/svg" viewBox="0 0 615.53 581.1">
  <defs>
    <style>
      .cls-1 {
        fill: #fff;
      }

      .cls-2 {
        fill: #bbbaba;
      }

      .cls-3 {
        fill: #5d8897;
      }

      .cls-4 {
        fill: #aacddf;
      }

      .cls-5 {
        fill: #ce6729;
      }

      .cls-6 {
        fill: #577f89;
      }

      .cls-7 {
        fill: #e8e8e8;
      }
    </style>
  </defs>
  <rect class="cls-7" x="-59.31" width="734.16" height="581.1"/>
  <g>
    <rect class="cls-1" x="47.54" y="28.97" width="510.24" height="510.24"/>
    <rect class="cls-2" x="557.58" y="28.97" width="13" height="523.96"/>
    <rect class="cls-2" x="300.53" y="286.95" width="13" height="518.97" transform="translate(853.46 239.4) rotate(90)"/>
  </g>
  <g>
    <g>
      <g>
        <path class="cls-3" d="M362.31,219.81c-.71,2.5-1.86,4.51-3.21,6.58,13.27-7.99,19.84-24.6,24.12-38.77,1.98-6.54,3.16-13.57,1.07-20.24-2-6.39-6.55-12.07-12.75-14.78-12.05-5.28-26.93,1.36-29.04,14.88-1.83,11.73,8.22,20.9,14.27,29.68,2.99,4.34,5.52,9.09,6.16,14.39.34,2.79.14,5.55-.62,8.25Z"/>
        <path class="cls-3" d="M362.09,229.38c2.07-1.36,4.08-2.51,6.58-3.21,2.7-.76,5.47-.96,8.25-.62,5.3.65,10.05,3.17,14.39,6.17,8.78,6.06,17.95,16.11,29.68,14.27,13.52-2.11,20.16-16.99,14.88-29.04-2.72-6.2-8.39-10.74-14.78-12.75-6.67-2.09-13.7-.91-20.24,1.07-14.16,4.28-30.77,10.84-38.77,24.12Z"/>
        <path class="cls-4" d="M389.92,150.65c-.49,5.05.49,10.09.66,15.12.17,5.11-.43,10.23-1.5,15.22-1.94,9-5.44,17.54-9.1,25.96,8.9-8.73,16.52-18.75,22.35-29.78,4.74-8.99,10.76-21.07,6.74-31.37-1.8-4.62-6.32-8.96-11.61-6.92-4.7,1.81-7.07,7.05-7.53,11.76Z"/>
        <path class="cls-4" d="M381.52,208.5c8.42-3.66,16.96-7.16,25.96-9.1,4.99-1.08,10.11-1.67,15.22-1.5,5.04.17,10.08,1.15,15.12.66,4.71-.46,9.94-2.84,11.76-7.53,2.04-5.29-2.29-9.81-6.92-11.61-10.3-4.02-22.38,2-31.37,6.74-11.03,5.82-21.05,13.45-29.78,22.35Z"/>
        <path class="cls-6" d="M404.67,180.41c-2.88,4.16-5.78,8.35-8.79,12.47,4.12-3.02,8.31-5.91,12.47-8.79,11.34-7.86,23.79-16.81,32.24-28.48,2.69-3.72,5.66-9.59,4.27-11.7-2.11-1.39-7.98,1.58-11.7,4.27-11.66,8.44-20.62,20.9-28.48,32.24Z"/>
        <path class="cls-6" d="M303.11,287.69s.04.05.06.07c3.06-3.05,6.13-6.09,9.23-9.08,14.4-13.94,27.79-27.63,42.85-42.1,1.4-1.34-1.07-4.26-2.54-2.9-8.38,7.71-16.44,15.78-24.54,23.77-9.29,9.16-18.58,18.32-27.87,27.49.55.48,1.1.98,1.62,1.5.41.41.8.83,1.19,1.26Z"/>
        <path class="cls-5" d="M320.32,243.75c2.04,2.98,5.7,3.88,8.96,2.41,3.47-1.57,4.67-5.8,3.66-9.26-.83-2.86-3.23-4.25-5.79-4.3-2.23-.26-4.63.66-6.15,2.33-2.21,2.43-2.55,6.09-.68,8.83Z"/>
        <path class="cls-5" d="M342.06,263.99c.31,1.05.85,1.98,1.55,2.75.78.96,1.83,1.71,3.1,2.15,2.2.76,4.74.19,6.55-1.19,2.15-1.64,3.09-4.27,2.55-6.92-.96-4.75-6.59-7.36-10.69-4.55-2.48,1.7-3.95,4.76-3.07,7.76Z"/>
      </g>
      <g>
        <path class="cls-3" d="M240.27,353.16c.71-2.5,1.86-4.51,3.21-6.58-13.27,7.99-19.84,24.6-24.12,38.77-1.98,6.54-3.16,13.57-1.07,20.24,2,6.39,6.55,12.07,12.75,14.78,12.05,5.28,26.93-1.36,29.04-14.88,1.83-11.73-8.22-20.9-14.27-29.68-2.99-4.34-5.52-9.09-6.16-14.39-.34-2.79-.14-5.55.62-8.25Z"/>
        <path class="cls-3" d="M240.5,343.59c-2.07,1.36-4.08,2.51-6.58,3.21-2.7.76-5.47.96-8.25.62-5.3-.65-10.05-3.17-14.39-6.17-8.78-6.06-17.95-16.11-29.68-14.27-13.52,2.11-20.16,16.99-14.88,29.04,2.72,6.2,8.39,10.74,14.78,12.75,6.67,2.09,13.7.91,20.24-1.07,14.16-4.28,30.77-10.84,38.77-24.12Z"/>
        <path class="cls-4" d="M212.66,422.32c.49-5.05-.49-10.09-.66-15.12-.17-5.11.43-10.23,1.5-15.22,1.94-9,5.44-17.54,9.1-25.96-8.9,8.73-16.52,18.75-22.35,29.78-4.74,8.99-10.76,21.07-6.74,31.37,1.8,4.62,6.32,8.96,11.61,6.92,4.7-1.81,7.07-7.05,7.53-11.76Z"/>
        <path class="cls-4" d="M221.06,364.47c-8.42,3.66-16.96,7.16-25.96,9.1-4.99,1.08-10.11,1.67-15.22,1.5-5.04-.17-10.08-1.15-15.12-.66-4.71.46-9.94,2.84-11.76,7.53-2.04,5.29,2.29,9.81,6.92,11.61,10.3,4.02,22.38-2,31.37-6.74,11.03-5.82,21.05-13.45,29.78-22.35Z"/>
        <path class="cls-6" d="M197.91,392.56c2.88-4.16,5.78-8.35,8.79-12.47-4.12,3.02-8.31,5.91-12.47,8.79-11.34,7.86-23.79,16.81-32.24,28.48-2.69,3.72-5.66,9.59-4.27,11.7,2.11,1.39,7.98-1.58,11.7-4.27,11.66-8.44,20.62-20.9,28.48-32.24Z"/>
        <path class="cls-6" d="M299.47,285.28s-.04-.05-.06-.07c-3.06,3.05-6.13,6.09-9.23,9.08-14.4,13.94-27.79,27.63-42.85,42.1-1.4,1.34,1.07,4.26,2.54,2.9,8.38-7.71,16.44-15.78,24.54-23.77,9.29-9.16,18.58-18.32,27.87-27.49-.55-.48-1.1-.98-1.62-1.5-.41-.41-.8-.83-1.19-1.26Z"/>
        <path class="cls-5" d="M282.26,329.22c-2.04-2.98-5.7-3.88-8.96-2.41-3.47,1.57-4.67,5.8-3.66,9.26.83,2.86,3.23,4.25,5.79,4.3,2.23.26,4.63-.66,6.15-2.33,2.21-2.43,2.55-6.09.68-8.83Z"/>
        <path class="cls-5" d="M260.52,308.98c-.31-1.05-.85-1.98-1.55-2.75-.78-.96-1.83-1.71-3.1-2.15-2.2-.76-4.74-.19-6.55,1.19-2.15,1.64-3.09,4.27-2.55,6.92.96,4.75,6.59,7.36,10.69,4.55,2.48-1.7,3.95-4.76,3.07-7.76Z"/>
      </g>
    </g>
    <g>
      <g>
        <path class="cls-3" d="M235.07,225.92c2.5.71,4.51,1.86,6.58,3.21-7.99-13.27-24.6-19.84-38.77-24.12-6.54-1.98-13.57-3.16-20.24-1.07-6.39,2-12.07,6.55-14.78,12.75-5.28,12.05,1.36,26.93,14.88,29.04,11.73,1.83,20.9-8.22,29.68-14.27,4.34-2.99,9.09-5.52,14.39-6.16,2.79-.34,5.55-.14,8.25.62Z"/>
        <path class="cls-3" d="M244.64,226.14c-1.36-2.07-2.51-4.08-3.21-6.58-.76-2.7-.96-5.47-.62-8.25.65-5.3,3.17-10.05,6.17-14.39,6.06-8.78,16.11-17.95,14.27-29.68-2.11-13.52-16.99-20.16-29.04-14.88-6.2,2.72-10.74,8.39-12.75,14.78-2.09,6.67-.91,13.7,1.07,20.24,4.28,14.16,10.84,30.77,24.12,38.77Z"/>
        <path class="cls-4" d="M165.91,198.31c5.05.49,10.09-.49,15.12-.66,5.11-.17,10.23.43,15.22,1.5,9,1.94,17.54,5.44,25.96,9.1-8.73-8.9-18.75-16.52-29.78-22.35-8.99-4.74-21.07-10.76-31.37-6.74-4.62,1.8-8.96,6.32-6.92,11.61,1.81,4.7,7.05,7.07,11.76,7.53Z"/>
        <path class="cls-4" d="M223.76,206.71c-3.66-8.42-7.16-16.96-9.1-25.96-1.08-4.99-1.67-10.11-1.5-15.22.17-5.04,1.15-10.08.66-15.12-.46-4.71-2.84-9.94-7.53-11.76-5.29-2.04-9.81,2.29-11.61,6.92-4.02,10.3,2,22.38,6.74,31.37,5.82,11.03,13.45,21.05,22.35,29.78Z"/>
        <path class="cls-6" d="M195.67,183.56c4.16,2.88,8.35,5.78,12.47,8.79-3.02-4.12-5.91-8.31-8.79-12.47-7.86-11.34-16.81-23.79-28.48-32.24-3.72-2.69-9.59-5.66-11.7-4.27-1.39,2.11,1.58,7.98,4.27,11.7,8.44,11.66,20.9,20.62,32.24,28.48Z"/>
        <path class="cls-6" d="M302.95,285.12s.05-.04.07-.06c-3.05-3.06-6.09-6.13-9.08-9.23-13.94-14.4-27.63-27.79-42.1-42.85-1.34-1.4-4.26,1.07-2.9,2.54,7.71,8.38,15.78,16.44,23.77,24.54,9.16,9.29,18.32,18.58,27.49,27.87.48-.55.98-1.1,1.5-1.62.41-.41.83-.8,1.26-1.19Z"/>
        <path class="cls-5" d="M259.01,267.91c2.98-2.04,3.88-5.7,2.41-8.96-1.57-3.47-5.8-4.67-9.26-3.66-2.86.83-4.25,3.23-4.3,5.79-.26,2.23.66,4.63,2.33,6.15,2.43,2.21,6.09,2.55,8.83.68Z"/>
        <path class="cls-5" d="M279.25,246.17c1.05-.31,1.98-.85,2.75-1.55.96-.78,1.71-1.83,2.15-3.1.76-2.2.19-4.74-1.19-6.55-1.64-2.15-4.27-3.09-6.92-2.55-4.75.96-7.36,6.59-4.55,10.69,1.7,2.48,4.76,3.95,7.76,3.07Z"/>
      </g>
      <g>
        <path class="cls-3" d="M368.41,347.96c-2.5-.71-4.51-1.86-6.58-3.21,7.99,13.27,24.6,19.84,38.77,24.12,6.54,1.98,13.57,3.16,20.24,1.07,6.39-2,12.07-6.55,14.78-12.75,5.28-12.05-1.36-26.93-14.88-29.04-11.73-1.83-20.9,8.22-29.68,14.27-4.34,2.99-9.09,5.52-14.39,6.16-2.79.34-5.55.14-8.25-.62Z"/>
        <path class="cls-3" d="M358.85,347.73c1.36,2.07,2.51,4.08,3.21,6.58.76,2.7.96,5.47.62,8.25-.65,5.3-3.17,10.05-6.17,14.39-6.06,8.78-16.11,17.95-14.27,29.68,2.11,13.52,16.99,20.16,29.04,14.88,6.2-2.72,10.74-8.39,12.75-14.78,2.09-6.67.91-13.7-1.07-20.24-4.28-14.16-10.84-30.77-24.12-38.77Z"/>
        <path class="cls-4" d="M437.57,375.57c-5.05-.49-10.09.49-15.12.66-5.11.17-10.23-.43-15.22-1.5-9-1.94-17.54-5.44-25.96-9.1,8.73,8.9,18.75,16.52,29.78,22.35,8.99,4.74,21.07,10.76,31.37,6.74,4.62-1.8,8.96-6.32,6.92-11.61-1.81-4.7-7.05-7.07-11.76-7.53Z"/>
        <path class="cls-4" d="M379.73,367.17c3.66,8.42,7.16,16.96,9.1,25.96,1.08,4.99,1.67,10.11,1.5,15.22-.17,5.04-1.15,10.08-.66,15.12.46,4.71,2.84,9.94,7.53,11.76,5.29,2.04,9.81-2.29,11.61-6.92,4.02-10.3-2-22.38-6.74-31.37-5.82-11.03-13.45-21.05-22.35-29.78Z"/>
        <path class="cls-6" d="M407.82,390.32c-4.16-2.88-8.35-5.78-12.47-8.79,3.02,4.12,5.91,8.31,8.79,12.47,7.86,11.34,16.81,23.79,28.48,32.24,3.72,2.69,9.59,5.66,11.7,4.27,1.39-2.11-1.58-7.98-4.27-11.7-8.44-11.66-20.9-20.62-32.24-28.48Z"/>
        <path class="cls-6" d="M300.54,288.76s-.05.04-.07.06c3.05,3.06,6.09,6.13,9.08,9.23,13.94,14.4,27.63,27.79,42.1,42.85,1.34,1.4,4.26-1.07,2.9-2.54-7.71-8.38-15.78-16.44-23.77-24.54-9.16-9.29-18.32-18.58-27.49-27.87-.48.55-.98,1.1-1.5,1.62-.41.41-.83.8-1.26,1.19Z"/>
        <path class="cls-5" d="M344.48,305.97c-2.98,2.04-3.88,5.7-2.41,8.96,1.57,3.47,5.8,4.67,9.26,3.66,2.86-.83,4.25-3.23,4.3-5.79.26-2.23-.66-4.63-2.33-6.15-2.43-2.21-6.09-2.55-8.83-.68Z"/>
        <path class="cls-5" d="M324.24,327.71c-1.05.31-1.98.85-2.75,1.55-.96.78-1.71,1.83-2.15,3.1-.76,2.2-.19,4.74,1.19,6.55,1.64,2.15,4.27,3.09,6.92,2.55,4.75-.96,7.36-6.59,4.55-10.69-1.7-2.48-4.76-3.95-7.76-3.07Z"/>
      </g>
    </g>
  </g>
</svg>