<?xml version="1.0" encoding="UTF-8"?>
<svg id="_圖層_1" data-name="圖層 1" xmlns="http://www.w3.org/2000/svg" viewBox="0 0 615.53 581.1">
  <defs>
    <style>
      .cls-1 {
        fill: #fff;
      }

      .cls-2 {
        fill: #bbbaba;
      }

      .cls-3 {
        fill: #5d8897;
      }

      .cls-4 {
        fill: #aacddf;
      }

      .cls-5 {
        fill: #f29119;
      }

      .cls-6 {
        fill: #e8e8e8;
      }
    </style>
  </defs>
  <rect class="cls-6" x="-53.02" y="0" width="734.16" height="581.1"/>
  <g>
    <rect class="cls-1" x="43.86" y="33.13" width="510.24" height="510.24"/>
    <rect class="cls-2" x="553.9" y="33.13" width="13" height="523.96"/>
    <rect class="cls-2" x="296.85" y="291.1" width="13" height="518.97" transform="translate(853.94 247.24) rotate(90)"/>
  </g>
  <g>
    <g>
      <path class="cls-4" d="M299.36,203.44c-7.69,0-14.93,3-20.38,8.45-3.25,3.25-5.63,7.15-7.02,11.39l-2.52-15.31c-.27-1.65-.41-3.31-.41-4.94,0-8.09,3.16-15.7,8.89-21.43,5.74-5.74,13.35-8.89,21.43-8.89,8.08,0,15.7,3.16,21.43,8.89,5.73,5.73,8.89,13.35,8.89,21.43,0,1.63-.14,3.29-.41,4.93l-2.52,15.31c-1.39-4.24-3.77-8.13-7.02-11.38-5.45-5.45-12.69-8.45-20.38-8.45Z"/>
      <path class="cls-1" d="M299.36,162.71c-10.76,0-20.88,4.2-28.5,11.82-5.74,5.74-9.54,12.9-11.07,20.67l-2.87-17.46c-.38-2.34-.58-4.69-.58-7,0-11.47,4.48-22.27,12.61-30.4,8.13-8.13,18.93-12.61,30.4-12.62,23.72,0,43.01,19.3,43.01,43.02,0,2.3-.2,4.66-.58,7l-2.87,17.47c-1.53-7.78-5.32-14.94-11.07-20.69-7.62-7.62-17.75-11.82-28.5-11.82Z"/>
      <path class="cls-1" d="M243.38,176.11c1.63,1.63,3.16,3.43,4.54,5.36l10.33,14.4c-15.67-10.51-37.14-8.86-50.97,4.98h0s-24.73-24.73-24.73-24.73h0c16.77-16.77,44.06-16.77,60.83,0Z"/>
      <path class="cls-4" d="M257.24,207.92c1.15,1.15,2.23,2.42,3.2,3.78l9.06,12.63c-10.82-5.47-24.39-3.71-33.42,5.32h0s-21.73-21.73-21.73-21.73h0c11.82-11.82,31.06-11.82,42.89,0Z"/>
      <path class="cls-5" d="M243.16,236.72h0c7.34-7.34,19.29-7.34,26.64,0,.71.71,1.38,1.5,1.99,2.35l12.46,17.37-3.46-21.1c-.17-1.03-.25-2.06-.25-3.07,0-5.02,1.96-9.75,5.53-13.31,3.56-3.56,8.29-5.52,13.31-5.52,10.38,0,18.83,8.45,18.84,18.84,0,1.01-.09,2.04-.25,3.07l-3.46,21.1,12.46-17.38c.6-.84,1.27-1.63,1.99-2.35,7.34-7.34,19.29-7.34,26.64,0l-56.2,56.2-56.2-56.2Z"/>
      <path class="cls-4" d="M329.21,224.32l9.06-12.63c.97-1.36,2.05-2.63,3.2-3.78,11.82-11.82,31.06-11.82,42.89,0l-21.73,21.73c-9.03-9.03-22.6-10.8-33.42-5.32Z"/>
      <path class="cls-1" d="M340.46,195.87l10.33-14.39c1.38-1.93,2.91-3.73,4.54-5.36,16.77-16.77,44.06-16.77,60.83,0l-24.73,24.73c-13.84-13.83-35.3-15.49-50.97-4.98Z"/>
      <path class="cls-3" d="M355.56,236.72l7.07-7.07c-9.03-9.03-22.6-10.8-33.42-5.32l9.06-12.63c.97-1.36,2.05-2.63,3.2-3.78,11.82-11.82,31.06-11.82,42.89,0l7.07-7.07c-13.84-13.83-35.3-15.49-50.97-4.98l10.33-14.39c1.38-1.93,2.91-3.73,4.54-5.36,16.77-16.77,44.06-16.77,60.83,0l7.07-7.07c-19.43-19.43-50.31-20.59-71.11-3.5-2.63-26.8-25.29-47.81-52.76-47.81-14.14,0-27.45,5.52-37.47,15.54-8.78,8.78-14.11,20.09-15.29,32.26-20.8-17.09-51.68-15.92-71.11,3.5h0s7.07,7.07,7.07,7.07h0c16.77-16.77,44.06-16.77,60.83,0,1.63,1.63,3.16,3.43,4.54,5.36l10.33,14.4c-15.67-10.51-37.14-8.86-50.97,4.98h0s7.07,7.07,7.07,7.07h0c11.82-11.82,31.06-11.82,42.89,0,1.15,1.15,2.23,2.42,3.2,3.78l9.06,12.63c-10.82-5.47-24.39-3.71-33.42,5.32h0s7.07,7.07,7.07,7.07h0c7.34-7.34,19.29-7.34,26.64,0,.71.71,1.38,1.5,1.99,2.35l12.46,17.37-3.46-21.1c-.17-1.03-.25-2.06-.25-3.07,0-5.02,1.96-9.75,5.53-13.31,3.56-3.56,8.29-5.52,13.31-5.52,10.38,0,18.83,8.45,18.84,18.84,0,1.01-.09,2.04-.25,3.07l-3.46,21.1,12.46-17.38c.6-.84,1.27-1.63,1.99-2.35,7.34-7.34,19.29-7.34,26.64,0ZM338.93,195.22c-1.53-7.78-5.32-14.94-11.07-20.69-7.62-7.62-17.75-11.82-28.5-11.82-10.76,0-20.88,4.2-28.5,11.82-5.74,5.74-9.54,12.9-11.07,20.67l-2.87-17.46c-.38-2.34-.58-4.69-.58-7,0-11.47,4.48-22.27,12.61-30.4,8.13-8.13,18.93-12.61,30.4-12.62,23.72,0,43.01,19.3,43.01,43.02,0,2.3-.2,4.66-.58,7l-2.87,17.47ZM326.75,223.27c-1.39-4.24-3.77-8.13-7.02-11.38-5.45-5.45-12.69-8.45-20.38-8.45-7.69,0-14.93,3-20.38,8.45-3.25,3.25-5.63,7.15-7.02,11.39l-2.52-15.31c-.27-1.65-.41-3.31-.41-4.94,0-8.09,3.16-15.7,8.89-21.43,5.74-5.74,13.35-8.89,21.43-8.89,8.08,0,15.7,3.16,21.43,8.89,5.73,5.73,8.89,13.35,8.89,21.43,0,1.63-.14,3.29-.41,4.93l-2.52,15.31Z"/>
    </g>
    <g>
      <path class="cls-4" d="M299.36,381.8c7.69,0,14.93-3,20.38-8.45,3.25-3.25,5.63-7.15,7.02-11.39l2.52,15.31c.27,1.65.41,3.31.41,4.94,0,8.09-3.16,15.7-8.89,21.43-5.74,5.74-13.35,8.89-21.43,8.89-8.08,0-15.7-3.16-21.43-8.89-5.73-5.73-8.89-13.35-8.89-21.43,0-1.63.14-3.29.41-4.93l2.52-15.31c1.39,4.24,3.77,8.13,7.02,11.38,5.45,5.45,12.69,8.45,20.38,8.45Z"/>
      <path class="cls-1" d="M299.36,422.53c10.76,0,20.88-4.2,28.5-11.82,5.74-5.74,9.54-12.9,11.07-20.67l2.87,17.46c.38,2.34.58,4.69.58,7,0,11.47-4.48,22.27-12.61,30.4-8.13,8.13-18.93,12.61-30.4,12.62-23.72,0-43.01-19.3-43.01-43.02,0-2.3.2-4.66.58-7l2.87-17.47c1.53,7.78,5.32,14.94,11.07,20.69,7.62,7.62,17.75,11.82,28.5,11.82Z"/>
      <path class="cls-1" d="M355.33,409.12c-1.63-1.63-3.16-3.43-4.54-5.36l-10.33-14.4c15.67,10.51,37.14,8.86,50.97-4.98h0s24.73,24.73,24.73,24.73h0c-16.77,16.77-44.06,16.77-60.83,0Z"/>
      <path class="cls-4" d="M341.47,377.32c-1.15-1.15-2.23-2.42-3.2-3.78l-9.06-12.63c10.82,5.47,24.39,3.71,33.42-5.32h0s21.73,21.73,21.73,21.73h0c-11.82,11.82-31.06,11.82-42.89,0Z"/>
      <path class="cls-5" d="M355.56,348.52h0c-7.34,7.34-19.29,7.34-26.64,0-.71-.71-1.38-1.5-1.99-2.35l-12.46-17.37,3.46,21.1c.17,1.03.25,2.06.25,3.07,0,5.02-1.96,9.75-5.53,13.31s-8.29,5.52-13.31,5.52c-10.38,0-18.83-8.45-18.84-18.84,0-1.01.09-2.04.25-3.07l3.46-21.1-12.46,17.38c-.6.84-1.27,1.63-1.99,2.35-7.34,7.34-19.29,7.34-26.64,0l56.2-56.2,56.2,56.2Z"/>
      <path class="cls-4" d="M269.5,360.91l-9.06,12.63c-.97,1.36-2.05,2.63-3.2,3.78-11.82,11.82-31.06,11.82-42.89,0l21.73-21.73c9.03,9.03,22.6,10.8,33.42,5.32Z"/>
      <path class="cls-1" d="M258.25,389.37l-10.33,14.39c-1.38,1.93-2.91,3.73-4.54,5.36-16.77,16.77-44.06,16.77-60.83,0l24.73-24.73c13.84,13.83,35.3,15.49,50.97,4.98Z"/>
      <path class="cls-3" d="M243.16,348.52l-7.07,7.07c9.03,9.03,22.6,10.8,33.42,5.32l-9.06,12.63c-.97,1.36-2.05,2.63-3.2,3.78-11.82,11.82-31.06,11.82-42.89,0l-7.07,7.07c13.84,13.83,35.3,15.49,50.97,4.98l-10.33,14.39c-1.38,1.93-2.91,3.73-4.54,5.36-16.77,16.77-44.06,16.77-60.83,0l-7.07,7.07c19.43,19.43,50.31,20.59,71.11,3.5,2.63,26.8,25.29,47.81,52.76,47.81,14.14,0,27.45-5.52,37.47-15.54,8.78-8.78,14.11-20.09,15.29-32.26,20.8,17.09,51.68,15.92,71.11-3.5h0s-7.07-7.07-7.07-7.07h0c-16.77,16.77-44.06,16.77-60.83,0-1.63-1.63-3.16-3.43-4.54-5.36l-10.33-14.4c15.67,10.51,37.14,8.86,50.97-4.98h0s-7.07-7.07-7.07-7.07h0c-11.82,11.82-31.06,11.82-42.89,0-1.15-1.15-2.23-2.42-3.2-3.78l-9.06-12.63c10.82,5.47,24.39,3.71,33.42-5.32h0s-7.07-7.07-7.07-7.07h0c-7.34,7.34-19.29,7.34-26.64,0-.71-.71-1.38-1.5-1.99-2.35l-12.46-17.37,3.46,21.1c.17,1.03.25,2.06.25,3.07,0,5.02-1.96,9.75-5.53,13.31s-8.29,5.52-13.31,5.52c-10.38,0-18.83-8.45-18.84-18.84,0-1.01.09-2.04.25-3.07l3.46-21.1-12.46,17.38c-.6.84-1.27,1.63-1.99,2.35-7.34,7.34-19.29,7.34-26.64,0ZM259.79,390.02c1.53,7.78,5.32,14.94,11.07,20.69,7.62,7.62,17.75,11.82,28.5,11.82,10.76,0,20.88-4.2,28.5-11.82,5.74-5.74,9.54-12.9,11.07-20.67l2.87,17.46c.38,2.34.58,4.69.58,7,0,11.47-4.48,22.27-12.61,30.4-8.13,8.13-18.93,12.61-30.4,12.62-23.72,0-43.01-19.3-43.01-43.02,0-2.3.2-4.66.58-7l2.87-17.47ZM271.96,361.96c1.39,4.24,3.77,8.13,7.02,11.38,5.45,5.45,12.69,8.45,20.38,8.45,7.69,0,14.93-3,20.38-8.45,3.25-3.25,5.63-7.15,7.02-11.39l2.52,15.31c.27,1.65.41,3.31.41,4.94,0,8.09-3.16,15.7-8.89,21.43-5.74,5.74-13.35,8.89-21.43,8.89-8.08,0-15.7-3.16-21.43-8.89-5.73-5.73-8.89-13.35-8.89-21.43,0-1.63.14-3.29.41-4.93l2.52-15.31Z"/>
    </g>
  </g>
  <g>
    <g>
      <path class="cls-4" d="M388.53,292.62c0-7.69-3-14.93-8.45-20.38-3.25-3.25-7.15-5.63-11.39-7.02l15.31-2.52c1.65-.27,3.31-.41,4.94-.41,8.09,0,15.7,3.16,21.43,8.89,5.74,5.74,8.89,13.35,8.89,21.43,0,8.08-3.16,15.7-8.89,21.43s-13.35,8.89-21.43,8.89c-1.63,0-3.29-.14-4.93-.41l-15.31-2.52c4.24-1.39,8.13-3.77,11.38-7.02,5.45-5.45,8.45-12.69,8.45-20.38Z"/>
      <path class="cls-1" d="M429.26,292.62c0-10.76-4.2-20.88-11.82-28.5-5.74-5.74-12.9-9.54-20.67-11.07l17.46-2.87c2.34-.38,4.69-.58,7-.58,11.47,0,22.27,4.48,30.4,12.61s12.61,18.93,12.62,30.4c0,23.72-19.3,43.01-43.02,43.01-2.3,0-4.66-.2-7-.58l-17.47-2.87c7.78-1.53,14.94-5.32,20.69-11.07,7.62-7.62,11.82-17.75,11.82-28.5Z"/>
      <path class="cls-1" d="M415.86,236.65c-1.63,1.63-3.43,3.16-5.36,4.54l-14.4,10.33c10.51-15.67,8.86-37.14-4.98-50.97h0s24.73-24.73,24.73-24.73h0c16.77,16.77,16.77,44.06,0,60.83Z"/>
      <path class="cls-4" d="M384.06,250.5c-1.15,1.15-2.42,2.23-3.78,3.2l-12.63,9.06c5.47-10.82,3.71-24.39-5.32-33.42h0s21.73-21.73,21.73-21.73h0c11.82,11.82,11.82,31.06,0,42.89Z"/>
      <path class="cls-5" d="M355.26,236.42h0c7.34,7.34,7.34,19.29,0,26.64-.71.71-1.5,1.38-2.35,1.99l-17.37,12.46,21.1-3.46c1.03-.17,2.06-.25,3.07-.25,5.02,0,9.75,1.96,13.31,5.53,3.56,3.56,5.52,8.29,5.52,13.31,0,10.38-8.45,18.83-18.84,18.84-1.01,0-2.04-.09-3.07-.25l-21.1-3.46,17.38,12.46c.84.6,1.63,1.27,2.35,1.99,7.34,7.34,7.34,19.29,0,26.64l-56.2-56.2,56.2-56.2Z"/>
      <path class="cls-4" d="M367.65,322.47l12.63,9.06c1.36.97,2.63,2.05,3.78,3.2,11.82,11.82,11.82,31.06,0,42.89l-21.73-21.73c9.03-9.03,10.8-22.6,5.32-33.42Z"/>
      <path class="cls-1" d="M396.11,333.72l14.39,10.33c1.93,1.38,3.73,2.91,5.36,4.54,16.77,16.77,16.77,44.06,0,60.83l-24.73-24.73c13.83-13.84,15.49-35.3,4.98-50.97Z"/>
      <path class="cls-3" d="M355.26,348.82l7.07,7.07c9.03-9.03,10.8-22.6,5.32-33.42l12.63,9.06c1.36.97,2.63,2.05,3.78,3.2,11.82,11.82,11.82,31.06,0,42.89l7.07,7.07c13.83-13.84,15.49-35.3,4.98-50.97l14.39,10.33c1.93,1.38,3.73,2.91,5.36,4.54,16.77,16.77,16.77,44.06,0,60.83l7.07,7.07c19.43-19.43,20.59-50.31,3.5-71.11,26.8-2.63,47.81-25.29,47.81-52.76,0-14.14-5.52-27.45-15.54-37.47-8.78-8.78-20.09-14.11-32.26-15.29,17.09-20.8,15.92-51.68-3.5-71.11h0s-7.07,7.07-7.07,7.07h0c16.77,16.77,16.77,44.06,0,60.83-1.63,1.63-3.43,3.16-5.36,4.54l-14.4,10.33c10.51-15.67,8.86-37.14-4.98-50.97h0s-7.07,7.07-7.07,7.07h0c11.82,11.82,11.82,31.06,0,42.89-1.15,1.15-2.42,2.23-3.78,3.2l-12.63,9.06c5.47-10.82,3.71-24.39-5.32-33.42h0s-7.07,7.07-7.07,7.07h0c7.34,7.34,7.34,19.29,0,26.64-.71.71-1.5,1.38-2.35,1.99l-17.37,12.46,21.1-3.46c1.03-.17,2.06-.25,3.07-.25,5.02,0,9.75,1.96,13.31,5.53,3.56,3.56,5.52,8.29,5.52,13.31,0,10.38-8.45,18.83-18.84,18.84-1.01,0-2.04-.09-3.07-.25l-21.1-3.46,17.38,12.46c.84.6,1.63,1.27,2.35,1.99,7.34,7.34,7.34,19.29,0,26.64ZM396.75,332.19c7.78-1.53,14.94-5.32,20.69-11.07,7.62-7.62,11.82-17.75,11.82-28.5,0-10.76-4.2-20.88-11.82-28.5-5.74-5.74-12.9-9.54-20.67-11.07l17.46-2.87c2.34-.38,4.69-.58,7-.58,11.47,0,22.27,4.48,30.4,12.61s12.61,18.93,12.62,30.4c0,23.72-19.3,43.01-43.02,43.01-2.3,0-4.66-.2-7-.58l-17.47-2.87ZM368.7,320.02c4.24-1.39,8.13-3.77,11.38-7.02,5.45-5.45,8.45-12.69,8.45-20.38,0-7.69-3-14.93-8.45-20.38-3.25-3.25-7.15-5.63-11.39-7.02l15.31-2.52c1.65-.27,3.31-.41,4.94-.41,8.09,0,15.7,3.16,21.43,8.89,5.74,5.74,8.89,13.35,8.89,21.43,0,8.08-3.16,15.7-8.89,21.43s-13.35,8.89-21.43,8.89c-1.63,0-3.29-.14-4.93-.41l-15.31-2.52Z"/>
    </g>
    <g>
      <path class="cls-4" d="M210.18,292.62c0,7.69,3,14.93,8.45,20.38,3.25,3.25,7.15,5.63,11.39,7.02l-15.31,2.52c-1.65.27-3.31.41-4.94.41-8.09,0-15.7-3.16-21.43-8.89-5.74-5.74-8.89-13.35-8.89-21.43,0-8.08,3.16-15.7,8.89-21.43,5.73-5.73,13.35-8.89,21.43-8.89,1.63,0,3.29.14,4.93.41l15.31,2.52c-4.24,1.39-8.13,3.77-11.38,7.02-5.45,5.45-8.45,12.69-8.45,20.38Z"/>
      <path class="cls-1" d="M169.45,292.62c0,10.76,4.2,20.88,11.82,28.5,5.74,5.74,12.9,9.54,20.67,11.07l-17.46,2.87c-2.34.38-4.69.58-7,.58-11.47,0-22.27-4.48-30.4-12.61s-12.61-18.93-12.62-30.4c0-23.72,19.3-43.01,43.02-43.01,2.3,0,4.66.2,7,.58l17.47,2.87c-7.78,1.53-14.94,5.32-20.69,11.07-7.62,7.62-11.82,17.75-11.82,28.5Z"/>
      <path class="cls-1" d="M182.85,348.59c1.63-1.63,3.43-3.16,5.36-4.54l14.4-10.33c-10.51,15.67-8.86,37.14,4.98,50.97h0s-24.73,24.73-24.73,24.73h0c-16.77-16.77-16.77-44.06,0-60.83Z"/>
      <path class="cls-4" d="M214.66,334.73c1.15-1.15,2.42-2.23,3.78-3.2l12.63-9.06c-5.47,10.82-3.71,24.39,5.32,33.42h0s-21.73,21.73-21.73,21.73h0c-11.82-11.82-11.82-31.06,0-42.89Z"/>
      <path class="cls-5" d="M243.46,348.82h0c-7.34-7.34-7.34-19.29,0-26.64.71-.71,1.5-1.38,2.35-1.99l17.37-12.46-21.1,3.46c-1.03.17-2.06.25-3.07.25-5.02,0-9.75-1.96-13.31-5.53-3.56-3.56-5.52-8.29-5.52-13.31,0-10.38,8.45-18.83,18.84-18.84,1.01,0,2.04.09,3.07.25l21.1,3.46-17.38-12.46c-.84-.6-1.63-1.27-2.35-1.99-7.34-7.34-7.34-19.29,0-26.64l56.2,56.2-56.2,56.2Z"/>
      <path class="cls-4" d="M231.06,262.77l-12.63-9.06c-1.36-.97-2.63-2.05-3.78-3.2-11.82-11.82-11.82-31.06,0-42.89l21.73,21.73c-9.03,9.03-10.8,22.6-5.32,33.42Z"/>
      <path class="cls-1" d="M202.6,251.52l-14.39-10.33c-1.93-1.38-3.73-2.91-5.36-4.54-16.77-16.77-16.77-44.06,0-60.83l24.73,24.73c-13.83,13.84-15.49,35.3-4.98,50.97Z"/>
      <path class="cls-3" d="M243.46,236.42l-7.07-7.07c-9.03,9.03-10.8,22.6-5.32,33.42l-12.63-9.06c-1.36-.97-2.63-2.05-3.78-3.2-11.82-11.82-11.82-31.06,0-42.89l-7.07-7.07c-13.83,13.84-15.49,35.3-4.98,50.97l-14.39-10.33c-1.93-1.38-3.73-2.91-5.36-4.54-16.77-16.77-16.77-44.06,0-60.83l-7.07-7.07c-19.43,19.43-20.59,50.31-3.5,71.11-26.8,2.63-47.81,25.29-47.81,52.76,0,14.14,5.52,27.45,15.54,37.47,8.78,8.78,20.09,14.11,32.26,15.29-17.09,20.8-15.92,51.68,3.5,71.11h0s7.07-7.07,7.07-7.07h0c-16.77-16.77-16.77-44.06,0-60.83,1.63-1.63,3.43-3.16,5.36-4.54l14.4-10.33c-10.51,15.67-8.86,37.14,4.98,50.97h0s7.07-7.07,7.07-7.07h0c-11.82-11.82-11.82-31.06,0-42.89,1.15-1.15,2.42-2.23,3.78-3.2l12.63-9.06c-5.47,10.82-3.71,24.39,5.32,33.42h0s7.07-7.07,7.07-7.07h0c-7.34-7.34-7.34-19.29,0-26.64.71-.71,1.5-1.38,2.35-1.99l17.37-12.46-21.1,3.46c-1.03.17-2.06.25-3.07.25-5.02,0-9.75-1.96-13.31-5.53-3.56-3.56-5.52-8.29-5.52-13.31,0-10.38,8.45-18.83,18.84-18.84,1.01,0,2.04.09,3.07.25l21.1,3.46-17.38-12.46c-.84-.6-1.63-1.27-2.35-1.99-7.34-7.34-7.34-19.29,0-26.64ZM201.96,253.05c-7.78,1.53-14.94,5.32-20.69,11.07-7.62,7.62-11.82,17.75-11.82,28.5,0,10.76,4.2,20.88,11.82,28.5,5.74,5.74,12.9,9.54,20.67,11.07l-17.46,2.87c-2.34.38-4.69.58-7,.58-11.47,0-22.27-4.48-30.4-12.61s-12.61-18.93-12.62-30.4c0-23.72,19.3-43.01,43.02-43.01,2.3,0,4.66.2,7,.58l17.47,2.87ZM230.01,265.22c-4.24,1.39-8.13,3.77-11.38,7.02-5.45,5.45-8.45,12.69-8.45,20.38,0,7.69,3,14.93,8.45,20.38,3.25,3.25,7.15,5.63,11.39,7.02l-15.31,2.52c-1.65.27-3.31.41-4.94.41-8.09,0-15.7-3.16-21.43-8.89-5.74-5.74-8.89-13.35-8.89-21.43,0-8.08,3.16-15.7,8.89-21.43,5.73-5.73,13.35-8.89,21.43-8.89,1.63,0,3.29.14,4.93.41l15.31,2.52Z"/>
    </g>
  </g>
</svg>