<?xml version="1.0" encoding="UTF-8"?>
<svg id="_圖層_1" data-name="圖層 1" xmlns="http://www.w3.org/2000/svg" viewBox="0 0 615.53 581.1">
  <defs>
    <style>
      .cls-1 {
        fill: #fff;
      }

      .cls-2 {
        fill: #bbbaba;
      }

      .cls-3 {
        fill: #ce6729;
      }

      .cls-4 {
        fill: #e8e8e8;
      }
    </style>
  </defs>
  <rect class="cls-4" x="-53.02" width="734.16" height="581.1"/>
  <g>
    <rect class="cls-1" x="43.86" y="33.13" width="510.24" height="510.24"/>
    <rect class="cls-2" x="553.9" y="33.13" width="13" height="523.96"/>
    <rect class="cls-2" x="296.85" y="291.1" width="13" height="518.97" transform="translate(853.94 247.24) rotate(90)"/>
  </g>
  <g>
    <path class="cls-3" d="M316.43,108.8c4.09-25.81-17.47-39.39-17.47-39.39-.4.25-21.55,13.58-17.46,39.39,0,0-25.74-11.44-28.91,12.07,0,0,43.42-2.8,46.28,36.28h.36c2.86-39.08,46.11-36.28,46.11-36.28-3.18-23.51-28.91-12.07-28.91-12.07Z"/>
    <path class="cls-3" d="M115.92,274.42c-25.81-4.09-39.39,17.47-39.39,17.47.25.4,13.58,21.55,39.39,17.46,0,0-11.44,25.74,12.07,28.91,0,0-2.8-43.42,36.28-46.28v-.36c-39.08-2.86-36.28-46.11-36.28-46.11-23.51,3.18-12.07,28.91-12.07,28.91Z"/>
    <path class="cls-3" d="M281.54,474.92c-4.09,25.81,17.47,39.39,17.47,39.39.4-.25,21.55-13.58,17.46-39.39,0,0,25.74,11.44,28.91-12.07,0,0-43.42,2.8-46.28-36.28h-.36c-2.86,39.08-46.11,36.28-46.11,36.28,3.18,23.51,28.91,12.07,28.91,12.07Z"/>
    <path class="cls-3" d="M482.05,309.31c25.81,4.09,39.39-17.47,39.39-17.47-.25-.4-13.58-21.55-39.39-17.46,0,0,11.44-25.74-12.07-28.91,0,0,2.8,43.42-36.28,46.28v.36c39.08,2.86,36.28,46.11,36.28,46.11,23.51-3.18,12.07-28.91,12.07-28.91Z"/>
  </g>
</svg>