<?xml version="1.0" encoding="UTF-8"?>
<svg xmlns="http://www.w3.org/2000/svg" viewBox="0 0 643.84 489.72">
  <defs>
    <style>
      .cls-1 {
        fill: #fff;
      }

      .cls-2 {
        fill: #5d8897;
      }

      .cls-3 {
        fill: #aacddf;
      }

      .cls-4 {
        fill: #ce6729;
      }

      .cls-5 {
        fill: #577f89;
      }

      .cls-6 {
        fill: #f29119;
      }
    </style>
  </defs>
  <g id="_圖層_1" data-name="圖層 1">
    <path class="cls-6" d="M154.43,41.44h326.68c66.6,0,120.66,54.07,120.66,120.66v308.84H33.76V162.11c0-66.6,54.07-120.66,120.66-120.66Z"/>
  </g>
  <g id="_圖層_2" data-name="圖層 2">
    <polygon class="cls-1" points="317.58 441.15 574.66 184.12 60.5 184.12 317.58 441.15"/>
    <g>
      <path class="cls-2" d="M312.1,346.59c1.27,2.27,1.88,4.5,2.38,6.92,3.73-15.04-3.37-31.42-10.36-44.47-3.23-6.02-7.36-11.83-13.56-15.06-5.94-3.1-13.16-3.9-19.47-1.44-12.26,4.79-18.08,20-10.01,31.06,7,9.59,20.59,8.97,31.08,10.89,5.18.95,10.33,2.53,14.54,5.82,2.21,1.73,4.03,3.83,5.4,6.27Z"/>
      <path class="cls-2" d="M318.71,353.52c.5-2.42,1.11-4.65,2.38-6.92,1.37-2.45,3.19-4.54,5.4-6.28,4.21-3.29,9.35-4.87,14.54-5.82,10.49-1.93,24.08-1.3,31.08-10.89,8.07-11.05,2.25-26.27-10.01-31.06-6.3-2.46-13.53-1.67-19.47,1.44-6.19,3.24-10.33,9.04-13.56,15.06-6.99,13.04-14.09,29.43-10.36,44.47Z"/>
      <path class="cls-3" d="M282.73,278.16c3.22,3.92,7.48,6.79,11.16,10.23,3.73,3.49,6.93,7.53,9.7,11.82,4.99,7.73,8.55,16.25,11.92,24.79.12-12.46-1.57-24.94-5.26-36.86-3-9.71-7.29-22.5-17.42-26.95-4.54-1.99-10.81-1.86-13.1,3.32-2.04,4.6-.01,9.99,2.99,13.64Z"/>
      <path class="cls-3" d="M317.69,325.01c3.37-8.54,6.93-17.06,11.92-24.79,2.77-4.29,5.97-8.33,9.7-11.82,3.68-3.44,7.94-6.31,11.16-10.23,3-3.65,5.02-9.04,2.99-13.64-2.29-5.18-8.56-5.31-13.1-3.32-10.13,4.45-14.42,17.24-17.42,26.95-3.69,11.92-5.38,24.4-5.26,36.86Z"/>
      <path class="cls-5" d="M314.19,288.77c.9,4.98,1.82,9.99,2.6,15.03.78-5.05,1.69-10.06,2.6-15.03,2.46-13.57,4.93-28.71,2.66-42.93-.73-4.53-2.77-10.78-5.25-11.29-2.48.51-4.53,6.76-5.25,11.29-2.28,14.22.19,29.36,2.66,42.93Z"/>
      <path class="cls-5" d="M318.24,436.45s.06,0,.09,0c0-4.32.03-8.64.1-12.95.33-20.04.12-39.19.53-60.07.04-1.94-3.76-2.26-3.85-.25-.48,11.38-.47,22.78-.55,34.16-.09,13.05-.18,26.1-.27,39.14.73-.05,1.47-.09,2.21-.09.58,0,1.16.02,1.73.05Z"/>
      <path class="cls-4" d="M299.34,393.21c3.55.67,6.77-1.28,8.04-4.63,1.35-3.56-.8-7.4-3.96-9.14-2.61-1.44-5.29-.72-7.13,1.06-1.76,1.39-2.81,3.74-2.7,5.99.16,3.28,2.5,6.11,5.76,6.72Z"/>
      <path class="cls-4" d="M329.02,392.14c.96.52,2,.8,3.04.85,1.23.13,2.5-.08,3.72-.67,2.09-1.02,3.49-3.21,3.79-5.47.36-2.68-.83-5.2-3.09-6.7-4.04-2.68-9.86-.54-10.77,4.34-.55,2.96.57,6.16,3.32,7.66Z"/>
    </g>
  </g>
</svg>