<?xml version="1.0" encoding="UTF-8"?>
<svg xmlns="http://www.w3.org/2000/svg" xmlns:xlink="http://www.w3.org/1999/xlink" viewBox="0 0 661.78 489.72">
  <defs>
    <style>
      .cls-1 {
        fill: #ce6729;
      }

      .cls-2 {
        fill: #fff;
      }

      .cls-3 {
        fill: none;
      }

      .cls-4 {
        fill: #183460;
      }

      .cls-5 {
        clip-path: url(#clippath);
      }
    </style>
    <clipPath id="clippath">
      <rect class="cls-3" x="196.02" y="142.68" width="259.49" height="259.49"/>
    </clipPath>
  </defs>
  <g id="_喇뒨쏛_2" data-name=" 喇뒨쏛 2">
    <g>
      <path class="cls-4" d="M508.81,30.11H152.97c-45.85,0-83.15,2.52-83.15,49.87v19.33c0,39.76,26.13,22.1,63.09,31.53v328.77h395.95V130.84c36.95-9.44,63.09,8.23,63.09-31.53v-19.33c0-47.35-37.29-49.87-83.15-49.87h0Z"/>
      <rect class="cls-2" x="196.02" y="142.68" width="259.49" height="259.49"/>
    </g>
  </g>
  <g id="_喇뒨쏛_2-2" data-name="喇뒨쏛 2">
    <g class="cls-5">
      <g>
        <path class="cls-1" d="M473.53,219.14c4.09-25.81-17.47-39.39-17.47-39.39-.4.25-21.55,13.58-17.46,39.39,0,0-25.74-11.44-28.91,12.07,0,0,43.42-2.8,46.28,36.28h.36c2.86-39.08,46.11-36.28,46.11-36.28-3.18-23.51-28.91-12.07-28.91-12.07h0Z"/>
        <path class="cls-1" d="M273.02,384.76c-25.81-4.09-39.39,17.47-39.39,17.47.25.4,13.58,21.55,39.39,17.46,0,0-11.44,25.74,12.07,28.91,0,0-2.8-43.42,36.28-46.28v-.36c-39.08-2.86-36.28-46.11-36.28-46.11-23.51,3.18-12.07,28.91-12.07,28.91Z"/>
        <path class="cls-1" d="M639.15,419.64c25.81,4.09,39.39-17.47,39.39-17.47-.25-.4-13.58-21.55-39.39-17.46,0,0,11.44-25.74-12.07-28.91,0,0,2.8,43.42-36.28,46.28v.36c39.08,2.86,36.28,46.11,36.28,46.11,23.51-3.18,12.07-28.91,12.07-28.91h0Z"/>
      </g>
    </g>
  </g>
</svg>