<?xml version="1.0" encoding="UTF-8"?>
<svg id="_圖層_2" data-name="圖層 2" xmlns="http://www.w3.org/2000/svg" viewBox="0 0 661.78 489.72">
  <defs>
    <style>
      .cls-1 {
        fill: #fff;
      }

      .cls-2 {
        fill: #5d8897;
      }

      .cls-3 {
        fill: #aacddf;
      }

      .cls-4 {
        fill: #f29119;
      }

      .cls-5 {
        fill: #183460;
      }
    </style>
  </defs>
  <g>
    <path class="cls-5" d="M508.81,30.11H152.97c-45.85,0-83.15,2.52-83.15,49.87v19.33c0,39.76,26.13,22.1,63.09,31.53v328.77h395.95V130.84c36.95-9.44,63.09,8.23,63.09-31.53v-19.33c0-47.35-37.29-49.87-83.15-49.87Z"/>
    <rect class="cls-1" x="196.02" y="142.68" width="259.49" height="259.49"/>
  </g>
  <g>
    <path class="cls-3" d="M263.03,211.95c5.44-5.44,8.43-12.68,8.43-20.39,0-4.6-1.07-9.03-3.09-13.02l12.61,9.05c1.36.97,2.63,2.05,3.78,3.2,5.72,5.72,8.87,13.33,8.87,21.44s-3.15,15.73-8.87,21.44c-5.72,5.72-13.33,8.87-21.44,8.87s-15.73-3.15-21.44-8.87c-1.15-1.15-2.23-2.42-3.2-3.78l-9.04-12.6c3.98,2.01,8.41,3.09,13.01,3.09,7.71,0,14.95-3,20.39-8.43Z"/>
    <path class="cls-1" d="M291.83,240.75c7.61-7.61,11.79-17.73,11.79-28.51,0-8.12-2.37-15.86-6.79-22.44l14.37,10.32c1.92,1.38,3.73,2.91,5.36,4.54,8.11,8.11,12.58,18.91,12.58,30.42,0,11.5-4.47,22.31-12.58,30.42-16.77,16.77-44.06,16.77-60.83,0-1.63-1.63-3.16-3.43-4.54-5.36l-10.33-14.38c6.58,4.42,14.33,6.8,22.45,6.8,10.78,0,20.91-4.19,28.51-11.79Z"/>
    <path class="cls-1" d="M321.93,191.7c-2.3,0-4.66-.2-7-.58l-17.48-2.87c18.51-3.65,32.52-20,32.52-39.56h0s34.98,0,34.98,0h0c0,23.72-19.3,43.02-43.01,43.02Z"/>
    <path class="cls-3" d="M289.64,179.01c-1.63,0-3.29-.14-4.93-.41l-15.34-2.52c11.52-3.78,19.87-14.63,19.87-27.4h0s30.73,0,30.73,0h0c0,16.72-13.6,30.33-30.33,30.33Z"/>
    <path class="cls-4" d="M279.24,148.68h0c0,10.39-8.45,18.83-18.83,18.83-1.01,0-2.04-.08-3.06-.25l-21.1-3.47,17.37,12.47c.85.61,1.64,1.28,2.35,1.99,3.55,3.55,5.5,8.28,5.5,13.32,0,5.04-1.96,9.77-5.5,13.32-7.34,7.34-19.29,7.34-26.64,0-.71-.71-1.38-1.5-1.99-2.35l-12.47-17.37,3.48,21.1c.17,1.02.25,2.05.25,3.06,0,10.38-8.45,18.83-18.83,18.83v-79.48h79.48Z"/>
    <path class="cls-3" d="M227.16,218.29l2.52,15.34c.27,1.65.41,3.31.41,4.93,0,16.72-13.6,30.33-30.33,30.33v-30.73c12.77,0,23.62-8.35,27.4-19.87Z"/>
    <path class="cls-1" d="M239.32,246.37l2.87,17.48c.38,2.34.58,4.69.58,7,0,23.72-19.3,43.01-43.02,43.01v-34.98c19.57,0,35.92-14.01,39.56-32.52Z"/>
    <path class="cls-2" d="M199.76,228.16v10c12.77,0,23.62-8.35,27.4-19.87l2.52,15.34c.27,1.65.41,3.31.41,4.93,0,16.72-13.6,30.33-30.33,30.33v10c19.57,0,35.92-14.01,39.56-32.52l2.87,17.48c.38,2.34.58,4.69.58,7,0,23.72-19.3,43.01-43.02,43.01v10c27.48,0,50.14-21.01,52.76-47.81,20.81,17.09,51.69,15.92,71.11-3.5,10-10,15.51-23.31,15.51-37.49,0-12.42-4.23-24.18-12-33.63,26.8-2.62,47.81-25.29,47.81-52.76h0s-10,0-10,0h0c0,23.72-19.3,43.02-43.01,43.02-2.3,0-4.66-.2-7-.58l-17.48-2.87c18.51-3.65,32.52-20,32.52-39.56h0s-10,0-10,0h0c0,16.72-13.6,30.33-30.33,30.33-1.63,0-3.29-.14-4.93-.41l-15.34-2.52c11.52-3.78,19.87-14.63,19.87-27.4h0s-10,0-10,0h0c0,10.39-8.45,18.83-18.83,18.83-1.01,0-2.04-.08-3.06-.25l-21.1-3.47,17.37,12.47c.85.61,1.64,1.28,2.35,1.99,3.55,3.55,5.5,8.28,5.5,13.32,0,5.04-1.96,9.77-5.5,13.32-7.34,7.34-19.29,7.34-26.64,0-.71-.71-1.38-1.5-1.99-2.35l-12.47-17.37,3.48,21.1c.17,1.02.25,2.05.25,3.06,0,10.38-8.45,18.83-18.83,18.83ZM240.86,245.75c6.58,4.42,14.33,6.8,22.45,6.8,10.78,0,20.91-4.19,28.51-11.79,7.61-7.61,11.79-17.73,11.79-28.51,0-8.12-2.37-15.86-6.79-22.44l14.37,10.32c1.92,1.38,3.73,2.91,5.36,4.54,8.11,8.11,12.58,18.91,12.58,30.42,0,11.5-4.47,22.31-12.58,30.42-16.77,16.77-44.06,16.77-60.83,0-1.63-1.63-3.16-3.43-4.54-5.36l-10.33-14.38ZM229.63,217.3c3.98,2.01,8.41,3.09,13.01,3.09,7.71,0,14.95-3,20.39-8.43,5.44-5.44,8.43-12.68,8.43-20.39,0-4.6-1.07-9.03-3.09-13.02l12.61,9.05c1.36.97,2.63,2.05,3.78,3.2,5.72,5.72,8.87,13.33,8.87,21.44s-3.15,15.73-8.87,21.44c-5.72,5.72-13.33,8.87-21.44,8.87s-15.73-3.15-21.44-8.87c-1.15-1.15-2.23-2.42-3.2-3.78l-9.04-12.6Z"/>
  </g>
</svg>