<?xml version="1.0" encoding="UTF-8"?>
<svg id="_圖層_1" data-name="圖層 1" xmlns="http://www.w3.org/2000/svg" viewBox="0 0 1479.68 581.1">
  <defs>
    <style>
      .cls-1 {
        fill: #fff;
      }

      .cls-2 {
        fill: #bbbaba;
      }

      .cls-3 {
        fill: #f6b491;
      }

      .cls-4 {
        fill: #5d8897;
      }

      .cls-5 {
        fill: #aacddf;
      }

      .cls-6 {
        fill: #231815;
      }

      .cls-7 {
        fill: none;
        stroke: #231815;
        stroke-linecap: round;
        stroke-linejoin: round;
        stroke-width: 16px;
      }

      .cls-8 {
        fill: #f29119;
      }

      .cls-9 {
        fill: #e8e8e8;
      }
    </style>
  </defs>
  <rect class="cls-9" x="-53.02" y="0" width="1646.06" height="638.3"/>
  <g>
    <g>
      <rect class="cls-1" x="43.86" y="28.57" width="510.24" height="510.24"/>
      <rect class="cls-2" x="553.9" y="28.57" width="13" height="523.96"/>
      <rect class="cls-2" x="296.85" y="286.55" width="13" height="518.97" transform="translate(849.38 242.68) rotate(90)"/>
    </g>
    <g>
      <g>
        <g>
          <path class="cls-5" d="M487.79,95.46c-5.44-5.44-8.43-12.68-8.43-20.39,0-4.6,1.07-9.03,3.09-13.02l-12.61,9.05c-1.36.97-2.63,2.05-3.78,3.2-5.72,5.72-8.87,13.33-8.87,21.44s3.15,15.73,8.87,21.44c5.72,5.72,13.33,8.87,21.44,8.87s15.73-3.15,21.44-8.87c1.15-1.15,2.23-2.42,3.2-3.78l9.04-12.6c-3.98,2.01-8.41,3.09-13.01,3.09-7.71,0-14.95-3-20.39-8.43Z"/>
          <path class="cls-1" d="M458.99,124.26c-7.61-7.61-11.79-17.73-11.79-28.51,0-8.12,2.38-15.86,6.79-22.44l-14.37,10.32c-1.92,1.38-3.73,2.91-5.36,4.54-8.11,8.11-12.58,18.91-12.58,30.42s4.47,22.31,12.58,30.42c16.77,16.77,44.06,16.77,60.83,0,1.63-1.63,3.16-3.43,4.54-5.36l10.33-14.38c-6.58,4.42-14.33,6.8-22.45,6.8-10.78,0-20.91-4.19-28.51-11.79Z"/>
          <path class="cls-1" d="M428.89,75.2c2.3,0,4.66-.2,7-.58l17.48-2.87c-18.51-3.65-32.52-20-32.52-39.56h0s-34.98,0-34.98,0h0c0,23.72,19.3,43.02,43.01,43.02Z"/>
          <path class="cls-5" d="M461.18,62.51c1.63,0,3.29-.14,4.93-.41l15.34-2.52c-11.52-3.78-19.87-14.63-19.87-27.4h0s-30.73,0-30.73,0h0c0,16.72,13.6,30.33,30.33,30.33Z"/>
          <path class="cls-8" d="M471.58,32.19h0c0,10.39,8.45,18.83,18.83,18.83,1.01,0,2.04-.08,3.06-.25l21.1-3.47-17.37,12.47c-.85.61-1.64,1.28-2.35,1.99-3.55,3.55-5.5,8.28-5.5,13.32s1.96,9.77,5.5,13.32c7.34,7.34,19.29,7.34,26.64,0,.71-.71,1.38-1.5,1.99-2.35l12.47-17.37-3.48,21.1c-.17,1.02-.25,2.05-.25,3.06,0,10.38,8.45,18.83,18.83,18.83V32.19h-79.48Z"/>
          <path class="cls-5" d="M523.66,101.8l-2.52,15.34c-.27,1.65-.41,3.31-.41,4.93,0,16.72,13.6,30.33,30.33,30.33v-30.73c-12.77,0-23.62-8.35-27.4-19.87Z"/>
          <path class="cls-1" d="M511.5,129.88l-2.87,17.48c-.38,2.34-.58,4.69-.58,7,0,23.72,19.3,43.01,43.02,43.01v-34.98c-19.57,0-35.92-14.01-39.56-32.52Z"/>
          <path class="cls-4" d="M532.22,92.83c0-1.01.08-2.04.25-3.06l3.48-21.1-12.47,17.37c-.61.84-1.28,1.63-1.99,2.35-7.34,7.34-19.29,7.34-26.64,0-3.55-3.55-5.5-8.28-5.5-13.32s1.96-9.77,5.5-13.32c.71-.71,1.5-1.38,2.35-1.99l17.37-12.47-21.1,3.47c-1.02.17-2.05.25-3.06.25-10.38,0-18.83-8.45-18.83-18.83h0s-10,0-10,0h0c0,12.77,8.35,23.62,19.87,27.4l-15.34,2.52c-1.65.27-3.31.41-4.93.41-16.72,0-30.33-13.6-30.33-30.33h0s-10,0-10,0h0c0,19.57,14.01,35.92,32.52,39.56l-17.48,2.87c-2.34.38-4.69.58-7,.58-23.72,0-43.01-19.3-43.01-43.01h0s-10,0-10,0h0c0,27.48,21.01,50.14,47.81,52.76-7.77,9.45-12,21.21-12,33.63,0,14.18,5.51,27.49,15.51,37.49,19.43,19.43,50.31,20.6,71.11,3.5,2.62,26.8,25.29,47.81,52.76,47.81v-10c-23.72,0-43.02-19.3-43.02-43.01,0-2.3.2-4.66.58-7l2.87-17.48c3.65,18.51,20,32.52,39.56,32.52v-10c-16.72,0-30.33-13.6-30.33-30.33,0-1.63.14-3.29.41-4.93l2.52-15.34c3.78,11.52,14.63,19.87,27.4,19.87v-10c-10.39,0-18.83-8.45-18.83-18.83ZM499.63,143.63c-1.38,1.92-2.91,3.73-4.54,5.36-16.77,16.77-44.06,16.77-60.83,0-8.11-8.11-12.58-18.91-12.58-30.42s4.47-22.31,12.58-30.42c1.63-1.63,3.44-3.16,5.36-4.54l14.37-10.32c-4.42,6.58-6.79,14.33-6.79,22.44,0,10.78,4.19,20.91,11.79,28.51,7.61,7.61,17.73,11.79,28.51,11.79,8.12,0,15.87-2.38,22.45-6.8l-10.33,14.38ZM512.15,113.41c-.97,1.35-2.05,2.62-3.2,3.78-5.72,5.72-13.33,8.87-21.44,8.87s-15.73-3.15-21.44-8.87c-5.72-5.72-8.87-13.33-8.87-21.44s3.15-15.73,8.87-21.44c1.15-1.15,2.42-2.23,3.78-3.2l12.61-9.05c-2.02,3.98-3.09,8.42-3.09,13.02,0,7.71,3,14.95,8.43,20.39,5.44,5.44,12.68,8.43,20.39,8.43,4.6,0,9.03-1.07,13.01-3.09l-9.04,12.6Z"/>
        </g>
        <g>
          <path class="cls-5" d="M110.18,95.46c5.44-5.44,8.43-12.68,8.43-20.39,0-4.6-1.07-9.03-3.09-13.02l12.61,9.05c1.36.97,2.63,2.05,3.78,3.2,5.72,5.72,8.87,13.33,8.87,21.44,0,8.11-3.15,15.73-8.87,21.44-5.72,5.72-13.33,8.87-21.44,8.87s-15.73-3.15-21.44-8.87c-1.15-1.15-2.23-2.42-3.2-3.78l-9.04-12.6c3.98,2.01,8.41,3.09,13.01,3.09,7.71,0,14.95-3,20.39-8.43Z"/>
          <path class="cls-1" d="M138.98,124.26c7.61-7.61,11.79-17.73,11.79-28.51,0-8.12-2.37-15.86-6.79-22.44l14.37,10.32c1.92,1.38,3.73,2.91,5.36,4.54,8.11,8.11,12.58,18.91,12.58,30.42,0,11.5-4.47,22.31-12.58,30.42-16.77,16.77-44.06,16.77-60.83,0-1.63-1.63-3.16-3.43-4.54-5.36l-10.33-14.38c6.58,4.42,14.33,6.8,22.45,6.8,10.78,0,20.91-4.19,28.51-11.79Z"/>
          <path class="cls-1" d="M169.08,75.2c-2.3,0-4.66-.2-7-.58l-17.48-2.87c18.51-3.65,32.52-20,32.52-39.56h0s34.98,0,34.98,0h0c0,23.72-19.3,43.02-43.01,43.02Z"/>
          <path class="cls-5" d="M136.79,62.51c-1.63,0-3.29-.14-4.93-.41l-15.34-2.52c11.52-3.78,19.87-14.63,19.87-27.4h0s30.73,0,30.73,0h0c0,16.72-13.6,30.33-30.33,30.33Z"/>
          <path class="cls-8" d="M126.39,32.19h0c0,10.39-8.45,18.83-18.83,18.83-1.01,0-2.04-.08-3.06-.25l-21.1-3.47,17.37,12.47c.85.61,1.64,1.28,2.35,1.99,3.55,3.55,5.5,8.28,5.5,13.32s-1.96,9.77-5.5,13.32c-7.34,7.34-19.29,7.34-26.64,0-.71-.71-1.38-1.5-1.99-2.35l-12.47-17.37,3.48,21.1c.17,1.02.25,2.05.25,3.06,0,10.38-8.45,18.83-18.83,18.83V32.19h79.48Z"/>
          <path class="cls-5" d="M74.3,101.8l2.52,15.34c.27,1.65.41,3.31.41,4.93,0,16.72-13.6,30.33-30.33,30.33v-30.73c12.77,0,23.62-8.35,27.4-19.87Z"/>
          <path class="cls-1" d="M86.47,129.88l2.87,17.48c.38,2.34.58,4.69.58,7,0,23.72-19.3,43.01-43.02,43.01v-34.98c19.57,0,35.92-14.01,39.56-32.52Z"/>
          <path class="cls-4" d="M46.91,111.67v10c12.77,0,23.62-8.35,27.4-19.87l2.52,15.34c.27,1.65.41,3.31.41,4.93,0,16.72-13.6,30.33-30.33,30.33v10c19.57,0,35.92-14.01,39.56-32.52l2.87,17.48c.38,2.34.58,4.69.58,7,0,23.72-19.3,43.01-43.02,43.01v10c27.48,0,50.14-21.01,52.76-47.81,20.81,17.09,51.69,15.92,71.11-3.5,10-10,15.51-23.31,15.51-37.49,0-12.42-4.23-24.18-12-33.63,26.8-2.62,47.81-25.29,47.81-52.76h0s-10,0-10,0h0c0,23.72-19.3,43.02-43.01,43.02-2.3,0-4.66-.2-7-.58l-17.48-2.87c18.51-3.65,32.52-20,32.52-39.56h0s-10,0-10,0h0c0,16.72-13.6,30.33-30.33,30.33-1.63,0-3.29-.14-4.93-.41l-15.34-2.52c11.52-3.78,19.87-14.63,19.87-27.4h0s-10,0-10,0h0c0,10.39-8.45,18.83-18.83,18.83-1.01,0-2.04-.08-3.06-.25l-21.1-3.47,17.37,12.47c.85.61,1.64,1.28,2.35,1.99,3.55,3.55,5.5,8.28,5.5,13.32s-1.96,9.77-5.5,13.32c-7.34,7.34-19.29,7.34-26.64,0-.71-.71-1.38-1.5-1.99-2.35l-12.47-17.37,3.48,21.1c.17,1.02.25,2.05.25,3.06,0,10.38-8.45,18.83-18.83,18.83ZM88.01,129.25c6.58,4.42,14.33,6.8,22.45,6.8,10.78,0,20.91-4.19,28.51-11.79,7.61-7.61,11.79-17.73,11.79-28.51,0-8.12-2.37-15.86-6.79-22.44l14.37,10.32c1.92,1.38,3.73,2.91,5.36,4.54,8.11,8.11,12.58,18.91,12.58,30.42,0,11.5-4.47,22.31-12.58,30.42-16.77,16.77-44.06,16.77-60.83,0-1.63-1.63-3.16-3.43-4.54-5.36l-10.33-14.38ZM76.78,100.81c3.98,2.01,8.41,3.09,13.01,3.09,7.71,0,14.95-3,20.39-8.43,5.44-5.44,8.43-12.68,8.43-20.39,0-4.6-1.07-9.03-3.09-13.02l12.61,9.05c1.36.97,2.63,2.05,3.78,3.2,5.72,5.72,8.87,13.33,8.87,21.44,0,8.11-3.15,15.73-8.87,21.44-5.72,5.72-13.33,8.87-21.44,8.87s-15.73-3.15-21.44-8.87c-1.15-1.15-2.23-2.42-3.2-3.78l-9.04-12.6Z"/>
        </g>
      </g>
      <g>
        <g>
          <path class="cls-5" d="M487.79,473.56c-5.44,5.44-8.43,12.68-8.43,20.39,0,4.6,1.07,9.03,3.09,13.02l-12.61-9.05c-1.36-.97-2.63-2.05-3.78-3.2-5.72-5.72-8.87-13.33-8.87-21.44s3.15-15.73,8.87-21.44c5.72-5.72,13.33-8.87,21.44-8.87s15.73,3.15,21.44,8.87c1.15,1.15,2.23,2.42,3.2,3.78l9.04,12.6c-3.98-2.01-8.41-3.09-13.01-3.09-7.71,0-14.95,3-20.39,8.43Z"/>
          <path class="cls-1" d="M458.99,444.76c-7.61,7.61-11.79,17.73-11.79,28.51,0,8.12,2.38,15.86,6.79,22.44l-14.37-10.32c-1.92-1.38-3.73-2.91-5.36-4.54-8.11-8.11-12.58-18.91-12.58-30.42s4.47-22.31,12.58-30.42c16.77-16.77,44.06-16.77,60.83,0,1.63,1.63,3.16,3.43,4.54,5.36l10.33,14.38c-6.58-4.42-14.33-6.8-22.45-6.8-10.78,0-20.91,4.19-28.51,11.79Z"/>
          <path class="cls-1" d="M428.89,493.81c2.3,0,4.66.2,7,.58l17.48,2.87c-18.51,3.65-32.52,20-32.52,39.56h0s-34.98,0-34.98,0h0c0-23.72,19.3-43.02,43.01-43.02Z"/>
          <path class="cls-5" d="M461.18,506.5c1.63,0,3.29.14,4.93.41l15.34,2.52c-11.52,3.78-19.87,14.63-19.87,27.4h0s-30.73,0-30.73,0h0c0-16.72,13.6-30.33,30.33-30.33Z"/>
          <path class="cls-8" d="M471.58,536.83h0c0-10.39,8.45-18.83,18.83-18.83,1.01,0,2.04.08,3.06.25l21.1,3.47-17.37-12.47c-.85-.61-1.64-1.28-2.35-1.99-3.55-3.55-5.5-8.28-5.5-13.32s1.96-9.77,5.5-13.32c7.34-7.34,19.29-7.34,26.64,0,.71.71,1.38,1.5,1.99,2.35l12.47,17.37-3.48-21.1c-.17-1.02-.25-2.05-.25-3.06,0-10.38,8.45-18.83,18.83-18.83v79.48h-79.48Z"/>
          <path class="cls-5" d="M523.66,467.22l-2.52-15.34c-.27-1.65-.41-3.31-.41-4.93,0-16.72,13.6-30.33,30.33-30.33v30.73c-12.77,0-23.62,8.35-27.4,19.87Z"/>
          <path class="cls-1" d="M511.5,439.14l-2.87-17.48c-.38-2.34-.58-4.69-.58-7,0-23.72,19.3-43.01,43.02-43.01v34.98c-19.57,0-35.92,14.01-39.56,32.52Z"/>
          <path class="cls-4" d="M551.06,457.35v-10c-12.77,0-23.62,8.35-27.4,19.87l-2.52-15.34c-.27-1.65-.41-3.31-.41-4.93,0-16.72,13.6-30.33,30.33-30.33v-10c-19.57,0-35.92,14.01-39.56,32.52l-2.87-17.48c-.38-2.34-.58-4.69-.58-7,0-23.72,19.3-43.01,43.02-43.01v-10c-27.48,0-50.14,21.01-52.76,47.81-20.81-17.09-51.69-15.92-71.11,3.5-10,10-15.51,23.31-15.51,37.49,0,12.42,4.23,24.18,12,33.63-26.8,2.62-47.81,25.29-47.81,52.76h0s10,0,10,0h0c0-23.72,19.3-43.02,43.01-43.02,2.3,0,4.66.2,7,.58l17.48,2.87c-18.51,3.65-32.52,20-32.52,39.56h0s10,0,10,0h0c0-16.72,13.6-30.33,30.33-30.33,1.63,0,3.29.14,4.93.41l15.34,2.52c-11.52,3.78-19.87,14.63-19.87,27.4h0s10,0,10,0h0c0-10.39,8.45-18.83,18.83-18.83,1.01,0,2.04.08,3.06.25l21.1,3.47-17.37-12.47c-.85-.61-1.64-1.28-2.35-1.99-3.55-3.55-5.5-8.28-5.5-13.32s1.96-9.77,5.5-13.32c7.34-7.34,19.29-7.34,26.64,0,.71.71,1.38,1.5,1.99,2.35l12.47,17.37-3.48-21.1c-.17-1.02-.25-2.05-.25-3.06,0-10.38,8.45-18.83,18.83-18.83ZM509.96,439.76c-6.58-4.42-14.33-6.8-22.45-6.8-10.78,0-20.91,4.19-28.51,11.79-7.61,7.61-11.79,17.73-11.79,28.51,0,8.12,2.38,15.86,6.79,22.44l-14.37-10.32c-1.92-1.38-3.73-2.91-5.36-4.54-8.11-8.11-12.58-18.91-12.58-30.42s4.47-22.31,12.58-30.42c16.77-16.77,44.06-16.77,60.83,0,1.63,1.63,3.16,3.43,4.54,5.36l10.33,14.38ZM521.19,468.21c-3.98-2.01-8.41-3.09-13.01-3.09-7.71,0-14.95,3-20.39,8.43-5.44,5.44-8.43,12.68-8.43,20.39,0,4.6,1.07,9.03,3.09,13.02l-12.61-9.05c-1.36-.97-2.63-2.05-3.78-3.2-5.72-5.72-8.87-13.33-8.87-21.44s3.15-15.73,8.87-21.44c5.72-5.72,13.33-8.87,21.44-8.87s15.73,3.15,21.44,8.87c1.15,1.15,2.23,2.42,3.2,3.78l9.04,12.6Z"/>
        </g>
        <g>
          <path class="cls-5" d="M110.18,473.56c5.44,5.44,8.43,12.68,8.43,20.39,0,4.6-1.07,9.03-3.09,13.02l12.61-9.05c1.36-.97,2.63-2.05,3.78-3.2,5.72-5.72,8.87-13.33,8.87-21.44,0-8.11-3.15-15.73-8.87-21.44-5.72-5.72-13.33-8.87-21.44-8.87-8.11,0-15.73,3.15-21.44,8.87-1.15,1.15-2.23,2.42-3.2,3.78l-9.04,12.6c3.98-2.01,8.41-3.09,13.01-3.09,7.71,0,14.95,3,20.39,8.43Z"/>
          <path class="cls-1" d="M138.98,444.76c7.61,7.61,11.79,17.73,11.79,28.51,0,8.12-2.37,15.86-6.79,22.44l14.37-10.32c1.92-1.38,3.73-2.91,5.36-4.54,8.11-8.11,12.58-18.91,12.58-30.42,0-11.5-4.47-22.31-12.58-30.42-16.77-16.77-44.06-16.77-60.83,0-1.63,1.63-3.16,3.43-4.54,5.36l-10.33,14.38c6.58-4.42,14.33-6.8,22.45-6.8,10.78,0,20.91,4.19,28.51,11.79Z"/>
          <path class="cls-1" d="M169.08,493.81c-2.3,0-4.66.2-7,.58l-17.48,2.87c18.51,3.65,32.52,20,32.52,39.56h0s34.98,0,34.98,0h0c0-23.72-19.3-43.02-43.01-43.02Z"/>
          <path class="cls-5" d="M136.79,506.5c-1.63,0-3.29.14-4.93.41l-15.34,2.52c11.52,3.78,19.87,14.63,19.87,27.4h0s30.73,0,30.73,0h0c0-16.72-13.6-30.33-30.33-30.33Z"/>
          <path class="cls-8" d="M126.39,536.83h0c0-10.39-8.45-18.83-18.83-18.83-1.01,0-2.04.08-3.06.25l-21.1,3.47,17.37-12.47c.85-.61,1.64-1.28,2.35-1.99,3.55-3.55,5.5-8.28,5.5-13.32s-1.96-9.77-5.5-13.32c-7.34-7.34-19.29-7.34-26.64,0-.71.71-1.38,1.5-1.99,2.35l-12.47,17.37,3.48-21.1c.17-1.02.25-2.05.25-3.06,0-10.38-8.45-18.83-18.83-18.83v79.48h79.48Z"/>
          <path class="cls-5" d="M74.3,467.22l2.52-15.34c.27-1.65.41-3.31.41-4.93,0-16.72-13.6-30.33-30.33-30.33v30.73c12.77,0,23.62,8.35,27.4,19.87Z"/>
          <path class="cls-1" d="M86.47,439.14l2.87-17.48c.38-2.34.58-4.69.58-7,0-23.72-19.3-43.01-43.02-43.01v34.98c19.57,0,35.92,14.01,39.56,32.52Z"/>
          <path class="cls-4" d="M65.74,476.18c0,1.01-.08,2.04-.25,3.06l-3.48,21.1,12.47-17.37c.61-.84,1.28-1.63,1.99-2.35,7.34-7.34,19.29-7.34,26.64,0,3.55,3.55,5.5,8.28,5.5,13.32s-1.95,9.77-5.5,13.32c-.71.71-1.5,1.38-2.35,1.99l-17.37,12.47,21.1-3.47c1.02-.17,2.05-.25,3.06-.25,10.38,0,18.83,8.45,18.83,18.83h0s10,0,10,0h0c0-12.77-8.35-23.62-19.87-27.4l15.34-2.52c1.65-.27,3.31-.41,4.93-.41,16.72,0,30.33,13.6,30.33,30.33h0s10,0,10,0h0c0-19.57-14.01-35.92-32.52-39.56l17.48-2.87c2.34-.38,4.69-.58,7-.58,23.72,0,43.01,19.3,43.01,43.01h0s10,0,10,0h0c0-27.48-21.01-50.14-47.81-52.76,7.77-9.45,12-21.21,12-33.63,0-14.18-5.51-27.49-15.51-37.49-19.43-19.43-50.31-20.6-71.11-3.5-2.63-26.8-25.29-47.81-52.76-47.81v10c23.72,0,43.02,19.3,43.02,43.01,0,2.3-.2,4.66-.58,7l-2.87,17.48c-3.65-18.51-20-32.52-39.56-32.52v10c16.72,0,30.33,13.6,30.33,30.33,0,1.63-.14,3.29-.41,4.93l-2.52,15.34c-3.78-11.52-14.63-19.87-27.4-19.87v10c10.39,0,18.83,8.45,18.83,18.83ZM98.34,425.38c1.38-1.92,2.91-3.73,4.54-5.36,16.77-16.77,44.06-16.77,60.83,0,8.11,8.11,12.58,18.91,12.58,30.42,0,11.5-4.47,22.31-12.58,30.42-1.63,1.63-3.44,3.16-5.36,4.54l-14.37,10.32c4.42-6.58,6.79-14.33,6.79-22.44,0-10.78-4.19-20.91-11.79-28.51-7.61-7.61-17.73-11.79-28.51-11.79-8.12,0-15.87,2.38-22.45,6.8l10.33-14.38ZM85.82,455.6c.97-1.35,2.05-2.63,3.2-3.78,5.72-5.72,13.33-8.87,21.44-8.87,8.11,0,15.73,3.15,21.44,8.87,5.72,5.72,8.87,13.33,8.87,21.44,0,8.11-3.15,15.73-8.87,21.44-1.15,1.15-2.42,2.23-3.78,3.2l-12.61,9.05c2.02-3.98,3.09-8.42,3.09-13.02,0-7.71-3-14.95-8.43-20.39-5.44-5.44-12.68-8.43-20.39-8.43-4.6,0-9.03,1.07-13.01,3.09l9.04-12.6Z"/>
        </g>
      </g>
    </g>
  </g>
  <g>
    <g>
      <rect class="cls-1" x="909.26" y="28.57" width="510.24" height="510.24"/>
      <rect class="cls-2" x="1419.3" y="28.57" width="13" height="523.96"/>
      <rect class="cls-2" x="1162.24" y="286.55" width="13" height="518.97" transform="translate(1714.77 -622.71) rotate(90)"/>
    </g>
    <g>
      <rect class="cls-3" x="1160.46" y="-65.62" width="7.83" height="705.85" transform="translate(137.88 907.49) rotate(-45)"/>
      <rect class="cls-3" x="811.45" y="283.39" width="705.85" height="7.83" transform="translate(137.88 907.49) rotate(-45)"/>
    </g>
  </g>
  <g>
    <line class="cls-7" x1="621.67" y1="290.55" x2="743.2" y2="290.55"/>
    <polygon class="cls-6" points="719.86 370.33 858.01 290.56 719.86 210.78 719.86 370.33"/>
  </g>
</svg>