<?xml version="1.0" encoding="UTF-8"?>
<svg id="_圖層_1" data-name="圖層 1" xmlns="http://www.w3.org/2000/svg" viewBox="0 0 615.53 581.1">
  <defs>
    <style>
      .cls-1 {
        fill: #fff;
      }

      .cls-2 {
        fill: #bbbaba;
      }

      .cls-3 {
        fill: #aacddf;
      }

      .cls-4 {
        fill: #e8e8e8;
      }
    </style>
  </defs>
  <rect class="cls-4" x="-53.02" y="0" width="734.16" height="581.1"/>
  <g>
    <rect class="cls-1" x="43.86" y="33.13" width="510.24" height="510.24"/>
    <rect class="cls-2" x="553.9" y="33.13" width="13" height="523.96"/>
    <rect class="cls-2" x="296.85" y="291.1" width="13" height="518.97" transform="translate(853.94 247.24) rotate(90)"/>
  </g>
  <g>
    <path class="cls-3" d="M365.68,268.18c6.08-16.11,2.97-29.32-7.35-34.91-5.63-10.31-18.04-13.04-34.96-7.49,1.29-21.03-7.55-37.29-23.47-50.81-16.33,13.23-24.82,29.77-23.92,50.87-16.11-6.08-29.32-2.97-34.91,7.35-10.31,5.63-13.04,18.04-7.49,34.96-21.03-1.29-37.29,7.55-50.81,23.47,13.23,16.33,29.77,24.82,50.87,23.92-6.08,16.11-2.97,29.32,7.35,34.91,5.63,10.31,18.04,13.04,34.96,7.49-1.29,21.03,7.55,37.29,23.47,50.81,16.33-13.23,24.82-29.77,23.92-50.87,16.11,6.08,29.32,2.97,34.91-7.35,10.31-5.63,13.04-18.04,7.49-34.96,21.03,1.29,37.29-7.55,50.81-23.47-13.23-16.33-29.77-24.82-50.87-23.92Z"/>
    <circle class="cls-1" cx="299.65" cy="291.86" r="44.13"/>
  </g>
</svg>