<?xml version="1.0" encoding="UTF-8"?>
<svg id="_圖層_2" data-name="圖層 2" xmlns="http://www.w3.org/2000/svg" viewBox="0 0 3449.87 489.72">
  <defs>
    <style>
      .cls-1 {
        fill: #fff;
      }

      .cls-2 {
        fill: #f6b491;
      }

      .cls-3 {
        fill: #5d8897;
      }

      .cls-4 {
        fill: #aacddf;
      }

      .cls-5 {
        fill: #ce6729;
      }

      .cls-6 {
        fill: #f29119;
      }

      .cls-7 {
        fill: #183460;
      }
    </style>
  </defs>
  <g>
    <path class="cls-7" d="M499.84,36.76H144c-45.85,0-83.15,2.52-83.15,49.87v19.33c0,39.76,26.13,22.1,63.09,31.53v328.77h395.95V137.5c36.95-9.44,63.09,8.23,63.09-31.53v-19.33c0-47.35-37.29-49.87-83.15-49.87Z"/>
    <rect class="cls-1" x="187.05" y="149.33" width="259.49" height="259.49"/>
    <g>
      <path class="cls-4" d="M251.53,216c5.18-5.18,8.04-12.08,8.04-19.43,0-4.39-1.02-8.61-2.94-12.4l12.01,8.62c1.29.93,2.5,1.95,3.6,3.05,5.45,5.45,8.45,12.7,8.45,20.43,0,7.73-3,14.98-8.45,20.43-5.45,5.45-12.7,8.45-20.43,8.45-7.73,0-14.98-3-20.43-8.45-1.1-1.1-2.12-2.31-3.05-3.6l-8.61-12.01c3.79,1.92,8.01,2.94,12.4,2.94,7.35,0,14.24-2.85,19.43-8.04Z"/>
      <path class="cls-1" d="M278.97,243.44c7.25-7.25,11.24-16.9,11.24-27.17,0-7.73-2.26-15.12-6.47-21.38l13.7,9.83c1.83,1.32,3.55,2.77,5.11,4.33,7.73,7.73,11.98,18.02,11.98,28.98,0,10.96-4.26,21.25-11.98,28.98-15.98,15.98-41.98,15.98-57.96,0-1.55-1.55-3.01-3.27-4.32-5.11l-9.84-13.7c6.27,4.22,13.66,6.48,21.39,6.48,10.27,0,19.92-3.99,27.17-11.24Z"/>
      <path class="cls-1" d="M307.65,196.7c-2.2,0-4.44-.19-6.67-.55l-16.66-2.74c17.64-3.47,30.99-19.05,30.99-37.7h0s33.33,0,33.33,0h0c0,22.6-18.39,40.99-40.99,40.99Z"/>
      <path class="cls-4" d="M276.88,184.61c-1.55,0-3.13-.13-4.7-.39l-14.61-2.4c10.98-3.6,18.93-13.94,18.93-26.1h0s29.28,0,29.28,0h0c0,15.93-12.96,28.9-28.89,28.9Z"/>
      <path class="cls-6" d="M266.97,155.71h0c0,9.9-8.05,17.95-17.95,17.95-.96,0-1.95-.08-2.92-.24l-20.1-3.31,16.55,11.88c.81.58,1.56,1.22,2.24,1.89,3.38,3.38,5.25,7.89,5.25,12.69,0,4.8-1.86,9.31-5.25,12.69-7,7-18.38,7-25.38,0-.68-.68-1.32-1.43-1.89-2.24l-11.89-16.55,3.31,20.11c.16.97.24,1.95.24,2.92,0,9.89-8.05,17.95-17.95,17.95v-75.73h75.73Z"/>
      <path class="cls-4" d="M217.34,222.04l2.4,14.61c.26,1.57.39,3.15.39,4.7,0,15.93-12.96,28.9-28.9,28.9v-29.28c12.17,0,22.5-7.95,26.1-18.93Z"/>
      <path class="cls-1" d="M228.94,248.8l2.74,16.66c.37,2.23.55,4.47.55,6.67,0,22.6-18.39,40.99-40.99,40.99v-33.33c18.64,0,34.22-13.35,37.7-30.99Z"/>
      <path class="cls-3" d="M191.24,231.44v9.53c12.17,0,22.5-7.95,26.1-18.93l2.4,14.61c.26,1.57.39,3.15.39,4.7,0,15.93-12.96,28.9-28.9,28.9v9.53c18.64,0,34.22-13.35,37.7-30.99l2.74,16.66c.37,2.23.55,4.47.55,6.67,0,22.6-18.39,40.99-40.99,40.99v9.53c26.18,0,47.77-20.02,50.27-45.55,19.82,16.29,49.25,15.17,67.76-3.34,9.53-9.53,14.77-22.21,14.77-35.72,0-11.83-4.03-23.04-11.43-32.04,25.53-2.5,45.55-24.09,45.55-50.27h0s-9.53,0-9.53,0h0c0,22.6-18.39,40.99-40.99,40.99-2.2,0-4.44-.19-6.67-.55l-16.66-2.74c17.64-3.47,30.99-19.05,30.99-37.7h0s-9.53,0-9.53,0h0c0,15.93-12.96,28.9-28.89,28.9-1.55,0-3.13-.13-4.7-.39l-14.61-2.4c10.98-3.6,18.93-13.94,18.93-26.1h0s-9.53,0-9.53,0h0c0,9.9-8.05,17.95-17.95,17.95-.96,0-1.95-.08-2.92-.24l-20.1-3.31,16.55,11.88c.81.58,1.56,1.22,2.24,1.89,3.38,3.38,5.25,7.89,5.25,12.69,0,4.8-1.86,9.31-5.25,12.69-7,7-18.38,7-25.38,0-.68-.68-1.32-1.43-1.89-2.24l-11.89-16.55,3.31,20.11c.16.97.24,1.95.24,2.92,0,9.89-8.05,17.95-17.95,17.95ZM230.4,248.2c6.27,4.22,13.66,6.48,21.39,6.48,10.27,0,19.92-3.99,27.17-11.24,7.25-7.25,11.24-16.9,11.24-27.17,0-7.73-2.26-15.12-6.47-21.38l13.7,9.83c1.83,1.32,3.55,2.77,5.11,4.33,7.73,7.73,11.98,18.02,11.98,28.98,0,10.96-4.26,21.25-11.98,28.98-15.98,15.98-41.98,15.98-57.96,0-1.55-1.55-3.01-3.27-4.32-5.11l-9.84-13.7ZM219.7,221.1c3.79,1.92,8.01,2.94,12.4,2.94,7.35,0,14.24-2.85,19.43-8.04,5.18-5.18,8.04-12.08,8.04-19.43,0-4.39-1.02-8.61-2.94-12.4l12.01,8.62c1.29.93,2.5,1.95,3.6,3.05,5.45,5.45,8.45,12.7,8.45,20.43,0,7.73-3,14.98-8.45,20.43-5.45,5.45-12.7,8.45-20.43,8.45-7.73,0-14.98-3-20.43-8.45-1.1-1.1-2.12-2.31-3.05-3.6l-8.61-12.01Z"/>
    </g>
  </g>
  <g>
    <path class="cls-7" d="M1887.31,36.76h-355.84c-45.85,0-83.15,2.52-83.15,49.87v19.33c0,39.76,26.13,22.1,63.09,31.53v328.77h395.95V137.5c36.95-9.44,63.09,8.23,63.09-31.53v-19.33c0-47.35-37.29-49.87-83.15-49.87Z"/>
    <rect class="cls-1" x="1574.52" y="149.33" width="259.49" height="259.49"/>
    <path class="cls-4" d="M1785.9,403.8c0-24.03,19.21-43.55,43.1-44.1v-71.73c-15.49,13.05-23.54,29.26-22.66,49.8-16.11-6.08-29.32-2.97-34.91,7.35-10.31,5.63-13.04,18.04-7.49,34.96-21.03-1.29-37.29,7.55-50.81,23.47.35.43.71.84,1.07,1.26h71.73c0-.34-.03-.68-.03-1.02Z"/>
  </g>
  <g>
    <path class="cls-6" d="M852.32,36.76h326.68c66.6,0,120.66,54.07,120.66,120.66v308.84h-568V157.42c0-66.6,54.07-120.66,120.66-120.66Z"/>
    <polygon class="cls-1" points="1015.47 436.47 1272.56 179.43 758.39 179.43 1015.47 436.47"/>
    <path class="cls-5" d="M1032.94,257.46c4.09-25.81-17.47-39.39-17.47-39.39-.4.25-21.55,13.58-17.46,39.39,0,0-25.74-11.44-28.91,12.07,0,0,43.42-2.8,46.28,36.28h.36c2.86-39.08,46.11-36.28,46.11-36.28-3.18-23.51-28.91-12.07-28.91-12.07Z"/>
  </g>
  <g>
    <g>
      <path class="cls-6" d="M2928.37,31.4h326.68c66.6,0,120.66,54.07,120.66,120.66v308.84h-568V152.06c0-66.6,54.07-120.66,120.66-120.66Z"/>
      <polygon class="cls-1" points="3091.52 431.11 3348.61 174.07 2834.44 174.07 3091.52 431.11"/>
    </g>
    <rect class="cls-2" x="3085.92" y="179.67" width="11.2" height="240.18"/>
  </g>
  <g>
    <g>
      <path class="cls-7" d="M2581.04,36.76h-355.84c-45.85,0-83.15,2.52-83.15,49.87v19.33c0,39.76,26.13,22.1,63.09,31.53v328.77h395.95V137.5c36.95-9.44,63.09,8.23,63.09-31.53v-19.33c0-47.35-37.29-49.87-83.15-49.87Z"/>
      <rect class="cls-1" x="2268.25" y="149.33" width="259.49" height="259.49"/>
    </g>
    <polygon class="cls-2" points="2275.94 149.33 2527.73 398.96 2520.04 406.66 2268.25 157.03 2275.94 149.33"/>
  </g>
</svg>