<?xml version="1.0" encoding="UTF-8" standalone="no"?>
<svg
   id="_圖層_1"
   data-name="圖層 1"
   viewBox="0 0 615.53 581.1"
   version="1.1"
   sodipodi:docname="2026-TW-04_new.svg"
   inkscape:version="1.3.2 (091e20e, 2023-11-25, custom)"
   xmlns:inkscape="http://www.inkscape.org/namespaces/inkscape"
   xmlns:sodipodi="http://sodipodi.sourceforge.net/DTD/sodipodi-0.dtd"
   xmlns="http://www.w3.org/2000/svg"
   xmlns:svg="http://www.w3.org/2000/svg">
  <sodipodi:namedview
     id="namedview41"
     pagecolor="#ffffff"
     bordercolor="#000000"
     borderopacity="0.25"
     inkscape:showpageshadow="2"
     inkscape:pageopacity="0.0"
     inkscape:pagecheckerboard="0"
     inkscape:deskcolor="#d1d1d1"
     inkscape:zoom="0.48880464"
     inkscape:cx="240.38233"
     inkscape:cy="471.55853"
     inkscape:window-width="1920"
     inkscape:window-height="1129"
     inkscape:window-x="-8"
     inkscape:window-y="-8"
     inkscape:window-maximized="1"
     inkscape:current-layer="_圖層_1" />
  <defs
     id="defs1">
    <style
       id="style1">
      .cls-1 {
        fill: #fff;
      }

      .cls-2 {
        fill: #bbbaba;
      }

      .cls-3 {
        fill: #f6b491;
      }

      .cls-4 {
        fill: #5d8897;
      }

      .cls-5 {
        fill: #aacddf;
      }

      .cls-6 {
        fill: #f29119;
      }

      .cls-7 {
        fill: #e8e8e8;
      }
    </style>
  </defs>
  <rect
     class="cls-7"
     x="-53.02"
     width="734.16"
     height="581.1"
     id="rect1" />
  <g
     id="g4">
    <rect
       class="cls-1"
       x="43.86"
       y="33.13"
       width="510.24"
       height="510.24"
       id="rect2" />
    <rect
       class="cls-2"
       x="553.9"
       y="33.13"
       width="13"
       height="523.96"
       id="rect3" />
    <rect
       class="cls-2"
       x="296.85"
       y="291.1"
       width="13"
       height="518.97"
       transform="translate(853.94 247.24) rotate(90)"
       id="rect4" />
  </g>
  <g
     id="g41">
    <g
       id="g40">
      <rect
         class="cls-3"
         x="45.06"
         y="287.95"
         width="507.85"
         height="7.83"
         id="rect5" />
      <rect
         class="cls-3"
         x="295.07"
         y="37.94"
         width="7.83"
         height="507.85"
         id="rect6" />
      <g
         id="g39">
        <g
           id="g22">
          <g
             id="g13">
            <path
               class="cls-5"
               d="M487.79,100.01c-5.44-5.44-8.43-12.68-8.43-20.39,0-4.6,1.07-9.03,3.09-13.02l-12.61,9.05c-1.36.97-2.63,2.05-3.78,3.2-5.72,5.72-8.87,13.33-8.87,21.44s3.15,15.73,8.87,21.44c5.72,5.72,13.33,8.87,21.44,8.87s15.73-3.15,21.44-8.87c1.15-1.15,2.23-2.42,3.2-3.78l9.04-12.6c-3.98,2.01-8.41,3.09-13.01,3.09-7.71,0-14.95-3-20.39-8.43Z"
               id="path6" />
            <path
               class="cls-1"
               d="M458.99,128.81c-7.61-7.61-11.79-17.73-11.79-28.51,0-8.12,2.38-15.86,6.79-22.44l-14.37,10.32c-1.92,1.38-3.73,2.91-5.36,4.54-8.11,8.11-12.58,18.91-12.58,30.42s4.47,22.31,12.58,30.42c16.77,16.77,44.06,16.77,60.83,0,1.63-1.63,3.16-3.43,4.54-5.36l10.33-14.38c-6.58,4.42-14.33,6.8-22.45,6.8-10.78,0-20.91-4.19-28.51-11.8Z"
               id="path7" />
            <path
               class="cls-1"
               d="M428.89,79.76c2.3,0,4.66-.2,7-.58l17.48-2.87c-18.51-3.65-32.52-20-32.52-39.56h0s-34.98,0-34.98,0h0c0,23.72,19.3,43.02,43.01,43.02Z"
               id="path8" />
            <path
               class="cls-5"
               d="M461.18,67.07c1.63,0,3.29-.14,4.93-.41l15.34-2.52c-11.52-3.78-19.87-14.63-19.87-27.4h0s-30.73,0-30.73,0h0c0,16.72,13.6,30.33,30.33,30.33Z"
               id="path9" />
            <path
               class="cls-6"
               d="M471.58,36.74h0c0,10.39,8.45,18.83,18.83,18.83,1.01,0,2.04-.08,3.06-.25l21.1-3.47-17.37,12.47c-.85.61-1.64,1.28-2.35,1.99-3.55,3.55-5.5,8.28-5.5,13.32s1.95,9.77,5.5,13.32c7.34,7.34,19.29,7.34,26.64,0,.71-.71,1.38-1.5,1.99-2.35l12.47-17.37-3.48,21.1c-.17,1.02-.25,2.05-.25,3.06,0,10.38,8.45,18.83,18.83,18.83V36.74h-79.48Z"
               id="path10" />
            <path
               class="cls-5"
               d="M523.66,106.36l-2.52,15.34c-.27,1.65-.41,3.31-.41,4.93,0,16.72,13.6,30.33,30.33,30.33v-30.73c-12.77,0-23.62-8.35-27.4-19.87Z"
               id="path11" />
            <path
               class="cls-1"
               d="M511.5,134.43l-2.87,17.48c-.38,2.34-.58,4.69-.58,7,0,23.72,19.3,43.01,43.02,43.01v-34.98c-19.57,0-35.92-14.01-39.56-32.52Z"
               id="path12" />
            <path
               class="cls-4"
               d="M532.22,97.39c0-1.01.08-2.04.25-3.06l3.48-21.1-12.47,17.37c-.61.84-1.28,1.63-1.99,2.35-7.34,7.34-19.29,7.34-26.64,0-3.55-3.55-5.5-8.28-5.5-13.32s1.95-9.77,5.5-13.32c.71-.71,1.5-1.38,2.35-1.99l17.37-12.47-21.1,3.47c-1.02.17-2.05.25-3.06.25-10.38,0-18.83-8.45-18.83-18.83h0s-10,0-10,0h0c0,12.77,8.35,23.62,19.87,27.4l-15.34,2.52c-1.65.27-3.31.41-4.93.41-16.72,0-30.33-13.6-30.33-30.33h0s-10,0-10,0h0c0,19.57,14.01,35.92,32.52,39.56l-17.48,2.87c-2.34.38-4.69.58-7,.58-23.72,0-43.01-19.3-43.01-43.01h0s-10,0-10,0h0c0,27.48,21.01,50.14,47.81,52.76-7.77,9.45-12,21.21-12,33.63,0,14.18,5.51,27.49,15.51,37.49,19.43,19.43,50.31,20.6,71.11,3.5,2.62,26.8,25.29,47.81,52.76,47.81v-10c-23.72,0-43.02-19.3-43.02-43.01,0-2.3.2-4.66.58-7l2.87-17.48c3.65,18.51,20,32.52,39.56,32.52v-10c-16.72,0-30.33-13.6-30.33-30.33,0-1.63.14-3.29.41-4.93l2.52-15.34c3.78,11.52,14.63,19.87,27.4,19.87v-10c-10.39,0-18.83-8.45-18.83-18.83ZM499.63,148.19c-1.38,1.92-2.91,3.73-4.54,5.36-16.77,16.77-44.06,16.77-60.83,0-8.11-8.11-12.58-18.91-12.58-30.42s4.47-22.31,12.58-30.42c1.63-1.63,3.44-3.16,5.36-4.54l14.37-10.32c-4.42,6.58-6.79,14.33-6.79,22.44,0,10.78,4.19,20.91,11.79,28.51,7.61,7.61,17.73,11.8,28.51,11.8,8.12,0,15.87-2.38,22.45-6.8l-10.33,14.38ZM512.15,117.97c-.97,1.35-2.05,2.62-3.2,3.78-5.72,5.72-13.33,8.87-21.44,8.87s-15.73-3.15-21.44-8.87c-5.72-5.72-8.87-13.33-8.87-21.44s3.15-15.73,8.87-21.44c1.15-1.15,2.42-2.23,3.78-3.2l12.61-9.05c-2.02,3.98-3.09,8.42-3.09,13.02,0,7.71,3,14.95,8.43,20.39,5.44,5.44,12.68,8.43,20.39,8.43,4.6,0,9.03-1.07,13.01-3.09l-9.04,12.6Z"
               id="path13" />
          </g>
          <g
             id="g21">
            <path
               class="cls-5"
               d="M110.18,100.01c5.44-5.44,8.43-12.68,8.43-20.39,0-4.6-1.07-9.03-3.09-13.02l12.61,9.05c1.36.97,2.63,2.05,3.78,3.2,5.72,5.72,8.87,13.33,8.87,21.44s-3.15,15.73-8.87,21.44c-5.72,5.72-13.33,8.87-21.44,8.87s-15.73-3.15-21.44-8.87c-1.15-1.15-2.23-2.42-3.2-3.78l-9.04-12.6c3.98,2.01,8.41,3.09,13.01,3.09,7.71,0,14.95-3,20.39-8.43Z"
               id="path14" />
            <path
               class="cls-1"
               d="M138.98,128.81c7.61-7.61,11.79-17.73,11.79-28.51,0-8.12-2.37-15.86-6.79-22.44l14.37,10.32c1.92,1.38,3.73,2.91,5.36,4.54,8.11,8.11,12.58,18.91,12.58,30.42s-4.47,22.31-12.58,30.42c-16.77,16.77-44.06,16.77-60.83,0-1.63-1.63-3.16-3.43-4.54-5.36l-10.33-14.38c6.58,4.42,14.33,6.8,22.45,6.8,10.78,0,20.91-4.19,28.51-11.79Z"
               id="path15" />
            <path
               class="cls-1"
               d="M169.08,79.76c-2.3,0-4.66-.2-7-.58l-17.48-2.87c18.51-3.65,32.52-20,32.52-39.56h0s34.98,0,34.98,0h0c0,23.72-19.3,43.02-43.01,43.02Z"
               id="path16" />
            <path
               class="cls-5"
               d="M136.79,67.07c-1.63,0-3.29-.14-4.93-.41l-15.34-2.52c11.52-3.78,19.87-14.63,19.87-27.4h0s30.73,0,30.73,0h0c0,16.72-13.6,30.33-30.33,30.33Z"
               id="path17" />
            <path
               class="cls-6"
               d="M126.39,36.74h0c0,10.39-8.45,18.83-18.83,18.83-1.01,0-2.04-.08-3.06-.25l-21.1-3.47,17.37,12.47c.85.61,1.64,1.28,2.35,1.99,3.55,3.55,5.5,8.28,5.5,13.32,0,5.04-1.96,9.77-5.5,13.32-7.34,7.34-19.29,7.34-26.64,0-.71-.71-1.38-1.5-1.99-2.35l-12.47-17.37,3.48,21.1c.17,1.02.25,2.05.25,3.06,0,10.38-8.45,18.83-18.83,18.83V36.74h79.48Z"
               id="path18" />
            <path
               class="cls-5"
               d="M74.3,106.36l2.52,15.34c.27,1.65.41,3.31.41,4.93,0,16.72-13.6,30.33-30.33,30.33v-30.73c12.77,0,23.62-8.35,27.4-19.87Z"
               id="path19" />
            <path
               class="cls-1"
               d="M86.47,134.43l2.87,17.48c.38,2.34.58,4.69.58,7,0,23.72-19.3,43.01-43.02,43.01v-34.98c19.57,0,35.92-14.01,39.56-32.52Z"
               id="path20" />
            <path
               class="cls-4"
               d="M46.91,116.22v10c12.77,0,23.62-8.35,27.4-19.87l2.52,15.34c.27,1.65.41,3.31.41,4.93,0,16.72-13.6,30.33-30.33,30.33v10c19.57,0,35.92-14.01,39.56-32.52l2.87,17.48c.38,2.34.58,4.69.58,7,0,23.72-19.3,43.01-43.02,43.01v10c27.48,0,50.14-21.01,52.76-47.81,20.81,17.09,51.69,15.92,71.11-3.5,10-10,15.51-23.31,15.51-37.49,0-12.42-4.23-24.18-12-33.63,26.8-2.62,47.81-25.29,47.81-52.76h0s-10,0-10,0h0c0,23.72-19.3,43.02-43.01,43.02-2.3,0-4.66-.2-7-.58l-17.48-2.87c18.51-3.65,32.52-20,32.52-39.56h0s-10,0-10,0h0c0,16.72-13.6,30.33-30.33,30.33-1.63,0-3.29-.14-4.93-.41l-15.34-2.52c11.52-3.78,19.87-14.63,19.87-27.4h0s-10,0-10,0h0c0,10.39-8.45,18.83-18.83,18.83-1.01,0-2.04-.08-3.06-.25l-21.1-3.47,17.37,12.47c.85.61,1.64,1.28,2.35,1.99,3.55,3.55,5.5,8.28,5.5,13.32,0,5.04-1.96,9.77-5.5,13.32-7.34,7.34-19.29,7.34-26.64,0-.71-.71-1.38-1.5-1.99-2.35l-12.47-17.37,3.48,21.1c.17,1.02.25,2.05.25,3.06,0,10.38-8.45,18.83-18.83,18.83ZM88.01,133.81c6.58,4.42,14.33,6.8,22.45,6.8,10.78,0,20.91-4.19,28.51-11.79,7.61-7.61,11.79-17.73,11.79-28.51,0-8.12-2.37-15.86-6.79-22.44l14.37,10.32c1.92,1.38,3.73,2.91,5.36,4.54,8.11,8.11,12.58,18.91,12.58,30.42s-4.47,22.31-12.58,30.42c-16.77,16.77-44.06,16.77-60.83,0-1.63-1.63-3.16-3.43-4.54-5.36l-10.33-14.38ZM76.78,105.36c3.98,2.01,8.41,3.09,13.01,3.09,7.71,0,14.95-3,20.39-8.43,5.44-5.44,8.43-12.68,8.43-20.39,0-4.6-1.07-9.03-3.09-13.02l12.61,9.05c1.36.97,2.63,2.05,3.78,3.2,5.72,5.72,8.87,13.33,8.87,21.44s-3.15,15.73-8.87,21.44c-5.72,5.72-13.33,8.87-21.44,8.87s-15.73-3.15-21.44-8.87c-1.15-1.15-2.23-2.42-3.2-3.78l-9.04-12.6Z"
               id="path21" />
          </g>
        </g>
        <g
           id="g38">
          <g
             id="g29">
            <path
               class="cls-5"
               d="M487.79,478.11c-5.44,5.44-8.43,12.68-8.43,20.39,0,4.6,1.07,9.03,3.09,13.02l-12.61-9.05c-1.36-.97-2.63-2.05-3.78-3.2-5.72-5.72-8.87-13.33-8.87-21.44s3.15-15.73,8.87-21.44c5.72-5.72,13.33-8.87,21.44-8.87s15.73,3.15,21.44,8.87c1.15,1.15,2.23,2.42,3.2,3.78l9.04,12.6c-3.98-2.01-8.41-3.09-13.01-3.09-7.71,0-14.95,3-20.39,8.43Z"
               id="path22" />
            <path
               class="cls-1"
               d="M458.99,449.31c-7.61,7.61-11.79,17.73-11.79,28.51,0,8.12,2.38,15.86,6.79,22.44l-14.37-10.32c-1.92-1.38-3.73-2.91-5.36-4.54-8.11-8.11-12.58-18.91-12.58-30.42s4.47-22.31,12.58-30.42c16.77-16.77,44.06-16.77,60.83,0,1.63,1.63,3.16,3.43,4.54,5.36l10.33,14.38c-6.58-4.42-14.33-6.8-22.45-6.8-10.78,0-20.91,4.19-28.51,11.79Z"
               id="path23" />
            <path
               class="cls-1"
               d="M428.89,498.37c2.3,0,4.66.2,7,.58l17.48,2.87c-18.51,3.65-32.52,20-32.52,39.56h0s-34.98,0-34.98,0h0c0-23.72,19.3-43.02,43.01-43.02Z"
               id="path24" />
            <path
               class="cls-5"
               d="M461.18,511.06c1.63,0,3.29.14,4.93.41l15.34,2.52c-11.52,3.78-19.87,14.63-19.87,27.4h0s-30.73,0-30.73,0h0c0-16.72,13.6-30.33,30.33-30.33Z"
               id="path25" />
            <path
               class="cls-6"
               d="M471.58,541.38h0c0-10.39,8.45-18.83,18.83-18.83,1.01,0,2.04.08,3.06.25l21.1,3.47-17.37-12.47c-.85-.61-1.64-1.28-2.35-1.99-3.55-3.55-5.5-8.28-5.5-13.32s1.95-9.77,5.5-13.32c7.34-7.34,19.29-7.34,26.64,0,.71.71,1.38,1.5,1.99,2.35l12.47,17.37-3.48-21.1c-.17-1.02-.25-2.05-.25-3.06,0-10.38,8.45-18.83,18.83-18.83v79.48h-79.48Z"
               id="path26" />
            <path
               class="cls-5"
               d="M523.66,471.77l-2.52-15.34c-.27-1.65-.41-3.31-.41-4.93,0-16.72,13.6-30.33,30.33-30.33v30.73c-12.77,0-23.62,8.35-27.4,19.87Z"
               id="path27" />
            <path
               class="cls-1"
               d="M511.5,443.69l-2.87-17.48c-.38-2.34-.58-4.69-.58-7,0-23.72,19.3-43.01,43.02-43.01v34.98c-19.57,0-35.92,14.01-39.56,32.52Z"
               id="path28" />
            <path
               class="cls-4"
               d="M551.06,461.9v-10c-12.77,0-23.62,8.35-27.4,19.87l-2.52-15.34c-.27-1.65-.41-3.31-.41-4.93,0-16.72,13.6-30.33,30.33-30.33v-10c-19.57,0-35.92,14.01-39.56,32.52l-2.87-17.48c-.38-2.34-.58-4.69-.58-7,0-23.72,19.3-43.01,43.02-43.01v-10c-27.48,0-50.14,21.01-52.76,47.81-20.81-17.09-51.69-15.92-71.11,3.5-10,10-15.51,23.31-15.51,37.49,0,12.42,4.23,24.18,12,33.63-26.8,2.62-47.81,25.29-47.81,52.76h0s10,0,10,0h0c0-23.72,19.3-43.02,43.01-43.02,2.3,0,4.66.2,7,.58l17.48,2.87c-18.51,3.65-32.52,20-32.52,39.56h0s10,0,10,0h0c0-16.72,13.6-30.33,30.33-30.33,1.63,0,3.29.14,4.93.41l15.34,2.52c-11.52,3.78-19.87,14.63-19.87,27.4h0s10,0,10,0h0c0-10.39,8.45-18.83,18.83-18.83,1.01,0,2.04.08,3.06.25l21.1,3.47-17.37-12.47c-.85-.61-1.64-1.28-2.35-1.99-3.55-3.55-5.5-8.28-5.5-13.32s1.95-9.77,5.5-13.32c7.34-7.34,19.29-7.34,26.64,0,.71.71,1.38,1.5,1.99,2.35l12.47,17.37-3.48-21.1c-.17-1.02-.25-2.05-.25-3.06,0-10.38,8.45-18.83,18.83-18.83ZM509.96,444.32c-6.58-4.42-14.33-6.8-22.45-6.8-10.78,0-20.91,4.19-28.51,11.79-7.61,7.61-11.79,17.73-11.79,28.51,0,8.12,2.38,15.86,6.79,22.44l-14.37-10.32c-1.92-1.38-3.73-2.91-5.36-4.54-8.11-8.11-12.58-18.91-12.58-30.42s4.47-22.31,12.58-30.42c16.77-16.77,44.06-16.77,60.83,0,1.63,1.63,3.16,3.43,4.54,5.36l10.33,14.38ZM521.19,472.76c-3.98-2.01-8.41-3.09-13.01-3.09-7.71,0-14.95,3-20.39,8.43-5.44,5.44-8.43,12.68-8.43,20.39,0,4.6,1.07,9.03,3.09,13.02l-12.61-9.05c-1.36-.97-2.63-2.05-3.78-3.2-5.72-5.72-8.87-13.33-8.87-21.44s3.15-15.73,8.87-21.44c5.72-5.72,13.33-8.87,21.44-8.87s15.73,3.15,21.44,8.87c1.15,1.15,2.23,2.42,3.2,3.78l9.04,12.6Z"
               id="path29" />
          </g>
          <g
             id="g37">
            <path
               class="cls-5"
               d="M110.18,478.11c5.44,5.44,8.43,12.68,8.43,20.39,0,4.6-1.07,9.03-3.09,13.02l12.61-9.05c1.36-.97,2.63-2.05,3.78-3.2,5.72-5.72,8.87-13.33,8.87-21.44s-3.15-15.73-8.87-21.44c-5.72-5.72-13.33-8.87-21.44-8.87-8.11,0-15.73,3.15-21.44,8.87-1.15,1.15-2.23,2.42-3.2,3.78l-9.04,12.6c3.98-2.01,8.41-3.09,13.01-3.09,7.71,0,14.95,3,20.39,8.43Z"
               id="path30" />
            <path
               class="cls-1"
               d="M138.98,449.31c7.61,7.61,11.79,17.73,11.79,28.51,0,8.12-2.37,15.86-6.79,22.44l14.37-10.32c1.92-1.38,3.73-2.91,5.36-4.54,8.11-8.11,12.58-18.91,12.58-30.42s-4.47-22.31-12.58-30.42c-16.77-16.77-44.06-16.77-60.83,0-1.63,1.63-3.16,3.43-4.54,5.36l-10.33,14.38c6.58-4.42,14.33-6.8,22.45-6.8,10.78,0,20.91,4.19,28.51,11.79Z"
               id="path31" />
            <path
               class="cls-1"
               d="M169.08,498.37c-2.3,0-4.66.2-7,.58l-17.48,2.87c18.51,3.65,32.52,20,32.52,39.56h0s34.98,0,34.98,0h0c0-23.72-19.3-43.02-43.01-43.02Z"
               id="path32" />
            <path
               class="cls-5"
               d="M136.79,511.06c-1.63,0-3.29.14-4.93.41l-15.34,2.52c11.52,3.78,19.87,14.63,19.87,27.4h0s30.73,0,30.73,0h0c0-16.72-13.6-30.33-30.33-30.33Z"
               id="path33" />
            <path
               class="cls-6"
               d="M126.39,541.38h0c0-10.39-8.45-18.83-18.83-18.83-1.01,0-2.04.08-3.06.25l-21.1,3.47,17.37-12.47c.85-.61,1.64-1.28,2.35-1.99,3.55-3.55,5.5-8.28,5.5-13.32,0-5.04-1.96-9.77-5.5-13.32-7.34-7.34-19.29-7.34-26.64,0-.71.71-1.38,1.5-1.99,2.35l-12.47,17.37,3.48-21.1c.17-1.02.25-2.05.25-3.06,0-10.38-8.45-18.83-18.83-18.83v79.48h79.48Z"
               id="path34" />
            <path
               class="cls-5"
               d="M74.3,471.77l2.52-15.34c.27-1.65.41-3.31.41-4.93,0-16.72-13.6-30.33-30.33-30.33v30.73c12.77,0,23.62,8.35,27.4,19.87Z"
               id="path35" />
            <path
               class="cls-1"
               d="M86.47,443.69l2.87-17.48c.38-2.34.58-4.69.58-7,0-23.72-19.3-43.01-43.02-43.01v34.98c19.57,0,35.92,14.01,39.56,32.52Z"
               id="path36" />
            <path
               class="cls-4"
               d="M65.74,480.74c0,1.01-.08,2.04-.25,3.06l-3.48,21.1,12.47-17.37c.61-.84,1.28-1.63,1.99-2.35,7.34-7.34,19.29-7.34,26.64,0,3.55,3.55,5.5,8.28,5.5,13.32,0,5.04-1.95,9.77-5.5,13.32-.71.71-1.5,1.38-2.35,1.99l-17.37,12.47,21.1-3.47c1.02-.17,2.05-.25,3.06-.25,10.38,0,18.83,8.45,18.83,18.83h0s10,0,10,0h0c0-12.77-8.35-23.62-19.87-27.4l15.34-2.52c1.65-.27,3.31-.41,4.93-.41,16.72,0,30.33,13.6,30.33,30.33h0s10,0,10,0h0c0-19.57-14.01-35.92-32.52-39.56l17.48-2.87c2.34-.38,4.69-.58,7-.58,23.72,0,43.01,19.3,43.01,43.01h0s10,0,10,0h0c0-27.48-21.01-50.14-47.81-52.76,7.77-9.45,12-21.21,12-33.63,0-14.18-5.51-27.49-15.51-37.49-19.43-19.43-50.31-20.6-71.11-3.5-2.63-26.8-25.29-47.81-52.76-47.81v10c23.72,0,43.02,19.3,43.02,43.01,0,2.3-.2,4.66-.58,7l-2.87,17.48c-3.65-18.51-20-32.52-39.56-32.52v10c16.72,0,30.33,13.6,30.33,30.33,0,1.63-.14,3.29-.41,4.93l-2.52,15.34c-3.78-11.52-14.63-19.87-27.4-19.87v10c10.39,0,18.83,8.45,18.83,18.83ZM98.34,429.94c1.38-1.92,2.91-3.73,4.54-5.36,16.77-16.77,44.06-16.77,60.83,0,8.11,8.11,12.58,18.91,12.58,30.42s-4.47,22.31-12.58,30.42c-1.63,1.63-3.44,3.16-5.36,4.54l-14.37,10.32c4.42-6.58,6.79-14.33,6.79-22.44,0-10.78-4.19-20.91-11.79-28.51-7.61-7.61-17.73-11.79-28.51-11.79-8.12,0-15.87,2.38-22.45,6.8l10.33-14.38ZM85.82,460.16c.97-1.35,2.05-2.63,3.2-3.78,5.72-5.72,13.33-8.87,21.44-8.87,8.11,0,15.73,3.15,21.44,8.87,5.72,5.72,8.87,13.33,8.87,21.44s-3.15,15.73-8.87,21.44c-1.15,1.15-2.42,2.23-3.78,3.2l-12.61,9.05c2.02-3.98,3.09-8.42,3.09-13.02,0-7.71-3-14.95-8.43-20.39-5.44-5.44-12.68-8.43-20.39-8.43-4.6,0-9.03,1.07-13.01,3.09l9.04-12.6Z"
               id="path37" />
          </g>
        </g>
      </g>
      <path
         id="rect40"
         class="cls-3"
         style="fill:#f6b491"
         d="m -594.69055,-186.93385 354.90539,0 0,7.83 -354.64966,0 z"
         sodipodi:nodetypes="ccccc"
         transform="matrix(-0.70710678,-0.70710678,-0.70710678,0.70710678,0,0)" />
      <path
         id="rect40-5"
         class="cls-3"
         style="fill:#f6b491"
         d="M 43.970517,288.88329 294.92652,37.927277 300.46317,43.463923 49.687987,294.2391 Z"
         sodipodi:nodetypes="ccccc" />
      <path
         id="path41"
         class="cls-3"
         style="fill:#f6b491"
         d="M 43.970517,292.82229 294.92652,543.7783 300.46317,538.24165 49.687992,287.46648 Z"
         sodipodi:nodetypes="ccccc" />
      <path
         id="path42"
         class="cls-3"
         style="fill:#f6b491"
         d="m 552.69191,292.26653 -250.956,250.95601 -5.53665,-5.53664 250.77518,-250.77518 z"
         sodipodi:nodetypes="ccccc" />
    </g>
    <path
       class="cls-5"
       d="M365.68,268.18c6.08-16.11,2.97-29.32-7.35-34.91-5.63-10.31-18.04-13.04-34.96-7.49,1.29-21.03-7.55-37.29-23.47-50.81-16.33,13.23-24.82,29.77-23.92,50.87-16.11-6.08-29.32-2.97-34.91,7.35-10.31,5.63-13.04,18.04-7.49,34.96-21.03-1.29-37.29,7.55-50.81,23.47,13.23,16.33,29.77,24.82,50.87,23.92-6.08,16.11-2.97,29.32,7.35,34.91,5.63,10.31,18.04,13.04,34.96,7.49-1.29,21.03,7.55,37.29,23.47,50.81,16.33-13.23,24.82-29.77,23.92-50.87,16.11,6.08,29.32,2.97,34.91-7.35,10.31-5.63,13.04-18.04,7.49-34.96,21.03,1.29,37.29-7.55,50.81-23.47-13.23-16.33-29.77-24.82-50.87-23.92Z"
       id="path40" />
    <circle
       class="cls-1"
       cx="299.65"
       cy="291.86"
       r="44.13"
       id="circle40" />
  </g>
</svg>
