<?xml version="1.0" encoding="UTF-8"?>
<svg id="_圖層_2" data-name="圖層 2" xmlns="http://www.w3.org/2000/svg" xmlns:xlink="http://www.w3.org/1999/xlink" viewBox="0 0 661.78 489.72">
  <defs>
    <style>
      .cls-1 {
        fill: #fff;
      }

      .cls-2 {
        fill: #aacddf;
      }

      .cls-3 {
        fill: #f29119;
      }

      .cls-4 {
        clip-path: url(#clippath);
      }
    </style>
    <clipPath id="clippath">
      <polygon class="cls-1" points="330.71 429.82 587.79 172.78 73.63 172.78 330.71 429.82"/>
    </clipPath>
  </defs>
  <path class="cls-3" d="M167.55,30.11h326.68c66.6,0,120.66,54.07,120.66,120.66v308.84H46.89V150.77c0-66.6,54.07-120.66,120.66-120.66Z"/>
  <g>
    <polygon class="cls-1" points="330.71 429.82 587.79 172.78 73.63 172.78 330.71 429.82"/>
    <g class="cls-4">
      <g>
        <path class="cls-2" d="M397.92,406.33c6.08-16.11,2.97-29.32-7.35-34.91-5.63-10.31-18.04-13.04-34.96-7.49,1.29-21.03-7.55-37.29-23.47-50.81-16.33,13.23-24.82,29.77-23.92,50.87-16.11-6.08-29.32-2.97-34.91,7.35-10.31,5.63-13.04,18.04-7.49,34.96-21.03-1.29-37.29,7.55-50.81,23.47,13.23,16.33,29.77,24.82,50.87,23.92-6.08,16.11-2.97,29.32,7.35,34.91,5.63,10.31,18.04,13.04,34.96,7.49-1.29,21.03,7.55,37.29,23.47,50.81,16.33-13.23,24.82-29.77,23.92-50.87,16.11,6.08,29.32,2.97,34.91-7.35,10.31-5.63,13.04-18.04,7.49-34.96,21.03,1.29,37.29-7.55,50.81-23.47-13.23-16.33-29.77-24.82-50.87-23.92Z"/>
        <circle class="cls-1" cx="331.89" cy="430.01" r="44.13"/>
      </g>
    </g>
  </g>
</svg>