<?xml version="1.0" encoding="UTF-8"?>
<svg id="_圖層_1" data-name="圖層 1" xmlns="http://www.w3.org/2000/svg" viewBox="0 0 615.53 581.1">
  <defs>
    <style>
      .cls-1 {
        fill: #fff;
      }

      .cls-2 {
        fill: #bbbaba;
      }

      .cls-3 {
        fill: #5d8897;
      }

      .cls-4 {
        fill: #aacddf;
      }

      .cls-5 {
        fill: #ce6729;
      }

      .cls-6 {
        fill: #577f89;
      }

      .cls-7 {
        fill: #e8e8e8;
      }
    </style>
  </defs>
  <rect class="cls-7" x="-53.02" width="734.16" height="581.1"/>
  <g>
    <rect class="cls-1" x="43.86" y="33.13" width="510.24" height="510.24"/>
    <rect class="cls-2" x="553.9" y="33.13" width="13" height="523.96"/>
    <rect class="cls-2" x="296.85" y="291.1" width="13" height="518.97" transform="translate(853.94 247.24) rotate(90)"/>
  </g>
  <g>
    <g>
      <g>
        <path class="cls-3" d="M389.05,278.43c-2.27,1.27-4.5,1.88-6.92,2.38,15.04,3.73,31.42-3.37,44.47-10.36,6.02-3.23,11.83-7.36,15.06-13.56,3.1-5.94,3.9-13.16,1.44-19.47-4.79-12.26-20-18.08-31.06-10.01-9.59,7-8.97,20.59-10.89,31.08-.95,5.18-2.53,10.33-5.82,14.54-1.73,2.21-3.83,4.03-6.27,5.4Z"/>
        <path class="cls-3" d="M382.12,285.04c2.42.5,4.65,1.11,6.92,2.38,2.45,1.37,4.54,3.19,6.28,5.4,3.29,4.21,4.87,9.35,5.82,14.54,1.93,10.49,1.3,24.08,10.89,31.08,11.05,8.07,26.27,2.25,31.06-10.01,2.46-6.3,1.67-13.53-1.44-19.47-3.24-6.19-9.04-10.33-15.06-13.56-13.04-6.99-29.43-14.09-44.47-10.36Z"/>
        <path class="cls-4" d="M457.47,249.05c-3.92,3.22-6.79,7.48-10.23,11.16-3.49,3.73-7.53,6.93-11.82,9.7-7.73,4.99-16.25,8.55-24.79,11.92,12.46.12,24.94-1.57,36.86-5.26,9.71-3,22.5-7.29,26.95-17.42,1.99-4.54,1.86-10.81-3.32-13.1-4.6-2.04-9.99-.01-13.64,2.99Z"/>
        <path class="cls-4" d="M410.63,284.02c8.54,3.37,17.06,6.93,24.79,11.92,4.29,2.77,8.33,5.97,11.82,9.7,3.44,3.68,6.31,7.94,10.23,11.16,3.65,3,9.04,5.02,13.64,2.99,5.18-2.29,5.31-8.56,3.32-13.1-4.45-10.13-17.24-14.42-26.95-17.42-11.92-3.69-24.4-5.38-36.86-5.26Z"/>
        <path class="cls-6" d="M446.87,280.52c-4.98.9-9.99,1.82-15.03,2.6,5.05.78,10.06,1.69,15.03,2.6,13.57,2.46,28.71,4.93,42.93,2.66,4.53-.73,10.78-2.77,11.29-5.25-.51-2.48-6.76-4.53-11.29-5.25-14.22-2.28-29.36.19-42.93,2.66Z"/>
        <path class="cls-6" d="M299.19,284.57s0,.06,0,.09c4.32,0,8.64.03,12.95.1,20.04.33,39.19.12,60.07.53,1.94.04,2.26-3.76.25-3.85-11.38-.48-22.78-.47-34.16-.55-13.05-.09-26.1-.18-39.14-.27.05.73.09,1.47.09,2.21,0,.58-.02,1.16-.05,1.73Z"/>
        <path class="cls-5" d="M342.43,265.67c-.67,3.55,1.28,6.77,4.63,8.04,3.56,1.35,7.4-.8,9.14-3.96,1.44-2.61.72-5.29-1.06-7.13-1.39-1.76-3.74-2.81-5.99-2.7-3.28.16-6.11,2.5-6.72,5.76Z"/>
        <path class="cls-5" d="M343.49,295.35c-.52.96-.8,2-.85,3.04-.13,1.23.08,2.5.67,3.72,1.02,2.09,3.21,3.49,5.47,3.79,2.68.36,5.2-.83,6.7-3.09,2.68-4.04.54-9.86-4.34-10.77-2.96-.55-6.16.57-7.66,3.32Z"/>
      </g>
      <g>
        <path class="cls-3" d="M208.47,286.42c2.27-1.27,4.5-1.88,6.92-2.38-15.04-3.73-31.42,3.37-44.47,10.36-6.02,3.23-11.83,7.36-15.06,13.56-3.1,5.94-3.9,13.16-1.44,19.47,4.79,12.26,20,18.08,31.06,10.01,9.59-7,8.97-20.59,10.89-31.08.95-5.18,2.53-10.33,5.82-14.54,1.73-2.21,3.83-4.03,6.27-5.4Z"/>
        <path class="cls-3" d="M215.39,279.81c-2.42-.5-4.65-1.11-6.92-2.38-2.45-1.37-4.54-3.19-6.28-5.4-3.29-4.21-4.87-9.35-5.82-14.54-1.93-10.49-1.3-24.08-10.89-31.08-11.05-8.07-26.27-2.25-31.06,10.01-2.46,6.3-1.67,13.53,1.44,19.47,3.24,6.19,9.04,10.33,15.06,13.56,13.04,6.99,29.43,14.09,44.47,10.36Z"/>
        <path class="cls-4" d="M140.04,315.8c3.92-3.22,6.79-7.48,10.23-11.16,3.49-3.73,7.53-6.93,11.82-9.7,7.73-4.99,16.25-8.55,24.79-11.92-12.46-.12-24.94,1.57-36.86,5.26-9.71,3-22.5,7.29-26.95,17.42-1.99,4.54-1.86,10.81,3.32,13.1,4.6,2.04,9.99.01,13.64-2.99Z"/>
        <path class="cls-4" d="M186.88,280.84c-8.54-3.37-17.06-6.93-24.79-11.92-4.29-2.77-8.33-5.97-11.82-9.7-3.44-3.68-6.31-7.94-10.23-11.16-3.65-3-9.04-5.02-13.64-2.99-5.18,2.29-5.31,8.56-3.32,13.1,4.45,10.13,17.24,14.42,26.95,17.42,11.92,3.69,24.4,5.38,36.86,5.26Z"/>
        <path class="cls-6" d="M150.65,284.33c4.98-.9,9.99-1.82,15.03-2.6-5.05-.78-10.06-1.69-15.03-2.6-13.57-2.46-28.71-4.93-42.93-2.66-4.53.73-10.78,2.77-11.29,5.25.51,2.48,6.76,4.53,11.29,5.25,14.22,2.28,29.36-.19,42.93-2.66Z"/>
        <path class="cls-6" d="M298.32,280.29s0-.06,0-.09c-4.32,0-8.64-.03-12.95-.1-20.04-.33-39.19-.12-60.07-.53-1.94-.04-2.26,3.76-.25,3.85,11.38.48,22.78.47,34.16.55,13.05.09,26.1.18,39.14.27-.05-.73-.09-1.47-.09-2.21,0-.58.02-1.16.05-1.73Z"/>
        <path class="cls-5" d="M255.08,299.18c.67-3.55-1.28-6.77-4.63-8.04-3.56-1.35-7.4.8-9.14,3.96-1.44,2.61-.72,5.29,1.06,7.13,1.39,1.76,3.74,2.81,5.99,2.7,3.28-.16,6.11-2.5,6.72-5.76Z"/>
        <path class="cls-5" d="M254.02,269.5c.52-.96.8-2,.85-3.04.13-1.23-.08-2.5-.67-3.72-1.02-2.09-3.21-3.49-5.47-3.79-2.68-.36-5.2.83-6.7,3.09-2.68,4.04-.54,9.86,4.34,10.77,2.96.55,6.16-.57,7.66-3.32Z"/>
      </g>
    </g>
    <g>
      <g>
        <path class="cls-3" d="M294.76,192.78c1.27,2.27,1.88,4.5,2.38,6.92,3.73-15.04-3.37-31.42-10.36-44.47-3.23-6.02-7.36-11.83-13.56-15.06-5.94-3.1-13.16-3.9-19.47-1.44-12.26,4.79-18.08,20-10.01,31.06,7,9.59,20.59,8.97,31.08,10.89,5.18.95,10.33,2.53,14.54,5.82,2.21,1.73,4.03,3.83,5.4,6.27Z"/>
        <path class="cls-3" d="M301.37,199.7c.5-2.42,1.11-4.65,2.38-6.92,1.37-2.45,3.19-4.54,5.4-6.28,4.21-3.29,9.35-4.87,14.54-5.82,10.49-1.93,24.08-1.3,31.08-10.89,8.07-11.05,2.25-26.27-10.01-31.06-6.3-2.46-13.53-1.67-19.47,1.44-6.19,3.24-10.33,9.04-13.56,15.06-6.99,13.04-14.09,29.43-10.36,44.47Z"/>
        <path class="cls-4" d="M265.38,124.35c3.22,3.92,7.48,6.79,11.16,10.23,3.73,3.49,6.93,7.53,9.7,11.82,4.99,7.73,8.55,16.25,11.92,24.79.12-12.46-1.57-24.94-5.26-36.86-3-9.71-7.29-22.5-17.42-26.95-4.54-1.99-10.81-1.86-13.1,3.32-2.04,4.6-.01,9.99,2.99,13.64Z"/>
        <path class="cls-4" d="M300.35,171.19c3.37-8.54,6.93-17.06,11.92-24.79,2.77-4.29,5.97-8.33,9.7-11.82,3.68-3.44,7.94-6.31,11.16-10.23,3-3.65,5.02-9.04,2.99-13.64-2.29-5.18-8.56-5.31-13.1-3.32-10.13,4.45-14.42,17.24-17.42,26.95-3.69,11.92-5.38,24.4-5.26,36.86Z"/>
        <path class="cls-6" d="M296.85,134.96c.9,4.98,1.82,9.99,2.6,15.03.78-5.05,1.69-10.06,2.6-15.03,2.46-13.57,4.93-28.71,2.66-42.93-.73-4.53-2.77-10.78-5.25-11.29-2.48.51-4.53,6.76-5.25,11.29-2.28,14.22.19,29.36,2.66,42.93Z"/>
        <path class="cls-6" d="M300.9,282.63s.06,0,.09,0c0-4.32.03-8.64.1-12.95.33-20.04.12-39.19.53-60.07.04-1.94-3.76-2.26-3.85-.25-.48,11.38-.47,22.78-.55,34.16-.09,13.05-.18,26.1-.27,39.14.73-.05,1.47-.09,2.21-.09.58,0,1.16.02,1.73.05Z"/>
        <path class="cls-5" d="M282,239.39c3.55.67,6.77-1.28,8.04-4.63,1.35-3.56-.8-7.4-3.96-9.14-2.61-1.44-5.29-.72-7.13,1.06-1.76,1.39-2.81,3.74-2.7,5.99.16,3.28,2.5,6.11,5.76,6.72Z"/>
        <path class="cls-5" d="M311.68,238.33c.96.52,2,.8,3.04.85,1.23.13,2.5-.08,3.72-.67,2.09-1.02,3.49-3.21,3.79-5.47.36-2.68-.83-5.2-3.09-6.7-4.04-2.68-9.86-.54-10.77,4.34-.55,2.96.57,6.16,3.32,7.66Z"/>
      </g>
      <g>
        <path class="cls-3" d="M302.75,373.36c-1.27-2.27-1.88-4.5-2.38-6.92-3.73,15.04,3.37,31.42,10.36,44.47,3.23,6.02,7.36,11.83,13.56,15.06,5.94,3.1,13.16,3.9,19.47,1.44,12.26-4.79,18.08-20,10.01-31.06-7-9.59-20.59-8.97-31.08-10.89-5.18-.95-10.33-2.53-14.54-5.82-2.21-1.73-4.03-3.83-5.4-6.27Z"/>
        <path class="cls-3" d="M296.14,366.43c-.5,2.42-1.11,4.65-2.38,6.92-1.37,2.45-3.19,4.54-5.4,6.28-4.21,3.29-9.35,4.87-14.54,5.82-10.49,1.93-24.08,1.3-31.08,10.89-8.07,11.05-2.25,26.27,10.01,31.06,6.3,2.46,13.53,1.67,19.47-1.44,6.19-3.24,10.33-9.04,13.56-15.06,6.99-13.04,14.09-29.43,10.36-44.47Z"/>
        <path class="cls-4" d="M332.13,441.78c-3.22-3.92-7.48-6.79-11.16-10.23-3.73-3.49-6.93-7.53-9.7-11.82-4.99-7.73-8.55-16.25-11.92-24.79-.12,12.46,1.57,24.94,5.26,36.86,3,9.71,7.29,22.5,17.42,26.95,4.54,1.99,10.81,1.86,13.1-3.32,2.04-4.6.01-9.99-2.99-13.64Z"/>
        <path class="cls-4" d="M297.17,394.94c-3.37,8.54-6.93,17.06-11.92,24.79-2.77,4.29-5.97,8.33-9.7,11.82-3.68,3.44-7.94,6.31-11.16,10.23-3,3.65-5.02,9.04-2.99,13.64,2.29,5.18,8.56,5.31,13.1,3.32,10.13-4.45,14.42-17.24,17.42-26.95,3.69-11.92,5.38-24.4,5.26-36.86Z"/>
        <path class="cls-6" d="M300.66,431.18c-.9-4.98-1.82-9.99-2.6-15.03-.78,5.05-1.69,10.06-2.6,15.03-2.46,13.57-4.93,28.71-2.66,42.93.73,4.53,2.77,10.78,5.25,11.29,2.48-.51,4.53-6.76,5.25-11.29,2.28-14.22-.19-29.36-2.66-42.93Z"/>
        <path class="cls-6" d="M296.62,283.5s-.06,0-.09,0c0,4.32-.03,8.64-.1,12.95-.33,20.04-.12,39.19-.53,60.07-.04,1.94,3.76,2.26,3.85.25.48-11.38.47-22.78.55-34.16.09-13.05.18-26.1.27-39.14-.73.05-1.47.09-2.21.09-.58,0-1.16-.02-1.73-.05Z"/>
        <path class="cls-5" d="M315.51,326.74c-3.55-.67-6.77,1.28-8.04,4.63-1.35,3.56.8,7.4,3.96,9.14,2.61,1.44,5.29.72,7.13-1.06,1.76-1.39,2.81-3.74,2.7-5.99-.16-3.28-2.5-6.11-5.76-6.72Z"/>
        <path class="cls-5" d="M285.84,327.8c-.96-.52-2-.8-3.04-.85-1.23-.13-2.5.08-3.72.67-2.09,1.02-3.49,3.21-3.79,5.47-.36,2.68.83,5.2,3.09,6.7,4.04,2.68,9.86.54,10.77-4.34.55-2.96-.57-6.16-3.32-7.66Z"/>
      </g>
    </g>
  </g>
</svg>