<?xml version="1.0" encoding="utf-8"?>
<svg xmlns="http://www.w3.org/2000/svg" viewBox="100 61.507 1000 338.493" width="1000" height="338.493"><g transform="matrix(0.16448000073432922, 0, 0, 0.16448000073432922, 602.7624511718749, 300.29766845703125)" style=""><rect x="-3664.7" y="370.986" width="1971.92" height="527.955" style="fill: rgb(192, 255, 151); stroke-width: 1;" transform="matrix(1, 0, 0, -1, 0, 0)" rx="263.978" ry="263.978"/><rect x="39.232" y="96.821" width="99.643" height="206.881" style="fill: rgb(123, 86, 57); stroke-width: 1;" rx="49.821" ry="49.821" transform="matrix(0.555871, 0.831268, -0.831268, 0.555871, 1076.261311, -1274.09323)"/><rect x="39.232" y="104.73" width="99.643" height="223.781" style="fill: rgb(123, 86, 57); stroke-width: 1;" rx="49.821" ry="49.821" transform="matrix(-0.093415, 0.995627, -0.995627, -0.093415, 1058.161454, -1130.621236)"/><rect x="199.041" y="707.179" width="438.743" height="262.336" style="fill: rgb(49, 48, 49);" transform="matrix(-0.006609, -0.999978, 0.999978, -0.006609, 558.880449, -695.977822)" rx="89.288" ry="89.288"/><rect x="977.103" y="-1241.5" width="261.869" height="428.845" style="fill: rgb(107, 65, 34);" rx="86.004" ry="86.004" transform="matrix(0.947831, -0.318773, 0.318773, 0.947831, 429.388313, 334.278052)"/><rect x="-1.763" y="150.443" width="73.073" height="98.034" style="fill: rgb(107, 65, 34);" rx="86.004" ry="86.004" transform="matrix(-0.318773, -0.947831, 0.947831, -0.318773, 880.975721, -1085.035239)"/><rect x="39.232" y="96.821" width="99.643" height="206.881" style="fill: rgb(123, 86, 57);" rx="49.821" ry="49.821" transform="matrix(0.903404, 0.42879, -0.42879, 0.903404, 1149.558614, -1317.750649)"/><rect x="39.232" y="104.73" width="99.643" height="223.781" style="fill: rgb(123, 86, 57);" rx="49.821" ry="49.821" transform="matrix(0.43017, 0.902748, -0.902748, 0.43017, 1207.56458, -1185.28476)"/><g transform="matrix(0.947831, -0.318773, 0.318773, 0.947831, 877.162992, -1419.341568)" style=""><path d="M -4.061 136.221 L 0.958 136.221 C 1.971 120.887 14.728 108.762 30.318 108.762 L 41.476 108.762 C 39.5 89.215 38.352 66.9 55.16 51.049 C 73.163 34.139 91.762 43.843 88.578 69.046 C 85.99 89.586 72.968 100.788 59.854 108.762 L 175.406 108.762 C 179.302 108.762 183.018 109.519 186.422 110.893 C 190.88 92.264 197.103 71.569 217.823 63.299 C 240.189 54.418 254.515 70.3 243.367 92.354 C 233.108 112.673 214.188 117.015 197.79 119.091 C 202.178 124.232 204.826 130.896 204.826 138.182 L 204.826 257.824 C 204.826 274.072 191.652 287.245 175.406 287.245 L -4.061 287.245 C -20.309 287.245 -33.482 274.072 -33.482 257.824 L -33.482 165.642 C -33.482 149.394 -20.309 136.221 -4.061 136.221 Z" style="fill: rgb(123, 86, 57);"/><polygon style="fill: rgb(232, 230, 196);" points="14.573 220.561 -32.078 257.8 0.843 310.588 35.223 310.588 66.549 257.353"/><line style="fill: none; stroke-width: 3.04621px; stroke: rgb(151, 149, 126); stroke-linecap: round; stroke-linejoin: round;" x1="14.573" y1="221.539" x2="14.573" y2="311.431"/><path d="M 158.737 160.737 C 158.737 171.569 149.951 180.355 139.12 180.355 C 128.288 180.355 119.508 171.569 119.508 160.737 C 119.508 149.906 128.288 141.125 139.12 141.125 C 149.951 141.125 158.737 149.906 158.737 160.737 Z" style=""/><path d="M 29.546 214.027 C 19.563 226.303 9.578 226.303 -0.401 214.027 L -34.716 171.83 C -44.7 159.559 -39.71 153.421 -19.747 153.421 L 48.888 153.421 C 68.85 153.421 73.845 159.559 63.861 171.83 L 29.546 214.027 Z" style=""/><circle style="fill: rgb(255, 255, 255);" cx="148.929" cy="150.929" r="9.808"/><circle style="stroke-linejoin: round; stroke-linecap: round; fill: rgb(123, 86, 57);" cx="158.108" cy="190.482" r="25.058"/><path style="fill: none; stroke-linejoin: round; stroke-linecap: round; stroke: rgb(0, 0, 0); stroke-width: 11.928px;" d="M 119.708 85.116 C 141.953 85.116 159.529 103.991 157.954 126.176" transform="matrix(0.749981, -0.661459, 0.661459, 0.749981, -35.157829, 118.27702)"/></g></g><rect x="506.029" y="-240.04" width="593.967" height="86.838" style="fill: rgb(192, 255, 151);" transform="matrix(1, 0, 0, -1, 0, 0)" rx="43.419" ry="43.419"/><rect x="100" y="200" width="999.996" height="200" style="fill: rgb(0, 202, 203);"/><rect x="100" y="307.413" width="1000" height="92.587" style="fill: rgb(231, 232, 137);"/><rect x="6.453" y="15.925" width="16.389" height="34.028" style="fill: rgb(123, 86, 57);" rx="8.194" ry="8.194" transform="matrix(-0.522818, -0.852444, 0.852444, -0.522818, 978.713975, 239.13594)"/><rect x="6.453" y="15.925" width="16.389" height="34.028" style="fill: rgb(123, 86, 57);" rx="8.194" ry="8.194" transform="matrix(0.786534, -0.617547, 0.617547, 0.786534, 952.5147, 189.71105)"/><ellipse style="fill: rgb(0, 202, 203);" cx="216.088" cy="297.585" rx="103.742" ry="17.108"/><ellipse style="fill: rgb(0, 202, 203);" cx="441.088" cy="297.585" rx="103.742" ry="17.108"/><ellipse style="fill: rgb(0, 202, 203);" cx="687.885" cy="299.523" rx="85.414" ry="19.046"/><ellipse style="fill: rgb(0, 202, 203);" cx="919.735" cy="298.677" rx="101.943" ry="18.2"/><ellipse style="fill: rgb(0, 202, 203);" cx="1156.36" cy="297.585" rx="109.202" ry="17.108"/><path style="fill: rgb(255, 255, 255);" d="M 1100 309.323 C 1113.49 314.289 1113.49 321.885 1100 316.918 C 1086.59 311.975 1056.71 307.595 1033.78 307.595 L 1033.33 307.712 C 1010.48 307.828 989.052 310.675 974.995 315.462 C 960.948 320.25 939.509 323.096 916.66 323.209 C 893.618 323.321 871.812 320.429 858.335 315.462 C 844.915 310.519 823.38 307.595 800.444 307.595 L 800 307.712 L 800 308.119 C 777.151 308.235 755.722 311.082 741.665 315.869 C 727.618 320.657 706.179 323.503 683.33 323.616 C 660.278 323.728 638.482 320.836 624.995 315.869 C 611.585 310.926 590.05 308.002 567.114 308.002 L 566.67 308.119 C 543.821 308.235 522.382 311.082 508.335 315.869 C 494.278 320.657 472.849 323.503 450 323.616 C 426.948 323.728 405.152 320.836 391.665 315.869 C 378.246 310.926 356.71 308.002 333.784 308.002 L 333.33 308.119 C 310.481 308.235 289.052 311.082 274.995 315.869 C 260.948 320.657 239.509 323.503 216.66 323.616 C 193.618 323.728 171.812 320.836 158.335 315.869 C 144.915 310.926 123.38 308.002 100.444 308.002 L 100 308.119 L 100 300.528 L 100.444 300.407 C 123.38 300.407 144.915 303.335 158.335 308.274 C 171.812 313.24 193.618 316.134 216.66 316.017 C 239.509 315.908 260.948 313.061 274.995 308.274 C 289.052 303.487 310.481 300.641 333.33 300.528 L 333.784 300.407 C 356.71 300.407 378.246 303.335 391.665 308.274 C 405.152 313.24 426.948 316.134 450 316.017 C 472.849 315.908 494.278 313.061 508.335 308.274 C 522.382 303.487 543.821 300.641 566.67 300.528 L 567.114 300.407 C 590.05 300.407 611.585 303.335 624.995 308.274 C 638.482 313.24 660.278 316.134 683.33 316.017 C 706.179 315.908 727.618 313.061 741.665 308.274 C 755.722 303.487 777.151 300.641 800 300.528 L 800 300.121 L 800.444 300 C 823.38 300 844.915 302.928 858.335 307.867 C 871.812 312.833 893.618 315.727 916.66 315.61 C 939.509 315.501 960.948 312.654 974.995 307.867 C 989.052 303.08 1010.48 300.234 1033.33 300.121 L 1033.78 300 C 1056.71 300 1086.59 304.384 1100 309.323 Z"/><g style="" transform="matrix(0.7917189598083496, 0, 0, 0.7917189598083496, 208.28109741210935, 49.2205810546875)"><g transform="matrix(0.750854, 0, 0, 0.750854, 92.387932, 202.351227)" style=""><path d="M 739.994 -36.313 C 739.994 -19.457 734.679 -5.722 728.031 -5.113 L 728.031 -5.092 L 552.239 -5.092 L 552.239 -67.534 L 728.031 -67.534 L 728.031 -67.513 C 734.679 -66.904 739.994 -53.168 739.994 -36.313 Z" style="fill: rgb(93, 42, 0); stroke-width: 0.624;" transform="matrix(0, 1, -1, 0, 603.680956, -676.306943)"/><circle style="fill: rgb(199, 160, 124);" cx="438.093" cy="580.908" r="50" transform="matrix(0, 0.248465, -0.624424, 0, 1002.727836, -232.739466)"/><path d="M 562.299 -36.313 C 562.299 -22.593 557.879 -11.47 552.419 -11.47 C 546.959 -11.47 542.529 -22.593 542.529 -36.313 C 542.529 -50.034 546.959 -61.156 552.419 -61.156 C 557.879 -61.156 562.299 -50.034 562.299 -36.313 Z M 552.419 -58.75 C 547.489 -58.75 543.489 -48.705 543.489 -36.313 C 543.489 -23.921 547.489 -13.876 552.419 -13.876 C 557.349 -13.876 561.349 -23.921 561.349 -36.313 C 561.349 -48.705 557.349 -58.75 552.419 -58.75 Z M 558.629 -36.313 C 558.629 -27.685 555.849 -20.69 552.419 -20.69 C 548.989 -20.69 546.199 -27.685 546.199 -36.313 C 546.199 -44.941 548.989 -51.936 552.419 -51.936 C 555.849 -51.936 558.629 -44.941 558.629 -36.313 Z M 552.419 -49.221 C 549.579 -49.221 547.279 -43.442 547.279 -36.313 C 547.279 -29.184 549.579 -23.405 552.419 -23.405 C 555.249 -23.405 557.559 -29.184 557.559 -36.313 C 557.559 -43.442 555.249 -49.221 552.419 -49.221 Z" style="fill: rgb(178, 134, 93); stroke-width: 0.624;" transform="matrix(0, 1, -1, 0, 603.680956, -676.306943)"/></g><g transform="matrix(0.750854, 0, 0, 0.750854, 138.43927, 202.351227)" style=""><path d="M 739.994 -36.313 C 739.994 -19.457 734.679 -5.722 728.031 -5.113 L 728.031 -5.092 L 552.239 -5.092 L 552.239 -67.534 L 728.031 -67.534 L 728.031 -67.513 C 734.679 -66.904 739.994 -53.168 739.994 -36.313 Z" style="stroke-width: 0.624; fill: rgb(149, 67, 0);" transform="matrix(0, 1, -1, 0, 603.680956, -676.306943)"/><circle style="fill: rgb(199, 160, 124);" cx="438.093" cy="580.908" r="50" transform="matrix(0, 0.248465, -0.624424, 0, 1002.727836, -232.739466)"/><path d="M 562.299 -36.313 C 562.299 -22.593 557.879 -11.47 552.419 -11.47 C 546.959 -11.47 542.529 -22.593 542.529 -36.313 C 542.529 -50.034 546.959 -61.156 552.419 -61.156 C 557.879 -61.156 562.299 -50.034 562.299 -36.313 Z M 552.419 -58.75 C 547.489 -58.75 543.489 -48.705 543.489 -36.313 C 543.489 -23.921 547.489 -13.876 552.419 -13.876 C 557.349 -13.876 561.349 -23.921 561.349 -36.313 C 561.349 -48.705 557.349 -58.75 552.419 -58.75 Z M 558.629 -36.313 C 558.629 -27.685 555.849 -20.69 552.419 -20.69 C 548.989 -20.69 546.199 -27.685 546.199 -36.313 C 546.199 -44.941 548.989 -51.936 552.419 -51.936 C 555.849 -51.936 558.629 -44.941 558.629 -36.313 Z M 552.419 -49.221 C 549.579 -49.221 547.279 -43.442 547.279 -36.313 C 547.279 -29.184 549.579 -23.405 552.419 -23.405 C 555.249 -23.405 557.559 -29.184 557.559 -36.313 C 557.559 -43.442 555.249 -49.221 552.419 -49.221 Z" style="fill: rgb(178, 134, 93); stroke-width: 0.624;" transform="matrix(0, 1, -1, 0, 603.680956, -676.306943)"/></g><g transform="matrix(0.750854, 0, 0, 0.750854, 184.490677, 202.351227)" style=""><path d="M 739.994 -36.313 C 739.994 -19.457 734.679 -5.722 728.031 -5.113 L 728.031 -5.092 L 552.239 -5.092 L 552.239 -67.534 L 728.031 -67.534 L 728.031 -67.513 C 734.679 -66.904 739.994 -53.168 739.994 -36.313 Z" style="fill: rgb(93, 42, 0); stroke-width: 0.624;" transform="matrix(0, 1, -1, 0, 603.680956, -676.306943)"/><circle style="fill: rgb(199, 160, 124);" cx="438.093" cy="580.908" r="50" transform="matrix(0, 0.248465, -0.624424, 0, 1002.727836, -232.739466)"/><path d="M 562.299 -36.313 C 562.299 -22.593 557.879 -11.47 552.419 -11.47 C 546.959 -11.47 542.529 -22.593 542.529 -36.313 C 542.529 -50.034 546.959 -61.156 552.419 -61.156 C 557.879 -61.156 562.299 -50.034 562.299 -36.313 Z M 552.419 -58.75 C 547.489 -58.75 543.489 -48.705 543.489 -36.313 C 543.489 -23.921 547.489 -13.876 552.419 -13.876 C 557.349 -13.876 561.349 -23.921 561.349 -36.313 C 561.349 -48.705 557.349 -58.75 552.419 -58.75 Z M 558.629 -36.313 C 558.629 -27.685 555.849 -20.69 552.419 -20.69 C 548.989 -20.69 546.199 -27.685 546.199 -36.313 C 546.199 -44.941 548.989 -51.936 552.419 -51.936 C 555.849 -51.936 558.629 -44.941 558.629 -36.313 Z M 552.419 -49.221 C 549.579 -49.221 547.279 -43.442 547.279 -36.313 C 547.279 -29.184 549.579 -23.405 552.419 -23.405 C 555.249 -23.405 557.559 -29.184 557.559 -36.313 C 557.559 -43.442 555.249 -49.221 552.419 -49.221 Z" style="fill: rgb(178, 134, 93); stroke-width: 0.624;" transform="matrix(0, 1, -1, 0, 603.680956, -676.306943)"/></g><g transform="matrix(0.750854, 0, 0, 0.750854, 230.542007, 202.351227)" style=""><path d="M 739.994 -36.313 C 739.994 -19.457 734.679 -5.722 728.031 -5.113 L 728.031 -5.092 L 552.239 -5.092 L 552.239 -67.534 L 728.031 -67.534 L 728.031 -67.513 C 734.679 -66.904 739.994 -53.168 739.994 -36.313 Z" style="stroke-width: 0.624; fill: rgb(149, 67, 0);" transform="matrix(0, 1, -1, 0, 603.680956, -676.306943)"/><circle style="fill: rgb(199, 160, 124);" cx="438.093" cy="580.908" r="50" transform="matrix(0, 0.248465, -0.624424, 0, 1002.727836, -232.739466)"/><path d="M 562.299 -36.313 C 562.299 -22.593 557.879 -11.47 552.419 -11.47 C 546.959 -11.47 542.529 -22.593 542.529 -36.313 C 542.529 -50.034 546.959 -61.156 552.419 -61.156 C 557.879 -61.156 562.299 -50.034 562.299 -36.313 Z M 552.419 -58.75 C 547.489 -58.75 543.489 -48.705 543.489 -36.313 C 543.489 -23.921 547.489 -13.876 552.419 -13.876 C 557.349 -13.876 561.349 -23.921 561.349 -36.313 C 561.349 -48.705 557.349 -58.75 552.419 -58.75 Z M 558.629 -36.313 C 558.629 -27.685 555.849 -20.69 552.419 -20.69 C 548.989 -20.69 546.199 -27.685 546.199 -36.313 C 546.199 -44.941 548.989 -51.936 552.419 -51.936 C 555.849 -51.936 558.629 -44.941 558.629 -36.313 Z M 552.419 -49.221 C 549.579 -49.221 547.279 -43.442 547.279 -36.313 C 547.279 -29.184 549.579 -23.405 552.419 -23.405 C 555.249 -23.405 557.559 -29.184 557.559 -36.313 C 557.559 -43.442 555.249 -49.221 552.419 -49.221 Z" style="fill: rgb(178, 134, 93); stroke-width: 0.624;" transform="matrix(0, 1, -1, 0, 603.680956, -676.306943)"/></g><g transform="matrix(0.750854, 0, 0, 0.750854, 276.67688, 202.351227)" style=""><path d="M 739.994 -36.313 C 739.994 -19.457 734.679 -5.722 728.031 -5.113 L 728.031 -5.092 L 552.239 -5.092 L 552.239 -67.534 L 728.031 -67.534 L 728.031 -67.513 C 734.679 -66.904 739.994 -53.168 739.994 -36.313 Z" style="fill: rgb(93, 42, 0); stroke-width: 0.624;" transform="matrix(0, 1, -1, 0, 603.680956, -676.306943)"/><circle style="fill: rgb(199, 160, 124);" cx="438.093" cy="580.908" r="50" transform="matrix(0, 0.248465, -0.624424, 0, 1002.727836, -232.739466)"/><path d="M 562.299 -36.313 C 562.299 -22.593 557.879 -11.47 552.419 -11.47 C 546.959 -11.47 542.529 -22.593 542.529 -36.313 C 542.529 -50.034 546.959 -61.156 552.419 -61.156 C 557.879 -61.156 562.299 -50.034 562.299 -36.313 Z M 552.419 -58.75 C 547.489 -58.75 543.489 -48.705 543.489 -36.313 C 543.489 -23.921 547.489 -13.876 552.419 -13.876 C 557.349 -13.876 561.349 -23.921 561.349 -36.313 C 561.349 -48.705 557.349 -58.75 552.419 -58.75 Z M 558.629 -36.313 C 558.629 -27.685 555.849 -20.69 552.419 -20.69 C 548.989 -20.69 546.199 -27.685 546.199 -36.313 C 546.199 -44.941 548.989 -51.936 552.419 -51.936 C 555.849 -51.936 558.629 -44.941 558.629 -36.313 Z M 552.419 -49.221 C 549.579 -49.221 547.279 -43.442 547.279 -36.313 C 547.279 -29.184 549.579 -23.405 552.419 -23.405 C 555.249 -23.405 557.559 -29.184 557.559 -36.313 C 557.559 -43.442 555.249 -49.221 552.419 -49.221 Z" style="fill: rgb(178, 134, 93); stroke-width: 0.624;" transform="matrix(0, 1, -1, 0, 603.680956, -676.306943)"/></g><rect x="849.833" y="136.87" width="89.034" height="101.291" rx="15" ry="15" style=""/><g transform="matrix(0.750854, 0, 0, 0.750854, 322.72821, 202.351227)" style=""><path d="M 739.994 -36.313 C 739.994 -19.457 734.679 -5.722 728.031 -5.113 L 728.031 -5.092 L 552.239 -5.092 L 552.239 -67.534 L 728.031 -67.534 L 728.031 -67.513 C 734.679 -66.904 739.994 -53.168 739.994 -36.313 Z" style="stroke-width: 0.624; fill: rgb(149, 67, 0);" transform="matrix(0, 1, -1, 0, 603.680956, -676.306943)"/><circle style="fill: rgb(199, 160, 124);" cx="438.093" cy="580.908" r="50" transform="matrix(0, 0.248465, -0.624424, 0, 1002.727836, -232.739466)"/><path d="M 562.299 -36.313 C 562.299 -22.593 557.879 -11.47 552.419 -11.47 C 546.959 -11.47 542.529 -22.593 542.529 -36.313 C 542.529 -50.034 546.959 -61.156 552.419 -61.156 C 557.879 -61.156 562.299 -50.034 562.299 -36.313 Z M 552.419 -58.75 C 547.489 -58.75 543.489 -48.705 543.489 -36.313 C 543.489 -23.921 547.489 -13.876 552.419 -13.876 C 557.349 -13.876 561.349 -23.921 561.349 -36.313 C 561.349 -48.705 557.349 -58.75 552.419 -58.75 Z M 558.629 -36.313 C 558.629 -27.685 555.849 -20.69 552.419 -20.69 C 548.989 -20.69 546.199 -27.685 546.199 -36.313 C 546.199 -44.941 548.989 -51.936 552.419 -51.936 C 555.849 -51.936 558.629 -44.941 558.629 -36.313 Z M 552.419 -49.221 C 549.579 -49.221 547.279 -43.442 547.279 -36.313 C 547.279 -29.184 549.579 -23.405 552.419 -23.405 C 555.249 -23.405 557.559 -29.184 557.559 -36.313 C 557.559 -43.442 555.249 -49.221 552.419 -49.221 Z" style="fill: rgb(178, 134, 93); stroke-width: 0.624;" transform="matrix(0, 1, -1, 0, 603.680956, -676.306943)"/><g transform="matrix(0.94861, -0.316448, 0.316448, 0.94861, 245.125918, 205.399125)" style=""><path d="M 739.994 -36.313 C 739.994 -19.457 734.679 -5.722 728.031 -5.113 L 728.031 -5.092 L 552.239 -5.092 L 552.239 -67.534 L 728.031 -67.534 L 728.031 -67.513 C 734.679 -66.904 739.994 -53.168 739.994 -36.313 Z" style="fill: rgb(93, 42, 0); stroke-width: 0.624;" transform="matrix(0, 1, -1, 0, 603.680956, -676.306943)"/><circle style="fill: rgb(199, 160, 124);" cx="438.093" cy="580.908" r="50" transform="matrix(0, 0.248465, -0.624424, 0, 1002.727836, -232.739466)"/><path d="M 562.299 -36.313 C 562.299 -22.593 557.879 -11.47 552.419 -11.47 C 546.959 -11.47 542.529 -22.593 542.529 -36.313 C 542.529 -50.034 546.959 -61.156 552.419 -61.156 C 557.879 -61.156 562.299 -50.034 562.299 -36.313 Z M 552.419 -58.75 C 547.489 -58.75 543.489 -48.705 543.489 -36.313 C 543.489 -23.921 547.489 -13.876 552.419 -13.876 C 557.349 -13.876 561.349 -23.921 561.349 -36.313 C 561.349 -48.705 557.349 -58.75 552.419 -58.75 Z M 558.629 -36.313 C 558.629 -27.685 555.849 -20.69 552.419 -20.69 C 548.989 -20.69 546.199 -27.685 546.199 -36.313 C 546.199 -44.941 548.989 -51.936 552.419 -51.936 C 555.849 -51.936 558.629 -44.941 558.629 -36.313 Z M 552.419 -49.221 C 549.579 -49.221 547.279 -43.442 547.279 -36.313 C 547.279 -29.184 549.579 -23.405 552.419 -23.405 C 555.249 -23.405 557.559 -29.184 557.559 -36.313 C 557.559 -43.442 555.249 -49.221 552.419 -49.221 Z" style="fill: rgb(178, 134, 93); stroke-width: 0.624;" transform="matrix(0, 1, -1, 0, 603.680956, -676.306943)"/></g></g><g transform="matrix(0.750854, 0, 0, 0.750854, 368.779633, 202.351227)" style=""><path d="M 739.994 -36.313 C 739.994 -19.457 734.679 -5.722 728.031 -5.113 L 728.031 -5.092 L 552.239 -5.092 L 552.239 -67.534 L 728.031 -67.534 L 728.031 -67.513 C 734.679 -66.904 739.994 -53.168 739.994 -36.313 Z" style="fill: rgb(93, 42, 0); stroke-width: 0.624;" transform="matrix(0, 1, -1, 0, 603.680956, -676.306943)"/><circle style="fill: rgb(199, 160, 124);" cx="438.093" cy="580.908" r="50" transform="matrix(0, 0.248465, -0.624424, 0, 1002.727836, -232.739466)"/><path d="M 562.299 -36.313 C 562.299 -22.593 557.879 -11.47 552.419 -11.47 C 546.959 -11.47 542.529 -22.593 542.529 -36.313 C 542.529 -50.034 546.959 -61.156 552.419 -61.156 C 557.879 -61.156 562.299 -50.034 562.299 -36.313 Z M 552.419 -58.75 C 547.489 -58.75 543.489 -48.705 543.489 -36.313 C 543.489 -23.921 547.489 -13.876 552.419 -13.876 C 557.349 -13.876 561.349 -23.921 561.349 -36.313 C 561.349 -48.705 557.349 -58.75 552.419 -58.75 Z M 558.629 -36.313 C 558.629 -27.685 555.849 -20.69 552.419 -20.69 C 548.989 -20.69 546.199 -27.685 546.199 -36.313 C 546.199 -44.941 548.989 -51.936 552.419 -51.936 C 555.849 -51.936 558.629 -44.941 558.629 -36.313 Z M 552.419 -49.221 C 549.579 -49.221 547.279 -43.442 547.279 -36.313 C 547.279 -29.184 549.579 -23.405 552.419 -23.405 C 555.249 -23.405 557.559 -29.184 557.559 -36.313 C 557.559 -43.442 555.249 -49.221 552.419 -49.221 Z" style="fill: rgb(178, 134, 93); stroke-width: 0.624;" transform="matrix(0, 1, -1, 0, 603.680956, -676.306943)"/></g><g transform="matrix(0.650258, -0.375427, 0.375427, 0.650258, 516.204094, 440.630974)" style=""><path d="M 739.994 -36.313 C 739.994 -19.457 734.679 -5.722 728.031 -5.113 L 728.031 -5.092 L 552.239 -5.092 L 552.239 -67.534 L 728.031 -67.534 L 728.031 -67.513 C 734.679 -66.904 739.994 -53.168 739.994 -36.313 Z" style="stroke-width: 0.624; fill: rgb(149, 67, 0);" transform="matrix(0, 1, -1, 0, 603.680956, -676.306943)"/><circle style="fill: rgb(199, 160, 124);" cx="438.093" cy="580.908" r="50" transform="matrix(0, 0.248465, -0.624424, 0, 1002.727836, -232.739466)"/><path d="M 562.299 -36.313 C 562.299 -22.593 557.879 -11.47 552.419 -11.47 C 546.959 -11.47 542.529 -22.593 542.529 -36.313 C 542.529 -50.034 546.959 -61.156 552.419 -61.156 C 557.879 -61.156 562.299 -50.034 562.299 -36.313 Z M 552.419 -58.75 C 547.489 -58.75 543.489 -48.705 543.489 -36.313 C 543.489 -23.921 547.489 -13.876 552.419 -13.876 C 557.349 -13.876 561.349 -23.921 561.349 -36.313 C 561.349 -48.705 557.349 -58.75 552.419 -58.75 Z M 558.629 -36.313 C 558.629 -27.685 555.849 -20.69 552.419 -20.69 C 548.989 -20.69 546.199 -27.685 546.199 -36.313 C 546.199 -44.941 548.989 -51.936 552.419 -51.936 C 555.849 -51.936 558.629 -44.941 558.629 -36.313 Z M 552.419 -49.221 C 549.579 -49.221 547.279 -43.442 547.279 -36.313 C 547.279 -29.184 549.579 -23.405 552.419 -23.405 C 555.249 -23.405 557.559 -29.184 557.559 -36.313 C 557.559 -43.442 555.249 -49.221 552.419 -49.221 Z" style="fill: rgb(178, 134, 93); stroke-width: 0.624;" transform="matrix(0, 1, -1, 0, 603.680956, -676.306943)"/></g><g transform="matrix(0, 0.750854, 0.750854, 0, 1060.636833, -301.36948)" style=""><path d="M 739.139 -726.18 C 739.139 -709.32 733.824 -695.59 727.176 -694.98 L 727.176 -694.96 L 551.384 -694.96 L 551.384 -757.4 L 727.176 -757.4 L 727.176 -757.38 C 733.824 -756.77 739.139 -743.03 739.139 -726.18 Z" style="stroke-width: 0.624; fill: rgb(149, 67, 0);" transform="matrix(0.970059, -0.24287, 0.24287, 0.970059, 195.504269, 133.485111)"/><circle style="fill: rgb(199, 160, 124);" cx="438.093" cy="580.908" r="50" transform="matrix(0.241026, -0.060345, 0.151654, 0.605728, 360.495514, -1030.3493)"/><path d="M 561.444 -726.18 C 561.444 -712.46 557.024 -701.34 551.564 -701.34 C 546.104 -701.34 541.674 -712.46 541.674 -726.18 C 541.674 -739.9 546.104 -751.02 551.564 -751.02 C 557.024 -751.02 561.444 -739.9 561.444 -726.18 Z M 551.564 -748.62 C 546.634 -748.62 542.634 -738.57 542.634 -726.18 C 542.634 -713.79 546.634 -703.74 551.564 -703.74 C 556.494 -703.74 560.494 -713.79 560.494 -726.18 C 560.494 -738.57 556.494 -748.62 551.564 -748.62 Z M 557.774 -726.18 C 557.774 -717.55 554.994 -710.55 551.564 -710.55 C 548.134 -710.55 545.344 -717.55 545.344 -726.18 C 545.344 -734.81 548.134 -741.8 551.564 -741.8 C 554.994 -741.8 557.774 -734.81 557.774 -726.18 Z M 551.564 -739.09 C 548.724 -739.09 546.424 -733.31 546.424 -726.18 C 546.424 -719.05 548.724 -713.27 551.564 -713.27 C 554.394 -713.27 556.704 -719.05 556.704 -726.18 C 556.704 -733.31 554.394 -739.09 551.564 -739.09 Z" style="fill: rgb(178, 134, 93); stroke-width: 0.624;" transform="matrix(0.970059, -0.24287, 0.24287, 0.970059, 195.504269, 133.485111)"/></g></g><g style="" transform="matrix(0.6539710164070129, 0, 0, 0.6539710164070129, 446.0289611816406, 274.4076232910156)"><g><g transform="matrix(0.274864, 0, 0, 0.274864, 110.581375, 170.434875)" style=""/><g transform="matrix(0.233878, 0, 0, 0.233878, 374.135071, 202.003754)" style=""><g/></g></g><g><g transform="matrix(0.251509, 0, 0, 0.251509, 604.773376, 188.423294)" style=""><rect x="199.041" y="707.179" width="438.743" height="262.336" style="fill: rgb(49, 48, 49);" transform="matrix(0.312501, -0.949917, 0.949917, 0.312501, 451.154517, -935.230788)" rx="89.288" ry="89.288"/><rect x="977.103" y="-1241.5" width="261.869" height="428.845" style="fill: rgb(107, 65, 34);" rx="86.004" ry="86.004"/><rect x="-1.763" y="150.443" width="73.073" height="98.034" style="fill: rgb(107, 65, 34);" rx="86.004" ry="86.004" transform="matrix(0, -1, 1, 0, 880.466871, -1201.315692)"/><rect x="39.232" y="96.821" width="99.643" height="206.881" style="fill: rgb(123, 86, 57);" rx="49.821" ry="49.821" transform="matrix(0.719588, 0.694401, -0.694401, 0.719588, 1209.221466, -1336.273689)"/><rect x="39.232" y="104.73" width="99.643" height="223.781" style="fill: rgb(123, 86, 57);" rx="49.821" ry="49.821" transform="matrix(0.119957, 0.992779, -0.992779, 0.119957, 1221.974374, -1192.227588)"/><g transform="matrix(1, 0, 0, 1, 983.421096, -1519.397117)"><path d="M -4.061 136.221 L 0.958 136.221 C 1.971 120.887 14.728 108.762 30.318 108.762 L 41.476 108.762 C 39.5 89.215 38.352 66.9 55.16 51.049 C 73.163 34.139 91.762 43.843 88.578 69.046 C 85.99 89.586 72.968 100.788 59.854 108.762 L 175.406 108.762 C 179.302 108.762 183.018 109.519 186.422 110.893 C 190.88 92.264 197.103 71.569 217.823 63.299 C 240.189 54.418 254.515 70.3 243.367 92.354 C 233.108 112.673 214.188 117.015 197.79 119.091 C 202.178 124.232 204.826 130.896 204.826 138.182 L 204.826 257.824 C 204.826 274.072 191.652 287.245 175.406 287.245 L -4.061 287.245 C -20.309 287.245 -33.482 274.072 -33.482 257.824 L -33.482 165.642 C -33.482 149.394 -20.309 136.221 -4.061 136.221 Z" style="fill: rgb(123, 86, 57);"/><polygon style="fill: rgb(232, 230, 196);" points="14.573 220.561 -32.078 257.8 0.843 310.588 35.223 310.588 66.549 257.353"/><line style="fill: none; stroke-width: 3.04621px; stroke: rgb(151, 149, 126); stroke-linecap: round; stroke-linejoin: round;" x1="14.573" y1="221.539" x2="14.573" y2="311.431"/><path d="M 158.737 160.737 C 158.737 171.569 149.951 180.355 139.12 180.355 C 128.288 180.355 119.508 171.569 119.508 160.737 C 119.508 149.906 128.288 141.125 139.12 141.125 C 149.951 141.125 158.737 149.906 158.737 160.737 Z" style=""/><path d="M 29.546 214.027 C 19.563 226.303 9.578 226.303 -0.401 214.027 L -34.716 171.83 C -44.7 159.559 -39.71 153.421 -19.747 153.421 L 48.888 153.421 C 68.85 153.421 73.845 159.559 63.861 171.83 L 29.546 214.027 Z" style=""/><circle style="fill: rgb(255, 255, 255);" cx="148.929" cy="150.929" r="9.808"/><circle style="stroke-linejoin: round; stroke-linecap: round; fill: rgb(123, 86, 57);" cx="158.108" cy="190.482" r="25.058"/><path style="fill: none; stroke-linejoin: round; stroke-linecap: round; stroke: rgb(0, 0, 0); stroke-width: 11.928px;" d="M 119.708 85.116 C 141.953 85.116 159.529 103.991 157.954 126.176" transform="matrix(-0.937301, 0.34852, -0.34852, -0.937301, 305.872305, 156.265621)"/></g><path style="fill: rgb(0, 210, 255);" d="M 1180.88 -1382.9 C 1180.9 -1383.2 1180.94 -1383.3 1181.05 -1383.4 L 1181.1 -1383.5 L 1181.09 -1383.4 C 1181.09 -1383.4 1181.09 -1383.4 1181.09 -1383.4 C 1182.14 -1383.4 1189.79 -1364.2 1189.99 -1359.7 C 1190.01 -1359.6 1190.01 -1359.4 1189.99 -1359.3 C 1189.99 -1359.3 1189.99 -1359.2 1189.99 -1359.2 C 1189.99 -1359.1 1189.99 -1359 1189.99 -1359 C 1189.99 -1354.8 1185.86 -1351.4 1180.73 -1351.4 C 1175.63 -1351.4 1171.47 -1354.8 1171.47 -1359 C 1171.47 -1360.5 1171.47 -1361 1172.43 -1363.1 L 1180.88 -1382.9 Z" transform="matrix(0.979639, -0.200768, 0.200768, 0.979639, 298.581215, 209.211651)"/><path style="fill: rgb(0, 210, 255);" d="M 1206.84 -1365.7 C 1206.87 -1366 1206.89 -1366.1 1206.98 -1366.2 L 1207.05 -1366.3 L 1207.04 -1366.2 C 1207.04 -1366.2 1207.04 -1366.2 1207.04 -1366.2 C 1208.1 -1366.2 1215.72 -1347 1215.94 -1342.5 C 1215.95 -1342.4 1215.95 -1342.2 1215.94 -1342.1 C 1215.94 -1342.1 1215.94 -1342 1215.94 -1342 C 1215.94 -1341.9 1215.94 -1341.8 1215.94 -1341.8 C 1215.94 -1337.6 1211.81 -1334.2 1206.68 -1334.2 C 1201.59 -1334.2 1197.42 -1337.6 1197.42 -1341.8 C 1197.42 -1343.3 1197.42 -1343.8 1198.39 -1345.9 L 1206.84 -1365.7 Z" transform="matrix(0.979639, -0.200768, 0.200768, 0.979639, 295.656299, 214.771048)"/><rect x="963.443" y="-946.18" width="607.979" height="205.386" rx="15" ry="15" style="fill: rgb(0, 202, 203);"/></g><g transform="matrix(0.251509, 0, 0, 0.251509, 825.751099, 189.564194)" style=""/></g><g/></g><g style="" transform="matrix(-1, 0, 0, 1, 1123.8880615234375, 358.26153564453125)"><g><g transform="matrix(0.274864, 0, 0, 0.274864, 110.581375, 170.434875)" style=""/><g transform="matrix(0.233878, 0, 0, 0.233878, 374.135071, 202.003754)" style=""><g/></g></g><g><g transform="matrix(0.251509, 0, 0, 0.251509, 604.773376, 188.423294)" style=""><rect x="39.232" y="96.821" width="99.643" height="206.88" style="fill: rgb(123, 86, 57);" rx="49.821" ry="49.821" transform="matrix(-0.511631, -0.859205, 0.859205, -0.511631, 841.684326, -946.987366)"/><rect x="199.041" y="707.179" width="438.743" height="262.336" style="fill: rgb(49, 48, 49);" transform="matrix(0.312501, -0.949917, 0.949917, 0.312501, 477.549316, -935.23053)" rx="89.288" ry="89.288"/><rect x="165.61" y="651.935" width="365.037" height="241.843" style="fill: rgb(49, 48, 49);" rx="120.922" ry="120.922" transform="matrix(0.982366, -0.186966, 0.186966, 0.982366, 827.293884, -1625.728271)"/><circle style="fill: rgb(123, 86, 57);" cx="342.482" cy="605.482" r="105.482" transform="matrix(0.997378, 0, 0, 1.146966, 688.843689, -1603.84375)"/><rect x="865.651" y="-834.34" width="234.536" height="85.169" style="fill: rgb(123, 86, 57);" rx="37.128" ry="37.128"/><rect x="1003.498" y="-1241.473" width="261.869" height="428.845" style="fill: rgb(107, 65, 34);" rx="86.004" ry="86.004"/><circle style="fill: rgb(123, 86, 57);" cx="342.482" cy="605.482" r="105.482" transform="matrix(-0.997376, 0, 0, 1.146964, 1592.907349, -1599.667969)"/><rect x="-1.763" y="150.443" width="73.073" height="98.034" style="fill: rgb(107, 65, 34);" rx="86.004" ry="86.004" transform="matrix(0, -1, 1, 0, 906.861633, -1201.31543)"/><rect x="-1346.179" y="-834.34" width="234.536" height="85.169" style="fill: rgb(123, 86, 57);" rx="37.128" ry="37.128" transform="matrix(-1, 0, 0, 1, 0, 0)"/><rect x="39.232" y="96.821" width="99.643" height="206.881" style="fill: rgb(123, 86, 57);" rx="49.821" ry="49.821" transform="matrix(0.447305, -0.894381, 0.894381, 0.447305, 1054.424072, -1173.352661)"/><rect x="39.232" y="96.821" width="99.643" height="206.881" style="fill: rgb(123, 86, 57);" rx="49.821" ry="49.821" transform="matrix(0.704601, 0.709604, -0.709604, 0.704601, 1381.532104, -1292.417603)"/><rect x="39.232" y="96.821" width="99.643" height="206.88" style="fill: rgb(123, 86, 57);" rx="49.821" ry="49.821" transform="matrix(0.794539, -0.607213, 0.607213, 0.794539, 686.258972, -1243.454834)"/><g transform="matrix(1, 0, 0, 1, 1009.815857, -1519.396851)"><path d="M -4.061 136.221 L 0.958 136.221 C 1.971 120.887 14.728 108.762 30.318 108.762 L 41.476 108.762 C 39.5 89.215 38.352 66.9 55.16 51.049 C 73.163 34.139 91.762 43.843 88.578 69.046 C 85.99 89.586 72.968 100.788 59.854 108.762 L 175.406 108.762 C 179.302 108.762 183.018 109.519 186.422 110.893 C 190.88 92.264 197.103 71.569 217.823 63.299 C 240.189 54.418 254.515 70.3 243.367 92.354 C 233.108 112.673 214.188 117.015 197.79 119.091 C 202.178 124.232 204.826 130.896 204.826 138.182 L 204.826 257.824 C 204.826 274.072 191.652 287.245 175.406 287.245 L -4.061 287.245 C -20.309 287.245 -33.482 274.072 -33.482 257.824 L -33.482 165.642 C -33.482 149.394 -20.309 136.221 -4.061 136.221 Z" style="fill: rgb(123, 86, 57);"/><polygon style="fill: rgb(232, 230, 196);" points="14.573 220.561 -32.078 257.8 0.843 310.588 35.223 310.588 66.549 257.353"/><line style="fill: none; stroke-width: 3.04621px; stroke: rgb(151, 149, 126); stroke-linecap: round; stroke-linejoin: round;" x1="14.573" y1="221.539" x2="14.573" y2="311.431"/><path d="M 158.737 160.737 C 158.737 171.569 149.951 180.355 139.12 180.355 C 128.288 180.355 119.508 171.569 119.508 160.737 C 119.508 149.906 128.288 141.125 139.12 141.125 C 149.951 141.125 158.737 149.906 158.737 160.737 Z" style=""/><path d="M 29.546 214.027 C 19.563 226.303 9.578 226.303 -0.401 214.027 L -34.716 171.83 C -44.7 159.559 -39.71 153.421 -19.747 153.421 L 48.888 153.421 C 68.85 153.421 73.845 159.559 63.861 171.83 L 29.546 214.027 Z" style=""/><circle style="fill: rgb(255, 255, 255);" cx="148.929" cy="150.929" r="9.808"/><circle style="stroke-linejoin: round; stroke-linecap: round; fill: rgb(123, 86, 57);" cx="148.548" cy="190.482" r="25.058"/><path style="fill: none; stroke-linejoin: round; stroke-linecap: round; stroke: rgb(0, 0, 0); stroke-width: 11.928px;" d="M 114.664 108.581 C 136.909 108.581 154.485 127.456 152.91 149.641" transform="matrix(0.707107, -0.707107, 0.707107, 0.707107, -52.095583, 132.452144)"/></g><rect x="-242.922" y="685.057" width="169.382" height="85.169" style="fill: rgb(123, 86, 57);" transform="matrix(0, -1, -1, 0, 2031.240112, -995.730927)" rx="42.584" ry="42.584"/></g><g transform="matrix(0.251509, 0, 0, 0.251509, 825.751099, 189.564194)" style=""/></g><g/><path style="stroke-width: 3.976; fill: rgb(156, 156, 156);" d="M 775.885 -137.11 L 877.54 -158.88 L 870.872 -183.48 L 864.723 -175.28 L 857.031 -181.43 L 849.855 -174.26 L 842.677 -180.41 L 836.525 -173.23 L 829.86 -179.38 L 823.707 -171.69 L 816.528 -178.87 L 811.403 -169.64 L 803.711 -176.82 L 798.584 -167.08 L 790.381 -175.79 L 784.741 -165.54 L 777.564 -174.07 L 775.354 -163.73 L 770.644 -151.9 L 775.885 -137.11 Z" transform="matrix(-0.275901, -0.961186, 0.961186, -0.275901, 1170.562515, 569.068441)"/><path d="M 785.72 -129.27 L 785.25 -146.17 L 774.161 -153.2 L 760.321 -162.03 L 720.474 -133.07 L 725.409 -126.83 L 735.494 -130.63 L 746.317 -114.64 L 741.827 -108.23 L 747.369 -100.59 L 777.209 -122.97 L 785.72 -129.27 Z M 753.801 -119.07 L 741.269 -135.98 L 755.417 -145.89 L 768.27 -137.72 L 770.747 -130.83 L 753.801 -119.07 Z" style="stroke-width: 3.976; fill: rgb(208, 0, 0);" transform="matrix(0.1282, -0.991748, 0.991748, 0.1282, 852.209708, 656.700456)"/></g><g transform="matrix(1, 0, 0, 1, 0, 168.86112976074216)"><path d="M 500 168.779 C 500 185.635 494.685 199.37 488.037 199.979 L 488.037 200 L 312.245 200 L 312.245 137.558 L 488.037 137.558 L 488.037 137.579 C 494.685 138.188 500 151.924 500 168.779 Z" style="fill: rgb(93, 42, 0); stroke-width: 0.624;"/><circle style="fill: rgb(199, 160, 124);" cx="438.093" cy="580.908" r="50" transform="matrix(0.248465, 0, 0, 0.624424, 203.572449, -193.954178)"/><path d="M 322.305 168.779 C 322.305 182.499 317.885 193.622 312.425 193.622 C 306.965 193.622 302.535 182.499 302.535 168.779 C 302.535 155.058 306.965 143.936 312.425 143.936 C 317.885 143.936 322.305 155.058 322.305 168.779 Z M 312.425 146.342 C 307.495 146.342 303.495 156.387 303.495 168.779 C 303.495 181.171 307.495 191.216 312.425 191.216 C 317.355 191.216 321.355 181.171 321.355 168.779 C 321.355 156.387 317.355 146.342 312.425 146.342 Z M 318.635 168.779 C 318.635 177.407 315.855 184.402 312.425 184.402 C 308.995 184.402 306.205 177.407 306.205 168.779 C 306.205 160.151 308.995 153.156 312.425 153.156 C 315.855 153.156 318.635 160.151 318.635 168.779 Z M 312.425 155.871 C 309.585 155.871 307.285 161.65 307.285 168.779 C 307.285 175.908 309.585 181.687 312.425 181.687 C 315.255 181.687 317.565 175.908 317.565 168.779 C 317.565 161.65 315.255 155.871 312.425 155.871 Z" style="fill: rgb(178, 134, 93); stroke-width: 0.624;"/></g><g transform="matrix(0.8519499897956848, 0, 0, 0.8519499897956848, 446.8868408203125, 112.89463806152341)" style=""><g style="" transform="matrix(1, 0, 0, 1, -349.279602, 298.339172)"><g><g transform="matrix(0.274864, 0, 0, 0.274864, 110.581375, 170.434875)" style=""/><g transform="matrix(0.233878, 0, 0, 0.233878, 374.135071, 202.003754)" style=""><g/></g></g><g><g transform="matrix(0.251509, 0, 0, 0.251509, 604.773376, 188.423294)" style=""><rect x="39.232" y="96.821" width="99.643" height="206.88" style="fill: rgb(123, 86, 57);" rx="49.821" ry="49.821" transform="matrix(-0.511631, -0.859205, 0.859205, -0.511631, 841.684326, -946.987366)"/><rect x="199.041" y="707.179" width="438.743" height="262.336" style="fill: rgb(49, 48, 49);" transform="matrix(0.312501, -0.949917, 0.949917, 0.312501, 477.549316, -935.23053)" rx="89.288" ry="89.288"/><rect x="165.61" y="651.935" width="365.037" height="241.843" style="fill: rgb(49, 48, 49);" rx="120.922" ry="120.922" transform="matrix(0.982366, -0.186966, 0.186966, 0.982366, 827.293884, -1625.728271)"/><circle style="fill: rgb(123, 86, 57);" cx="342.482" cy="605.482" r="105.482" transform="matrix(0.997378, 0, 0, 1.146966, 688.843689, -1603.84375)"/><rect x="865.651" y="-834.34" width="234.536" height="85.169" style="fill: rgb(123, 86, 57);" rx="37.128" ry="37.128"/><rect x="1003.498" y="-1241.473" width="261.869" height="428.845" style="fill: rgb(107, 65, 34);" rx="86.004" ry="86.004"/><circle style="fill: rgb(123, 86, 57);" cx="342.482" cy="605.482" r="105.482" transform="matrix(-0.997376, 0, 0, 1.146964, 1592.907349, -1599.667969)"/><rect x="-1.763" y="150.443" width="73.073" height="98.034" style="fill: rgb(107, 65, 34);" rx="86.004" ry="86.004" transform="matrix(0, -1, 1, 0, 906.861633, -1201.31543)"/><rect x="-1346.179" y="-834.34" width="234.536" height="85.169" style="fill: rgb(123, 86, 57);" rx="37.128" ry="37.128" transform="matrix(-1, 0, 0, 1, 0, 0)"/><rect x="39.232" y="96.821" width="99.643" height="206.881" style="fill: rgb(123, 86, 57);" rx="49.821" ry="49.821" transform="matrix(0.447305, -0.894381, 0.894381, 0.447305, 1054.424072, -1173.352661)"/><rect x="39.232" y="96.821" width="99.643" height="206.881" style="fill: rgb(123, 86, 57);" rx="49.821" ry="49.821" transform="matrix(0.704601, 0.709604, -0.709604, 0.704601, 1381.532104, -1292.417603)"/><rect x="39.232" y="96.821" width="99.643" height="206.88" style="fill: rgb(123, 86, 57);" rx="49.821" ry="49.821" transform="matrix(0.794539, -0.607213, 0.607213, 0.794539, 686.258972, -1243.454834)"/><g transform="matrix(1, 0, 0, 1, 1009.815857, -1519.396851)"><path d="M -4.061 136.221 L 0.958 136.221 C 1.971 120.887 14.728 108.762 30.318 108.762 L 41.476 108.762 C 39.5 89.215 38.352 66.9 55.16 51.049 C 73.163 34.139 91.762 43.843 88.578 69.046 C 85.99 89.586 72.968 100.788 59.854 108.762 L 175.406 108.762 C 179.302 108.762 183.018 109.519 186.422 110.893 C 190.88 92.264 197.103 71.569 217.823 63.299 C 240.189 54.418 254.515 70.3 243.367 92.354 C 233.108 112.673 214.188 117.015 197.79 119.091 C 202.178 124.232 204.826 130.896 204.826 138.182 L 204.826 257.824 C 204.826 274.072 191.652 287.245 175.406 287.245 L -4.061 287.245 C -20.309 287.245 -33.482 274.072 -33.482 257.824 L -33.482 165.642 C -33.482 149.394 -20.309 136.221 -4.061 136.221 Z" style="fill: rgb(123, 86, 57);"/><polygon style="fill: rgb(232, 230, 196);" points="14.573 220.561 -32.078 257.8 0.843 310.588 35.223 310.588 66.549 257.353"/><line style="fill: none; stroke-width: 3.04621px; stroke: rgb(151, 149, 126); stroke-linecap: round; stroke-linejoin: round;" x1="14.573" y1="221.539" x2="14.573" y2="311.431"/><path d="M 158.737 160.737 C 158.737 171.569 149.951 180.355 139.12 180.355 C 128.288 180.355 119.508 171.569 119.508 160.737 C 119.508 149.906 128.288 141.125 139.12 141.125 C 149.951 141.125 158.737 149.906 158.737 160.737 Z" style=""/><path d="M 29.546 214.027 C 19.563 226.303 9.578 226.303 -0.401 214.027 L -34.716 171.83 C -44.7 159.559 -39.71 153.421 -19.747 153.421 L 48.888 153.421 C 68.85 153.421 73.845 159.559 63.861 171.83 L 29.546 214.027 Z" style=""/><circle style="fill: rgb(255, 255, 255);" cx="148.929" cy="150.929" r="9.808"/><circle style="stroke-linejoin: round; stroke-linecap: round; fill: rgb(123, 86, 57);" cx="148.548" cy="190.482" r="25.058"/><path style="fill: none; stroke-linejoin: round; stroke-linecap: round; stroke: rgb(0, 0, 0); stroke-width: 11.928px;" d="M 114.664 108.581 C 136.909 108.581 154.485 127.456 152.91 149.641" transform="matrix(0.707107, -0.707107, 0.707107, 0.707107, -52.095583, 132.452144)"/></g><rect x="-242.922" y="685.057" width="169.382" height="85.169" style="fill: rgb(123, 86, 57);" transform="matrix(0, -1, -1, 0, 2031.240112, -995.730927)" rx="42.584" ry="42.584"/></g><g transform="matrix(0.251509, 0, 0, 0.251509, 825.751099, 189.564194)" style=""/></g><g/></g><g transform="matrix(0.641037, 0, 0, 0.641037, 527.914429, 16.479441)" style=""><path d="M 127.132 429.458 L 158.411 429.218 C 161.891 429.268 165.121 426.918 166.901 423.053 C 170.251 415.756 168.041 406.316 162.131 402.637 C 156.461 399.114 150.561 396.299 144.481 394.23 C 131.362 389.765 117.583 397.557 111.213 413.045 C 108.693 419.191 110.933 426.805 115.983 429.218 L 127.132 429.458 Z" style="fill: rgb(192, 192, 192); stroke-width: 1.592;" transform="matrix(0.944725, 0.327864, -0.327864, 0.944725, 142.510714, -22.862304)"/><path d="M 115.983 429.218 C 110.933 426.805 108.053 420.634 110.583 414.488 C 110.693 414.211 110.973 413.619 111.093 413.346 C 112.233 414.376 112.153 416.451 115.223 417.918 C 119.422 419.927 130.692 417.612 132.792 417.612 C 143.421 417.612 151.971 423.994 161.331 416.737 C 163.681 414.916 168.371 411.223 164.731 404.867 C 168.621 409.344 169.701 416.949 166.901 423.053 C 165.121 426.918 161.891 429.268 158.411 429.218 L 127.132 429.458 L 115.983 429.218 Z" style="stroke-width: 1.592; fill: rgb(154, 161, 173);" transform="matrix(0.944725, 0.327864, -0.327864, 0.944725, 142.510714, -22.862304)"/><path d="M 175.288 431.4 L 220.356 431.055 C 225.37 431.127 230.024 427.741 232.588 422.172 C 237.415 411.658 234.231 398.057 225.715 392.756 C 217.546 387.68 209.045 383.624 200.285 380.643 C 181.383 374.21 161.529 385.437 152.351 407.752 C 148.721 416.607 151.948 427.578 159.224 431.055 L 175.288 431.4 Z" style="stroke-width: 1.592; fill: rgb(172, 185, 208);" transform="matrix(0.978267, -0.207347, 0.207347, 0.978267, -79.818027, 48.71324)"/><path d="M 159.224 431.055 C 151.948 427.578 147.798 418.687 151.444 409.831 C 151.602 409.432 152.006 408.579 152.179 408.186 C 153.821 409.67 153.706 412.66 158.129 414.773 C 164.179 417.668 180.417 414.332 183.443 414.332 C 198.758 414.332 211.077 423.528 224.563 413.072 C 227.949 410.448 234.706 405.127 229.462 395.969 C 235.066 402.42 236.623 413.377 232.588 422.172 C 230.024 427.741 225.37 431.127 220.356 431.055 L 175.288 431.4 L 159.224 431.055 Z" style="stroke-width: 1.592; fill: rgb(154, 161, 173);" transform="matrix(0.978267, -0.207347, 0.207347, 0.978267, -79.818027, 48.71324)"/><g style="" transform="matrix(1.75992, 0, 0, 1.75992, -1151.079102, 486.660309)"><path d="M 707.192 -57.33 C 707.192 -72.552 715.313 -86.617 728.495 -94.228 C 756.899 -110.627 792.404 -90.128 792.404 -57.33 C 792.404 -52.194 793.086 -37.02 791.354 -32.351 L 783.575 -31.816 C 785.62 -36.243 784.998 -51.938 784.998 -57.33 C 784.998 -69.906 778.289 -81.526 767.398 -87.814 C 743.931 -101.363 714.598 -84.427 714.598 -57.33 C 714.598 -52.127 713.962 -36.917 716.081 -32.351 L 708.18 -32.351 C 706.511 -36.898 707.192 -52.039 707.192 -57.33 Z" style="fill: rgb(198, 120, 56);"/><path d="M 772.767 0 L 726.877 0 C 713.86 0 703.308 -8.769 703.308 -19.586 L 703.308 -40.333 L 796.336 -40.333 L 796.336 -19.586 C 796.336 -8.769 785.784 0 772.767 0 Z" style="fill: rgb(222, 154, 98);"/><path d="M 772.767 0 L 771.46 0 L 771.663 -0.203 L 761.858 -10.008 L 752.053 -0.202 L 752.255 0 L 746.949 0 L 747.152 -0.203 L 737.347 -10.008 L 727.542 -0.202 L 727.744 0 L 726.877 0 C 725.383 0 723.922 -0.115 722.506 -0.336 L 717.737 -5.105 L 712.835 -10.008 L 709.333 -6.506 C 708.472 -7.304 707.688 -8.16 706.992 -9.067 L 710.384 -12.458 L 703.308 -19.534 C 703.308 -19.551 703.308 -19.569 703.308 -19.586 L 703.308 -24.436 L 712.835 -14.909 L 717.737 -19.812 L 722.64 -24.715 L 712.835 -34.52 L 703.308 -24.994 L 703.308 -29.894 L 710.385 -36.97 L 707.021 -40.333 L 711.922 -40.333 L 712.835 -39.42 L 713.748 -40.333 L 718.648 -40.333 L 715.285 -36.97 L 725.09 -27.165 L 734.896 -36.97 L 731.533 -40.333 L 736.433 -40.333 L 737.346 -39.42 L 738.259 -40.333 L 743.16 -40.333 L 739.797 -36.97 L 749.601 -27.165 L 759.407 -36.97 L 756.044 -40.333 L 760.947 -40.333 L 761.858 -39.422 L 762.769 -40.333 L 767.673 -40.333 L 764.31 -36.97 L 774.115 -27.166 L 783.919 -36.97 L 780.556 -40.333 L 785.458 -40.333 L 786.37 -39.421 L 787.282 -40.333 L 792.184 -40.333 L 788.821 -36.97 L 796.336 -29.456 L 796.336 -19.974 L 788.821 -12.459 L 792.46 -8.821 C 791.75 -7.925 790.953 -7.081 790.081 -6.297 L 786.37 -10.008 L 776.623 -0.261 C 775.368 -0.089 774.08 0 772.767 0 Z M 776.566 -24.715 L 786.37 -14.91 L 796.175 -24.715 L 786.37 -34.52 Z M 783.919 -12.458 L 774.114 -22.263 L 764.309 -12.458 L 774.113 -2.653 Z M 761.858 -34.519 L 752.053 -24.713 L 761.858 -14.909 L 771.663 -24.714 Z M 749.603 -22.263 L 739.797 -12.458 L 749.602 -2.653 L 759.408 -12.458 Z M 737.347 -34.52 L 727.541 -24.714 L 737.346 -14.909 L 747.151 -24.715 Z M 715.286 -12.458 L 725.09 -2.654 L 734.896 -12.459 L 725.091 -22.264 L 720.188 -17.361 Z" style="fill: rgb(207, 139, 83);"/><rect x="700" y="-41.333" width="100" height="10.124" style="fill: rgb(198, 120, 56);" rx="5.442" ry="5.442"/></g><g style="" transform="matrix(0.028964, 0.60834, -0.60834, 0.028964, 271.861295, 210.307908)"/><path d="M -89.711 266.004 L -58.432 265.764 C -54.952 265.814 -51.722 263.464 -49.942 259.599 C -46.592 252.302 -48.802 242.862 -54.712 239.183 C -60.382 235.66 -66.282 232.845 -72.362 230.776 C -85.481 226.311 -99.26 234.103 -105.63 249.591 C -108.15 255.737 -105.91 263.351 -100.86 265.764 L -89.711 266.004 Z" style="fill: rgb(192, 192, 192); stroke-width: 1.592;" transform="matrix(0.944725, 0.327864, -0.327864, 0.944725, 76.934057, 39.197815)"/><path d="M -100.86 265.764 C -105.91 263.351 -108.79 257.18 -106.26 251.034 C -106.15 250.757 -105.87 250.165 -105.75 249.892 C -104.61 250.922 -104.69 252.997 -101.62 254.464 C -97.421 256.473 -86.151 254.158 -84.051 254.158 C -73.422 254.158 -64.872 260.54 -55.512 253.283 C -53.162 251.462 -48.472 247.769 -52.112 241.413 C -48.222 245.89 -47.142 253.495 -49.942 259.599 C -51.722 263.464 -54.952 265.814 -58.432 265.764 L -89.711 266.004 L -100.86 265.764 Z" style="stroke-width: 1.592; fill: rgb(154, 161, 173);" transform="matrix(0.944725, 0.327864, -0.327864, 0.944725, 76.934057, 39.197815)"/><path d="M -597.79 368.716 L -533.05 368.219 C -525.84 368.323 -519.15 363.459 -515.47 355.458 C -508.54 340.353 -513.11 320.813 -525.34 313.198 C -537.08 305.906 -549.3 300.079 -561.88 295.797 C -589.03 286.554 -617.54 302.683 -630.73 334.742 C -635.96 347.465 -631.32 363.224 -620.85 368.219 L -597.79 368.716 Z" style="fill: rgb(192, 192, 192); stroke-width: 1.592;" transform="matrix(0.999979, -0.006499, 0.006499, 0.999979, -2.162993, -3.717574)"/><path d="M -620.85 368.219 C -631.32 363.224 -637.29 350.451 -632.03 337.729 C -631.82 337.155 -631.22 335.93 -630.97 335.365 C -628.61 337.497 -628.8 341.791 -622.43 344.828 C -613.75 348.988 -590.43 344.195 -586.08 344.195 C -564.07 344.195 -546.37 357.406 -527 342.384 C -522.13 338.614 -512.43 330.97 -519.96 317.814 C -511.91 327.081 -509.68 342.822 -515.47 355.458 C -519.15 363.459 -525.84 368.323 -533.05 368.219 L -597.79 368.716 L -620.85 368.219 Z" style="stroke-width: 1.592; fill: rgb(154, 161, 173);" transform="matrix(0.999979, -0.006499, 0.006499, 0.999979, -2.162993, -3.717574)"/><path d="M -537.59 428.002 L -472.85 427.505 C -465.64 427.609 -458.95 422.745 -455.27 414.744 C -448.34 399.639 -452.91 380.099 -465.14 372.484 C -476.88 365.192 -489.1 359.365 -501.68 355.083 C -528.83 345.84 -557.34 361.969 -570.53 394.028 C -575.76 406.751 -571.12 422.51 -560.65 427.505 L -537.59 428.002 Z" style="fill: rgb(192, 192, 192); stroke-width: 1.592;" transform="matrix(0.999979, -0.006499, 0.006499, 0.999979, -2.547026, -3.3251)"/><path d="M -560.65 427.505 C -571.12 422.51 -577.09 409.737 -571.83 397.015 C -571.62 396.441 -571.02 395.216 -570.77 394.651 C -568.41 396.783 -568.6 401.077 -562.23 404.114 C -553.55 408.274 -530.23 403.481 -525.88 403.481 C -503.87 403.481 -486.17 416.692 -466.8 401.67 C -461.93 397.9 -452.23 390.256 -459.76 377.1 C -451.71 386.367 -449.48 402.108 -455.27 414.744 C -458.95 422.745 -465.64 427.609 -472.85 427.505 L -537.59 428.002 L -560.65 427.505 Z" style="stroke-width: 1.592; fill: rgb(154, 161, 173);" transform="matrix(0.999979, -0.006499, 0.006499, 0.999979, -2.547026, -3.3251)"/><path d="M -804.86 479.211 L -761.53 478.878 C -756.7 478.948 -752.22 475.692 -749.76 470.336 C -745.12 460.225 -748.18 447.146 -756.37 442.049 C -764.23 437.168 -772.4 433.268 -780.83 430.401 C -799 424.214 -818.08 435.011 -826.91 456.47 C -830.41 464.986 -827.31 475.534 -820.3 478.878 L -804.86 479.211 Z" style="fill: rgb(192, 192, 192); stroke-width: 1.592;" transform="matrix(0.999979, -0.006499, 0.006499, 0.999979, -2.96675, -5.113806)"/><path d="M -820.3 478.878 C -827.31 475.534 -831.3 466.985 -827.78 458.469 C -827.64 458.085 -827.24 457.265 -827.07 456.887 C -825.49 458.314 -825.62 461.188 -821.36 463.221 C -815.55 466.005 -799.94 462.797 -797.02 462.797 C -782.29 462.797 -770.44 471.64 -757.48 461.585 C -754.22 459.061 -747.73 453.945 -752.77 445.139 C -747.38 451.342 -745.89 461.878 -749.76 470.336 C -752.22 475.692 -756.7 478.948 -761.53 478.878 L -804.86 479.211 L -820.3 478.878 Z" style="stroke-width: 1.592; fill: rgb(154, 161, 173);" transform="matrix(0.999979, -0.006499, 0.006499, 0.999979, -2.96675, -5.113806)"/><path d="M 295.62 367.699 L 338.95 367.366 C 343.78 367.436 348.26 364.18 350.72 358.824 C 355.36 348.713 352.3 335.634 344.11 330.537 C 336.25 325.656 328.08 321.756 319.65 318.889 C 301.48 312.702 282.4 323.499 273.57 344.958 C 270.07 353.474 273.17 364.022 280.18 367.366 L 295.62 367.699 Z" style="fill: rgb(192, 192, 192); stroke-width: 1.592;" transform="matrix(0.999979, -0.006499, 0.006499, 0.999979, -2.218878, 2.035868)"/><path d="M 280.18 367.366 C 273.17 364.022 269.18 355.473 272.7 346.957 C 272.84 346.573 273.24 345.753 273.41 345.375 C 274.99 346.802 274.86 349.676 279.12 351.709 C 284.93 354.493 300.54 351.285 303.46 351.285 C 318.19 351.285 330.04 360.128 343 350.073 C 346.26 347.549 352.75 342.433 347.71 333.627 C 353.1 339.83 354.59 350.366 350.72 358.824 C 348.26 364.18 343.78 367.436 338.95 367.366 L 295.62 367.699 L 280.18 367.366 Z" style="stroke-width: 1.592; fill: rgb(154, 161, 173);" transform="matrix(0.999979, -0.006499, 0.006499, 0.999979, -2.218878, 2.035868)"/><path d="M 327.794 550.945 L 434.104 550.128 C 445.944 550.299 456.929 542.312 462.972 529.173 C 474.352 504.369 466.848 472.283 446.765 459.778 C 427.486 447.804 407.42 438.235 386.762 431.204 C 342.179 416.026 295.363 442.511 273.703 495.156 C 265.115 516.048 272.734 541.926 289.927 550.128 L 327.794 550.945 Z" style="fill: rgb(192, 192, 192); stroke-width: 1.592;" transform="matrix(0.999979, -0.006499, 0.006499, 0.999979, -3.169949, 2.404182)"/><path d="M 289.927 550.128 C 272.734 541.926 262.931 520.951 271.568 500.061 C 271.913 499.118 272.899 497.106 273.309 496.179 C 277.184 499.68 276.872 506.731 287.333 511.718 C 301.586 518.549 339.88 510.678 347.023 510.678 C 383.166 510.678 412.231 532.372 444.039 507.705 C 452.036 501.514 467.964 488.962 455.599 467.358 C 468.818 482.575 472.48 508.424 462.972 529.173 C 456.929 542.312 445.944 550.299 434.104 550.128 L 327.794 550.945 L 289.927 550.128 Z" style="stroke-width: 1.592; fill: rgb(154, 161, 173);" transform="matrix(0.999979, -0.006499, 0.006499, 0.999979, -3.169949, 2.404182)"/><path d="M -291.56 531.284 L -169.27 530.344 C -155.65 530.541 -143.02 521.354 -136.06 506.241 C -122.97 477.709 -131.61 440.802 -154.71 426.418 C -176.89 412.645 -199.97 401.638 -223.73 393.55 C -275.01 376.091 -328.86 406.556 -353.78 467.112 C -363.66 491.143 -354.9 520.91 -335.12 530.344 L -291.56 531.284 Z" style="fill: rgb(192, 192, 192); stroke-width: 1.592;" transform="matrix(0.999979, -0.006499, 0.006499, 0.999979, -2.994537, -1.581979)"/><path d="M -335.12 530.344 C -354.9 520.91 -366.17 496.783 -356.24 472.754 C -355.84 471.669 -354.7 469.355 -354.23 468.289 C -349.78 472.316 -350.13 480.426 -338.1 486.163 C -321.71 494.02 -277.65 484.966 -269.44 484.966 C -227.87 484.966 -194.43 509.92 -157.84 481.547 C -148.65 474.425 -130.32 459.987 -144.55 435.137 C -129.34 452.64 -125.13 482.374 -136.06 506.241 C -143.02 521.354 -155.65 530.541 -169.27 530.344 L -291.56 531.284 L -335.12 530.344 Z" style="stroke-width: 1.592; fill: rgb(154, 161, 173);" transform="matrix(0.999979, -0.006499, 0.006499, 0.999979, -2.994537, -1.581979)"/></g><g style="" transform="matrix(0.719595, -0.141697, 0.141697, 0.719595, -647.967673, 306.469563)"><g><g transform="matrix(0.274864, 0, 0, 0.274864, 110.581375, 170.434875)" style=""/><g transform="matrix(0.233878, 0, 0, 0.233878, 374.135071, 202.003754)" style=""><g/></g></g><g><g transform="matrix(0.251509, 0, 0, 0.251509, 604.773376, 188.423294)" style=""><rect x="39.232" y="96.821" width="99.643" height="206.88" style="fill: rgb(123, 86, 57);" rx="49.821" ry="49.821" transform="matrix(-0.511631, -0.859205, 0.859205, -0.511631, 841.684326, -946.987366)"/><rect x="199.041" y="707.179" width="438.743" height="262.336" style="fill: rgb(49, 48, 49);" transform="matrix(0.312501, -0.949917, 0.949917, 0.312501, 477.549316, -935.23053)" rx="89.288" ry="89.288"/><rect x="1003.498" y="-1241.473" width="261.869" height="428.845" style="fill: rgb(107, 65, 34);" rx="86.004" ry="86.004"/><rect x="-1.763" y="150.443" width="73.073" height="98.034" style="fill: rgb(107, 65, 34);" rx="86.004" ry="86.004" transform="matrix(0, -1, 1, 0, 906.861633, -1201.31543)"/><rect x="39.232" y="96.821" width="99.643" height="206.881" style="fill: rgb(123, 86, 57);" rx="49.821" ry="49.821" transform="matrix(0.447305, -0.894381, 0.894381, 0.447305, 1054.424072, -1173.352661)"/><rect x="39.232" y="96.821" width="99.643" height="206.881" style="fill: rgb(123, 86, 57);" rx="49.821" ry="49.821" transform="matrix(0.704601, 0.709604, -0.709604, 0.704601, 1381.532104, -1292.417603)"/><rect x="39.232" y="96.821" width="99.643" height="206.88" style="fill: rgb(123, 86, 57);" rx="49.821" ry="49.821" transform="matrix(0.794539, -0.607213, 0.607213, 0.794539, 686.258972, -1243.454834)"/><g transform="matrix(1, 0, 0, 1, 1009.815857, -1519.396851)"><path d="M -4.061 136.221 L 0.958 136.221 C 1.971 120.887 14.728 108.762 30.318 108.762 L 41.476 108.762 C 39.5 89.215 38.352 66.9 55.16 51.049 C 73.163 34.139 91.762 43.843 88.578 69.046 C 85.99 89.586 72.968 100.788 59.854 108.762 L 175.406 108.762 C 179.302 108.762 183.018 109.519 186.422 110.893 C 190.88 92.264 197.103 71.569 217.823 63.299 C 240.189 54.418 254.515 70.3 243.367 92.354 C 233.108 112.673 214.188 117.015 197.79 119.091 C 202.178 124.232 204.826 130.896 204.826 138.182 L 204.826 257.824 C 204.826 274.072 191.652 287.245 175.406 287.245 L -4.061 287.245 C -20.309 287.245 -33.482 274.072 -33.482 257.824 L -33.482 165.642 C -33.482 149.394 -20.309 136.221 -4.061 136.221 Z" style="fill: rgb(123, 86, 57);"/><polygon style="fill: rgb(232, 230, 196);" points="14.573 220.561 -32.078 257.8 0.843 310.588 35.223 310.588 66.549 257.353"/><line style="fill: none; stroke-width: 3.04621px; stroke: rgb(151, 149, 126); stroke-linecap: round; stroke-linejoin: round;" x1="14.573" y1="221.539" x2="14.573" y2="311.431"/><path d="M 158.737 160.737 C 158.737 171.569 149.951 180.355 139.12 180.355 C 128.288 180.355 119.508 171.569 119.508 160.737 C 119.508 149.906 128.288 141.125 139.12 141.125 C 149.951 141.125 158.737 149.906 158.737 160.737 Z" style=""/><path d="M 29.546 214.027 C 19.563 226.303 9.578 226.303 -0.401 214.027 L -34.716 171.83 C -44.7 159.559 -39.71 153.421 -19.747 153.421 L 48.888 153.421 C 68.85 153.421 73.845 159.559 63.861 171.83 L 29.546 214.027 Z" style=""/><circle style="fill: rgb(255, 255, 255);" cx="148.929" cy="150.929" r="9.808"/><path style="fill: none; stroke-linejoin: round; stroke-linecap: round; stroke: rgb(0, 0, 0); stroke-width: 11.928px;" d="M 118.765 100.562 C 141.01 100.562 158.586 119.437 157.011 141.622" transform="matrix(-0.429593, 0.903023, -0.903023, -0.429593, 306.542723, 48.55195)"/></g><rect x="2438.42" y="3021.06" width="785.563" height="282.726" rx="15" ry="15" style="fill: rgb(0, 202, 203);" transform="matrix(0.981159, 0.193202, -0.193202, 0.981159, -883.53241, -4457.12793)"/><rect x="2438.42" y="613.926" width="785.563" height="57.454" rx="28.727" ry="28.727" style="stroke-width: 1; fill: rgb(70, 234, 234);" transform="matrix(0.981159, 0.193202, -0.193202, 0.981159, -1370.356934, -1984.833008)"/><rect x="1661.77" y="418.388" width="535.358" height="39.155" rx="28.727" ry="28.727" style="stroke-width: 1; fill: rgb(70, 234, 234);" transform="matrix(0.981159, 0.193202, -0.193202, 0.981159, -191.456009, -1430.713501)"/><rect x="2438.42" y="613.926" width="785.563" height="57.454" rx="28.727" ry="28.727" style="stroke-width: 1; fill: rgb(70, 234, 234);" transform="matrix(0.981159, 0.193202, -0.193202, 0.981159, 2439.780518, -1213.045898)"/><rect x="1661.77" y="418.388" width="535.358" height="39.155" rx="28.727" ry="28.727" style="stroke-width: 1; fill: rgb(70, 234, 234);" transform="matrix(0.981159, 0.193202, -0.193202, 0.981159, 3618.681396, -658.926392)"/></g><g transform="matrix(0.251509, 0, 0, 0.251509, 825.751099, 189.564194)" style=""/></g><g/></g><path d="M -73.437 106.89 C -68.684 106.211 -71.744 112.787 -66.072 113.34 C -54.607 111.222 -61.134 109.333 -60.089 107.056 C -58.121 102.758 -60.386 98.938 -63.873 96.772 C -67.213 94.696 -69.167 96.794 -74.232 97.037 C -82.383 97.428 -85.05 95.52 -85.139 102.156 C -85.191 106.069 -82.217 106.472 -79.236 107.894 L -73.437 106.89 Z" style="stroke-width: 1.592; fill: rgb(231, 232, 137);" transform="matrix(0.999979, -0.006499, 0.006499, 0.999979, -0.623959, -0.465279)"/><path d="M 51.698 80.647 C 56.451 79.968 53.391 86.544 59.063 87.097 C 70.528 84.979 64.001 83.09 65.046 80.813 C 67.014 76.515 64.749 72.695 61.262 70.529 C 57.922 68.453 55.968 70.551 50.903 70.794 C 42.752 71.185 40.085 69.277 39.996 75.913 C 39.944 79.826 42.918 80.229 45.899 81.651 L 51.698 80.647 Z" style="stroke-width: 1.592; fill: rgb(231, 232, 137);" transform="matrix(0.951864, 0.306522, -0.306522, 0.951864, 23.87733, -12.971698)"/></g><g style="" transform="matrix(0.6539710164070129, 0, 0, 0.6539710164070129, 207.2581634521484, 177.07431030273435)"><g><g transform="matrix(0.274864, 0, 0, 0.274864, 110.581375, 170.434875)" style=""/><g transform="matrix(0.233878, 0, 0, 0.233878, 374.135071, 202.003754)" style=""><g/></g></g><g><g transform="matrix(0.251509, 0, 0, 0.251509, 825.751099, 189.564194)" style=""/></g><g/></g><g transform="matrix(-1.408282995223999, 0, 0, 1.408282995223999, 638.0688476562499, 139.97470092773435)" style=""><path d="M 453.083 168.779 C 453.083 185.635 447.768 199.37 441.12 199.979 L 441.12 200 L 312.245 200 L 312.245 137.558 L 441.12 137.558 L 441.12 137.579 C 447.768 138.188 453.083 151.924 453.083 168.779 Z" style="fill: rgb(93, 42, 0); stroke-width: 0.624;"/><circle style="fill: rgb(199, 160, 124);" cx="438.093" cy="580.908" r="50" transform="matrix(0.248465, 0, 0, 0.624424, 203.572449, -193.954178)"/><path d="M 322.305 168.779 C 322.305 182.499 317.885 193.622 312.425 193.622 C 306.965 193.622 302.535 182.499 302.535 168.779 C 302.535 155.058 306.965 143.936 312.425 143.936 C 317.885 143.936 322.305 155.058 322.305 168.779 Z M 312.425 146.342 C 307.495 146.342 303.495 156.387 303.495 168.779 C 303.495 181.171 307.495 191.216 312.425 191.216 C 317.355 191.216 321.355 181.171 321.355 168.779 C 321.355 156.387 317.355 146.342 312.425 146.342 Z M 318.635 168.779 C 318.635 177.407 315.855 184.402 312.425 184.402 C 308.995 184.402 306.205 177.407 306.205 168.779 C 306.205 160.151 308.995 153.156 312.425 153.156 C 315.855 153.156 318.635 160.151 318.635 168.779 Z M 312.425 155.871 C 309.585 155.871 307.285 161.65 307.285 168.779 C 307.285 175.908 309.585 181.687 312.425 181.687 C 315.255 181.687 317.565 175.908 317.565 168.779 C 317.565 161.65 315.255 155.871 312.425 155.871 Z" style="fill: rgb(178, 134, 93); stroke-width: 0.624;"/></g><g transform="matrix(-1.1484659910202026, 0, 0, 1.1484659910202026, 502.5816345214843, 119.31816864013669)" style=""><path d="M 453.083 168.779 C 453.083 185.635 447.768 199.37 441.12 199.979 L 441.12 200 L 312.245 200 L 312.245 137.558 L 441.12 137.558 L 441.12 137.579 C 447.768 138.188 453.083 151.924 453.083 168.779 Z" style="stroke-width: 0.624; fill: rgb(149, 67, 0);"/><circle style="fill: rgb(199, 160, 124);" cx="438.093" cy="580.908" r="50" transform="matrix(0.248465, 0, 0, 0.624424, 203.572449, -193.954178)"/><path d="M 322.305 168.779 C 322.305 182.499 317.885 193.622 312.425 193.622 C 306.965 193.622 302.535 182.499 302.535 168.779 C 302.535 155.058 306.965 143.936 312.425 143.936 C 317.885 143.936 322.305 155.058 322.305 168.779 Z M 312.425 146.342 C 307.495 146.342 303.495 156.387 303.495 168.779 C 303.495 181.171 307.495 191.216 312.425 191.216 C 317.355 191.216 321.355 181.171 321.355 168.779 C 321.355 156.387 317.355 146.342 312.425 146.342 Z M 318.635 168.779 C 318.635 177.407 315.855 184.402 312.425 184.402 C 308.995 184.402 306.205 177.407 306.205 168.779 C 306.205 160.151 308.995 153.156 312.425 153.156 C 315.855 153.156 318.635 160.151 318.635 168.779 Z M 312.425 155.871 C 309.585 155.871 307.285 161.65 307.285 168.779 C 307.285 175.908 309.585 181.687 312.425 181.687 C 315.255 181.687 317.565 175.908 317.565 168.779 C 317.565 161.65 315.255 155.871 312.425 155.871 Z" style="fill: rgb(178, 134, 93); stroke-width: 0.624;"/></g></svg>