<?xml version="1.0" encoding="UTF-8" standalone="no"?>
<svg
   viewBox="0 0 120 120"
   version="1.1"
   id="svg82"
   sodipodi:docname="A_v2.svg"
   inkscape:version="1.3.2 (091e20e, 2023-11-25, custom)"
   xmlns:inkscape="http://www.inkscape.org/namespaces/inkscape"
   xmlns:sodipodi="http://sodipodi.sourceforge.net/DTD/sodipodi-0.dtd"
   xmlns="http://www.w3.org/2000/svg"
   xmlns:svg="http://www.w3.org/2000/svg">
  <defs
     id="defs82">
    <inkscape:path-effect
       effect="bspline"
       id="path-effect2"
       is_visible="true"
       lpeversion="1.3"
       weight="33.333333"
       steps="2"
       helper_size="0"
       apply_no_weight="true"
       apply_with_weight="true"
       only_selected="false"
       uniform="false" />
    <inkscape:path-effect
       effect="bspline"
       id="path-effect3"
       is_visible="true"
       lpeversion="1.3"
       weight="33.333333"
       steps="2"
       helper_size="0"
       apply_no_weight="true"
       apply_with_weight="true"
       only_selected="false"
       uniform="false" />
    <inkscape:path-effect
       effect="bspline"
       id="path-effect4"
       is_visible="true"
       lpeversion="1.3"
       weight="33.333333"
       steps="2"
       helper_size="0"
       apply_no_weight="true"
       apply_with_weight="true"
       only_selected="false"
       uniform="false" />
    <inkscape:path-effect
       effect="bspline"
       id="path-effect5"
       is_visible="true"
       lpeversion="1.3"
       weight="33.333333"
       steps="2"
       helper_size="0"
       apply_no_weight="true"
       apply_with_weight="true"
       only_selected="false"
       uniform="false" />
    <inkscape:path-effect
       effect="bspline"
       id="path-effect6"
       is_visible="true"
       lpeversion="1.3"
       weight="33.333333"
       steps="2"
       helper_size="0"
       apply_no_weight="true"
       apply_with_weight="true"
       only_selected="false"
       uniform="false" />
    <inkscape:path-effect
       effect="bspline"
       id="path-effect1"
       is_visible="true"
       lpeversion="1.3"
       weight="33.333333"
       steps="2"
       helper_size="0"
       apply_no_weight="true"
       apply_with_weight="true"
       only_selected="false"
       uniform="false" />
    <inkscape:path-effect
       effect="bspline"
       id="path-effect11"
       is_visible="true"
       lpeversion="1.3"
       weight="33.333333"
       steps="2"
       helper_size="0"
       apply_no_weight="true"
       apply_with_weight="true"
       only_selected="false"
       uniform="false" />
    <inkscape:path-effect
       effect="bspline"
       id="path-effect12"
       is_visible="true"
       lpeversion="1.3"
       weight="33.333333"
       steps="2"
       helper_size="0"
       apply_no_weight="true"
       apply_with_weight="true"
       only_selected="false"
       uniform="false" />
    <inkscape:path-effect
       effect="bspline"
       id="path-effect13"
       is_visible="true"
       lpeversion="1.3"
       weight="33.333333"
       steps="2"
       helper_size="0"
       apply_no_weight="true"
       apply_with_weight="true"
       only_selected="false"
       uniform="false" />
  </defs>
  <sodipodi:namedview
     id="namedview82"
     pagecolor="#ffffff"
     bordercolor="#000000"
     borderopacity="0.25"
     inkscape:showpageshadow="2"
     inkscape:pageopacity="0.0"
     inkscape:pagecheckerboard="0"
     inkscape:deskcolor="#d1d1d1"
     inkscape:zoom="2.4188944"
     inkscape:cx="-32.246136"
     inkscape:cy="74.207455"
     inkscape:window-width="1920"
     inkscape:window-height="1017"
     inkscape:window-x="-8"
     inkscape:window-y="-8"
     inkscape:window-maximized="1"
     inkscape:current-layer="svg82" />
  <path
     class="cls-2"
     d="m81.6 95.9 2.5-2.5-0.7-2 9.5 1.7s1.7 6 0 8c-1.2 0.9-2.3-0.4-2.9-2.5-0.6 1.8-1.1 4.3-3.1 4.3-2.8-0.3-1.8-3.2-0.8-5.3-2 1.4-3.7 1-4.5-1.7z"
     id="path12"
     style="fill:#aa499b;fill-opacity:1"
     inkscape:export-filename="..\..\..\Aurovirtual Dropbox\Maria Cepeda\01. LapMar\3. Personales\9. OMI\Bebras\Bebras 2025-26\Task_Proposal\Monster Tree\graphics\A_v2.svg"
     inkscape:export-xdpi="96"
     inkscape:export-ydpi="96" />
  <!-- SVG created with Arrow, by QuiverAI (https://quiver.ai) -->
  <path
     style="fill:#bc5fd3;fill-opacity:1;stroke:none;stroke-width:0.5;stroke-linecap:round;stroke-linejoin:round;stroke-dasharray:none;stroke-opacity:1;paint-order:markers fill stroke"
     d="m 83.715931,90.330523 v 2.273766 c 0,0 0.671794,0.671794 1.188559,0.8785 0.516765,0.206706 5.839445,0.206706 5.839445,0.206706 l 3.203943,-1.550295 -0.206706,-2.635501 -5.426033,1.550295 z"
     id="path100" />
  <style
     type="text/css"
     id="style1">.cls-0 {fill:#FFFFFF;}
.cls-1 {fill:#06090A;}
.cls-2 {fill:#9945A4;}
.cls-3 {fill:#773880;}
.cls-4 {fill:#C294BE;}
.cls-5 {fill:#C99CC8;}
.cls-6 {fill:#C484C1;}
.cls-7 {fill:#A956A5;}
.cls-8 {fill:#BD70B7;}
.cls-9 {fill:#632D65;}
.cls-10 {fill:#9B9CA0;}
.cls-11 {fill:#FFFFFF;}
.cls-12 {fill:#FBB028;}
.cls-13 {fill:#211C17;}
.cls-14 {fill:none;stroke:#06090A;stroke-width:0.9296;stroke-miterlimit:10;}
.cls-15 {fill:#FDFEFF;}
.cls-16 {fill:none;stroke:#06090A;stroke-width:0.8367;stroke-miterlimit:10;}
.cls-17 {fill:#050809;}
.cls-18 {fill:none;stroke:#06090A;stroke-width:1.0109;stroke-miterlimit:10;}
.cls-19 {fill:#100F0D;}
.cls-20 {fill:#FEFEFE;}
.cls-21 {fill:#FFFFFD;}
.cls-22 {fill:#C696C2;}
.cls-23 {fill:#FFFFFD;stroke:#06090A;stroke-width:0.8367;stroke-miterlimit:10;}
.cls-24 {fill:#FFFFFF;stroke:#06090A;stroke-width:1.0109;stroke-miterlimit:10;}
.cls-25 {fill:none;stroke:#06090A;stroke-width:1.2131;stroke-miterlimit:10;}
.cls-26 {fill:#FFFFFF;stroke:#06090A;stroke-width:0.9296;stroke-miterlimit:10;}
.cls-27 {fill:#FFFFFD;stroke:#06090A;stroke-width:0.8367;stroke-miterlimit:10;}
.cls-28 {fill:#FFFFFF;stroke:#06090A;stroke-width:0.8367;stroke-miterlimit:10;}
.cls-29 {fill:#FEFEFE;stroke:#06090A;stroke-width:0.9296;stroke-miterlimit:10;}
.cls-30 {fill:#FFFFFF;stroke:#06090A;stroke-width:0.7778;stroke-miterlimit:10;}
.cls-31 {fill:#FFFFFF;stroke:#06090A;stroke-width:0.9842;stroke-miterlimit:10;}
.cls-32 {fill:#FFFFFF;stroke:#06090A;stroke-width:0.9782;stroke-miterlimit:10;}
.cls-33 {fill:#FEFEFE;stroke:#06090A;stroke-width:0.8996;stroke-miterlimit:10;}</style>
  <path
     class="cls-2"
     d="m48.4 99.4c0.2 8-4 8.7-7.5 11-1.3 0.7-4 2.7-3.5 3.5h17.7c1 0 1-0.9 0.5-2.5-0.7-2.8-1.7-6.3-1.7-11.3l-5.5-0.7z"
     id="path3"
     style="fill:#aa499b;fill-opacity:1"
     inkscape:export-filename="path3.png"
     inkscape:export-xdpi="96"
     inkscape:export-ydpi="96" />
  <path
     class="cls-2"
     d="m68.7 100.1c-0.1 5.3-1.6 9.5-2.1 11.5-0.5 2.1 0.5 2.3 1.8 2.3h16.2c1.1 0 1.5-0.3 0.5-1.9-2.5-3.4-10-3.4-10-10.9l-0.1-2.5-6.3 1.5z"
     id="path4"
     style="fill:#aa499b;fill-opacity:1" />
  <path
     class="cls-1"
     d="m53.1 100.6c0 5 1.9 10.3 2 12 0 0.4-0.5 0.4-1.4 0.4h-15.8c2-2.9 7.7-3.4 9.5-7.4 1.5-2.6 1-6.5 1-6.5h-1.8c0.3 5.5-1.5 7-5 8.9-1.9 1-5.5 2.9-5.6 5.1 0 1 0.6 1.6 1.6 1.6h17c2 0 2.3-1.1 2.3-2.1-0.2-2.2-2.2-5.5-2.3-12h-1.5z"
     id="path7" />
  <path
     class="cls-1"
     d="m67.6 100.6c0 5-2 9.5-2.2 11.1-0.3 2.4 1.2 3 2.5 3h16.7c1 0 1.8 0.2 2-1.1 0.3-2.6-4.7-4.7-7-6-3.2-2-3.9-3.9-3.7-8.7h-1.8c-0.2 3.7 0.3 7.2 4.5 9.8 1.8 1.2 5 2.2 5.8 4.3h-15.7c-1.1 0-1.7 0.1-1.6-0.6 0.3-1.5 2.3-6.8 2.3-11.9l-1.8 0.1z"
     id="path8" />
  <path
     class="cls-2"
     d="m37.1 94.6c1-1.5 0.5-2.9 0.5-2.9l-13.5 0.7c0.3 3 2.9 3.6 2.9 3.6-1 1.9-1.9 5.6-1.1 6.9 0.8 0.8 2.5 1 3.1-0.3l0.9-2.5 1.2 3.5c0.9 2 3.3 1.5 3.8 0.1 0.5-1.1-0.8-4.8-0.8-4.8s2 1.2 3 0.7c2.6-1 1.3-3 0-4.2v-0.8z"
     id="path9"
     style="fill:#aa499b;fill-opacity:1" />
  <g
     id="g95"
     transform="translate(0.22648161,0.17250106)">
    <path
       class="cls-3"
       d="M 28,96.1 28.6,96 c -2,0 -2.5,-0.4 -2.5,-0.4 -0.7,2.3 -1.5,6 -0.4,6.8 l 0.9,0.6 c -1,-1.4 1,-6.4 1.4,-6.9 z"
       id="path10"
       style="fill:#06090a;fill-opacity:1" />
    <path
       class="cls-1"
       d="m 37.1,94.6 c 0.5,-0.7 0.5,-2.2 0.3,-2.7 l -1.5,0.2 c 0.2,1.8 0,2.5 -0.3,3 0.5,0.3 2,2.3 2,2.8 0,0.5 -0.5,1.1 -1.2,0.8 -1,-0.6 -2.3,-2.1 -2.8,-1.8 -1,0.5 0.5,5 0.5,5.8 0,1.3 -1.4,1.9 -2,0.7 -0.7,-1.5 -1.4,-5.5 -2,-5.5 -1.1,-0.3 -1.7,4.2 -2.2,4.7 -0.5,0.4 -1.5,0.1 -1.5,-0.7 -0.3,1.8 1.2,2.7 2.6,2 0.9,-0.3 1.1,-2 1.1,-2.3 0.5,1 0.8,4 3.3,4 1.5,0 2.5,-1.2 2.5,-2.2 0.2,-1.3 -0.9,-3.8 -0.8,-3.8 1.3,1 2.8,1 3.9,-0.5 1.4,-2 -0.6,-3.5 -1.9,-4.5 z"
       id="path11" />
  </g>
  <path
     id="path13"
     style="fill:#06090a;fill-opacity:1"
     class="cls-3"
     d="m 94.288325,90.032424 -1.40039,0.30079 c 0.3,2.19999 -1,3.19921 -1,3.19921 0.7,1.5 1.30117,5.500787 0.20117,5.800787 -1.3,0.699989 -1.50078,-3.900786 -2.80078,-3.800786 -0.5,0 -0.69922,6.300385 -2.699222,5.900385 -1.399999,-0.6 0.199218,-1.899999 0.199218,-5.999995 0,-1.399991 -1.500001,0.89961 -3,1.599606 -1.199998,0.3 -1.999999,-1.499216 -1,-2.199207 h -0.105468 c 0.06672,-0.0788 0.141889,-0.15743 0.228515,-0.23829 l 1,-1.20117 h 1.800782 c 0.199999,0.2 2.499609,0.59961 2.599609,0.59961 l 0.599606,-0.39844 -4.699215,-1 -1.900391,2 -0.06445,0.23829 h -0.458985 c -0.699999,1.499991 1.000783,4.699597 2.800782,3.599597 -0.5,1.1 -1.300779,3.899609 1.199218,4.599609 2.799994,0.5 3.300784,-1.99922 3.800784,-3.199219 0.7,2.499999 3.69883,2.298829 4.29883,0.298829 0.4,-1.799989 -0.6,-5.799216 -1,-6.699216 1.69999,-0.59999 1.40039,-3.40039 1.40039,-3.40039 z" />
  <path
     class="cls-2"
     d="m 86.6,56.1 1.5,2 c 2.8,7.9 7.5,20 7.3,27.8 0,2.2 -1.3,4 -2.3,4.1 -3.7,1 -7.596647,1.4 -9.896647,0.4 -6.460944,6.547532 -3.596647,7.860354 -14.171996,8.603353 -4.661219,0 -16.505775,0.36204 -20.051254,-0.247622 C 43.778298,97.861258 40.613612,95.605627 39.9,94 l -2.3,-3 c -1,0.9 -9.5,2.4 -12.5,1.4 -1.7,-0.8 -3.5,-2.8 -3,-7.8 0.9,-8.6 5.5,-18 10,-26.9 l -4,0.3 c 1.8,-1.3 7.3,-1.1 9.8,-0.4 l 14.7,4.8 c -4.7,-2.3 -12.5,-5 -20.2,-5.8 -3,-0.2 -6.8,-0.5 -6.3,-2.5 0.5,-1.2 2.5,-1.1 2,-3.1 -0.7,-2 -4,-4.4 -2,-7.4 1.3,-2.2 5.5,-5.2 6.3,-6 l 1.3,-0.5 53.4,1.9 5.3,3.1 1.2,2.9 -0.9,4 0.7,3.6 -0.3,2.4 -5.5,2.6 z"
     id="path16"
     style="fill:#bc5fd3"
     sodipodi:nodetypes="ccccccscccccccccccccccccccccc" />
  <path
     id="path17"
     style="fill:#892ca0;fill-opacity:1"
     class="cls-3"
     d="m 91.558594,53.107422 c -1.029576,-0.03852 -2.827245,0.715345 -4.515625,1.505859 l -0.02344,-0.09766 -11,6 11.53711,-2.958984 0.04297,0.04297 c 0.8,-0.499999 5.100781,-1.500393 4.800782,-3.90039 -0.075,-0.4 -0.382423,-0.57461 -0.841797,-0.591797 z" />
  <path
     class="cls-3"
     d="m 87.6,86.1 c 0.5,-2.1 0.5,-3.5 0,-12 l -1,-9 c -0.6,4 0.8,14 -2.7,23 l -0.8,2.3 c 3.3,1.6 7.5,0.5 10,0 l 1,-0.8 c -3,1 -7,0 -6.5,-3.5 z"
     id="path19"
     style="fill:#892ca0;fill-opacity:1" />
  <path
     id="path20"
     class="cls-3"
     d="m 41.472656,71.388672 -2.5,2.099609 -0.798828,6.59961 0.898438,6 -0.898438,3.800781 2,3.199219 8.921875,2.302734 0.0039,0.0098 0.105469,0.01953 0.267578,0.06836 -0.0078,-0.02344 9.134765,1.634765 h 8 l 10,-1.699218 4.800782,-2 -0.800782,-1.5 c -18.906508,5.878493 -32.303679,0.295938 -33.126953,-2.011719 -5.499994,-2.299998 -6.799999,-12.300006 -6,-18.5 z"
     sodipodi:nodetypes="cccccccccccccccccc"
     style="fill:#892ca0;fill-opacity:1" />
  <path
     id="path21"
     style="fill:#892ca0"
     class="cls-3"
     d="m 28.485044,41.108065 c -2.299998,0.999999 -5.3,2.199612 -4.5,5.599609 l 1.199218,3.099609 -2.699218,5.5 v 3.300782 l 2.199218,3.5 4.300782,2.199218 3.699218,-2.199218 c 2.299998,-2.799998 5.000786,-2 9.300782,-1.5 l 12.199218,2 c -4.999995,-1.799999 -11.000006,-5.500783 -17,-6.800782 -3.499996,-0.499999 -7.000001,-0.5 -8,-0.5 -3.699996,0 -2.999217,-1.99961 -1.199218,-2.599609 2.499997,-2.399998 -3.00078,-4.399613 -1.800782,-8.099609 z" />
  <path
     class="cls-3"
     d="m 24.6,91.9 3.3,0.5 c -2,-1 -4,-3.8 -3.3,-9.5 0.8,-8.3 4.5,-16 7.5,-20.3 l -3.7,2 c -3,5.5 -7,15.4 -6.8,22 0.3,3.3 1.3,4.8 3,5.3 z"
     id="path24"
     style="fill:#892ca0;fill-opacity:1" />
  <path
     style="fill:#bc5fd3;fill-opacity:1;stroke:none;stroke-width:0.5;stroke-linecap:round;stroke-linejoin:round;stroke-dasharray:none;stroke-opacity:1;paint-order:markers fill stroke"
     d="m 24.546338,92.29423 c 0,0 -0.15503,1.860354 0.206706,2.118736 0.361735,0.258383 1.808677,1.395266 2.687178,1.498619 0.8785,0.103353 6.511239,-0.258383 6.511239,-0.258383 l 2.222089,-0.930177 0.930177,-2.480472 -0.05168,-1.550295 -7.493093,1.601972 -4.547532,-0.310059 z"
     id="path101" />
  <path
     d="m 76.963943,60.447847 10.005516,-2.849115 c 1.3123,-0.857324 4.35111,-1.841492 5.10059,-2.896647 l -5.670413,1.673176 c 3.3,9.49999 8.79883,23.00001 8.29883,29.499998 -0.3,2 -1,3.3 -2,3.5 -1.8,0.4 -6.49883,1.40001 -8.29883,0.5 2.3,-3.49999 3.5,-9.49922 3,-17.199208 -0.5,-4.5 -1.50117,-9.30078 -1.70117,-7.30079 1,10.49999 0.70116,18.400778 -4.29883,26.300788 0.5,-1.3 1.5,-3.99922 1.5,-5.19922 -2.5,-1.1 -3.90117,-4.80079 -5.20117,-9.300778 l -23.699217,0.5 c -0.8,4.699988 -2.30001,8.199608 -7,11.099598 0,2.40001 1.7,5.6004 2,5.9004 -2.1,-0.3 -7.30078,-1.8 -8.30078,-2 l -1.79883,-2.30079 c 1.8,-4 0.29844,-4.5 0.39844,-10 0.1,-2.999988 0.60156,-6.199998 1.10156,-6.999998 1.3,-0.99999 2.79883,-2.7 2.29883,-3 -0.3,0 -1.3,1 -2,1.5 0.5,-1.49999 0.70117,-3.1996 0.20117,-3.0996 -0.7,1.09999 -3.00117,7.09961 -3.20117,11.0996 0,5.499998 1.5,8.300388 -1,10.900388 -3,0.6 -9.39883,1.39961 -11.29883,0.59961 -1.2,-0.69999 -2.500779,-2.5 -2.300779,-6 0.799999,-8.999988 5.099609,-17.699218 9.599609,-27.199208 6.59999,-0.3 12.2,2 19.5,4 l -1.90039,-0.80079 c -3.9,-1.49999 -8.59845,-4 -13.39844,-4.5 -5.99999,-0.5 -8.7,0.5 -8.5,1 0,0.3 2.8,-0.0992 3,0.30079 l -2.70117,5.19921 0.15625,1.11524 c -0.0222,0.0465 -0.0462,0.0922 -0.0684,0.13867 l -0.39844,0.21484 c -2.99999,5.49999 -6.998829,15.400018 -6.798829,21.999998 0.26158,2.8773 1.05498,4.38588 2.380859,5.05664 0.36146,0.31626 0.7412,0.56629 1.11914,0.74415 3,0.99999 11.5,-0.5004 12.5,-1.4004 l 1.368653,1.036293 c 1.2,2.70001 12.050315,4.383645 23.446942,5.623881 6.937157,-0.99103 10.929482,-0.978234 13.967612,-2.222664 l 0.21679,-0.0371 4.80078,-2.00001 -0.34961,-0.6543 c 1.04517,-0.90575 1.58141,-1.72247 2.04883,-2.3457 3.3,1.59999 7.50001,0.49999 10,0 l 1,-0.80079 c -0.10359,0.0345 -0.21065,0.0601 -0.3164,0.0899 0.82328,-0.61145 1.61523,-2.07165 1.61523,-3.78906 0.2,-7.799988 -4.49883,-19.900798 -7.29883,-27.800788 l -0.4082,-0.54296 1.515793,0.233722 c 0.74462,-0.30566 0.900727,-1.162112 1.884597,-1.841152 l 2.00781,-0.94921 0.29883,-2.4004 z"
     style="fill:#06090a;fill-opacity:1"
     id="path96"
     sodipodi:nodetypes="cccccccccccccccccccccccccccccccccccccccccccccccccccccccccc" />
  <path
     class="cls-3"
     d="m 80.6,18.1 c 2,-1.7 4.5,-6 3.8,-11.2 L 83.173082,4.5384896 80.200061,9.3116322 75.473082,12.03849 Z"
     id="path26"
     style="fill:#f39237;fill-opacity:1"
     sodipodi:nodetypes="cccccc" />
  <path
     class="cls-9"
     d="m83.4 5.4c-0.3 2.6-3 5.2-6 6.6l2.6 3.6c2.4-1.5 4.1-6 3.4-10.2z"
     id="path27"
     style="fill:#da7112;fill-opacity:1" />
  <path
     class="cls-9"
     d="M 39.4,18.1 C 36.7,15.4 35.13849,9.2806334 36.03849,4.7806334 L 40.200244,10.165773 44.4,11.6 Z"
     id="path28"
     style="fill:#da7112;fill-opacity:1"
     sodipodi:nodetypes="ccccc" />
  <path
     class="cls-2"
     d="m60.1 5.1c-8.5 0-14.5 5-19.7 12.5-6 9-7.5 18.8-8.3 30.5l14.5 5.5 10.5 4.5 8.3 5.5 21.5-15.7c0-16.3-5-42.8-26.8-42.8z"
     id="path29"
     style="fill:#aa499b;fill-opacity:1" />
  <path
     class="cls-3"
     d="m36.1 5.4c0 3.2 1.5 7.2 4.5 10l2.8-3.3c-3.3-0.5-6.7-4.1-7.3-6.7z"
     id="path30"
     style="fill:#f39237;fill-opacity:1" />
  <path
     class="cls-8"
     d="m53.4 7.1c16-4.1 30.5 6.5 31.7 41.5l1.5-1.2c0-19-6-43-26.5-41.3l-6.7 1z"
     id="path31"
     style="fill:#de87cd" />
  <path
     class="cls-3"
     d="m47.1 11.1c-5.2 2.5-11.5 10.5-13.7 22l-1.5 14.8 7.1 3c-2.9-13.8 0.4-32 8.1-39.8z"
     id="path32"
     style="fill:#71205e;fill-opacity:1" />
  <path
     class="cls-1"
     d="m 87.6,38.4 -1.5,-0.8 0.5,10 -21,15.8 C 58.1,58.1 46.6,54.1 32.5,48 c 0.9,-11.1 2.6,-21.4 8.1,-29.6 5,-7 11,-12.3 19.3,-12.3 16.7,0 26.5,17.3 26.5,39.5 z M 83.1,2.9 C 82.4,7.1 79.6,10 75.7,11 72.1,7.6 66.9,4.4 60.4,4.4 55.4,4.4 50,6.1 44.1,11.1 40.9,10.4 37.6,7.6 36.9,3 36.6,2 34.4,5.6 34.4,9.1 c 0,4.5 2.2,7.5 3.8,9.3 -2.8,4.6 -5.1,10.7 -6.3,18.5 -3,1.1 -7.5,3.5 -9,5.7 -2.3,3.3 0.7,6.4 0.5,7.5 -0.8,2.9 -3.3,4.9 -2.8,7.9 1,4.6 10.096892,10.102007 7.740236,8.03353 l 0.913412,-1.503353 C 26.753648,63.030177 22.4,60.6 22.4,56.9 22.4,55 24.4,53 25,51 l 0.6,0.9 c 1.8,0 -3,-5 -1.5,-7.5 1,-1.8 6,-4.4 7.6,-5.4 l -0.3,3 c -0.8,0.4 -2.5,2 -2.5,2.6 l -0.3,-1.2 c -1,3 2,4.6 4.8,6.2 9,4.4 23.2,8.3 32,15 5.5,-4.5 18.7,-12.7 22.7,-16.7 1.5,-1.3 2.3,-2.8 1.3,-3.5 L 89,45 87.6,43.6 v -3.2 c 3.8,2 5.8,3 5,6.2 l -1.5,3.3 h 1 c 2.5,5.7 -4.387178,7.146942 -4.706706,7.406706 L 87.876529,58.6 C 90.676529,57.4 95.7,56 94.4,50.9 l -0.8,-2 c 2,-4.5 0.8,-6.8 -6,-10.5 -0.7,-6.8 -2.2,-12.8 -6,-20 2.5,-2.8 5,-8.3 2.3,-14.5 -0.5,-1.3 -0.8,-1.5 -0.8,-1 z M 36.4,5.6 c 0.7,2.5 3.2,5.3 6.7,6.5 l -4,5.3 C 36.4,14.1 35,10 36.4,5.6 Z m 44.2,11.8 -4,-5.4 c 3.5,-0.9 5.8,-3.6 6.5,-6.6 1.3,4 0.5,8.7 -2.5,12 z"
     id="path33"
     sodipodi:nodetypes="ccccccsccccsccscccccccsccccccccccccccccccccccccccccccccc" />
  <path
     class="cls-14"
     d="m24.6 92.4c-0.2 2.6 1.5 3.5 4 3.5 3 0 4.3 0 7.5-1.3 1-0.5 0.8-2.7 0.8-2.7"
     id="path34" />
  <path
     class="cls-15"
     d="m 54.228978,50.009262 c 0,0 1.056632,5.654608 3.280323,5.833616 2.076626,0.167169 3.895383,-4.887624 3.895383,-4.887624 z"
     id="path35"
     style="stroke:#06090a;stroke-width:0.576626;stroke-dasharray:none;stroke-opacity:1"
     sodipodi:nodetypes="cccc" />
  <path
     class="cls-15"
     d="m 51.272992,48.003949 c 0,0 -0.59735,4.211071 0.919084,4.848312 1.492784,0.627303 4.04235,-2.69381 4.04235,-2.69381 z"
     id="path35-4"
     style="fill:#fdfeff;stroke:#000000;stroke-width:0.548309;stroke-dasharray:none;stroke-opacity:1"
     sodipodi:nodetypes="cacc" />
  <path
     class="cls-17"
     d="m48.4 46c3.5 3.6 7.2 5.4 15 5.4 3.2 0 6.3-0.5 7-1.3-5.5 0.5-15.4 0.8-20.4-4.1-0.6-0.6 1.1-0.4 0.6-0.9-1.6-0.7-4-0.5-4.1 1.9 0.1 0.6 1.1-1 1.9-1z"
     id="path37" />
  <path
     class="cls-1"
     d="m56.4 44.4c2 1 7.2 3 13.5-0.3 0.8 0-5.8 5.5-13 0.9l-0.5-0.6z"
     id="path38" />
  <path
     class="cls-18"
     d="m 83.306706,90.393294 c 0,2 0,2.8 2.8,3.3 3.2,0.5 7.7,0.1 7.7,-1.9 0.1,-1.4 0,-1.6 0,-1.6"
     id="path39" />
  <path
     class="cls-20"
     d="m51.4 30.6c-1.3 4.8 1.5 13 11.5 13.4 7.2 0.1 13.5-4.9 12.7-13-4.2-5.6-17.5-7.6-24.2-0.4z"
     id="path42" />
  <path
     class="cls-10"
     d="m 52.684653,29.169184 c -1.7,6.904694 2.5,14.375344 11,14.941303 -7.7,1.131917 -15,-6.791501 -12,-14.148961 z"
     id="path43"
     style="stroke-width:1.06391" />
  <path
     class="cls-12"
     d="m63.1 26.7c3.3 0 5.9 2.7 5.9 5.7s-2.4 5.5-5.9 5.5c-3 0-5.7-2.5-5.7-5.5s2.7-5.7 5.7-5.7z"
     id="path44" />
  <path
     class="cls-13"
     d="m63.1 29.1c2 0 3.5 1.5 3.5 3.3 0 1.7-1.5 3.2-3.5 3.2-1.7 0-3.2-1.5-3.2-3.2 0-1.8 1.5-3.3 3.2-3.3z"
     id="path45" />
  <path
     class="cls-21"
     d="m65.4 28.6c1 0 1.5 0.8 1.5 1.5 0 0.8-0.5 1.3-1.5 1.3-0.7 0-1.3-0.5-1.3-1.3 0-0.7 0.6-1.5 1.3-1.5z"
     id="path46" />
  <path
     class="cls-1"
     d="m 64.823471,21.142999 c 2,0 5.8,0.1 8.8,3 -1,-1.9 -3.5,-4.3 -8.8,-3 z"
     id="path48" />
  <path
     class="cls-23"
     d="m57.6 63.6c0 1.5-0.2 6 0 7.4l1.5-0.1c-0.2-2.3-0.1-5.5 0-7.3 0-1.5-1.5-1.5-1.5 0z"
     id="path51" />
  <path
     class="cls-6"
     d="m57.1 71.4c0 0.7 0.5 1.5 1.9 1.2 0.9-0.2 1.4-2-0.4-1.7l-1.5 0.5z"
     id="path52" />
  <path
     class="cls-24"
     d="m58.1 72.6c-0.2 1.3 0 1.8 0.8 1.8 0.5-0.3 0.2-1 0.1-1.8h-0.9z"
     id="path53" />
  <path
     class="cls-25"
     d="m57.2 71.3c-0.1 1.3 1.4 1.7 2.4 1.3 0.5-0.6 0.3-2-1-1.7l-1.4 0.4z"
     id="path54" />
  <path
     class="cls-26"
     d="m72 62.4c0.4 3.7 0.4 6.5 0.1 8l1.5-0.3c0.4-2 0-5.7-0.2-8.2-0.3-0.9-1.5-0.5-1.4 0.5z"
     id="path55" />
  <path
     class="cls-6"
     d="m71.6 70.4c-0.5 1 0 2 1.5 1.5 1.3-0.3 1-2.3 0-1.8l-1.5 0.3z"
     id="path56" />
  <path
     class="cls-27"
     d="m72.4 72.1c-0.3 1.3 0 1.5 0.7 1.5 0.9-0.2 0.3-1 0.3-1.6l-1 0.1z"
     id="path57" />
  <path
     class="cls-25"
     d="m71.9 70.4c-0.8 0.5-0.5 2.2 1.2 1.5 1.3-0.5 1-2.3-0.2-1.8l-1 0.3z"
     id="path58" />
  <path
     class="cls-1"
     d="m 38.789941,92.186587 c 0.3,4 1.5,5 7.8,6.8 3.5,1 9.7,2.000003 14.5,2.000003 5.5,0 14.7,-1.000003 18.7,-4.300003 l 1,-1 1,-2.1 -0.2,-1.4 -2,1 c -0.5,1.5 -0.5,2.3 -2.5,3 -3.8,1.8 -11,2.8 -16.3,2.8 -5.2,0 -12,-1 -16.7,-2.8 -3,-0.6 -3.3,-1.6 -4,-3.5 z"
     id="path69" />
  <path
     class="cls-1"
     d="m 52.100001,28.753836 c -1.5,1.2 -3.7,3.2 -4,4 -0.1,1.7 3,3.7 4,5.5 1.8,3.2 6,6.2 11,6.2 5.5,0 9.3,-2.5 11.3,-5.6 1,-1.9 3.7,-4 3.5,-5.9 -0.3,-0.7 -2.3,-2.7 -3.5,-4.1 -2,-1.6 -5.4,-4 -11.3,-4 -4,0 -7.5,1.4 -11,3.9 z m -0.5,2 c 2.3,-2.3 6.3,-4.5 11.3,-4.5 4.5,0 9,1.2 12.2,4.5 1.8,6.2 -3.2,12.2 -11.5,12.2 -9,0 -13,-6.2 -12,-12.2 z"
     id="path81" />
  <path
     class="cls-24"
     d="m 55.174678,78.123838 21.769528,-0.197716 c 0.95901,2.965739 1.918021,7.414348 5.082754,8.996076 l -0.767208,2.570307 -1.438515,2.96574 c -2.877031,1.779445 -10.549112,3.361174 -17.933488,3.361174 -4.315546,0 -10.35731,-0.395432 -11.508122,-0.889723 -0.95901,-1.186296 -2.205723,-5.634907 -2.205723,-5.93148 3.836041,-1.48287 5.754061,-4.448609 6.521269,-10.577804 z"
     id="path82"
     style="fill:#bc5fd3;fill-opacity:1;stroke:none" />
</svg>
