<?xml version="1.0" encoding="UTF-8" standalone="no"?>
<svg
   viewBox="0 0 150 150"
   version="1.1"
   id="svg93"
   sodipodi:docname="C_v2.svg"
   xml:space="preserve"
   inkscape:version="1.3.2 (091e20e, 2023-11-25, custom)"
   xmlns:inkscape="http://www.inkscape.org/namespaces/inkscape"
   xmlns:sodipodi="http://sodipodi.sourceforge.net/DTD/sodipodi-0.dtd"
   xmlns="http://www.w3.org/2000/svg"
   xmlns:svg="http://www.w3.org/2000/svg"><defs
     id="defs93" /><sodipodi:namedview
     id="namedview93"
     pagecolor="#ffffff"
     bordercolor="#000000"
     borderopacity="0.25"
     inkscape:showpageshadow="2"
     inkscape:pageopacity="0.0"
     inkscape:pagecheckerboard="0"
     inkscape:deskcolor="#d1d1d1"
     inkscape:zoom="2.7366667"
     inkscape:cx="88.428745"
     inkscape:cy="104.324"
     inkscape:window-width="1920"
     inkscape:window-height="1017"
     inkscape:window-x="-8"
     inkscape:window-y="-8"
     inkscape:window-maximized="1"
     inkscape:current-layer="svg93" /><!-- SVG created with Arrow, by QuiverAI (https://quiver.ai) --><style
     type="text/css"
     id="style1">.cls-0 {fill:#CCCCCC;}
.cls-1 {fill:#397F3A;stroke:#231F20;stroke-width:1.2157;stroke-miterlimit:10;}
.cls-2 {fill:#231F20;}
.cls-3 {fill:#B9DE3C;stroke:#231F20;stroke-width:1.2157;stroke-linecap:round;stroke-linejoin:round;stroke-miterlimit:10;}
.cls-4 {fill:#9AB53C;}
.cls-5 {fill:#27303D;stroke:#231F20;stroke-width:0.75;stroke-miterlimit:10;}
.cls-6 {fill:#B9DE3C;stroke:#231F20;stroke-width:1.2157;stroke-linecap:round;stroke-linejoin:round;stroke-miterlimit:10;}
.cls-7 {fill:#8BC044;stroke:#231F20;stroke-width:1.2157;stroke-linecap:round;stroke-linejoin:round;stroke-miterlimit:10;}
.cls-8 {fill:#445C2E;}
.cls-9 {fill:#B9DE3C;}
.cls-10 {fill:none;stroke:#231F20;stroke-width:0.75;stroke-linecap:round;stroke-linejoin:round;stroke-miterlimit:10;}
.cls-11 {fill:#89A73D;}
.cls-12 {fill:#B9DE3C;stroke:#231F20;stroke-width:0.75;stroke-linecap:round;stroke-linejoin:round;stroke-miterlimit:10;}
.cls-13 {fill:#FFFFFF;stroke:#231F20;stroke-width:0.75;stroke-linecap:round;stroke-linejoin:round;stroke-miterlimit:10;}
.cls-14 {fill:#AE3125;}
.cls-15 {fill:#842315;}
.cls-16 {fill:#E74C3C;}
.cls-17 {fill:none;stroke:#231F20;stroke-width:0.9726;stroke-linecap:round;stroke-linejoin:round;stroke-miterlimit:10;}
.cls-18 {fill:#FFFFFF;}
.cls-19 {fill:#231F20;}
.cls-20 {fill:#94B53D;}
.cls-21 {fill:none;stroke:#231F20;stroke-width:0.75;stroke-miterlimit:10;}
.cls-22 {fill:#397F3A;stroke:#231F20;stroke-width:0.75;stroke-linecap:round;stroke-linejoin:round;stroke-miterlimit:10;}
.cls-23 {fill:#397F3A;stroke:#231F20;stroke-width:0.75;stroke-miterlimit:10;}
.cls-24 {fill:#849E3D;}
.cls-25 {fill:#27303D;stroke:#231F20;stroke-width:0.75;stroke-linecap:round;stroke-linejoin:round;stroke-miterlimit:10;}
.cls-26 {fill:#94B53D;stroke:#231F20;stroke-width:0.75;stroke-linecap:round;stroke-linejoin:round;stroke-miterlimit:10;}</style><g
     id="g93"
     transform="translate(-0.38757375,-1.03353)"><path
       class="cls-1"
       d="m 42.3,121.2 c 0.2,2.8 -0.2,5.5 -1.3,7.1 -2.5,3.4 -9.2,5.9 -9.2,10.5 0.2,5.9 11.9,6.8 24.5,5.1 6.4,-0.8 9.2,-5.1 9.1,-18.3 z"
       id="path1" /><path
       class="cls-1"
       d="m 79.7,125 c -0.4,4.1 -0.3,12.4 2.3,16.1 2,2.6 5.1,3.7 12.9,3.5 4.8,-0.1 16.1,-1 16.8,-3.5 1.6,-4 -6.5,-7.5 -9,-13.3 -1.1,-2.5 -1.3,-6.3 -1.3,-6.3 z"
       id="path2" /><path
       class="cls-2"
       d="m 41.6,135.7 c -3.1,1.7 -4.9,5 -4.5,8.1 l 0.8,0.1 c -0.6,-3.5 2.7,-7 3.7,-8.2 z"
       id="path3" /><path
       class="cls-2"
       d="m 50.2,137.7 c -2.5,1.1 -4.9,3.9 -4.9,6.8 h 1.2 c -0.3,-3.1 2.6,-5.5 3.7,-6.8 z"
       id="path4" /><path
       class="cls-2"
       d="m 93.7,137.6 c 1.9,1.9 3.8,4.2 3.6,6.6 l 1.1,0.1 c 0.1,-2.7 -1.7,-5.5 -4.7,-6.7 z"
       id="path5" /><path
       class="cls-2"
       d="m 102.4,135.6 c 1.7,1.7 4.1,4.9 3.2,7.7 l 0.9,-0.2 c 1.3,-2.6 -1.5,-6.5 -4.1,-7.5 z"
       id="path6" /></g><g
     id="g94"><path
       class="cls-1"
       d="m5.1 109.5c-0.8 2.8-0.3 7.5 4 9.9 3.5 2.2 7.6 2.4 10.5 1.3 2.5-1 3-3.4 2.1-5.2l-16.6-6z"
       id="path7" /><path
       class="cls-1"
       d="m125.7 115.9c-2.1 4.8 2.5 7 7.6 6.9 3.8-0.2 10.6-2.5 10.3-10.2l-14.2-0.8-3.7 4.1z"
       id="path8" /><path
       class="cls-2"
       d="m15.2 116c-0.3 2 0.7 4.1 2 5.2l1.1-0.3c-1.5-1.3-2.7-3-3-4.9h-0.1z"
       id="path9" /><path
       class="cls-2"
       d="m129.8 121.6c0.9-1.2 2.6-3.6 1.9-4.5 0 1.9-2.2 4-2.9 4.6l1 0.5z"
       id="path10" /></g><path
     class="cls-3"
     d="M 124.67515,66.312426 C 131.07515,71.312426 143,84.8 146,95 c 0.9,2.9 0.1,7.6 -1.3,9.7 0.7,1.8 0.7,5.2 0.5,5.9 -0.5,0.7 -1.6,1.5 -1.6,1.5 -4.6,2.6 -11.3,4.8 -18.6,3.6 l -0.9,-0.2 c -0.7,-0.4 -1.1,-2.2 -1.6,-3.3 -1.6,-0.3 -3.4,-1.2 -4.4,-3.2 -2.5,3.2 0.56005,1.29646 -3.17125,8.21754 C 106.72875,119.41754 83.5,125.1 70.6,125.3 59.7,125.3 49.2,124 42.3,121.5 L 35.1,119 c -1.4,-0.6 -2.5,-2.8 -2.8,-5 -1.6,-1.2 -3.2,-2.7 -3.9,-5 -1,1.3 -2.2,2.4 -3.1,3 -0.7,1.8 -1.1,3.2 -1.7,3.3 C 19.3,116 10.1,114 4.1,108.1 3.9,106.9 4.4,104.8 5,102.9 4.3,101.8 3.5,99.1 4.1,95.7 5.5,90.1 16.7,76.9 25.5,68.5 L 25.8,68.3 25.291322,61.603159 54.3,74.1 106.5,71.7 Z"
     id="path11"
     sodipodi:nodetypes="cccccccccccccccccccccccccc" /><path
     class="cls-9"
     d="m 78.8,10.3 c 5.7,-0.4 12.6,1.3 18.9,4.1 10.4,5 15.9,8.2 17.5,10.2 0.9,1 2,2.3 2,3.6 -1.6,2.5 -4.26647,6.808678 -5.46647,7.408678 -1.7,5.5 3.28945,8.04724 6.16647,9.791322 l 5.84221,-4.73412 c 2.8,2.6 4.65779,10.93412 5.35779,13.63412 -0.4,5.1 -3.5,11.7 -9.1,15.3 -3.9,2.7 -11,5.5 -17.4,9.2 C 96.7,82 85.7,86.9 81.9,88.8 78.7,89.9 66.4,90 66.4,90 56.5,86.9 40.7,77.6 36.5,72.9 31.9,68.1 21.6,59.9 21.4,56.9 21.2,54.3 25.6,43.6 31.9,36.6 c 5.5,-7 12.7,-12.7 20.4,-17.3 6.3,-3.8 12.2,-6.8 16.9,-7.7 z"
     id="path16"
     sodipodi:nodetypes="cccccccccccccccccc" /><path
     class="cls-5"
     d="m29.4 38.9c-1.8-3.2-3.9-7.5-3.9-12.3 0-4.2 1.6-9.7 3.1-8.4 0.7 0.7 3.3 7.8 7.8 11.6l1 0.6-8 8.5z"
     id="path14" /><path
     id="path17"
     class="cls-4"
     d="m 127.90433,47.116374 c 0.1,4.999995 -0.60079,9.40079 -8.30078,17.800782 -5.1,5.699994 -15.29962,11.000008 -26.099602,19 1.551833,-0.571728 3.065455,-1.177919 4.496094,-1.802735 -5.691186,2.77656 -12.370326,5.803607 -15.095703,7.203125 8.399992,-1.699998 17.000398,-5.400393 23.900381,-8.40039 8.79999,-3.999996 14.70001,-5.600788 19.5,-11.800782 l -1.5,-1.90039 c -1.6,1.399998 -3.00078,2.400392 -5.80078,3.90039 5.29999,-2.999997 11.49961,-10.699224 11.09961,-16.199218 -0.1,-2.499998 -1.29922,-6.000783 -2.19922,-7.800782 z" /><path
     class="cls-7"
     d="m30.2 63.6c-1.8-2.7-2.8-6.2-2.1-9.2 3.3-11.4 21.5-28.2 33.6-31.2 1.5-0.3 2.9-0.3 4-0.1l-0.3 2.5c-12.8 2-30.7 11-35.2 38z"
     id="path19" /><path
     class="cls-8"
     d="m29.9 62.1c-1.2-2.1-2-5.2-1.5-7.7 2.7-9.3 18.1-26.3 33.3-30.5 1.7-0.5 3.3-0.5 4-0.3l-1 2c-11.3 2-28.1 9.3-34.6 35l-0.2 1.5z"
     id="path20" /><path
     class="cls-7"
     d="m65.6 23.1c12.8 1.3 32.8 12.3 41.8 23.5 3 4 4.5 6.6 4.2 10l-8 13.3c-7.2 6.7-20 11.7-28.2 15.5l-9 4.5-6.8-3c-6.2-2.6-15.7-8.1-20.5-13-3.4-3.2-7.5-7.5-9-10.5 2.5-17 14-33.3 34.5-37.8l1-2.5z"
     id="path21" /><path
     style="fill:#b9de68;fill-opacity:1;stroke-width:7.594;stroke-linecap:round;stroke-linejoin:round;stroke-dasharray:none;paint-order:markers fill stroke"
     d="m 65.887538,28.163693 c -15.49893,3.933723 -27.992511,7.858321 -33.318359,37.68981 L 30.747518,63.432905 C 35.216247,37.843206 49.045469,29.674235 64.983199,25.709059 Z"
     id="path98"
     sodipodi:nodetypes="ccccc" /><path
     class="cls-4"
     d="m 25.3,68.6 c -2.698731,6.699366 8.216175,14.013016 16.516175,18.013016 L 53.4,89 C 47.4,86.6 40.750295,80.437279 34.450295,75.437279 31.450295,73.137279 26.1,71.7 25.3,68.6 Z"
     id="path22"
     sodipodi:nodetypes="ccccc" /><path
     class="cls-4"
     d="m29.4 110.1c2.7 4.6 9.8 6.6 10.8 7.1l24.2 3.9 14 0.1 21.2-3.3 0.4-0.6 1-3.7c-4.9 1-12.6 3.3-27.1 4-13.2 0.5-22.8-0.5-34.8-3.6-4.7-0.9-9.7-3.9-9.7-3.9z"
     id="path23" /><path
     class="cls-4"
     d="m117.9 106.6c2 3 21.2 2.5 28.2-6.5-0.2 1.8-0.7 3.3-1.5 4.6-1.2 2.4-10.7 6.4-18.5 7.4l-3.1 0.1c-2.4-0.3-4-1.8-5.1-3.6v-2z"
     id="path24" /><path
     class="cls-11"
     d="m111.1 90.4c2.5 3 2.2 8.7 1 13.6-2 4.6-8 8.1-12.1 9.6l0.6 4 9.4-2.2 6.6-3.3 1.5-3.1c-1.4-5.4-0.7-11.1-4-16.4l-3-2.2z"
     id="path25" /><path
     class="cls-4"
     d="m27.9 85.4c-2.5 4.2-3.7 11.2-4.5 16.7-0.5 2.5-1.7 4.3-5.8 5-4.2 0.5-8-0.5-11-2.5l2 2 8 4 7 1.5h1.8l3.2-3.1c-1-2.1-1-9.1-0.7-12.9l1.2-8.7-1.2-2z"
     id="path26" /><path
     class="cls-6"
     d="m 25.999608,65.373803 c -0.5,1.8 -0.3,3.5 1.5,5.8 3.2,3.9 11.6,9 26.5,18.6 -13.139646,-5.862304 -28.1,-17.011687 -28.1,-20.4 -0.4,-1 -0.2,-2.2 0.1,-4 z"
     id="path27"
     sodipodi:nodetypes="ccccc" /><path
     class="cls-20"
     d="m 80.981363,16.250406 c 2.1,0 4.306213,0.866203 4.306213,1.700109 -0.1,1.000686 -2.413378,1.653404 -3.713378,1.653404 z"
     id="path36"
     style="stroke-width:0.913184"
     sodipodi:nodetypes="cccc" /><path
     style="fill:#d8f850;fill-opacity:1;stroke:none;stroke-width:7.594;stroke-linecap:round;stroke-linejoin:round;stroke-dasharray:none;stroke-opacity:1;paint-order:markers fill stroke"
     d="m 70.341048,11.144945 -0.182705,2.923265 c -19.009427,1.68061 -35.721669,23.042057 -46.589525,37.454324 1.803394,0.163529 5.854624,-25.17584 46.77223,-40.377589 z"
     id="path99"
     sodipodi:nodetypes="cccc" /><path
     class="cls-3"
     d="m 26.175148,64.341621 c -1.8,-2.7 -4.3,-5.5 -4,-8.2 0.2,-2 3.2,-10.3 8.5,-17.5 5.2,-6.8 10.7,-12 17.8,-17 7.2,-5 15.9,-9.5 21.4,-10.3 l 0.5,-0.2 -2.5,6.5 h 0.8 c 4.2,0.5 9.540804,3.367844 13.040804,2.367844 1.348112,-0.191352 3.276241,-1.426227 3.276241,-1.426227 -1.7,1 -3.152977,1.897847 -6.852977,1.097847 -4,-0.9 -11.664068,-2.539464 -14.764068,-1.539464 1,-0.8 4,-0.8 4.5,-0.8 1.5,-3 4.3,-15.4999998 7.3,-15.9999998 2.1,-0.2 3.7,4.5 4.2,8.5 1,0 6.3,-0.4 14,2.2999998 5.5,2 14.400002,6.3 19.500002,9.7 2.5,1.6 4.3,3.6 4.8,4.8 l -0.2,1.2 c -0.8,-1.2 -2.1,-3 -4.6,-4.9 -3.7,-2.6 -9.5,-5.6 -14.400002,-7.8 -6.1,-2.8 -12.6,-5 -19,-5 0.4,3.5 1.22838,8.111084 2.12838,9.611084"
     id="path28"
     style="fill:none"
     sodipodi:nodetypes="ccccccccccccccccccccccc" /><path
     class="cls-5"
     d="m67.1 17.9c1-1.5 4.3-15.8 7-16.3 2.5-0.7 4 4.5 4.5 8.5s1 7.8 2 9.5c-3.7 0.5-8.2-1.5-13.5-1.7z"
     id="path29" /><path
     class="cls-2"
     d="m 107.42122,34.147831 c -0.1,1.5 0.19202,5.205542 -0.50798,3.205542 -1.3,-5.2 1.52838,-7.405542 2.82838,-7.405542 v 0.2 c -1.29306,0.838151 -2.04054,2.425371 -2.3204,4 z"
     id="path33"
     sodipodi:nodetypes="ccccc" /><path
     class="cls-2"
     d="m112.1 44.1z"
     id="path34" /><path
     class="cls-2"
     d="m 112.1,44.1 c 2.09933,1.748782 2.8,2.8 5.5,2.9 -2.6827,1.379598 -5.2,-1.4 -5.5,-2.9 z"
     id="path35"
     sodipodi:nodetypes="ccc" /><path
     class="cls-24"
     d="m 121.85839,45.991912 -1,0.4 h -2 l 3.8,-7 1.7,3 c -0.7,2 -1.7,3 -2.5,3.6 z"
     id="path37" /><path
     class="cls-5"
     d="m65.7 23.1-2 6.3c-0.3 1.7 13 4.5 18.2 0.7l0.5-0.7c-4.8-2.5-11.3-5.3-16.7-6.3z"
     id="path38" /><path
     class="cls-2"
     d="m118.1 44.9z"
     id="path39" /><path
     class="cls-25"
     d="m30.1 70.4"
     id="path42" /><path
     class="cls-26"
     d="m25.1 70.1"
     id="path43" /><path
     class="cls-2"
     d="m27.5 81.6c-0.6 3 0.6 6.3 1.1 6 0.3-1-0.2-1.9-0.2-1.9-0.5-0.6-0.8-3.6-0.9-4.1z"
     id="path44" /><path
     class="cls-4"
     d="m62.4 87.4 7.2 0.5-3.2 1.7-4-1.7v-0.5z"
     id="path45" /><path
     class="cls-14"
     d="m42.1 75.9c-2.5-3.8-2.2-11.3 0.5-15.5 2-3.5 5.8-3.3 10-1.5 4 1.7 7.8 2.5 15 2.5 6.3 0 11.5-1 18.8-3.5 1.2-0.5 2.2-0.3 3.2 0.2 0.3-2.2 3.8-4.5 6-3.7 1.3-0.8 4-3 5-1.3 2.8 3.8 4.3 10.3 2.8 16.8-5.3 4.7-14.2 8.7-14.2 8.7-5.3 3-15.1 7.1-18.8 9.3-3 0-6.5 0-10.3-1-6-2.6-13.2-6.8-18-11z"
     id="path46" /><path
     class="cls-16"
     d="m52.6 82.9c2.3-2.3 7.3-5.5 13.1-5.5 3.4 0 6.2 1 7.2 1.7 1.7-1 4.8-2.2 9-2.4 3.7-0.1 6.7 0.7 8 1.7l-19.5 9.5c-3 0-6.5 0-10.3-1l-7.5-4z"
     id="path47"
     style="stroke:#231f20;stroke-opacity:1" /><path
     class="cls-15"
     d="m59.1 78.6c-2.5-4.7 3.3-8.2 7-8 3.8 0 5.5 1.5 4.8 3-0.5 2 2.7 2.8 2.7 1 0-1-1.5-1.2 0-2.7 3.3-3.3 13.1-3.8 14.5 2.7 0.3 1.5-0.2 2.5-0.2 2.5-2.3-0.4-4-0.5-6-0.4-2.8 0.2-5.5 0.7-8.8 2.2-1.5-0.8-3.9-1.8-7.4-1.8-3.1 0-5.3 0.8-6.6 1.5z"
     id="path48" /><path
     class="cls-17"
     d="m52.6 82.9c2.3-2.8 11.8-8.6 20.3-3.8"
     id="path49" /><path
     class="cls-17"
     d="m70.6 81.6c2.1-2.7 6.5-4.9 11.3-4.9 3-0.1 6.7 0.7 8 1.7"
     id="path50" /><path
     class="cls-13"
     d="M 75.878928,60.460536 C 76.003776,63.922168 73.945608,69.387497 70.4,69.6 c -3.488404,0.209075 -4.934592,-4.11352 -6.425944,-8.2838 -1.069184,4.030816 -0.97223,7.367117 -4.564312,8.225944 -3.22645,0.771409 -5.649208,-3.62972 -4.522168,-8.865408 -1.3,1.3 -3.565993,7.274808 -6.487576,6.423264 C 45.236767,66.178023 44.212424,58.460536 46.212424,57.460536 47.055664,57.4 52.1,58.6 54.6,59.6 c 4,1.8 15.578928,1.660536 21.278928,0.860536 z"
     id="path51"
     sodipodi:nodetypes="cacscaccc" /><path
     class="cls-13"
     d="m 76.20268,60.648112 c -1,3.8 4.745032,8.782888 8.461632,7.817296 3.482486,-0.904768 3.060536,-5.757856 3.360536,-10.257856 0.777832,2.774056 6.553242,7.081011 9.74056,5.230816 3.029402,-1.758528 2.574052,-9.004872 0.274056,-10.504872 L 85.9,57.9 Z"
     id="path52"
     sodipodi:nodetypes="cacaccc" /><circle
     class="cls-20"
     cx="53.6"
     cy="43.4"
     id="circle52"
     r="9.2"
     style="fill:#7ca235;fill-opacity:1" /><ellipse
     style="fill:#c9dfbb;fill-opacity:1;stroke-width:7.594;stroke-linecap:round;stroke-linejoin:round;stroke-dasharray:none;paint-order:markers fill stroke"
     id="path94"
     cx="54.131134"
     cy="43.149879"
     rx="8.6558142"
     ry="7.3639011" /><circle
     class="cls-20"
     cx="83.9"
     cy="44.4"
     id="circle55"
     r="9.2"
     style="fill:#7ca235;fill-opacity:1" /><ellipse
     style="fill:#c9dfbb;fill-opacity:1;stroke-width:7.594;stroke-linecap:round;stroke-linejoin:round;stroke-dasharray:none;paint-order:markers fill stroke"
     id="path94-1"
     cx="83.886566"
     cy="44.067062"
     rx="8.6558142"
     ry="7.3639011" /><ellipse
     class="cls-18"
     cx="53.900002"
     cy="39.901875"
     id="circle53"
     rx="9.6000004"
     ry="8.5018749"
     style="stroke-width:0.94107" /><circle
     class="cls-19"
     cx="55.5"
     cy="41.3"
     r="4.3"
     id="circle54" /><ellipse
     class="cls-18"
     cx="83.599998"
     cy="41.631065"
     id="circle56"
     rx="9"
     ry="8.0310659"
     style="stroke-width:0.944638" /><circle
     class="cls-19"
     cx="82.1"
     cy="42.2"
     r="4.4"
     id="circle57" /><circle
     class="cls-17"
     cx="53.9"
     cy="41"
     r="9.4"
     id="circle58" /><circle
     class="cls-17"
     cx="83.6"
     cy="42.6"
     r="9"
     id="circle59" /><path
     class="cls-17"
     d="m 41.9,75.6 c -2,-3.5 -2.3,-10.5 0.7,-15.2 2,-3.5 5.8,-3.3 10,-1.5 4,1.7 7.8,2.5 15,2.5 6.3,0 11.5,-0.8 18.8,-3.5 l 9.2,-3.5 c 1.3,-1 3.5,-3 5,-1.5 2,2.2 4.8,9.5 2.8,17 -6.5,5.8 -16.7,10 -24.3,13.5 l -12.7,6.2 c -6.7,-2.5 -17.8,-8 -24.5,-14 z"
     id="path59"
     sodipodi:nodetypes="cccsccccccc" /><path
     class="cls-17"
     d="m 28.4,108.6 c -1.3,1.8 -2.8,3 -4.5,3 -5.3,0.3 -12.5,-2.5 -16.3,-5.2 -3,-1.8 -4.7,-5.8 -3.7,-10.8"
     id="path60"
     sodipodi:nodetypes="cccc" /><path
     class="cls-17"
     d="m 118.1,109 c -1.4,3.1 -12,5.9 -18.1,8.1 -7.9,2.3 -16.4,4.1 -29.4,4.1 -10,0 -19.5,-1.1 -30.5,-4 -6.7,-1.8 -10,-3.6 -11.7,-8.6 -1.8,-6 -0.7,-16 0.2,-22 0.3,-2 0.5,-5.5 0.8,-5.5"
     id="path61"
     sodipodi:nodetypes="ccsccsc" /><path
     class="cls-17"
     d="m 124.1,66.6 c 5.9,4.3 19.3,18.5 22,28.4 1,3.4 -0.1,8.4 -2.2,10.1 -2.8,2.3 -10.8,6.3 -19.8,7 -3.7,0.3 -6.2,-2 -6.7,-5.5 -0.7,-5 -1,-9.2 -3.8,-14 -1,-1.5 -4.2,-5 -4.2,-5"
     id="path62"
     sodipodi:nodetypes="ccccccc" /><path
     class="cls-10"
     d="m37.9 116.9c-0.3 1 0.5 3.2 0.5 3.2"
     id="path64" /><path
     class="cls-10"
     d="m51.1 119.6c-0.2 1.3 0 3.5 0.5 3.8"
     id="path65" /><path
     class="cls-10"
     d="m65.6 121.2c0 1.7 0.3 3.8 0.3 3.8"
     id="path66" /><path
     class="cls-10"
     d="m82 120.9c0.4 1.2-0.1 3.7-0.1 3.7"
     id="path67" /><path
     class="cls-10"
     d="m93 119.4c0.1 1.3 0.1 3.5-0.1 3.5"
     id="path68" /><path
     class="cls-10"
     d="m103.6 116.7c0.3 1.2 0 3.3-0.2 3.7"
     id="path69" /><path
     class="cls-17"
     d="m38.1 117.4"
     id="path70" /><path
     class="cls-10"
     d="m112.1 113.6c0.5 1.3-0.2 4.3-0.5 4.3"
     id="path71" /><path
     class="cls-17"
     d="m38.1 117.4"
     id="path72" /><path
     class="cls-10"
     d="m128.1 112.4 1 3.5"
     id="path73" /><path
     class="cls-10"
     d="m133.1 115.4c0.3-0.8 0-3-0.5-4"
     id="path74" /><path
     class="cls-10"
     d="m138.7 114c0.4-1.4-0.1-3.4-0.3-4.4"
     id="path75" /><path
     class="cls-10"
     d="m142.4 112.6c0.2-1 0-4-0.5-5"
     id="path76" /><path
     class="cls-10"
     d="m16.5 111c-0.6 1.1-1.1 3.4-1.1 3.4"
     id="path77" /><path
     class="cls-10"
     d="m12.1 109c-0.5 1.1-1.4 3.6-1.2 4.1"
     id="path78" /><path
     class="cls-10"
     d="m7.7 106.4c-0.6 1-1.3 3.6-1.1 4.2"
     id="path79" /><path
     class="cls-10"
     d="m20.4 111.9c0 0.7-1 3.2-1 3.2"
     id="path80" /><path
     class="cls-17"
     d="m38.1 112.9c0.3 1.5 1.6 4 2 4.3"
     id="path82" /><path
     class="cls-10"
     d="m100.6 114c0 1.4-1 3.4-1 3.4"
     id="path83" /><path
     class="cls-21"
     d="m44.7 100.9c-1.3 4.2-2.6 8.1-6.6 12"
     id="path84" /><path
     class="cls-17"
     d="m90.4 100.6c2.5 6.5 5 11 10.2 13.4"
     id="path85" /><path
     class="cls-10"
     d="m44.7 100.9c11.2 1.5 19.2 2.1 28 1.7 4.4-0.2 12-1 17.9-2"
     id="path86" /><path
     class="cls-22"
     d="m57.1 89.4c-0.7 4.2-1.7 9-1.4 13.2l2.4 0.3c-0.5-4.3 0.3-10 0.5-13 1-0.3-0.5-2.3-1.7-1.3l0.2 0.8z"
     id="path87" /><path
     class="cls-23"
     d="m55.9 103.9c-0.8 1 0 1.5 1.2 1.5 2 0.2 2.1-1.3 1.3-2.5-1-0.3-2.3-0.3-2.5 1z"
     id="path88" /><path
     class="cls-23"
     d="m55.9 107.1-0.3 1.3c0 0.5 2.3 0.6 2.3 0.2l-0.3-3-1.5-0.2-0.2 1.7z"
     id="path89" /><path
     class="cls-22"
     d="m72.1 90.7c0.5 3.7 0.6 8.7 0.3 12.9l2 0.8c0.7-4.8-0.3-10.5-0.8-13.8 0.8-1.5-2.5-2-2 0l0.5 0.1z"
     id="path90" /><path
     class="cls-23"
     d="m71.6 105.1c-0.2 1 0.8 1.5 2 1.5 2 0.1 2.1-2 0.5-2.5-1-0.5-2-0.5-2.5 1z"
     id="path91" /><path
     class="cls-23"
     d="m72.6 106.6-0.2 3c0 0.8 2.5 0.8 2.3 0.1l-0.3-2.8-1.8-0.3z"
     id="path92" /><path
     class="cls-2"
     d="m31.6 71.1c-1.9-2.2-9.2-9.7-9.7-13.2l0.2-2.5c1 5.2 6.8 11 9.5 15.5v0.2z"
     id="path93" /><path
     class="cls-6"
     d="m 122.55839,38.4 c 2.7,4.6 6.9,10.4 6.9,16 -0.1,4.7 -3.81677,12.13353 -9.71677,16.23353 -3.9,2.7 -11.38757,6.145956 -17.78757,9.845956 -10.292505,4.491913 -4.239264,3.061541 -19.795668,8.320514 6.1,-1.7 14.500005,-5 20.700008,-8.2 5.8,-3.2 13.1,-6.7 15.5,-8.1 6.9,-3.4 11.3,-10.6 11.1,-18.1 -0.1,-4.7 -3.3,-10.1 -6.9,-16 z"
     id="path15"
     sodipodi:nodetypes="ccccccccc" /><path
     class="cls-5"
     d="m 110.37702,34.739743 c -0.3,3.5 2.2,9 6.2,11.2 0.7,0.5 1.7,0.3 2.1,0 5.1,-5 7.6,-21 3.4,-24.5 -2.7,-1.5 -2.5,2.8 -5.5,7.5 -1.8,2.8 -5.8,5.3 -6.2,5.8 z"
     id="path30" /><ellipse
     style="fill:#ffffff;fill-opacity:1;stroke-width:7.594;stroke-linecap:round;stroke-linejoin:round;stroke-dasharray:none;paint-order:markers fill stroke"
     id="path95"
     cx="55.164661"
     cy="39.532524"
     rx="1.1627213"
     ry="0.90433878" /><ellipse
     style="fill:#ffffff;fill-opacity:1;stroke-width:7.594;stroke-linecap:round;stroke-linejoin:round;stroke-dasharray:none;paint-order:markers fill stroke"
     id="path95-1"
     cx="81.646927"
     cy="40.325443"
     rx="1.1627213"
     ry="0.90433878" /><path
     style="fill:#59647d;fill-opacity:1;stroke-width:7.594;stroke-linecap:round;stroke-linejoin:round;stroke-dasharray:none;paint-order:markers fill stroke"
     d="m 110.72609,34.869106 c 0.0205,1.815485 0.27978,3.445274 1.07278,4.659931 6.62774,-4.130667 8.72364,-8.704691 8.78539,-17.88719 -3.40312,7.438994 -5.15339,10.447731 -9.85817,13.227259 z"
     id="path96"
     sodipodi:nodetypes="cccc" /><path
     style="fill:#59647d;fill-opacity:1;stroke-width:7.594;stroke-linecap:round;stroke-linejoin:round;stroke-dasharray:none;paint-order:markers fill stroke"
     d="m 67.815248,17.478016 c 1.801864,0.2625 4.811999,0.398196 4.919859,0.973389 0.01413,-7.801535 0.491895,-10.8319864 1.193109,-16.2690529 -2.398248,3.0997735 -4.547962,9.1990359 -6.112968,15.2956639 z"
     id="path96-3"
     sodipodi:nodetypes="cccc" /><path
     style="fill:#59647d;fill-opacity:1;stroke-width:7.594;stroke-linecap:round;stroke-linejoin:round;stroke-dasharray:none;paint-order:markers fill stroke"
     d="m 66.047503,23.568819 -2.146772,5.800852 c 0.816349,1.123087 4.913656,1.804843 6.211936,1.964068 l 1.278929,-6.348964 z"
     id="path97"
     sodipodi:nodetypes="ccccc" /><path
     style="fill:#59647d;fill-opacity:1;stroke-width:6.71663;stroke-linecap:round;stroke-linejoin:round;stroke-dasharray:none;paint-order:markers fill stroke"
     d="m 36.26779,30.617297 c -1.243317,1.557102 -2.092143,1.765788 -2.712483,2.980445 -3.957433,-5.487175 -4.886455,-5.797888 -4.934761,-14.980387 2.66219,7.438994 4.483559,8.639053 7.647244,11.999942 z"
     id="path96-4"
     sodipodi:nodetypes="cccc" /></svg>
