<?xml version="1.0" encoding="UTF-8" standalone="no"?>
<svg
   viewBox="0 0 100 100"
   version="1.1"
   id="svg45"
   sodipodi:docname="D_v2.svg"
   inkscape:version="1.3.2 (091e20e, 2023-11-25, custom)"
   xmlns:inkscape="http://www.inkscape.org/namespaces/inkscape"
   xmlns:sodipodi="http://sodipodi.sourceforge.net/DTD/sodipodi-0.dtd"
   xmlns="http://www.w3.org/2000/svg"
   xmlns:svg="http://www.w3.org/2000/svg">
  <defs
     id="defs45" />
  <sodipodi:namedview
     id="namedview45"
     pagecolor="#ffffff"
     bordercolor="#000000"
     borderopacity="0.25"
     inkscape:showpageshadow="2"
     inkscape:pageopacity="0.0"
     inkscape:pagecheckerboard="0"
     inkscape:deskcolor="#d1d1d1"
     inkscape:zoom="2.9026733"
     inkscape:cx="-12.05785"
     inkscape:cy="92.500936"
     inkscape:window-width="1920"
     inkscape:window-height="1017"
     inkscape:window-x="-8"
     inkscape:window-y="-8"
     inkscape:window-maximized="1"
     inkscape:current-layer="svg45" />
  <!-- SVG created with Arrow, by QuiverAI (https://quiver.ai) -->
  <path
     class="cls-0"
     d="m 48.6,26.3 c -2.556703,-0.176324 1.6,-2.1 3.3,-2 2.1,-1.2 3.560901,-5.990987 4.560901,-7.090987 0.554616,1.864029 1.042665,3.766097 2.7,5 C 57.660901,23.709013 56.2,25.7 56.7,26.8 c 0.9,1.1 1.2,2.9 0.4,3.7 l -0.5,-0.3 c -1,-2.3 -5.443297,-3.723676 -8,-3.9 z"
     id="path18"
     style="stroke:#0f0e0e;stroke-opacity:1"
     sodipodi:nodetypes="zccccccz" />
  <style
     type="text/css"
     id="style1">.cls-0 {fill:#EC2B7D;}
.cls-1 {fill:none;stroke:#0F0E0E;stroke-width:1.34;stroke-linecap:round;stroke-linejoin:round;stroke-miterlimit:10;}
.cls-2 {fill:#FFCF40;}
.cls-3 {fill:none;stroke:#0F0E0E;stroke-width:1.34;stroke-miterlimit:10;}
.cls-4 {fill:#FFCF40;stroke:#0F0E0E;stroke-width:1.34;stroke-miterlimit:10;}
.cls-5 {fill:#FFFFFF;stroke:#0F0E0E;stroke-width:1.16;stroke-linecap:round;stroke-linejoin:round;stroke-miterlimit:10;}
.cls-6 {fill:none;stroke:#0F0E0E;stroke-width:0.86;stroke-miterlimit:10;}
.cls-7 {fill:#FFFFFF;stroke:#0F0E0E;stroke-width:0.8;stroke-miterlimit:10;}
.cls-8 {fill:none;stroke:#0F0E0E;stroke-width:0.86;stroke-linecap:round;stroke-linejoin:round;stroke-miterlimit:10;}
.cls-9 {fill:#EC2B7D;stroke:#0F0E0E;stroke-width:0.86;stroke-miterlimit:10;}
.cls-10 {fill:#0F0E0E;}
.cls-11 {fill:#FFFFFF;}
.cls-12 {fill:none;stroke:#0F0E0E;stroke-width:0.7963;stroke-miterlimit:10;}
.cls-13 {fill:#EC2B7D;stroke:#0F0E0E;stroke-width:0.7963;stroke-miterlimit:10;}
.cls-14 {fill:#0F0E0E;stroke:#0F0E0E;stroke-width:0.3981;stroke-miterlimit:10;}</style>
  <path
     class="cls-0"
     d="m29.8 27c-6.4-5.8-11.4-12.5-11.9-20.7l-0.2-2.2c-2.3 3.8-1.1 11.8-6.1 11.3l-2.6-0.1c1.2 2.5 6.6 6.7 3.6 10l-2 2.1c-0.4 0.9 0.3 1.1 0.9 1.3 4.5 1.5 8.4 3.7 8.3 9.4l-0.2 1.8 10.2-12.9z"
     id="path1"
     style="stroke:#0f0e0e;stroke-opacity:1" />
  <path
     class="cls-0"
     d="m68.1 35.6c2 0.1 3.4 0.2 4.5-0.6 4.5-3.5 12.9-11.2 13.4-22.2l0.1-2.1c2.9 3.8 0.7 11.7 6.3 11.2l2.1-0.2c1.3 0.2-0.2 1.5-1.2 2.7-4.4 5.3-4.1 6.7-0.4 10 0.7 0.6 0.6 1.3-0.1 1.5-3.6 1.2-6.4 2.5-8.3 5.4-2 2.9-0.6 8-0.1 9.9 0.1 0.4-0.1 0.6-0.5 0.3-4.1-3.1-6.8-5.2-10.5-2.6l-5.3-13.3z"
     id="path3"
     style="stroke:#0f0e0e;stroke-opacity:1" />
  <path
     class="cls-2"
     d="m17.4 46.3c-4.9-0.7-5.7-2-5.5-4.4 0.3-3.3 1.4-8.8-0.6-11.2-2-1.2-6.2 2.2-6.4 9.2-0.1 4.2 1.6 11.7 9.4 15.5l3.1-9.1z"
     id="path5" />
  <path
     class="cls-3"
     d="m17.4 46.4c-4.3-0.6-5.8-1.7-5.4-4.6 0.4-3.7 1.4-8.3-0.6-11.1-1.9-1.2-6.3 2.2-6.5 9.2-0.1 4.2 1.5 12.3 9.4 15.5"
     id="path6" />
  <path
     class="cls-4"
     d="m 21,77.6 c -1.2,3.2 -2.6,5.1 -4.9,5.7 -1.7,0.4 -6.17804,-1.194805 -7.37804,1.205195 -0.5,1 0.77804,4.994805 3.47804,5.894805 2.4,0.8 6,0.9 8.4,-0.1 3.4,-1.4 4.8,-5.4 5.9,-10.1 z"
     id="path7"
     sodipodi:nodetypes="ccssccc"
     style="stroke-width:1;stroke-dasharray:none" />
  <path
     class="cls-4"
     d="m 35.5,83.3 c -1.5,6 -4.3,6.8 -7,8.6 -6.746423,0.0381 -3.843008,5.542655 1.2,6.4 1.7,0.1 5.4,-0.1 7.9,-1.2 3.8,-1.6 4.8,-4.3 5.2,-12.7 z"
     id="path8"
     sodipodi:nodetypes="cccccc"
     style="stroke-width:1;stroke-dasharray:none" />
  <path
     class="cls-4"
     d="m 47.9,84.5 c 0.6,7.6 1.5,11.1 6.5,12.8 2.3,0.8 6.4,1.2 8.2,-0.1 2.841946,-3.612919 1.234908,-4.352657 -0.94451,-5.03353 C 59.15549,89.16647 57.3,90 56,83.3 Z"
     id="path9"
     sodipodi:nodetypes="cccccc"
     style="stroke-width:1;stroke-dasharray:none" />
  <path
     class="cls-4"
     d="m 62.95549,79.21098 c 1.1,3.7 4.3,11.8 9.6,11.9 2.3,0.1 4.5,-0.6 5.6,-1.6 4.867597,-5.221116 2.079314,-6.835176 -4.5,-6.8 -2.6,-1.1 -3.4,-1.1 -5.6,-6.6 z"
     id="path10"
     sodipodi:nodetypes="cccccc"
     style="stroke-width:1;stroke-dasharray:none" />
  <path
     style="fill:#ff80b2;fill-opacity:1;stroke:none;stroke-width:7.594;stroke-linecap:round;stroke-linejoin:round;stroke-opacity:1;paint-order:markers fill stroke"
     d="m 17.182437,6.9763276 c -0.415999,-0.1737151 -0.654372,3.7912144 -0.654372,3.7912144 0,0 2.432478,7.152672 2.290794,7.448425 -0.41051,0.856906 -7.956429,-1.646788 -6.933264,-1.248849 3.387682,1.592334 6.473917,2.378282 9.861599,5.210713 1.075581,0.675296 -3.869249,2.92174 -8.139049,4.995395 3.791467,-0.890975 8.087676,-2.88371 9.775471,-1.765613 2.379105,-0.138704 -1.835202,5.344821 -2.75608,8.009857 1.927107,-1.830269 4.052721,-6.439634 5.770543,-5.339905 0.493149,1.20254 0.856086,1.754028 1.119657,1.808678 L 30.101561,27.90531 C 21.186243,20.418222 19.192778,14.270876 17.182437,6.9763276 Z"
     id="path46"
     sodipodi:nodetypes="ccsccccccccc" />
  <path
     class="cls-2"
     d="m 57.2,23.8 c 4.9,4.1 10.7,9.6 14.3,18.7 1.5,4 2.3,9.6 4.7,12.9 2.7,3.7 4.4,4.7 2.4,9 -2.8,4.7 -7.4,9.7 -15.1,14.6 -4,2.5 -9.4,5.5 -16.9,5.5 C 38.7,84.4 30.7,82.2 24.2,79 16.4,75.1 11.1,71.8 11.1,65.6 c 0.1,-4.1 3,-8.7 4.2,-12 1.9,-5.8 2.7,-11.5 5.8,-16 3,-4.3 6.8,-8.2 10.5,-11.4 5.3,-4.6 7.8,-7.7 12.5,-7.8 3.5,-0.1 6.9,1 9.9,2.5 z"
     id="path11"
     style="stroke:#000000;stroke-opacity:1"
     sodipodi:nodetypes="cccccccccccccc" />
  <path
     class="cls-0"
     d="m56.1 16.3c-2-7.2 2.8-13.7 9.3-14.3 6.8-0.9 12.2 3.4 13.2 9 1.2 5.9-2.2 13.7-9.6 14.4-6.9 0.8-11.6-3.6-12.9-9.1z"
     id="path16" />
  <path
     class="cls-1"
     d="m56 16.3c-1.8-7.2 3.1-14.2 9.6-14.3 6.8-0.9 12.2 3.5 13.1 9 0.9 5.9-2.2 13.6-9.7 14.4-6.9 1-11.8-3.6-13-9.1z"
     id="path17" />
  <path
     class="cls-5"
     d="m31.5 43.6c3.4 1 8 2.9 13.6 2.9 6.5 0 9.9-3.1 13.3-3.1 3.1 0 4.7 4.1 4.4 7.4s-4.3 7.1-9.1 8.2c-4.8 1.2-11.3 1.5-18.3-1.9-3.5-1.7-5.4-3-6.5-7-0.8-4-1-7.6 2.6-6.5z"
     id="path22"
     style="fill:#800080;fill-opacity:1" />
  <path
     class="cls-7"
     d="m 37.500731,45.178197 c 3.422983,0.204682 -0.159114,4.685971 -1.859114,5.185971 -2.3,-0.2 -4.611532,-5.082195 -2.711532,-6.482195 0.8,-0.5 3.589286,1.237543 4.570646,1.296224 z"
     id="path23"
     sodipodi:nodetypes="sccs" />
  <path
     class="cls-7"
     d="M 45.083435,46.495493 C 45.983435,47.595493 44.1,51.1 42.6,51.1 c -1.2,0 -5.178928,-2.991717 -3.278928,-5.091717 0.8,-0.7 4.862363,0.48721 5.762363,0.48721 z"
     id="path24"
     sodipodi:nodetypes="cscc" />
  <path
     class="cls-7"
     d="m 46.324848,46.556395 c 2.766514,-0.659233 4.728768,-1.566565 5.70425,-1.103898 0.756569,0.358837 0.822494,1.930049 0.82714,2.610486 C 52.866873,49.620742 51.279571,51.616905 49.8,52.2 c -1.4,-0.361267 -2.544732,-1.581943 -3.201492,-2.807415 -0.65676,-1.225472 -0.825548,-2.45574 -0.27366,-2.83619 z"
     id="path25"
     sodipodi:nodetypes="csscsc" />
  <path
     class="cls-7"
     d="m 52.503776,45.304507 c 0.9,-1.4 5.292448,-2.269915 6.857856,-1.848843 1.7,2.4 -0.111857,6.519595 -3.374421,5.792448 -1.354508,-0.301887 -3.60946,-2.791556 -3.483435,-3.943605 z"
     id="path26"
     sodipodi:nodetypes="ccsc" />
  <path
     class="cls-9"
     d="m39.6 26c1.8 0.4 1.5 2.7-0.9 3.9-3.2 1.7-5.2 0.1-3.8-2 1-1.3 3-2.3 4.7-1.9z"
     id="path29" />
  <path
     class="cls-9"
     d="m25.6 60.2c0.5 3.3-1.1 6.2-3.1 5.9-1.9 0-3.9-2.5-3.9-5.7 0-3.5 3-6 5.4-3.2 0.9 0.9 1.4 2.2 1.6 3z"
     id="path30" />
  <path
     class="cls-9"
     d="m42.9 68.1c1.1 2.3-1.3 5.5-5.5 5.3s-6.3-3.9-4.2-6.5c2.5-2.8 8.2-2.4 9.7 1.2z"
     id="path31" />
  <path
     class="cls-9"
     d="m68.4 61.6c1.2 3-1.9 6.3-5.8 6.3-2.6 0-4.7-1.8-4.2-4.7 0.7-3.1 7.2-6.1 10-1.6z"
     id="path32" />
  <path
     class="cls-9"
     d="m45.5 35.4c-0.4 3 7.2 4.1 11.1 2.1 3.5-1.8 1.3-4.8-4-5.3-3.2-0.1-7 0.8-7.1 3.2z"
     id="path33" />
  <path
     class="cls-10"
     d="m39.6 61.6c3.8 0.6 6.5 0.9 11.5 0.5-3 1.5-9.1 1.4-11.5-0.5z"
     id="path36" />
  <path
     style="fill:#ff80b2;fill-opacity:1;stroke:none;stroke-width:7.594;stroke-linecap:round;stroke-linejoin:round;stroke-opacity:1;paint-order:markers fill stroke"
     d="m 68.643618,36.087423 2.153188,4.220247 3.358972,-1.72255 c 2.927052,1.415735 5.460906,5.583846 8.182113,8.440495 -2.111396,-3.207705 -4.820498,-4.472863 -6.115053,-10.3353 0.38021,-1.488507 0.993373,-2.831419 3.186718,-3.186717 l 11.02432,1.550295 -9.043388,-4.564758 0.430638,-1.119657 c 2.272414,-1.814194 6.837336,-4.010473 10.3353,-6.028925 -2.426957,0.92329 -4.796365,1.990452 -7.665348,1.808677 l 2.75608,-8.354368 -0.602892,-2.928334 c -1.316133,8.339907 -4.573431,12.069548 -7.665348,16.19197 l -6.459562,5.85667 z"
     id="path47"
     sodipodi:nodetypes="cccccccccccccccc" />
  <path
     class="cls-10"
     d="m87.1 17c-1 3.9-2.5 7.4-2.2 7.9s5.6-1.1 5.6-1.1c-2.9 1.3-5.8 2.6-6.4 1.9-0.9-0.6 1.5-3.3 3-8.7z"
     id="path37" />
  <path
     class="cls-10"
     d="m92.6 23.2-8.6 4.7c-2.4 1.5-3.1 2.3-1.6 3.1l7.5 3.6-7.5-2.7c-2-0.8-2.3-2.5 0.1-3.8 2.2-1.5 10.1-4.9 10.1-4.9z"
     id="path38" />
  <path
     class="cls-10"
     d="m91.5 35.2c-1.9-0.5-9.4-1.3-11.4-1.5-1.5 0-3.2 1.9-3.9 3-0.6 2 2.3 5.7 3.7 8l-2.3-2.6c-2.7-3.4-3-3.5-4.2-3.2-0.9 0.3-2.5 2.1-2.5 2.1l-0.4-0.5c1.6-1.8 2.9-3 4.1-2.4 1.5 0.5 3.1 3.3 7.3 8.3l0.5 1.1c-1.5-1.9-5.9-8-6.2-10-0.3-1.9 1.9-4.5 3.4-4.6 1.9-0.3 10.3 1.7 11.9 2.3z"
     id="path39" />
  <path
     class="cls-11"
     d="m67.2 4.5c4.5-0.3 8.7 3.2 8.8 8.5 0.1 4.7-3.3 9.4-8.8 9.6-4.6 0.1-8.3-3.5-8.5-8.7 0-5 3.9-9.2 8.5-9.4z"
     id="path40" />
  <path
     class="cls-12"
     d="m67.1 4.5c4.5-0.3 9 3.2 9.1 8.5 0.2 4.7-3.1 9.7-9 10.1-4.6 0.1-8.7-3.6-8.8-9.5 0-4.7 3.8-9.1 8.7-9.1z"
     id="path41" />
  <path
     class="cls-10"
     d="m67.4 7.9c2.6-0.2 5 2.2 5.1 5.2 0 2.8-1.9 5.5-4.8 5.5-2.6 0-4.7-2.4-4.8-5.1 0-3 2-5.4 4.5-5.6z"
     id="path42" />
  <path
     class="cls-13"
     d="m39.6 26c1.8 0.4 1.5 2.7-0.9 3.9-3.2 1.7-5.2 0.1-3.8-2 1-1.3 3-2.3 4.7-1.9z"
     id="path43" />
  <path
     class="cls-11"
     d="m69.2 10.6c1-0.4 1.5 1.8 0.4 2.1-1 0.2-1.4-1.7-0.4-2.1z"
     id="path44" />
  <path
     class="cls-14"
     d="m67.4 8.1c2.5 0 4.3 2.1 4.3 5 0 2.6-1.7 4.8-4.1 4.9-2.2 0-4.2-2.3-4.2-4.6-0.2-2.9 1.7-5.3 4-5.3z"
     id="path45" />
  <ellipse
     style="fill:#ffffff;fill-opacity:1;stroke-width:7.594;stroke-linecap:round;stroke-linejoin:round;stroke-dasharray:none;paint-order:markers fill stroke"
     id="path95-1"
     cx="67.463196"
     cy="10.128544"
     rx="1.1627213"
     ry="0.90433878" />
  <path
     class="cls-10"
     d="m13.6 17.4c2 0.5 4.8 1 5.1 0.7 0.3-0.2-2.1-7.4-2.1-7.4 1.1 3.7 3.3 6.7 3 7.7-0.2 1.1-1.9 0.2-6-1z"
     id="path35" />
  <path
     class="cls-10"
     d="m10.6 16.4c3.3 1.8 8.8 4.2 10.1 5.4 1.2 1.1 0.2 1.6-0.8 2.2-1.4 0.6-7.5 3.9-7.5 3.9s7.5-2.8 10-3.3c1.2-0.2 2.7 0.8 1.8 3l-2.6 4.8c1.4-1.5 3-5.2 4.5-4.8 1 0.3 1.5 1.1 1.5 1.1l-0.7 0.7s-0.8-1.5-1.5-0.7l-5 5.5s2.7-6.3 3.1-7.3c0.2-1-0.1-1.8-1.6-1.5l-9.3 2 7.3-3.2c4-1.6 1.7-2.8-1.3-4.2l-8-3.6z"
     id="path34" />
  <path
     id="path48"
     style="fill:#f2a832;fill-opacity:1;stroke:none;stroke-width:7.594;stroke-linecap:round;stroke-linejoin:round;stroke-opacity:1;paint-order:markers fill stroke"
     d="M 58.65283,26.957411 C 68.724598,34.972601 75.598896,61.325149 74.811709,63.549399 71.657254,72.46252 52.510054,86.560557 28.939453,77.341797 21.347997,76.624801 13.18484,69.565822 11.628906,67.242188 c 0.193985,1.69868 0.594105,3.4079 6.234375,8.255859 12.781919,6.684625 21.278736,8.013022 27.672202,8.897244 C 58.195562,84.08193 73.673225,73.268027 78.210938,63.875 c 0.02597,0.03732 0.05225,0.08096 0.07812,0.117188 l 0.175782,-0.666016 c 0.242578,-0.557943 0.448009,-1.111887 0.599609,-1.658203 -0.0771,0.106999 -0.170981,0.218458 -0.25,0.326172 l 0.335938,-1.273438 C 77.423592,57.776015 77.434448,58.974609 73.896484,51.503906 68.156314,28.206057 52.809565,22.307296 58.65283,26.957411 Z M 11.628906,67.242188 c -0.0283,-0.247801 -0.0528,-0.494859 -0.08789,-0.751954 -0.295108,-0.01553 -0.229287,0.278281 0.08789,0.751954 z"
     sodipodi:nodetypes="sscccccccccccsccc" />
</svg>
