<?xml version="1.0" encoding="UTF-8" standalone="no"?>
<svg
   viewBox="0 0 150 150"
   version="1.1"
   id="svg76"
   sodipodi:docname="E_v2.svg"
   inkscape:version="1.3.2 (091e20e, 2023-11-25, custom)"
   xmlns:inkscape="http://www.inkscape.org/namespaces/inkscape"
   xmlns:sodipodi="http://sodipodi.sourceforge.net/DTD/sodipodi-0.dtd"
   xmlns="http://www.w3.org/2000/svg"
   xmlns:svg="http://www.w3.org/2000/svg">
  <defs
     id="defs76">
    <inkscape:path-effect
       effect="bspline"
       id="path-effect361-7-6-32"
       is_visible="true"
       lpeversion="1.3"
       weight="33.333333"
       steps="2"
       helper_size="0"
       apply_no_weight="true"
       apply_with_weight="true"
       only_selected="false"
       uniform="false" />
    <inkscape:path-effect
       effect="bspline"
       id="path-effect361-7-6-32-1"
       is_visible="true"
       lpeversion="1.3"
       weight="33.333333"
       steps="2"
       helper_size="0"
       apply_no_weight="true"
       apply_with_weight="true"
       only_selected="false"
       uniform="false" />
    <inkscape:path-effect
       effect="bspline"
       id="path-effect99"
       is_visible="true"
       lpeversion="1.3"
       weight="33.333333"
       steps="2"
       helper_size="0"
       apply_no_weight="true"
       apply_with_weight="true"
       only_selected="false"
       uniform="false" />
    <inkscape:path-effect
       effect="bspline"
       id="path-effect117"
       is_visible="true"
       lpeversion="1.3"
       weight="33.333333"
       steps="2"
       helper_size="0"
       apply_no_weight="true"
       apply_with_weight="true"
       only_selected="false"
       uniform="false" />
  </defs>
  <sodipodi:namedview
     id="namedview76"
     pagecolor="#ffffff"
     bordercolor="#000000"
     borderopacity="0.25"
     inkscape:showpageshadow="2"
     inkscape:pageopacity="0.0"
     inkscape:pagecheckerboard="0"
     inkscape:deskcolor="#d1d1d1"
     inkscape:zoom="1.3683333"
     inkscape:cx="41.656516"
     inkscape:cy="31.790499"
     inkscape:window-width="1920"
     inkscape:window-height="1017"
     inkscape:window-x="-8"
     inkscape:window-y="-8"
     inkscape:window-maximized="1"
     inkscape:current-layer="svg76" />
  <g
     id="g87"
     transform="matrix(1.7044131,0,0,1.3186562,-69.119196,-20.175921)">
    <path
       class="cls-2"
       d="M 129.6,45.5"
       id="path23" />
    <path
       class="cls-2"
       d="m 99.7,48.2 c 2.6,-1 4.5,-3.8 5.5,-5.6 0.6,-1.3 1.2,-2.8 3.7,-1.7 3.4,1.3 9.53597,8.139745 13.03597,14.139745"
       id="path24"
       sodipodi:nodetypes="cccc" />
    <path
       class="cls-3"
       d="m 99.5,48.7 -1.1,13.2 c 2.5,-2.5 4.7,-3.7 9.2,-0.3 0.8,0.6 1,0.8 1.3,0 2.4,-5.4 5.7,-8.2 11.6,-6.1 l 1.22158,0.06987 C 119.62158,51.169872 111.6,40.8 107.4,40.7 c -1.3,0 -1.8,1.9 -2.3,2.7 -1.4,2.1 -3.5,4.2 -5.6,5.3 z"
       id="path29"
       sodipodi:nodetypes="ccccccccc" />
    <path
       class="cls-4"
       d="m 98.860536,52.35676 4.600004,-3.3 2.1,1.4 c 0,0 2.7,9.1 2.4,9.5 -0.2,0.4 -3.5,-7.1 -5.2,-6.1 -1.7,1 -3.900004,5.5 -3.900004,5.5 z"
       id="path30" />
    <path
       class="cls-5"
       d="m 98.7,62.4 c 2.2,-2.9 4.7,-4.5 8.9,-1 0.8,0.6 1.1,1.3 1.4,0.2 2.7,-5.9 8.1367,-8.222894 13.5367,-6.022894"
       id="path32"
       sodipodi:nodetypes="cccc" />
    <path
       class="cls-17"
       d="M 108.4,59.9 C 107.7,57 105.6,50 104.2,49 c -0.6,-0.4 -2.3,1.6 -4.8,2.9"
       id="path36" />
    <path
       id="path37"
       style="fill:#ffaacc;fill-opacity:1"
       class="cls-4"
       d="m 107.75195,41.345703 c -0.63537,0.007 -1.20799,0.218416 -1.67968,0.691406 -0.98553,1.555847 -1.46133,2.603364 -1.625,3.345703 l -1.47852,2.085938 -4,2.400391 v 1.800781 c 1.4,-0.5 4.40039,-3 5.40039,-3 1.1,0.499999 1.8,2.500002 2.5,5 0,-2.061201 -0.52679,-4.713007 -0.99414,-6.658203 0.11794,-0.689809 0.36792,-1.667646 0.89844,-2.375 2.3,-1.299999 9.00859,4.088283 11.80859,6.488281 -0.66552,-2.227479 -6.94723,-9.821894 -10.83008,-9.779297 z" />
    <path
       class="cls-17"
       d="m 118.7,52.2 c -2.5,-2.2 -7.1,-7.6 -10.7,-7.3 -1.1,0.5 -1.4,1.5 -1.3,2.5 0.4,3.2 1.4,9 1.4,12.2"
       id="path39" />
  </g>
  <g
     id="g87-7"
     transform="matrix(-1.7044131,0,0,1.3186562,219.11881,-18.34476)">
    <path
       class="cls-2"
       d="M 129.6,45.5"
       id="path23-2"
       style="fill:none;stroke:#191919;stroke-width:1.8452;stroke-linecap:round;stroke-linejoin:round;stroke-miterlimit:10" />
    <path
       class="cls-2"
       d="m 99.7,48.2 c 2.6,-1 4.5,-3.8 5.5,-5.6 0.6,-1.3 1.2,-2.8 3.7,-1.7 3.4,1.3 9.83378,8.25741 13.33378,14.25741"
       id="path24-3"
       style="fill:none;stroke:#191919;stroke-width:1.8452;stroke-linecap:round;stroke-linejoin:round;stroke-miterlimit:10"
       sodipodi:nodetypes="cccc" />
    <path
       class="cls-3"
       d="m 99.5,48.7 -1.1,13.2 c 2.5,-2.5 4.7,-3.7 9.2,-0.3 0.8,0.6 1,0.8 1.3,0 2.4,-5.4 5.7,-8.2 11.6,-6.1 l 0.9,-0.9 c -2.1,-4.4 -9.8,-13.8 -14,-13.9 -1.3,0 -1.8,1.9 -2.3,2.7 -1.4,2.1 -3.5,4.2 -5.6,5.3 z"
       id="path29-9"
       style="fill:#f05079" />
    <path
       class="cls-4"
       d="m 98.860536,52.35676 4.600004,-3.3 2.1,1.4 c 0,0 2.7,9.1 2.4,9.5 -0.2,0.4 -3.5,-7.1 -5.2,-6.1 -1.7,1 -3.900004,5.5 -3.900004,5.5 z"
       id="path30-8"
       style="fill:#a24360" />
    <path
       class="cls-5"
       d="m 98.7,62.4 c 2.2,-2.9 4.7,-4.5 8.9,-1 0.8,0.6 1.1,1.3 1.4,0.2 2.7,-5.9 7.76756,-8.010141 13.16756,-5.810141"
       id="path32-1"
       style="fill:none;stroke:#191919;stroke-width:1.3839;stroke-linecap:round;stroke-linejoin:round;stroke-miterlimit:10"
       sodipodi:nodetypes="cccc" />
    <path
       class="cls-17"
       d="M 108.4,59.9 C 107.7,57 105.6,50 104.2,49 c -0.6,-0.4 -2.3,1.6 -4.8,2.9"
       id="path36-8"
       style="fill:none;stroke:#191919;stroke-width:0.6151;stroke-linecap:round;stroke-miterlimit:10" />
    <path
       id="path37-1"
       style="fill:#ffaacc;fill-opacity:1"
       class="cls-4"
       d="m 107.75195,41.345703 c -0.63537,0.007 -1.20799,0.218416 -1.67968,0.691406 -0.98553,1.555847 -1.46133,2.603364 -1.625,3.345703 l -1.47852,2.085938 -4,2.400391 v 1.800781 c 1.4,-0.5 4.40039,-3 5.40039,-3 1.1,0.499999 1.8,2.500002 2.5,5 0,-2.061201 -0.52679,-4.713007 -0.99414,-6.658203 0.11794,-0.689809 0.36792,-1.667646 0.89844,-2.375 2.3,-1.299999 9.00859,4.088283 11.80859,6.488281 -0.66552,-2.227479 -6.94723,-9.821894 -10.83008,-9.779297 z" />
    <path
       class="cls-17"
       d="m 118.7,52.2 c -2.5,-2.2 -7.1,-7.6 -10.7,-7.3 -1.1,0.5 -1.4,1.5 -1.3,2.5 0.4,3.2 1.4,9 1.4,12.2"
       id="path39-3"
       style="fill:none;stroke:#191919;stroke-width:0.6151;stroke-linecap:round;stroke-miterlimit:10" />
  </g>
  <g
     id="g79-1"
     transform="rotate(-20.936338,80.489944,81.30107)">
    <g
       id="g78-4">
      <path
         class="cls-0"
         d="M 50.3,76.7 C 44,75.7 30.7,69.5 22.6,59.4 17.8,53.5 13.9,44.9 13.9,40 c 0,-3.7 2.9,-4.8 3.1,-3.6 0.4,-2.4 1.7,-4.2 3.3,-3.7 2,0.6 2.2,4.8 2.4,7.1 1.7,-1.4 3.8,-2.4 4.9,-1.2 1.9,1.8 -0.8,4.2 -2.2,6.2 -6.003616,4.712041 17.537841,25.826616 26.312808,24.819715 L 51.5,76.6 Z"
         id="path11-4"
         sodipodi:nodetypes="ccscccccccc"
         style="fill:#87cdde;fill-opacity:1" />
      <path
         class="cls-1"
         d="m 28.5,64.4 c 3.7,3 18.696251,9.087574 20.296251,8.587574 C 50.196251,72.687574 47.3,69.1 47.3,69.1 l 4,1.1 -0.7,6.7 C 44,75.1 34.2,70.3 28.5,64.4 Z"
         id="path12-9"
         sodipodi:nodetypes="cccccc"
         style="fill:#00aad4;fill-opacity:1" />
    </g>
    <g
       id="g77-9"
       transform="translate(-0.16610788,-0.46102444)">
      <path
         class="cls-2"
         d="M 50.3,76.8 C 45,75.7 36.3,72.3 28.4,65.3 20.6,58.4 14.1,47 13.9,39.1 c 0,-3.2 2.7,-4.5 3.1,-2.4"
         id="path13-3"
         style="fill:none;stroke:#191919;stroke-width:1.445;stroke-linecap:round;stroke-linejoin:round;stroke-miterlimit:10;stroke-dasharray:none" />
      <path
         class="cls-2"
         d="m 17.7,34.634592 c 0.9,-2.1 2.6,-3.1 4,-1 0.8,1.2 1.1,4 1.3,6.2"
         id="path14-1"
         style="fill:none;stroke:#191919;stroke-width:1.245;stroke-linecap:round;stroke-linejoin:round;stroke-miterlimit:10;stroke-dasharray:none" />
      <path
         class="cls-9"
         d="m 16.3,42.8 c 0.8,-0.7 0.8,-1.4 0.7,-1.9 -0.3,-1.6 -0.6,-3.7 -0.6,-3.7 l 1.1,-0.8 1.2,4.7 c 0,0 -1.6,0.3 -2.4,1.7 z"
         id="path15-8"
         style="fill:#191919" />
      <path
         class="cls-9"
         d="m 16.3,42.8 c 0.4,-2 3.2,-3 5,-2.4 -2.4,0.3 -4.4,2.1 -5,2.4 z"
         id="path16-7"
         style="fill:#191919" />
      <path
         class="cls-2"
         d="m 20.070808,45.016765 c -0.3,-3.7 4.5,-7.4 6.6,-6.3 1.1,0.5 1.7,1.8 0.8,3.5 -1.2,2.4 -2.5,2.7 -2.5,3.9 -0.1,3 3.1,9.7 8,14.3 5.8,5.6 11.9,8.2 18.1,10"
         id="path17-6"
         style="fill:none;stroke:#191919;stroke-width:1.245;stroke-linecap:round;stroke-linejoin:round;stroke-miterlimit:10;stroke-dasharray:none" />
    </g>
  </g>
  <!-- SVG created with Arrow, by QuiverAI (https://quiver.ai) -->
  <g
     id="g86"
     transform="rotate(0.70588632,-735.25471,-52.320639)"
     style="stroke-width:0.95;stroke-dasharray:none">
    <g
       id="g82"
       style="stroke-width:0.95;stroke-dasharray:none">
      <path
         class="cls-0"
         d="m 99.7,77.4 c 5.6,-0.6 17.2,-6 24,-13.4 5.4,-5.8 11.2,-14.5 12.3,-22.4 0.6,-4.2 -2.6,-6 -3.2,-4.9 -0.4,-2.3 -1.9,-3.8 -3.3,-3.1 -1.9,0.8 -1.9,4.5 -2.3,6.8 -1.4,-1.1 -3.6,-2.4 -5.1,-1.1 -1.6,1.5 0.1,3.8 1.3,5.2 1.9,2.2 0.9,3.3 -0.4,7.3 l -1.7,2.8 c -4.8,7 -11.4,12 -21.3,15.2 l -1.3,0.4 z"
         id="path81"
         style="fill:#87cdde;fill-opacity:1;stroke-width:0.95;stroke-dasharray:none" />
      <path
         class="cls-1"
         d="m 102.1,69.9 c -0.2,2.8 0.2,3.7 1.2,3.6 3.3,0 11.3,-3.6 14,-5.8 2.8,-2.1 7.6,-5.6 9.3,-7.7 -6.9,7.9 -16.1,13.9 -27.1,17.1 l -0.9,-7.2 z"
         id="path82"
         style="fill:#00aad4;stroke-width:0.95;stroke-dasharray:none" />
    </g>
    <g
       id="g85"
       transform="translate(0.55001352,-0.64595629)"
       style="stroke-width:0.95;stroke-dasharray:none">
      <path
         class="cls-2"
         d="m 99.1,70.6 c 7.4,-1.9 15.5,-6 20,-11.7 3,-3.6 5.8,-9.2 5.3,-13 -1,-2.5 -4.3,-4.5 -2.4,-6.5 1.6,-1.8 4.6,0.8 5.4,1.7 0.3,-1.6 0.2,-8 3.2,-7.5 2.1,0.6 2.4,3.6 1.1,8.3"
         id="path83"
         style="stroke-width:0.95;stroke-dasharray:none" />
      <path
         class="cls-9"
         d="m 128.6,41.2 c 1.8,-0.1 4.3,0.9 5,2.5 -2.2,-1.3 -3,-2.3 -5,-2.3 z"
         id="path84"
         style="stroke-width:0.95;stroke-dasharray:none" />
      <path
         class="cls-2"
         d="m 133,36.4 c 1.4,0 3.4,1.6 2.6,5.8 -1.5,7.3 -6.7,15.6 -12.2,21.2 -5.5,5.7 -13.3,11.1 -23.9,14"
         id="path85"
         style="fill:none;fill-opacity:1;stroke-width:0.95;stroke-dasharray:none" />
    </g>
  </g>
  <style
     type="text/css"
     id="style1">.cls-0 {fill:#33D8A7;}
.cls-1 {fill:#27AC88;}
.cls-2 {fill:none;stroke:#191919;stroke-width:1.8452;stroke-linecap:round;stroke-linejoin:round;stroke-miterlimit:10;}
.cls-3 {fill:#F05079;}
.cls-4 {fill:#A24360;}
.cls-5 {fill:none;stroke:#191919;stroke-width:1.3839;stroke-linecap:round;stroke-linejoin:round;stroke-miterlimit:10;}
.cls-6 {fill:#33D8A7;stroke:#191919;stroke-width:1.955;stroke-linecap:round;stroke-linejoin:round;stroke-miterlimit:10;}
.cls-7 {fill:#27AC88;}
.cls-8 {fill:#33D8A7;stroke:#191919;stroke-width:1.8262;stroke-linecap:round;stroke-linejoin:round;stroke-miterlimit:10;}
.cls-9 {fill:#191919;}
.cls-10 {fill:#99F5DE;}
.cls-11 {fill:#FFFFFF;}
.cls-12 {fill:none;stroke:#191919;stroke-width:0.9226;stroke-miterlimit:10;}
.cls-13 {fill:none;stroke:#191919;stroke-width:1.3839;stroke-linecap:round;stroke-miterlimit:10;}
.cls-14 {fill:none;stroke:#191919;stroke-width:0.75;stroke-linecap:round;stroke-miterlimit:10;}
.cls-15 {fill:none;stroke:#191919;stroke-width:1.2302;stroke-linecap:round;stroke-miterlimit:10;}
.cls-16 {fill:none;stroke:#191919;stroke-width:0.9226;stroke-linecap:round;stroke-miterlimit:10;}
.cls-17 {fill:none;stroke:#191919;stroke-width:0.6151;stroke-linecap:round;stroke-miterlimit:10;}
.cls-18 {fill:#FFFFFF;stroke:#FFFFFF;stroke-width:0.2306;stroke-linecap:round;stroke-linejoin:round;stroke-miterlimit:10;}
.cls-19 {fill:none;stroke:#191919;stroke-width:1.0744;stroke-linecap:round;stroke-miterlimit:10;}</style>
  <g
     id="g79">
    <g
       id="g78">
      <path
         class="cls-0"
         d="M 50.3,76.7 C 44,75.7 30.7,69.5 22.6,59.4 17.8,53.5 13.9,44.9 13.9,40 c 0,-3.7 2.9,-4.8 3.1,-3.6 0.4,-2.4 1.7,-4.2 3.3,-3.7 2,0.6 2.2,4.8 2.4,7.1 1.7,-1.4 3.8,-2.4 4.9,-1.2 1.9,1.8 -0.8,4.2 -2.2,6.2 -6.003616,4.712041 17.537841,25.826616 26.312808,24.819715 L 51.5,76.6 Z"
         id="path11"
         sodipodi:nodetypes="ccscccccccc"
         style="fill:#87cdde;fill-opacity:1" />
      <path
         class="cls-1"
         d="m 28.5,64.4 c 3.7,3 18.696251,9.087574 20.296251,8.587574 C 50.196251,72.687574 47.3,69.1 47.3,69.1 l 4,1.1 -0.7,6.7 C 44,75.1 34.2,70.3 28.5,64.4 Z"
         id="path12"
         sodipodi:nodetypes="cccccc"
         style="fill:#00aad4;fill-opacity:1" />
    </g>
    <g
       id="g77"
       transform="translate(-0.16610788,-0.46102444)">
      <path
         class="cls-2"
         d="M 50.3,76.8 C 45,75.7 36.3,72.3 28.4,65.3 20.6,58.4 14.1,47 13.9,39.1 c 0,-3.2 2.7,-4.5 3.1,-2.4"
         id="path13"
         style="stroke-width:1.445;stroke-dasharray:none" />
      <path
         class="cls-2"
         d="m 17.7,34.634592 c 0.9,-2.1 2.6,-3.1 4,-1 0.8,1.2 1.1,4 1.3,6.2"
         id="path14"
         style="stroke-width:1.245;stroke-dasharray:none" />
      <path
         class="cls-9"
         d="m 16.3,42.8 c 0.8,-0.7 0.8,-1.4 0.7,-1.9 -0.3,-1.6 -0.6,-3.7 -0.6,-3.7 l 1.1,-0.8 1.2,4.7 c 0,0 -1.6,0.3 -2.4,1.7 z"
         id="path15" />
      <path
         class="cls-9"
         d="m 16.3,42.8 c 0.4,-2 3.2,-3 5,-2.4 -2.4,0.3 -4.4,2.1 -5,2.4 z"
         id="path16" />
      <path
         class="cls-2"
         d="m 20.070808,45.016765 c -0.3,-3.7 4.5,-7.4 6.6,-6.3 1.1,0.5 1.7,1.8 0.8,3.5 -1.2,2.4 -2.5,2.7 -2.5,3.9 -0.1,3 3.1,9.7 8,14.3 5.8,5.6 11.9,8.2 18.1,10"
         id="path17"
         style="stroke-width:1.245;stroke-dasharray:none" />
    </g>
  </g>
  <g
     id="g81"
     transform="rotate(18.884666,41.312747,88.185332)"
     style="stroke-width:0.95;stroke-dasharray:none">
    <g
       id="g80"
       style="stroke-width:0.95;stroke-dasharray:none">
      <path
         class="cls-0"
         d="m 99.7,77.4 c 5.6,-0.6 17.2,-6 24,-13.4 5.4,-5.8 11.2,-14.5 12.3,-22.4 0.6,-4.2 -2.6,-6 -3.2,-4.9 -0.4,-2.3 -1.9,-3.8 -3.3,-3.1 -1.9,0.8 -1.9,4.5 -2.3,6.8 -1.4,-1.1 -3.6,-2.4 -5.1,-1.1 -1.6,1.5 0.1,3.8 1.3,5.2 1.9,2.2 0.9,3.3 -0.4,7.3 l -1.7,2.8 c -4.8,7 -11.4,12 -21.3,15.2 l -1.3,0.4 z"
         id="path18"
         style="fill:#87cdde;fill-opacity:1;stroke-width:0.95;stroke-dasharray:none" />
      <path
         class="cls-1"
         d="m 102.1,69.9 c -0.2,2.8 0.2,3.7 1.2,3.6 3.3,0 11.3,-3.6 14,-5.8 2.8,-2.1 7.6,-5.6 9.3,-7.7 -6.9,7.9 -16.1,13.9 -27.1,17.1 l -0.9,-7.2 z"
         id="path19"
         style="fill:#00aad4;stroke-width:0.95;stroke-dasharray:none" />
    </g>
    <g
       id="g76"
       transform="translate(0.55001352,-0.64595629)"
       style="stroke-width:0.95;stroke-dasharray:none">
      <path
         class="cls-2"
         d="m 99.1,70.6 c 7.4,-1.9 15.5,-6 20,-11.7 3,-3.6 5.8,-9.2 5.3,-13 -1,-2.5 -4.3,-4.5 -2.4,-6.5 1.6,-1.8 4.6,0.8 5.4,1.7 0.3,-1.6 0.2,-8 3.2,-7.5 2.1,0.6 2.4,3.6 1.1,8.3"
         id="path20"
         style="stroke-width:0.95;stroke-dasharray:none" />
      <path
         class="cls-9"
         d="m 128.6,41.2 c 1.8,-0.1 4.3,0.9 5,2.5 -2.2,-1.3 -3,-2.3 -5,-2.3 z"
         id="path22"
         style="stroke-width:0.95;stroke-dasharray:none" />
      <path
         class="cls-2"
         d="m 133,36.4 c 1.4,0 3.4,1.6 2.6,5.8 -1.5,7.3 -6.7,15.6 -12.2,21.2 -5.5,5.7 -13.3,11.1 -23.9,14"
         id="path25"
         style="fill:none;fill-opacity:1;stroke-width:0.95;stroke-dasharray:none" />
    </g>
  </g>
  <path
     class="cls-0"
     d="m76.1 2.6c-13.5 0-26.1 10.3-28.3 24-1.2 7.4 1.6 16.5 2.3 26.8 1.3 13.5-0.2 28-2.1 42.3-1.6 11.2-3.4 26 3.6 38.2 3.3 5.6 10.1 13.5 23 13.5 16.3 0.2 28.5-10.4 28.8-32 0.2-11.4-3.3-26.9-4.7-47.2-0.6-12.5 2.7-27.8 3.4-34.8 1-10.8-4.5-30.5-26-30.8z"
     id="path41"
     style="fill:#87cdde;fill-opacity:1" />
  <path
     class="cls-1"
     d="m55 138.2c5.6 3.3 15.3 4.4 22.1 2.2 10-3 17.9-10.5 21-20.5 2.3-7.3 2-22 2-32.3l3 19.8c1.5 19.2-5.8 39-26.7 39.8-12 0.4-17.5-3.8-21.4-9z"
     id="path42"
     style="fill:#00aad4;fill-opacity:1" />
  <path
     class="cls-2"
     d="m 75.841617,1.8248528 c -13.5,0 -26.1,10.0000002 -28.2,23.4999992 -1.5,8.3 1.1,14.8 2.2,27.300001 1.3,13.5 0,26.5 -2,42.3 -1.7,11.899997 -3.4,26.299997 3.5,38.199997 3.8,6.1 10,13.3 23,13.5 18.8,0.2 28.500003,-12.8 28.700003,-33 0.1,-11.2 -3.300003,-24.999997 -4.600003,-46.299997 -0.6,-12.5 2.400003,-27.700001 3.200003,-34.100001 1.7,-12.299999 -4.800003,-31.0999992 -25.800003,-31.3999992 z"
     id="path43"
     style="stroke-width:1.045;stroke-dasharray:none" />
  <path
     class="cls-7"
     d="m 56.376307,98.399466 c -0.369601,-6.1079 4.620012,-7.43571 6.098415,-0.53112 1.293603,7.701274 -5.174413,8.763524 -6.098415,0.53112 z"
     id="path44"
     style="stroke-width:2.21531;fill:#2a7fff" />
  <path
     class="cls-7"
     d="m 55.082704,106.89743 c 0,-3.98342 3.141608,-3.71786 3.88081,0 0.739201,5.04566 -3.88081,4.7801 -3.88081,0 z"
     id="path45"
     style="stroke-width:2.21531;fill:#2a7fff" />
  <path
     class="cls-7"
     d="m 65.61633,87.245906 c 0.554401,-5.576787 4.620011,-4.24898 4.989612,0.79668 0.184801,6.90459 -4.989612,6.90459 -4.989612,-0.79668 z"
     id="path46"
     style="stroke-width:2.21531;fill:#2a7fff" />
  <path
     class="cls-7"
     d="m 73.637759,116.54085 c 0,-8.31921 8.979404,-10.559 9.278718,-0.95991 0.598627,9.91906 -9.278718,9.59909 -9.278718,0.95991 z"
     id="path47"
     style="stroke-width:3.09469;fill:#2a7fff" />
  <path
     class="cls-7"
     d="m 84.11373,120.70046 c 0.897941,-5.11952 5.98627,-5.11952 5.98627,0 -0.299313,6.39939 -6.584896,6.39939 -5.98627,0 z"
     id="path48"
     style="stroke-width:3.09469;fill:#2a7fff" />
  <path
     class="cls-9"
     d="m51.2 27.4c-0.6 7.7 4.7 14.3 13.4 13.8 2-0.1 4.5-0.6 6.1-1.3 0.4-8.2-4.3-16.9-12-18-4.3-0.5-7.3 2.1-7.5 5.5z"
     id="path49" />
  <path
     class="cls-9"
     d="m98.6 26.7c0.8 7.3-3.5 13.9-12.2 14.5-2 0.2-4.7 0-7.4-1.2-0.4-8.4 4.1-17 12.4-18.3 3.7-0.3 6.7 1.7 7.2 5z"
     id="path51" />
  <path
     class="cls-3"
     d="m 50.12838,27.71486 c 1.7,-1.8 4.2,-4.944336 7.7,-4.944336 5.5,0.3 11.5,5.544336 12.7,13.444336 -0.7,-7.3 -5.2,-14.3 -12.2,-14.7 -3.7,-0.2 -7,2.2 -8.2,6.2 z"
     id="path56"
     sodipodi:nodetypes="ccccc" />
  <path
     class="cls-3"
     d="m 99.316139,27.586326 c -1.7,-1.8 -4.2,-4.944336 -7.7,-4.944336 -5.5,0.3 -11.5,5.544336 -12.7,13.444336 0.7,-7.3 5.2,-14.3 12.2,-14.7 3.7,-0.2 7,2.2 8.2,6.2 z"
     id="path56-1"
     sodipodi:nodetypes="ccccc"
     style="fill:#f05079" />
  <path
     class="cls-10"
     d="m 61.258927,12.044474 c 2.778492,-3.7986184 8.752251,-4.778907 7.640854,-0.857752 -2.361719,4.411298 -10.002573,5.759195 -7.640854,0.857752 z"
     id="path59"
     style="stroke-width:1.30473;fill:#aaeeff" />
  <path
     class="cls-10"
     d="m 70.705801,7.7557113 c 0.972473,2.2056497 4.445589,0 2.361719,-0.9802886 -1.250322,-0.2450722 -2.083869,0.4901443 -2.361719,0.9802886 z"
     id="path60"
     style="stroke-width:1.30473;fill:#aaeeff" />
  <path
     class="cls-11"
     d="m56.2 28.6c0-1.5 5.4-2.5 7.5 1 0.9 1.5-0.8 2-1.8 1.3-2.2-1.2-5.3-1-5.7-2.3z"
     id="path61" />
  <circle
     class="cls-18"
     cx="55.1"
     cy="31"
     r=".5"
     id="circle61" />
  <path
     class="cls-11"
     d="m82.4 34.6c0.2-3.7 5.2-7.5 7.1-6.2 0.9 1.2-0.4 2-1.8 3-3.6 2.5-4.1 5-5.1 4.3l-0.2-1.1z"
     id="path62" />
  <path
     class="cls-9"
     d="m54.5 39.1c3.1 4 10.6 4.8 16.2 0.9-2.8 3-10.7 5.4-15.3 0.4l-0.9-1.3z"
     id="path63" />
  <path
     class="cls-9"
     d="m95.1 39.4c-3.2 4.2-11 4.5-16.5 0.5 2.8 3.1 11 5.5 15.8 0.7l0.7-1.2z"
     id="path64" />
  <path
     class="cls-9"
     d="m51.2 22c1.9-3 5.4-4.9 8.7-2.9-3.2-0.5-6 0.3-8.7 2.9z"
     id="path65" />
  <path
     class="cls-9"
     d="m89.7 19.4c2.4-1.8 6.9-1.5 8.4 2.5-1.5-2-4.7-3-8.4-2.5z"
     id="path66" />
  <path
     class="cls-9"
     d="m72.4 44c0.3-1.1 1.7-2.1 1.7-1.1 0.3 1-1.5 2.2-1.7 1.1z"
     id="path67" />
  <path
     class="cls-9"
     d="m75.9 42.6c0.5-0.4 1.7 0.5 1.7 1.4 0 1.4-2 0-1.7-1.4z"
     id="path68" />
  <path
     class="cls-7"
     d="m71.6 53.4c0.8 0.7 4.3 1 6.5 0-0.7 2.3-5.7 4-6.5 0z"
     id="path69"
     style="fill:#00aad4;fill-opacity:1" />
  <path
     class="cls-9"
     d="m69.4 47.2-0.4 0.7c2.9 2.1 9.4 2.5 11.4 0l-0.3-0.5h0.6l0.9 1.3-1-0.1c-2.5 2.5-7.9 4-11.6 0.1l-1.1 0.3c0.2-0.8 1.1-1.8 1.5-1.8z"
     id="path70" />
  <path
     class="cls-19"
     d="m71.6 53.4c1.5 0.6 5 0.7 6.5 0"
     id="path71" />
</svg>
