<?xml version="1.0" encoding="UTF-8" standalone="no"?>
<!DOCTYPE svg PUBLIC "-//W3C//DTD SVG 1.1//EN" "http://www.w3.org/Graphics/SVG/1.1/DTD/svg11.dtd">
<svg width="100%" height="100%" viewBox="0 0 2146 2033" version="1.1" xmlns="http://www.w3.org/2000/svg" xmlns:xlink="http://www.w3.org/1999/xlink" xml:space="preserve" xmlns:serif="http://www.serif.com/" style="fill-rule:evenodd;clip-rule:evenodd;stroke-linecap:round;stroke-linejoin:round;stroke-miterlimit:1.5;">
    <g transform="matrix(1,0,0,1,-180.543,-218.527)">
        <g transform="matrix(1,0,0,1,-821.54,-798.452)">
            <path d="M1919.71,2917.24C1919.99,2919.76 1917.44,2919.36 1915.89,2948.76C1915.39,2958.2 1883.42,2985.43 1790.74,2989.84C1639.76,2997.03 1652.31,3047.04 1601.59,3049.07C1563.32,3050.6 1283.54,3000.21 1326.45,2922.97C1337.38,2903.3 1402.2,2877.29 1411.48,2876.16C1480.52,2867.7 1480.75,2873.59 1568.15,2865.65C1585.44,2864.08 1917.42,2896.62 1919.71,2917.24Z" style="fill:rgb(221,221,221);"/>
        </g>
        <g transform="matrix(1,0,0,1,-821.54,-798.452)">
            <path d="M2652.45,2778.66C2667.8,2784.8 2534.33,2770.71 2724.14,2787.21C2754.53,2789.86 2757.81,2784.89 2756.65,2787.21C2749.1,2802.31 2927.35,2944.53 2905.72,2955.34C2868.42,2974 2401.1,2972.49 2272.62,2960.27C2242.57,2900.17 2198.17,2819.34 2177.93,2787.7C2286.18,2765.15 2375.6,2782.9 2375.6,2777.54" style="fill:rgb(255,203,30);stroke:black;stroke-width:18.17px;"/>
        </g>
        <g transform="matrix(1,0,0,1,-826.796,-793.133)">
            <path d="M1612.34,2690.78C1610.63,2695.89 1605.73,2718.51 1605.21,2720.93C1633.82,2723.78 1640.41,2726.49 1637.91,2758.97C1636.8,2773.38 1585.25,2785.52 1591.88,2758.97" style="fill:none;stroke:black;stroke-width:18.17px;"/>
        </g>
        <g transform="matrix(1,0,0,1,-821.54,-798.452)">
            <path d="M1663.49,1582.62C1660.44,1591.74 1661.64,1591.9 1660.05,1639.53C1634.41,1632.26 1634.67,1626.89 1608.93,1635.47C1580.9,1644.81 1532.24,1641.14 1503.29,1645.98C1503.14,1641.19 1501.52,1591.14 1503.23,1586.03" style="fill:rgb(53,214,230);stroke:black;stroke-width:18.17px;"/>
        </g>
        <g transform="matrix(1,0,0,1,-821.54,-798.452)">
            <path d="M2379.78,1480.3C2379.79,1786.12 2403.31,1803.81 2403.31,2164.62C2403.31,2515.5 2392.25,2514.18 2384,2866.06C2477.94,2868.18 2537.51,2884.95 2632.45,2868.2L2629.84,2860.45C2626.49,2845.77 2629.14,2846.18 2631.81,2831.06C2646.97,2745.11 2625.78,1820.95 2606.42,1546.66C2603.61,1506.82 2514.5,1086.88 2471.16,1026.06L2379.78,1480.3Z" style="fill:rgb(255,203,30);stroke:black;stroke-width:18.17px;"/>
        </g>
        <g transform="matrix(1,0,0,1,-821.54,-798.452)">
            <path d="M2581.51,1803.66C2571.11,1637.94 2564.17,1441.69 2502.93,1197.45C2500.77,1290.84 2509.97,1476.38 2517.69,1610.97C2522.42,1693.48 2571.54,1816.12 2581.51,1803.66Z" style="fill:rgb(255,220,104);"/>
        </g>
        <g transform="matrix(0.895077,0,0,1,-563.787,-798.452)">
            <path d="M2624.28,2863.04C2575.58,2830.11 2494.57,2739.57 2403.85,2670.68C2403.85,2670.68 2606.94,2498.32 2636.44,2476.73C2563.24,2411.91 2457.3,2289.98 2407.73,2251.47C2507.49,2110.18 2498.76,2134.84 2620.74,2012.63C2538.24,1970.92 2516.57,1943.02 2401.46,1834.81C2397.89,1831.46 2585.56,1670.51 2603.84,1658.96C2532.28,1580.96 2426.07,1561.92 2394.03,1492.37C2385.91,1474.74 2545.48,1383.96 2553.9,1326.57C2555.37,1316.54 2516.36,1247.93 2449.31,1156.85" style="fill:none;stroke:black;stroke-width:8.78px;"/>
        </g>
        <g transform="matrix(-0.895077,0,0,1,3970.73,-798.452)">
            <path d="M2684.49,2855.62C2683.58,2862.44 2525.7,2757.88 2432.42,2668.27C2485.72,2639.4 2636.36,2457.73 2665.87,2436.13C2558.82,2331.89 2541.22,2321.45 2427.8,2233.33C2540.98,2149.74 2529.36,2154.86 2651.34,2032.66C2653.54,2030.46 2627.45,1961.03 2456.86,1847.3C2452.79,1844.58 2677.73,1660.31 2677.73,1660.31C2602.24,1589.58 2532.13,1510.94 2475.21,1468.61C2468.53,1463.64 2601.45,1382.85 2649.79,1315.85C2659.26,1302.73 2592.24,1248.08 2547.96,1168.67" style="fill:none;stroke:black;stroke-width:8.78px;"/>
        </g>
        <g transform="matrix(1,0,0,1,-821.54,-798.452)">
            <path d="M2379.91,1572.81C2384.79,1574.32 2322.48,1513.35 2309.84,1491.23C2299.6,1473.31 1590.11,1463.91 1172.86,1463.91C1130.92,1463.91 1132.26,1470.14 1098.48,1494.27C1050.42,1528.6 1056.25,1534.33 1011.17,1583.4C1053.64,1595.51 1125.09,1586.58 1134.91,1585.35C1185.9,1578.98 2283.01,1585.96 2381.19,1580.79" style="fill:rgb(255,203,30);stroke:black;stroke-width:18.17px;"/>
        </g>
        <g transform="matrix(1,0,0,1,-821.54,-798.452)">
            <path d="M2306.75,1500.57C2312.94,1481.74 2224.6,1596.81 2208.14,1576.24C2179.9,1540.94 2098.99,1464.45 2080.83,1480.33C2072.31,1487.8 2049.09,1514.1 1939.03,1584.09C1932.63,1573.69 1895.61,1513.54 1839.26,1468.46C1820.48,1453.44 1725.61,1496.45 1640.7,1570.65C1550.34,1469.91 1539.05,1456.04 1515.93,1474.53C1452.53,1525.25 1457.99,1530.23 1398.26,1584.57C1389.06,1574.83 1351.73,1535.37 1274.56,1471.62C1219.36,1523.69 1218.02,1522.18 1172.48,1582.78C1162.24,1548.92 1150.56,1513.89 1148.58,1507.93C1147.77,1505.52 1138.71,1478.33 1139.47,1477.57" style="fill:none;stroke:black;stroke-width:8.33px;"/>
        </g>
        <g transform="matrix(1,0,0,-1,-821.54,2251.6)">
            <path d="M2306.34,1480.88C2312.53,1462.05 2222.21,1585.68 2205.75,1565.11C2177.51,1529.81 2098.99,1464.45 2080.83,1480.33C2072.31,1487.8 2049.09,1514.1 1939.03,1584.09C1932.63,1573.69 1895.61,1513.54 1839.26,1468.46C1820.48,1453.44 1725.61,1496.45 1640.7,1570.65C1550.34,1469.91 1539.05,1456.04 1515.93,1474.53C1452.53,1525.25 1457.99,1530.23 1398.26,1584.57C1389.06,1574.83 1351.73,1535.37 1274.56,1471.62C1219.36,1523.69 1218.02,1522.18 1172.48,1582.78C1162.24,1548.92 1150.56,1513.89 1148.58,1507.93C1147.77,1505.52 1138.71,1478.33 1139.47,1477.57" style="fill:none;stroke:black;stroke-width:8.33px;"/>
        </g>
        <g transform="matrix(1,0,0,1,-821.54,-798.452)">
            <path d="M2610.1,1573.24C2606.8,1569.18 2998,1573.38 3117.96,1577.36C3126.19,1421.13 3152.07,1416.33 3129.4,1393.65C3111.99,1376.25 2904.9,1383.36 2894.24,1382.34C2903.08,1438.98 2898.28,1438.55 2896.56,1528.12C2756.42,1524.82 2747.15,1518.63 2606.61,1515.82" style="fill:rgb(255,203,30);"/>
        </g>
        <g transform="matrix(1,0,0,1,-821.54,-798.452)">
            <path d="M3129.4,1393.65L2478.34,1032.56C2478.34,1032.56 1597.44,1319.92 1156.99,1463.61" style="fill:none;stroke:black;stroke-width:8.33px;"/>
        </g>
        <g transform="matrix(1,0,0,1,-821.54,-798.452)">
            <path d="M1591.97,1645.64C1587.3,1761.14 1578.47,1823.13 1583.36,1862.22C1589.67,1912.7 1601.44,2277.38 1598.7,2302.07C1598.13,2307.24 1587.07,2583.85 1586.77,2585.08" style="fill:none;stroke:black;stroke-width:8.33px;"/>
        </g>
        <g transform="matrix(1,0,0,1,-821.54,-798.452)">
            <path d="M1626.64,2583.48C1568.83,2577.63 1565.63,2576.89 1566.31,2581.67C1567.57,2590.46 1568.38,2596.17 1564.53,2692.7C1632.98,2684.48 1634.37,2688.69 1637.91,2683.96C1638.22,2683.55 1636.15,2627.4 1625.98,2576.55" style="fill:white;stroke:black;stroke-width:18.17px;"/>
        </g>
        <g transform="matrix(1.04311,0,0,1.02748,-939.768,-855.253)">
            <path d="M2501.78,2072.8C2507.44,2075.73 2666.3,2068.52 2739.75,2063.93C2741.38,2107.91 2734.91,2110.61 2723.69,2503.83C2684.53,2511.55 2621.12,2509.93 2511.4,2506.09C2508.53,2430.8 2507.16,2431.41 2501.78,2356.03C2499.47,2323.72 2503.09,2083.32 2501.78,2072.8Z" style="fill:rgb(255,203,30);stroke:black;stroke-width:17.55px;"/>
        </g>
        <g transform="matrix(1.03531,0,0,1.02257,-923.897,-833.874)">
            <path d="M2901.65,1564.83C2938.53,1562.38 3075.57,1571.03 3109.88,1569.42C3111.71,1530.01 3127.12,1416.24 3127.94,1407.81C3132.39,1392.12 3042.33,1390.73 2992.52,1392.39C2985.03,1392.63 2925.37,1382.44 2899.14,1385.72" style="fill:rgb(128,128,128);"/>
        </g>
        <g transform="matrix(1,0,0,1,-821.54,-798.452)">
            <path d="M2610.1,1573.24C2606.8,1569.18 2998,1573.38 3117.96,1577.36C3126.19,1421.13 3152.07,1416.33 3129.4,1393.65C3111.99,1376.25 2904.9,1383.36 2894.24,1382.34C2903.08,1438.98 2898.28,1438.55 2896.56,1528.12C2756.42,1524.82 2747.15,1518.63 2606.61,1515.82" style="fill:none;stroke:black;stroke-width:18.17px;"/>
        </g>
        <g transform="matrix(1,0,0,1,-820.668,-814.764)">
            <path d="M2697.6,2119.3C2690.14,2118.05 2696.99,2301.77 2687.1,2299.17C2676,2296.24 2553.52,2298.74 2531.19,2299.3C2526.14,2299.43 2523.36,2125.57 2535.05,2122.22C2569.85,2112.25 2656.96,2122.43 2697.6,2119.3Z" style="fill:rgb(53,214,230);stroke:black;stroke-width:8.33px;"/>
        </g>
        <g transform="matrix(0.716544,0,0,0.804103,-62.4588,-384.322)">
            <path d="M2680.38,2203.74C2681.26,2198.58 2677.97,2153.53 2681.62,2127.32C2682.35,2122.16 2656.18,2114.18 2638.24,2115.57C2614.24,2117.42 2611.19,2118.45 2605.72,2119.03C2611.32,2128.39 2615,2138.82 2620.6,2148.18C2623.95,2153.78 2624.18,2153.58 2665.65,2216.1C2668.06,2215.72 2680.79,2211.64 2680.38,2203.74Z" style="fill:rgb(190,242,247);"/>
        </g>
        <g transform="matrix(1,0,0,-1,-820.301,3802.47)">
            <path d="M2686.32,2116.14C2678.87,2114.88 2698.01,2303.99 2687.98,2301.99C2678.68,2300.12 2556.35,2300.22 2531.19,2299.3C2527.46,2299.16 2523.93,2123.58 2536.28,2120.26C2568.72,2111.55 2645.69,2119.26 2686.32,2116.14Z" style="fill:white;stroke:black;stroke-width:8.33px;"/>
        </g>
        <g transform="matrix(0.716544,0,0,0.804103,-63.5877,-185.185)">
            <path d="M2680.38,2203.74C2681.26,2198.58 2677.97,2153.53 2681.62,2127.32C2682.35,2122.16 2656.18,2114.18 2638.24,2115.57C2614.24,2117.42 2611.19,2118.45 2605.72,2119.03C2611.32,2128.39 2615,2138.82 2620.6,2148.18C2623.95,2153.78 2624.18,2153.58 2665.65,2216.1C2668.06,2215.72 2680.79,2211.64 2680.38,2203.74Z" style="fill:rgb(221,221,221);"/>
        </g>
        <g id="path3622" transform="matrix(-2.75469e-16,4.49875,4.49875,2.75469e-16,-364.195,-1884.72)">
            <path d="M717.643,479.135L717.667,469.268L716.143,469.265L716.094,488.7L717.619,488.704L717.643,479.144L729.785,489.128L729.976,483.56L742.187,483.56L742.187,474.613L729.976,474.613L729.785,468.84L717.643,479.135Z"/>
        </g>
        <g id="path36221" serif:id="path3622" transform="matrix(-2.75469e-16,-4.49875,4.49875,-2.75469e-16,-363.828,4872.42)">
            <path d="M717.643,479.135L717.667,469.268L716.143,469.265L716.094,488.7L717.619,488.704L717.643,479.144L729.785,489.128L729.976,483.56L742.187,483.56L742.187,474.613L729.976,474.613L729.785,468.84L717.643,479.135Z"/>
        </g>
        <g transform="matrix(1,0,0,1,-821.54,-798.452)">
            <path d="M3091.27,1497.37C3096.03,1438.68 3096.11,1438.81 3093.52,1434.49C3089.81,1428.31 3078.65,1409.71 3004.54,1420.04C3017.54,1439.54 3018.86,1438.42 3040.75,1445.72C3057.95,1451.45 3055.8,1481.21 3057.59,1483.89C3068.73,1500.61 3078.9,1497.74 3090.15,1499.61" style="fill:rgb(162,162,162);"/>
        </g>
        <g transform="matrix(1,0,0,1,-821.54,-798.452)">
            <path d="M1829.67,2952.29C1825.1,2951.15 1800.35,2758.65 1800.35,2758.65C1800.35,2758.65 1465.44,2761.47 1473.08,2758.88C1480.72,2756.29 1440.73,2959.61 1447.3,2958.4C1453.86,2957.19 1834.37,2953.47 1829.67,2952.29Z" style="fill:rgb(128,128,128);stroke:black;stroke-width:16.67px;"/>
        </g>
        <g transform="matrix(1,0,0,1,-836.52,-799.594)">
            <path d="M1521.55,2864.5C1510.16,2856.3 1498.57,2858.57 1496.88,2872.9C1494.89,2889.92 1493.68,2910 1498.26,2915.88C1511.81,2933.3 1504.61,2942.3 1594.13,2929.04C1595.4,2928.86 1606.47,2893.94 1564.81,2885.56C1548.74,2882.32 1533.32,2872.97 1521.55,2864.5Z" style="fill:rgb(162,162,162);"/>
        </g>
    </g>
</svg>
