<?xml version="1.0" encoding="UTF-8" standalone="no"?>
<!-- Created with Inkscape (http://www.inkscape.org/) -->

<svg
   width="25mm"
   height="25mm"
   viewBox="0 0 25 25"
   version="1.1"
   id="svg1"
   inkscape:version="1.4.3 (0d15f75, 2025-12-25)"
   sodipodi:docname="chickentrack.svg"
   xmlns:inkscape="http://www.inkscape.org/namespaces/inkscape"
   xmlns:sodipodi="http://sodipodi.sourceforge.net/DTD/sodipodi-0.dtd"
   xmlns="http://www.w3.org/2000/svg"
   xmlns:svg="http://www.w3.org/2000/svg">
  <sodipodi:namedview
     id="namedview1"
     pagecolor="#ffffff"
     bordercolor="#000000"
     borderopacity="0.25"
     inkscape:showpageshadow="2"
     inkscape:pageopacity="0.0"
     inkscape:pagecheckerboard="0"
     inkscape:deskcolor="#d1d1d1"
     inkscape:document-units="mm"
     inkscape:zoom="2.8756734"
     inkscape:cx="29.036677"
     inkscape:cy="63.115651"
     inkscape:window-width="1920"
     inkscape:window-height="1017"
     inkscape:window-x="1072"
     inkscape:window-y="825"
     inkscape:window-maximized="1"
     inkscape:current-layer="layer1" />
  <defs
     id="defs1" />
  <g
     inkscape:label="Katman 1"
     inkscape:groupmode="layer"
     id="layer1">
    <path
       style="fill:#000000;stroke-width:0.845331"
       d="M 12.573558,20.729997 C 12.467679,20.574264 12.330829,20.244273 12.269431,19.996694 12.186413,19.661959 12.084947,19.497583 11.873672,19.355545 11.410285,19.044044 11.192199,18.549969 11.019497,17.420496 10.766654,15.766885 10.787516,15.805243 8.743854,13.235582 7.1196457,11.193341 6.8453762,10.774978 6.8306276,10.317231 6.8255957,10.160668 6.6809371,9.7796763 6.5091927,9.4705771 5.9924801,8.5406183 6.3216485,8.3733463 7.1300182,9.1550879 c 0.243435,0.2354179 0.5643959,0.4854014 0.7132454,0.5555244 0.1798525,0.08472 0.5958298,0.5874137 1.2400714,1.4985817 1.125485,1.591791 1.818741,2.323728 2.19909,2.321772 0.528105,-0.0027 0.602659,-0.531546 0.653385,-4.6346487 0.03581,-2.8968976 0.05576,-3.2122571 0.225811,-3.5698256 0.102599,-0.2157141 0.20337,-0.6184386 0.223956,-0.8949273 0.05967,-0.801349 0.37302,-1.2612207 0.600963,-0.8819672 0.05645,0.093935 0.157882,0.4626108 0.225378,0.819267 0.0675,0.3566559 0.194767,0.7215695 0.282822,0.8109184 0.183937,0.1866393 0.185645,0.2299626 0.183123,4.6380617 -0.0017,3.0162197 0.04656,3.4222517 0.433182,3.6418967 0.284721,0.161747 0.620552,-0.110086 2.078297,-1.68223 1.032548,-1.113591 1.499752,-1.551416 1.762615,-1.651767 0.196717,-0.0751 0.437848,-0.2217887 0.535848,-0.3259767 0.319212,-0.3393506 0.79524,-0.5751423 0.923712,-0.4575351 0.0875,0.080127 0.03525,0.2455752 -0.225522,0.7142408 -0.186654,0.335509 -0.337705,0.682624 -0.335401,0.771503 0.0065,0.258914 -0.405722,0.790052 -1.908342,2.455042 -2.073221,2.298347 -2.635413,3.21556 -2.754659,4.494195 -0.08078,0.866259 -0.172312,1.170034 -0.469957,1.55976 -0.124737,0.163238 -0.224092,0.402158 -0.22084,0.53091 0.01252,0.502445 -0.324569,1.143187 -0.602164,1.144612 -0.07069,7.29e-4 -0.215178,-0.126754 -0.321056,-0.28249 z"
       id="path3-52" />
  </g>
</svg>
