<?xml version="1.0" encoding="UTF-8" standalone="no"?>
<!-- Created with Inkscape (http://www.inkscape.org/) -->

<svg
   width="83mm"
   height="90mm"
   viewBox="0 0 83 90"
   version="1.1"
   id="svg1"
   xml:space="preserve"
   inkscape:version="1.4.3 (0d15f75, 2025-12-25)"
   sodipodi:docname="chicken1.svg"
   xmlns:inkscape="http://www.inkscape.org/namespaces/inkscape"
   xmlns:sodipodi="http://sodipodi.sourceforge.net/DTD/sodipodi-0.dtd"
   xmlns="http://www.w3.org/2000/svg"
   xmlns:svg="http://www.w3.org/2000/svg"><sodipodi:namedview
     id="namedview1"
     pagecolor="#ffffff"
     bordercolor="#000000"
     borderopacity="0.25"
     inkscape:showpageshadow="2"
     inkscape:pageopacity="0.0"
     inkscape:pagecheckerboard="0"
     inkscape:deskcolor="#d1d1d1"
     inkscape:document-units="mm"
     inkscape:zoom="1.0167041"
     inkscape:cx="236.54867"
     inkscape:cy="147.04377"
     inkscape:window-width="1920"
     inkscape:window-height="1017"
     inkscape:window-x="1072"
     inkscape:window-y="825"
     inkscape:window-maximized="1"
     inkscape:current-layer="layer1" /><defs
     id="defs1" /><g
     inkscape:label="Katman 1"
     inkscape:groupmode="layer"
     id="layer1"><path
       style="fill:#000000"
       d="m 34.403837,85.836244 c -0.48938,-0.177097 -1.33275,-0.69389 -1.87415,-1.148428 -0.54141,-0.454539 -1.5067,-0.967082 -2.1451,-1.138985 -1.5955,-0.429622 -4.78566,-1.713971 -6.93547,-2.792202 C 15.259068,76.648949 8.422324,68.418424 5.931344,59.667576 5.010397,56.432279 4.654946,53.873654 4.654946,50.479748 c 0,-13.282105 7.938712,-25.919719 20.038981,-31.899995 1.1004,-0.543846 2.00072,-1.080151 2.00072,-1.191788 0,-0.111638 -0.19305,-0.956527 -0.429,-1.877533 -0.85575,-3.34034 0.0683,-6.7510887 2.24346,-8.280947 0.91971,-0.646851 1.38497,-0.7862391 2.64946,-0.79375 1.26932,-0.00754 1.76512,0.1345471 2.87491,0.8238951 l 1.34107,0.8330059 0.42922,-1.123905 c 0.56842,-1.4883868 2.02742,-3.1569565 3.53085,-4.0380277 1.72799,-1.0126686 4.20702,-1.0161187 5.92682,-0.00825 1.5166,0.8887881 2.62475,2.1431117 3.39075,3.8380103 l 0.59797,1.3231107 1.33378,-0.8284759 c 1.10124,-0.6840325 1.60056,-0.8268984 2.86391,-0.8194284 1.28434,0.00759 1.71268,0.1412906 2.66664,0.8323376 2.50555,1.8150102 3.05552,4.5885214 1.91064,9.6354424 -0.14473,0.637978 -0.0164,0.753471 1.7894,1.611065 14.84948,7.051986 23.32167,24.664561 19.25808,40.035022 -3.07258,11.621963 -12.1546,21.069803 -23.67067,24.624116 -1.55033,0.478496 -2.73132,1.031226 -3.38451,1.584027 -2.54359,2.152682 -5.7206,1.777042 -8.43837,-0.997724 l -1.23956,-1.265549 -1.40852,1.408525 c -2.04845,2.048441 -4.33637,2.726115 -6.52714,1.93331 z m -4.25396,-5.489808 c -0.7793,-3.380252 0.58099,-8.401732 3.30198,-12.189147 l 0.91652,-1.275731 -2.24936,-2.892418 c -2.90804,-3.739387 -2.90973,-3.795153 -0.19885,-6.55545 3.00943,-3.064283 8.94451,-7.218526 10.31296,-7.218526 1.90133,0 10.0838,6.071338 12.09629,8.975363 0.98243,1.417644 0.97998,1.422635 -3.26593,6.649493 l -0.76398,0.940481 1.29319,1.969935 c 1.97184,3.003725 2.95616,5.917949 2.9889,8.849103 0.0146,1.309687 -0.0714,2.764786 -0.1912,3.233554 l -0.21779,0.852304 1.42168,-0.489131 c 8.17377,-2.812187 15.16625,-8.77285 18.9626,-16.164435 2.65162,-5.162792 3.56535,-8.860298 3.56342,-14.419792 -0.002,-7.010624 -1.76605,-12.799862 -5.68339,-18.656361 -3.22743,-4.825051 -7.62617,-8.770425 -12.66255,-11.357434 l -2.74132,-1.408118 -0.52522,0.761999 c -0.28887,0.419099 -1.49338,1.714498 -2.67669,2.878665 -2.52409,2.483249 -5.14661,4.064081 -8.83985,5.328579 -2.44327,0.836528 -2.61542,0.859779 -3.87826,0.523821 -2.21696,-0.589786 -5.2303,-1.9604 -7.29626,-3.318693 -1.83004,-1.20319 -4.91027,-4.133159 -5.80503,-5.521866 l -0.39105,-0.606909 -2.38125,1.171958 c -3.14727,1.548963 -5.86803,3.507742 -8.490596,6.112703 -5.39489,5.358673 -8.581052,11.494642 -9.890354,19.047021 -0.350084,2.019372 -0.347272,7.721487 0.0049,9.939427 1.459426,9.191234 7.610873,17.930447 16.127097,22.911368 1.66463,0.973601 7.16247,3.351852 7.33943,3.174887 0.048,-0.04799 -0.033,-0.608981 -0.18004,-1.24665 z m -2.77259,-27.253338 c -4.33453,-0.620724 -8.364357,-4.109574 -9.684804,-8.384684 -1.984621,-6.425455 1.919374,-13.246505 8.605294,-15.035141 3.83732,-1.026573 8.47683,0.173727 11.25273,2.911226 3.02014,2.978363 4.28607,6.591162 3.67464,10.486916 -1.02661,6.541037 -7.15959,10.979472 -13.84786,10.021683 z m 3.56137,-1.821625 c 3.2367,-0.613828 6.05486,-2.629573 7.39899,-5.29228 2.65435,-5.258229 0.56689,-11.333761 -4.76383,-13.865083 -1.57138,-0.746178 -1.94812,-0.815944 -4.36563,-0.808429 -2.37141,0.0074 -2.81048,0.08801 -4.23333,0.777497 -1.80094,0.8727 -4.05493,2.984811 -4.829922,4.525886 -2.997535,5.960634 0.496152,13.152332 7.078492,14.570959 1.87735,0.404607 2.04252,0.408672 3.71523,0.09145 z m -0.14297,-5.808089 c -0.29104,-0.121177 -0.88635,-0.597698 -1.32291,-1.058936 -0.71087,-0.751043 -0.79375,-1.014359 -0.79375,-2.52163 0,-2.055382 0.5603,-2.946944 2.3099,-3.675578 1.51848,-0.632378 2.79873,-0.423605 4.0296,0.657117 2.08563,1.831206 1.74015,5.219526 -0.65868,6.460008 -0.81805,0.423031 -2.70523,0.49664 -3.56416,0.139019 z m 22.77536,7.636606 c -1.72029,-0.253922 -4.39267,-1.400413 -5.84331,-2.506868 -1.56181,-1.191253 -3.25296,-3.693033 -3.8703,-5.72549 -0.45927,-1.51205 -0.53957,-2.304282 -0.4354,-4.295694 0.11066,-2.115635 0.25571,-2.707828 1.08609,-4.434259 3.5415,-7.36308 13.13148,-9.119317 19.18629,-3.513631 2.52892,2.341327 3.73696,5.171932 3.74293,8.770148 0.012,7.256105 -6.53993,12.787198 -13.8663,11.705794 z m 5.50502,-2.376682 c 5.23566,-1.99582 7.77727,-7.507635 5.95295,-12.909745 -0.75601,-2.238671 -2.81513,-4.470611 -5.2139,-5.651526 -1.62916,-0.802032 -1.94803,-0.86458 -4.40761,-0.86458 -2.32294,0 -2.83882,0.08785 -4.1643,0.709098 -2.00663,0.940503 -4.03855,2.884099 -5.06295,4.842851 -0.77997,1.491397 -0.83248,1.767382 -0.83248,4.375489 0,2.61227 0.0536,2.892465 0.86962,4.550134 2.29459,4.66098 7.92671,6.828333 12.85867,4.948279 z m -9.01909,-5.524515 c -1.60791,-0.980398 -2.23688,-3.079543 -1.45342,-4.850684 0.96243,-2.175739 3.05849,-3.018559 5.17674,-2.081557 2.09175,0.92528 2.89603,3.300952 1.85806,5.48831 -0.88017,1.854825 -3.70777,2.586338 -5.58138,1.443931 z m -3.92219,23.003639 c 0.58579,-0.408003 1.60085,-1.304259 2.2557,-1.991682 1.33616,-1.40264 1.41758,-1.402429 -2.51355,-0.0065 -1.4552,0.516737 -3.01955,0.940587 -3.47631,0.941888 -0.45677,0.0013 -2.21167,-0.473884 -3.89977,-1.055967 -1.68811,-0.582083 -3.15345,-1.058333 -3.25632,-1.058333 -0.30716,0 1.53763,1.809706 2.98531,2.928522 0.7418,0.573295 1.97816,1.386559 2.74746,1.807254 l 1.39873,0.764899 1.34684,-0.794126 c 0.74076,-0.436769 1.82612,-1.127946 2.41191,-1.535948 z m -0.51105,-3.842852 c 4.26166,-1.542657 7.26466,-3.180642 7.26466,-3.9625 0,-0.175672 -0.98991,-1.269758 -2.1998,-2.431302 -2.08881,-2.005339 -4.78166,-3.998276 -7.25905,-5.372305 l -1.12448,-0.623667 -1.12448,0.620588 c -3.40909,1.881438 -9.45885,6.902829 -9.45885,7.850979 0,0.332359 1.81522,1.611377 3.43958,2.423551 1.5702,0.785093 6.28755,2.403043 7.04604,2.416641 0.45558,0.0082 1.99295,-0.406726 3.41638,-0.921985 z"
       id="path30"
       inkscape:label="path30" /><path
       style="fill:#000000"
       d="m 34.335647,86.338561 c -0.474561,-0.17211 -1.30771,-0.66907 -1.851442,-1.10435 -0.559013,-0.44752 -2.091863,-1.15425 -3.527503,-1.62639 -6.925508,-2.27757 -12.887828,-6.45679 -17.304842,-12.12962 -9.7024588,-12.46099 -9.5850348,-29.41003 0.294654,-42.53028 3.141862,-4.1724 8.276823,-8.37902 12.826744,-10.50783 l 1.745606,-0.81673 -0.372926,-1.38299 c -0.566056,-2.09922 -0.337978,-5.37763 0.485434,-6.9776802 1.425718,-2.77044 4.416445,-3.7379 7.257744,-2.34778 0.811111,0.39684 1.5006,0.67936 1.532197,0.62783 0.0316,-0.0515 0.257851,-0.53494 0.502787,-1.07424 0.613386,-1.35054 2.199954,-3.04585 3.489674,-3.72884 1.51453,-0.80205 4.60745,-0.80409 6.10346,-0.004 1.35278,0.72346 2.57131,2.01248 3.33018,3.52278 0.32903,0.65485 0.61894,1.22211 0.64426,1.26058 0.0253,0.0385 0.73012,-0.24324 1.56624,-0.62602 2.92091,-1.33724 5.84134,-0.38655 7.25578,2.36197 0.83285,1.6183802 1.04409,4.6647402 0.47102,6.7927002 -0.21549,0.80017 -0.3718,1.47082 -0.34735,1.49034 0.0245,0.0195 0.89933,0.46346 1.94418,0.98655 10.05074,5.03173 17.11355,14.18556 19.52433,25.30471 0.59435,2.74132 0.80803,8.33329 0.42746,11.1868 -1.76358,13.22337 -11.55257,24.67317 -24.49735,28.65359 -1.55469,0.47806 -2.72949,1.02695 -3.38451,1.5813 -1.25415,1.06141 -2.97272,1.56067 -4.67725,1.35879 -1.67159,-0.19797 -2.69299,-0.73692 -4.14123,-2.18517 l -1.1658,-1.1658 -0.93948,1.0399 c -1.8687,2.06843 -4.811762,2.90318 -7.192067,2.03991 z m 3.647437,-0.59929 c 1.13287,-0.33643 1.74507,-0.75508 2.98276,-2.03975 l 1.55733,-1.61645 1.10015,1.21518 c 2.87105,3.1712 5.682,3.58566 8.50381,1.25385 0.68911,-0.56945 1.44832,-1.03594 1.68714,-1.03666 0.7235,-0.002 4.61004,-1.47774 6.89352,-2.6172 6.98173,-3.48387 12.55466,-9.10275 15.90349,-16.03462 2.31643,-4.79488 3.24434,-8.80702 3.24316,-14.02292 -0.002,-9.84328 -4.07128,-18.99919 -11.54335,-25.97408 -2.30407,-2.15078 -4.71015,-3.8058 -8.21182,-5.64851 -1.36008,-0.71573 -2.39125,-1.42376 -2.36544,-1.62418 0.0252,-0.19542 0.23153,-1.18875 0.45856,-2.20739 0.50669,-2.27339 0.32909,-4.05367 -0.57298,-5.7437002 -1.45731,-2.73029 -4.08725,-3.45804 -6.67757,-1.84781 -0.7473,0.46455 -1.46115,0.84463 -1.58633,0.84463 -0.12519,0 -0.51627,-0.63051 -0.86907,-1.40113 -1.31602,-2.87456 -3.40373,-4.4197 -5.97166,-4.4197 -2.58246,0 -4.71819,1.50261 -6.014071,4.23125 -0.415207,0.87427 -0.854617,1.58958 -0.976466,1.58958 -0.121849,0 -0.661712,-0.30024 -1.199695,-0.66721 -2.192555,-1.49557 -4.233607,-1.39809 -5.966585,0.28496 -1.62517,1.57834 -2.295553,4.0891602 -1.762179,6.5999602 0.154566,0.7276 0.351787,1.75754 0.438268,2.28874 l 0.15724,0.96582 -2.169189,1.07442 c -8.980932,4.44836 -15.7995098,12.62294 -18.5688648,22.26165 -1.406936,4.89682 -1.682664,10.65526 -0.736593,15.38338 2.449911,12.24379 11.6735018,22.3307 24.0578778,26.30967 1.236927,0.39741 2.546615,0.98716 2.910417,1.31055 0.74835,0.66523 1.637612,1.15885 2.630382,1.46009 0.986916,0.29947 1.104258,0.29189 2.667758,-0.17242 z m -3.049182,-1.27462 c -2.631129,-1.17442 -3.867855,-4.98692 -2.925231,-9.0177 0.493251,-2.1092 1.922071,-5.16734 3.038502,-6.50338 l 0.756204,-0.90495 1.036419,0.83202 c 1.406428,1.12906 4.419918,2.95508 5.199828,3.15083 0.80642,0.20239 2.84687,-0.80323 5.30266,-2.61339 l 1.82504,-1.34524 0.77083,0.91393 c 1.04107,1.23435 2.47505,4.25712 3.01063,6.34626 1.1411,4.45107 -0.56668,8.6949 -3.77139,9.37196 -2.37203,0.50114 -5.15936,-1.60147 -6.04575,-4.56059 -0.26671,-0.89038 -0.56687,-1.56822 -0.66702,-1.50633 -0.10015,0.0619 -0.33351,0.65334 -0.51857,1.31432 -0.56567,2.02037 -1.62813,3.41508 -3.19718,4.19697 -1.549059,0.77192 -2.611414,0.86251 -3.814972,0.32529 z m 2.571472,-0.43038 c 1.85975,-0.51651 3.24652,-2.19591 4.02038,-4.86876 0.25233,-0.8715 0.43027,-1.07272 0.94865,-1.07272 0.54329,0 0.71991,0.23768 1.18911,1.60027 0.9881,2.86945 2.56304,4.37207 4.61215,4.40035 3.06183,0.0423 4.98142,-3.35261 4.29061,-7.58812 -0.2827,-1.73327 -2.0246,-5.77421 -3.06496,-7.11023 -0.37127,-0.47678 -0.42581,-0.46409 -1.43291,0.33355 -0.57583,0.45607 -1.85977,1.30418 -2.8532,1.88471 -2.50543,1.46409 -3.13635,1.42033 -6.07374,-0.42124 -1.29551,-0.81222 -2.565731,-1.66582 -2.822707,-1.8969 -0.428841,-0.38563 -0.499061,-0.37842 -0.854661,0.0877 -0.948153,1.24281 -2.77594,5.4048 -3.042871,6.9288 -0.568203,3.24408 0.633876,6.53343 2.736513,7.48815 1.303907,0.59206 1.124515,0.57414 2.347636,0.23445 z m -9.318347,-2.60652 c -8.652194,-3.22803 -15.643422,-9.79112 -19.2702328,-18.09012 -5.954664,-13.62569 -1.43467,-30.12996 10.8522828,-39.62594 2.220613,-1.7162 7.153097,-4.48869 7.985746,-4.48869 0.22373,0 0.76553,0.52142 1.203999,1.15871 2.741549,3.98471 10.666452,8.65569 13.993062,8.2476 3.99624,-0.49024 10.56297,-4.64976 13.052,-8.26745 0.43096,-0.62637 0.96429,-1.13886 1.18518,-1.13886 0.22088,0 1.49508,0.54696 2.83156,1.21547 9.29627,4.65003 15.85653,13.40847 18.21381,24.31682 0.50401,2.3323 0.42627,10.06851 -0.12555,12.49502 -2.26251,9.94883 -8.78306,18.18095 -18.03956,22.77471 -2.40376,1.19292 -5.60008,2.34547 -5.83981,2.10574 -0.0882,-0.0882 -0.0291,-1.00695 0.13142,-2.04157 0.5303,-3.41787 -0.46279,-7.09725 -2.92392,-10.83303 -0.70926,-1.0766 -1.28957,-2.05963 -1.28957,-2.18451 0,-0.12488 1.01203,-1.52841 2.24896,-3.11895 1.23693,-1.59054 2.24896,-3.09499 2.24896,-3.34321 0,-1.4959 -6.47028,-6.98384 -11.04409,-9.36733 l -1.1222,-0.58481 -1.78821,0.97576 c -2.01248,1.09813 -4.797895,3.06341 -6.906671,4.87307 -1.552222,1.33206 -3.480499,3.61248 -3.480499,4.11612 0,0.17587 1.012031,1.65395 2.248958,3.28461 1.236927,1.63066 2.248958,3.08509 2.248958,3.23206 0,0.14697 -0.459491,0.9453 -1.021092,1.77406 -1.363218,2.01172 -2.000539,3.30272 -2.701408,5.47214 -0.512356,1.58591 -0.566768,2.18419 -0.43745,4.80993 0.108248,2.19794 0.06518,2.99529 -0.161286,2.98586 -0.169934,-0.007 -1.201941,-0.34602 -2.293347,-0.75321 z m 1.719792,-3.00417 c 0,-2.18122 0.129647,-3.36549 0.485173,-4.43184 0.592798,-1.77801 1.800542,-4.20373 2.858866,-5.74195 l 0.789437,-1.1474 -2.185801,-2.83146 c -2.717557,-3.52028 -2.760267,-3.84184 -0.809374,-6.09379 1.666914,-1.92414 4.163379,-3.98719 7.248674,-5.9902 3.32575,-2.15913 3.939,-2.38038 5.17101,-1.86562 3.48466,1.45599 11.41488,7.98374 11.86168,9.76394 0.23887,0.95174 -0.008,1.41476 -2.36327,4.43583 l -2.00211,2.56789 0.95362,1.40086 c 2.3199,3.40793 3.37085,6.78738 3.21548,10.33982 l -0.10834,2.47705 1.28814,-0.48945 c 8.46855,-3.2178 14.77615,-8.90362 18.57881,-16.74739 3.81462,-7.86843 4.13848,-16.62433 0.92327,-24.96164 -3.04648,-7.8998 -9.49031,-14.92947 -16.8804,-18.41509 l -1.65122,-0.77882 -0.4454,0.64653 c -0.89802,1.30352 -3.42327,3.782 -5.00923,4.91645 -1.95133,1.3958 -5.42049,3.05971 -7.69766,3.69203 -1.56963,0.43584 -1.73767,0.43584 -3.30729,0 -2.27861,-0.63272 -5.747351,-2.2968 -7.697663,-3.69285 -1.632563,-1.1686 -4.594576,-4.08452 -5.126443,-5.04666 -0.273635,-0.49501 -0.347069,-0.48218 -2.097179,0.36621 -4.938619,2.39407 -9.932,6.76011 -13.032115,11.39483 -2.72668,4.07643 -4.1076578,7.25003 -5.1209498,11.76835 -0.490463,2.18701 -0.590882,3.4084 -0.576653,7.01378 0.01508,3.82138 0.103437,4.69548 0.708736,7.01146 2.6619228,10.18502 9.7147728,18.22001 19.6469518,22.38287 1.309687,0.54893 2.38125,1.00589 2.38125,1.01547 0,0.01 0,-1.32206 0,-2.95921 z m -2.853521,-24.81526 c -3.55218,-0.59722 -7.201408,-3.41969 -8.848252,-6.84362 -0.839393,-1.74517 -0.965854,-2.27997 -1.074972,-4.54603 -0.158222,-3.28579 0.465209,-5.53846 2.175889,-7.86226 5.169772,-7.02264 15.561962,-6.83004 20.544301,0.38074 3.2307,4.67569 2.56549,11.34362 -1.53541,15.39071 -3.069561,3.02926 -6.9014,4.21352 -11.261556,3.48046 z m 5.406485,-0.90246 c 2.605175,-0.67856 4.707711,-2.12648 6.446211,-4.4392 3.48322,-4.6337 2.86234,-11.1102 -1.44763,-15.10047 -1.895403,-1.75481 -3.826569,-2.71538 -6.317994,-3.14261 -6.059494,-1.03909 -12.241228,3.5064 -13.319414,9.7939 -0.564302,3.29075 0.4932,6.69887 2.886758,9.30343 3.077288,3.34857 7.490742,4.69488 11.752069,3.58495 z m -6.125828,-1.16913 c -3.329957,-1.06596 -5.708681,-3.34011 -6.877898,-6.57552 -0.496686,-1.37441 -0.576294,-2.03511 -0.482241,-4.00231 0.09489,-1.9847 0.247313,-2.62969 0.966852,-4.09128 1.00699,-2.04549 2.929089,-3.9087 5.071359,-4.91599 2.10333,-0.98899 5.726984,-1.1183 8.028506,-0.28649 5.783991,2.09041 8.434251,8.00362 6.230501,13.90136 -0.6755,1.80779 -3.107498,4.44203 -4.854887,5.25861 -2.689306,1.25675 -5.583251,1.51156 -8.082192,0.71162 z m 7.144739,-1.13615 c 3.364365,-1.56394 5.58145,-4.71762 5.7794,-8.22088 0.18254,-3.23044 -0.79058,-5.56715 -3.257256,-7.82156 -3.400973,-3.10829 -8.177939,-3.47036 -12.009752,-0.91025 -2.909305,1.94375 -4.396149,4.7656 -4.354708,8.26469 0.04719,3.98494 2.36619,7.21346 6.405528,8.91781 2.048179,0.8642 5.299478,0.76373 7.436788,-0.22981 z m -2.2946,-4.23791 c -0.461664,-0.15485 -1.231835,-0.68645 -1.711489,-1.18132 -0.779533,-0.80428 -0.882429,-1.08869 -0.969436,-2.67959 -0.08353,-1.52736 -0.0097,-1.90734 0.520864,-2.67896 1.799915,-2.61793 5.454014,-2.49606 7.316051,0.24399 0.522629,0.76907 0.607544,1.16957 0.518323,2.44466 -0.117604,1.6807 -0.689047,2.68187 -1.953511,3.42254 -1.005482,0.58896 -2.670881,0.78084 -3.720802,0.42868 z m 3.013454,-0.92319 c 1.25556,-0.5958 1.924764,-1.76312 1.92599,-3.35959 8.78e-4,-1.14388 -0.113881,-1.40277 -1.026217,-2.31511 -0.912336,-0.91233 -1.171228,-1.02709 -2.315104,-1.02621 -1.387388,0.001 -2.776085,0.65937 -3.246962,1.53921 -0.939513,1.7555 -0.39783,3.88839 1.270587,5.00296 1.067494,0.71313 2.119642,0.76238 3.391706,0.15874 z m 18.992606,8.38617 c -6.75301,-1.49385 -10.92992,-7.33511 -9.92509,-13.87989 1.52812,-9.95308 13.4517,-14.01956 20.89677,-7.12674 2.91052,2.69463 4.37848,6.86919 3.75118,10.6676 -0.77507,4.69324 -3.78349,8.31025 -8.17476,9.82848 -1.73977,0.6015 -4.99099,0.855 -6.5481,0.51055 z m 7.34981,-1.67428 c 8.96114,-4.43995 9.03741,-16.34455 0.13357,-20.8493 -3.20448,-1.62126 -6.68291,-1.62932 -10.09457,-0.0234 -8.89984,4.18928 -8.94418,16.57128 -0.0745,20.80221 2.36776,1.12945 2.66382,1.18654 5.66985,1.09329 2.20227,-0.0683 2.65172,-0.17361 4.36563,-1.0228 z m -8.16312,-0.41532 c -3.95044,-1.34823 -6.43471,-4.11885 -7.25559,-8.09188 -0.93124,-4.50717 1.45956,-9.19485 5.77239,-11.31805 1.6613,-0.81785 1.91382,-0.86458 4.67219,-0.86458 2.71031,0 3.03729,0.0576 4.63578,0.81665 6.3856,3.03224 7.98097,11.40134 3.1686,16.62214 -2.59943,2.82004 -7.40625,4.05996 -10.99337,2.83572 z m 7.4459,-1.22174 c 2.00345,-0.98019 3.92538,-2.90784 4.82084,-4.83518 0.59672,-1.28435 0.70604,-1.88358 0.71125,-3.89884 0.008,-3.13112 -0.81514,-5.04465 -3.06734,-7.12979 -2.04942,-1.8974 -3.89733,-2.61764 -6.71609,-2.61764 -2.81876,0 -4.66668,0.72024 -6.71609,2.61764 -5.48308,5.07636 -3.64556,13.63943 3.4958,16.29086 2.09016,0.77602 5.39921,0.58689 7.47163,-0.42705 z m -9.41971,-4.43454 c -2.95564,-1.49182 -3.17483,-5.40007 -0.41828,-7.45813 1.0433,-0.77894 3.78809,-0.77253 4.83964,0.0113 1.75909,1.31124 2.33228,4.06898 1.24088,5.97013 -0.58141,1.01278 -2.45697,2.07201 -3.66887,2.07201 -0.44766,0 -1.34467,-0.26789 -1.99337,-0.59531 z m 4.06104,-0.88334 c 2.75134,-2.00798 1.36414,-6.45454 -2.01466,-6.45786 -3.6203,-0.004 -5.00423,4.60186 -1.98112,6.59275 1.06099,0.69871 2.94051,0.63527 3.99578,-0.13489 z m -14.19497,24.98998 c -2.0089,-1.19272 -5.467494,-4.30568 -5.467494,-4.9211 0,-0.49282 0.244814,-0.43688 4.450544,1.01681 l 3.25992,1.12677 3.22237,-1.12255 c 4.18783,-1.45887 4.413,-1.51097 4.413,-1.02103 0,1.00821 -6.44179,6.03999 -7.68831,6.00545 -0.20981,-0.006 -1.19533,-0.49378 -2.19003,-1.08435 z m 4.59892,-0.99793 c 1.69768,-1.11831 3.79825,-2.93424 3.39418,-2.93424 -0.0727,0 -1.18886,0.35719 -2.48039,0.79375 -2.92719,0.98946 -3.68691,0.98962 -6.61044,0.001 -1.28925,-0.43579 -2.388883,-0.74755 -2.443632,-0.6928 -0.336169,0.33616 4.891572,4.06762 5.759032,4.11068 0.22502,0.0112 1.29658,-0.56429 2.38125,-1.27879 z m -5.43621,-3.87236 c -2.901791,-0.99742 -5.992974,-2.43728 -7.097182,-3.30585 -0.389412,-0.30631 -0.708022,-0.82232 -0.708022,-1.14669 0,-1.2273 5.192736,-5.76018 9.105164,-7.94813 l 1.76032,-0.98443 1.64486,0.92301 c 0.90468,0.50766 2.50882,1.53135 3.56476,2.27488 2.11497,1.48923 5.88531,5.13904 5.88531,5.69716 0,0.59208 -1.60445,1.75905 -3.83645,2.79039 -2.3092,1.067 -6.70363,2.64634 -7.29961,2.62344 -0.20532,-0.008 -1.56394,-0.42359 -3.01915,-0.92378 z m 5.8659,-0.66996 c 2.98882,-1.04183 6.44262,-2.69405 7.06175,-3.37818 0.47198,-0.52154 0.44732,-0.56628 -1.24563,-2.25923 -1.93458,-1.93458 -4.20445,-3.67361 -6.83491,-5.23649 -2.02785,-1.20484 -1.69936,-1.26869 -5.11169,0.99367 -2.377687,1.57639 -4.953868,3.7306 -6.195098,5.18035 l -0.828837,0.96808 0.706731,0.55591 c 1.496751,1.17734 8.133174,3.94471 9.537274,3.97701 0.31582,0.007 1.62551,-0.35324 2.91041,-0.80112 z m -4.1461,-37.19542 c -1.97589,-0.50107 -5.037833,-1.97894 -6.987979,-3.37278 -4.427083,-3.16422 -6.884833,-7.66534 -6.382193,-11.68834 0.576164,-4.6114502 5.392081,-5.4635602 7.422603,-1.31332 0.400311,0.8182 0.860481,1.44363 1.022598,1.38982 0.162118,-0.0538 0.381161,-0.87029 0.486764,-1.81443 0.105603,-0.9441402 0.369086,-2.1404302 0.585518,-2.6584202 1.317879,-3.15414 4.583399,-4.49774 7.499949,-3.08586 1.62091,0.78467 2.93389,2.8661 3.29426,5.22234 0.45305,2.9621902 0.57399,3.0523102 1.47125,1.0964602 1.08968,-2.3752702 3.42689,-3.4548502 5.33656,-2.4650002 3.31468,1.7181002 2.82404,8.2970002 -0.93017,12.4725902 -2.33183,2.59355 -6.53625,5.19122 -10.04104,6.20377 -1.14022,0.32942 -1.52388,0.33124 -2.77812,0.0132 z m 3.08439,-0.71973 c 4.31863,-1.52371 8.31412,-4.39498 10.46402,-7.51975 1.72387,-2.50556 2.29193,-6.27258 1.26561,-8.39268 -1.34635,-2.7811902 -4.51366,-2.2152502 -6.0643,1.08359 -0.49133,1.04527 -0.66085,1.19327 -1.28444,1.12137 -0.67433,-0.0777 -0.73101,-0.18834 -0.92384,-1.80263 -0.56477,-4.7281202 -3.87512,-7.4317802 -7.15526,-5.8438902 -1.87456,0.90746 -3.348293,3.57694 -3.358985,6.0843802 -0.0053,1.24028 -0.308074,1.67834 -1.084204,1.5686 -0.451134,-0.0638 -0.798833,-0.43926 -1.217194,-1.31442 -0.847267,-1.7723802 -1.949082,-2.6113302 -3.429531,-2.6113302 -1.589995,0 -2.572731,1.00253 -2.999936,3.0603602 -1.047039,5.04356 3.666636,11.09602 10.93874,14.04558 2.38361,0.96679 3.30487,1.06573 4.84932,0.52082 z"
       id="path1" /><path
       style="fill:#e02e14;fill-opacity:1;stroke-width:0.695489"
       d="M 152.6101,99.220809 C 121.19192,88.283377 100.37138,59.757122 109.60478,40.299163 c 1.46841,-3.094435 4.74137,-5.843319 7.11691,-5.977324 7.22811,-0.407739 10.31834,1.506167 14.5044,8.983164 2.65174,4.736455 4.32945,6.068622 6.84695,5.436768 1.93315,-0.485189 2.19749,-1.196132 3.10445,-8.349514 0.84623,-6.67438 3.07545,-11.749423 7.07329,-16.103056 3.67687,-4.0041 7.45121,-5.828187 12.0595,-5.828187 4.738,0 8.45744,1.85854 12.32238,6.157285 4.19415,4.664903 6.06332,9.535287 7.83156,20.406179 0.87057,5.352129 5.60873,5.26617 8.35409,-0.151558 3.2981,-6.508486 8.79895,-11.14169 13.22815,-11.14169 3.97159,0 8.27215,3.865216 9.98172,8.971271 1.09975,3.28468 0.97497,12.185323 -0.23455,16.730296 -2.28194,8.574769 -7.27933,15.928906 -16.16838,23.79329 -10.18966,9.01507 -27.81658,17.990783 -35.26733,17.958293 -1.17376,-0.005 -4.66028,-0.88872 -7.74782,-1.963571 z"
       id="path31"
       transform="scale(0.26458333)" /><path
       style="fill:#e02e14;fill-opacity:1;stroke-width:0.695489"
       d="m 133.4283,316.43658 c -4.00092,-2.08371 -7.10581,-5.76341 -9.08683,-10.76904 -1.2122,-3.06301 -1.51594,-5.28027 -1.52437,-11.12783 -0.01,-6.80477 0.16526,-7.74544 2.56802,-13.79749 2.57254,-6.4797 7.29916,-15.98594 9.17587,-18.45465 0.95311,-1.25376 1.09003,-1.22568 3.63301,0.74526 4.6168,3.57823 15.04751,9.85477 18.29109,11.00642 2.01622,0.71587 4.15054,0.96192 5.99902,0.6916 2.85019,-0.41682 13.53576,-6.37755 19.59417,-10.93021 2.35842,-1.77226 3.23964,-2.09233 4.17293,-1.51565 1.67869,1.03727 8.00351,13.89851 10.33991,21.02578 3.64753,11.12685 2.46944,22.15777 -3.0558,28.61278 -6.37994,7.45351 -15.54096,7.33394 -22.25221,-0.29045 -2.49568,-2.83524 -7.14764,-12.10778 -7.14764,-14.24705 0,-1.24046 -3.32014,-2.99 -4.78928,-2.52372 -0.83985,0.26656 -1.83681,1.71822 -2.54723,3.709 -3.93291,11.02103 -8.47776,16.59446 -15.14696,18.575 -4.40246,1.30739 -4.34031,1.31276 -8.2237,-0.70975 z"
       id="path32"
       transform="scale(0.26458333)" /><path
       style="fill:#fcbf21;fill-opacity:1;stroke-width:0.695489"
       d="m 156.51461,245.39151 c -8.08913,-2.07233 -28.14011,-10.99469 -32.35037,-14.39539 l -2.06706,-1.66961 2.71597,-3.03723 c 8.93081,-9.98716 31.195,-26.33611 35.86482,-26.33611 2.02926,0 11.16204,5.46792 19.45375,11.64722 5.86765,4.3728 18.08272,16.00677 18.08272,17.22247 0,1.43314 -3.03084,3.62227 -9.3891,6.7816 -7.87162,3.91129 -17.34034,7.68295 -23.64664,9.41913 -4.41538,1.21559 -5.22164,1.24983 -8.66409,0.36792 z"
       id="path33"
       transform="scale(0.26458333)" /><path
       style="fill:#fcbf21;fill-opacity:1;stroke-width:0.695489"
       d="m 156.74011,263.33523 c -5.83317,-3.21663 -17.33402,-11.76043 -16.69328,-12.40117 0.17373,-0.17374 3.39572,0.68765 7.15996,1.91419 4.18681,1.36423 8.8693,2.35714 12.06025,2.55735 4.62687,0.2903 6.10705,0.0382 13.1017,-2.23186 4.33704,-1.40753 8.03925,-2.40542 8.22714,-2.21753 0.90079,0.90079 -17.87177,14.43169 -19.92332,14.36035 -0.19925,-0.007 -1.96886,-0.89853 -3.93245,-1.98133 z"
       id="path34"
       transform="scale(0.26458333)" /><path
       style="fill:#ffffff;stroke-width:0.98357"
       d="M 100.44755,301.43252 C 73.35732,288.50954 52.503885,268.69876 39.812486,243.82916 c -5.026779,-9.85029 -9.724431,-23.63471 -11.24213,-32.98802 -1.53549,-9.46295 -1.260988,-30.89019 0.515719,-40.25622 4.872715,-25.68687 16.538557,-47.63527 35.283128,-66.38255 10.99156,-10.993145 19.768828,-17.615209 31.345541,-23.648832 l 7.739096,-4.033511 9.99436,9.934934 c 7.02953,6.987744 12.29176,11.228961 17.73888,14.297089 10.2316,5.76301 23.6833,10.80998 28.92002,10.85055 5.57089,0.0432 14.25171,-2.9609 26.27948,-9.09421 8.53616,-4.352846 11.24355,-6.41681 20.49111,-15.621352 l 10.65543,-10.605833 6.06527,3.031337 c 23.35215,11.671056 44.88618,33.305518 57.23305,57.500018 29.10174,57.02669 8.90439,124.28738 -47.49291,158.15969 -5.15988,3.09904 -22.91735,11.40991 -24.37903,11.40991 -0.24342,0 -0.44259,-4.18298 -0.44259,-9.29551 0,-5.11252 -0.49251,-11.64097 -1.09447,-14.50766 -1.31138,-6.24513 -6.39859,-17.63594 -10.61013,-23.7572 -1.67692,-2.43733 -3.04895,-4.69853 -3.04895,-5.0249 0,-0.32637 3.54085,-5.23805 7.86856,-10.91486 9.08553,-11.91779 9.7324,-14.53681 5.0467,-20.43299 -6.0645,-7.63119 -22.32821,-21.08185 -34.75435,-28.74307 -9.63573,-5.94084 -12.67816,-5.89957 -23.00227,0.31201 -11.26563,6.77805 -22.55424,15.65819 -30.15588,23.72198 -8.82086,9.35714 -8.92525,11.47747 -1.10254,22.39373 3.04511,4.24932 6.60207,8.99631 7.90436,10.54886 2.11706,2.5239 2.22263,3.04468 0.99701,4.91786 -10.33781,15.79956 -13.13023,23.5166 -14.01557,38.73302 -0.38557,6.6268 -0.97029,12.0303 -1.29937,12.00778 -0.32909,-0.0225 -5.1902,-2.23144 -10.80246,-4.90869 z m 26.53743,-100.14956 c 11.9119,-4.11892 21.2539,-12.53461 27.14637,-24.45469 3.7208,-7.52691 3.73169,-7.58497 3.73169,-19.89619 0,-12.17062 -0.0512,-12.45437 -3.57672,-19.83686 -11.2648,-23.58836 -39.75256,-33.66831 -63.613041,-22.50849 -8.285249,3.87511 -18.020885,13.27299 -21.888404,21.12904 -5.989247,12.16589 -6.155256,29.11666 -0.404739,41.32689 5.61605,11.92472 20.863043,23.78671 33.512144,26.07208 6.9047,1.2475 18.67161,0.38851 25.0927,-1.83178 z m 98.46331,-0.15065 c 7.8507,-2.4181 13.25279,-5.81481 19.12865,-12.02766 17.82036,-18.84241 17.38047,-46.84946 -1.02453,-65.23027 -27.52966,-27.493455 -74.45181,-12.0931 -80.43621,26.40002 -3.84906,24.75818 12.43627,47.38257 38.02394,52.82468 5.31611,1.13066 17.43545,0.15009 24.30815,-1.96677 z"
       id="path2"
       transform="scale(0.26458333)" /><path
       style="fill:#ffffff;stroke-width:0.98357"
       d="m 102.22183,191.92667 c -6.465719,-1.74334 -12.585804,-5.61974 -17.984078,-11.39094 -5.815985,-6.21775 -8.611223,-12.34886 -9.248282,-20.28527 -1.251235,-15.58774 6.552889,-28.77051 21.379742,-36.11477 5.667818,-2.80747 7.299348,-3.15654 14.753558,-3.15654 7.04724,0 9.28148,0.42199 14.03916,2.6516 7.05886,3.30802 15.8673,11.53058 19.28404,18.00137 2.3307,4.41403 2.5978,5.98168 2.5978,15.24735 0,9.36509 -0.25189,10.80531 -2.70299,15.45492 -5.37537,10.19681 -13.33161,16.67992 -23.8239,19.41281 -6.89228,1.79521 -12.11266,1.84642 -18.29505,0.17947 z m 29.20694,-18.38562 c 5.22255,-2.5282 8.23822,-8.14766 8.23822,-15.35131 0,-6.3182 -2.88855,-10.85301 -8.82259,-13.85079 -7.69727,-3.88854 -14.72325,-2.45908 -20.55402,4.18181 -3.17902,3.62071 -3.26998,3.96043 -2.91937,10.90354 0.30149,5.97047 0.76956,7.60896 2.80484,9.81841 6.06395,6.58289 13.4485,8.07639 21.25292,4.29834 z"
       id="path3"
       transform="scale(0.26458333)" /><path
       style="fill:#ffffff;stroke-width:0.98357"
       d="m 200.57886,191.92667 c -10.12321,-2.72951 -19.59415,-10.93424 -24.362,-21.10495 -2.19177,-4.67546 -2.61669,-6.94289 -2.61669,-13.96293 0,-7.48389 0.34539,-9.08264 3.22667,-14.93534 3.8064,-7.7319 10.92346,-14.64047 18.90366,-18.34987 4.53461,-2.10781 6.85218,-2.51739 14.32786,-2.53213 8.08993,-0.016 9.52035,0.27884 15.40141,3.17407 8.35395,4.11264 16.57114,12.76 19.07893,20.07771 2.54722,7.43276 2.33345,20.36431 -0.43989,26.61092 -2.54083,5.7229 -9.91941,13.78698 -15.73163,17.19317 -8.03258,4.70741 -18.95133,6.21206 -27.78832,3.82935 z m 4.98734,-17.88174 c 8.00026,-4.03907 11.02948,-13.80514 7.0023,-22.5751 -2.40865,-5.2453 -5.10325,-7.47233 -10.17069,-8.40588 -10.52219,-1.93843 -19.54646,3.76088 -20.96833,13.24263 -2.03939,13.59964 11.95841,23.88678 24.13672,17.73835 z"
       id="path4"
       transform="scale(0.26458333)" /></g></svg>
