<?xml version="1.0" encoding="UTF-8" standalone="no"?>
<!-- Created with Inkscape (http://www.inkscape.org/) -->

<svg
   width="95mm"
   height="81mm"
   viewBox="0 0 95 81"
   version="1.1"
   id="svg1"
   xml:space="preserve"
   inkscape:version="1.4.3 (0d15f75, 2025-12-25)"
   sodipodi:docname="deer.svg"
   xmlns:inkscape="http://www.inkscape.org/namespaces/inkscape"
   xmlns:sodipodi="http://sodipodi.sourceforge.net/DTD/sodipodi-0.dtd"
   xmlns="http://www.w3.org/2000/svg"
   xmlns:svg="http://www.w3.org/2000/svg"><sodipodi:namedview
     id="namedview1"
     pagecolor="#ffffff"
     bordercolor="#000000"
     borderopacity="0.25"
     inkscape:showpageshadow="2"
     inkscape:pageopacity="0.0"
     inkscape:pagecheckerboard="0"
     inkscape:deskcolor="#d1d1d1"
     inkscape:document-units="mm"
     inkscape:zoom="1.4378367"
     inkscape:cx="207.60355"
     inkscape:cy="238.90056"
     inkscape:window-width="1920"
     inkscape:window-height="1017"
     inkscape:window-x="1072"
     inkscape:window-y="825"
     inkscape:window-maximized="1"
     inkscape:current-layer="layer1" /><defs
     id="defs1" /><g
     inkscape:label="Katman 1"
     inkscape:groupmode="layer"
     id="layer1"><g
       id="g9"><path
         style="fill:#a56f47"
         d="m 46.268385,78.173463 c 0.06063,-0.05355 1.41993,-0.152782 3.020659,-0.220506 1.60073,-0.06772 2.55323,-0.03799 2.116667,0.06607 -0.813569,0.193926 -5.335958,0.329879 -5.137326,0.154439 z m -4.499128,-0.591865 c -0.934424,-0.204335 -1.75794,-0.430505 -1.830034,-0.5026 -0.234691,-0.23469 0.91629,-0.13812 1.728529,0.145029 0.435626,0.15186 1.554721,0.374887 2.486878,0.495616 1.460171,0.189115 1.529981,0.220474 0.504206,0.22649 -0.654844,0.0038 -1.955154,-0.160199 -2.889579,-0.364535 z m 10.760933,0.249424 c 0.181901,-0.0734 0.479558,-0.0734 0.661459,0 0.181901,0.0734 0.03307,0.133452 -0.330729,0.133452 -0.363803,0 -0.512631,-0.06005 -0.33073,-0.133452 z m 1.389063,-0.353938 c 0.218281,-0.141064 0.813594,-0.244217 1.322917,-0.229228 l 0.926041,0.02725 -0.79375,0.201975 c -0.436562,0.111086 -1.031875,0.214239 -1.322916,0.229228 -0.435399,0.02242 -0.458841,-0.0182 -0.132292,-0.229228 z m 2.645833,-0.495166 c 0.218282,-0.130819 0.813594,-0.311636 1.322917,-0.401814 0.624687,-0.110605 0.753839,-0.09024 0.396875,0.06258 -0.818176,0.350269 -2.189576,0.620782 -1.719792,0.339234 z M 38.044253,76.551042 c -0.509323,-0.196139 -0.747448,-0.360305 -0.529167,-0.364812 0.218281,-0.0045 0.754062,0.155358 1.190625,0.355257 1.021837,0.467891 0.546549,0.474757 -0.661458,0.0096 z m 21.43125,-0.431981 c 3.596132,-1.644478 6.708245,-3.500268 8.309381,-4.954981 1.942091,-1.764489 4.126036,-4.113306 4.126036,-4.437521 0,-0.19662 0.238125,-0.506202 0.529167,-0.687961 0.291041,-0.181758 0.529166,-0.433391 0.529166,-0.559183 0,-0.125792 0.357188,-0.757965 0.79375,-1.404828 0.436563,-0.646863 0.797537,-1.318973 0.802165,-1.493579 0.0094,-0.354506 0.785335,-1.469374 0.785335,-1.128369 0,0.458909 -1.694714,3.530643 -2.782969,5.044237 -1.528661,2.126129 -4.621078,5.106515 -6.788387,6.542459 -1.960701,1.299056 -5.283038,3.003069 -6.303644,3.233113 L 58.814045,76.42154 Z M 36.192169,75.889584 c -0.218281,-0.141064 -0.277812,-0.25648 -0.132291,-0.25648 0.14552,0 0.443177,0.115416 0.661458,0.25648 0.218281,0.141064 0.277812,0.25648 0.132292,0.25648 -0.145521,0 -0.443178,-0.115416 -0.661459,-0.25648 z M 34.27394,75.07782 c -1.325287,-0.699643 -1.252118,-0.803628 0.198438,-0.282011 0.654843,0.23548 1.190625,0.518381 1.190625,0.628669 0,0.303183 -0.299871,0.228346 -1.389063,-0.346658 z m -3.111061,-1.896505 c -2.353441,-1.535683 -5.501215,-4.599824 -7.081432,-6.893284 -1.390102,-2.017538 -2.81984,-4.660245 -2.626078,-4.854007 0.06349,-0.0635 0.325652,0.335297 0.582573,0.886204 0.256922,0.550906 0.808289,1.513633 1.225262,2.139391 0.416972,0.625759 0.758132,1.208809 0.758132,1.295667 0,0.265124 1.893536,2.519903 3.230454,3.84675 0.694423,0.689192 2.186419,1.927234 3.315546,2.751204 1.129127,0.82397 2.166068,1.599539 2.304312,1.723486 0.560528,0.502556 -0.08382,0.164913 -1.708769,-0.895411 z m 18.126165,-3.779209 c 2.03551,-0.458664 2.265199,-0.457845 1.455209,0.0052 -0.363802,0.207968 -1.19724,0.372364 -1.852084,0.365325 l -1.190625,-0.0128 z m -3.439583,-0.127105 c -0.674218,-0.289721 0.02139,-0.289721 0.926042,0 0.531741,0.170293 0.557685,0.213361 0.132291,0.219613 -0.291041,0.0043 -0.767291,-0.09455 -1.058333,-0.219613 z m -1.455208,-0.529167 c -0.218282,-0.141064 -0.277813,-0.25648 -0.132292,-0.25648 0.145521,0 0.443177,0.115416 0.661458,0.25648 0.218282,0.141064 0.277813,0.256481 0.132292,0.256481 -0.145521,0 -0.443177,-0.115417 -0.661458,-0.256481 z m 8.202083,-0.33777 c 1.525579,-0.738015 3.175635,-2.389498 3.916468,-3.919853 0.628201,-1.297692 0.784351,-3.640923 0.323414,-4.853277 -0.141919,-0.373276 -0.155805,-0.678683 -0.03086,-0.678683 0.618303,0 0.743749,3.767504 0.1782,5.351895 -0.431255,1.208165 -2.887334,3.839783 -4.047997,4.337312 -1.368208,0.586496 -1.643738,0.393677 -0.339227,-0.237394 z M 42.202921,67.356772 c -2.42407,-2.280085 -3.314326,-4.864696 -2.593436,-7.529319 0.318487,-1.177225 2.438752,-3.470599 3.549984,-3.839823 0.538221,-0.178832 0.542208,-0.170732 0.06511,0.132292 -4.740716,3.011044 -4.804254,8.004234 -0.147881,11.621301 0.506372,0.393349 0.785908,0.720771 0.621192,0.727604 -0.164716,0.0068 -0.837454,-0.493592 -1.494973,-1.112055 z m -21.19139,-6.908411 c -0.08962,-0.35706 -0.235716,-0.838854 -0.324666,-1.070655 -0.08895,-0.2318 -0.04551,-0.421455 0.09654,-0.421455 0.14205,0 0.329712,0.440233 0.417028,0.978294 0.182629,1.125411 0.05305,1.477854 -0.188906,0.513816 z m 54.372395,0.359974 c -0.0053,-0.218282 0.153998,-0.754063 0.353897,-1.190625 0.199899,-0.436563 0.367752,-0.615157 0.373007,-0.396875 0.0053,0.218281 -0.153998,0.754062 -0.353896,1.190625 -0.199899,0.436562 -0.367752,0.615156 -0.373008,0.396875 z M 20.220399,57.663558 c -0.10195,-0.63756 -0.129561,-1.215004 -0.06136,-1.283207 0.177657,-0.177657 0.498797,1.686186 0.361499,2.09808 -0.06313,0.189381 -0.19819,-0.177312 -0.300141,-0.814873 z m 35.536783,0.287893 C 55.401165,57.553015 54.75269,56.955486 54.316128,56.623608 l -0.79375,-0.603414 0.79375,0.386074 c 0.854724,0.415732 2.424362,1.933607 2.215515,2.142454 -0.06994,0.06994 -0.418444,-0.198835 -0.774461,-0.597271 z m 20.550082,-0.318116 c 0.0891,-0.654844 0.246599,-2.559844 0.350002,-4.233334 l 0.188005,-3.042708 0.03516,2.778125 c 0.02152,1.700937 -0.114185,3.342366 -0.350002,4.233333 -0.364845,1.378458 -0.376614,1.392413 -0.223161,0.264584 z M 19.886974,53.26771 c 5.97e-4,-1.600729 0.04418,-2.22146 0.09684,-1.379402 0.05267,0.842058 0.05218,2.151745 -0.0011,2.910417 -0.05326,0.758671 -0.09635,0.06971 -0.09576,-1.531015 z m 15.602395,2.502583 c -0.998374,-0.197521 -3.26595,-1.183502 -3.26595,-1.420091 0,-0.05356 0.68461,0.184161 1.521354,0.528264 1.808021,0.743531 5.338823,0.860115 7.077605,0.233697 1.329837,-0.47909 1.439407,-0.481028 0.77214,-0.01366 -0.440102,0.30826 -4.188297,1.021477 -4.826181,0.918339 -0.09861,-0.01594 -0.674147,-0.126892 -1.278968,-0.246552 z m 16.710092,-0.174766 c -1.141447,-0.445458 -5.19249,-0.615685 -6.693882,-0.281281 -0.480176,0.10695 -0.810271,0.09288 -0.733542,-0.03127 0.07673,-0.124149 0.707725,-0.310216 1.402215,-0.413483 0.69449,-0.103266 1.500834,-0.237432 1.791876,-0.298146 0.676575,-0.141139 5.423958,0.953612 5.423958,1.25077 0,0.123045 -0.02976,0.215329 -0.06615,0.205076 -0.03638,-0.01025 -0.542395,-0.204503 -1.124479,-0.431665 z m 5.159375,0.200924 c -2.709164,-0.406571 -6.60849,-3.249056 -7.550784,-5.504282 -0.216514,-0.518191 -0.348594,-0.987234 -0.293511,-1.042317 0.05508,-0.05508 0.259965,0.290619 0.455292,0.768228 0.556918,1.361762 2.86563,3.624633 4.610878,4.519327 1.374833,0.704801 1.941946,0.83074 4.233334,0.940093 1.730333,0.08258 2.416958,0.193623 1.984375,0.320928 -0.802725,0.236232 -1.856324,0.235627 -3.439584,-0.002 z M 62.69991,55.00705 c 1.835719,-0.717786 2.987251,-1.500975 4.151317,-2.823423 1.496482,-1.700093 2.191312,-3.348815 2.386503,-5.662792 0.157221,-1.863839 0.185545,-1.934616 0.466291,-1.165195 0.254597,0.697759 0.188671,1.140837 -0.444776,2.989252 -0.843832,2.462324 -1.090116,2.888598 -2.580298,4.46603 -1.11333,1.178516 -3.775734,2.705608 -4.689902,2.690019 -0.291042,-0.005 0.02885,-0.227214 0.710865,-0.493891 z M 43.623577,53.677467 c 0.787674,-0.574998 1.787195,-1.533878 2.221158,-2.130845 0.433963,-0.596967 0.828814,-0.966024 0.877446,-0.820128 0.118038,0.354115 -2.536214,3.149723 -3.439268,3.622433 -1.260813,0.659981 -1.129979,0.402102 0.340664,-0.67146 z M 30.929372,53.553593 c -1.1772,-0.868511 -2.74171,-2.730694 -2.61459,-3.112056 0.05687,-0.170624 0.371854,0.124128 0.699953,0.655005 0.3281,0.530876 1.141508,1.444925 1.807574,2.03122 1.361443,1.19839 1.408638,1.386102 0.107063,0.425831 z M 19.810732,49.91157 c -0.06401,-1.255279 1.705509,-7.836108 2.021962,-7.519655 0.07602,0.07602 -0.06821,0.649172 -0.320512,1.273672 -0.2523,0.624501 -0.733226,2.385613 -1.068724,3.913581 -0.335499,1.527969 -0.620225,2.57755 -0.632726,2.332402 z m 27.119087,-0.08344 c 0.1034,-0.291042 0.355697,-1.301316 0.560661,-2.245052 0.327729,-1.509 0.32258,-1.93765 -0.0427,-3.555178 -0.626248,-2.773112 -1.897847,-4.599882 -4.378815,-6.29058 -0.362496,-0.247028 -0.52152,-0.455388 -0.353387,-0.463021 0.469401,-0.02131 2.438202,1.717285 3.459858,3.055307 0.546744,0.716049 1.130161,1.958277 1.449217,3.085718 0.471733,1.666946 0.498779,2.100746 0.231778,3.7175 -0.166251,1.006686 -0.485049,2.144018 -0.708441,2.527405 -0.223391,0.383387 -0.321567,0.458942 -0.218167,0.167901 z m -19.196914,-0.5097 c -0.149592,-0.393457 -0.26676,-0.915985 -0.260373,-1.161174 0.0064,-0.245188 0.179617,0.0259 0.384955,0.602409 0.416914,1.17054 0.302728,1.682677 -0.124582,0.558765 z m 48.60252,-1.582775 c -0.253026,-1.296381 -0.412938,-2.404165 -0.35536,-2.461742 0.168663,-0.168664 1.004296,3.854276 0.905446,4.359036 -0.04952,0.252868 -0.29706,-0.600914 -0.550086,-1.897294 z m -27.157784,0.747506 c 0.0127,-0.308224 0.07539,-0.370919 0.159852,-0.159852 0.07643,0.190996 0.06703,0.419199 -0.02089,0.507118 -0.08792,0.08792 -0.150453,-0.06835 -0.138964,-0.347266 z m -0.359434,-0.991778 c -0.104842,-0.266563 -0.187,-0.683282 -0.182575,-0.926042 0.0072,-0.393786 0.03763,-0.390556 0.282382,0.02995 0.150886,0.259233 0.233045,0.675952 0.182575,0.926041 -0.0838,0.415268 -0.108296,0.412669 -0.282382,-0.02995 z M 27.101212,46.731609 c -0.08725,-0.479728 0.0033,-1.467545 0.201174,-2.195149 l 0.359818,-1.322917 -0.13676,2.116667 c -0.07522,1.164167 -0.165746,2.151984 -0.201174,2.195149 -0.03543,0.04317 -0.135804,-0.314021 -0.223058,-0.79375 z m 21.90062,-2.389731 c 0.260033,-3.65859 4.016739,-7.655984 7.540865,-8.024 l 1.213014,-0.126672 -1.394314,0.398236 c -2.026659,0.578843 -2.906562,1.100377 -4.423271,2.621756 -1.5068,1.511439 -2.442398,3.22761 -2.792301,5.121931 l -0.233044,1.261664 z m 26.634143,0.414659 c -0.01149,-0.169999 -0.08941,-0.527187 -0.173157,-0.79375 -0.144741,-0.460697 -0.137274,-0.461274 0.151017,-0.01167 0.166808,0.260144 0.244728,0.617332 0.173157,0.79375 -0.09392,0.231509 -0.135941,0.234757 -0.151017,0.01167 z m -6.593696,-0.881535 c 0,-0.363802 0.06005,-0.512631 0.133453,-0.330729 0.0734,0.181901 0.0734,0.479557 0,0.661458 -0.0734,0.181901 -0.133453,0.03307 -0.133453,-0.330729 z m 5.944036,-0.936271 c -0.09074,-0.236459 -0.157431,-0.569015 -0.148207,-0.739015 0.0092,-0.169999 0.130844,-0.02391 0.270267,0.324636 0.139423,0.34855 0.206116,0.681106 0.148207,0.739016 -0.05791,0.05791 -0.17953,-0.08818 -0.270267,-0.324637 z M 27.731313,42.732048 c -0.01305,-1.081582 3.718978,-5.471629 4.651496,-5.471629 0.285533,0 0.07324,0.273376 -0.582713,0.750388 -1.44745,1.052588 -2.980362,2.818586 -3.565937,4.108154 -0.273369,0.60202 -0.49965,0.877909 -0.502846,0.613087 z M 68.523247,42.201832 C 68.074125,40.956301 66.595516,39.19764 65.100821,38.13119 63.702079,37.133201 62.019033,36.531761 59.697424,36.200276 l -1.677129,-0.239464 1.943077,0.107326 c 2.408984,0.13306 4.715459,1.140712 6.431868,2.809951 1.40853,1.369821 2.670049,3.278048 2.554759,3.864434 -0.04611,0.234515 -0.232273,-0.0014 -0.426752,-0.540691 z M 22.978882,39.978135 c 1.246011,-2.428572 4.073232,-5.772834 6.659252,-7.877091 2.53025,-2.058878 3.980885,-3.006404 3.766794,-2.460396 -0.07413,0.189051 -0.634191,0.581854 -1.244587,0.872896 -1.384601,0.660189 -7.525297,6.714786 -7.760427,7.651617 -0.09425,0.375516 -0.275918,0.682757 -0.403711,0.682757 -0.127792,0 -0.399832,0.386954 -0.604534,0.859896 -0.204702,0.472943 -0.571554,1.098021 -0.815227,1.389063 -0.243673,0.291041 -0.06257,-0.212393 0.40244,-1.118742 z m 50.396175,-0.171482 c -0.577172,-0.891106 -1.224062,-1.961944 -1.437532,-2.379641 -0.750869,-1.469221 -6.476787,-6.781177 -7.309637,-6.781177 -0.122918,0 -0.469287,-0.226503 -0.769707,-0.50334 -0.684108,-0.630404 -3.478478,-2.142493 -3.95937,-2.142493 -0.197183,0 -0.513219,-0.186408 -0.702302,-0.414239 -0.238005,-0.286778 0.132846,-0.203449 1.205233,0.270812 3.311689,1.464585 7.254065,4.322227 9.761991,7.076005 1.494111,1.640578 4.597488,6.194999 4.36316,6.403239 -0.05634,0.05006 -0.574663,-0.638059 -1.151836,-1.529166 z m -54.130688,-0.01959 c -3.856787,-1.420867 -6.670232,-4.008093 -7.555984,-6.948436 -0.293881,-0.975567 -0.279965,-1.181039 0.111629,-1.648228 0.470679,-0.561542 2.604108,-1.566679 2.307841,-1.087309 -0.09455,0.152991 -0.288773,0.278166 -0.431598,0.278166 -0.142825,0 -0.619996,0.266392 -1.06038,0.591982 -0.706513,0.522347 -0.780461,0.699855 -0.628655,1.509047 0.379731,2.024144 1.599236,3.623809 4.024828,5.279503 2.885261,1.969461 4.649358,2.400729 5.089097,1.244128 0.132943,-0.349667 0.357557,-0.707352 0.499142,-0.794856 0.141585,-0.0875 0.02709,0.317649 -0.254438,0.90034 -0.555584,1.149925 -0.693653,1.194317 -2.101482,0.675663 z m 56.532813,-0.03084 c -0.137501,-0.358322 -0.09904,-0.391594 0.18254,-0.157906 0.40239,0.333955 2.410257,-0.294148 4.069135,-1.27291 0.519524,-0.306526 0.998041,-0.503867 1.063373,-0.438536 0.154386,0.154387 -3.54809,1.954541 -4.449095,2.163164 -0.508484,0.117736 -0.737897,0.0399 -0.865953,-0.293812 z m -1.68575,-2.783632 -0.56991,-0.90011 0.673299,-0.352777 c 0.370314,-0.194027 0.731276,-0.294799 0.802138,-0.223937 0.07086,0.07086 -0.118258,0.207265 -0.420267,0.303119 -0.660105,0.209509 -0.705803,0.627161 -0.115824,1.058565 0.238305,0.174253 0.3809,0.473969 0.316877,0.666037 -0.07159,0.214763 -0.335824,0.0027 -0.686313,-0.550897 z m -51.92218,0.475405 c 0,-0.107115 0.148828,-0.434896 0.330729,-0.728403 0.272602,-0.439857 0.260976,-0.578021 -0.06614,-0.786109 -0.276804,-0.176079 -0.294304,-0.253684 -0.05784,-0.25651 0.551985,-0.0066 0.665738,0.720135 0.213732,1.365465 -0.231261,0.33017 -0.420474,0.512671 -0.420474,0.405557 z m 19.050001,-0.584448 c -0.509323,-0.19614 -1.223698,-0.375075 -1.5875,-0.397635 -0.363802,-0.02256 -0.503579,-0.104087 -0.310614,-0.181174 0.415734,-0.16608 2.643532,0.418846 2.846586,0.747394 0.167409,0.270873 0.214354,0.279217 -0.948472,-0.168585 z m 41.816332,-1.12448 c 0.776513,-0.836744 1.464755,-1.580885 1.529427,-1.653645 0.06467,-0.07276 -0.02743,0.146133 -0.204673,0.486429 -0.440441,0.845623 -2.129738,2.688571 -2.46442,2.688571 -0.149696,0 0.363153,-0.68461 1.139666,-1.521355 z m -49.380317,1.029985 c 0.226041,-0.365742 3.105629,-0.883068 4.256693,-0.764726 0.985031,0.101271 0.965036,0.111888 -0.288679,0.153285 -0.740856,0.02446 -1.931481,0.221782 -2.645833,0.438488 -1.535673,0.465863 -1.500354,0.461243 -1.322181,0.172953 z M 21.110919,35.408335 c -0.218281,-0.141064 -0.277813,-0.25648 -0.132292,-0.25648 0.145521,0 0.443177,0.115416 0.661459,0.25648 0.218281,0.141064 0.277812,0.256481 0.132291,0.256481 -0.145521,0 -0.443177,-0.115417 -0.661458,-0.256481 z m 54.239584,-0.08992 c 0,-0.200235 4.132125,-1.501633 4.710013,-1.483401 0.247149,0.0078 -0.503138,0.310198 -1.667304,0.672003 -1.164167,0.361804 -2.325026,0.726498 -2.579688,0.810431 -0.254661,0.08393 -0.463021,0.08437 -0.463021,9.67e-4 z M 19.788002,34.879169 c -0.218281,-0.141065 -0.277812,-0.256481 -0.132291,-0.256481 0.14552,0 0.443177,0.115416 0.661458,0.256481 0.218281,0.141064 0.277812,0.25648 0.132292,0.25648 -0.145521,0 -0.443178,-0.115416 -0.661459,-0.25648 z m -1.434087,-0.23041 c -0.07832,-0.126725 -0.521083,-0.306145 -0.983917,-0.398712 -0.462833,-0.09257 -0.778984,-0.230834 -0.702557,-0.307262 0.218345,-0.218345 2.575684,0.483167 2.427784,0.722476 -0.17395,0.281457 -0.562507,0.272808 -0.74131,-0.0165 z m 5.2044,-0.05195 c -0.847131,-0.326946 -0.736683,-0.526438 0.188965,-0.341309 0.691431,0.138287 0.851138,0.04354 1.349051,-0.800364 0.310625,-0.526471 0.731607,-0.95722 0.935514,-0.95722 0.340591,0 0.490427,-0.333208 0.395517,-0.879563 -0.02084,-0.119957 0.08445,-0.142497 0.233967,-0.05009 0.38449,0.237628 -0.0092,0.861619 -1.362867,2.160122 -0.951875,0.913084 -1.245174,1.059455 -1.740147,0.868422 z m 47.766498,-1.014581 c -1.724655,-1.849668 -1.721038,-1.82356 -0.337429,-2.435596 0.677654,-0.299759 1.298246,-0.478867 1.379095,-0.398018 0.143715,0.143715 -1.056577,0.690968 -1.515502,0.690968 -0.625619,0 -0.46156,0.639629 0.441006,1.719387 0.90891,1.087347 1.080944,1.181661 1.932805,1.059617 0.514299,-0.07368 0.756497,-0.05817 0.538215,0.03448 -0.218281,0.09264 -0.588518,0.26666 -0.822749,0.386702 -0.317766,0.162855 -0.727842,-0.105597 -1.615441,-1.057535 z M 20.714044,33.386302 c -0.873125,-0.35085 -1.230313,-0.56606 -0.79375,-0.478246 0.822172,0.16538 3.11343,1.139151 2.645833,1.124464 -0.145521,-0.0046 -0.978958,-0.295369 -1.852083,-0.646218 z m 53.772154,0.401702 c 0.179475,-0.180821 0.39297,-0.262115 0.474432,-0.180654 0.08146,0.08146 -0.06538,0.229407 -0.32632,0.328766 -0.377084,0.143585 -0.407475,0.113194 -0.148112,-0.148112 z m 6.464174,-0.129714 c 0.996835,-0.299082 0.728795,-1.210668 -0.440494,-1.498083 -0.516577,-0.126976 -0.516206,-0.130801 0.01558,-0.160763 0.299608,-0.01688 0.775858,0.140928 1.058333,0.350687 0.410961,0.305169 0.455053,0.476999 0.220648,0.859895 -0.161118,0.263185 -0.518306,0.501447 -0.79375,0.529472 -0.381944,0.03886 -0.396259,0.01959 -0.06031,-0.08121 z M 14.760919,33.191774 c 0,-0.200463 0.162282,-0.499161 0.360627,-0.663772 0.291891,-0.242248 0.336442,-0.172779 0.233739,0.364478 -0.133009,0.695793 -0.594366,0.92811 -0.594366,0.299294 z m 61.118751,-0.0324 c 0.363802,-0.207968 0.899583,-0.373285 1.190625,-0.36737 0.346494,0.007 0.20949,0.13386 -0.396875,0.36737 -1.224213,0.471442 -1.618452,0.471442 -0.79375,0 z m 2.067057,-0.577616 c 0.190996,-0.07643 0.4192,-0.06703 0.507118,0.02089 0.08792,0.08792 -0.06835,0.150452 -0.347265,0.138964 -0.308225,-0.0127 -0.370919,-0.07539 -0.159853,-0.159853 z m 6.892729,-0.612287 c -0.08799,-0.84599 -0.221004,-0.975723 -1.551453,-1.513226 -0.800364,-0.323348 -1.276614,-0.588949 -1.058333,-0.590223 0.697351,-0.0041 2.594189,0.98221 2.85583,1.484921 0.13898,0.267033 0.16213,0.723639 0.05145,1.014681 -0.164498,0.432542 -0.218819,0.360205 -0.297489,-0.396153 z m -68.01148,0.347704 c 0.190996,-0.07643 0.419199,-0.06703 0.507118,0.02089 0.08792,0.08792 -0.06835,0.150453 -0.347265,0.138965 -0.308225,-0.0127 -0.37092,-0.07539 -0.159853,-0.159853 z m 8.650441,-1.139145 c -0.09269,-0.149982 0.01351,-0.194339 0.248968,-0.103985 0.458369,0.175893 0.542234,0.365537 0.161649,0.365537 -0.136933,0 -0.32171,-0.117698 -0.410617,-0.261552 z m -1.457081,-0.532198 c -0.218282,-0.141064 -0.277813,-0.25648 -0.132292,-0.25648 0.145521,0 0.443177,0.115416 0.661458,0.25648 0.218282,0.141065 0.277813,0.256481 0.132292,0.256481 -0.145521,0 -0.443177,-0.115416 -0.661458,-0.256481 z m 57.150001,-0.01562 c 0,-0.154109 0.119062,-0.206613 0.264583,-0.116676 0.145521,0.08994 0.264583,0.216026 0.264583,0.280198 0,0.06417 -0.119062,0.116677 -0.264583,0.116677 -0.145521,0 -0.264583,-0.126089 -0.264583,-0.280199 z m -8.069792,-0.248968 c 0.291042,-0.125065 0.70776,-0.227391 0.926042,-0.227391 0.250158,0 0.201252,0.08406 -0.132292,0.227391 -0.291042,0.125065 -0.707761,0.227391 -0.926042,0.227391 -0.250158,0 -0.201252,-0.08406 0.132292,-0.227391 z m -55.033334,-0.529167 -2.910417,-0.159981 2.778125,-0.021 c 1.527969,-0.01155 3.135312,0.06989 3.571875,0.180978 0.940506,0.239319 0.914153,0.239319 -3.439583,0 z m 56.68698,0.08936 c 0.181901,-0.0734 0.479557,-0.0734 0.661458,0 0.181901,0.0734 0.03307,0.133452 -0.330729,0.133452 -0.363802,0 -0.51263,-0.06005 -0.330729,-0.133452 z m 4.229798,-0.138019 c -0.179957,-0.114299 0.387181,-0.200239 1.260306,-0.190979 1.682813,0.01785 1.707655,0.136895 0.06261,0.300044 -0.547648,0.05431 -1.14296,0.0052 -1.322916,-0.109065 z M 76.342691,29.66536 c 0.327422,-0.06306 0.863203,-0.06306 1.190625,0 0.327422,0.06306 0.05953,0.114662 -0.595313,0.114662 -0.654843,0 -0.922734,-0.0516 -0.595312,-0.114662 z M 34.075503,29.04405 c 0.859393,-0.586317 2.439336,-1.338739 2.559266,-1.218809 0.06971,0.06971 -0.487396,0.435199 -1.238003,0.812208 -1.386909,0.696604 -2.04168,0.898101 -1.321263,0.406601 z m 3.175,-1.528576 c 0.218281,-0.134867 0.694531,-0.324831 1.058333,-0.422142 0.459708,-0.122965 0.540408,-0.102139 0.264583,0.06828 -0.218281,0.134866 -0.694531,0.324831 -1.058333,0.422142 -0.459708,0.122965 -0.540408,0.102138 -0.264583,-0.06828 z M 57.62342,27.03211 c -0.218282,-0.0728 -0.562745,-0.185267 -0.765474,-0.249923 -0.202729,-0.06466 -0.311396,-0.17476 -0.241482,-0.244673 0.06991,-0.06991 0.59297,0.04356 1.162348,0.252168 0.934975,0.342552 0.795805,0.559672 -0.155392,0.242428 z M 40.822378,26.261656 c 1.669164,-0.46446 2.414716,-0.452841 1.190625,0.01856 -0.509323,0.196139 -1.28323,0.355028 -1.719792,0.353087 -0.633481,-0.0028 -0.526635,-0.07786 0.529167,-0.371642 z m 12.7,-0.253438 c -1.353229,-0.445988 -0.413719,-0.44501 1.322917,0.0014 1.022635,0.26286 1.142747,0.340882 0.529166,0.343734 -0.436562,0.002 -1.27,-0.153271 -1.852083,-0.345111 z m -9.517577,-0.437082 c 1.420483,-0.252048 8.062396,-0.267313 8.062259,-0.01853 -6e-5,0.109141 -2.050548,0.199915 -4.55664,0.201719 -2.571794,0.0019 -4.098773,-0.07794 -3.505619,-0.183189 z"
         id="path13" /><path
         style="fill:#060302"
         d="M 44.459222,79.593026 C 37.41128,78.853685 30.610278,75.645105 25.720197,70.752321 c -3.5491,-3.551062 -5.814895,-7.490883 -7.012176,-12.192945 -0.867961,-3.408731 -0.867551,-9.042665 9.03e-4,-12.405559 0.333981,-1.293267 0.779908,-2.764651 0.99095,-3.269744 0.211041,-0.505092 0.34697,-0.944987 0.302065,-0.977543 -0.0449,-0.03256 -0.79602,-0.336432 -1.669145,-0.67528 -2.108225,-0.818173 -4.915758,-2.680385 -6.109414,-4.052321 -1.938633,-2.22818 -2.9769131,-5.392642 -2.2283081,-6.791423 0.3633461,-0.678918 1.8141041,-1.528794 3.4862821,-2.042316 0.993078,-0.304972 2.353612,-0.42847 4.586857,-0.416357 3.572714,0.01938 6.179192,0.573062 8.943609,1.899854 0.896668,0.430359 1.691955,0.718872 1.767306,0.641139 0.255056,-0.263116 -2.029652,-2.066085 -4.259525,-3.361389 -1.219931,-0.708642 -3.196761,-1.92744 -4.392955,-2.70844 -2.003951,-1.308387 -2.232709,-1.395546 -2.910416,-1.108893 -0.425744,0.180078 -2.128436,0.315905 -4.042811,0.322501 C 9.3765711,23.626688 7.1249206,23.045948 5.1591087,21.546573 2.9014917,19.824632 2.367424,18.223361 3.4238246,16.343749 4.3358626,14.720997 5.6155913,14.481017 9.5585812,15.193333 L 10.573952,15.376764 9.7873078,13.817029 C 8.8103405,11.879927 7.881752,8.8132567 7.881752,7.5239167 c 0,-2.3997532 1.3712072,-3.8655805 3.616054,-3.8655805 2.792829,0 3.95857,0.9721078 4.879973,4.0693956 0.308211,1.0360511 0.902889,2.5628562 1.321504,3.3929002 0.969236,1.92183 3.580539,4.719325 5.792886,6.205932 l 1.719792,1.15563 0.167133,-1.128075 c 0.09192,-0.620441 0.116041,-1.916302 0.05359,-2.87969 -0.148401,-2.289446 0.310386,-5.8732795 0.859073,-6.7106809 0.913313,-1.3938922 4.116471,-1.5330992 5.646807,-0.2454062 1.005475,0.8460506 1.550798,2.3536394 1.847434,5.1073701 0.263432,2.445502 -0.04188,6.94692 -0.625237,9.218259 l -0.355611,1.384594 1.722817,1.229377 c 0.947549,0.676157 1.858456,1.239806 2.024237,1.252553 0.165781,0.01275 1.313451,-0.291941 2.550378,-0.677083 3.640202,-1.133452 5.206377,-1.365529 9.260417,-1.372216 4.036505,-0.0067 5.554358,0.218259 9.260417,1.372216 1.236927,0.385142 2.384597,0.689829 2.550378,0.677083 0.165781,-0.01275 1.072759,-0.573593 2.015507,-1.246324 l 1.714088,-1.223148 -0.35136,-1.523114 c -0.595037,-2.579436 -0.871684,-6.682232 -0.612684,-9.086346 0.297279,-2.7594226 0.842061,-4.2667052 1.848088,-5.1132211 1.5667,-1.3182914 4.723335,-1.147124 5.699491,0.3090528 0.412615,0.6155174 0.507459,1.455707 0.624516,5.5323713 0.07591,2.643652 0.210113,4.878716 0.29823,4.966809 0.239767,0.239706 2.821274,-1.582022 4.428052,-3.124804 2.39387,-2.298526 3.835009,-4.793769 4.774334,-8.2664648 0.592131,-2.1891176 2.118683,-3.27697 4.598478,-3.27697 2.287922,0 3.633716,1.456408 3.633716,3.9323819 0,1.3110883 -0.88355,4.1995289 -1.902941,6.2209669 l -0.783864,1.554391 0.880381,-0.157944 c 4.335835,-0.777868 5.686746,-0.453293 6.451868,1.550152 1.028453,2.692966 -0.75031,4.881204 -5.174611,6.365818 -1.717772,0.576414 -7.576074,0.690741 -8.796521,0.171668 -0.666485,-0.283465 -0.901466,-0.194509 -2.834597,1.073093 -1.159328,0.760199 -3.142149,1.977493 -4.406271,2.705097 -2.283367,1.314263 -4.593063,3.125334 -4.330818,3.395866 0.07535,0.07773 0.870638,-0.21078 1.767305,-0.641139 2.757861,-1.323645 5.376319,-1.885296 8.94361,-1.918376 3.638776,-0.03374 5.450925,0.3855 7.226777,1.67192 1.05692,0.765629 1.107598,0.865647 1.107598,2.185946 0,1.929127 -1.04278,3.892092 -3.211622,6.045665 -1.654919,1.643268 -3.266803,2.624833 -6.048795,3.683442 -0.509323,0.193809 -0.960789,0.3765 -1.003259,0.405981 -0.04247,0.02948 0.102799,0.514948 0.32282,1.078815 1.240826,3.179981 1.579123,5.184025 1.579966,9.359588 9.78e-4,4.849926 -0.470564,7.073644 -2.334236,11.007894 -3.818137,8.060164 -11.867085,14.00517 -21.441915,15.837137 -2.651899,0.507392 -7.591892,0.700473 -10.395907,0.406327 z m 9.294284,-1.734554 c 10.419755,-1.822602 18.930219,-8.494778 21.984007,-17.235391 3.15153,-9.02037 0.954825,-18.840325 -5.810968,-25.97684 -3.91323,-4.12765 -8.554317,-6.941596 -13.85351,-8.39955 -6.886816,-1.894753 -13.770223,-1.251213 -20.311744,1.898973 -10.885527,5.24212 -17.139582,15.661831 -15.990042,26.640571 0.718454,6.861627 3.901162,12.631352 9.353109,16.955641 3.918006,3.107622 8.811893,5.279193 13.776742,6.113174 2.969271,0.498769 8.011435,0.500359 10.852406,0.0034 z M 44.96992,68.706229 c -2.062838,-0.792504 -4.363609,-3.124745 -4.915317,-4.982548 -0.784278,-2.640948 -0.411084,-4.276226 1.385073,-6.069187 1.773954,-1.770798 3.92519,-2.537843 7.055618,-2.515752 5.050437,0.03564 8.581177,2.74646 8.590563,6.595634 0.0067,2.764898 -2.398801,5.86002 -5.438285,6.997236 -1.93352,0.723423 -4.756489,0.712692 -6.677652,-0.02538 z m 6.449233,-1.527127 c 3.230817,-1.427501 4.972334,-4.950742 3.681233,-7.447456 -1.01917,-1.970858 -4.2591,-3.322409 -7.385694,-3.080975 -5.361968,0.414048 -8.019408,4.192486 -5.542499,7.880514 2.007982,2.989813 5.930789,4.11313 9.24696,2.647917 z M 34.736961,55.160856 c -2.992354,-0.99174 -5.10236,-2.762551 -6.371376,-5.347142 -0.671793,-1.368234 -0.771628,-1.865956 -0.766646,-3.822046 0.0048,-1.867032 0.124295,-2.503957 0.7039,-3.750507 2.965728,-6.378361 11.425608,-7.902999 16.497941,-2.973256 0.669589,0.650765 1.536652,1.864287 1.926808,2.696716 0.614758,1.311637 0.708876,1.848757 0.70565,4.027047 -0.0033,2.200406 -0.09437,2.698997 -0.731347,4.00219 -0.901358,1.844096 -2.902111,3.751478 -4.895775,4.667299 -1.807679,0.830386 -5.321867,1.078794 -7.069155,0.499699 z m 6.574343,-1.848401 c 4.15954,-1.927829 5.998638,-6.849656 4.048696,-10.835194 -0.805653,-1.646696 -2.255671,-3.039729 -4.120753,-3.958811 -0.999672,-0.492622 -1.648598,-0.596352 -3.724161,-0.595302 -2.207841,0.0011 -2.675729,0.08673 -3.847081,0.703926 -1.403957,0.739757 -3.244637,2.545273 -3.913525,3.838759 -1.019428,1.971356 -0.968798,4.92556 0.121842,7.109354 0.999264,2.000832 3.475113,3.877415 5.786681,4.386043 1.539938,0.338842 4.168933,0.03687 5.648301,-0.648775 z m -3.29407,-3.955268 c -2.033613,-1.364523 -1.887959,-4.489996 0.265652,-5.700393 2.29562,-1.29021 4.817313,-0.116465 5.231355,2.434982 0.465537,2.868766 -3.010632,4.933731 -5.497007,3.265411 z m 18.264576,5.797699 c -2.644277,-0.712974 -4.875997,-2.593111 -6.233063,-5.251114 -0.942061,-1.845157 -1.162647,-4.812781 -0.50493,-6.792983 1.496397,-4.505231 6.484981,-7.471093 11.188646,-6.651985 7.120823,1.240038 10.709778,8.703203 6.968726,14.491337 -2.351394,3.638063 -7.073065,5.376636 -11.419379,4.204745 z m 6.765848,-1.999864 c 3.25101,-1.600467 4.803049,-4.245337 4.572904,-7.792807 -0.139592,-2.151679 -0.586795,-3.166008 -2.137607,-4.848441 -1.542199,-1.673088 -3.323466,-2.513702 -5.649871,-2.666283 -8.335551,-0.546699 -12.460142,8.794825 -6.279329,14.221651 2.590991,2.27492 6.232566,2.691431 9.493903,1.08588 z m -8.284431,-3.730553 c -2.378705,-1.450257 -1.91609,-5.313053 0.731293,-6.106228 2.18736,-0.655349 4.281763,0.538592 4.637404,2.643611 0.361235,2.138129 -1.235868,3.996588 -3.434546,3.996588 -0.595806,0 -1.441095,-0.233363 -1.934151,-0.533971 z M 21.273624,39.310939 c 0.242482,-0.472942 0.796311,-1.379385 1.230731,-2.014318 0.63531,-0.928545 0.718626,-1.200146 0.425814,-1.388109 -0.768453,-0.49329 -4.401981,-1.782035 -5.87099,-2.082331 -1.508953,-0.308461 -2.111978,-0.826628 -1.580508,-1.358097 0.38583,-0.385831 3.623963,0.363969 6.443297,1.491964 1.324338,0.529858 2.427767,0.920896 2.452065,0.868973 0.0243,-0.05192 0.684268,-0.765435 1.466601,-1.585583 l 1.422423,-1.491178 -0.760965,-0.393173 c -1.451133,-0.749767 -4.147087,-1.501915 -6.376265,-1.778923 -4.162564,-0.517259 -8.570498,0.580578 -8.75499,2.180513 -0.269309,2.335481 3.265518,6.223591 7.087855,7.796242 1.943993,0.799829 2.294436,0.769206 2.814932,-0.24598 z m 57.98552,-0.219876 c 3.23035,-1.579308 6.329356,-5.28731 6.099174,-7.297744 -0.26984,-2.356816 -7.530245,-3.074139 -12.92625,-1.277105 -3.181536,1.059549 -3.181999,1.060493 -1.38792,2.833391 l 1.52823,1.510188 2.314047,-0.930368 c 2.443433,-0.982387 5.868863,-1.82093 6.314183,-1.545707 0.145536,0.08995 0.228253,0.349213 0.183816,0.576149 -0.05411,0.276335 -0.867269,0.620767 -2.462046,1.042856 -1.309687,0.346635 -3.063132,0.953531 -3.896544,1.348658 l -1.515295,0.718413 1.237454,2.073016 c 1.186831,1.988212 1.270466,2.066606 2.044461,1.916341 0.443854,-0.08617 1.553865,-0.521811 2.46669,-0.968088 z M 32.545654,28.000002 c 1.123115,-0.654844 2.045849,-1.262453 2.050521,-1.350244 0.0047,-0.08779 -0.836561,-0.721543 -1.869407,-1.408339 -1.594602,-1.060338 -1.852918,-1.33562 -1.712299,-1.824756 1.024018,-3.561967 1.063097,-3.855564 1.062742,-7.984369 C 32.07677,10.316311 31.818361,9.336667 30.269883,8.5806148 29.5037,8.2065222 29.067753,8.140351 28.555714,8.3204255 c -1.150243,0.4045188 -1.351227,1.2084857 -1.355478,5.4221095 -0.0035,3.477356 -0.2976,6.437279 -0.677325,6.817003 -0.07729,0.07729 -0.511496,4.94e-4 -0.96491,-0.170651 -1.819904,-0.686937 -3.892227,-2.15821 -6.0498,-4.295135 C 17.072058,13.680924 15.46706,11.011234 14.734693,8.153689 14.24066,6.2260741 13.230766,5.2458361 11.738865,5.2458361 c -1.9909335,0 -2.6062583,1.3934612 -1.8737224,4.2432219 0.4672724,1.817816 2.1245034,5.365365 3.0607874,6.552072 l 0.563393,0.714081 -1.547015,0.08981 c -0.850858,0.0494 -2.4995143,-0.05441 -3.663681,-0.23068 -2.597714,-0.393325 -3.0776111,-0.31203 -3.5123359,0.594993 -0.7531418,1.571378 0.7983602,3.296384 3.9092109,4.346375 2.038343,0.687993 6.844456,0.693519 8.361088,0.0096 l 1.067903,-0.481557 2.098525,1.433796 c 1.154189,0.788588 3.369725,2.171996 4.923413,3.07424 1.553688,0.902244 3.339626,2.105628 3.96875,2.674187 0.629125,0.568559 1.203394,1.009195 1.276155,0.979192 0.07276,-0.03 1.051203,-0.590332 2.174318,-1.245176 z m 35.053807,0.27218 c 0.656535,-0.577905 2.460743,-1.783123 4.00935,-2.678263 1.548608,-0.895139 3.785421,-2.277295 4.970695,-3.071458 l 2.155045,-1.443933 0.887664,0.460394 c 0.593126,0.30763 1.73977,0.501784 3.455708,0.585134 2.2401,0.10881 2.849897,0.03686 4.775161,-0.563404 2.852848,-0.889472 4.272003,-2.033769 4.272003,-3.444611 0,-1.665875 -0.50867,-1.920233 -3.092902,-1.546592 -1.209873,0.174929 -2.995979,0.318053 -3.969123,0.318053 h -1.769354 l 1.051018,-1.717159 c 1.248284,-2.039454 2.192856,-4.242127 2.641108,-6.1588661 0.549512,-2.3497336 -0.137785,-3.7656408 -1.827883,-3.7656408 -0.89681,0 -2.016282,0.5345771 -2.461204,1.1752885 -0.10691,0.1539559 -0.449075,1.053826 -0.760367,1.9997114 -1.336195,4.060129 -3.859651,7.52315 -7.213519,9.899346 -1.814121,1.285295 -3.652658,2.271487 -4.234685,2.271487 -0.625059,0 -0.958162,-2.316803 -0.962407,-6.693752 -0.0026,-2.696427 -0.113463,-4.2384143 -0.336352,-4.678937 -0.836452,-1.653179 -3.439686,-1.0714461 -4.124341,0.921648 -0.844326,2.457914 -0.616965,9.511733 0.399764,12.402535 0.198365,0.563999 0.360663,1.128597 0.360663,1.254662 0,0.126066 -0.833437,0.783408 -1.852083,1.460762 -1.018646,0.677354 -1.851287,1.303381 -1.850314,1.391171 9.74e-4,0.08779 0.830312,0.61084 1.842974,1.162332 1.012662,0.551493 1.911861,1.117039 1.99822,1.256771 0.239676,0.387805 0.351302,0.333419 1.635161,-0.796679 z"
         id="path9" /></g><path
       style="fill:#000000"
       d="m 42.334585,79.71353 c -6.363829,-1.16268 -12.230607,-4.10106 -16.555636,-8.29189 -2.657876,-2.57541 -4.087884,-4.5837 -5.699292,-8.00403 -1.941719,-4.12144 -2.279333,-5.81637 -2.258916,-11.34053 0.01558,-4.21519 0.07912,-4.83178 0.708855,-6.87916 0.380458,-1.23693 0.765515,-2.43925 0.855681,-2.67183 0.126861,-0.32722 -0.188155,-0.55124 -1.3928,-0.99048 C 12.532492,39.5448 8.0853411,33.72231 9.4705381,30.37815 10.722364,27.35597 19.626343,26.49624 25.714792,28.80967 c 1.896047,0.72044 1.133754,0.14073 -3.148664,-2.39452 -2.037292,-1.20611 -3.908092,-2.36939 -4.157333,-2.58508 -0.249242,-0.21569 -0.653419,-0.31532 -0.898172,-0.2214 -1.988918,0.76322 -6.737175,0.6516 -9.7685009,-0.22963 -1.736174,-0.50472 -3.764795,-1.85348 -4.549681,-3.02494 -1.24153,-1.853 -0.586664,-4.76592 1.289568,-5.73616 0.84883,-0.43894 3.017851,-0.41431 4.680886,0.0532 l 0.619684,0.17419 -0.517083,-1.02942 C 7.4970711,10.29529 7.0368351,6.6442 8.1370671,4.86399 9.1580311,3.21203 11.507594,2.64729 13.644938,3.54011 c 1.718985,0.71806 2.358241,1.57884 3.214089,4.3279 0.857904,2.75565 1.764106,4.37294 3.513937,6.27128 0.983677,1.06717 4.135797,3.54199 4.511337,3.54199 0.07387,0 0.180068,-1.99573 0.236,-4.43495 0.08871,-3.86896 0.170433,-4.55265 0.640327,-5.35722 0.703383,-1.20436 1.494792,-1.57625 3.364478,-1.58101 3.074218,-0.008 4.361642,1.36093 4.973565,5.28777 0.358629,2.30139 0.155775,7.18268 -0.406688,9.78615 -0.203945,0.94399 -0.277793,1.77743 -0.164108,1.85208 0.113686,0.0746 0.868152,0.59472 1.67659,1.15571 l 1.469889,1.01999 1.471089,-0.55041 C 43.90454,22.70464 52.8212,22.70454 58.57994,24.85916 l 1.47046,0.55017 1.68782,-1.15205 c 1.08074,-0.73767 1.64846,-1.29479 1.57837,-1.54891 C 62.42422,19.47298 62.2309,12.1488 62.97421,9.73643 c 0.74222,-2.40886 2.1613,-3.43223 4.7594,-3.43223 3.22262,0 3.71198,0.87975 3.86326,6.94531 0.0608,2.43748 0.20275,4.43177 0.31547,4.43177 0.41074,0 3.33539,-2.32664 4.43701,-3.52977 1.75967,-1.9218 2.66092,-3.53169 3.51763,-6.2835 1.06702,-3.42737 2.50502,-4.73927 5.19382,-4.7384 1.60513,5.2e-4 2.96024,0.67665 3.60933,1.80087 0.99685,1.72652 0.48026,5.52119 -1.20962,8.88543 l -0.51708,1.02942 0.61968,-0.17419 c 0.34083,-0.0958 1.34063,-0.24668 2.22179,-0.33526 2.7342,-0.27489 4.34801,1.09379 4.35003,3.68927 0.002,2.0307 -1.04746,3.46335 -3.42365,4.67559 -2.53199,1.29173 -7.99746,1.83753 -10.81178,1.07971 -1.01834,-0.27421 -1.19053,-0.24481 -1.97247,0.33679 -0.47121,0.35048 -2.28548,1.47722 -4.03173,2.50388 -4.03597,2.37283 -4.72015,2.894 -2.88076,2.19441 6.11851,-2.32709 14.98244,-1.47561 16.23984,1.56002 1.39857,3.37644 -3.00828,9.15011 -8.51707,11.15872 -0.87387,0.31862 -1.4988,0.6939 -1.42909,0.85819 1.70417,4.01622 2.29941,10.8052 1.34788,15.3732 -0.71636,3.439 -2.52356,7.39899 -4.76947,10.45104 -1.18556,1.6111 -4.14098,4.50353 -6.07274,5.9433 -3.38133,2.52018 -9.0066,4.80328 -13.71694,5.56724 -2.96107,0.48025 -9.09795,0.47312 -11.762365,-0.0137 z M 54.58071,78.93565 c 6.507,-1.25773 12.2275,-4.27765 16.46444,-8.69177 2.53756,-2.64367 3.45126,-3.95056 4.9737,-7.11404 1.81945,-3.78065 2.30738,-5.9715 2.34373,-10.52359 0.0319,-3.99683 -0.12963,-5.05831 -1.3414,-8.81417 -0.36684,-1.13702 -0.62492,-2.10325 -0.57351,-2.14718 0.0514,-0.0439 0.79059,-0.32709 1.64265,-0.62925 4.57198,-1.62134 8.63727,-5.95724 8.63727,-9.21224 0,-1.3311 -0.39915,-1.80095 -2.24467,-2.64228 -3.75645,-1.71247 -9.55283,-1.3324 -14.60316,0.95752 -2.05151,0.9302 -2.20217,0.95035 -2.20217,0.29447 0,-0.64987 1.6947,-2.01912 4.63988,-3.74883 1.30437,-0.76606 3.29201,-1.97953 4.41699,-2.6966 2.0147,-1.28418 2.0604,-1.29846 3.04271,-0.95083 1.6527,0.58488 6.72259,0.41766 8.78056,-0.2896 4.46347,-1.53395 6.20677,-4.52577 4.0084,-6.87914 -0.86604,-0.92709 -1.63757,-1.01488 -4.41759,-0.50264 -0.92553,0.17054 -1.76703,0.22581 -1.87001,0.12283 -0.10298,-0.10298 0.0344,-0.74853 0.30528,-1.43454 2.1035,-5.32713 2.36315,-6.87175 1.43329,-8.52622 -0.66858,-1.18957 -1.42519,-1.58463 -3.03489,-1.58463 -2.35471,0 -3.47776,1.07249 -4.4329,4.23333 -0.83755,2.7717 -2.11939,4.95194 -4.08958,6.95582 -1.44726,1.47202 -4.41664,3.62752 -4.9972,3.62752 -0.44676,0 -0.60984,-1.40259 -0.61142,-5.2586 -0.002,-5.58616 -0.45252,-6.50654 -3.18293,-6.50654 -1.88539,0 -2.77327,0.55319 -3.61752,2.25389 -1.11254,2.24117 -1.22025,8.47584 -0.2139,12.38159 0.20055,0.77832 0.307,1.56531 0.23657,1.74885 -0.0704,0.18355 -0.96287,0.90412 -1.98318,1.60127 l -1.85512,1.26754 -2.03341,-0.69507 c -3.78278,-1.29305 -5.72338,-1.6074 -9.83862,-1.59371 -4.12388,0.0137 -6.257949,0.35853 -9.838614,1.58965 l -2.033409,0.69913 -1.869195,-1.27716 C 32.57122,23.54934 32.471877,23.30655 33.021587,21.03956 33.810029,17.78805 33.732115,11.83549 32.871234,9.55284 32.027275,7.31506 29.586073,6.26891 27.54021,7.26829 c -1.311243,0.64052 -1.702517,1.81156 -1.711162,5.1213 -0.01069,4.09198 -0.223393,6.35 -0.598167,6.35 -0.534627,0 -3.877735,-2.47795 -5.228646,-3.87553 C 18.274979,13.07713 16.974777,10.79732 16.176701,8.15625 15.208229,4.9513 14.104877,3.92292 11.63474,3.92292 c -1.456608,0 -2.4394069,0.59102 -3.0968149,1.86231 -0.739936,1.43087 -0.426077,3.028 1.6199399,8.24332 0.268005,0.68315 0.415657,1.31371 0.328115,1.40125 -0.08754,0.0875 -1.1826579,0.0112 -2.4335939,-0.16968 -1.993532,-0.28823 -2.384454,-0.27638 -3.165316,0.096 -0.870444,0.41508 -1.767818,1.7889 -1.767818,2.7064 0,0.88981 1.091606,2.52643 2.181107,3.27008 2.023771,1.38134 4.452335,2.01694 7.7407689,2.0259 1.759739,0.005 3.303983,-0.13069 3.905867,-0.3427 0.983423,-0.34641 1.023383,-0.33322 3.307292,1.09163 1.271512,0.79325 3.159545,1.93026 4.195628,2.52669 2.629414,1.51365 4.598505,3.12081 4.598505,3.75329 0,0.65686 -0.288344,0.65663 -1.577938,-10e-4 -5.645413,-2.88007 -13.921872,-2.98328 -16.873454,-0.21042 -1.7909589,1.68252 0.75222,6.6422 4.708718,9.18289 0.808978,0.51949 2.267494,1.23807 3.241146,1.59684 0.973653,0.35877 1.770277,0.80284 1.770277,0.98683 0,0.18399 -0.175034,0.78342 -0.388965,1.33206 -1.207444,3.09662 -1.566766,5.18385 -1.560963,9.06734 0.0068,4.53938 0.522675,6.9124 2.339815,10.76278 1.41244,2.99284 2.354854,4.37931 4.605405,6.77541 4.944549,5.26433 11.976511,8.65777 19.610959,9.46374 2.48669,0.26252 7.22383,0.0624 9.65729,-0.40795 z M 42.734975,78.13548 C 31.62742,76.26803 22.724673,68.61819 20.128116,58.71014 c -0.87558,-3.34107 -0.984544,-8.59162 -0.244725,-11.79243 1.89618,-8.20379 7.381145,-14.94727 15.382737,-18.91229 9.657702,-4.78566 20.595052,-4.0425 29.703842,2.01828 10.98187,7.30708 15.17466,19.88966 10.6412,31.93426 -0.32015,0.85058 -1.28498,2.59734 -2.14408,3.8817 -4.3807,6.54923 -11.16586,10.83453 -19.449,12.2834 -2.82635,0.49437 -8.38007,0.50049 -11.283115,0.0124 z M 54.713,77.36271 c 6.02396,-1.29264 10.88064,-3.84688 14.83678,-7.80302 3.1324,-3.1324 4.90286,-6.01186 6.1718,-10.03775 C 77.6228,53.49002 76.99179,46.81483 73.95481,40.83229 70.55892,34.14272 63.4096,28.53111 55.55704,26.3916 52.95999,25.68401 46.59363,25.40476 43.70016,25.87153 c -8.937706,1.44181 -17.572505,7.87308 -21.404559,15.94229 -2.301818,4.84698 -2.91916,11.23414 -1.591633,16.4674 0.77286,3.04671 1.561125,4.84684 3.205542,7.3204 4.500901,6.77032 11.649835,10.91124 21.1462,12.24864 1.63873,0.23078 7.74675,-0.0776 9.65729,-0.48755 z m -7.94072,-7.81573 c -1.8093,-0.31842 -3.699739,-1.31212 -5.031506,-2.64478 -1.746518,-1.74769 -2.241313,-2.91775 -2.241313,-5.30012 0,-1.76879 0.08654,-2.11254 0.796572,-3.16413 1.656791,-2.45379 4.272137,-3.59109 8.199257,-3.5655 3.10962,0.0203 4.92314,0.59975 6.73767,2.15292 1.47501,1.26256 2.11266,2.68316 2.12007,4.7232 0.0173,4.77962 -5.33184,8.72216 -10.58075,7.79841 z m 5.31777,-1.3689 c 1.83868,-0.85369 3.28731,-2.27746 4.10587,-4.03542 1.42032,-3.05031 0.23435,-6.02319 -3.07042,-7.69664 -5.99076,-3.03356 -13.957455,0.64603 -13.089685,6.04576 0.37932,2.36033 2.660992,4.96142 5.246525,5.981 1.93261,0.76211 4.79878,0.63803 6.80771,-0.2947 z m -6.02897,-0.438 c -2.02441,-0.72318 -3.470769,-1.83985 -4.335333,-3.34714 -1.706443,-2.97503 -0.626012,-5.8009 2.796533,-7.31434 3.74279,-1.65506 9.23863,-0.42405 10.75842,2.40975 0.58286,1.08682 0.64169,3.09212 0.12686,4.32429 -1.35748,3.24891 -5.90116,5.15819 -9.34648,3.92744 z m 5.34624,-0.96201 c 3.81117,-1.6968 5.03481,-5.65378 2.47093,-7.9904 -1.44463,-1.31657 -2.86809,-1.79393 -5.38296,-1.80516 -2.09644,-0.009 -2.56551,0.0798 -3.92186,0.74586 -4.171681,2.04841 -4.048854,6.2624 0.25653,8.80124 2.10322,1.24025 4.174,1.31848 6.57736,0.24846 z M 33.786788,55.17494 c -2.195873,-0.92532 -3.852052,-2.23105 -4.98854,-3.93296 -3.332158,-4.98994 -1.278058,-11.64501 4.419806,-14.31969 1.616395,-0.75877 2.018985,-0.83651 4.297032,-0.82973 3.001653,0.009 4.730574,0.58425 6.732894,2.24045 2.59953,2.15018 3.58586,4.27974 3.58586,7.74219 0,1.92987 -0.10184,2.39227 -0.88648,4.02497 -1.04841,2.18159 -2.71585,3.83098 -4.888016,4.83511 -1.238972,0.57275 -1.964228,0.7089 -4.147383,0.77859 -2.300984,0.0735 -2.838645,0.003 -4.125173,-0.53893 z m 7.981892,-0.89365 c 2.08245,-0.97906 3.8068,-2.65522 4.71728,-4.58546 0.5802,-1.23001 0.68642,-1.8237 0.68642,-3.83645 0,-2.2063 -0.0661,-2.50311 -0.89935,-4.03975 -2.59458,-4.78472 -8.322242,-6.53642 -13.217602,-4.04238 -3.911819,1.99296 -6.08541,6.53856 -4.966701,10.38678 1.668143,5.73821 8.237711,8.67592 13.679953,6.11726 z m -6.440516,-0.094 c -1.521433,-0.38413 -2.88049,-1.16073 -4.096549,-2.34087 -5.514589,-5.35173 -1.578747,-14.3214 6.28415,-14.3214 3.245109,0 6.070555,1.44925 7.616905,3.90693 3.48013,5.53109 -0.28741,12.55644 -6.921813,12.90717 -1.037518,0.0548 -2.334729,-0.0135 -2.882693,-0.15183 z m 5.836865,-1.28406 c 1.633707,-0.84023 3.016411,-2.17969 3.767101,-3.64929 0.88541,-1.73334 0.923,-4.97543 0.0762,-6.56954 -0.82223,-1.54781 -2.39669,-3.02128 -4.05364,-3.79361 -4.921917,-2.29419 -10.907334,1.07201 -11.549669,6.49552 -0.374136,3.15899 2.192049,6.81478 5.555789,7.91479 1.625496,0.53156 4.791895,0.32851 6.204239,-0.39787 z M 38.31411,50.02617 c -1.312236,-0.65929 -2.122162,-1.98754 -2.120951,-3.4783 0.0029,-3.62997 4.262519,-5.19186 6.805564,-2.49545 0.775417,0.82218 0.866367,1.08115 0.866367,2.46697 0,1.29663 -0.11629,1.68656 -0.715254,2.39839 -1.286344,1.52873 -3.14922,1.95572 -4.835726,1.10839 z m 3.461328,-0.93425 c 0.565174,-0.37967 1.03774,-1.00196 1.272574,-1.67577 0.339218,-0.97331 0.327048,-1.16709 -0.132292,-2.10805 -1.021619,-2.09276 -3.470425,-2.52883 -5.092432,-0.90683 -1.413078,1.41308 -1.201969,3.57219 0.45853,4.6896 1.142735,0.76899 2.349924,0.76935 3.49362,10e-4 z m 13.818322,6.18972 c -2.68421,-0.9899 -4.54029,-2.63131 -5.83537,-5.16048 -0.8455,-1.65119 -1.13136,-5.01561 -0.59033,-6.94798 0.5109,-1.82476 2.16866,-4.123 3.7597,-5.21228 2.1546,-1.4751 3.42102,-1.84964 6.30836,-1.86566 2.41388,-0.0134 2.6375,0.0347 4.54678,0.97834 2.30244,1.13793 3.85642,2.69995 4.9239,4.94936 0.5938,1.25128 0.69058,1.80745 0.69058,3.96875 0,2.21898 -0.0871,2.69082 -0.74287,4.02632 -1.02255,2.08233 -2.75207,3.77712 -4.8862,4.7881 -1.55426,0.73628 -2.09713,0.85155 -4.29281,0.91149 -1.94603,0.0531 -2.82245,-0.0453 -3.88174,-0.43596 z m 7.58591,-0.88146 c 2.12376,-0.96722 3.80262,-2.58214 4.80849,-4.62534 0.72201,-1.46662 0.85995,-2.04521 0.86401,-3.6241 0.007,-2.63834 -0.64246,-4.33783 -2.36998,-6.20376 -4.85056,-5.23918 -13.24889,-4.05437 -16.22208,2.28855 -0.94189,2.00941 -1.00146,5.33854 -0.12959,7.24222 1.12002,2.4455 3.75806,4.67739 6.41587,5.42807 1.84378,0.52077 4.8893,0.28861 6.63328,-0.50564 z m -6.80278,-0.40379 c -5.0716,-1.70697 -7.43907,-6.85178 -5.29709,-11.51122 0.90346,-1.96527 1.77479,-2.88968 3.68575,-3.91027 1.4325,-0.76506 1.98389,-0.90523 3.9162,-0.99553 2.75486,-0.12875 4.61733,0.47599 6.45925,2.09731 1.58708,1.397 2.45139,2.90552 2.74752,4.79537 0.81563,5.20512 -2.80557,9.55716 -8.21722,9.87567 -1.37467,0.0809 -2.30494,-0.0183 -3.29441,-0.35133 z m 6.34349,-1.09532 c 3.69555,-1.78898 5.50355,-5.82386 4.18052,-9.32955 -1.05687,-2.80042 -3.23174,-4.60506 -6.35777,-5.27547 -3.5934,-0.77065 -7.70522,1.50395 -9.00665,4.98233 -0.58369,1.56003 -0.65926,3.70233 -0.17679,5.01096 0.80305,2.17811 2.82212,4.15103 5.12673,5.00953 1.48184,0.552 4.69555,0.34693 6.23396,-0.3978 z m -7.62362,-2.78363 c -0.44378,-0.19329 -1.12839,-0.73355 -1.52135,-1.20057 -0.90432,-1.07471 -0.9949,-3.12351 -0.19603,-4.43369 1.42599,-2.3387 5.19947,-2.35629 6.61724,-0.0308 0.8183,1.34218 0.73714,3.37783 -0.17803,4.46545 -1.22993,1.46169 -3.05545,1.92549 -4.72183,1.19966 z m 3.27019,-0.95753 c 0.49226,-0.30013 1.0572,-0.96595 1.29001,-1.52037 0.55937,-1.33212 0.067,-2.83001 -1.21277,-3.68975 -1.76319,-1.18446 -4.04796,-0.39015 -4.75662,1.65365 -0.31656,0.91297 -0.31001,1.1782 0.0502,2.0361 0.47702,1.13601 1.80001,2.05434 2.95958,2.05434 0.43656,0 1.18787,-0.24029 1.66957,-0.53397 z M 18.363056,39.88217 c -3.003417,-1.21845 -5.532342,-3.45311 -6.66797,-5.8921 -1.369234,-2.94069 -0.5487,-3.94017 3.831915,-4.66759 3.155168,-0.52392 7.142237,0.0549 10.412564,1.5117 0.836745,0.37273 1.521354,0.81399 1.521354,0.98057 0,0.3832 -2.959534,3.32902 -3.344513,3.32902 -0.157554,0 -1.04707,-0.33868 -1.976703,-0.75263 -2.825805,-1.25828 -6.311217,-2.04398 -6.505726,-1.46656 -0.05874,0.17439 0.555194,0.42309 1.506382,0.61023 0.883045,0.17373 2.346026,0.59518 3.251069,0.93656 3.46661,1.3076 3.560644,1.41699 2.469504,2.87287 -0.34718,0.46323 -0.885382,1.34826 -1.196002,1.96672 -0.661226,1.31654 -1.224485,1.41398 -3.301874,0.57121 z m 3.254972,-1.85258 c 0.615664,-1.03218 1.080849,-1.90652 1.033744,-1.94299 -0.378298,-0.29289 -3.41174,-1.34898 -5.245019,-1.82604 -2.082128,-0.54181 -2.25518,-0.63882 -2.332824,-1.30772 -0.05407,-0.4658 0.06135,-0.77822 0.324854,-0.87933 0.654738,-0.25125 4.172575,0.57315 6.593325,1.54513 l 2.230623,0.89564 1.219345,-1.38301 1.219345,-1.38302 -1.783063,-0.66483 c -2.815817,-1.04992 -4.462437,-1.30397 -7.620303,-1.17573 -3.066066,0.12452 -4.938703,0.65586 -5.40908,1.53477 -0.656582,1.22683 1.541373,4.585 4.196644,6.41187 1.034364,0.71166 3.793687,2.02555 4.296139,2.04566 0.08629,0.003 0.660606,-0.83823 1.27627,-1.8704 z m 53.369792,1.18114 c -0.36777,-0.70886 -0.91208,-1.64602 -1.20959,-2.08258 -0.2975,-0.43657 -0.54169,-0.93147 -0.54265,-1.09979 -0.002,-0.42387 3.4117,-1.79858 5.88904,-2.37126 2.04268,-0.47219 2.69227,-1.10494 0.96613,-0.94107 -0.84513,0.0802 -4.85731,1.3696 -6.79066,2.18227 -0.85821,0.36074 -0.86272,0.35851 -2.4474,-1.20963 -0.87318,-0.86407 -1.5876,-1.70734 -1.5876,-1.87392 0,-0.39397 2.60737,-1.55003 4.63021,-2.05296 3.78072,-0.93998 8.04028,-0.75313 10.4542,0.45857 1.03574,0.51991 1.19774,0.71687 1.26793,1.54152 0.25784,3.02923 -4.98585,8.07038 -8.94731,8.60172 -0.98873,0.13262 -1.03005,0.1043 -1.6823,-1.15287 z m 4.22608,-0.50722 c 2.44045,-1.17418 4.65954,-3.36918 5.39593,-5.33734 0.38323,-1.02428 0.46072,-1.56212 0.27504,-1.90907 -0.49207,-0.91943 -2.32792,-1.42934 -5.56562,-1.54585 -3.18114,-0.11447 -4.76071,0.1474 -7.84136,1.30002 l -1.42998,0.53503 1.25156,1.37549 1.25155,1.3755 2.12734,-0.86107 c 2.55035,-1.03228 5.71745,-1.7813 6.49219,-1.53541 0.4136,0.13128 0.53933,0.35652 0.47919,0.85848 -0.0741,0.61864 -0.29799,0.73782 -2.46239,1.31091 -1.30947,0.34672 -3.01996,0.923 -3.80109,1.28061 l -1.42024,0.65021 0.48031,0.72815 c 0.26417,0.40048 0.76672,1.23823 1.11679,1.86167 0.73601,1.31076 0.74542,1.31054 3.65078,-0.0873 z M 28.914372,28.57306 c -0.583049,-0.55067 -2.785705,-2.02442 -4.894792,-3.275 -2.109086,-1.25059 -4.303487,-2.61653 -4.876446,-3.03542 l -1.041745,-0.76163 -1.471797,0.49991 c -1.838245,0.62437 -6.275482,0.50174 -8.3509649,-0.2308 -3.238235,-1.14293 -4.667992,-3.01878 -3.711167,-4.86908 l 0.447894,-0.86613 1.763928,0.1625 c 0.970161,0.0894 2.765661,0.23763 3.9899999,0.32945 l 2.226072,0.16696 -0.538914,-0.76306 C 11.508558,14.58865 10.340933,12.05104 9.7366261,10.01977 8.8284871,6.96722 9.2814481,5.24371 11.08673,4.88265 c 0.906368,-0.18127 2.270406,0.31111 2.920632,1.05427 0.240387,0.27475 0.759667,1.45204 1.153957,2.61621 0.394289,1.16416 1.076893,2.75458 1.516899,3.53425 0.943668,1.67214 3.343733,4.30467 5.293449,5.80615 1.187608,0.91458 3.83416,2.43356 4.240048,2.43356 0.352284,0 0.529619,-1.63621 0.683629,-6.3076 0.163566,-4.96123 0.187712,-5.13236 0.793325,-5.6224 1.321417,-1.06924 3.582069,-0.27647 4.217362,1.47895 0.866112,2.39321 0.649595,10.00329 -0.36684,12.89361 l -0.347223,0.98736 1.837311,1.2616 c 1.01052,0.69388 1.833289,1.44019 1.828374,1.65848 -0.0078,0.34421 -4.172636,2.92177 -4.692035,2.9038 -0.105136,-0.004 -0.668197,-0.45716 -1.251246,-1.00783 z m 3.110602,-0.79693 c 0.83674,-0.48673 1.580419,-0.98055 1.652621,-1.09737 0.0722,-0.11683 -0.446355,-0.58307 -1.152346,-1.03611 -2.06881,-1.32755 -2.250246,-1.61586 -1.784161,-2.83511 0.698092,-1.82616 1.022795,-4.13329 1.037985,-7.37525 0.01697,-3.62118 -0.399324,-5.77276 -1.229418,-6.35418 -0.683138,-0.47849 -2.133518,-0.51454 -2.492582,-0.062 -0.144315,0.1819 -0.331873,2.47385 -0.416795,5.09323 -0.158177,4.87887 -0.448601,6.66374 -1.126627,6.92392 -1.014657,0.38936 -5.112055,-2.27504 -7.689939,-5.00052 C 16.542726,13.62117 15.685996,12.2128 14.598785,9.08742 13.745991,6.63592 13.202046,5.96254 11.807285,5.63168 10.826409,5.399 9.9984191,6.26073 9.9984191,7.51425 c 0,1.23894 1.0786879,4.42009 2.1098349,6.22211 1.634355,2.85617 1.749664,3.15555 1.320063,3.42727 -0.592922,0.37502 -3.4412439,0.29899 -5.5692959,-0.14866 -1.757125,-0.36962 -1.94842,-0.36635 -2.398547,0.041 -0.794943,0.71941 -0.600405,1.54709 0.606424,2.58009 1.310549,1.12178 2.899948,1.68899 5.5726909,1.98873 1.983832,0.22248 4.599427,-0.0207 5.51949,-0.51305 0.81075,-0.4339 1.278914,-0.29537 2.974832,0.88031 0.901157,0.62471 3.208306,2.06864 5.126998,3.20872 1.918693,1.14008 3.818016,2.41677 4.220718,2.83711 0.402702,0.42033 0.797394,0.73249 0.877093,0.6937 0.0797,-0.0388 0.829514,-0.46876 1.666254,-0.9555 z m 32.014596,0.45191 c -1.20055,-0.73332 -2.17774,-1.47157 -2.17154,-1.64057 0.006,-0.16899 0.84908,-0.8814 1.87307,-1.58312 1.44866,-0.99275 1.81843,-1.37437 1.66642,-1.71979 -0.10745,-0.24416 -0.4189,-1.45596 -0.69212,-2.69289 -0.39628,-1.79407 -0.47448,-2.99819 -0.38659,-5.95313 0.15917,-5.35148 0.60696,-6.34233 3.01206,-6.66492 0.75565,-0.10135 1.17012,-0.002 1.66372,0.39696 0.64718,0.52368 0.65999,0.6113 0.82607,5.64891 0.17265,5.23665 0.31977,6.3076 0.86652,6.3076 0.17162,0 1.19953,-0.54381 2.28424,-1.20845 4.02373,-2.4655 7.24443,-6.41549 8.58089,-10.52394 0.77087,-2.36974 1.31807,-3.09547 2.67541,-3.54823 1.72679,-0.576 2.96289,0.1991 3.20581,2.01021 0.23479,1.75048 -1.43096,6.4062 -3.17608,8.87706 l -0.54103,0.76603 2.62506,-0.19778 c 5.25758,-0.39611 5.47603,-0.37743 5.90069,0.50452 0.32311,0.67104 0.32385,0.92956 0.005,1.84382 -0.71092,2.04034 -3.57137,3.31257 -7.91113,3.5186 -2.27458,0.10799 -3.0449,0.0413 -4.24993,-0.36801 l -1.47179,-0.49991 -1.04175,0.76163 c -0.57296,0.41889 -2.76273,1.78209 -4.86615,3.02933 -2.10343,1.24724 -4.3194,2.72397 -4.92439,3.28162 -0.60498,0.55765 -1.20571,1.00803 -1.33496,1.00084 -0.12924,-0.007 -1.21726,-0.61307 -2.4178,-1.34639 z m 3.38427,-0.33864 c 0.55056,-0.4974 2.70811,-1.91573 4.79457,-3.15184 2.08645,-1.23611 4.29854,-2.61509 4.91574,-3.06439 1.25381,-0.91274 1.7193,-0.98217 3.01269,-0.4494 2.96,1.21929 8.35558,0.39245 10.58551,-1.62216 1.12453,-1.01594 1.30265,-1.84923 0.54236,-2.53729 -0.43678,-0.39527 -0.64507,-0.39938 -2.3151,-0.0456 -2.48718,0.52689 -5.63735,0.5305 -5.83835,0.007 -0.0826,-0.21519 0.2084,-0.97396 0.64662,-1.68617 1.62446,-2.64006 2.95971,-6.17789 2.95971,-7.8419 0,-1.26401 -0.54226,-1.81753 -1.73658,-1.77263 -1.36238,0.0512 -2.0285,0.79556 -2.76794,3.093 -1.09759,3.41019 -2.43572,5.50369 -5.22168,8.16933 -2.30577,2.2062 -5.9348,4.37406 -6.77956,4.0499 -0.6941,-0.26635 -0.98698,-2.0471 -1.13938,-6.92756 -0.0818,-2.61938 -0.26733,-4.91133 -0.41231,-5.09323 -0.32207,-0.40409 -1.63178,-0.43205 -2.34553,-0.0501 -0.711,0.38052 -1.02031,1.29932 -1.31798,3.91511 -0.30302,2.66282 0.0734,6.96832 0.81854,9.36246 0.59327,1.90619 0.54489,2.00696 -1.6355,3.40611 -0.71209,0.45694 -1.22528,0.90023 -1.14043,0.98508 0.18456,0.18456 3.12969,2.10825 3.27336,2.13809 0.0551,0.0114 0.55068,-0.38615 1.10124,-0.88354 z"
       id="path1" /><path
       style="fill:#d72a0a;fill-opacity:1;stroke-width:0.695489"
       d="m 176.30653,253.96627 c -9.70369,-3.2326 -17.46023,-10.67584 -18.80901,-18.0493 -1.14295,-6.24816 3.15046,-13.01536 10.93543,-17.23627 l 4.39613,-2.38354 h 10.0846 c 11.75508,0 14.23554,0.77647 20.14822,6.3071 7.59728,7.10636 6.80349,16.88385 -2.01434,24.81184 -6.41516,5.76779 -17.93469,8.81757 -24.74103,6.55017 z"
       id="path16"
       transform="scale(0.26458333)" /><path
       style="fill:#b66a31;fill-opacity:1;stroke-width:0.695489"
       d="m 170.75862,293.67231 c -8.0096,-0.66666 -23.03063,-4.44214 -32.30727,-8.12031 -9.51689,-3.77343 -15.89089,-7.34793 -23.81487,-13.35525 -21.151625,-16.03544 -32.953586,-34.60114 -37.524121,-59.02929 -1.12444,-6.0098 -1.115596,-23.31086 0.01545,-30.22237 1.897347,-11.59418 8.475699,-29.00538 13.281844,-35.15362 0.747548,-0.9563 3.232785,-4.27349 5.522748,-7.37154 2.289964,-3.09805 7.070799,-8.39953 10.624089,-11.78107 15.69844,-14.93966 31.7222,-23.87275 51.77139,-28.862049 l 8.83975,-2.199796 16.74051,0.322071 c 9.42754,0.181376 18.56343,0.704495 20.91345,1.1975 21.03154,4.412154 41.72996,16.179434 57.87556,32.902894 12.05065,12.48194 20.64985,28.07684 24.5381,44.50054 2.24064,9.46435 2.75357,16.57056 1.99406,27.62608 -0.78901,11.48476 -2.67511,19.71627 -6.74515,29.43779 -2.70724,6.46639 -8.63611,16.4645 -9.76343,16.4645 -0.33862,0 -1.00919,0.95006 -1.49017,2.11122 -0.48097,1.16118 -4.38638,5.65255 -8.67869,9.98084 -8.37229,8.44247 -16.76564,14.53771 -27.82424,20.20594 -6.77666,3.47346 -20.58109,8.24629 -27.18353,9.39861 -11.26057,1.96529 -26.73039,2.78422 -36.78548,1.94731 z m 23.70108,-31.87942 c 7.34352,-2.42266 11.35457,-5.21539 16.61088,-11.56549 5.04946,-6.10019 5.52903,-7.59752 5.5533,-17.33832 0.0176,-7.08663 -0.17482,-8.66227 -1.19608,-9.79161 -0.66941,-0.74026 -1.2171,-1.67878 -1.2171,-2.08561 0,-1.39997 -8.67247,-8.76636 -12.24762,-10.40312 -1.96926,-0.90156 -6.51328,-2.2901 -10.09783,-3.08566 -10.26175,-2.2775 -19.88151,-1.06067 -29.39342,3.71804 -3.57411,1.79561 -9.17697,7.09263 -11.20782,10.59603 -3.57447,6.16629 -3.53069,15.67612 0.10682,23.20121 2.79611,5.78444 10.05893,12.50626 16.47937,15.25184 9.79084,4.18686 17.20429,4.60551 26.6095,1.50269 z m -43.86,-51.332 c 8.79412,-1.81505 14.22798,-4.73479 20.14292,-10.82326 9.7104,-9.99529 13.15818,-24.0786 9.06569,-37.03111 -2.07423,-6.56486 -4.47503,-10.47676 -9.46642,-15.42479 -7.64817,-7.58174 -14.27379,-10.3464 -26.37561,-11.00568 -8.22126,-0.44788 -12.72441,0.27243 -18.19162,2.9099 -1.99588,0.96285 -4.05872,1.75063 -4.5841,1.75063 -1.54926,0 -11.45,10.47459 -14.01395,14.8262 -2.68323,4.55407 -4.92623,12.94413 -4.93426,18.4569 -0.007,4.77229 1.61983,11.12149 4.24197,16.5561 2.92923,6.07105 10.33635,12.95707 18.02532,16.75721 9.43121,4.66121 15.0289,5.31085 26.09006,3.0279 z m 82.69211,-0.0267 c 6.20487,-1.20832 13.21051,-5.21942 18.90562,-10.82446 5.52196,-5.43463 7.61485,-9.05589 10.2759,-17.7801 2.06244,-6.7617 2.25419,-9.54179 0.79148,-11.47566 -0.56161,-0.74252 -1.03107,-2.51194 -1.04324,-3.93203 -0.0334,-3.89841 -2.40707,-9.41352 -6.24573,-14.51161 -4.21662,-5.60006 -8.37516,-8.91691 -15.79127,-12.59512 -5.29114,-2.62428 -6.19191,-2.84248 -13.45156,-3.25857 -4.27938,-0.24528 -7.92711,-0.20903 -8.10608,0.0805 -0.17897,0.28958 -1.37443,0.5265 -2.65659,0.5265 -3.4687,0 -10.33589,2.33849 -14.25796,4.85528 -4.9021,3.14567 -10.80532,9.79177 -13.50656,15.20626 -2.74658,5.5054 -2.9413,6.24049 -3.9047,14.74125 -0.6066,5.35237 -0.56332,7.03262 0.23214,9.01304 0.53776,1.33881 1.56422,4.31203 2.28101,6.60714 3.34243,10.7021 16.22712,21.35081 29.02699,23.98971 3.57352,0.73674 11.95316,0.42837 17.45055,-0.64217 z"
       id="path17"
       transform="scale(0.26458333)" /><path
       style="fill:#b66a31;fill-opacity:1;stroke-width:0.695489"
       d="m 68.896355,147.0804 c -11.824009,-5.63951 -20.544599,-14.53444 -22.928242,-23.38661 -0.973796,-3.61641 -0.596655,-4.57674 2.63804,-6.71736 7.413488,-4.90601 28.080574,-4.94357 42.418919,-0.0771 4.062663,1.37889 7.69963,2.81256 8.082149,3.18594 0.460081,0.44909 0.106969,1.19745 -1.043234,2.21095 -0.956297,0.84264 -2.615318,2.69869 -3.686712,4.12455 -2.436018,3.24197 -3.480992,3.26186 -11.370386,0.21642 -7.088156,-2.73615 -15.629502,-5.02695 -21.172011,-5.67836 -3.599161,-0.42301 -3.919171,-0.33742 -5.019978,1.34262 -2.396256,3.65715 -1.858976,4.19622 6.996241,7.01947 16.803649,5.3574 21.038178,6.89417 21.024476,7.63007 -0.0077,0.41573 -1.535874,3.25964 -3.395853,6.31979 -3.055885,5.02773 -3.607466,5.58229 -5.723713,5.75461 -1.497235,0.12191 -3.95699,-0.57962 -6.819696,-1.945 z"
       id="path18"
       transform="scale(0.26458333)" /><path
       style="fill:#b66a31;fill-opacity:1;stroke-width:0.695489"
       d="m 285.65217,145.85735 c -1.27699,-2.18765 -2.53376,-4.44699 -2.79283,-5.02077 -0.25907,-0.57378 -0.95963,-1.71209 -1.5568,-2.52957 -1.05948,-1.45036 -0.96209,-1.53783 4.02316,-3.61319 2.80991,-1.16977 9.1188,-3.30349 14.01976,-4.74161 6.85252,-2.01077 9.15636,-2.98946 9.97374,-4.23693 0.98736,-1.50691 0.94481,-1.74879 -0.5989,-3.40414 -1.51736,-1.62709 -1.9923,-1.74366 -5.46466,-1.34123 -5.54716,0.6429 -13.40363,2.77916 -20.53447,5.58355 -3.44004,1.35289 -6.93195,2.4598 -7.7598,2.4598 -1.75162,0 -7.89349,-6.45685 -7.89349,-8.2983 0,-1.6954 13.13641,-6.02224 21.27704,-7.00818 11.05039,-1.33836 26.71862,0.69011 30.28909,3.92134 3.27142,2.96059 1.38041,9.61299 -4.78348,16.8279 -5.63429,6.59501 -16.70094,13.59097 -23.63693,14.94246 -2.13813,0.41662 -2.34487,0.25613 -4.56143,-3.54113 z m 23.14507,-29.71064 c 0,-0.57378 -0.46946,-1.04324 -1.04324,-1.04324 -0.57378,0 -1.04323,0.46946 -1.04323,1.04324 0,0.57378 0.46945,1.04323 1.04323,1.04323 0.57378,0 1.04324,-0.46945 1.04324,-1.04323 z"
       id="path19"
       transform="scale(0.26458333)" /><path
       style="fill:#efdbac;fill-opacity:1;stroke-width:0.695489"
       d="m 110.46947,104.79086 c -2.16618,-1.78719 -8.2691,-5.89433 -13.56204,-9.126985 C 91.614493,92.431213 83.450283,87.313913 78.764746,84.292093 69.265245,78.165629 69.686568,78.247492 59.812077,80.609596 48.537458,83.30663 32.239643,80.671992 24.70774,74.934771 c -4.201807,-3.20061 -5.618535,-5.497936 -4.974049,-8.065774 0.781737,-3.114686 2.888888,-3.565273 10.284628,-2.199231 8.840757,1.632946 19.685768,1.723178 21.23229,0.176656 1.06349,-1.06349 0.740086,-1.955505 -4.524294,-12.478958 C 41.081033,41.082591 38.25191,32.963102 38.25191,28.046205 c 0,-2.711035 2.192517,-5.9607 4.172936,-6.184963 5.250645,-0.594586 8.54831,2.718809 12.159734,12.217732 5.661657,14.891539 11.791645,23.692779 23.046894,33.08999 13.447902,11.227898 22.468006,15.139257 24.521186,10.633036 1.20031,-2.634392 2.03539,-10.416698 2.86326,-26.683538 0.3991,-7.841642 0.91048,-14.954001 1.13642,-15.805243 0.59601,-2.245565 4.30784,-2.791033 7.70378,-1.1321 3.98383,1.946112 5.16023,6.105593 5.59834,19.794384 0.4025,12.576221 -0.47874,21.541077 -2.91881,29.693332 -1.23842,4.137519 -1.54843,6.21985 -1.10114,7.396305 0.34241,0.900603 2.99,3.274078 5.88355,5.274382 2.89354,2.000303 5.26099,3.898688 5.26099,4.218638 0,0.47968 -11.53009,7.70967 -12.01853,7.53627 -0.0839,-0.0298 -1.92486,-1.5164 -4.09105,-3.30357 z"
       id="path20"
       transform="scale(0.26458333)" /><path
       style="fill:#efdbac;fill-opacity:1;stroke-width:0.695489"
       d="m 244.82514,104.65933 c -2.8618,-1.8635 -5.30445,-3.69175 -5.42813,-4.06278 -0.12368,-0.37104 1.27888,-1.685714 3.11679,-2.921515 4.65645,-3.130967 7.86234,-6.271185 7.86234,-7.701299 0,-0.665633 -0.78148,-4.437658 -1.73662,-8.382279 -2.52996,-10.448443 -3.55376,-23.620978 -2.53334,-32.594759 1.37309,-12.075167 2.78639,-14.800806 8.10296,-15.627049 4.89401,-0.760573 5.30359,0.02745 6.00218,11.548033 1.51164,24.928905 1.96142,29.828162 2.9572,32.211396 0.91715,2.195036 1.3453,2.504444 3.46559,2.504444 5.24463,0 18.3526,-8.637082 27.73382,-18.274328 8.10073,-8.321806 12.76479,-15.900528 16.15514,-26.250804 3.01841,-9.214777 6.40499,-13.192124 11.23754,-13.197878 1.20081,-0.0014 2.92214,0.597017 3.8252,1.329882 3.85812,3.131061 0.98561,15.107612 -7.46121,31.108493 -2.45242,4.645627 -4.45894,8.943004 -4.45894,9.549727 0,0.610093 0.85483,1.342188 1.9126,1.637999 3.04767,0.8523 14.098,0.381963 21.05224,-0.896049 l 6.39069,-1.174448 1.75821,1.758216 c 2.26331,2.2633 1.74037,4.738741 -1.68315,7.967531 -7.54044,7.11155 -25.73224,10.746392 -37.10328,7.41348 -8.78267,-2.57425 -9.29866,-2.467287 -19.59753,4.062494 -5.08363,3.223171 -11.27727,7.064771 -13.76365,8.536885 -6.74285,3.992262 -16.7319,10.686008 -19.32402,12.949208 -1.2565,1.09706 -2.50838,1.97191 -2.78196,1.94412 -0.27358,-0.0278 -2.83888,-1.57522 -5.70067,-3.43872 z"
       id="path21"
       transform="scale(0.26458333)" /><path
       style="fill:#ffffff;stroke-width:0.695489"
       d="m 132.31935,201.06605 c -7.3247,-2.39248 -14.84395,-9.33629 -18.52698,-17.10914 -5.24264,-11.06431 -1.0123,-24.87058 10.13495,-33.07672 9.29069,-6.83941 21.15115,-8.05883 31.13777,-3.20138 4.95061,2.40796 11.73524,8.78001 14.32366,13.45263 1.94943,3.51914 2.04936,4.10644 2.04936,12.04539 0,7.78339 -0.13468,8.62015 -1.99827,12.41548 -2.65547,5.40807 -8.25133,10.88819 -14.01602,13.72614 -4.284,2.10901 -5.26214,2.30627 -12.401,2.50092 -5.25108,0.14318 -8.70247,-0.0997 -10.70347,-0.75332 z m 25.20897,-11.47557 c 3.25223,-1.50897 6.90583,-5.15509 7.95547,-7.93918 1.03487,-2.74491 0.91919,-9.12908 -0.21459,-11.8426 -0.524,-1.25412 -2.24297,-3.38461 -3.81992,-4.73442 -8.48094,-7.25937 -20.79002,-4.26742 -24.15779,5.872 -2.53886,7.64376 1.39669,16.24426 8.78204,19.19173 2.80366,1.11893 8.44422,0.84932 11.45479,-0.54753 z"
       id="path2"
       transform="scale(0.26458333)" /><path
       style="fill:#ffffff;stroke-width:0.695489"
       d="m 210.82087,199.6393 c -6.23954,-3.03724 -12.26411,-8.90825 -15.12955,-14.74391 -1.79593,-3.65755 -1.99738,-4.77018 -1.99581,-11.02307 0.002,-6.39042 0.18381,-7.33958 2.24497,-11.69469 5.60294,-11.83867 19.71537,-19.45441 31.81842,-17.17073 10.53652,1.9881 19.01746,8.21175 23.44463,17.20461 2.14185,4.35072 2.3023,5.16242 2.30217,11.64618 -1.3e-4,6.23742 -0.20626,7.38943 -1.96233,10.96696 -3.01121,6.13452 -8.05648,11.19891 -14.16346,14.21715 -4.95847,2.4506 -5.62103,2.59165 -13.32421,2.83639 l -8.10628,0.25755 z m 10.32471,-10.45608 c 7.58994,-3.84611 10.21512,-12.61304 6.18666,-20.66065 -4.60018,-9.18971 -19.68181,-9.86063 -25.4578,-1.13252 -1.53676,2.32221 -1.94897,3.83352 -2.13029,7.81051 -0.3067,6.72705 1.49557,10.29975 6.7854,13.45091 4.89244,2.91442 9.57767,3.08488 14.61603,0.53175 z"
       id="path3"
       transform="scale(0.26458333)" /></g></svg>
