<?xml version="1.0" encoding="UTF-8" standalone="no"?>
<!-- Created with Inkscape (http://www.inkscape.org/) -->

<svg
   width="127mm"
   height="76mm"
   viewBox="0 0 127 76"
   version="1.1"
   id="svg1"
   xml:space="preserve"
   inkscape:version="1.4.3 (0d15f75, 2025-12-25)"
   sodipodi:docname="dog.svg"
   xmlns:inkscape="http://www.inkscape.org/namespaces/inkscape"
   xmlns:sodipodi="http://sodipodi.sourceforge.net/DTD/sodipodi-0.dtd"
   xmlns="http://www.w3.org/2000/svg"
   xmlns:svg="http://www.w3.org/2000/svg"><sodipodi:namedview
     id="namedview1"
     pagecolor="#ffffff"
     bordercolor="#000000"
     borderopacity="0.25"
     inkscape:showpageshadow="2"
     inkscape:pageopacity="0.0"
     inkscape:pagecheckerboard="0"
     inkscape:deskcolor="#d1d1d1"
     inkscape:document-units="mm"
     inkscape:zoom="1.0167041"
     inkscape:cx="184.41944"
     inkscape:cy="270.97363"
     inkscape:window-width="1920"
     inkscape:window-height="1017"
     inkscape:window-x="1072"
     inkscape:window-y="825"
     inkscape:window-maximized="1"
     inkscape:current-layer="layer1" /><defs
     id="defs1" /><g
     inkscape:label="Katman 1"
     inkscape:groupmode="layer"
     id="layer1"><g
       id="g11"><path
         style="fill:#010000"
         d="M 57.131067,73.366894 C 49.4422,72.354155 42.761578,69.672994 36.968761,65.275074 30.53392,60.389729 26.252679,53.775288 24.70733,46.331381 c -0.349526,-1.683655 -0.608438,-1.525999 -1.046831,0.637433 -1.568174,7.738813 -2.504146,9.0839 -6.31539,9.075862 C 11.526695,56.032406 4.2194078,50.589572 2.4857662,44.976694 0.90386036,39.855079 2.9286385,32.903122 8.2773687,25.091567 14.82033,15.535897 23.856352,10.275817 33.729787,10.275118 c 2.94162,-2.09e-4 3.104287,-0.03017 4.307919,-0.7934919 3.424142,-2.1715264 8.61274,-4.4375925 12.611069,-5.5077529 4.789016,-1.2817891 6.528634,-1.4913303 12.435417,-1.4978761 4.943006,-0.00548 6.069979,0.073816 8.598959,0.605026 5.822611,1.2230335 11.088035,3.1847009 15.182943,5.6565033 l 2.279557,1.3760046 2.925091,0.05277 c 3.074037,0.05545 6.320975,0.59496 8.981158,1.492301 2.25457,0.760517 6.33831,2.902669 8.20208,4.302457 5.15267,3.869906 10.42528,10.707028 12.97993,16.831398 3.42353,8.207343 2.38785,14.149876 -3.29729,18.919183 -3.18604,2.672796 -7.10037,4.347692 -10.07951,4.312912 -3.59658,-0.04199 -4.56556,-1.167821 -5.80567,-6.745451 -0.48265,-2.170797 -0.96898,-4.047826 -1.08073,-4.171175 -0.11175,-0.123349 -0.38901,0.591026 -0.61612,1.5875 -2.548158,11.18007 -10.440457,19.638202 -22.684299,24.310629 -6.288551,2.399801 -14.451021,3.294461 -21.539224,2.360839 z m 10.98183,-1.837618 c 5.237914,-0.623573 8.935375,-1.664183 13.66744,-3.846549 6.665922,-3.074236 12.253278,-8.430087 15.312054,-14.677619 2.010962,-4.107377 2.528521,-6.120646 2.696262,-10.488267 0.168414,-4.385144 -0.196762,-6.326564 -1.902351,-10.113669 -1.473153,-3.270999 -2.649712,-5.253925 -6.415441,-10.812328 -1.649484,-2.434721 -3.348918,-5.06425 -3.776519,-5.843397 -0.904639,-1.648373 -1.24372,-3.316138 -0.831009,-4.087297 0.259433,-0.484754 0.113284,-0.639107 -1.493176,-1.577 C 75.612043,4.3861086 63.242985,2.7453026 51.846909,5.6361543 48.579386,6.4650295 43.152731,8.6245407 40.867211,10.005473 c -1.753116,1.059248 -1.81935,1.135916 -1.563255,1.809497 0.609566,1.603281 -0.07075,3.041689 -4.659954,9.852607 -4.783602,7.099433 -7.070845,11.427499 -7.961711,15.065657 -0.477418,1.949702 -0.472602,7.445063 0.0085,9.70614 2.791477,13.119146 15.161421,23.132719 30.969436,25.070017 3.935405,0.48229 6.527126,0.48722 10.452663,0.01989 z m -7.917233,-9.816234 c -2.048054,-0.550645 -4.162758,-1.83283 -5.842722,-3.542553 -4.301348,-4.377543 -4.20775,-10.159808 0.200864,-12.408915 2.312936,-1.179972 3.977274,-1.478632 8.265803,-1.483275 4.382758,-0.0047 6.015573,0.260373 8.377069,1.360178 5.753205,2.679401 4.778394,10.359801 -1.838305,14.483759 -3.06728,1.911729 -6.045742,2.428842 -9.162709,1.590806 z M 46.663558,42.0173 c -5.510901,-0.844574 -9.824713,-5.051977 -10.65064,-10.387919 -0.997844,-6.446622 3.003991,-12.381452 9.487477,-14.070185 7.289961,-1.898794 14.92502,3.057293 16.066025,10.428815 0.704937,4.55428 -1.581442,9.561299 -5.515052,12.077598 -2.560268,1.637784 -6.326729,2.420817 -9.38781,1.951691 z m 4.911259,-1.939562 c 3.79636,-1.014096 6.571873,-3.619302 7.781507,-7.304027 1.243723,-3.788571 0.281281,-7.461171 -2.741464,-10.461202 -1.870361,-1.856307 -3.354369,-2.647272 -6.002916,-3.19951 -1.706,-0.355711 -2.133444,-0.356253 -3.85642,-0.0049 -1.065767,0.217341 -2.495724,0.670265 -3.177684,1.006498 -1.800121,0.887532 -4.180087,3.321371 -5.037433,5.151462 -0.644766,1.376318 -0.723924,1.849064 -0.723924,4.323413 0,2.464385 0.08055,2.950014 0.713287,4.300179 2.264133,4.831342 7.977754,7.541667 13.045047,6.188075 z m -1.72392,-5.951076 c -1.918418,-1.019449 -2.753702,-3.210196 -1.988212,-5.214602 1.184274,-3.100977 5.429397,-3.670848 7.464948,-1.002103 0.999923,1.310966 1.004802,3.629191 0.01038,4.932942 -1.303127,1.708486 -3.6532,2.258308 -5.487119,1.283763 z m 25.404129,7.907485 C 68.850707,40.869156 64.422287,35.837139 64.410249,29.711218 c -0.0068,-3.472302 1.362297,-6.51814 4.054437,-9.01978 3.19698,-2.970756 7.351198,-4.132259 11.605963,-3.244984 5.1351,1.070859 9.523659,5.643652 9.978891,10.39781 0.420262,4.388968 -0.678271,7.772355 -3.41303,10.511835 -2.850154,2.855072 -7.552265,4.37461 -11.381484,3.678048 z m 5.045207,-2.022808 c 3.850988,-1.141726 6.41031,-3.552662 7.63709,-7.194303 2.04994,-6.085154 -2.179982,-12.622624 -8.907594,-13.76695 -4.672632,-0.794787 -9.736082,1.901494 -11.816832,6.29245 -0.748638,1.57983 -0.821379,1.967821 -0.821032,4.37924 3.38e-4,2.353845 0.08412,2.827205 0.759177,4.28932 1.234878,2.674635 4.059543,5.05432 7.163555,6.035053 1.521341,0.480678 4.301454,0.46451 5.985636,-0.03481 z m -7.836449,-5.766934 c -1.083837,-0.472089 -2.176162,-1.818782 -2.387051,-2.942918 -0.553356,-2.949639 1.734195,-5.413845 4.699694,-5.062625 1.645184,0.194847 2.663187,0.925218 3.394121,2.435126 1.680951,3.472381 -2.08472,7.148081 -5.706764,5.570417 z"
         id="path11" /></g><path
       style="fill:#000000"
       d="M 59.24773,74.022434 C 42.502462,72.71672 28.692616,62.474037 24.852061,48.511362 L 24.271,46.398865 l -0.734057,3.17083 c -0.832811,3.597408 -1.354932,4.794461 -2.518115,5.773214 -2.071151,1.742759 -5.349643,1.58318 -9.709027,-0.472582 C 5.6632777,52.207587 2.0746597,47.646238 1.5429057,42.45602 0.74595767,34.677351 8.2774827,21.521363 17.088069,15.301894 22.096612,11.76632 27.078898,10.099508 33.450859,9.8277596 l 3.307292,-0.141047 1.990961,-1.151342 c 15.350077,-8.87671097 33.520598,-8.86569897 48.693418,0.02951 1.93563,1.134779 2.09773,1.180852 4.15463,1.180852 9.87157,0 18.90395,4.7330704 25.3418,13.2793894 3.42479,4.546449 6.02542,9.522667 7.164,13.708111 0.64984,2.388847 0.64764,6.534858 -0.005,8.466666 -1.28128,3.795474 -4.60479,7.374683 -8.7238,9.394974 -4.76246,2.335893 -8.05135,2.577115 -10.22299,0.7498 -1.29965,-1.093579 -1.58597,-1.89067 -3.07385,-8.557274 -0.11339,-0.508028 -0.28664,-0.139794 -0.74692,1.5875 -1.40165,5.260004 -3.83036,9.542925 -7.73538,13.641021 -6.5289,6.851718 -16.3192,11.196879 -27.07173,12.015067 -1.96453,0.149486 -3.81,0.255134 -4.10105,0.234774 -0.29104,-0.02036 -1.71979,-0.129859 -3.175,-0.243329 z m 8.54325,-0.79092 c 7.17421,-0.778507 13.81969,-3.154156 19.70747,-7.045094 1.05148,-0.694873 3.28841,-2.635247 4.97096,-4.311942 4.63128,-4.615188 7.12115,-8.958543 8.53506,-14.888639 0.33165,-1.391 0.68484,-2.315105 0.88482,-2.315105 0.355,0 0.43757,0.271329 1.55345,5.104954 1.04605,4.531148 2.0473,5.751042 4.88899,5.956591 4.98916,0.360884 12.03504,-4.233346 14.52973,-9.474045 0.91337,-1.918739 0.9446,-2.085016 0.94437,-5.027083 -2.1e-4,-2.577935 -0.10973,-3.386236 -0.71702,-5.291666 -1.50829,-4.732358 -5.35132,-11.213242 -9.02925,-15.226924 -4.10377,-4.478397 -9.69391,-7.94018 -15.12432,-9.365976 -2.62308,-0.688709 -6.69229,-1.132249 -8.35911,-0.911137 -1.17286,0.155585 -1.40028,0.07789 -3.5203,-1.2026664 -4.4734,-2.702059 -9.53193,-4.635552 -15.37268,-5.875805 -2.56288,-0.544216 -3.60548,-0.61638 -8.73125,-0.60434 -5.349393,0.01257 -6.085206,0.07249 -9.085041,0.739923 -5.626364,1.251802 -10.382621,3.099603 -14.716304,5.717271 l -2.20131,1.3296544 h -3.054812 c -6.965419,0 -13.000936,2.381705 -18.994105,7.495358 -4.641215,3.960101 -9.5983373,11.354539 -11.6482643,17.375475 -0.770699,2.263658 -0.857465,2.829185 -0.872762,5.688542 -0.01676,3.133194 -0.004,3.202309 0.968856,5.249046 2.404484,5.058635 9.3840553,9.642159 14.2853893,9.381297 3.040968,-0.161849 4.058223,-1.352295 5.109246,-5.979115 1.082114,-4.763683 1.178691,-5.079354 1.553986,-5.079354 0.217151,0 0.480493,0.629204 0.692105,1.653646 1.212187,5.868373 4.087867,10.969161 8.838003,15.676562 3.250529,3.221285 5.549423,4.877137 9.613439,6.924388 7.290729,3.672711 15.998214,5.212547 24.350654,4.306184 z M 58.98315,71.907215 C 46.689448,70.641536 36.683218,65.174891 30.74526,56.480173 c -2.920887,-4.27694 -4.42052,-8.677746 -4.633792,-13.598277 -0.317291,-7.32041 1.115311,-10.774591 9.775436,-23.569798 2.728119,-4.030755 3.498644,-5.768204 3.26097,-7.353128 l -0.165215,-1.101735 1.603365,-0.9739924 c 3.601146,-2.187581 9.467195,-4.293693 14.5314,-5.21727 4.091426,-0.746167 11.593216,-0.792437 15.507396,-0.09565 5.05006,0.898994 10.87206,2.928213 14.49383,5.051724 l 1.91034,1.1200664 v 1.552331 c 0,1.98145 0.37812,2.7041 5.29723,10.123816 3.934,5.933829 6.36322,10.499354 7.19434,13.521223 0.73675,2.678724 0.66817,8.930189 -0.13062,11.906249 -2.44454,9.107675 -9.6933,16.902268 -19.45753,20.922681 -6.41486,2.64131 -14.30251,3.823106 -20.94926,3.1388 z M 71.6211,70.623787 c 3.52494,-0.710007 7.52616,-2.076644 10.61549,-3.625763 8.35731,-4.190718 14.37046,-11.296524 16.61576,-19.63504 0.74137,-2.753303 0.8107,-8.393763 0.13391,-10.894333 -0.83281,-3.076979 -3.49268,-8.088977 -7.44197,-14.022916 -4.69137,-7.04895 -4.99274,-7.619661 -5.1692,-9.789142 L 86.23524,10.937242 83.2804,9.4445606 c -3.28015,-1.657017 -7.38799,-3.108152 -11.20037,-3.956641 -1.91797,-0.426866 -3.76738,-0.590731 -7.80521,-0.691572 -4.62873,-0.115597 -5.68943,-0.06103 -8.466669,0.435597 -5.279046,0.943994 -9.260245,2.273302 -13.646208,4.556419 l -2.533707,1.3189244 0.115094,1.387886 c 0.143429,1.729568 -0.404941,2.889869 -3.613144,7.645075 -4.171308,6.182724 -5.088341,7.699901 -6.957019,11.509983 -2.258753,4.605416 -2.717442,6.628129 -2.502651,11.036127 0.312739,6.418118 3.174182,12.598248 8.202469,17.715649 5.599007,5.698237 12.759314,9.173199 21.861208,10.609446 3.436377,0.542247 11.284897,0.337865 14.886907,-0.387667 z M 59.50886,61.936405 c -5.959673,-2.12601 -9.853878,-7.890886 -8.492864,-12.57261 0.748986,-2.576422 2.925317,-4.234301 6.720682,-5.119664 2.645282,-0.617079 9.599262,-0.397705 11.973322,0.377716 3.9153,1.278824 5.66902,3.398799 5.6445,6.823298 -0.011,1.539647 -0.16506,2.20358 -0.85161,3.670708 -1.13619,2.427984 -3.53813,4.772237 -6.27619,6.125459 -1.91023,0.944088 -2.23559,1.019275 -4.72154,1.091106 -2.04518,0.05909 -2.98029,-0.03357 -3.9963,-0.396013 z m 5.92625,-0.348184 c 3.17971,-0.733054 6.95146,-3.671118 8.36607,-6.516884 1.05582,-2.124 1.21539,-4.605926 0.40389,-6.282251 -1.50005,-3.098698 -5.82415,-4.598173 -12.42823,-4.309753 -3.787826,0.165426 -6.163424,0.777493 -7.899902,2.035391 -3.516277,2.547178 -3.348069,7.087164 0.413099,11.149674 3.122273,3.372428 7.243353,4.823328 11.145073,3.923823 z M 45.429116,42.173898 C 41.6851,41.266676 38.399393,38.64269 36.694472,35.198356 35.814758,33.42113 35.728871,33.038534 35.620799,30.415541 c -0.08989,-2.181654 -0.01108,-3.219025 0.335651,-4.418246 1.587281,-5.489857 6.648377,-9.136597 12.669159,-9.128681 4.001188,0.0053 7.337901,1.372173 9.856251,4.037694 2.72142,2.880467 3.6949,5.580554 3.48193,9.657632 -0.10916,2.089712 -0.2596,2.709052 -1.0752,4.426475 -1.04706,2.204802 -2.857376,4.329838 -4.683564,5.497784 -2.843362,1.818484 -7.33087,2.520475 -10.77591,1.685699 z M 51.682485,41.6175 C 58.52854,40.00377 62.78237,33.313799 61.09111,26.82061 59.67712,21.391927 54.425581,17.418652 48.664401,17.418652 c -4.762839,0 -9.316344,2.789665 -11.384727,6.974755 -0.768189,1.554325 -0.96341,2.293891 -1.094009,4.144505 -0.276401,3.91663 0.780305,6.917686 3.350611,9.515767 3.215107,3.249851 7.787131,4.591329 12.146209,3.563821 z m -5.826124,-1.299393 c -3.926986,-1.082855 -6.839037,-3.801456 -8.034946,-7.501177 -0.731183,-2.26202 -0.488768,-5.536519 0.576634,-7.789061 2.664807,-5.634106 9.541544,-7.973092 15.325499,-5.212665 5.804582,2.770271 8.059012,9.333801 5.156202,15.011724 -2.244705,4.390672 -8.084647,6.853024 -13.023389,5.491179 z M 53.143833,39.02859 C 57.346262,37.094206 59.5818,33.488012 59.3253,29.057132 59.17515,26.463381 58.23916,24.432494 56.339213,22.578027 53.536635,19.842529 49.68708,18.722939 46.239866,19.640772 c -4.112325,1.094921 -6.892462,3.840736 -7.909922,7.812273 -1.285589,5.018145 1.946174,10.285013 7.424041,12.099106 0.653296,0.216351 1.969666,0.321433 3.439583,0.274572 1.928995,-0.0615 2.679243,-0.21308 3.950265,-0.798133 z m -2.86433,-4.14286 c -0.904526,-0.288087 -2.172409,-1.43458 -2.697056,-2.438835 -0.486004,-0.930286 -0.478272,-3.209774 0.01412,-4.16195 1.265671,-2.447538 4.550553,-3.298488 6.822557,-1.767385 1.411554,0.951246 2.050627,2.148212 2.049499,3.838656 -0.0011,1.714639 -0.535135,2.77678 -1.931468,3.841815 -1.022801,0.780129 -2.976597,1.095707 -4.25765,0.687699 z m 3.261313,-0.921117 c 2.685778,-1.38887 3.05017,-4.721771 0.721422,-6.598461 -0.852011,-0.686619 -1.245399,-0.819375 -2.427994,-0.819375 -2.310826,0 -3.963593,1.599753 -3.963593,3.836458 0,2.85021 3.188998,4.864439 5.670165,3.581378 z M 73.82841,42.151368 C 65.77567,39.940324 61.76255,31.424299 65.33486,24.127666 c 1.56079,-3.188003 4.65592,-5.755609 8.25419,-6.847387 1.7065,-0.51778 5.69215,-0.501148 7.50493,0.03132 2.37532,0.697695 4.39447,1.932781 6.04596,3.698231 2.63151,2.813094 3.63649,5.731487 3.38735,9.836662 -0.32419,5.341936 -4.25844,9.843613 -9.88325,11.30869 -1.85283,0.482601 -5.0506,0.480813 -6.81563,-0.0038 z m 7.62318,-0.910376 c 2.317,-0.800961 3.58797,-1.63854 5.35864,-3.531396 4.4272,-4.732691 4.21639,-11.978457 -0.48313,-16.605577 -5.0631,-4.985105 -12.95713,-4.919218 -18.10254,0.151091 -2.62168,2.583424 -3.74143,5.628206 -3.47882,9.45955 0.5388,7.860943 8.99778,13.190931 16.70585,10.526332 z m -7.2549,-0.917619 c -7.0438,-1.959958 -10.38192,-9.931237 -6.75243,-16.124493 1.57718,-2.691256 4.95008,-4.90524 8.27379,-5.430939 6.26609,-0.991089 12.42593,3.750427 12.94702,9.965926 0.55336,6.600516 -4.69523,12.023195 -11.55796,11.941319 -0.94589,-0.01128 -2.25557,-0.169601 -2.91042,-0.351813 z m 6.26134,-0.836079 c 3.22229,-0.936746 6.248,-3.884759 7.14143,-6.958038 0.56089,-1.929389 0.37941,-5.006657 -0.39837,-6.755153 -1.89811,-4.267052 -6.89992,-7.067324 -11.28263,-6.316598 -7.14793,1.224387 -11.12204,8.198233 -8.24857,14.474727 2.11976,4.63015 7.6725,7.042217 12.78814,5.555062 z m -7.60712,-4.594428 c -2.06547,-0.62594 -3.24033,-2.26102 -3.24033,-4.509631 0,-1.847583 0.67498,-3.080893 2.12564,-3.883917 2.05338,-1.136662 4.01945,-1.007155 5.65942,0.372793 1.91965,1.615278 2.12136,4.800401 0.42145,6.654881 -1.19582,1.304559 -3.27843,1.877348 -4.96618,1.365874 z m 3.82455,-1.42246 c 0.53881,-0.410968 1.10082,-1.187105 1.37002,-1.891994 0.4322,-1.131702 0.4322,-1.258653 0,-2.390354 -0.65836,-1.723882 -1.9583,-2.641281 -3.74264,-2.641281 -2.148,0 -3.7591,1.454927 -3.99506,3.607795 -0.14921,1.36131 0.55412,2.607244 2.04313,3.619383 1.21428,0.825397 3.00965,0.699377 4.32455,-0.303549 z"
       id="path1" /><path
       style="fill:#c66b26;fill-opacity:1;stroke-width:0.98357"
       d="m 215.04,267.996 c -48.90231,-7.75185 -87.04769,-33.93332 -104.84264,-71.9598 -5.52192,-11.79996 -7.94369,-21.87873 -8.60051,-35.79313 -0.79774,-16.89959 0.76237,-23.07102 10.88437,-43.05628 6.42447,-12.68469 27.33429,-46.619457 30.0871,-48.82865 0.33704,-0.270482 2.25646,-3.654756 4.26537,-7.520608 2.63965,-5.079599 3.65258,-8.26225 3.65258,-11.476509 0,-2.446226 0.27818,-5.172624 0.61819,-6.058661 0.92129,-2.400857 20.70704,-11.956691 33.71388,-16.282641 23.04206,-7.663571 41.01084,-9.783559 67.46746,-7.959932 22.78107,1.570276 41.4716,6.832481 63.56419,17.896109 l 9.46781,4.741337 0.41389,5.722009 c 0.53989,7.463977 2.83346,12.060377 16.09243,32.249955 30.44752,46.362781 35.98672,61.162011 32.9485,88.029551 -3.81096,33.7009 -28.78927,66.91353 -63.47291,84.39727 -4.32754,2.18148 -9.85998,4.69096 -12.29432,5.57662 -25.02243,9.10364 -31.42295,10.30806 -57.53887,10.82746 -11.36023,0.22593 -23.25217,-9.1e-4 -26.42652,-0.5041 z m 42.36828,-35.91714 c 16.94754,-8.28399 27.83739,-22.86127 27.82164,-37.24235 -0.0147,-13.46516 -6.38188,-21.56439 -20.64949,-26.26696 -8.88289,-2.92778 -37.49685,-3.81355 -47.47824,-1.46973 -23.29024,5.469 -31.58584,21.75918 -21.71068,42.63356 5.286,11.17368 20.89183,23.36153 33.01054,25.78059 2.31678,0.46245 8.1958,0.65847 13.06447,0.43557 7.66662,-0.35099 9.80162,-0.86937 15.94176,-3.87068 z m -59.17961,-72.77041 c 3.2242,-0.82792 8.25744,-2.66591 11.18497,-4.08443 14.2314,-6.89576 25.64918,-25.20528 25.64849,-41.12986 -0.001,-29.208993 -21.30019,-50.653872 -50.30914,-50.653872 -9.98803,0 -16.65672,1.400775 -24.23751,5.091146 -13.04762,6.351658 -22.28267,17.9419 -25.70153,32.256106 -1.66486,6.97052 -1.80492,9.29856 -0.97076,16.13583 1.5821,12.96783 3.4617,17.36984 11.51351,26.96443 6.16967,7.35183 18.12344,14.57748 26.80856,16.2049 5.7343,1.07448 20.56245,0.6283 26.06341,-0.78425 z m 109.84208,-0.44732 c 13.00112,-4.01564 24.26153,-13.5741 30.03244,-25.49319 3.3112,-6.83887 3.65098,-8.33845 4.0162,-17.72492 C 342.82258,97.57006 338.73135,86.8116 327.15134,76.282524 316.74025,66.816281 308.31206,63.932073 291.06108,63.932073 H 278.6907 l -8.31559,4.121327 c -18.48299,9.160441 -28.43337,24.549687 -28.40513,43.93133 0.0196,13.46176 3.74723,23.57219 12.04912,32.68091 5.81422,6.37929 13.00238,11.0607 21.35789,13.90968 8.68566,2.96156 23.60833,3.09202 32.69376,0.28581 z"
       id="path18"
       transform="scale(0.26458333)" /><path
       style="fill:#ffffff;stroke-width:0.98357"
       d="m 171.05034,148.18982 c -10.15134,-4.09438 -18.9687,-12.27109 -23.38184,-21.68299 -2.19867,-4.68909 -2.59187,-6.87061 -2.59187,-14.37981 0,-7.90394 0.33443,-9.55809 3.12224,-15.442756 7.43117,-15.686171 25.4491,-25.454216 41.50464,-22.50087 21.88015,4.024756 36.40723,22.953391 33.52723,43.685656 -1.65813,11.93648 -10.59597,23.5203 -22.3339,28.94571 -7.57738,3.50235 -22.82998,4.20506 -29.8465,1.37506 z m 33.44021,-17.33579 c 2.89828,-1.50836 6.20748,-4.92363 7.83773,-8.08897 1.64797,-3.19973 1.34857,-12.7813 -0.52259,-16.72448 -4.90184,-10.329865 -21.24078,-12.107652 -29.2992,-3.18795 -10.80613,11.9611 -1.08929,31.86809 14.60728,29.92607 2.65418,-0.32838 5.97373,-1.19448 7.37678,-1.92467 z"
       id="path2"
       transform="scale(0.26458333)" /><path
       style="fill:#ffffff;stroke-width:0.98357"
       d="m 280.80933,148.66971 c -11.47035,-3.79556 -19.51193,-10.74448 -24.41773,-21.09994 -2.7878,-5.88467 -3.12224,-7.53881 -3.12224,-15.44275 0,-7.54615 0.3889,-9.68188 2.63603,-14.476253 5.40876,-11.539934 16.2666,-20.083294 29.25053,-23.015438 5.95514,-1.344842 8.0167,-1.408261 13.12281,-0.403695 12.65294,2.489314 24.27715,10.973562 29.84587,21.783823 2.28477,4.435303 2.79406,6.838263 3.1451,14.839413 0.39705,9.04972 0.2604,9.88578 -2.62279,16.047 -3.73065,7.97222 -11.2534,15.58542 -19.36103,19.59381 -5.02127,2.48251 -7.18418,2.93579 -15.19835,3.18516 -5.87999,0.18295 -10.80241,-0.19188 -13.2782,-1.01113 z m 9.72219,-18.59186 c 9.21354,-5.0388 11.17378,-19.41587 3.76439,-27.60931 -8.38837,-9.276007 -26.24296,-6.04569 -30.63354,5.54234 -2.41148,6.36458 -0.15281,16.41539 4.64831,20.68446 5.51542,4.9042 14.73275,5.47767 22.22084,1.38251 z"
       id="path3"
       transform="scale(0.26458333)" /></g></svg>
