<?xml version="1.0" encoding="UTF-8" standalone="no"?>
<!-- Created with Inkscape (http://www.inkscape.org/) -->

<svg
   width="43mm"
   height="42mm"
   viewBox="0 0 43 42"
   version="1.1"
   id="svg1"
   inkscape:version="1.4.3 (0d15f75, 2025-12-25)"
   sodipodi:docname="dogtrack.svg"
   xmlns:inkscape="http://www.inkscape.org/namespaces/inkscape"
   xmlns:sodipodi="http://sodipodi.sourceforge.net/DTD/sodipodi-0.dtd"
   xmlns="http://www.w3.org/2000/svg"
   xmlns:svg="http://www.w3.org/2000/svg">
  <sodipodi:namedview
     id="namedview1"
     pagecolor="#ffffff"
     bordercolor="#000000"
     borderopacity="0.25"
     inkscape:showpageshadow="2"
     inkscape:pageopacity="0.0"
     inkscape:pagecheckerboard="0"
     inkscape:deskcolor="#d1d1d1"
     inkscape:document-units="mm"
     inkscape:zoom="1.4378367"
     inkscape:cx="183.26142"
     inkscape:cy="131.79522"
     inkscape:window-width="1920"
     inkscape:window-height="1017"
     inkscape:window-x="1072"
     inkscape:window-y="825"
     inkscape:window-maximized="1"
     inkscape:current-layer="layer1" />
  <defs
     id="defs1" />
  <g
     inkscape:label="Katman 1"
     inkscape:groupmode="layer"
     id="layer1">
    <path
       style="fill:#000000;stroke-width:0.34063"
       d="m 7.8144356,12.555697 c 0.454015,-2.5862705 2.002088,-3.8084115 4.6129704,-3.6417495 1.614495,0.103066 2.141051,0.447826 3.798122,2.4867975 0.477526,0.587589 1.039709,1.213858 1.24929,1.391706 0.209582,0.17784 0.962135,0.644228 1.67235,1.036417 1.668105,0.921132 2.077948,1.208982 2.744214,1.927307 0.640168,0.690203 0.99606,1.423192 1.182172,2.434788 0.364388,1.980595 -0.170108,4.072328 -1.33286,5.216095 -0.622017,0.611869 -1.083749,0.908827 -2.642842,1.699728 -0.710452,0.360398 -1.501099,0.80683 -1.756992,0.992067 -0.255886,0.185237 -0.909111,0.849935 -1.451588,1.47711 -1.65217,1.910117 -2.212325,2.243766 -3.841917,2.288373 -1.051747,0.02876 -1.67916,-0.09032 -2.4245754,-0.460284 -0.952376,-0.472694 -1.720676,-1.573424 -1.958551,-2.806013 -0.255858,-1.325775 -0.174868,-2.549804 0.314836,-4.75826 0.384491,-1.733982 0.398502,-3.358536 0.04573,-5.302996 -0.283956,-1.565127 -0.365051,-3.099793 -0.210341,-3.981086 z m 0.522737,4.197363 c 0.255977,1.733975 0.278798,2.054022 0.212362,2.978081 -0.04092,0.569427 -0.164628,1.479987 -0.274838,2.02347 -0.429033,2.115519 -0.514603,2.898353 -0.426371,3.900313 0.221264,2.512756 1.33256,3.7427 3.5450934,3.923585 1.829604,0.149583 2.536703,-0.208183 4.218595,-2.134439 0.607763,-0.696056 1.289971,-1.401734 1.51603,-1.568186 0.226067,-0.166452 1.004557,-0.603844 1.729975,-0.971996 1.998268,-1.0141 2.753882,-1.588379 3.317877,-2.521601 0.865461,-1.43207 0.968338,-3.76413 0.235992,-5.349646 -0.536336,-1.161158 -1.154366,-1.680774 -3.696255,-3.10769 -0.601266,-0.337526 -1.235796,-0.729376 -1.410079,-0.870777 -0.174275,-0.141408 -0.810513,-0.858712 -1.413863,-1.594016 -1.598233,-1.9477745 -2.053245,-2.2183075 -3.785039,-2.2504435 -1.155411,-0.02145 -1.783082,0.137104 -2.4463924,0.617918 -0.888771,0.6442415 -1.381277,1.5822475 -1.583678,3.0162055 -0.122262,0.866122 -0.06768,1.686001 0.260591,3.909222 z M 17.028436,8.7652515 c 0.342738,-0.8844193 1.331542,-1.8388483 2.457706,-2.3723033 0.798036,-0.378018 2.123891,-0.682089 2.913485,-0.668162 0.613479,0.01096 1.578987,0.242363 2.150099,0.515637 0.513223,0.245563 1.168141,0.80643 1.245736,1.066841 0.03227,0.108337 0.175747,0.184783 0.427959,0.228057 0.90826,0.155835 1.8569,0.61553 1.851882,0.897405 -0.0028,0.172867 -0.232006,0.2758253 -1.401742,0.6304783 -0.597189,0.181055 -0.639604,0.212446 -0.872648,0.645886 -0.648206,1.2055075 -1.890108,2.0881335 -3.535112,2.5124035 -0.955994,0.246565 -2.444358,0.22481 -3.248465,-0.0475 -1.41362,-0.47869 -2.171255,-1.406532 -2.133175,-2.6124185 0.008,-0.253901 0.07295,-0.612255 0.144275,-0.796341 z m 0.363176,1.8127275 c 0.566637,1.160691 2.491297,1.818087 4.264642,1.456654 1.146148,-0.233606 1.738911,-0.464655 2.481085,-0.967096 0.728575,-0.493239 1.037353,-0.828207 1.439989,-1.5621025 l 0.279502,-0.509446 0.770203,-0.225452 c 1.157106,-0.3387103 1.190153,-0.3681393 0.672114,-0.5987073 -0.237965,-0.105916 -0.675049,-0.24846 -0.971301,-0.316772 -0.470904,-0.108595 -0.590051,-0.182902 -0.947678,-0.591081 -0.54093,-0.617384 -1.159978,-0.956324 -2.068391,-1.132466 -2.515443,-0.487765 -5.516491,0.981185 -6.076088,2.9741023 -0.112489,0.400627 -0.04189,1.0671315 0.155923,1.4723665 z m -0.741018,17.95462 c 0.146952,-0.414357 0.888903,-1.175924 1.369755,-1.405937 1.45248,-0.694817 3.622466,-0.567404 5.295317,0.310905 0.886338,0.465366 1.79961,1.352383 2.111762,2.051038 l 0.235267,0.526612 0.920507,0.305789 c 0.951923,0.316231 1.152708,0.446561 1.056111,0.685561 -0.07644,0.189067 -0.910372,0.543767 -1.557539,0.662445 -0.469127,0.08603 -0.589305,0.15735 -1.084578,0.6437 -0.417908,0.410378 -0.692349,0.594756 -1.099077,0.73839 -3.158567,1.115406 -7.302793,-0.932336 -7.345181,-3.629388 -0.0049,-0.323268 0.03883,-0.723367 0.09766,-0.889115 z m 0.407871,1.868866 c 0.706304,1.541044 3.151255,2.803543 5.214711,2.692701 1.194126,-0.06415 2.217057,-0.523473 2.764623,-1.241433 0.247668,-0.324743 0.332345,-0.369723 0.862562,-0.458227 0.621926,-0.103811 1.473684,-0.409823 1.387898,-0.498632 -0.02802,-0.02896 -0.464861,-0.191374 -0.970757,-0.360831 -0.827208,-0.27709 -0.928056,-0.334609 -1.001504,-0.571112 -0.502126,-1.616908 -2.756008,-2.966923 -5.016715,-3.004871 -2.580219,-0.04331 -4.099002,1.569945 -3.240818,3.442405 z M 23.50711,14.757274 c 0.447791,-1.52641 2.085532,-2.737941 4.240552,-3.136971 0.892221,-0.165206 2.669762,-0.09261 3.342148,0.136489 1.167144,0.39769 1.975643,1.053618 2.33541,1.894675 0.214084,0.500468 0.254213,0.541381 0.592978,0.604489 0.199851,0.03722 0.642183,0.21315 0.98297,0.390937 0.498793,0.26022 0.618866,0.363896 0.615876,0.531769 -0.0028,0.137909 -0.07274,0.228274 -0.207567,0.266825 -0.781857,0.223551 -1.513673,0.381727 -1.753548,0.379014 -0.23257,-0.0027 -0.304081,0.04777 -0.408185,0.28764 -0.06943,0.159949 -0.401429,0.556908 -0.737804,0.882125 -0.701662,0.678387 -1.870325,1.282515 -2.946685,1.523267 -0.904865,0.202398 -2.604504,0.174979 -3.445018,-0.05549 -0.699411,-0.191848 -1.502138,-0.644431 -1.969013,-1.110142 -0.638398,-0.636798 -0.9029,-1.705575 -0.642114,-2.594548 z m 0.242266,1.33169 c 0.259406,0.933845 1.226888,1.734774 2.548072,2.109416 0.813733,0.230751 2.336385,0.232043 3.271446,0.0027 1.441906,-0.353543 2.718681,-1.171857 3.380598,-2.166698 l 0.299877,-0.450715 0.663617,-0.09456 c 0.821164,-0.11702 1.342465,-0.252472 1.344186,-0.34928 0.0021,-0.11348 -0.982969,-0.549045 -1.414581,-0.625517 -0.367184,-0.0651 -0.396411,-0.09421 -0.625217,-0.623376 -0.329655,-0.762378 -0.950111,-1.326067 -1.900214,-1.726389 -0.715945,-0.301655 -0.766795,-0.309748 -2.085532,-0.332099 -1.291504,-0.02186 -1.389202,-0.01056 -2.193888,0.254591 -1.398319,0.460751 -2.524344,1.276811 -3.008318,2.180207 -0.432664,0.807608 -0.478649,1.106718 -0.280046,1.82164 z m -0.442074,7.074134 c 0.179908,-0.80597 0.812625,-1.531557 1.716375,-1.968299 0.687303,-0.332146 1.089478,-0.436829 2.000115,-0.52061 1.502493,-0.138234 3.12766,0.228924 4.358869,0.984765 0.664621,0.408016 1.440177,1.16785 1.693993,1.659681 0.151462,0.293487 0.204367,0.321299 0.81029,0.425962 0.356554,0.06158 0.845386,0.188973 1.086314,0.283093 0.360011,0.140637 0.437349,0.210227 0.434128,0.39066 -0.0028,0.175749 -0.103651,0.267711 -0.503972,0.461068 -0.275048,0.132841 -0.722093,0.293007 -0.993426,0.355925 -0.462393,0.107222 -0.501609,0.137815 -0.62514,0.487629 -0.29964,0.848487 -1.441452,1.68859 -2.713697,1.996605 -0.847631,0.205219 -2.44854,0.156593 -3.42861,-0.104115 -2.569157,-0.68349 -4.242824,-2.626461 -3.835239,-4.452343 z m 0.472249,1.63618 c 0.468828,1.001777 1.557721,1.882035 2.931009,2.369474 1.136236,0.40328 2.224634,0.530355 3.212616,0.375048 1.635511,-0.257094 2.781694,-1.019425 3.15888,-2.100977 0.06371,-0.182469 0.184488,-0.349063 0.268559,-0.370196 0.08408,-0.02111 0.274992,-0.06327 0.424265,-0.09361 0.373087,-0.07585 1.315663,-0.484414 1.317204,-0.570956 0.0014,-0.07259 -0.897881,-0.311514 -1.614885,-0.429082 -0.370718,-0.06077 -0.428734,-0.10762 -0.695807,-0.561733 -0.578898,-0.984366 -1.866331,-1.851448 -3.355309,-2.259776 -1.984362,-0.54418 -4.180996,-0.125857 -5.224441,0.994936 -0.740523,0.795428 -0.879814,1.668857 -0.422091,2.646869 z"
       id="path32-0" />
    <path
       style="fill:#b3b3b3;fill-opacity:1;stroke-width:0.125139"
       d="M 11.149161,29.473852 C 9.6835476,29.298455 8.6101076,28.435329 8.1947896,27.098321 c -0.375256,-1.208035 -0.376292,-2.432981 -0.0038,-4.52578 0.503816,-2.83084 0.528209,-3.561613 0.197492,-5.916403 -0.322263,-2.294588 -0.301242,-4.10318 0.05905,-5.081154 0.267191,-0.72525 1.07884,-1.6320315 1.7654874,-1.9724195 0.64999,-0.322217 1.93386,-0.425231 2.892298,-0.232071 0.894727,0.180319 1.395544,0.586711 2.955881,2.3985615 1.126907,1.308558 1.257827,1.416172 2.868111,2.357536 0.928015,0.542512 1.984643,1.247635 2.348062,1.56694 2.074284,1.822499 2.050232,5.813535 -0.04607,7.643239 -0.336307,0.293537 -1.346073,0.921353 -2.243923,1.395146 -1.694541,0.8942 -2.043044,1.175289 -3.995278,3.222407 -1.350302,1.415936 -2.130566,1.724459 -3.842921,1.519529 z"
       id="path83" />
    <path
       style="fill:#b3b3b3;fill-opacity:1;stroke-width:0.125139"
       d="m 20.707446,32.864526 c -1.148013,-0.308695 -2.053941,-0.803356 -2.801865,-1.529894 -0.781046,-0.75871 -1.098917,-1.514562 -0.967519,-2.300626 0.235299,-1.407617 2.24082,-2.295426 4.30502,-1.905751 1.699987,0.320918 3.24701,1.334096 3.843136,2.51695 0.310917,0.616929 0.374382,0.667999 1.168204,0.940056 0.747176,0.256071 0.814626,0.305291 0.613764,0.447874 -0.124112,0.0881 -0.486312,0.198133 -0.804888,0.244512 -0.441836,0.06432 -0.719039,0.211281 -1.168661,0.619566 -0.324188,0.294385 -0.857784,0.65048 -1.185769,0.791326 -0.791125,0.339732 -2.105795,0.416815 -3.001422,0.175987 z"
       id="path88" />
    <path
       style="fill:#b3b3b3;fill-opacity:1;stroke-width:0.125139"
       d="m 26.987452,27.162378 c -2.763748,-0.95272 -4.088022,-2.994003 -2.98392,-4.599523 1.159849,-1.686585 4.120445,-2.07369 6.592922,-0.86204 0.934217,0.457818 1.436813,0.867698 2.046651,1.669092 0.452977,0.595264 0.529819,0.642065 1.275161,0.776627 0.436226,0.07875 0.826907,0.175973 0.86818,0.216043 0.113243,0.109934 -0.225416,0.287109 -0.947895,0.495905 -0.556668,0.160876 -0.680981,0.255908 -0.871612,0.666303 -0.306179,0.659153 -0.880785,1.164663 -1.781327,1.56712 -0.626169,0.279838 -0.977193,0.347922 -1.968626,0.381836 -1.067966,0.03653 -1.324091,7.44e-4 -2.229534,-0.311363 z"
       id="path89" />
    <path
       style="fill:#b3b3b3;fill-opacity:1;stroke-width:0.125139"
       d="m 25.86268,17.951656 c -2.345786,-0.93621 -2.770245,-2.912712 -0.975503,-4.542451 1.24302,-1.128741 2.812979,-1.641542 4.647331,-1.517974 1.803013,0.121457 2.882687,0.72237 3.61437,2.011645 0.28344,0.499443 0.415959,0.600624 1.084928,0.828376 0.419126,0.142694 0.758031,0.314698 0.75312,0.382234 -0.0049,0.06753 -0.404986,0.192143 -0.889057,0.276904 -0.719634,0.126013 -0.925012,0.215947 -1.126261,0.493194 -1.138775,1.568817 -2.889983,2.376006 -5.143009,2.370581 -0.991671,-0.0024 -1.353392,-0.05805 -1.965919,-0.302509 z"
       id="path90" />
    <path
       style="fill:#b3b3b3;fill-opacity:1;stroke-width:0.125139"
       d="m 19.461021,11.899617 c -0.872587,-0.227967 -1.712663,-0.794061 -1.975092,-1.330938 -0.839,-1.7164165 0.944613,-3.7777568 3.762271,-4.3480968 1.546995,-0.313137 2.90418,0.01342 3.904298,0.939427 0.472609,0.437586 0.871894,0.673044 1.467794,0.865556 0.450221,0.145447 0.818582,0.307174 0.818582,0.359395 0,0.05222 -0.364896,0.190834 -0.810882,0.3080313 -0.759294,0.199528 -0.831905,0.250581 -1.141312,0.802462 -0.384011,0.6849475 -1.233979,1.4849395 -1.959442,1.8442335 -0.707329,0.350313 -2.269902,0.754071 -2.880743,0.744362 -0.280821,-0.0045 -0.814285,-0.08746 -1.185474,-0.184432 z"
       id="path91" />
  </g>
</svg>
