<?xml version="1.0" encoding="UTF-8"?><svg id="_レイヤー_2" xmlns="http://www.w3.org/2000/svg" viewBox="0 0 486.35 188.13"><defs><style>.cls-1{fill:#0064a6;}.cls-1,.cls-2,.cls-3,.cls-4,.cls-5,.cls-6,.cls-7,.cls-8,.cls-9,.cls-10,.cls-11,.cls-12,.cls-13,.cls-14,.cls-15{stroke-linecap:round;stroke-linejoin:round;}.cls-1,.cls-2,.cls-3,.cls-8,.cls-9,.cls-10,.cls-11,.cls-12,.cls-13,.cls-14,.cls-15{stroke:#231815;}.cls-2{fill:#b24478;}.cls-3,.cls-15{fill:#e6f4fd;}.cls-4{stroke-width:.54px;}.cls-4,.cls-5,.cls-6,.cls-7{stroke:#fff;}.cls-4,.cls-5,.cls-6,.cls-7,.cls-10,.cls-16{fill:#fff;}.cls-5{stroke-width:.56px;}.cls-6{stroke-width:.52px;}.cls-7{stroke-width:.76px;}.cls-8{fill:none;}.cls-9{fill:#bf4438;}.cls-11{fill:#898989;}.cls-17{fill:#231815;font-family:ArialMT, Arial;font-size:12px;}.cls-12{fill:#f6af4b;}.cls-13{fill:#0063a6;}.cls-14{fill:#cdcece;}.cls-15{opacity:.71;}</style></defs><path class="cls-11" d="M31.48,44.9c0,6.53-3.48,11.82-7.78,11.82s-12.01,2.68-12.01-11.91c0-6.53,6.1-11.73,12.01-11.73,4.3,0,7.78,5.29,7.78,11.82Z"/><path class="cls-11" d="M97.28,43.14c0,6.53-3.48,11.82-7.78,11.82s-12.01,1.03-12.01-11.91c0-6.53,6.1-11.73,12.01-11.73,4.3,0,7.78,5.29,7.78,11.82Z"/><path class="cls-11" d="M135.76,43.96c0,6.53-3.48,11.82-7.78,11.82s-12.61,1.51-12.61-11.8c0-6.53,6.69-11.85,12.61-11.85,4.3,0,7.78,5.29,7.78,11.82Z"/><path class="cls-11" d="M77.22,45.22c0,6.53-3.48,11.77-7.78,11.82-3.41.04-13.77,2.77-13.77-11.82,0-6.53,7.85-11.82,13.77-11.82,4.3,0,7.78,5.29,7.78,11.82Z"/><path class="cls-1" d="M40.78,19.67s-1.33-1.04-1.33-1.22c0-.17.23-2.96-.99-3.02s-5.73-.09-6.15.25c-.36.3-.56,3.64.13,3.99s5.21-.06,5.56,0,1.51,1.33,1.8,1.33.77-.2.99-.38c.24-.2,0-.95,0-.95Z"/><path class="cls-1" d="M60.08,51.41s.9-17.8,7.03-17.8c6.99,0,10.46.36,10.82,16.23,0,0,40.95-.72,41.13-1.26s.9-14.79,8.3-14.97c7.4-.18,9.2,9.56,8.3,12.63,0,0,6.67.54,8.3-2.71s2.29-18.24,1.26-19.84c-.46-.72.72-4.69-14.07-3.97,0,0-11.36-17.5-18.04-17.86-6.24-.34-49.43-2.89-61.15,0,0,0-15.87,15.87-16.96,17.14S4.52,24.05,3.26,29.64s-1.8,18.22,4.69,20.94c5.27,2.21,52.13.82,52.13.82Z"/><path class="cls-3" d="M103.19,4.68s2.16,14.55,3.07,14.97c1.32.61,16.96,0,16.96,0,0,0-4.99-13.49-10.01-14.47-1.85-.36-10.01-.5-10.01-.5Z"/><path class="cls-3" d="M99.94,4.5s3.49,14.99,2.59,15.4c-1.32.61-20.47.22-20.47.22,0,0,4.54-14.41,7.12-15.68,1.11-.54,10.76.06,10.76.06Z"/><path class="cls-3" d="M76.44,20.35s-37.97-.56-38.1-1.31,12.7-14.81,13.96-14.82,30.19-.58,31.06.73c1.26,1.9-5.78,15.4-6.92,15.4Z"/><rect class="cls-14" x=".5" y="40.79" width="56.08" height="5.78" rx="1.33" ry="1.33"/><rect class="cls-14" x="139.72" y="36.96" width="8.73" height="5.78" rx="1.33" ry="1.33"/><rect class="cls-10" x="17.5" y="42.75" width="13.65" height="7.56"/><circle class="cls-10" cx="9.21" cy="34.02" r="4.08"/><circle class="cls-10" cx="43.89" cy="34.02" r="4.08"/><path class="cls-12" d="M51.99,29.94h0c.73,0,1.33.6,1.33,1.33v4.31c0,1.39-1.13,2.52-2.52,2.52h0c-.66,0-1.2-.54-1.2-1.2v-4.57c0-1.32,1.07-2.39,2.39-2.39Z"/><path class="cls-12" d="M3,38.1s-1.17-.86-1.17-2.52v-3.12c0-.73,1.17-2.52,1.17-2.52.73,0,1.33,1.79,1.33,2.52v3.12c0,.73-.71,2.4-1.33,2.52Z"/><path class="cls-10" d="M51.45,27.73s22.1-6.18,22.65-6.18"/><path class="cls-11" d="M35.48,37.98l-19.04-.18c-.41,0-.78-.27-.89-.67l-.57-5.46c-.18-.6.27-1.2.89-1.2h20.41c.63,0,1.07.6.89,1.2l-.8,5.64c-.12.4-.48.67-.89.67Z"/><path class="cls-1" d="M84.03,20.6s1.33-1.04,1.33-1.22-.23-2.96.99-3.02,5.73-.09,6.15.25c.36.3.56,3.64-.13,3.99s-5.21-.06-5.56,0-1.51,1.33-1.8,1.33-.77-.2-.99-.38c-.24-.2,0-.95,0-.95Z"/><path class="cls-2" d="M145.3,25.85h0c.73,0,1.33.6,1.33,1.33v4.31c0,1.39-1.13,2.52-2.52,2.52h0c-.66,0-1.2-.54-1.2-1.2v-4.57c0-1.32,1.07-2.39,2.39-2.39Z"/><path class="cls-8" d="M80.81,21.93c.29.19,1.26,11.51,1.25,14.17s0,10.42,0,10.42l23.19-.73s.38-9.98.48-10.84-.48-13.41-.48-13.41"/><path class="cls-8" d="M124.92,21s.67,9.27.57,9.47-5.04,2.59-6.28,5.91c-1.24,3.33-1.43,8.84-2,8.94s-11.98.48-11.98.48"/><rect class="cls-10" x="98.2" y="24.25" width="4.48" height="1.08"/><rect class="cls-10" x="118.15" y="23.71" width="4.48" height="1.08"/><ellipse class="cls-14" cx="69.44" cy="46.16" rx="4.62" ry="6.47"/><ellipse class="cls-14" cx="127.98" cy="44.9" rx="4.62" ry="6.47"/><polygon class="cls-5" points="94.21 39.14 100.46 43.68 98.07 36.33 104.32 31.79 96.59 31.79 94.21 24.44 91.82 31.79 84.09 31.79 90.34 36.33 87.95 43.68 94.21 39.14"/><path class="cls-11" d="M208.08,44.75c0,6.05-3.23,10.95-7.21,10.95s-11.12,2.48-11.12-11.03c0-6.05,5.65-10.87,11.12-10.87,3.98,0,7.21,4.9,7.21,10.95Z"/><path class="cls-11" d="M269.02,43.11c0,6.05-3.23,10.95-7.21,10.95s-11.12.96-11.12-11.03c0-6.05,5.65-10.87,11.12-10.87,3.98,0,7.21,4.9,7.21,10.95Z"/><path class="cls-11" d="M300.49,43.88c0,6.05-3.23,10.95-7.21,10.95s-11.68,1.4-11.68-10.93c0-6.05,6.2-10.97,11.68-10.97,3.98,0,7.21,4.9,7.21,10.95Z"/><path class="cls-11" d="M250.45,45.04c0,6.05-3.23,10.9-7.21,10.95-3.16.04-12.75,2.56-12.75-10.95,0-6.05,7.27-10.95,12.75-10.95,3.98,0,7.21,4.9,7.21,10.95Z"/><path class="cls-13" d="M216.7,21.37s-1.24-.97-1.24-1.13.21-2.74-.91-2.79-5.31-.09-5.69.23c-.34.27-.52,3.37.12,3.69s4.82-.05,5.15,0,1.4,1.24,1.67,1.24.72-.18.91-.35c.22-.19,0-.88,0-.88Z"/><path class="cls-11" d="M306.47,22.89s-7.49-6.04-23.52-5.38c0,0-1.26-6.95-2.83-7.29s-8.49-.66-9.11,0-1.26,6.29-2.36,6.79-14.67,1.16-15.92,1.16-.94-7.12-2.2-7.45-6.29-1.92-9.74-.88-3.14,9.32-2.99,9.82-10.58,1.16-11.21,3.31,30.64,8.44,30.64,8.44l46.83-5.12,2.41-3.41Z"/><path class="cls-13" d="M259.99,8.21c-2.16,2.61-5.07,13.59-5.07,13.59,0,0,17.74.37,18.96-.2l14.97-.24,7.35.06c12.61.59,12.61,3.01,13.03,3.68.95,1.49,2.3,9.57-.42,16.04-1.31,3.1-8.43,4.84-8.43,4.84.84-2.84-.84-11.86-7.69-11.7-6.85.17-7.52,13.37-7.69,13.87s-33.91,1.17-33.91,1.17c-.33-14.7-3.55-15.04-10.02-15.04-5.68,0-6.52,16.49-6.52,16.49,0,0-43.4,1.29-48.29-.76-3.82-2.71-3.42-13.17-2.25-18.35,1.17-5.18,26.31-9.73,27.31-10.9s15.71-15.87,15.71-15.87c5.06-.69,18.82-.35,31.2-.02.41.01.78.24.98.59l.87,1.53c.22.39.18.87-.11,1.22ZM256.31,7.74c-.8-1.21-27.6-.69-28.76-.67s-13.04,13.03-12.93,13.73,35.29,1.21,35.29,1.21c1.05,0,7.57-12.51,6.41-14.27Z"/><path class="cls-15" d="M249.73,22.01s-35.17-.51-35.29-1.21,11.76-13.71,12.93-13.73,27.96-.54,28.76.67c1.16,1.76-5.36,14.27-6.41,14.27Z"/><rect class="cls-10" x="195.14" y="42.75" width="12.64" height="7"/><circle class="cls-10" cx="186.41" cy="34.67" r="3.78"/><circle class="cls-10" cx="219.58" cy="34.67" r="3.78"/><path class="cls-12" d="M228.58,33.61h0c.68,0,1.23.55,1.23,1.23v4c0,1.29-1.05,2.34-2.34,2.34h0c-.62,0-1.11-.5-1.11-1.11v-4.23c0-1.22.99-2.22,2.22-2.22Z" transform="translate(265.48 -190.69) rotate(90)"/><path class="cls-10" d="M226.58,28.84s20.47-5.73,20.98-5.73"/><path class="cls-11" d="M211.79,38.33l-17.63-.17c-.38,0-.72-.25-.83-.62l-.53-5.06c-.17-.55.25-1.11.83-1.11h18.9c.58,0,.99.56.83,1.11l-.74,5.22c-.11.37-.45.62-.83.62Z"/><path class="cls-13" d="M256.75,22.23s1.24-.97,1.24-1.13-.21-2.74.91-2.79,5.31-.09,5.69.23c.34.27.52,3.37-.12,3.69s-4.82-.05-5.15,0-1.4,1.24-1.67,1.24-.72-.18-.91-.35c-.22-.19,0-.88,0-.88Z"/><path class="cls-2" d="M309.31,27.1h0c.68,0,1.23.55,1.23,1.23v4c0,1.29-1.05,2.34-2.34,2.34h0c-.62,0-1.11-.5-1.11-1.11v-4.23c0-1.22.99-2.22,2.22-2.22Z"/><path class="cls-8" d="M253.77,23.47c.26.18,1.17,10.66,1.16,13.12s0,9.65,0,9.65l21.48-.67"/><path class="cls-8" d="M285.04,23.47s-.34,10.25-.58,13.39c-.65,8.29-8.06,8.72-8.06,8.72"/><rect class="cls-10" x="278.61" y="25.12" width="4.15" height="1"/><ellipse class="cls-14" cx="243.24" cy="45.92" rx="4.28" ry="5.99"/><ellipse class="cls-14" cx="293.27" cy="44.75" rx="4.28" ry="5.99"/><polygon class="cls-6" points="269.02 38.5 274.81 42.71 272.6 35.9 278.39 31.69 271.24 31.69 269.02 24.89 266.81 31.69 259.65 31.69 265.45 35.9 263.23 42.71 269.02 38.5"/><path class="cls-11" d="M379.55,44.85c0,6.28-3.35,11.38-7.49,11.38s-11.56,2.58-11.56-11.47c0-6.28,5.87-11.29,11.56-11.29,4.14,0,7.49,5.09,7.49,11.38Z"/><path class="cls-11" d="M442.88,43.15c0,6.28-3.35,11.38-7.49,11.38s-11.56.99-11.56-11.47c0-6.28,5.87-11.29,11.56-11.29,4.14,0,7.49,5.09,7.49,11.38Z"/><path class="cls-11" d="M479.92,43.94c0,6.28-3.35,11.38-7.49,11.38s-12.13,1.46-12.13-11.36c0-6.28,6.44-11.4,12.13-11.4,4.14,0,7.49,5.09,7.49,11.38Z"/><path class="cls-11" d="M423.58,45.16c0,6.28-3.35,11.33-7.49,11.38-3.29.04-13.25,2.66-13.25-11.38,0-6.28,7.56-11.38,13.25-11.38,4.14,0,7.49,5.09,7.49,11.38Z"/><path class="cls-9" d="M388.51,20.56s-1.28-1-1.28-1.17c0-.17.22-2.85-.95-2.9s-5.52-.09-5.92.24c-.35.28-.54,3.5.12,3.84s5.01-.06,5.35,0,1.45,1.28,1.73,1.28.74-.19.95-.37c.23-.19,0-.92,0-.92Z"/><path class="cls-9" d="M407.08,51.11s.87-17.13,6.77-17.13c6.73,0,10.07.35,10.42,15.62,0,0,39.41-.69,39.58-1.22s.87-14.24,7.99-14.41,8.85,9.2,7.99,12.15c0,0,.99.52,2.55-2.6,1.56-3.12,2.2-17.55,1.22-19.1-.44-.69-8.17-20.66-14.59-21.01-6.01-.32-58.32-1.91-69.73,0,0,0-15.28,15.28-16.32,16.49s-29.34,4.86-30.56,10.24-1.74,17.53,4.51,20.16c5.07,2.13,50.17.79,50.17.79Z"/><path class="cls-3" d="M454.21,6.13s2.08,14.01,2.95,14.41c1.27.59,18.49,0,18.49,0,0,0-3.71-12.98-8.55-13.93-1.78-.35-12.9-.48-12.9-.48Z"/><path class="cls-3" d="M450.88,5.97s3.36,14.42,2.49,14.83c-1.27.59-25.14.21-25.14.21,0,0,4.36-13.87,6.85-15.09,1.07-.52,15.8.05,15.8.05Z"/><path class="cls-3" d="M422.83,21.22s-36.55-.53-36.67-1.26,12.22-14.25,13.43-14.27,29.06-.56,29.89.7c1.21,1.83-5.57,14.83-6.66,14.83Z"/><rect class="cls-14" x="349.74" y="40.89" width="53.97" height="5.57" rx="1.28" ry="1.28"/><rect class="cls-14" x="481.7" y="37.21" width="4.05" height="5.57" rx="1.28" ry="1.28"/><rect class="cls-10" x="366.1" y="42.77" width="13.14" height="7.27"/><circle class="cls-10" cx="358.12" cy="34.38" r="3.93"/><circle class="cls-10" cx="391.5" cy="34.38" r="3.93"/><path class="cls-12" d="M400.55,28.63h1.02c.71,0,1.28.57,1.28,1.28v4.15c0,1.34-1.09,2.43-2.43,2.43h0c-.64,0-1.16-.52-1.16-1.16v-5.42c0-.71.57-1.28,1.28-1.28Z" transform="translate(433.63 -368.5) rotate(90)"/><path class="cls-10" d="M398.78,28.33s21.27-5.95,21.8-5.95"/><path class="cls-11" d="M383.41,38.18l-18.32-.17c-.4,0-.75-.26-.86-.64l-.55-5.25c-.17-.58.26-1.16.86-1.16h19.64c.6,0,1.03.58.86,1.16l-.77,5.42c-.11.38-.46.64-.86.64Z"/><path class="cls-9" d="M430.13,21.46s1.28-1,1.28-1.17-.22-2.85.95-2.9,5.52-.09,5.92.24c.35.28.54,3.5-.12,3.84s-5.01-.06-5.35,0-1.45,1.28-1.73,1.28-.74-.19-.95-.37c-.23-.19,0-.92,0-.92Z"/><path class="cls-2" d="M483.54,27.03h1.02c.71,0,1.28.57,1.28,1.28v4.15c0,1.34-1.09,2.43-2.43,2.43h0c-.64,0-1.16-.52-1.16-1.16v-5.42c0-.71.57-1.28,1.28-1.28Z"/><path class="cls-8" d="M427.03,22.74c.27.19,1.22,11.08,1.2,13.64s0,10.03,0,10.03l25.58-.7s.37-9.61.46-10.43-.46-12.91-.46-12.91"/><path class="cls-8" d="M476.01,21.84s.64,8.92.55,9.12-9.42.81-11.26,4.43c-1.55,3.05-2.68,9.77-3.22,9.86s-9.36.46-9.36.46"/><rect class="cls-10" x="443.76" y="24.97" width="4.31" height="1.04"/><rect class="cls-10" x="464.06" y="24.45" width="4.31" height="1.04"/><ellipse class="cls-14" cx="416.08" cy="46.06" rx="4.45" ry="6.22"/><ellipse class="cls-14" cx="472.43" cy="44.85" rx="4.45" ry="6.22"/><polygon class="cls-4" points="439.92 39.31 445.94 43.68 443.64 36.6 449.66 32.23 442.22 32.23 439.92 25.16 437.62 32.23 430.19 32.23 436.2 36.6 433.91 43.68 439.92 39.31"/><path class="cls-11" d="M102.83,149.69c0,6.86-3.66,12.41-8.17,12.41s-12.61,2.81-12.61-12.51c0-6.86,6.4-12.32,12.61-12.32,4.51,0,8.17,5.56,8.17,12.41Z"/><path class="cls-11" d="M171.91,147.83c0,6.86-3.66,12.41-8.17,12.41s-12.61,1.08-12.61-12.51c0-6.86,6.4-12.32,12.61-12.32,4.51,0,8.17,5.56,8.17,12.41Z"/><path class="cls-11" d="M207.58,148.7c0,6.86-3.66,12.41-8.17,12.41s-13.24,1.59-13.24-12.39c0-6.86,7.03-12.44,13.24-12.44,4.51,0,8.17,5.56,8.17,12.41Z"/><path class="cls-11" d="M150.86,150.02c0,6.86-3.66,12.36-8.17,12.41-3.59.05-14.45,2.91-14.45-12.41,0-6.86,8.25-12.41,14.45-12.41,4.51,0,8.17,5.56,8.17,12.41Z"/><path class="cls-9" d="M112.6,123.19s-1.4-1.1-1.4-1.28c0-.18.24-3.11-1.04-3.17s-6.02-.1-6.46.26c-.38.31-.59,3.82.14,4.19s5.47-.06,5.83,0,1.58,1.4,1.89,1.4.81-.21,1.04-.4c.25-.21,0-1,0-1Z"/><path class="cls-11" d="M206.28,126.36s-2.14-6.68-18.59-7.54c0,0-1.42-7.88-3.21-8.26s-9.62-.75-10.33,0-1.42,7.13-2.67,7.69-16.63,1.31-18.05,1.31-1.07-8.07-2.49-8.45-7.12-2.18-11.04-1-3.56,10.57-3.38,11.13-11.99,1.31-12.7,3.75,34.73,9.57,34.73,9.57l50.27-4.81-2.53-3.41Z"/><path class="cls-9" d="M161.68,108.27c-2.45,2.95-5.74,15.4-5.74,15.4,0,0,19.39.01,21.49-.23,0,0,23.71.47,28.19,1.15.99.98,8.89,4.61,6.66,21.01-.51,3.78-4.81,5.49-4.81,5.49.95-3.22-.95-13.45-8.71-13.26-7.76.19-8.52,15.15-8.71,15.72s-38.43,1.33-38.43,1.33c-.38-16.67-4.03-17.04-11.36-17.04-6.44,0-7.39,18.69-7.39,18.69,0,0-43.27,1.46-48.8-.86-4.33-3.07-3.88-14.93-2.55-20.8,1.33-5.87,23.89-11.03,25.03-12.36s17.8-17.99,17.8-17.99c5.74-.78,21.34-.4,35.37-.02.46.01.88.27,1.11.67l.98,1.74c.25.45.2.99-.12,1.39ZM157.5,107.73c-.91-1.37-31.29-.78-32.61-.76s-14.79,14.77-14.65,15.56,40,1.38,40,1.38c1.19,0,8.58-14.18,7.26-16.17Z"/><path class="cls-15" d="M150.04,123.91s-39.87-.58-40-1.38,13.33-15.55,14.65-15.56,31.7-.61,32.61.76c1.32,1.99-6.07,16.17-7.26,16.17Z"/><circle class="cls-10" cx="85.82" cy="138.26" r="4.29"/><circle class="cls-10" cx="120.61" cy="138.26" r="4.29"/><rect class="cls-12" x="119.17" y="141.89" width="3.91" height="8.57" rx="1.4" ry="1.4" transform="translate(267.3 25.05) rotate(90)"/><path class="cls-11" d="M108.53,134.98l-13.02.18c-.41,0-.77.27-.89.66l-.57,5.4c-.18.59.27,1.19.89,1.19h14.37c.62,0,1.06-.6.89-1.19l-.79-5.58c-.12-.39-.48-.66-.89-.66Z"/><path class="cls-9" d="M158,124.17s1.4-1.1,1.4-1.28-.24-3.11,1.04-3.17,6.02-.1,6.46.26c.38.31.59,3.82-.14,4.19s-5.47-.06-5.83,0-1.58,1.4-1.89,1.4-.81-.21-1.04-.4c-.25-.21,0-1,0-1Z"/><rect class="cls-10" x="191.45" y="127.43" width="4.7" height="1.14"/><ellipse class="cls-14" cx="142.68" cy="151.01" rx="4.85" ry="6.79"/><ellipse class="cls-14" cx="199.4" cy="149.68" rx="4.85" ry="6.79"/><path class="cls-12" d="M79.89,144.22h3.28c.77,0,2.65.63,2.65,1.4v1.12c0,.77-1.88,1.4-2.65,1.4h-3.28c-.77,0-.77-3.91,0-3.91Z"/><path class="cls-8" d="M156.06,126.86c.25.2,1.12,12.08,1.11,14.88-.01,2.8,0,10.94,0,10.94l21.63-.76s.34-10.48.42-11.38-.42-14.08-.42-14.08"/><path class="cls-8" d="M198.46,125.89s.59,9.73.5,9.95-7.42,1.31-8.94,6.21c-1.08,3.5-1.26,9.28-1.77,9.38s-10.59.5-10.59.5"/><rect class="cls-10" x="171.13" y="127.49" width="4.7" height="1.14"/><path class="cls-11" d="M118.7,153.24l-31.22-.09c-.46,0-.86-.13-.99-.33l-.63-2.7c-.2-.3.3-.59.99-.59h32.73c.69,0,1.18.3.99.59l-.88,2.79c-.13.2-.53.33-.99.33Z"/><rect class="cls-10" x="93.44" y="147.42" width="14.33" height="7.93"/><path class="cls-11" d="M290.17,144.71c0,8.79-4.69,15.92-10.48,15.92s-16.17,3.61-16.17-16.04c0-8.79,8.21-15.8,16.17-15.8,5.79,0,10.48,7.13,10.48,15.92Z"/><path class="cls-11" d="M375.06,143.69c0,8.79-4.69,15.92-10.48,15.92s-16.17,1.39-16.17-16.04c0-8.79,8.21-15.8,16.17-15.8,5.79,0,10.48,7.13,10.48,15.92Z"/><path class="cls-11" d="M416.22,144.8c0,8.79-4.69,15.92-10.48,15.92s-16.97,2.04-16.97-15.88c0-8.79,9.01-15.95,16.97-15.95,5.79,0,10.48,7.13,10.48,15.92Z"/><path class="cls-11" d="M349.58,146.5c0,8.79-4.69,15.84-10.48,15.92-4.6.06-18.53,3.73-18.53-15.92,0-8.79,10.57-15.92,18.53-15.92,5.79,0,10.48,7.13,10.48,15.92Z"/><path class="cls-13" d="M299,112.09s-1.8-1.41-1.8-1.64c0-.23.31-3.98-1.33-4.06s-7.72-.12-8.28.33c-.49.4-.75,4.9.17,5.37s7.01-.08,7.48,0,2.03,1.8,2.42,1.8,1.04-.27,1.33-.51c.32-.27,0-1.28,0-1.28Z"/><path class="cls-11" d="M416.22,108.66s2.37-3.14-20.93-2.18c0,0-1.83-10.11-4.11-10.59s-12.33-.96-13.25,0-1.83,9.14-3.43,9.87-21.32,1.68-23.15,1.68-1.37-10.35-3.2-10.83-9.14-2.8-14.16-1.28c-5.02,1.52-4.57,13.55-4.34,14.27s-15.38,1.68-16.29,4.81,44.54,12.27,44.54,12.27l60.54-7.7-2.23-10.33Z"/><path class="cls-13" d="M355.85,92.96c-3.15,3.79-1.28,19.75-1.28,19.75,0,0,25.78.53,27.56-.29l17.2-.35s21.38-.02,22,.95c1.38,2.16,2.05,19.42,1.07,29.58-.41,4.22-6.31,2.23-6.31,2.23,1.21-4.13-1.21-14.2-11.17-13.96-9.96.24-10.93,16.38-11.17,17.11s-44.72,1.7-44.72,1.7c-.49-21.37-5.16-18.81-14.57-18.81-8.26,0-9.47,20.92-9.47,20.92,0,0-52.45,1.97-59.55-1.01-5.55-3.93-2.96-22.44-1.89-30.08.67-4.76,26.23-7.8,27.68-9.5s14.88-22.39,14.88-22.39c7.36-1.01,29.22-1.19,47.21-.7.59.02,1.13.34,1.43.86l1.26,2.23c.32.57.26,1.27-.16,1.78ZM350.49,92.28c-1.17-1.76-40.11-1-41.81-.98s-12.87,18.94-12.71,19.95,49.77.24,49.77.24c1.52,0,6.44-16.66,4.75-19.22Z"/><path class="cls-15" d="M345.49,111.49s-49.6.77-49.77-.24,11.01-19.93,12.71-19.95,40.64-.78,41.81.98c1.69,2.56-3.22,19.22-4.75,19.22Z"/><path class="cls-12" d="M317.79,135.97h0c.99,0,1.79.8,1.79,1.79v5.81c0,1.87-1.52,3.39-3.39,3.39h0c-.89,0-1.62-.73-1.62-1.62v-6.15c0-1.78,1.44-3.22,3.22-3.22Z" transform="translate(458.53 -175.61) rotate(90)"/><path class="cls-10" d="M323.82,121.24s19.29-6.61,20.04-6.61"/><path class="cls-11" d="M302.84,136.74l-25.63-.24c-.56,0-1.05-.36-1.2-.9l-.77-7.35c-.24-.81.36-1.62,1.2-1.62h27.47c.84,0,1.45.81,1.2,1.62l-1.07,7.59c-.16.53-.65.9-1.2.9Z"/><path class="cls-13" d="M357.22,113.35s1.8-1.41,1.8-1.64-.31-3.98,1.33-4.06,7.72-.12,8.28.33c.49.4.75,4.9-.17,5.37s-7.01-.08-7.48,0-2.03,1.8-2.42,1.8-1.04-.27-1.33-.51c-.32-.27,0-1.28,0-1.28Z"/><path class="cls-8" d="M393.78,115.14l-1.77,29.99-6.23.62-31.21.98s-.02-8.93,0-12.51c.02-3.58-1.3-18.82-1.68-19.08"/><rect class="cls-10" x="384.43" y="117.54" width="6.03" height="1.46"/><ellipse class="cls-14" cx="339.1" cy="147.76" rx="6.22" ry="8.7"/><ellipse class="cls-14" cx="405.74" cy="146.07" rx="6.22" ry="8.7"/><polygon class="cls-7" points="375.06 136.99 383.47 143.1 380.26 133.21 388.67 127.09 378.27 127.09 375.06 117.2 371.84 127.09 361.44 127.09 369.85 133.21 366.64 143.1 375.06 136.99"/><path class="cls-10" d="M320.57,121.24s-53.65,0-52.91,0"/><rect class="cls-14" x="261.17" y="145.65" width="64.84" height="7.79" rx="1.79" ry="1.79"/><rect class="cls-10" x="279.35" y="140.72" width="18.37" height="10.17"/><rect class="cls-14" x="418.45" y="138.7" width="5.67" height="7.79" rx="1.79" ry="1.79"/><rect class="cls-10" x="312.48" y="123.96" width="9.19" height="13.24"/><path class="cls-12" d="M269.74,135.59h0c.99,0,1.79.8,1.79,1.79v5.81c0,1.87-1.52,3.39-3.39,3.39h0c-.89,0-1.62-.73-1.62-1.62v-6.15c0-1.78,1.44-3.22,3.22-3.22Z" transform="translate(410.11 -127.94) rotate(90)"/><rect class="cls-10" x="264.43" y="123.59" width="9.19" height="13.24"/><path class="cls-16" d="M167.73,136.56c4.72-8.87,16.48-.95,0,12.8h-.04c-16.52-13.88-4.59-21.61,0-12.8h.04Z"/><text class="cls-17" transform="translate(53.35 73.54)"><tspan x="0" y="0">Car 1</tspan></text><text class="cls-17" transform="translate(232.15 73.54)"><tspan x="0" y="0">Car 2</tspan></text><text class="cls-17" transform="translate(405.02 73.54)"><tspan x="0" y="0">Car 3</tspan></text><text class="cls-17" transform="translate(131.46 179.38)"><tspan x="0" y="0">Car 4</tspan></text><text class="cls-17" transform="translate(327.75 179.38)"><tspan x="0" y="0">Car 5</tspan></text></svg>