<?xml version="1.0" encoding="UTF-8" standalone="no"?>
<svg
   width="1376"
   height="1450"
   viewBox="0 0 1376 1450"
   version="1.1"
   xml:space="preserve"
   style="clip-rule:evenodd;fill-rule:evenodd;stroke-linejoin:round;stroke-miterlimit:2"
   id="svg181"
   sodipodi:docname="2026-UK-04-task.svg"
   inkscape:version="1.4.4 (dcaf3e7, 2026-05-05)"
   xmlns:inkscape="http://www.inkscape.org/namespaces/inkscape"
   xmlns:sodipodi="http://sodipodi.sourceforge.net/DTD/sodipodi-0.dtd"
   xmlns="http://www.w3.org/2000/svg"
   xmlns:svg="http://www.w3.org/2000/svg"><defs
   id="defs181" /><sodipodi:namedview
   id="namedview181"
   pagecolor="#ffffff"
   bordercolor="#000000"
   borderopacity="0.25"
   inkscape:showpageshadow="2"
   inkscape:pageopacity="0.0"
   inkscape:pagecheckerboard="0"
   inkscape:deskcolor="#d1d1d1"
   inkscape:zoom="0.36941356"
   inkscape:cx="544.10564"
   inkscape:cy="775.55357"
   inkscape:current-layer="g41" />
    <g
   transform="translate(-311.123,-172.07)"
   id="g181">
        <g
   id="g180">
            <g
   transform="translate(116.828,341.848)"
   id="g30">
                <g
   transform="matrix(1.06771,0,0,1.07646,-20.7488,-6.7438)"
   id="g1">
                    <path
   d="m 558.4,747.5465 c 0,7.092 2.84,13.894 7.897,18.909 5.056,5.015 11.913,7.833 19.064,7.833 h 233.375 c 12.768,0 20.708,-6.621 20.708,-19.285 v -301.557 c 0,-39.826 32.598,-72.159 72.75,-72.159 h 213.956 c 40.15,0 72.75,32.333 72.75,72.159 v 300.306 c 0,21.133 18.35,19.802 30.8,19.802 h 197.91 c 32.57,0 59.02,26.228 59.02,58.535 v 55.381 c -0.64,-0.026 -1.29,-0.04 -1.93,-0.04 h -54.8 l 0.19,-47.801 c 0.03,-6.914 -6.22,-10.521 -12.36,-9.942 0,0 -274.27,-2.424 -291.58,-2.424 H 921.343 c -17.788,0 -22.909,8.871 -22.909,26.514 v 241.45 c 0,48.43 -39.643,87.76 -88.471,87.76 H 292.61 c -48.829,0 -88.472,-39.33 -88.472,-87.76 v -233.187 c 0,-48.432 39.643,-87.752 88.472,-87.752 h 209.944 c 6.147,0 12.043,-2.423 16.39,-6.734 4.347,-4.312 6.789,-10.16 6.789,-16.257 V 240.78625 H 558.4 v 148.73334 z m 283.313,111.491 c 0,-17.38 -5.924,-28.489 -23.448,-28.489 H 292.61 c -17.523,0 -31.75,14.111 -31.75,31.492 v 233.187 c 0,17.38 14.227,31.5 31.75,31.5 h 517.353 c 17.523,0 31.75,-14.12 31.75,-31.5 z m 300.467,-405.591 c 0,-8.775 -7.18,-15.899 -16.03,-15.899 H 912.194 c -8.846,0 -16.029,7.124 -16.029,15.899 v 291.557 c 0,8.774 3.601,25.999 16.029,25.999 h 213.956 c 8.85,0 16.03,-7.123 16.03,-15.898 z"
   style="fill:#ffffff;stroke:#000000;stroke-width:5.44px"
   id="path1"
   sodipodi:nodetypes="scssssssssssscscccsssssssssscscccsssssssssssssssssss" />
                </g>
                <g
   transform="matrix(1.38432,0,0,0.601479,-754.455,338.238)"
   id="g2">
                    <path
   d="m 1633.45,999.044 c 20.73,-0.068 20.58,3.266 40.82,-0.103"
   style="fill:none;stroke:#000000;stroke-width:2.73px;stroke-linecap:round;stroke-miterlimit:1.5"
   id="path2" />
                </g>
                <g
   id="g8"
   transform="translate(0,128)">
                    <path
   d="m 249.716,780.523 c 8.995,-47.289 33.225,-17.388 323.109,-30.565 20.064,-0.912 243.321,-0.912 264.479,-0.912 5.795,0 60.733,17.734 34.656,-1.824 -37.72,-28.29 -239.516,-7.773 -528.958,-13.68 -8.558,-0.174 -93.917,-1.916 -101.232,34.656 -1.585,7.929 2.6,6.069 7.946,12.325 z"
   style="fill:#dbdcde"
   id="path3" />
                    <path
   d="m 233.148,798.876 c 0.643,24.551 -5.973,70.475 1.327,238.364 0.103,2.38 0.173,3.99 11.855,27.36 3.632,-145.274 2.948,-145.172 3.648,-157.778 0.952,-17.128 -0.927,-66.999 1.843,-118.56 -11.776,0 -11.028,1.755 -18.673,10.614 z"
   style="fill:#dbdcde"
   id="path4" />
                    <path
   d="m 256.246,1111.61 c 31.051,21.19 132.725,9.9 144.212,8.62 8.803,-0.98 135.255,-4.72 201.551,-8.21 202.677,-10.67 291.936,26.56 318.287,-65.66 8.584,-30.05 -18.645,-96.369 1.824,-65.667 5.287,7.932 15.188,108.127 -12.768,126.767 -61.097,40.73 -67.509,20.94 -240.767,24.63 -68.516,1.45 -68.178,-3.97 -188.784,2.73 -24.535,1.36 -198.797,2.29 -207.935,-4.56 -10.902,-8.18 -10.642,-11.57 -15.62,-18.65 z"
   style="fill:#dbdcde"
   id="path5" />
                    <path
   d="m 926.642,886.749 c -2.094,-6.199 6.224,-6.328 -3.201,-81.728 -11.653,-93.219 66.454,-48.572 263.909,-58.445 149.87,-7.493 149.77,5.581 299.53,-2.739 17.39,-0.966 19.56,0.612 23.74,17.351 3.58,14.313 17.78,-16.584 -9.13,-24.657 -38.49,-11.547 -67.64,-20.291 -502.254,-8.218 -111.556,3.098 -100.099,41.889 -95.886,138.805 1.315,30.228 32.276,43.052 23.292,19.631 z"
   style="fill:#dbdcde"
   id="path6" />
                    <path
   d="m 1248.87,694.027 c -0.97,-17.034 2.28,-16.774 6.06,-213.19 1.41,-73.538 -7.27,-72.824 -5.38,-146.367 -17.86,50.512 -16.96,157.848 -17.45,175.589 -4.54,163.609 1.82,164.116 20.43,202.351 z"
   style="fill:#dbdcde"
   id="path7" />
                    <path
   d="m 1193.78,317.652 c 3.37,-1.054 -147.05,-7.07 -159.84,-7.582 -75.393,-3.016 -104.266,-2.798 -116.212,20.936 -8.333,16.555 -8.253,50.496 -10.725,77.689 -9.076,99.84 4.396,277.347 6.392,280.35 32.297,48.576 11.746,-174.08 15.968,-288.993 1.34,-36.47 0.399,-72.416 11.808,-69.156 20.058,5.73 43.99,-4.152 78.959,-2.695 74.62,3.108 171.5,13.571 173.93,-9.279 0.05,-0.432 -0.33,-0.839 -0.28,-1.27 z"
   style="fill:#dbdcde"
   id="path8" />
                </g>
                <g
   transform="matrix(1.1389745,0,0,1.1389745,-229.91957,-181.18444)"
   id="g9"
   style="stroke-width:0.877983">
                    <path
   d="m 807.37297,252.42946 c -2.14852,1.48826 -63.02389,76.63937 -92.28048,123.45162 -0.0438,0.0695 -10.25434,3.54169 -17.06529,30.40618 -5.35259,21.11017 -9.5321,336.99248 -5.44874,422.72271 0.97116,20.41359 3.94233,52.67341 -6.49257,41.79834 -11.41459,-77.19706 -9.12612,-417.26863 -0.90919,-475.25189 3.96583,-27.98095 19.44884,-131.13863 60.78243,-146.71673 21.65719,-8.16244 56.9683,-1.61539 61.41384,3.58977 z"
   style="fill:#dbdcde;stroke-width:0.877983"
   id="path9" />
                </g>
                <g
   transform="translate(-68.3173,126.91089)"
   id="g10">
                    <path
   d="m 382.851,700.867 c -0.712,2.617 -3.7,31.819 -1.205,56.776"
   style="fill:none;stroke:#000000;stroke-width:2.92px;stroke-linecap:round;stroke-miterlimit:1.5"
   id="path10" />
                </g>
                <g
   transform="translate(-126.687,-59.861)"
   id="g11">
                    <path
   d="m 736.409,889.007 c -0.059,0.137 -0.369,14.071 -0.396,15.295 -0.592,26.64 0.182,34.375 0.479,37.348"
   style="fill:#ffffff;stroke:#000000;stroke-width:2.92px;stroke-linecap:round;stroke-miterlimit:1.5"
   id="path11" />
                </g>
                <g
   transform="translate(-126.687,-59.861)"
   id="g12">
                    <path
   d="m 639.251,890.173 c -2.083,14.248 2.527,16.192 -1.916,48.772"
   style="fill:#ffffff;stroke:#000000;stroke-width:2.92px;stroke-linecap:round;stroke-miterlimit:1.5"
   id="path12" />
                </g>
                <g
   transform="translate(-126.687,-59.861)"
   id="g13">
                    <path
   d="m 669.867,861.873 c 5.353,-0.974 6.264,4.991 27.362,0.771"
   style="fill:#ffffff;stroke:#000000;stroke-width:2.92px;stroke-linecap:round;stroke-miterlimit:1.5"
   id="path13" />
                </g>
                <g
   transform="translate(-75.7601,108.2598)"
   id="g14">
                    <path
   d="m 277.025,801.426 c 1.102,5.609 38.689,17.106 55.087,6.174"
   style="fill:none;stroke:#000000;stroke-width:2.92px;stroke-linecap:round;stroke-miterlimit:1.5"
   id="path14" />
                </g>
                <g
   transform="translate(-67.895,126.15156)"
   id="g15">
                    <path
   d="m 277.605,1049.13 c 3.133,2.12 20.577,13.91 46.992,5.11"
   style="fill:none;stroke:#000000;stroke-width:2.92px;stroke-linecap:round;stroke-miterlimit:1.5"
   id="path15" />
                </g>
                <g
   transform="translate(-80.0211,128.97828)"
   id="g16">
                    <path
   d="m 386.241,1077.56 c 3.359,-2.59 9.022,48 5.29,55.47"
   style="fill:none;stroke:#000000;stroke-width:2.92px;stroke-linecap:round;stroke-miterlimit:1.5"
   id="path16" />
                </g>
                <path
   d="m 828.645,1204.92 c 6.204,37.33 1.829,42.72 -1.344,55.41"
   style="fill:none;stroke:#000000;stroke-width:2.92px;stroke-linecap:round;stroke-miterlimit:1.5"
   id="path17" />
                <path
   d="m 878.109,1154.61 c 14.86,-0.54 24.169,-6.78 52.383,-1.65"
   style="fill:none;stroke:#000000;stroke-width:2.92px;stroke-linecap:round;stroke-miterlimit:1.5"
   id="path18" />
                <g
   transform="translate(25.0172,126.41694)"
   id="g19">
                    <path
   d="m 816.996,702.224 c 5.62,40.626 2.436,49.117 5.425,53.6"
   style="fill:none;stroke:#000000;stroke-width:2.92px;stroke-linecap:round;stroke-miterlimit:1.5"
   id="path19" />
                </g>
                <g
   transform="matrix(1,0,0,-0.561316,-1.29556,1151.16)"
   id="g20">
                    <path
   d="m 880.328,642.406 c 22.789,-0.584 22.507,-0.696 45.283,2.558"
   style="fill:none;stroke:#000000;stroke-width:3.6px;stroke-linecap:round;stroke-miterlimit:1.5"
   id="path20" />
                </g>
                <g
   transform="translate(-1.92573,114.931)"
   id="g21">
                    <path
   d="m 883.379,810.506 c 2.038,-1.131 39.331,0.601 48.507,-1.693"
   style="fill:none;stroke:#000000;stroke-width:2.92px;stroke-linecap:round;stroke-miterlimit:1.5"
   id="path21" />
                </g>
                <g
   transform="translate(-8.77026,127.35885)"
   id="g22">
                    <path
   d="m 984.526,693.731 c -0.749,13.615 1.491,58.413 1.744,63.487"
   style="fill:none;stroke:#000000;stroke-width:2.92px;stroke-linecap:round;stroke-miterlimit:1.5"
   id="path22" />
                </g>
                <g
   transform="translate(-25.7141,-19.935)"
   id="g23">
                    <path
   d="m 989.114,427.901 c 4.232,1.114 5.495,2.825 0.306,54.71"
   style="fill:none;stroke:#000000;stroke-width:2.92px;stroke-linecap:round;stroke-miterlimit:1.5"
   id="path23" />
                </g>
                <g
   transform="translate(7.6726,-19.575)"
   id="g24">
                    <path
   d="m 877.317,506.118 c 10.812,0.764 10.422,-0.136 33.128,2.134 1.309,0.131 0.785,-0.176 16.41,1.026"
   style="fill:none;stroke:#000000;stroke-width:2.92px;stroke-linecap:round;stroke-miterlimit:1.5"
   id="path24" />
                </g>
                <g
   transform="translate(50.4497,-25.944)"
   id="g25">
                    <path
   d="m 1125.8,430.889 c -0.35,4.541 0.47,4.061 3.11,56.85"
   style="fill:none;stroke:#000000;stroke-width:2.92px;stroke-linecap:round;stroke-miterlimit:1.5"
   id="path25" />
                </g>
                <g
   transform="translate(46.6164,-52.581)"
   id="g26">
                    <path
   d="m 1154.36,536.4 c 29.06,-0.639 28.29,1.699 57.63,0.571"
   style="fill:none;stroke:#000000;stroke-width:2.92px;stroke-linecap:round;stroke-miterlimit:1.5"
   id="path26" />
                </g>
                <g
   transform="translate(45.8951,124.38359)"
   id="g27">
                    <path
   d="m 1126.07,698.266 c -1.82,29.124 2.7,28.802 -0.24,58.194"
   style="fill:none;stroke:#000000;stroke-width:2.92px;stroke-linecap:round;stroke-miterlimit:1.5"
   id="path27" />
                </g>
                <g
   transform="translate(41.6177,137.23625)"
   id="g28">
                    <path
   d="m 1160.62,660.787 c 4.44,0.052 24.7,0.287 55.47,2.339"
   style="fill:none;stroke:#000000;stroke-width:2.92px;stroke-linecap:round;stroke-miterlimit:1.5"
   id="path28" />
                </g>
                <g
   transform="translate(-36.7021,128.07683)"
   id="g29">
                    <path
   d="m 1332.94,700.574 c 2.07,8.436 1.34,8.256 3.15,51.783"
   style="fill:none;stroke:#000000;stroke-width:2.92px;stroke-linecap:round;stroke-miterlimit:1.5"
   id="path29" />
                </g>
            </g>
            <g
   transform="translate(65.4104,466.405)"
   id="g44">
                <g
   transform="translate(-162.102,0.762916)"
   id="g41">
                    <g
   transform="translate(-0.761988,23.8302)"
   id="g37">
                        <g
   transform="matrix(1,0,0,0.971503,-0.841145,23.4717)"
   id="g31">
                            <path
   d="m 609.861,626.103 v 53.185 c 0,2.191 -1.727,3.969 -3.855,3.969 h -7.712 c -2.128,0 -3.856,-1.778 -3.856,-3.969 v -53.185 c 0,-2.19 1.728,-3.969 3.856,-3.969 h 7.712 c 2.128,0 3.855,1.779 3.855,3.969 z"
   style="fill:#fff200;stroke:#000000;stroke-width:5.92px;stroke-linecap:round;stroke-miterlimit:1.5"
   id="path30" />
                        </g>
                        <g
   transform="matrix(1,0,0,1.28288,-18.153436,-254.25615)"
   id="g36">
                            <g
   transform="matrix(0.97110879,-0.3529835,0.54489562,0.91086652,-314.76108,332.43896)"
   id="g32">
                                <path
   d="m 583.523,612.768 v 14.339 c 0,3.956 -19.534,7.433 -23.491,7.433 h -26.384 c -3.957,0 -7.17,-3.213 -7.17,-7.17 v -14.338 c 0,-3.957 3.213,-7.17 7.17,-7.17 h 26.384 c 3.957,0 23.491,2.949 23.491,6.906 z"
   style="fill:#fff200;stroke:#000000;stroke-width:4.92px;stroke-linecap:round;stroke-miterlimit:1.5"
   id="path31" />
                            </g>
                            <g
   transform="matrix(-0.75766492,-0.59059687,-0.91169603,0.71066353,1664.6683,586.83333)"
   id="g33">
                                <path
   d="m 583.523,612.768 v 14.339 c 0,3.956 -19.534,7.433 -23.491,7.433 h -26.384 c -3.957,0 -7.17,-3.213 -7.17,-7.17 v -14.338 c 0,-3.957 3.213,-7.17 7.17,-7.17 h 26.384 c 3.957,0 23.491,2.949 23.491,6.906 z"
   style="fill:#fff200;stroke:#000000;stroke-width:4.92px;stroke-linecap:round;stroke-miterlimit:1.5"
   id="path32" />
                            </g>
                            <g
   transform="matrix(0.70710678,0.551187,-0.73728426,0.57471023,672.74608,-10.659027)"
   id="g34">
                                <path
   d="m 601.39,601.01 c 11.749,0 21.287,9.371 21.287,20.914 0,11.543 -9.477,13.635 -21.226,13.635 -11.748,0 -21.348,-2.092 -21.348,-13.635 0,-11.543 9.538,-20.914 21.287,-20.914 z"
   style="fill:#fff200;stroke:#000000;stroke-width:5.71px;stroke-linecap:round;stroke-miterlimit:1.5"
   id="path33" />
                            </g>
                            <g
   transform="matrix(0.70710678,0.551187,-0.90713315,0.70710678,772.35811,-87.851618)"
   id="g35">
                                <path
   d="m 623.811,613.482 c 17.055,7.179 55.083,-0.478 55.27,-0.666"
   style="fill:none;stroke:#000000;stroke-width:2.54px;stroke-linecap:round;stroke-miterlimit:1.5"
   id="path34" />
                            </g>
                            <path
   d="m 537.35261,715.60391 c 2.629,-1.68272 5.69121,4.02087 39.33416,-11.60183 5.84256,-2.71288 5.93088,-2.40294 11.10998,-5.83571"
   style="fill:none;stroke:#000000;stroke-width:2.54px;stroke-linecap:round;stroke-miterlimit:1.5"
   id="path35" />
                            <path
   d="m 644.38191,662.64951 c -0.34986,0.62107 -1.77075,3.1452 2.10563,7.11152 3.25382,3.32829 7.3799,3.20419 9.49609,3.37024"
   style="fill:none;stroke:#000000;stroke-width:2.54px;stroke-linecap:round;stroke-miterlimit:1.5"
   id="path36" />
                        </g>
                    </g>
                    <g
   transform="matrix(1.09291,0,0,0.866744,-55.2435,97.9199)"
   id="g38">
                        <path
   d="m 647.241,703.155 v 49.966 c 0,13.789 -8.878,24.983 -19.814,24.983 h -53.626 c -10.935,0 -19.813,-11.194 -19.813,-24.983 v -49.966 c 0,-13.788 8.878,-24.983 19.813,-24.983 h 53.626 c 10.936,0 19.814,11.195 19.814,24.983 z"
   style="fill:#fff200;stroke:#000000;stroke-width:5.91px;stroke-linecap:round;stroke-miterlimit:1.5"
   id="path37" />
                    </g>
                    <g
   transform="matrix(-1.0203,0,0,1,1147.74,0)"
   id="g39">
                        <path
   d="m 575.782,688.027 c -2.739,36.2 -0.522,79.124 -0.23,80.291"
   style="fill:none;stroke:#000000;stroke-width:2.89px;stroke-linecap:round;stroke-miterlimit:1.5"
   id="path38" />
                    </g>
                    <g
   transform="matrix(3.25185,0,0,1,-1401.29,0)"
   id="g40">
                        <path
   d="m 627.968,689.409 c 2.465,16.428 0.268,53.148 0.268,80.123"
   style="fill:none;stroke:#000000;stroke-width:1.21px;stroke-linecap:round;stroke-miterlimit:1.5"
   id="path39" />
                    </g>
                </g>
                <g
   transform="matrix(1.60437,0,0,1.60437,-342.171,-622.083)"
   id="g43">
                    <g
   transform="matrix(50,0,0,50,505.222,859.875)"
   id="g42">
                    </g>
                    <text
   x="469.11401"
   y="859.875"
   style="font-weight:700;font-size:50px;font-family:Arial-BoldMT, Arial, sans-serif"
   id="text42">A</text>
                </g>
            </g>
            <g
   transform="translate(244.326,845.771)"
   id="g58">
                <g
   transform="translate(-162.102,0.762916)"
   id="g55">
                    <g
   transform="translate(-0.761988,23.8302)"
   id="g51">
                        <g
   transform="matrix(1,0,0,0.971503,-0.841145,23.4717)"
   id="g45">
                            <path
   d="m 609.861,626.103 v 53.185 c 0,2.191 -1.727,3.969 -3.855,3.969 h -7.712 c -2.128,0 -3.856,-1.778 -3.856,-3.969 v -53.185 c 0,-2.19 1.728,-3.969 3.856,-3.969 h 7.712 c 2.128,0 3.855,1.779 3.855,3.969 z"
   style="fill:#fff200;stroke:#000000;stroke-width:5.92px;stroke-linecap:round;stroke-miterlimit:1.5"
   id="path44" />
                        </g>
                        <g
   transform="matrix(1,0,0,1.28288,0,-168.935)"
   id="g50">
                            <g
   transform="matrix(1.0715,0,0,1.00503,-40.9963,-11.4956)"
   id="g46">
                                <path
   d="m 583.523,612.768 v 14.339 c 0,3.956 -19.534,7.433 -23.491,7.433 h -26.384 c -3.957,0 -7.17,-3.213 -7.17,-7.17 v -14.338 c 0,-3.957 3.213,-7.17 7.17,-7.17 h 26.384 c 3.957,0 23.491,2.949 23.491,6.906 z"
   style="fill:#fff200;stroke:#000000;stroke-width:4.92px;stroke-linecap:round;stroke-miterlimit:1.5"
   id="path45" />
                            </g>
                            <g
   transform="matrix(-1.0715,0,0,1.00503,1243.4,-11.7127)"
   id="g47">
                                <path
   d="m 583.523,612.768 v 14.339 c 0,3.956 -19.534,7.433 -23.491,7.433 h -26.384 c -3.957,0 -7.17,-3.213 -7.17,-7.17 v -14.338 c 0,-3.957 3.213,-7.17 7.17,-7.17 h 26.384 c 3.957,0 23.491,2.949 23.491,6.906 z"
   style="fill:#fff200;stroke:#000000;stroke-width:4.92px;stroke-linecap:round;stroke-miterlimit:1.5"
   id="path46" />
                            </g>
                            <g
   transform="matrix(1,0,0,0.812763,0,112.531)"
   id="g48">
                                <path
   d="m 601.39,601.01 c 11.749,0 21.287,9.371 21.287,20.914 0,11.543 -9.477,13.635 -21.226,13.635 -11.748,0 -21.348,-2.092 -21.348,-13.635 0,-11.543 9.538,-20.914 21.287,-20.914 z"
   style="fill:#fff200;stroke:#000000;stroke-width:5.71px;stroke-linecap:round;stroke-miterlimit:1.5"
   id="path47" />
                            </g>
                            <g
   transform="translate(0.412381,3.04274)"
   id="g49">
                                <path
   d="m 623.811,613.482 c 17.055,7.179 55.083,-0.478 55.27,-0.666"
   style="fill:none;stroke:#000000;stroke-width:2.54px;stroke-linecap:round;stroke-miterlimit:1.5"
   id="path48" />
                            </g>
                            <path
   d="m 523.541,616.481 c 3.295,-0.659 2.978,5.519 41.939,2.443 6.766,-0.534 6.678,-0.224 13.233,-1.629"
   style="fill:none;stroke:#000000;stroke-width:2.54px;stroke-linecap:round;stroke-miterlimit:1.5"
   id="path49" />
                            <path
   d="m 590.724,604.266 c 0.316,0.632 1.601,3.2 7.94,3.868 5.32,0.56 8.125,-1.802 9.772,-2.851"
   style="fill:none;stroke:#000000;stroke-width:2.54px;stroke-linecap:round;stroke-miterlimit:1.5"
   id="path50" />
                        </g>
                    </g>
                    <g
   transform="matrix(1.09291,0,0,0.866744,-55.2435,97.9199)"
   id="g52">
                        <path
   d="m 647.241,703.155 v 49.966 c 0,13.789 -8.878,24.983 -19.814,24.983 h -53.626 c -10.935,0 -19.813,-11.194 -19.813,-24.983 v -49.966 c 0,-13.788 8.878,-24.983 19.813,-24.983 h 53.626 c 10.936,0 19.814,11.195 19.814,24.983 z"
   style="fill:#fff200;stroke:#000000;stroke-width:5.91px;stroke-linecap:round;stroke-miterlimit:1.5"
   id="path51" />
                    </g>
                    <g
   transform="matrix(-1.0203,0,0,1,1147.74,0)"
   id="g53">
                        <path
   d="m 575.782,688.027 c -2.739,36.2 -0.522,79.124 -0.23,80.291"
   style="fill:none;stroke:#000000;stroke-width:2.89px;stroke-linecap:round;stroke-miterlimit:1.5"
   id="path52" />
                    </g>
                    <g
   transform="matrix(3.25185,0,0,1,-1401.29,0)"
   id="g54">
                        <path
   d="m 627.968,689.409 c 2.465,16.428 0.268,53.148 0.268,80.123"
   style="fill:none;stroke:#000000;stroke-width:1.21px;stroke-linecap:round;stroke-miterlimit:1.5"
   id="path53" />
                    </g>
                </g>
                <g
   transform="matrix(1.60437,0,0,1.60437,-342.171,-622.083)"
   id="g57">
                    <g
   transform="matrix(50,0,0,50,505.222,859.875)"
   id="g56">
                    </g>
                    <text
   x="469.11401"
   y="859.875"
   style="font-weight:700;font-size:50px;font-family:Arial-BoldMT, Arial, sans-serif"
   id="text56">B</text>
                </g>
            </g>
            <g
   transform="rotate(90,391.797,1364.973)"
   id="g72">
                <g
   transform="translate(-162.102,0.762916)"
   id="g69">
                    <g
   transform="translate(-0.761988,23.8302)"
   id="g65">
                        <g
   transform="matrix(1,0,0,0.971503,-0.841145,23.4717)"
   id="g59">
                            <path
   d="m 609.861,626.103 v 53.185 c 0,2.191 -1.727,3.969 -3.855,3.969 h -7.712 c -2.128,0 -3.856,-1.778 -3.856,-3.969 v -53.185 c 0,-2.19 1.728,-3.969 3.856,-3.969 h 7.712 c 2.128,0 3.855,1.779 3.855,3.969 z"
   style="fill:#fff200;stroke:#000000;stroke-width:5.92px;stroke-linecap:round;stroke-miterlimit:1.5"
   id="path58" />
                        </g>
                        <g
   transform="matrix(1,0,0,1.28288,0,-168.935)"
   id="g64">
                            <g
   transform="matrix(1.0715,0,0,1.00503,-40.9963,-11.4956)"
   id="g60">
                                <path
   d="m 583.523,612.768 v 14.339 c 0,3.956 -19.534,7.433 -23.491,7.433 h -26.384 c -3.957,0 -7.17,-3.213 -7.17,-7.17 v -14.338 c 0,-3.957 3.213,-7.17 7.17,-7.17 h 26.384 c 3.957,0 23.491,2.949 23.491,6.906 z"
   style="fill:#fff200;stroke:#000000;stroke-width:4.92px;stroke-linecap:round;stroke-miterlimit:1.5"
   id="path59" />
                            </g>
                            <g
   transform="matrix(-1.0715,0,0,1.00503,1243.4,-11.7127)"
   id="g61">
                                <path
   d="m 583.523,612.768 v 14.339 c 0,3.956 -19.534,7.433 -23.491,7.433 h -26.384 c -3.957,0 -7.17,-3.213 -7.17,-7.17 v -14.338 c 0,-3.957 3.213,-7.17 7.17,-7.17 h 26.384 c 3.957,0 23.491,2.949 23.491,6.906 z"
   style="fill:#fff200;stroke:#000000;stroke-width:4.92px;stroke-linecap:round;stroke-miterlimit:1.5"
   id="path60" />
                            </g>
                            <g
   transform="matrix(1,0,0,0.812763,0,112.531)"
   id="g62">
                                <path
   d="m 601.39,601.01 c 11.749,0 21.287,9.371 21.287,20.914 0,11.543 -9.477,13.635 -21.226,13.635 -11.748,0 -21.348,-2.092 -21.348,-13.635 0,-11.543 9.538,-20.914 21.287,-20.914 z"
   style="fill:#fff200;stroke:#000000;stroke-width:5.71px;stroke-linecap:round;stroke-miterlimit:1.5"
   id="path61" />
                            </g>
                            <g
   transform="translate(0.412381,3.04274)"
   id="g63">
                                <path
   d="m 623.811,613.482 c 17.055,7.179 55.083,-0.478 55.27,-0.666"
   style="fill:none;stroke:#000000;stroke-width:2.54px;stroke-linecap:round;stroke-miterlimit:1.5"
   id="path62" />
                            </g>
                            <path
   d="m 523.541,616.481 c 3.295,-0.659 2.978,5.519 41.939,2.443 6.766,-0.534 6.678,-0.224 13.233,-1.629"
   style="fill:none;stroke:#000000;stroke-width:2.54px;stroke-linecap:round;stroke-miterlimit:1.5"
   id="path63" />
                            <path
   d="m 590.724,604.266 c 0.316,0.632 1.601,3.2 7.94,3.868 5.32,0.56 8.125,-1.802 9.772,-2.851"
   style="fill:none;stroke:#000000;stroke-width:2.54px;stroke-linecap:round;stroke-miterlimit:1.5"
   id="path64" />
                        </g>
                    </g>
                    <g
   transform="matrix(1.09291,0,0,0.866744,-55.2435,97.9199)"
   id="g66">
                        <path
   d="m 647.241,703.155 v 49.966 c 0,13.789 -8.878,24.983 -19.814,24.983 h -53.626 c -10.935,0 -19.813,-11.194 -19.813,-24.983 v -49.966 c 0,-13.788 8.878,-24.983 19.813,-24.983 h 53.626 c 10.936,0 19.814,11.195 19.814,24.983 z"
   style="fill:#fff200;stroke:#000000;stroke-width:5.91px;stroke-linecap:round;stroke-miterlimit:1.5"
   id="path65" />
                    </g>
                    <g
   transform="matrix(-1.0203,0,0,1,1147.74,0)"
   id="g67">
                        <path
   d="m 575.782,688.027 c -2.739,36.2 -0.522,79.124 -0.23,80.291"
   style="fill:none;stroke:#000000;stroke-width:2.89px;stroke-linecap:round;stroke-miterlimit:1.5"
   id="path66" />
                    </g>
                    <g
   transform="matrix(3.25185,0,0,1,-1401.29,0)"
   id="g68">
                        <path
   d="m 627.968,689.409 c 2.465,16.428 0.268,53.148 0.268,80.123"
   style="fill:none;stroke:#000000;stroke-width:1.21px;stroke-linecap:round;stroke-miterlimit:1.5"
   id="path67" />
                    </g>
                </g>
                <g
   transform="matrix(0,-1.60437,1.60437,0,-912.648,1511.72)"
   id="g71">
                    <g
   transform="matrix(50,0,0,50,502.463,859.875)"
   id="g70">
                    </g>
                    <text
   x="469.11401"
   y="859.875"
   style="font-weight:700;font-size:50px;font-family:Arial-BoldMT, Arial, sans-serif"
   id="text70">E</text>
                </g>
            </g>
            <g
   transform="matrix(0,1.01067,-1.01067,0,2084.82,497.236)"
   id="g86">
                <g
   transform="translate(-162.102,0.762916)"
   id="g83">
                    <g
   transform="translate(-0.761988,23.8302)"
   id="g79">
                        <g
   transform="matrix(1,0,0,0.971503,-0.841145,23.4717)"
   id="g73">
                            <path
   d="m 609.861,626.103 v 53.185 c 0,2.191 -1.727,3.969 -3.855,3.969 h -7.712 c -2.128,0 -3.856,-1.778 -3.856,-3.969 v -53.185 c 0,-2.19 1.728,-3.969 3.856,-3.969 h 7.712 c 2.128,0 3.855,1.779 3.855,3.969 z"
   style="fill:#fff200;stroke:#000000;stroke-width:5.85px;stroke-linecap:round;stroke-miterlimit:1.5"
   id="path72" />
                        </g>
                        <g
   transform="matrix(1,0,0,1.28288,0,-168.935)"
   id="g78">
                            <g
   transform="matrix(1.0715,0,0,1.00503,-40.9963,-11.4956)"
   id="g74">
                                <path
   d="m 583.523,612.768 v 14.339 c 0,3.956 -19.534,7.433 -23.491,7.433 h -26.384 c -3.957,0 -7.17,-3.213 -7.17,-7.17 v -14.338 c 0,-3.957 3.213,-7.17 7.17,-7.17 h 26.384 c 3.957,0 23.491,2.949 23.491,6.906 z"
   style="fill:#fff200;stroke:#000000;stroke-width:4.87px;stroke-linecap:round;stroke-miterlimit:1.5"
   id="path73" />
                            </g>
                            <g
   transform="matrix(-1.0715,0,0,1.00503,1243.4,-11.7127)"
   id="g75">
                                <path
   d="m 583.523,612.768 v 14.339 c 0,3.956 -19.534,7.433 -23.491,7.433 h -26.384 c -3.957,0 -7.17,-3.213 -7.17,-7.17 v -14.338 c 0,-3.957 3.213,-7.17 7.17,-7.17 h 26.384 c 3.957,0 23.491,2.949 23.491,6.906 z"
   style="fill:#fff200;stroke:#000000;stroke-width:4.87px;stroke-linecap:round;stroke-miterlimit:1.5"
   id="path74" />
                            </g>
                            <g
   transform="matrix(1,0,0,0.812763,0,112.531)"
   id="g76">
                                <path
   d="m 601.39,601.01 c 11.749,0 21.287,9.371 21.287,20.914 0,11.543 -9.477,13.635 -21.226,13.635 -11.748,0 -21.348,-2.092 -21.348,-13.635 0,-11.543 9.538,-20.914 21.287,-20.914 z"
   style="fill:#fff200;stroke:#000000;stroke-width:5.65px;stroke-linecap:round;stroke-miterlimit:1.5"
   id="path75" />
                            </g>
                            <g
   transform="translate(0.412381,3.04274)"
   id="g77">
                                <path
   d="m 623.811,613.482 c 17.055,7.179 55.083,-0.478 55.27,-0.666"
   style="fill:none;stroke:#000000;stroke-width:2.51px;stroke-linecap:round;stroke-miterlimit:1.5"
   id="path76" />
                            </g>
                            <path
   d="m 523.541,616.481 c 3.295,-0.659 2.978,5.519 41.939,2.443 6.766,-0.534 6.678,-0.224 13.233,-1.629"
   style="fill:none;stroke:#000000;stroke-width:2.51px;stroke-linecap:round;stroke-miterlimit:1.5"
   id="path77" />
                            <path
   d="m 590.724,604.266 c 0.316,0.632 1.601,3.2 7.94,3.868 5.32,0.56 8.125,-1.802 9.772,-2.851"
   style="fill:none;stroke:#000000;stroke-width:2.51px;stroke-linecap:round;stroke-miterlimit:1.5"
   id="path78" />
                        </g>
                    </g>
                    <g
   transform="matrix(1.09291,0,0,0.866744,-55.2435,97.9199)"
   id="g80">
                        <path
   d="m 647.241,703.155 v 49.966 c 0,13.789 -8.878,24.983 -19.814,24.983 h -53.626 c -10.935,0 -19.813,-11.194 -19.813,-24.983 v -49.966 c 0,-13.788 8.878,-24.983 19.813,-24.983 h 53.626 c 10.936,0 19.814,11.195 19.814,24.983 z"
   style="fill:#fff200;stroke:#000000;stroke-width:5.85px;stroke-linecap:round;stroke-miterlimit:1.5"
   id="path79" />
                    </g>
                    <g
   transform="matrix(-1.0203,0,0,1,1147.74,0)"
   id="g81">
                        <path
   d="m 575.782,688.027 c -2.739,36.2 -0.522,79.124 -0.23,80.291"
   style="fill:none;stroke:#000000;stroke-width:2.86px;stroke-linecap:round;stroke-miterlimit:1.5"
   id="path80" />
                    </g>
                    <g
   transform="matrix(3.25185,0,0,1,-1401.29,0)"
   id="g82">
                        <path
   d="m 627.968,689.409 c 2.465,16.428 0.268,53.148 0.268,80.123"
   style="fill:none;stroke:#000000;stroke-width:1.2px;stroke-linecap:round;stroke-miterlimit:1.5"
   id="path81" />
                    </g>
                </g>
                <g
   transform="matrix(0,-1.60437,1.60437,0,-912.648,1511.72)"
   id="g85">
                    <g
   transform="matrix(50,0,0,50,505.222,859.875)"
   id="g84">
                    </g>
                    <text
   x="469.11401"
   y="859.875"
   style="font-weight:700;font-size:50px;font-family:Arial-BoldMT, Arial, sans-serif"
   id="text84">H</text>
                </g>
            </g>
            <g
   transform="matrix(0,1,1,0,292.706,502.342)"
   id="g100">
                <g
   transform="translate(-162.102,0.762916)"
   id="g97">
                    <g
   transform="translate(-0.761988,23.8302)"
   id="g93">
                        <g
   transform="matrix(1,0,0,0.971503,-0.841145,23.4717)"
   id="g87">
                            <path
   d="m 609.861,626.103 v 53.185 c 0,2.191 -1.727,3.969 -3.855,3.969 h -7.712 c -2.128,0 -3.856,-1.778 -3.856,-3.969 v -53.185 c 0,-2.19 1.728,-3.969 3.856,-3.969 h 7.712 c 2.128,0 3.855,1.779 3.855,3.969 z"
   style="fill:#fff200;stroke:#000000;stroke-width:5.92px;stroke-linecap:round;stroke-miterlimit:1.5"
   id="path86" />
                        </g>
                        <g
   transform="matrix(1,0,0,1.28288,0,-168.935)"
   id="g92">
                            <g
   transform="matrix(1.0715,0,0,1.00503,-40.9963,-11.4956)"
   id="g88">
                                <path
   d="m 583.523,612.768 v 14.339 c 0,3.956 -19.534,7.433 -23.491,7.433 h -26.384 c -3.957,0 -7.17,-3.213 -7.17,-7.17 v -14.338 c 0,-3.957 3.213,-7.17 7.17,-7.17 h 26.384 c 3.957,0 23.491,2.949 23.491,6.906 z"
   style="fill:#fff200;stroke:#000000;stroke-width:4.92px;stroke-linecap:round;stroke-miterlimit:1.5"
   id="path87" />
                            </g>
                            <g
   transform="matrix(-1.0715,0,0,1.00503,1243.4,-11.7127)"
   id="g89">
                                <path
   d="m 583.523,612.768 v 14.339 c 0,3.956 -19.534,7.433 -23.491,7.433 h -26.384 c -3.957,0 -7.17,-3.213 -7.17,-7.17 v -14.338 c 0,-3.957 3.213,-7.17 7.17,-7.17 h 26.384 c 3.957,0 23.491,2.949 23.491,6.906 z"
   style="fill:#fff200;stroke:#000000;stroke-width:4.92px;stroke-linecap:round;stroke-miterlimit:1.5"
   id="path88" />
                            </g>
                            <g
   transform="matrix(1,0,0,0.812763,0,112.531)"
   id="g90">
                                <path
   d="m 601.39,601.01 c 11.749,0 21.287,9.371 21.287,20.914 0,11.543 -9.477,13.635 -21.226,13.635 -11.748,0 -21.348,-2.092 -21.348,-13.635 0,-11.543 9.538,-20.914 21.287,-20.914 z"
   style="fill:#fff200;stroke:#000000;stroke-width:5.71px;stroke-linecap:round;stroke-miterlimit:1.5"
   id="path89" />
                            </g>
                            <g
   transform="translate(0.412381,3.04274)"
   id="g91">
                                <path
   d="m 623.811,613.482 c 17.055,7.179 55.083,-0.478 55.27,-0.666"
   style="fill:none;stroke:#000000;stroke-width:2.54px;stroke-linecap:round;stroke-miterlimit:1.5"
   id="path90" />
                            </g>
                            <path
   d="m 523.541,616.481 c 3.295,-0.659 2.978,5.519 41.939,2.443 6.766,-0.534 6.678,-0.224 13.233,-1.629"
   style="fill:none;stroke:#000000;stroke-width:2.54px;stroke-linecap:round;stroke-miterlimit:1.5"
   id="path91" />
                            <path
   d="m 590.724,604.266 c 0.316,0.632 1.601,3.2 7.94,3.868 5.32,0.56 8.125,-1.802 9.772,-2.851"
   style="fill:none;stroke:#000000;stroke-width:2.54px;stroke-linecap:round;stroke-miterlimit:1.5"
   id="path92" />
                        </g>
                    </g>
                    <g
   transform="matrix(1.09291,0,0,0.866744,-55.2435,97.9199)"
   id="g94">
                        <path
   d="m 647.241,703.155 v 49.966 c 0,13.789 -8.878,24.983 -19.814,24.983 h -53.626 c -10.935,0 -19.813,-11.194 -19.813,-24.983 v -49.966 c 0,-13.788 8.878,-24.983 19.813,-24.983 h 53.626 c 10.936,0 19.814,11.195 19.814,24.983 z"
   style="fill:#fff200;stroke:#000000;stroke-width:5.91px;stroke-linecap:round;stroke-miterlimit:1.5"
   id="path93" />
                    </g>
                    <g
   transform="matrix(-1.0203,0,0,1,1147.74,0)"
   id="g95">
                        <path
   d="m 575.782,688.027 c -2.739,36.2 -0.522,79.124 -0.23,80.291"
   style="fill:none;stroke:#000000;stroke-width:2.89px;stroke-linecap:round;stroke-miterlimit:1.5"
   id="path94" />
                    </g>
                    <g
   transform="matrix(3.25185,0,0,1,-1401.29,0)"
   id="g96">
                        <path
   d="m 627.968,689.409 c 2.465,16.428 0.268,53.148 0.268,80.123"
   style="fill:none;stroke:#000000;stroke-width:1.21px;stroke-linecap:round;stroke-miterlimit:1.5"
   id="path95" />
                    </g>
                </g>
                <g
   transform="matrix(0,1.60437,1.60437,0,-912.648,-51.1561)"
   id="g99">
                    <g
   transform="matrix(50,0,0,50,505.222,859.875)"
   id="g98">
                    </g>
                    <text
   x="469.11401"
   y="859.875"
   style="font-weight:700;font-size:50px;font-family:Arial-BoldMT, Arial, sans-serif"
   id="text98">D</text>
                </g>
            </g>
            <g
   transform="translate(447.021,467.034)"
   id="g114">
                <g
   transform="translate(-162.102,0.762916)"
   id="g111">
                    <g
   transform="translate(-0.761988,23.8302)"
   id="g107">
                        <g
   transform="matrix(1,0,0,0.971503,-0.841145,23.4717)"
   id="g101">
                            <path
   d="m 609.861,626.103 v 53.185 c 0,2.191 -1.727,3.969 -3.855,3.969 h -7.712 c -2.128,0 -3.856,-1.778 -3.856,-3.969 v -53.185 c 0,-2.19 1.728,-3.969 3.856,-3.969 h 7.712 c 2.128,0 3.855,1.779 3.855,3.969 z"
   style="fill:#fff200;stroke:#000000;stroke-width:5.92px;stroke-linecap:round;stroke-miterlimit:1.5"
   id="path100" />
                        </g>
                        <g
   transform="matrix(1,0,0,1.28288,0,-168.935)"
   id="g106">
                            <g
   transform="matrix(1.0715,0,0,1.00503,-40.9963,-11.4956)"
   id="g102">
                                <path
   d="m 583.523,612.768 v 14.339 c 0,3.956 -19.534,7.433 -23.491,7.433 h -26.384 c -3.957,0 -7.17,-3.213 -7.17,-7.17 v -14.338 c 0,-3.957 3.213,-7.17 7.17,-7.17 h 26.384 c 3.957,0 23.491,2.949 23.491,6.906 z"
   style="fill:#fff200;stroke:#000000;stroke-width:4.92px;stroke-linecap:round;stroke-miterlimit:1.5"
   id="path101" />
                            </g>
                            <g
   transform="matrix(-1.0715,0,0,1.00503,1243.4,-11.7127)"
   id="g103">
                                <path
   d="m 583.523,612.768 v 14.339 c 0,3.956 -19.534,7.433 -23.491,7.433 h -26.384 c -3.957,0 -7.17,-3.213 -7.17,-7.17 v -14.338 c 0,-3.957 3.213,-7.17 7.17,-7.17 h 26.384 c 3.957,0 23.491,2.949 23.491,6.906 z"
   style="fill:#fff200;stroke:#000000;stroke-width:4.92px;stroke-linecap:round;stroke-miterlimit:1.5"
   id="path102" />
                            </g>
                            <g
   transform="matrix(1,0,0,0.812763,0,112.531)"
   id="g104">
                                <path
   d="m 601.39,601.01 c 11.749,0 21.287,9.371 21.287,20.914 0,11.543 -9.477,13.635 -21.226,13.635 -11.748,0 -21.348,-2.092 -21.348,-13.635 0,-11.543 9.538,-20.914 21.287,-20.914 z"
   style="fill:#fff200;stroke:#000000;stroke-width:5.71px;stroke-linecap:round;stroke-miterlimit:1.5"
   id="path103" />
                            </g>
                            <g
   transform="translate(0.412381,3.04274)"
   id="g105">
                                <path
   d="m 623.811,613.482 c 17.055,7.179 55.083,-0.478 55.27,-0.666"
   style="fill:none;stroke:#000000;stroke-width:2.54px;stroke-linecap:round;stroke-miterlimit:1.5"
   id="path104" />
                            </g>
                            <path
   d="m 523.541,616.481 c 3.295,-0.659 2.978,5.519 41.939,2.443 6.766,-0.534 6.678,-0.224 13.233,-1.629"
   style="fill:none;stroke:#000000;stroke-width:2.54px;stroke-linecap:round;stroke-miterlimit:1.5"
   id="path105" />
                            <path
   d="m 590.724,604.266 c 0.316,0.632 1.601,3.2 7.94,3.868 5.32,0.56 8.125,-1.802 9.772,-2.851"
   style="fill:none;stroke:#000000;stroke-width:2.54px;stroke-linecap:round;stroke-miterlimit:1.5"
   id="path106" />
                        </g>
                    </g>
                    <g
   transform="matrix(1.09291,0,0,0.866744,-55.2435,97.9199)"
   id="g108">
                        <path
   d="m 647.241,703.155 v 49.966 c 0,13.789 -8.878,24.983 -19.814,24.983 h -53.626 c -10.935,0 -19.813,-11.194 -19.813,-24.983 v -49.966 c 0,-13.788 8.878,-24.983 19.813,-24.983 h 53.626 c 10.936,0 19.814,11.195 19.814,24.983 z"
   style="fill:#fff200;stroke:#000000;stroke-width:5.91px;stroke-linecap:round;stroke-miterlimit:1.5"
   id="path107" />
                    </g>
                    <g
   transform="matrix(-1.0203,0,0,1,1147.74,0)"
   id="g109">
                        <path
   d="m 575.782,688.027 c -2.739,36.2 -0.522,79.124 -0.23,80.291"
   style="fill:none;stroke:#000000;stroke-width:2.89px;stroke-linecap:round;stroke-miterlimit:1.5"
   id="path108" />
                    </g>
                    <g
   transform="matrix(3.25185,0,0,1,-1401.29,0)"
   id="g110">
                        <path
   d="m 627.968,689.409 c 2.465,16.428 0.268,53.148 0.268,80.123"
   style="fill:none;stroke:#000000;stroke-width:1.21px;stroke-linecap:round;stroke-miterlimit:1.5"
   id="path109" />
                    </g>
                </g>
                <g
   transform="matrix(1.60437,0,0,1.60437,-342.171,-622.083)"
   id="g113">
                    <g
   transform="matrix(50,0,0,50,505.222,859.875)"
   id="g112">
                    </g>
                    <text
   x="469.11401"
   y="859.875"
   style="font-weight:700;font-size:50px;font-family:Arial-BoldMT, Arial, sans-serif"
   id="text112">C</text>
                </g>
            </g>
            <g
   transform="translate(747.595,44.9053)"
   id="g128">
                <g
   transform="translate(-162.102,0.762916)"
   id="g125">
                    <g
   transform="translate(-0.761988,23.8302)"
   id="g121">
                        <g
   transform="matrix(1,0,0,0.971503,-0.841145,23.4717)"
   id="g115">
                            <path
   d="m 609.861,626.103 v 53.185 c 0,2.191 -1.727,3.969 -3.855,3.969 h -7.712 c -2.128,0 -3.856,-1.778 -3.856,-3.969 v -53.185 c 0,-2.19 1.728,-3.969 3.856,-3.969 h 7.712 c 2.128,0 3.855,1.779 3.855,3.969 z"
   style="fill:#fff200;stroke:#000000;stroke-width:5.92px;stroke-linecap:round;stroke-miterlimit:1.5"
   id="path114" />
                        </g>
                        <g
   transform="matrix(1,0,0,1.28288,0,-168.935)"
   id="g120">
                            <g
   transform="matrix(1.0715,0,0,1.00503,-40.9963,-11.4956)"
   id="g116">
                                <path
   d="m 583.523,612.768 v 14.339 c 0,3.956 -19.534,7.433 -23.491,7.433 h -26.384 c -3.957,0 -7.17,-3.213 -7.17,-7.17 v -14.338 c 0,-3.957 3.213,-7.17 7.17,-7.17 h 26.384 c 3.957,0 23.491,2.949 23.491,6.906 z"
   style="fill:#fff200;stroke:#000000;stroke-width:4.92px;stroke-linecap:round;stroke-miterlimit:1.5"
   id="path115" />
                            </g>
                            <g
   transform="matrix(-1.0715,0,0,1.00503,1243.4,-11.7127)"
   id="g117">
                                <path
   d="m 583.523,612.768 v 14.339 c 0,3.956 -19.534,7.433 -23.491,7.433 h -26.384 c -3.957,0 -7.17,-3.213 -7.17,-7.17 v -14.338 c 0,-3.957 3.213,-7.17 7.17,-7.17 h 26.384 c 3.957,0 23.491,2.949 23.491,6.906 z"
   style="fill:#fff200;stroke:#000000;stroke-width:4.92px;stroke-linecap:round;stroke-miterlimit:1.5"
   id="path116" />
                            </g>
                            <g
   transform="matrix(1,0,0,0.812763,0,112.531)"
   id="g118">
                                <path
   d="m 601.39,601.01 c 11.749,0 21.287,9.371 21.287,20.914 0,11.543 -9.477,13.635 -21.226,13.635 -11.748,0 -21.348,-2.092 -21.348,-13.635 0,-11.543 9.538,-20.914 21.287,-20.914 z"
   style="fill:#fff200;stroke:#000000;stroke-width:5.71px;stroke-linecap:round;stroke-miterlimit:1.5"
   id="path117" />
                            </g>
                            <g
   transform="translate(0.412381,3.04274)"
   id="g119">
                                <path
   d="m 623.811,613.482 c 17.055,7.179 55.083,-0.478 55.27,-0.666"
   style="fill:none;stroke:#000000;stroke-width:2.54px;stroke-linecap:round;stroke-miterlimit:1.5"
   id="path118" />
                            </g>
                            <path
   d="m 523.541,616.481 c 3.295,-0.659 2.978,5.519 41.939,2.443 6.766,-0.534 6.678,-0.224 13.233,-1.629"
   style="fill:none;stroke:#000000;stroke-width:2.54px;stroke-linecap:round;stroke-miterlimit:1.5"
   id="path119" />
                            <path
   d="m 590.724,604.266 c 0.316,0.632 1.601,3.2 7.94,3.868 5.32,0.56 8.125,-1.802 9.772,-2.851"
   style="fill:none;stroke:#000000;stroke-width:2.54px;stroke-linecap:round;stroke-miterlimit:1.5"
   id="path120" />
                        </g>
                    </g>
                    <g
   transform="matrix(1.09291,0,0,0.866744,-55.2435,97.9199)"
   id="g122">
                        <path
   d="m 647.241,703.155 v 49.966 c 0,13.789 -8.878,24.983 -19.814,24.983 h -53.626 c -10.935,0 -19.813,-11.194 -19.813,-24.983 v -49.966 c 0,-13.788 8.878,-24.983 19.813,-24.983 h 53.626 c 10.936,0 19.814,11.195 19.814,24.983 z"
   style="fill:#fff200;stroke:#000000;stroke-width:5.91px;stroke-linecap:round;stroke-miterlimit:1.5"
   id="path121" />
                    </g>
                    <g
   transform="matrix(-1.0203,0,0,1,1147.74,0)"
   id="g123">
                        <path
   d="m 575.782,688.027 c -2.739,36.2 -0.522,79.124 -0.23,80.291"
   style="fill:none;stroke:#000000;stroke-width:2.89px;stroke-linecap:round;stroke-miterlimit:1.5"
   id="path122" />
                    </g>
                    <g
   transform="matrix(3.25185,0,0,1,-1401.29,0)"
   id="g124">
                        <path
   d="m 627.968,689.409 c 2.465,16.428 0.268,53.148 0.268,80.123"
   style="fill:none;stroke:#000000;stroke-width:1.21px;stroke-linecap:round;stroke-miterlimit:1.5"
   id="path123" />
                    </g>
                </g>
                <g
   transform="matrix(1.60437,0,0,1.60437,-342.171,-622.083)"
   id="g127">
                    <g
   transform="matrix(50,0,0,50,499.656,859.875)"
   id="g126">
                    </g>
                    <text
   x="469.11401"
   y="859.875"
   style="font-weight:700;font-size:50px;font-family:Arial-BoldMT, Arial, sans-serif"
   id="text126">F</text>
                </g>
            </g>
            <g
   transform="translate(746.885,467.442)"
   id="g142">
                <g
   transform="translate(-162.102,0.762916)"
   id="g139">
                    <g
   transform="translate(-0.761988,23.8302)"
   id="g135">
                        <g
   transform="matrix(1,0,0,0.971503,-0.841145,23.4717)"
   id="g129">
                            <path
   d="m 609.861,626.103 v 53.185 c 0,2.191 -1.727,3.969 -3.855,3.969 h -7.712 c -2.128,0 -3.856,-1.778 -3.856,-3.969 v -53.185 c 0,-2.19 1.728,-3.969 3.856,-3.969 h 7.712 c 2.128,0 3.855,1.779 3.855,3.969 z"
   style="fill:#fff200;stroke:#000000;stroke-width:5.92px;stroke-linecap:round;stroke-miterlimit:1.5"
   id="path128" />
                        </g>
                        <g
   transform="matrix(1,0,0,1.28288,0,-168.935)"
   id="g134">
                            <g
   transform="matrix(1.0715,0,0,1.00503,-40.9963,-11.4956)"
   id="g130">
                                <path
   d="m 583.523,612.768 v 14.339 c 0,3.956 -19.534,7.433 -23.491,7.433 h -26.384 c -3.957,0 -7.17,-3.213 -7.17,-7.17 v -14.338 c 0,-3.957 3.213,-7.17 7.17,-7.17 h 26.384 c 3.957,0 23.491,2.949 23.491,6.906 z"
   style="fill:#fff200;stroke:#000000;stroke-width:4.92px;stroke-linecap:round;stroke-miterlimit:1.5"
   id="path129" />
                            </g>
                            <g
   transform="matrix(-1.0715,0,0,1.00503,1243.4,-11.7127)"
   id="g131">
                                <path
   d="m 583.523,612.768 v 14.339 c 0,3.956 -19.534,7.433 -23.491,7.433 h -26.384 c -3.957,0 -7.17,-3.213 -7.17,-7.17 v -14.338 c 0,-3.957 3.213,-7.17 7.17,-7.17 h 26.384 c 3.957,0 23.491,2.949 23.491,6.906 z"
   style="fill:#fff200;stroke:#000000;stroke-width:4.92px;stroke-linecap:round;stroke-miterlimit:1.5"
   id="path130" />
                            </g>
                            <g
   transform="matrix(1,0,0,0.812763,0,112.531)"
   id="g132">
                                <path
   d="m 601.39,601.01 c 11.749,0 21.287,9.371 21.287,20.914 0,11.543 -9.477,13.635 -21.226,13.635 -11.748,0 -21.348,-2.092 -21.348,-13.635 0,-11.543 9.538,-20.914 21.287,-20.914 z"
   style="fill:#fff200;stroke:#000000;stroke-width:5.71px;stroke-linecap:round;stroke-miterlimit:1.5"
   id="path131" />
                            </g>
                            <g
   transform="translate(0.412381,3.04274)"
   id="g133">
                                <path
   d="m 623.811,613.482 c 17.055,7.179 55.083,-0.478 55.27,-0.666"
   style="fill:none;stroke:#000000;stroke-width:2.54px;stroke-linecap:round;stroke-miterlimit:1.5"
   id="path132" />
                            </g>
                            <path
   d="m 523.541,616.481 c 3.295,-0.659 2.978,5.519 41.939,2.443 6.766,-0.534 6.678,-0.224 13.233,-1.629"
   style="fill:none;stroke:#000000;stroke-width:2.54px;stroke-linecap:round;stroke-miterlimit:1.5"
   id="path133" />
                            <path
   d="m 590.724,604.266 c 0.316,0.632 1.601,3.2 7.94,3.868 5.32,0.56 8.125,-1.802 9.772,-2.851"
   style="fill:none;stroke:#000000;stroke-width:2.54px;stroke-linecap:round;stroke-miterlimit:1.5"
   id="path134" />
                        </g>
                    </g>
                    <g
   transform="matrix(1.09291,0,0,0.866744,-55.2435,97.9199)"
   id="g136">
                        <path
   d="m 647.241,703.155 v 49.966 c 0,13.789 -8.878,24.983 -19.814,24.983 h -53.626 c -10.935,0 -19.813,-11.194 -19.813,-24.983 v -49.966 c 0,-13.788 8.878,-24.983 19.813,-24.983 h 53.626 c 10.936,0 19.814,11.195 19.814,24.983 z"
   style="fill:#fff200;stroke:#000000;stroke-width:5.91px;stroke-linecap:round;stroke-miterlimit:1.5"
   id="path135" />
                    </g>
                    <g
   transform="matrix(-1.0203,0,0,1,1147.74,0)"
   id="g137">
                        <path
   d="m 575.782,688.027 c -2.739,36.2 -0.522,79.124 -0.23,80.291"
   style="fill:none;stroke:#000000;stroke-width:2.89px;stroke-linecap:round;stroke-miterlimit:1.5"
   id="path136" />
                    </g>
                    <g
   transform="matrix(3.25185,0,0,1,-1401.29,0)"
   id="g138">
                        <path
   d="m 627.968,689.409 c 2.465,16.428 0.268,53.148 0.268,80.123"
   style="fill:none;stroke:#000000;stroke-width:1.21px;stroke-linecap:round;stroke-miterlimit:1.5"
   id="path137" />
                    </g>
                </g>
                <g
   transform="matrix(1.60437,0,0,1.60437,-342.171,-622.083)"
   id="g141">
                    <g
   transform="matrix(50,0,0,50,506.614,859.875)"
   id="g140">
                    </g>
                    <text
   x="467.72198"
   y="859.875"
   style="font-weight:700;font-size:50px;font-family:Arial-BoldMT, Arial, sans-serif"
   id="text140">G</text>
                </g>
            </g>
            <g
   transform="translate(1114.43,467.442)"
   id="g156">
                <g
   transform="translate(-162.102,0.762916)"
   id="g153">
                    <g
   transform="translate(-0.761988,23.8302)"
   id="g149">
                        <g
   transform="matrix(1,0,0,0.971503,-0.841145,23.4717)"
   id="g143">
                            <path
   d="m 609.861,626.103 v 53.185 c 0,2.191 -1.727,3.969 -3.855,3.969 h -7.712 c -2.128,0 -3.856,-1.778 -3.856,-3.969 v -53.185 c 0,-2.19 1.728,-3.969 3.856,-3.969 h 7.712 c 2.128,0 3.855,1.779 3.855,3.969 z"
   style="fill:#fff200;stroke:#000000;stroke-width:5.92px;stroke-linecap:round;stroke-miterlimit:1.5"
   id="path142" />
                        </g>
                        <g
   transform="matrix(1,0,0,1.28288,0,-168.935)"
   id="g148">
                            <g
   transform="matrix(1.0715,0,0,1.00503,-40.9963,-11.4956)"
   id="g144">
                                <path
   d="m 583.523,612.768 v 14.339 c 0,3.956 -19.534,7.433 -23.491,7.433 h -26.384 c -3.957,0 -7.17,-3.213 -7.17,-7.17 v -14.338 c 0,-3.957 3.213,-7.17 7.17,-7.17 h 26.384 c 3.957,0 23.491,2.949 23.491,6.906 z"
   style="fill:#fff200;stroke:#000000;stroke-width:4.92px;stroke-linecap:round;stroke-miterlimit:1.5"
   id="path143" />
                            </g>
                            <g
   transform="matrix(-1.0715,0,0,1.00503,1243.4,-11.7127)"
   id="g145">
                                <path
   d="m 583.523,612.768 v 14.339 c 0,3.956 -19.534,7.433 -23.491,7.433 h -26.384 c -3.957,0 -7.17,-3.213 -7.17,-7.17 v -14.338 c 0,-3.957 3.213,-7.17 7.17,-7.17 h 26.384 c 3.957,0 23.491,2.949 23.491,6.906 z"
   style="fill:#fff200;stroke:#000000;stroke-width:4.92px;stroke-linecap:round;stroke-miterlimit:1.5"
   id="path144" />
                            </g>
                            <g
   transform="matrix(1,0,0,0.812763,0,112.531)"
   id="g146">
                                <path
   d="m 601.39,601.01 c 11.749,0 21.287,9.371 21.287,20.914 0,11.543 -9.477,13.635 -21.226,13.635 -11.748,0 -21.348,-2.092 -21.348,-13.635 0,-11.543 9.538,-20.914 21.287,-20.914 z"
   style="fill:#fff200;stroke:#000000;stroke-width:5.71px;stroke-linecap:round;stroke-miterlimit:1.5"
   id="path145" />
                            </g>
                            <g
   transform="translate(0.412381,3.04274)"
   id="g147">
                                <path
   d="m 623.811,613.482 c 17.055,7.179 55.083,-0.478 55.27,-0.666"
   style="fill:none;stroke:#000000;stroke-width:2.54px;stroke-linecap:round;stroke-miterlimit:1.5"
   id="path146" />
                            </g>
                            <path
   d="m 523.541,616.481 c 3.295,-0.659 2.978,5.519 41.939,2.443 6.766,-0.534 6.678,-0.224 13.233,-1.629"
   style="fill:none;stroke:#000000;stroke-width:2.54px;stroke-linecap:round;stroke-miterlimit:1.5"
   id="path147" />
                            <path
   d="m 590.724,604.266 c 0.316,0.632 1.601,3.2 7.94,3.868 5.32,0.56 8.125,-1.802 9.772,-2.851"
   style="fill:none;stroke:#000000;stroke-width:2.54px;stroke-linecap:round;stroke-miterlimit:1.5"
   id="path148" />
                        </g>
                    </g>
                    <g
   transform="matrix(1.09291,0,0,0.866744,-55.2435,97.9199)"
   id="g150">
                        <path
   d="m 647.241,703.155 v 49.966 c 0,13.789 -8.878,24.983 -19.814,24.983 h -53.626 c -10.935,0 -19.813,-11.194 -19.813,-24.983 v -49.966 c 0,-13.788 8.878,-24.983 19.813,-24.983 h 53.626 c 10.936,0 19.814,11.195 19.814,24.983 z"
   style="fill:#fff200;stroke:#000000;stroke-width:5.91px;stroke-linecap:round;stroke-miterlimit:1.5"
   id="path149" />
                    </g>
                    <g
   transform="matrix(-1.0203,0,0,1,1147.74,0)"
   id="g151">
                        <path
   d="m 575.782,688.027 c -2.739,36.2 -0.522,79.124 -0.23,80.291"
   style="fill:none;stroke:#000000;stroke-width:2.89px;stroke-linecap:round;stroke-miterlimit:1.5"
   id="path150" />
                    </g>
                    <g
   transform="matrix(3.25185,0,0,1,-1401.29,0)"
   id="g152">
                        <path
   d="m 627.968,689.409 c 2.465,16.428 0.268,53.148 0.268,80.123"
   style="fill:none;stroke:#000000;stroke-width:1.21px;stroke-linecap:round;stroke-miterlimit:1.5"
   id="path151" />
                    </g>
                </g>
                <g
   transform="matrix(1.60437,0,0,1.60437,-324.43,-621.563)"
   id="g155">
                    <g
   transform="matrix(50,0,0,50,483.005,859.875)"
   id="g154">
                    </g>
                    <text
   x="469.11401"
   y="859.875"
   style="font-weight:700;font-size:50px;font-family:Arial-BoldMT, Arial, sans-serif"
   id="text154">I</text>
                </g>
            </g>
            <g
   transform="translate(-29.1013,273.693)"
   id="g157">
                <path
   d="m 1660.51,1028.23 c -1.52,15.46 -24.55,65.21 -7.25,77.19 3.13,2.16 37.8,13.18 18.69,-35.95 -5.81,-14.94 -12.72,-33.54 -11.44,-41.24 z"
   style="fill:#00b9f1;stroke:#000000;stroke-width:2.92px;stroke-linecap:round;stroke-miterlimit:1.5"
   id="path156" />
            </g>
            <g
   transform="translate(36.4022,156.8)"
   id="g174">
                <g
   id="g169">
                    <g
   transform="matrix(1.16141,0.129718,-0.132233,1.13933,-31.4891,-150.94)"
   id="g158">
                        <path
   d="m 443.575,235.212 c -6.354,3.995 -60.327,37.927 -80.122,48.814 -1.733,0.953 -1.267,1.568 -20.237,14.214 -7.344,4.896 -9.986,9.316 -1.445,11.564 18.712,4.924 22.1,10.591 35.414,6.263 33.114,-10.761 31.009,-15.616 93.716,-41.437 8.825,-3.634 17.1,-7.954 48.476,-22.182 -16.062,0.814 -15.897,-0.601 -31.612,-3.837 -2.577,-0.53 -21.419,-7.389 -24.091,-10.359 -4.861,-5.4 -4.664,-5.63 -11.03,-8.948 -2.555,1.463 -2.954,1.119 -9.069,5.908 z"
   style="fill:#dbdcde"
   id="path157" />
                    </g>
                    <g
   transform="matrix(1.16141,0.129718,-0.132233,1.13933,-31.4891,-150.94)"
   id="g159">
                        <path
   d="m 429.53,169.013 c -6.347,-14.664 -8.754,-40.281 13.706,-38.342 59.375,5.125 110.412,37.217 113.33,68.996 -46.718,-18.025 -124.545,-24.9 -127.036,-30.654 z"
   style="fill:#dbdcde"
   id="path158" />
                    </g>
                    <g
   transform="matrix(1.16141,0.129718,-0.132233,1.13933,-31.4891,-150.94)"
   id="g160">
                        <path
   d="m 437.832,108.078 c -94.772,88.496 -118.287,105.596 -132.95,126.436 -1.185,1.684 -11.393,28.911 6.798,55.476 15.898,23.217 43.084,39.695 72.543,28.332 43.628,-16.827 83.1,-36.803 117.844,-53.143 21.881,-10.29 39.423,-16.118 49.976,-28.143 C 571.092,215.33 562.609,163.362 530.274,125.148 491.947,79.852 444.5,104.6 437.832,108.078 Z"
   style="fill:none;stroke:#000000;stroke-width:5.05px;stroke-linecap:round;stroke-miterlimit:1.5"
   id="path159" />
                    </g>
                    <g
   transform="matrix(1.16141,0.129718,-0.132233,1.13933,-31.4891,-150.94)"
   id="g161">
                        <path
   d="m 437.041,111.182 c -13.328,11.635 -16.762,31.373 -12.585,52.257"
   style="fill:none;stroke:#000000;stroke-width:2.52px;stroke-linecap:round;stroke-miterlimit:1.5"
   id="path160" />
                    </g>
                    <g
   transform="matrix(1.16141,0.129718,-0.132233,1.13933,-31.4891,-150.94)"
   id="g162">
                        <path
   d="m 416.73,127.682 c -19.365,41.7 17.236,129.752 101.12,129.655"
   style="fill:none;stroke:#000000;stroke-width:2.52px;stroke-linecap:round;stroke-miterlimit:1.5"
   id="path161" />
                    </g>
                    <g
   transform="matrix(1.16141,0.129718,-0.132233,1.13933,-31.4891,-150.94)"
   id="g163">
                        <path
   d="m 313.64,231.717 c -14.668,50.008 28.282,90.391 72.863,86.301"
   style="fill:none;stroke:#000000;stroke-width:2.52px;stroke-linecap:round;stroke-miterlimit:1.5"
   id="path162" />
                    </g>
                    <g
   transform="matrix(0.814938,0.147316,-0.203981,1.1284,94.0668,-117.696)"
   id="g164">
                        <path
   d="m 613.679,218.123 c 0,0 -2.423,31.26 9.449,33.86 18.457,4.042 4.869,-26.733 -9.449,-33.86 z"
   style="fill:#00b9f1;stroke:#000000;stroke-width:2.92px;stroke-linecap:round;stroke-miterlimit:1.5"
   id="path163" />
                    </g>
                    <g
   transform="matrix(1.1605,-0.139978,0.137316,1.13844,-83.6113,58.786)"
   id="g165">
                        <path
   d="m 605.722,177.492 c 29.639,33.491 21.955,59.035 35.66,51.204 19.061,-10.892 -13.039,-44.494 -35.66,-51.204 z"
   style="fill:#00b9f1;stroke:#000000;stroke-width:2.52px;stroke-linecap:round;stroke-miterlimit:1.5"
   id="path164" />
                    </g>
                    <g
   transform="matrix(0.659009,0.016296,-0.0384206,0.907596,238.674,-28.2236)"
   id="g166">
                        <path
   d="m 587.362,166.896 c 40.796,3.163 54.119,23.447 38.202,21.678 -15.142,-1.682 -12.513,-8.739 -49.645,-22.222 5.828,0.246 5.688,0.226 11.443,0.544 z"
   style="fill:#00b9f1;stroke:#000000;stroke-width:3.71px;stroke-linecap:round;stroke-miterlimit:1.5"
   id="path165" />
                    </g>
                    <g
   transform="matrix(1.16141,0.129718,-0.132233,1.13933,-31.4891,-150.94)"
   id="g167">
                        <path
   d="m 559.669,303.248 c -3.59,-4.897 0.623,-53.123 -44.605,-57.123 -78.878,-6.977 -90.587,-82.444 -90.4,-82.564 48.073,-2.692 89.334,9.005 113.968,18.118 84.603,41.323 90.275,110.696 90.275,110.696 l -32.978,4.398 z"
   style="fill:#00b9f1;stroke:#000000;stroke-width:2.52px;stroke-linecap:round;stroke-miterlimit:1.5"
   id="path166" />
                    </g>
                    <g
   transform="matrix(0.723034,0.164077,-0.1222,0.502265,200.067,-22.5098)"
   id="g168">
                        <path
   d="m 489.621,136.22 c 27.899,2.79 34.19,10.64 43.835,16.575 -4.846,0.164 -16.606,2.237 -26.742,-2.59 -16.157,-7.694 -32.713,-12.265 -17.093,-13.985 z"
   style="fill:#ffffff"
   id="path167" />
                    </g>
                </g>
                <path
   d="m 497.297,158.197 c 22.458,1.97 57.112,10.382 77.71,52.527 12.179,24.916 9.737,39.489 13.349,52.658 5.923,-17.402 6.181,-42.375 -11.502,-67.562 -19.29,-27.477 -43.958,-40.361 -79.557,-37.623 z"
   style="fill:#ffffff"
   id="path169" />
                <path
   d="m 584.01,171.683 c 0,0 26.511,17.879 46.761,90.233 -3.928,-39.664 -11.902,-44.501 -20.866,-63.425 -7.309,-15.429 -23.352,-25.251 -25.895,-26.808 z"
   style="fill:#ffffff"
   id="path170" />
                <path
   d="m 609.495,266.703 c -0.04,-23.084 -8.252,-49.498 -23.244,-74.717 21.294,21.379 29.157,45.088 34.328,73.637 0.463,2.554 -8.252,4.144 -11.084,1.08 z"
   style="fill:#ffffff"
   id="path171" />
                <path
   d="m 595.944,159.74 c 4.884,3.938 26.506,21.373 44.901,64.295 -8.883,-35.532 -42.297,-65.86 -44.901,-64.295 z"
   style="fill:#ffffff"
   id="path172" />
                <g
   transform="translate(4.8799,-0.218099)"
   id="g173">
                    <path
   d="m 672.8,202.276 c 1.947,5.751 9.834,17.108 10.857,10.966 0.051,-0.304 -1.619,-6.486 -10.857,-10.966 z"
   style="fill:#ffffff"
   id="path173" />
                </g>
            </g>
            <g
   transform="translate(-9.85918,252.241)"
   id="g175">
                <path
   d="M 818.838,197.218 702.93,342.616 c -11.492,-1.792 -23.252,-1.543 -35.229,0.358 L 550.098,196.213 c 9.102,-36.407 257.769,-34.938 268.74,1.005 z"
   style="fill:none;stroke:#000000;stroke-width:5.83px;stroke-linecap:round;stroke-miterlimit:1.5"
   id="path174" />
            </g>
            <g
   transform="translate(-17.0754,256.146)"
   id="g176">
                <path
   d="m 565.324,198.367 c 15.348,-10.157 34.851,-13.743 64.053,-16.279 50.714,-4.405 110.095,1.363 118.514,2.766"
   style="fill:none;stroke:#000000;stroke-width:2.92px;stroke-linecap:round;stroke-miterlimit:1.5"
   id="path175" />
            </g>
            <g
   transform="translate(-9.85918,252.241)"
   id="g177">
                <path
   d="m 670.982,331.917 c 5.807,-2.358 11.994,-1.284 12.072,-1.28"
   style="fill:none;stroke:#000000;stroke-width:2.92px;stroke-linecap:round;stroke-miterlimit:1.5"
   id="path176" />
            </g>
            <g
   transform="translate(-9.85918,252.241)"
   id="g178">
                <path
   d="m 658.146,323.362 c 12.795,-4.729 35.478,-4.639 36.505,-3.612"
   style="fill:none;stroke:#000000;stroke-width:2.92px;stroke-linecap:round;stroke-miterlimit:1.5"
   id="path177" />
            </g>
            <g
   transform="translate(-9.85918,281.987)"
   id="g179">
                <path
   d="m 1061.35,685.611 -14.33,1.433"
   style="fill:none;stroke:#000000;stroke-width:4.17px;stroke-linecap:round;stroke-miterlimit:1.5"
   id="path178" />
            </g>
        </g>
    </g>
</svg>
