<?xml version="1.0" encoding="UTF-8" standalone="no"?>
<svg
   width="15.460006mm"
   height="12.194577mm"
   clip-rule="evenodd"
   fill-rule="evenodd"
   image-rendering="optimizeQuality"
   shape-rendering="geometricPrecision"
   text-rendering="geometricPrecision"
   version="1.1"
   viewBox="0 0 1560.8629 1231.1773"
   id="svg950"
   sodipodi:docname="monday.svg"
   inkscape:version="1.4.2 (ebf0e940, 2025-05-08)"
   xml:space="preserve"
   xmlns:inkscape="http://www.inkscape.org/namespaces/inkscape"
   xmlns:sodipodi="http://sodipodi.sourceforge.net/DTD/sodipodi-0.dtd"
   xmlns="http://www.w3.org/2000/svg"
   xmlns:svg="http://www.w3.org/2000/svg"><sodipodi:namedview
     id="namedview950"
     pagecolor="#ffffff"
     bordercolor="#000000"
     borderopacity="0.25"
     inkscape:showpageshadow="2"
     inkscape:pageopacity="0.0"
     inkscape:pagecheckerboard="0"
     inkscape:deskcolor="#d1d1d1"
     inkscape:document-units="mm"
     showgrid="false"
     inkscape:zoom="1.12"
     inkscape:cx="178.57143"
     inkscape:cy="299.10714"
     inkscape:window-width="2560"
     inkscape:window-height="1387"
     inkscape:window-x="1847"
     inkscape:window-y="49"
     inkscape:window-maximized="0"
     inkscape:current-layer="svg950"
     showguides="true" /><defs
     id="defs1"><style
       type="text/css"
       id="style1">.fil22 {fill:none} .fil9 {fill:black} .fil39 {fill:#114A57} .fil38 {fill:#156274} .fil8 {fill:#1B4577} .fil32 {fill:#31704A} .fil7 {fill:#408780} .fil63 {fill:#416621} .fil11 {fill:#4F7DB5} .fil61 {fill:#5A9129} .fil41 {fill:#631718} .fil34 {fill:#633012} .fil31 {fill:#64B383} .fil4 {fill:#64BAB1} .fil53 {fill:#666666} .fil77 {fill:#6699FF} .fil59 {fill:#6C9147} .fil44 {fill:#6F9C6F} .fil3 {fill:#783E1C} .fil15 {fill:#7A4D74} .fil50 {fill:#803F1F} .fil6 {fill:#88E3DA} .fil62 {fill:#8AD946} .fil37 {fill:#8C8162} .fil40 {fill:#92E8B5} .fil51 {fill:#999999} .fil57 {fill:#99CC66} .fil42 {fill:#99CC99} .fil33 {fill:#9A4617} .fil72 {fill:#9C3E40} .fil27 {fill:#9C9530} .fil28 {fill:#9F2124} .fil2 {fill:#A55425} .fil21 {fill:#A8440A} .fil19 {fill:#AD565C} .fil75 {fill:#ADAD2B} .fil69 {fill:#ADB342} .fil12 {fill:#B67EAF} .fil56 {fill:#B81212} .fil78 {fill:#B9CAED} .fil65 {fill:#BD6E20} .fil1 {fill:#C2B027} .fil58 {fill:#C2F78C} .fil43 {fill:#C3F7C3} .fil81 {fill:#C45656} .fil45 {fill:#C7662E} .fil82 {fill:#C9703C} .fil73 {fill:#C97520} .fil49 {fill:#CC6633} .fil74 {fill:#CCCC33} .fil29 {fill:#CF4B4D} .fil35 {fill:#D2BD84} .fil70 {fill:#D4595B} .fil46 {fill:#D9595B} .fil26 {fill:#DBD13B} .fil47 {fill:#DC7C0C} .fil67 {fill:#E1E856} .fil5 {fill:#E35F15} .fil16 {fill:#E41E1D} .fil54 {fill:#E68A5C} .fil52 {fill:#E6E6E6} .fil18 {fill:#EA757D} .fil71 {fill:#ED9193} .fil13 {fill:#F0BB53} .fil0 {fill:#F0DB30} .fil25 {fill:#F5A4AA} .fil48 {fill:#F69149} .fil66 {fill:#F76F6F} .fil36 {fill:#F7EBCA} .fil23 {fill:#FA955A} .fil14 {fill:#FAB9F1} .fil24 {fill:#FABD7F} .fil30 {fill:#FAF27D} .fil79 {fill:#FAFA8C} .fil68 {fill:#FAFFA3} .fil17 {fill:#FC6D6D} .fil80 {fill:#FF6666} .fil60 {fill:#FF6B6B} .fil20 {fill:#FF9933} .fil83 {fill:#FF9999} .fil55 {fill:#FFB682} .fil76 {fill:#FFBA75} .fil64 {fill:#FFC285} .fil84 {fill:#FFC8A8} .fil10 {fill:#FFE7B8}</style><style
       type="text/css"
       id="style1-9">.fil22 {fill:none} .fil9 {fill:black} .fil39 {fill:#114A57} .fil38 {fill:#156274} .fil8 {fill:#1B4577} .fil32 {fill:#31704A} .fil7 {fill:#408780} .fil63 {fill:#416621} .fil11 {fill:#4F7DB5} .fil61 {fill:#5A9129} .fil41 {fill:#631718} .fil34 {fill:#633012} .fil31 {fill:#64B383} .fil4 {fill:#64BAB1} .fil53 {fill:#666666} .fil77 {fill:#6699FF} .fil59 {fill:#6C9147} .fil44 {fill:#6F9C6F} .fil3 {fill:#783E1C} .fil15 {fill:#7A4D74} .fil50 {fill:#803F1F} .fil6 {fill:#88E3DA} .fil62 {fill:#8AD946} .fil37 {fill:#8C8162} .fil40 {fill:#92E8B5} .fil51 {fill:#999999} .fil57 {fill:#99CC66} .fil42 {fill:#99CC99} .fil33 {fill:#9A4617} .fil72 {fill:#9C3E40} .fil27 {fill:#9C9530} .fil28 {fill:#9F2124} .fil2 {fill:#A55425} .fil21 {fill:#A8440A} .fil19 {fill:#AD565C} .fil75 {fill:#ADAD2B} .fil69 {fill:#ADB342} .fil12 {fill:#B67EAF} .fil56 {fill:#B81212} .fil78 {fill:#B9CAED} .fil65 {fill:#BD6E20} .fil1 {fill:#C2B027} .fil58 {fill:#C2F78C} .fil43 {fill:#C3F7C3} .fil81 {fill:#C45656} .fil45 {fill:#C7662E} .fil82 {fill:#C9703C} .fil73 {fill:#C97520} .fil49 {fill:#CC6633} .fil74 {fill:#CCCC33} .fil29 {fill:#CF4B4D} .fil35 {fill:#D2BD84} .fil70 {fill:#D4595B} .fil46 {fill:#D9595B} .fil26 {fill:#DBD13B} .fil47 {fill:#DC7C0C} .fil67 {fill:#E1E856} .fil5 {fill:#E35F15} .fil16 {fill:#E41E1D} .fil54 {fill:#E68A5C} .fil52 {fill:#E6E6E6} .fil18 {fill:#EA757D} .fil71 {fill:#ED9193} .fil13 {fill:#F0BB53} .fil0 {fill:#F0DB30} .fil25 {fill:#F5A4AA} .fil48 {fill:#F69149} .fil66 {fill:#F76F6F} .fil36 {fill:#F7EBCA} .fil23 {fill:#FA955A} .fil14 {fill:#FAB9F1} .fil24 {fill:#FABD7F} .fil30 {fill:#FAF27D} .fil79 {fill:#FAFA8C} .fil68 {fill:#FAFFA3} .fil17 {fill:#FC6D6D} .fil80 {fill:#FF6666} .fil60 {fill:#FF6B6B} .fil20 {fill:#FF9933} .fil83 {fill:#FF9999} .fil55 {fill:#FFB682} .fil76 {fill:#FFBA75} .fil64 {fill:#FFC285} .fil84 {fill:#FFC8A8} .fil10 {fill:#FFE7B8}</style></defs><g
     style="clip-rule:evenodd;fill-rule:evenodd;image-rendering:optimizeQuality;shape-rendering:geometricPrecision;text-rendering:geometricPrecision"
     id="g14"
     transform="translate(9859.9957,599.32577)"><g
       id="g15"
       transform="matrix(-0.125,0,0,0.125,-8299.1328,-599.32599)"><path
         class="fil28"
         d="m 10841.903,1527.7243 c 15,56 80,163 136,272 55,110 102,221 130,333 28,113 37,226 37,363 0,137 -9,298 9,361 18,64 62,30 161,-10 99,-40 253,-87 439,-159 186,-72 404,-170 513,-219 109,-49 109,-49 27,-65 -83,-16 -247,-47 -426,-68 -178,-21 -369,-32 -486,-38 -117,-5 -159,-5 -188,-12 -29,-7 -45,-20 -43,-43 3,-24 23,-57 57,-88 35,-32 84,-61 202,-127 118,-67 305,-172 477,-262 173,-90 331,-166 403,-204 73,-38 60,-38 -13,-51 -72,-13 -204,-40 -333,-48 -129,-8 -256,3 -397,12 -142,9 -298,16 -409,13 -111,-4 -178,-17 -228,-20 -50,-4 -84,3 -68,60 z"
         id="path533-5" /><path
         class="fil41"
         d="m 10841.903,1527.7243 c 15,56 80,163 136,272 55,110 102,221 130,333 28,113 37,226 37,363 0,137 -9,298 9,361 18,64 62,30 161,-10 50,-20 113,-42 188,-68 -9,-91 -29,-190 -49,-288 -13,-64 -26,-127 -40,-191 l -32,-2 c -117,-5 -159,-5 -188,-12 -29,-7 -45,-20 -43,-43 3,-24 23,-57 57,-88 29,-27 68,-51 150,-98 -15,-59 -32,-120 -50,-183 -36,-125 -81,-259 -127,-386 h -43 c -111,-4 -178,-17 -228,-20 -50,-4 -84,3 -68,60 z"
         id="path534-4" /><path
         class="fil33"
         d="m 5072.903,7201.7243 c 59,-21 177,-30 231,50 55,80 46,250 50,432 5,183 23,379 42,537 19,158 39,278 64,420 26,141 57,304 89,433 32,129 66,225 78,286 12,61 4,88 -12,101 -16,14 -38,14 -81,-5 -44,-19 -108,-57 -177,-103 -69,-45 -143,-99 -170,-78 -26,22 -6,117 -13,213 -7,96 -40,192 -80,245 -40,53 -87,65 -128,58 -41,-7 -77,-31 -84,-115 -6,-83 16,-226 23,-337 6,-112 -3,-192 -20,-234 -16,-42 -40,-47 -77,-23 -37,23 -86,74 -143,125 -57,52 -121,103 -178,135 -57,32 -106,46 -129,30 -24,-15 -21,-60 3,-110 25,-50 71,-106 126,-144 55,-37 117,-58 198,-128 82,-70 182,-190 236,-308 55,-118 64,-234 60,-331 -3,-97 -19,-175 -24,-265 -6,-90 -1,-192 13,-295 15,-102 39,-205 48,-288 9,-84 2,-148 -1,-197 -3,-49 -3,-83 56,-104 z"
         id="path535-9" /><path
         class="fil34"
         d="m 5072.903,7201.7243 c 59,-21 177,-30 231,50 55,80 46,250 50,432 3,124 13,255 24,375 -150,10 -305,-36 -420,-148 2,-40 6,-80 12,-120 15,-102 39,-205 48,-288 9,-84 2,-148 -1,-197 -3,-49 -3,-83 56,-104 z"
         id="path536-1" /><path
         class="fil33"
         d="m 6550.903,7170.7243 c 77,-32 249,-57 335,2 87,59 90,202 86,424 -3,223 -12,526 -1,734 11,208 42,322 106,417 63,94 159,170 228,245 69,74 111,148 142,213 30,66 47,124 47,157 0,34 -17,43 -50,47 -32,5 -79,5 -134,-23 -56,-28 -121,-84 -185,-133 -65,-49 -129,-91 -165,-91 -35,0 -42,42 -56,127 -13,84 -33,211 -53,280 -20,69 -40,81 -68,85 -28,5 -64,2 -103,-17 -39,-19 -81,-54 -94,-108 -13,-53 2,-124 14,-200 13,-76 22,-156 10,-178 -11,-23 -42,13 -83,55 -41,43 -93,92 -160,112 -68,20 -153,11 -191,-30 -38,-41 -29,-115 4,-171 34,-55 92,-93 156,-129 65,-35 136,-69 180,-116 43,-46 59,-106 57,-238 -3,-131 -23,-334 -24,-493 -1,-159 17,-275 13,-411 -3,-136 -27,-292 -49,-390 -21,-98 -39,-138 38,-170 z"
         id="path537-7" /><path
         class="fil34"
         d="m 6550.903,7170.7243 c 77,-32 249,-57 335,2 87,59 90,202 86,424 -2,117 -5,256 -6,391 -32,13 -65,24 -99,31 -103,24 -213,20 -315,-14 5,-96 13,-180 10,-274 -3,-136 -27,-292 -49,-390 -21,-98 -39,-138 38,-170 z"
         id="path538-5" /><path
         class="fil42"
         d="m 9067.903,61.724269 c 118,-4 296,-17 463,18 167,36.000001 323,120.000001 512,261.000001 189,140 412,336 541,514 129,178.00003 165,339.00003 241,532.00003 75,194 191,421 258,649 66,228 83,456 68,783 -16,328 -64,754 -146,1114 -82,361 -198,655 -381,984 -182,330 -432,695 -692,998 -261,303 -533,543 -793,710 -261,167 -510,261 -675,339 -165,78 -245,140 -450,198 -205,58 -534,111 -813,149 -278,38 -505,60 -826,54 -321,-7 -735,-43 -1093,-109 -359,-67 -662,-165 -833,-239 -172,-73 -212,-122 -305,-194 -94,-71 -241,-164 -412,-273 -172,-110 -368,-234 -682,-501 -314,-268 -746,-678 -1020,-992 -274,-314 -390,-532 -548,-919 -158,-388 -358,-945 -465,-1272 -106.99996,-327 -119.99996,-425 -126.99996,-474 -7,-49 -7,-49 264.99996,-7 272,42 815,127 1276,167 461,40 840,36 1138,11 298,-24 517,-69 837,-207 321,-138 744,-370 992,-528 247,-158 318,-242 460,-338 143,-96 357,-203 590,-332 234,-129 488,-281.00003 707,-419.00003 218,-138 400,-262 674,-374 274,-111 639,-209 851,-256 212,-47.000001 270,-42.000001 388,-47.000001 z"
         id="path539-5" /><path
         class="fil43"
         d="m 7736.903,904.72427 c -325,132.00003 -820,386.00003 -1185,604.00003 -365,218 -601,401 -661,503 -60,103 56,125 370,67 314,-58 826,-196 1211,-430 385,-234 644,-563 695,-724.00003 51,-160 -105,-151 -430,-20 z"
         id="path540-4" /><path
         class="fil44"
         d="m 8808.903,6806.7243 c -133,64 -252,113 -345,157 -165,78 -245,140 -450,198 -205,58 -534,111 -813,149 -278,38 -505,60 -826,54 -321,-7 -735,-43 -1093,-109 -359,-67 -662,-165 -833,-239 -172,-73 -212,-122 -305,-194 -94,-71 -241,-164 -412,-273 -164,-105 -350,-223 -640,-466 6,-22 11,-44 17,-66 185,-654 657,-1104 1116,-1289 459,-185 904,-105 1067,2 162,107 42,241 -145,437 -187,196 -441,454 -630,654 -189,201 -314,343 -339,459 -24,116 52,205 172,285 120,80 285,152 552,223 267,71 637,142 995,183 359,40 707,49 1034,33 327,-16 635,-56 1069,-111 251,-32 544,-70 809,-87 z"
         id="path541-1" /><path
         class="fil9"
         d="m 9400.903,1283.7243 c -53,27 -136,76 -189,141 -54,64 -78,144 -69,218 9,73 51,140 82,178 31,38 51,47 96,57 44,10 113,21 175,8 61,-14 114,-52 154,-103 40,-51 67,-115 67,-182 0,-67 -27,-136 -67,-195 -40,-59 -93,-108 -132,-131 -39,-22 -64,-17 -117,9 z"
         id="path542-8" /><path
         class="fil23"
         d="m 2398.903,5503.7243 c -9,74 -6,221 -47,374 -40,152 -122,310 -249,456 -127,146 -298,280 -419,399 -120,119 -189,223 -217,281 -28,58 -14,69 24,77 37,8 100,13 288,-34 188,-47 502,-145 813,-284 311,-139 618,-320 857,-462 240,-143 411,-248 549,-338 138,-90 243,-166 335,-274 93,-108 173,-248 -31,-304 -204,-55 -691,-26 -1048,-7 -356,18 -581,27 -703,33 -123,6 -143,8 -152,83 z"
         id="path543-8" /><path
         class="fil45"
         d="m 2398.903,5503.7243 c -9,74 -6,221 -47,374 -6,25 -14,51 -23,76 260,14 590,34 681,98 106,73 -108,205 -304,401 -121,121 -235,266 -301,399 62,-25 124,-51 187,-79 311,-139 618,-320 857,-462 240,-143 411,-248 549,-338 138,-90 243,-166 335,-274 93,-108 173,-248 -31,-304 -204,-55 -691,-26 -1048,-7 -356,18 -581,27 -703,33 -123,6 -143,8 -152,83 z"
         id="path544-3" /><path
         class="fil28"
         d="m 5832.903,3011.7243 c -174,2 -270,31 -428,145 -157,114 -375,315 -625,504 -249,189 -530,368 -841,544 -312,175 -655,349 -991,478 -337,129 -666,214 -1043,292 -376,78 -799,149 -1128.99996,194 -329,44 -565,62 -682.999996,71 -118,9 -118,9 25.999996,65 145,55 435,167 784,251 349.99996,85 759.99996,143 1079.99996,163 321,20 553,2 836,-7 283,-8 617,-8 882,-19 266,-11 461,-34 652,-81 191,-47 379,-118 585,-238 208,-121 435,-290 649,-448 213,-158 414,-305 576,-472 163,-167 288,-354 401,-528 114,-174 216,-334 246,-445 30,-111 -12,-172 -74,-234 -62,-62 -145,-126 -312,-170 -166,-43 -418,-67 -591,-65 z"
         id="path545-5" /><path
         class="fil46"
         d="m 3128.903,4799.7243 c -167,43 -407,87 -540,153 -132,65 -157,152 7,182 164,30 516,4 929,-179 413,-183 887,-521 1088,-688 200,-167 127,-163 -4,-126 -130,37 -317,106 -514,201 -197,94 -404,215 -555,295 -150,80 -244,120 -411,162 z"
         id="path546-2" /><path
         class="fil9"
         d="m 9280.903,89.724269 z m -140,21.000001 c -39,-3 -16,2 -32,-10 z m 160,-54.000001 c 51,1 170,27 176,49.000001 1,4 4,4 6,5 l -194,-11.000001 z m -459,76.000001 c -9,24 0,25 -40,28 -26,2 -16,10 -24,-18 32,0 39,-4 64,-10 z m 64,32 c 9,-7 10,-16 32,0 z m 492,-11 c 60,2 8,12 117,10 -56,50 -310,1 -417,1 l 145,-19 c 56,-3 53,8 80,8 24,0 51,-1 75,0 z m 214,32 c -1,31 -7,0 -7,0 -11,-3 7,-27 7,0 z m 10,11 c 13,-10 -3,-6 19,-7 z m -1325,32 z m -85,50 c -36,14 -38,19 -65,35 -24,14 -44,22 -72,36 -28,15 -39,26 -65,42 -96,61 -294,150 -403,206 l -486,219 c 18,-47 -7,-1 32,-32 14,-10 16,-12 29,-24 44,-38 53,-29 93,-58 l 20,-16 c 99,-73 227,-109 264,-142 32,-28 180,-95 235,-113 37,-12 53,-14 86,-32 13,-7 22,-13 33,-21 68,-47 57,-5 127,-43 10,-5 24,-15 34,-20 l 201,-77 z m 2447,666 c -16,67.00003 -3,65.00003 11,128.00003 -51,-60 -156,-225.00003 -203,-256.00003 10,-6 1,-4 14,-6 19,-3 2,4 67,53 43,32 62,55 111,81 z m -4859,646.00003 c -2,2 -4,4 -6,5 l -309,172 c 19,-25 335,-216 389,-252 126,-83 256,-175 402,-229 l 118,-53 z m 5297,-186 c -71,0 -181,-4 -235,33 -49,-97 -48,-127 -78,-238 l -50,-180 c 35,23 79,52 110,82 z m -42,149 c -14,50 -52,69 -65,119 -38,-28 -87,-130 -96,-172 42,3 27,9 75,11 l 22,53 c 42,-4 20,-8 64,-11 z m -5520,110 c 0,2 2,-4 4,-3 z m -17,8 z m -118,75 c 21,-33 4,-16 41,-34 13,-7 6,0 27,-15 l 28,-5 z m 5783,96 c -12,54 -32,83 -55,127 l -20,33 -64,-235 58,-48 c 1,1 4,-7 8,-7 l 1,26 c -1,2 -3,5 -4,7 -1,3 -5,12 -7,15 -17,36 -22,79 15,97 20,10 49,-6 68,-15 z m -5762,-43 c 2,-1 4,-4 6,-4 l 48,-17 c -21,12 -28,15 -54,21 z m -14,3 c 0,2 2,-4 4,-3 z m -32,20 4,-1 c -3,2 2,25 -4,1 z m -51,31 c 14,-34 -23,-18 35,-18 z m -19,-2 9,12 c -5,7 -22,8 -32,11 l 16,-16 c 1,2 3,-7 7,-7 z m 6637,-105 c -8,31 -4,25 -30,45 -63,50 -260,130 -334,169 l 175,-114 c 45,-25 148,-89 189,-100 z m -5644,-513 c -23,-26 -42,-41 -80,-28 l -406,269 c -27,16 -40,25 -67,40 l -368,198 c -45,19 -31,13 -68,40 -25,18 -60,31 -80,55 -12,13 5,8 11,25 l -204,107 -1099,428 c -125,40 -352,127 -461,127 40,25 2,8 32,10 52,3 338,-63 407,-83 l 581,-189 c 181,-64 351,-152 526,-233 l -103,68 c -28,13 -33,20 -61,35 -13,7 -27,12 -37,18 l -21,17 c -39,30 -121,46 -163,86 -17,16 -9,1 -18,25 -62,-22 -62,-27 -126,13 -110,68 -223,117 -348,165 -166,62 -383,80 -556,107 l -321,12 c -23,-1 -7,-1 -31,0 -27,1 -57,1 -83,2 -26,2 -15,1 -37,7 -3,1 -11,4 -14,5 -2,1 -5,2 -7,2 -40,11 -98,-2 -139,1 l -209,-13 c -55,-4 -111,-2 -165,-4 l -476,-19 c -104,-2 -126,-33 -211,-45 l -211,-37 c -24,-1 -3,2 -28,-3 l -107,-20 c -255,-25 -311,-37 -537,-92 l -30.99996,-13 c -2,-1 -4,-4 -6,-5 -63,-52 -42,2 -219,-81 l -356,-157 c -47,-18 -90,-51 -121,-7 41,4 34,7 62,24 26,15 27,14 58,27 l 289,138 c 24,12 39,16 61,25 11,5 47,25 54,31 l 61,120 c 6,21 14,17 28,37 39,55 69,189 70,251 -102,-9 -238,-107 -327,-165 -2,-1 -5,-2 -7,-4 -2,-1 -4,-3 -6,-4 -11,-6 -23,-13 -34,-19 l -174,-117 c -52,-22 34,54 40,58 136,95 270,221 434,293 27,12 59,20 85,32 8,7 104.99996,361 108.99996,428 -34,-21 -38,-37 -64,-66 l -175.99996,-199 c -55,-60 -119,-109 -171,-170 -24,-30 -51,-35 -73,-55 -15,-13 -8,-18 -20,-2 29,20 53,45 76,74 l 330,397 c 81.99996,114 66.99996,144 138.99996,128 8,83 56,141 82,217 l 167,432 c 30,74 55,142 88,211 l 149,300 c 13,24 13,28 24,51 14,28 14,19 27,47 l 201,362 c 6,19 -11,21 -33,26 l -86,20 c -108,32 -264,37 -366,53 -129,20 -740.99996,136 -840.99996,141 -147,7 -112,1 -260,30 -69,14 -44,1 -105,-8 l -128.999996,3 c -92,17 -31.9999998,144 174.999996,176 97,15 45,20 93,57 41,31 261,95 319,108 35,8 76,20 115,35 80,32 139,17 237,31 72.99996,10 61.99996,8 117.99996,30 61,25 155,28 232,36 96,10 174,15 274,15 103,-1 167,21 268,21 -2,2 -6,3 -8,4 l -15,6 c -71,23 -170,13 -244,16 l -76,17 c 62,17 7,23 100,16 32,-2 56,7 103,6 l 535,-49 c 19,-2 69,-5 106,-5 -2,142 -128,347 -195,435 l -275,302 c -2,3 -8,9 -10,11 l -357,392 c -2,3 -7,10 -9,13 l -26,26 c -24,24 -20,27 -40,47 -17,17 -21,14 -41,33 -21,18 -131,131 -42,129 44,-1 2,1 44,-30 11,9 1,5 26,17 4,2 31,11 32,11 30,5 35,-1 60,-7 v 32 c 85,-7 209,-38 299,-64 l 298,-77 c 69,-20 261,-48 290,-95 28,-45 -12,-24 39,-57 l 690,-346 c 25,-17 38,-22 62,-34 29,-15 33,-23 59,-37 71,-41 147,-54 177,36 147,450 621,419 915,484 l 148,45 c 153,38 310,61 461,106 166,49 287,44 455,70 l 343,43 c 4,0 29,4 30,4 10,1 44,-3 74,-3 -31,-42 -4,-11 -60,-16 l -214,-42 c -102,-18 -194,-34 -301,-52 -45,-7 -92,-24 -148,-34 -57,-10 -90,-17 -142,-28 l -174,-34 133,-11 c 77,11 174,8 206,6 47,-2 158,8 230,8 93,0 112,-11 213,-11 l -24,-8 c -82,-17 -145,-10 -232,-13 -131,-5 -184,-4 -301,-15 -113,-10 -472,-30 -581,-66 -156,-50 -334,-129 -471,-212 -21,-13 -33,-20 -54,-33 l -52,-33 c -74,-44 -138,-104 -203,-160 l -81,-69 c -29,10 -22,-1 -32,43 -44,-24 -103,-50 -128,-97 l 155,-80 c 20,-9 32,-14 52,-23 117,-56 223,-129 335,-189 30,-16 22,-14 44,-30 12,-8 14,-8 26,-17 18,-13 7,-3 18,-14 37,-36 19,-58 60,-90 l 131,-93 c 193,-155 90,-161 187,-187 118,-31 216,-73 323,-126 l 593,-380 c 34,-20 59,-32 94,-56 32,-21 55,-40 86,-63 79,-59 170,-109 243,-174 l 105,-77 c 36,-25 49,-44 81,-68 78,-61 145,-141 218,-210 2,-1 4,-4 6,-5 38,-36 54,-38 54,-106 -31,-8 -16,3 -32,-21 l 219,-199 c 1,-1 3,-4 5,-5 l 74,-76 c 77,-96 186,-238 227,-350 20,-54 49,-100 62,-162 6,-27 3,-29 14,-50 l 18,-26 c 20,-29 23,-44 8,-89 -30,-85 -19,23 -60,-166 -28,-6 -28,-3 -48,-6 -60,-9 -151,-128 -305,-133 -12,-165 -148,-171 -322,-174 -57,-1 -164,10 -223,24 l -193,54 c -1,-2 -3,-5 -4,-6 l -27,-37 c -3,2 -6,3 -8,4 -2,0 -5,2 -7,3 -71,32 -123,96 -193,128 -190,85 -369,181 -527,317 -29,25 -68,46 -78,83 48,-4 72,-38 110,-61 l 276,-173 c 6,-4 12,-11 13,-8 1,2 5,-6 9,-6 l -81,83 c -34,27 -57,45 -90,71 -60,49 -111,91 -173,137 l -363,267 c -22,-15 -30,-20 -54,-32 -18,27 -20,23 -39,57 -33,64 -94,86 -153,124 -20,13 -39,23 -55,42 -86,97 -183,102 -294,166 l -346,199 c -2,-2 -4,-5 -5,-7 l -14,-18 c -10,-14 0,-3 -13,-18 -27,13 -53,6 -68,29 -20,29 0,32 -7,67 -131,31 -243,88 -368,135 l -114,46 c -23,6 -57,17 -79,28 -23,11 -86,27 -59,47 l 204,-52 c 68,-20 125,-50 192,-65 l -39,26 c -77,49 -270,120 -364,149 -148,46 -284,101 -438,139 l -171,54 c -103,30 -285,60 -389,60 l -152,-307 c -67,-130 -133,-264 -186,-403 -19,-51 -22,-92 -59,-122 -17,-14 -14,-6 -26,-28 -59,-103 -83,-230 -133,-337 -16,-32 -28,-34 -32,-86 24,6 27,17 45,32 17,13 21,19 30,11 14,-14 -2,-19 -34,-51 -122,-116 -185,-353 -195,-516 -3,-56 4,-17 -31,-59 -35,-41 -56,-186 -71,-240 -16,-55 -29,-107 -41,-163 -7,-40 -9,-49 -16,-91 -6.99996,-43 -26.99996,-74 -6.99996,-88 27.99996,42 81.99996,79 118.99996,116 55,56 124,133 160,203 43,86 31,111 117,237 -21,40 -53,118 -53,169 l 41,34 c 59,-14 91,-50 150,-64 33,22 24,32 64,42 -38,56 -14,87 23,138 41,54 16,67 22,127 l 5,16 c 1,4 2,6 4,8 46,-34 -4,-20 42,-54 25,18 74,84 101,114 24,26 25,29 54,53 34,27 36,21 30,60 -18,114 -57,234 -67,351 79,-60 58,-260 118,-342 37,25 72,61 111,91 25,20 37,32 60,48 17,13 38,28 53,21 4,-12 6,-3 -40,-45 -21,-20 -36,-32 -56,-51 l -118,-96 c 0,-65 6,-117 32,-171 80,41 152,108 225,160 27,20 39,39 85,42 -31,-47 -242,-204 -299,-256 -1,-84 68,-185 -21,-192 -21,43 -14,111 -32,149 -42,-10 -127,-73 -161,-107 13,-58 97,-188 136,-238 74,-93 45,-142 180,-120 l 422,38 c 59,3 112,17 151,20 136,9 243,25 372,33 52,4 232,27 287,13 41,-10 6,2 24,-13 -74,0 -109,-13 -172,-20 l -386,-52 c -78,-12 -166,-6 -265,-25 -48,-10 -38,-2 -74,-3 -21,-2 -52,-13 -78,-16 -63,-7 -111,-7 -177,-15 -37,-5 -120,-19 -163,-18 11,-50 37,-69 43,-129 -40,-9 -26,-18 -66,-2 -51,20 -94,77 -138,99 -59,30 -188,-26 -256,-32 9,-38 41,-80 61,-122 27,-56 30,-72 3,-124 -46,10 -56,16 -75,52 -15,27 -28,59 -42,87 h 38 c 0,1 3,-1 4,0 -10,40 -34,55 -53,85 -9,-5 -51,-23 -57,-27 -35,-29 -3,15 4,-48 -24,-5 -194,-83 -132,33 25,47 107,71 153,95 -19,35 -36,63 -54,97 -64,-43 -104,-128 -153,-190 -35,-45 -233,-266 -242,-302 44,-30 188,-15 240,-5 38,7 53,15 91,16 -14,21 -29,32 -2,54 41,32 406,41 498,55 137,21 265,26 413,29 85,2 74,48 397,30 16,-1 7,0 29,-2 l 231,-14 c 191,-16 493,-21 701,-24 l 344,-20 -35,41 c 106,0 126,-35 214,-53 l 104,-25 c 14,-3 29,-7 51,-13 6,-1 19,-5 25,-7 l 23,-9 c -61,1 -68,11 -128,11 l 444,-229 c 273,-153 185,-104 409,-254 51,-34 73,-66 125,-89 15,-7 17,-8 29,-14 l 165,-81 c 40,-24 53,-46 97,-63 l 309,-182 c 2,-1 5,-2 7,-3 22,-12 -7,3 16,-7 66,-27 123,-68 187,-101 23,-12 35,-20 51,-35 32,-29 71,-44 105,-65 21,-13 35,-14 59,-28 l 267,-181 c 66,-44 126,-105 199,-132 105,-39 199,-105.00003 302,-146.00003 l 364,-161 c 156,-63 314,-133 456,-218 40,-24 55,-21 83,-27 l 297,-159 c 221,-120 139,-6 187,-38 48,-32 -8,-95 172,-116 109,-13 191,-2 310,-2 l 459,32 c 376,30 368,-46 634,169 l 256,235 346,403.00003 c 34,45 75,97 95,150 37,98 82,217 100,317 8,45 14,90 40,131 34,54 5,-35 25,28 l 72,335 c 7,52 11,63 20,108 60,294 116,577 132,872 6,99 -11,158 -25,241 l -33,161 21,9 c 6,-23 4,-10 6,-37 l 10,127 c -36,120 -58,242 -100,361 l -437,920 c -52,95 -118,185 -168,282 -53,-16 -8,-22 -86,-22 -20,88 18,78 -30,194 -27,64 -54,111 -95,161 -80,96 -146,203 -230,294 -53,57 -94,120 -152,169 -71,60 -126,137 -195,200 -11,10 -7,6 -17,15 -2,2 -4,4 -6,5 -76,73 -152,126 -242,175 l -295,165 c -102,46 -189,107 -291,158 -37,18 -58,29 -90,48 -113,69 -570,271 -601,297 87,-19 180,-55 262,-90 181,-76 352,-161 524,-256 l 113,-59 c 62,-33 288,-161 330,-172 l -294,262 c -32,30 -80,52 -91,91 74,-49 156,-94 223,-151 l 11,-11 c 4,-3 7,-7 17,-15 51,-45 102,-79 147,-131 26,-29 44,-40 76,-63 61,-46 89,-88 157,-121 -1,18 -1,14 -5,27 l -13,43 c -19,78 -73,135 -133,185 -79,65 -158,129 -252,176 l -507,242 c -84,28 2,-3 -73,-10 -55,97 -304,159 -414,206 -31,13 -57,18 -88,30 -20,8 -24,12 -43,22 -135,72 -392,62 -566,85 -34,5 -43,16 -85,17 -53,1 -243,3 -290,35 53,1 124,6 157,5 52,-2 92,-15 142,-15 l -45,19 c -129,23 -277,5 -412,15 -31,2 -45,6 -95,11 -35,4 -44,-5 -93,-9 -33,-2 -66,10 -111,4 l -324,-14 c -34,2 -151,-5 -218,-8 -56,-2 -341,0 -380,-18 -2,2 -3,5 -4,7 l -29,35 c -43,-21 -191,-20 -235,0 l 30,13 c 16,5 17,5 36,7 87,11 103,21 202,23 104,2 185,32 279,41 141,15 413,-7 565,-9 -28,61 -6,62 13,104 15,34 15,68 31,99 l -723,-133 c -38,-12 -57,-19 -99,-29 -95,-24 -218,-48 -313,-83 -30,-11 -54,-35 -87,-42 -47,-10 -62,4 -114,-13 -14,-4 -28,-11 -49,-16 -135,-33 -62,-18 -118,-75 -31,-32 -65,-25 -70,28 l -188,-68 c -72,-23 -133,-32 -207,-50 -60,113 59,59 187,101 124,41 240,46 225,121 l 16,78 c -55,4 -53,23 -43,64 9,28 23,9 43,21 -1,216 -53,391 -54,663 0,185 20,200 22,266 4,101 -68,328 -125,411 -26,36 -109,103 -147,131 -25,19 -30,17 -55,30 -75,40 -121,118 -194,160 l -89,81 c -16,23 -59,90 -64,120 -13,75 27,72 53,116 49,-23 119,-26 169,-46 42,-17 66,-32 95,-65 4,-4 13,-14 15,-17 l 66,-63 c 44,-41 95,-102 155,-111 h 13 c 46,-1 6,360 4,383 -9,79 -17,114 4,167 14,37 41,144 67,159 33,19 84,8 114,-16 l 77,-93 c 25,-32 61,-132 72,-175 24,-84 14,-159 23,-228 l 3,-13 c 43,12 55,45 90,70 34,26 58,39 93,56 64,32 81,60 164,74 16,2 59,8 61,-14 l -2,-34 c 0,-1 1,-4 1,-5 1,-4 28,-38 33,-49 44,-102 -72,-329 -106,-432 -19,-59 -1,3 -5,-60 -3,-45 -24,-91 -27,-128 -8,-97 0,-187 -38,-276 -102,-241 -58,-415 -70,-636 l -6,-224 c -2,-20 -7,-101 -17,-138 l -32,-117 c 55,11 60,-26 60,-25 1,1 3,-5 4,-7 48,11 92,19 138,33 39,12 82,22 127,33 85,21 177,45 271,60 101,17 177,31 281,51 56,10 90,11 151,20 57,8 146,-18 151,46 l 3,87 c 1,27 2,60 1,87 -1,126 -91,70 -65,149 47,141 39,88 16,250 -49,337 14,383 17,531 l 10,117 c -53,12 -103,39 -147,66 -23,14 -45,26 -69,39 -89,47 -124,99 -179,184 -26,40 -29,70 -24,119 8,85 1,118 77,138 49,13 91,4 132,-7 l 26,-6 c 216,-51 100,-71 248,-170 -2,83 -37,152 -38,155 l -7,26 c -19,194 37,225 125,317 18,20 32,30 57,34 58,9 74,-36 107,-74 32,-37 18,-9 37,-60 37,-98 45,-202 70,-304 5,-22 6,-28 11,-42 18,-57 -16,40 6,-16 l 264,135 c 66,37 149,70 232,63 27,-2 42,3 45,-31 -29,-18 -70,-15 -102,-26 -87,-29 -303,-146 -368,-209 -110,-106 -55,-160 -161,-160 0,160 61,96 0,353 -27,118 -19,216 -129,288 -35,-33 -62,-69 -94,-109 -14,-18 -10,-7 -17,-26 -1,-3 -5,-24 -5,-37 -9,-187 82,-245 52,-333 l -21,-50 c -47,-1 -51,-7 -84,12 -58,34 -97,99 -143,144 l -167,65 c -49,1 -47,-10 -50,-12 -30,-10 -36,-67 -33,-89 1,-13 3,-21 12,-40 0,-1 18,-35 19,-35 l 47,-50 10,-10 c 39,-39 77,-72 128,-98 17,-9 19,-8 36,-17 114,-62 95,-9 145,-36 33,-18 31,-38 25,-73 -16,-91 -30,-351 -22,-406 29,-201 15,-270 13,-489 140,-93 168,-55 246,-107 -10,-89 -62,-69 -135,-88 l -50,-15 c -2,2 -6,-2 -8,-4 51,-3 81,-20 139,-21 80,-2 86,14 140,-21 l -7,441 c 1,28 -1,14 -4,51 -7,132 63,343 95,467 l -42,46 c 70,79 207,178 288,279 l 105,130 c 59,68 13,46 17,101 2,35 40,115 68,135 28,20 33,25 68,17 0,-91 -14,-142 -56,-211 -84,-139 -183,-270 -307,-378 l -12,-9 c -40,-33 -48,-31 -68,-83 0,-2 -1,-5 -2,-7 -45,-122 -61,-346 -54,-474 12,-228 -1,-482 -15,-709 -1,-26 -4,-52 -5,-64 -6,-121 -30,-112 25,-117 87,-9 201,8 290,0 85,-8 92,-19 154,-40 92,-32 189,-1 280,-28 79,-24 133,-46 218,-60 145,-25 397,-23 449,-95 -50,-28 -48,-2 -106,-2 53,-47 148,-75 216,-136 74,-67 372,-185 468,-227 76,-35 150,-78 224,-117 -8,32 -35,46 -59,68 l -106,108 c -9,14 -10,15 -16,27 44,-13 77,-44 107,-74 l 294,-273 c 2,-3 8,-9 10,-11 31,-37 22,-23 55,-52 19,-16 16,-15 31,-33 l 66,-73 c 2,-1 5,-3 6,-5 l 304,-339 c 80,-60 139,-159 209,-228 24,-25 9,-13 26,-38 l 61,-78 c 2,-2 8,-8 10,-11 66,-73 112,-153 179,-227 1,-2 4,-4 5,-6 l 167,-233 c 17,-28 -10,17 8,-15 1,-1 2,-4 3,-5 l 94,-127 c -43,61 -68,132 -98,201 -37,82 -114,180 -116,269 41,-47 93,-143 121,-199 106,-208 212,-413 302,-629 l 90,-230 147,-580 c 25,-187 5,-395 40,-581 l 18,-164 c 3,-46 -15,-162 49,-174 26,-5 29,9 51,17 16,7 4,5 27,7 19,-29 22,-51 54,-64 15,-7 31,-8 50,-14 16,-5 19,-7 40,-14 122,-40 256,-54 381,-89 141,-39 102,-27 84,-98 68,-31 158,-52 223,-86 26,-14 39,-16 70,-27 l 149,-54 c 48,-15 108,-26 146,-46 -2,-46 -3,-61 -35,-72 -94,-35 -179,12 -270,-7 -47,-9 -29,-16 -90,-18 -207,-5 -236,20 -452,-39 -42,-11 -144,-24 -190,-25 -212,-4 -45,-33 -132,-60 -37,-11 -35,17 -64,35 -28,18 -31,4 -82,4 38,-79 -5,-50 82,-89 l 588,-257 c 88,-42 138,-60 187,-147 l -34,-41 c 185,-99 318,-120 407,-160 50,-23 81,-116 3,-104 -27,4 -9,7 -39,15 -88,22 -165,-32 -246,-45 -104,-16 -398,6 -537,31 -47,9 -316,42 -361,12 -26,-17 -6,-16 -15,-43 l -24,-38 -43,43 c -50,-73 -39,-134 -146,-239 l -32,-32 c -2,-2 -8,-9 -10,-11 l -160,-150.00003 c -10,-8 -10,-8 -17,-15 l -200,-164 c -55,-45 -118,-81 -170,-129 -108,-101 -191,-165 -300,-278 -59,-62 -13,-119 -107,-159 -47,-20 -96,-57 -143,-69 -154,-40 -225,-22 -274,-81.000001 -25,-29 -51,-43 -92,-58 -29,-11 -32,-9 -47,-12 -261,-67 -450,-1 -696,36 -145,21 -294,74.000001 -445,104.000001 l -111,28 c -28,14 -6,6 -19,22 l -7,9 c -11,10 -24,13 -42,19 l -388,157 c -35,16 -57,30 -93,46 l -268,138 c -166,91 -304,214 -457,324 -32,23 -62,44 -105,55 23,-36 167,-165 85,-225 -9,-5 9,-17 -22,0 -21,12 -23,71 -80,154 -81,116.00003 -192,179.00003 -313,243.00003 -35,18 -56,29 -93,46 l -72,35 c -21,14 -7,4 -18,14 z m 5943,310 c -47,3 -98,37 -144,59 l -209,101 c -69,45 -213,116 -282,167 l -186,123 c -94,43 -123,77 -216,127 l -53,-64 c 48,-202 169,-228 106,-321 -34,3 -68,28 -96,43 4,-58 16,-57 22,-64 1,-2 3,-5 4,-6 84,-115 108,-73 60,-144 -30,7 -165,103 -203,128 9,-39 14,-33 37,-70 40,-66 28,-30 70,-90 45,21 161,-4 274,6 28,2 85,7 98,8 129,13 282,39 429,39 -18,-75 -57,-39 -195,-61 -37,-6 -44,-13 -83,-13 3,-2 6,-3 8,-4 l 24,-8 c 87,-25 178,-7 258,0 31,3 261,13 270,40 2,3 5,2 7,4 z m -1090,588 c 1,1 -3,3 -4,3 z m -214,-310 c 58,21 64,94 64,149 47,-32 24,-46 56,73 10,38 25,82 30,130 -33,17 -36,29 -76,32 -21,-46 -56,-307 -74,-384 z m -6125,352 c -3,4 -5,5 -5,5 z m 6360,150 z m 161,21 c -26,35 1,7 -36,30 -36,22 -86,58 -125,67 5,-65 38,-46 85,-118 z m -235,-21 -13,9 c -27,27 -20,0 -20,34 0,51 18,68 0,107 -3,-4 -14,-1 -20,-54 -3,-25 0,-34 -5,-60 l -17,-99 75,-23 c -7,71 -23,6 0,86 z m 74,235 c 0,-25 -15,-61 64,-87 z m 1080,-128 c -12,10 -4,6 -25,18 l -310,128 c -24,8 -33,13 -56,20 -33,10 -28,5 -57,17 -75,32 -155,64 -227,94 l -223,86 c -1,-35 3,-39 -19,-55 l -48,-17 c -2,3 -6,-1 -9,-2 72,-133 117,-118 118,-192 -73,-41 -59,-17 -128,-1 l 161,-182 323,51 c 48,12 37,19 91,26 87,11 151,-18 199,-16 15,1 41,3 56,7 101,26 15,18 154,18 z m -8263,117 z m 18,14 c 0,2 2,-4 3,-3 z m -1419,29 c 1,1 -3,3 -3,3 z m 8477,-75 c 47,25 26,-8 33,43 l 11,203 c -2,-2 -4,-5 -5,-6 z m 225,279 c -21,38 -25,43 -74,56 -51,14 -54,41 -49,-135 1,-38 -5,-29 -6,-82 50,0 40,7 73,-13 3,-2 14,-12 24,-19 5,-3 16,-8 21,-11 -12,47 -45,64 -55,117 -16,79 40,74 66,87 z m -9322,63 c -3,22 -11,17 -32,21 17,-23 0,-13 32,-21 z m -181,54 c -28,45 -70,64 -110,104 l -126,89 c -68,-105 -86,-72 -13,-185 l 24,-40 z m 4102,73 c 17,-6 13,-4 35,-9 138,-27 349,-53 460,53 14,13 9,7 20,22 -38,0 -60,-5 -73,-5 -18,-1 -19,0 -30,-3 -176,-34 -268,-45 -442,-45 z m -3963,-52 c -29,54 -73,119 -109,170 -43,62 -51,94 -77,136 l -28,37 c -94,-61 -100,-69 -128,-129 83,-44 250,-200 288,-224 25,5 25,8 54,10 z m -449,225 c -30,20 -43,26 -76,43 5,-42 17,-67 33,-97 20,15 29,33 43,54 z m 3848,43 c 1,1 -3,3 -3,3 z m -3688,85 c 24,12 32,18 55,33 l -12,42 c -29,-33 -35,-36 -43,-75 z m 96,75 c 34,8 145,83 182,106 0,41 -12,128 -32,151 l -16,-16 c -26,-29 15,16 -10,-12 -2,-1 -4,-4 -5,-6 -10,-11 -13,-15 -25,-28 -86,-91 -133,-113 -94,-195 z m 9332,278 c 0,133 -43,308 -43,363 -37,-2 -32,-9 -75,-10 l 14,-42 c 0,0 11,-29 14,-37 8,-24 9,-29 16,-49 l 71,-218 c 0,2 2,-5 3,-7 z m -117,449 c 0,115 -20,113 -22,182 -34,-54 -1,13 -11,-33 -2,-11 4,-22 -15,-48 l -17,-16 c 25,-49 14,-54 65,-85 z m -10082.99996,1183 c -2,3 -6,1 -8,3 50,25 293.99996,-9 351.99996,-11 l 738,-52 c 41,-3 62,0 101,-7 l 152,-28 c 34,-7 40,-8 89,-8 7,0 68,-26 75,-107 -29,-28 -9,3 -22,-33 -10,6 -26,11 -37,17 -93,54 -42,29 -78,26 -13,-1 14,-29 -20,4 -44,43 64,34 -188,79 -56,10 -94,10 -153,18 l -721,60 z m 1534.99996,364 c -42,11 -29,28 -107,37 -51,6 -160,34 -242,40 -38,3 -198,-39 -228,-46 -109,-27 -408,-28 -528,-49 -124,-23 -124,-28 -240,-61 -34,-10 -21,-8 -51,-11 -6.99996,-1 -35.99996,-2 -61.99996,-3 -171,-9 -236,-63 -353,-75 1,-3 4,-6 5,-7 l 8,-19 c 0,-29 -55,-21 -78,-28 -63,-20 -61,-51 -108,-61 -47,-11 -110,3 -163,-8 -22,-5 -126,-45 -125,-50 l 12,-9 c 17,13 -21,11 22,11 76,0 99,-9 174,-19 l 259,-30 c 159,-15 280,-39 438.99996,-63 l 503,-86 c 24,-2 51,-4 89,-5 l 674,-129 c -13,34 -40,35 -42,85 87,-6 78,-95 113,-110 2,0 5,-2 7,-3 2,-1 6,-2 8,-3 l 32,-10 c 170,-51 346,-94 508,-166 34,-15 20,-9 57,-18 l 448,-204 c 114,-61 161,-118 277,-172 6,-3 21,-11 28,-15 l 71,-36 c 32,-15 66,-31 98,-51 30,-18 56,-42 94,-45 -28,42 -93,75 -131,104 -39,31 -97,69 -125,110 73,-6 229,-138 287,-184 l 407,-298 c 72,-42 118,-95 187,-144 l 218,-157 c 91,-63 182,-134 267,-202 24,-18 44,-35 66,-52 25,-19 39,-34 64,-53 l 263,-208 c 39,-30 185,-104 241,-107 19,0 47,13 95,15 209,9 707,45 849,210 14,16 17,19 30,34 11,12 20,21 27,35 15,28 2,-2 10,30 21,80 24,225 -35,294 l -33,31 c -26,34 -4,3 -17,37 -25,70 -286,356 -361,452 -1,2 -3,4 -4,6 -107,141 -145,166 -277,289 l -403,346 c -49,36 -191,130 -203,171 78,-7 313,-183 367,-231 l 359,-325 c 13,-13 29,-22 44,-32 -14,53 -71,81 -105,120 -15,16 -20,22 -36,38 l -238,212 c -32,27 -51,39 -88,61 l -880,585 c -5,-55 -40,-81 -84,1 -8,15 -14,25 -26,39 -24,30 -37,35 -76,52 -158,64 -319,112 -499,131 -405,45 -486,26 -866,33 -20,0 -42,3 -58,4 l -273,-4 c -72,0 -23,-15 -75,-18 -28,-2 -50,18 -74,18 l -149,11 h -118 l -22,-54 z m 659,78 c -21,28 -24,21 -56,40 -81,49 -139,106 -180,109 l 12,-10 c 2,-1 4,-3 6,-5 39,-32 78,-85 89,-134 z m -535,10 c -13,57 -46,99 -84,141 l -45,52 c 9,-35 42,-101 65,-193 z m 214,-11 c -9,26 -4,15 -24,30 -30,22 -52,23 -91,59 -27,24 -86,74 -120,83 26,-41 43,-39 70,-69 24,-27 35,-57 37,-102 24,11 77,0 128,-1 z m -802,1231 c -63,29 -253,79 -323,92 -42,8 -101,39 -125,13 -21,-22 1,-19 17,-33 l 84,-88 c 16,-19 12,-14 25,-29 l 195,-179 c 2,-2 4,-4 5,-6 l 364,-396 c 57,-58 44,-63 85,-118 2,-2 7,-9 9,-11 107,-136 141,-163 278,-257 l 295,-208 c -6,74 -72,124 -122,166 l -107,97 c -45,40 -45,59 -17,101 52,-5 14,6 51,-24 18,-13 23,-18 43,-32 l 166,-112 c 18,-14 40,-36 63,-39 26,-4 2,-6 19,4 -23,8 -9,3 -26,16 -52,43 -111,104 -113,176 12,6 15,12 33,13 l 24,-7 c 14,-7 33,-20 53,-34 38,-29 91,-42 104,-90 -34,-15 -63,4 -96,22 12,-35 79,-95 111,-124 2,-1 4,-3 6,-5 2,-2 9,-8 11,-10 36,-34 95,-101 135,-121 40,-20 242,-8 293,-7 79,1 27,19 87,31 43,8 61,-9 105,-10 -11,15 -20,20 -32,32 -69,64 -155,54 -246,54 -63,0 -176,-62 -224,0 71,62 218,53 309,52 -9,14 -57,55 -74,66 -57,40 -81,-18 -93,58 -3,22 -14,32 -34,49 l -84,77 c -1,2 -3,4 -5,6 l -5,5 c -12,18 -11,0 -14,39 35,-10 73,-37 99,-61 127,-116 139,-47 297,-46 -19,27 -22,27 -48,49 -44,37 -14,7 -39,58 52,-13 72,-42 116,-67 75,-43 35,-18 130,-18 v 21 c -48,4 -80,39 -119,62 l -541,325 c -112,59 -238,111 -346,178 -40,24 -69,38 -115,57 l -174,81 c -66,19 -14,-9 -53,33 -57,60 -438,171 -512,173 31,-41 57,-9 75,-74 z m 556,-1049 c 1,1 -3,3 -3,4 z m 1315,-10 c -17,26 -49,45 -75,64 -16,11 -28,18 -45,30 -89,61 -35,42 -86,38 -15,-1 -42,-5 -58,-7 l -88,-19 c -31,-11 -8,-1 -22,-10 14,-19 47,-42 70,-58 89,-65 145,-41 304,-38 z m 7012,-1625 c 13,5 30,-3 21,72 -2,17 -11,61 -17,82 -49,182 -141,351 -228,519 -83,160 -109,196 -212,345 -28,41 -53,69 -84,108 l -294,357 c -52,55 -85,102 -137,142 -111,86 -121,81 -225,149 29,-55 45,-60 90,-103 2,-1 4,-3 6,-5 l 47,-48 c 2,-2 4,-4 6,-5 2,-3 8,-9 10,-12 l 110,-114 c 28,-35 49,-67 81,-100 82,-84 99,-129 167,-208 84,-98 58,-82 111,-166 75,-117 47,-123 85,-194 l 392,-666 c 5,-8 11,-20 15,-28 10,-18 9,-17 19,-35 z m -6530,1454 c -34,49 -78,82 -128,119 l -223,140 c -29,15 -46,26 -74,43 -30,18 -46,36 -75,35 l -89,-28 c 41,-21 92,-55 130,-83 70,-52 75,-67 127,-55 1,-55 17,-48 35,-85 19,-42 14,-55 -25,-65 -10,-4 11,-30 -23,18 -10,15 -12,22 -20,35 -51,83 -63,43 -159,43 h -108 c 17,-46 47,-34 109,-84 41,-32 4,-16 69,-27 87,-14 356,-8 454,-6 z m 5472,310 c -6,24 -129,163 -162,191 -1,1 -4,3 -6,4 -13,11 -13,11 -24,18 -6,-64 -27,-55 -54,-75 z m -533,575 c 0,1 0,2 -1,3 -2,2 2,27 -3,1 l 4,-5 z m -5699,-126 c 129,29 357,226 552,324 40,20 61,29 103,47 34,14 70,24 93,45 -128,1 -382,-69 -474,-113 -105,-51 -226,-131 -267,-247 -10,-27 -7,-22 -7,-56 z m 770,416 c 1,1 -3,3 -4,4 z m -2448,129 c 1,1 -3,3 -3,3 z m 6435,10 c 1,1 -3,3 -3,3 z m -54,21 c 1,1 -3,3 -3,4 z m -21,11 c 18,19 -12,6 -12,6 -27,10 1,-17 12,-6 z m -3014,246 c -7,5 -6,7 -20,13 -142,61 -119,-22 -120,-55 43,18 96,22 140,42 z m 1041,18 c -51,-6 -225,31 -261,-18 11,-7 1,-6 22,-10 l 352,10 -14,8 c -46,13 38,-7 -18,3 -6,1 -20,2 -29,3 -30,5 -10,8 -52,4 z m 551,111 c -71,1 -142,31 -203,32 -11,-24 -19,-42 -21,-75 41,-10 145,-20 192,-22 35,-1 73,-3 105,-4 46,-1 34,-7 34,58 -55,0 -52,11 -107,11 z m -1571,-11 c -9,0 -50,22 -128,21 1,-54 0,-49 52,-54 122,-14 140,-38 148,4 7,38 -37,29 -72,29 z m 1606,110 c -52,10 -195,39 -238,18 5,-43 9,-37 61,-46 59,-10 118,-24 183,-16 l 77,19 z m -1531,146 -161,-42 c 30,-7 14,-5 42,-12 l 97,-31 c -2,-94 -33,-81 -171,-11 7,-64 -3,-2 14,-39 l 18,-36 c 43,-10 130,-17 161,-32 z m 1625,-10 c -37,-24 -25,-23 -73,-11 -59,15 -159,14 -237,32 l -9,-34 c 2,-27 6,-21 21,-28 72,-33 217,-34 298,-34 -10,46 -2,18 0,75 z m -1572,32 c 1,1 -3,3 -3,3 z m -128,21 c -9,8 2,5 -25,18 l -82,36 v -65 c 55,1 52,11 107,11 z m 1507,107 c -67,0 -89,17 -128,43 v -96 c 44,0 92,28 128,53 z m -1689,-129 c 47,75 -7,121 -8,163 0,22 10,17 17,53 7,35 -37,345 -40,351 -18,-7 -29,-2 -26,-47 l 42,-491 c 14,-43 6,-15 15,-29 z m 118,1391 c 0,82 -18,54 -19,101 0,27 15,32 23,70 16,68 -29,327 -97,430 l -35,51 c -1,2 -3,4 -5,6 l -49,26 c -37,-78 13,-253 -25,-403 -33,-134 -7,-72 -7,-260 52,4 31,19 86,32 -5,-53 -22,-65 -60,-90 -71,-48 -73,-35 -102,-19 l -95,45 c -1,1 -4,3 -6,5 -2,1 -4,3 -6,4 -134,99 -243,276 -394,248 11,-46 50,-106 82,-132 26,-21 40,-20 68,-40 21,-15 34,-30 57,-49 l 11,-10 c 2,-1 5,-3 6,-5 l 41,-34 c 158,-109 100,-103 194,-94 13,-28 20,-62 48,-80 19,-12 38,-9 81,-38 0,-39 5,-48 -23,-73 l -20,-12 c 24,-28 67,-160 75,-193 14,23 20,52 11,75 23,-8 16,-4 29,-24 17,-26 16,-91 18,-108 l 59,-659 c 40,-27 61,-51 129,-65 53,-11 48,0 42,42 -3,28 -3,17 -5,37 -9,99 -14,188 5,275 44,-32 14,-96 43,-232 2,-10 2,-4 4,-20 5,-50 -4,-96 28,-133 0,42 5,89 6,114 l -6,335 c 0,95 18,216 63,301 86,162 11,232 33,297 47,143 8,95 23,170 4,18 5,15 9,23 l 86,192 c 15,30 25,55 35,94 15,61 8,144 -65,138 -56,-4 -237,-140 -281,-198 -104,-138 -9,-114 -95,-173 z"
         id="path547-2" /><path
         class="fil9"
         d="m 9685.903,1543.7243 c 3,39 12,51 6,80 -14,62 -37,101 -76,149 -29,37 -20,24 -54,52 -115,94 -265,35 -337,-44 l -16,-17 c -26,-32 -26,-53 -26,-102 -1,-114 6,-106 47,-179 35,-64 45,-108 132,-147 l 110,-28 c 8,16 -7,8 4,32 23,50 54,-8 85,45 12,22 -17,22 37,43 19,7 46,10 67,19 -27,38 2,5 -29,25 l -35,18 c 0,97 17,90 85,54 z m -577,85 c 0,81 25,187 75,224 11,8 21,10 36,18 65,37 18,120 259,64 140,-33 185,-76 251,-187 12,-19 20,-45 28,-68 23,-63 16,-80 14,-147 -5,-159 -65,-133 -119,-234 -7,-15 -21,-37 -35,-51 -2,-2 -9,-8 -11,-10 l -36,-13 c -123,-14 -259,35 -338,122 -2,1 -4,4 -5,5 l -93,143 c -38,83 -34,42 -26,134 z"
         id="path548-6" /><path
         class="fil9"
         d="m 5506.903,3873.7243 c 38,-3 56,-15 82,-35 l 268,-203 c 1,-1 4,-3 6,-4 l 13,-9 c 54,-40 128,-103 198,-122 80,-22 36,-28 80,-102 56,-92 23,-156 -42,-174 -144,-41 -422,140 -557,206 -25,13 -19,9 -42,22 l -254,152 c -27,17 -46,29 -73,45 -21,13 -51,29 -73,44 l -13,9 c -53,39 -445,293 -453,327 -1,3 -4,3 -6,4 67,-6 440,-275 528,-327 29,-17 40,-20 67,-39 l 166,-101 c 21,-14 10,-7 35,-19 109,-58 315,-174 422,-219 24,-10 53,-18 80,-28 132,-49 203,-2 147,83 l -353,288 c -22,18 -41,26 -63,45 -93,80 -121,74 -163,157 z"
         id="path549-6" /><path
         class="fil9"
         d="m 6489.903,3627.7243 c -36,40 -9,59 -42,129 -16,34 -48,68 -73,98 l -382,335 c -2,2 -9,8 -12,10 l -12,9 c -22,15 -28,18 -50,34 l -611,394 c -19,12 -31,22 -52,33 -20,11 -36,18 -51,25 -31,16 -82,40 -110,60 l -91,70 c 44,-10 50,-29 116,-50 l 235,-112 c 116,-56 410,-244 533,-332 l 199,-155 c 126,-94 85,-56 218,-177 l 150,-149 c 16,-20 138,-195 35,-222 z"
         id="path550-7" /><path
         class="fil9"
         d="m 7195.903,3317.7243 c -33,67 -5,171 -28,272 -44,187 -51,273 -150,469 -113,223 -122,231 -235,418 l -139,193 c -26,33 -45,61 -68,91 l -153,179 c -25,26 -63,68 -72,99 33,-22 60,-41 91,-70 l 21,-21 293,-349 201,-312 c 226,-461 182,-310 274,-741 8,-40 23,-95 27,-144 4,-56 -9,-79 -62,-84 z"
         id="path551-8" /><path
         class="fil9"
         d="m 9685.903,538.72427 c -41,-27 -42,-26 -104,-36 l -110,-4 c -373,28 -853,102 -1209,220 -74,25 -139,56 -202,87 -30,15 -60,28 -92,47 l -61,45 c -18,20 -12,-2 -7,14 19,8 -14,10 38,-13 21,-10 31,-14 53,-24 40,-18 73,-31 111,-49 150,-68 304,-117 469,-151 l 514,-85 c 97,-12 169,-29 258,-30 83,-1 185,-18 240,7 63,28 -25,78 43,73 47,-4 58,-55 59,-101 z"
         id="path552-4" /><path
         class="fil9"
         d="m 1850.903,2334.7243 c -9,-19 -12,-35 -21,-54 -43,4 -37,6 -62,35 -80,91 -371,17 -467,-10 l -256,-74 c -43,-15 -42,-16 -88.99996,-29 l -335,-135 c -27,-13 -48,-25 -78,-40 l -231,-122 c -30,-18 -44,-20 -75,-42 8,31 3,14 20,33 54,58 346,212 398,233 59,24 107,49 167,68 l 162,63 c 54.99996,19 115.99996,36 175.99996,58 127,47 366,102 509,101 66,0 139,-41 182,-85 z"
         id="path553-1" /><path
         class="fil9"
         d="m 10637.903,3499.7243 c 34,-37 75,-46 75,-118 -1,-53 -98,-58 -129,-85 22,-29 38,-28 78,-40 43,-14 51,-14 82,-36 -9,-34 -16,-35 -42,-53 l -67,30 c -126,56 -156,53 -158,131 37,19 118,54 161,64 -13,55 -8,28 -36,50 -33,24 -39,16 -39,57 -1,60 60,84 37,229 -9,53 -15,73 -31,119 -17,46 -39,67 -49,112 35,-10 23,-5 44,-31 l 17,-26 c 98,-158 92,-244 57,-403 z"
         id="path554-7" /><path
         class="fil9"
         d="m 6906.903,6930.7243 z m -214,-10 c -22,0 -119,-1 -139,10 74,8 -15,23 87,19 l 157,1 c 29,-3 70,-13 110,-13 205,0 218,-4 406,-32 l 362,-83 c 493,-104 398,-311 329,-248 -23,21 -24,44 -46,72 -54,67 -206,112 -282,134 -26,8 -13,3 -38,9 -393,93 -503,130 -946,131 z"
         id="path555-1" /><path
         class="fil9"
         d="m 7814.903,944.72427 c -80,-35 -776,435.00003 -798,452.00003 -74,60 -397,239 -452,318 48,-6 15,-2 39,-15 l 737,-460 c 151,-101 354,-200 444,-262.00003 33,-22 18,2 30,-33 z"
         id="path556-8" /><path
         class="fil9"
         d="m 8349.903,7187.7243 c -39,11 -89,48 -146,68 l -657,240 c -3,1 -5,2 -8,3 l -429,159 1240,-397 c 39,-37 4,-68 0,-73 z"
         id="path557-7" /><path
         class="fil9"
         d="m 3068.903,6321.7243 c -17,-37 -2,-26 -32,-54 l -150,96 c -69,42 -237,136 -304,188 -1,2 -4,4 -5,5 -2,2 -4,4 -6,5 l -26,16 c -35,20 -85,53 -107,86 39,-3 191,-94 233,-120 l 199,-110 c 22,-11 18,-11 43,-22 70,-32 109,-36 155,-90 z"
         id="path558-8" /><path
         class="fil9"
         d="m 6788.903,8234.7243 h -53 c -18,82 4,94 31,226 9,41 14,74 12,128 -2,65 -28,81 -11,117 100,-73 57,-259 46,-345 -8,-55 -6,-86 -25,-126 z"
         id="path559-7" /><path
         class="fil9"
         d="m 3977.903,6321.7243 c 15,56 82,67 136,88 l 527,158 c -11,-30 -28,-34 -71,-47 -11,-3 -30,-9 -41,-13 l -48,-16 c -60,-17 -117,-36 -179,-56 l -223,-98 c -43,-34 42,37 -15,-17 -22,-20 -33,-45 -86,1 z"
         id="path560-7" /><path
         class="fil9"
         d="m 6072.903,3659.7243 c -60,2 -67,34 -128,86 l -23,20 c -10,9 -13,13 -21,21 l -16,16 c -68,62 -46,35 -89,104 -20,31 -39,43 -42,94 60,-2 46,-38 86,-82 l 81,-80 c 102,-95 105,-89 152,-179 z"
         id="path561-4" /><path
         class="fil9"
         d="m 7622.903,3584.7243 c -123,30 32,46 -71,250 l -143,253 c 25,-9 28,-18 49,-48 l 146,-216 c 16,-25 21,-43 28,-69 15,-57 14,-121 -9,-170 z"
         id="path562-4" /><path
         class="fil9"
         d="m 5249.903,8534.7243 c -102,-25 -45,4 -64,148 -7,56 -38,212 -22,247 61,-44 86,-313 86,-395 z"
         id="path563-9" /><path
         class="fil9"
         d="m 4490.903,4119.7243 c -57,30 -24,18 -63,55 -86,80 -164,84 -172,159 32,-8 70,-26 99,-41 100,-53 242,-83 136,-173 z"
         id="path564-1" /><path
         class="fil9"
         d="m 1935.903,2280.7243 c 53,37 370,124 384,40 13,-73 -19,-7 -159,-18 -79,-6 -135,-22 -225,-22 z"
         id="path565-5" /><path
         class="fil9"
         d="m 8873.903,2484.7243 c 0,-57 3,-51 -32,-75 -26,10 -40,58 -118,21 -1,4 -43,75 21,75 65,0 85,-1 129,-21 z"
         id="path566-5" /><path
         class="fil9"
         d="m 9332.903,2580.7243 c -9,6 -33,10 -29,46 9,68 19,-39 19,146 35,-8 29,-2 49,-37 l 16,-49 c 5,-63 -19,-87 -55,-106 z"
         id="path567-5" /><path
         class="fil9"
         d="m 9194.903,3168.7243 c -55,29 -17,-13 -57,93 -17,43 -39,71 -39,120 51,-14 101,-109 111,-146 11,-42 1,-43 -15,-67 z"
         id="path568-8" /><path
         class="fil9"
         d="m 9172.903,5840.7243 c -54,1 -71,16 -107,32 -55,25 -72,4 -75,75 46,0 126,-21 163,-51 22,-18 18,-22 19,-56 z"
         id="path569-2" /><path
         class="fil9"
         d="m 6339.903,1831.7243 c -52,1 -64,11 -93,36 -25,22 -47,36 -56,71 56,28 49,-4 104,-24 48,-19 65,5 45,-83 z"
         id="path570-9" /><path
         class="fil9"
         d="m 8402.903,2515.7243 c -14,-55 -47,-55 -110,-47 l -99,8 c -41,16 -14,-1 -26,29 35,3 216,32 235,10 z"
         id="path571-8" /><path
         class="fil9"
         d="m 3564.903,4732.7243 c 9,-3 128,-38 78,-64 -35,-18 -148,41 -173,56 l -35,23 c -15,13 -7,1 -13,24 z"
         id="path572-2" /><path
         class="fil9"
         d="m 5816.903,2120.7243 c -126,-10 7,-30 -149,35 -16,7 -31,-17 -33,50 40,0 165,-25 182,-85 z"
         id="path573-0" /><path
         class="fil9"
         d="m 4009.903,4482.7243 c -61,5 -113,68 -113,78 0,51 119,-5 135,-13 -6,-66 -20,-62 -22,-65 z"
         id="path574-7" /><path
         class="fil9"
         d="m 9867.903,5188.7243 c 0,-24 -8,-24 -21,-43 -46,25 -21,6 -52,44 -10,12 -45,44 -45,52 0,56 46,26 64,11 30,-24 54,-40 54,-64 z"
         id="path575-4" /><path
         class="fil9"
         d="m 5997.903,6759.7243 c -27,-38 23,-8 -99,-29 -48,-8 -72,-13 -125,-14 34,47 178,72 224,43 z"
         id="path576-8" /><path
         class="fil9"
         d="m 9568.903,5530.7243 c 0,-29 -25,-41 -43,-53 -41,45 -50,42 -53,85 18,9 6,7 32,9 3,0 64,10 64,-41 z"
         id="path577-5" /><path
         class="fil9"
         d="m 9119.903,5423.7243 c -65,0 -58,-10 -86,32 l 24,30 c 76,-14 61,-57 62,-62 z"
         id="path578-8" /><path
         class="fil9"
         d="m 9440.903,5284.7243 -13,-42 c -48,4 -50,12 -52,63 39,10 45,15 65,-21 z"
         id="path579-3" /><path
         class="fil9"
         d="m 7013.903,7230.7243 c -11,-12 -39,15 -13,5 1,0 30,13 13,-5 z"
         id="path580-0" /><path
         class="fil9"
         d="m 6542.903,6920.7243 -3,3 c 0,0 5,-2 3,-3 z"
         id="path581-6" /><path
         class="fil9"
         d="m 3464.903,2505.7243 -5,4 2,-1 c 0,0 4,-2 3,-3 z"
         id="path582-2" /><path
         class="fil9"
         d="m 5665.903,6984.7243 -2,3 c 0,0 3,-2 2,-3 z"
         id="path583-2" /><path
         class="fil9"
         d="m 5645.903,6984.7243 c -2,-2 -4,4 -4,3 0,-1 -1,1 -1,1 z"
         id="path584-5" /><path
         class="fil9"
         d="m 6542.903,6941.7243 c -1,-1 -3,5 -3,3 l -1,2 z"
         id="path585-2" /><path
         class="fil43"
         d="m 5276.903,2306.7243 c -129,14 -338,125 -405,212 -67,87 9,149 138,136 129,-14 312,-103 379,-190 67,-87 18,-171 -112,-158 z"
         id="path586-2" /></g></g></svg>
