<?xml version="1.0" encoding="UTF-8" standalone="no"?>
<!DOCTYPE svg PUBLIC "-//W3C//DTD SVG 1.1//EN" "http://www.w3.org/Graphics/SVG/1.1/DTD/svg11.dtd">
<svg width="100%" height="100%" viewBox="0 0 1140 1068" version="1.1" xmlns="http://www.w3.org/2000/svg" xmlns:xlink="http://www.w3.org/1999/xlink" xml:space="preserve" xmlns:serif="http://www.serif.com/" style="fill-rule:evenodd;clip-rule:evenodd;stroke-linejoin:round;stroke-miterlimit:2;">
    <g transform="matrix(1,0,0,1,-1044.7,-427.452)">
        <path d="M2154.44,1250.11C2100.62,1185.58 2167.78,692.97 2149.24,626.666C2123.45,534.499 2051.62,435.777 1895.78,451.362C1808.2,460.12 1446.28,437.376 1407.98,428.54C1381.05,422.325 1213.84,440.736 1109.45,536.202C1071.16,571.221 1014.68,569.31 1063.92,745.201C1143.87,1030.7 1082.2,1039.78 1067.62,1131.03C1038.79,1311.37 1139.41,1528.61 1361.9,1490.14C1361.9,1490.14 1520.97,1467.45 1620.56,1442.55C1718.84,1417.98 2020.42,1470.4 2055.12,1467.38C2214.81,1453.47 2196.7,1300.77 2154.44,1250.11Z" style="fill:rgb(157,234,160);"/>
        <g transform="matrix(0.399724,0,0,0.399724,579.357,205.98)">
            <path d="M3571.19,863.228C3571.7,862.204 3583.72,1356.56 3576.53,1406.87C3573.51,1427.99 3526.1,1444.71 3525.36,1419.66C3523.38,1352.27 3536.2,1350.79 3527.45,857.904C3540.87,834.83 3555.16,833.702 3570.13,850.42L3571.19,863.228Z" style="fill:rgb(101,66,30);"/>
        </g>
        <g transform="matrix(2.4476e-17,-0.399724,0.399724,2.4476e-17,1414.02,1950.62)">
            <path d="M3571.19,863.228C3571.7,862.204 3583.72,1356.56 3576.53,1406.87C3573.51,1427.99 3526.1,1444.71 3525.36,1419.66C3523.38,1352.27 3536.2,1350.79 3527.45,857.904C3540.87,834.83 3555.16,833.702 3570.13,850.42L3571.19,863.228Z" style="fill:rgb(101,66,30);"/>
        </g>
        <g transform="matrix(2.4476e-17,-0.399724,0.399724,2.4476e-17,1422.13,2213.45)">
            <path d="M3571.19,863.228C3571.7,862.204 3583.72,1356.56 3576.53,1406.87C3573.51,1427.99 3526.1,1444.71 3525.36,1419.66C3523.38,1352.27 3536.2,1350.79 3527.45,857.904C3540.87,834.83 3555.16,833.702 3570.13,850.42L3571.19,863.228Z" style="fill:rgb(101,66,30);"/>
        </g>
        <g transform="matrix(2.4476e-17,-0.399724,0.399724,2.4476e-17,1422.67,2503.46)">
            <path d="M3571.19,863.228C3571.7,862.204 3583.72,1356.56 3576.53,1406.87C3573.51,1427.99 3526.1,1444.71 3525.36,1419.66C3523.38,1352.27 3536.2,1350.79 3527.45,857.904C3540.87,834.83 3555.16,833.702 3570.13,850.42L3571.19,863.228Z" style="fill:rgb(101,66,30);"/>
        </g>
        <g transform="matrix(2.4476e-17,-0.399724,0.399724,2.4476e-17,1421.93,2763.58)">
            <path d="M3571.19,863.228C3571.7,862.204 3583.72,1356.56 3576.53,1406.87C3573.51,1427.99 3526.1,1444.71 3525.36,1419.66C3523.38,1352.27 3536.2,1350.79 3527.45,857.904C3540.87,834.83 3555.16,833.702 3570.13,850.42L3571.19,863.228Z" style="fill:rgb(101,66,30);"/>
        </g>
        <g transform="matrix(2.4476e-17,-0.399724,0.399724,2.4476e-17,1142.8,1950.62)">
            <path d="M3571.19,863.228C3571.7,862.204 3583.72,1356.56 3576.53,1406.87C3573.51,1427.99 3526.1,1444.71 3525.36,1419.66C3523.38,1352.27 3536.2,1350.79 3527.45,857.904C3540.87,834.83 3555.16,833.702 3570.13,850.42L3571.19,863.228Z" style="fill:rgb(101,66,30);"/>
        </g>
        <g transform="matrix(2.4476e-17,-0.399724,0.399724,2.4476e-17,1150.91,2213.45)">
            <path d="M3571.19,863.228C3571.7,862.204 3583.72,1356.56 3576.53,1406.87C3573.51,1427.99 3526.1,1444.71 3525.36,1419.66C3523.38,1352.27 3536.2,1350.79 3527.45,857.904C3540.87,834.83 3555.16,833.702 3570.13,850.42L3571.19,863.228Z" style="fill:rgb(101,66,30);"/>
        </g>
        <g transform="matrix(2.4476e-17,-0.399724,0.399724,2.4476e-17,1151.46,2503.46)">
            <path d="M3571.19,863.228C3571.7,862.204 3583.72,1356.56 3576.53,1406.87C3573.51,1427.99 3526.1,1444.71 3525.36,1419.66C3523.38,1352.27 3536.2,1350.79 3527.45,857.904C3540.87,834.83 3555.16,833.702 3570.13,850.42L3571.19,863.228Z" style="fill:rgb(101,66,30);"/>
        </g>
        <g transform="matrix(2.4476e-17,-0.399724,0.399724,2.4476e-17,1150.71,2763.58)">
            <path d="M3571.19,863.228C3571.7,862.204 3583.72,1356.56 3576.53,1406.87C3573.51,1427.99 3526.1,1444.71 3525.36,1419.66C3523.38,1352.27 3536.2,1350.79 3527.45,857.904C3540.87,834.83 3555.16,833.702 3570.13,850.42L3571.19,863.228Z" style="fill:rgb(101,66,30);"/>
        </g>
        <g transform="matrix(2.4476e-17,-0.399724,0.399724,2.4476e-17,871.591,1950.62)">
            <path d="M3571.19,863.228C3571.7,862.204 3583.72,1356.56 3576.53,1406.87C3573.51,1427.99 3526.1,1444.71 3525.36,1419.66C3523.38,1352.27 3536.2,1350.79 3527.45,857.904C3540.87,834.83 3555.16,833.702 3570.13,850.42L3571.19,863.228Z" style="fill:rgb(101,66,30);"/>
        </g>
        <g transform="matrix(2.4476e-17,-0.399724,0.399724,2.4476e-17,879.702,2213.45)">
            <path d="M3571.19,863.228C3571.7,862.204 3583.72,1356.56 3576.53,1406.87C3573.51,1427.99 3526.1,1444.71 3525.36,1419.66C3523.38,1352.27 3536.2,1350.79 3527.45,857.904C3540.87,834.83 3555.16,833.702 3570.13,850.42L3571.19,863.228Z" style="fill:rgb(101,66,30);"/>
        </g>
        <g transform="matrix(2.4476e-17,-0.399724,0.399724,2.4476e-17,880.248,2503.46)">
            <path d="M3571.19,863.228C3571.7,862.204 3583.72,1356.56 3576.53,1406.87C3573.51,1427.99 3526.1,1444.71 3525.36,1419.66C3523.38,1352.27 3536.2,1350.79 3527.45,857.904C3540.87,834.83 3555.16,833.702 3570.13,850.42L3571.19,863.228Z" style="fill:rgb(101,66,30);"/>
        </g>
        <g transform="matrix(2.4476e-17,-0.399724,0.399724,2.4476e-17,879.502,2763.58)">
            <path d="M3571.19,863.228C3571.7,862.204 3583.72,1356.56 3576.53,1406.87C3573.51,1427.99 3526.1,1444.71 3525.36,1419.66C3523.38,1352.27 3536.2,1350.79 3527.45,857.904C3540.87,834.83 3555.16,833.702 3570.13,850.42L3571.19,863.228Z" style="fill:rgb(101,66,30);"/>
        </g>
        <g transform="matrix(0.399724,0,0,0.476966,579.347,388.317)">
            <path d="M3571.19,863.228C3571.7,862.204 3583.72,1356.56 3576.53,1406.87C3573.51,1427.99 3526.1,1444.71 3525.36,1419.66C3523.38,1352.27 3536.2,1350.79 3527.45,857.904C3540.87,834.83 3555.16,833.702 3570.13,850.42L3571.19,863.228Z" style="fill:rgb(101,66,30);"/>
        </g>
        <g transform="matrix(0.399394,0,0,0.426813,580.517,733.525)">
            <path d="M3571.19,863.228C3571.7,862.204 3583.72,1356.56 3576.53,1406.87C3573.51,1427.99 3526.1,1444.71 3525.36,1419.66C3523.38,1352.27 3536.2,1350.79 3527.45,857.904C3540.87,834.83 3555.16,833.702 3570.13,850.42L3571.19,863.228Z" style="fill:rgb(101,66,30);"/>
        </g>
        <g transform="matrix(0.399724,0,0,0.399724,317.349,209.572)">
            <path d="M3571.19,863.228C3571.7,862.204 3583.72,1356.56 3576.53,1406.87C3573.51,1427.99 3526.1,1444.71 3525.36,1419.66C3523.38,1352.27 3536.2,1350.79 3527.45,857.904C3541.68,855.409 3555.91,852.915 3570.13,850.42L3571.19,863.228Z" style="fill:rgb(101,66,30);"/>
        </g>
        <g transform="matrix(0.399724,0,0,0.476966,317.339,391.909)">
            <path d="M3571.19,863.228C3571.7,862.204 3583.72,1356.56 3576.53,1406.87C3573.51,1427.99 3526.1,1444.71 3525.36,1419.66C3523.38,1352.27 3536.2,1350.79 3527.45,857.904C3541.68,855.409 3555.91,852.915 3570.13,850.42L3571.19,863.228Z" style="fill:rgb(101,66,30);"/>
        </g>
        <g transform="matrix(0.399394,0,0,0.426813,318.776,737.118)">
            <path d="M3571.19,863.228C3571.7,862.204 3583.72,1356.56 3576.53,1406.87C3573.51,1427.99 3526.1,1444.71 3525.36,1419.66C3523.38,1352.27 3536.2,1350.79 3527.45,857.904C3541.68,855.409 3555.91,852.915 3570.13,850.42L3571.19,863.228Z" style="fill:rgb(101,66,30);"/>
        </g>
        <g transform="matrix(0.399724,0,0,0.399724,44.0594,217.549)">
            <path d="M3571.19,863.228C3571.7,862.204 3583.72,1356.56 3576.53,1406.87C3573.51,1427.99 3526.1,1444.71 3525.36,1419.66C3523.38,1352.27 3536.2,1350.79 3527.45,857.904C3541.68,855.409 3555.91,852.915 3570.13,850.42L3571.19,863.228Z" style="fill:rgb(101,66,30);"/>
        </g>
        <g transform="matrix(0.399724,0,0,0.476966,44.0488,399.886)">
            <path d="M3571.19,863.228C3571.7,862.204 3583.72,1356.56 3576.53,1406.87C3573.51,1427.99 3526.1,1444.71 3525.36,1419.66C3523.38,1352.27 3536.2,1350.79 3527.45,857.904C3541.68,855.409 3555.91,852.915 3570.13,850.42L3571.19,863.228Z" style="fill:rgb(101,66,30);"/>
        </g>
        <g transform="matrix(0.399394,0,0,0.426813,45.7241,745.095)">
            <path d="M3571.19,863.228C3571.7,862.204 3583.72,1356.56 3576.53,1406.87C3573.51,1427.99 3526.1,1444.71 3525.36,1419.66C3523.38,1352.27 3536.2,1350.79 3527.45,857.904C3541.68,855.409 3555.91,852.915 3570.13,850.42L3571.19,863.228Z" style="fill:rgb(101,66,30);"/>
        </g>
        <g transform="matrix(0.399724,0,0,0.399724,-205.914,221.224)">
            <path d="M3571.19,863.228C3571.7,862.204 3583.72,1356.56 3576.53,1406.87C3573.51,1427.99 3526.1,1444.71 3525.36,1419.66C3523.38,1352.27 3536.2,1350.79 3527.45,857.904C3541.68,855.409 3555.91,852.915 3570.13,850.42L3571.19,863.228Z" style="fill:rgb(101,66,30);"/>
        </g>
        <g transform="matrix(0.399724,0,0,0.476966,-205.925,403.122)">
            <path d="M3571.19,863.228C3571.7,862.204 3583.72,1356.56 3576.53,1406.87C3573.51,1427.99 3526.1,1444.71 3525.36,1419.66C3523.38,1352.27 3536.2,1350.79 3527.45,857.904C3541.68,855.409 3555.91,852.915 3570.13,850.42L3571.19,863.228Z" style="fill:rgb(101,66,30);"/>
        </g>
        <g transform="matrix(2.4476e-17,-0.399724,0.476966,2.92057e-17,1445.7,2846.74)">
            <path d="M3571.19,863.228C3571.7,862.204 3583.72,1356.56 3576.53,1406.87C3573.51,1427.99 3526.1,1444.71 3525.36,1419.66C3523.38,1352.27 3536.2,1350.79 3527.45,857.904C3538.41,834.451 3553.07,834.679 3570.13,850.42L3571.19,863.228Z" style="fill:rgb(101,66,30);"/>
        </g>
        <g transform="matrix(-0.0156949,-0.399416,0.476598,-0.0187278,1458.18,2838.5)">
            <path d="M3571.19,863.228C3561.5,862.449 3581.26,1356.62 3576.53,1406.87C3574.53,1428.11 3526.1,1444.71 3525.36,1419.66C3523.38,1352.27 3536.2,1350.79 3527.45,857.904C3544.06,839.291 3557.77,840.318 3570.13,850.42L3571.19,863.228Z" style="fill:rgb(101,66,30);"/>
        </g>
        <g transform="matrix(0.399394,0,0,0.426813,-204.048,748.615)">
            <path d="M3571.19,863.228C3571.7,862.204 3583.72,1356.56 3576.53,1406.87C3573.51,1427.99 3526.1,1444.71 3525.36,1419.66C3523.38,1352.27 3536.2,1350.79 3527.45,857.904C3541.68,855.409 3555.91,852.915 3570.13,850.42L3571.19,863.228Z" style="fill:rgb(101,66,30);"/>
        </g>
        <g transform="matrix(0.399724,0,0,0.399724,641.901,209.572)">
            <path d="M2755.26,725.103C2706.08,688.317 2578.63,845.99 2726.29,872.691C2859.42,896.763 2801.99,711.518 2755.26,725.103Z" style="fill:rgb(148,97,43);"/>
        </g>
        <g transform="matrix(0.399724,0,0,0.399724,641.901,762.495)">
            <path d="M2755.6,725.758C2747.15,718.029 2743.14,722.644 2732.91,725.103C2679.01,738.058 2611.8,863.116 2726.29,872.691C2864.47,884.246 2811.85,739.088 2755.26,725.103L2755.6,725.758Z" style="fill:rgb(148,97,43);"/>
        </g>
        <g transform="matrix(0.399724,0,0,0.399724,656.231,217.549)">
            <path d="M1990.5,718.686C1939.66,725.038 1902.48,826.874 1979.8,859.857C2051.25,890.334 2190.67,764.174 1990.5,718.686Z" style="fill:rgb(148,97,43);"/>
        </g>
        <g transform="matrix(0.493692,0,0,0.426022,474.489,747.674)">
            <path d="M1990.5,718.686C1932.2,717.481 1904.61,822.263 1979.8,859.857C2048.11,894.01 2162.67,796.949 1990.5,718.686Z" style="fill:rgb(148,97,43);"/>
        </g>
        <g transform="matrix(0.399724,0,0,0.399724,650.807,223.493)">
            <path d="M1333.84,774.299C1323.3,953.404 1511.65,830.484 1453.62,755.048C1449.39,749.556 1430.59,725.103 1372.34,725.103C1333.84,725.103 1333.3,765.711 1333.84,774.299Z" style="fill:rgb(148,97,43);"/>
        </g>
        <g transform="matrix(0.399724,0,0,0.399724,650.807,776.415)">
            <path d="M1333.84,774.299C1323.3,953.404 1511.65,830.484 1453.62,755.048C1449.39,749.556 1430.59,725.103 1372.34,725.103C1333.84,725.103 1333.3,765.711 1333.84,774.299Z" style="fill:rgb(148,97,43);"/>
        </g>
        <g transform="matrix(0.399724,0,0,0.399724,650.807,223.493)">
            <path d="M1438.65,1356.09C1396.9,1341.01 1308.02,1411.1 1374.48,1490.85C1441.65,1571.45 1582.02,1413.44 1438.65,1356.09Z" style="fill:rgb(148,97,43);"/>
        </g>
        <g transform="matrix(0.399724,0,0,0.399724,650.807,776.415)">
            <path d="M1438.65,1356.09C1383.23,1343.03 1308.02,1411.1 1374.48,1490.85C1441.65,1571.45 1582.02,1413.44 1438.65,1356.09Z" style="fill:rgb(148,97,43);"/>
        </g>
        <g transform="matrix(0.399724,0,0,0.399724,656.231,217.549)">
            <path d="M2089.41,1420.26C2074,1358.41 1946.97,1372.72 1977.66,1480.15C1990.18,1523.96 2129.93,1525.21 2089.41,1420.26Z" style="fill:rgb(148,97,43);"/>
        </g>
        <g transform="matrix(0.399724,0,0,0.399724,656.231,770.472)">
            <path d="M2089.41,1420.26C2074,1358.41 1946.97,1372.72 1977.66,1480.15C1990.18,1523.96 2125.4,1532.43 2089.41,1420.26Z" style="fill:rgb(148,97,43);"/>
        </g>
        <g transform="matrix(0.399724,0,0,0.399724,641.901,209.572)">
            <path d="M2792.6,1407.43C2701.58,1339.16 2618.17,1455.95 2687.79,1510.1C2712.61,1529.4 2870.38,1494.93 2792.6,1407.43Z" style="fill:rgb(148,97,43);"/>
        </g>
        <g transform="matrix(0.399724,0,0,0.399724,642.568,766.969)">
            <path d="M2792.6,1407.43C2701.58,1339.16 2618.17,1455.95 2687.79,1510.1C2712.61,1529.4 2870.38,1494.93 2792.6,1407.43Z" style="fill:rgb(148,97,43);"/>
        </g>
        <g transform="matrix(0.399724,0,0,0.399724,579.357,205.98)">
            <path d="M3613.96,787.133C3544.68,702.971 3449.46,803.009 3492.04,849.162C3579.51,943.985 3687.63,808.182 3613.96,787.133Z" style="fill:rgb(148,97,43);"/>
        </g>
        <g transform="matrix(0.399724,0,0,0.399724,579.357,758.902)">
            <path d="M3597.98,768.218C3518.78,721.295 3470.93,812.973 3492.04,849.162C3557.04,960.596 3649.67,829.893 3613.85,792.787L3597.98,768.218Z" style="fill:rgb(148,97,43);"/>
        </g>
        <g transform="matrix(0.399724,0,0,0.399724,579.357,205.98)">
            <path d="M3591.56,1442.79C3579.64,1344.98 3452.26,1425.12 3487.76,1507.96C3519.05,1580.98 3642.71,1520.8 3591.56,1442.79Z" style="fill:rgb(148,97,43);"/>
        </g>
        <g transform="matrix(0.399724,0,0,0.399724,579.357,758.902)">
            <path d="M3591.56,1442.79C3579.64,1344.98 3452.26,1425.12 3487.76,1507.96C3519.05,1580.98 3623.39,1517 3591.56,1442.79Z" style="fill:rgb(148,97,43);"/>
        </g>
    </g>
</svg>
