<?xml version="1.0" encoding="UTF-8" standalone="no"?>
<!DOCTYPE svg PUBLIC "-//W3C//DTD SVG 1.1//EN" "http://www.w3.org/Graphics/SVG/1.1/DTD/svg11.dtd">
<svg width="100%" height="100%" viewBox="0 0 1115 1068" version="1.1" xmlns="http://www.w3.org/2000/svg" xmlns:xlink="http://www.w3.org/1999/xlink" xml:space="preserve" xmlns:serif="http://www.serif.com/" style="fill-rule:evenodd;clip-rule:evenodd;stroke-linecap:round;stroke-linejoin:round;stroke-miterlimit:1.5;">
    <g transform="matrix(1,0,0,1,-4222.66,-428.011)">
        <g transform="matrix(1,0,0,1,3177.96,0.558867)">
            <path d="M2154.44,1250.11C2119.31,1173.78 2167.78,692.97 2149.24,626.666C2123.45,534.499 2051.62,435.777 1895.78,451.362C1808.2,460.12 1446.28,437.376 1407.98,428.54C1381.05,422.325 1213.84,440.736 1109.45,536.202C1071.16,571.221 1014.68,569.31 1063.92,745.201C1143.87,1030.7 1082.2,1039.78 1067.62,1131.03C1038.79,1311.37 1139.41,1528.61 1361.9,1490.14C1361.9,1490.14 1520.97,1467.45 1620.56,1442.55C1718.84,1417.98 2022.49,1479.58 2055.12,1467.38C2118.34,1443.74 2176.84,1298.77 2154.44,1250.11Z" style="fill:rgb(157,234,160);"/>
        </g>
        <g transform="matrix(1,0,0,1.02705,1633.46,262.09)">
            <rect x="3017.35" y="794.647" width="266.056" height="286.167" style="fill:rgb(46,101,178);"/>
        </g>
        <g transform="matrix(1,0,0,1,1632.28,28.3625)">
            <rect x="3017.35" y="794.647" width="266.056" height="286.167" style="fill:rgb(46,101,178);"/>
        </g>
        <g transform="matrix(1,0,0,0.923872,1628.24,-178.302)">
            <rect x="3017.35" y="794.647" width="266.056" height="286.167" style="fill:rgb(189,127,74);"/>
        </g>
        <g transform="matrix(0.399724,0,0,0.399724,3761.3,234.343)">
            <path d="M3571.19,863.228C3571.7,862.204 3583.72,1356.56 3576.53,1406.87C3573.51,1427.99 3526.1,1444.71 3525.36,1419.66C3523.38,1352.27 3536.2,1350.79 3527.45,857.904C3540.87,834.83 3555.16,833.702 3570.13,850.42L3571.19,863.228Z" style="fill:rgb(101,66,30);"/>
        </g>
        <g transform="matrix(2.4476e-17,-0.399724,0.399724,2.4476e-17,4595.96,1978.98)">
            <path d="M3571.19,863.228C3571.7,862.204 3583.72,1356.56 3576.53,1406.87C3573.51,1427.99 3526.1,1444.71 3525.36,1419.66C3523.38,1352.27 3536.2,1350.79 3527.45,857.904C3540.87,834.83 3555.16,833.702 3570.13,850.42L3571.19,863.228Z" style="fill:rgb(101,66,30);"/>
        </g>
        <g transform="matrix(2.4476e-17,-0.399724,0.399724,2.4476e-17,4604.07,2241.81)">
            <path d="M3582.43,826.954C3582.95,825.929 3583.72,1356.56 3576.53,1406.87C3573.51,1427.99 3526.1,1444.71 3525.36,1419.66C3523.38,1352.27 3547.45,1314.52 3538.7,821.63C3552.12,798.556 3566.4,797.427 3581.38,814.146L3582.43,826.954Z" style="fill:rgb(101,66,30);"/>
        </g>
        <g transform="matrix(2.4476e-17,-0.399724,0.399724,2.4476e-17,4604.62,2531.82)">
            <path d="M3571.19,863.228C3571.7,862.204 3583.72,1356.56 3576.53,1406.87C3573.51,1427.99 3526.1,1444.71 3525.36,1419.66C3523.38,1352.27 3536.2,1350.79 3527.45,857.904C3540.87,834.83 3555.16,833.702 3570.13,850.42L3571.19,863.228Z" style="fill:rgb(101,66,30);"/>
        </g>
        <g transform="matrix(2.4476e-17,-0.399724,0.399724,2.4476e-17,4603.87,2791.94)">
            <path d="M3571.19,863.228C3571.7,862.204 3583.72,1356.56 3576.53,1406.87C3573.51,1427.99 3526.1,1444.71 3525.36,1419.66C3523.38,1352.27 3536.2,1350.79 3527.45,857.904C3540.87,834.83 3555.16,833.702 3570.13,850.42L3571.19,863.228Z" style="fill:rgb(101,66,30);"/>
        </g>
        <g transform="matrix(2.4476e-17,-0.399724,0.399724,2.4476e-17,4324.75,1978.98)">
            <path d="M3571.19,863.228C3571.7,862.204 3583.72,1356.56 3576.53,1406.87C3573.51,1427.99 3526.1,1444.71 3525.36,1419.66C3523.38,1352.27 3536.2,1350.79 3527.45,857.904C3540.87,834.83 3555.16,833.702 3570.13,850.42L3571.19,863.228Z" style="fill:rgb(101,66,30);"/>
        </g>
        <g transform="matrix(2.4476e-17,-0.399724,0.399724,2.4476e-17,4332.86,2241.81)">
            <path d="M3571.19,863.228C3571.7,862.204 3583.72,1356.56 3576.53,1406.87C3573.51,1427.99 3526.1,1444.71 3525.36,1419.66C3523.38,1352.27 3536.2,1350.79 3527.45,857.904C3540.87,834.83 3555.16,833.702 3570.13,850.42L3571.19,863.228Z" style="fill:rgb(101,66,30);"/>
        </g>
        <g transform="matrix(2.4476e-17,-0.399724,0.399724,2.4476e-17,4332.66,2791.94)">
            <path d="M3571.19,863.228C3571.7,862.204 3583.72,1356.56 3576.53,1406.87C3573.51,1427.99 3526.1,1444.71 3525.36,1419.66C3523.38,1352.27 3536.2,1350.79 3527.45,857.904C3540.87,834.83 3555.16,833.702 3570.13,850.42L3571.19,863.228Z" style="fill:rgb(101,66,30);"/>
        </g>
        <g transform="matrix(2.4476e-17,-0.399724,0.399724,2.4476e-17,4053.54,1978.98)">
            <path d="M3571.19,863.228C3571.7,862.204 3583.72,1356.56 3576.53,1406.87C3573.51,1427.99 3526.1,1444.71 3525.36,1419.66C3523.38,1352.27 3536.2,1350.79 3527.45,857.904C3540.87,834.83 3555.16,833.702 3570.13,850.42L3571.19,863.228Z" style="fill:rgb(101,66,30);"/>
        </g>
        <g transform="matrix(2.4128e-17,-0.394041,0.42613,2.6093e-17,4039.49,2221.77)">
            <path d="M3571.19,863.228C3571.7,862.204 3583.72,1356.56 3576.53,1406.87C3573.51,1427.99 3526.1,1444.71 3525.36,1419.66C3523.38,1352.27 3536.2,1350.79 3527.45,857.904C3540.87,834.83 3555.16,833.702 3570.13,850.42L3571.19,863.228Z" style="fill:rgb(101,66,30);"/>
        </g>
        <g transform="matrix(2.4476e-17,-0.399724,0.399724,2.4476e-17,4062.19,2531.82)">
            <path d="M3571.19,863.228C3571.7,862.204 3583.72,1356.56 3576.53,1406.87C3573.51,1427.99 3526.1,1444.71 3525.36,1419.66C3523.38,1352.27 3536.2,1350.79 3527.45,857.904C3540.87,834.83 3555.16,833.702 3570.13,850.42L3571.19,863.228Z" style="fill:rgb(101,66,30);"/>
        </g>
        <g transform="matrix(2.4476e-17,-0.399724,0.399724,2.4476e-17,4061.45,2791.94)">
            <path d="M3571.19,863.228C3571.7,862.204 3583.72,1356.56 3576.53,1406.87C3573.51,1427.99 3526.1,1444.71 3525.36,1419.66C3523.38,1352.27 3536.2,1350.79 3527.45,857.904C3540.87,834.83 3555.16,833.702 3570.13,850.42L3571.19,863.228Z" style="fill:rgb(101,66,30);"/>
        </g>
        <g transform="matrix(0.399724,0,0,0.476966,3761.29,416.68)">
            <path d="M3571.19,863.228C3571.7,862.204 3583.72,1356.56 3576.53,1406.87C3573.51,1427.99 3526.1,1444.71 3525.36,1419.66C3523.38,1352.27 3536.2,1350.79 3527.45,857.904C3540.87,834.83 3555.16,833.702 3570.13,850.42L3571.19,863.228Z" style="fill:rgb(101,66,30);"/>
        </g>
        <g transform="matrix(0.399394,0,0,0.426813,3762.46,761.888)">
            <path d="M3571.19,863.228C3571.7,862.204 3583.72,1356.56 3576.53,1406.87C3573.51,1427.99 3526.1,1444.71 3525.36,1419.66C3523.38,1352.27 3536.2,1350.79 3527.45,857.904C3540.87,834.83 3555.16,833.702 3570.13,850.42L3571.19,863.228Z" style="fill:rgb(101,66,30);"/>
        </g>
        <g transform="matrix(0.399724,0,0,0.399724,3499.3,237.935)">
            <path d="M3571.19,863.228C3571.7,862.204 3583.72,1356.56 3576.53,1406.87C3573.51,1427.99 3526.1,1444.71 3525.36,1419.66C3523.38,1352.27 3536.2,1350.79 3527.45,857.904C3541.68,855.409 3555.91,852.915 3570.13,850.42L3571.19,863.228Z" style="fill:rgb(101,66,30);"/>
        </g>
        <g transform="matrix(0.399724,0,0,0.476966,3499.29,420.272)">
            <path d="M3571.19,863.228C3571.7,862.204 3583.72,1356.56 3576.53,1406.87C3573.51,1427.99 3526.1,1444.71 3525.36,1419.66C3523.38,1352.27 3536.2,1350.79 3527.45,857.904C3541.68,855.409 3555.91,852.915 3570.13,850.42L3571.19,863.228Z" style="fill:rgb(101,66,30);"/>
        </g>
        <g transform="matrix(0.399394,0,0,0.426813,3500.72,765.48)">
            <path d="M3571.19,863.228C3571.7,862.204 3583.72,1356.56 3576.53,1406.87C3573.51,1427.99 3526.1,1444.71 3525.36,1419.66C3523.38,1352.27 3536.2,1350.79 3527.45,857.904C3541.68,855.409 3555.91,852.915 3570.13,850.42L3571.19,863.228Z" style="fill:rgb(101,66,30);"/>
        </g>
        <g transform="matrix(0.399724,0,0,0.399724,3226.01,245.912)">
            <path d="M3571.19,863.228C3571.7,862.204 3583.72,1356.56 3576.53,1406.87C3573.51,1427.99 3526.1,1444.71 3525.36,1419.66C3523.38,1352.27 3536.2,1350.79 3527.45,857.904C3541.68,855.409 3555.91,852.915 3570.13,850.42L3571.19,863.228Z" style="fill:rgb(101,66,30);"/>
        </g>
        <g transform="matrix(0.399724,0,0,0.476966,3226,428.249)">
            <path d="M3571.19,863.228C3571.7,862.204 3583.72,1356.56 3576.53,1406.87C3573.51,1427.99 3526.1,1444.71 3525.36,1419.66C3523.38,1352.27 3536.2,1350.79 3527.45,857.904C3541.68,855.409 3555.91,852.915 3570.13,850.42L3571.19,863.228Z" style="fill:rgb(101,66,30);"/>
        </g>
        <g transform="matrix(0.399394,0,0,0.426813,3227.67,773.457)">
            <path d="M3571.19,863.228C3571.7,862.204 3583.72,1356.56 3576.53,1406.87C3573.51,1427.99 3526.1,1444.71 3525.36,1419.66C3523.38,1352.27 3536.2,1350.79 3527.45,857.904C3541.68,855.409 3555.91,852.915 3570.13,850.42L3571.19,863.228Z" style="fill:rgb(101,66,30);"/>
        </g>
        <g transform="matrix(0.399724,0,0,0.399724,2976.03,249.586)">
            <path d="M3571.19,863.228C3571.7,862.204 3583.72,1356.56 3576.53,1406.87C3573.51,1427.99 3526.1,1444.71 3525.36,1419.66C3523.38,1352.27 3536.2,1350.79 3527.45,857.904C3541.68,855.409 3555.91,852.915 3570.13,850.42L3571.19,863.228Z" style="fill:rgb(101,66,30);"/>
        </g>
        <g transform="matrix(0.399724,0,0,0.476966,2976.02,431.484)">
            <path d="M3571.19,863.228C3571.7,862.204 3583.72,1356.56 3576.53,1406.87C3573.51,1427.99 3526.1,1444.71 3525.36,1419.66C3523.38,1352.27 3536.2,1350.79 3527.45,857.904C3541.68,855.409 3555.91,852.915 3570.13,850.42L3571.19,863.228Z" style="fill:rgb(101,66,30);"/>
        </g>
        <g transform="matrix(0.399394,0,0,0.426813,2977.9,776.977)">
            <path d="M3571.19,863.228C3571.7,862.204 3583.72,1356.56 3576.53,1406.87C3573.51,1427.99 3526.1,1444.71 3525.36,1419.66C3523.38,1352.27 3536.2,1350.79 3527.45,857.904C3541.68,855.409 3555.91,852.915 3570.13,850.42L3571.19,863.228Z" style="fill:rgb(101,66,30);"/>
        </g>
        <g transform="matrix(0.399724,0,0,0.399724,3823.85,237.935)">
            <path d="M2755.26,725.103C2706.08,688.317 2578.63,845.99 2726.29,872.691C2859.42,896.763 2801.99,711.518 2755.26,725.103Z" style="fill:rgb(148,97,43);"/>
        </g>
        <g transform="matrix(0.399724,0,0,0.399724,3823.85,790.857)">
            <path d="M2755.6,725.758C2747.15,718.029 2743.14,722.644 2732.91,725.103C2679.01,738.058 2611.8,863.116 2726.29,872.691C2864.47,884.246 2811.85,739.088 2755.26,725.103L2755.6,725.758Z" style="fill:rgb(148,97,43);"/>
        </g>
        <g transform="matrix(0.399724,0,0,0.399724,3838.18,245.912)">
            <path d="M1990.5,718.686C1939.66,725.038 1902.48,826.874 1979.8,859.857C2051.25,890.334 2190.67,764.174 1990.5,718.686Z" style="fill:rgb(148,97,43);"/>
        </g>
        <g transform="matrix(0.493692,0,0,0.426022,3656.44,776.036)">
            <path d="M1990.5,718.686C1932.2,717.481 1904.61,822.263 1979.8,859.857C2048.11,894.01 2162.67,796.949 1990.5,718.686Z" style="fill:rgb(148,97,43);"/>
        </g>
        <g transform="matrix(0.399724,0,0,0.399724,3832.75,251.856)">
            <path d="M1333.84,774.299C1323.3,953.404 1511.65,830.484 1453.62,755.048C1449.39,749.556 1430.59,725.103 1372.34,725.103C1333.84,725.103 1333.3,765.711 1333.84,774.299Z" style="fill:rgb(148,97,43);"/>
        </g>
        <g transform="matrix(0.399724,0,0,0.399724,3832.75,804.778)">
            <path d="M1333.84,774.299C1323.3,953.404 1511.65,830.484 1453.62,755.048C1449.39,749.556 1430.59,725.103 1372.34,725.103C1333.84,725.103 1333.3,765.711 1333.84,774.299Z" style="fill:rgb(148,97,43);"/>
        </g>
        <g transform="matrix(0.399724,0,0,0.399724,3832.75,251.856)">
            <path d="M1438.65,1356.09C1396.9,1341.01 1308.02,1411.1 1374.48,1490.85C1441.65,1571.45 1582.02,1413.44 1438.65,1356.09Z" style="fill:rgb(148,97,43);"/>
        </g>
        <g transform="matrix(0.399724,0,0,0.399724,3832.75,804.778)">
            <path d="M1438.65,1356.09C1383.23,1343.03 1308.02,1411.1 1374.48,1490.85C1441.65,1571.45 1582.02,1413.44 1438.65,1356.09Z" style="fill:rgb(148,97,43);"/>
        </g>
        <g transform="matrix(0.399724,0,0,0.399724,3838.18,245.912)">
            <path d="M2089.41,1420.26C2074,1358.41 1946.97,1372.72 1977.66,1480.15C1990.18,1523.96 2129.93,1525.21 2089.41,1420.26Z" style="fill:rgb(148,97,43);"/>
        </g>
        <g transform="matrix(0.399724,0,0,0.399724,3838.18,798.834)">
            <path d="M2089.41,1420.26C2074,1358.41 1946.97,1372.72 1977.66,1480.15C1990.18,1523.96 2125.4,1532.43 2089.41,1420.26Z" style="fill:rgb(148,97,43);"/>
        </g>
        <g transform="matrix(0.399724,0,0,0.399724,3823.85,237.935)">
            <path d="M2792.6,1407.43C2701.58,1339.16 2618.17,1455.95 2687.79,1510.1C2712.61,1529.4 2870.38,1494.93 2792.6,1407.43Z" style="fill:rgb(148,97,43);"/>
        </g>
        <g transform="matrix(0.399724,0,0,0.399724,3824.51,795.332)">
            <path d="M2792.6,1407.43C2701.58,1339.16 2618.17,1455.95 2687.79,1510.1C2712.61,1529.4 2870.38,1494.93 2792.6,1407.43Z" style="fill:rgb(148,97,43);"/>
        </g>
        <g transform="matrix(0.399724,0,0,0.399724,3761.3,234.343)">
            <path d="M3613.96,787.133C3544.68,702.971 3449.46,803.009 3492.04,849.162C3579.51,943.985 3687.63,808.182 3613.96,787.133Z" style="fill:rgb(148,97,43);"/>
        </g>
        <g transform="matrix(0.399724,0,0,0.399724,3761.3,787.265)">
            <path d="M3597.98,768.218C3518.78,721.295 3470.93,812.973 3492.04,849.162C3557.04,960.596 3649.67,829.893 3613.85,792.787L3597.98,768.218Z" style="fill:rgb(148,97,43);"/>
        </g>
        <g transform="matrix(0.399724,0,0,0.399724,3761.3,234.343)">
            <path d="M3591.56,1442.79C3579.64,1344.98 3452.26,1425.12 3487.76,1507.96C3519.05,1580.98 3642.71,1520.8 3591.56,1442.79Z" style="fill:rgb(148,97,43);"/>
        </g>
        <g transform="matrix(0.399724,0,0,0.399724,3761.3,787.265)">
            <path d="M3591.56,1442.79C3579.64,1344.98 3452.26,1425.12 3487.76,1507.96C3519.05,1580.98 3623.39,1517 3591.56,1442.79Z" style="fill:rgb(148,97,43);"/>
        </g>
        <g transform="matrix(1,0,0,1,1633.46,291.328)">
            <path d="M3102.18,868.149C3104.77,883.734 3112.8,877.611 3122.67,865.379C3130.76,880.183 3133.33,883.043 3140.36,880.702C3148.35,878.039 3148.39,881.348 3156.57,880.179" style="fill:none;stroke:rgb(120,155,203);stroke-width:4.17px;"/>
        </g>
        <g transform="matrix(1,0,0,1,1632.28,28.3625)">
            <path d="M3102.18,868.149C3104.77,883.734 3112.8,877.611 3122.67,865.379C3130.76,880.183 3133.33,883.043 3140.36,880.702C3148.35,878.039 3148.39,881.348 3156.57,880.179" style="fill:none;stroke:rgb(120,155,203);stroke-width:4.17px;"/>
        </g>
        <g transform="matrix(1,0,0,1,1633.46,291.328)">
            <path d="M3141.34,962.739C3149.58,968.434 3151.31,971.744 3157.62,963.865C3162.83,957.348 3171.88,968.471 3177.49,969.095C3182.72,969.676 3204.45,967.262 3206.78,967.003" style="fill:none;stroke:rgb(120,155,203);stroke-width:4.17px;"/>
        </g>
        <g transform="matrix(1,0,0,1,1632.28,28.3625)">
            <path d="M3141.34,962.739C3149.58,968.434 3151.31,971.744 3157.62,963.865C3162.83,957.348 3171.88,968.471 3177.49,969.095C3182.72,969.676 3204.45,967.262 3206.78,967.003" style="fill:none;stroke:rgb(120,155,203);stroke-width:4.17px;"/>
        </g>
        <g transform="matrix(1,0,0,1,1633.46,291.328)">
            <path d="M3072.97,1015.49C3080.32,1017.65 3080.35,1016.89 3086.48,1012.51C3090.11,1009.92 3105.82,1016.47 3107.41,1017.13C3107.53,1017.01 3108.97,1015.64 3108.97,1015.64C3114.47,1020.22 3114.62,1016.43 3121,1013.03" style="fill:none;stroke:rgb(120,155,203);stroke-width:4.17px;"/>
        </g>
        <g transform="matrix(1,0,0,1,1632.28,28.3625)">
            <path d="M3072.97,1015.49C3080.32,1017.65 3080.35,1016.89 3086.48,1012.51C3090.11,1009.92 3105.82,1016.47 3107.41,1017.13C3107.53,1017.01 3108.97,1015.64 3108.97,1015.64C3114.47,1020.22 3114.62,1016.43 3121,1013.03" style="fill:none;stroke:rgb(120,155,203);stroke-width:4.17px;"/>
        </g>
        <g transform="matrix(1,0,0,1,1632.28,28.3625)">
            <path d="M3190.86,642.425C3198.99,637.024 3193.87,627.68 3184.91,626.685C3177.86,625.901 3169.28,637.891 3174.8,643.41" style="fill:none;stroke:rgb(130,91,57);stroke-width:4.17px;"/>
        </g>
        <g transform="matrix(1,0,0,1,1632.28,28.3625)">
            <path d="M3203.68,647.61C3198.86,640.83 3185.11,643.076 3182.3,643.922C3179.8,644.679 3166.89,643.658 3163.21,644.711C3160.55,645.47 3161.1,651.236 3142.85,646.261" style="fill:none;stroke:rgb(130,91,57);stroke-width:4.17px;"/>
        </g>
        <g transform="matrix(1,0,0,1,1632.28,28.3625)">
            <path d="M3176.25,631.449C3175.51,630.952 3176.35,623.772 3165.53,622.42C3153.32,620.893 3151.39,628.913 3153.52,635.82" style="fill:none;stroke:rgb(130,91,57);stroke-width:4.17px;"/>
        </g>
        <g transform="matrix(1,0,0,1,1632.28,28.3625)">
            <path d="M3163.51,644.427C3167.49,634.875 3157.34,633.966 3153.32,635.795C3151.71,636.526 3144.96,645.406 3153.28,648.179" style="fill:none;stroke:rgb(130,91,57);stroke-width:4.17px;"/>
        </g>
        <g transform="matrix(1,0,0,1,1632.28,28.3625)">
            <path d="M3179.05,597.052C3167.43,599.307 3175.6,609.061 3177.31,609.512C3184.98,611.53 3188.98,593.547 3179.05,597.052Z" style="fill:none;stroke:rgb(130,91,57);stroke-width:4.17px;"/>
        </g>
        <g transform="matrix(1,0,0,1,1632.28,28.3625)">
            <path d="M3168.19,628.352C3168.26,628.499 3168.33,628.945 3168.33,628.492" style="fill:none;stroke:rgb(214,161,117);stroke-width:4.17px;"/>
        </g>
        <g transform="matrix(1,0,0,1,1632.28,28.3625)">
            <path d="M3187.97,633.145L3187.74,633.273" style="fill:none;stroke:rgb(214,161,117);stroke-width:4.17px;"/>
        </g>
        <g transform="matrix(1,0,0,1,1632.28,28.3625)">
            <path d="M3159.41,640.745C3159.39,640.621 3159.37,640.497 3159.35,640.373" style="fill:none;stroke:rgb(214,161,117);stroke-width:4.17px;"/>
        </g>
        <g transform="matrix(1,0,0,1,1632.28,28.3625)">
            <path d="M3149.78,574.45C3145.4,574.849 3145.61,579.901 3149.93,582.419C3154.3,584.969 3159.48,573.568 3149.78,574.45Z" style="fill:none;stroke:rgb(130,91,57);stroke-width:4.17px;"/>
        </g>
        <g transform="matrix(1,0,0,1,1632.28,28.3625)">
            <path d="M3135.34,728.701C3134.63,726.472 3121.9,728.012 3118.91,729.505C3110.79,733.563 3110.26,736.217 3102.44,731.453C3093.75,726.167 3086.01,730.816 3074.1,730.391C3065.68,730.09 3065.71,732.889 3057.45,730.922" style="fill:none;stroke:rgb(130,91,57);stroke-width:4.17px;"/>
        </g>
        <g transform="matrix(1,0,0,1,1632.28,28.3625)">
            <path d="M3127.21,726.38C3127.03,725.737 3125.22,718.982 3120.65,721.266C3116.2,723.492 3116.23,725.687 3117.08,728.792" style="fill:none;stroke:rgb(130,91,57);stroke-width:4.17px;"/>
        </g>
        <g transform="matrix(1,0,0,1,1632.28,28.3625)">
            <path d="M3088.04,729.66C3088.04,729.651 3099.26,719.165 3087.36,718.372C3084.18,718.16 3074.52,722.607 3081.19,729.274" style="fill:none;stroke:rgb(130,91,57);stroke-width:4.17px;"/>
        </g>
        <g transform="matrix(1,0,0,1,1632.28,28.3625)">
            <path d="M3081.48,719.047C3080.86,711.681 3070.58,708.559 3067.68,716.539C3064.51,725.246 3071.89,729.218 3072.89,729.757" style="fill:none;stroke:rgb(130,91,57);stroke-width:4.17px;"/>
        </g>
        <g transform="matrix(1,0,0,1,1632.28,28.3625)">
            <path d="M3072.6,718.215L3072.79,718.276" style="fill:none;stroke:rgb(214,161,117);stroke-width:4.17px;"/>
        </g>
    </g>
</svg>
