<?xml version="1.0" encoding="UTF-8" standalone="no"?>
<!-- Created with Inkscape (http://www.inkscape.org/) -->

<svg
   width="74.538139mm"
   height="100.41948mm"
   viewBox="0 0 74.538139 100.41948"
   version="1.1"
   id="svg1"
   xmlns="http://www.w3.org/2000/svg"
   xmlns:svg="http://www.w3.org/2000/svg">
  <defs
     id="defs1" />
  <g
     id="layer1"
     transform="translate(-67.204167,-98.160411)">
    <g
       id="g74"
       transform="translate(53.815135,-24.677953)">
      <rect
         style="fill:#aaccff;fill-opacity:1;stroke:#808080;stroke-width:1;stroke-miterlimit:4.4;stroke-dasharray:none;stroke-opacity:1"
         id="rect1-9"
         width="73.538139"
         height="99.419487"
         x="13.889032"
         y="123.33836"
         rx="0.52916658"
         ry="31.77648" />
      <g
         id="g30"
         transform="matrix(0.65486459,0,0,0.65582423,4.2267401,127.50198)">
        <path
           class="cls-1"
           d="m 29.1,89.7 c -1.8,2.7 -3.4,11.3 4.4,15.8 5.5,3.1 16.9,4.2 36.5,4.2 26,0 34.4,-1.4 38.2,-4.2 3.1,-2 4.3,-4.8 4.2,-9.5 -0.1,-2.1 -1.5,-5.7 -2.2,-6.3 z"
           id="path5-7"
           style="fill:#e6a432;fill-opacity:1;stroke:#d38e2e;stroke-opacity:1" />
        <path
           class="cls-2"
           d="m 28.8,85.3 0.1,3.9 c 0,1.7 2.3,2.1 6.2,2.6 5.2,0.7 14.8,1.8 34.9,1.9 16.2,0 30.7,-0.8 37.6,-1.9 3,-0.5 3.4,-1.2 3.4,-2.6 l 0.1,-3.9 z"
           id="path6-9"
           style="fill:#c62426;fill-opacity:1" />
        <path
           class="cls-3"
           d="m 30.9,85.4 c 1.2,0.1 5.7,0.8 9.4,1.1 6.4,0.4 16.8,0.8 29.1,0.9 11.6,0.1 25.8,-0.3 32.3,-1 4.5,-0.4 9.1,-1.5 9.1,-1.9 0,-0.4 -21.3,-2.8 -41,-2.8 -19.7,0 -38.9,3.7 -38.9,3.7 z"
           id="path7-5"
           style="fill:#ff8080" />
        <path
           class="cls-4"
           d="m 28.6,77 c -2.8,0.8 -6.1,0.9 -6.1,2.3 0,1.4 3.7,1.1 3.7,2.6 0,1.2 -3.7,2.5 -3.7,4.2 0.4,2.3 5,0.5 8.1,-0.2 3.1,-0.9 6.2,-2.2 7.6,-0.8 1.4,1.3 -0.1,3.6 2.5,4.3 2.6,0.6 6,-0.2 8.3,-1.3 3.7,-1.8 6.3,-3.9 7.7,-2.7 1,0.6 0.8,3.5 3.2,3.7 3.1,0.1 5.6,-4.3 9.7,-4.4 4.1,-0.2 8.1,4.3 18.2,5.2 5.4,0.3 1.1,-3.7 1.7,-4.9 0.7,-1.1 5.2,0.5 12.4,2.2 4.9,1 3.3,-1.2 2.4,-2.9 -0.2,-2.7 7.2,0.6 9.6,1.1 1.4,0.2 0,-1.5 2.7,-2.1 1.2,-0.2 2.8,-0.5 2.7,-1.6 -0.2,-1.6 -6.4,-3.8 -8.3,-4.8 z"
           id="path8-3"
           style="fill:#89cd32" />
        <path
           class="cls-5"
           d="m 30.6,77.6 c -0.8,0.7 -2.4,1.5 -1,3.1 -0.5,1.8 0.2,2.5 3.8,1.7 3.6,-0.7 7.2,-1.8 8.5,-1.4 2.2,0.7 -0.2,3 1.9,4.4 3.3,1.8 9.7,-3.9 12.5,-3.7 2,0.1 2.8,2 5.5,1.8 2.6,-0.2 5.3,-2.2 8.9,-2.2 5.8,-0.1 11.8,3.7 14.6,4.2 3,0 0.8,-2.6 1.3,-3.8 1.2,-2.2 9.3,2.4 13.4,2.6 1.2,0 1.1,-1 0.6,-1.8 -2.7,-4.5 7.1,-1.2 9.7,-1.6 1.4,-0.3 0.5,-2 -1,-3.3 -4.4,-0.6 -72.9,-1.7 -78.7,0 z"
           id="path9"
           style="fill:#33a440" />
        <path
           class="cls-2"
           d="m 65.1,86.4 c 1.3,0 2.8,0.2 2.6,-0.8 -0.3,-0.5 -0.8,-0.5 -2.6,0.8 z"
           id="path10-3"
           style="fill:#e8e1d4" />
        <path
           class="cls-2"
           d="m 104.4,84.7 c 0.9,0.1 1.5,0.1 1.2,-0.7 -0.7,-0.5 -1.3,0.1 -1.2,0.7 z"
           id="path12-85"
           style="fill:#e8e1d4" />
        <path
           class="cls-1"
           d="m 26.5,59.5 c -0.1,-0.2 -0.3,-2 -0.3,-3.3 0,-11.6 15,-27 43.7,-27 23.7,-0.2 43.9,11.8 43.9,27.2 0,1.5 -0.2,3 -0.4,3.5 C 112.1,60.8 98.9,63 69.9,63 43.7,63 26.6,60.4 26.5,59.5 Z"
           id="path13-8"
           style="fill:#e6a432;fill-opacity:1;stroke:#d38e2e;stroke-width:1.00036;stroke-dasharray:none;stroke-opacity:1" />
        <path
           class="cls-6"
           d="m 26.4,70 c -0.2,3.2 0.7,6.5 3.5,7.6 3.4,1.3 19.1,2.2 39.2,2.2 15.6,0 38,-0.8 41,-2.1 2.2,-0.8 3.5,-3.1 3.5,-6.5 0,-3.4 -0.8,-4.7 -1.9,-6.3 l -60.9,0.7 z"
           id="path14"
           style="fill:#784421" />
        <path
           class="cls-7"
           d="m 30.2,60.6 c -2.8,2.2 -6.1,5.2 -7.4,8.5 -0.3,1.3 0.4,2.2 2.2,1.6 7.8,-2.4 14.5,-4.4 25.4,-4.7 l -3.3,-0.8 c -10.8,0 -19.6,3.4 -22.1,3.7 -1.1,0 -1.6,-0.5 -1,-1.5 0.9,-2 5.4,-6.1 6.2,-6.8 z"
           id="path15"
           style="fill:#94c83d" />
        <path
           class="cls-7"
           d="m 109.9,60.6 c 2.2,0.7 4.8,2.6 4.2,4.2 -0.4,0.9 -2,-0.1 -5.7,0.6 -8.4,1.7 -11.9,9.5 -14.8,12.8 -0.8,0.8 -2.3,1.2 -3.5,0.7 -2.8,-1.2 -8.4,-7.2 -19.2,-10.9 -5,-1.8 3.5,-0.9 12.8,5.1 4,2.5 5.8,4.5 7.8,3.8 3,-0.4 6.4,-12.6 17.3,-13.3 2.9,-0.2 4.8,0.2 3.7,-1.4 -0.6,-0.5 -1.3,-1.1 -2.6,-1.6 z"
           id="path16"
           style="fill:#94c83d" />
        <path
           class="cls-8"
           d="m 70,67.4 c 9.8,2.6 13.4,5.4 18,8.3 4.8,3.2 5.4,0.7 8.5,-3.1 3.7,-4.8 7.8,-9 15.4,-9.2 1.5,0 0.9,-1.5 -2,-2.8 -7,1.3 -22.8,2.4 -39.9,2.5 -14.9,0 -32.1,-0.7 -39.8,-2.4 -1.3,0.6 -6.3,4.7 -6.4,6.7 0,1.5 0.3,1.7 2.6,1.2 6,-1.7 11.9,-3.2 19.8,-3.4 1.7,0 4.2,0.8 4.2,0.9 8.1,-0.4 15,0.3 19.6,1.3 z"
           id="path17"
           style="fill:#ffdd55" />
        <path
           class="cls-9"
           d="M 50.9,36.6"
           id="path18"
           style="fill:#a05a2c" />
        <path
           class="cls-9"
           d="m 55.2,35.4 c 0.5,0.7 -2.8,2.5 -3.7,1.4 -0.2,-0.7 2.4,-2.5 3.7,-1.4 z"
           id="path19"
           style="fill:#a05a2c" />
        <path
           class="cls-9"
           d="m 57.5,40.7 c 0.9,0.6 -1,3.3 -2.3,2.9 -0.4,-1.1 1.3,-3.1 2.3,-2.9 z"
           id="path20"
           style="fill:#a05a2c" />
        <path
           class="cls-9"
           d="m 47.4,39.1 c 1.3,0.4 -0.7,3.4 -2.1,3 -0.7,-1 1,-3.2 2.1,-3 z"
           id="path21"
           style="fill:#a05a2c" />
        <path
           class="cls-9"
           d="m 62.3,32.4 c 0.9,0.5 -0.9,3.1 -2.2,2.9 -0.8,-0.7 1,-3.2 2.2,-2.9 z"
           id="path22"
           style="fill:#a05a2c" />
        <path
           class="cls-9"
           d="m 64.7,37.4 c 1.3,0.3 0.7,3.9 -0.4,3.6 -0.9,-0.4 -0.5,-3.6 0.4,-3.6 z"
           id="path23"
           style="fill:#a05a2c" />
        <path
           class="cls-9"
           d="m 69.4,34.7 c 0.5,-0.8 3,-1.5 3.5,-0.6 0.5,0.6 -2.9,2 -3.7,0.8 z"
           id="path24"
           style="fill:#a05a2c" />
        <path
           class="cls-9"
           d="m 70.4,42.6 c 1.2,0.4 0,4 -1,3.8 -0.9,-0.8 -0.2,-3.8 1,-3.8 z"
           id="path25"
           style="fill:#a05a2c" />
        <path
           class="cls-9"
           d="m 74.3,38.3 c 0.3,-1.3 3.6,-0.4 3.6,0.8 -0.5,1 -3.6,0.3 -3.6,-0.8 z"
           id="path26"
           style="fill:#a05a2c" />
        <path
           class="cls-9"
           d="m 77.1,32.5 c 0.8,-0.9 3.4,1.1 2.9,2.5 -0.9,0.7 -3.1,-1.6 -2.9,-2.5 z"
           id="path27"
           style="fill:#a05a2c" />
        <path
           class="cls-9"
           d="m 80.8,41.4 c 1.3,-0.1 2.3,3.2 1.3,3.7 -1.2,0 -2.2,-3.2 -1.3,-3.7 z"
           id="path28-9"
           style="fill:#a05a2c" />
        <path
           class="cls-9"
           d="m 84.7,33.4 c 1.2,-0.2 3,2.2 2.1,3 -1.3,0.2 -2.9,-2.3 -2.1,-3 z"
           id="path29-6"
           style="fill:#a05a2c" />
        <path
           class="cls-9"
           d="m 86.8,39.4 c 1.3,0 2.6,2.7 1.7,3.2 -1.1,0 -2.4,-2.5 -1.7,-3.2 z"
           id="path30-0"
           style="fill:#a05a2c" />
        <path
           class="cls-9"
           d="m 92.8,37.9 c 0.9,-0.8 3.6,1 3.1,2.2 -0.9,0.8 -3.5,-1.2 -3.1,-2.2 z"
           id="path31-4"
           style="fill:#a05a2c" />
        <path
           class="cls-10"
           d="M 70,68.3"
           id="path32-2"
           style="fill:#bce284" />
      </g>
    </g>
  </g>
</svg>
