<?xml version="1.0" encoding="UTF-8" standalone="no"?>
<!-- Created with Inkscape (http://www.inkscape.org/) -->

<svg
   width="74.538132mm"
   height="100.41948mm"
   viewBox="0 0 74.538132 100.41948"
   version="1.1"
   id="svg1"
   xml:space="preserve"
   xmlns="http://www.w3.org/2000/svg"
   xmlns:svg="http://www.w3.org/2000/svg"><defs
     id="defs1" /><g
     id="layer1"
     transform="translate(-98.557767,-13.825205)"><g
       id="g27"
       transform="matrix(0.52947644,0,0,0.5502369,102.724,26.797376)"><g
         id="g29"><rect
           style="fill:#ffffff;fill-opacity:1;stroke:#808080;stroke-width:1;stroke-miterlimit:4.4;stroke-dasharray:none;stroke-opacity:1"
           id="rect1-7"
           width="73.538139"
           height="99.419487"
           x="99.057762"
           y="14.325205"
           rx="0.52916658"
           ry="31.77648"
           transform="matrix(1.8886582,0,0,1.817399,-194.01052,-48.701525)" /><g
           id="g33"
           transform="matrix(0.9247532,0,0,0.9905928,5.3841919,1.504559)"><rect
             style="opacity:1;fill:#008000;fill-opacity:1;stroke:#d38e2e;stroke-width:0.989335;stroke-miterlimit:4.4;stroke-dasharray:none;stroke-opacity:1"
             id="rect32"
             width="52.624264"
             height="181.59357"
             x="-13.818932"
             y="-23.896784"
             rx="1.0807368"
             ry="58.298973" /><rect
             style="fill:#ff0000;fill-opacity:1;stroke:#d38e2e;stroke-width:0.989335;stroke-miterlimit:4.4;stroke-dasharray:none;stroke-opacity:1"
             id="rect32-1"
             width="52.624264"
             height="181.59357"
             x="84.764389"
             y="-24.098059"
             rx="1.0807368"
             ry="58.298973" /></g><path
           class="cls-1"
           d="M 121.4,82.3 H 3 c -0.4,0.2 -0.7,0.5 -1,1.1 1.5,21.3 20.5,49.9 60.2,50 28.4,0.1 57.7,-17.7 60.3,-49.9 -0.3,-0.6 -0.6,-1.1 -1.1,-1.2 z"
           id="path1"
           style="fill:#ff5599" /><path
           class="cls-2"
           d="M 116.8,80.2"
           id="path2" /><path
           class="cls-2"
           d="m 22.7,40 -6,20.4 c 0,1.1 0.7,2.2 1.9,2.1 1.2,-0.1 1.9,-0.8 1.9,-1.9 L 24.1,47.5 C 23.5,45.5 23,42.9 22.7,40 Z"
           id="path3"
           style="fill:#e9c6af" /><path
           class="cls-2"
           d="m 29.8,17 c 3.1,-3.2 5.9,-4.7 10.3,-4.7 0.5,0 0.9,0.1 1.4,0.1 -3.1,2.3 -6.5,7.2 -7.9,15.4 -0.2,0.7 -0.5,0.9 -1.1,0.9 l -1.1,0.1 c -0.9,0 -1.5,-0.7 -1.3,-1.6 0.5,-3.1 1.9,-7.2 3.8,-10.8 z"
           id="path4"
           style="fill:#e9c6af" /><path
           class="cls-4"
           d="M 32.3,19 23,22.7 c -1.4,0.4 -1.5,1.7 0.2,1.5 l 8,-0.8 z"
           id="path6"
           style="fill:#c8beb7" /><path
           class="cls-3"
           d="m 30.9,25.3 -7.3,1.2 c -1.2,0.3 -1.3,1.6 0.3,1.6 l 6.4,-0.5 z"
           id="path7"
           style="fill:#c8beb7" /><path
           class="cls-5"
           d="M 24.467874,31.448053 28.133829,29.902072 31.4,16.993497 27.572955,19.438486 c -0.727639,0.514624 -2.232967,6.551443 -3.105081,12.009567 z"
           id="path10"
           style="fill:#e9c6af;stroke-width:3.0856" /><path
           class="cls-4"
           d="m 43.3,21.9 -2.4,0.1 0.4,-1.4 2.3,-0.5 z"
           id="path12-8"
           style="fill:#c8beb7" /><path
           class="cls-4"
           d="m 37.2,20.4 -1.5,0.2 -0.5,1.5 1.4,-0.1 z"
           id="path13"
           style="fill:#c8beb7" /><path
           class="cls-4"
           d="m 36,23.9 -1.6,0.2 -0.5,1.6 1.6,-0.2 z"
           id="path14-3"
           style="fill:#c8beb7" /><path
           class="cls-4"
           d="M 35.3,26.4 34,26.5 33.6,27.8 35,27.7 Z"
           id="path15-0"
           style="fill:#c8beb7" /><path
           class="cls-4"
           d="m 41,27 h -1.9 l 0.3,-1.5 h 2 z"
           id="path16-6"
           style="fill:#c8beb7" /><path
           class="cls-4"
           d="m 40.5,28.9 -1.8,0.275 -0.2,1.925 1.8,-0.275 z"
           id="path17-2"
           style="fill:#c8beb7;stroke-width:1.1726" /><path
           class="cls-2"
           d="m 24,33.3 c 0,1.8 -0.4,18.6 9.1,25.7 2.5,2 5.1,3.5 7.9,3.5 8.1,0.2 14.5,-7.9 14.4,-25 l -0.5,-6.8 -3.5,0.5 C 52.7,41 51.4,51 46.7,56.4 45.2,58 43.5,59 41.1,59 36.4,59.1 27.9,51.9 27.6,33.2 Z"
           id="path19-5"
           style="fill:#e9c6af" /><path
           class="cls-2"
           d="m 29.4,33 c -0.4,13.1 5.2,24.6 12,24.7 1.3,0 2.1,-0.8 2.1,-1.7 0.1,-1 -0.6,-1.9 -2.1,-2.1 C 36.7,52.7 33,44.1 33,33 Z"
           id="path20-2"
           style="fill:#e9c6af" /><path
           class="cls-2"
           d="m 56.7,30.2 c 1.7,13.2 -1,27.5 -10,32.3 -2.3,1.1 -5.8,1.6 -9.1,0.4 -1.1,-0.4 -2.7,-0.2 -3,1 -0.2,1.1 0.4,2 1.8,2.4 1.7,0.7 3.2,0.9 5.2,0.8 7.5,0 18.3,-4.7 18.9,-26.4 0.1,-3.3 0,-6.7 -0.6,-10.6 -0.9,0.4 -2,0.4 -3.2,0.8 z"
           id="path21-2"
           style="fill:#e9c6af" /><path
           class="cls-2"
           d="m 45.3,32 c 0.8,5.1 0.8,11 -0.1,17.4 0,2.2 3.7,3.1 3.9,0 0.6,-5.3 0.6,-10.9 -0.1,-17.8 z"
           id="path22-7"
           style="fill:#e9c6af" /><path
           class="cls-2"
           d="m 51.5,12.4 c -3,-2 -9.4,-2.8 -13.3,6.1 -3.8,7.6 -5.2,20.2 0.7,32 1.7,2.5 5,0.9 3.6,-2 -5.3,-5.9 -5.1,-20.4 -0.4,-28.5 1.8,-3.1 5.1,-6.6 9.4,-6.9 z"
           id="path23-1"
           style="fill:#e9c6af" /><path
           class="cls-2"
           d="m 45.7,16.6 c -4.3,4 -7.3,16 -4.3,26.9 1,2.4 4.1,1.7 3.5,-1.6 -2,-6.2 -1,-18.8 4.2,-24 1.5,-1.3 -0.7,-3.3 -3.4,-1.3 z"
           id="path24-5"
           style="fill:#e9c6af" /><path
           class="cls-4"
           d="m 51.5,12.4 c 7.1,-1.8 9.1,-1 11.9,0.5 3.2,1.8 4.8,2.6 8.1,2 C 77.7,13.7 110.6,3 117.7,2 c 4.9,-0.5 6.5,2.9 4.5,5.6 -1,1.1 -3.6,2 -5.6,2.4 -7.5,1.6 -31.2,5.6 -40.5,7.1 -1.7,0.3 -5,1 -6.2,1.5 -1.9,0.9 -3.3,2.6 -4.9,5 -1.4,2.3 -2.9,3.8 -7.5,5 C 54.4,29.4 44,30.5 44,30.5 l 0.4,-2.6 7.7,-1.3 c 0.9,-0.1 0.9,-1.7 0,-1.9 l -7.5,1.2 1,-2.5 5.8,-1.2 c 1,-0.2 0.7,-1.7 -0.2,-1.7 l -5.1,0.9 1.3,-2.9 3,-0.6 c 1.2,-0.3 0.5,-2.3 -2,-2.2 l -4,0.7 c 1.2,-1.5 4.1,-3.5 7.1,-4 z"
           id="path25-2"
           style="fill:#c8beb7" /><path
           class="cls-2"
           d="M 116.9,80.2 C 114.1,74.1 103.6,58 85.1,56.4 77.5,55.6 70,56.4 62.6,59.8 52.7,64.4 47.5,71.4 38.1,75.6 32.5,78 28.6,77.4 24.5,78.7 l -2.6,1.2 v 0.3 h 13.3 c 3.4,-0.5 8.3,-2.6 12.3,-5.1 10,-7.1 16.1,-13.7 28.7,-15.1 7.8,-0.6 14.7,0 21.9,4.1 6.1,3.4 10.6,8.3 14.8,15.6 v 0.5 z"
           id="path26-1"
           style="fill:#e9c6af" /><path
           class="cls-2"
           d="M 110.7,80.2 C 106.5,72 96.5,61.5 81,61.4 c -6.8,-0.3 -12.9,1.3 -19.4,5 -4.2,2.6 -9.5,7 -12.7,9.5 L 41,80.1 v 0.1 h 7.6 c 5.3,-2.5 10.6,-8.8 18,-12 4,-1.8 8.1,-3.2 13,-3.2 9.3,-0.1 19,3.6 26.9,14.7 l 0.1,0.5 z"
           id="path27-1"
           style="fill:#e9c6af" /><path
           class="cls-2"
           d="M 104.2,80.2 C 100.7,74.7 92.9,66.9 80.1,66.7 68.9,66.6 62.6,72.4 57,76.5 l -5.1,3.6 v 0.1 H 58 l 6.4,-4.7 c 4.3,-3 8.6,-5.1 15.1,-5.1 7.1,-0.2 14.4,2.7 20.1,9.5 v 0.3 z"
           id="path28"
           style="fill:#e9c6af" /><path
           class="cls-2"
           d="m 97.2,80.2 v -0.1 c -2.6,-3.2 -8.3,-7.6 -17.1,-7.9 -7.5,0 -12.6,2.5 -18.7,7.7 l -0.2,0.2 h 5.4 c 3,-2.1 7,-4.2 12.6,-4.4 4.7,0 8.7,1.2 12.8,4.3 v 0.2 z"
           id="path29"
           style="fill:#e9c6af" /><path
           class="cls-2"
           d="m 70,80.1 c 2.6,-1.4 5.6,-2.6 9.5,-2.6 3.2,0 6.5,1 9.4,2.6 z"
           id="path30"
           style="fill:#e9c6af" /><path
           class="cls-2"
           d="M 45.7,69.4 C 41.5,67.9 36.5,66.9 31,66.9 26.6,67 23,67.5 18.9,69.4 14.7,71.2 10,75.1 7.4,79.7 v 0.4 h 4 c 2.3,-3.2 5.2,-5.4 8.3,-7 3.7,-1.7 7.2,-2.6 11.7,-2.6 3.2,0 6.5,0.4 10.5,1.5 1.5,-0.6 2.8,-1.6 3.8,-2.6 z"
           id="path31"
           style="fill:#e9c6af" /><path
           class="cls-2"
           d="m 39,73.4 c -2,-0.5 -4.6,-1 -7.6,-0.9 -6.4,0 -12.3,1.6 -17.4,7.2 v 0.4 l 4.6,0.1 c 2.9,-2.2 6.9,-4.1 12.6,-4.3 2.7,-0.2 5.4,-1.2 7.8,-2.3 z"
           id="path32"
           style="fill:#e9c6af" /><path
           class="cls-3"
           d="M 33.8,16.4 22.2,19 c -1,0.3 -1.4,1.6 0.2,1.5 l 10.2,-1.7 z"
           id="path5"
           style="fill:#c8beb7" /><path
           class="cls-3"
           d="m 24.2,30.1 c -0.5,0.3 -1.4,1.8 0.2,1.8 L 34.7,31.4 35,29.3 Z"
           id="path8"
           style="fill:#c8beb7" /></g></g></g><style
     type="text/css"
     id="style1">.cls-0 {fill:#FCF5E5;}
.cls-1 {fill:#C84A39;}
.cls-2 {fill:#D8A538;}
.cls-3 {fill:#EDDAB2;}
.cls-4 {fill:#EAD8A7;}
.cls-5 {fill:#D1942F;}</style><style
     type="text/css"
     id="style1-7">.cls-0 {fill:url(#SVGID_1_);}
.cls-1 {fill:#E6A432;}
.cls-2 {fill:#E43932;}
.cls-3 {fill:#EC5F5E;}
.cls-4 {fill:#7DC245;}
.cls-5 {fill:#58AB40;}
.cls-6 {fill:#844120;}
.cls-7 {fill:#FDC036;}
.cls-8 {fill:#E6A636;}
.cls-9 {fill:#F3D17C;}
.cls-10 {fill:#814221;}</style><style
     type="text/css"
     id="style1-3">.cls-0 {fill:#E6DDCE;}
.cls-1 {fill:#F9F7F2;}
.cls-2 {fill:#E8E1D4;}
.cls-3 {fill:#006A37;}
.cls-4 {fill:#89CD32;}
.cls-5 {fill:#33A440;}
.cls-6 {fill:#ABD75F;}
.cls-7 {fill:#94C83D;}
.cls-8 {fill:#A0D843;}
.cls-9 {fill:#006838;}
.cls-10 {fill:#BCE284;}
.cls-11 {fill:#E1251B;}</style></svg>
