<?xml version="1.0" encoding="UTF-8" standalone="no"?>
<!-- Created with Inkscape (http://www.inkscape.org/) -->

<svg
   width="74.538139mm"
   height="100.41949mm"
   viewBox="0 0 74.538139 100.41949"
   version="1.1"
   id="svg1"
   inkscape:version="1.3.2 (091e20e, 2023-11-25)"
   sodipodi:docname="dibujo-1.svg"
   xmlns:inkscape="http://www.inkscape.org/namespaces/inkscape"
   xmlns:sodipodi="http://sodipodi.sourceforge.net/DTD/sodipodi-0.dtd"
   xmlns="http://www.w3.org/2000/svg"
   xmlns:svg="http://www.w3.org/2000/svg">
  <sodipodi:namedview
     id="namedview1"
     pagecolor="#ffffff"
     bordercolor="#111111"
     borderopacity="1"
     inkscape:showpageshadow="0"
     inkscape:pageopacity="0"
     inkscape:pagecheckerboard="1"
     inkscape:deskcolor="#d1d1d1"
     inkscape:document-units="mm"
     inkscape:zoom="0.2102413"
     inkscape:cx="-489.91325"
     inkscape:cy="454.23996"
     inkscape:window-width="1280"
     inkscape:window-height="800"
     inkscape:window-x="0"
     inkscape:window-y="0"
     inkscape:window-maximized="0"
     inkscape:current-layer="layer1" />
  <defs
     id="defs1" />
  <g
     inkscape:label="Capa 1"
     inkscape:groupmode="layer"
     id="layer1"
     transform="translate(-234.68541,-27.781247)">
    <g
       id="g2"
       transform="translate(220.80783,-204.07027)">
      <rect
         style="fill:#ffccaa;fill-opacity:1;stroke:#808080;stroke-width:1;stroke-miterlimit:4.4;stroke-dasharray:none;stroke-opacity:1"
         id="rect1-1"
         width="73.538139"
         height="99.419487"
         x="14.377583"
         y="232.35152"
         rx="0.52916658"
         ry="31.77648"
         inkscape:export-filename="video1.svg"
         inkscape:export-xdpi="96"
         inkscape:export-ydpi="96" />
      <path
         class="cls-0"
         d="m 51.067495,316.10751 c -18.679583,0 -33.072916,-14.65792 -32.967083,-33.3375 0.105834,-17.51542 14.44625,-33.3375 32.967083,-33.3375 18.679583,0 33.17875,14.9225 33.125833,33.60208 -0.105833,17.93875 -14.605,33.07292 -33.125833,33.07292 z"
         id="path1-4"
         style="fill:#e6ddce;stroke-width:0.529167" />
      <path
         class="cls-1"
         d="m 51.067495,315.73709 c -18.309166,0 -32.702499,-14.44625 -32.649583,-32.7025 0.05292,-17.4625 14.2875,-33.17875 32.649583,-33.17875 18.309167,0 32.755416,15.13417 32.7025,32.91417 -0.05292,17.83291 -14.393333,32.96708 -32.7025,32.96708 z"
         id="path2-3"
         style="fill:#e6e6e6;stroke-width:0.529167" />
      <path
         class="cls-2"
         d="m 51.067495,307.79959 c -13.440833,0 -24.923749,-11.05958 -24.923749,-25.02958 0,-12.48834 11.377083,-24.87084 24.923749,-24.92375 13.440833,0 24.817917,10.37166 24.817917,22.86 0,12.96458 -10.95375,27.09333 -24.817917,27.09333 z"
         id="path3-7"
         style="fill:#e8e1d4;stroke-width:0.529167" />
      <path
         class="cls-3"
         d="m 50.697079,260.91542 c 0.3175,-0.89958 1.058333,-1.79916 2.275416,-1.905 0.635,-0.10583 1.164167,-0.0529 1.905,-0.52916 0.582084,-0.37042 0.582084,-0.58209 1.481667,-0.52917 0.9525,0.0529 1.905,-0.10583 2.8575,-0.42333 0.05292,1.16416 1.217083,2.91041 1.217083,3.4925 0,0.74083 0,1.21708 0.582083,2.38125 0.529167,1.05833 0.47625,2.11666 -0.529166,2.91041 -1.164167,0.9525 -3.01625,1.905 -3.862917,1.79917 l -4.339166,1.42875 c -0.79375,0.26458 -2.645834,1.48167 -2.38125,0.68792 0.05292,-0.635 -0.05292,-2.38125 0.264583,-3.06917 0.423333,-0.89958 1.11125,-1.05833 1.11125,-1.85208 0,-0.89959 -0.582083,-1.64042 -0.370417,-2.96334 0.105834,-0.68791 -0.211666,-1.42875 -0.211666,-1.42875 z"
         id="path4-7"
         style="fill:#006a37;stroke-width:0.529167" />
      <path
         class="cls-4"
         d="m 48.051245,257.84626 c -0.635,0.79375 -2.169583,1.27 -2.69875,1.64041 -0.687916,0.47625 -1.42875,1.42875 -2.010833,2.01084 -1.27,1.27 -1.74625,3.38666 -1.852083,5.23875 l 1.852083,2.80458 1.640417,8.41375 c 0.846666,-0.37042 2.010833,-1.85208 2.06375,-3.12208 0.105833,-1.95792 2.592916,-3.59834 2.592916,-3.59834 0.582084,-0.52916 0.47625,-0.89958 0.423334,-1.85208 -0.05292,-0.635 -0.105834,-1.69333 0.211666,-2.2225 0.47625,-0.84667 1.11125,-1.05833 1.058334,-2.01083 -0.05292,-0.84667 -0.582084,-1.64042 -0.423334,-2.69875 0.105834,-0.68792 -0.15875,-1.5875 -0.15875,-1.5875 -0.582083,-0.42334 -2.328333,-1.85209 -2.69875,-3.01625 z"
         id="path5-5"
         style="fill:#89cd32;stroke-width:0.529167" />
      <path
         class="cls-5"
         d="m 47.522079,261.02126 -1.322917,6.08541 -2.116667,-3.4925 1.957917,4.23334 -1.217083,6.29708 0.899583,-0.15875 0.79375,-5.60917 3.33375,-3.43958 v -0.15875 l -3.227917,2.75167 0.9525,-6.50875 z"
         id="path6-1"
         style="fill:#33a440;stroke-width:0.529167" />
      <path
         class="cls-4"
         d="m 55.882912,273.03334 c 0.211667,-1.69333 0.423333,-4.86833 0.79375,-5.08 1.005416,-0.52917 2.751666,-0.89958 3.915833,-2.2225 1.005417,-1.21708 0.899583,-3.75708 2.910417,-3.86292 0.846666,-0.0529 1.693333,0.21167 2.910416,0.10584 1.217084,-0.10584 2.2225,-0.42334 2.963334,0.68791 0.47625,0.74084 -0.05292,2.32834 -0.05292,3.22792 0,1.37583 0.3175,3.175 -0.529167,4.23333 -1.164166,1.48167 -3.01625,1.53459 -4.709583,1.905 l -4.339167,1.21709 -2.328333,2.11666 -0.105833,-1.85208 z"
         id="path7-2"
         style="fill:#89cd32;stroke-width:0.529167" />
      <path
         class="cls-5"
         d="m 67.524578,267.79459 -4.28625,0.21167 3.862917,-3.96875 -0.05292,-0.0529 -3.915833,3.59833 0.3175,-3.81 h -0.05292 l -0.79375,4.23334 -3.280833,2.96333 0.687917,-3.4925 h -0.05292 l -0.79375,4.23333 -9.68375,1.32292 0.211667,0.26458 0.529167,0.37042 c 0.529166,-1.5875 3.175,-2.2225 4.392083,-2.16958 l 4.392083,-0.635 4.28625,-2.43417 4.233333,-0.58208 z"
         id="path8-6"
         style="fill:#33a440;stroke-width:0.529167" />
      <path
         class="cls-3"
         d="m 32.123329,264.09042 c 0.15875,1.5875 -0.423334,3.01625 -0.3175,3.75709 0.3175,0.84666 0.264583,0.84666 0,1.95791 -0.3175,2.16959 1.957916,1.48167 2.434166,3.33375 l 2.751667,5.23875 3.704167,1.48167 4.28625,-2.96333 c 0,-1.27 -0.15875,-4.92125 -0.05292,-6.6675 -0.105833,-2.48709 -2.38125,-1.32292 -3.01625,-3.54542 -0.687917,-2.16958 -1.322917,-2.69875 -3.33375,-2.32833 -1.27,0.21166 -1.799167,-0.58209 -2.645833,-0.42334 -0.9525,0.15875 -2.2225,0.52917 -3.81,0.15875 z"
         id="path9-6"
         style="fill:#006a37;stroke-width:0.529167" />
      <path
         class="cls-8"
         d="m 34.557495,266.47167 9.313334,9.94834 1.058333,1.53458 0.635,-0.42333 -2.169583,-2.48709 -8.73125,-8.5725 z"
         id="path10-5"
         style="fill:#a0d843;stroke-width:0.529167" />
      <path
         class="cls-5"
         d="m 34.610412,273.56251 c -0.740833,-0.68792 -1.693333,-0.68792 -2.804583,-0.52917 -1.058334,0.21167 -1.852083,-0.89958 -3.4925,-0.74083 -1.375833,0.10583 -1.11125,2.2225 -0.899583,3.28083 0.15875,1.11125 -1.481667,2.96333 0.15875,4.33917 1.640416,1.27 1.375833,1.53458 1.481666,3.12208 0.105834,1.53458 1.905,2.80458 4.7625,2.8575 1.905,0.10583 3.81,0.58208 4.445,0.79375 -0.3175,-2.06375 0.105833,-3.33375 -0.211667,-4.39208 -0.529166,-1.905 0.47625,-2.59292 0.47625,-2.59292 l -0.740833,-2.43417 z"
         id="path11-4"
         style="fill:#33a440;stroke-width:0.529167" />
      <path
         class="cls-8"
         d="m 29.636246,274.88542 4.603749,6.24417 c -1.11125,-0.15875 -4.550833,-1.05833 -4.603749,-0.89958 v 0.10583 c 1.269999,0.37042 4.444999,1.16417 5.132916,1.64042 l 3.069167,4.02166 0.740833,-0.47625 -2.8575,-3.59833 c -0.211667,-0.52917 -0.3175,-2.75167 -0.3175,-2.75167 l -0.370417,-0.37041 v 2.38125 l -5.344583,-6.29709 z"
         id="path12-17"
         style="fill:#a0d843;stroke-width:0.529167" />
      <path
         class="cls-4"
         d="m 53.237079,291.92459 c -0.635,-3.4925 2.434166,-4.86833 2.38125,-6.72042 -0.105834,-1.16416 -1.164167,-1.64041 -0.740834,-3.43958 0.370417,-1.37583 0.105834,-2.27542 -1.058333,-2.96333 -0.9525,-0.58209 -1.905,-1.79917 -2.54,-2.16959 -0.846667,-0.52916 -2.2225,-1.21708 -3.33375,-1.48166 -0.529167,0.9525 -0.846667,3.06916 -1.217083,4.02166 -0.47625,1.16417 -1.42875,1.79917 -1.27,3.06917 l 1.27,4.18042 3.280833,2.96333 c 1.11125,0.52917 2.169583,1.42875 2.275417,2.59292 z"
         id="path13-1"
         style="fill:#89cd32;stroke-width:0.529167" />
      <path
         class="cls-5"
         d="m 47.574995,283.24626 3.33375,2.43416 -1.42875,-7.35541 0.05292,-0.0529 1.852083,7.03792 1.905,-4.1275 h 0.105834 l -1.799167,4.70958 1.375833,5.92667 -0.687916,0.15875 -1.217084,-5.60917 -3.4925,-3.01625 z"
         id="path14-34"
         style="fill:#33a440;stroke-width:0.529167" />
      <path
         class="cls-3"
         d="m 37.891245,280.12417 c -0.3175,1.00542 0.264584,1.85209 0.211667,2.91042 l -0.211667,2.06375 0.9525,2.75167 7.037917,4.97416 1.799167,-0.26458 3.33375,-1.00542 c -1.058334,-0.89958 -3.01625,-7.40833 -3.386667,-8.46666 -0.529167,-1.11125 -1.799167,-1.11125 -2.328333,-1.16417 -0.899584,-0.42333 -0.899584,-1.48167 -1.957917,-1.95792 -0.9525,-0.37041 -1.74625,0.37042 -2.645833,0.10584 l -1.693334,-0.47625 z"
         id="path15-8"
         style="fill:#006a37;stroke-width:0.529167" />
      <path
         class="cls-5"
         d="m 40.484162,282.50542 5.503333,4.86834 v -3.59834 h 0.05292 l 0.529167,4.07459 4.60375,4.33916 -0.529167,0.635 -2.487083,-2.16958 z"
         id="path16-61"
         style="fill:#33a440;stroke-width:0.529167" />
      <path
         class="cls-5"
         d="m 57.311662,272.29251 c -1.005417,0.635 -2.487083,0.84666 -2.8575,1.27 -0.529167,0.47625 -0.423333,1.05833 -1.852083,1.69333 -0.740834,0.3175 -0.9525,1.21708 -0.899584,1.74625 0.687917,0.74083 1.534584,1.48167 2.116667,1.79917 1.217083,0.68791 1.534583,1.64041 1.058333,2.96333 -0.370416,1.79917 0.635,2.06375 0.740834,3.43958 0,0.635 -0.3175,1.16417 -1.11125,2.16959 l -0.05292,0.74083 c 1.058333,-1.11125 3.96875,-4.60375 4.180416,-5.60917 0.105834,-1.37583 -0.687916,-2.06375 0.105834,-3.43958 1.27,-1.905 0.582083,-2.38125 -0.3175,-3.4925 -0.687917,-0.9525 -0.687917,-2.54 -1.11125,-3.28083 z"
         id="path17-5"
         style="fill:#33a440;stroke-width:0.529167" />
      <path
         class="cls-5"
         d="m 59.057912,276.20834 -0.3175,0.10583 c 0.582083,0.84667 1.005416,1.48167 0,2.8575 -0.79375,1.27 0,2.01084 -0.105834,3.33375 -0.05292,0.3175 -0.423333,0.89959 -0.899583,1.53459 l 0.740833,0.635 2.434167,-1.85209 4.392083,-6.19125 -0.529166,-1.53458 z"
         id="path18-0"
         style="fill:#33a440;stroke-width:0.529167" />
      <path
         class="cls-5"
         d="m 65.143328,275.62626 c -1.27,0.21166 -4.60375,0.47625 -6.138333,0.58208 0.740833,1.5875 -0.79375,2.59292 -0.582083,3.91583 0.264583,1.37584 0.423333,2.38125 -0.15875,3.43959 l 1.852083,4.55083 5.979583,-1.95792 0.529167,-1.05833 0.370417,-0.79375 c 0.264583,-0.9525 0.47625,-2.01083 0.47625,-2.27542 0.264583,-1.69333 2.116666,-1.42875 1.11125,-3.01625 -0.79375,-1.21708 -3.175,-1.48166 -3.439584,-3.38666 z"
         id="path19-6"
         style="fill:#33a440;stroke-width:0.529167" />
      <path
         class="cls-4"
         d="m 62.920828,277.47834 -7.672916,11.1125 -1.058333,1.37583 -0.635,-0.42333 1.481666,-2.48708 7.77875,-9.57792 z"
         id="path20-5"
         style="fill:#89cd32;stroke-width:0.529167" />
      <path
         class="cls-3"
         d="m 66.995412,275.04417 -0.899584,2.69875 c 0,0.37042 0.3175,1.5875 0.529167,1.85209 l 1.852083,1.53458 h 2.963334 l 2.06375,-1.5875 c 0.899583,-0.74083 0.423333,-2.11667 0.370416,-3.65125 -0.05292,-0.84667 -1.852083,-2.01083 -1.852083,-2.01083 l -3.545417,-0.0529 z"
         id="path21-3"
         style="fill:#006a37;stroke-width:0.529167" />
      <path
         class="cls-6"
         d="m 67.154162,275.36167 -0.635,2.43417 c 0,0.3175 0.423333,1.37583 0.529166,1.5875 l 1.481667,1.21708 c 0.47625,0.37042 0.79375,0.3175 1.27,0.26459 h 1.164167 c 0.529166,0 0.9525,-0.26459 1.27,-0.635 l 1.058333,-0.9525 c 0.47625,-0.52917 0.3175,-1.05834 0.264583,-1.48167 l -0.105833,-1.905 -0.9525,-1.05833 -1.217083,-0.68792 h -2.54 z"
         id="path22-1"
         style="fill:#abd75f;stroke-width:0.529167" />
      <path
         class="cls-7"
         d="m 67.894995,275.36167 -1.005417,2.38125 0.529167,1.37584 1.42875,1.32291 c 0.211667,0.21167 0.423333,0.26459 0.740833,0.21167 h 1.27 c 0.370417,0 0.635,-0.0529 0.899584,-0.3175 l 1.217083,-1.16417 c 0.3175,-0.3175 0.529167,-0.635 0.47625,-1.05833 l -0.105833,-2.16958 -1.058334,-1.11125 -1.058333,-0.3175 h -2.2225 z"
         id="path23-0"
         style="fill:#94c83d;stroke-width:0.529167" />
      <path
         class="cls-6"
         d="m 72.022495,277.42542 c 0,1.11125 -0.899583,1.95792 -2.116667,1.95792 -0.899583,0 -2.010833,-0.84667 -1.852083,-2.16958 0.05292,-1.05834 0.9525,-1.85209 2.010833,-1.74625 1.058334,0.10583 1.957917,0.9525 1.957917,1.95791 z"
         id="path24-1"
         style="fill:#abd75f;stroke-width:0.529167" />
      <path
         class="cls-7"
         d="m 70.170412,275.89084 -0.264584,1.00542 -0.582083,-1.00542 c 0,-0.26458 0.740833,-0.42333 0.846667,0 z m 0.423333,0 -0.264583,1.05833 1.058333,-0.79375 c 0,-0.3175 -0.687917,-0.74083 -0.79375,-0.26458 z m 1.058333,0.84667 -1.217083,0.42333 1.005417,0.58208 c 0.47625,0 0.529166,-0.84666 0.211666,-1.00541 z m -0.15875,1.32291 -1.058333,-0.58208 0.529167,1.11125 c 0.211666,0.26458 0.846666,-0.3175 0.529166,-0.52917 z m -1.42875,0.9525 0.105834,-1.27 -0.529167,1.11125 c -0.105833,0.3175 0.47625,0.47625 0.423333,0.15875 z m -0.9525,-0.21166 0.423334,-1.05834 -0.899584,0.52917 c -0.15875,0.26458 0.370417,0.84667 0.47625,0.52917 z m -0.635,-1.00542 1.058334,-0.10583 -1.058334,-0.21167 c -0.264583,0 -0.264583,0.47625 0,0.3175 z m 0,-0.79375 1.058334,0.15875 -0.899584,-0.47625 c -0.15875,-0.21167 -0.423333,0.26458 -0.15875,0.3175 z m 0.529167,-0.89958 0.635,0.79375 -0.264583,-1.00542 c -0.105834,-0.21167 -0.635,0.0529 -0.370417,0.21167 z m 0.899583,1.32291 c 0,0.10584 0.264584,0.15875 0.264584,0 0.15875,-0.21166 -0.264584,-0.26458 -0.264584,0 z"
         id="path25-9"
         style="fill:#94c83d;stroke-width:0.529167" />
      <path
         class="cls-3"
         d="m 66.942495,284.25167 c -1.11125,0.0529 -1.852083,1.00542 -3.122083,1.11125 -0.846667,0.0529 -1.640417,-0.42333 -2.592917,0.58209 -0.582083,0.74083 -0.3175,2.06375 -1.74625,2.96333 l -1.74625,1.00542 0.79375,4.92125 1.74625,1.37583 2.38125,-0.9525 c 1.164167,-0.89958 1.852083,-2.16958 3.439583,-1.64042 1.058334,0.0529 2.487084,-1.11125 2.487084,-2.69875 l 0.423333,-2.32833 c 0.264583,-1.11125 -0.79375,-1.00542 -0.79375,-2.32833 0.05292,-0.79375 -0.15875,-2.11667 -1.27,-2.01084 z"
         id="path26-5"
         style="fill:#006a37;stroke-width:0.529167" />
      <path
         class="cls-5"
         d="m 61.439162,288.37917 0.105833,4.7625 -0.846667,1.16417 0.423334,0.42333 0.79375,-1.16416 4.445,-1.74625 v -0.10584 l -4.1275,1.21709 3.65125,-5.97959 -0.05292,-0.0529 -3.915833,5.66208 -0.3175,-4.18042 z"
         id="path27-7"
         style="fill:#33a440;stroke-width:0.529167" />
      <path
         class="cls-3"
         d="m 73.345412,279.54209 c 1.058333,-0.26458 2.275416,-0.37042 2.645833,0.79375 0.423333,1.5875 -0.264583,2.16958 0.423333,4.02167 0.582084,2.32833 -1.534583,2.54 -2.06375,3.70416 -0.3175,1.00542 0,1.85209 -1.640416,2.91042 l -3.175,1.27 -1.322917,-3.38667 -1.322917,-4.02166 0.582084,-2.80459 c 0.3175,-1.905 2.328333,-2.16958 2.963333,-1.5875 z"
         id="path28-6"
         style="fill:#006a37;stroke-width:0.529167" />
      <path
         class="cls-5"
         d="m 73.768745,281.71167 -0.687917,0.58209 -3.545416,3.96875 v -3.81 h -0.105834 l -0.3175,4.49791 -1.11125,1.16417 0.47625,0.47625 1.058334,-1.11125 4.815416,-1.53458 v -0.10584 l -4.445,0.84667 z"
         id="path29-8"
         style="fill:#33a440;stroke-width:0.529167" />
      <path
         class="cls-4"
         d="m 49.903329,307.42917 c 2.2225,-1.16416 4.021666,-1.37583 7.196666,-0.79375 2.910417,0.52917 3.01625,-0.3175 4.339167,-1.64041 1.534583,-1.37584 3.175,-0.52917 4.1275,-1.27 1.322916,-0.79375 0.899583,-2.2225 2.169583,-2.96334 1.005417,-0.74083 2.169583,-0.47625 2.434167,-2.8575 l 0.423333,-3.22791 -4.656667,-1.27 c -1.164166,-0.37042 -1.905,0.15875 -2.487083,0.79375 l -2.010833,1.905 -4.021667,3.59833 -2.434166,0.3175 c -1.005417,0.15875 -1.852084,0.52917 -2.275417,2.01083 -0.635,2.16959 -0.79375,2.91042 -3.227917,4.60375 z"
         id="path30-5"
         style="fill:#89cd32;stroke-width:0.529167" />
      <path
         class="cls-5"
         d="m 66.889578,297.26917 -5.715,2.69875 -3.96875,2.16959 0.740834,-1.37584 -0.529167,-0.26458 -1.058333,1.905 -4.7625,2.80458 v 0.0529 l 6.82625,-3.4925 5.132916,0.635 v -0.0529 l -4.339166,-0.58208 7.672916,-4.445 z"
         id="path31-47"
         style="fill:#33a440;stroke-width:0.529167" />
      <path
         class="cls-5"
         d="m 27.572496,288.11459 c -0.3175,1.05833 0.211666,1.79917 0,3.06917 -0.264584,2.11666 1.058333,2.2225 1.852083,3.22791 0.687917,0.84667 0.211667,3.175 2.328333,3.4925 2.06375,0.3175 1.852083,1.00542 2.963333,2.11667 l 1.5875,1.21708 3.175,-1.74625 1.217084,-3.28083 -0.79375,-3.43958 c -0.79375,0.15875 -2.06375,-0.79375 -2.645834,-1.48167 -1.481666,-0.37042 -1.534583,-3.70417 -3.439583,-3.22792 -1.27,0.26459 -1.481667,0.3175 -2.645833,-0.3175 z"
         id="path32-9"
         style="fill:#33a440;stroke-width:0.529167" />
      <path
         class="cls-3"
         d="m 29.900829,289.96667 5.132916,4.97417 -4.074583,0.21167 v 0.0529 l 4.709583,0.3175 -1.27,3.12209 0.635,1.85208 1.27,0.74083 3.598334,-1.74625 0.370416,-2.64583 -1.852083,-4.33917 -2.275417,2.43417 -6.191249,-5.02708 z"
         id="path33"
         style="fill:#006a37;stroke-width:0.529167" />
      <path
         class="cls-5"
         d="m 43.447495,288.06167 c 1.375834,-0.0529 2.275417,1.00542 2.328334,2.64584 0.105833,1.64041 1.005416,1.11125 2.592916,2.38125 l -1.852083,2.11666 -1.322917,3.22792 -3.96875,2.06375 -2.8575,-2.64583 -0.211666,-4.445 0.9525,-1.16417 2.2225,-2.01083 z"
         id="path34"
         style="fill:#33a440;stroke-width:0.529167" />
      <path
         class="cls-3"
         d="m 42.018745,291.81876 2.910417,6.08541 0.582083,-0.52916 -3.227916,-5.55625 z"
         id="path35"
         style="fill:#006a37;stroke-width:0.529167" />
      <path
         class="cls-9"
         d="m 38.155829,294.41167 c -1.27,0.3175 -2.434167,0.635 -2.8575,1.37584 l -0.899584,2.8575 c -0.05292,0.52916 0.529167,1.32291 1.27,2.64583 0.3175,0.58208 0.79375,0.79375 1.217084,0.79375 1.005416,0.21167 2.487083,0.58208 3.01625,0.47625 l 1.905,-0.21167 c 0.79375,0 2.8575,-2.38125 3.122083,-3.65125 -1.481667,0 -2.06375,-2.16958 -2.592917,-2.64583 -1.005416,-0.79375 -1.74625,-1.95792 -4.180416,-1.64042 z"
         id="path36"
         style="fill:#a05a2c;stroke-width:0.529167" />
      <path
         class="cls-6"
         d="m 37.362079,295.15251 c -0.79375,0.26458 -1.5875,0.37041 -1.693334,1.42875 l -0.740833,2.27541 c 0,0.26459 1.005417,1.905 1.27,2.43417 0.15875,0.3175 0.529167,0.3175 0.79375,0.3175 l 2.38125,0.47625 2.38125,-0.26458 c 0.264583,0 1.164167,-1.37584 1.11125,-1.85209 l -1.005417,-3.22791 -1.375833,-1.27 c -0.740833,-0.58209 -1.852083,-0.74084 -3.122083,-0.3175 z"
         id="path37"
         style="fill:#abd75f;stroke-width:0.529167" />
      <path
         class="cls-10"
         d="m 37.309162,295.41709 c -0.740833,0.26458 -1.534583,0.3175 -1.5875,1.32292 l -0.687917,2.11666 c 0,0.26459 0.9525,1.85209 1.27,2.38125 0.15875,0.3175 0.423334,0.3175 0.740834,0.3175 l 2.328333,0.3175 2.169583,-0.26458 c 0.264584,0 1.005417,-1.16417 0.846667,-1.64042 l -0.635,-3.12208 -1.322917,-1.32292 c -0.687916,-0.52916 -1.852083,-0.52916 -3.122083,-0.10583 z"
         id="path38"
         style="fill:#bce284;stroke-width:0.529167" />
      <path
         class="cls-7"
         d="m 40.695829,298.43334 c 0.264583,-1.11125 -1.005417,-2.16958 -2.275417,-1.95792 -1.005417,0.10584 -2.06375,0.89959 -1.905,2.38125 0.211667,1.05834 1.11125,1.905 2.434167,1.69334 1.058333,-0.10584 1.852083,-1.11125 1.74625,-2.11667 z"
         id="path39"
         style="fill:#94c83d;stroke-width:0.529167" />
      <path
         class="cls-6"
         d="m 38.420412,296.84584 0.264583,1.05833 -0.79375,-0.79375 c -0.264583,-0.26458 0.423334,-0.52916 0.529167,-0.26458 z m 0.687917,0 -0.264584,1.00542 0.846667,-0.74084 c 0,-0.26458 -0.582083,-0.58208 -0.582083,-0.26458 z m 0.899583,0.79375 -0.846667,0.68792 1.11125,-0.10584 c 0.423334,-0.10583 0.211667,-0.68791 -0.264583,-0.58208 z m 0.423333,1.05833 -1.058333,-0.0529 0.79375,0.74083 c 0.264583,0.10583 0.635,-0.68792 0.264583,-0.68792 z m -1.74625,1.32292 v -0.89958 l -0.529166,1.05833 c -0.105834,0.3175 0.529166,0.3175 0.529166,-0.15875 z m -1.164166,0 0.529166,-0.89958 -0.79375,0.37041 c -0.211666,0.26459 0.264584,0.9525 0.264584,0.52917 z m -0.529167,-0.84667 1.058333,-0.52916 h -1.058333 c -0.264583,0.0529 -0.264583,0.74083 0,0.52916 z m 0,-0.84666 1.058333,0.0529 -1.058333,-0.47625 c -0.264583,0 -0.264583,0.47625 0,0.42334 z m 0.264583,-0.79375 0.79375,0.52916 -0.529166,-0.79375 c -0.211667,-0.21166 -0.47625,0.10584 -0.264584,0.26459 z m 1.322917,0.89958 c -0.15875,0.21167 0.264583,0.26458 0.3175,0 0,-0.10583 -0.3175,-0.10583 -0.3175,0 z"
         id="path40"
         style="fill:#abd75f;stroke-width:0.529167" />
      <path
         class="cls-3"
         d="m 59.587078,269.48792 c -0.79375,0.58209 -1.164166,2.48709 -1.42875,3.43959 -0.211666,0.635 1.11125,2.2225 1.375834,3.22791 0.582083,0.52917 1.799166,0.47625 2.69875,0.89959 0.740833,0.21166 1.74625,-0.37042 2.645833,-0.635 0.687917,-0.26459 1.74625,-2.64584 1.74625,-3.38667 -0.15875,-0.84667 -0.47625,-2.64583 -1.481667,-3.75708 -1.058333,-0.58209 -4.497916,-0.79375 -5.55625,0.21166 z"
         id="path41"
         style="fill:#006a37;stroke-width:0.529167" />
      <path
         class="cls-6"
         d="m 59.587078,270.01709 c -0.582083,0.58208 -0.899583,2.11667 -1.11125,3.01625 -0.05292,0.52917 1.005417,2.06375 1.27,2.8575 0.529167,0.47625 1.5875,0.52917 2.38125,0.84667 0.635,0.26458 1.42875,-0.10584 2.487084,-0.52917 0.79375,-0.10583 1.799166,-2.38125 1.74625,-3.01625 -0.211667,-0.74083 -0.79375,-2.80458 -1.5875,-3.65125 -0.9525,-0.58208 -4.233334,-0.74083 -5.185834,0.47625 z"
         id="path42"
         style="fill:#abd75f;stroke-width:0.529167" />
      <path
         class="cls-10"
         d="m 59.851662,270.01709 c -0.635,0.37042 -0.79375,1.905 -1.164167,3.01625 -0.105833,0.42333 1.058333,2.01083 1.164167,2.64583 0.423333,0.42334 1.481666,0.42334 2.328333,0.74084 0.740833,0.3175 1.11125,-0.0529 2.328333,-0.47625 0.79375,-0.10584 1.42875,-2.11667 1.481667,-2.69875 0.15875,-0.74084 -0.899583,-2.43417 -1.375833,-3.175 -0.740834,-0.58209 -3.757084,-1.11125 -4.7625,-0.0529 z"
         id="path43"
         style="fill:#bce284;stroke-width:0.529167" />
      <path
         class="cls-7"
         d="m 64.349578,271.97501 c -0.635,-1.16417 -1.905,-1.64042 -3.122083,-0.89959 -0.899583,0.52917 -1.481667,1.64042 -0.687917,3.01625 0.582084,0.9525 1.905,1.32292 2.963334,0.68792 1.005416,-0.47625 1.27,-1.85208 0.846666,-2.80458 z"
         id="path44"
         style="fill:#94c83d;stroke-width:0.529167" />
      <path
         class="cls-6"
         d="m 62.232912,271.12834 -0.05292,1.11125 -0.47625,-0.89958 c 0,-0.21167 0.529167,-0.47625 0.529167,-0.21167 z m 1.005416,0.3175 -0.582083,1.00542 0.899583,-0.47625 c 0.3175,-0.26459 -0.105833,-0.79375 -0.3175,-0.52917 z m 0.582084,0.68792 -1.058334,0.58208 1.058334,-0.0529 c 0.423333,0 0.264583,-0.68791 0,-0.52916 z m 0.15875,0.84666 -1.005417,0.26459 0.846667,0.26458 c 0.423333,0.0529 0.423333,-0.58208 0.15875,-0.52917 z m -0.635,0.52917 -0.370417,0.0529 0.211667,0.52916 c 0.264583,0.52917 0.899583,-0.0529 0.15875,-0.58208 z m -1.693334,1.00542 0.3175,-0.79375 -0.635,0.37041 c -0.264583,0.26459 0.264584,0.74084 0.3175,0.42334 z m -1.005416,-0.9525 1.005416,-0.3175 h -1.005416 c -0.264584,0 -0.05292,0.58208 0,0.3175 z m 0,-0.84667 1.005416,0.0529 -0.846666,-0.3175 c -0.423334,-0.0529 -0.423334,0.3175 -0.15875,0.26458 z m 0.211666,-0.74083 1.005417,0.52916 -0.529167,-0.84666 c -0.15875,-0.26459 -0.687916,0.21166 -0.47625,0.3175 z m 1.322917,0.9525 c 0.05292,0.10583 0.264583,0.10583 0.264583,0 0,-0.26459 -0.3175,-0.26459 -0.264583,0 z m 0,0.79375 -0.47625,0.635 0.264583,0.15875 0.211667,0.37041 0.264583,-0.26458 z"
         id="path45"
         style="fill:#abd75f;stroke-width:0.529167" />
      <path
         class="cls-9"
         d="m 55.935829,293.93542 c -0.687917,0.26459 -0.899584,1.27 -0.899584,1.5875 l -0.582083,0.68792 c 0.05292,1.32292 0.105833,3.70417 0.529167,3.81 l 2.434166,1.32292 2.592917,-0.0529 c 0.899583,-0.0529 1.905,-1.905 2.434166,-2.43417 0.529167,-0.74083 0.211667,-1.48166 -0.47625,-3.65125 -0.79375,-2.32833 -4.339166,-2.06375 -6.032499,-1.27 z"
         id="path46"
         style="fill:#a05a2c;stroke-width:0.529167" />
      <path
         class="cls-6"
         d="m 56.041662,294.46459 -0.529167,1.32292 -0.687916,0.79375 c 0,1.05833 0.15875,3.06916 0.529166,3.33375 l 2.275417,1.16416 2.116666,-0.10583 c 0.79375,0 1.5875,-1.48167 2.169584,-2.27542 0.582083,-0.58208 0.529166,-0.79375 -0.47625,-3.22791 -0.899584,-2.06375 -3.757084,-1.79917 -5.3975,-1.00542 z"
         id="path47"
         style="fill:#abd75f;stroke-width:0.529167" />
      <path
         class="cls-10"
         d="m 56.041662,294.62334 -0.529167,1.32292 -0.529166,0.79375 c 0,1.05833 0.264583,2.75166 0.582083,2.96333 l 1.905,1.05833 2.010833,-0.0529 c 0.79375,0 1.42875,-1.21709 2.2225,-2.11667 0.529167,-0.47625 0.47625,-0.68792 -0.370417,-2.80458 -0.9525,-2.16959 -3.704166,-1.85209 -5.291666,-1.16417 z"
         id="path48"
         style="fill:#bce284;stroke-width:0.529167" />
      <path
         class="cls-7"
         d="m 60.380828,297.32209 c 0,1.11125 -0.899583,2.16958 -2.116666,2.16958 -1.058334,0 -2.116667,-0.79375 -1.957917,-2.2225 0,-0.9525 1.058333,-2.01083 2.2225,-2.01083 1.005417,0 1.852083,0.79375 1.852083,2.06375 z"
         id="path49"
         style="fill:#94c83d;stroke-width:0.529167" />
      <path
         class="cls-6"
         d="m 58.475828,295.73459 -0.05292,1.11125 -0.423334,-0.89958 c 0,-0.42334 0.47625,-0.52917 0.47625,-0.21167 z m 0.740834,0.21167 -0.47625,0.84666 0.79375,-0.47625 c 0.211666,-0.26458 -0.264584,-0.635 -0.3175,-0.37041 z m 0.635,0.58208 -0.846667,0.58208 0.846667,-0.0529 c 0.47625,0 0.264583,-0.58209 0,-0.52917 z m 0,1.11125 -0.899584,-0.0529 0.79375,0.52917 c 0.3175,0.21167 0.529167,-0.47625 0.105834,-0.47625 z m -0.582084,0.9525 -0.740833,-0.68792 0.211667,0.9525 c 0.211666,0.37042 0.846666,0 0.529166,-0.26458 z m -1.27,0.52917 0.264584,-1.21709 -0.635,0.79375 c -0.211667,0.42334 0.370416,0.74084 0.370416,0.42334 z m -1.11125,-1.00542 1.005417,-0.26458 -1.005417,0.0529 c -0.264583,0 -0.317499,0.42334 0,0.21167 z m 0,-0.74083 0.846667,-0.0529 -0.846667,-0.3175 c -0.317499,0 -0.317499,0.37042 0,0.37042 z m 0.3175,-1.05834 0.687917,0.47625 -0.423333,-0.79375 c -0.105834,-0.0529 -0.529167,0.21167 -0.264584,0.3175 z m 1.058334,1.05834 c 0,0.21166 0.264583,0.21166 0.264583,0 0,-0.10584 -0.264583,-0.10584 -0.264583,0 z"
         id="path50"
         style="fill:#abd75f;stroke-width:0.529167" />
      <path
         class="cls-9"
         d="m 36.250829,273.29792 c -1.005417,0.26459 -1.27,0.74084 -1.534584,1.5875 l -0.79375,1.21709 0.211667,1.85208 c 0.05292,0.52917 0.846667,1.05833 2.06375,1.95792 0.529167,0.47625 0.899583,0.47625 1.322917,0.42333 l 2.169583,-0.26458 c 0.47625,-0.15875 0.740833,0 1.11125,-0.47625 l 1.217083,-1.64042 c 0.264584,-0.26458 0.264584,-0.68792 0.264584,-1.05833 l -0.79375,-2.75167 c -0.687917,-0.84667 -2.328334,-1.85208 -3.439584,-1.48167 z"
         id="path51"
         style="fill:#a05a2c;stroke-width:0.529167" />
      <path
         class="cls-6"
         d="m 35.933329,273.56251 c -0.79375,0.26458 -0.9525,1.48166 -1.5875,2.64583 l 0.264583,1.74625 2.169583,1.85208 0.529167,0.0529 2.328333,-0.21167 c 0.370417,-0.0529 0.635,-0.10583 0.79375,-0.37041 l 1.164167,-1.5875 c 0.211667,-0.21167 0.264583,-0.52917 0.15875,-0.9525 l -0.687917,-2.48709 c -0.79375,-0.74083 -1.957916,-1.74625 -3.01625,-1.48166 z"
         id="path52"
         style="fill:#abd75f;stroke-width:0.529167" />
      <path
         class="cls-10"
         d="m 35.933329,273.72126 c -0.79375,0.26458 -0.79375,1.42875 -1.42875,2.48708 l 0.15875,1.5875 2.116666,1.85208 0.529167,0.15875 2.169583,-0.26458 c 0.423334,0 0.687917,-0.15875 0.79375,-0.26458 l 1.217084,-1.5875 c 0.3175,-0.21167 0.370416,-0.68792 0.105833,-1.21709 l -0.529167,-2.2225 c -0.79375,-0.68791 -1.957916,-1.5875 -3.01625,-1.32291 z"
         id="path53"
         style="fill:#bce284;stroke-width:0.529167" />
      <path
         class="cls-7"
         d="m 40.166662,275.57334 c -0.423333,-1.05833 -1.799167,-1.74625 -3.069167,-1.00542 -0.899583,0.47625 -1.640416,1.64042 -0.846666,2.91042 0.529166,1.00542 2.06375,1.37583 2.963333,0.74083 0.9525,-0.47625 1.217083,-1.74625 0.9525,-2.64583 z"
         id="path54"
         style="fill:#94c83d;stroke-width:0.529167" />
      <path
         class="cls-6"
         d="m 38.155829,274.77959 -0.105834,1.05833 -0.529166,-0.79375 c 0,-0.42333 0.529166,-0.52916 0.635,-0.26458 z m 1.005416,0.26458 -0.582083,0.79375 0.79375,-0.42333 c 0.264583,-0.26458 -0.15875,-0.635 -0.211667,-0.37042 z m 0.47625,0.635 -0.9525,0.42334 h 0.9525 c 0.370417,0 0.264584,-0.52917 0,-0.42334 z m 0.05292,0.79375 h -0.846667 l 0.79375,0.52917 c 0.264584,0.15875 0.529167,-0.52917 0.05292,-0.52917 z m -0.740833,1.00542 -0.635,-0.58208 0.264583,0.89958 c 0.105833,0.42333 0.899583,0 0.370417,-0.3175 z m -0.899584,0.47625 v -1.00542 l -0.529166,0.79375 c -0.15875,0.47625 0.529166,0.58209 0.529166,0.21167 z m -1.481666,-0.52917 0.79375,-0.52916 -0.899584,0.0529 c -0.264583,0 0,0.74084 0.105834,0.47625 z m -0.105834,-0.68791 0.899584,-0.10584 -0.899584,-0.26458 c -0.423333,0 -0.264583,0.37042 0,0.37042 z m 0,-0.84667 0.899584,0.26458 -0.79375,-0.47625 c -0.264584,-0.10583 -0.370417,0.26459 -0.105834,0.21167 z m 1.42875,0.47625 c 0,0.26458 0.264584,0.26458 0.264584,0 0,-0.15875 -0.264584,-0.15875 -0.264584,0 z"
         id="path55"
         style="fill:#abd75f;stroke-width:0.529167" />
      <path
         class="cls-9"
         d="m 37.520829,285.62751 c -0.529167,0.26458 -1.005417,0.84666 -1.5875,1.42875 -0.423334,0.52916 0,1.32291 -0.423334,2.11666 -0.05292,0.52917 0.47625,1.48167 0.687917,2.06375 0.264583,0.52917 1.375833,0.58209 2.38125,1.37584 l 2.434167,-0.10584 c 0.740833,0 1.005416,-0.21166 1.322916,-0.52916 0.211667,-0.21167 1.27,-1.85209 1.375834,-2.38125 0.15875,-0.68792 -0.529167,-2.01084 -1.058334,-3.12209 -0.635,-1.11125 -3.439583,-1.905 -5.132916,-0.84666 z"
         id="path56"
         style="fill:#a05a2c;stroke-width:0.529167" />
      <path
         class="cls-6"
         d="m 37.626662,285.99792 c -0.370417,0.21167 -0.899583,0.9525 -1.42875,1.48167 -0.211667,0.3175 0.05292,1.11125 -0.211667,1.85208 l 0.529167,1.5875 0.264583,0.3175 1.905,0.84667 2.275417,-0.0529 c 0.582083,0 0.899583,-0.26458 1.164167,-0.52916 l 1.058333,-1.905 c 0.211667,-0.47625 -0.105833,-0.9525 -0.582083,-2.27542 -0.529167,-1.69333 -3.227917,-2.38125 -4.974167,-1.32292 z"
         id="path57"
         style="fill:#abd75f;stroke-width:0.529167" />
      <path
         class="cls-10"
         d="m 37.573745,286.15667 c -0.3175,0.26459 -0.846666,0.89959 -1.322916,1.37584 -0.211667,0.3175 0,1.11125 -0.211667,1.85208 l 0.529167,1.53458 0.264583,0.26459 2.010833,0.84666 1.852084,-0.0529 c 0.529166,0 1.058333,-0.21167 1.322916,-0.52917 l 1.058334,-1.85208 c 0.264583,-0.42334 0,-0.9525 -0.529167,-2.27542 -0.529167,-1.69333 -3.439583,-2.2225 -4.974167,-1.16417 z"
         id="path58"
         style="fill:#bce284;stroke-width:0.529167" />
      <path
         class="cls-7"
         d="m 41.595412,288.11459 c -0.264583,-0.79375 -1.5875,-1.69333 -3.01625,-0.89958 -0.9525,0.52916 -1.5875,1.42875 -0.9525,2.64583 0.529167,1.05833 1.852083,1.32292 2.910417,0.79375 0.9525,-0.42333 1.322916,-1.53458 1.058333,-2.54 z"
         id="path59"
         style="fill:#94c83d;stroke-width:0.529167" />
      <path
         class="cls-6"
         d="m 39.637495,287.32084 -0.15875,1.05833 -0.529166,-0.79375 c 0,-0.37041 0.687916,-0.52916 0.687916,-0.26458 z m 1.058334,0.26458 -0.529167,0.74084 0.79375,-0.3175 c 0.264583,-0.26459 -0.264583,-0.68792 -0.264583,-0.42334 z m 0.370416,0.52917 -0.79375,0.47625 h 0.79375 c 0.423334,0 0.264584,-0.58208 0,-0.47625 z m 0.15875,0.79375 h -0.9525 l 0.79375,0.47625 c 0.264584,0.0529 0.529167,-0.47625 0.15875,-0.47625 z m -0.529166,0.74083 -0.687917,-0.3175 0.423333,0.79375 c 0.264584,0.26459 0.79375,-0.15875 0.264584,-0.47625 z m -1.058334,0.58209 0.05292,-0.84667 -0.47625,0.84667 c -0.105833,0.42333 0.423333,0.42333 0.423333,0 z m -1.217083,-0.0529 0.529167,-0.84667 -0.79375,0.37042 c -0.264584,0.15875 0.264583,0.79375 0.264583,0.47625 z m -0.370417,-0.74083 0.899584,-0.37042 h -0.899584 c -0.423333,0 -0.264583,0.52917 0,0.37042 z m 0,-0.79375 h 0.899584 l -0.846667,-0.3175 c -0.3175,-0.0529 -0.3175,0.47625 -0.05292,0.3175 z m 1.42875,0.21166 c 0,0.21167 0.264584,0.21167 0.264584,0 0,-0.21166 -0.264584,-0.21166 -0.264584,0 z"
         id="path60"
         style="fill:#abd75f;stroke-width:0.529167" />
      <path
         class="cls-5"
         d="m 45.458329,303.14292 1.640416,-1.37583 h 4.28625 v -0.0529 l -3.757083,-0.15875 4.7625,-4.81541 v -0.21167 l -6.932083,5.82083 z"
         id="path61"
         style="fill:#33a440;stroke-width:0.529167" />
      <path
         class="cls-3"
         d="m 43.341662,305.57709 c 1.322917,-0.26458 2.169583,-0.10583 4.233333,0.26458 2.434167,0.21167 2.487084,-1.64041 3.175,-1.95791 0.582084,-0.26459 1.5875,-0.42334 1.5875,-0.42334 0,0 0.529167,-2.48708 1.058334,-2.75166 l 1.058333,-0.68792 0.370417,-5.60917 c -0.635,-0.52916 -1.852084,-0.74083 -2.751667,-0.52916 -1.322917,0.21166 -1.852083,-0.0529 -2.645833,-0.3175 l -2.487084,-0.74084 -1.693333,5.08 -1.534583,1.5875 2.116666,2.80459 z"
         id="path62"
         style="fill:#006a37;stroke-width:0.529167" />
      <path
         class="cls-5"
         d="m 52.390412,296.58126 -5.820833,4.7625 -1.11125,1.79916 1.640416,-1.37583 h 4.28625 v -0.0529 l -3.757083,-0.15875 4.7625,-4.70958 z"
         id="path63"
         style="fill:#33a440;stroke-width:0.529167" />
      <path
         class="cls-11"
         d="m 33.287495,285.52167 c 0,1.79917 -1.481666,3.54542 -3.598333,3.4925 -2.434166,0 -3.545416,-1.79916 -3.545416,-3.38666 0,-1.79917 1.5875,-3.59834 3.545416,-3.59834 1.799167,-0.0529 3.598333,1.32292 3.598333,3.4925 z"
         id="path64"
         style="fill:#e1251b;stroke-width:0.529167" />
      <path
         class="cls-11"
         d="m 45.775829,301.76709 c 0.3175,1.85208 -1.005417,4.07458 -3.386667,4.02167 -2.2225,0 -3.81,-1.5875 -3.81,-3.65125 0.105833,-1.905 1.693333,-3.28084 3.4925,-3.28084 1.640417,0 3.386667,1.16417 3.704167,2.91042 z"
         id="path65"
         style="fill:#e1251b;stroke-width:0.529167" />
      <path
         class="cls-11"
         d="m 48.844995,274.25042 c 0.423334,1.37584 -0.370416,3.4925 -2.487083,3.54542 -1.693333,0 -2.645833,-1.11125 -2.54,-2.91042 0.15875,-1.32291 1.42875,-2.64583 2.963333,-2.43416 0.846667,0.0529 1.852084,0.79375 2.06375,1.79916 z"
         id="path66"
         style="fill:#e1251b;stroke-width:0.529167" />
      <path
         class="cls-11"
         d="m 44.664579,261.55042 c 0.370416,1.37584 -0.264584,3.175 -2.38125,3.28084 -1.74625,0 -2.910417,-1.16417 -2.910417,-2.64584 0,-1.37583 1.164167,-2.48708 2.487083,-2.54 1.217084,-0.10583 2.54,0.68792 2.804584,1.905 z"
         id="path67"
         style="fill:#e1251b;stroke-width:0.529167" />
      <path
         class="cls-11"
         d="m 58.264162,267.15959 c 0.47625,1.79917 -0.529167,4.18042 -3.280833,4.23333 -2.116667,0.0529 -3.704167,-1.37583 -3.65125,-3.70416 0.05292,-1.64042 1.640416,-3.22792 3.227916,-3.175 1.481667,-0.0529 3.175,0.79375 3.704167,2.64583 z"
         id="path68"
         style="fill:#e1251b;stroke-width:0.529167" />
      <path
         class="cls-11"
         d="m 73.557078,271.12834 c 0.47625,1.85208 -0.582083,4.02167 -2.910416,4.445 -2.116667,0.26458 -3.915834,-1.00542 -4.1275,-3.175 -0.05292,-2.06375 1.42875,-4.1275 3.915833,-4.1275 1.217083,0 2.804583,1.05833 3.122083,2.54 z"
         id="path69"
         style="fill:#e1251b;stroke-width:0.529167" />
      <path
         class="cls-11"
         d="m 73.874578,291.50126 c 0.15875,1.79916 -1.11125,4.02166 -3.757083,4.02166 -2.06375,0 -3.386667,-1.42875 -3.33375,-3.75708 0.105833,-1.79917 1.693333,-3.38667 3.545417,-3.38667 1.5875,0 3.280833,1.21709 3.545416,3.12209 z"
         id="path70"
         style="fill:#e1251b;stroke-width:0.529167" />
      <path
         class="cls-11"
         d="m 49.585829,291.76584 c 0.370416,1.53458 -0.582084,3.4925 -2.487084,3.4925 -1.375833,0 -2.592916,-0.84667 -2.54,-2.75167 0.105834,-1.32291 1.164167,-2.54 2.751667,-2.48708 0.899583,0 1.957917,0.47625 2.275417,1.74625 z"
         id="path71"
         style="fill:#e1251b;stroke-width:0.529167" />
      <path
         class="cls-11"
         d="m 59.322495,290.12542 c 0.423333,1.42875 -0.3175,3.28084 -2.38125,3.28084 -1.640416,0 -2.751666,-1.11125 -2.751666,-2.48709 0,-1.48166 1.11125,-2.64583 2.751666,-2.59291 0.9525,0 2.06375,0.58208 2.38125,1.79916 z"
         id="path72"
         style="fill:#e1251b;stroke-width:0.529167" />
      <path
         class="cls-5"
         d="m 57.470412,260.33334 -7.9375,12.85875 0.687917,0.37042 0.846666,-1.37584 6.402917,-11.80041 z"
         id="path73"
         style="fill:#33a440;stroke-width:0.529167" />
    </g>
  </g>
</svg>
