<?xml version="1.0" encoding="UTF-8" standalone="no"?>
<!-- Created with Inkscape (http://www.inkscape.org/) -->

<svg
   width="74.538132mm"
   height="100.41949mm"
   viewBox="0 0 74.538132 100.41949"
   version="1.1"
   id="svg1"
   xml:space="preserve"
   xmlns="http://www.w3.org/2000/svg"
   xmlns:svg="http://www.w3.org/2000/svg"><defs
     id="defs1" /><g
     id="layer1"
     transform="translate(-98.51813,-123.36547)"><g
       id="g75"><rect
         style="fill:#483e37;fill-opacity:1;stroke:#808080;stroke-width:1;stroke-miterlimit:4.4;stroke-dasharray:none;stroke-opacity:1"
         id="rect1-9-8"
         width="73.538139"
         height="99.419487"
         x="99.018127"
         y="123.86547"
         rx="0.52916658"
         ry="31.77648" /><g
         id="g31"
         transform="matrix(0.40966322,-0.33495289,0.33495289,0.40966322,87.68352,170.02952)"><g
           id="g32"><path
             d="m 101.2,32.9 c -3.8,-0.1 -11.1,1.5 -23.8,2.3 -9.9,0.6 -26.7,1 -42.8,-1.5 -5.9,-0.9 -8.7,-1.2 -12.7,0 -4.7,1.4 -8.4,5.9 -9.2,9.6 -0.7,2.9 0,7.9 17.2,7.9 h 68.9 c 8.3,0 16.9,-0.5 16.9,-5.8 0,-5.2 -4.6,-12.2 -14.5,-12.5 z"
             fill="#e7a542"
             id="path1-6" /><path
             d="m 114.5,42.6 c -4.7,-0.2 -7.8,0.9 -18.1,2.2 -9.9,1.2 -20.1,2.7 -37,2.6 -15,-0.1 -27.5,-1.5 -34.7,-2.6 -6.4,-1 -9,-2.2 -13.4,-2 -5.1,0.6 -9.6,4.6 -9.5,12 0.1,6.3 4.3,12 11.8,12.7 h 101.8 c 6.4,-0.8 11,-5.4 11.1,-11.9 0,-6.5 -5,-12.7 -12,-13 z"
             fill="#c62426"
             id="path2-9" /><path
             d="m 103.6,59.3 c -2.8,0 -4.8,-0.9 -7,-2.4 -4.3,-2.8 -8,-4.2 -11.5,0.2 -2.5,3 -5.2,7.4 -10.8,7.4 -7.9,0 -9.3,-9.5 -14.9,-9.6 -5.3,0 -7.6,8.1 -15,8.1 -5,0 -7.2,-3 -9.5,-6.1 -2.8,-3.6 -4.7,-3.9 -6.1,-3.7 -2.3,0.1 -5.2,2.1 -6.9,4.8 -0.7,1.3 -2.4,1.7 -3.5,0.8 -0.8,-0.7 -1.1,-2.1 -0.3,-3.1 2.4,-3.1 5.5,-6.8 10.9,-6.9 3.8,-0.1 6.6,1.8 9.1,5 2.5,3.3 3.7,5 6.2,5 5,0.1 8.1,-8 14.9,-8.2 7.4,-0.1 9.7,7.3 13.4,9.2 0.9,0.5 2.6,0.8 4,0.1 3.3,-1.4 5.8,-8.5 11.5,-9.6 3.8,-0.8 6.8,0.4 10,2.3 2,1.2 3.4,2.5 5.6,2.4 1.4,-0.1 2.2,-0.7 2.9,-1.5 0.8,-1 2.3,-1.1 3.2,-0.3 0.9,0.8 1.2,2.3 0.1,3.3 -1.7,1.6 -3.6,2.8 -6.3,2.8 z"
             fill="#f7b621"
             id="path3-0" /><path
             d="m 103.5,61.8 c -5.8,1.1 -16.4,3.7 -36.2,4 C 53.7,65.9 40.2,65.1 26.8,62.4 23,61.7 20.4,61 17,62 c -3.4,0.9 -7.8,4.2 -7.8,10.5 -0.1,5.2 2.7,10.4 8.8,13.4 5.5,2.7 16.3,8.3 43.8,9.5 15.7,0.3 33.7,-1.6 44.7,-6.5 5.2,-2.2 12.1,-6.1 12.4,-15.5 0,-6.8 -5.4,-12.9 -15.4,-11.6 z"
             fill="#e7a542"
             id="path4-1" /></g></g></g></g><style
     type="text/css"
     id="style1">.cls-0 {fill:#FCF5E5;}
.cls-1 {fill:#C84A39;}
.cls-2 {fill:#D8A538;}
.cls-3 {fill:#EDDAB2;}
.cls-4 {fill:#EAD8A7;}
.cls-5 {fill:#D1942F;}</style><style
     type="text/css"
     id="style1-7">.cls-0 {fill:url(#SVGID_1_);}
.cls-1 {fill:#E6A432;}
.cls-2 {fill:#E43932;}
.cls-3 {fill:#EC5F5E;}
.cls-4 {fill:#7DC245;}
.cls-5 {fill:#58AB40;}
.cls-6 {fill:#844120;}
.cls-7 {fill:#FDC036;}
.cls-8 {fill:#E6A636;}
.cls-9 {fill:#F3D17C;}
.cls-10 {fill:#814221;}</style><style
     type="text/css"
     id="style1-3">.cls-0 {fill:#E6DDCE;}
.cls-1 {fill:#F9F7F2;}
.cls-2 {fill:#E8E1D4;}
.cls-3 {fill:#006A37;}
.cls-4 {fill:#89CD32;}
.cls-5 {fill:#33A440;}
.cls-6 {fill:#ABD75F;}
.cls-7 {fill:#94C83D;}
.cls-8 {fill:#A0D843;}
.cls-9 {fill:#006838;}
.cls-10 {fill:#BCE284;}
.cls-11 {fill:#E1251B;}</style></svg>
