<?xml version="1.0" encoding="UTF-8" standalone="no"?>
<!-- Created with Inkscape (http://www.inkscape.org/) -->

<svg
   width="74.538139mm"
   height="100.41949mm"
   viewBox="0 0 74.538139 100.41949"
   version="1.1"
   id="svg1"
   xmlns="http://www.w3.org/2000/svg"
   xmlns:svg="http://www.w3.org/2000/svg">
  <defs
     id="defs1" />
  <g
     id="layer1"
     transform="translate(-13.389033,-13.825205)">
    <rect
       style="opacity:1;fill:#c8b7b7;fill-opacity:1;stroke:#808080;stroke-width:1;stroke-miterlimit:4.4;stroke-dasharray:none;stroke-opacity:1"
       id="rect1"
       width="73.538139"
       height="99.419487"
       x="13.889032"
       y="14.325206"
       rx="0.52916658"
       ry="31.77648" />
    <path
       style="opacity:1;fill:#ffffff;fill-opacity:1;stroke:#f2f2f2;stroke-width:3;stroke-miterlimit:4.4;stroke-dasharray:none;stroke-opacity:1"
       d="m 47.37242,34.783817 c -3.623916,-1.948882 -7.555504,-0.397938 -11.09269,0.533002 -3.023022,1.126886 -5.801399,3.131688 -7.936692,5.54422 -2.261926,2.947572 -0.373678,6.891845 1.284862,9.660515 3.076525,3.354938 -0.220095,6.764121 -3.411865,8.218917 -1.918291,2.571014 -4.554513,4.790116 -6.017514,7.670018 -1.354702,3.412723 2.30179,5.540849 3.640538,8.080154 2.62306,2.056386 5.752611,3.262071 8.372238,5.333706 1.461268,1.707001 4.169864,2.006982 5.707362,1.851465 0.952543,2.84124 3.898717,4.843805 6.660404,4.93523 2.733251,0.09048 4.613007,-2.938909 6.900432,-4.437753 3.394619,-2.224337 6.077763,-6.478779 10.126487,-6.759755 1.764912,-0.122482 3.020356,2.116431 4.779035,2.308693 3.709124,0.405488 8.142861,0.03102 10.893134,-2.576394 1.757657,-3.672631 3.699985,-8.180729 1.493073,-12.106538 -1.189876,-3.195036 -6.338496,-2.692671 -6.614326,-6.222773 0.151843,-3.799046 4.182986,-5.260339 5.638051,-8.414803 2.084706,-2.373201 1.590159,-5.55737 0.21391,-8.149356 -1.722965,-2.30803 -3.614455,-5.034126 -6.772066,-5.412357 -2.999479,-1.916818 -6.836097,-2.444984 -10.301336,-2.508364 -3.337385,-0.365797 -6.590161,0.30711 -9.591855,1.74225 -1.229831,0.592589 -2.599213,1.00104 -3.971182,0.709923 z"
       id="path11" />
    <ellipse
       style="opacity:1;fill:#ffa51e;fill-opacity:1;stroke:none;stroke-width:1.56142;stroke-miterlimit:4.4;stroke-dasharray:none;stroke-opacity:1"
       id="path12"
       cx="58.633007"
       cy="-64.615349"
       rx="11.414965"
       ry="10.359366"
       transform="matrix(-0.25469771,0.96702072,-0.99999521,-0.0030967,0,0)" />
    <ellipse
       style="fill:#ffcc00;fill-opacity:1;stroke:none;stroke-width:1.31711;stroke-miterlimit:4.4;stroke-dasharray:none;stroke-opacity:1"
       id="path12-1"
       cx="27.61095"
       cy="70.443352"
       rx="10.860574"
       ry="7.7475505"
       transform="matrix(0.92578021,-0.37806216,0.3418191,0.93976577,0,0)" />
  </g>
</svg>
