<?xml version="1.0" encoding="UTF-8" standalone="no"?>
<!-- Created with Inkscape (http://www.inkscape.org/) -->

<svg
   width="38.363857mm"
   height="12.038593mm"
   viewBox="0 0 38.363857 12.038593"
   version="1.1"
   id="svg1"
   inkscape:version="1.3.2 (091e20e, 2023-11-25, custom)"
   sodipodi:docname="D.svg"
   xmlns:inkscape="http://www.inkscape.org/namespaces/inkscape"
   xmlns:sodipodi="http://sodipodi.sourceforge.net/DTD/sodipodi-0.dtd"
   xmlns="http://www.w3.org/2000/svg"
   xmlns:svg="http://www.w3.org/2000/svg">
  <sodipodi:namedview
     id="namedview1"
     pagecolor="#ffffff"
     bordercolor="#000000"
     borderopacity="0.25"
     inkscape:showpageshadow="2"
     inkscape:pageopacity="0.0"
     inkscape:pagecheckerboard="0"
     inkscape:deskcolor="#d1d1d1"
     inkscape:document-units="mm"
     inkscape:zoom="0.73139029"
     inkscape:cx="386.25068"
     inkscape:cy="550.32177"
     inkscape:window-width="1920"
     inkscape:window-height="1017"
     inkscape:window-x="-8"
     inkscape:window-y="-8"
     inkscape:window-maximized="1"
     inkscape:current-layer="layer1" />
  <defs
     id="defs1" />
  <g
     inkscape:label="Layer 1"
     inkscape:groupmode="layer"
     id="layer1"
     transform="translate(-2.9107852,-2.9101095)">
    <path
       d="m 2.9107852,14.908703 c 0.04,-6.6486598 8.6519958,-12.0204268 19.2459688,-11.9985268 10.48094,0.022 18.992892,5.318667 19.117889,11.8956268 l -19.180889,0.1429 z"
       fill="#04bc2b"
       fill-rule="evenodd"
       id="path11"
       style="stroke-width:0.264583" />
    <path
       d="m 26.42673,8.9032399 q 0,1.3986901 -0.612997,2.5355841 -0.606997,1.136894 -1.618991,1.763891 -0.702997,0.434097 -1.570991,0.626994 -0.861997,0.1929 -2.273988,0.1929 H 17.758778 V 3.7631696 h 2.562985 q 1.501991,0 2.383988,0.2205 0.888994,0.2135997 1.501991,0.5925967 1.047994,0.6544967 1.632991,1.7431898 0.585997,1.0885904 0.585997,2.5837838 z m -1.425994,-0.021 q 0,-1.2056934 -0.420997,-2.0325871 Q 24.159742,6.0228564 23.325745,5.5474597 22.719751,5.202963 22.037754,5.072063 q -0.681997,-0.1378 -1.632991,-0.1378 h -1.281994 v 7.916752 h 1.281994 q 0.984994,0 1.715991,-0.1447 0.736994,-0.144697 1.349991,-0.537397 0.764997,-0.489197 1.143994,-1.288491 0.385997,-0.799297 0.385997,-1.9981871 z"
       id="text11"
       style="font-size:14.1111px;font-family:Calibri, Calibri_MSFontService, sans-serif;stroke-width:0.264583"
       aria-label="D" />
  </g>
</svg>
