<?xml version="1.0" encoding="UTF-8" standalone="no"?>
<!-- Created with Inkscape (http://www.inkscape.org/) -->

<svg
   width="38.362999mm"
   height="12.038564mm"
   viewBox="0 0 38.362999 12.038564"
   version="1.1"
   id="svg1"
   inkscape:version="1.3.2 (091e20e, 2023-11-25, custom)"
   sodipodi:docname="C.svg"
   xmlns:inkscape="http://www.inkscape.org/namespaces/inkscape"
   xmlns:sodipodi="http://sodipodi.sourceforge.net/DTD/sodipodi-0.dtd"
   xmlns="http://www.w3.org/2000/svg"
   xmlns:svg="http://www.w3.org/2000/svg">
  <sodipodi:namedview
     id="namedview1"
     pagecolor="#ffffff"
     bordercolor="#000000"
     borderopacity="0.25"
     inkscape:showpageshadow="2"
     inkscape:pageopacity="0.0"
     inkscape:pagecheckerboard="0"
     inkscape:deskcolor="#d1d1d1"
     inkscape:document-units="mm"
     inkscape:zoom="0.73139029"
     inkscape:cx="380.78165"
     inkscape:cy="550.32177"
     inkscape:window-width="1920"
     inkscape:window-height="1017"
     inkscape:window-x="-8"
     inkscape:window-y="-8"
     inkscape:window-maximized="1"
     inkscape:current-layer="layer1" />
  <defs
     id="defs1" />
  <g
     inkscape:label="Layer 1"
     inkscape:groupmode="layer"
     id="layer1"
     transform="translate(-2.117,-1.5875656)">
    <path
       d="M 2.117,13.586229 C 2.147,6.9375308 10.768,1.5656329 21.363,1.5876329 c 10.48,0.022 18.992,5.3185979 19.117,11.8955961 l -19.181,0.1429 z"
       fill="#fece02"
       fill-rule="evenodd"
       id="path9"
       style="stroke-width:0.264583" />
    <path
       d="m 24.494666,11.955929 q -0.379,0.1654 -0.689,0.3101 -0.303,0.1447 -0.8,0.3031 -0.42,0.131 -0.916,0.2205 -0.489,0.096 -1.082,0.096 -1.116,0 -2.032,-0.3101 -0.91,-0.3169 -1.585,-0.9853 -0.661,-0.6545 -1.034,-1.6604997 -0.372,-1.0128994 -0.372,-2.3495988 0,-1.2677994 0.359,-2.2667988 0.358,-0.9990994 1.033,-1.6880988 0.655,-0.6684 1.578,-1.0198 0.93,-0.3514 2.06,-0.3514 0.827,0 1.647,0.1998 0.827,0.1999 1.833,0.7028 V 4.775832 h -0.104 q -0.847,-0.7096994 -1.681,-1.0334994 -0.834,-0.3237997 -1.784,-0.3237997 -0.779,0 -1.406,0.2548997 -0.62,0.2481 -1.109,0.7785997 -0.476,0.5167997 -0.744,1.3090994 -0.262,0.7854994 -0.262,1.8189988 0,1.0817994 0.289,1.8603991 0.296,0.7785994 0.758,1.2677994 0.482,0.5099 1.123,0.7579 0.648,0.2412 1.364,0.2412 0.986,0 1.847,-0.3377 0.861,-0.3376 1.612,-1.0128 h 0.1 z"
       id="text9"
       style="font-size:14.1111px;font-family:Calibri, Calibri_MSFontService, sans-serif;stroke-width:0.264583"
       aria-label="C" />
  </g>
</svg>
