<?xml version="1.0" encoding="UTF-8" standalone="no"?>
<!-- Created with Inkscape (http://www.inkscape.org/) -->

<svg
   width="38.362999mm"
   height="12.038568mm"
   viewBox="0 0 38.363 12.038568"
   version="1.1"
   id="svg1"
   inkscape:version="1.3.2 (091e20e, 2023-11-25, custom)"
   sodipodi:docname="B.svg"
   inkscape:export-filename="B.svg"
   inkscape:export-xdpi="2.6966579"
   inkscape:export-ydpi="2.6966579"
   xmlns:inkscape="http://www.inkscape.org/namespaces/inkscape"
   xmlns:sodipodi="http://sodipodi.sourceforge.net/DTD/sodipodi-0.dtd"
   xmlns="http://www.w3.org/2000/svg"
   xmlns:svg="http://www.w3.org/2000/svg">
  <sodipodi:namedview
     id="namedview1"
     pagecolor="#ffffff"
     bordercolor="#000000"
     borderopacity="0.25"
     inkscape:showpageshadow="2"
     inkscape:pageopacity="0.0"
     inkscape:pagecheckerboard="0"
     inkscape:deskcolor="#d1d1d1"
     inkscape:document-units="mm"
     inkscape:zoom="2.9082707"
     inkscape:cx="217.13935"
     inkscape:cy="112.26603"
     inkscape:window-width="1904"
     inkscape:window-height="1041"
     inkscape:window-x="0"
     inkscape:window-y="0"
     inkscape:window-maximized="0"
     inkscape:current-layer="layer1" />
  <defs
     id="defs1" />
  <g
     inkscape:label="Ebene 1"
     inkscape:groupmode="layer"
     id="layer1"
     transform="translate(-10473.048,1749.5477)">
    <path
       d="m 10473.048,-1737.549 c 0.03,-6.6487 8.652,-12.0206 19.246,-11.9986 10.48,0.022 18.992,5.3186 19.117,11.8956 l -19.181,0.1429 z"
       fill="#fd7d13"
       fill-rule="evenodd"
       id="path8"
       style="stroke-width:0.264583" />
    <path
       d="m 10496.099,-1741.5909 q 0,0.7649 -0.29,1.3505 -0.289,0.5857 -0.778,0.9646 -0.579,0.4548 -1.275,0.6477 -0.689,0.193 -1.757,0.193 h -3.638 v -10.2595 h 3.039 q 1.123,0 1.681,0.083 0.558,0.083 1.068,0.3446 0.565,0.2962 0.82,0.7648 0.255,0.4616 0.255,1.1093 0,0.7303 -0.372,1.2471 -0.372,0.5099 -0.993,0.8199 v 0.055 q 1.041,0.2136 1.64,0.9164 0.6,0.6959 0.6,1.7638 z m -2.295,-4.6233 q 0,-0.372 -0.124,-0.627 -0.124,-0.2549 -0.399,-0.4134 -0.324,-0.186 -0.786,-0.2274 -0.461,-0.048 -1.144,-0.048 h -1.626 v 2.9628 h 1.764 q 0.641,0 1.02,-0.062 0.379,-0.069 0.703,-0.2756 0.324,-0.2067 0.455,-0.5306 0.137,-0.3307 0.137,-0.7786 z m 0.875,4.6785 q 0,-0.6201 -0.186,-0.9853 -0.186,-0.3652 -0.675,-0.6201 -0.331,-0.1723 -0.806,-0.2205 -0.469,-0.055 -1.144,-0.055 h -2.143 v 3.8172 h 1.806 q 0.895,0 1.467,-0.09 0.572,-0.096 0.937,-0.3445 0.386,-0.2687 0.565,-0.6132 0.179,-0.3445 0.179,-0.8888 z"
       id="text8"
       style="font-size:14.1111px;font-family:Calibri, Calibri_MSFontService, sans-serif;stroke-width:0.264583"
       aria-label="B" />
  </g>
</svg>
