<svg width="225" height="225" xmlns="http://www.w3.org/2000/svg" version="1.0">

 <g>
  <title>Layer 1</title>
  <g stroke-width="0" id="deeditor_bgCarrier">
   <rect strokewidth="0" fill="#ffffff" height="231" width="231" y="-3" x="-3" id="dee_c_e"/>
  </g>
  <path id="svg_1" fill="#080808" d="m0,112.5l0,112.5l225,0l0,-225l-225,0l0,112.5zm23,-106c0.9,1.1 0.8,1.9 -0.4,3.7c-0.9,1.2 -1.6,3.3 -1.6,4.6c0,2.1 -0.3,2.3 -2.6,1.8c-2.2,-0.6 -2.5,-0.4 -1.9,1.4c0.5,1.4 0.1,2.2 -1.2,2.6c-1,0.3 -3.1,1.2 -4.7,2c-4.6,2.3 -5.6,0.6 -5.6,-9.2l0,-8.4l8.4,0c6.1,0 8.7,0.4 9.6,1.5m13.4,-0.3c-0.4,0.7 -1.9,3.1 -3.4,5.3s-3.2,6.7 -3.8,9.9c-0.7,3.3 -1.3,6.1 -1.5,6.3s-3,0.8 -6.3,1.4c-3.2,0.7 -7.2,2.2 -8.9,3.4c-1.6,1.2 -4,2.7 -5.2,3.4c-2.2,1.1 -2.3,1 -2.3,-2.3c0,-3 0.6,-3.9 4.3,-6.4c2.3,-1.6 6.3,-3.2 8.9,-3.6l4.7,-0.7l0.7,-4.7c0.4,-2.6 2,-6.6 3.6,-9c2.5,-3.6 3.4,-4.2 6.4,-4.2c2.5,0 3.3,0.3 2.8,1.2m45,1.5c-0.9,1.6 -4.8,7.2 -8.6,12.6l-6.8,9.7l-2.8,15.2l-2.7,15.3l-15.2,2.7l-15.2,2.8l-11.3,7.8c-6.2,4.3 -11.9,8.2 -12.6,8.6c-0.9,0.6 -1.2,-3.7 -1.2,-20.2l0,-21l6.2,-4c4.4,-2.8 8.3,-4.3 13,-5.2l6.6,-1.2l1.2,-6.6c0.9,-4.7 2.4,-8.6 5.2,-13l4,-6.2l42,0l-1.8,2.7zm21.6,-2.3c0,0.3 -4.5,7.6 -10,16.2l-10.1,15.7l-4.1,18.7l-4,18.7l-18.8,4.1l-18.8,4.1l-15.6,10.1c-8.7,5.5 -15.9,10 -16.2,10c-0.2,0 -0.4,-3.6 -0.4,-7.9l0,-8l12.3,-8.4c6.7,-4.6 13.1,-8.7 14.2,-9.2s8.4,-2 16.3,-3.5c7.8,-1.5 14.5,-3 14.9,-3.3c0.3,-0.4 1.8,-7.1 3.3,-14.9c1.5,-7.9 3,-15.2 3.5,-16.3s4.6,-7.5 9.2,-14.3l8.4,-12.2l8,0c4.3,0 7.9,0.2 7.9,0.4m14.3,1c0.3,0.7 -0.7,2.6 -2.3,4.1c-2.3,2.2 -3.2,2.5 -4.7,1.6c-2.9,-1.5 -4.6,-3.9 -3.9,-5.6c0.7,-2 10.1,-2.1 10.9,-0.1m27.7,11.3c4.7,6.9 8.5,12.8 8.5,13.2c0,0.3 0.3,1 0.7,1.6c0.3,0.5 1.8,7.5 3.3,15.5s2.8,14.6 3,14.8s6.9,1.6 15,3.1c8,1.5 14.9,3.1 15.3,3.6c0.4,0.6 1.4,1 2.2,1.1c0.9,0.1 6.9,3.8 13.4,8.3c6.4,4.5 12.2,7.9 12.7,7.6c0.5,-0.4 0.9,3 0.9,8.1c0,7.9 -0.2,8.6 -1.8,8.2c-1.1,-0.3 -8.6,-4.9 -16.9,-10.2l-15,-9.6l-18.4,-4.1c-10.1,-2.2 -18.7,-4.3 -19,-4.7s-2.4,-8.8 -4.5,-18.7l-3.9,-18l-9.8,-15.4c-5.4,-8.5 -10,-15.8 -10.3,-16.3c-0.3,-0.4 3.2,-0.8 7.8,-0.8l8.3,0.1l8.5,12.6zm40.9,-6.9c2.8,4.1 4.3,7.8 5.3,12.8l1.4,6.9l7.1,1.5c4.9,1 8.8,2.7 12.5,5.2c3,2.1 6,3.8 6.6,3.8c0.9,0 1.2,5.6 1.2,21c0,14.6 -0.3,21 -1.1,21c-0.6,0 -6.7,-3.8 -13.5,-8.5l-12.4,-8.6l-14.7,-2.6c-8.2,-1.5 -14.9,-2.7 -15.1,-2.9c-0.2,-0.1 -1.6,-7 -3.1,-15.2l-2.8,-15l-8.7,-12.6l-8.6,-12.6l41.9,0l4,5.8zm10.3,-1.5c1.5,2.3 3,6.2 3.4,8.6c0.7,4.4 2.8,6.1 7.8,6.1c1.2,0 4.1,1.4 6.4,3.1s4.6,2.8 5.2,2.4s1,0.9 1,3.4c0,5.1 -1,5.1 -7.7,0.6c-2.9,-1.9 -5.7,-3.5 -6.2,-3.5c-0.6,0 -3.2,-0.5 -6,-1.1l-4.9,-1l-1.1,-6.1c-0.6,-3.6 -2.2,-7.8 -3.8,-10.2c-1.6,-2.2 -3.2,-4.6 -3.6,-5.3c-0.6,-1 0.2,-1.3 3,-1.3c3.4,0 4.1,0.5 6.5,4.3m23.8,4.9c0,5.7 -0.4,8.8 -0.9,7.9c-0.7,-1.1 -1.1,-1 -1.9,0.5c-0.9,1.6 -1.2,1.7 -3.4,0.2c-1.4,-0.9 -3.5,-1.8 -4.9,-2c-1.8,-0.2 -2.3,-0.8 -2.1,-2.5s-0.1,-2 -1.7,-1.6s-2.2,-0.1 -2.7,-2.3c-0.4,-1.6 -1.3,-3.9 -2.1,-5.1c-1.3,-1.9 -1.2,-2.3 0.4,-3.2c1,-0.6 5.7,-1.1 10.6,-1.1l8.7,0l0,9.2zm-113.3,-1c1.3,1.2 2.3,2.5 2.3,2.9c0,0.5 -3.5,6.1 -7.7,12.6c-8.1,12.4 -8.9,14.4 -12.4,31.5l-2.2,10.8l-3.8,0c-2.2,0 -3.9,-0.2 -3.9,-0.5s1.6,-7.6 3.5,-16.2l3.5,-15.6l8.7,-13.8c4.8,-7.7 9,-13.9 9.2,-13.9c0.3,0 1.5,1 2.8,2.2m21.8,11.5l8.8,13.8l3.3,15c1.9,8.2 3.4,15.6 3.4,16.3c0,0.9 -1.2,1.2 -3.7,1l-3.8,-0.3l-3.1,-14.5l-3.1,-14.5l-8.3,-12.8l-8.3,-12.8l2.3,-2.4c1.3,-1.4 2.7,-2.5 3.1,-2.5s4.6,6.2 9.4,13.7m-13.1,-0.2c2,3 3.6,5.8 3.6,6.2c0,0.5 -1.8,2.2 -3.9,4l-3.8,3.2l-3.6,-3.7l-3.6,-3.7l3.7,-5.7c2,-3.2 3.7,-5.8 3.8,-5.8s1.8,2.5 3.8,5.5m-8.8,13.5c2.4,2.2 4.7,4 5.2,4c0.4,0 2.6,-1.8 4.7,-4s4.2,-4 4.5,-4c1.5,0 6.9,11 7.6,15.3l0.6,4.8l-17.1,-0.1c-9.4,-0.1 -17.3,-0.5 -17.5,-0.9c-1.3,-2 5.3,-19.1 7.3,-19.1c0.2,0 2.3,1.8 4.7,4m25.2,25.8c0.7,3.5 1.1,6.7 0.7,7c-0.7,0.8 -41.1,0.9 -41.9,0.2c-0.2,-0.3 0.3,-3.5 1.1,-7.3l1.5,-6.7l18.6,0.2l18.6,0.3l1.4,6.3zm14.9,12.9c2.1,2.1 2.1,2.7 2.1,35.3c0,27.5 -0.2,33.2 -1.4,33.7c-0.8,0.3 -1.4,1.1 -1.4,1.8c0,1 -7,1.3 -33.6,1.2c-32.8,0 -33.7,0 -35.8,-2.1c-2,-2 -2,-3 -2.1,-35c0,-31.7 0.1,-33.1 2,-35.1c1.9,-1.9 3.1,-2 35,-2c32.4,0 33.1,0.1 35.2,2.2m-75.7,6.1l0,3.9l-13.2,2.8c-16.3,3.4 -16.7,3.5 -30.1,12.4c-5.9,3.9 -11.1,7.1 -11.6,7.1c-1,0 -5.6,-4.9 -5,-5.4c0.2,-0.2 6.4,-4.2 13.7,-8.9c12,-7.7 14.2,-8.8 22.5,-10.6c5.1,-1.2 11.9,-2.7 15.2,-3.5c8.6,-2.1 8.5,-2.1 8.5,2.2m98.2,-0.3l15.8,3.5l13.5,8.7c7.4,4.7 13.5,8.9 13.5,9.3c0,0.3 -1.1,1.7 -2.5,3l-2.4,2.3l-12.7,-8.2l-12.7,-8.2l-14.8,-3.1l-14.9,-3.1l0,-3.9c0,-2.1 0.3,-3.8 0.7,-3.8s7.8,1.6 16.5,3.5m-97.9,12.7c0.5,5.9 0.1,36.8 -0.6,37.4c-0.2,0.2 -3.3,-0.2 -6.8,-0.9l-6.4,-1.3l-0.3,-18.6l-0.2,-18.7l6.2,-1.4c3.5,-0.9 6.6,-1.6 7,-1.6c0.3,-0.1 0.8,2.3 1.1,5.1m89.7,-3.3l5.5,1.1l0,37.1l-2.5,0.5c-1.4,0.3 -4.1,1 -6,1.5c-6.3,1.6 -6,2.8 -6,-20.7c0,-20 0.1,-21.5 1.8,-21c0.9,0.2 4.2,1 7.2,1.5m-107.3,20.1l0.2,17.2l-4.2,-0.6c-4.3,-0.7 -10.6,-3.4 -14.2,-6.1c-1.8,-1.5 -1.8,-1.7 2.3,-5.8c2.3,-2.3 4.2,-4.7 4.2,-5.2s-1.9,-2.8 -4.2,-5.2c-2.3,-2.3 -4,-4.4 -3.7,-4.6c6.8,-4.8 14.9,-8 18.4,-7.3c0.6,0.2 1.1,7 1.2,17.6m122.3,-16.9c4.2,1 13,5.7 13,7c0,0.3 -1.8,2.7 -4,5.1l-4,4.6l4.2,4.7l4.2,4.7l-2.5,1.9c-3.6,2.8 -7.9,4.6 -12.5,5.4l-4.1,0.6l-0.6,-8.4c-0.6,-8.9 0.2,-26.7 1.2,-26.7c0.3,0 2.6,0.5 5.1,1.1m-141.3,20c-1.8,2.1 -3.5,3.9 -4,3.9c-1.1,0 -11.8,-7.2 -11.3,-7.7c0.2,-0.2 2.8,-1.9 5.7,-3.8l5.4,-3.4l3.7,3.6l3.7,3.6l-3.2,3.8zm163.8,-7.5c3,2 5.5,3.8 5.5,4s-2.5,2 -5.6,3.9l-5.7,3.6l-3.3,-3.2c-1.9,-1.8 -3.4,-3.7 -3.4,-4.3c0,-0.9 5.9,-7.6 6.7,-7.6c0.2,0 2.8,1.6 5.8,3.6m-187.8,0.6c3,2.8 2.9,3.8 -0.5,7.1c-3.5,3.4 -5.2,2.1 -5.2,-3.8c0,-6.1 1.7,-7.1 5.7,-3.3m209.3,3.7c0,3 -0.3,5.1 -0.6,4.8c-0.4,-0.3 -1.5,-0.2 -2.5,0.3c-1.4,0.8 -2.3,0.3 -4.3,-2.2l-2.5,-3.3l2.5,-2.6c1.5,-1.6 3.5,-2.6 5,-2.5c2.2,0.1 2.4,0.5 2.4,5.5m-190.6,10.5l13.1,8.3l14.3,2.8l14.2,2.9l0,3.8c0,2.1 -0.4,3.8 -0.9,3.8s-7.9,-1.5 -16.3,-3.4l-15.3,-3.3l-13,-8.3c-7.2,-4.5 -13.4,-8.6 -13.9,-9.1c-0.9,-0.8 2.8,-5.9 4.2,-5.9c0.3,0 6.4,3.8 13.6,8.4m180.5,-6c1.3,1.4 2.1,2.9 1.7,3.4c-0.3,0.5 -6.4,4.6 -13.7,9.2l-13.1,8.3l-15.1,3.3c-8.3,1.9 -15.7,3.4 -16.4,3.4c-1,0 -1.3,-1.1 -1.1,-3.7l0.3,-3.8l14.7,-3.1l14.7,-3.2l12.3,-8c6.8,-4.4 12.6,-8.1 12.9,-8.1c0.3,-0.1 1.6,1 2.8,2.3m-187.5,14.4l14.8,9.5l18.2,4c9.9,2.2 18.4,4.2 18.8,4.6c0.4,0.3 2.5,8.9 4.8,18.9l4,18.4l10,15.6c5.5,8.6 10,16.2 10,16.9c0,1 -2.2,1.3 -8.6,1.3c-5.4,0 -8.3,-0.4 -7.9,-1c0.3,-0.5 -3.1,-6.3 -7.6,-12.7c-4.5,-6.5 -8.2,-12.5 -8.3,-13.3s-0.6,-2 -1.2,-2.5c-0.6,-0.6 -2.1,-6.8 -3.3,-14c-1.3,-7.2 -2.5,-13.7 -2.7,-14.6c-0.4,-1.3 -3.8,-2.3 -14.7,-4.3c-7.8,-1.5 -14.9,-3 -15.7,-3.3s-1.8,-0.7 -2.1,-0.7c-0.3,-0.1 -6.2,-3.9 -13.2,-8.6l-12.6,-8.5l-0.1,-8.3c0,-6.4 0.3,-8.1 1.3,-7.6c0.6,0.4 7.9,5 16.1,10.2m197.6,-2.5c0,6.1 -0.3,8.4 -1.3,8.4c-0.7,0 -6.6,3.7 -13.1,8.2s-12.3,8.3 -13,8.4c-0.6,0.1 -1.3,0.5 -1.6,0.8s-7.2,1.8 -15.5,3.3c-8.2,1.5 -15.1,2.9 -15.2,2.9c0,0.1 -1.4,6.9 -2.9,15.2c-1.5,8.2 -3,15.2 -3.3,15.5s-0.7,1.1 -0.9,1.8c-0.1,0.7 -3.9,6.6 -8.4,13s-8.1,12.2 -8.1,12.9c0,1.6 -15.2,1.9 -16.2,0.3c-0.3,-0.5 4,-8.2 9.7,-17l10.2,-16l4.1,-18.7l4.1,-18.7l18.6,-4.1l18.6,-4.1l11.8,-7.5c6.5,-4.1 13.6,-8.6 15.8,-10.1c6.3,-4.1 6.6,-3.9 6.6,5.5m-174.8,31.7c8.2,1.5 15,2.9 15.2,3.1c0.1,0.2 1.5,7.1 3,15.2l2.7,14.9l8.5,12.4c4.7,6.8 8.3,12.8 7.9,13.4s-8.4,1 -21.1,1c-16.3,0 -20.4,-0.3 -20.4,-1.3c0,-0.8 -1.8,-3.9 -3.9,-6.9c-3,-4.3 -4.2,-7.2 -5,-12.5l-1.2,-6.9l-7,-1.2c-5.3,-0.9 -8.5,-2.2 -13,-5.2l-5.9,-4.1l0,-42l12.7,8.7l12.6,8.7l14.9,2.7zm174.6,1.9c0.1,14 -0.1,21 -0.8,20.6c-0.5,-0.3 -3.6,1.2 -6.8,3.4c-4.1,2.8 -7.8,4.3 -12.7,5.3l-6.9,1.3l-1.6,7.5c-1.1,5.4 -2.6,8.9 -5.4,12.7c-2,2.9 -3.5,5.7 -3.1,6.3c0.4,0.7 -6.3,1 -20.4,1c-11.9,0 -21.2,-0.4 -21.6,-0.9c-0.3,-0.5 3,-6.1 7.3,-12.3c4.4,-6.2 8.4,-12.2 8.9,-13.3c0.6,-1.1 2.1,-8 3.4,-15.4c1.2,-7.3 2.8,-13.9 3.5,-14.6s7.5,-2.3 15.1,-3.6l13.8,-2.3l11,-7.4c6,-4.1 11.7,-8.1 12.5,-8.8c0.8,-0.8 1.9,-1.3 2.5,-1.1s1.1,8.2 1.3,21.6m-86.9,-9.3c0.3,0.2 -1.1,7.3 -2.5,12.4c-0.3,1.3 -3.1,1.5 -18.6,1.3l-18.3,-0.2l-1.1,-3.8c-0.6,-2.1 -1.4,-5.2 -1.7,-7l-0.6,-3.2l10.2,-0.3c10.5,-0.3 31.9,0.2 32.6,0.8m-43.1,14.4c3,14 3.5,15.6 8,22.3c2.6,4 6.3,9.6 8.1,12.5l3.4,5.3l-2.3,2.4c-1.3,1.4 -2.6,2.5 -3,2.5c-0.5,0 -14.2,-21 -17.4,-26.7c-0.6,-1 -7.6,-31.3 -7.6,-32.8c0,-0.3 1.7,-0.5 3.8,-0.5l3.9,0l3.1,15zm54.2,-13.7c0,0.8 -1.5,8.2 -3.4,16.5c-3.4,15.1 -3.4,15.2 -11.2,27.4c-10.3,16.3 -9.8,15.8 -13,12.6l-2.6,-2.6l8.2,-12.6l8.3,-12.7l2.9,-13.7c1.6,-7.5 3.1,-14.3 3.3,-15c0.6,-1.7 7.5,-1.6 7.5,0.1m-23.2,16.4l8.3,0.6l-0.6,4.1c-0.8,4.6 -2.6,8.9 -5.5,12.6l-1.9,2.5l-4.5,-4.4l-4.4,-4.4l-5.1,4.3c-2.8,2.4 -5.3,4.1 -5.4,3.9c-3.9,-5 -7.6,-13.8 -7.7,-18.1c0,-0.6 3.6,-1 15,-1.6c1.9,-0.1 7.2,0.1 11.8,0.5m-5.3,28.8c-2,3.2 -4,5.4 -4.5,4.9c-0.4,-0.5 -2.2,-3.2 -3.8,-5.9l-3.1,-5l3.7,-3.8l3.6,-3.7l3.9,3.9l3.9,3.9l-3.7,5.7zm-104,-8.4c2.3,1.5 6.9,3.3 10.2,3.9l6.2,1.2l1,5c0.6,2.7 1.1,5.3 1.1,5.9c0,0.5 1.6,3.3 3.5,6.2c4.5,6.7 4.5,7.7 -0.6,7.7c-2.4,0 -3.8,-0.4 -3.4,-1c0.3,-0.5 -0.7,-2.9 -2.3,-5.2c-1.6,-2.4 -3.2,-6.4 -3.6,-8.9l-0.7,-4.7l-4.8,-0.6c-3,-0.4 -6.3,-1.8 -8.9,-3.7c-3.5,-2.6 -4.2,-3.6 -4.2,-6.5c0,-3.8 -0.2,-3.9 6.5,0.7m208.3,0.3c0.2,2.1 -0.1,3.5 -0.6,3.2s-2.6,0.7 -4.8,2.1c-2.1,1.5 -6.1,3.2 -8.8,3.8c-4.9,1.1 -5,1.2 -6.1,6.1c-0.6,2.7 -2.3,6.7 -3.8,8.8c-1.4,2.2 -2.4,4.3 -2.1,4.8c0.3,0.4 -1.1,0.8 -3,0.8s-3.7,-0.4 -4.1,-1c-0.3,-0.5 1,-3.3 3,-6.3c2.3,-3.4 4,-7.5 4.7,-11.4l1.1,-6.1l6.3,-1.2c4,-0.8 7.9,-2.4 11.1,-4.5c2.6,-1.9 5.3,-3.3 5.8,-3.1c0.6,0.1 1.1,2 1.3,4m-205.4,12c2.2,0.5 2.7,1.1 2.3,2.7s-0.1,1.9 1.6,1.7s2.3,0.3 2.5,2.1c0.2,1.4 1.1,3.5 2,4.9c1.5,2.2 1.4,2.5 -0.2,3.4c-1.5,0.8 -1.6,1.2 -0.5,1.9c0.9,0.5 -2.2,0.9 -7.8,0.9l-9.3,0l0,-9.3c0,-10.3 1,-12.6 4.4,-10.3c1.2,0.7 3.4,1.6 5,2m204.9,-1.6c0.3,-0.7 0.6,3.3 0.6,8.9l0.1,10.3l-9.6,0c-5.3,0 -9.3,-0.4 -9,-0.9s0,-1.4 -0.8,-2c-1.1,-1 -1.1,-1.7 0.5,-4.8c1.1,-2.1 1.9,-4.3 1.9,-5.1c0,-0.9 0.7,-1.1 2.1,-0.7c1.9,0.6 2.1,0.4 1.6,-1.4c-0.4,-1.7 0.1,-2.2 3.4,-3.1c2.1,-0.6 4.1,-1.5 4.5,-2.1c0.4,-0.7 1.2,-0.4 2.4,0.6c1.4,1.3 1.9,1.3 2.3,0.3m-104,12c1.8,1.9 2.3,3.2 1.7,4.2c-0.5,0.8 -0.6,1.8 -0.4,2.2c0.3,0.4 -1.9,0.8 -4.8,0.8c-5,0 -5.4,-0.2 -5.3,-2.4c0,-2.2 3.9,-7.6 5.5,-7.6c0.3,0 1.8,1.2 3.3,2.8"/>
  <path id="svg_2" fill="#080808" d="m102,111.7l0,10.3l20,0l0,-19.9l-10,-0.3l-10,-0.3l0,10.2z"/>
 </g>
</svg>