<svg id="piramal-logo" xmlns="http://www.w3.org/2000/svg" width="138.939" height="64.185" viewBox="0 0 138.939 64.185">
  <path id="Path_1" data-name="Path 1" d="M3.519,21.363C4.238,12.758,0,10.14,0,10.14s1.019,3.68.268,13.047c-.494,6.373,1.781,11.3,3.1,14.367.193.418.837.118.719-.343-1.212-4.549-1.17-8.723-.569-15.848" transform="translate(0 0.74)" fill="#ee4224"/>
  <path id="Path_2" data-name="Path 2" d="M23.546,62.78C29.1,57.694,37.055,42.5,37.2,31.009c-1.288.376-3.863,1.738-4.807,5.987-.526,2.468-2.082,8.23-7.682,7.736-7.79-.687-6.7-15.472,5.526-14.142,5.783.644,6.738-3.53,6.738-4.056-1.288.569-3.176.343-4.957.118-11.009-1.33-16.309,4.968-16.309,12.21,0,4.324,2.8,7.961,5.976,9.968,1.663,1.062.451,2.124-.794,1.212-3.326-2.393-7.189-5.569-7.189-12.361,0-11.331,11.5-16.223,14.228-18.273,4.013-2.994,5.934-5.461,4.957-9.861-1.588,2.918-5.483,5.461-8.4,7.017-7.876,4.206-14.034,10.311-14.034,19.26,0,7.049,3.069,10.955,6.813,13.949.837.687-.075,1.631-1.137.762-5.9-4.775-7.876-10.086-7.876-16.867C8.256,20.848,24.415,9.249,17.151,0,17.258,9.442,5.08,17.672,5.08,33.284c0,7.017,2.8,13.949,10.633,19.453,4.614,3.262,5.258,6.974,4.582,10.354-.311,1.781,1.888.9,3.251-.311" transform="translate(0.371)" fill="#ee4224"/>
  <path id="Path_3" data-name="Path 3" d="M61.248,24.73a2,2,0,1,0,1.931,1.438,1.99,1.99,0,0,0-1.931-1.438" transform="translate(4.321 1.805)" fill="#fff"/>
  <path id="Path_4" data-name="Path 4" d="M123.747,35.389c0-3.938-1.813-5.419-5.794-5.419-2.994,0-5.751,1.094-5.751,2.2a3.956,3.956,0,0,0,.912,2.006,8.112,8.112,0,0,1,4.2-1.363c2.532,0,2.575,1.18,2.575,2.618-4.12,0-8.595.869-8.595,5,0,2.811,1.663,4.474,4.539,4.474a6.921,6.921,0,0,0,4.356-1.556c.526,1.706,2.908,1.481,4.163.912a6.07,6.07,0,0,1-.6-3.369Zm-3.863,5.569h0a3.8,3.8,0,0,1-2.725,1.18c-2.5,0-2.607-2.768-1.094-3.788a7.909,7.909,0,0,1,3.82-.794Z" transform="translate(8.121 2.187)" fill="#fff"/>
  <path id="Path_5" data-name="Path 5" d="M87.666,35.389c0-3.938-1.813-5.419-5.794-5.419-2.994,0-5.751,1.094-5.751,2.2a3.956,3.956,0,0,0,.912,2.006,8.112,8.112,0,0,1,4.2-1.363c2.532,0,2.575,1.18,2.575,2.618-4.163,0-8.584.869-8.584,5,0,2.811,1.663,4.474,4.539,4.474a7.017,7.017,0,0,0,4.356-1.556c.526,1.706,2.908,1.481,4.163.912-.494-.762-.6-1.556-.6-3.369v-5.5ZM83.8,40.957h0a3.8,3.8,0,0,1-2.725,1.18c-2.5,0-2.607-2.768-1.137-3.788a8.054,8.054,0,0,1,3.863-.794Z" transform="translate(5.489 2.187)" fill="#fff"/>
  <path id="Path_6" data-name="Path 6" d="M49.8,24.7H44.47V44.947a10.42,10.42,0,0,0,1.556.107c1.663-.043,2.457-.719,2.457-2.232V37.7H50c4.614,0,8.026-2.049,8.026-6.942C58.011,26.106,54.084,24.7,49.8,24.7m-1.32,10.118h0V27.694c2.843-.268,5.376.268,5.376,3.294-.011,3.8-2.618,3.831-5.376,3.831" transform="translate(3.245 1.802)" fill="#fff"/>
  <path id="Path_7" data-name="Path 7" d="M63.253,42.419c0,1.513-.837,2.2-2.457,2.232a11.682,11.682,0,0,1-1.556-.107V32.483c0-1.513.794-2.2,2.457-2.243a7.436,7.436,0,0,1,1.556.118Z" transform="translate(4.323 2.206)" fill="#fff"/>
  <path id="Path_8" data-name="Path 8" d="M106.634,36.945a8.543,8.543,0,0,0-.193-2.725c-.644-1.706-4.238-1.18-4.238.569V42.45c0,1.513-.837,2.2-2.5,2.232a12.781,12.781,0,0,1-1.556-.107V36.956a8.543,8.543,0,0,0-.193-2.725c-.612-1.706-4.238-1.18-4.238.569V42.46c0,1.513-.837,2.2-2.457,2.232a12.589,12.589,0,0,1-1.588-.107V30.379c1.663-.225,3.476-.193,3.82,1.406,1.631-2.275,7.114-2.811,8.133.644A5.172,5.172,0,0,1,106.805,30c3.487.3,3.82,3.144,3.82,6.6v5.837c0,1.513-.794,2.2-2.457,2.232a11.682,11.682,0,0,1-1.556-.107V36.945Z" transform="translate(6.543 2.186)" fill="#fff"/>
  <path id="Path_9" data-name="Path 9" d="M65.87,44.563a10.734,10.734,0,0,0,1.556.118c1.663-.043,2.5-.719,2.5-2.243V35.271c0-1.556,2.307-2.65,4.356-.944a6.959,6.959,0,0,0,.944-2.886c0-1.663-3.444-2.393-5.483.343-.376-1.556-2.275-1.674-3.863-1.406V44.563Z" transform="translate(4.807 2.186)" fill="#fff"/>
  <path id="Path_10" data-name="Path 10" d="M129.763,24.85a6.852,6.852,0,0,0-1.363-.15c-1.781,0-2.65.687-2.65,2.232v18a10.125,10.125,0,0,0,1.556.107c1.631-.032,2.457-.719,2.457-2.232V24.85Z" transform="translate(9.176 1.802)" fill="#fff"/>
  <path id="Path_15" data-name="Path 15" d="M80.264,60.373a2.146,2.146,0,0,1-.794-.451,1.673,1.673,0,0,1-.526-.837,3.946,3.946,0,0,1-.15-1.255V53.056H77.732a.609.609,0,0,1-.418-.193.5.5,0,0,1-.193-.418.667.667,0,0,1,.612-.612h1.062V49.9a.732.732,0,0,1,.225-.526.851.851,0,0,1,.569-.225.732.732,0,0,1,.526.225.751.751,0,0,1,.225.526v1.931h2.5a.5.5,0,0,1,.418.193.536.536,0,0,1,.193.418.677.677,0,0,1-.193.418.563.563,0,0,1-.418.15h-2.5v4.775a2.459,2.459,0,0,0,.043.612,1.665,1.665,0,0,0,.193.418,1.135,1.135,0,0,0,.912.343,5.744,5.744,0,0,0,1.438-.268.817.817,0,0,1,.376-.075.488.488,0,0,1,.418.15.609.609,0,0,1,.193.418c0,.3-.193.526-.6.762a3.243,3.243,0,0,1-.912.268,4.147,4.147,0,0,1-.987.118,3.218,3.218,0,0,1-1.094-.15h-.054Z" transform="translate(26.085 3.651)" fill="#fff"/>
  <path id="Path_20" data-name="Path 20" d="M131.009,59.853a4.209,4.209,0,0,1-1.481-1.556,5.007,5.007,0,0,1,0-4.635,3.905,3.905,0,0,1,1.481-1.556,4.021,4.021,0,0,1,2.114-.526h.043a3.961,3.961,0,0,1,3.594,2.082,4.445,4.445,0,0,1,.569,2.275,4.567,4.567,0,0,1-.569,2.307,4,4,0,0,1-3.594,2.092h-.043a3.905,3.905,0,0,1-2.114-.536Zm2.114-.912h0a2.5,2.5,0,0,0,1.931-.762,3.917,3.917,0,0,0,0-4.4,2.377,2.377,0,0,0-1.888-.794h-.075a2.377,2.377,0,0,0-1.888.794,3.214,3.214,0,0,0-.687,2.2,3.161,3.161,0,0,0,.687,2.2,2.45,2.45,0,0,0,1.921.762h0Z" transform="translate(-14.368 3.85)" fill="#fff"/>
  <path id="Path_33" data-name="Path 33" d="M131.009,59.853a4.209,4.209,0,0,1-1.481-1.556,5.007,5.007,0,0,1,0-4.635,3.905,3.905,0,0,1,1.481-1.556,4.021,4.021,0,0,1,2.114-.526h.043a3.961,3.961,0,0,1,3.594,2.082,4.445,4.445,0,0,1,.569,2.275,4.567,4.567,0,0,1-.569,2.307,4,4,0,0,1-3.594,2.092h-.043a3.905,3.905,0,0,1-2.114-.536Zm2.114-.912h0a2.5,2.5,0,0,0,1.931-.762,3.917,3.917,0,0,0,0-4.4,2.377,2.377,0,0,0-1.888-.794h-.075a2.377,2.377,0,0,0-1.888.794,3.214,3.214,0,0,0-.687,2.2,3.161,3.161,0,0,0,.687,2.2,2.45,2.45,0,0,0,1.921.762h0Z" transform="translate(-72.293 3.528)" fill="#fff"/>
  <path id="Path_21" data-name="Path 21" d="M140.448,60.19a4.213,4.213,0,0,1-1.062-.687,2.34,2.34,0,0,1-.6-.987,3.781,3.781,0,0,1-.225-1.406V52.454a.851.851,0,0,1,.225-.569.751.751,0,0,1,.526-.225.771.771,0,0,1,.794.794v4.592a5,5,0,0,0,.075.912,1.538,1.538,0,0,0,.343.526,2.229,2.229,0,0,0,1.588.451,6.719,6.719,0,0,0,1.17-.15,3.439,3.439,0,0,0,.987-.343.456.456,0,0,0,.15-.118V52.411a.732.732,0,0,1,.225-.526.851.851,0,0,1,.569-.225.732.732,0,0,1,.526.225.751.751,0,0,1,.225.526V59.5a.777.777,0,0,1-.225.569.751.751,0,0,1-.526.225.773.773,0,0,1-.751-.719l-.376.15a5.057,5.057,0,0,1-2.189.644A3.984,3.984,0,0,1,140.5,60.1Z" transform="translate(-72.176 3.813)" fill="#fff"/>
  <path id="Path_24" data-name="Path 24" d="M159.485,60.078a.641.641,0,0,1-.225-.569V52.417a.625.625,0,0,1,.225-.526.682.682,0,0,1,.526-.225.707.707,0,0,1,.494.193,1.073,1.073,0,0,1,.268.526l.376-.193a4.976,4.976,0,0,1,2.232-.612,3.714,3.714,0,0,1,1.438.225,2.873,2.873,0,0,1,1.094.644,2.1,2.1,0,0,1,.6.987,3.781,3.781,0,0,1,.225,1.406v4.667a.682.682,0,0,1-.225.526.751.751,0,0,1-.526.225.851.851,0,0,1-.569-.225.682.682,0,0,1-.225-.526V54.928a6.2,6.2,0,0,0-.075-.912,2.3,2.3,0,0,0-.343-.569A2.446,2.446,0,0,0,163.144,53a5.905,5.905,0,0,0-1.137.15,4.891,4.891,0,0,0-1.019.3c-.075.043-.118.075-.118.118V59.52a.732.732,0,0,1-.225.526.851.851,0,0,1-.569.225.732.732,0,0,1-.526-.225Z" transform="translate(-34.95 3.914)" fill="#fff"/>
  <path id="Path_26" data-name="Path 26" d="M182.615,60.246a.777.777,0,0,1-.225-.569V49.667a.968.968,0,0,1,.193-.612.8.8,0,0,1,.6-.225h5.976a.661.661,0,0,1,.687.687.589.589,0,0,1-.193.451.707.707,0,0,1-.494.193h-5.182v3.605h4.431a.653.653,0,0,1,.494.193.624.624,0,0,1,.193.451.707.707,0,0,1-.193.494.653.653,0,0,1-.494.193h-4.431v4.549a.777.777,0,0,1-.225.569.676.676,0,0,1-.569.268.779.779,0,0,1-.6-.268Z" transform="translate(-134.529 3.381)" fill="#fff"/>
  <path id="Path_27" data-name="Path 27" d="M190.908,50.214a1.013,1.013,0,0,1,0-1.373.943.943,0,0,1,.687-.3.874.874,0,0,1,.676.268,1.013,1.013,0,0,1,0,1.373.938.938,0,0,1-.676.3.987.987,0,0,1-.687-.3Zm-.075,9.517h0V52.639a.851.851,0,0,1,.225-.569.751.751,0,0,1,.526-.225.77.77,0,0,1,.751.794v7.092a.59.59,0,0,1-.225.526.682.682,0,0,1-.526.225.732.732,0,0,1-.526-.225.666.666,0,0,1-.225-.526" transform="translate(-79.295 3.703)" fill="#fff"/>
  <path id="Path_28" data-name="Path 28" d="M194.855,60.078a.777.777,0,0,1-.225-.569V52.417a.732.732,0,0,1,.225-.526.682.682,0,0,1,.526-.225.707.707,0,0,1,.494.193,1.074,1.074,0,0,1,.268.526l.376-.193a4.976,4.976,0,0,1,2.232-.612,3.714,3.714,0,0,1,1.438.225,2.874,2.874,0,0,1,1.094.644,2.1,2.1,0,0,1,.6.987,3.781,3.781,0,0,1,.225,1.406v4.667a.682.682,0,0,1-.225.526.751.751,0,0,1-.526.225.851.851,0,0,1-.569-.225.682.682,0,0,1-.225-.526V54.928a3.174,3.174,0,0,0-.075-.912,2.3,2.3,0,0,0-.343-.569A2.446,2.446,0,0,0,198.514,53a6.017,6.017,0,0,0-1.137.15,4.891,4.891,0,0,0-1.019.3c-.075.043-.075.075-.118.118V59.52a.732.732,0,0,1-.225.526.851.851,0,0,1-.569.225.732.732,0,0,1-.526-.225Z" transform="translate(-119.494 3.592)" fill="#fff"/>
  <path id="Path_29" data-name="Path 29" d="M205.293,59.78a3.158,3.158,0,0,1-1.32-1.556,5.3,5.3,0,0,1,.075-4.625,3.7,3.7,0,0,1,1.438-1.513,3.735,3.735,0,0,1,1.856-.536,4.73,4.73,0,0,1,1.094.15,5.454,5.454,0,0,1,1.137.494l.451.225a.851.851,0,0,1,.225-.569.751.751,0,0,1,.526-.225.771.771,0,0,1,.794.794v7.092a.682.682,0,0,1-.225.526.851.851,0,0,1-.569.225.732.732,0,0,1-.526-.225.682.682,0,0,1-.225-.526v-.043l-.494.268a4.781,4.781,0,0,1-1.17.451,3.4,3.4,0,0,1-1.094.193,3.46,3.46,0,0,1-1.964-.569V59.78Zm3.444-.987h0a6.325,6.325,0,0,0,1.094-.418c.075-.075.15-.118.15-.193a.274.274,0,0,0,.043-.193v-4.1c0-.118,0-.193-.043-.225a.71.71,0,0,0-.193-.15,5.62,5.62,0,0,0-1.094-.418,4.006,4.006,0,0,0-1.094-.15,2.376,2.376,0,0,0-1.888.719,3.589,3.589,0,0,0-.644,2.275c0,1.974.794,2.961,2.457,2.961a4.788,4.788,0,0,0,1.17-.15Z" transform="translate(-109.714 3.483)" fill="#fff"/>
  <path id="Path_4265" data-name="Path 4265" d="M136.2,52.71h-.545a3.058,3.058,0,0,1-1.421-.253,1.093,1.093,0,0,0-.425-.1.706.706,0,0,1-.507-.189c-.26-.186-.415-.493-.716-.635.039-.212-.171-.29-.246-.442a7.274,7.274,0,0,1-.524-1.2,2.163,2.163,0,0,1-.127-.529c-.006-.148-.048-.294-.068-.441a3.046,3.046,0,0,0-.057-.409.731.731,0,0,1,.04-.553c.047-.083.009-.211.017-.318a3.221,3.221,0,0,1,.084-.765,7.306,7.306,0,0,1,.279-.79,10.392,10.392,0,0,1,.583-1.028.441.441,0,0,1,.1-.1c.179-.15.352-.3.537-.448.107-.083.239-.135.343-.222a5.942,5.942,0,0,1,.711-.4,5.364,5.364,0,0,1,.766-.251.494.494,0,0,1,.179,0c.255,0,.51.013.763,0a3.618,3.618,0,0,1,1.316.244,9.083,9.083,0,0,1,1.035.485c.01.051-.034.131.055.142.121.017.084-.079.09-.142v-3.7a1.735,1.735,0,0,1,.074-.512.537.537,0,0,1,.381-.337.655.655,0,0,1,.544.043c.239.146.421.269.442.4a3.752,3.752,0,0,1,.079.655c.006,2.043,0,4.087,0,6.129v4.787c0,.213.018.432-.172.58a.846.846,0,0,1-.627.233H139.1c-.269-.041-.537-.079-.587-.435-.02-.141-.1-.163-.22-.1a4.954,4.954,0,0,1-.985.33l-1.041.28-.024-.061c-.016.021-.033.04-.048.061m2.256-4.463c0-.677-.023-1.355.01-2.028a.545.545,0,0,0-.406-.627,1.055,1.055,0,0,1-.115-.071,5.974,5.974,0,0,0-1.124-.44,2.7,2.7,0,0,0-.958-.142c-.158.01-.314,0-.472,0a.8.8,0,0,0-.179.01A2.623,2.623,0,0,0,133.732,46a4.645,4.645,0,0,0-.412,1.06,2.239,2.239,0,0,0-.1.646,5.5,5.5,0,0,0,.066,1.456c.071.249.03.529.211.746a2.149,2.149,0,0,0,1.963,1.5,3.128,3.128,0,0,1,.545,0,2.563,2.563,0,0,0,.979-.179,11.164,11.164,0,0,0,1.3-.537.24.24,0,0,0,.169-.261V48.258" transform="translate(-47.561 11.147)" fill="#fff"/>
</svg>
