<?xml version="1.0" encoding="UTF-8" standalone="no"?>
<!-- Created with Inkscape (http://www.inkscape.org/) -->

<svg
   width="130.31573mm"
   height="50.053318mm"
   viewBox="0 0 130.31573 50.053318"
   version="1.1"
   id="svg1"
   inkscape:version="1.4.2 (ebf0e940d0, 2025-05-08)"
   sodipodi:docname="2026-AU-04_RollerArray_Answer.svg"
   xmlns:inkscape="http://www.inkscape.org/namespaces/inkscape"
   xmlns:sodipodi="http://sodipodi.sourceforge.net/DTD/sodipodi-0.dtd"
   xmlns="http://www.w3.org/2000/svg"
   xmlns:svg="http://www.w3.org/2000/svg">
  <sodipodi:namedview
     id="namedview1"
     pagecolor="#ffffff"
     bordercolor="#000000"
     borderopacity="0.25"
     inkscape:showpageshadow="2"
     inkscape:pageopacity="0.0"
     inkscape:pagecheckerboard="0"
     inkscape:deskcolor="#d1d1d1"
     inkscape:document-units="mm"
     inkscape:zoom="2.0751925"
     inkscape:cx="251.78387"
     inkscape:cy="29.876746"
     inkscape:window-width="1454"
     inkscape:window-height="891"
     inkscape:window-x="0"
     inkscape:window-y="0"
     inkscape:window-maximized="1"
     inkscape:current-layer="layer1" />
  <defs
     id="defs1">
    <clipPath
       clipPathUnits="userSpaceOnUse"
       id="clipPath206">
      <path
         d="m 1251.384,321.25148 c 0,-4.07811 -3.3059,-7.38397 -7.384,-7.38397 -4.0781,0 -7.384,3.30586 -7.384,7.38397 0,4.07811 3.3059,7.38399 7.384,7.38399 4.0781,0 7.384,-3.30588 7.384,-7.38399 z"
         id="path206" />
    </clipPath>
    <radialGradient
       fx="40.000519"
       fy="60.000759"
       cx="50.000641"
       cy="50.000641"
       r="50.000641"
       gradientUnits="userSpaceOnUse"
       id="radialGradient205">
      <stop
         style="stop-opacity:1;stop-color:#d9d9ff"
         offset="0"
         id="stop201" />
      <stop
         style="stop-opacity:1;stop-color:#4040ff"
         offset="0.1799995"
         id="stop202" />
      <stop
         style="stop-opacity:1;stop-color:#0000b3"
         offset="0.35999959"
         id="stop203" />
      <stop
         style="stop-opacity:1;stop-color:#000080"
         offset="0.5"
         id="stop204" />
      <stop
         style="stop-opacity:1;stop-color:#000000"
         offset="1"
         id="stop205" />
    </radialGradient>
  </defs>
  <g
     inkscape:label="Layer 1"
     inkscape:groupmode="layer"
     id="layer1"
     transform="translate(-39.952077,-123.56042)">
    <g
       id="g205"
       clip-path="url(#clipPath206)"
       transform="matrix(0.25135416,0,0,0.25135416,-207.57464,44.783768)"
       style="stroke-width:1.05263">
      <path
         d="M 0,0 H 100 V 100 H 0 Z"
         transform="matrix(0.29538667,0,0,-0.29538667,1229.2307,336.02081)"
         style="fill:url(#radialGradient205);stroke:none;stroke-width:1.05263"
         id="path205" />
    </g>
    <path
       id="path207"
       d="m 106.96506,125.53167 c 0,-1.02456 -0.83056,-1.85512 -1.85512,-1.85512 -1.02456,0 -1.85512,0.83056 -1.85512,1.85512 0,1.02456 0.83056,1.85512 1.85512,1.85512 1.02456,0 1.85512,-0.83056 1.85512,-1.85512 z"
       style="fill:none;stroke:#000080;stroke-width:0.0351437;stroke-linecap:butt;stroke-linejoin:miter;stroke-miterlimit:10;stroke-dasharray:none;stroke-opacity:1" />
    <path
       id="path208"
       d="m 108.15652,132.36643 0.82895,0.47837 c -0.0598,0.48692 -0.0598,0.97981 0,1.46673 l -0.82895,0.47839 c -0.39197,-0.29519 -0.81903,-0.54164 -1.2708,-0.73327 v -0.95677 c 0.45177,-0.19163 0.87883,-0.43808 1.2708,-0.73327 z"
       style="fill:#bfbfbf;fill-opacity:1;fill-rule:nonzero;stroke:#808080;stroke-width:0.0351437;stroke-linecap:butt;stroke-linejoin:round;stroke-miterlimit:10;stroke-dasharray:none;stroke-opacity:1" />
    <path
       id="path209"
       d="m 102.06337,132.36643 -0.82895,0.47837 c 0.0598,0.48692 0.0598,0.97981 0,1.46673 l 0.82895,0.47839 c 0.39197,-0.29519 0.81903,-0.54164 1.2708,-0.73327 v -0.95677 c -0.45177,-0.19163 -0.87883,-0.43808 -1.2708,-0.73327 z"
       style="fill:#bfbfbf;fill-opacity:1;fill-rule:nonzero;stroke:#808080;stroke-width:0.0351437;stroke-linecap:butt;stroke-linejoin:round;stroke-miterlimit:10;stroke-dasharray:none;stroke-opacity:1" />
    <path
       id="path210"
       d="m 106.96559,124.21645 c 2.41437,1.02482 3.5408,3.81288 2.51598,6.22722 -1.02484,2.41435 -3.81291,3.54077 -6.22728,2.51596 -2.41437,-1.02482 -3.540797,-3.81288 -2.51598,-6.22722 0.48082,-1.13279 1.38318,-2.03515 2.51598,-2.51596 v 1.47809 c 0,1.02485 0.8308,1.85564 1.85565,1.85564 1.02485,0 1.85565,-0.83079 1.85565,-1.85564 z"
       style="fill:#f2e6d9;fill-opacity:1;fill-rule:nonzero;stroke:#996633;stroke-width:0.0351437;stroke-linecap:butt;stroke-linejoin:round;stroke-miterlimit:10;stroke-dasharray:none;stroke-opacity:1" />
    <path
       id="path211"
       d="m 105.60997,128.57804 c 0,-0.27616 -0.22387,-0.50003 -0.50003,-0.50003 -0.27616,0 -0.50003,0.22387 -0.50003,0.50003 0,0.27616 0.22387,0.50003 0.50003,0.50003 0.27616,0 0.50003,-0.22387 0.50003,-0.50003 z"
       style="fill:#000000;fill-opacity:1;fill-rule:nonzero;stroke:none;stroke-width:0.352778" />
    <path
       id="path212"
       d="m 99.496141,137.36649 0.828949,0.47837 c -0.0598,0.48692 -0.0598,0.97981 0,1.46673 l -0.828949,0.47839 c -0.391967,-0.29519 -0.819042,-0.54165 -1.270812,-0.73327 v -0.95677 c 0.45177,-0.19163 0.878845,-0.43808 1.270812,-0.73327 z"
       style="fill:#bfbfbf;fill-opacity:1;fill-rule:nonzero;stroke:#808080;stroke-width:0.0351437;stroke-linecap:butt;stroke-linejoin:round;stroke-miterlimit:10;stroke-dasharray:none;stroke-opacity:1" />
    <path
       id="path213"
       d="m 93.402985,137.36649 -0.828952,0.47837 c 0.05979,0.48692 0.05979,0.97981 0,1.46673 l 0.828952,0.47839 c 0.391964,-0.29519 0.819038,-0.54165 1.270807,-0.73327 v -0.95677 c -0.451769,-0.19163 -0.878843,-0.43808 -1.270807,-0.73327 z"
       style="fill:#bfbfbf;fill-opacity:1;fill-rule:nonzero;stroke:#808080;stroke-width:0.0351437;stroke-linecap:butt;stroke-linejoin:round;stroke-miterlimit:10;stroke-dasharray:none;stroke-opacity:1" />
    <path
       id="path214"
       d="m 98.305217,129.2165 c 2.414363,1.02482 3.540793,3.81288 2.515973,6.22723 -1.024823,2.41435 -3.812912,3.54077 -6.227283,2.51596 -2.414368,-1.02482 -3.540794,-3.81288 -2.51597,-6.22723 0.480812,-1.13279 1.383174,-2.03515 2.51597,-2.51596 v 1.4781 c 0,1.02485 0.830796,1.85564 1.855656,1.85564 1.02486,0 1.855654,-0.83079 1.855654,-1.85564 z"
       style="fill:#f2e6d9;fill-opacity:1;fill-rule:nonzero;stroke:#996633;stroke-width:0.0351437;stroke-linecap:butt;stroke-linejoin:round;stroke-miterlimit:10;stroke-dasharray:none;stroke-opacity:1" />
    <path
       id="path215"
       d="m 96.949598,133.5781 c 0,-0.27617 -0.223873,-0.50004 -0.500035,-0.50004 -0.276161,0 -0.500034,0.22387 -0.500034,0.50004 0,0.27616 0.223873,0.50003 0.500034,0.50003 0.276162,0 0.500035,-0.22387 0.500035,-0.50003 z"
       style="fill:#000000;fill-opacity:1;fill-rule:nonzero;stroke:none;stroke-width:0.352778" />
    <path
       id="path216"
       d="m 116.8169,137.36649 0.82895,0.47837 c -0.0598,0.48692 -0.0598,0.97981 0,1.46673 l -0.82895,0.47839 c -0.39196,-0.29519 -0.81904,-0.54165 -1.2708,-0.73327 v -0.95677 c 0.45176,-0.19163 0.87884,-0.43808 1.2708,-0.73327 z"
       style="fill:#bfbfbf;fill-opacity:1;fill-rule:nonzero;stroke:#808080;stroke-width:0.0351437;stroke-linecap:butt;stroke-linejoin:round;stroke-miterlimit:10;stroke-dasharray:none;stroke-opacity:1" />
    <path
       id="path217"
       d="m 110.72373,137.36649 -0.82895,0.47837 c 0.0598,0.48692 0.0598,0.97981 0,1.46673 l 0.82895,0.47839 c 0.39197,-0.29519 0.81904,-0.54165 1.27081,-0.73327 v -0.95677 c -0.45177,-0.19163 -0.87884,-0.43808 -1.27081,-0.73327 z"
       style="fill:#bfbfbf;fill-opacity:1;fill-rule:nonzero;stroke:#808080;stroke-width:0.0351437;stroke-linecap:butt;stroke-linejoin:round;stroke-miterlimit:10;stroke-dasharray:none;stroke-opacity:1" />
    <path
       id="path218"
       d="m 111.91467,137.93969 c -2.41437,-1.02482 -3.5408,-3.81288 -2.51598,-6.22723 1.02483,-2.41436 3.81291,-3.54076 6.22728,-2.51595 2.41437,1.02481 3.5408,3.81287 2.51598,6.22722 -0.48081,1.13279 -1.38318,2.03515 -2.51598,2.51596 v -1.4781 c 0,-1.02485 -0.83079,-1.85563 -1.85565,-1.85563 -1.02486,0 -1.85565,0.83078 -1.85565,1.85563 z"
       style="fill:#f2e6d9;fill-opacity:1;fill-rule:nonzero;stroke:#996633;stroke-width:0.0351437;stroke-linecap:butt;stroke-linejoin:round;stroke-miterlimit:10;stroke-dasharray:none;stroke-opacity:1" />
    <path
       id="path219"
       d="m 114.27035,133.5781 c 0,-0.27617 -0.22387,-0.50004 -0.50003,-0.50004 -0.27616,0 -0.50004,0.22387 -0.50004,0.50004 0,0.27616 0.22388,0.50003 0.50004,0.50003 0.27616,0 0.50003,-0.22387 0.50003,-0.50003 z"
       style="fill:#000000;fill-opacity:1;fill-rule:nonzero;stroke:none;stroke-width:0.352778" />
    <path
       id="path220"
       d="m 90.835763,142.36656 0.828948,0.47837 c -0.05979,0.48692 -0.05979,0.9798 0,1.46673 l -0.828948,0.47839 c -0.391969,-0.2952 -0.819042,-0.54165 -1.270812,-0.73329 V 143.1 c 0.45177,-0.19163 0.878843,-0.43808 1.270812,-0.73327 z"
       style="fill:#bfbfbf;fill-opacity:1;fill-rule:nonzero;stroke:#808080;stroke-width:0.0351437;stroke-linecap:butt;stroke-linejoin:round;stroke-miterlimit:10;stroke-dasharray:none;stroke-opacity:1" />
    <path
       id="path221"
       d="m 84.742587,142.36656 -0.828952,0.47837 c 0.0598,0.48692 0.0598,0.9798 0,1.46673 l 0.828952,0.47839 c 0.391968,-0.2952 0.819042,-0.54165 1.270816,-0.73329 V 143.1 c -0.451774,-0.19163 -0.878848,-0.43808 -1.270816,-0.73327 z"
       style="fill:#bfbfbf;fill-opacity:1;fill-rule:nonzero;stroke:#808080;stroke-width:0.0351437;stroke-linecap:butt;stroke-linejoin:round;stroke-miterlimit:10;stroke-dasharray:none;stroke-opacity:1" />
    <path
       id="path222"
       d="m 92.502951,137.99941 c 0.31966,2.60331 -1.531687,4.97288 -4.135006,5.29254 -2.603317,0.31966 -4.972877,-1.53169 -5.292534,-4.13501 -0.319659,-2.60332 1.531684,-4.97288 4.135,-5.29254 1.22144,-0.15 2.454097,0.1803 3.436887,0.92093 l -1.280077,0.73903 c -0.887559,0.51244 -1.191651,1.64732 -0.679224,2.53488 0.512433,0.88756 1.647315,1.19165 2.534877,0.67923 z"
       style="fill:#f2e6d9;fill-opacity:1;fill-rule:nonzero;stroke:#996633;stroke-width:0.0351437;stroke-linecap:butt;stroke-linejoin:round;stroke-miterlimit:10;stroke-dasharray:none;stroke-opacity:1" />
    <path
       id="path223"
       d="m 88.289207,138.57816 c 0,-0.27616 -0.223866,-0.50003 -0.500034,-0.50003 -0.276162,0 -0.500034,0.22387 -0.500034,0.50003 0,0.27616 0.223872,0.50003 0.500034,0.50003 0.276168,0 0.500034,-0.22387 0.500034,-0.50003 z"
       style="fill:#000000;fill-opacity:1;fill-rule:nonzero;stroke:none;stroke-width:0.352778" />
    <path
       id="path224"
       d="m 108.15652,142.36656 0.82895,0.47837 c -0.0598,0.48692 -0.0598,0.9798 0,1.46673 l -0.82895,0.47839 c -0.39197,-0.2952 -0.81903,-0.54165 -1.2708,-0.73329 V 143.1 c 0.45177,-0.19163 0.87883,-0.43808 1.2708,-0.73327 z"
       style="fill:#bfbfbf;fill-opacity:1;fill-rule:nonzero;stroke:#808080;stroke-width:0.0351437;stroke-linecap:butt;stroke-linejoin:round;stroke-miterlimit:10;stroke-dasharray:none;stroke-opacity:1" />
    <path
       id="path225"
       d="m 102.06337,142.36656 -0.82895,0.47837 c 0.0598,0.48692 0.0598,0.9798 0,1.46673 l 0.82895,0.47839 c 0.39197,-0.2952 0.81903,-0.54165 1.2708,-0.73329 V 143.1 c -0.45177,-0.19163 -0.87883,-0.43808 -1.2708,-0.73327 z"
       style="fill:#bfbfbf;fill-opacity:1;fill-rule:nonzero;stroke:#808080;stroke-width:0.0351437;stroke-linecap:butt;stroke-linejoin:round;stroke-miterlimit:10;stroke-dasharray:none;stroke-opacity:1" />
    <path
       id="path226"
       d="m 107.96805,142.37103 c -2.09469,1.5785 -5.07246,1.15998 -6.65096,-0.93474 -1.578509,-2.09471 -1.15997,-5.07247 0.93474,-6.65097 2.0947,-1.57851 5.07246,-1.15998 6.65095,0.93473 0.74064,0.98279 1.07093,2.21545 0.92093,3.43689 l -1.28008,-0.73906 c -0.88757,-0.51243 -2.02245,-0.20835 -2.53488,0.67922 -0.51243,0.88756 -0.20833,2.02244 0.67922,2.53487 z"
       style="fill:#f2e6d9;fill-opacity:1;fill-rule:nonzero;stroke:#996633;stroke-width:0.0351437;stroke-linecap:butt;stroke-linejoin:round;stroke-miterlimit:10;stroke-dasharray:none;stroke-opacity:1" />
    <path
       id="path227"
       d="m 105.60997,138.57816 c 0,-0.27616 -0.22387,-0.50003 -0.50003,-0.50003 -0.27616,0 -0.50003,0.22387 -0.50003,0.50003 0,0.27616 0.22387,0.50003 0.50003,0.50003 0.27616,0 0.50003,-0.22387 0.50003,-0.50003 z"
       style="fill:#000000;fill-opacity:1;fill-rule:nonzero;stroke:none;stroke-width:0.352778" />
    <path
       id="path228"
       d="m 125.47728,142.36656 0.82895,0.47837 c -0.0598,0.48692 -0.0598,0.9798 0,1.46673 l -0.82895,0.47839 c -0.39196,-0.2952 -0.81904,-0.54165 -1.27081,-0.73329 V 143.1 c 0.45177,-0.19163 0.87885,-0.43808 1.27081,-0.73327 z"
       style="fill:#bfbfbf;fill-opacity:1;fill-rule:nonzero;stroke:#808080;stroke-width:0.0351437;stroke-linecap:butt;stroke-linejoin:round;stroke-miterlimit:10;stroke-dasharray:none;stroke-opacity:1" />
    <path
       id="path229"
       d="m 119.38413,142.36656 -0.82895,0.47837 c 0.0598,0.48692 0.0598,0.9798 0,1.46673 l 0.82895,0.47839 c 0.39197,-0.2952 0.81904,-0.54165 1.2708,-0.73329 V 143.1 c -0.45176,-0.19163 -0.87883,-0.43808 -1.2708,-0.73327 z"
       style="fill:#bfbfbf;fill-opacity:1;fill-rule:nonzero;stroke:#808080;stroke-width:0.0351437;stroke-linecap:butt;stroke-linejoin:round;stroke-miterlimit:10;stroke-dasharray:none;stroke-opacity:1" />
    <path
       id="path230"
       d="m 124.28635,134.21657 c 2.41438,1.02482 3.5408,3.81287 2.51598,6.22723 -1.02482,2.41435 -3.8129,3.54077 -6.22728,2.51596 -2.41436,-1.02482 -3.5408,-3.81288 -2.51598,-6.22724 0.48082,-1.13278 1.38318,-2.03514 2.51598,-2.51595 v 1.47809 c 0,1.02485 0.8308,1.85564 1.85566,1.85564 1.02485,0 1.85564,-0.83079 1.85564,-1.85564 z"
       style="fill:#f2e6d9;fill-opacity:1;fill-rule:nonzero;stroke:#996633;stroke-width:0.0351437;stroke-linecap:butt;stroke-linejoin:round;stroke-miterlimit:10;stroke-dasharray:none;stroke-opacity:1" />
    <path
       id="path231"
       d="m 122.93074,138.57816 c 0,-0.27616 -0.22387,-0.50003 -0.50003,-0.50003 -0.27617,0 -0.50004,0.22387 -0.50004,0.50003 0,0.27616 0.22387,0.50003 0.50004,0.50003 0.27616,0 0.50003,-0.22387 0.50003,-0.50003 z"
       style="fill:#000000;fill-opacity:1;fill-rule:nonzero;stroke:none;stroke-width:0.352778" />
    <path
       id="path232"
       d="m 82.175369,147.36662 0.828952,0.47837 c -0.0598,0.48692 -0.0598,0.9798 0,1.46672 l -0.828952,0.4784 c -0.391963,-0.29519 -0.819038,-0.54165 -1.270816,-0.73327 v -0.95678 c 0.451778,-0.19163 0.878853,-0.43808 1.270816,-0.73327 z"
       style="fill:#bfbfbf;fill-opacity:1;fill-rule:nonzero;stroke:#808080;stroke-width:0.0351437;stroke-linecap:butt;stroke-linejoin:round;stroke-miterlimit:10;stroke-dasharray:none;stroke-opacity:1" />
    <path
       id="path233"
       d="m 76.082208,147.36662 -0.828947,0.47837 c 0.05979,0.48692 0.05979,0.9798 0,1.46672 l 0.828947,0.4784 c 0.391969,-0.29519 0.81904,-0.54165 1.270814,-0.73327 v -0.95678 c -0.451774,-0.19163 -0.878845,-0.43808 -1.270814,-0.73327 z"
       style="fill:#bfbfbf;fill-opacity:1;fill-rule:nonzero;stroke:#808080;stroke-width:0.0351437;stroke-linecap:butt;stroke-linejoin:round;stroke-miterlimit:10;stroke-dasharray:none;stroke-opacity:1" />
    <path
       id="path234"
       d="m 80.984439,139.21663 c 2.414376,1.02482 3.540798,3.81287 2.515974,6.22722 -1.024824,2.41436 -3.812905,3.54077 -6.227277,2.51597 -2.414368,-1.02482 -3.540797,-3.81289 -2.51597,-6.22723 0.480809,-1.13279 1.383171,-2.03515 2.51597,-2.51596 v 1.47809 c 0,1.02485 0.830797,1.85564 1.855657,1.85564 1.024856,0 1.855646,-0.83079 1.855646,-1.85564 z"
       style="fill:#f2e6d9;fill-opacity:1;fill-rule:nonzero;stroke:#996633;stroke-width:0.0351437;stroke-linecap:butt;stroke-linejoin:round;stroke-miterlimit:10;stroke-dasharray:none;stroke-opacity:1" />
    <path
       id="path235"
       d="m 79.62882,143.57822 c 0,-0.27616 -0.223866,-0.50003 -0.500027,-0.50003 -0.276169,0 -0.500034,0.22387 -0.500034,0.50003 0,0.27616 0.223865,0.50004 0.500034,0.50004 0.276161,0 0.500027,-0.22388 0.500027,-0.50004 z"
       style="fill:#000000;fill-opacity:1;fill-rule:nonzero;stroke:none;stroke-width:0.352778" />
    <path
       id="path236"
       d="m 99.496141,147.36662 0.828949,0.47837 c -0.0598,0.48692 -0.0598,0.9798 0,1.46672 l -0.828949,0.4784 c -0.391967,-0.29519 -0.819042,-0.54165 -1.270812,-0.73327 v -0.95678 c 0.45177,-0.19163 0.878845,-0.43808 1.270812,-0.73327 z"
       style="fill:#bfbfbf;fill-opacity:1;fill-rule:nonzero;stroke:#808080;stroke-width:0.0351437;stroke-linecap:butt;stroke-linejoin:round;stroke-miterlimit:10;stroke-dasharray:none;stroke-opacity:1" />
    <path
       id="path237"
       d="m 93.402985,147.36662 -0.828952,0.47837 c 0.05979,0.48692 0.05979,0.9798 0,1.46672 l 0.828952,0.4784 c 0.391964,-0.29519 0.819038,-0.54165 1.270807,-0.73327 v -0.95678 c -0.451769,-0.19163 -0.878843,-0.43808 -1.270807,-0.73327 z"
       style="fill:#bfbfbf;fill-opacity:1;fill-rule:nonzero;stroke:#808080;stroke-width:0.0351437;stroke-linecap:butt;stroke-linejoin:round;stroke-miterlimit:10;stroke-dasharray:none;stroke-opacity:1" />
    <path
       id="path238"
       d="m 91.735785,144.15697 c -0.319656,-2.60331 1.531687,-4.97287 4.135007,-5.29253 2.60332,-0.31966 4.972878,1.53169 5.292538,4.135 0.31966,2.60333 -1.531688,4.97288 -4.135005,5.29254 -1.221436,0.15 -2.454089,-0.18029 -3.436887,-0.92091 l 1.280081,-0.73905 c 0.887562,-0.51243 1.191647,-1.64731 0.679221,-2.53488 -0.51243,-0.88756 -1.647315,-1.19165 -2.534874,-0.67921 z"
       style="fill:#f2e6d9;fill-opacity:1;fill-rule:nonzero;stroke:#996633;stroke-width:0.0351437;stroke-linecap:butt;stroke-linejoin:round;stroke-miterlimit:10;stroke-dasharray:none;stroke-opacity:1" />
    <path
       id="path239"
       d="m 96.949598,143.57822 c 0,-0.27616 -0.223873,-0.50003 -0.500035,-0.50003 -0.276161,0 -0.500034,0.22387 -0.500034,0.50003 0,0.27616 0.223873,0.50004 0.500034,0.50004 0.276162,0 0.500035,-0.22388 0.500035,-0.50004 z"
       style="fill:#000000;fill-opacity:1;fill-rule:nonzero;stroke:none;stroke-width:0.352778" />
    <path
       id="path240"
       d="m 116.8169,147.36662 0.82895,0.47837 c -0.0598,0.48692 -0.0598,0.9798 0,1.46672 l -0.82895,0.4784 c -0.39196,-0.29519 -0.81904,-0.54165 -1.2708,-0.73327 v -0.95678 c 0.45176,-0.19163 0.87884,-0.43808 1.2708,-0.73327 z"
       style="fill:#bfbfbf;fill-opacity:1;fill-rule:nonzero;stroke:#808080;stroke-width:0.0351437;stroke-linecap:butt;stroke-linejoin:round;stroke-miterlimit:10;stroke-dasharray:none;stroke-opacity:1" />
    <path
       id="path241"
       d="m 110.72373,147.36662 -0.82895,0.47837 c 0.0598,0.48692 0.0598,0.9798 0,1.46672 l 0.82895,0.4784 c 0.39197,-0.29519 0.81904,-0.54165 1.27081,-0.73327 v -0.95678 c -0.45177,-0.19163 -0.87884,-0.43808 -1.27081,-0.73327 z"
       style="fill:#bfbfbf;fill-opacity:1;fill-rule:nonzero;stroke:#808080;stroke-width:0.0351437;stroke-linecap:butt;stroke-linejoin:round;stroke-miterlimit:10;stroke-dasharray:none;stroke-opacity:1" />
    <path
       id="path242"
       d="m 111.91467,147.93982 c -2.41437,-1.02482 -3.5408,-3.81288 -2.51598,-6.22724 1.02483,-2.41435 3.81291,-3.54076 6.22728,-2.51595 2.41437,1.02482 3.5408,3.81287 2.51598,6.22722 -0.48081,1.13279 -1.38318,2.03515 -2.51598,2.51597 v -1.4781 c 0,-1.02485 -0.83079,-1.85564 -1.85565,-1.85564 -1.02486,0 -1.85565,0.83079 -1.85565,1.85564 z"
       style="fill:#f2e6d9;fill-opacity:1;fill-rule:nonzero;stroke:#996633;stroke-width:0.0351437;stroke-linecap:butt;stroke-linejoin:round;stroke-miterlimit:10;stroke-dasharray:none;stroke-opacity:1" />
    <path
       id="path243"
       d="m 114.27035,143.57822 c 0,-0.27616 -0.22387,-0.50003 -0.50003,-0.50003 -0.27616,0 -0.50004,0.22387 -0.50004,0.50003 0,0.27616 0.22388,0.50004 0.50004,0.50004 0.27616,0 0.50003,-0.22388 0.50003,-0.50004 z"
       style="fill:#000000;fill-opacity:1;fill-rule:nonzero;stroke:none;stroke-width:0.352778" />
    <path
       id="path244"
       d="m 134.13768,147.36662 0.82894,0.47837 c -0.0598,0.48692 -0.0598,0.9798 0,1.46672 l -0.82894,0.4784 c -0.39197,-0.29519 -0.81904,-0.54165 -1.27081,-0.73327 v -0.95678 c 0.45177,-0.19163 0.87884,-0.43808 1.27081,-0.73327 z"
       style="fill:#bfbfbf;fill-opacity:1;fill-rule:nonzero;stroke:#808080;stroke-width:0.0351437;stroke-linecap:butt;stroke-linejoin:round;stroke-miterlimit:10;stroke-dasharray:none;stroke-opacity:1" />
    <path
       id="path245"
       d="m 128.04451,147.36662 -0.82897,0.47837 c 0.0598,0.48692 0.0598,0.9798 0,1.46672 l 0.82897,0.4784 c 0.39196,-0.29519 0.81903,-0.54165 1.2708,-0.73327 v -0.95678 c -0.45177,-0.19163 -0.87884,-0.43808 -1.2708,-0.73327 z"
       style="fill:#bfbfbf;fill-opacity:1;fill-rule:nonzero;stroke:#808080;stroke-width:0.0351437;stroke-linecap:butt;stroke-linejoin:round;stroke-miterlimit:10;stroke-dasharray:none;stroke-opacity:1" />
    <path
       id="path246"
       d="m 128.23297,139.78536 c 2.0947,-1.57851 5.07247,-1.15998 6.65098,0.93473 1.5785,2.09471 1.15997,5.07248 -0.93474,6.65098 -2.09471,1.5785 -5.07247,1.15997 -6.65097,-0.93474 -0.74063,-0.98279 -1.07093,-2.21545 -0.92092,-3.43689 l 1.28007,0.73907 c 0.88757,0.51243 2.02246,0.20834 2.53489,-0.67923 0.51243,-0.88755 0.20833,-2.02244 -0.67922,-2.53487 z"
       style="fill:#f2e6d9;fill-opacity:1;fill-rule:nonzero;stroke:#996633;stroke-width:0.0351437;stroke-linecap:butt;stroke-linejoin:round;stroke-miterlimit:10;stroke-dasharray:none;stroke-opacity:1" />
    <path
       id="path247"
       d="m 131.59112,143.57822 c 0,-0.27616 -0.22386,-0.50003 -0.50003,-0.50003 -0.27616,0 -0.50003,0.22387 -0.50003,0.50003 0,0.27616 0.22387,0.50004 0.50003,0.50004 0.27617,0 0.50003,-0.22388 0.50003,-0.50004 z"
       style="fill:#000000;fill-opacity:1;fill-rule:nonzero;stroke:none;stroke-width:0.352778" />
    <path
       id="path248"
       d="m 73.514988,152.36668 0.828952,0.47837 c -0.0598,0.48693 -0.0598,0.97981 0,1.46673 l -0.828952,0.47839 c -0.391963,-0.29519 -0.819043,-0.54164 -1.270812,-0.73327 v -0.95678 c 0.451769,-0.19162 0.878849,-0.43807 1.270812,-0.73327 z"
       style="fill:#bfbfbf;fill-opacity:1;fill-rule:nonzero;stroke:#808080;stroke-width:0.0351437;stroke-linecap:butt;stroke-linejoin:round;stroke-miterlimit:10;stroke-dasharray:none;stroke-opacity:1" />
    <path
       id="path249"
       d="m 67.421815,152.36668 -0.828952,0.47837 c 0.05981,0.48693 0.05981,0.97981 0,1.46673 l 0.828952,0.47839 c 0.391969,-0.29519 0.819043,-0.54164 1.270813,-0.73327 v -0.95678 c -0.45177,-0.19162 -0.878844,-0.43807 -1.270813,-0.73327 z"
       style="fill:#bfbfbf;fill-opacity:1;fill-rule:nonzero;stroke:#808080;stroke-width:0.0351437;stroke-linecap:butt;stroke-linejoin:round;stroke-miterlimit:10;stroke-dasharray:none;stroke-opacity:1" />
    <path
       id="path250"
       d="m 72.324056,144.21669 c 2.414372,1.02482 3.5408,3.81288 2.515973,6.22723 -1.024823,2.41435 -3.812906,3.54077 -6.22728,2.51596 -2.414371,-1.02482 -3.540797,-3.81288 -2.515974,-6.22723 0.480816,-1.13279 1.383175,-2.03515 2.515974,-2.51596 v 1.47809 c 0,1.02485 0.830793,1.85564 1.855653,1.85564 1.02486,0 1.855654,-0.83079 1.855654,-1.85564 z"
       style="fill:#f2e6d9;fill-opacity:1;fill-rule:nonzero;stroke:#996633;stroke-width:0.0351437;stroke-linecap:butt;stroke-linejoin:round;stroke-miterlimit:10;stroke-dasharray:none;stroke-opacity:1" />
    <path
       id="path251"
       d="m 70.968436,148.57829 c 0,-0.27617 -0.223872,-0.50004 -0.500034,-0.50004 -0.276161,0 -0.500031,0.22387 -0.500031,0.50004 0,0.27616 0.22387,0.50003 0.500031,0.50003 0.276162,0 0.500034,-0.22387 0.500034,-0.50003 z"
       style="fill:#000000;fill-opacity:1;fill-rule:nonzero;stroke:none;stroke-width:0.352778" />
    <path
       id="path252"
       d="m 90.835763,152.36668 0.828948,0.47837 c -0.05979,0.48693 -0.05979,0.97981 0,1.46673 l -0.828948,0.47839 c -0.391969,-0.29519 -0.819042,-0.54164 -1.270812,-0.73327 v -0.95678 c 0.45177,-0.19162 0.878843,-0.43807 1.270812,-0.73327 z"
       style="fill:#bfbfbf;fill-opacity:1;fill-rule:nonzero;stroke:#808080;stroke-width:0.0351437;stroke-linecap:butt;stroke-linejoin:round;stroke-miterlimit:10;stroke-dasharray:none;stroke-opacity:1" />
    <path
       id="path253"
       d="m 84.742587,152.36668 -0.828952,0.47837 c 0.0598,0.48693 0.0598,0.97981 0,1.46673 l 0.828952,0.47839 c 0.391968,-0.29519 0.819042,-0.54164 1.270816,-0.73327 v -0.95678 c -0.451774,-0.19162 -0.878848,-0.43807 -1.270816,-0.73327 z"
       style="fill:#bfbfbf;fill-opacity:1;fill-rule:nonzero;stroke:#808080;stroke-width:0.0351437;stroke-linecap:butt;stroke-linejoin:round;stroke-miterlimit:10;stroke-dasharray:none;stroke-opacity:1" />
    <path
       id="path254"
       d="m 84.931056,144.78542 c 2.094708,-1.5785 5.072474,-1.15998 6.650974,0.93474 1.578502,2.09471 1.15997,5.07247 -0.934734,6.65097 -2.094707,1.57851 -5.07247,1.15998 -6.650975,-0.93473 -0.740624,-0.98279 -1.070923,-2.21546 -0.920915,-3.43689 l 1.280078,0.73906 c 0.887559,0.51243 2.022448,0.20834 2.534874,-0.67922 0.512434,-0.88755 0.208342,-2.02244 -0.679217,-2.53487 z"
       style="fill:#f2e6d9;fill-opacity:1;fill-rule:nonzero;stroke:#996633;stroke-width:0.0351437;stroke-linecap:butt;stroke-linejoin:round;stroke-miterlimit:10;stroke-dasharray:none;stroke-opacity:1" />
    <path
       id="path255"
       d="m 88.289207,148.57829 c 0,-0.27617 -0.223866,-0.50004 -0.500034,-0.50004 -0.276162,0 -0.500034,0.22387 -0.500034,0.50004 0,0.27616 0.223872,0.50003 0.500034,0.50003 0.276168,0 0.500034,-0.22387 0.500034,-0.50003 z"
       style="fill:#000000;fill-opacity:1;fill-rule:nonzero;stroke:none;stroke-width:0.352778" />
    <path
       id="path256"
       d="m 108.15652,152.36668 0.82895,0.47837 c -0.0598,0.48693 -0.0598,0.97981 0,1.46673 l -0.82895,0.47839 c -0.39197,-0.29519 -0.81903,-0.54164 -1.2708,-0.73327 v -0.95678 c 0.45177,-0.19162 0.87883,-0.43807 1.2708,-0.73327 z"
       style="fill:#bfbfbf;fill-opacity:1;fill-rule:nonzero;stroke:#808080;stroke-width:0.0351437;stroke-linecap:butt;stroke-linejoin:round;stroke-miterlimit:10;stroke-dasharray:none;stroke-opacity:1" />
    <path
       id="path257"
       d="m 102.06337,152.36668 -0.82895,0.47837 c 0.0598,0.48693 0.0598,0.97981 0,1.46673 l 0.82895,0.47839 c 0.39197,-0.29519 0.81903,-0.54164 1.2708,-0.73327 v -0.95678 c -0.45177,-0.19162 -0.87883,-0.43807 -1.2708,-0.73327 z"
       style="fill:#bfbfbf;fill-opacity:1;fill-rule:nonzero;stroke:#808080;stroke-width:0.0351437;stroke-linecap:butt;stroke-linejoin:round;stroke-miterlimit:10;stroke-dasharray:none;stroke-opacity:1" />
    <path
       id="path258"
       d="m 106.96559,144.21669 c 2.41437,1.02482 3.5408,3.81288 2.51598,6.22723 -1.02484,2.41435 -3.81291,3.54077 -6.22728,2.51596 -2.41437,-1.02482 -3.540797,-3.81288 -2.51598,-6.22723 0.48082,-1.13279 1.38318,-2.03515 2.51598,-2.51596 v 1.47809 c 0,1.02485 0.8308,1.85564 1.85565,1.85564 1.02485,0 1.85565,-0.83079 1.85565,-1.85564 z"
       style="fill:#f2e6d9;fill-opacity:1;fill-rule:nonzero;stroke:#996633;stroke-width:0.0351437;stroke-linecap:butt;stroke-linejoin:round;stroke-miterlimit:10;stroke-dasharray:none;stroke-opacity:1" />
    <path
       id="path259"
       d="m 105.60997,148.57829 c 0,-0.27617 -0.22387,-0.50004 -0.50003,-0.50004 -0.27616,0 -0.50003,0.22387 -0.50003,0.50004 0,0.27616 0.22387,0.50003 0.50003,0.50003 0.27616,0 0.50003,-0.22387 0.50003,-0.50003 z"
       style="fill:#000000;fill-opacity:1;fill-rule:nonzero;stroke:none;stroke-width:0.352778" />
    <path
       id="path260"
       d="m 125.47728,152.36668 0.82895,0.47837 c -0.0598,0.48693 -0.0598,0.97981 0,1.46673 l -0.82895,0.47839 c -0.39196,-0.29519 -0.81904,-0.54164 -1.27081,-0.73327 v -0.95678 c 0.45177,-0.19162 0.87885,-0.43807 1.27081,-0.73327 z"
       style="fill:#bfbfbf;fill-opacity:1;fill-rule:nonzero;stroke:#808080;stroke-width:0.0351437;stroke-linecap:butt;stroke-linejoin:round;stroke-miterlimit:10;stroke-dasharray:none;stroke-opacity:1" />
    <path
       id="path261"
       d="m 119.38413,152.36668 -0.82895,0.47837 c 0.0598,0.48693 0.0598,0.97981 0,1.46673 l 0.82895,0.47839 c 0.39197,-0.29519 0.81904,-0.54164 1.2708,-0.73327 v -0.95678 c -0.45176,-0.19162 -0.87883,-0.43807 -1.2708,-0.73327 z"
       style="fill:#bfbfbf;fill-opacity:1;fill-rule:nonzero;stroke:#808080;stroke-width:0.0351437;stroke-linecap:butt;stroke-linejoin:round;stroke-miterlimit:10;stroke-dasharray:none;stroke-opacity:1" />
    <path
       id="path262"
       d="m 124.28635,144.21669 c 2.41438,1.02482 3.5408,3.81288 2.51598,6.22723 -1.02482,2.41435 -3.8129,3.54077 -6.22728,2.51596 -2.41436,-1.02482 -3.5408,-3.81288 -2.51598,-6.22723 0.48082,-1.13279 1.38318,-2.03515 2.51598,-2.51596 v 1.47809 c 0,1.02485 0.8308,1.85564 1.85566,1.85564 1.02485,0 1.85564,-0.83079 1.85564,-1.85564 z"
       style="fill:#f2e6d9;fill-opacity:1;fill-rule:nonzero;stroke:#996633;stroke-width:0.0351437;stroke-linecap:butt;stroke-linejoin:round;stroke-miterlimit:10;stroke-dasharray:none;stroke-opacity:1" />
    <path
       id="path263"
       d="m 122.93074,148.57829 c 0,-0.27617 -0.22387,-0.50004 -0.50003,-0.50004 -0.27617,0 -0.50004,0.22387 -0.50004,0.50004 0,0.27616 0.22387,0.50003 0.50004,0.50003 0.27616,0 0.50003,-0.22387 0.50003,-0.50003 z"
       style="fill:#000000;fill-opacity:1;fill-rule:nonzero;stroke:none;stroke-width:0.352778" />
    <path
       id="path264"
       d="m 142.79806,152.36668 0.82895,0.47837 c -0.0598,0.48693 -0.0598,0.97981 0,1.46673 l -0.82895,0.47839 c -0.39196,-0.29519 -0.81904,-0.54164 -1.2708,-0.73327 v -0.95678 c 0.45176,-0.19162 0.87884,-0.43807 1.2708,-0.73327 z"
       style="fill:#bfbfbf;fill-opacity:1;fill-rule:nonzero;stroke:#808080;stroke-width:0.0351437;stroke-linecap:butt;stroke-linejoin:round;stroke-miterlimit:10;stroke-dasharray:none;stroke-opacity:1" />
    <path
       id="path265"
       d="m 136.70489,152.36668 -0.82896,0.47837 c 0.0598,0.48693 0.0598,0.97981 0,1.46673 l 0.82896,0.47839 c 0.39197,-0.29519 0.81904,-0.54164 1.27081,-0.73327 v -0.95678 c -0.45177,-0.19162 -0.87884,-0.43807 -1.27081,-0.73327 z"
       style="fill:#bfbfbf;fill-opacity:1;fill-rule:nonzero;stroke:#808080;stroke-width:0.0351437;stroke-linecap:butt;stroke-linejoin:round;stroke-miterlimit:10;stroke-dasharray:none;stroke-opacity:1" />
    <path
       id="path266"
       d="m 144.46526,147.99954 c 0.31965,2.60331 -1.5317,4.97287 -4.13501,5.29253 -2.60332,0.31966 -4.97288,-1.53168 -5.29254,-4.135 -0.31965,-2.60333 1.53169,-4.97288 4.135,-5.29254 1.22144,-0.15 2.45409,0.18029 3.43689,0.92092 l -1.28008,0.73904 c -0.88755,0.51243 -1.19165,1.64732 -0.67922,2.53488 0.51243,0.88755 1.64732,1.19165 2.53487,0.67922 z"
       style="fill:#f2e6d9;fill-opacity:1;fill-rule:nonzero;stroke:#996633;stroke-width:0.0351437;stroke-linecap:butt;stroke-linejoin:round;stroke-miterlimit:10;stroke-dasharray:none;stroke-opacity:1" />
    <path
       id="path267"
       d="m 140.25151,148.57829 c 0,-0.27617 -0.22387,-0.50004 -0.50003,-0.50004 -0.27616,0 -0.50004,0.22387 -0.50004,0.50004 0,0.27616 0.22388,0.50003 0.50004,0.50003 0.27616,0 0.50003,-0.22387 0.50003,-0.50003 z"
       style="fill:#000000;fill-opacity:1;fill-rule:nonzero;stroke:none;stroke-width:0.352778" />
    <path
       id="path268"
       d="m 64.854601,157.36674 0.828952,0.47837 c -0.05979,0.48692 -0.05979,0.97981 0,1.46673 l -0.828952,0.47839 c -0.391968,-0.29519 -0.819034,-0.54165 -1.270812,-0.73327 v -0.95678 c 0.451778,-0.19163 0.878844,-0.43807 1.270812,-0.73327 z"
       style="fill:#bfbfbf;fill-opacity:1;fill-rule:nonzero;stroke:#808080;stroke-width:0.0351437;stroke-linecap:butt;stroke-linejoin:round;stroke-miterlimit:10;stroke-dasharray:none;stroke-opacity:1" />
    <path
       id="path269"
       d="m 58.761429,157.36674 -0.828952,0.47837 c 0.0598,0.48692 0.0598,0.97981 0,1.46673 l 0.828952,0.47839 c 0.391965,-0.29519 0.819043,-0.54165 1.270817,-0.73327 v -0.95678 c -0.451774,-0.19163 -0.878852,-0.43807 -1.270817,-0.73327 z"
       style="fill:#bfbfbf;fill-opacity:1;fill-rule:nonzero;stroke:#808080;stroke-width:0.0351437;stroke-linecap:butt;stroke-linejoin:round;stroke-miterlimit:10;stroke-dasharray:none;stroke-opacity:1" />
    <path
       id="path270"
       d="m 57.094243,154.15709 c -0.319663,-2.60331 1.53168,-4.97287 4.135,-5.29252 2.603323,-0.31966 4.972883,1.53168 5.29254,4.13499 0.319657,2.60333 -1.531684,4.97288 -4.135006,5.29255 -1.221434,0.14999 -2.454091,-0.1803 -3.436887,-0.92092 l 1.280084,-0.73905 c 0.887558,-0.51242 1.19165,-1.64731 0.67922,-2.53488 -0.512429,-0.88755 -1.647315,-1.19164 -2.534873,-0.67921 z"
       style="fill:#f2e6d9;fill-opacity:1;fill-rule:nonzero;stroke:#996633;stroke-width:0.0351437;stroke-linecap:butt;stroke-linejoin:round;stroke-miterlimit:10;stroke-dasharray:none;stroke-opacity:1" />
    <path
       id="path271"
       d="m 62.308049,153.57834 c 0,-0.27616 -0.223865,-0.50003 -0.500034,-0.50003 -0.276161,0 -0.500034,0.22387 -0.500034,0.50003 0,0.27617 0.223873,0.50004 0.500034,0.50004 0.276169,0 0.500034,-0.22387 0.500034,-0.50004 z"
       style="fill:#000000;fill-opacity:1;fill-rule:nonzero;stroke:none;stroke-width:0.352778" />
    <path
       id="path272"
       d="m 82.175369,157.36674 0.828952,0.47837 c -0.0598,0.48692 -0.0598,0.97981 0,1.46673 l -0.828952,0.47839 c -0.391963,-0.29519 -0.819038,-0.54165 -1.270816,-0.73327 v -0.95678 c 0.451778,-0.19163 0.878853,-0.43807 1.270816,-0.73327 z"
       style="fill:#bfbfbf;fill-opacity:1;fill-rule:nonzero;stroke:#808080;stroke-width:0.0351437;stroke-linecap:butt;stroke-linejoin:round;stroke-miterlimit:10;stroke-dasharray:none;stroke-opacity:1" />
    <path
       id="path273"
       d="m 76.082208,157.36674 -0.828947,0.47837 c 0.05979,0.48692 0.05979,0.97981 0,1.46673 l 0.828947,0.47839 c 0.391969,-0.29519 0.81904,-0.54165 1.270814,-0.73327 v -0.95678 c -0.451774,-0.19163 -0.878845,-0.43807 -1.270814,-0.73327 z"
       style="fill:#bfbfbf;fill-opacity:1;fill-rule:nonzero;stroke:#808080;stroke-width:0.0351437;stroke-linecap:butt;stroke-linejoin:round;stroke-miterlimit:10;stroke-dasharray:none;stroke-opacity:1" />
    <path
       id="path274"
       d="m 74.415014,154.15709 c -0.319656,-2.60331 1.53168,-4.97287 4.135006,-5.29252 2.603317,-0.31966 4.972877,1.53168 5.292534,4.13499 0.319659,2.60333 -1.531684,4.97288 -4.135001,5.29255 -1.221439,0.14999 -2.454096,-0.1803 -3.436887,-0.92092 l 1.280078,-0.73905 c 0.887558,-0.51242 1.191654,-1.64731 0.679225,-2.53488 -0.512433,-0.88755 -1.647316,-1.19164 -2.534877,-0.67921 z"
       style="fill:#f2e6d9;fill-opacity:1;fill-rule:nonzero;stroke:#996633;stroke-width:0.0351437;stroke-linecap:butt;stroke-linejoin:round;stroke-miterlimit:10;stroke-dasharray:none;stroke-opacity:1" />
    <path
       id="path275"
       d="m 79.62882,153.57834 c 0,-0.27616 -0.223866,-0.50003 -0.500027,-0.50003 -0.276169,0 -0.500034,0.22387 -0.500034,0.50003 0,0.27617 0.223865,0.50004 0.500034,0.50004 0.276161,0 0.500027,-0.22387 0.500027,-0.50004 z"
       style="fill:#000000;fill-opacity:1;fill-rule:nonzero;stroke:none;stroke-width:0.352778" />
    <path
       id="path276"
       d="m 99.496141,157.36674 0.828949,0.47837 c -0.0598,0.48692 -0.0598,0.97981 0,1.46673 l -0.828949,0.47839 c -0.391967,-0.29519 -0.819042,-0.54165 -1.270812,-0.73327 v -0.95678 c 0.45177,-0.19163 0.878845,-0.43807 1.270812,-0.73327 z"
       style="fill:#bfbfbf;fill-opacity:1;fill-rule:nonzero;stroke:#808080;stroke-width:0.0351437;stroke-linecap:butt;stroke-linejoin:round;stroke-miterlimit:10;stroke-dasharray:none;stroke-opacity:1" />
    <path
       id="path277"
       d="m 93.402985,157.36674 -0.828952,0.47837 c 0.05979,0.48692 0.05979,0.97981 0,1.46673 l 0.828952,0.47839 c 0.391964,-0.29519 0.819038,-0.54165 1.270807,-0.73327 v -0.95678 c -0.451769,-0.19163 -0.878843,-0.43807 -1.270807,-0.73327 z"
       style="fill:#bfbfbf;fill-opacity:1;fill-rule:nonzero;stroke:#808080;stroke-width:0.0351437;stroke-linecap:butt;stroke-linejoin:round;stroke-miterlimit:10;stroke-dasharray:none;stroke-opacity:1" />
    <path
       id="path278"
       d="m 94.593907,157.93994 c -2.414368,-1.02482 -3.540794,-3.81289 -2.51597,-6.22724 1.024823,-2.41435 3.812906,-3.54076 6.22728,-2.51595 2.414363,1.02482 3.540793,3.81288 2.515973,6.22723 -0.48081,1.13279 -1.383174,2.03514 -2.515973,2.51596 v -1.4781 c 0,-1.02485 -0.830794,-1.85563 -1.855654,-1.85563 -1.02486,0 -1.855656,0.83078 -1.855656,1.85563 z"
       style="fill:#f2e6d9;fill-opacity:1;fill-rule:nonzero;stroke:#996633;stroke-width:0.0351437;stroke-linecap:butt;stroke-linejoin:round;stroke-miterlimit:10;stroke-dasharray:none;stroke-opacity:1" />
    <path
       id="path279"
       d="m 96.949598,153.57834 c 0,-0.27616 -0.223873,-0.50003 -0.500035,-0.50003 -0.276161,0 -0.500034,0.22387 -0.500034,0.50003 0,0.27617 0.223873,0.50004 0.500034,0.50004 0.276162,0 0.500035,-0.22387 0.500035,-0.50004 z"
       style="fill:#000000;fill-opacity:1;fill-rule:nonzero;stroke:none;stroke-width:0.352778" />
    <path
       id="path280"
       d="m 116.8169,157.36674 0.82895,0.47837 c -0.0598,0.48692 -0.0598,0.97981 0,1.46673 l -0.82895,0.47839 c -0.39196,-0.29519 -0.81904,-0.54165 -1.2708,-0.73327 v -0.95678 c 0.45176,-0.19163 0.87884,-0.43807 1.2708,-0.73327 z"
       style="fill:#bfbfbf;fill-opacity:1;fill-rule:nonzero;stroke:#808080;stroke-width:0.0351437;stroke-linecap:butt;stroke-linejoin:round;stroke-miterlimit:10;stroke-dasharray:none;stroke-opacity:1" />
    <path
       id="path281"
       d="m 110.72373,157.36674 -0.82895,0.47837 c 0.0598,0.48692 0.0598,0.97981 0,1.46673 l 0.82895,0.47839 c 0.39197,-0.29519 0.81904,-0.54165 1.27081,-0.73327 v -0.95678 c -0.45177,-0.19163 -0.87884,-0.43807 -1.27081,-0.73327 z"
       style="fill:#bfbfbf;fill-opacity:1;fill-rule:nonzero;stroke:#808080;stroke-width:0.0351437;stroke-linecap:butt;stroke-linejoin:round;stroke-miterlimit:10;stroke-dasharray:none;stroke-opacity:1" />
    <path
       id="path282"
       d="m 116.62844,157.37121 c -2.09471,1.57851 -5.07247,1.15998 -6.65098,-0.93474 -1.5785,-2.0947 -1.15997,-5.07247 0.93474,-6.65097 2.0947,-1.57851 5.07247,-1.15998 6.65097,0.93473 0.74063,0.98279 1.07092,2.21546 0.92092,3.43689 l -1.28008,-0.73906 c -0.88756,-0.51243 -2.02245,-0.20834 -2.53488,0.67922 -0.51242,0.88756 -0.20833,2.02245 0.67922,2.53487 z"
       style="fill:#f2e6d9;fill-opacity:1;fill-rule:nonzero;stroke:#996633;stroke-width:0.0351437;stroke-linecap:butt;stroke-linejoin:round;stroke-miterlimit:10;stroke-dasharray:none;stroke-opacity:1" />
    <path
       id="path283"
       d="m 114.27035,153.57834 c 0,-0.27616 -0.22387,-0.50003 -0.50003,-0.50003 -0.27616,0 -0.50004,0.22387 -0.50004,0.50003 0,0.27617 0.22388,0.50004 0.50004,0.50004 0.27616,0 0.50003,-0.22387 0.50003,-0.50004 z"
       style="fill:#000000;fill-opacity:1;fill-rule:nonzero;stroke:none;stroke-width:0.352778" />
    <path
       id="path284"
       d="m 134.13768,157.36674 0.82894,0.47837 c -0.0598,0.48692 -0.0598,0.97981 0,1.46673 l -0.82894,0.47839 c -0.39197,-0.29519 -0.81904,-0.54165 -1.27081,-0.73327 v -0.95678 c 0.45177,-0.19163 0.87884,-0.43807 1.27081,-0.73327 z"
       style="fill:#bfbfbf;fill-opacity:1;fill-rule:nonzero;stroke:#808080;stroke-width:0.0351437;stroke-linecap:butt;stroke-linejoin:round;stroke-miterlimit:10;stroke-dasharray:none;stroke-opacity:1" />
    <path
       id="path285"
       d="m 128.04451,157.36674 -0.82897,0.47837 c 0.0598,0.48692 0.0598,0.97981 0,1.46673 l 0.82897,0.47839 c 0.39196,-0.29519 0.81903,-0.54165 1.2708,-0.73327 v -0.95678 c -0.45177,-0.19163 -0.87884,-0.43807 -1.2708,-0.73327 z"
       style="fill:#bfbfbf;fill-opacity:1;fill-rule:nonzero;stroke:#808080;stroke-width:0.0351437;stroke-linecap:butt;stroke-linejoin:round;stroke-miterlimit:10;stroke-dasharray:none;stroke-opacity:1" />
    <path
       id="path286"
       d="m 129.23544,157.93994 c -2.41437,-1.02482 -3.5408,-3.81289 -2.51598,-6.22724 1.02483,-2.41435 3.81291,-3.54076 6.22728,-2.51595 2.41437,1.02482 3.5408,3.81288 2.51598,6.22723 -0.48081,1.13279 -1.38318,2.03514 -2.51598,2.51596 v -1.4781 c 0,-1.02485 -0.83079,-1.85563 -1.85565,-1.85563 -1.02486,0 -1.85565,0.83078 -1.85565,1.85563 z"
       style="fill:#f2e6d9;fill-opacity:1;fill-rule:nonzero;stroke:#996633;stroke-width:0.0351437;stroke-linecap:butt;stroke-linejoin:round;stroke-miterlimit:10;stroke-dasharray:none;stroke-opacity:1" />
    <path
       id="path287"
       d="m 131.59112,153.57834 c 0,-0.27616 -0.22386,-0.50003 -0.50003,-0.50003 -0.27616,0 -0.50003,0.22387 -0.50003,0.50003 0,0.27617 0.22387,0.50004 0.50003,0.50004 0.27617,0 0.50003,-0.22387 0.50003,-0.50004 z"
       style="fill:#000000;fill-opacity:1;fill-rule:nonzero;stroke:none;stroke-width:0.352778" />
    <path
       id="path288"
       d="m 151.45844,157.36674 0.82895,0.47837 c -0.0598,0.48692 -0.0598,0.97981 0,1.46673 l -0.82895,0.47839 c -0.39196,-0.29519 -0.81904,-0.54165 -1.27082,-0.73327 v -0.95678 c 0.45178,-0.19163 0.87886,-0.43807 1.27082,-0.73327 z"
       style="fill:#bfbfbf;fill-opacity:1;fill-rule:nonzero;stroke:#808080;stroke-width:0.0351437;stroke-linecap:butt;stroke-linejoin:round;stroke-miterlimit:10;stroke-dasharray:none;stroke-opacity:1" />
    <path
       id="path289"
       d="m 145.36528,157.36674 -0.82896,0.47837 c 0.0599,0.48692 0.0599,0.97981 0,1.46673 l 0.82896,0.47839 c 0.39197,-0.29519 0.81903,-0.54165 1.27081,-0.73327 v -0.95678 c -0.45178,-0.19163 -0.87884,-0.43807 -1.27081,-0.73327 z"
       style="fill:#bfbfbf;fill-opacity:1;fill-rule:nonzero;stroke:#808080;stroke-width:0.0351437;stroke-linecap:butt;stroke-linejoin:round;stroke-miterlimit:10;stroke-dasharray:none;stroke-opacity:1" />
    <path
       id="path290"
       d="m 145.55375,149.78548 c 2.0947,-1.57851 5.07246,-1.15998 6.65097,0.93473 1.5785,2.09471 1.15997,5.07248 -0.93474,6.65098 -2.0947,1.57851 -5.07247,1.15998 -6.65097,-0.93474 -0.74063,-0.98278 -1.07092,-2.21544 -0.92091,-3.43689 l 1.28006,0.73907 c 0.88758,0.51243 2.02246,0.20834 2.53489,-0.67922 0.51243,-0.88756 0.20833,-2.02244 -0.67922,-2.53488 z"
       style="fill:#f2e6d9;fill-opacity:1;fill-rule:nonzero;stroke:#996633;stroke-width:0.0351437;stroke-linecap:butt;stroke-linejoin:round;stroke-miterlimit:10;stroke-dasharray:none;stroke-opacity:1" />
    <path
       id="path291"
       d="m 148.9119,153.57834 c 0,-0.27616 -0.22387,-0.50003 -0.50004,-0.50003 -0.27616,0 -0.50003,0.22387 -0.50003,0.50003 0,0.27617 0.22387,0.50004 0.50003,0.50004 0.27617,0 0.50004,-0.22387 0.50004,-0.50004 z"
       style="fill:#000000;fill-opacity:1;fill-rule:nonzero;stroke:none;stroke-width:0.352778" />
    <path
       id="path292"
       d="m 56.194212,162.36679 0.828953,0.47838 c -0.0598,0.48692 -0.0598,0.9798 0,1.46672 l -0.828953,0.4784 c -0.391964,-0.2952 -0.819042,-0.54165 -1.270816,-0.73329 v -0.95676 c 0.451774,-0.19163 0.878852,-0.43808 1.270816,-0.73327 z"
       style="fill:#bfbfbf;fill-opacity:1;fill-rule:nonzero;stroke:#808080;stroke-width:0.0351437;stroke-linecap:butt;stroke-linejoin:round;stroke-miterlimit:10;stroke-dasharray:none;stroke-opacity:1" />
    <path
       id="path293"
       d="m 50.101052,162.36679 -0.828952,0.47838 c 0.05979,0.48692 0.05979,0.9798 0,1.46672 l 0.828952,0.4784 c 0.391963,-0.2952 0.819041,-0.54165 1.270812,-0.73329 v -0.95676 c -0.451771,-0.19163 -0.878849,-0.43808 -1.270812,-0.73327 z"
       style="fill:#bfbfbf;fill-opacity:1;fill-rule:nonzero;stroke:#808080;stroke-width:0.0351437;stroke-linecap:butt;stroke-linejoin:round;stroke-miterlimit:10;stroke-dasharray:none;stroke-opacity:1" />
    <path
       id="path294"
       d="m 50.289511,154.78554 c 2.094711,-1.5785 5.07247,-1.15998 6.650972,0.93474 1.578508,2.09471 1.159976,5.07248 -0.934728,6.65097 -2.094707,1.57851 -5.072474,1.15998 -6.650975,-0.93473 -0.740631,-0.98279 -1.070923,-2.21545 -0.920923,-3.43689 l 1.280078,0.73906 c 0.887566,0.51243 2.022449,0.20835 2.534882,-0.67922 0.512427,-0.88755 0.208334,-2.02244 -0.679224,-2.53487 z"
       style="fill:#f2e6d9;fill-opacity:1;fill-rule:nonzero;stroke:#996633;stroke-width:0.0351437;stroke-linecap:butt;stroke-linejoin:round;stroke-miterlimit:10;stroke-dasharray:none;stroke-opacity:1" />
    <path
       id="path295"
       d="m 53.647666,158.57841 c 0,-0.27616 -0.223873,-0.50004 -0.500034,-0.50004 -0.276169,0 -0.500035,0.22388 -0.500035,0.50004 0,0.27616 0.223866,0.50003 0.500035,0.50003 0.276161,0 0.500034,-0.22387 0.500034,-0.50003 z"
       style="fill:#000000;fill-opacity:1;fill-rule:nonzero;stroke:none;stroke-width:0.352778" />
    <path
       id="path296"
       d="m 73.514988,162.36679 0.828952,0.47838 c -0.0598,0.48692 -0.0598,0.9798 0,1.46672 l -0.828952,0.4784 c -0.391963,-0.2952 -0.819043,-0.54165 -1.270812,-0.73329 v -0.95676 c 0.451769,-0.19163 0.878849,-0.43808 1.270812,-0.73327 z"
       style="fill:#bfbfbf;fill-opacity:1;fill-rule:nonzero;stroke:#808080;stroke-width:0.0351437;stroke-linecap:butt;stroke-linejoin:round;stroke-miterlimit:10;stroke-dasharray:none;stroke-opacity:1" />
    <path
       id="path297"
       d="m 67.421815,162.36679 -0.828952,0.47838 c 0.05981,0.48692 0.05981,0.9798 0,1.46672 l 0.828952,0.4784 c 0.391969,-0.2952 0.819043,-0.54165 1.270813,-0.73329 v -0.95676 c -0.45177,-0.19163 -0.878844,-0.43808 -1.270813,-0.73327 z"
       style="fill:#bfbfbf;fill-opacity:1;fill-rule:nonzero;stroke:#808080;stroke-width:0.0351437;stroke-linecap:butt;stroke-linejoin:round;stroke-miterlimit:10;stroke-dasharray:none;stroke-opacity:1" />
    <path
       id="path298"
       d="m 72.324056,154.21681 c 2.414372,1.02482 3.5408,3.81288 2.515973,6.22724 -1.024823,2.41434 -3.812906,3.54077 -6.22728,2.51596 -2.414371,-1.02483 -3.540797,-3.81288 -2.515974,-6.22724 0.480816,-1.13279 1.383175,-2.03514 2.515974,-2.51596 v 1.4781 c 0,1.02485 0.830793,1.85564 1.855653,1.85564 1.02486,0 1.855654,-0.83079 1.855654,-1.85564 z"
       style="fill:#f2e6d9;fill-opacity:1;fill-rule:nonzero;stroke:#996633;stroke-width:0.0351437;stroke-linecap:butt;stroke-linejoin:round;stroke-miterlimit:10;stroke-dasharray:none;stroke-opacity:1" />
    <path
       id="path299"
       d="m 70.968436,158.57841 c 0,-0.27616 -0.223872,-0.50004 -0.500034,-0.50004 -0.276161,0 -0.500031,0.22388 -0.500031,0.50004 0,0.27616 0.22387,0.50003 0.500031,0.50003 0.276162,0 0.500034,-0.22387 0.500034,-0.50003 z"
       style="fill:#000000;fill-opacity:1;fill-rule:nonzero;stroke:none;stroke-width:0.352778" />
    <path
       id="path300"
       d="m 90.835763,162.36679 0.828948,0.47838 c -0.05979,0.48692 -0.05979,0.9798 0,1.46672 l -0.828948,0.4784 c -0.391969,-0.2952 -0.819042,-0.54165 -1.270812,-0.73329 v -0.95676 c 0.45177,-0.19163 0.878843,-0.43808 1.270812,-0.73327 z"
       style="fill:#bfbfbf;fill-opacity:1;fill-rule:nonzero;stroke:#808080;stroke-width:0.0351437;stroke-linecap:butt;stroke-linejoin:round;stroke-miterlimit:10;stroke-dasharray:none;stroke-opacity:1" />
    <path
       id="path301"
       d="m 84.742587,162.36679 -0.828952,0.47838 c 0.0598,0.48692 0.0598,0.9798 0,1.46672 l 0.828952,0.4784 c 0.391968,-0.2952 0.819042,-0.54165 1.270816,-0.73329 v -0.95676 c -0.451774,-0.19163 -0.878848,-0.43808 -1.270816,-0.73327 z"
       style="fill:#bfbfbf;fill-opacity:1;fill-rule:nonzero;stroke:#808080;stroke-width:0.0351437;stroke-linecap:butt;stroke-linejoin:round;stroke-miterlimit:10;stroke-dasharray:none;stroke-opacity:1" />
    <path
       id="path302"
       d="m 83.075401,159.15716 c -0.31966,-2.60331 1.531683,-4.97288 4.135,-5.29253 2.603319,-0.31966 4.972883,1.53169 5.29254,4.135 0.319657,2.60332 -1.531687,4.97287 -4.135007,5.29254 -1.221433,0.15 -2.45409,-0.18029 -3.436884,-0.92092 l 1.280084,-0.73904 c 0.887559,-0.51243 1.191651,-1.64732 0.679218,-2.53488 -0.512427,-0.88756 -1.647315,-1.19165 -2.534873,-0.67922 z"
       style="fill:#f2e6d9;fill-opacity:1;fill-rule:nonzero;stroke:#996633;stroke-width:0.0351437;stroke-linecap:butt;stroke-linejoin:round;stroke-miterlimit:10;stroke-dasharray:none;stroke-opacity:1" />
    <path
       id="path303"
       d="m 88.289207,158.57841 c 0,-0.27616 -0.223866,-0.50004 -0.500034,-0.50004 -0.276162,0 -0.500034,0.22388 -0.500034,0.50004 0,0.27616 0.223872,0.50003 0.500034,0.50003 0.276168,0 0.500034,-0.22387 0.500034,-0.50003 z"
       style="fill:#000000;fill-opacity:1;fill-rule:nonzero;stroke:none;stroke-width:0.352778" />
    <path
       id="path304"
       d="m 108.15652,162.36679 0.82895,0.47838 c -0.0598,0.48692 -0.0598,0.9798 0,1.46672 l -0.82895,0.4784 c -0.39197,-0.2952 -0.81903,-0.54165 -1.2708,-0.73329 v -0.95676 c 0.45177,-0.19163 0.87883,-0.43808 1.2708,-0.73327 z"
       style="fill:#bfbfbf;fill-opacity:1;fill-rule:nonzero;stroke:#808080;stroke-width:0.0351437;stroke-linecap:butt;stroke-linejoin:round;stroke-miterlimit:10;stroke-dasharray:none;stroke-opacity:1" />
    <path
       id="path305"
       d="m 102.06337,162.36679 -0.82895,0.47838 c 0.0598,0.48692 0.0598,0.9798 0,1.46672 l 0.82895,0.4784 c 0.39197,-0.2952 0.81903,-0.54165 1.2708,-0.73329 v -0.95676 c -0.45177,-0.19163 -0.87883,-0.43808 -1.2708,-0.73327 z"
       style="fill:#bfbfbf;fill-opacity:1;fill-rule:nonzero;stroke:#808080;stroke-width:0.0351437;stroke-linecap:butt;stroke-linejoin:round;stroke-miterlimit:10;stroke-dasharray:none;stroke-opacity:1" />
    <path
       id="path306"
       d="m 107.96805,162.37127 c -2.09469,1.57851 -5.07246,1.15998 -6.65096,-0.93473 -1.578509,-2.09471 -1.15997,-5.07247 0.93474,-6.65098 2.0947,-1.5785 5.07246,-1.15997 6.65095,0.93474 0.74064,0.98279 1.07093,2.21545 0.92093,3.43689 l -1.28008,-0.73907 c -0.88757,-0.51242 -2.02245,-0.20834 -2.53488,0.67923 -0.51243,0.88755 -0.20833,2.02244 0.67922,2.53487 z"
       style="fill:#f2e6d9;fill-opacity:1;fill-rule:nonzero;stroke:#996633;stroke-width:0.0351437;stroke-linecap:butt;stroke-linejoin:round;stroke-miterlimit:10;stroke-dasharray:none;stroke-opacity:1" />
    <path
       id="path307"
       d="m 105.60997,158.57841 c 0,-0.27616 -0.22387,-0.50004 -0.50003,-0.50004 -0.27616,0 -0.50003,0.22388 -0.50003,0.50004 0,0.27616 0.22387,0.50003 0.50003,0.50003 0.27616,0 0.50003,-0.22387 0.50003,-0.50003 z"
       style="fill:#000000;fill-opacity:1;fill-rule:nonzero;stroke:none;stroke-width:0.352778" />
    <path
       id="path308"
       d="m 125.47728,162.36679 0.82895,0.47838 c -0.0598,0.48692 -0.0598,0.9798 0,1.46672 l -0.82895,0.4784 c -0.39196,-0.2952 -0.81904,-0.54165 -1.27081,-0.73329 v -0.95676 c 0.45177,-0.19163 0.87885,-0.43808 1.27081,-0.73327 z"
       style="fill:#bfbfbf;fill-opacity:1;fill-rule:nonzero;stroke:#808080;stroke-width:0.0351437;stroke-linecap:butt;stroke-linejoin:round;stroke-miterlimit:10;stroke-dasharray:none;stroke-opacity:1" />
    <path
       id="path309"
       d="m 119.38413,162.36679 -0.82895,0.47838 c 0.0598,0.48692 0.0598,0.9798 0,1.46672 l 0.82895,0.4784 c 0.39197,-0.2952 0.81904,-0.54165 1.2708,-0.73329 v -0.95676 c -0.45176,-0.19163 -0.87883,-0.43808 -1.2708,-0.73327 z"
       style="fill:#bfbfbf;fill-opacity:1;fill-rule:nonzero;stroke:#808080;stroke-width:0.0351437;stroke-linecap:butt;stroke-linejoin:round;stroke-miterlimit:10;stroke-dasharray:none;stroke-opacity:1" />
    <path
       id="path310"
       d="m 120.57505,162.94 c -2.41436,-1.02481 -3.5408,-3.81288 -2.51598,-6.22724 1.02484,-2.41435 3.81291,-3.54076 6.22728,-2.51595 2.41438,1.02483 3.5408,3.81288 2.51598,6.22724 -0.48081,1.13278 -1.38318,2.03514 -2.51598,2.51595 v -1.47809 c 0,-1.02485 -0.83079,-1.85564 -1.85564,-1.85564 -1.02486,0 -1.85566,0.83079 -1.85566,1.85564 z"
       style="fill:#f2e6d9;fill-opacity:1;fill-rule:nonzero;stroke:#996633;stroke-width:0.0351437;stroke-linecap:butt;stroke-linejoin:round;stroke-miterlimit:10;stroke-dasharray:none;stroke-opacity:1" />
    <path
       id="path311"
       d="m 122.93074,158.57841 c 0,-0.27616 -0.22387,-0.50004 -0.50003,-0.50004 -0.27617,0 -0.50004,0.22388 -0.50004,0.50004 0,0.27616 0.22387,0.50003 0.50004,0.50003 0.27616,0 0.50003,-0.22387 0.50003,-0.50003 z"
       style="fill:#000000;fill-opacity:1;fill-rule:nonzero;stroke:none;stroke-width:0.352778" />
    <path
       id="path312"
       d="m 142.79806,162.36679 0.82895,0.47838 c -0.0598,0.48692 -0.0598,0.9798 0,1.46672 l -0.82895,0.4784 c -0.39196,-0.2952 -0.81904,-0.54165 -1.2708,-0.73329 v -0.95676 c 0.45176,-0.19163 0.87884,-0.43808 1.2708,-0.73327 z"
       style="fill:#bfbfbf;fill-opacity:1;fill-rule:nonzero;stroke:#808080;stroke-width:0.0351437;stroke-linecap:butt;stroke-linejoin:round;stroke-miterlimit:10;stroke-dasharray:none;stroke-opacity:1" />
    <path
       id="path313"
       d="m 136.70489,162.36679 -0.82896,0.47838 c 0.0598,0.48692 0.0598,0.9798 0,1.46672 l 0.82896,0.4784 c 0.39197,-0.2952 0.81904,-0.54165 1.27081,-0.73329 v -0.95676 c -0.45177,-0.19163 -0.87884,-0.43808 -1.27081,-0.73327 z"
       style="fill:#bfbfbf;fill-opacity:1;fill-rule:nonzero;stroke:#808080;stroke-width:0.0351437;stroke-linecap:butt;stroke-linejoin:round;stroke-miterlimit:10;stroke-dasharray:none;stroke-opacity:1" />
    <path
       id="path314"
       d="m 136.89336,154.78554 c 2.0947,-1.5785 5.07247,-1.15998 6.65098,0.93474 1.57849,2.09471 1.15997,5.07248 -0.93475,6.65097 -2.0947,1.57851 -5.07246,1.15998 -6.65096,-0.93473 -0.74063,-0.98279 -1.07093,-2.21545 -0.92092,-3.43689 l 1.28007,0.73906 c 0.88757,0.51243 2.02246,0.20835 2.53488,-0.67922 0.51243,-0.88755 0.20834,-2.02244 -0.67922,-2.53487 z"
       style="fill:#f2e6d9;fill-opacity:1;fill-rule:nonzero;stroke:#996633;stroke-width:0.0351437;stroke-linecap:butt;stroke-linejoin:round;stroke-miterlimit:10;stroke-dasharray:none;stroke-opacity:1" />
    <path
       id="path315"
       d="m 140.25151,158.57841 c 0,-0.27616 -0.22387,-0.50004 -0.50003,-0.50004 -0.27616,0 -0.50004,0.22388 -0.50004,0.50004 0,0.27616 0.22388,0.50003 0.50004,0.50003 0.27616,0 0.50003,-0.22387 0.50003,-0.50003 z"
       style="fill:#000000;fill-opacity:1;fill-rule:nonzero;stroke:none;stroke-width:0.352778" />
    <path
       id="path316"
       d="m 160.11883,162.36679 0.82895,0.47838 c -0.0598,0.48692 -0.0598,0.9798 0,1.46672 l -0.82895,0.4784 c -0.39196,-0.2952 -0.81904,-0.54165 -1.2708,-0.73329 v -0.95676 c 0.45176,-0.19163 0.87884,-0.43808 1.2708,-0.73327 z"
       style="fill:#bfbfbf;fill-opacity:1;fill-rule:nonzero;stroke:#808080;stroke-width:0.0351437;stroke-linecap:butt;stroke-linejoin:round;stroke-miterlimit:10;stroke-dasharray:none;stroke-opacity:1" />
    <path
       id="path317"
       d="m 154.02566,162.36679 -0.82896,0.47838 c 0.0599,0.48692 0.0599,0.9798 0,1.46672 l 0.82896,0.4784 c 0.39197,-0.2952 0.81904,-0.54165 1.27081,-0.73329 v -0.95676 c -0.45177,-0.19163 -0.87884,-0.43808 -1.27081,-0.73327 z"
       style="fill:#bfbfbf;fill-opacity:1;fill-rule:nonzero;stroke:#808080;stroke-width:0.0351437;stroke-linecap:butt;stroke-linejoin:round;stroke-miterlimit:10;stroke-dasharray:none;stroke-opacity:1" />
    <path
       id="path318"
       d="m 159.93037,162.37127 c -2.09471,1.57851 -5.07247,1.15998 -6.65098,-0.93473 -1.5785,-2.09471 -1.15997,-5.07247 0.93474,-6.65098 2.0947,-1.5785 5.07247,-1.15997 6.65097,0.93474 0.74063,0.98279 1.07092,2.21545 0.92092,3.43689 l -1.28007,-0.73907 c -0.88757,-0.51242 -2.02246,-0.20834 -2.53489,0.67923 -0.51243,0.88755 -0.20833,2.02244 0.67923,2.53487 z"
       style="fill:#f2e6d9;fill-opacity:1;fill-rule:nonzero;stroke:#996633;stroke-width:0.0351437;stroke-linecap:butt;stroke-linejoin:round;stroke-miterlimit:10;stroke-dasharray:none;stroke-opacity:1" />
    <path
       id="path319"
       d="m 157.57228,158.57841 c 0,-0.27616 -0.22386,-0.50004 -0.50003,-0.50004 -0.27616,0 -0.50004,0.22388 -0.50004,0.50004 0,0.27616 0.22388,0.50003 0.50004,0.50003 0.27617,0 0.50003,-0.22387 0.50003,-0.50003 z"
       style="fill:#000000;fill-opacity:1;fill-rule:nonzero;stroke:none;stroke-width:0.352778" />
    <path
       id="path320"
       d="m 39.987222,163.57848 h 9.000045 l -1.499958,10.00011 H 41.48718 Z m 0.249943,1.50003 h 8.500162"
       style="fill:#efe759;fill-opacity:1;fill-rule:nonzero;stroke:#a5a042;stroke-width:0.070291;stroke-linecap:butt;stroke-linejoin:round;stroke-miterlimit:10;stroke-dasharray:none;stroke-opacity:1" />
    <path
       id="path321"
       d="m 57.307993,163.57848 h 9.000045 l -1.499955,10.00011 h -6.000132 z m 0.249943,1.50003 h 8.500162"
       style="fill:#efe759;fill-opacity:1;fill-rule:nonzero;stroke:#a5a042;stroke-width:0.070291;stroke-linecap:butt;stroke-linejoin:round;stroke-miterlimit:10;stroke-dasharray:none;stroke-opacity:1" />
    <path
       id="path322"
       d="m 74.62877,163.57848 h 9.000042 l -1.499955,10.00011 h -6.000136 z m 0.249936,1.50003 h 8.500166"
       style="fill:#efe759;fill-opacity:1;fill-rule:nonzero;stroke:#a5a042;stroke-width:0.070291;stroke-linecap:butt;stroke-linejoin:round;stroke-miterlimit:10;stroke-dasharray:none;stroke-opacity:1" />
    <path
       id="path323"
       d="m 91.949541,163.57848 h 9.000039 l -1.499952,10.00011 h -6.000129 z m 0.249936,1.50003 h 8.500163"
       style="fill:#efe759;fill-opacity:1;fill-rule:nonzero;stroke:#a5a042;stroke-width:0.070291;stroke-linecap:butt;stroke-linejoin:round;stroke-miterlimit:10;stroke-dasharray:none;stroke-opacity:1" />
    <path
       id="path324"
       d="m 109.2703,163.57848 h 9.00004 l -1.49996,10.00011 h -6.00013 z m 0.24994,1.50003 h 8.50016"
       style="fill:#efe759;fill-opacity:1;fill-rule:nonzero;stroke:#a5a042;stroke-width:0.070291;stroke-linecap:butt;stroke-linejoin:round;stroke-miterlimit:10;stroke-dasharray:none;stroke-opacity:1" />
    <path
       id="path325"
       d="m 126.59107,163.57848 h 9.00004 l -1.49995,10.00011 h -6.00014 z m 0.24994,1.50003 h 8.50016"
       style="fill:#efe759;fill-opacity:1;fill-rule:nonzero;stroke:#a5a042;stroke-width:0.070291;stroke-linecap:butt;stroke-linejoin:round;stroke-miterlimit:10;stroke-dasharray:none;stroke-opacity:1" />
    <path
       id="path326"
       d="m 143.91184,163.57848 h 9.00005 l -1.49996,10.00011 h -6.00013 z m 0.24994,1.50003 h 8.50016"
       style="fill:#efe759;fill-opacity:1;fill-rule:nonzero;stroke:#a5a042;stroke-width:0.070291;stroke-linecap:butt;stroke-linejoin:round;stroke-miterlimit:10;stroke-dasharray:none;stroke-opacity:1" />
    <path
       id="path327"
       d="m 161.23261,163.57848 h 9.00005 l -1.49996,10.00011 h -6.00013 z m 0.24994,1.50003 h 8.50017"
       style="fill:#efe759;fill-opacity:1;fill-rule:nonzero;stroke:#a5a042;stroke-width:0.070291;stroke-linecap:butt;stroke-linejoin:round;stroke-miterlimit:10;stroke-dasharray:none;stroke-opacity:1" />
    <g
       opacity="0.5"
       id="g335"
       transform="matrix(0.26458333,0,0,0.26458333,-224.03172,40.533879)">
      <path
         d="M 0,0 49.09824,-28.3468 24.5491,-42.5202 49.09824,-56.69362 v -28.3468 l -13.05671,-7.53836"
         style="fill:none;stroke:#ec008c;stroke-width:3.9851;stroke-linecap:round;stroke-linejoin:round;stroke-miterlimit:10;stroke-dasharray:none;stroke-opacity:1"
         transform="matrix(1.3333333,0,0,-1.3333333,1244,332.76533)"
         id="path328" />
      <path
         d="M 13.2705,0 C 9.33842,0.73724 2.94899,2.94899 -1.47449,5.52936 V -5.52936 C 2.94899,-2.94899 9.33842,-0.73724 13.2705,0"
         style="fill:#ec008c;fill-opacity:1;fill-rule:nonzero;stroke:none"
         transform="matrix(-1.15468,0.66664,0.66664,1.15468,1292.0554,456.20369)"
         id="path329" />
      <path
         d="m 49.09824,-85.04042 13.0567,-7.53836"
         style="fill:none;stroke:#ec008c;stroke-width:3.9851;stroke-linecap:round;stroke-linejoin:round;stroke-miterlimit:10;stroke-dasharray:none;stroke-opacity:1"
         transform="matrix(1.3333333,0,0,-1.3333333,1244,332.76533)"
         id="path330" />
      <path
         d="M 13.2705,0 C 9.33842,0.73724 2.94899,2.94899 -1.47449,5.52936 V -5.52936 C 2.94899,-2.94899 9.33842,-0.73724 13.2705,0"
         style="fill:#ec008c;fill-opacity:1;fill-rule:nonzero;stroke:none"
         transform="matrix(1.15468,0.66664,0.66664,-1.15468,1326.8733,456.20369)"
         id="path331" />
      <path
         d="M 49.09824,-56.69362 73.64735,-70.867 v -15.07631"
         style="fill:none;stroke:#ec008c;stroke-width:3.9851;stroke-linecap:round;stroke-linejoin:round;stroke-miterlimit:10;stroke-dasharray:none;stroke-opacity:1"
         transform="matrix(1.3333333,0,0,-1.3333333,1244,332.76533)"
         id="path332" />
      <path
         d="M 13.2705,0 C 9.33842,0.73724 2.94899,2.94899 -1.47449,5.52936 V -5.52936 C 2.94899,-2.94899 9.33842,-0.73724 13.2705,0"
         style="fill:#ec008c;fill-opacity:1;fill-rule:nonzero;stroke:none"
         transform="matrix(0,1.3333333,1.3333333,0,1342.1965,447.35641)"
         id="path333" />
      <path
         d="M 24.5491,-42.5202 -24.5491,-70.867 v -15.07631"
         style="fill:none;stroke:#ec008c;stroke-width:3.9851;stroke-linecap:round;stroke-linejoin:round;stroke-miterlimit:10;stroke-dasharray:none;stroke-opacity:1"
         transform="matrix(1.3333333,0,0,-1.3333333,1244,332.76533)"
         id="path334" />
      <path
         d="M 13.2705,0 C 9.33842,0.73724 2.94899,2.94899 -1.47449,5.52936 V -5.52936 C 2.94899,-2.94899 9.33842,-0.73724 13.2705,0"
         style="fill:#ec008c;fill-opacity:1;fill-rule:nonzero;stroke:none"
         transform="matrix(0,1.3333333,1.3333333,0,1211.2679,447.35641)"
         id="path335" />
    </g>
    <text
       xml:space="preserve"
       style="font-size:3.175px;fill:#6c7b93;stroke-width:0.264583"
       x="44.164841"
       y="169.63754"
       id="text1"><tspan
         sodipodi:role="line"
         id="tspan1"
         style="stroke-width:0.264583"
         x="44.164841"
         y="169.63754">1</tspan></text>
    <text
       xml:space="preserve"
       style="font-size:3.175px;fill:#6c7b93;stroke-width:0.264583"
       x="61.015903"
       y="169.90083"
       id="text2"><tspan
         sodipodi:role="line"
         id="tspan2"
         style="stroke-width:0.264583"
         x="61.015903"
         y="169.90083">2</tspan></text>
    <text
       xml:space="preserve"
       style="font-size:3.175px;fill:#6c7b93;stroke-width:0.264583"
       x="78.393562"
       y="169.90083"
       id="text3"><tspan
         sodipodi:role="line"
         id="tspan3"
         style="stroke-width:0.264583"
         x="78.393562"
         y="169.90083">3</tspan></text>
    <text
       xml:space="preserve"
       style="font-size:3.175px;fill:#6c7b93;stroke-width:0.264583"
       x="95.771225"
       y="170.16414"
       id="text4"><tspan
         sodipodi:role="line"
         id="tspan4"
         style="stroke-width:0.264583"
         x="95.771225"
         y="170.16414">4</tspan></text>
    <text
       xml:space="preserve"
       style="font-size:3.175px;fill:#6c7b93;stroke-width:0.264583"
       x="112.62228"
       y="170.42744"
       id="text5"><tspan
         sodipodi:role="line"
         id="tspan5"
         style="stroke-width:0.264583"
         x="112.62228"
         y="170.42744">5</tspan></text>
    <text
       xml:space="preserve"
       style="font-size:3.175px;fill:#6c7b93;stroke-width:0.264583"
       x="129.99992"
       y="170.16415"
       id="text6"><tspan
         sodipodi:role="line"
         id="tspan6"
         style="stroke-width:0.264583"
         x="129.99992"
         y="170.16415">6</tspan></text>
    <text
       xml:space="preserve"
       style="font-size:3.175px;fill:#6c7b93;stroke-width:0.264583"
       x="147.37761"
       y="170.42744"
       id="text7"><tspan
         sodipodi:role="line"
         id="tspan7"
         style="stroke-width:0.264583"
         x="147.37761"
         y="170.42744">7</tspan></text>
    <text
       xml:space="preserve"
       style="font-size:3.175px;fill:#6c7b93;stroke-width:0.264583"
       x="165.01857"
       y="170.16412"
       id="text8"><tspan
         sodipodi:role="line"
         id="tspan8"
         style="stroke-width:0.264583"
         x="165.01857"
         y="170.16412">8</tspan></text>
  </g>
</svg>
