<?xml version="1.0" encoding="UTF-8"?>
<svg id="_圖層_9" data-name="圖層 9" xmlns="http://www.w3.org/2000/svg" viewBox="0 0 106.8 106.8">
  <defs>
    <style>
      .cls-1 {
        fill: #695079;
      }

      .cls-2 {
        fill: #588435;
      }

      .cls-3 {
        fill: #342770;
      }

      .cls-4 {
        fill: none;
        stroke-width: 3px;
      }

      .cls-4, .cls-5 {
        stroke: #231815;
        stroke-linecap: round;
        stroke-linejoin: round;
      }

      .cls-6 {
        fill: #643590;
      }

      .cls-5 {
        fill: #fff;
        stroke-width: 2px;
      }

      .cls-7 {
        fill: #9075b3;
      }

      .cls-8 {
        fill: #caacd1;
      }
    </style>
  </defs>
  <polygon class="cls-5" points="1 105.8 1 1 105.8 1 105.8 75.29 67.62 105.8 1 105.8"/>
  <g>
    <path class="cls-4" d="M92.27,48.22c0-5.91-4.79-10.69-10.69-10.69-1.52,0-2.97.32-4.29.9.02-.3.05-.6.05-.9,0-5.91-4.79-10.69-10.69-10.69-.28,0-.56.02-.84.04.43-6.59-1.85-13.2-7.07-19.22-1.41.25-2.72.6-3.92,1.05,3.48,6.86,4.96,14.02,4.42,21.13-.22.21-.43.43-.63.66-.32-5.62-4.97-10.08-10.66-10.08-4.16,0-7.76,2.38-9.53,5.85-1.55-.88-3.34-1.38-5.25-1.38-5.91,0-10.69,4.79-10.69,10.69,0,3.18,1.39,6.02,3.59,7.98-4.93.96-8.65,5.29-8.65,10.49s3.7,9.52,8.61,10.49c-.65,1.46-1.02,3.07-1.02,4.77,0,5.54,3.84,10.17,9,11.41-.53,1.37-.84,2.85-.84,4.4,0,6.68,5.41,12.09,12.09,12.09,6.31,0,11.49-4.84,12.03-11.01,1.71.93,3.67,1.46,5.76,1.46,6.55,0,11.88-5.22,12.07-11.73,5.27-.66,9.35-5.15,9.35-10.6,0-2.43-.82-4.66-2.18-6.45,5.58-.36,9.99-4.99,9.99-10.66Z"/>
    <g>
      <g>
        <path class="cls-2" d="M58.74,7.66c-1.41.25-2.72.6-3.92,1.05,6.99,13.76,5.92,28.71-3.41,42.07,15.88-12.66,19.2-29.43,7.33-43.12Z"/>
        <circle class="cls-7" cx="33.17" cy="35.59" r="10.69" transform="translate(-12.47 52.42) rotate(-67.27)"/>
        <circle class="cls-1" cx="58.64" cy="41.81" r="10.69" transform="translate(-5.91 9.88) rotate(-9.17)"/>
        <circle class="cls-3" cx="58.64" cy="41.81" r="10.69" transform="translate(-5.91 9.88) rotate(-9.17)"/>
        <circle class="cls-6" cx="47.94" cy="31.11" r="10.69" transform="translate(-7.96 43.01) rotate(-45)"/>
        <circle class="cls-6" cx="28.11" cy="54.06" r="10.69"/>
        <circle class="cls-7" cx="36.75" cy="69.32" r="11.74"/>
        <circle class="cls-3" cx="81.58" cy="48.22" r="10.69"/>
        <circle class="cls-6" cx="45.25" cy="85.13" r="12.09"/>
        <circle class="cls-3" cx="63.04" cy="75.57" r="12.09" transform="translate(-25.07 119.4) rotate(-76.61)"/>
        <circle class="cls-3" cx="48.36" cy="64.33" r="11.7" transform="translate(-9.63 8.53) rotate(-9.17)"/>
        <circle class="cls-7" cx="66.65" cy="54.06" r="11.28" transform="translate(-1.19 106.62) rotate(-76.81)"/>
        <circle class="cls-6" cx="73.77" cy="65.33" r="10.69"/>
        <circle class="cls-6" cx="45.96" cy="50.75" r="10.69" transform="translate(-22 42.44) rotate(-40.86)"/>
        <circle class="cls-6" cx="66.65" cy="37.53" r="10.69" transform="translate(14.9 93.86) rotate(-76.81)"/>
      </g>
      <path class="cls-8" d="M81.45,61.2c-.29-.43-.86-.63-1.33-.35-.43.25-.64.89-.35,1.33.88,1.31,1.32,2.93,1.02,4.5-.29,1.53-1.13,2.84-2.35,3.79-.41.32-.34,1.04,0,1.37.41.41.96.33,1.37,0,3.22-2.52,3.92-7.27,1.64-10.65Z"/>
      <path class="cls-8" d="M76.88,72.27c-1.25,0-1.25,1.94,0,1.94s1.25-1.94,0-1.94Z"/>
      <path class="cls-8" d="M88.79,42.1c-.31-.42-.84-.63-1.33-.35-.41.24-.66.91-.35,1.33,1.56,2.09,2,4.98.91,7.39-.22.48-.14,1.05.35,1.33.42.24,1.11.13,1.33-.35,1.36-3.01,1.08-6.67-.91-9.35Z"/>
      <path class="cls-8" d="M87.03,53.42c-1.25,0-1.25,1.94,0,1.94s1.25-1.94,0-1.94Z"/>
      <path class="cls-8" d="M73.66,31.14c-.4-.34-.98-.39-1.37,0-.35.35-.4,1.03,0,1.37.93.78,1.5,1.88,1.52,3.06.02,1.18-.5,2.3-1.41,3.11-.39.35-.36,1.02,0,1.37.39.39.98.35,1.37,0,1.25-1.12,2-2.8,1.98-4.48-.03-1.68-.8-3.35-2.09-4.43Z"/>
      <path class="cls-8" d="M71.44,41.64c-1.25,0-1.25,1.94,0,1.94s1.25-1.94,0-1.94Z"/>
      <path class="cls-8" d="M47.12,22.88c-1.21-.52-2.56-.6-3.8-.13-1.21.46-2.29,1.3-2.86,2.49-.22.46-.14,1.07.35,1.33.43.23,1.1.14,1.33-.35.1-.22.23-.41.36-.62,0,0,0,0,0,0,.05-.05.09-.1.14-.16.08-.08.16-.17.25-.24.04-.04.09-.07.13-.11,0,0,0,0,0,0,.1-.07.21-.14.31-.21.1-.06.2-.12.31-.17.05-.03.1-.05.16-.08,0,0,0,0,0,0,0,0,.01,0,.02,0,.22-.08.44-.15.67-.19.02,0,.08-.02.13-.03.01,0,.03,0,.06,0,.12,0,.23-.02.35-.02.13,0,.25,0,.38.01,0,0,.02,0,.04,0,.03,0,.1.01.12.02.11.02.23.05.34.08.07.02.13.04.2.06.06.02.26.1.03,0,.47.2,1.06.15,1.33-.35.22-.42.15-1.12-.35-1.33Z"/>
      <path class="cls-8" d="M29.8,29.41c-.15-.56-.67-.75-1.2-.68-1.54.21-2.88,1.4-3.54,2.78-.81,1.7-.76,3.59-.43,5.41.09.52.72.81,1.2.68.54-.15.77-.68.68-1.2-.12-.68-.19-1.38-.16-2.09.02-.35.04-.62.12-.96.04-.18.09-.36.15-.53.02-.07.05-.15.08-.22,0-.02.01-.03.01-.04,0-.02.02-.03.03-.05.13-.26.27-.51.44-.74,0,0,0,0,0,0,.02-.03.04-.05.06-.08.05-.05.09-.1.14-.15.1-.11.21-.22.33-.31.02-.02.1-.08.11-.09.04-.03.09-.06.13-.09.13-.08.26-.15.39-.22.02,0,.03-.02.04-.02.02,0,.03,0,.05-.02.06-.02.13-.04.19-.06.16-.05.32-.08.49-.1.52-.07.8-.74.68-1.2Z"/>
      <path class="cls-8" d="M22.19,56.66c-.05-.1-.1-.2-.15-.3-.01-.03-.03-.06-.04-.09,0,0,0,0,0-.02-.07-.2-.14-.39-.2-.59-.05-.19-.1-.38-.13-.57-.01-.05-.02-.11-.03-.16,0,0-.02-.21-.03-.24-.03-.39-.01-.77.01-1.16,0-.04,0-.06,0-.07,0-.03,0-.06.01-.08.01-.08.03-.16.05-.24.05-.22.1-.43.17-.64.15-.48-.18-1.08-.68-1.2-.53-.12-1.03.16-1.2.68-.6,1.87-.38,3.93.53,5.66.24.45.9.62,1.33.35.46-.3.6-.85.35-1.33Z"/>
      <path class="cls-8" d="M22.69,59.04c-1.25,0-1.25,1.94,0,1.94s1.25-1.94,0-1.94Z"/>
      <path class="cls-8" d="M31.29,74.35c-1.27-.63-2.33-1.7-2.82-3.04-.55-1.52-.41-3.19.38-4.6.61-1.09-1.07-2.08-1.68-.98-1.02,1.83-1.29,4.11-.58,6.1.65,1.81,1.98,3.35,3.71,4.21.47.23,1.05.13,1.33-.35.25-.43.12-1.1-.35-1.33Z"/>
      <path class="cls-8" d="M33.04,76.26c-1.25,0-1.25,1.94,0,1.94s1.25-1.94,0-1.94Z"/>
      <path class="cls-8" d="M54.44,87.07c-.42-.22-1.11-.15-1.33.35-.3.68-.63,1.34-1.01,1.97-.19.31-.38.62-.59.91-.05.08-.11.15-.17.23-.02.03-.03.04-.04.05-.01.01-.02.03-.04.05-.12.15-.24.29-.36.43-.23.27-.48.52-.74.76-.12.11-.25.22-.38.33-.02.02-.04.03-.05.04,0,0-.02.02-.05.03-.07.05-.15.11-.22.16-.3.2-.62.38-.94.54-.03.01-.04.02-.05.03-.01,0-.03,0-.05.02-.09.03-.17.07-.26.1-.17.06-.35.11-.53.16-.49.13-.84.7-.68,1.2.16.51.67.81,1.2.68,3.25-.83,5.36-3.78,6.65-6.69.21-.46.15-1.07-.35-1.33Z"/>
      <path class="cls-8" d="M42.63,93.47c-1.25,0-1.25,1.94,0,1.94s1.25-1.94,0-1.94Z"/>
      <path class="cls-8" d="M56.54,65.75c-.14-.51-.69-.82-1.2-.68-.51.14-.82.69-.68,1.2.4,1.49-.37,2.96-1.58,3.92-1.24.98-3.02,1.48-4.67,1.46-1.25-.02-1.25,1.93,0,1.94,2.21.03,4.43-.67,6.13-2.1,1.65-1.38,2.56-3.62,1.99-5.74Z"/>
      <path class="cls-8" d="M69.24,78.59c-1.46,2.66-4.08,4.46-7.09,4.92-.52.08-.81.73-.68,1.2.15.56.67.76,1.2.68,3.45-.53,6.58-2.76,8.25-5.82.6-1.1-1.08-2.08-1.68-.98Z"/>
      <path class="cls-8" d="M75.35,49.2c-.16-.21-.32-.37-.58-.45-.23-.06-.54-.04-.75.1-.21.13-.39.33-.45.58-.05.24-.05.54.1.75.2.27.37.57.51.88.12.31.21.64.26.97.01.12.02.25.03.37.01.51.44,1,.97.97.52-.02.98-.43.97-.97-.03-1.14-.38-2.29-1.07-3.2Z"/>
      <path class="cls-8" d="M53.2,46.86c-.27-.45-.87-.62-1.33-.35-.45.26-.62.88-.35,1.33,1.08,1.81,1.14,4.1.15,5.93-.25.46-.12,1.06.35,1.33.44.26,1.08.11,1.33-.35,1.32-2.45,1.28-5.5-.15-7.89Z"/>
      <path class="cls-8" d="M49.33,56.14c-1.25,0-1.25,1.94,0,1.94s1.25-1.94,0-1.94Z"/>
    </g>
  </g>
  <path class="cls-5" d="M105.8,75.29s-1.72,13.27-33.56,0l-4.62,30.51s36.2-5.97,38.18-30.51Z"/>
</svg>