<?xml version="1.0" encoding="UTF-8"?>
<svg xmlns="http://www.w3.org/2000/svg" viewBox="0 0 106.8 106.8">
  <defs>
    <style>
      .cls-1 {
        fill: #231815;
      }

      .cls-1, .cls-2 {
        stroke: #231815;
        stroke-linecap: round;
        stroke-linejoin: round;
      }

      .cls-3 {
        fill: #99bc46;
      }

      .cls-4 {
        isolation: isolate;
      }

      .cls-2 {
        fill: #fff;
        stroke-width: 2px;
      }

      .cls-5, .cls-6 {
        fill: #f5e272;
      }

      .cls-6 {
        mix-blend-mode: color-dodge;
      }

      .cls-7 {
        fill: #eebe4b;
        mix-blend-mode: multiply;
      }
    </style>
  </defs>
  <g class="cls-4">
    <g id="_圖層_9" data-name="圖層 9">
      <polygon class="cls-2" points="1 105.8 1 1 105.8 1 105.8 75.29 67.62 105.8 1 105.8"/>
      <g>
        <path class="cls-1" d="M43.43,80.19c-1.99,0-3.98-.15-5.96-.46-4.15-.64-8.51-2.23-12.61-4.59-.06-.04-.13-.08-.18-.13-3.16-2.55-5.69-6.18-7.14-10.22-.28-.79-.39-1.59-.49-2.36-.12-.92-.24-1.78-.64-2.31-.17-.2-.26-.28-.35-.35-.17-.12-.31-.25-.44-.39-.09-.1-.16-.2-.21-.31-.53-.8-.59-1.87-.12-2.86.54-1.15,1.65-1.82,2.83-1.71.31.03.62.09.93.15.23.05.46.1.7.12.06,0,.14,0,.24-.02,0,0,.11-.03.15-.04.14-.25.35-.45.62-.58.25-.12.5-.23.76-.33.65-.24,1.28-.19,1.74-.15.08,0,.16.01.24.02.21-.04.43-.04.65.02,1.19.31,2.34.84,3.35,1.31.48.23.95.44,1.39.62.58.23,1.18.44,1.78.63.18.06.35.11.53.16l.23.07c.36.11.73.21,1.09.3.25.06.51.12.77.18.4.09.8.17,1.2.24l.65.12c.62.1,1.24.18,1.87.24,4.87.46,9.83-.77,15.14-3.76,2.32-1.31,4.37-2.94,6.53-4.67l.26-.2c.58-.46,1.15-.93,1.72-1.41l.29-.25c.46-.4.92-.8,1.37-1.21,1.07-.98,1.95-1.88,2.71-2.76,2.25-2.6,4.43-4.78,6.69-6.65.76-.63,1.57-1.16,2.48-1.61.04-.03.09-.05.14-.08.04-.02.11-.05.14-.06.35-.17.78-.34,1.22-.5.1-.04.17-.07.24-.09.51-.17,1.04-.32,1.57-.43.18-.06.4-.12.62-.16.04-.11.09-.22.16-.32.12-.18.23-.37.33-.56l.4-.7c.17-.28.33-.55.47-.84.33-.67.62-1.34.87-2,.46-1.23.56-2.15.32-3.07-.1-.38-.09-.78.03-1.17.03-.09.1-.25.14-.33.1-.2.24-.4.42-.57.03-.03.15-.14.19-.17.17-.14.36-.26.55-.37.26-.14.47-.22.68-.3.27-.09.51-.16.72-.22l.27-.07c2.12-.59,3.38.68,4.05,1.37,1.46,1.48,2.31,3.06,2.58,4.84h0c.02.12.04.24.07.36.35,1.74-.2,2.79-1.64,3.12-.22.05-.48.2-.79.37-1.12.64-1.99,1.62-2.7,2.57.07.15.14.3.2.44.18.41.31.7.43.99.01.03.03.06.04.1.21.51.41,1.01.57,1.53.19.51.38,1.13.53,1.72.61,2.47.41,5.07.16,7.06-.51,4.08-2.31,8.22-5.35,12.3-4.35,5.84-11.11,11.34-19.06,15.5-6.17,3.23-12.76,4.88-19.33,4.88ZM26.37,72.75c3.78,2.16,7.76,3.6,11.54,4.19,7.9,1.22,16.04-.21,23.54-4.13,7.58-3.96,14-9.17,18.1-14.68,2.74-3.69,4.36-7.38,4.81-10.96.22-1.75.4-4.01-.1-6.03-.12-.48-.28-1-.46-1.49-.17-.54-.35-.99-.54-1.44-.01-.03-.03-.06-.04-.1-.1-.24-.21-.48-.31-.72-.23-.53-.43-.98-.66-1.24-.05-.06-.1-.12-.14-.19l-.63.08c-.8.1-1.56.19-2.31.35-.35.07-.65.13-.95.23-.56.13-.99.25-1.42.39l-.19.07c-.33.12-.67.25-.99.4-.02.01-.04.02-.07.03-.76.36-1.44.79-2.06,1.31-2.14,1.77-4.22,3.84-6.36,6.33-.83.96-1.79,1.94-2.94,2.99-.47.43-.96.86-1.45,1.27l-.31.27c-.59.49-1.18.98-1.77,1.46l-.25.2c-2.16,1.73-4.39,3.51-6.91,4.93-5.83,3.28-11.33,4.62-16.79,4.11-.68-.06-1.37-.16-2.05-.26l-.71-.13c-.44-.08-.88-.17-1.32-.26-.28-.06-.56-.13-.84-.2-.4-.1-.8-.21-1.2-.33l-.21-.06c-.21-.06-.41-.12-.62-.19-.66-.21-1.32-.44-1.96-.7-.48-.19-1-.43-1.53-.68-.86-.4-1.74-.81-2.59-1.07-.24,0-.45,0-.65-.03-.15.16-.33.29-.53.38l-.3.12c-.41.17-.88.35-1.38.48-.17.05-.28.08-.39.09-.34.06-.64.07-.94.05-.36-.03-.69-.09-1.03-.16-.21-.04-.43-.09-.64-.11.02.02-.02.14-.03.22.21.16.44.37.67.62.06.07.12.15.18.22.88,1.15,1.06,2.49,1.22,3.68.09.65.17,1.27.35,1.78,1.26,3.52,3.45,6.68,6.17,8.91ZM83.43,35.48l-.5.98s.09.04.13.06l.38-.99-.02-.04ZM81.83,32.89c.17.02.33.03.5.05.38.04.76.26,1.01.56.83-1.04,1.83-2.08,3.1-2.8.39-.22.75-.42,1.15-.58-.03-.15-.06-.3-.08-.45-.19-1.2-.74-2.21-1.8-3.28-.74-.74-.92-.73-1.28-.63l-.32.08c-.14.04-.31.09-.49.15-.01,0-.03,0-.04.01-.02,0-.05.02-.07.02.31,1.72-.11,3.17-.52,4.27-.28.74-.61,1.5-.99,2.26-.05.11-.11.22-.17.33Z"/>
        <path class="cls-5" d="M88.41,31.35c-.47.11-.87.35-1.28.59-1.35.76-2.41,2.02-3.38,3.37-.06-.03-.12-.07-.18-.1-.07-.04-.17-.02-.26.02.4.45.65,1.07.89,1.59.35.78.68,1.54.93,2.34.21.57.38,1.13.51,1.64.53,2.12.4,4.4.13,6.55-.53,4.26-2.55,8.23-5.08,11.63-4.7,6.31-11.66,11.47-18.58,15.09-7.52,3.93-16,5.57-24.41,4.28-4.24-.65-8.41-2.28-12.12-4.42-3.06-2.47-5.37-5.89-6.69-9.6-.69-1.93-.15-4.41-2.01-5.7-1.09-.75-.26-2.83,1.11-2.7.56.05,1.08.22,1.65.27.8.06,1.64-.36,2.37-.64.05-.02.11-.13.02-.12-.21.02-.43.01-.65-.01.21-.1.42-.19.63-.27.53-.2,1.16-.03,1.71-.05.02,0,.05-.01.07-.03,1.61.42,3.21,1.33,4.57,1.88,2.71,1.09,5.6,1.76,8.5,2.04,5.76.54,11.01-1.15,15.97-3.93,2.52-1.42,4.73-3.21,6.98-5.01,2.22-1.78,4.42-3.65,6.28-5.81,2.02-2.34,4.14-4.51,6.52-6.49,1.65-1.37,3.37-2.06,5.2-2.47.41-.13.83-.21,1.08-.26,1.1-.23,2.21-.33,3.33-.48.05-.08.07-.16-.04-.18-.92-.11-1.83-.17-2.73-.15.94-1.38,1.69-2.94,2.23-4.39.5-1.32.72-2.56.37-3.92-.25-.98,1.41-1.31,2.02-1.48,1.18-.32,1.87.2,2.67,1,1.14,1.16,1.94,2.44,2.19,4.06.13.86.49,1.66-.49,1.88Z"/>
        <path class="cls-6" d="M44.48,59.54c5.08-.99,9.98-3.1,13.82-6.63,1.92-1.77,3.55-3.78,5.04-5.89-1.15,1.06-2.35,2.05-3.55,3.02-2.25,1.8-4.46,3.59-6.98,5.01-4.96,2.79-10.21,4.47-15.97,3.93-2.28-.21-4.54-.68-6.72-1.39,4.4,2.27,9.48,2.91,14.36,1.96Z"/>
        <path class="cls-7" d="M88.9,29.46c-.25-1.62-1.04-2.9-2.19-4.06-.79-.8-1.49-1.33-2.67-1-.08.02-.18.05-.29.08,1.66.63,2.39,2.65,1.75,4.48-.25.71-.65,1.35-.97,2.02-.28.58-.54,1.2-.95,1.7-.86,1.06-2.14,1.3-3.41,1.52.65.02,1.32.07,1.98.15.11.01.09.1.04.18-1.11.15-2.22.25-3.33.48-.26.05-.67.13-1.08.26-1.84.41-3.55,1.1-5.2,2.47-2.38,1.98-4.5,4.14-6.52,6.49-.03.04-.07.08-.1.12.9-.8,1.79-1.6,2.73-2.36,2.06-1.68,6.68-5.14,9.29-2.48,1.16,1.18,1.26,2.9,1.08,4.46-.21,1.83-.76,3.65-1.51,5.33-3.33,7.45-10.48,12.72-17.75,15.99-7.84,3.53-16.71,5.04-25.26,3.88-2.45-.33-4.9-.89-7.19-1.83-1.82-.75-3.8-1.64-5.17-3.09-1.76-1.85-3.17-4.8-5.51-5.81.06.07.12.13.2.18,1.86,1.29,1.32,3.77,2.01,5.7,1.33,3.71,3.64,7.13,6.69,9.6,3.71,2.14,7.89,3.76,12.12,4.42,8.41,1.3,16.89-.34,24.41-4.28,6.92-3.62,13.88-8.77,18.58-15.09,2.53-3.4,4.55-7.37,5.08-11.63.27-2.15.4-4.43-.13-6.55-.13-.51-.3-1.07-.51-1.64-.25-.8-.58-1.56-.93-2.34-.23-.52-.49-1.14-.89-1.59.09-.04.19-.06.26-.02.06.03.12.07.18.1.96-1.34,2.03-2.6,3.38-3.37.41-.23.81-.48,1.28-.59.98-.23.62-1.02.49-1.88Z"/>
        <path class="cls-7" d="M84.32,30.57c.6-1.22,1.34-2.45.97-3.87-.25-.99-1.13-1.85-2.14-2.05-.64.22-1.29.59-1.12,1.22.35,1.37.13,2.61-.37,3.92-.52,1.37-1.22,2.85-2.1,4.17.71-.12,1.42-.26,2.1-.47,1.5-.46,2.01-1.62,2.65-2.93Z"/>
        <path class="cls-3" d="M16.86,58.62c.35.24.62.53.82.85,1.22-.03,2.54-.34,3.29-1.26.69-.84.4-1.59-.21-2.19-.38.12-.77.2-1.15.17-.56-.05-1.09-.22-1.65-.27-1.36-.13-2.19,1.95-1.11,2.7Z"/>
        <path class="cls-3" d="M88.9,29.46c-.25-1.62-1.04-2.9-2.19-4.06-.79-.8-1.49-1.33-2.67-1-.6.17-2.27.5-2.02,1.48.35,1.37.13,2.61-.37,3.92-.55,1.45-1.3,3.01-2.23,4.39.9-.02,1.81.04,2.73.15.11.01.09.1.04.18-1.11.15-2.22.25-3.33.48-.26.05-.67.13-1.08.26-.99.22-1.95.53-2.88.98,1.73-.56,3.57-.76,5.42-.45,1.57.26,3.02.89,4.24,1.85-.12-.28-.24-.56-.37-.84-.23-.52-.49-1.14-.89-1.59.09-.04.19-.06.26-.02.06.03.12.07.18.1.96-1.34,2.03-2.6,3.38-3.37.41-.23.81-.48,1.28-.59.98-.23.62-1.02.49-1.88Z"/>
      </g>
      <path class="cls-2" d="M105.8,75.29s-1.72,13.27-33.56,0l-4.62,30.51s36.2-5.97,38.18-30.51Z"/>
    </g>
  </g>
</svg>