<?xml version="1.0" encoding="UTF-8"?>
<svg id="_圖層_9" data-name="圖層 9" xmlns="http://www.w3.org/2000/svg" viewBox="0 0 106.8 106.8">
  <defs>
    <style>
      .cls-1 {
        fill: #fcefdd;
      }

      .cls-2 {
        fill: #ac2836;
      }

      .cls-3 {
        fill: none;
        stroke-width: 3px;
      }

      .cls-3, .cls-4 {
        stroke: #231815;
        stroke-linecap: round;
        stroke-linejoin: round;
      }

      .cls-4 {
        fill: #fff;
        stroke-width: 2px;
      }

      .cls-5 {
        fill: #eb6563;
      }

      .cls-6 {
        fill: #23372f;
      }

      .cls-7 {
        fill: #005237;
      }

      .cls-8 {
        fill: #95c97b;
      }
    </style>
  </defs>
  <g>
    <polygon class="cls-4" points="1 105.8 1 1 105.8 1 105.8 75.29 67.62 105.8 1 105.8"/>
    <path class="cls-4" d="M105.8,75.29s-1.72,13.27-33.56,0l-4.62,30.51s36.2-5.97,38.18-30.51Z"/>
  </g>
  <g>
    <path class="cls-3" d="M87.17,58.11l.02-.02c-.29-.28-.58-.57-.86-.86-.5-.54-1.02-1.07-1.52-1.62-.36-.42-.72-.82-1.1-1.22-.83-.87-1.71-1.7-2.63-2.48-.71-.65-1.81-.11-2.57-.68-.02-.01-.03-.02-.05-.03h-.01s-.04-.03-.04-.03h-.01s-.03-.04-.03-.04h-.01s-.04-.04-.04-.04h0c-.45-.37-.81-.81-1.18-1.26h0c-.28-.35-.56-.7-.87-1.01-1.82-2.03-4.12-3.52-6.29-5.13-1.19-.88-2.36-1.79-3.48-2.74-1.35-1.17-2.67-2.36-3.93-3.63-1.37-1.39-2.99-2.51-4.67-3.49-1.55-.9-2.69-2.3-3.97-3.51-1.82-1.75-3.71-3.45-5.65-5.07l.02-.03c-.31-.25-.62-.5-.92-.75-1.29,1.66-2.48,3.41-3.77,5.07-1.21,1.51-1.69,3.43-2.59,5.11-.34.66-.97,1.07-1.53,1.52-1.44,1.11-2.86,2.3-3.86,3.84-1.35,2.05-2.75,4.08-4.1,6.14-1.23,1.88-2.52,3.73-3.76,5.61-1.81,2.87-3.84,5.6-5.57,8.51-1.07,1.42-2.01,2.95-2.99,4.43-.41.56-.81,1.13-1.16,1.74-.21.31-.41.62-.61.93-.31.44-.6.89-.89,1.34,2.58,1.39,5.21,2.68,7.94,3.75,1.19.48,2.4.94,3.62,1.33,7.74,2.57,15.97,3.56,24.11,3.34.03,0,.09,0,.12,0l1.44-.05c4.08-.2,8.13-.79,12.08-1.81,0,0,0,0,.01,0,.06-.02.12-.03.18-.05.01,0,.02,0,.04,0,.06-.01.11-.03.17-.04.02,0,.04,0,.05-.01.05-.01.1-.03.15-.04.03,0,.05-.01.08-.02.04-.01.09-.02.13-.04.03,0,.07-.02.1-.03.04,0,.07-.02.11-.03.07-.02.14-.04.21-.06h.03c.06-.03.13-.04.19-.06.02,0,.03,0,.05-.01.06-.02.12-.03.17-.05l.07-.02c.05-.02.11-.03.16-.05l.08-.02s.1-.03.15-.04c.03,0,.07-.02.1-.03.05-.01.09-.03.14-.04.04-.01.08-.02.12-.04.04-.01.08-.02.12-.04.08-.02.16-.05.23-.07h.02c.08-.03.15-.05.23-.08.02,0,.04-.01.06-.02.07-.02.13-.04.2-.07.03,0,.05-.02.08-.03.06-.02.13-.04.19-.06.03,0,.06-.02.08-.03.06-.02.12-.04.18-.06.03-.01.07-.02.1-.03.06-.02.12-.04.17-.06.03-.01.07-.02.1-.04.06-.02.11-.04.17-.06.04-.01.08-.03.11-.04.05-.02.11-.04.16-.06.04-.02.09-.03.13-.05.05-.02.1-.03.15-.05.05-.02.1-.04.15-.05.04-.01.08-.03.12-.05.09-.03.18-.07.27-.1h.02c.09-.04.18-.07.27-.11h.02c.09-.04.18-.08.26-.11h.03c.09-.05.17-.08.26-.11h.03c.09-.05.17-.08.26-.12h.03c.09-.05.17-.08.26-.12h.02c.09-.05.18-.08.27-.12,1.04-.43,2.07-.9,3.08-1.4,5.22-2.54,9.93-6.05,14.08-10.09-1.05-1.05-2.06-2.15-3.09-3.23Z"/>
    <g>
      <path class="cls-5" d="M76.27,48.8c-1.82-2.03-4.12-3.52-6.29-5.13-1.19-.88-2.36-1.79-3.48-2.74-1.35-1.17-2.67-2.36-3.93-3.63-1.37-1.39-2.99-2.51-4.67-3.49-1.55-.9-2.69-2.3-3.97-3.51-1.82-1.75-3.71-3.45-5.65-5.07l.02-.03c-.31-.25-.62-.5-.92-.75-1.29,1.66-2.48,3.41-3.77,5.07-1.21,1.51-1.69,3.43-2.59,5.11-.34.66-.97,1.07-1.53,1.52-1.44,1.11-2.86,2.3-3.86,3.84-1.35,2.05-2.75,4.08-4.1,6.14-1.23,1.88-2.52,3.73-3.76,5.61-1.81,2.87-3.84,5.6-5.57,8.51-1.07,1.42-2.01,2.95-2.99,4.43,1.07.46,2.14.9,3.22,1.33,3.44,1.37,7,2.44,10.63,3.18,1-.13,1.99-.29,2.98-.47,5.78-1.02,11.52-2.39,17.05-4.37,5.48-1.97,10.66-4.64,15.49-7.88,3.01-2.01,5.88-4.24,8.57-6.66-.28-.35-.56-.7-.87-1.01Z"/>
      <path class="cls-1" d="M49.68,35.13c1.03-.38,2.22-1.24,2.07-2.48-.22-1.46-2.03-2.21-3.33-1.77-1.52.36-2.47,2.2-1.76,3.62.59,1.05,2.03,1.02,3.02.63Z"/>
      <path class="cls-1" d="M45.35,37.48c.74.4,2.14.13,2.13-.89.1-1.08-1.33-1.62-2.16-1.14-.74.4-.77,1.67.03,2.03Z"/>
      <path d="M59.25,40.8l.04-.02c.48-.19.35-.8.11-1.11-.31-.39-.69-.72-1.13-.96-.21-.11-.48-.19-.65-.03-.15.14-.12.39-.05.59.19.55.96,1.74,1.68,1.53Z"/>
      <path d="M45.51,43.39c.28-.33.46-.76.59-1.17,0-.02.01-.05.02-.07.06-.27.11-.58.11-.87,0-.62-.79-.89-1.19-.42-.46.54-.67,1.31-.72,2,0,.02,0,.04,0,.07v.05c.02.63.8.9,1.2.42Z"/>
      <path d="M53.92,45.43l.02.04c.09.19.21.39.41.45,1.31.44.41-2.25.1-2.61-.71-.82-.98.59-.9,1.07.07.36.21.71.36,1.05Z"/>
      <path d="M51.12,46.98c-.11.5.04,1.09.17,1.56.11.34.32.79.63,1.05.36.31.91.12,1.04-.34.26-.9-.04-2.03-.77-2.63-.39-.32-.96-.13-1.07.37Z"/>
      <path d="M37.47,44.7c.91-.25,1.71-1.09,1.85-2.03.07-.5-.39-.89-.87-.72-.48.17-.91.61-1.24.95-.23.27-.51.68-.57,1.08-.08.47.37.84.83.71Z"/>
      <path d="M41.44,52.03s.09.03.14.03c.14,0,.28-.04.39-.13.15-.11.26-.27.35-.43.26-.43.46-.89.61-1.37.09-.29.15-.6.07-.88-.31-1.01-1.11-.04-1.4.41-.36.55-.63,1.29-.48,1.96.04.18.15.35.32.41Z"/>
      <path class="cls-2" d="M83.71,54.39c-.83-.87-1.71-1.7-2.63-2.48-.71-.65-1.81-.11-2.57-.68-.02-.01-.03-.02-.05-.03h-.01s-.04-.03-.04-.03h-.01s-.03-.04-.03-.04h-.01s-.04-.04-.04-.04h0c-.45-.37-.81-.81-1.18-1.26h0c-2.69,2.42-5.56,4.65-8.57,6.66-4.84,3.24-10.01,5.91-15.49,7.88-5.53,1.99-11.27,3.35-17.05,4.37-.99.17-1.98.33-2.98.47,3.3.68,6.65,1.09,10.01,1.23h.01c.06,0,.12,0,.18,0,0,0,0,0,.01,0,.06,0,.12,0,.17,0h.03c.05,0,.11,0,.16,0,.01,0,.02,0,.04,0,.05,0,.1,0,.15,0,.02,0,.03,0,.05,0,.05,0,.09,0,.14,0h.06s.08,0,.12,0c.02,0,.04,0,.07,0h.12s.05,0,.07,0c.04,0,.08,0,.12,0,.02,0,.05,0,.07,0,.04,0,.08,0,.12,0,.03,0,.05,0,.08,0,.04,0,.08,0,.12,0,.02,0,.04,0,.07,0,.04,0,.09,0,.13,0,.02,0,.04,0,.06,0,.06,0,.13,0,.19,0h.03c.06,0,.12,0,.18,0h.04c.05,0,.11,0,.16,0,.02,0,.04,0,.07,0h.14s.05,0,.07,0c.05,0,.09,0,.14,0,.03,0,.05,0,.08,0,.05,0,.09,0,.14,0,.02,0,.05,0,.07,0,.05,0,.11,0,.16,0h.05c.07,0,.14,0,.21,0,9.85-.18,19.65-2.84,28.18-7.77,3.48-2,6.66-4.47,9.7-7.07-.36-.42-.72-.82-1.1-1.22Z"/>
      <path class="cls-1" d="M84.81,55.61c-3.04,2.6-6.22,5.07-9.7,7.07-8.53,4.94-18.34,7.6-28.18,7.77-.07,0-.14,0-.21,0h-.05c-.05,0-.11,0-.16,0-.02,0-.05,0-.07,0-.05,0-.09,0-.14,0-.03,0-.05,0-.08,0-.05,0-.09,0-.14,0-.02,0-.05,0-.07,0h-.14s-.04,0-.07,0c-.05,0-.11,0-.16,0h-.04c-.06,0-.12,0-.18,0h-.03c-.06,0-.13,0-.19,0-.02,0-.04,0-.06,0-.04,0-.09,0-.13,0-.02,0-.04,0-.07,0-.04,0-.08,0-.12,0-.03,0-.05,0-.08,0-.04,0-.08,0-.12,0-.02,0-.05,0-.07,0-.04,0-.08,0-.12,0-.02,0-.05,0-.07,0h-.12s-.05,0-.07,0c-.04,0-.08,0-.12,0h-.06s-.09,0-.14,0c-.02,0-.03,0-.05,0-.05,0-.1,0-.15,0-.01,0-.02,0-.04,0-.05,0-.11,0-.16,0h-.03c-.06,0-.12,0-.17,0,0,0,0,0-.01,0-.06,0-.12,0-.18,0h-.01c-7.06-.29-14.07-1.8-20.64-4.41-1.08-.42-2.15-.87-3.22-1.33-.41.56-.81,1.13-1.16,1.74,5.39,2.58,11.11,4.5,17.01,5.49,9.82,1.67,20.04,1,29.52-2.09,8.05-2.56,15.53-6.88,21.76-12.59-.5-.54-1.02-1.07-1.52-1.62Z"/>
      <path class="cls-8" d="M61.18,72h0c1.72-.44,3.41-.95,5.09-1.54h.02s.08-.03.12-.05c.03-.01.06-.02.09-.03.03-.01.07-.02.1-.04.04-.01.08-.03.12-.04.03,0,.06-.02.08-.03.07-.02.13-.05.2-.07,7.46-2.62,14.26-6.88,20.18-12.09l.02-.02c-.29-.28-.58-.57-.86-.86-6.23,5.71-13.71,10.03-21.76,12.59-9.48,3.1-19.7,3.76-29.52,2.09-5.9-.99-11.62-2.91-17.01-5.49-.21.31-.41.62-.61.93,6.11,3.03,12.72,5.08,19.48,6,8.07,1.15,16.36.67,24.26-1.35Z"/>
      <path class="cls-7" d="M36.91,73.35c-6.77-.92-13.37-2.97-19.48-6-.31.44-.6.89-.89,1.34,2.58,1.39,5.21,2.68,7.94,3.75,1.19.48,2.4.94,3.62,1.33,7.74,2.57,15.97,3.56,24.11,3.34.03,0,.09,0,.12,0l1.44-.05c2.5-1.64,4.96-3.34,7.41-5.07-7.9,2.02-16.19,2.5-24.26,1.35Z"/>
      <path class="cls-6" d="M87.17,58.11c-5.92,5.21-12.72,9.47-20.18,12.09-.07.02-.13.05-.2.07-.03,0-.05.02-.08.03-.04.01-.08.03-.12.04-.03.01-.07.02-.1.04-.03.01-.06.02-.09.03-.04.01-.08.03-.12.04h-.01c-1.67.59-3.37,1.1-5.09,1.54h0c-2.44,1.73-4.9,3.43-7.41,5.07,4.08-.2,8.13-.79,12.08-1.81,0,0,0,0,.01,0,.06-.02.12-.03.18-.05.01,0,.02,0,.04-.01.06-.01.11-.03.17-.04.02,0,.04,0,.05-.01.05-.01.1-.03.15-.04.03,0,.05-.01.08-.02.04-.01.09-.02.13-.04.03,0,.07-.02.1-.03.04,0,.07-.02.11-.03.07-.02.14-.04.21-.06h.03c.06-.03.13-.04.19-.06.02,0,.03,0,.05-.01.06-.02.12-.03.17-.05l.07-.02c.05-.02.11-.03.16-.05l.08-.02s.1-.03.15-.04c.03,0,.07-.02.1-.03.05-.01.09-.03.14-.04.04-.01.08-.02.12-.04.04-.01.08-.02.12-.04.08-.02.16-.05.23-.07h.02c.08-.03.15-.05.23-.08.02,0,.04-.01.06-.02.07-.02.13-.04.2-.07.03,0,.05-.02.08-.03.06-.02.13-.04.19-.06.03,0,.06-.02.08-.03.06-.02.12-.04.18-.06.03-.01.07-.02.1-.03.06-.02.12-.04.17-.06.03-.01.07-.02.1-.04.06-.02.11-.04.17-.06.04-.01.08-.03.11-.04.05-.02.11-.04.16-.06.04-.02.09-.03.13-.05.05-.02.1-.03.15-.05.05-.02.1-.04.15-.05.04-.02.08-.03.12-.05.09-.03.18-.07.27-.1h.02c.09-.04.18-.07.27-.11h.02c.09-.04.18-.08.26-.11h.03c.09-.05.17-.08.26-.11h.03c.09-.05.17-.08.26-.12h.03c.09-.05.17-.08.26-.12h.02c.09-.05.18-.08.27-.12,1.04-.43,2.07-.9,3.08-1.4,5.22-2.54,9.93-6.05,14.08-10.09-1.05-1.05-2.06-2.15-3.09-3.23Z"/>
      <path class="cls-2" d="M71.68,51.23c2.87-.62.47-4.99-1.52-2.85-.41.44-.54.99-.46,1.48.14.87.94,1.6,1.98,1.37Z"/>
      <path class="cls-2" d="M68.6,53.66c.54-.23.83-.93.6-1.47-.22-.54-.92-.84-1.46-.63l-.07.03c-.53.25-.79.96-.55,1.49.24.54.94.81,1.48.58Z"/>
      <path class="cls-2" d="M29.5,61.5c.88.02,1.74-.51,2.17-1.28.21-.39.33-.85.22-1.28-.1-.4-.36-.73-.66-1-.42-.38-.92-.68-1.48-.76-1.48-.2-2.76,1.5-2.27,2.89.29.83,1.15,1.42,2.03,1.44Z"/>
      <path class="cls-2" d="M31.68,62.2c-.43.66.12,1.52.89,1.25,1.29-.46-.13-2.43-.89-1.25Z"/>
    </g>
  </g>
</svg>