<?xml version="1.0" encoding="UTF-8"?>
<svg xmlns="http://www.w3.org/2000/svg" xmlns:xlink="http://www.w3.org/1999/xlink" viewBox="0 0 132.73 214.47">
  <defs>
    <style>
      .cls-1, .cls-2, .cls-3 {
        fill: #373535;
      }

      .cls-4 {
        fill: #222323;
        mix-blend-mode: color-dodge;
      }

      .cls-5 {
        fill: #3d3938;
      }

      .cls-5, .cls-6, .cls-7, .cls-3 {
        mix-blend-mode: multiply;
      }

      .cls-8 {
        fill: #fff;
      }

      .cls-9 {
        fill: #0f0e0d;
      }

      .cls-6 {
        fill: none;
        stroke: #2f2a27;
        stroke-linecap: round;
        stroke-linejoin: round;
        stroke-width: 4px;
      }

      .cls-7, .cls-10, .cls-11 {
        fill: #2f2a27;
      }

      .cls-11, .cls-2, .cls-12 {
        mix-blend-mode: screen;
      }

      .cls-13 {
        isolation: isolate;
      }

      .cls-14 {
        fill: #261f1f;
      }

      .cls-15 {
        fill: #1c1715;
      }

      .cls-16 {
        fill: #393939;
      }

      .cls-17 {
        clip-path: url(#clippath);
      }

      .cls-12 {
        fill: #525151;
      }
    </style>
    <clipPath id="clippath">
      <path class="cls-8" d="M106.11,29.74H13.67l4.3,7.52h2.39c.09.16.16.31.18.43l9.68,59.88.61,3.75,1.33,8.12c2.14,13.04,6.52,25.49,13.02,36.99l34.34.86c7.05-12.07,11.73-25.2,13.91-39l4-25.41.54-3.44,1.28-8.13,5.12-34.04h1.74v-7.52Z"/>
    </clipPath>
  </defs>
  <g class="cls-13">
    <g id="_圖層_1" data-name="圖層 1">
      <g>
        <g>
          <g>
            <g>
              <path class="cls-16" d="M76.05,149.44h-26.85c-10.87,0-20.45,6.66-24.39,16.49h75.64c-3.94-9.83-13.52-16.49-24.39-16.49Z"/>
              <polygon class="cls-14" points="16.98 199.38 108.27 199.38 104.62 183.03 20.63 183.03 16.98 199.38"/>
              <path class="cls-1" d="M100.44,165.93H24.8c-.52,1.31-.95,2.67-1.27,4.07l-2.91,13.02h83.99l-2.91-13.02c-.31-1.41-.74-2.77-1.27-4.07Z"/>
            </g>
            <path class="cls-3" d="M101.71,170.01c-2.68-12.02-13.35-20.57-25.66-20.57h-3.64c12.31,0,22.98,8.55,25.66,20.57l6.56,29.37h3.64l-6.56-29.37Z"/>
            <path class="cls-2" d="M60.53,149.58l-11.33-.14c-12.31,0-22.98,8.55-25.66,20.57l-6.56,29.37h10.71l6.56-29.37c2.68-12.02,13.97-20.43,26.29-20.43Z"/>
          </g>
          <g>
            <g>
              <path class="cls-10" d="M107.14,199.38H18.11c-3.28,0-5.97,2.49-6.3,5.68h101.63c-.33-3.19-3.03-5.68-6.3-5.68Z"/>
              <path class="cls-15" d="M11.81,205.06c-.02.22-.03.44-.03.66v5.02h101.7v-5.02c0-.22-.01-.44-.03-.66H11.81Z"/>
            </g>
            <path class="cls-5" d="M107.14,199.38h-3.64c3.5,0,6.34,2.84,6.34,6.34v5.02h3.64v-5.02c0-3.5-2.84-6.34-6.34-6.34Z"/>
            <path class="cls-11" d="M28.82,199.38h-10.71c-3.5,0-6.34,2.84-6.34,6.34v5.02h10.71v-5.02c0-3.5,2.84-6.34,6.34-6.34Z"/>
          </g>
          <g>
            <rect class="cls-10" x="43.86" y="140.53" width="37.53" height="9.47"/>
            <rect class="cls-7" x="77.92" y="140.53" width="3.47" height="9.47"/>
            <rect class="cls-11" x="43.86" y="140.53" width="16.37" height="9.47"/>
            <rect class="cls-11" x="43.86" y="140.53" width="4.64" height="9.47"/>
          </g>
          <g>
            <g>
              <path class="cls-8" d="M109.78,46.55c-.88-.18-1.47-1-1.33-1.88l1.4-8.86c.25-1.58.94-2.17,1.76-2.17h.86c.92,0,1.66-.74,1.66-1.66l.15-5.93c.03-1.09-.85-1.99-1.94-1.99H6.37c0,4.59,3.31,8.64,7.67,9.43.71.13,1.28.66,1.4,1.37l10.4,63.53,1.81,11.06c2.29,13.97,6.98,27.3,13.95,39.63l41.94.94c6.59-11.28,11.24-23.43,13.87-36.16.16-.77.83-1.33,1.62-1.33h6.07c10.62,0,19.23-8.61,19.23-19.23v-29.54c0-8.31-6.36-15.49-14.55-17.19ZM120.72,93.28c0,8.63-6.99,15.62-15.62,15.62h-6.77l.1-.66s0-.03,0-.04l4.45-28.27,4.47-28.41c.15-.96,1.09-1.58,2.03-1.36,6.4,1.47,11.32,7.1,11.32,13.59v29.54Z"/>
              <g>
                <path class="cls-8" d="M106.11,29.74H13.67l4.3,7.52h2.39c.09.16.16.31.18.43l9.68,59.88.61,3.75,1.33,8.12c2.14,13.04,6.52,25.49,13.02,36.99l34.34.86c7.05-12.07,11.73-25.2,13.91-39l4-25.41.54-3.44,1.28-8.13,5.12-34.04h1.74v-7.52Z"/>
                <g class="cls-17">
                  <g>
                    <path class="cls-8" d="M92.25,83.15c-12.06-1.71-21.92-10.24-33.2-14.83-10.93-4.45-23.88-4.93-34.34.37l4.5,27.83.64,3.89,1.38,8.44c2.22,13.55,6.77,26.48,13.53,38.43l5.19-11.62c.29.52.85.84,1.45.84h22.76c.59,0,1.14-.31,1.43-.82l4.85,12.5c7.32-12.54,12.19-26.18,14.45-40.52l3.81-24.19c-2.15.06-4.3-.02-6.44-.32Z"/>
                    <path class="cls-8" d="M38.05,101.11c2.81-.12,5.71-.58,8.65-1.39,6.65-1.83,12.72-5.17,17.25-7.88.79-.47,1.58-.95,2.37-1.43,2.46-1.5,5-3.04,7.58-4.32,7.7-3.8,16.55-5.49,25.12-4.83l-4.16,26.4c-2.26,14.35-7.12,27.98-14.45,40.52l-5.33-11.67h-24.68l-5.67,10.78c-6.76-11.95-11.31-24.88-13.53-38.43l-1.38-8.44c1.47.33,2.99.55,4.55.66"/>
                    <path class="cls-8" d="M66.33,127.92c-.79.48-1.58.96-2.37,1.43-4.54,2.71-10.6,6.06-17.25,7.88-2.18.6-4.34,1-6.46,1.22,1.37,2.99,2.87,5.94,4.5,8.82l35.68.89c5.42-9.28,9.48-19.15,12.15-29.46-6.47.38-12.89,2.04-18.66,4.89-2.59,1.28-5.13,2.82-7.58,4.32Z"/>
                    <path class="cls-8" d="M31.31,116.33c1.01.17,2.03.3,3.07.37l3.67.04c2.81-.12,5.71-.58,8.65-1.39,6.65-1.83,12.72-5.17,17.25-7.88.79-.47,1.58-.95,2.37-1.43,2.46-1.5,5-3.04,7.58-4.32,7.29-3.6,15.62-5.3,23.76-4.91l1.36-8.61c-8.57-.66-17.42,1.03-25.12,4.83-2.59,1.28-5.13,2.82-7.58,4.32-.79.48-1.58.96-2.37,1.43-4.54,2.71-10.6,6.06-17.25,7.88-2.94.81-5.84,1.27-8.65,1.39l-3.67-.04c-1.56-.11-3.08-.32-4.55-.66l1.38,8.44c.03.18.06.36.09.54Z"/>
                  </g>
                </g>
              </g>
            </g>
            <g>
              <g>
                <rect class="cls-9" x="53.49" y="5.75" width="11.86" height="15.41" rx="5.41" ry="5.41"/>
                <g>
                  <rect class="cls-12" x="56.04" y="8.06" width=".94" height="7.4"/>
                  <rect class="cls-12" x="58.95" y="8.06" width=".94" height="7.4"/>
                  <rect class="cls-12" x="61.86" y="8.06" width=".94" height="7.4"/>
                </g>
                <rect class="cls-4" x="53.49" y="13.1" width="11.86" height=".87"/>
              </g>
              <g>
                <path class="cls-10" d="M107.19,18.52c0-2.51-2.04-4.55-4.55-4.55H18.57c-2.51,0-4.55,2.04-4.55,4.55v.49h93.17v-.49Z"/>
                <rect class="cls-15" x="14.03" y="19.01" width="93.17" height="5.03"/>
              </g>
              <path class="cls-11" d="M20.13,13.97h-1.56c-2.51,0-4.55,2.04-4.55,4.55v5.52h13.09v-10.07h-6.98Z"/>
              <path class="cls-7" d="M102.65,13.97h-3.62v10.07h8.16v-5.52c0-2.51-2.04-4.55-4.55-4.55Z"/>
            </g>
          </g>
        </g>
        <g>
          <path class="cls-6" d="M113.2,203.88c-.1-.34-.24-.67-.4-.99-.02-.03-.03-.07-.05-.1-.16-.3-.34-.59-.55-.86-.03-.04-.06-.08-.09-.11-.21-.26-.43-.51-.68-.73-.04-.04-.08-.07-.12-.1-.25-.22-.51-.42-.79-.6-.04-.03-.09-.05-.13-.08-.29-.17-.59-.33-.91-.46-.04-.02-.08-.03-.12-.05-.33-.12-.67-.23-1.02-.29-.03,0-.06,0-.09-.01-.37-.07-.75-.11-1.14-.11h1.13l-6.56-29.37c-.16-.72-.35-1.43-.57-2.12-.12-.39-.27-.76-.41-1.15-.1-.27-.18-.55-.29-.81-.01-.03-.02-.05-.03-.08-.13-.33-.29-.65-.43-.97-.14-.32-.28-.64-.44-.95-.16-.32-.33-.63-.51-.94-.17-.3-.33-.6-.51-.89-.18-.3-.38-.6-.57-.89-.19-.28-.38-.57-.58-.84-.2-.28-.41-.56-.63-.84-.21-.27-.44-.54-.66-.8-.22-.26-.44-.52-.67-.77-.24-.27-.5-.52-.75-.78-.23-.23-.45-.46-.69-.68-.3-.28-.62-.54-.93-.81-.21-.18-.41-.36-.62-.53-.52-.42-1.06-.81-1.61-1.19-.2-.14-.41-.26-.62-.39-.38-.24-.75-.48-1.14-.7-.25-.14-.5-.27-.75-.4-.36-.19-.72-.38-1.09-.55-.27-.13-.54-.24-.81-.36-.37-.16-.74-.31-1.12-.45-.28-.1-.56-.2-.84-.3-.39-.13-.78-.25-1.17-.36-.28-.08-.56-.16-.85-.23-.35-.09-.7-.16-1.05-.23h.03-37.53.03c-.35.07-.7.15-1.05.23-.28.07-.57.15-.85.23-.39.11-.79.23-1.17.36-.28.09-.56.19-.84.3-.38.14-.75.3-1.12.45-.27.12-.54.23-.81.36-.37.17-.73.36-1.1.55-.25.13-.51.26-.75.4-.39.22-.76.46-1.14.7-.21.13-.42.25-.62.39-.55.38-1.09.77-1.61,1.19-.21.17-.41.35-.62.53-.31.27-.63.53-.93.81-.24.22-.46.45-.69.68-.26.26-.51.51-.76.78-.23.25-.45.51-.67.77-.22.26-.45.53-.66.81-.21.27-.42.55-.62.83-.2.28-.39.56-.58.84-.2.29-.39.59-.57.89-.18.29-.34.59-.51.89-.17.31-.35.62-.51.94-.16.31-.3.63-.44.95-.15.32-.3.64-.43.97-.01.03-.02.05-.04.08-.11.27-.19.55-.29.82-.14.38-.28.75-.4,1.14-.22.69-.41,1.4-.57,2.12l-2.91,13.02-3.65,16.35h1.13c-.39,0-.77.04-1.14.11-.03,0-.06,0-.09.01-.35.07-.69.17-1.02.29-.04.02-.08.03-.12.05-.32.13-.62.28-.91.46-.04.03-.09.05-.13.08-.28.18-.55.38-.79.6-.04.03-.08.07-.11.1-.24.23-.47.47-.68.73-.03.04-.06.08-.09.11-.2.27-.39.56-.55.86-.02.03-.03.07-.05.1-.16.32-.29.64-.4.99,0,.02,0,.04-.02.06-.11.36-.18.73-.22,1.12h0c-.02.22-.03.44-.03.66v5.02h101.7v-5.02c0-.62-.09-1.21-.26-1.78,0-.02,0-.04-.02-.06Z"/>
          <path class="cls-6" d="M109.78,46.55c-.88-.18-1.47-1-1.33-1.88l1.4-8.86c.25-1.58.94-2.17,1.76-2.17h.86c.92,0,1.66-.74,1.66-1.66l.15-5.93c.03-1.09-.85-1.99-1.94-1.99H6.37c0,4.59,3.31,8.64,7.67,9.43.71.13,1.28.66,1.4,1.37l10.4,63.53,1.81,11.06c2.29,13.97,6.98,27.3,13.95,39.63l1.76.22c.29.52,40.18.72,40.18.72,6.59-11.28,11.24-23.43,13.87-36.16.16-.77.83-1.33,1.62-1.33h6.07c10.62,0,19.23-8.61,19.23-19.23v-29.54c0-8.31-6.36-15.49-14.55-17.19ZM120.72,93.28c0,8.63-6.99,15.62-15.62,15.62h-6.77l.1-.66s0-.03,0-.04l4.45-28.27,4.47-28.41c.15-.96,1.09-1.58,2.03-1.36,6.4,1.47,11.32,7.1,11.32,13.59v29.54Z"/>
          <path class="cls-6" d="M27.11,24.04h80.08v-5.52c0-2.51-2.04-4.55-4.55-4.55h-37.3v-2.3c0-3.27-2.65-5.93-5.93-5.93h0c-3.27,0-5.93,2.65-5.93,5.93v2.3H18.57c-2.51,0-4.55,2.04-4.55,4.55v5.52h13.09Z"/>
        </g>
      </g>
    </g>
  </g>
</svg>