<?xml version="1.0" encoding="UTF-8"?>
<svg id="_圖層_9" data-name="圖層 9" xmlns="http://www.w3.org/2000/svg" viewBox="0 0 106.8 106.8">
  <defs>
    <style>
      .cls-1 {
        fill: #b3bf06;
      }

      .cls-2 {
        fill: #007d38;
      }

      .cls-3 {
        fill: #94ad22;
      }

      .cls-4 {
        fill: #118c3b;
      }

      .cls-5 {
        fill: #d3d700;
      }

      .cls-6 {
        fill: #5b9e34;
      }

      .cls-7 {
        fill: none;
        stroke-width: 3px;
      }

      .cls-7, .cls-8 {
        stroke: #231815;
        stroke-linecap: round;
        stroke-linejoin: round;
      }

      .cls-8 {
        fill: #fff;
        stroke-width: 2px;
      }

      .cls-9 {
        fill: #a6bb14;
      }

      .cls-10 {
        fill: #c8cb00;
      }

      .cls-11 {
        fill: #7f572b;
      }

      .cls-12 {
        fill: #68452c;
      }
    </style>
  </defs>
  <polygon class="cls-8" points="1 105.8 1 1 105.8 1 105.8 75.29 67.62 105.8 1 105.8"/>
  <g>
    <g>
      <path class="cls-7" d="M28.44,75.29c-.02-.12-.03-.24-.05-.36,0,0,0,0,0,0,.02.12.03.24.05.36Z"/>
      <path class="cls-7" d="M64.66,39.12c-.8-1.74-1.48-3.72-2.4-5.39-1.32-2.41-2.95-3.68-5.23-4.16-.24-.05-.6-.1-1.02-.15,0-.04,0-.09-.01-.14-.1-.52-.85-3.51-.45-6.34.92-.11,2.56-1.64,4.56-1.16,3.35.79,7.56,3.16,11.69,1.79,6.12-2.03,10.72-12.95,10.72-12.95,0,0-1.03-.41-2.63-.87,0,0-.02,0-.02,0-.38-.11-.8-.22-1.24-.33-.13-.03-.27-.07-.41-.1-.79-.19-1.64-.36-2.54-.5-.13-.02-.26-.04-.39-.06-.82-.12-1.68-.2-2.54-.23-.13,0-.26,0-.39-.01-.31,0-.63,0-.94,0-.06,0-.11,0-.17,0-.37.01-.73.04-1.09.07-.15.01-.29.03-.44.05-.61.08-1.21.19-1.79.35,0,0,0,0,0,0-.18.05-.35.1-.53.16-.3.1-.6.21-.89.34-.26.11-.51.24-.76.37-.51.28-.98.57-1.4.87-.15.1-.29.2-.42.31-.17.13-.33.26-.49.39-.37.31-.7.62-1,.94-.09.09-.17.18-.25.28-1.73,1.97-2.36,4.11-3.35,6.25-.52,1.13-2.07,2.29-3.05,2.94.9-3.49,3.4-6.53,3.23-7.09-.16-.49-.82-.87-1.52-1.08h0c-.2-.06-.4-.1-.59-.13,0,0,0,0,0,0-.09-.01-.18-.03-.27-.03,0,0-.01,0-.02,0-.08,0-.16,0-.23-.01-.01,0-.03,0-.04,0-.07,0-.13,0-.19,0-.02,0-.04,0-.06,0-.06,0-.11.02-.15.02-.02,0-.04,0-.06.01-.05.01-.09.03-.13.04-.02,0-.04.01-.05.02-.05.02-.1.05-.13.08,0,0,0,0,0,0-.55.51-1.74,3.18-2.23,7.1-.05.43-.09.87-.11,1.31,0,.22-.02.44-.02.67,0,.22,0,.44,0,.67,0,.22.01.44.02.66.01.33.03.65.06.96.15,1.99.48,3.64.6,4.1,0,0,0,0,0,0,.01.05.03.1.05.15-.37,0-.71.02-.99.05-1.07.14-1.59.31-1.59.31-.57.14-1.13.33-1.68.55,0,0-.02,0-.03.01-.35.14-.69.3-1.01.47-.03.01-.05.03-.08.04-.16.09-.31.17-.47.27,0,0,0,0,0,0-.14.09-.28.18-.42.28-.03.02-.07.05-.1.07-.14.1-.27.2-.4.31-.69.57-1.24,1.26-1.74,2-.4.59-.76,1.22-1.12,1.85-.12.21-.24.42-.37.63-.52.89-1.05,1.75-1.72,2.5-1.1,1.24-2.24,2.29-3.39,3.35-.34.32-.69.63-1.04.95-.23.21-.46.43-.69.65-.11.11-.23.22-.34.33-.57.56-1.15,1.14-1.71,1.77-.34.38-.68.77-1.01,1.19-.56.69-1.11,1.45-1.65,2.29-.32.5-.64,1.03-.95,1.6-.11.2-.22.4-.33.61-.26.51-.51,1.03-.74,1.56s-.44,1.06-.64,1.6c-.16.43-.3.86-.44,1.3-.14.44-.26.88-.38,1.32-.17.67-.33,1.34-.46,2.01-.09.45-.17.9-.24,1.36-.28,1.82-.43,3.66-.46,5.49,0,.46-.01.92,0,1.37,0,.8.03,1.6.08,2.39.04.79.11,1.58.18,2.36,0,0,0,0,0,0,.09.91.24,1.84.41,2.78,0,0,0,0,0,0,.35,1.89.86,3.8,1.58,5.65.29.75.62,1.49.97,2.22.24.48.49.95.75,1.42.27.46.55.92.84,1.36,1.48,2.2,3.32,4.09,5.57,5.41.45.26.92.51,1.4.72.48.22.98.41,1.5.58.24.08.48.14.72.21.38.1.77.18,1.15.25.48.09.95.18,1.43.26.86.16,1.72.34,2.52.64,1.4.51,1.94,1.99,3.19,2.53.26.11.5.16.74.17.09,0,.18,0,.27-.01.04,0,.09-.01.13-.02.13-.03.26-.07.39-.12.08-.03.17-.07.25-.11s.16-.09.24-.14.16-.1.24-.15c.28-.19.55-.4.84-.6.04-.03.08-.06.12-.08.08-.06.16-.11.24-.16.04-.03.08-.05.12-.08.08-.05.17-.1.25-.14.09-.04.17-.08.26-.12.29-.11.59-.21.89-.3.3-.08.61-.15.92-.21.15-.03.31-.06.47-.08.31-.05.63-.1.94-.14.16-.02.32-.04.47-.06.19-.02.37-.05.56-.07.26-.03.51-.07.76-.11.39-.06.78-.13,1.16-.22.21-.05.43-.1.63-.16.2-.06.4-.12.6-.19,0,0,0,0,0,0,.22-.08.43-.17.65-.25.06-.03.13-.05.19-.08.16-.07.31-.14.47-.21.06-.03.13-.06.19-.09.21-.1.41-.2.61-.3.03-.02.06-.03.09-.05.17-.09.35-.19.52-.28.07-.04.14-.08.21-.12.13-.08.27-.16.4-.24.07-.04.14-.09.21-.13.18-.12.37-.24.55-.36.06-.04.12-.09.18-.13.13-.09.25-.18.38-.27.08-.06.16-.12.24-.18.11-.08.21-.16.31-.25.08-.06.16-.13.24-.19.16-.13.31-.26.47-.39.08-.07.17-.15.25-.22.09-.08.18-.16.27-.24.09-.08.17-.16.26-.25.08-.08.16-.16.24-.23.09-.08.17-.17.26-.25.14-.14.28-.29.42-.44,3.63-3.89,6.09-9.11,6.94-14.21,1.62-9.69,1.63-20.03-7.09-29-1.73-1.78-3.23-3.23-4.31-5.54ZM54.94,22.4s0-.02,0-.02c0,0,0,0,0,0h0s0,.01,0,.02Z"/>
    </g>
    <g>
      <path class="cls-10" d="M31.07,51.38c-.26.51-.51,1.03-.74,1.56.23-.53.48-1.04.74-1.56Z"/>
      <path class="cls-10" d="M47.14,31.67c.13-.11.26-.21.4-.31-.14.1-.27.2-.4.31-.69.57-1.24,1.26-1.74,2,.5-.74,1.06-1.43,1.74-2Z"/>
      <path class="cls-10" d="M35.01,45.7c-.34.38-.68.77-1.01,1.19.33-.42.67-.81,1.01-1.19Z"/>
      <path class="cls-10" d="M60.92,93.25c.2-.06.4-.12.6-.19,0,0,0,0,0,0,0,0,0,0,0,0-.2.07-.4.13-.6.19Z"/>
      <path class="cls-10" d="M27.79,69.79c.04.79.11,1.58.18,2.36.2,2.06.62,4.22,1.27,6.34-.65-2.12-1.06-4.28-1.27-6.34-.08-.78-.14-1.56-.18-2.36Z"/>
      <path class="cls-5" d="M68.97,44.66c-1.73-1.78-3.23-3.23-4.31-5.54-.8-1.74-1.48-3.72-2.4-5.39-1.32-2.41-2.95-3.68-5.23-4.16-.24-.05-.6-.1-1.02-.15-.18-.02-.37-.04-.57-.05-.5-.04-1.04-.07-1.53-.06-.37,0-.71.02-.99.05-1.07.14-1.59.31-1.59.31-4.21,4.56-6.86,10.55-8.55,16.45-.92,3.21-1.58,6.51-1.92,9.84-.32,3.15-.49,6.3-.26,9.46.44,6.22,2.32,12.61,6.9,17.07,2.42,2.35,5.45,4.06,8.63,5.15,3,1.03,6.2,1.43,9.36,1.05,1.25-.15,2.47-.43,3.64-.83,3.63-3.89,6.09-9.11,6.94-14.21,1.62-9.69,1.63-20.03-7.09-29Z"/>
      <path class="cls-5" d="M75.58,60.95c-.77-5.84-3.21-10.45-5.75-12.82-3.42-3.2-6.07-5.76-7.73-11.29-.81-2.71-3.61-7.03-6.79-4.65-1.73,1.3-2.21,4.05-2.73,5.94-1.02,3.76-1.33,7.76-1.14,11.65.35,7.43,2.37,15.75,8.42,20.58,3.04,2.43,9.92,3.88,13.59.28,2.74-2.69,2.38-7.83,2.13-9.68Z"/>
      <path class="cls-9" d="M65.48,88.7c-3.16.38-6.36-.02-9.36-1.05-3.18-1.09-6.22-2.79-8.63-5.15-4.58-4.46-6.45-10.85-6.9-17.07-.23-3.16-.06-6.31.26-9.46.34-3.33,1-6.63,1.92-9.84,1.69-5.9,4.34-11.88,8.55-16.45-.57.14-1.13.33-1.68.55,0,0-.02,0-.03.01-.35.14-.69.3-1.01.47-.03.01-.05.03-.08.04-.16.09-.31.17-.47.27,0,0,0,0,0,0-.14.09-.28.18-.42.28-.03.02-.07.05-.1.07-.14.1-.27.2-.4.31-.69.57-1.24,1.26-1.74,2-.4.59-.76,1.22-1.12,1.85-.12.21-.24.42-.37.63-.52.89-1.05,1.75-1.72,2.5-1.1,1.24-2.24,2.29-3.39,3.35-.34.32-.69.63-1.04.95-.23.21-.46.43-.69.65-.12.11-.23.22-.34.33-.57.56-1.15,1.14-1.71,1.77-.34.38-.68.77-1.01,1.19-.56.69-1.11,1.45-1.65,2.29-.32.5-.64,1.03-.95,1.6-.11.2-.22.4-.33.61-.53,1.02-.99,2.07-1.38,3.15-.16.43-.3.86-.44,1.3-.14.44-.26.88-.38,1.32-.17.67-.33,1.34-.46,2.01-.09.45-.17.9-.24,1.36-.28,1.82-.43,3.66-.46,5.49,0,.46-.01.92,0,1.37.02,1.6.11,3.19.26,4.75.27,2.75.92,5.67,1.99,8.43.29.75.62,1.49.97,2.22.24.48.49.95.75,1.42.27.46.55.92.84,1.36,1.48,2.2,3.32,4.09,5.57,5.41.45.26.92.51,1.4.72.48.22.98.41,1.5.58.24.08.48.14.72.21.38.1.77.18,1.15.25.48.09.95.18,1.43.26.86.16,1.72.34,2.52.64,1.4.51,1.94,1.99,3.19,2.53.26.11.5.16.74.17.09,0,.18,0,.27-.01.04,0,.09-.01.13-.02.13-.03.26-.07.39-.12.08-.03.17-.07.25-.11.08-.04.16-.09.24-.14.08-.05.16-.1.24-.15.28-.19.55-.4.84-.6.04-.03.08-.06.12-.08.08-.06.16-.11.24-.16.04-.03.08-.05.12-.08.08-.05.17-.1.25-.14.09-.04.17-.08.26-.12.29-.11.59-.21.89-.3.3-.08.61-.15.92-.21.15-.03.31-.06.47-.08.31-.05.63-.1.94-.14.16-.02.32-.04.47-.06.19-.02.37-.05.56-.07.26-.03.51-.07.76-.11.39-.06.78-.13,1.16-.22.21-.05.42-.1.63-.16.2-.06.4-.12.6-.19,0,0,0,0,0,0,.22-.08.43-.17.65-.25.06-.03.13-.05.19-.08.16-.07.31-.14.47-.21.06-.03.13-.06.19-.09.21-.1.41-.2.61-.3.03-.02.06-.03.09-.05.17-.09.35-.19.52-.28.07-.04.14-.08.21-.12.13-.08.27-.16.4-.24.07-.04.14-.09.21-.13.18-.12.37-.24.55-.36.06-.04.12-.09.18-.13.13-.09.25-.18.38-.27.08-.06.16-.12.24-.18.11-.08.21-.16.31-.25.08-.06.16-.13.24-.19.16-.13.31-.26.47-.39.08-.07.17-.15.25-.22.09-.08.18-.16.27-.24.09-.08.17-.16.26-.25.08-.08.16-.16.24-.23.09-.08.17-.17.26-.25.14-.14.28-.29.42-.43h0c-1.17.39-2.38.68-3.64.83Z"/>
      <path class="cls-1" d="M66.01,66c.02-.06.04-.11.04-.19,0-.12-.02-.2-.06-.3-.07-.16-.26-.27-.44-.28s-.37.08-.46.24c-.05.1-.09.18-.09.29,0,.08,0,.12.03.19.03.11.08.2.17.27.08.07.19.12.3.12.09,0,.18-.02.26-.06.12-.06.2-.18.25-.29Z"/>
      <path class="cls-1" d="M65.11,69.44c-.37-.02-.4.56-.03.57s.4-.56.03-.57Z"/>
      <path class="cls-1" d="M68.34,72.13c.52.02.56-.79.04-.81s-.56.79-.04.81Z"/>
      <path class="cls-1" d="M59.43,68.41c.4.02.43-.6.03-.62s-.43.6-.03.62Z"/>
      <path class="cls-1" d="M71.59,58.78c-.56-.03-.6.85-.04.88s.6-.85.04-.88Z"/>
      <path class="cls-1" d="M73.43,64.55c-.11-.12-.24-.2-.39-.25-.21-.07-.43-.03-.6.1-.11.08-.2.19-.25.32-.13.19-.17.44-.13.65.06.28.28.51.55.6.28.09.59.02.81-.18.21-.19.33-.51.25-.79-.05-.17-.11-.32-.23-.45Z"/>
      <path class="cls-1" d="M68.1,55.42s.11.08.16.1c.08.03.17.02.25,0,.13-.05.25-.18.25-.33,0-.13-.06-.26-.17-.33-.07-.05-.15-.06-.24-.06-.08,0-.17.04-.22.09-.03.03-.06.07-.09.1-.09.1-.1.22-.01.32.03.04.06.07.08.11Z"/>
      <path class="cls-1" d="M69.7,66.28c.25.01.27-.38.02-.39s-.27.38-.02.39Z"/>
      <path class="cls-11" d="M59,14.77c-.16-.49-.82-.87-1.52-1.08-.77.94-1.45,1.94-1.93,3.08-.57,1.34-.84,2.87-.98,4.32-.15,1.49-.07,3.04.04,4.54.1,1.31.34,2.56.84,3.76.2.02.39.03.57.05,0-.04,0-.09-.01-.14-.1-.52-.85-3.51-.45-6.34-.07,0-.13,0-.19,0-.44-.06-.43-.57-.43-.57,0,0,.34-.19.84-.53.89-3.49,3.41-6.54,3.23-7.09Z"/>
      <path class="cls-12" d="M55.54,16.76c.48-1.14,1.16-2.14,1.93-3.08,0,0,0,0,0,0-.2-.06-.4-.1-.59-.13,0,0,0,0,0,0-.09-.01-.18-.03-.27-.03,0,0-.01,0-.02,0-.08,0-.16,0-.23-.01-.01,0-.03,0-.04,0-.07,0-.13,0-.19,0-.02,0-.04,0-.06,0-.06,0-.11.02-.15.02-.02,0-.04,0-.06.01-.05.01-.09.03-.13.04-.02,0-.04.01-.05.02-.05.02-.1.05-.13.08,0,0,0,0,0,0-.55.51-1.74,3.18-2.23,7.1-.05.43-.09.87-.11,1.31,0,.22-.02.44-.02.67,0,.22,0,.44,0,.67,0,.22.01.44.02.66.01.33.03.65.06.96.15,1.99.48,3.64.6,4.1,0,0,0,0,0,0,.01.05.03.1.05.15.49,0,1.03.02,1.53.06-.49-1.2-.74-2.46-.84-3.76-.11-1.5-.19-3.04-.04-4.54.15-1.44.41-2.98.98-4.32Z"/>
      <path class="cls-2" d="M54.97,22.61c.02.07.1.33.4.35.06,0,.12,0,.18,0,.92-.11,2.56-1.64,4.56-1.16,3.35.79,7.56,3.16,11.69,1.79,6.12-2.03,10.72-12.95,10.72-12.95,0,0-5.61.85-11.23,3.28-6.89,2.98-11.38,7-16.33,8.69Z"/>
      <path class="cls-4" d="M79.87,9.77c-.38-.11-.8-.22-1.24-.33-.13-.03-.27-.07-.41-.1-.79-.19-1.64-.36-2.54-.5-.13-.02-.26-.04-.39-.06-.82-.12-1.68-.2-2.54-.23-.13,0-.26,0-.39-.01-.31,0-.63,0-.94,0-.06,0-.11,0-.17,0-.37.01-.73.04-1.09.07-.15.01-.29.03-.44.05-.61.08-1.21.19-1.79.35,0,0,0,0,0,0-.18.05-.35.1-.53.16-.3.1-.6.21-.89.34-.26.11-.51.24-.76.37-.51.28-.98.57-1.4.87-.15.1-.29.2-.42.31-.17.13-.33.26-.49.39-.37.31-.7.62-1,.94-.09.09-.17.18-.25.28-1.73,1.97-2.36,4.11-3.35,6.25-.78,1.68-3.89,3.47-3.89,3.47,0,0,0,.1.03.22,4.95-1.69,9.43-5.7,16.33-8.69,5.62-2.43,11.23-3.28,11.23-3.28h0s-1.03-.41-2.63-.87c0,0-.02,0-.02,0Z"/>
      <path class="cls-4" d="M76.68,12.47c.04.22.25.43.43.55-.58.1-.85-.33-1.51-.14-.86.25-2.61.56-3.25,1.2.08.11.12.35.2.45-.28-.1-.47-.26-.77-.25-.5.02-1.43.55-1.85.76-1.3.67.28,1.3.4,2.3-.63-.11-.83-1.08-1.46-1.29-.55-.18-1.64.47-2.19.7-.53.23-1.08.56-1.56.88-.29.2-.75.44-.9.76-.24.52.22.74.38,1.25-.42.04-.67-.62-.92-.88-1.4.47-2.69,1.82-4.04,2.45.23.04,1.06.12,1.51.2.61.11,1.2.24,1.8.41,1.12.31,2.21.76,3.35,1.01,1.68.37,3.71.72,5.39.28.02-.36-.49-.35-.74-.5-.6-.35-1.09-.96-1.49-1.48-.53-.7-1.08-1.42-1.68-2.06-.45-.48-1.08-.94-1.38-1.52.86-.07,2.47,1.74,3.04,2.24.84.74,1.51,1.68,2.37,2.38.77.63,1.52.14,2.34-.4.95-.62,2.18-1.65,2.72-2.68-.85-.81-2.07-1.3-3.12-1.76-.93-.41-2.3-.85-2.88-1.75.49.07.93.35,1.39.52.76.29,1.56.46,2.32.77.67.28,1.31.76,2.01.98,1,.32,1.82-.98,2.3-1.79-.24-.31-.58-.42-.92-.62-.52-.3-1.62-.69-1.97-1.12.98-.58,2.22,1.38,3.15.63.53-.43,1.09-1.78,1.42-2.36.23-.42.87-1.01,1.11-1.41-.79,0-2.2.72-3.02.87-.63.11-1.43.15-1.99.43Z"/>
      <path class="cls-3" d="M48.87,72.17c-.06-.12-.14-.22-.25-.3-.06-.07-.13-.11-.22-.14-.12-.07-.25-.1-.39-.11-.09,0-.18.02-.27.02l-.25.09c-.16.08-.28.2-.38.35l-.03.04c-.09.14-.14.3-.15.47,0,.17.03.33.11.48l.03.04c.06.12.14.22.25.3.06.07.13.11.22.14.12.07.25.1.39.11.09,0,.18-.02.27-.02.08-.03.17-.06.25-.09.12-.06.22-.14.3-.25.07-.06.11-.13.14-.22.07-.12.1-.25.11-.39,0-.09-.02-.18-.02-.27l-.09-.25Z"/>
      <path class="cls-3" d="M54.09,71.95c.68.03.73-1.03.05-1.06s-.73,1.03-.05,1.06Z"/>
      <path class="cls-3" d="M58.73,73.69c-.76-.03-.81,1.14-.05,1.18s.81-1.14.05-1.18Z"/>
      <path class="cls-3" d="M56.88,78.93c-.71-.03-.76,1.07-.05,1.1s.76-1.07.05-1.1Z"/>
      <path class="cls-3" d="M61.16,83.58c-.09,0-.18.03-.25.09-.04.03-.06.07-.08.11-.02.04-.04.08-.04.13,0,.09.03.18.09.25.07.07.15.11.24.11.09,0,.18-.03.25-.09.04-.03.06-.07.08-.11.02-.04.04-.08.04-.13,0-.09-.03-.18-.09-.25-.07-.07-.15-.11-.24-.11Z"/>
      <path class="cls-3" d="M68.93,76.15c-.05-.12-.13-.2-.23-.28-.16-.12-.42-.13-.59-.03-.11.07-.2.14-.26.26-.02.03-.03.06-.05.09-.07.1-.1.21-.11.33,0,.12.02.24.08.34.11.21.33.35.56.36s.47-.11.6-.31c.07-.1.1-.21.11-.33,0-.12-.02-.24-.08-.34-.01-.03-.03-.06-.04-.09Z"/>
      <path class="cls-3" d="M63.99,75.2h0c-.06-.07-.13-.13-.22-.16-.08-.05-.17-.07-.26-.07-.06,0-.12.01-.19.02-.12.03-.22.08-.31.16h0c-.09.09-.16.19-.19.3-.04.12-.04.25-.02.37,0,.03.01.06.02.08.02.06.04.11.06.17.04.08.09.15.17.2.04.04.09.08.15.09.08.05.17.07.26.07.06,0,.12-.01.18-.02.06-.02.11-.04.17-.06.08-.04.15-.09.2-.17.06-.06.11-.14.13-.23,0-.03.02-.05.02-.08.04-.12.04-.25.02-.37-.03-.12-.08-.23-.17-.32Z"/>
      <path class="cls-3" d="M66.08,81.45c-.38-.02-.41.57-.03.59s.41-.57.03-.59Z"/>
      <path class="cls-3" d="M72.77,72.69s-.06-.08-.1-.11c-.03-.04-.08-.06-.12-.08-.04-.03-.09-.04-.14-.05-.08-.02-.15-.02-.23,0-.05.02-.09.03-.14.05l-.06.04h0s0,0,0,0l-.06.04h0s-.06.07-.09.11c-.02.05-.04.09-.06.14-.02.05-.02.09-.02.14v.02s0,.05,0,.08c0,.03,0,.05,0,.07h0c.02.05.03.1.05.15.02.04.05.08.08.11h0c.05.07.11.11.18.14.03.02.05.03.08.04.04.01.09.02.14.02.03,0,.05,0,.08,0,.05,0,.1,0,.15-.03.07-.02.14-.06.19-.11.03-.04.06-.08.1-.11.02-.05.04-.09.06-.14,0-.05.02-.1.03-.15,0-.05,0-.1-.01-.15-.01-.08-.05-.14-.09-.2Z"/>
      <path class="cls-3" d="M51.28,78.7c-.07-.13-.16-.23-.28-.31-.12-.08-.26-.12-.41-.13-.15,0-.29.02-.42.09-.13.07-.23.16-.31.28-.1.12-.14.22-.21.37-.06.14-.08.3-.09.46-.02.24.09.53.25.7.16.18.43.32.68.32.25,0,.52-.07.7-.25.18-.18.32-.42.32-.68,0-.16,0-.32-.05-.46-.05-.14-.09-.27-.17-.39Z"/>
      <path class="cls-3" d="M56.41,84.21c-.54-.02-.58.82-.04.85s.58-.82.04-.85Z"/>
      <path class="cls-3" d="M46.34,78.08c.29.01.31-.44.02-.45s-.31.44-.02.45Z"/>
      <path class="cls-3" d="M52,75.1c-.48-.02-.51.72-.03.74s.51-.72.03-.74Z"/>
      <path class="cls-3" d="M39.14,76.07c-.07-.03-.14-.07-.21-.1-.16-.05-.31-.06-.47-.02-.15.04-.29.11-.4.21-.12.11-.2.23-.25.38-.05.17-.06.3-.02.47.02.08-.14-.2.08.22.07.14.18.25.31.33.1.07.21.11.33.12.12.03.24.03.36,0,.15-.04.29-.11.4-.21.12-.11.2-.23.25-.38.01-.08.03-.16.04-.24,0-.16-.03-.31-.1-.46-.07-.14-.18-.25-.31-.33Z"/>
      <path class="cls-3" d="M43.22,82.55c.02-.06.03-.11.02-.17,0-.04,0-.08-.02-.11-.01-.05-.04-.1-.08-.14-.03-.02-.06-.05-.08-.07-.03-.02-.07-.03-.1-.05-.06-.02-.11-.03-.17-.02-.04,0-.08,0-.11.02-.05.01-.1.04-.14.08-.02.03-.05.06-.07.08-.02.03-.03.07-.05.1-.02.08-.03.15-.01.23v.03c.02.06.05.12.09.17.05.05.1.08.16.1h.03c.06.03.11.03.17.02.04,0,.08,0,.11-.02.05-.01.1-.04.14-.08.02-.03.05-.06.07-.08.02-.03.03-.07.05-.1Z"/>
      <path class="cls-3" d="M38.2,85.26c-.5-.02-.54.76-.04.78s.54-.76.04-.78Z"/>
      <path class="cls-3" d="M39.81,80.07c-.09,0-.19.03-.26.09-.04.03-.06.07-.08.11-.02.04-.04.09-.04.14,0,.09.03.19.09.26.07.07.15.11.25.12.09,0,.19-.03.26-.09.04-.03.06-.07.08-.11.02-.04.04-.09.04-.14,0-.09-.03-.19-.09-.26-.07-.07-.15-.11-.25-.12Z"/>
      <path class="cls-3" d="M33.93,80.48c-.1,0-.2.03-.27.1-.04.03-.07.07-.08.12-.03.04-.04.09-.04.14,0,.1.03.2.1.27.07.07.16.12.26.12.1,0,.2-.03.27-.1.04-.03.07-.07.08-.12.03-.04.04-.09.04-.14,0-.1-.03-.2-.1-.27-.07-.07-.16-.12-.26-.12Z"/>
      <path class="cls-3" d="M31.23,77.49s-.03-.08-.05-.13c-.03-.06-.07-.11-.13-.15-.03-.03-.07-.06-.11-.07-.06-.04-.13-.05-.2-.05-.05,0-.09,0-.14.01-.04.02-.08.03-.13.05-.06.03-.11.07-.15.13-.05.05-.08.11-.1.17l-.02.06c-.04.11-.05.22-.02.33.02.04.03.09.05.13.03.07.08.12.13.16.03.04.07.06.12.08.06.04.13.06.21.06.05,0,.1,0,.15-.01.04-.02.09-.03.13-.05.07-.03.12-.08.16-.13.05-.05.09-.11.11-.18.04-.11.04-.22,0-.33v-.06Z"/>
      <path class="cls-3" d="M36.84,66.87c-1-.05-1.07,1.51-.07,1.55s1.07-1.51.07-1.55Z"/>
      <path class="cls-3" d="M35.91,72.13c-.09-.06-.19-.09-.29-.11-.06-.02-.13-.03-.19-.03h0s0,0,0,0c-.05,0-.09,0-.14,0h0c-.06,0-.12.01-.18.02-.1.02-.19.06-.26.12-.13.09-.24.22-.29.38,0,.02-.01.05-.02.07h0s0,0,0,0c0,.03-.01.05-.01.08,0,.05-.02.1-.03.15-.01.12.01.23.06.34.02.07.03.09.05.13.04.07.1.14.15.21.11.12.24.2.39.25.16.05.32.06.48.02.15-.04.29-.11.41-.21.09-.08.16-.17.2-.28.06-.1.09-.22.09-.34,0-.16-.03-.32-.1-.46-.07-.14-.18-.25-.31-.34Z"/>
      <path class="cls-3" d="M30.89,65.65s.05-.04.08-.06c.02-.03.04-.05.06-.08l.04-.09s.01-.07.02-.1c0-.03,0-.07,0-.1l-.04-.1-.06-.08s-.07-.07-.12-.09c-.03-.02-.06-.03-.1-.03-.03-.01-.07-.01-.1,0-.04,0-.07,0-.1.02-.03,0-.06.02-.09.05-.04.03-.08.06-.11.11v.02s-.01,0-.01,0c-.03.04-.04.08-.05.13,0,.03-.01.06,0,.09,0,.03,0,.06.02.09l.02.06s0,.01.03.05c.02.03.04.05.07.07.04.04.08.06.13.08.03,0,.07.01.1.02.03,0,.07,0,.1,0l.1-.04Z"/>
      <path class="cls-3" d="M34.67,59.1c-.38-.02-.41.57-.03.59s.41-.57.03-.59Z"/>
      <path class="cls-3" d="M36.83,62.14c.45.02.48-.67.03-.69s-.48.67-.03.69Z"/>
      <path class="cls-3" d="M35.48,51.25c.28.01.3-.42.02-.44s-.3.42-.02.44Z"/>
      <path class="cls-3" d="M32.33,54.88c-.79-.04-.84,1.19-.06,1.22s.84-1.19.06-1.22Z"/>
      <path class="cls-3" d="M37.38,53.59s.05.07.08.1c.02.02.04.04.07.05.04.02.08.03.13.04.06,0,.12-.01.17-.04.04-.02.07-.05.1-.08.02-.02.04-.04.05-.07.02-.04.03-.08.04-.13,0-.03,0-.06,0-.09-.01-.03-.02-.06-.03-.08-.03-.05-.07-.09-.12-.13l-.05-.03c-.07-.05-.17-.05-.24-.01l-.05.03s-.07.05-.1.08c-.02.02-.04.04-.05.07-.02.04-.03.08-.04.13,0,.03,0,.06,0,.09.01.03.02.06.03.08Z"/>
      <path class="cls-3" d="M39.3,47.19s.03-.08.03-.12c0-.08-.02-.17-.08-.23-.06-.06-.14-.1-.23-.11-.08,0-.17.03-.23.08-.03.03-.06.06-.07.1-.02.04-.03.08-.03.12,0,.08.02.17.08.23.06.06.14.1.23.11.08,0,.17-.03.23-.08.03-.03.06-.06.07-.1Z"/>
      <path class="cls-3" d="M30.91,70.93c.15,0,.3-.07.39-.2.04-.07.07-.14.07-.22,0-.08-.01-.15-.05-.22-.02-.03-.04-.06-.06-.08-.03-.06-.07-.1-.13-.14-.06-.04-.12-.06-.18-.06-.07,0-.13.01-.19.04-.06.03-.1.07-.14.13-.02.03-.04.05-.06.08-.04.07-.07.14-.07.22,0,.08.01.15.05.22.07.14.21.23.37.23Z"/>
      <path class="cls-3" d="M46.05,84.6c-.48-.02-.51.72-.03.74s.51-.72.03-.74Z"/>
      <path class="cls-3" d="M43.45,88.63c-.77-.03-.82,1.16-.05,1.19s.82-1.16.05-1.19Z"/>
      <path class="cls-3" d="M49.2,88.53c-.63-.03-.68.95-.04.98s.68-.95.04-.98Z"/>
      <path class="cls-3" d="M42.11,85.27c-.43-.02-.46.64-.03.66s.46-.64.03-.66Z"/>
      <path class="cls-3" d="M38.5,88.74c-.33-.01-.35.5-.02.51s.35-.5.02-.51Z"/>
      <path class="cls-3" d="M36.64,81.56c-.29-.01-.31.44-.02.45s.31-.44.02-.45Z"/>
      <path class="cls-3" d="M52.63,89.02c-.8-.04-.85,1.2-.06,1.24s.85-1.2.06-1.24Z"/>
      <path class="cls-3" d="M50.51,92.63c-.47-.02-.5.7-.03.72s.5-.7.03-.72Z"/>
      <path class="cls-3" d="M57.53,89.95c-.48-.02-.51.72-.03.74s.51-.72.03-.74Z"/>
      <path class="cls-3" d="M62.81,90.25c-.4-.02-.43.6-.03.62s.43-.6.03-.62Z"/>
      <path class="cls-3" d="M65.1,85.25c-.46-.02-.49.69-.03.71s.49-.69.03-.71Z"/>
      <path class="cls-3" d="M60.09,91.78c-.35-.02-.37.53-.02.54s.37-.53.02-.54Z"/>
      <path class="cls-3" d="M53.28,93.18c-.07.02-.14.07-.18.13-.05.08-.07.21-.01.3l.02.03s.04.05.06.07h.01s.07.05.12.06c.04.01.08.01.12,0,.05-.01.1-.03.13-.07.06-.05.09-.13.1-.2,0-.19-.17-.34-.36-.3Z"/>
      <path class="cls-3" d="M70.92,81.36c-.09,0-.2.03-.27.1-.04.03-.06.07-.08.12-.03.04-.04.09-.04.14,0,.1.03.2.1.27.07.07.16.12.26.12.09,0,.2-.03.27-.1.04-.03.06-.07.08-.12.03-.04.04-.09.04-.14,0-.1-.03-.2-.1-.27-.07-.07-.16-.12-.26-.12Z"/>
      <path class="cls-6" d="M74.56,9.07c-.6-.04-.02,2.16-1.07,2.61-.14-.54.12-2.02.19-2.62.04-.39-2.52-.59-2.7.13-.18.71-.28,1.68-.45,2.39-.19.79-.54,1.52-.78,1.95-.17-.47-.11-1.08.11-2.06.25-1.12.49-1.25.34-2.41-1.15-.18-5.28,1.43-5.29,2.23,0,1.11.19,1.32.29,2.43.07.76.38,1.79-.18,2.44-.11-.53-.29-1.36-.41-2-.16-.87-.7-1.8-.63-2.48.03-.3-2.15,1.65-2.85,3.23-.47,1.07-1,1.74-1.42,2.83-.23.58-.47,1.14-.74,1.69-.2.41-.63,1.13-.74,1.34,1.31-.71,2.72-1.47,3.94-2.32-.06-.36-.23-1.13.05-1.45.31.43.31,1.3.6,1.08.28-.22,3.73-2.16,4.25-2.41.39-.19.05-1.08.34-1.66.73.68.21,1.47.76,1.13.93-.58,3.27-2.08,6.17-2.66.35-.07.41-.63.83-1.04-.01.22.05.65.21.81.56-.28,1.67-.66,2.25-.91.84-.36,3.35-.23,3.82-.86-.47-.04-3.45-.93-3.92-.99-.66-.09-2.26-.35-2.97-.4Z"/>
    </g>
  </g>
  <path class="cls-8" d="M105.8,75.29s-1.72,13.27-33.56,0l-4.62,30.51s36.2-5.97,38.18-30.51Z"/>
</svg>