<?xml version="1.0" encoding="UTF-8"?>
<svg id="_圖層_9" data-name="圖層 9" xmlns="http://www.w3.org/2000/svg" viewBox="0 0 106.8 106.8">
  <defs>
    <style>
      .cls-1 {
        fill: #f29649;
      }

      .cls-2 {
        fill: #fffae7;
      }

      .cls-3 {
        stroke-width: 3px;
      }

      .cls-3, .cls-4 {
        fill: #fff;
        stroke: #231815;
        stroke-linecap: round;
        stroke-linejoin: round;
      }

      .cls-5 {
        fill: #4bb45c;
      }

      .cls-6 {
        fill: #ec743e;
      }

      .cls-7 {
        fill: #98ca65;
      }

      .cls-8 {
        fill: #f7b042;
      }

      .cls-4 {
        stroke-width: 2px;
      }
    </style>
  </defs>
  <polygon class="cls-4" points="1 105.8 1 1 105.8 1 105.8 75.29 67.62 105.8 1 105.8"/>
  <g>
    <path class="cls-3" d="M75.82,41.68c-.85-.63-2-.74-3.07-.72-.51,0-1.02.05-1.53.1,4.65-4.63,11.2-7.54,17.96-7.86-4.44-3.26-9.68-3.43-14.73-1.7-.24.03-.48.08-.72.12,3.97-4.01,8.76-7.44,13.74-10.17-2.97-1.25-6.33-1.46-9.48-.7-3.14.75-6,2.4-8.33,4.53,3.52-3.23,2.76-10.76,1.28-14.64-1.68,4.35-3.37,8.71-5.05,13.06-1.8-4.14-4.02-8.57-8.21-10.65,1.85,5.11,3.2,10.38,4.03,15.72-.75-2.82-3.44-4.74-5.97-6.41-2.17-1.44-4.39-2.89-6.91-3.67,4.14,5.48,6.56,12.1,6.86,18.82-1.99-3.48-5.86-5.95-10.03-6.39,2.95,3.19,5.23,6.92,6.69,10.92-5.21.09-10.3,1.7-14.25,5.21-.09.08-.17.16-.25.24-.07.03-.14.05-.21.08-.24.09-.39.29-.42.52-4.14,4.07-6.41,9.22-8.1,14.59h0c-1.55,4.96-3.49,9.09-3.45,14.48.03,3.72.97,7.54,3.37,10.5,1.52,1.88,3.57,3.33,5.71,4.55,4.43,2.52,9.44,4.14,14.57,4.72,3.46.39,7.1.3,10.26-1.11,3.8-1.7,6.44-5.08,8.46-8.56,3.76-6.49,7-12.56,8.7-19.83.51-2.17.89-4.4.76-6.62-.26-4.24-2.47-8.26-5.61-11.31-.62-.6-1.29-1.14-1.98-1.67,1-.64,2.02-1.24,3.09-1.76,1.43-.69,2.92-1.28,4.45-1.74.77-.23,3.46-1.3,4.19-.95-1.99-.96-4.2-1.48-6.43-1.58.34-.07.61-.12.63-.1Z"/>
    <g>
      <path class="cls-7" d="M69.94,42.38c4.68-5.41,11.85-8.83,19.24-9.18-4.71-3.46-10.33-3.46-15.65-1.4,4-4.09,8.88-7.58,13.94-10.35-2.97-1.25-6.33-1.46-9.48-.7-3.14.75-6,2.4-8.33,4.53,3.52-3.23,2.76-10.76,1.28-14.64-1.68,4.35-3.37,8.71-5.05,13.06-1.8-4.14-4.02-8.57-8.21-10.65,1.85,5.11,3.2,10.38,4.03,15.72-.75-2.82-3.44-4.74-5.97-6.41-2.17-1.44-4.39-2.89-6.91-3.67,4.14,5.48,6.56,12.1,6.86,18.82-1.99-3.48-5.86-5.95-10.03-6.39,3.45,3.72,5.99,8.2,7.37,12.97,5.39.07,10.86,1.89,15.09,5.04.35-.32.68-.62.97-.82,1.23-.85,2.53-1.6,3.88-2.26,1.43-.69,2.92-1.28,4.45-1.74.77-.23,3.46-1.3,4.19-.95-3.56-1.73-7.85-2.08-11.68-.98Z"/>
      <g>
        <path class="cls-8" d="M76.72,67.4c.51-2.17.89-4.4.76-6.62-.26-4.24-2.47-8.26-5.61-11.31-.74-.72-1.54-1.39-2.38-2.01-4.58-3.41-10.5-5.38-16.33-5.45-5.49-.07-10.91,1.54-15.06,5.23-.09.08-.17.16-.25.24-.07.03-.14.05-.21.08-.24.09-.39.29-.42.52-4.14,4.07-6.41,9.22-8.1,14.59h0c-1.55,4.96-3.49,9.09-3.45,14.48.03,3.72.97,7.54,3.37,10.5,1.52,1.88,3.57,3.33,5.71,4.55,4.43,2.52,9.44,4.14,14.57,4.72,3.46.39,7.1.3,10.26-1.11,3.8-1.7,6.44-5.08,8.46-8.56,3.76-6.49,7-12.56,8.69-19.83Z"/>
        <path class="cls-1" d="M42.57,79.68c-.13.34-.53.51-.89.39l-.07-.02c-.07-.02-.13-.06-.18-.1-.32.41-.64.82-.96,1.24.21.29.41.58.62.86,1.52-.41,3.03-.83,4.55-1.27-.74-1.1-1.47-2.2-2.19-3.31-.39.47-.78.95-1.17,1.43.28.16.42.49.3.79Z"/>
        <path class="cls-1" d="M71.09,79.72l.03.05v.03s.05-.09.07-.13h-.02s-.08.05-.08.05Z"/>
        <path class="cls-1" d="M48.48,73.34c-.23-.33-.46-.66-.69-.98-.44.5-.87,1-1.31,1.51.66-.17,1.33-.35,1.99-.53Z"/>
        <path class="cls-1" d="M69.09,51.56c-.64-.92-1.3-1.83-1.97-2.73-.24.2-.48.45-.72.77-.78,1.04-1.57,2.07-2.36,3.1.1.15.21.31.32.46,1.58-.53,3.15-1.07,4.73-1.6Z"/>
        <path class="cls-1" d="M70.55,51.06c.36-.12.76.05.89.39.11.28,0,.59-.25.75,1.25,1.85,2.45,3.72,3.59,5.63.16.08.29.21.35.38.03.09.04.18.03.27.37.62.72,1.24,1.08,1.87-.02-.39-.05-.79-.09-1.18-.33-3.14-1.61-6.26-4-8.53-1.18-1.12-2.43-2.44-3.74-2.37.69.93,1.36,1.87,2.02,2.83.04-.01.08-.03.12-.04Z"/>
        <path class="cls-1" d="M35.88,90.02c.32.56.91.96,1.48,1.31.77.47,1.55.91,2.36,1.32-.79-.97-1.56-1.96-2.32-2.95-.51.11-1.01.21-1.52.32Z"/>
        <path class="cls-1" d="M65.11,82.41c.76,1.17,1.53,2.33,2.29,3.5.2.31.1.71-.23.9-.03.02-.07.03-.1.05l.02.05c.14.34-.04.72-.39.85-1.5.55-3.01,1.07-4.53,1.58.56.71,1.13,1.41,1.69,2.11.08.1.13.23.14.35.38-.39.75-.78,1.09-1.19,2.29-2.73,3.82-5.93,5.28-9.13.13-.29.27-.59.4-.89l-.08.04c-1.86.62-3.72,1.22-5.59,1.8Z"/>
        <path class="cls-1" d="M69.86,52.68c-1.58.54-3.16,1.08-4.75,1.61,1.15,1.74,2.27,3.5,3.35,5.29,1.62-.5,3.24-1,4.86-1.5-1.1-1.83-2.26-3.63-3.47-5.4Z"/>
        <path class="cls-1" d="M39.67,82.42s-.05-.07-.07-.1c-.04.05-.07.09-.11.14.06-.02.12-.03.18-.04Z"/>
        <path class="cls-1" d="M63.78,54.74c-.59.2-1.19.39-1.78.59-1.05,1.34-2.11,2.68-3.18,4,.57.9,1.13,1.8,1.7,2.7l6.6-2.04c-1.08-1.77-2.19-3.53-3.34-5.26Z"/>
        <g>
          <path class="cls-1" d="M52.38,78.75c-1.04-1.42-2.07-2.84-3.09-4.27-1.43.38-2.86.76-4.29,1.13-.22.26-.43.51-.65.77.88,1.34,1.76,2.68,2.65,4,1.79-.53,3.59-1.07,5.38-1.63Z"/>
          <path class="cls-1" d="M50.38,85.25c1.91-.5,3.81-1.01,5.71-1.54-.97-1.28-1.93-2.56-2.89-3.84-1.8.56-3.61,1.12-5.43,1.65.86,1.26,1.73,2.5,2.61,3.73Z"/>
          <path class="cls-1" d="M75.03,65.24h0c.35-.12.74.05.88.37.2-1.23.32-2.46.34-3.69-.33.12-.7,0-.87-.3-.45-.8-.9-1.59-1.37-2.38-1.62.5-3.24,1-4.86,1.5,1.06,1.8,2.09,3.61,3.08,5.45.93-.31,1.87-.63,2.8-.95Z"/>
          <path class="cls-1" d="M56.15,71.2c-1.06-1.61-2.11-3.23-3.17-4.84-.38.45-.77.9-1.15,1.35-1.03,1.2-2.07,2.39-3.11,3.58.39.55.77,1.11,1.17,1.66,2.1-.57,4.19-1.15,6.27-1.76Z"/>
          <path class="cls-1" d="M75.8,66.27c-.08.08-.17.15-.29.2-.88.3-1.76.6-2.65.9.5.94.99,1.89,1.46,2.84.16.33.01.72-.33.87-.35.15-.76.01-.92-.31-.5-.99-1.01-1.98-1.52-2.96-2.02.67-4.04,1.32-6.07,1.96.86,1.32,1.72,2.64,2.58,3.96,1.37-.44,2.74-.88,4.11-1.3.24-.07.48-.15.72-.22.36-.11.76.07.88.41.12.34-.08.71-.44.83-.24.07-.48.15-.72.22-1.26.39-2.53.8-3.8,1.2.86,1.31,1.72,2.62,2.59,3.92.05.07.08.15.09.23,1.79-4.04,3.52-8.36,4.32-12.74Z"/>
          <path class="cls-1" d="M62.76,92.23c-.66-.81-1.31-1.63-1.96-2.45-1.9.61-3.82,1.19-5.74,1.74.89,1.13,1.78,2.24,2.7,3.33.24.28.19.69-.11.92-.03.02-.07.04-.1.06,2.14-.65,4.08-1.85,5.73-3.34-.19-.01-.38-.1-.51-.25Z"/>
          <path class="cls-1" d="M56.67,95.65c-1.03-1.23-2.04-2.48-3.03-3.75-1.4.38-2.81.75-4.22,1.09.45.57.9,1.14,1.36,1.7.23.29.18.7-.13.92-.3.22-.74.17-.97-.12-.58-.71-1.16-1.43-1.73-2.15-1.28.3-2.57.59-3.86.86-.37.08-.74-.15-.83-.5-.08-.35.15-.7.53-.78,1.09-.23,2.17-.47,3.26-.71-1.04-1.32-2.07-2.65-3.09-3.99-1.69.4-3.39.79-5.09,1.17.66.85,1.32,1.69,2,2.53.23.29.17.7-.13.92-.12.08-.25.13-.39.13,2.93,1.42,6.07,2.44,9.3,3.02,2.11.38,4.29.57,6.4.2.43-.07.85-.17,1.26-.29-.23.03-.48-.05-.63-.24Z"/>
          <path class="cls-1" d="M41.91,83.18c.87,1.19,1.75,2.37,2.63,3.54,1.48-.36,2.96-.72,4.43-1.1-.87-1.22-1.72-2.46-2.57-3.7-1.5.43-2.99.86-4.49,1.26Z"/>
          <path class="cls-1" d="M52.77,90.78c-1.01-1.32-2.01-2.66-2.98-4.01-1.46.38-2.92.74-4.39,1.1,1.02,1.34,2.06,2.67,3.11,3.99,1.42-.34,2.84-.7,4.26-1.08Z"/>
          <path class="cls-1" d="M40.49,83.56c-.74.19-1.47.38-2.21.57-.55.77-1.08,1.56-1.6,2.35.43.59.87,1.17,1.3,1.75,1.71-.37,3.41-.76,5.11-1.16-.88-1.16-1.74-2.33-2.6-3.51Z"/>
          <path class="cls-1" d="M59.93,88.67c-1-1.27-2-2.55-2.99-3.84-1.91.54-3.82,1.06-5.75,1.57.98,1.35,1.97,2.68,2.98,3.99,1.93-.54,3.85-1.11,5.75-1.72Z"/>
          <path class="cls-1" d="M64.12,70.19c-1.95.6-3.9,1.19-5.86,1.77.89,1.36,1.77,2.71,2.66,4.07,1.93-.62,3.86-1.25,5.78-1.87-.86-1.32-1.73-2.64-2.58-3.97Z"/>
          <path class="cls-1" d="M61.68,77.16c.89,1.37,1.79,2.73,2.68,4.1,1.94-.6,3.88-1.22,5.8-1.86-.91-1.37-1.81-2.74-2.71-4.11-1.92.62-3.84,1.24-5.78,1.87Z"/>
          <path class="cls-1" d="M70.92,66.63c-.99-1.84-2.03-3.67-3.1-5.47-2.19.68-4.38,1.35-6.57,2.03,1.16,1.81,2.32,3.63,3.49,5.43,2.07-.65,4.13-1.31,6.18-1.99Z"/>
          <path class="cls-1" d="M58.35,84.44c.98,1.27,1.96,2.53,2.96,3.79,1.63-.54,3.26-1.1,4.87-1.69l-2.42-3.71c-1.8.55-3.6,1.09-5.41,1.61Z"/>
          <path class="cls-1" d="M56.9,72.35c-2.07.6-4.14,1.18-6.21,1.75,1.01,1.41,2.03,2.82,3.06,4.22,1.95-.61,3.9-1.24,5.84-1.86-.9-1.37-1.79-2.74-2.68-4.1Z"/>
          <path class="cls-1" d="M63.38,69.04c-1.17-1.81-2.33-3.62-3.49-5.44-1.97.61-3.93,1.21-5.9,1.82,1.17,1.79,2.35,3.59,3.52,5.38,1.96-.57,3.92-1.16,5.87-1.77Z"/>
          <path class="cls-1" d="M60.33,77.6c-1.91.62-3.83,1.23-5.76,1.84.96,1.3,1.94,2.59,2.92,3.88,1.84-.53,3.68-1.07,5.51-1.64-.89-1.36-1.78-2.72-2.67-4.08Z"/>
        </g>
        <path class="cls-1" d="M55.26,63.65l3.9-1.2c-.42-.66-.84-1.33-1.26-2-.87,1.07-1.75,2.14-2.64,3.2Z"/>
        <path class="cls-1" d="M35.94,87.76c-.14.32-.25.64-.29.96.29-.06.58-.13.87-.19-.19-.26-.38-.52-.57-.78Z"/>
        <path class="cls-6" d="M38.15,48.77c.89-.34,1.78-.67,2.68-.99.89,1.37,1.79,2.74,2.68,4.1-2.04.72-4.07,1.49-6.08,2.29-.5-.81-1-1.62-1.49-2.43-.19-.31-.61-.42-.95-.24-.33.18-.45.58-.26.89h0c.47.77.94,1.53,1.41,2.3-1.03.42-2.05.84-3.06,1.28-.35.15-.5.54-.34.87.16.33.57.47.92.32,1.06-.46,2.12-.9,3.19-1.34,1.08,1.74,2.18,3.47,3.29,5.19-1.56.49-3.12.97-4.68,1.45-.75-1.17-1.5-2.34-2.25-3.5-.13-.2-.26-.41-.39-.61-.2-.31-.63-.41-.95-.22-.33.19-.43.59-.23.9.13.2.26.41.39.61.69,1.07,1.38,2.15,2.08,3.23-1.55.48-3.1.95-4.66,1.42-.36.11-.57.48-.45.82l.03.07-.06.03c-.33.18-.44.58-.25.89h0c.99,1.6,2.01,3.19,3.04,4.78-1.38.43-2.76.85-4.14,1.28-.36.11-.56.48-.44.82.01.03.03.06.04.1l-.05.02c-.34.17-.46.57-.28.89.77,1.33,1.57,2.65,2.38,3.96-.91.2-1.83.39-2.74.58-.37.08-.61.43-.53.78.08.35.45.58.83.5,1.06-.22,2.12-.45,3.18-.68,1.03,1.63,2.1,3.23,3.2,4.82-1.45.32-2.89.62-4.34.9-.38.07-.62.42-.54.77.08.35.44.58.82.51,1.63-.31,3.26-.65,4.88-1.02.62.88,1.26,1.76,1.9,2.62.19.26.38.52.57.78-.29.06-.58.12-.87.19-.45.1-.89.19-1.34.28-.37.08-.61.43-.53.78.08.35.45.58.82.5.43-.09.85-.18,1.27-.27.51-.11,1.01-.21,1.52-.32.76.99,1.53,1.98,2.32,2.95l.05.06c.14.18.36.26.58.26.14,0,.27-.05.39-.13.3-.22.36-.63.13-.92-.68-.84-1.34-1.68-2-2.53,1.7-.37,3.4-.76,5.09-1.17,1.02,1.34,2.05,2.67,3.09,3.99-1.08.25-2.17.49-3.26.71-.37.08-.61.43-.53.78.08.35.45.58.83.5,1.29-.27,2.58-.56,3.86-.86.57.72,1.15,1.44,1.73,2.15.23.29.67.34.97.12.3-.22.36-.63.13-.92-.46-.56-.91-1.14-1.36-1.7,1.41-.34,2.82-.71,4.22-1.09.99,1.27,2,2.52,3.03,3.75.16.19.4.27.63.24.08-.01.16-.03.24-.07.04-.02.07-.04.1-.06.3-.22.35-.64.11-.92-.92-1.09-1.81-2.2-2.7-3.33,1.93-.54,3.84-1.12,5.74-1.74.65.82,1.31,1.64,1.96,2.45.13.16.32.24.51.25.16,0,.32-.03.46-.13.19-.14.29-.36.27-.57,0-.12-.05-.24-.14-.35-.57-.7-1.13-1.41-1.69-2.11,1.52-.51,3.03-1.03,4.53-1.58.36-.13.53-.51.39-.85l-.02-.05s.07-.03.1-.05c.33-.19.43-.59.23-.9-.76-1.17-1.53-2.33-2.29-3.5,1.87-.58,3.73-1.18,5.59-1.8l.08-.04c.3-.14.45-.46.35-.77v-.03s-.03-.05-.03-.05l.08-.03h.02c.24-.16.35-.42.3-.68-.02-.08-.04-.15-.09-.23-.87-1.31-1.73-2.61-2.59-3.92,1.27-.41,2.54-.81,3.8-1.2.24-.07.48-.15.72-.22.36-.11.56-.48.44-.83-.12-.34-.51-.53-.88-.41-.24.07-.48.15-.72.22-1.37.43-2.74.86-4.11,1.3-.86-1.32-1.72-2.64-2.58-3.96,2.03-.64,4.05-1.29,6.07-1.96.52.98,1.03,1.97,1.52,2.96.16.33.58.47.92.31.35-.15.49-.54.33-.87-.48-.95-.96-1.9-1.46-2.84.88-.3,1.77-.59,2.65-.9.12-.04.22-.11.29-.2.15-.17.21-.41.12-.64v-.02c-.15-.33-.53-.49-.89-.37h0c-.93.32-1.86.64-2.8.95-.99-1.83-2.01-3.65-3.08-5.45,1.62-.5,3.24-1,4.86-1.5.46.79.92,1.58,1.37,2.38.17.3.54.42.87.3l.07-.03c.34-.17.47-.56.29-.88-.12-.22-.25-.45-.38-.67-.35-.63-.71-1.25-1.08-1.87,0-.09,0-.18-.03-.27-.06-.17-.19-.31-.35-.38-1.14-1.91-2.34-3.78-3.59-5.63.25-.17.36-.47.25-.75-.13-.34-.53-.51-.89-.39-.04.01-.08.03-.12.04-.66-.95-1.34-1.89-2.02-2.83-.13-.17-.25-.35-.38-.52-.22-.3-.65-.37-.97-.16-.31.21-.39.62-.17.91.08.1.15.21.23.31.67.9,1.33,1.81,1.97,2.73-1.58.54-3.15,1.07-4.73,1.6-.1-.15-.21-.31-.32-.46-1.05-1.54-2.12-3.07-3.23-4.57.9-.22,1.8-.43,2.7-.63.37-.08.6-.44.51-.79-.09-.35-.46-.57-.83-.49-1.08.24-2.16.5-3.23.76-.64-.85-1.29-1.7-1.95-2.55-.23-.29-.66-.35-.97-.14-.31.21-.37.62-.15.91.55.7,1.09,1.41,1.63,2.13-2.06.52-4.12,1.08-6.16,1.68-.84-1.37-1.68-2.74-2.51-4.11,1.25-.35,2.5-.68,3.76-.99.37-.09.59-.45.49-.8s-.48-.56-.85-.47c-1.38.34-2.76.71-4.12,1.09-.02-.03-.04-.07-.06-.1-.19-.31-.61-.42-.95-.24-.28.15-.4.45-.32.73-2.22.65-4.42,1.35-6.59,2.11-.17-.04-.37-.02-.53.08-.08.05-.15.11-.21.19-.88.32-1.76.64-2.64.97-.07.03-.14.05-.21.08-.24.09-.39.29-.42.52-.02.11,0,.23.04.34.14.33.55.5.9.36ZM38.15,55.31c2.02-.8,4.06-1.57,6.11-2.29,1.21,1.85,2.42,3.7,3.63,5.55-2.13.68-4.25,1.36-6.38,2.03-1.14-1.75-2.25-3.51-3.36-5.28ZM47.79,72.35c.23.33.46.66.69.98-.66.18-1.33.35-1.99.53-1.08.28-2.15.56-3.23.83-1.07-1.66-2.13-3.32-3.18-4.98,1.62-.5,3.24-1,4.86-1.5.94,1.38,1.9,2.76,2.86,4.13ZM46.29,67.8c2.12-.65,4.23-1.31,6.35-1.96.11.17.23.35.34.52,1.06,1.61,2.11,3.23,3.17,4.84-2.08.6-4.17,1.19-6.27,1.76-.39-.55-.78-1.11-1.17-1.66-.81-1.16-1.62-2.33-2.42-3.5ZM41.86,75.05c-1.62.41-3.25.8-4.88,1.18-1.05-1.52-2.07-3.06-3.09-4.6l4.83-1.49c1.04,1.64,2.08,3.28,3.14,4.91ZM42.61,76.21c.27.42.55.84.82,1.25.73,1.11,1.45,2.21,2.19,3.31-1.51.44-3.03.86-4.55,1.27-.21-.29-.41-.57-.62-.86-.9-1.26-1.8-2.52-2.68-3.79,1.61-.38,3.23-.77,4.83-1.18ZM44.35,76.37c-.11-.17-.23-.34-.34-.51.33-.08.66-.17.99-.25,1.43-.37,2.87-.74,4.29-1.13,1.02,1.43,2.05,2.85,3.09,4.27-1.79.56-3.58,1.1-5.38,1.63-.89-1.33-1.78-2.66-2.65-4ZM53.2,79.87c.95,1.29,1.92,2.57,2.89,3.84-1.9.53-3.8,1.05-5.71,1.54-.88-1.23-1.75-2.48-2.61-3.73,1.81-.54,3.62-1.09,5.43-1.65ZM54.57,79.44c1.93-.61,3.85-1.22,5.76-1.84.89,1.36,1.78,2.72,2.67,4.08-1.83.56-3.67,1.11-5.51,1.64-.98-1.29-1.96-2.58-2.92-3.88ZM53.75,78.32c-1.03-1.4-2.05-2.81-3.06-4.22,2.08-.57,4.15-1.15,6.21-1.75.89,1.37,1.79,2.74,2.68,4.1-1.94.63-3.89,1.25-5.84,1.86ZM54,65.42c1.97-.61,3.93-1.21,5.9-1.82,1.16,1.82,2.32,3.63,3.49,5.44-1.95.6-3.91,1.19-5.87,1.77-1.17-1.79-2.35-3.59-3.52-5.38ZM55.26,63.65l-2.02.62-3.27-5c1.99-.64,3.97-1.29,5.96-1.94.65,1.04,1.31,2.07,1.96,3.11.42.66.84,1.33,1.26,2l-3.9,1.2ZM51.89,64.7c-2.12.66-4.25,1.31-6.37,1.97-1.1-1.63-2.2-3.27-3.27-4.92,2.13-.67,4.26-1.35,6.39-2.03,1.09,1.66,2.17,3.32,3.26,4.98ZM40.9,62.17c1.07,1.65,2.16,3.28,3.26,4.91-1.61.5-3.21.99-4.82,1.49-1.05-1.65-2.09-3.3-3.13-4.94,1.56-.48,3.13-.97,4.69-1.46ZM29.98,65.53c1.63-.49,3.25-.99,4.88-1.49,1.04,1.64,2.08,3.29,3.13,4.94-1.62.5-3.23,1-4.85,1.5-1.07-1.64-2.13-3.29-3.16-4.95ZM28.14,73.4c1.46-.45,2.92-.9,4.39-1.35.99,1.52,2.01,3.02,3.03,4.52-1.62.38-3.23.74-4.85,1.09-.88-1.41-1.74-2.83-2.56-4.26ZM31.45,78.84c1.64-.36,3.27-.73,4.91-1.11,1.07,1.54,2.15,3.07,3.25,4.6.02.03.05.07.07.1-.06.02-.12.03-.18.04-1.61.42-3.22.82-4.83,1.19-1.1-1.58-2.18-3.19-3.21-4.81ZM37.98,88.22c-.44-.58-.87-1.16-1.3-1.75-.41-.55-.81-1.11-1.21-1.67.94-.22,1.88-.45,2.81-.68.74-.18,1.47-.37,2.21-.57.86,1.18,1.72,2.35,2.6,3.51-1.7.4-3.4.78-5.11,1.16ZM41.91,83.18c1.5-.41,3-.83,4.49-1.26.85,1.24,1.7,2.48,2.57,3.7-1.47.38-2.95.74-4.43,1.1-.89-1.17-1.76-2.35-2.63-3.54ZM48.51,91.86c-1.05-1.32-2.09-2.65-3.11-3.99,1.47-.36,2.93-.72,4.39-1.1.98,1.35,1.97,2.69,2.98,4.01-1.41.38-2.83.74-4.26,1.08ZM54.18,90.39c-1.01-1.31-2-2.64-2.98-3.99,1.92-.5,3.84-1.03,5.75-1.57.99,1.29,1.98,2.56,2.99,3.84-1.9.61-3.82,1.18-5.75,1.72ZM66.18,86.53c-1.61.59-3.24,1.15-4.87,1.69-.99-1.26-1.98-2.52-2.96-3.79,1.81-.52,3.61-1.05,5.41-1.61l2.42,3.71ZM67.45,75.3c.9,1.37,1.8,2.74,2.71,4.11-1.93.64-3.86,1.26-5.8,1.86-.89-1.37-1.79-2.73-2.68-4.1,1.93-.63,3.86-1.25,5.78-1.87ZM66.71,74.15c-1.92.62-3.85,1.24-5.78,1.87-.89-1.36-1.77-2.71-2.66-4.07,1.96-.57,3.91-1.16,5.86-1.77.86,1.32,1.72,2.65,2.58,3.97ZM70.92,66.63c-2.05.68-4.11,1.34-6.18,1.99-1.17-1.81-2.33-3.62-3.49-5.43,2.19-.68,4.38-1.35,6.57-2.03,1.07,1.8,2.1,3.63,3.1,5.47ZM69.86,52.68c1.21,1.77,2.36,3.57,3.47,5.4-1.62.5-3.24,1-4.86,1.5-1.08-1.78-2.19-3.55-3.35-5.29,1.58-.53,3.16-1.07,4.75-1.61ZM63.78,54.74c1.15,1.73,2.26,3.48,3.34,5.26l-6.6,2.04c-.57-.9-1.14-1.8-1.7-2.7-.51-.81-1.03-1.62-1.54-2.43,1.58-.52,3.15-1.05,4.72-1.57.59-.2,1.19-.39,1.78-.59ZM59.38,48.48c1.25,1.69,2.46,3.4,3.64,5.13-2.15.72-4.31,1.44-6.46,2.15-1.16-1.86-2.32-3.71-3.47-5.58,2.08-.61,4.18-1.18,6.29-1.71ZM55.22,56.2c-1.99.65-3.99,1.3-5.99,1.94l-3.65-5.58c2.04-.7,4.08-1.36,6.15-1.98,1.16,1.88,2.32,3.75,3.49,5.62ZM48.5,45.31c.84,1.38,1.68,2.75,2.52,4.12-2.07.63-4.13,1.29-6.18,2-.9-1.37-1.79-2.74-2.69-4.11,2.09-.72,4.21-1.39,6.34-2.01Z"/>
        <path class="cls-6" d="M58.73,51.96l.03-.06c.06-.16.05-.34-.02-.5-.08-.16-.22-.28-.39-.34s-.36-.05-.53.02c-.17.07-.3.21-.36.37l-.03.06c-.13.34.05.71.41.84s.76-.05.89-.39Z"/>
        <path class="cls-6" d="M65.27,49.38c-.17-.06-.36-.05-.53.02-.17.07-.3.21-.36.37s-.05.34.02.5c.08.16.22.28.39.34s.36.05.53-.02c.17-.07.3-.21.36-.37s.05-.34-.02-.5c-.08-.16-.22-.28-.39-.34Z"/>
        <path class="cls-6" d="M69.66,56.44v-.07s0-.06,0-.06v-.06s-.02-.07-.02-.07c0-.04-.02-.08-.04-.11h0s-.04-.1-.04-.1v-.02s-.05-.06-.07-.09c-.16-.21-.45-.31-.72-.25-.04,0-.09.02-.13.04s-.08.04-.12.07c-.15.1-.25.26-.28.43h0c-.01.09-.01.17.01.25,0,.03.02.07.04.1v.02s.02.02.02.02c0,.01.02.04.03.07.1.2.29.33.5.37h.02c.07.02.14.01.21,0h.06s.05-.02.05-.02l.08-.03h0s.07-.04.07-.04l.05-.03c.07-.05.12-.11.17-.17v-.02s.04-.05.05-.07l.02-.04s.02-.05.02-.08v-.04Z"/>
        <path class="cls-6" d="M53.51,46.03l-.11-.04c-.36-.12-.76.05-.89.39s.05.71.41.84l.11.04c.36.12.76-.05.89-.39s-.05-.71-.41-.84Z"/>
        <path class="cls-6" d="M46.36,49.08c-.03-.17-.1-.33-.2-.45-.09-.1-.2-.19-.33-.26l-.06-.03-.03-.02h-.01s-.07-.02-.1-.03h-.03s-.06-.01-.1-.02h-.04s-.06,0-.09,0h-.04s-.06.02-.09.03h-.04s-.07.05-.07.05l-.05.03h-.02s-.08.09-.08.09l-.05.05-.04.05s-.03.04-.04.06l-.02.03v.02s-.03.06-.03.06l-.02.07v.05s0,.05,0,.08v.05s.01.05.02.08v.04s.04.08.04.08l.02.03s.03.05.05.08h0s.2.25.2.25c.19.23.53.32.82.2.29-.12.46-.4.42-.69Z"/>
        <path class="cls-6" d="M49.7,55.15c.08.16.22.28.39.34s.36.05.53-.02c.17-.07.3-.21.36-.37s.05-.34-.02-.5c-.08-.16-.22-.28-.39-.34s-.36-.05-.53.02c-.17.07-.3.21-.36.37s-.05.34.02.5Z"/>
        <path class="cls-6" d="M42.88,56.31s-.05-.09-.07-.14c-.16-.33-.57-.47-.92-.32-.35.15-.5.54-.34.87l.07.14c.16.33.57.47.92.32.35-.15.5-.54.34-.87h0Z"/>
        <path class="cls-6" d="M39.04,52.18c.16.33.58.47.92.31.35-.15.5-.54.33-.87-.07-.14-.14-.29-.21-.43-.16-.33-.58-.47-.92-.31-.35.15-.5.54-.33.87.07.14.14.28.21.43Z"/>
        <path class="cls-6" d="M35.24,59.52c.03.06.08.11.14.17.06.05.14.11.24.14.1.03.2.05.29.04h.02c.15-.01.31-.08.42-.17.11-.09.17-.19.2-.28.06-.16.06-.29.01-.44-.02-.08-.06-.16-.14-.24-.07-.08-.18-.16-.31-.21-.05-.02-.11-.03-.2-.04h-.07s-.05,0-.05,0h-.04s-.08.02-.08.02c-.11.03-.23.09-.31.17-.08.08-.14.17-.17.25-.04.09-.05.18-.04.25,0,.12.03.22.1.33Z"/>
        <path class="cls-6" d="M46.98,62.41c-.35-.04-.68.17-.76.5-.08.35.15.7.52.78.24.05.47.03.68-.04.21-.07.41-.19.56-.36.25-.28.21-.69-.09-.92-.27-.22-.67-.2-.93.03Z"/>
        <path class="cls-6" d="M54.6,59.71h0c-.06,0-.12-.01-.2,0-.12.01-.26.06-.38.15-.12.09-.19.2-.23.3-.05.15-.05.25-.04.34.02.12.06.21.11.3.03.05.07.09.13.15.06.05.14.11.26.15.07.02.15.04.24.04.14,0,.28-.04.39-.1.11-.06.18-.14.22-.2.15-.21.15-.47.04-.68-.08-.22-.28-.4-.54-.44Z"/>
        <path class="cls-6" d="M61.08,59.13c.06.08.15.16.26.22h0s.08.04.12.05c.2.07.38.06.5.04.12-.02.21-.05.27-.07.36-.12.55-.5.41-.84-.07-.19-.23-.32-.41-.39-.14-.17-.36-.28-.61-.26-.15,0-.32.07-.44.17-.12.1-.19.21-.23.31-.07.19-.06.35-.01.52.03.08.07.16.13.24Z"/>
        <path class="cls-6" d="M66.23,64.4c-.36-.12-.76.05-.89.39s.05.71.41.84l.11.04c.36.12.76-.05.89-.39s-.05-.71-.41-.84l-.11-.04Z"/>
        <path class="cls-6" d="M72.68,62.01c-.36-.12-.76.05-.89.39l-.04.1c-.13.34.05.71.41.84s.76-.05.89-.39l.04-.1c.13-.34-.05-.71-.41-.84Z"/>
        <path class="cls-6" d="M69.92,70.42l-.07-.02c-.17-.06-.36-.05-.53.02-.17.07-.3.21-.36.37s-.05.34.02.5c.08.16.22.28.39.34l.07.02c.36.12.76-.05.89-.39s-.05-.71-.41-.84Z"/>
        <path class="cls-6" d="M65.61,78.62h0s.11.04.11.04c.36.12.76-.05.89-.39s-.05-.71-.41-.84c-.04-.01-.07-.03-.11-.04-.36-.12-.76.05-.89.39s.05.71.41.84Z"/>
        <path class="cls-6" d="M62.41,72.61c-.17-.06-.36-.05-.53.02-.17.07-.3.21-.36.37l-.03.06c-.13.34.05.71.41.84s.76-.05.89-.39l.03-.06c.06-.16.05-.34-.02-.5-.08-.16-.22-.28-.39-.34Z"/>
        <path class="cls-6" d="M58.3,67.06c-.09-.09-.19-.14-.28-.17-.17-.06-.33-.06-.5-.01-.09.03-.18.07-.27.14-.09.07-.17.17-.21.29h0c-.05.12-.06.25-.04.35.03.17.1.29.19.38.09.09.19.16.31.2.09.03.2.05.32.04.12,0,.26-.05.38-.13.13-.09.21-.21.26-.34.06-.13.08-.27.04-.42-.03-.13-.11-.25-.2-.34Z"/>
        <path class="cls-6" d="M50.4,69.94c-.13.34.05.71.41.84l.07.02c.17.06.36.05.53-.02.17-.07.3-.21.36-.37s.05-.34-.02-.5c-.08-.16-.22-.28-.39-.34l-.07-.02c-.36-.12-.76.05-.89.39Z"/>
        <path class="cls-6" d="M55.26,75.53l-.04.1c-.13.34.05.71.41.84s.76-.05.89-.39l.04-.1c.13-.34-.05-.71-.41-.84s-.76.05-.89.39Z"/>
        <path class="cls-6" d="M58.48,81.19c.07.08.18.17.32.22.09.03.2.05.3.04h0c.15,0,.32-.07.44-.17.12-.09.18-.2.22-.3.06-.17.06-.31.01-.47-.03-.08-.07-.16-.14-.25-.07-.08-.18-.17-.32-.22-.08-.03-.16-.04-.23-.04h-.07s0,0,0,0h0s-.02,0-.02,0c-.04,0-.08,0-.12.02h-.02c-.1.03-.21.08-.28.14-.12.09-.18.2-.22.3-.06.17-.06.31-.01.47.03.08.07.16.14.25Z"/>
        <path class="cls-6" d="M62.01,85.33l-.03.06c-.06.16-.05.34.02.5.08.16.22.28.39.34s.36.05.53-.02c.17-.07.3-.21.36-.37l.03-.06c.13-.34-.05-.71-.41-.84s-.76.05-.89.39Z"/>
        <path class="cls-6" d="M58.73,91.52c-.16-.33-.57-.47-.92-.32-.35.15-.5.54-.34.87l.07.14c.16.33.57.47.92.32.35-.15.5-.54.34-.87-.02-.05-.05-.1-.07-.14Z"/>
        <path class="cls-6" d="M52.19,83.14c.17-.07.3-.21.36-.37s.05-.34-.02-.5c-.08-.16-.22-.28-.39-.34s-.36-.05-.53.02c-.17.07-.3.21-.36.37s-.05.34.02.5c.08.16.22.28.39.34s.36.05.53-.02Z"/>
        <path class="cls-6" d="M48.46,78.06c.17-.07.3-.21.36-.37s.05-.34-.02-.5c-.08-.16-.22-.28-.39-.34l-.07-.02c-.36-.12-.76.05-.89.39s.05.71.41.84l.07.02c.17.06.36.05.53-.02Z"/>
        <path class="cls-6" d="M43.65,71.36h0s-.06.07-.08.1c-.03.05-.06.09-.08.15-.05.12-.05.25-.03.36.03.16.11.26.18.35.08.08.17.14.29.18.09.03.21.05.35.04.14-.02.3-.09.41-.19h0c.07-.07.13-.16.17-.25.05-.12.05-.24.04-.34-.03-.15-.09-.25-.16-.34-.08-.09-.17-.16-.32-.21-.09-.03-.19-.05-.31-.04-.12,0-.24.05-.34.11-.04.02-.07.05-.1.08h0Z"/>
        <path class="cls-6" d="M40.42,66.67c.1-.03.2-.09.28-.17.08-.08.13-.17.17-.25.04-.11.05-.21.04-.3-.01-.13-.05-.24-.12-.35-.04-.05-.08-.11-.14-.16-.06-.05-.14-.1-.24-.14-.11-.04-.24-.05-.36-.03h0s-.08.02-.12.03h-.01s0,0,0,0h0s-.09.04-.13.06c-.03.02-.06.04-.08.06l-.02.02-.04.03c-.08.08-.14.17-.17.25-.04.11-.05.21-.04.3.01.13.05.24.12.35.04.05.08.11.14.16.06.05.14.1.24.14.15.05.35.06.5,0h0Z"/>
        <path class="cls-6" d="M34.14,67.22c-.04-.36-.39-.62-.77-.58-.38.04-.65.36-.61.72,0,.08.02.16.03.25.04.36.39.62.77.58s.65-.36.61-.72l-.03-.25Z"/>
        <path class="cls-6" d="M37.54,72.91h-.03s-.07,0-.11,0c-.19.03-.33.12-.42.21-.09.09-.14.18-.18.27-.05.12-.07.26-.02.45.02.09.07.19.15.28.08.09.19.16.3.2h.01s0,0,0,0c0,0,.04.02.15.03h0c.08,0,.15.01.23,0,.19-.03.33-.12.42-.21.09-.09.14-.18.18-.27.05-.12.07-.26.02-.45-.02-.09-.07-.19-.15-.28-.02-.02-.05-.04-.07-.06l-.03-.02s-.05-.04-.07-.05l-.02-.02c-.05-.03-.09-.04-.11-.05h0s-.01,0-.01,0h-.03s-.08-.03-.12-.03c-.03,0-.06,0-.1,0Z"/>
        <path class="cls-6" d="M32.29,75.17c-.08-.16-.22-.28-.39-.34s-.36-.05-.53.02c-.17.07-.3.21-.36.37s-.05.34.02.5c.08.16.22.28.39.34s.36.05.53-.02c.17-.07.3-.21.36-.37s.05-.34-.02-.5Z"/>
        <path class="cls-6" d="M35.32,80.27l-.07-.02c-.17-.06-.36-.05-.53.02-.17.07-.3.21-.36.37s-.05.34.02.5c.08.16.22.28.39.34l.07.02c.36.12.76-.05.89-.39s-.05-.71-.41-.84Z"/>
        <path class="cls-6" d="M41.68,80.07c.36.12.76-.05.89-.39.12-.3-.02-.63-.3-.79-.04-.02-.07-.04-.11-.05l-.07-.02c-.17-.06-.36-.05-.53.02-.17.07-.3.21-.36.37s-.05.34.02.5c.05.1.12.18.21.24.06.04.12.08.18.1l.07.02Z"/>
        <path class="cls-6" d="M38.59,85.43c-.17-.06-.36-.05-.53.02-.17.07-.3.21-.36.37s-.05.34.02.5c.08.16.22.28.39.34s.36.05.53-.02c.17-.07.3-.21.36-.37s.05-.34-.02-.5c-.08-.16-.22-.28-.39-.34Z"/>
        <path class="cls-6" d="M45.98,84.19l-.11-.04c-.36-.12-.76.05-.89.39s.05.71.41.84l.11.04c.36.12.76-.05.89-.39s-.05-.71-.41-.84Z"/>
        <path class="cls-6" d="M49.19,90.48h0s.11.04.11.04c.36.12.76-.05.89-.39s-.05-.71-.41-.84c-.04-.01-.07-.03-.11-.04-.36-.12-.76.05-.89.39s.05.71.41.84Z"/>
        <path class="cls-6" d="M42.86,89.98c-.36-.12-.76.05-.89.39l-.03.06c-.06.16-.05.34.02.5.08.16.22.28.39.34s.36.05.53-.02c.17-.07.3-.21.36-.37l.03-.06c.13-.34-.05-.71-.41-.84Z"/>
        <path class="cls-6" d="M32.93,86.44c-.36-.12-.76.05-.89.39l-.03.06c-.06.16-.05.34.02.5s.22.28.39.34.36.05.53-.02c.17-.07.3-.21.36-.37l.03-.06c.13-.34-.05-.71-.41-.84Z"/>
        <path class="cls-6" d="M29.75,83.3c.17.06.36.05.53-.02.17-.07.3-.21.36-.37s.05-.34-.02-.5c-.08-.16-.22-.28-.39-.34s-.36-.05-.53.02c-.17.07-.3.21-.36.37s-.05.34.02.5c.08.16.22.28.39.34Z"/>
        <path class="cls-6" d="M53.52,93.59c-.17-.06-.36-.05-.53.02-.17.07-.3.21-.36.37l-.03.06c-.13.34.05.71.41.84s.76-.05.89-.39l.03-.06c.06-.16.05-.34-.02-.5-.08-.16-.22-.28-.39-.34Z"/>
        <path class="cls-6" d="M55.57,86.67s-.07-.03-.11-.04c-.36-.12-.76.05-.89.39s.05.71.41.84h0s.11.04.11.04c.36.12.76-.05.89-.39s-.05-.71-.41-.84Z"/>
      </g>
      <path class="cls-5" d="M66.89,45.84c1.15-1.38,2.62-2.17,4.27-2.87.81-.35,1.65-.63,2.51-.84.2-.05,2.09-.49,2.15-.44-.85-.63-2-.74-3.07-.72-1.66.03-3.32.31-4.88.82.8-2.5,3.06-4.34,5.4-5.74,2.75-1.65,5.76-2.91,8.91-3.73-3.96-1.15-8.48-1.43-12.08.52,3.24-3.75,6.96-7.22,11.5-9.46-5.83-.07-11.64,2.25-15.64,6.24,1.98-2.36,3.9-5.1,3.72-8.11-.03-.51-.15-1.07-.57-1.41-.07-.06-.17-.11-.26-.09-.09.03-.14.12-.18.21-1.51,3.34-3.02,6.68-4.53,10.03.34-1.49-.19-3.13-1.35-4.19.03,3.84.03,7.82-1.62,11.33.74-3.81-.92-7.95-4.14-10.35.09,1.25.58,2.43.91,3.64.87,3.2.67,6.65-.58,9.74-.7-1.14-1.71-2.1-2.92-2.76.38.21.78,1.5.98,1.9.23.45.42.91.63,1.36.16.34.16.71.32,1.06.02.05.05.09.08.12.06.05.14.06.22.08,1.23.18,2.46.39,3.67.71,2.35.61,4.58,1.62,6.56,2.96Z"/>
      <path class="cls-2" d="M60.34,16.75c-.27-.43-.58-.18-.48.24.09.39.28.78.4,1.17.32,1.01.64,2.02.97,3.03.17-.25.14-.57.11-.87-.15-1.23-.32-2.51-1-3.58Z"/>
      <path class="cls-2" d="M52.84,21.65c-.13-.15-.72-.72-.86-.36-.08.2.43.71.54.86.64.89,1.22,1.83,1.74,2.79.05-1.21-.61-2.35-1.42-3.3Z"/>
      <path class="cls-2" d="M50.08,34.17c-.32-.41-.76-.79-1.28-.96-.19.4.56.96.79,1.24.23.28.46.57.68.85.11.14.68.72.65.87.04-.2-.03-.41-.1-.6-.19-.49-.41-.98-.74-1.4Z"/>
    </g>
  </g>
  <path class="cls-4" d="M105.8,75.29s-1.72,13.27-33.56,0l-4.62,30.51s36.2-5.97,38.18-30.51Z"/>
</svg>