<?xml version="1.0" encoding="UTF-8"?>
<svg xmlns="http://www.w3.org/2000/svg" xmlns:xlink="http://www.w3.org/1999/xlink" viewBox="0 0 911.87 560.11">
  <defs>
    <style>
      .cls-1 {
        fill: #cc6833;
      }

      .cls-1, .cls-2, .cls-3, .cls-4, .cls-5, .cls-6, .cls-7, .cls-8, .cls-9, .cls-10, .cls-11, .cls-12, .cls-13 {
        stroke: #231815;
      }

      .cls-1, .cls-2, .cls-3, .cls-4, .cls-6, .cls-9, .cls-12 {
        stroke-miterlimit: 10;
      }

      .cls-1, .cls-3, .cls-4, .cls-6, .cls-12 {
        stroke-width: 2px;
      }

      .cls-14, .cls-15, .cls-16 {
        fill: #373535;
      }

      .cls-17 {
        clip-path: url(#clippath-4);
      }

      .cls-18 {
        fill: #f0ece1;
      }

      .cls-18, .cls-19, .cls-20, .cls-21, .cls-22, .cls-23, .cls-24, .cls-25, .cls-26, .cls-27, .cls-28, .cls-7, .cls-29, .cls-8, .cls-30, .cls-31, .cls-32, .cls-10, .cls-33, .cls-13 {
        fill-rule: evenodd;
      }

      .cls-34 {
        fill: #222323;
        mix-blend-mode: color-dodge;
      }

      .cls-19 {
        fill: #686d70;
      }

      .cls-2 {
        fill: #1c1d1b;
      }

      .cls-35 {
        fill: #3d3938;
      }

      .cls-35, .cls-36, .cls-37, .cls-16 {
        mix-blend-mode: multiply;
      }

      .cls-20, .cls-38 {
        fill: #221714;
      }

      .cls-39, .cls-22, .cls-4 {
        fill: #fff;
      }

      .cls-21 {
        fill: #1b1812;
      }

      .cls-3 {
        fill: #ea894e;
      }

      .cls-40 {
        fill: #0f0e0d;
      }

      .cls-23 {
        fill: #42382d;
      }

      .cls-24 {
        fill: #b0aeab;
      }

      .cls-41, .cls-36 {
        fill: none;
      }

      .cls-36 {
        stroke: #2f2a27;
        stroke-width: 4px;
      }

      .cls-36, .cls-5, .cls-7, .cls-8, .cls-10, .cls-11, .cls-13 {
        stroke-linecap: round;
        stroke-linejoin: round;
      }

      .cls-37, .cls-42, .cls-43 {
        fill: #2f2a27;
      }

      .cls-5, .cls-7, .cls-8, .cls-10, .cls-11, .cls-13 {
        stroke-width: 3px;
      }

      .cls-5, .cls-8 {
        fill: #c2723c;
      }

      .cls-44 {
        clip-path: url(#clippath-1);
      }

      .cls-43, .cls-15, .cls-45 {
        mix-blend-mode: screen;
      }

      .cls-25 {
        fill: #a4744a;
      }

      .cls-26 {
        fill: #d92d20;
      }

      .cls-6 {
        fill: #eacb96;
      }

      .cls-46 {
        isolation: isolate;
      }

      .cls-47 {
        fill: #f8ede1;
      }

      .cls-27 {
        fill: #41382c;
      }

      .cls-48 {
        clip-path: url(#clippath-3);
      }

      .cls-28 {
        fill: #9f7349;
      }

      .cls-7 {
        fill: #e7b184;
      }

      .cls-49, .cls-29 {
        fill: #070001;
      }

      .cls-9 {
        fill: #f6f6f6;
      }

      .cls-30 {
        fill: #704b21;
      }

      .cls-31 {
        fill: #080103;
      }

      .cls-50 {
        fill: #261f1f;
      }

      .cls-32 {
        fill: #efe9df;
      }

      .cls-10 {
        fill: #b25539;
      }

      .cls-51 {
        fill: #1c1715;
      }

      .cls-52 {
        clip-path: url(#clippath-2);
      }

      .cls-53 {
        fill: #393939;
      }

      .cls-11 {
        fill: #da9b6b;
      }

      .cls-54 {
        clip-path: url(#clippath);
      }

      .cls-12 {
        fill: #f8edc7;
      }

      .cls-33 {
        fill: #1d1914;
      }

      .cls-13 {
        fill: #d18758;
      }

      .cls-45 {
        fill: #525151;
      }
    </style>
    <clipPath id="clippath">
      <path class="cls-41" d="M398.73,318.03l-10.31,5.78-3.26,9.4-4.26,6.78c-1.62,1-3.33,1.99-5.08,2.78-1.72.71-8.76,2.05-8.76,2.05,0,0-.54,6.35-2.98,10.37-2.44,4.03-3.53,8.06-9.55,7.34-6.03-.72-13.09-5.61-13.09-5.61,0,0-4.88.02-8.33-1.54,0,0-4.78,1.29-11.17,3.26s-10.36-2.3-11.35-5.99-.93-11.25-.34-12.44c-2.34-2.35-5.31-4.05-8.5-4.91,0,0,.63-17.68.93-17.15.31.53-16.54-32.23-16.54-32.23l4.04-20.64,6.13-7.36-12.81-25.36,14.22-16.63,20.92,1.32,7.36,16.14,48.78,2.98,6.5,7.98s20.34-20.57,21.14-20.53,29.54,6.8,29.54,6.8c0,0-10.02,29.12-11.18,30.07s-11.33,3.88-11.33,3.88l4.98,30.64-15.71,22.8Z"/>
    </clipPath>
    <clipPath id="clippath-1">
      <path class="cls-41" d="M283.87,294.33s-3.67-41.2-4.59-41.45c-.92-.25-8.71-24.17-8.71-24.17l15.56-23.93,57.37,7.91,77.38,8.9-7.23,75.22s-33.78,26.94-35.31,27.61c-1.62.65-3.71,1.7-3.71,1.7l-9.5,3.48-52.1-6.04-4.39,1.25-9.14-6.88c-9.67-3.24-15.63-23.6-15.63-23.6Z"/>
    </clipPath>
    <clipPath id="clippath-2">
      <path class="cls-39" d="M235.84,266.98h-92.44l4.3,7.52h2.39c.09.16.16.31.18.43l9.68,59.88.61,3.75,1.33,8.12c2.14,13.04,6.52,25.49,13.02,36.99l34.34.86c7.05-12.07,11.73-25.2,13.91-39l4-25.41.54-3.44,1.28-8.13,5.12-34.04h1.74v-7.52Z"/>
    </clipPath>
    <clipPath id="clippath-3">
      <path class="cls-39" d="M601.48,266.98h-92.44l4.3,7.52h2.39c.09.16.16.31.18.43l9.68,59.88.61,3.75,1.33,8.12c2.14,13.04,6.52,25.49,13.02,36.99l34.34.86c7.05-12.07,11.73-25.2,13.91-39l4-25.41.54-3.44,1.28-8.13,5.12-34.04h1.74v-7.52Z"/>
    </clipPath>
    <clipPath id="clippath-4">
      <path class="cls-39" d="M788.32,266.98h-92.44l4.3,7.52h2.39c.09.16.16.31.18.43l9.68,59.88.61,3.75,1.33,8.12c2.14,13.04,6.52,25.49,13.02,36.99l34.34.86c7.05-12.07,11.73-25.2,13.91-39l4-25.41.54-3.44,1.28-8.13,5.12-34.04h1.74v-7.52Z"/>
    </clipPath>
  </defs>
  <g class="cls-46">
    <g id="_圖層_2" data-name="圖層 2">
      <rect class="cls-47" x="-5.71" y="-41.75" width="940.05" height="606.52"/>
    </g>
    <g id="_圖層_6" data-name="圖層 6">
      <rect class="cls-5" x="41.76" y="114.06" width="19.15" height="319.14"/>
      <rect class="cls-5" x="858.13" y="127.62" width="19.15" height="319.14"/>
    </g>
    <g id="_圖層_3" data-name="圖層 3">
      <g>
        <path class="cls-1" d="M903.56,103.5c.56.64,1.27,1.19,1.67,1.91.32.64-.08,3.9-.16,4.86-.16,5.73.08,11.63-.48,17.36-1.04,11.31-8.68,23.73-17.44,30.74-9,7.17-20.86,10.35-32.25,9-12.26-1.51-23.41-8.2-30.74-18.08l-3.98-5.57c-.72-3.26-2.15-6.29-2.95-9.56-.96-3.82-1.11-7.41-2.71-11.15-1.04-5.02.32-12.82.56-18.08,6.29-1.27,14.65-.24,21.18-.24l49.29-.16c5.34-.08,13.14.88,18-1.04Z"/>
        <path class="cls-6" d="M7.53,103.34l63.31.32c8.76,0,19.27,1.19,27.87-.24l-.16.88c-1.11,6.85.4,13.7-.08,20.55l-1.19-.48c-2.79,10.35-5.81,17.84-11.79,26.76-4.78,5.34-10.27,9.4-16.8,12.34-10.27,4.7-23.73,4.62-34.16.48-10.35-4.14-18.87-12.82-23.09-23.01-3.9-9.4-4.7-17.6-4.7-27.63-.24-3.42-.56-6.77.8-9.95Z"/>
        <path class="cls-3" d="M737.29,2.05l70.16.32c16.01,32.09,39.42,62.75,68.88,83.69l18.4,11.79c2.63,1.51,7.01,3.34,8.92,5.65-4.94,1.91-12.66.96-18,1.04l-49.29.16c-6.61,0-14.89-1.04-21.18.24l-1.99-1.67c-33.29-26.6-60.28-61.32-75.89-101.21Z"/>
        <path class="cls-12" d="M179.77,2.29l75.01.08-66.73,100.98c-1.51,3.74-1.04,8.04-1.04,12.02-.8-3.42-.72-7.41-1.04-10.99h-87.52l.16-.88c-8.52,1.51-19.11.32-27.87.24l-63.31-.32L106.43,2.45l73.34-.16Z"/>
        <path class="cls-3" d="M179.77,2.29l75.01.08-66.73,100.98c-1.51,3.74-1.04,8.04-1.04,12.02-.8-3.42-.72-7.41-1.04-10.99h-87.52l.16-.88L179.77,2.29Z"/>
        <path class="cls-1" d="M278.6,104.3l86.16.08.32,12.34c-2.55,16.48-5.97,32.25-20.39,42.6-8.2,5.89-19.03,8.92-29.07,7.09l-2.55-.56c-10.35-2.15-19.27-8.52-25-17.44-5.65-8.68-7.49-19.35-9.32-29.38-.64-4.54-.16-9.95-.16-14.73Z"/>
        <path class="cls-1" d="M457.38,104.46l87.84-.16c.48,4.86.48,9.4.16,14.25-1.51,11.23-3.74,21.74-10.51,31.06-6.77,9.32-17.44,16.09-28.83,17.76-10.03,1.51-21.02-1.19-29.15-7.41-14.25-10.83-17.44-25.16-19.75-41.89l.24-13.62Z"/>
        <path class="cls-1" d="M98.47,104.3h87.52c.24,3.58.24,7.57,1.04,10.99v1.43c-2.71,17.12-6.13,31.93-21.02,42.68-9.72,7.01-20.47,9.08-32.17,7.09-10.59-1.83-19.43-8.68-26.28-16.64-4.94-8.68-8.6-14.81-9.16-25,.48-6.85-1.04-13.7.08-20.55Z"/>
        <path class="cls-6" d="M545.13,101.35l1.83,2.79,61.24.32c7.01,0,18.95,1.59,25.4-.56l.56.48-.08,15.85c-1.43,8.76-3.42,18-7.88,25.72-5.65,9.72-15.05,17.36-25.96,20.23-10.19,2.71-22.3,1.43-31.46-4.14-17.84-10.75-19.27-25.4-23.49-43.48.24-4.86.32-9.4-.16-14.25v-2.95h0Z"/>
        <path class="cls-6" d="M187.02,115.29c0-3.98-.48-8.28,1.04-12.02,7.57,2.71,22.14.64,30.42.64l39.42.16c6.53,0,14.33.8,20.7-.48v.64c0,4.78-.48,10.11.08,14.81-3.19,8.52-3.82,16.8-8.68,24.85-6.05,10.03-15.53,19.19-27.15,21.98-10.27,2.55-21.58,1.04-30.66-4.54-16.72-10.35-20.86-26.92-25.24-44.75l.08-1.27Z"/>
        <path class="cls-1" d="M634.16,104.3l89.51.16-.16,16.17c-1.75,9.48-3.58,18.95-9,27.16-6.77,10.19-17.04,17.2-29.23,19.35-10.99,1.99-21.34-.32-30.34-6.77-14.33-10.35-17.92-23.81-20.78-40.14v-15.93Z"/>
        <path class="cls-6" d="M365.4,101.83l1.11,2.23c10.35.72,85.69,1.67,90.78-.4l.08.8-.24,13.78c-3.26,9.48-3.66,19.35-9.08,28.27-6.05,9.95-16.96,18.24-28.43,20.78-10.51,2.39-21.42-.32-30.26-6.13-16.17-10.59-20.55-26.6-24.29-44.44l-.32-12.34.64-2.55Z"/>
        <path class="cls-6" d="M813.1,103.18l1.99,1.67c-.24,5.26-1.59,13.06-.56,18.08-.88,6.53-2.47,12.26-4.78,18.4-3.5,5.42-7.01,10.11-11.39,14.81-6.37,5.26-13.3,8.92-21.26,10.91-9.16,2.31-21.26.16-29.38-4.7-16.48-9.87-20.07-24.45-24.29-41.73l.16-16.17c7.57-1.11,15.85-.32,23.49-.32l46.11.08c5.73.08,15.05,1.43,19.91-1.04Z"/>
        <path class="cls-12" d="M254.79,2.29h69.6l63.87.08-22.85,99.46-.64,2.63-86.16-.08v-.64c-6.37,1.35-14.17.56-20.7.48l-39.42-.16c-8.28,0-22.93,1.99-30.42-.64L254.79,2.29Z"/>
        <path class="cls-3" d="M324.39,2.29l63.87.08-22.85,99.46-.64,2.63-86.16-.08v-.64c3.58-4.86,6.37-11.31,9.24-16.64,14.49-27.16,24.53-56.62,36.55-84.81Z"/>
        <path class="cls-12" d="M458.41,2.37l73.74-.08,12.98,99.06.08,2.95-87.84.16-.08-.8c-5.1,2.07-80.43,1.11-90.78.4l-1.11-2.23L388.25,2.37h70.16Z"/>
        <path class="cls-3" d="M458.41,2.37l73.74-.08,12.98,99.06.08,2.95-87.84.16-.08-.8,1.11-101.29Z"/>
        <path class="cls-12" d="M667.45,2.29l69.84-.16c15.61,39.82,42.6,74.54,75.81,101.13-4.86,2.47-14.25,1.11-19.83,1.11l-46.11-.08c-7.64,0-16.01-.8-23.49.32l-89.51-.16-.56-.48c-6.53,2.23-18.4.64-25.4.56l-61.24-.32-1.83-2.79-13.06-99.14,71.59-.08,63.79.08Z"/>
        <path class="cls-3" d="M603.66,2.21h63.79c9.4,24.37,19.27,49.05,33.13,71.27,6.77,10.91,14.97,21.1,23.09,30.9l-89.51-.16-.56-.48-29.94-101.53Z"/>
        <path class="cls-12" d="M532.07,2.29l71.59-.08,30.02,101.61c-6.53,2.23-18.4.64-25.4.56l-61.24-.32-1.83-2.79-13.14-98.98Z"/>
      </g>
    </g>
    <g id="_圖層_1" data-name="圖層 1">
      <g>
        <g>
          <path class="cls-23" d="M401.73,419.01c.6-.17.09-1.53.26-2.22-.34.09-.6.51-.51.85.6-.09.08.94.26,1.36Z"/>
          <path class="cls-33" d="M396.45,432.22c-1.79,2.13-3.66,4.26-5.54,6.31,5.71,1.28,10.57,3.41,16.79,4.18h.85c-5.79-1.02-10.82-2.73-16.28-4.18h-.85c.6-1.53,1.96-2.3,3.07-3.32.51-1.19,1.62-1.7,1.96-2.98Z"/>
          <path class="cls-33" d="M398.15,429.49c-.6.43-1.02,1.19-1.11,1.96.6-.51,1.02-1.19,1.11-1.96Z"/>
          <path class="cls-33" d="M381.02,440.23c-.85.09-1.53.6-1.96,1.36.85-.26,1.45-.77,1.96-1.36Z"/>
          <path class="cls-33" d="M373.61,399.67c-.51,12.1-3.07,24.03-7.41,35.28,4.6-10.4,7.16-21.64,7.41-33.06v-2.22Z"/>
          <path class="cls-25" d="M349.33,344.45c-.43.17-3.15,1.45-3.58,1.7,5.37,1.87,11.93,8.18,14.32,13.38,2.22-1.62,5.96-4.94,8.18-6.56.68-.51.85,2.47.17,2.81-9.54,4.86-17.47,12.1-27.69,10.57-1.62-.26-3.83-.09-5.28.77-1.87,1.11-2.05,3.83-.94,5.71,1.19,1.79,3.32,2.73,5.37,3.15,10.57,2.3,21.2-3.6,31.94-2.41,2.3.26-1.49,1.39-3.53,1.31,6.31,21.9,3.32,46.85-6.16,67.31,3.15,2.47,2.81,7.07,1.62,10.91-1.19,3.83-2.81,6.48-3.15,10.48-.51,6.22,3.24,6.73,3.83,6.82,4.77.77,9.97-1.19,14.66-2.3,12.19-2.98,24.54-2.73,36.04-7.75,1.45-.68,4.52-3.15,4.94-4.69.77-2.81-3.41-6.14-6.31-6.39-5.11-.43-11.59,2.56-16.28,4.69-3.75,1.7-7.33,3.15-11.08,4.86-3.83,1.79-5.71,2.81-9.03.26-2.05-1.53-3.41-2.98-3.15-5.54.26-2.56.34-5.11,1.62-7.33.85-1.53,2.81-2.22,4.18-3.41,2.13-1.96,3.58-2.47,6.22-3.75,5.88-2.98,10.65-9.46,13.38-15.42.09-.17.26-.43.43-.43.34,0-.68,2.39-1.02,3.24-1.79,4.18-4.69,7.33-8.01,10.48-.43.43-.34,1.36-.17,2.05.17.85,1.19,1.28,1.87,1.45,1.7.68,8.78,2.56,11.5,2.9,0,0,20.79,4.43,40.82-12.53,5.54-4.69,11.25-10.74,14.83-16.96,4.01-6.9,7.58-16.11,9.71-23.69,1.28-4.52,2.9-10.06,3.83-14.66,2.05-10.65,1.36-22.84-3.32-32.81-2.98-6.31-5.71-12.87-10.06-18.41-4.77-6.14-11.67-10.57-19.43-11.59-2.64-.34-6.14-.77-8.86-.6-7.24.34-14.57,2.22-19.77,7.67-5.11,5.37-8.01,9.46-7.84,16.96-1.85,16.79,9.36,38.33,11.76,52.49.38,2.27.09,4.6.09,6.9s0,4.35-.6,6.48c-1.02,3.49-2.3,6.14-5.88,7.16-2.98.85-6.14.68-9.29.51-2.81-.17-1.79-1.87-.85-4,1.19-2.98.51-6.65-.17-9.71-3.58-16.53-10.91-31.53-17.21-47.12-.43-1.19-4.43-14.66-5.11-14.32-9.2,2.3-19.09,5.03-27.52,9.37Z"/>
          <path class="cls-33" d="M357.34,443.3c1.19-.6,2.13-1.53,2.73-2.73-1.02.68-1.62,1.87-2.73,2.47v.26Z"/>
          <path class="cls-33" d="M367.56,420.89c-.51,1.36-.77,2.73-.85,4.18.6-1.28.85-2.73.85-4.18Z"/>
          <path class="cls-33" d="M340.55,447.64c-1.11-.43-2.39-.6-3.58-.51,1.11.43,2.3.6,3.58.51Z"/>
          <path class="cls-18" d="M306.46,386.89c.09-3.83-.26-7.92,0-11.59.26-3.92,1.02-7.67,1.87-11.5.94-4.6,3.15-9.2,6.14-12.87,1.02-.68,2.39-1.53,3.41-2.22l.34-.43v-.09l.17-.09c1.11-1.28,2.64-2.13,4.26-2.39,12.02-1.79,24.29,3.07,24.29,3.07,1.62.26,5.49.62,6.76,1.64.85,1.11,5.32,7.46,5.15,8.99-.09,1.19-2.71,1.72-3.39,2.4-1.28,1.28-8.69,3.83-8.69,3.83-2.47.26-8.27-.77-11.25,0-1.28.34-3.75,5.28-3.75,5.03.43.77,2.3,4.35,3.32,4.69,1.96,1.02,15.17,2.47,15.17,2.47,1.62.09,3.15-.09,4.69-.51,3.24-.26,6.48-.85,9.63-1.62h.85c1.36.34,1.36,2.13,2.47,2.73.85,1.79,1.11,4.18,1.96,6.05.17,2.22.77,4.01.85,6.31-.43.34-.43,2.64,0,3.07v3.58c-.68,1.19-.09,3.58-.26,5.2,0,4.26-1.11,7.33-1.36,11.33-.68,2.39-1.11,4.77-1.36,7.16-.51,1.36-.77,2.73-.85,4.18,0,.94-.43,2.05-.68,2.9-.26.94-.6,1.87-.94,2.73s-.68,1.79-1.02,2.64c-.17.51-.43,1.02-.51,1.53-.17.51-.43,2.13-.77,2.56-.77.94-1.19.77-1.79,1.7-.68,1.11-1.62,2.05-2.56,2.98-1.19,1.19-2.47,2.22-3.83,3.15-1.11.68-2.22,1.28-3.49,1.62-.6.17-1.19.09-1.87.09h-2.13c-2.9,0-5.79-.09-8.61-.68-.09,0-.17,0-.26-.09-1.28-.34-2.39-.77-3.66-1.11-.51-.17-2.98-1.11-3.24-1.62,0,0-3.92-6.14-5.28-6.99-3.83-5.62-8.52-10.65-11.25-16.87-1.11-2.56-2.9-5.71-4.01-8.35-1.02-2.39-2.13-6.82-2.64-9.37-1.62-5.54-1.96-9.71-1.87-15.25Z"/>
          <path class="cls-25" d="M305.78,327.75c-.85-1.96,3.58-8.27,7.93-12.1,4.35-3.83,11.33-1.7,11.33-1.7l27.18,10.23,21.43-5.28.36,3.34s4.98,4.53,4.64,6.24.02,8.16.02,8.16l-30.79,9.53s-31.61,1.79-32.55,2.73c-1.87,2.04-3.15,4.52-4.35,7.16-6.22,14.15-5.71,28.8-3.58,43.63,1.87,13.55,10.65,24.63,18.75,38.26,1.53,2.56,2.73,3.41,2.9,5.88.09,2.13-1.11,4-2.22,5.79-1.11,1.87-1.79,3.75-1.36,6.05.34,1.62,2.05,1.28,3.32,1.11,1.79-.34,3.83-.77,5.2.85,1.19,1.36,1.36,5.62.6,7.16-1.7,1.96-4.18,3.41-7.5,3.83,0,0-13.46,1.79-40.56,13.12-.94-.43-7.07-1.36-7.58-2.22-1.96-2.39-.26-10.57,2.56-11.67,1.79-1.28,12.1-1.19,12.1-1.19,3.07-.17,25.48-3.83,23.35-8.69-.77-1.7-12.95-13.46-15.25-16.11-4.43-5.2-6.39-11.93-6.56-18.92v-.68c-.09-7.67.17-15.34-.17-23.01-.26-5.03-.34-10.06,0-15.08.17-2.56.43-5.11.94-7.67.34-1.79,1.11-4.01.17-5.71-.43-4.09-4.01-5.54-7.5-6.65-4.01-1.28-8.01-2.56-12.02-3.83-2.64-.85-5.28-1.7-7.67-2.98-3.66-2.05-6.82-5.62-8.01-9.63-.51-2.47.85-5.28,3.41-5.37,2.22-.09,5.2.68,7.33,1.02,2.98.6,6.05.77,9.12,1.11,3.24.34,6.56.51,9.8-.17,2.39-.51,4.69-1.62,6.65-3.15,2.13-1.62,3.49-3.83,5.54-5.45,1.19-.94,4.09-2.98,3.58-4.77-.17-1.02-.34-2.13-.51-3.15Z"/>
          <g>
            <path class="cls-41" d="M329.81,348.97c-.6,0-1.11-.43-1.11-.94v-.17c-6.48-8.18-13.04-16.19-22.33-21.47-.68,0-.85-.43-1.36-.6.09-.6.34-1.19.85-1.62,1.11-3.49,1.79-7.33,5.2-8.52,3.24,2.81,5.96,6.05,8.27,9.63.77.68,1.36,1.53,1.62,2.47,2.13,2.73,3.75,5.79,4.94,9.12.6.77,1.02,1.79,1.11,2.73,1.02,1.79,1.62,3.75,1.96,5.79.43.09.26.68.26,1.11.51.51.6,1.45.6,2.47Z"/>
            <g>
              <path class="cls-49" d="M371.42,336.48h.03s-.04,0-.05,0h.02Z"/>
              <path class="cls-49" d="M260.62,350.91c2.46,4.67,7.14,7.41,11.85,9.39,2.98,1.28,7.75,2.47,10.74,3.66,2.22.94,4.35,1.79,6.48,2.81,1.7.85,4.35,1.62,5.03,3.75.51,1.62-.09,3.41-.34,5.03-.34,2.05-.6,4.18-.85,6.22-.43,4.09-.77,8.18-.77,12.27-.09,3.92.51,7.75.51,11.59v2.73c.43,6.99.6,14.32,1.11,21.22.17,2.98.43,6.05,1.7,8.78.77,1.62,1.79,3.07,2.9,4.43,3.41,4.09,8.86,5.28,12.36,9.2,1.19,1.36,2.39,3.41,2.56,5.11.51,5.96-9.37,6.31-13.21,6.99-2.64.51-5.37.6-8.01.77-2.56.17-5.11.09-7.67.51-3.41.6-7.16,2.05-7.84,5.88-.26,1.62-.34,3.49-.34,5.11,0,1.28.34,2.81,1.19,3.83,1.02,1.28,2.64,1.96,4.26,2.05h3.32c2.05,0,4.18-.17,6.22-.51,1.62-.26,3.24-.77,4.77-1.36,7.33-2.98,14.06-7.58,21.81-9.2,5.71-1.19,13.89,1.62,17.47-4.77,1.02-1.87.94-4.6.6-6.65-.43-2.39-2.22-4.01-4.18-5.37-.85-.6-1.79-1.11-2.39-1.96-1.02-1.45-.17-4.94,1.53-5.62.68-.26,1.45-.17,2.13,0,4.43.85,9.03,1.36,13.55,1.7,4.01.34,8.1.68,11.93-.6,1.36-.43,4.01-1.28,4.01,1.02,0,1.96-.94,3.92-1.53,5.79-.68,2.05-1.28,4.26-1.79,6.39,0,.17-.09.26-.09.34-.68,2.64-1.79,6.31.26,8.69,1.28,1.45,2.9,1.79,4.77,1.7,2.05,0,4-.26,6.05-.6,6.65-1.02,13.21-2.47,19.85-3.58.34-.09.68-.09,1.02-.17,1.79-.34,3.66-.77,5.54-1.11,4.35-.94,8.69-1.87,13.04-2.98,3.49-.94,8.1-1.45,10.57-4.35,1.53-1.79,2.22-5.11,1.02-7.24-.85-1.45-2.39-2.73-3.92-3.32-2.13-.85-4.52-.43-6.65-.09-2.39.34-4.77.85-7.07,1.62-7.75,2.47-15,6.56-23.09,8.1-.94.17-2.04.34-2.98-.09-1.45-.68-2.05-2.56-2.05-4.18-.09-6.39,4.35-13.63,11.25-13.89,4.43-.17,8.44,2.98,12.7,4.09,4.26,1.02,8.61,1.45,13.04,1.19,1.7-.09,3.41-.34,5.03-.6,14.66-2.56,29.06-11.67,38.09-23.52,1.53-2.05,3.07-4.09,4.69-6.05,5.96-7.33,9.54-18.66,12.02-27.61,2.73-9.88,4.18-20.28,3.15-30.59-.77-8.44-4.52-16.79-8.27-24.29-3.41-6.82-8.1-13.72-15.25-16.96-7.41-3.32-15.34-4.77-23.43-4.26-7.75.51-15.42,3.41-20.2,9.71-5.45,7.24-7.41,17.13-5.79,25.99,1.02,5.62,1.7,11.42,4.01,16.62,2.39,5.45,4.52,10.91,6.05,16.79,1.28,4.77,1.53,10.14,1.45,15.08-.09,4.01-.85,9.03-4.69,11.16-2.9,1.62-7.07,1.79-8.01-2.13-.6-2.64-.34-5.45-.68-8.18-.34-3.07-.94-6.14-1.7-9.2-1.11-4.09-2.56-7.75-4.26-11.5-1.19-2.56-2.3-5.2-3.49-7.75-3.75-8.27-6.82-16.87-9.46-25.56-.68-2.39-1.62-4.69-2.73-6.9-.13-.1-.19-.42-.21-.85l-.92.2-2.03.48c.22,1.38,1.65,5.81,1.8,6.31.77,2.22,1.7,4.43,2.64,6.65,1.79,4.18,3.66,8.27,5.28,12.44,1.53,4.18,2.98,8.44,4.77,12.53.94,2.22,4.86,12.44,5.71,15.42,1.96,7.07,4.01,15.25,1.11,20.11-.43.6,0,1.45.77,1.62,1.45.43,3.41.17,4.94.17,1.87-.09,3.75-.17,5.54-.51,1.96-.34,4-1.45,5.28-2.98,1.19-1.45,1.45-3.41,1.7-5.2.68-4.35.85-9.12.51-13.55-.34-4.26-.94-7.92-2.39-11.84-.77-2.22-1.62-4.35-2.39-6.56-3.75-10.31-7.16-20.88-6.9-32.04.17-7.84,4.01-16.36,10.99-20.45,5.71-3.32,13.04-4.69,19.51-4.69,6.14,0,14.15,4.01,19.26,7.41,4.18,2.81,6.99,6.9,9.29,11.25.68,1.28,1.45,2.56,2.13,3.83,3.75,6.82,6.9,13.38,7.58,21.22.77,8.61-.68,17.3-2.64,25.56-.85,3.83-1.96,7.67-3.24,11.42-.6,1.87-1.19,3.66-1.87,5.45-2.13,5.79-4.01,11.5-7.75,16.53-2.56,3.41-5.79,6.22-8.69,9.37-1.36,1.45-2.81,2.9-4.35,4.26-5.62,5.03-12.44,9.37-19.6,11.93-7.67,2.73-15.93,2.64-23.77.68-3.58-.85-7.07-2.22-10.65-2.98,1.45-2.05,3.41-3.83,4.86-5.88,1.45-2.04,2.64-4.18,3.75-6.39.68-1.53,1.36-3.15,1.79-4.86.26-.77.43-1.62.43-2.39,0-.34,0-.77-.09-1.02,0,0-.34-.6-.34-.43-.6,2.73-1.79,5.2-3.24,7.5-2.13,3.41-4.86,6.48-7.84,9.29-.94.94-1.96,1.87-2.98,2.73-1.87,1.62-4.26,2.13-6.31,3.41-3.49,2.22-5.71,6.39-7.07,10.14-1.28,3.32-.17,6.99,2.9,8.86,4.09,2.47,8.86.43,12.78-1.36.85-.26,1.62-.68,2.39-1.02,2.64-1.36,5.28-2.73,8.01-4.01,2.56-1.19,5.2-2.47,7.92-3.15,2.56-.68,5.62-.94,8.1.09,1.79.77,3.75,2.64,3.66,4.77-.26,4.43-8.27,5.28-12.7,6.31-5.62,1.28-9.8,3.41-15.17,3.83-2.64.17-5.11-.43-7.41-.26-3.49.26-6.65,1.87-9.97,2.98-1.62.51-3.32,1.02-5.03,1.11-1.96.09-3.92-.34-5.88-.68-.6-.17-1.19-.26-1.53-.85-.26-.34-.34-.77-.43-1.11-.34-1.53-.34-3.07-.09-4.6.09-.68.26-1.45.51-2.13,1.7-5.45,5.79-12.87.43-17.38.6-.51,1.02-1.79,1.36-2.56.51-.94.94-1.87,1.36-2.81.85-1.87,1.62-3.75,2.3-5.71.68-1.96,1.28-4.01,1.87-6.05,1.11-4.09,2.05-8.27,2.73-12.44.34-2.05.6-4.18.85-6.31.26-2.05.94-8.69.51-10.99-.17-1.02.09-2.3,0-3.32,0-1.19-.17-2.39-.34-3.49-.34-2.22-.94-4.35-1.36-6.48-.34-1.53-.34-3.41-1.02-4.77-.17-.26-.77-.94-.09-1.02,1.02-.09,2.22,0,3.24.17.68.17,1.7.51,2.3-.09.77-.77-.77-2.64-1.36-2.98-3.75-2.3-9.46-.94-13.46-.17-5.28,1.02-10.65,2.3-16.02,2.81-1.45.17-2.81.26-4.26-.09-1.36-.34-2.73-.94-3.92-1.7-1.02-.6-2.13-.77-2.73-1.96-.51-.94-.6-2.13-.17-3.15,1.02-2.39,3.58-1.96,5.62-1.62,10.06,1.7,18.24-4.86,26.16-9.8.68-.43,2.05-1.19,1.96-1.11,1.79-.43,2.81-2.98,1.62-4.43-.94-.6-1.79-.6-2.56.26-.68.77-5.88,6.82-6.82,5.54-1.01-1.38-2.04-2.74-3.04-4.13-1.97-2.72-3.46-5.06-6.67-6.45-2.17-.94-4.49-1.44-6.77-2.03-2.55-.66-4.87-1.12-7.5-.93-2.61.19-5.22.48-7.81.84-2.8.39-7.14.67-9.84,1.59-7.7,2.63-9.65,9.72-11.3,17.15-1.19,5.37-1.53,10.91-1.87,16.36-.34,5.88.09,11.76,1.02,17.55.68,4.43,1.19,9.03,2.9,13.21,2.22,5.45,6.22,11.25,9.37,16.53,1.28,2.22,2.98,5.28,4.94,8.01,1.7,2.47,4.86,5.54,4.94,8.01.09,3.58-3.49,6.82-3.32,10.23v1.79c.17,2.81,5.62.85,7.16,1.28,2.04.6,2.9,3.41,2.22,5.2-.77,2.05-2.56,4.01-4.52,4.94-2.22,1.11-4.69.6-7.07.77-8.1.68-15.08,4.6-22.33,7.92-2.64,1.28-5.45,2.39-8.35,3.15-2.56.68-5.2.94-7.84,1.19-.77.08-1.7.17-2.47-.17-.68-.34-1.19-1.11-1.62-1.79-1.19-1.87-1.7-4.26-.77-6.39.77-1.87,2.47-3.15,4.43-3.66,3.15-.85,6.73-.68,9.97-.77h1.19c5.54,0,10.99-.17,16.28-1.96,2.05-.68,4.26-1.7,5.54-3.58.68-1.02,1.02-2.39.85-3.66-.09-.94-.43-1.79-.77-2.64-.68-1.7-1.96-2.73-3.32-3.92-1.53-1.36-3.15-2.81-4.69-4.18-3.92-3.49-7.67-7.16-10.23-11.76-3.15-5.62-4.09-12.02-3.66-18.32v-14.91c-.26-3.15-.34-6.39-.34-9.54.09-4.09.17-8.18.77-12.19.43-2.98,1.7-6.14,1.19-9.2-.43-2.47-1.96-4.77-4.18-5.96-2.9-1.53-6.22-2.13-9.29-3.32-4.09-1.53-8.95-2.64-12.36-4.09-2.47-1.11-4.52-2.9-6.22-4.94-1.11-1.28-2.98-3.32-3.58-5.2-.08-.43-.17-.85-.08-1.53.08-3.24,2.98-3.92,5.54-3.75,1.53.09,3.07.43,4.6.77,2.56.6,5.2,1.02,7.84,1.11,3.32.17,7.68.99,10.92.39,4.01-.68,7.07-2.58,10.23-5.22,1.45-1.19,2.54-3.1,3.82-4.54.26-.32,2.08-2.7,3.02-3.79l-4.4-3.43c-.05.22-.1.44-.16.66-.34,1.45-.77,2.9-1.36,4.35-.94,2.47-2.47,4.69-4.52,6.39-3.32,2.73-7.58,4.09-11.84,4.18-5.54.17-10.91-1.62-16.45-2.22-2.81-.26-6.7.39-8.15,2.69-1.44,2.05-.7,4.84.39,6.92ZM325.98,436.65c-3.41-4.94-6.22-10.4-9.37-15.68-1.36-1.62-2.22-3.75-3.07-5.79-.94-2.22-1.7-4.52-2.56-6.73-.94-2.56-1.96-4.94-2.39-7.67-.26-1.45-.6-2.9-.85-4.35-.77-4.77-.51-9.88-.26-14.66.17-5.03.68-10.06,1.53-15,.72-3.9,1.78-7.63,3.46-11.23.02-.04.04-.08.06-.12,4.36-9.06,17.28-7.28,25.42-7.98,4.91-.42,8.94,1.39,13.33,3.31,1.36.6,7.06,7.66,7.06,7.66.46.57-.92,1.99-1.27,2.29-.73.62-1.6,1.07-2.44,1.52-2.31,1.23-4.84,1.99-7.47,1.99-3.04,0-6.09,0-9.12.26-2.84.24-5.82,1.19-6.45,4.34-.6,2.98,1.62,5.45,4.09,6.82,3.15,1.7,6.9,2.05,10.4,2.05,6.08,0,12.41-.53,18.32-2.13h.85c1.11-.26,4.64,7.67,5.2,22.1-.04,2.06-.1,4.09-.17,4.83.04-.05.07-.11.1-.17-.03.13-.06.22-.1.26,0,4.18-1.11,7.24-1.36,11.16v.09c-.68,2.3-1.11,4.77-1.36,7.16,0,1.45-.26,2.9-.85,4.18-.68,4.09-2.39,7.16-3.58,10.74-.17.77-.51,1.45-1.11,1.96-.77.85-1.36,1.79-1.96,2.73-.6,1.19-1.53,2.13-2.73,2.73-1.96,1.28-3.75,2.73-6.65,2.98-1.7.51-3.41.51-5.11.34-.51,0-1.02-.17-1.53-.26h-1.7c-2.64-.17-5.45-.68-7.92-1.79-.68-.34-1.36-.68-1.96-1.11-1.02-.6-1.87-1.36-2.56-2.13-1.36-1.45-2.81-2.98-3.92-4.69Z"/>
            </g>
          </g>
        </g>
        <g>
          <g class="cls-54">
            <path class="cls-26" d="M309.03,321.59c-3.34,1.35-4.4,4.94-6.04,8.02-.28.37,1.17,2.11,1.23,2.58.47-.05,7.24,5.92,10.12,8.59,1.6,1.42,11.67,10.54,14.37,14.25.38.91.27-1.01.28-1.37,0-.36.1-1.05-.32-1.17-.07.25.03.55-.24.57-.25-2.41-1.36-3.97-1.66-6.22-.57-.88-.94-1.88-1.13-2.83-1.8-3.01-3.11-6.52-5.04-9.38-.66-.9-.76-2.19-1.4-3.17-1.71-2.35-3.32-4.05-5.14-6.35-1.62-2.69-4.56-3.57-5.03-3.52Z"/>
            <path class="cls-26" d="M379.96,332.8c-.03-3.89-.39-7.23-4.1-6.52-3.07,1.34-11.63,7.68-14.75,8.55-2.37,1.43-4.86,2.65-7.38,3.96-1.22.84-2.42,1.6-3.67,2.25-.72.35-1.07.97-2,1.08-.6.56-1.26,1.01-1.99,1.36-.58.47-1.43.61-2,1.08-.6.56-1.26,1.01-1.99,1.36-.93.11-1.22.84-2.03,1.17-.6.56-1.26,1.01-1.99,1.36-1.84,1.49-4.6,2-5.92,3.9,4.95,3.05,9.71-1.25,13.83-2.49,8.08-3.23,17.43-5.12,25.51-8.35,1.45-.69,7-3.88,8.38-4.68,1.07-.97-.48-2.56.1-4.03Z"/>
            <path class="cls-26" d="M359.78,338.44c-4.69-1-8.09,1.24-11.5,2.85.21,1.23.33,2.43.27,3.68,2.76-.88,7.57-4,8.52.5-1.73,2.06-4.2,3.19-6.75,3.95,5.41,3.35-2.01,5.77-3.39,1.88-1.26.65-1.4,2.87-2.75,3.5,2.23,1.77,5.44,3.9,8.45,4.44,9.17,1.75,12.85-15.55,7.14-20.79Z"/>
            <path class="cls-26" d="M337.42,340.43c-1.18-.32-2.49-.13-3.49.59-.55,4.36-.19,8.06.16,11.76,2.68.09,3.35.63,5.09.83,3.91-1.47,6.37-6.57,5.69-11.72-3.03.53-4.79,5.74-7.36,3.87-1.61-1.06-.56-2.95-.09-5.34Z"/>
          </g>
          <path class="cls-29" d="M310.01,352.14c.11.93.29,2.6.96,3.78,4.2,6.81,14.94,3.76,21.31.88,3.28-.47,6.51,1.94,9.12.3,4.57,1.77,10.21,7.26,15.94,5.74,4.97-1.36,9.86-11.49,8.89-20.23-1.09-9.67-12.4-9.84-19.53-4.46-2.54-.6-4.67-.72-5.9.48-2.2-1.86-5.02-2.8-7.87-2.57-5.09-3.18-11.46-8.32-17.04-4.69-6.03,3.96-7.37,15.95-5.88,20.77ZM344.16,354.87c1.32-.55,1.47-2.76,2.75-3.5,1.38,3.89,8.8,1.47,3.39-1.88,2.57-.84,5.04-1.98,6.77-4.03-.95-4.49-5.74-1.46-8.52-.5.07-1.24-.06-2.45-.27-3.68,3.41-1.6,6.81-3.84,11.5-2.85,5.62,5.21,2.03,22.54-7.14,20.79-3.01-.54-6.22-2.67-8.47-4.36ZM334.03,340.96c1.01-.72,2.32-.91,3.49-.59-.47,2.4-1.54,4.36-.02,5.4,2.56,1.86,4.33-3.34,7.36-3.87.69,5.14-1.77,10.25-5.69,11.72-1.75-.2-2.41-.74-5.09-.83-.35-3.7-.71-7.4-.05-11.82ZM316.79,335.04c2.18-1.4,4.84-1.58,7.19-.58-.19.04,5.33,1.98,7.78,4.9-.14.5-1.25.29-1.31,2.53-2.42-1.38-6.46-3.46-7.87-2.57-4.63,2.81,3.99,4.59,6.8,6.88-1.57,2.46-4.93,2.91-5.18,5.18,1.25,2.05,4.12.75,5.9-.48-.06.89.23,1.14.23,2.5-1.91.39-3.51,1.31-5.29,1.91l-7.33.1-1.72-2c-3.47-5.17-4.4-14.08.81-18.35Z"/>
          <path class="cls-49" d="M363.92,347.13c.17.05.36,0,.53.05,14.34-1.36,17.5-9.07,17.5-12.05-.02-.27,0-.63,0-.99.01-3.06.12-8.8-3.66-9.82-3.45-.93-13.42,4.31-18.08,9.54-.49.5-.7,1.25-.31,1.81.47.58,1.25.7,1.81.31,6.32-4.7,14.28-9.49,15.82-9.16,1.85.5,1.78,5.44,1.72,7.32-.03.44-.04.8-.02,1.08-.02,1.08-3.59,5.61-14.5,7.63-.68.18-1.22.84-1.04,1.52.22.51-.18,2.66.24,2.77Z"/>
          <path class="cls-49" d="M311.36,339.8c.5.14,1.1-.06,1.43-.61.35-.63.19-1.39-.41-1.82-8.81-5.44-8.03-7.31-7.48-8.69l.24-.57c.75-1.78,2.12-5.2,4.15-5.01,1.66.18,5.74,4.79,8.49,8.96.39.56,1.23.78,1.79.39.56-.39.78-1.23.39-1.79-1.09-1.65-6.6-9.62-10.35-10.1-4.02-.46-5.95,4.34-6.84,6.63l-.24.57c-1.35,3.33-.43,6.28,8.52,11.86.06.11.15.13.31.17Z"/>
          <path class="cls-26" d="M330.43,341.97c.06-2.24,1.18-2.03,1.31-2.53-2.46-2.92-7.97-4.86-7.78-4.9-2.35-.99-5.01-.81-7.19.58-6.3,4.97-3.82,16.82,1.43,20.76,5.47,1.12,8.03-1.71,12.12-2.5.09-1.33-.29-1.61-.23-2.5-1.78,1.23-4.65,2.53-5.92.57.25-2.28,3.62-2.72,5.18-5.18-2.81-2.29-11.43-4.08-6.8-6.88,1.41-.88,5.45,1.2,7.87,2.57Z"/>
          <g class="cls-44">
            <g>
              <path class="cls-21" d="M405.22,240.54c.51-.22.85-2.48.41-2.86l-.41,2.86Z"/>
              <path class="cls-30" d="M286.51,225.45l.56-3.73c-.65,1.09-.85,2.48-.56,3.73Z"/>
              <path class="cls-30" d="M351.74,239.63c-.91.03-2.41-.74-2.93-.16.91-.03,2.48.85,2.93.16Z"/>
              <path class="cls-30" d="M358.66,241.05c.07-.61-1.18-.32-1.66-.54l-1.47-.22c.35.72,2.15.4,3.13.76Z"/>
              <path class="cls-19" d="M362.67,289.64c-.79.6-.51,2.57-.91,3.72.79-.6.54-2.65.91-3.72Z"/>
              <path class="cls-30" d="M372.57,294.38l-5.2-.77c0,.36.35.37.79.39,1.44.03,3.45.93,4.41.38Z"/>
              <path class="cls-21" d="M292.13,286.11l.22-1.47.07-.61.22-1.47c-.49.5-.9,3-.51,3.56Z"/>
              <path class="cls-27" d="M371.06,300.65l4.34.63c-.96-.8-3.35-.63-4.86-1.04l-.07.25.59.16Z"/>
              <path class="cls-30" d="M307.43,292.58c-1.1.06-2.75-.83-3.46-.21,1.1-.06,2.83.86,3.46.21Z"/>
              <path class="cls-19" d="M340.69,308.95l.55-3.73c-.79.6-.51,2.57-.91,3.72h.36Z"/>
              <path class="cls-19" d="M338.89,314.95l.07-.25.79-4.93-.25-.07c-.07,1.6-1.07,3.95-.6,5.25Z"/>
              <path class="cls-21" d="M338.98,314.62c.77-1.51.97-3.25.79-4.93l-.79,4.93Z"/>
              <path class="cls-32" d="M349.3,314.79c-.06-1.46-1.45,4.39-.65,4.06l.65-4.06Z"/>
              <path class="cls-21" d="M352.27,318.48l.57-3.45c-.56.39-.96,2.9-.57,3.45Z"/>
              <path class="cls-19" d="M348.68,318.77l-.07.25c.84-.77.52-2.92.97-4.25l-.25-.07-.65,4.06Z"/>
              <path class="cls-27" d="M335.24,321.81l-2.59-.43-.86-.14c1.34.72,2.81.94,4.34.63l-.89-.06Z"/>
              <path class="cls-21" d="M386.28,232.9c.11-.42.56-.39.75-.79.99-.99,2.1-1.78,3.36-2.43,3.99-3.43,14.34-2.71,17.81,1.83-5.1-7.15-18.39-4.69-22.09,1.34l.17.05Z"/>
              <path class="cls-21" d="M336.66,239.71c.01-.72-.14-1.48-.51-2.12-2.1-.57-4.32-.36-6.26.47,2.09-.07,3.65-.82,6.19-.22-.45,2.67,2.02,2.89,3.58,1.78-1.26-.34-1.66.45-3,.09Z"/>
              <path class="cls-21" d="M300.51,247.71c-2.58-2.14-5.84-3.74-8.87-5.55,2.47,2.2,5.74,3.8,8.87,5.55Z"/>
              <path class="cls-21" d="M289.49,278.54c-.06,1.88,2.35.64,3.65,1.17-.31-1.53-3.03.53-3.65-1.17Z"/>
              <path class="cls-21" d="M295.1,297.82c1.69,2.44,2.69,5.41,3.71,8.3-.32-3.15-1.62-6.03-3.71-8.3Z"/>
              <path class="cls-21" d="M299.28,307.06c.62,1.7,1.73,3.26,3.15,4.37-1.03-1.54-2.08-2.99-3.15-4.37Z"/>
              <path class="cls-21" d="M312.53,319.11c-1.97-1.7-4.18-3.2-6.44-4.53,1.93,1.87,4.03,3.43,6.44,4.53Z"/>
              <path class="cls-21" d="M373.75,325.08c-.07.25-.07.61-.41.52-1.06,1.25-2.51,1.94-3.5,3.29,1.43-.97,3.86-2.29,3.91-3.81Z"/>
              <path class="cls-21" d="M383.53,313.57c-1.2,1.12-2.55,2.11-4.05,2.96-.96.55-1.86,1.21-2.7,1.98,4.48-2.58,8.8-5.56,12.15-9.61-1.82,1.4-3.48,3.21-5.41,4.67Z"/>
              <path class="cls-21" d="M393.11,303.44c-.97.91-1.7,1.97-2.3,3.17,1.09-.7,1.93-1.82,2.3-3.17Z"/>
              <path class="cls-21" d="M396.23,273.18c.37.64,1.89.33,2.18.95.25,3.4,1.26,7.01-.25,10.93,2.24-3.27.67-7.84.57-11.12-.56-.6-2.15-.4-2.45-1.29.3-5.78-4.46-7.87-8.78-10.21,3.92,2.86,9.05,4.88,8.73,10.74Z"/>
              <path class="cls-21" d="M389.68,254.38c-2.5.23-5.45,4.48-3.13,6.91-1.61-3.05,1.1-5.74,3.13-6.91Z"/>
              <path class="cls-25" d="M392.88,254.42c.9-.32,1.81-.6,2.69-.88,4.04-1.32,7.45-3.19,10.98-5.52,1.3-.82,2.73-2.42,3.3-3.89,1.25-2.64,1.42-3.58,1.71-5.67.52-3.7-1.66-6.85-4.24-9.2-3.07-2.81-7.59-3.29-11.53-2.42-3.85.85-8.44,3.25-11.04,6.2-1.5,1.7-2.66,3.08-3.84,5-1.25,2.03-1.67,4.22-3.1,6.11-.25.33-.51.67-.86.89-.83.51-1.88-.13-2.62-.53-8.98-4.77-20.02-7-30.16-6.55-1.12.05-2.23.14-3.34.3-.8.11-1.84.53-2.63.49-.84-.05-.69-.58-1.21-1.18-.46-.54-1.14-.73-1.81-.88-3.4-.74-5.59.09-8.88,1.21-2.6.89-8.77,2.72-10.95,4.35-1.49,1.12-2.55,3.94-4.6,2.62-.54-.35-.29-1.62-.27-2.13.05-1.07,0-2.14-.11-3.2-.24-2.13-.78-4.23-1.51-6.25-1.51-4.2-3.61-8.67-6.28-12.27-2.92-3.94-7.43-5.43-12.11-5.88-2.56-.25-4.75.29-6.46,2.32-1.49,1.76-3.29,4.08-3.62,6.43-.41,2.94-.33,4.61.58,7.4.86,2.63,3.03,5.61,4.71,7.83,1.05,1.39,2.73,2.21,4.13,3.26.75.56,10,6.26,9.93,6.51-.05.17-4.19,4.49-5.31,6.98-1.19,2.74-5.41,8.01-6.16,12.13-.51,2.57-.63,5.33-.25,7.96.41,2.82,1.88,4.38,2.83,6.89.42,1.11.36,2.35.38,3.62.21,6.91,3.96,13.06,6.59,19,2.31,5.13,4.98,8.58,9.84,11.61,1.54.96-1.47,2.85,1.45,3.99,1.4.83,3.19,2.56,3.99,3.58,3.71,1.63,7.72,2.57,10.51,4.94,2.7,1.36,5.23,2.55,7.26,4.72.44.39.81.67,1.25,1.06,2.2,1.86,4.3,3.78,6.53,5.55,2.14,1.75,4.44,3.27,6.68,4.96.89.69,1.79,1.38,2.71,1.99.75.56,1.52,1.04,2.38,1.54.23.15.54.33.77.48.23.15.5.49.79.39.27-.02.28-.37.33-.54.15-.23.33-.54.48-.77.15-.23.33-.54.48-.77.68-1.17,1.12-2.49,1.88-3.64.78-1.23,1.25-4.35,2.11-5.56,1.54-2.02,5.57-5.39,6.6-6.19.92-.74,3.68-1.76,4.66-2.4.64-.37,6.58-4.35,7.64-5.6-.12-.75-1.73-1.06-2.3-1.25-.35-.12-3.14-1.03-1.88-1.55,1.07-.44,2.2-.68,3.29-1.08,2.19-.81,3.74-2.31,5.52-3.72,1.47-1.17,2.94-2.33,4.4-3.51,2.73-2.2,5.83-4.41,8.02-7.18.13-.17.26-.34.38-.52,2.43-3.79,4.06-8.24,5.48-12.48,1.26-3.78,2.17-7.74,2.05-11.75-.06-1.83-.37-3.64-.53-5.45-.13-1.43-.49-3.01-1.95-3.63-.25-.1-.51-.18-.72-.34-.34-.27-.45-.72-.57-1.14-.71-2.6-2.08-4.98-4.18-6.7-1.48-1.21-3.1-2.19-4.47-3.46-.99-.92-2.06-2.05-1.06-3.33,1.31-1.68,3.25-2.6,5.25-3.3Z"/>
              <path class="cls-28" d="M405.99,235.7c.54.33.72,1.01.58,1.87.26,2.05-.39,4.13-1.79,5.65-.25-.07-.26.29-.41.52-.44.96-1.17,1.67-2.09,2.05-.88.57-2.02.81-2.61,1.64-.75.79-1.78,1.23-2.87,1.3-.72-.01-1.29.1-1.62.65-.82.68-1.81,1.04-2.81,1.05-.34-.09-.53-.05-.59.2-1.28.74-2.71,1.34-4.09,1.78-.42-.11-.82.05-.94.47-1.16.95-5.09,2.14-5.61-.25.02-2.43,2.61-4.34,3.67-6.58.8-1.95,1.59-3.9,2.84-5.18.4-.16.71-.62.74-1.06.49-1.13,1.37-2.06,2.5-2.57.3-.1.59-.2.66-.45,3.1-2.14,8.49-4.74,13.36-2.07.03.55.67.54,1.08,1.01Z"/>
              <path class="cls-28" d="M298.22,225.81c2.97,2.69,4.27,6.56,5.76,10.39-.01.72.1,1.29.65,1.62.64.62.92,1.6.78,2.46.65,1.26.84,2.57.56,3.94.64.62-.17,2.3-.68,2.52-.93.11-.73-.65-1.66-.54-1.72-.64-3.63-1.25-4.98-2.25-1.12-.84-2.29-1.52-3.51-2.03-.76-.2-1.42-.74-1.85-1.49-.28-.62-.87-1.14-1.52-1.4-1.35-1-2.4-2.45-2.97-4.05.11-.42-.05-.82-.47-.94-1.48-2.2-1.59-5.48-1.93-8.54-.29-1.25-.1-2.64.55-3.73.32-.18.29-.73.75-.79.3-.1.59-.2.66-.45,1.01-1.08,4.12.12,4.61.97,1.79,1.38,3.47,2.83,5.24,4.3Z"/>
              <path class="cls-28" d="M364.9,286.72c2.28,1.25-.94,6.51,2.47,6.89l5.2.77,2.34.36c2.85-.22,6.63,1.16,7.52,3.2-5.4-1.37-11.87-1.13-16.8-.57.97,1.43,2.94,2.15,4.91,2.86,1.49.49,3.9.24,4.86,1.04,1.24.07,2.51.41,3.72.91-1.89,1.65-5.81,1.5-8.67.73-1.24-.42-2.67-.81-3.33-1.71-1.32-.45-3.94-1.42-4.73-.19-.4,4.49,5.55,4.47,8.15,6.89.08.38.35.72.79.75,1.11.57,1.62,1.7,2.25,2.68-2.77,1.24-6.33-1.26-7.85-2.66-.16-.4-.62-.71-1.06-.74-5.11-4.44-10.09-.02-11.26,5.98-.6,2.54-.35,6.31-2,7.39-.4,1.15-1.69,1.26-3.14.95-3.37-.19-6.75-.38-10-.36-.27.65-1.41-.11-2.07-.02-1.5.23-2.98,0-4.34-.63-6-1.17-3.84-8.16-4.83-12.84.09-.34.05-.53-.2-.6-.82-2.3-4-2.88-5.49-4.73-.99-.99-1.78-2.1-2.43-3.36-.14-.49-.38-.91-.65-1.26-.82.05-.93,1.1-1.96.91-1.25.29-2.46.78-3.47,1.5-2.54,1.39-5.44,2.14-8.36,2.25-2.17.68-2.17-2.66.09-2.32,1.52-.94,3.19-1.48,4.95-1.64.42.11.91-.03,1.27-.38,2.05-1.25,4.72-1.79,5.97-4.07-1.9-1.32-3.82.14-5.6.02-.78-.12-1.54.03-2.12.51-1.62,1-6.18.86-7.52-.86.09-1.69,1.53-1.66,2.7-1.98.69-.54,2.36.28,3.46.21,1.32.45,2.01-.09,3-.09-1.01-2.62-7.09-1.46-9.57-2.94-1.82.05-3.29-1.16-3.7-2.98,4.93-.56,11.98,1.7,17.72,2.17.99.36,1.19-.4,2.14-.23,1.08.02,1.46-1.05,1.83-2.12.71-1.97,1.91-3.72,3.45-5.11.7-.26,1.26-.65,1.69-1.26,4.63-2.81,12.17.67,18.06,1.9,2.65.54,5.33.63,7.93.34,1.29-.1,2.5-.59,3.47-1.5,2.7-1.98,7.7.54,9.05,2.53.51,1.13,1.39,2.18,2.15,3.38Z"/>
              <path class="cls-32" d="M386.22,244.16c-.37.71-1.86,3.55-2.25,3.99-.8.96-1.21,1.48-1.95,2.54-.15.23-.53,2.29.04,2.53.63.35,2.4.47,3.36-.09,2.69-1.62,5.41-2.69,7.69-3.42,2.17-.68,4.93-1.91,6.82-3.21,2.46-.78,5.36-4.14,6.02-5.95l.43-3.58c-.15-.76-1.11-1.56-2.33-2.07l-3.17-.95c-2.94.2-9.05,3.15-10.1,3.68-1.59,1.55-3.51,4.64-4.56,6.52Z"/>
              <path class="cls-21" d="M288.54,221.94c.21-1.12,1.59-.56,2.73-.43-.62-.71-3.09-.92-3.01.45l.27-.02Z"/>
              <path class="cls-21" d="M290.3,235.13c-.25-.07-.29-.26-.52-.41.29,1.25,1.1,2.28,2.16,3.02-.3-.89-1.3-1.52-1.64-2.61Z"/>
              <path class="cls-32" d="M305,245.13l.14-.86c-.35-.72-.18-1.67-.23-2.5-.05-.82.03-1.44-.32-2.16-.35-.72-.8-1.39-.97-2.07-.56-2.59-.89-3.39-2.2-5.55-1.07-1.73-1.55-3.93-2.88-5.37-.83-.94-3.95-3.05-4.93-3.77-1.35-1-1.99-1.98-3.63-2.24-.53-.05-1.73.07-1.93.47-.5.86-1.39,2.15-1.14,3.21.51,2.12.11,5.26,1.11,7.24.69,1.45.95,2.51,1.53,4.02.36,1,2.16,2.02,2.52,3.02,1.75,2.55,5.03,4.06,8.02,5.68,2.07,1.01,2.77.75,4.9.87Z"/>
              <path class="cls-21" d="M351.99,291.8c-1.81,1.04-3.51,2.3-5.05,3.68,1.84-1.13,3.77-1.96,5.05-3.68Z"/>
              <path class="cls-27" d="M345.95,296.48c.16-.59.94-.47,1.07-.97-1.26.65-2.37,1.43-3.36,2.43.89-.3,1.31-1.18,2.29-1.46Z"/>
              <path class="cls-32" d="M346.87,295.74c-.2.4-.62.64-1.01.72-.89.3-1.39,1.16-2.29,1.46-.09.34-.16.59-.39.79,1.62-.65,2.7-1.98,4.05-2.97h-.36Z"/>
              <path class="cls-32" d="M352.19,292.4c-1.52.94-2.97,1.99-4.37,3.15,1.58-.84,3.03-1.89,4.37-3.15Z"/>
              <path class="cls-21" d="M353.04,286.59c-.2-1.59-2.63-2.6-4.19-1.85,2.21.15,3.47.85,4.19,1.85Z"/>
              <path class="cls-21" d="M324.78,283.74c-.08.97.03,1.9.43,2.73l.05-.53c.19-1.39-.65-3.6-1.98-2.34l1.5.13Z"/>
              <path class="cls-27" d="M335.48,302.86c-.22-.51.11-1.41-.33-1.8.05,1.82-.89,2.28-1.62,2.99,1.05.1,1.22-.84,1.94-1.19Z"/>
              <path class="cls-20" d="M406.7,237.42c.14-.86-.03-1.54-.58-1.87h0c-.27-.34-.96-.44-.97-1.07-3.55-1.86-7.67-.99-11.12.78-.85.49-1.73,1.07-2.52,1.66-.79.6-1.58,1.2-2.25,2.01-.54.67-1.02,1.44-1.58,2.19-.46.69-1,1.35-1.37,2.06-.42.88-.75,1.78-1.17,2.66-.55,1.02-1.35,1.98-2.06,2.96-.39.44-.72.98-1.04,1.52s-.44.96-.6,1.55c-.05.17-.07.25-.09.34-.09.34.07.74.25,1.06.31.53.72,1.01,1.29,1.25.9.33,2.03-.17,2.72-.71.19-.04.32-.18.45-.33.37-.35.75-.79,1.18-1.03.53-.31,1.13-.51,1.72-.71,1.83-.77,3.64-1.45,5.44-2.14.72-.35,1.45-.69,2.23-.93.49-.14,1.08-.34,1.68-.54.79-.24,1.41-.88,2.16-1.31.79-.6,1.73-1.07,2.52-1.66.58-.47,1.1-1.06,1.61-1.64.41-.52,1.05-.89,1.4-1.52.35-.63.49-1.49.59-2.18,0-.36.04-.8.04-1.16,0-.36-.13-.85.07-1.24ZM404.74,241.67c-.24.57-.55,1.02-1.02,1.44-.47.41-1.05.89-1.61,1.28-.53.31-1.01.72-1.48,1.13-1.03.8-2.2,1.48-3.35,2.07-2.07.97-4.4,1.61-6.59,2.37-.81.32-1.62.65-2.34.99-1.16.95-2.58,1.56-4.09,1.78-.71-.37-2.47.14-2.18-.95.73-1.7,1.61-2.63,2.3-3.17,2.11-3.13,3.41-7.28,5.97-9.75.02-.08.11-.06,0,0,2.68-2.25,5.71-3.78,9.16-4.2,1.29-.1,2.89-.03,4.11.48.57.24,1.17.68,1.58,1.15.77.84.72,2.36.34,3.43-.07.25-.22.48-.29.73-.11.42-.25.92-.51,1.22Z"/>
              <path class="cls-21" d="M305.93,245.02c.03-.44-.03-.91-.02-1.27-.09-1.01-.17-2.03-.34-3.07-.23-1.14-.78-2.1-1.12-3.19-1.05-2.81-1.98-5.67-3.54-8.26-1.25-2.05-2.95-3.77-4.8-5.26-.89-.69-1.71-1.36-2.58-2.14-.79-.75-1.77-1.47-2.88-1.68-.5-.14-1.12-.21-1.63.01-.51.22-1.3.82-1.71,1.34-.28.37-.39.79-.42,1.24-.1,1.05-.29,2.08-.31,3.16-.05,2.51.24,5.47,1.55,7.63.74,1.28,1.37,2.62,2.21,3.84.84,1.22,2.09,2.28,3.28,3.23-.08-.02-.17-.05-.25-.07.42.11.7.73,1.08,1.01.63.35,1.34.72,2.05,1.09,2.51,1.4,4.9,3.22,7.81,3.46.36,0,.8.04,1.12-.15.32-.18.52-.58.52-.94ZM300.15,243.37l-.08-.02c-1.44-1.02-3.16-1.66-4.68-2.71-1.69-1.09-3.71-2.62-4.77-4.35-.49-.85-.85-1.85-1.32-2.79-.35-.72-.67-1.53-.91-2.32-.22-.87-.01-1.63-.14-2.47-.11-.93-.39-1.91-.5-2.84-.07-.74-.03-1.54.09-2.32.03-.44.61-1.28.56-1.74-.08-1.37,2.39-1.16,3.01-.45.68.81,1.9,1.32,2.71,1.99.81.67,1.73,1.28,2.62,1.97,2.25,1.69,3.38,4.16,4.61,6.65,1.6,3.41,3.32,6.75,3.65,10.54.03.55.49,1.85-.04,2.15-.34.27-1.18.04-1.6-.07-1.03-.19-2.4-.47-3.19-1.22Z"/>
              <path class="cls-21" d="M361.31,294.68l-.21,1.12c1.3-1.81,1.81-4.02,1.59-6.24-.4,1.15-.12,3.12-.91,3.72-.2.4.12,1.56-.47,1.41Z"/>
              <path class="cls-24" d="M319.24,293.24c-.03.44-.29,1.09.13,1.21.12-1.77,1.03-4.14.59-5.52l-.71,4.31Z"/>
              <path class="cls-21" d="M334.83,299.25c-.09.34-.05.53.2.59.09-1.33-1.54-1.32-2.71-1.63.73.65,1.63.98,2.51,1.04Z"/>
              <path class="cls-21" d="M352.14,303.93l-1.12-.21c-.84.77-2.64.1-4.14-.03,1.65.9,3.61.98,5.25.25Z"/>
              <path class="cls-27" d="M339.87,305.3l-.22,1.47c.58.52-.19,2.02-.16,2.93l.25.07c.5-1.85.16-2.93.45-4.66-.84-.23-1.5-.13-1.8.33.73.29.72-.35,1.48-.14Z"/>
              <path class="cls-27" d="M330.99,304.8l-4.06-.65c1.25.7,2.73.92,4.06.65Z"/>
              <path class="cls-27" d="M340.42,308.96c.03.91-.74,2.41-.16,2.93l.41-2.86-.25-.07Z"/>
              <path class="cls-38" d="M382.26,297.9c-.08-.02-.45-.66-.51-.77-1.46-1.93-4.33-2.34-6.6-2.59-1.94-.16-3.92-.16-5.92-.43-1.39-.19-3.26-.61-3.65-2.16-.35-1.36.39-2.78-.05-4.16-.32-.81-.94-1.52-1.48-2.2-.6-.79-1.11-1.56-1.71-2.35-1.36-1.99-6.36-4.51-9.05-2.53-.97.91-2.18,1.4-3.47,1.5-2.6.29-5.28.2-7.93-.34-3.41-.74-6.59-1.96-10.02-2.62-1.64-.26-3.28-.53-4.87-.32-.74.07-1.42.25-2.12.51-.7.26-1.2.76-1.86,1.21-.32.18-.72.35-1.07.61-1.48,1.13-2.76,3.22-3.32,4.96-.22.48-.3,1.09-.68,1.53-.39.44-.85.49-1.43.61-.38.08-.76.15-1.23.21-1.48.14-3.05-.37-4.44-.57-1.64-.26-3.26-.61-4.9-.87-2.92-.52-6.02-1.08-9-.72.31,1.53,1.69,2.44,3.09,2.91,2.22.78,4.44.93,6.8,1.2.86.14,1.81.31,2.5.76.23.15.92.61.83.94-.11.42-1.25.29-1.53.31-.97-.08-1.9.03-2.87-.05-.61-.07-1.2-.23-1.83-.22-1.08-.02-2.39.17-2.73,1.43-.05.17-.07.25-.03.44.04.19.27.34.5.49,1.54.96,3.52,1.31,5.26.88,1.74-.43,3.59-.93,5.47-1.23.85-.13,1.82-.41,2.69-.27.19-.04,1.54.32,1.41.47-1.16,1.94-3.6,2.99-5.56,3.91-1.13.51-2.14.59-3.37.8-1.23.21-2.21.85-3.29,1.18-.51.22-1,.36-1.39.8-.28.37-.38,1.07-.03,1.44.35.37.82.31,1.26.34,2.45-.06,4.87-.67,7.13-1.68,1.53-.67,2.84-1.49,4.49-1.94.47-.05.93-.11,1.27-.38.4-.16.6-.56,1.07-.61.27.34.51.77.65,1.26.65,1.26,1.43,2.37,2.43,3.36,1.59,1.59,3.88,2.48,5.26,4.26.08.11.17.21.23.34.09.18.12.39.14.59.36,2.59.35,5.18.61,7.77.25,2.41,1.29,4.58,3.81,5.27,1.01.27,2.27.61,3.35.63,2.21.15,4.43-.07,6.61-.11,2.73-.08,5.38.46,7.99.44.91-.03,1.34-.27,2-.72,1.65-1.09,1.4-4.85,2-7.39.6-2.54,1.53-5,3.67-6.58,2.85-2.21,5.91-.84,8.34,1.17,2.06,1.73,4.66,3.78,7.54,3.12.95-.19.19-1.03-.23-1.5-.97-1.07-2.05-2.09-3.31-2.79-1.4-.83-2.89-1.32-4.31-2.06-1.57-.87-2.91-2.23-2.67-4.15.85-1.48,4.18-.13,5.16.58,1.73,1.28,4.23,1.68,6.28,1.78,1.69.09,3.95.07,5.2-1.21-.49-.85-2.48-.85-3.34-.99-2.76-.47-5.2-.77-7.73-2.09-.79-.39-1.63-.98-2.14-1.75,4.95-.65,11.42-.89,16.67.35ZM362.74,303.09c-.21-.24-.33-.45-.43-.75.1.3.31.53.43.75Z"/>
              <path class="cls-31" d="M391.17,260.42c.15.17.31.33.47.48,3.84,3.52,7.61,7.55,9.47,12.51,2.29,6.1,1.45,12.91-.12,19.23-1.41,5.68-3.45,11.32-6.96,16-4.2,5.6-10.24,9.49-16.14,13.26.04,1.03.45,2.04,1.13,2.81-3.19,1-6.27,2.37-9.15,4.08.98-1.45,1.96-2.9,2.94-4.35-.76.82-2.21-.39-1.98-1.48.23-1.09,1.31-1.75,2.28-2.3,6.02-3.36,11.9-7.2,16.49-12.35,4.59-5.15,7.84-11.76,7.84-18.66,0-.88-.05-1.78.2-2.63.23-.78.71-1.47,1.06-2.21,1.26-2.63,1.22-6,.65-8.81-.21-1.04-.76-2.1-1.74-2.52-.32-.14-.68-.2-.93-.45-.35-.34-.34-.89-.36-1.37-.17-4.06-3.75-6.38-6.94-8.18-1.16-.65-2.37-1.4-2.92-2.61-.71-1.57,0-3.49,1.22-4.7,1.23-1.21,2.89-1.85,4.51-2.45,3.98-1.46,8.07-2.81,11.56-5.21,3.49-2.4,6.38-6.08,6.7-10.31.38-4.87-3.12-9.76-7.86-10.97-3.48-.89-7.19.06-10.41,1.65-3.65,1.81-6.91,4.57-9.07,8.05-1.09,1.76-1.85,3.68-2.25,5.71-.34,1.7-1.24,3.52-3.25,3.33-.89-.06-1.7-.37-2.54-.6-1.99-.63-3.94-1.42-6-2.16-3.9-1.23-7.96-2.24-11.98-3.05-3.32-.72-6.8-1.2-10.19-1.31-3.31-.08-5.92.56-9.22.76-.08-.02-.7-2.08-2.47-2.2-5.84-.4-6.9.84-10.17,1.94-1.68.54-3.49.59-5.11,1.23-1.11.42-1.97,1.27-2.74,2.14-.78.87-1.7,1.62-2.68,2.25-1.49.86-3.13,1.23-4.81,1.13-.37-2.62-.58-5.2-.97-7.75-.21-1.23-.42-2.46-.82-3.65-.32-1.17-.93-2.23-1.25-3.4-.06-.11-.04-.19-.1-.3-.06-.11-.04-.19-.12-.21-.12-.21-.25-.43-.26-.7-.93-2.23-1.78-4.45-3.11-6.52-3.41-5.07-9.5-8.88-15.71-7.58-.19.04-.38.08-.59.2-.66.45-1.43.61-2.11,1.14-.71.62-1.19,1.39-1.58,2.19-2.02,4.14-1.87,9.59.08,13.73.28.62.63,1.34,1.02,1.9,1.82,2.93,4.44,5.26,7.34,7.21,1.15.76,2.48,1.48,3.74,2.18.86.5,1.71,1,2.65,1.53.4.2.77.48,1.17.68.31.17,1.38.55,1.48.85.67,1.53-.99,3.34-2.13,4.2-1.11.78-1.9,1.38-2.6,2.63-.05.17-.15.23-.2.4-.2.4-.46.69-.65,1.09-1.33,2.26-2.74,4.49-3.84,6.9-1.08,2.32-2.01,4.78-2.42,7.28-.59,3.65-.19,7.81,2.38,10.66.45.5.97.97,1.25,1.59.54,1.18.09,2.55-.1,3.83-.65,4.25,1.55,8.34,3.4,12.22,2.74,5.73,5.06,12.03,10.06,15.95,2.08,1.63,4.53,2.77,6.5,4.54,1.97,1.77,3.43,4.5,2.64,7.03-1.44-.14-2.69-1.06-3.68-2.11-.99-1.05-1.81-2.27-2.84-3.27-3.27-3.19-8.65-4.24-10.65-8.34-.98-2.01-.92-4.37-1.61-6.5-.96-2.97-3.31-5.27-4.76-8.03-1.59-3.04-2.05-6.67-1.25-10.01.27-1.13.67-2.34.22-3.4-.37-.86-1.2-1.41-1.9-2.05-2.15-1.98-2.99-5.09-2.86-8.01.41-8.96,6.71-16.38,11.64-23.35,1.02-1.44.84-1.76-.53-2.4-5.95-2.69-11.1-7.32-14.77-12.73-1.56-2.22-2.98-4.32-3.03-7.13-.05-1.82.47-3.75.78-5.56.56-3.09,2.3-4.52,3.92-6.16.26-.29.96-.55,1.33-.9,2.46-1.77,5.35-1.44,8.13-1.05,1.64.26,3.35.63,4.87,1.32,1.61.71,2.84,1.85,4.15,3.01,2.76,2.46,5.08,5.88,6.92,9.08,1.74,2.9,3.41,6.42,4.02,9.83.34,2.08,1.72,2.63,3.69,2.35,4.78-.69,8.67-4.06,13.54-4.73,3.85-.58,7.15.58,10.9.69,10.42.47,21.55,1.31,31.34,5.12.4.2,4.19,1.85,4.36,1.54.97-1.27,1.47-2.76,2.29-4.16.72-1.21,1.48-2.4,2.3-3.55.64-.9,1.43-1.59,2.07-2.49,1.27-1.78,2.86-3.32,4.66-4.56,3.59-2.49,8.01-3.82,12.38-3.59,1.05.05,2.09.2,3.11.43,2.74.63,5.38,1.91,7.27,4,3.02,3.33,3.67,8.4,2.24,12.65-1.44,4.26-4.73,7.71-8.58,10.03s-8.24,3.59-12.64,4.47c-.52.1-1.07.22-1.46.58-.98.92-.21,2.4.75,3.47Z"/>
              <path class="cls-22" d="M352.42,289.22c-1.15,1.58-3.12,1.86-4.75.88-.71-.37-1.27-.97-1.51-1.76-.08-.38-.05-.82.04-1.16.2-.76.44-.96,1.06-1.25.62-.28,1.03-.8,1.65-1.09.38-.08.74-.07,1.16.04,1.2.23,3,.9,2.98,2.34,0,.36-.12.78-.21,1.11-.09.34-.27.65-.42.88Z"/>
              <path class="cls-22" d="M362.53,292.49c-.79,2.94-2.63,5.42-4.45,7.81-1.92,2.46-5.04,3.96-8.04,4.41-1.78.24-3.51-.68-5.08-1.55-1.23-.78-2.56-1.86-2.49-3.47.19-2.02,2.87-3.28,4.39-4.23,1.17-.67,2.41-1.24,3.54-2.11.69-.54,1.14-1.22,1.77-1.87.62-.64,1.23-1.2,1.68-1.89.87-1.21.85-2.48.96-3.89.1-1.05.28-2.36,1.38-2.78,1.26-.65,2.63.26,3.59,1.06,1.19.95,1.98,2.34,2.51,3.74.58,1.51.68,3.16.25,4.75Z"/>
              <path class="cls-22" d="M334.02,304.26c-2.31,1.54-6.03.63-8.22-.6-2.42-1.38-4.45-3.55-5.67-6.04-1.26-2.68-1.64-5.94-.45-8.69.77-1.86,2.03-3.51,3.2-5.18.82-1.04,2.09-1.06,2.39-.17.58,1.87.2,4.92.67,6.85.81,3.01,3.6,6.38,6.46,7.78.63.35,1.25.7,2.03.82.78.12,1.22.51,1.26,1.33.04.19,0,.36,0,.63-.17,1.31-.7,2.6-1.69,3.24Z"/>
              <path class="cls-22" d="M351.84,310.5c-.1,2.93-1,5.66-1.38,8.54-.17,1.31-1.81.68-2.93.83-1.54.2-4.59.66-5.53-1.03-.18-.33-.26-.7-.32-1.06-.57-3.16-.83-6.42-.64-9.62.06-1.02.18-2.88,1.02-3.59.67-.57,1.97.09,2.7.22,1.03.19,2.08.29,3.12.48,1.12.21,2.38.55,3.27,1.24,1.01.78.74,2.84.7,3.92,0,.02,0,.04,0,.06Z"/>
              <path class="cls-22" d="M338.09,317.45c-.52.9-1.27,1.55-2.38,1.6-.91.03-2.53-.32-3.45-.57-1.87-.51-2.84-1.93-3.31-3.72-.5-1.88-1.42-4.52-.05-6.2.52-.58.84-.77,1.46-1.05,2.17-1.04,4.34-1.71,6.67-2.35.19-.04,3.53-.4,3.44-.06-.68,2.53-.72,5.26-1.13,7.88-.2,1.3-.48,3.15-1.25,4.47Z"/>
            </g>
          </g>
          <g>
            <path class="cls-49" d="M363.01,276.53c1.1-5.23,3.19-8,5.87-7.8,2.9.22,5.97,3.99,6.18,7.61l1.7-.1c-.27-4.54-3.97-8.93-7.76-9.21-2.11-.16-5.91.82-7.67,9.14l1.67.35Z"/>
            <path class="cls-49" d="M307.94,276.35c1.1-5.23,3.19-8,5.87-7.8,2.9.22,5.97,3.99,6.18,7.61l1.7-.1c-.27-4.54-3.97-8.93-7.76-9.21-2.11-.16-5.91.82-7.67,9.14l1.67.35Z"/>
          </g>
        </g>
        <path class="cls-4" d="M391.77,369.13c-1.78-.55-3.66,3.32-5.11,4.04-.34.76-3.19,3-5.02,3.96-4.72,2.48-4.86,2.56-9.79,2.72-7.51.25-26.45.91-33.96,1.02-14.7.23-23.32-.02-36.87-3.27-.74-.18-7.28-3.91-7.89-3.71-2.59.13-2.55,7.49-2.38,10.72.15,2.91.03,2.96,3.23,3.41,2.29.32,3.06.17,2.99,2.75-.11,1.23-.09,3.01-.09,4.26,0,2.01-.09,7.8.17,9.87-.77,4.73,2.36,3.28,5.32,6.56,5.87,6.51,18.7,4.18,26.4,4.22,1.35,0,2.7,0,4.05.01.93.79,2.18,1.28,3.76,1.26,8.25-.08,16.49-.16,24.74-.24,6.14-.06,15.39,1.6,20.65-2.34,7.68-5.75.83-22.76,5.83-29.77.51-.23,1.03-.47,1.54-.72.19-.04.37-.06.56-.1,1.8-.44,3.16-1.38,4.57-2.52.3-.24.55-.55.78-.91,4.56-4.06.8-9.9-3.48-11.23Z"/>
      </g>
      <rect class="cls-11" x="-6.67" y="414.68" width="955.93" height="224.42"/>
      <polygon class="cls-13" points="36.66 492.26 36.66 639.1 -17.74 639.1 -17.74 428.56 36.66 492.26"/>
      <polygon class="cls-8" points="-25.96 420.14 35.78 504.06 997.66 504.06 988.32 434.34 -25.96 420.14"/>
      <polygon class="cls-10" points="29.74 504.06 29.74 412.83 -23.62 414.16 -22.43 425.46 29.74 504.06"/>
      <polygon class="cls-7" points="-16.85 412.83 35.78 484.37 997.66 484.37 988.32 414.65 -16.85 412.83"/>
      <g>
        <g>
          <g>
            <g>
              <path class="cls-53" d="M205.77,386.67h-26.85c-10.87,0-20.45,6.66-24.39,16.49h75.64c-3.94-9.83-13.52-16.49-24.39-16.49Z"/>
              <polygon class="cls-50" points="146.7 436.61 237.99 436.61 234.34 420.26 150.35 420.26 146.7 436.61"/>
              <path class="cls-14" d="M230.17,403.16h-75.64c-.52,1.31-.95,2.67-1.27,4.07l-2.91,13.02h83.99l-2.91-13.02c-.31-1.41-.74-2.77-1.27-4.07Z"/>
            </g>
            <path class="cls-16" d="M231.43,407.24c-2.68-12.02-13.35-20.57-25.66-20.57h-3.64c12.31,0,22.98,8.55,25.66,20.57l6.56,29.37h3.64l-6.56-29.37Z"/>
            <path class="cls-15" d="M190.25,386.81l-11.33-.14c-12.31,0-22.98,8.55-25.66,20.57l-6.56,29.37h10.71l6.56-29.37c2.68-12.02,13.97-20.43,26.29-20.43Z"/>
          </g>
          <g>
            <g>
              <path class="cls-42" d="M236.86,436.61h-89.03c-3.28,0-5.97,2.49-6.3,5.68h101.63c-.33-3.19-3.03-5.68-6.3-5.68Z"/>
              <path class="cls-51" d="M141.53,442.29c-.02.22-.03.44-.03.66v5.02h101.7v-5.02c0-.22-.01-.44-.03-.66h-101.63Z"/>
            </g>
            <path class="cls-35" d="M236.86,436.61h-3.64c3.5,0,6.34,2.84,6.34,6.34v5.02h3.64v-5.02c0-3.5-2.84-6.34-6.34-6.34Z"/>
            <path class="cls-43" d="M158.54,436.61h-10.71c-3.5,0-6.34,2.84-6.34,6.34v5.02h10.71v-5.02c0-3.5,2.84-6.34,6.34-6.34Z"/>
          </g>
          <g>
            <rect class="cls-42" x="173.58" y="377.76" width="37.53" height="9.47"/>
            <rect class="cls-37" x="207.64" y="377.76" width="3.47" height="9.47"/>
            <rect class="cls-43" x="173.58" y="377.76" width="16.37" height="9.47"/>
            <rect class="cls-43" x="173.58" y="377.76" width="4.64" height="9.47"/>
          </g>
          <g>
            <g>
              <path class="cls-39" d="M239.5,283.78c-.88-.18-1.47-1-1.33-1.88l1.4-8.86c.25-1.58.94-2.17,1.76-2.17h.86c.92,0,1.66-.74,1.66-1.66l.15-5.93c.03-1.09-.85-1.99-1.94-1.99h-105.96c0,4.59,3.31,8.64,7.67,9.43.71.13,1.28.66,1.4,1.37l10.4,63.53,1.81,11.06c2.29,13.97,6.98,27.3,13.95,39.63l41.94.94c6.59-11.28,11.24-23.43,13.87-36.16.16-.77.83-1.33,1.62-1.33h6.07c10.62,0,19.23-8.61,19.23-19.23v-29.54c0-8.31-6.36-15.49-14.55-17.19ZM250.44,330.51c0,8.63-6.99,15.62-15.62,15.62h-6.77l.1-.66s0-.03,0-.04l4.45-28.27,4.47-28.41c.15-.96,1.09-1.58,2.03-1.36,6.4,1.47,11.32,7.1,11.32,13.59v29.54Z"/>
              <g>
                <path class="cls-39" d="M235.84,266.98h-92.44l4.3,7.52h2.39c.09.16.16.31.18.43l9.68,59.88.61,3.75,1.33,8.12c2.14,13.04,6.52,25.49,13.02,36.99l34.34.86c7.05-12.07,11.73-25.2,13.91-39l4-25.41.54-3.44,1.28-8.13,5.12-34.04h1.74v-7.52Z"/>
                <g class="cls-52">
                  <g>
                    <path class="cls-39" d="M221.97,320.38c-12.06-1.71-21.92-10.24-33.2-14.83-10.93-4.45-23.88-4.93-34.34.37l4.5,27.83.64,3.89,1.38,8.44c2.22,13.55,6.77,26.48,13.53,38.43l5.19-11.62c.29.52.85.84,1.45.84h22.76c.59,0,1.14-.31,1.43-.82l4.85,12.5c7.32-12.54,12.19-26.18,14.45-40.52l3.81-24.19c-2.15.06-4.3-.02-6.44-.32Z"/>
                    <path class="cls-39" d="M167.78,338.34c2.81-.12,5.71-.58,8.65-1.39,6.65-1.83,12.72-5.17,17.25-7.88.79-.47,1.58-.95,2.37-1.43,2.46-1.5,5-3.04,7.58-4.32,7.7-3.8,16.55-5.49,25.12-4.83l-4.16,26.4c-2.26,14.35-7.12,27.98-14.45,40.52l-5.33-11.67h-24.68l-5.67,10.78c-6.76-11.95-11.31-24.88-13.53-38.43l-1.38-8.44c1.47.33,2.99.55,4.55.66"/>
                    <path class="cls-39" d="M196.05,365.15c-.79.48-1.58.96-2.37,1.43-4.54,2.71-10.6,6.06-17.25,7.88-2.18.6-4.34,1-6.46,1.22,1.37,2.99,2.87,5.94,4.5,8.82l35.68.89c5.42-9.28,9.48-19.15,12.15-29.46-6.47.38-12.89,2.04-18.66,4.89-2.59,1.28-5.13,2.82-7.58,4.32Z"/>
                    <path class="cls-39" d="M161.04,353.56c1.01.17,2.03.3,3.07.37l3.67.04c2.81-.12,5.71-.58,8.65-1.39,6.65-1.83,12.72-5.17,17.25-7.88.79-.47,1.58-.95,2.37-1.43,2.46-1.5,5-3.04,7.58-4.32,7.29-3.6,15.62-5.3,23.76-4.91l1.36-8.61c-8.57-.66-17.42,1.03-25.12,4.83-2.59,1.28-5.13,2.82-7.58,4.32-.79.48-1.58.96-2.37,1.43-4.54,2.71-10.6,6.06-17.25,7.88-2.94.81-5.84,1.27-8.65,1.39l-3.67-.04c-1.56-.11-3.08-.32-4.55-.66l1.38,8.44c.03.18.06.36.09.54Z"/>
                  </g>
                </g>
              </g>
            </g>
            <g>
              <g>
                <rect class="cls-40" x="183.22" y="242.98" width="11.86" height="15.41" rx="5.41" ry="5.41"/>
                <g>
                  <rect class="cls-45" x="185.77" y="245.29" width=".94" height="7.4"/>
                  <rect class="cls-45" x="188.67" y="245.29" width=".94" height="7.4"/>
                  <rect class="cls-45" x="191.58" y="245.29" width=".94" height="7.4"/>
                </g>
                <rect class="cls-34" x="183.22" y="250.33" width="11.86" height=".87"/>
              </g>
              <g>
                <path class="cls-42" d="M236.92,255.75c0-2.51-2.04-4.55-4.55-4.55h-84.07c-2.51,0-4.55,2.04-4.55,4.55v.49h93.17v-.49Z"/>
                <rect class="cls-51" x="143.75" y="256.24" width="93.17" height="5.03"/>
              </g>
              <path class="cls-43" d="M149.85,251.2h-1.56c-2.51,0-4.55,2.04-4.55,4.55v5.52h13.09v-10.07h-6.98Z"/>
              <path class="cls-37" d="M232.37,251.2h-3.62v10.07h8.16v-5.52c0-2.51-2.04-4.55-4.55-4.55Z"/>
            </g>
          </g>
        </g>
        <g>
          <path class="cls-36" d="M242.92,441.11c-.1-.34-.24-.67-.4-.99-.02-.03-.03-.07-.05-.1-.16-.3-.34-.59-.55-.86-.03-.04-.06-.08-.09-.11-.21-.26-.43-.51-.68-.73-.04-.04-.08-.07-.12-.1-.25-.22-.51-.42-.79-.6-.04-.03-.09-.05-.13-.08-.29-.17-.59-.33-.91-.46-.04-.02-.08-.03-.12-.05-.33-.12-.67-.23-1.02-.29-.03,0-.06,0-.09-.01-.37-.07-.75-.11-1.14-.11h1.13l-6.56-29.37c-.16-.72-.35-1.43-.57-2.12-.12-.39-.27-.76-.41-1.15-.1-.27-.18-.55-.29-.81-.01-.03-.02-.05-.03-.08-.13-.33-.29-.65-.43-.97-.14-.32-.28-.64-.44-.95-.16-.32-.33-.63-.51-.94-.17-.3-.33-.6-.51-.89-.18-.3-.38-.6-.57-.89-.19-.28-.38-.57-.58-.84-.2-.28-.41-.56-.63-.84-.21-.27-.44-.54-.66-.8-.22-.26-.44-.52-.67-.77-.24-.27-.5-.52-.75-.78-.23-.23-.45-.46-.69-.68-.3-.28-.62-.54-.93-.81-.21-.18-.41-.36-.62-.53-.52-.42-1.06-.81-1.61-1.19-.2-.14-.41-.26-.62-.39-.38-.24-.75-.48-1.14-.7-.25-.14-.5-.27-.75-.4-.36-.19-.72-.38-1.09-.55-.27-.13-.54-.24-.81-.36-.37-.16-.74-.31-1.12-.45-.28-.1-.56-.2-.84-.3-.39-.13-.78-.25-1.17-.36-.28-.08-.56-.16-.85-.23-.35-.09-.7-.16-1.05-.23h.03-37.53.03c-.35.07-.7.15-1.05.23-.28.07-.57.15-.85.23-.39.11-.79.23-1.17.36-.28.09-.56.19-.84.3-.38.14-.75.3-1.12.45-.27.12-.54.23-.81.36-.37.17-.73.36-1.1.55-.25.13-.51.26-.75.4-.39.22-.76.46-1.14.7-.21.13-.42.25-.62.39-.55.38-1.09.77-1.61,1.19-.21.17-.41.35-.62.53-.31.27-.63.53-.93.81-.24.22-.46.45-.69.68-.26.26-.51.51-.76.78-.23.25-.45.51-.67.77-.22.26-.45.53-.66.81-.21.27-.42.55-.62.83-.2.28-.39.56-.58.84-.2.29-.39.59-.57.89-.18.29-.34.59-.51.89-.17.31-.35.62-.51.94-.16.31-.3.63-.44.95-.15.32-.3.64-.43.97-.01.03-.02.05-.04.08-.11.27-.19.55-.29.82-.14.38-.28.75-.4,1.14-.22.69-.41,1.4-.57,2.12l-2.91,13.02-3.65,16.35h1.13c-.39,0-.77.04-1.14.11-.03,0-.06,0-.09.01-.35.07-.69.17-1.02.29-.04.02-.08.03-.12.05-.32.13-.62.28-.91.46-.04.03-.09.05-.13.08-.28.18-.55.38-.79.6-.04.03-.08.07-.11.1-.24.23-.47.47-.68.73-.03.04-.06.08-.09.11-.2.27-.39.56-.55.86-.02.03-.03.07-.05.1-.16.32-.29.64-.4.99,0,.02,0,.04-.02.06-.11.36-.18.73-.22,1.12h0c-.02.22-.03.44-.03.66v5.02h101.7v-5.02c0-.62-.09-1.21-.26-1.78,0-.02,0-.04-.02-.06Z"/>
          <path class="cls-36" d="M239.5,283.78c-.88-.18-1.47-1-1.33-1.88l1.4-8.86c.25-1.58.94-2.17,1.76-2.17h.86c.92,0,1.66-.74,1.66-1.66l.15-5.93c.03-1.09-.85-1.99-1.94-1.99h-105.96c0,4.59,3.31,8.64,7.67,9.43.71.13,1.28.66,1.4,1.37l10.4,63.53,1.81,11.06c2.29,13.97,6.98,27.3,13.95,39.63l1.76.22c.29.52,40.18.72,40.18.72,6.59-11.28,11.24-23.43,13.87-36.16.16-.77.83-1.33,1.62-1.33h6.07c10.62,0,19.23-8.61,19.23-19.23v-29.54c0-8.31-6.36-15.49-14.55-17.19ZM250.44,330.51c0,8.63-6.99,15.62-15.62,15.62h-6.77l.1-.66s0-.03,0-.04l4.45-28.27,4.47-28.41c.15-.96,1.09-1.58,2.03-1.36,6.4,1.47,11.32,7.1,11.32,13.59v29.54Z"/>
          <path class="cls-36" d="M156.84,261.27h80.08v-5.52c0-2.51-2.04-4.55-4.55-4.55h-37.3v-2.3c0-3.27-2.65-5.93-5.93-5.93h0c-3.27,0-5.93,2.65-5.93,5.93v2.3h-34.92c-2.51,0-4.55,2.04-4.55,4.55v5.52h13.09Z"/>
        </g>
      </g>
      <g>
        <g>
          <g>
            <g>
              <path class="cls-53" d="M571.41,386.67h-26.85c-10.87,0-20.45,6.66-24.39,16.49h75.64c-3.94-9.83-13.52-16.49-24.39-16.49Z"/>
              <polygon class="cls-50" points="512.34 436.61 603.63 436.61 599.98 420.26 515.99 420.26 512.34 436.61"/>
              <path class="cls-14" d="M595.81,403.16h-75.64c-.52,1.31-.95,2.67-1.27,4.07l-2.91,13.02h83.99l-2.91-13.02c-.31-1.41-.74-2.77-1.27-4.07Z"/>
            </g>
            <path class="cls-16" d="M597.07,407.24c-2.68-12.02-13.35-20.57-25.66-20.57h-3.64c12.31,0,22.98,8.55,25.66,20.57l6.56,29.37h3.64l-6.56-29.37Z"/>
            <path class="cls-15" d="M555.89,386.81l-11.33-.14c-12.31,0-22.98,8.55-25.66,20.57l-6.56,29.37h10.71l6.56-29.37c2.68-12.02,13.97-20.43,26.29-20.43Z"/>
          </g>
          <g>
            <g>
              <path class="cls-42" d="M602.5,436.61h-89.03c-3.28,0-5.97,2.49-6.3,5.68h101.63c-.33-3.19-3.03-5.68-6.3-5.68Z"/>
              <path class="cls-51" d="M507.17,442.29c-.02.22-.03.44-.03.66v5.02h101.7v-5.02c0-.22-.01-.44-.03-.66h-101.63Z"/>
            </g>
            <path class="cls-35" d="M602.5,436.61h-3.64c3.5,0,6.34,2.84,6.34,6.34v5.02h3.64v-5.02c0-3.5-2.84-6.34-6.34-6.34Z"/>
            <path class="cls-43" d="M524.18,436.61h-10.71c-3.5,0-6.34,2.84-6.34,6.34v5.02h10.71v-5.02c0-3.5,2.84-6.34,6.34-6.34Z"/>
          </g>
          <g>
            <rect class="cls-42" x="539.22" y="377.76" width="37.53" height="9.47"/>
            <rect class="cls-37" x="573.28" y="377.76" width="3.47" height="9.47"/>
            <rect class="cls-43" x="539.22" y="377.76" width="16.37" height="9.47"/>
            <rect class="cls-43" x="539.22" y="377.76" width="4.64" height="9.47"/>
          </g>
          <g>
            <g>
              <path class="cls-39" d="M605.14,283.78c-.88-.18-1.47-1-1.33-1.88l1.4-8.86c.25-1.58.94-2.17,1.76-2.17h.86c.92,0,1.66-.74,1.66-1.66l.15-5.93c.03-1.09-.85-1.99-1.94-1.99h-105.96c0,4.59,3.31,8.64,7.67,9.43.71.13,1.28.66,1.4,1.37l10.4,63.53,1.81,11.06c2.29,13.97,6.98,27.3,13.95,39.63l41.94.94c6.59-11.28,11.24-23.43,13.87-36.16.16-.77.83-1.33,1.62-1.33h6.07c10.62,0,19.23-8.61,19.23-19.23v-29.54c0-8.31-6.36-15.49-14.55-17.19ZM616.08,330.51c0,8.63-6.99,15.62-15.62,15.62h-6.77l.1-.66s0-.03,0-.04l4.45-28.27,4.47-28.41c.15-.96,1.09-1.58,2.03-1.36,6.4,1.47,11.32,7.1,11.32,13.59v29.54Z"/>
              <g>
                <path class="cls-39" d="M601.48,266.98h-92.44l4.3,7.52h2.39c.09.16.16.31.18.43l9.68,59.88.61,3.75,1.33,8.12c2.14,13.04,6.52,25.49,13.02,36.99l34.34.86c7.05-12.07,11.73-25.2,13.91-39l4-25.41.54-3.44,1.28-8.13,5.12-34.04h1.74v-7.52Z"/>
                <g class="cls-48">
                  <g>
                    <path class="cls-39" d="M587.61,320.38c-12.06-1.71-21.92-10.24-33.2-14.83-10.93-4.45-23.88-4.93-34.34.37l4.5,27.83.64,3.89,1.38,8.44c2.22,13.55,6.77,26.48,13.53,38.43l5.19-11.62c.29.52.85.84,1.45.84h22.76c.59,0,1.14-.31,1.43-.82l4.85,12.5c7.32-12.54,12.19-26.18,14.45-40.52l3.81-24.19c-2.15.06-4.3-.02-6.44-.32Z"/>
                    <path class="cls-39" d="M533.42,338.34c2.81-.12,5.71-.58,8.65-1.39,6.65-1.83,12.72-5.17,17.25-7.88.79-.47,1.58-.95,2.37-1.43,2.46-1.5,5-3.04,7.58-4.32,7.7-3.8,16.55-5.49,25.12-4.83l-4.16,26.4c-2.26,14.35-7.12,27.98-14.45,40.52l-5.33-11.67h-24.68l-5.67,10.78c-6.76-11.95-11.31-24.88-13.53-38.43l-1.38-8.44c1.47.33,2.99.55,4.55.66"/>
                    <path class="cls-39" d="M561.69,365.15c-.79.48-1.58.96-2.37,1.43-4.54,2.71-10.6,6.06-17.25,7.88-2.18.6-4.34,1-6.46,1.22,1.37,2.99,2.87,5.94,4.5,8.82l35.68.89c5.42-9.28,9.48-19.15,12.15-29.46-6.47.38-12.89,2.04-18.66,4.89-2.59,1.28-5.13,2.82-7.58,4.32Z"/>
                    <path class="cls-39" d="M526.68,353.56c1.01.17,2.03.3,3.07.37l3.67.04c2.81-.12,5.71-.58,8.65-1.39,6.65-1.83,12.72-5.17,17.25-7.88.79-.47,1.58-.95,2.37-1.43,2.46-1.5,5-3.04,7.58-4.32,7.29-3.6,15.62-5.3,23.76-4.91l1.36-8.61c-8.57-.66-17.42,1.03-25.12,4.83-2.59,1.28-5.13,2.82-7.58,4.32-.79.48-1.58.96-2.37,1.43-4.54,2.71-10.6,6.06-17.25,7.88-2.94.81-5.84,1.27-8.65,1.39l-3.67-.04c-1.56-.11-3.08-.32-4.55-.66l1.38,8.44c.03.18.06.36.09.54Z"/>
                  </g>
                </g>
              </g>
            </g>
            <g>
              <g>
                <rect class="cls-40" x="548.86" y="242.98" width="11.86" height="15.41" rx="5.41" ry="5.41"/>
                <g>
                  <rect class="cls-45" x="551.41" y="245.29" width=".94" height="7.4"/>
                  <rect class="cls-45" x="554.31" y="245.29" width=".94" height="7.4"/>
                  <rect class="cls-45" x="557.22" y="245.29" width=".94" height="7.4"/>
                </g>
                <rect class="cls-34" x="548.86" y="250.33" width="11.86" height=".87"/>
              </g>
              <g>
                <path class="cls-42" d="M602.56,255.75c0-2.51-2.04-4.55-4.55-4.55h-84.07c-2.51,0-4.55,2.04-4.55,4.55v.49h93.17v-.49Z"/>
                <rect class="cls-51" x="509.39" y="256.24" width="93.17" height="5.03"/>
              </g>
              <path class="cls-43" d="M515.49,251.2h-1.56c-2.51,0-4.55,2.04-4.55,4.55v5.52h13.09v-10.07h-6.98Z"/>
              <path class="cls-37" d="M598.01,251.2h-3.62v10.07h8.16v-5.52c0-2.51-2.04-4.55-4.55-4.55Z"/>
            </g>
          </g>
        </g>
        <g>
          <path class="cls-36" d="M608.56,441.11c-.1-.34-.24-.67-.4-.99-.02-.03-.03-.07-.05-.1-.16-.3-.34-.59-.55-.86-.03-.04-.06-.08-.09-.11-.21-.26-.43-.51-.68-.73-.04-.04-.08-.07-.12-.1-.25-.22-.51-.42-.79-.6-.04-.03-.09-.05-.13-.08-.29-.17-.59-.33-.91-.46-.04-.02-.08-.03-.12-.05-.33-.12-.67-.23-1.02-.29-.03,0-.06,0-.09-.01-.37-.07-.75-.11-1.14-.11h1.13l-6.56-29.37c-.16-.72-.35-1.43-.57-2.12-.12-.39-.27-.76-.41-1.15-.1-.27-.18-.55-.29-.81-.01-.03-.02-.05-.03-.08-.13-.33-.29-.65-.43-.97-.14-.32-.28-.64-.44-.95-.16-.32-.33-.63-.51-.94-.17-.3-.33-.6-.51-.89-.18-.3-.38-.6-.57-.89-.19-.28-.38-.57-.58-.84-.2-.28-.41-.56-.63-.84-.21-.27-.44-.54-.66-.8-.22-.26-.44-.52-.67-.77-.24-.27-.5-.52-.75-.78-.23-.23-.45-.46-.69-.68-.3-.28-.62-.54-.93-.81-.21-.18-.41-.36-.62-.53-.52-.42-1.06-.81-1.61-1.19-.2-.14-.41-.26-.62-.39-.38-.24-.75-.48-1.14-.7-.25-.14-.5-.27-.75-.4-.36-.19-.72-.38-1.09-.55-.27-.13-.54-.24-.81-.36-.37-.16-.74-.31-1.12-.45-.28-.1-.56-.2-.84-.3-.39-.13-.78-.25-1.17-.36-.28-.08-.56-.16-.85-.23-.35-.09-.7-.16-1.05-.23h.03-37.53.03c-.35.07-.7.15-1.05.23-.28.07-.57.15-.85.23-.39.11-.79.23-1.17.36-.28.09-.56.19-.84.3-.38.14-.75.3-1.12.45-.27.12-.54.23-.81.36-.37.17-.73.36-1.1.55-.25.13-.51.26-.75.4-.39.22-.76.46-1.14.7-.21.13-.42.25-.62.39-.55.38-1.09.77-1.61,1.19-.21.17-.41.35-.62.53-.31.27-.63.53-.93.81-.24.22-.46.45-.69.68-.26.26-.51.51-.76.78-.23.25-.45.51-.67.77-.22.26-.45.53-.66.81-.21.27-.42.55-.62.83-.2.28-.39.56-.58.84-.2.29-.39.59-.57.89-.18.29-.34.59-.51.89-.17.31-.35.62-.51.94-.16.31-.3.63-.44.95-.15.32-.3.64-.43.97-.01.03-.02.05-.04.08-.11.27-.19.55-.29.82-.14.38-.28.75-.4,1.14-.22.69-.41,1.4-.57,2.12l-2.91,13.02-3.65,16.35h1.13c-.39,0-.77.04-1.14.11-.03,0-.06,0-.09.01-.35.07-.69.17-1.02.29-.04.02-.08.03-.12.05-.32.13-.62.28-.91.46-.04.03-.09.05-.13.08-.28.18-.55.38-.79.6-.04.03-.08.07-.11.1-.24.23-.47.47-.68.73-.03.04-.06.08-.09.11-.2.27-.39.56-.55.86-.02.03-.03.07-.05.1-.16.32-.29.64-.4.99,0,.02,0,.04-.02.06-.11.36-.18.73-.22,1.12h0c-.02.22-.03.44-.03.66v5.02h101.7v-5.02c0-.62-.09-1.21-.26-1.78,0-.02,0-.04-.02-.06Z"/>
          <path class="cls-36" d="M605.14,283.78c-.88-.18-1.47-1-1.33-1.88l1.4-8.86c.25-1.58.94-2.17,1.76-2.17h.86c.92,0,1.66-.74,1.66-1.66l.15-5.93c.03-1.09-.85-1.99-1.94-1.99h-105.96c0,4.59,3.31,8.64,7.67,9.43.71.13,1.28.66,1.4,1.37l10.4,63.53,1.81,11.06c2.29,13.97,6.98,27.3,13.95,39.63l1.76.22c.29.52,40.18.72,40.18.72,6.59-11.28,11.24-23.43,13.87-36.16.16-.77.83-1.33,1.62-1.33h6.07c10.62,0,19.23-8.61,19.23-19.23v-29.54c0-8.31-6.36-15.49-14.55-17.19ZM616.08,330.51c0,8.63-6.99,15.62-15.62,15.62h-6.77l.1-.66s0-.03,0-.04l4.45-28.27,4.47-28.41c.15-.96,1.09-1.58,2.03-1.36,6.4,1.47,11.32,7.1,11.32,13.59v29.54Z"/>
          <path class="cls-36" d="M522.48,261.27h80.08v-5.52c0-2.51-2.04-4.55-4.55-4.55h-37.3v-2.3c0-3.27-2.65-5.93-5.93-5.93h0c-3.27,0-5.93,2.65-5.93,5.93v2.3h-34.92c-2.51,0-4.55,2.04-4.55,4.55v5.52h13.09Z"/>
        </g>
      </g>
      <g>
        <g>
          <g>
            <g>
              <path class="cls-53" d="M758.25,386.67h-26.85c-10.87,0-20.45,6.66-24.39,16.49h75.64c-3.94-9.83-13.52-16.49-24.39-16.49Z"/>
              <polygon class="cls-50" points="699.18 436.61 790.47 436.61 786.82 420.26 702.83 420.26 699.18 436.61"/>
              <path class="cls-14" d="M782.65,403.16h-75.64c-.52,1.31-.95,2.67-1.27,4.07l-2.91,13.02h83.99l-2.91-13.02c-.31-1.41-.74-2.77-1.27-4.07Z"/>
            </g>
            <path class="cls-16" d="M783.91,407.24c-2.68-12.02-13.35-20.57-25.66-20.57h-3.64c12.31,0,22.98,8.55,25.66,20.57l6.56,29.37h3.64l-6.56-29.37Z"/>
            <path class="cls-15" d="M742.73,386.81l-11.33-.14c-12.31,0-22.98,8.55-25.66,20.57l-6.56,29.37h10.71l6.56-29.37c2.68-12.02,13.97-20.43,26.29-20.43Z"/>
          </g>
          <g>
            <g>
              <path class="cls-42" d="M789.34,436.61h-89.03c-3.28,0-5.97,2.49-6.3,5.68h101.63c-.33-3.19-3.03-5.68-6.3-5.68Z"/>
              <path class="cls-51" d="M694.01,442.29c-.02.22-.03.44-.03.66v5.02h101.7v-5.02c0-.22-.01-.44-.03-.66h-101.63Z"/>
            </g>
            <path class="cls-35" d="M789.34,436.61h-3.64c3.5,0,6.34,2.84,6.34,6.34v5.02h3.64v-5.02c0-3.5-2.84-6.34-6.34-6.34Z"/>
            <path class="cls-43" d="M711.02,436.61h-10.71c-3.5,0-6.34,2.84-6.34,6.34v5.02h10.71v-5.02c0-3.5,2.84-6.34,6.34-6.34Z"/>
          </g>
          <g>
            <rect class="cls-42" x="726.06" y="377.76" width="37.53" height="9.47"/>
            <rect class="cls-37" x="760.12" y="377.76" width="3.47" height="9.47"/>
            <rect class="cls-43" x="726.06" y="377.76" width="16.37" height="9.47"/>
            <rect class="cls-43" x="726.06" y="377.76" width="4.64" height="9.47"/>
          </g>
          <g>
            <g>
              <path class="cls-39" d="M791.98,283.78c-.88-.18-1.47-1-1.33-1.88l1.4-8.86c.25-1.58.94-2.17,1.76-2.17h.86c.92,0,1.66-.74,1.66-1.66l.15-5.93c.03-1.09-.85-1.99-1.94-1.99h-105.96c0,4.59,3.31,8.64,7.67,9.43.71.13,1.28.66,1.4,1.37l10.4,63.53,1.81,11.06c2.29,13.97,6.98,27.3,13.95,39.63l41.94.94c6.59-11.28,11.24-23.43,13.87-36.16.16-.77.83-1.33,1.62-1.33h6.07c10.62,0,19.23-8.61,19.23-19.23v-29.54c0-8.31-6.36-15.49-14.55-17.19ZM802.92,330.51c0,8.63-6.99,15.62-15.62,15.62h-6.77l.1-.66s0-.03,0-.04l4.45-28.27,4.47-28.41c.15-.96,1.09-1.58,2.03-1.36,6.4,1.47,11.32,7.1,11.32,13.59v29.54Z"/>
              <g>
                <path class="cls-39" d="M788.32,266.98h-92.44l4.3,7.52h2.39c.09.16.16.31.18.43l9.68,59.88.61,3.75,1.33,8.12c2.14,13.04,6.52,25.49,13.02,36.99l34.34.86c7.05-12.07,11.73-25.2,13.91-39l4-25.41.54-3.44,1.28-8.13,5.12-34.04h1.74v-7.52Z"/>
                <g class="cls-17">
                  <g>
                    <path class="cls-39" d="M774.45,320.38c-12.06-1.71-21.92-10.24-33.2-14.83-10.93-4.45-23.88-4.93-34.34.37l4.5,27.83.64,3.89,1.38,8.44c2.22,13.55,6.77,26.48,13.53,38.43l5.19-11.62c.29.52.85.84,1.45.84h22.76c.59,0,1.14-.31,1.43-.82l4.85,12.5c7.32-12.54,12.19-26.18,14.45-40.52l3.81-24.19c-2.15.06-4.3-.02-6.44-.32Z"/>
                    <path class="cls-39" d="M720.26,338.34c2.81-.12,5.71-.58,8.65-1.39,6.65-1.83,12.72-5.17,17.25-7.88.79-.47,1.58-.95,2.37-1.43,2.46-1.5,5-3.04,7.58-4.32,7.7-3.8,16.55-5.49,25.12-4.83l-4.16,26.4c-2.26,14.35-7.12,27.98-14.45,40.52l-5.33-11.67h-24.68l-5.67,10.78c-6.76-11.95-11.31-24.88-13.53-38.43l-1.38-8.44c1.47.33,2.99.55,4.55.66"/>
                    <path class="cls-39" d="M748.53,365.15c-.79.48-1.58.96-2.37,1.43-4.54,2.71-10.6,6.06-17.25,7.88-2.18.6-4.34,1-6.46,1.22,1.37,2.99,2.87,5.94,4.5,8.82l35.68.89c5.42-9.28,9.48-19.15,12.15-29.46-6.47.38-12.89,2.04-18.66,4.89-2.59,1.28-5.13,2.82-7.58,4.32Z"/>
                    <path class="cls-39" d="M713.52,353.56c1.01.17,2.03.3,3.07.37l3.67.04c2.81-.12,5.71-.58,8.65-1.39,6.65-1.83,12.72-5.17,17.25-7.88.79-.47,1.58-.95,2.37-1.43,2.46-1.5,5-3.04,7.58-4.32,7.29-3.6,15.62-5.3,23.76-4.91l1.36-8.61c-8.57-.66-17.42,1.03-25.12,4.83-2.59,1.28-5.13,2.82-7.58,4.32-.79.48-1.58.96-2.37,1.43-4.54,2.71-10.6,6.06-17.25,7.88-2.94.81-5.84,1.27-8.65,1.39l-3.67-.04c-1.56-.11-3.08-.32-4.55-.66l1.38,8.44c.03.18.06.36.09.54Z"/>
                  </g>
                </g>
              </g>
            </g>
            <g>
              <g>
                <rect class="cls-40" x="735.69" y="242.98" width="11.86" height="15.41" rx="5.41" ry="5.41"/>
                <g>
                  <rect class="cls-45" x="738.24" y="245.29" width=".94" height="7.4"/>
                  <rect class="cls-45" x="741.15" y="245.29" width=".94" height="7.4"/>
                  <rect class="cls-45" x="744.06" y="245.29" width=".94" height="7.4"/>
                </g>
                <rect class="cls-34" x="735.69" y="250.33" width="11.86" height=".87"/>
              </g>
              <g>
                <path class="cls-42" d="M789.4,255.75c0-2.51-2.04-4.55-4.55-4.55h-84.07c-2.51,0-4.55,2.04-4.55,4.55v.49h93.17v-.49Z"/>
                <rect class="cls-51" x="696.23" y="256.24" width="93.17" height="5.03"/>
              </g>
              <path class="cls-43" d="M702.33,251.2h-1.56c-2.51,0-4.55,2.04-4.55,4.55v5.52h13.09v-10.07h-6.98Z"/>
              <path class="cls-37" d="M784.85,251.2h-3.62v10.07h8.16v-5.52c0-2.51-2.04-4.55-4.55-4.55Z"/>
            </g>
          </g>
        </g>
        <g>
          <path class="cls-36" d="M795.4,441.11c-.1-.34-.24-.67-.4-.99-.02-.03-.03-.07-.05-.1-.16-.3-.34-.59-.55-.86-.03-.04-.06-.08-.09-.11-.21-.26-.43-.51-.68-.73-.04-.04-.08-.07-.12-.1-.25-.22-.51-.42-.79-.6-.04-.03-.09-.05-.13-.08-.29-.17-.59-.33-.91-.46-.04-.02-.08-.03-.12-.05-.33-.12-.67-.23-1.02-.29-.03,0-.06,0-.09-.01-.37-.07-.75-.11-1.14-.11h1.13l-6.56-29.37c-.16-.72-.35-1.43-.57-2.12-.12-.39-.27-.76-.41-1.15-.1-.27-.18-.55-.29-.81-.01-.03-.02-.05-.03-.08-.13-.33-.29-.65-.43-.97-.14-.32-.28-.64-.44-.95-.16-.32-.33-.63-.51-.94-.17-.3-.33-.6-.51-.89-.18-.3-.38-.6-.57-.89-.19-.28-.38-.57-.58-.84-.2-.28-.41-.56-.63-.84-.21-.27-.44-.54-.66-.8-.22-.26-.44-.52-.67-.77-.24-.27-.5-.52-.75-.78-.23-.23-.45-.46-.69-.68-.3-.28-.62-.54-.93-.81-.21-.18-.41-.36-.62-.53-.52-.42-1.06-.81-1.61-1.19-.2-.14-.41-.26-.62-.39-.38-.24-.75-.48-1.14-.7-.25-.14-.5-.27-.75-.4-.36-.19-.72-.38-1.09-.55-.27-.13-.54-.24-.81-.36-.37-.16-.74-.31-1.12-.45-.28-.1-.56-.2-.84-.3-.39-.13-.78-.25-1.17-.36-.28-.08-.56-.16-.85-.23-.35-.09-.7-.16-1.05-.23h.03-37.53.03c-.35.07-.7.15-1.05.23-.28.07-.57.15-.85.23-.39.11-.79.23-1.17.36-.28.09-.56.19-.84.3-.38.14-.75.3-1.12.45-.27.12-.54.23-.81.36-.37.17-.73.36-1.1.55-.25.13-.51.26-.75.4-.39.22-.76.46-1.14.7-.21.13-.42.25-.62.39-.55.38-1.09.77-1.61,1.19-.21.17-.41.35-.62.53-.31.27-.63.53-.93.81-.24.22-.46.45-.69.68-.26.26-.51.51-.76.78-.23.25-.45.51-.67.77-.22.26-.45.53-.66.81-.21.27-.42.55-.62.83-.2.28-.39.56-.58.84-.2.29-.39.59-.57.89-.18.29-.34.59-.51.89-.17.31-.35.62-.51.94-.16.31-.3.63-.44.95-.15.32-.3.64-.43.97-.01.03-.02.05-.04.08-.11.27-.19.55-.29.82-.14.38-.28.75-.4,1.14-.22.69-.41,1.4-.57,2.12l-2.91,13.02-3.65,16.35h1.13c-.39,0-.77.04-1.14.11-.03,0-.06,0-.09.01-.35.07-.69.17-1.02.29-.04.02-.08.03-.12.05-.32.13-.62.28-.91.46-.04.03-.09.05-.13.08-.28.18-.55.38-.79.6-.04.03-.08.07-.11.1-.24.23-.47.47-.68.73-.03.04-.06.08-.09.11-.2.27-.39.56-.55.86-.02.03-.03.07-.05.1-.16.32-.29.64-.4.99,0,.02,0,.04-.02.06-.11.36-.18.73-.22,1.12h0c-.02.22-.03.44-.03.66v5.02h101.7v-5.02c0-.62-.09-1.21-.26-1.78,0-.02,0-.04-.02-.06Z"/>
          <path class="cls-36" d="M791.98,283.78c-.88-.18-1.47-1-1.33-1.88l1.4-8.86c.25-1.58.94-2.17,1.76-2.17h.86c.92,0,1.66-.74,1.66-1.66l.15-5.93c.03-1.09-.85-1.99-1.94-1.99h-105.96c0,4.59,3.31,8.64,7.67,9.43.71.13,1.28.66,1.4,1.37l10.4,63.53,1.81,11.06c2.29,13.97,6.98,27.3,13.95,39.63l1.76.22c.29.52,40.18.72,40.18.72,6.59-11.28,11.24-23.43,13.87-36.16.16-.77.83-1.33,1.62-1.33h6.07c10.62,0,19.23-8.61,19.23-19.23v-29.54c0-8.31-6.36-15.49-14.55-17.19ZM802.92,330.51c0,8.63-6.99,15.62-15.62,15.62h-6.77l.1-.66s0-.03,0-.04l4.45-28.27,4.47-28.41c.15-.96,1.09-1.58,2.03-1.36,6.4,1.47,11.32,7.1,11.32,13.59v29.54Z"/>
          <path class="cls-36" d="M709.32,261.27h80.08v-5.52c0-2.51-2.04-4.55-4.55-4.55h-37.3v-2.3c0-3.27-2.65-5.93-5.93-5.93h0c-3.27,0-5.93,2.65-5.93,5.93v2.3h-34.92c-2.51,0-4.55,2.04-4.55,4.55v5.52h13.09Z"/>
        </g>
      </g>
    </g>
    <g id="_圖層_7" data-name="圖層 7">
      <g>
        <path class="cls-9" d="M323.4,245.07c-.06,1.5.07,3.08-.28,4.55,13.92,2.85,27.17,4.21,40.98.28-.03-.05-.05-.1-.05-.17-.33-3.35-.1-6.63.37-9.93-13.36,3.72-27.3,3.81-40.7.18-.13,1.7-.26,3.39-.32,5.1Z"/>
        <path class="cls-9" d="M315.85,197.22c-5.94,2.33-5.81,7.83-3.15,12.66,5.09,9.22,14.42,17.31,11.49,28.81,13.03,3.45,26.42,3.43,39.41-.08-.08-.05-.16-.13-.18-.24-3.47-15.15,25.1-26.75,10.38-41.44-6.89-6.89-17.64-5.85-25.24-.86-5.36,3.52-10.15,8.24-16.93,8.38-.61,0-.57-.85,0-.93,4.45-.55,8-2.77,11.45-5.2-5.35.62-10.45.17-15.78-.9-3.81-.77-7.69-1.67-11.43-.2Z"/>
        <path class="cls-2" d="M320.99,195c3.36.11,6.6,1.18,9.88,1.79,4.52.83,9.04.93,13.61.53,3.38-2.43,6.76-4.89,10.89-6,6.54-1.75,13.91-.49,19,4.14,5.17,4.69,5.91,11.62,3.15,17.84-3.88,8.75-14.5,14.27-13.21,24.94,0,.07,0,.13-.02.18.25-.07.51-.14.76-.21.54-.16.91.34.83.83-.57,3.56-.74,7.09-.96,10.67,0,.07-.02.13-.05.18.17.17.21.5-.06.61-13.2,5.8-28.63,3.21-42.25.43-.67-.14-.62-.92-.2-1.25-.94-3.04-.28-7.23.05-10.31.03-.17.1-.31.2-.41.04-.14.12-.27.23-.36,2.27-9.13-3.57-16.42-8.45-23.46-2.85-4.1-6.92-9.74-4.32-14.94,1.99-3.98,6.79-5.35,10.93-5.22ZM324.19,238.69c13.03,3.45,26.42,3.43,39.41-.08-.08-.05-.16-.13-.18-.24-3.47-15.15,25.1-26.75,10.38-41.44-6.89-6.89-17.64-5.85-25.24-.86-5.36,3.52-10.15,8.24-16.93,8.38-.61,0-.57-.85,0-.93,4.45-.55,8-2.77,11.45-5.2-5.35.62-10.45.17-15.78-.9-3.81-.77-7.69-1.67-11.43-.2-5.94,2.33-5.81,7.83-3.15,12.66,5.09,9.22,14.42,17.31,11.49,28.81ZM364.11,249.89s-.05-.1-.05-.17c-.33-3.35-.1-6.63.37-9.93-13.36,3.72-27.3,3.81-40.7.18-.13,1.7-.26,3.39-.32,5.1-.06,1.5.07,3.08-.28,4.55,13.92,2.85,27.17,4.21,40.98.28Z"/>
      </g>
    </g>
  </g>
</svg>