<?xml version="1.0" encoding="UTF-8"?>
<svg id="_圖層_9" data-name="圖層 9" xmlns="http://www.w3.org/2000/svg" viewBox="0 0 106.8 106.8">
  <defs>
    <style>
      .cls-1 {
        fill: #7f292d;
      }

      .cls-2 {
        fill: #9a4623;
      }

      .cls-3 {
        fill: #833220;
      }

      .cls-4 {
        fill: #779e2d;
      }

      .cls-5 {
        fill: #c27858;
      }

      .cls-6 {
        fill: #b9ba1b;
      }

      .cls-7 {
        fill: #e24a30;
      }

      .cls-8 {
        fill: none;
        stroke-width: 3px;
      }

      .cls-8, .cls-9 {
        stroke: #231815;
        stroke-linecap: round;
        stroke-linejoin: round;
      }

      .cls-9 {
        fill: #fff;
        stroke-width: 2px;
      }

      .cls-10 {
        fill: #e1e4a3;
      }

      .cls-11 {
        fill: #cc3220;
      }

      .cls-12 {
        fill: #f3a9a9;
      }
    </style>
  </defs>
  <g>
    <polygon class="cls-9" points="1 105.8 1 1 105.8 1 105.8 75.29 67.62 105.8 1 105.8"/>
    <g>
      <path class="cls-8" d="M81.51,49.96c-.01-.21-.03-.42-.05-.63-.04-.47-.08-.93-.15-1.38-.03-.23-.07-.46-.11-.69-.07-.44-.16-.87-.26-1.29-.05-.2-.09-.41-.14-.61-.14-.54-.31-1.07-.49-1.59-.02-.06-.04-.13-.06-.19-.21-.57-.45-1.12-.71-1.66-.09-.18-.18-.35-.27-.52-.19-.36-.38-.71-.6-1.06-.12-.19-.24-.38-.36-.56-.09-.13-.17-.28-.26-.41-.14-.2-.3-.38-.44-.57-.11-.15-.22-.29-.34-.44-.37-.45-.77-.89-1.19-1.3-3.22-3.16-7.79-5.15-13.54-5.59,6.18-1.44,11.63-7.01,10.09-14.03l-1.28.54c-13.99-3.66-19.39,3.44-19.59,10.82,1.44,1.42,3.16,2.31,5,2.73-1.54.14-3.15.37-4.82.71,0,0,0-.01,0-.02,0-.35.01-.7,0-1.05-.01-.46-.04-.93-.08-1.39,0-.04,0-.08-.01-.12-.1-1.07-.3-2.13-.59-3.14-.18-.7-.39-1.4-.65-2.11.01.12.02.24.03.36-.86-1.95-2.2-3.6-4.16-4.55-.76-.08-1.84.56-2.58,1.48-.76.91-1.18,2.06-.6,2.94,2.97,1.65,4.74,4.14,5.46,7.34-17.94-2.98-28.39,6.01-28.05,20.03.17,4.11.94,8.59,2.38,12.91,3.11,9.31,9.37,17.9,19.6,20.53,2.13.38,3.93.34,5.86-.57.21-.1.41-.2.63-.28.68-.27,1.27-.41,1.94-.42.68.02,1.26.16,1.94.42.21.08.42.18.63.28,1.93.91,3.72.95,5.85.57,7.42-1.91,12.75-6.95,16.3-13.13.01-.02.03-.04.05-.07,0-.02.02-.04.03-.05.24-.43.46-.87.68-1.3.19-.37.4-.73.58-1.1.2-.41.37-.84.55-1.25.18-.41.37-.82.54-1.23.16-.39.29-.79.43-1.18.17-.45.34-.9.49-1.36.12-.37.22-.74.33-1.1.15-.49.31-.98.44-1.48.09-.33.15-.66.24-.99.13-.53.27-1.07.38-1.6.06-.29.1-.58.16-.88.11-.57.22-1.13.3-1.7.05-.32.08-.64.12-.95.07-.53.15-1.06.2-1.58.08-.84.14-1.66.17-2.47.02-.7,0-1.39-.04-2.07Z"/>
      <g>
        <path class="cls-7" d="M81.55,52.03c-.54,12.96-7,29.59-21.98,33.44-2.13.38-3.93.34-5.85-.57-.21-.1-.41-.2-.63-.28-.68-.27-1.26-.41-1.94-.42-.68.02-1.26.16-1.94.42-.21.08-.42.18-.63.28-1.93.91-3.72.95-5.86.57-10.23-2.63-16.49-11.22-19.6-20.53-1.44-4.32-2.21-8.8-2.38-12.91-.35-14.63,11.01-23.82,30.41-19.61,11.26-2.44,19.82-.37,24.94,4.66,3.7,3.63,5.61,8.81,5.47,14.95Z"/>
        <path class="cls-11" d="M56.86,35.89c-1.88,1.46-4.02,2.26-6.47,2.33-2.45-.07-4.6-.87-6.47-2.33,0,0-1.4-1.86-.5-2.4.65-.39,4.04.3,5.84.71.75.17,1.52.17,2.27,0,1.8-.41,5.19-1.11,5.84-.71.9.54-.5,2.4-.5,2.4Z"/>
        <path class="cls-11" d="M81.55,52.03c-.27,6.52-2.04,13.96-5.63,20.24-3.53,5.51-8.6,9.92-15.43,11.68-2.13.38-3.93.34-5.85-.57-.21-.1-.41-.2-.63-.28-.68-.27-1.26-.41-1.94-.42-.68.02-1.26.16-1.94.42-.21.08-.42.18-.63.28-1.93.91-3.72.95-5.86.57-8.91-2.29-14.8-9.09-18.23-16.96,17.28,14.15,40.12,3.97,48.61-11h0c3.38-5.96,4.49-12.67,2.07-18.91.73.71,1.38,1.48,1.97,2.31,2.4,3.39,3.62,7.7,3.5,12.64Z"/>
        <path class="cls-1" d="M43.95,34.77c1.77,1.8,4.19,2.82,6.74,2.87,2.54,0,4.98-.96,6.88-2.62.14-.12.36-.11.48.03.1.11.11.27.04.39-.36.59-.86,1.11-1.42,1.55-3.72,2.88-10.78,2.42-13.27-1.82-.2-.34.27-.68.54-.39h0Z"/>
        <path class="cls-6" d="M51.76,28.82c.2-7.38,5.6-14.48,19.59-10.82l1.28-.54c2.49,11.34-13.26,18.9-20.87,11.36Z"/>
        <path class="cls-4" d="M51.76,28.82c5.93-6.1,11.44-4.19,17.09-8.39.91-.67,1.74-1.49,2.5-2.43l1.28-.54c2.49,11.34-13.26,18.9-20.87,11.36Z"/>
        <path class="cls-12" d="M34.64,49.04c-4.49,2.89-5.22,8.98-7.69,8.51-4.6-.87-5.06-7.86-2.07-13.66,2.99-5.79,8.79-8.75,12.95-6.6,4.16,2.15,2.86,7.85-3.2,11.75Z"/>
        <path class="cls-10" d="M64.32,18.56c.47,1.14-1.97,1.75-4.37,3.03-2.4,1.28-4.43,2.32-4.83,1.57-.4-.75,1.03-2.56,3.43-3.84s5.44-1.54,5.76-.75Z"/>
        <path class="cls-2" d="M46.49,20.24c-1.47-.16-4.17,2.39-3.18,4.42,4.67,2.6,6.41,7.26,5.69,13.51.62.07,1.27.07,1.93.01,1.71-4.55,1.89-14.88-4.45-17.94Z"/>
        <path class="cls-3" d="M49.14,34.65c1.7,1.14,2.3-1.87,1.48-10.21,1.77,4.84,1.73,9.4.32,13.75-.69.08-1.33.05-1.93-.08l.13-3.46Z"/>
        <path class="cls-5" d="M46.49,20.24c2.68,1.5-1.47,5.81-3.18,4.42-1.14-1.72,1.55-4.52,3.18-4.42Z"/>
      </g>
    </g>
  </g>
  <path class="cls-9" d="M105.8,75.29s-1.72,13.27-33.56,0l-4.62,30.51s36.2-5.97,38.18-30.51Z"/>
</svg>