<?xml version="1.0" encoding="UTF-8"?>
<svg id="_レイヤー_1" data-name="レイヤー_1" xmlns="http://www.w3.org/2000/svg" xmlns:xlink="http://www.w3.org/1999/xlink" version="1.1" viewBox="0 0 548.9 418.8">
  <!-- Generator: Adobe Illustrator 30.0.0, SVG Export Plug-In . SVG Version: 2.1.1 Build 123)  -->
  <defs>
    <style>
      .st0 {
        fill: #437ab7;
      }

      .st0, .st1, .st2, .st3, .st4, .st5, .st6, .st7, .st8, .st9, .st10, .st11, .st12, .st13, .st14 {
        stroke: #000;
        stroke-linecap: round;
        stroke-linejoin: round;
        stroke-width: 2px;
      }

      .st1 {
        fill: #cbdfee;
      }

      .st2 {
        fill: #c2dceb;
      }

      .st3 {
        fill: #3c5fa0;
      }

      .st4 {
        fill: none;
      }

      .st5 {
        fill: #3f65a8;
      }

      .st6 {
        fill: #cadee9;
      }

      .st7 {
        fill: #6cc1dc;
      }

      .st8 {
        fill: #4267a6;
      }

      .st9 {
        fill: #385d9a;
      }

      .st10 {
        fill: url(#_名称未設定グラデーション_53);
      }

      .st11 {
        fill: url(#_名称未設定グラデーション_28);
      }

      .st12 {
        fill: url(#_名称未設定グラデーション_41);
      }

      .st13 {
        fill: url(#_名称未設定グラデーション_13);
      }

      .st14 {
        fill: #3b5c9e;
      }
    </style>
    <linearGradient id="_名称未設定グラデーション_53" data-name="名称未設定グラデーション 53" x1="254.7" y1="221.7" x2="292.6" y2="221.7" gradientUnits="userSpaceOnUse">
      <stop offset="0" stop-color="#73aed4"/>
      <stop offset=".3" stop-color="#6eacd2"/>
      <stop offset=".6" stop-color="#68abd0"/>
    </linearGradient>
    <linearGradient id="_名称未設定グラデーション_41" data-name="名称未設定グラデーション 41" x1="232.1" y1="196.7" x2="314.9" y2="196.7" gradientUnits="userSpaceOnUse">
      <stop offset="0" stop-color="#aed4e8"/>
      <stop offset=".1" stop-color="#a5cfe5"/>
      <stop offset=".4" stop-color="#8ec2df"/>
      <stop offset=".6" stop-color="#6eb1d7"/>
    </linearGradient>
    <linearGradient id="_名称未設定グラデーション_28" data-name="名称未設定グラデーション 28" x1="77.2" y1="153.2" x2="469.9" y2="153.2" gradientUnits="userSpaceOnUse">
      <stop offset="0" stop-color="#598fc1"/>
      <stop offset=".2" stop-color="#568abd"/>
      <stop offset=".4" stop-color="#4e7cb3"/>
      <stop offset=".7" stop-color="#4167a3"/>
    </linearGradient>
    <linearGradient id="_名称未設定グラデーション_13" data-name="名称未設定グラデーション 13" x1="77.2" y1="137.6" x2="469.9" y2="137.6" gradientUnits="userSpaceOnUse">
      <stop offset="0" stop-color="#e8f0fa"/>
      <stop offset=".2" stop-color="#e5eef8"/>
      <stop offset=".4" stop-color="#dde8f4"/>
      <stop offset=".5" stop-color="#cfdfed"/>
      <stop offset=".5" stop-color="#bed4e5"/>
    </linearGradient>
  </defs>
  <g id="OxvtlI.tif">
    <g>
      <path class="st4" d="M469,154.1c-.9-.3-1.8-.2-2.7-.2-19.6,0-39.3,0-58.9,0s-25.1,0-37.7,0c-30.2-.1-60.4.5-90.7.2-6.3,0-12.7-.5-19-.4-5.7.2-11.3.4-17,.1-6.4-.3-12.8.1-19.2,0-8.2,0-16.3.1-24.5,0-20.8-.5-41.6-.2-62.4-.2-6,0-12,.4-18,.1-6.3-.3-12.7,0-19-.2-7.2,0-14.5,0-21.7,0"/>
      <path class="st10" d="M283.9,205c-.6,2.1,3.8,15,5.5,19.5.7,1.9,1.2,3.9,2.2,5.8.4.7.6,1.5.8,2.2.8,4.3-.4,5.7-4.7,5.7-9.2,0-18.3-.3-27.5,0-6.3.2-6.2-3.5-4.5-7.6,3.3-8.3,5.8-16.8,7.8-25.4l20.5-.2Z"/>
      <path class="st7" d="M273.1,292.4c-3.6,2.5-5.8,5.9-7.1,9.8-.4,1.2-.7,2.7-.7,4.2,0,3.6,1.6,6.4,4.6,8.2,2.2,1.3,5,1,7.2-.2,3.2-1.8,4.6-4.7,4.3-8.4-.2-2-.9-3.8-1.8-5.5-1.6-3-2.8-6.4-6.2-8"/>
      <path class="st7" d="M223.9,315.6c-5.1,1-9.4,3.6-13,7.3-3,3.1-2.5,9.7,1.4,12,3.8,2.2,9.4.9,11.8-4.5s1.8-9.7,0-14.5"/>
      <path class="st7" d="M246.4,281.2c-1.5.6-2.9.6-4.2,1.3-3.8,1.9-7.3,4.4-9.7,8-2,2.9-.6,8.1,2.7,10.2,6.3,4.1,11.2-.4,12.4-6,1-4.6.5-9.3-.7-14,0,0-.3.4-.5.5Z"/>
      <path class="st7" d="M273.4,253.2c-2.7,4.2-5.4,7.4-7.3,11.7-2.6,5.8,3.9,13.1,10.1,10.6,2.8-1.2,5.1-3.3,5.2-6.3.2-6.4-2.9-11.3-7-15.7-.5-.5-.7-.9-.7-1.5,0,0,0,1-.2,1.2Z"/>
      <path class="st7" d="M273.6,332.6c-3.7,1.7-4.8,5.3-6.4,8.5-.6,1.3-1.3,2.7-1.6,4.2-.6,2.8,1.4,7,4,8.5,2.8,1.5,5.7,1.5,8.4,0,2.4-1.3,4.2-6.2,3.5-8.9-1.2-4.4-3.5-8.3-6.5-11.7-.3-.4-.8-.3-1.2-.5"/>
      <path class="st12" d="M232.2,188.1c-.4,6.8,2.4,13.7,9.5,16.2,1.9.7,3.8.9,5.7,1,4.4.3,24.7-.5,30.5-.3,3.8.2,19,0,22.7,0,6.1.3,11.6-5,13.3-9.5.9-2.4,1.1-4.9,1-7.5h-82.7Z"/>
      <path class="st7" d="M299.9,279.4c.4,1.4-.2,2.7-.4,4-.6,4.1-.7,8.4.2,12.5.7,3.1,3,5.1,6,5.9,3,.8,6.1,0,7.9-2.5,1.9-2.6,2.5-5.8.8-8.9-2.6-4.9-7.3-6.9-12-8.9-.6-.2-2.5-2.1-2.5-2.1Z"/>
      <path class="st11" d="M332.6,184.8c-4.7,1.4-9.4,3-14.5,3.2-2.6.1-5.2,0-7.8,0-18.2,0-36.5,0-54.7,0-7.2,0-14.5.1-21.7.1-2.2,0-4.3-.5-6.5-.2-2.1.3-4.2,0-6.2-.4-2.1-.5-3.9-1.8-6-2.3,0,0-24.2-13.4-25-13.4-1.6,0-15.2-2.1-20.5-2.9-4.5-.7-9-1.2-13.5-1.7-4.7-.6-9.5-1.2-14.3-2.2-4.7-1-9.5-1.3-14.2-1.9-2.4-.3-4.2.2-5.7,1.8-3.2,3.4-7.2,5.2-11.5,6.4-9.6,2.7-18.7.6-26.6-5.1-3.9-2.8-8.3-6.4-6.1-12.6,0-.1,0-.4,0-.5-1.8-4.1.9-6.7,3.6-8.6,2.7-1.9,5.8-2.8,9.4-2.8,4.6,0,9.2.1,13.7.2,5.7.1,11.3-1.4,17,.2.3,0,.7,0,1,0,9.1-1.7,18.2-3.6,27.5-4.8,5.4-.7,10.8-2.3,16.2-3.1,6-.9,12-2,18-3.3,7.2-1.6,14.5-2.7,21.7-4,3.5-.6,7-1.9,10.5-2.2,9.4-.7,18.5-3,27.7-4.6,7-1.2,14-1.6,21-1.9,8.6-.4,17.1-.1,25.7.5,5.3.4,10.5,1,15.7,1.8,4.4.7,8.9,1.8,13.3,2.5,7.4,1.1,14.8,2.5,22.2,3.9,4.5.9,9,1.5,13.5,2.4,5.7,1.1,11.4,2.2,17,3.4,4.5,1,9.2,1.3,13.7,2.3,3.8.8,7.6,1.8,11.5,2.4,6.5,1,13,2.2,19.5,3.5,2.9.6,5.8,1.4,8.7,1.3l30.3-.2c.2-.2,1.9-1.3,2.2-1,2.5,2,6,1.8,8.6,3.9,2.1,1.7,3,4,2.8,6.3-.2,2,0,4-.2,6-.3,4.6-3.3,7.3-6.9,9.5-2.7,1.7-5.7,2.8-8.7,3.8-10.5,3.3-20.1,1.7-28.4-5.6-1.9-1.6-3.8-2.1-6-1.9-6.6.5-13.2,1.7-19.7,2.9-4.7.8-9.5,1.1-14.2,1.9-4.6.7-24.4,3.2-29.7,4s-3.8.9-5.2,2.2l-18,11Z"/>
      <path class="st7" d="M323.3,315.5c-2.3,3.2-1.5,6.9-1.2,10.4.2,2,.3,4.1,1.4,6,1.5,2.6,3.4,4,6.3,4.2,3.1.2,5.6-.7,7.3-3.5,1.6-2.6,1.2-7.5-.7-9.8-2.6-3.1-6-4.6-9.4-6.1s-2.3-.7-3.3-1.3"/>
      <path class="st3" d="M194.9,177.6c-4.3,5.7-8.7,11.4-12.6,17.3-5.7,8.7-11.1,17.7-13.7,28.1-1.9,7.4-3,14.9-4.9,22.2-1.5,5.9-2.3,11.8-3.5,17.7-.4,2,.4,2.6,2.1,2.7,1.7.2,3.5.3,5.3,0,1.8-.2,2.7-1.1,3.1-2.6,2.1-8.1,5-15.9,7.2-24,2-7.3,4.3-14.5,7.1-21.4,1.3-3.3,3.9-5.9,6.2-8.5,5.5-6.2,11.6-11.7,17.5-17.4,2.2-2.1,4.2-4.3,6.5-6.3l.3-.3c-.4-.1-.4-1.2-.8-1.7-1.4-2-2.4-4.1-3.5-6.2-1-2-2.9-2.5-5.4-2.7s-7.3-.8-8.8-.3l-1.8,3.2Z"/>
      <path class="st13" d="M77.8,153.1c-1.8-4.1.9-6.7,3.6-8.6,2.7-1.9,5.8-2.8,9.4-2.8,4.6,0,9.2.1,13.7.2,5.7.1,11.3-1.4,17,.2.3,0,.7,0,1,0,9.1-1.7,18.2-3.6,27.5-4.8,5.4-.7,28.3-5.1,34.2-6.4,7.2-1.6,50.7-9.2,59.9-10.7,7-1.2,14-1.6,21-1.9,8.6-.4,17.1-.1,25.7.5,5.3.4,10.5,1,15.7,1.8,4.4.7,28.1,4.9,35.5,6.3,4.5.9,39.7,7.1,44.2,8.1,3.8.8,7.6,1.8,11.5,2.4,6.5,1,13,2.2,19.5,3.5,2.9.6,5.8,1.4,8.7,1.3l30.3-.2c.2-.2,1.9-1.3,2.2-1,2.5,2,6,1.8,8.6,3.9,2.1,1.7,3,4,2.8,6.3-.2,2,0,4-.2,6l-391.8-4Z"/>
      <path class="st9" d="M388.3,265.6c-2.7.1-5.5.2-8.2,0-1.6-.1-2.5-.6-3-2.3-3.1-10.8-6.9-21.4-10-32.2-1.4-5.1-3.1-10-5.5-14.7-1.1-2.2-2.6-4.2-4.3-6-6.5-7.1-13.2-13.9-20.2-20.5-.8-.8-1.5-1.7-2.3-2.5-2.4-2.5-2.5-2.5-.9-5.5.6-1.2,1.3-2.4,1.6-3.5,1-3.4,3.6-4.1,6.6-4.2,2.7,0,5.3,0,8,0,.6.9.7,2.2,1.5,3,3.4,3.4,5.5,7.7,8.5,11.5,5.3,6.7,9.6,14.1,13.5,21.7,3.9,7.6,6.1,15.8,7.8,24.2,1.4,7.5,3.2,14.8,4.9,22.2.6,2.7,1.3,5.6.9,8.5"/>
      <path class="st2" d="M109.3,112.2c10,1,19.9,3,30,3.3,5.5.2,11,1.1,16.5.9,6.1-.3,12.2-.8,18.2-1.4,4.5-.4,8.9-1,13.3-2.5.8-.3,1.4-.6,2-1.1,1.1-.9,1.3-1.8,0-2.8-2.7-2.1-6-2.8-9.3-3.2-7.1-1-14.3-1.8-21.5-2-4.9-.1-9.8.2-14.7.5-5.3.3-10.7,1-16,1.5-4.4.4-8.6,1.7-13,2.5-1.9.4-4-.2-5.8,1l.2,3.2Z"/>
      <path class="st6" d="M96.6,110.9c-.9-3.1-2.2-2.7-4.5-3.1-3.1-.6-6.1-1.3-9.2-1.8-5.1-.9-10.3-1.2-15.5-1.7-5.6-.5-11.1-.9-16.7-.8-7.2.2-14.4.7-21.5,1.9-3,.5-5.9,1.1-8.7,2.1-.6.2-1.2.5-1.8,1-1.8,1.5-1.8,2.6.3,3.8,1.9,1,3.8,1.8,6,2,4.6.5,9.1,1.1,13.7,1.3,4.5.3,9,.9,13.5.9,6.6,0,13.2-.7,19.7-1.1,4.3-.3,8.8-.5,13-1.5,3.9-.9,8.2-.6,11.8-2.9Z"/>
      <path class="st0" d="M108.3,121.4c-.2-3.8.4-7.7.2-11.5-.1-2.6-.7-5.2-1.5-7.7-.9-2.6-2.4-3.3-4.9-3-1.8.2-3.4,1.9-3.7,4.2-.3,2.3-1.7,8.5-1.7,8.5.9,3.3.6,6.5.7,9.8"/>
      <path class="st5" d="M88.6,142.1c-.4-4.4,0-8.8,0-13.2,0-2.6,1.7-4.4,4.2-5.5,2.9-1.2,5.7-1.3,8.8-1,2.1.2,4.2,0,6.3-.3,2.2-.3,4.5.3,6.4,1.5,1.8,1.1,3.3,2.9,3.3,5.2,0,4.3.4,8.7-.2,13l-28.7.5Z"/>
      <path class="st1" d="M451.5,111.4c1.1.7,2.2.9,3.5,1,6.9.8,13.7,2.3,20.7,2.7,8.7.5,17.5,1.8,26.2,1.1,7.7-.6,15.4-.7,23-2.4,2.5-.6,4.9-1.4,6.7-3.7-1.8-2.8-4.7-3.7-7.5-4.1-5.9-1.1-12-1.6-18-2.2-9.1-.9-18,0-27,.7-8.6.6-17.1,1.8-25.5,3.7-.9.2-1.7.8-2.5,1.3l.2,2Z"/>
      <path class="st1" d="M436.5,109.4c-2.5-1.8-5.5-1.8-8.2-2.5-6.5-1.6-13.1-2-19.7-2.5-8-.6-15.9-1.3-24-.6-5.9.5-11.8,1.2-17.7,1.8-2.6.3-5.5.8-7.8,2.6-2.2,1.7-2.1,2.9.5,4,2.4,1,4.8,1.7,7.5,2.1,9.4,1.3,18.8,2.3,28.2,2.1,7.8-.2,15.5-1,23.2-1.7,5.2-.5,13.3-1.6,18-3.2v-1.9Z"/>
      <path class="st14" d="M430.2,139.4c-.4-3.1-.2-6.2-.2-9.2,0-3.1,1.3-5,4-6.3,1.3-.6,2.6-1.1,4-1.5s7-.4,7.6-.3c4,.3,3.1.2,7.1.8,2.9.5,6.1,3.1,6.2,6,0,4.2.6,8.5-.4,12.7l-1,.5c-.7.5-1.5.5-2.3.5-6.7.1-13.5.2-20.2.3-1.7,0-3.3-.2-4.7-1v-2.5Z"/>
      <path class="st8" d="M438.7,121.9c0-2.2,0-4.3,0-6.5,0-1.6-.3-3.1-1.5-4.2,0,0,2-2.4,2.5-6.2.1-1.1,0-2.3.6-3.2.8-1.7,2.3-2.4,4.2-2.3,2.1,0,3.3,1.4,3.9,3,.9,2.6,1.3,5.3,2.5,7.7.2.3.5.8.3,1.2-2.3,3.3-.8,7.2-1.5,10.7l-11-.2Z"/>
    </g>
  </g>
</svg>