<?xml version="1.0" encoding="UTF-8"?>
<svg id="_レイヤー_1" data-name="レイヤー_1" xmlns="http://www.w3.org/2000/svg" version="1.1" viewBox="0 0 283.5 340.2">
  <!-- Generator: Adobe Illustrator 30.0.0, SVG Export Plug-In . SVG Version: 2.1.1 Build 123)  -->
  <defs>
    <style>
      .st0 {
        fill: #91c377;
      }

      .st0, .st1, .st2, .st3, .st4, .st5, .st6, .st7, .st8, .st9, .st10, .st11, .st12, .st13, .st14 {
        stroke: #000;
        stroke-linecap: round;
        stroke-linejoin: round;
      }

      .st0, .st1, .st2, .st3, .st4, .st5, .st7, .st8, .st9, .st10, .st11, .st12, .st13, .st14 {
        stroke-width: 2px;
      }

      .st1 {
        fill: #75b881;
      }

      .st15 {
        fill: #57a975;
        stroke: #57a975;
        stroke-miterlimit: 10;
      }

      .st2 {
        fill: #92c275;
      }

      .st3 {
        fill: #8dbd75;
      }

      .st4 {
        fill: #e18f82;
      }

      .st5 {
        fill: #ce698c;
      }

      .st6 {
        fill: #f6d57c;
        stroke-width: 2.2px;
      }

      .st7 {
        fill: #5ea55d;
      }

      .st8 {
        fill: #f2d17d;
      }

      .st9 {
        fill: #91c379;
      }

      .st10 {
        fill: #bbd17a;
      }

      .st11 {
        fill: #cea673;
      }

      .st12 {
        fill: #e5af5e;
      }

      .st13 {
        fill: #e59b87;
      }

      .st14 {
        fill: #b85f83;
      }
    </style>
  </defs>
  <g id="rCeUfJ.tif">
    <g>
      <path class="st11" d="M275.6,263c-4.5-.2-9.1-.1-13.6-.1-7,0-13.9,0-20.9,0s-10.2,0-15.3,0c-4,0-8.1,0-12.1-.2-2.6-.2-5.2.4-7.8.2-2.6-.1-5.2,0-7.8,0h-7.8c-12.7,0-25.4,0-38.1,0-1.8,0-2.8,0-5,0,0,0-10.6,0-11.5,0-20.1,0-40.2,0-60.2,0-3,0-6,.2-9,0-2.9-.1-5.9,0-8.8,0s-11.2-.5-11.5-.5c-6.3,1.1-12.6.2-18.9.5,0,0-.2,0-.3,0-2.7-.5-5.3.2-8,0-2.6-.1-5.3,0-8,0-1.9,0-2.3.4-2.3,2.3,0,18,0,35.9,0,53.9,0,2-.2,4,.8,5.8,1.7,3.2,4.2,5.1,8,5.1,83.5,0,167,0,250.5,0,3.1,0,5.4-1.4,7.1-4,1-1.5,1.3-3.1,1.3-4.8,0-12,0-24,0-36,0-6.4.1-12.8-.1-19.2,0-.9.4-1.9-.4-2.7-.2-.2-.1-.3,0-.6.8-1.5.6-3.2.6-4.8,0-2.8,0-5.7,0-8.5,0-1.2.2-2.6-.2-3.7-.8-2.2-2.2-4.1-4.4-5.2-1.8-.9-3.8-.7-5.7-1l-246.3-.3c-1.5.7-3.1.5-4.7.8-3.4.6-6.4,4.6-6.4,8.1,0,3.5,0,6.9,0,10.4,0,1.5-.3,3,.6,4.4"/>
      <path class="st3" d="M154.1,116c.2.4,1.5,1.4,1.4,1.9-.2,1.6-.6,3.9-.8,5.4-.4,4.5-1.9,8.6-4.7,12.1-1.1,1.4-2.7,2.4-4.1,3.4-1.1.7-3.5.4-4.3.4-1.3,0-2.6,0-3.8-.9-2.5-1.9-4.8-3.9-6-7-1.3-3.3-1.7-6.6-1.9-10.2s-.5-2.7-.6-4.1-.1-.6,0-.9l.6-2.4c.6-4.2,1.2-8.5,2.8-12.5.3-.8.3-1.7.8-2.4l.4-.6c1.2.2,2.1.8,3.3,1.1,1.9.6,2.6.6,4,.6,1.4,0,2.8-.2,4.1.6l8.8,15.6Z"/>
      <path class="st14" d="M173.7,98.7c.4.1.5.5.8.8,1.1,1.2,1.7,2.5,2.6,3.6,2.9,3.5,4.7,7.4,5.2,11.9.2,1.8-.2,3.6-.5,5.3-.3,1.3-2.2,2.8-2.8,3.3-.9.9-1.9,1.8-3.3,2-3.1.5-6.2.6-9.2-.7-3.3-1.4-5.9-3.5-8.6-5.9s-2.2-1.5-3.3-2.5-.5-.3-.7-.6l-1.3-2.1c-2.6-3.4-5.1-6.9-6.9-10.8-.3-.8-1-1.4-1.1-2.3v-.7c.8-.7,2-1,3-1.5,1.7-.9,2.3-1.4,3.2-2.4,1-1,1.9-2.1,3.3-2.5l19.4,5Z"/>
      <path class="st12" d="M175.3,71.7c1.7.4,3.2,1.1,4.9,1.3,4.5.6,8.5,2.3,11.8,5.3,1.3,1.2,2.3,2.8,3.2,4.3.7,1.1.2,3.6.2,4.3,0,1.3-.1,2.6-1,3.7-2,2.5-4.1,4.6-7.2,5.7-3.4,1.2-6.7,1.4-10.3,1.4s-2.7.4-4.1.4-.6,0-.9,0l-2.4-.7c-4.2-.8-8.4-1.6-12.4-3.4-.8-.3-1.7-.4-2.4-1l-.5-.5c.2-1.2.9-2.1,1.2-3.2.6-1.9.8-2.6.8-3.9,0-1.4,0-2.8.7-4.1l18.3-9.7Z"/>
      <path class="st4" d="M155.2,55.1c.3-.8,1.1-1.7,2.7-3s2.2-1.5,3.2-2.3c3.6-2.8,7.6-4.4,12.1-4.7,1.8-.1,3.6.3,5.3.8,1.3.3,2.7,2.4,3.2,2.9.9.9,1.7,1.9,1.9,3.4.3,3.1.3,6.2-1.1,9.1-1.5,3.2-3.7,5.7-6.3,8.3s-1.6,2.2-2.6,3.2-.4.5-.6.7l-2.1,1.2c-3.5,2.5-7.1,4.8-11.1,6.4-.8.3-1.5.9-2.4,1h-.7c-.7-.9-.9-2-1.4-3.1-.9-1.8-1.3-2.3-2.2-3.3-1-1-2-2-2.4-3.4l4.6-17.1Z"/>
      <path class="st10" d="M128.7,52.7c.6-2.2,1-3.3,1.1-5,.4-4.5,1.9-8.5,4.8-12,1.1-1.4,2.7-2.4,4.2-3.3,1.1-.7,3.5-.3,4.3-.4,1.3,0,2.6,0,3.8.9,2.5,1.9,4.7,4,5.9,7,1.3,3.3,1.7,6.7,1.8,10.3s.5,2.7.6,4.1.1.6,0,.9l-.6,2.4c-.6,4.2-1.3,8.5-2.9,12.5-.3.8-.3,1.7-.9,2.4l-.4.6c-1.2-.2-2.1-.8-3.3-1.1-1.9-.6-2.6-.7-4-.6-1.4,0-2.8.1-4.1-.6l-10.4-18Z"/>
      <path class="st13" d="M111.9,72.5c-1-.3-1.8-.9-2.2-1.8s-1.6-2-2.4-3c-2.9-3.5-4.7-7.4-5.1-11.9-.2-1.8.2-3.6.6-5.3.3-1.3,2.3-2.8,2.8-3.3.9-.9,1.9-1.8,3.3-2,3.1-.5,6.2-.6,9.1.7,3.3,1.4,5.9,3.5,8.5,6s2.2,1.5,3.3,2.5.5.3.7.6l1.2,2c0,0,.1.2.2.3,2.6,3.4,5,6.8,6.7,10.7.3.8,1,1.4,1.1,2.3v.7c-.9.7-2,1-3,1.5-1.7.9-2.3,1.4-3.2,2.4-.5.5-.9,1-1.4,1.4-.9.8-2.1,1-3.2.7l-16.8-4.5Z"/>
      <path class="st8" d="M111.7,98.2c-1.1.6-2.4.7-3.7.3s-2.3-.3-3.4-.4c-4.5-.5-8.5-2.1-11.9-5.1-1.4-1.2-2.3-2.7-3.2-4.2-.7-1.1-.3-3.5-.3-4.3,0-1.3.1-2.6,1-3.7,1.9-2.5,4.1-4.7,7.1-5.8,3.3-1.2,6.7-1.5,10.3-1.6s2.7-.4,4.1-.5.6-.1.9,0l2.2.6c.1,0,.3,0,.4,0,4.2.7,8.3,1.5,12.2,3.1.8.3,1.7.4,2.4.9l.6.4c-.2,1.2-.8,2.1-1.2,3.3-.6,1.9-.7,2.6-.7,3.9,0,.4,0,.8,0,1.2,0,1.6-.9,3.1-2.3,3.8l-14.4,7.9Z"/>
      <path class="st5" d="M128.5,118.5c-1.9,0-3.1,1.6-4.4,2.6-3.5,2.8-7.5,4.5-12,4.9-1.8.1-3.6-.3-5.3-.7-1.3-.3-2.7-2.3-3.2-2.9-.9-.9-1.8-1.9-1.9-3.3-.4-3.1-.4-6.2.9-9.1,1.5-3.2,3.7-5.8,6.2-8.4s1.6-2.2,2.5-3.2.4-.5.6-.7l2.1-1.2c3.5-2.5,7-4.9,11-6.6.8-.3,1.5-.9,2.3-1.1h.7c.7.9.9,2,1.5,3.1.9,1.8,1.3,2.3,2.3,3.3,1,1,2.1,1.9,2.4,3.4l-5.8,19.9Z"/>
      <path class="st7" d="M237.6,262.4l-26.3-.3c-.2-.8-.1-1.7-.1-2.6,0-2.2.1-12.8.2-13.9.1-2.6-.8-5.1-.8-7.7,0-3.6-1-7-1.7-10.5-.6-3-1.6-6-2.7-8.8-1.2-3-2.1-6.1-3.3-9.1-.5-1.1-2.7-6.5-2.7-6.5.1.1,2,2.7,3.4,3.6,1.9,1.2,3.2,3.3,4.6,5,2.9,3.5,5.2,7.4,7.2,11.4,1.2,2.3,2.1,4.6,3.2,6.9.8,1.9,2.9,8.6,3.4,10,.2.5.4,1.2.7,1.3,1.4,1,1.5,2.5,1.5,3.9,0,2.8.2,5.7.2,8.5l-.3-11.1c1-.9,1.5-1.9,1.8-3.3.4-2,.5-4,1-6,.7-2.9,1.4-5.7,2.3-8.6,1.1-3.6,2.3-7.2,3.8-10.6,1.2-2.8,2.5-5.6,4.1-8.2,1.9-3,4-5.9,6.4-8.5,1.1-1.2,6.8-6.3,6.8-6.3-1.4.8-3.2,8.8-3.9,10.5-1.1,3.1-1.9,6.2-2.7,9.4-.8,3.2-1.4,6.5-2.2,9.7-.4,2-.7,4.1-1.1,6.1-.6,3.4-.9,6.8-1.4,10.3-.2,1.4,0,2.7.7,3.8s0,1.3,0,1.7l-1.2,19c0,.7-.2.7-.9.7Z"/>
      <path class="st9" d="M25,262.3c.1-.7-.2-1.4-.1-2.1.1-4.2-.5-8.3-1.5-12.3-.7-2.9-3.8-11.4-4.5-12.4-.7-.9-4.3-7-4.3-7,2.6,1.9,5.2,3.8,5.7,4.3,1,.9,2,1.8,2.9,2.8,1.1,1.3,2.2,2.7,3.4,3.8.6.6,3.7,6.3,5.3,8l1.2,1c.5-.5.9-1,.9-1.7,0-1.5,0-2.9-.3-4.4-.4-1.5-1-6.6-1.4-7.5-1-2.4-1.9-4.9-2.9-7.3-.5-1.2-3.7-7-4.4-8.1,0,0,4.7,3.5,5.3,4,3.9,3.4,6.9,7.5,9.4,12,1.3,2.3,2.2,4.8,4.7,6.1l.8-1.3c.5-.6.5-1.5.5-2.3-.3-3.7-1.1-7.3-2-10.9-.7-2.8-1.2-5.7-2.4-8.4-.7-1.6-1.1-3.3-1.9-4.8-.2-.5-.6-.8-.8-1.4-.3-1.4-2.5-6.6-3.4-7.1,0,0,5.4,3.6,6.4,4.5,2.5,2.2,4.6,4.7,6.7,7.3,2.1,2.5,3.5,5.5,5.1,8.3,1.4,2.4,2.2,5,3.2,7.5.9,2.4,2.5,10.7,3.4,11.9l1,.6c.9-.8,1.4-1.9,1.4-3.1,0-1.2,1.3-4.1,1.4-4.5.8-2.4,1.4-5,2.5-7.3,1.6-3.3,3-6.6,5.1-9.7,1.9-2.8,3.8-5.5,6-8.1.7-.8,5.2-4.3,5.2-4.3-.1.4-3.2,7.8-4.1,9.8-.5,1.3-1.1,2.7-1.3,3.9-.8,3.9-2.3,7.6-2.8,11.6-.2,2-1,3.9-.3,6,.2.6-.3,1-.4,1.6-.4,1.7-.2,3.5-.3,5.3,0,.8.4,6.2.1,9.4-.2,2.2.1,4.4-.2,6.5H25Z"/>
      <path class="st9" d="M238.5,262.4c0-.5.2-1,.2-1.6,0-5.3.3-10.6.9-15.9.1-1.2-.2-2.7.9-3.3,2.2-1.3,3-3.4,3.7-5.5,2.2-5.8,5.8-10.5,10.3-14.6.8-.7,5.4-4.7,5.4-4.7,0,.7-2.4,3-2.5,4.3-.1,1.4-.8,2.8-1.4,4.1-1.5,3.4-2.8,6.9-3.8,10.5-.2.7-.3,1.3-.4,2l-.4,2.3c-1.1,3-.9,19.1-.9,19.1-.2-2,.1-4.1.4-6.1.1-.9.2-1.9.3-2.9.2-1.1,1.3-2.8,1.4-3,1.1-2,1.8-4,3.6-6.2s.9-1,1.3-1.4c2.3-2.3,4.3-5,6.6-7.3.5-.5,5-2.9,6.1-4.4,0,0-3.4,5.5-4,6.5-.8,1.4-1.7,4.8-1.8,5-2.4,3.3-2.9,7.2-3.7,11.1-.3,1.5-.4,3-.5,4.5,0,1.3-.2,2.6-.4,3.8-.2,1.2,0,2.4,0,3.6h-21.3Z"/>
      <path class="st9" d="M127.5,262.9h-53.8s.9-9.6,1.8-11.1c.8-5.4,6.9-13.1,6.9-13.1,1-1.1,3.6-3.2,3.5-3.4,0,0,1.5,4.8,2.5,6.4s1.6,1.8,2.2,2.6c.9,1.2,1.6,1.9,3,2.6l.9,2.8c.1-.4-.2-.8-.3-1.1-.5-1.1-.4-2,.4-2.9.1-.1.3-.5.3-.8.6-2.4.8-4.8,1.8-7.1,1-2.2,2-2.6,3.8-1,.2.2.4.4.6.6.8,1.1,2.9,3.7,3.1,4.1,1,2.2,2.1,3.7,3.8,5.3l.4,5c.2-.8-.4-5,.3-6.3.4-.8.4-1.7.3-2.5-.1-1.6-.9-3.2-.2-4.8.1-.3,0-.7,0-1-.2-1.2-.4-2.5-.5-3.7-.4-2.6-.9-5.1-1.9-7.5l-1.9-5.8c.1.2,4.6,3.9,5.3,4.9.9,1.2,1.7,2.5,2.5,3.8,1.7,2.8,2.8,5.8,3.8,9,.4,1.3,1.1,2.5,2,3.6v7c-.3-1.4.7-7.3,1.8-8.7.7-.8,1.2-1.9,1.5-2.8.8-2.6,2.4-4.6,3.8-6.8.7-1,4.9-4.4,4.9-4.4-.2.5-1.9,4.9-2.1,5.7-.6,2.3-1.6,4.5-1.6,7,0,2.4-.9,4.7-.6,7.1.3,2.3.3,4.6.6,7l1.4,10.5Z"/>
      <path class="st9" d="M158.4,262.9l52.7-.2v-12.8c-5-2-4.6-6.2-5.9-8.9-.1-.2-.1-.6-.3-.7-2.6-1-3.6-4-6.2-5,0,0-1.5,3.1-2.5,4.3,0,0-2.5,5.8-4.8,7.4l-.7,3.4c0-.9.7-3.1.3-3.6-1.5-1.9-3.2-8.6-3.2-8.6-.2-.9-1-3.3-1-3.3-.3.7-3.5,2.8-4.4,3.7-.7.7-2.3,2.8-2.3,2.8-.7,1.9-1.2,3.8-2.9,5.1-.5.4-.9,4-1,5.3l.6-5.4c-1.2-1-1.1-2-1.1-3.8s.2-3.1.2-4.7c.1-3.7.8-7.5,1.8-11.1.3-1.1.9-5.1,1.9-6.3,0,0-4,3.1-4.8,4.2-1.5,2.1-3.1,4-4.1,6.3-.9,2.3-1.8,4.5-2.6,6.9-.4,1.1-.8,1.6-1.5,2.5l-.7.7c0,2.5.2,5.4.4,7.8l-1.6-9.7c-1.5-4-3.4-6.5-5.4-8.2s-5.7-5.4-5.7-5.4c.2.2,1.8,4.7,2,5.3.9,2.2,1.7,4.5,1.8,7,0,0,.5,5.2.7,7,.2,2-.3,4.1-.1,6.1l.2,11.9Z"/>
      <path class="st1" d="M145.6,138.7c.7,1.5.8,2.8.7,4.1-.2,4.4,0,8.8,0,13.2,0,8-.2,16-.2,24,0,1.2.2,2.2,1.2,3v1.4c-.3,4.4-1.2,8.7-.8,13.1.2,2.9-.6,5.8-.3,8.7.4,4.5,0,9.1,0,13.6,0,6.1.5,12.2,0,18.3.9,2.1,0,4.3.1,6.4.2,2.1,0,4.3,0,6.4.2,3.8,0,7.6,0,11.4l-2.1.6c-2-.2-4.1.3-6.1-.4v-.2c-.1-.7-.1-1.4-.1-2.1,0-2.9.2-5.8.2-8.7,0-3.3,0-6.7-.3-9.9-.2-2,.3-3.8.3-5.7,0-10.8,0-21.7,0-32.5,0-1.6-.3-3.2-.2-4.8.2-3.8,0-7.7-.6-11.5-.1-1-.5-2-.4-3v-.7c.6-1,1.1-2,1.2-3.3.1-1.8,0-3.6,0-5.4,0-6,0-11.9.1-17.9.2-5.1-.2-10.1-.1-15.2,0-1,0-1.9.6-3.1l7.1.3Z"/>
      <path class="st2" d="M146.9,200.3c3.8.2,7.6-.5,11.4-.9,4-.4,7.7-1.7,11.5-2.8,5.8-1.8,11.4-4.3,16.5-7.6,2.4-1.5,4.5-3.3,6.7-5.1,4.2-3.5,7.1-8,10-12.4,1.6-2.4,2.7-5.2,3.9-7.9,1.4-3.2,2.3-6.5,3.2-9.8,1-3.9,1.9-7.9,2.3-11.9.2-1.8.5-3.7.6-5.5.1-2-1.3-2.5-2.7-2.3-3.3.6-6.6.9-9.8,1.6-1.8.4-3.6.9-5.4,1.4-3.1.9-6.2,1.6-9.2,2.7-1.4.5-8.7,4.1-10.9,5.5-4.7,3-9,6.4-12.6,10.6-2.3,2.7-4.5,5.4-6.1,8.6-1.2,2.4-2.6,4.7-3.7,7.3-1,2.4-1.7,4.9-2.4,7.4-.4,1.3-.7,2.7-1.8,3.7l-1.3,17.6Z"/>
      <path class="st0" d="M104.1,192.2c1.9.9,11.8,4.7,14.9,5.6,1.8.5,3.6,1,5.4,1.5,1.7.5,3.6.6,5.4.7,2.5.1,4.9.4,7.4.4l-.4-16.5c0-.7-2.2-4.1-2.6-5.5-.8-3-1.8-5.9-3.1-8.7-2.8-6.4-6.5-12.2-11.6-17-2.8-2.6-5.8-4.9-9-7.1-3.3-2.3-14.4-7.1-16.4-7.7-1.8-.5-3.7-1.1-5.5-1.5-3-.7-6-1.4-9.1-1.7-1.9-.2-3.9-.4-5.8-.7-1.6-.3-2.2.3-2.3,1.9,0,3,1.8,12.4,2.1,14.1.6,2.9,4.6,14.4,6,17.2,1.8,3.5,3.6,7,6.4,10,0,0,5.7,6.4,8.1,8.5,2.4,2,4.8,3.8,7.6,5.2.6.3,2.4,1.4,2.4,1.4Z"/>
      <path class="st15" d="M148.5,198.6s-.3.9.6.9c3,0,6-.6,9-.9,4-.4,7.6-1.7,11.4-2.9,5.7-1.8,11.2-4.3,16.3-7.6,2.3-1.5,4.5-3.3,6.6-5.1,4.1-3.5,7-8,9.9-12.5.9-1.3,1.6-2.8,2.3-4.3,1.6-3.5,3.6-9.4,4.6-13.1s2-8.2,2.3-12.4c.1-1.6.1-3.1.2-4.6s0-.5-.3-.3l-63,62.8Z"/>
    </g>
  </g>
  <circle class="st6" cx="142.6" cy="85.5" r="14.4"/>
  <path class="st15" d="M135.9,198.1s.3.9-.6.9c-3,0-6-.6-9-.9-4-.4-7.6-1.7-11.4-2.9-5.7-1.8-11.2-4.3-16.3-7.6-2.3-1.5-4.5-3.3-6.6-5.1-4.1-3.5-7-8-9.9-12.5-.9-1.3-1.6-2.8-2.3-4.3-1.6-3.5-3.6-9.4-4.6-13.1s-2-8.2-2.3-12.4c-.1-1.6-.1-3.1-.2-4.6s0-.5.3-.3l63,62.8Z"/>
</svg>