<?xml version="1.0" encoding="UTF-8"?>
<svg id="_レイヤー_1" data-name="レイヤー_1" xmlns="http://www.w3.org/2000/svg" xmlns:xlink="http://www.w3.org/1999/xlink" version="1.1" viewBox="0 0 283.5 340.2">
  <!-- Generator: Adobe Illustrator 30.0.0, SVG Export Plug-In . SVG Version: 2.1.1 Build 123)  -->
  <defs>
    <style>
      .st0 {
        fill: #798a43;
      }

      .st0, .st1, .st2, .st3, .st4, .st5, .st6, .st7, .st8, .st9, .st10, .st11, .st12, .st13, .st14 {
        stroke: #000;
        stroke-linecap: round;
        stroke-linejoin: round;
        stroke-width: 2px;
      }

      .st1 {
        fill: #79b35a;
      }

      .st2 {
        fill: none;
      }

      .st3 {
        fill: #78b458;
      }

      .st4 {
        fill: #948f54;
      }

      .st5 {
        fill: #82b861;
      }

      .st6 {
        fill: #5ea55d;
      }

      .st7 {
        fill: #7eb75b;
      }

      .st8 {
        fill: #cea673;
      }

      .st9 {
        fill: url(#_名称未設定グラデーション_108);
      }

      .st10 {
        fill: url(#_名称未設定グラデーション_144);
      }

      .st11 {
        fill: url(#_名称未設定グラデーション_128);
      }

      .st12 {
        fill: url(#_名称未設定グラデーション_56);
      }

      .st13 {
        fill: url(#_名称未設定グラデーション_42);
      }

      .st14 {
        fill: url(#_名称未設定グラデーション_17);
      }
    </style>
    <linearGradient id="_名称未設定グラデーション_42" data-name="名称未設定グラデーション 42" x1="178.3" y1="169.8" x2="204.4" y2="167.9" gradientUnits="userSpaceOnUse">
      <stop offset=".4" stop-color="#cba26f"/>
      <stop offset=".9" stop-color="#a77f50"/>
    </linearGradient>
    <linearGradient id="_名称未設定グラデーション_108" data-name="名称未設定グラデーション 108" x1="149.7" y1="234.3" x2="182.9" y2="223.5" gradientUnits="userSpaceOnUse">
      <stop offset=".4" stop-color="#7e6a3f"/>
      <stop offset=".8" stop-color="#9a8b53"/>
    </linearGradient>
    <linearGradient id="_名称未設定グラデーション_144" data-name="名称未設定グラデーション 144" x1="156.4" y1="280" x2="206.2" y2="245.7" gradientUnits="userSpaceOnUse">
      <stop offset=".3" stop-color="#7b6b3f"/>
      <stop offset=".6" stop-color="#a08e56"/>
    </linearGradient>
    <linearGradient id="_名称未設定グラデーション_56" data-name="名称未設定グラデーション 56" x1="160.6" y1="158.3" x2="189.7" y2="170.4" gradientUnits="userSpaceOnUse">
      <stop offset=".2" stop-color="#cba26f"/>
      <stop offset=".7" stop-color="#a58154"/>
    </linearGradient>
    <linearGradient id="_名称未設定グラデーション_17" data-name="名称未設定グラデーション 17" x1="196.5" y1="166.8" x2="228" y2="152.1" gradientUnits="userSpaceOnUse">
      <stop offset=".3" stop-color="#cba26f"/>
      <stop offset=".4" stop-color="#bc9665"/>
      <stop offset=".6" stop-color="#9b7c4e"/>
    </linearGradient>
    <linearGradient id="_名称未設定グラデーション_128" data-name="名称未設定グラデーション 128" x1="77" y1="248.7" x2="128.7" y2="284.7" gradientUnits="userSpaceOnUse">
      <stop offset=".3" stop-color="#9c8f56"/>
      <stop offset=".6" stop-color="#7d6a40"/>
    </linearGradient>
  </defs>
  <g id="IENaKK.tif">
    <g>
      <path class="st8" d="M17.3,239.7c-1.2.3-2.5.4-3.7.8-2.7.9-4.8,3.3-5,6.2,0,0-.4,2.5-.4,3.1v3.4c-.2,2.1-.3,8-.3,8,0,1.4.6,1.8.3,2.9-.4,2-.3,4.1-.3,6.1,0,2.8,0,5.7,0,8.5,0,1.4,0,2.8,0,4.1v35.9c.2,2,.1,4,1,6,1.2,2.9,3.3,4.7,6.4,5.1,1.9.2,3.8.2,5.7.2,19.2,0,38.3,0,57.5,0,5.1,0,10.1-.1,15.2,0,11.9.2,23.8.1,35.7,0,3.9,0,7.8,0,11.7-.1,3.5,0,7,.1,10.5.1,5.3,0,10.6,0,15.9,0,3.2,0,6.5,0,9.7,0,4.3,0,8.5,0,12.8-.1,4.4-.1,8.7.1,13.1.1,12.6,0,25.2,0,37.9,0,1,0,1.9-.3,2.8-.2,3,.3,6,0,9,.1,2.4,0,4.7,0,7.1,0,3,0,6,.3,9-.3,3.6-.8,5.8-3.8,6.5-7,.3-1.3.2-2.6.2-4,0-17.6,0-35.2,0-52.8,0-.9.1-1.8-.4-2.6-.2-.3-.2-.5,0-.9.6-.9.4-2,.4-3,0-3.9,0-7.8,0-11.7,0-.5,0-.9-.1-1.4-1.1-3.7-3.6-6.7-8.4-6.5h-57.9c-3.2,0-6.5-.1-9.7,0-6.9.1-13.9,0-20.8,0-1.1,0-2.2,0-3.3-.4l-18.9.3c-3.4.2-10.7.2-11,.3h-8c-1.3-.3-2.7-.3-4-.3-2.9,0-5.9.2-8.8-.1l-9,.3c-12.4.1-24.9-.2-37.3-.1-1.9,0-3.8.1-5.7.1H17.3Z"/>
      <path class="st13" d="M203.3,156.8s-10.1-13.4-13.2-12.2-11.3,15-11.9,18,2.3,14.2,2.3,14.2c1.4,1.2,1.4,3,2,4.6,1.6,4.3,4.1,7.9,7.6,10.6,2.2,1.7,6.4,1.5,8.1-1.1,1.4-2.1,2.4-4.3,3.3-6.6.9-2.2,1.7-4.5,1.9-7,0-1.2,0-2.5,1-3.4l-1.1-17.1Z"/>
      <path class="st2" d="M8.6,262.9c3.9,0,7.9,0,11.8,0,.8,0,1.5,0,2.3-.3.3-.1.7-.2,1-.1,3.2.8,6.4.4,9.5.3,1.6,0,3.2.3,4.8,0,2.1-.3,4.3.4,6.4-.4.2,0,.5,0,.7,0,1.7.9,3.5.4,5.3.4,5.6,0,11.1,0,16.7.1,4.1,0,8.2,0,12.2-.2h116.6c4.8-.1,9.6.2,14.4-.3.2,0,.3,0,.4.1.7.4,1.4.3,2.1.3,4.6.1,9.1-.3,13.7,0,2.2.1,4.5,0,6.7,0,2.3,0,4.5-.2,6.8,0,5.7.3,11.5-.2,17.2,0,.4,0,.8,0,1.1-.1.4-.3.9-.2,1.3,0,.8.5,1.7.4,2.6.4,4.2,0,8.4,0,12.7,0"/>
      <path class="st4" d="M185.1,132.4c-1.4-4.5-3.2-8.7-7.1-11.7-3.3-2.4-6.8-4.3-11.1-4.3-2.8,0-5.6,0-8.3,1-5.1,2-8.9,5.2-11.4,10.2-2.1,4.2-2.8,8.5-2.4,13.1,0,.3,0,.7,0,1,0,11.3,0,22.7,0,34,0,1.8-.2,3.6-.2,5.4,0,7.3.2,14.6.1,21.9,0,1.1.3,11.2.3,11.2,0,1.5-.3,2.9-.3,4.4,0,6.1,0,12.1-.1,18.2,0,.4-.1.9,0,1.3.5,1,.3,2.1.2,3.1-.1,1.6,0,3.2,0,4.8,0,4.3,0,8.5,0,12.8,0,1.1.3,1.9.4,3.1l-1.3.5c-1,.4-2,.1-3,0l-2.8-.4c-.5-2.4-.1-4.7-.2-7.1-.2-4.5,0-9,0-13.5,0-1.4.1-2.8.3-4.1.3-2.4.1-4.9.1-7.4-.2-10.3,0-20.6,0-30.9,0-5.7.3-11.4.1-17.1,0-3.4,0-6.7-.2-10.1,0-1.2-.4-2.3-.9-3.4-.6-1.3-1.1-2.8-1.7-4.1-1.3-2.7-3.6-4.3-5.9-5.9-2.5-1.7-5.4-2.3-8.4-2-3.7.4-6.4,2.3-8.3,5.5-1.4,2.4-1.9,4.9-1.3,7.5.5,2.4,1.3,4.7,2.5,6.8,1,1.7,2.1,3.4,3.2,5.1.2.3,2.2,4.9,2.2,4.9,2,3.3,2.3,7,1.7,10.7-.4,2.4-1.1,4.7-2.4,6.8-1.8,3-3.9,5.7-6.7,7.8-2.6,1.9-5.3,3.7-8.4,4.4-2.5.6-4.8,1.8-7.4,1.7-.3,0-4.2.2-5.8.7,0,0,3.9-2.6,4.4-3.1,1.3-1.3,2.4-2.8,3.3-4.4,1.9-3.3,2.2-6.8,1.4-10.4-.8-3.8-2.6-7.3-4.3-10.8-2.3-4.9-3-9.9-2.1-15.2.4-2.4,1.4-4.5,2.4-6.7,1.5-3.4,3.9-6.2,6.6-8.6,2.6-2.3,5.5-4.3,8.9-5.4,2.4-.7,4.6-1.6,7.1-2,4.4-.7,8.5.1,12.4,2.2,1.9,1,3.4,2.6,5.2,3.6,1.3.8,2,1.7,2.4,2.9l-1-2.4c.7-1.1,1-2.4,1.1-3.7,0-.8-.2-1.6-.2-2.4,0-3.5.2-7,.2-10.5,0-.8-.2-1.6,0-2.4.2-1.5.2-3.1.3-4.7.2-2.6.8-5.1,1.6-7.5,1.8-5.2,5.4-9.2,9.8-12.4,3.3-2.4,6.9-3.6,10.9-4.4,3.8-.7,7.4-.3,11.1.5,3.1.7,5.9,2.3,8.5,4.1,1.2.8,2.4,1.6,3.4,2.7,2.1,2.2,3.9,4.8,5.4,7.4,1.1,2,2.1,4.1,1.9,6.5l-6.3.9Z"/>
      <path class="st9" d="M163.8,251.5c-.6-1.1-1.5-2.1-2.4-3-2.4-2.4-3.5-5.5-4.7-8.5-.3-.7,0-1.2,0-1.9-.4-5.1,1.5-9.5,4.2-13.7,1.2-1.9,2.6-3.8,3.1-6.1.6-2.6.8-5.3-.8-7.7-.6-1-1.1-2-2-2.9-2.4-2.3-6.8-2.7-9.7-1-1.6.9-2.8,2.1-4.1,3.3-.5.5-1.1.8-1.7,1l-.6-1.7c-.6-1.9,0-2.9,1.8-3.8,0,0,.2-.2.3-.2,2.5-2.3,5.4-3.1,8.8-3.4,5.8-.4,10.6,1.8,15.1,5.1,4,3,6.5,7.2,8.1,12,.8,2.6.8,5.1.3,7.7-.6,3.3-1.9,6.4-3.5,9.4-1,1.8-1.3,3.9-2,5.8-.9,2.4-.5,4.9.2,7.2.5,1.8.2,6.7,2.4,7.4l-12.7-5Z"/>
      <path class="st5" d="M114.1,260.3c.2,0,2.1-15.2,2.2-15.4.4-1.6.3-3.4,1.5-5.7.3-.5,2.6-5.1,2.6-5.1,1.1-2.2,2.3-4.3,4-6.1.4-.4,2.8-2.4,2.8-2.4-.8.9-1.4,4.4-1.6,5.1-.5,1.9-.8,3.9-1.6,5.7,0,.2-.6,6.3-.4,9.4,0,.1,1,13.8,1,13.9l-10.6.5Z"/>
      <path class="st6" d="M237.7,262.3c.4-2.8,0-5.7.3-8.5.3-2.4.2-4.9.7-7.3.2-.9.2-1.8-.4-2.6-.3-.4-.4-.9-.3-1.4.6-2.2,0-4.4.2-6.6.2-2.4.2-4.9.6-7.2.5-3.4,1-6.9,1.9-10.2.9-3.2,1.4-6.5,2.3-9.7.9-3,1.7-5.9,2.7-8.8.4-1.3,2.6-8.4,2.8-8.5,0,0-4.7,4-5.7,5.1-.5.6-2.1,2.3-2.1,2.3-1.8,2.4-3.4,5-5.1,7.4-.7,1-1.2,2.2-1.6,3.3-.9,2.1-2.2,4.1-3.1,6.2-1.5,3.9-3,7.9-4.1,11.9-1.1,4-1.5,8.2-2.6,12.3-.2.6-.5,1.3-.8,1.7-.8.9-.7,1.7-.7,2.7,0,2.7.3,5.3.3,8l-.7-10.1c-.9-1-1.4-2.3-1.9-3.6-.6-1.8-1.1-3.7-1.9-5.4-1-2.2-1.5-4.5-2.5-6.7-.7-1.7-1.7-3.2-2.4-4.8-.8-1.9-3.6-6.3-3.6-6.3-1.8-2.5-3.6-5.1-5.7-7.4-.7-.8-3.2-1.7-3.6-1.8,0,0,1,3.5,1.7,4.9,1,2.1,5,14.9,5,14.9.5,3.2,1.4,6.2,1.7,9.4.1,1.4,0,2.9.4,4.3.3,1.7.6,3.3.6,5,0,4,.3,8.1,0,12.1-.1,1.8-.3,3.6.2,5.4h27.5Z"/>
      <path class="st1" d="M44.9,262.3c-.3-1.8,0-3.7,0-5.5,0-3.5-1.1-11.6-1.7-11.9-1.4-.8-1.7-2.1-2-3.5,0-.3,0-.7-.2-1-1.3-1.9-2.2-3.9-3.2-5.9-1.8-3.7-4.3-6.9-7.1-9.8l-3-2.4c-.9-.4-3.5-2.7-4.3-3.1l3.1,5.5c.7,1.4,1.3,2.8,1.9,4.2,1,2.2,1.7,4.5,2.6,6.7,0,.2,1.3,8.6,1.5,10.3,0,.4.1.9,0,1.3-1,2.4.1,4.8.3,7.1.1,1.5.4,3,.3,4.6l-2.1-10.4c-1.8-2.5-4.9-8.3-5.1-8.5-1.8-2.3-3.8-3.8-5.7-5.9-1.1-1.2-7.7-5.4-7.7-5.4.6,0,4.5,6,5,6.8.9,1.2,2.5,5.9,2.5,5.9,2.3,5.9,3.2,12,3.3,18.2,0,.9,0,1.8,0,2.7h21.5Z"/>
      <path class="st3" d="M237.8,262.8h21c0-.5.3-1.5.3-2.1,0-3.1,0-6.2.5-9.3.8-4.1,1.6-7.4,3.7-11.8s.9-3.5,1.6-4.8c.6-1.4,3.7-7,3.7-7-1.8,0-9,7.8-9,7.8-.8,1.4-1.9,2.5-2.9,3.8,0,0-1.7,2.5-2.1,3.2-1.1,1.9-1.8,4.2-3.9,5.4l-1.9,11.1c0-2,.4-4,.7-6,.4-2.4,1.6-4.7.1-7.1-.3-.5,0-1,0-1.4,0-.7.4-1.4.4-2.1,0,0,.7-4.9.9-6,.5-2.6,1.5-5,2.3-7.5.7-2.3,3.9-10.8,5.1-11.5,0,0-4.8,3.5-5.4,4.1-2.6,2.6-5.1,5.4-6.9,8.6-1,1.9-2.2,3.7-2.9,5.7-.5,1.5-1.1,2.9-2.1,4.1-.5.6-1.2,3.8-1.8,4.4l-1.6,18.3Z"/>
      <path class="st10" d="M161.6,253.7c-3.1,1.1-5.9,2.3-8.7,3.9-1.2.7-2.5,1.4-3.7,2.3-.9.7-1,1.5-1,2.5l2.8.2c3.1-.2,6.2-.3,9.3-.2,2.5.1,5,.7,7.1,2.2,2.2,1.5,3.9,3.4,5.9,5,2.1,1.7,4.2,3.6,6.7,4.6,5,2,10.1,2.9,15.4,1.1,2.5-.9,5.1-1.4,7.3-3,.7-.5,4.4-3,6-3.3,0,0-5.7.7-6.3.6-1.8-.5-3.6-.9-5.3-1.9-1.7-1-7.3-6-7.3-6-1.8-2.4-4.2-4-6.7-5.4-1.9-1-3.8-2.1-5.8-2.7,0,0-9.1-1.5-12.5-1.3,0,0-2.1,1-3.3,1.4Z"/>
      <path class="st12" d="M184.4,140.6c-.6-1.2-2.1-1.7-3.3-1-3.9,2.2-10.7,8-11.7,9.1-2.1,2.5-4,5.1-5.7,8-1.3,2.4-2.5,4.8-3,7.5-.2,1.3-.7,2.4-1.1,3.7-.9,3.4-1.4,6.9-1.1,10.4.2,2.5.8,5,2.1,7.3,1.2,2.1,3.3,2.3,5.3,1.7,5.2-1.5,8.6-5.1,12.2-8.9,2.4-2.6,3.5-5.7,5.2-8.6,2.2-3.9,3.6-8.2,5.1-12.4.3-1,.3-2,.6-3,.1-.5.3-.9.6-1.3.4-.7.4-1.6,0-2.3l-5.2-10.2Z"/>
      <path class="st14" d="M191.8,150.9c-.2.7-.1,1.5.3,2.1.7,1.1,1,2.5,1.6,3.7,2,4.5,4.6,8.6,7.5,12.5,1,1.4,2.2,2.7,3,4.3,0,.1,5.1,4,7.5,5.7,2.2,1.6,4.6,2.7,6.9,4,2.4,1.4,6,0,7.5-2.4.5-.8.4-1.8.4-2.7,0,0,0-7-.6-9.3-1.5-6.1-4.5-11.5-8-16.7-2.3-3.3-5.6-5.4-8.5-8.1-.5-.5-7.4-4.4-11.3-5.9s-2.9.2-3.3,1.6l-3,11.1Z"/>
      <path class="st0" d="M188.2,149c.7.8,1.3,1.8,2.4,2.1l.7-1c2.1-2.9,3-6.2,4.1-9.5,0-.1,0-.3,0-.4,0,0,2.6,1.5,3.7,2.1.8.4,1.5.7,2.3.9,1.4.3,2.9.5,4.4.7.3,0,.6,0,.9-.1l.9-.6c-.9-3-2.7-5.3-5.1-7.1-2-1.5-3.8-2.9-6.2-3.6s-4.8-1.2-7.7-.7-3.3.8-3.5.9c-2.8,1.4-5.3,3.1-7.7,5-2.7,2.3-4.6,4.9-4.6,8.7h1.9c1.4.2,2.6-.4,3.8-.9,2.1-.9,3.9-2.2,5.7-3.7,0,0,2.4,5.2,4.1,7.2Z"/>
      <path class="st7" d="M45.2,262.5h26.8c.4-2.3-.1-4.6-.2-7,0-5.2-.7-10.4.9-15.5,0-.2,0-.4,0-.6-.5-1.7,0-3.3.3-5,.5-2.4.9-4.8,1.5-7.1.6-2.3.9-4.6,1.8-6.9,1-2.6,2.6-5.1,2.8-8,.1-2,1.2-3.3,2.1-4.8,0,0-4.9,4.4-5.9,5.6-.6.7-1.2,1.3-1.8,2l-2.4,3.6c-1.7,2.8-3.6,5.4-4.8,8.4-1.2,3-2.7,6-3.7,9.1-.4,1.3-1.4,6.6-1.8,8-.3,1-.4,2.1-1.5,2.7l-.4,12.5c0-.7,0-1.3,0-2,0-3.1.3-6.2.3-9.2,0-.4.2-.9-.1-1.3-.9-.9-1-2-1.1-3.1-.3-2.3-.6-4.6-1.5-6.9-.9-2.6-1.9-5.2-2.7-7.8-1.3-4.2-3.7-7.8-6.1-11.3-2.5-3.7-11.5-8.4-11.5-8.4,0,0,.3,0,.3.1.2,1.7,1.5,3,2,4.5.6,1.8,1.4,3.4,1.9,5.3,1,4.3,2.5,8.4,3,12.8.2,1.9.9,3.7,1,5.6,0,.1,0,3.1.2,4.4,0,1.1,0,2-.8,2.9l1.7,17.5Z"/>
      <path class="st11" d="M131.7,262.2c0-.9-.3-1.6-1.1-2.1-4.1-2.8-8.4-5-13.2-6.3-3-.8-6.1-1.1-9.1-1.1-3.7,0-7.1.9-10.5,2.2-4,1.6-7.4,4-10.2,7.1-.8.9-4.2,3.5-5.2,4.2-2.5,1.7-5.2,2.4-8,3.3-2.1.7-3.7.3-5.4-.7,0,0,0,0-.1,0,0,0,7.8,4.6,9.5,5.2,2.7,1,5.6,1.7,8.5,2,3.3.3,6.4,0,9.5-.9,4.3-1.3,7.5-4.2,10.8-7,2.3-2,4.7-3.8,7.7-4.7,2.6-.9,5.3-.9,8-.8,2.5,0,4.9.5,7.4.2l1.6-.6Z"/>
    </g>
  </g>
</svg>