<?xml version="1.0" encoding="UTF-8" standalone="no"?>
<svg
   width="790.20312"
   zoomAndPan="magnify"
   viewBox="0 0 592.65234 580.35548"
   height="773.80731"
   preserveAspectRatio="xMidYMid"
   version="1.0"
   id="svg109"
   sodipodi:docname="2026_BR_04_alt_A.svg"
   inkscape:version="1.4.2 (f4327f4, 2025-05-13)"
   xmlns:inkscape="http://www.inkscape.org/namespaces/inkscape"
   xmlns:sodipodi="http://sodipodi.sourceforge.net/DTD/sodipodi-0.dtd"
   xmlns="http://www.w3.org/2000/svg"
   xmlns:svg="http://www.w3.org/2000/svg">
  <sodipodi:namedview
     id="namedview109"
     pagecolor="#ffffff"
     bordercolor="#000000"
     borderopacity="0.25"
     inkscape:showpageshadow="2"
     inkscape:pageopacity="0.0"
     inkscape:pagecheckerboard="0"
     inkscape:deskcolor="#d1d1d1"
     inkscape:zoom="0.17893519"
     inkscape:cx="-1380.3881"
     inkscape:cy="936.09314"
     inkscape:window-width="1920"
     inkscape:window-height="991"
     inkscape:window-x="-9"
     inkscape:window-y="-9"
     inkscape:window-maximized="1"
     inkscape:current-layer="svg109" />
  <defs
     id="defs34">
    <clipPath
       id="4d35c52289">
      <path
         d="M 50.609375,51.238281 H 643.26172 V 631.59375 H 50.609375 Z m 0,0"
         clip-rule="nonzero"
         id="path1" />
    </clipPath>
    <clipPath
       id="fcc283f8cc">
      <path
         d="M 0.609375,0.238281 H 593 V 580.59375 H 0.609375 Z m 0,0"
         clip-rule="nonzero"
         id="path2" />
    </clipPath>
    <clipPath
       id="5bbfa22801">
      <rect
         x="0"
         width="594"
         y="0"
         height="581"
         id="rect2" />
    </clipPath>
    <clipPath
       id="6580145945">
      <path
         d="M 161,195.14062 H 532.65625 V 531.85937 H 161 Z m 0,0"
         clip-rule="nonzero"
         id="path3" />
    </clipPath>
    <clipPath
       id="887b574899">
      <path
         d="m 527.20312,266.29297 c -11.71875,-39.78516 -49.53906,-71.14844 -94.26171,-71.15235 -37.55079,0 -70.17188,21.1875 -86.66407,52.30469 -16.48828,-31.11719 -49.10937,-52.30078 -86.65625,-52.30469 -46.78125,0 -87.69531,31.36719 -95.73047,76.89063 -20.37109,115.4375 108.7461,205.79687 182.67969,259.82812 68.35547,-49.95312 214.12891,-151.8125 180.63281,-265.5664 z m 0,0"
         clip-rule="nonzero"
         id="path4" />
    </clipPath>
    <clipPath
       id="6f42e24041">
      <path
         d="M 0.519531,0.140625 H 371.65625 V 336.85937 H 0.519531 Z m 0,0"
         clip-rule="nonzero"
         id="path5" />
    </clipPath>
    <clipPath
       id="893ee915a9">
      <path
         d="M 366.20312,71.292969 C 354.48437,31.507812 316.66406,0.144531 271.94141,0.140625 c -37.55079,0 -70.17188,21.1875 -86.66407,52.304687 C 168.78906,21.328125 136.16797,0.144531 98.621094,0.140625 51.839844,0.140625 10.925781,31.507812 2.890625,77.03125 -17.480469,192.46875 111.63672,282.82812 185.57031,336.85937 253.92578,286.90625 399.69922,185.04687 366.20312,71.292969 Z m 0,0"
         clip-rule="nonzero"
         id="path6" />
    </clipPath>
    <clipPath
       id="e93b71c02c">
      <rect
         x="0"
         width="372"
         y="0"
         height="337"
         id="rect6" />
    </clipPath>
    <clipPath
       id="d9b0cf2442">
      <path
         d="M 58,59 H 207 V 207 H 58 Z m 0,0"
         clip-rule="nonzero"
         id="path7" />
    </clipPath>
    <clipPath
       id="b35c96fe99">
      <path
         d="M 226.66016,106.24609 106.16406,226.74219 0.472656,121.05078 120.96875,0.554688 Z m 0,0"
         clip-rule="nonzero"
         id="path8" />
    </clipPath>
    <clipPath
       id="0ef0354d4c">
      <path
         d="M 204.66797,93.796875 C 198.35156,67.96875 175.83594,59.195312 158.89453,59.53125 l -98.949218,2.050781 -1.160156,97.710939 c 0.898438,16.96484 7.292969,29.51953 19.554688,38.35937 16.953125,12.23047 40.300786,11.52735 56.773436,-1.71093 10.09375,-8.13282 16.31641,-19.51172 17.47656,-32.08985 0.31641,-3.38281 0.25,-6.7539 -0.17578,-10.0625 3.83203,0.41797 7.78125,0.35938 11.76953,-0.1875 13.90235,-1.89453 26.34375,-9.5664 34.14844,-21.07812 7.37891,-10.91406 9.69141,-25.02735 6.33594,-38.726565 z m 0,0"
         clip-rule="nonzero"
         id="path9" />
    </clipPath>
    <clipPath
       id="63c132b579">
      <path
         d="M 0.558594,0.160156 H 149 V 148 H 0.558594 Z m 0,0"
         clip-rule="nonzero"
         id="path10" />
    </clipPath>
    <clipPath
       id="bffeb92cad">
      <path
         d="M 168.66016,47.246094 48.164062,167.74219 -57.527344,62.050781 62.96875,-58.445312 Z m 0,0"
         clip-rule="nonzero"
         id="path11" />
    </clipPath>
    <clipPath
       id="273a8542b0">
      <path
         d="M 146.66797,34.796875 C 140.35156,8.96875 117.83594,0.195312 100.89453,0.53125 L 1.945312,2.582031 0.785156,100.29297 c 0.898438,16.96484 7.292969,29.51953 19.554688,38.35937 16.953125,12.23047 40.300781,11.52735 56.773437,-1.71093 10.09375,-8.13282 16.316407,-19.51172 17.476563,-32.08985 0.316406,-3.38281 0.25,-6.753904 -0.175782,-10.062498 3.832032,0.417969 7.781248,0.359376 11.769528,-0.1875 13.90235,-1.894531 26.34375,-9.566406 34.14844,-21.078124 7.37891,-10.914063 9.69141,-25.027344 6.33594,-38.726563 z m 0,0"
         clip-rule="nonzero"
         id="path12" />
    </clipPath>
    <clipPath
       id="9346d2100a">
      <rect
         x="0"
         width="149"
         y="0"
         height="148"
         id="rect12" />
    </clipPath>
    <clipPath
       id="ed347ec08d">
      <path
         d="M 489,58 H 637 V 207 H 489 Z m 0,0"
         clip-rule="nonzero"
         id="path13" />
    </clipPath>
    <clipPath
       id="ef535bbee0">
      <path
         d="M 589.63281,226.55469 469.13672,106.05859 574.82422,0.367188 695.32031,120.86328 Z m 0,0"
         clip-rule="nonzero"
         id="path14" />
    </clipPath>
    <clipPath
       id="f3586ad999">
      <path
         d="m 602.08203,204.5625 c 25.82813,-6.31641 34.59766,-28.83203 34.26563,-45.77344 l -2.05079,-98.953122 -97.71484,-1.15625 c -16.96484,0.898437 -29.51562,7.292968 -38.35547,19.554687 -12.23047,16.953125 -11.52734,40.300785 1.71094,56.773435 8.12891,10.09375 19.51172,16.31641 32.08984,17.47656 3.38282,0.31641 6.75391,0.25 10.0586,-0.17578 -0.41407,3.83203 -0.35547,7.78125 0.1875,11.76953 1.89843,13.90235 9.57031,26.34375 21.08203,34.14844 10.91406,7.37891 25.02734,9.69141 38.72656,6.33594 z m 0,0"
         clip-rule="nonzero"
         id="path15" />
    </clipPath>
    <clipPath
       id="ccde6ec832">
      <path
         d="M 0,0.679688 H 147.71875 V 149 H 0 Z m 0,0"
         clip-rule="nonzero"
         id="path16" />
    </clipPath>
    <clipPath
       id="e8168dadf8">
      <path
         d="M 100.63281,168.55469 -19.863281,48.058594 85.824219,-57.632812 206.32031,62.863281 Z m 0,0"
         clip-rule="nonzero"
         id="path17" />
    </clipPath>
    <clipPath
       id="fb68fbef96">
      <path
         d="m 113.08203,146.5625 c 25.82813,-6.31641 34.59766,-28.83203 34.26563,-45.77344 L 145.29687,1.835938 47.582031,0.679688 C 30.617188,1.578125 18.066406,7.972656 9.226562,20.234375 -3.003906,37.1875 -2.300781,60.535156 10.9375,77.007812 c 8.128906,10.09375 19.511719,16.316407 32.089844,17.476563 3.382812,0.316406 6.753906,0.25 10.058594,-0.175781 -0.414063,3.832031 -0.355469,7.781246 0.1875,11.769536 1.898437,13.90234 9.570312,26.34374 21.082031,34.14843 10.914062,7.37891 25.027343,9.69141 38.726561,6.33594 z m 0,0"
         clip-rule="nonzero"
         id="path18" />
    </clipPath>
    <clipPath
       id="f66f5bd0d0">
      <rect
         x="0"
         width="148"
         y="0"
         height="149"
         id="rect18" />
    </clipPath>
    <clipPath
       id="82f3ca8dcb">
      <path
         d="M 59,474 H 207 V 623 H 59 Z m 0,0"
         clip-rule="nonzero"
         id="path19" />
    </clipPath>
    <clipPath
       id="15eda9e278">
      <path
         d="M 106.35156,454.16016 226.84766,574.65625 121.15625,680.34375 0.660156,559.84766 Z m 0,0"
         clip-rule="nonzero"
         id="path20" />
    </clipPath>
    <clipPath
       id="1f654919ff">
      <path
         d="m 93.902344,476.14844 c -25.828125,6.3164 -34.601563,28.83593 -34.265625,45.77343 l 2.050781,98.95313 97.71094,1.15625 c 16.96484,-0.89844 29.51953,-7.29297 38.35937,-19.55078 12.23047,-16.95703 11.52735,-40.30469 -1.71094,-56.77735 -8.13281,-10.09375 -19.51171,-16.3164 -32.08984,-17.47656 -3.38281,-0.3125 -6.75391,-0.25 -10.0625,0.17969 0.41797,-3.83594 0.35938,-7.78516 -0.18359,-11.77344 -1.89844,-13.90234 -9.57032,-26.33984 -21.08203,-34.14453 -10.91407,-7.38281 -25.02735,-9.69141 -38.726566,-6.33984 z m 0,0"
         clip-rule="nonzero"
         id="path21" />
    </clipPath>
    <clipPath
       id="b009dd33ef">
      <path
         d="M 0.28125,0 H 148 V 148.19922 H 0.28125 Z m 0,0"
         clip-rule="nonzero"
         id="path22" />
    </clipPath>
    <clipPath
       id="bcbc2bedef">
      <path
         d="M 47.351562,-19.839844 167.84766,100.65625 62.15625,206.34375 -58.339844,85.847656 Z m 0,0"
         clip-rule="nonzero"
         id="path23" />
    </clipPath>
    <clipPath
       id="4dd8c78f64">
      <path
         d="M 34.902344,2.148438 C 9.074219,8.464844 0.300781,30.984375 0.636719,47.921875 L 2.6875,146.875 l 97.71094,1.15625 c 16.96484,-0.89844 29.51953,-7.29297 38.35937,-19.55078 12.23047,-16.95703 11.52735,-40.304689 -1.71094,-56.777345 -8.13281,-10.09375 -19.51171,-16.316406 -32.08984,-17.476563 -3.38281,-0.3125 -6.753905,-0.25 -10.062499,0.179688 C 95.3125,50.570312 95.253906,46.621094 94.710938,42.632812 92.8125,28.730469 85.140625,16.292969 73.628906,8.488281 62.714844,1.105469 48.601562,-1.203125 34.902344,2.148438 Z m 0,0"
         clip-rule="nonzero"
         id="path24" />
    </clipPath>
    <clipPath
       id="88f596551d">
      <rect
         x="0"
         width="148"
         y="0"
         height="149"
         id="rect24" />
    </clipPath>
    <clipPath
       id="e597b9e64f">
      <path
         d="M 486,477 H 634 V 625 H 486 Z m 0,0"
         clip-rule="nonzero"
         id="path25" />
    </clipPath>
    <clipPath
       id="d1a6c11186">
      <path
         d="M 466.04297,577.74609 586.53906,457.25 692.23047,562.94141 571.73437,683.4375 Z m 0,0"
         clip-rule="nonzero"
         id="path26" />
    </clipPath>
    <clipPath
       id="21549fcbd0">
      <path
         d="m 488.03516,590.19531 c 6.3164,25.82813 28.83203,34.60156 45.77343,34.26563 l 98.95313,-2.05078 1.15625,-97.71094 c -0.89844,-16.96485 -7.29297,-29.51953 -19.55469,-38.35938 -16.95312,-12.23047 -40.30078,-11.52734 -56.77344,1.71094 -10.09375,8.13281 -16.3164,19.51172 -17.47656,32.08984 -0.3125,3.38282 -0.25,6.75391 0.17578,10.0586 -3.83203,-0.41406 -7.78125,-0.35547 -11.76953,0.1875 -13.90234,1.89844 -26.33984,9.57031 -34.14453,21.08203 -7.38281,10.91406 -9.69141,25.02734 -6.33984,38.72656 z m 0,0"
         clip-rule="nonzero"
         id="path27" />
    </clipPath>
    <clipPath
       id="738faaf00d">
      <path
         d="M 0,0 H 148 V 147.83984 H 0 Z m 0,0"
         clip-rule="nonzero"
         id="path28" />
    </clipPath>
    <clipPath
       id="bb852439b4">
      <path
         d="M -19.957031,100.74609 100.53906,-19.75 206.23047,85.941406 85.734375,206.4375 Z m 0,0"
         clip-rule="nonzero"
         id="path29" />
    </clipPath>
    <clipPath
       id="6de14bfd3a">
      <path
         d="m 2.035156,113.19531 c 6.316406,25.82813 28.832032,34.60156 45.773438,34.26563 l 98.953126,-2.05078 1.15625,-97.710941 C 147.01953,30.734375 140.625,18.179688 128.36328,9.339844 111.41016,-2.890625 88.0625,-2.1875 71.589844,11.050781 61.496094,19.183594 55.273438,30.5625 54.113281,43.140625 c -0.3125,3.382813 -0.25,6.753906 0.175781,10.058594 -3.832031,-0.414063 -7.78125,-0.355469 -11.769531,0.1875 C 28.617188,55.285156 16.179688,62.957031 8.375,74.46875 0.992188,85.382812 -1.316406,99.496094 2.035156,113.19531 Z m 0,0"
         clip-rule="nonzero"
         id="path30" />
    </clipPath>
    <clipPath
       id="1c356eb3e7">
      <rect
         x="0"
         width="148"
         y="0"
         height="148"
         id="rect30" />
    </clipPath>
    <clipPath
       id="806d6bf5be">
      <path
         d="m 358,73 h 118 v 38.875 H 358 Z m 0,0"
         clip-rule="nonzero"
         id="path31" />
    </clipPath>
    <clipPath
       id="cc10d31b1c">
      <path
         d="m 219,73 h 119 v 38.875 H 219 Z m 0,0"
         clip-rule="nonzero"
         id="path32" />
    </clipPath>
    <clipPath
       id="c3c09f716c">
      <path
         d="m 586,214 h 38.64453 V 332 H 586 Z m 0,0"
         clip-rule="nonzero"
         id="path33" />
    </clipPath>
    <clipPath
       id="82fe942fa7">
      <path
         d="m 586,352 h 38.64453 V 471 H 586 Z m 0,0"
         clip-rule="nonzero"
         id="path34" />
    </clipPath>
    <clipPath
       id="0a9a441103">
      <rect
         x="0"
         width="696"
         y="0"
         height="684"
         id="rect34" />
    </clipPath>
  </defs>
  <g
     transform="translate(-50.609375,-51.238281)"
     id="g109">
    <g
       clip-path="url(#0a9a441103)"
       id="g108">
      <g
         clip-path="url(#4d35c52289)"
         id="g39">
        <g
           transform="translate(50,51)"
           id="g38">
          <g
             clip-path="url(#5bbfa22801)"
             id="g37">
            <g
               clip-path="url(#fcc283f8cc)"
               id="g36">
              <path
                 fill="#ffc0c0"
                 d="M 0.609375,0.238281 H 592.30078 V 580.59375 H 0.609375 Z m 0,0"
                 fill-opacity="1"
                 fill-rule="nonzero"
                 id="path36" />
            </g>
          </g>
        </g>
        <path
           stroke-linecap="butt"
           transform="matrix(3.278844,0,0,3.278844,50.608667,51.238169)"
           fill="none"
           stroke-linejoin="miter"
           d="M 2.1582e-4,3.43405e-5 H 180.75059 V 177.00004 H 2.1582e-4 Z m 0,0"
           stroke="#da0c0c"
           stroke-width="1.37243"
           stroke-opacity="1"
           stroke-miterlimit="4"
           id="path38" />
      </g>
      <g
         clip-path="url(#6580145945)"
         id="g45">
        <g
           clip-path="url(#887b574899)"
           id="g44">
          <g
             transform="translate(161,195)"
             id="g43">
            <g
               clip-path="url(#e93b71c02c)"
               id="g42">
              <g
                 clip-path="url(#6f42e24041)"
                 id="g41">
                <g
                   clip-path="url(#893ee915a9)"
                   id="g40">
                  <path
                     fill="#da0c0c"
                     d="M 0.738281,0.140625 H 371.65625 V 336.85937 H 0.738281 Z m 0,0"
                     fill-opacity="1"
                     fill-rule="nonzero"
                     id="path39" />
                </g>
              </g>
            </g>
          </g>
        </g>
      </g>
      <g
         clip-path="url(#d9b0cf2442)"
         id="g53">
        <g
           clip-path="url(#b35c96fe99)"
           id="g52">
          <g
             clip-path="url(#0ef0354d4c)"
             id="g51">
            <g
               transform="translate(58,59)"
               id="g50">
              <g
                 clip-path="url(#9346d2100a)"
                 id="g49">
                <g
                   clip-path="url(#63c132b579)"
                   id="g48">
                  <g
                     clip-path="url(#bffeb92cad)"
                     id="g47">
                    <g
                       clip-path="url(#273a8542b0)"
                       id="g46">
                      <path
                         fill="#da0c0c"
                         d="M 168.25,46.835938 47.753906,167.33203 -57.527344,62.050781 62.96875,-58.445312 Z m 0,0"
                         fill-opacity="1"
                         fill-rule="nonzero"
                         id="path45" />
                    </g>
                  </g>
                </g>
              </g>
            </g>
          </g>
        </g>
      </g>
      <g
         clip-path="url(#ed347ec08d)"
         id="g61">
        <g
           clip-path="url(#ef535bbee0)"
           id="g60">
          <g
             clip-path="url(#f3586ad999)"
             id="g59">
            <g
               transform="translate(489,58)"
               id="g58">
              <g
                 clip-path="url(#f66f5bd0d0)"
                 id="g57">
                <g
                   clip-path="url(#ccde6ec832)"
                   id="g56">
                  <g
                     clip-path="url(#e8168dadf8)"
                     id="g55">
                    <g
                       clip-path="url(#fb68fbef96)"
                       id="g54">
                      <path
                         fill="#da0c0c"
                         d="M 101.04297,168.14453 -19.453125,47.648438 85.824219,-57.632812 206.32031,62.863281 Z m 0,0"
                         fill-opacity="1"
                         fill-rule="nonzero"
                         id="path53" />
                    </g>
                  </g>
                </g>
              </g>
            </g>
          </g>
        </g>
      </g>
      <g
         clip-path="url(#82f3ca8dcb)"
         id="g69">
        <g
           clip-path="url(#15eda9e278)"
           id="g68">
          <g
             clip-path="url(#1f654919ff)"
             id="g67">
            <g
               transform="translate(59,474)"
               id="g66">
              <g
                 clip-path="url(#88f596551d)"
                 id="g65">
                <g
                   clip-path="url(#b009dd33ef)"
                   id="g64">
                  <g
                     clip-path="url(#bcbc2bedef)"
                     id="g63">
                    <g
                       clip-path="url(#4dd8c78f64)"
                       id="g62">
                      <path
                         fill="#da0c0c"
                         d="M 46.941406,-19.429688 167.4375,101.06641 62.15625,206.34375 -58.339844,85.847656 Z m 0,0"
                         fill-opacity="1"
                         fill-rule="nonzero"
                         id="path61" />
                    </g>
                  </g>
                </g>
              </g>
            </g>
          </g>
        </g>
      </g>
      <g
         clip-path="url(#e597b9e64f)"
         id="g77">
        <g
           clip-path="url(#d1a6c11186)"
           id="g76">
          <g
             clip-path="url(#21549fcbd0)"
             id="g75">
            <g
               transform="translate(486,477)"
               id="g74">
              <g
                 clip-path="url(#1c356eb3e7)"
                 id="g73">
                <g
                   clip-path="url(#738faaf00d)"
                   id="g72">
                  <g
                     clip-path="url(#bb852439b4)"
                     id="g71">
                    <g
                       clip-path="url(#6de14bfd3a)"
                       id="g70">
                      <path
                         fill="#da0c0c"
                         d="M -19.542969,101.15625 100.95313,-19.339844 206.23047,85.941406 85.734375,206.4375 Z m 0,0"
                         fill-opacity="1"
                         fill-rule="nonzero"
                         id="path69" />
                    </g>
                  </g>
                </g>
              </g>
            </g>
          </g>
        </g>
      </g>
      <g
         clip-path="url(#806d6bf5be)"
         id="g78">
        <path
           fill="#da0c0c"
           d="m 468.00781,80.332031 c -3.55859,0.07031 -6.89453,3.546875 -6.27734,7.074219 0.32422,2.5 2.94531,4.113281 5.00781,2.625 0.21484,-0.230469 0.0937,-0.515625 -0.10156,-0.726562 -0.51953,-0.613282 -1.9336,-1.25 -2.19141,-2.273438 -0.21875,-0.929688 0.31641,-1.84375 0.91797,-2.5625 2.81641,-3.058594 7.47656,-0.691406 8.01953,3.179688 1.03516,5.847656 -5.23047,10.769531 -10.83203,9.324218 -6.5,-1.664062 -7.97656,-9.402344 -12.10156,-13.980468 -5.57031,-6.519532 -14.44531,-9.851563 -22.95313,-9.363282 C 405.4375,74.820312 392,97.167969 370.69141,100.76563 c -2.06641,0.32812 -4.19922,0.43359 -6.29688,0.34375 -1.27734,-0.0508 -2.48437,-0.13672 -3.47266,-0.19532 -1.64843,-0.10156 -2.66015,-0.11328 -2.73437,0.0547 -0.0937,0.15625 0.76953,0.49609 2.32812,0.85938 4.53125,1.125 9.85547,0.94921 14.44922,-0.28516 16.35547,-4.109376 27.52344,-18.593751 43.30469,-24.132814 3.96484,-1.375 8.17969,-2.085937 12.37891,-1.832031 8.9375,0.445313 18.21875,5.664063 21.52343,14.207031 4.55469,12.261724 -6.74218,20.894534 -18.46875,19.246094 -2.07812,-0.27734 -4.15234,-0.87891 -5.96875,-1.90625 -3.9375,-2.08203 -6.27343,-6.86719 -3.5625,-10.640625 1.90625,-2.785156 6.32813,-3.597656 8.96094,-1.519531 2.53516,1.859375 -1.3125,3.707031 -0.33203,5.187496 0.74609,0.60938 2.31641,0.73047 3.67578,-0.199215 3.14453,-2.597656 0.72266,-7.148437 -2.53515,-8.4375 -5.24219,-2.460937 -12.44922,0.976563 -13.36719,6.808594 -0.49219,2.707031 0.39062,5.468751 2.24609,7.621091 5.46094,6.01953 15.35938,6.57813 22.53516,3.48438 7.11328,-2.94141 8.04297,-8.73828 12.59375,-10.187502 3.10937,-0.816407 6.39062,0.269531 9.57812,-0.515626 6.02344,-1.226562 10.1836,-8.191406 7.53516,-13.894531 -1.17969,-2.71875 -4.00781,-4.679687 -7.00781,-4.503906 h -0.0508 z m 0,0"
           fill-opacity="1"
           fill-rule="nonzero"
           id="path77" />
      </g>
      <path
         fill="#da0c0c"
         d="m 459.16797,102.24609 c -2.95313,0.0977 -3.08203,4.53907 -0.14844,4.82422 3.17969,0.15235 3.37891,-4.69531 0.20703,-4.82422 h -0.0625 z m 0,0"
         fill-opacity="1"
         fill-rule="nonzero"
         id="path78" />
      <path
         fill="#da0c0c"
         d="m 397.35156,72.597656 c -2.43359,-7.679687 -13.75,-9.824218 -19.50781,-4.570312 -5,4.492187 -2.73047,12.578125 4.26953,12.601562 3.85547,-0.04297 6.50391,-4.125 3.05859,-6.671875 -3.17187,-2.066406 -1.13281,1.773438 -2.15625,3.261719 -0.92578,0.953125 -2.5625,0.425781 -3.53906,-0.304688 -1.35156,-1.03125 -1.92578,-2.890624 -1.48047,-4.582031 2.01953,-6.566406 12.16407,-6.472656 16.02344,-1.65625 2.85156,3.265625 2.32422,8.082031 0.28516,11.671875 -4.10938,7.289063 -11.91407,11.609375 -20.0586,13.378906 -2.35547,0.53125 -5.30468,0.878907 -7.54297,1.246094 -1.16015,0.195313 -1.78906,0.355469 -1.75,0.476563 0.0274,0.121093 0.6836,0.203125 1.83594,0.207031 1.49219,0.0039 3.55078,-0.125 5.17969,-0.347656 9.71484,-1.34375 18.89844,-6.082032 23.77344,-14.511719 1.70703,-3.046875 2.67187,-6.757813 1.6289,-10.144531 z m 0,0"
         fill-opacity="1"
         fill-rule="nonzero"
         id="path79" />
      <path
         fill="#da0c0c"
         d="m 403.19531,74.453125 c -2.71484,0.09375 -2.79297,4.183594 -0.0859,4.394531 2.86329,0.08203 3.00782,-4.28125 0.14844,-4.394531 z m 0,0"
         fill-opacity="1"
         fill-rule="nonzero"
         id="path80" />
      <g
         clip-path="url(#cc10d31b1c)"
         id="g81">
        <path
           fill="#da0c0c"
           d="m 227.4375,80.332031 c 3.55469,0.07031 6.89453,3.546875 6.27344,7.074219 -0.26953,2.015625 -2.03907,3.578125 -3.96875,3.101562 -0.47657,-0.132812 -1.03907,-0.246093 -1.15235,-0.730468 0,-0.175782 0.0898,-0.335938 0.21875,-0.472656 1.19532,-1.140626 3.05469,-1.851563 1.88282,-3.957032 -2.33985,-4.175781 -7.9961,-2.121094 -8.625,2.296875 -0.9961,5.457031 4.57031,10.296875 9.92578,9.488281 C 239.14062,96.140625 240.72656,87.75 245,82.992188 c 4.07812,-4.78125 10.01562,-7.890626 16.19922,-8.964844 25.33594,-4.238282 40.38672,22.84375 63.55859,26.738286 2.06641,0.32812 4.19922,0.43359 6.29688,0.34375 1.27734,-0.0508 2.48437,-0.13672 3.47265,-0.19532 1.64844,-0.10156 2.66016,-0.11328 2.73438,0.0547 0.0937,0.15625 -0.76953,0.49609 -2.32813,0.85938 -4.50781,1.11718 -9.8125,0.94921 -14.38672,-0.26954 -16.38671,-4.08984 -27.5664,-18.605465 -43.36718,-24.148434 -3.96485,-1.375 -8.17969,-2.085937 -12.37891,-1.832031 -8.9375,0.445313 -18.21875,5.667969 -21.52344,14.207031 -4.57812,12.222654 6.78125,20.917974 18.47266,19.246094 2.07422,-0.27734 4.14844,-0.875 5.96484,-1.90625 3.9375,-2.08203 6.27735,-6.86719 3.5625,-10.640625 -1.90625,-2.785156 -6.32812,-3.597656 -8.96093,-1.519531 -2.53516,1.859375 1.30859,3.691406 0.33203,5.187496 -0.74219,0.60938 -2.31641,0.73047 -3.67578,-0.199215 -3.14844,-2.570313 -0.71094,-7.171875 2.53906,-8.4375 5.23828,-2.460937 12.44922,0.976563 13.36328,6.808594 0.49219,2.707031 -0.39063,5.468751 -2.24609,7.621091 -5.46094,6.01953 -15.35938,6.57813 -22.53125,3.48438 -7.07422,-2.91016 -8.03125,-8.72266 -12.59766,-10.187502 -3.10938,-0.816407 -6.38672,0.269531 -9.57813,-0.515626 -5.55468,-1.132812 -9.64843,-7.230468 -7.96875,-12.71875 0.875,-3.265624 3.98829,-5.886718 7.44141,-5.679687 h 0.0508 z m 0,0"
           fill-opacity="1"
           fill-rule="nonzero"
           id="path81" />
      </g>
      <path
         fill="#da0c0c"
         d="m 236.27344,102.24609 c 2.95703,0.0977 3.08593,4.53907 0.15234,4.82422 -3.17969,0.15235 -3.37891,-4.69531 -0.20703,-4.82422 h 0.0586 z m 0,0"
         fill-opacity="1"
         fill-rule="nonzero"
         id="path82" />
      <path
         fill="#da0c0c"
         d="m 298.09375,72.597656 c 2.43359,-7.679687 13.75,-9.824218 19.50781,-4.570312 5,4.492187 2.72656,12.578125 -4.26953,12.601562 -3.85547,-0.04297 -6.50781,-4.125 -3.05859,-6.671875 3.17187,-2.066406 1.13281,1.773438 2.15234,3.261719 0.92969,0.953125 2.5625,0.425781 3.54297,-0.304688 1.34766,-1.03125 1.92578,-2.890624 1.48047,-4.582031 -2.01953,-6.566406 -12.16406,-6.472656 -16.02344,-1.65625 -2.85547,3.265625 -2.32422,8.082031 -0.28516,11.671875 4.10547,7.289063 11.91407,11.609375 20.0586,13.378906 2.35547,0.53125 5.30078,0.878907 7.53906,1.246094 1.16016,0.195313 1.78906,0.355469 1.75,0.476563 -0.0273,0.121093 -0.68359,0.203125 -1.83594,0.207031 -1.49218,0.0039 -3.55078,-0.125 -5.18359,-0.347656 -9.71094,-1.34375 -18.89453,-6.082032 -23.76953,-14.511719 -1.70703,-3.046875 -2.67188,-6.757813 -1.62891,-10.144531 l 0.0195,-0.05469 z m 0,0"
         fill-opacity="1"
         fill-rule="nonzero"
         id="path83" />
      <path
         fill="#da0c0c"
         d="m 292.24609,74.453125 c 2.71875,0.09375 2.79297,4.183594 0.0899,4.394531 -2.86719,0.08203 -3.00782,-4.28125 -0.14844,-4.394531 z m 0,0"
         fill-opacity="1"
         fill-rule="nonzero"
         id="path84" />
      <path
         fill="#da0c0c"
         d="m 102.19531,461.98437 c -0.0703,-3.55468 -3.546872,-6.89453 -7.074216,-6.27343 -2.5,0.32031 -4.113282,2.94531 -2.625,5.00781 0.230468,0.21484 0.515625,0.0898 0.726562,-0.10156 0.613282,-0.51953 1.25,-1.9375 2.273438,-2.19141 0.929687,-0.21875 1.84375,0.31641 2.5625,0.91797 3.058596,2.8125 0.691406,7.47656 -3.179688,8.01562 -5.847656,1.03907 -10.765625,-5.22656 -9.324218,-10.82812 1.664062,-6.5 9.402343,-7.97656 13.980468,-12.10156 6.519534,-5.57422 9.851564,-14.44532 9.363284,-22.95313 -1.19141,-22.0625 -23.539065,-35.5 -27.136721,-56.80469 -0.328125,-2.0664 -0.433594,-4.19921 -0.34375,-6.30078 0.05078,-1.27734 0.136719,-2.48047 0.195312,-3.46875 0.101563,-1.64843 0.113281,-2.66015 -0.05469,-2.73437 -0.15625,-0.0937 -0.496094,0.76953 -0.859375,2.32812 -1.125,4.53125 -0.949219,9.85547 0.285156,14.44532 4.109375,16.35937 18.59375,27.52343 24.132818,43.30859 1.375,3.96484 2.08594,8.17578 1.83594,12.37891 -0.44922,8.9375 -5.66797,18.21875 -14.210945,21.52343 -12.261719,4.55469 -20.894532,-6.74218 -19.246094,-18.47265 0.277344,-2.07813 0.878906,-4.14844 1.90625,-5.96485 2.082031,-3.9375 6.867187,-6.27734 10.640625,-3.5625 2.785156,1.90625 3.597656,6.32813 1.519531,8.96094 -1.859375,2.53516 -3.707031,-1.31641 -5.1875,-0.33594 -0.609375,0.7461 -0.730469,2.32032 0.199219,3.67578 2.597656,3.14844 7.148437,0.72657 8.4375,-2.53515 2.460937,-5.23828 -0.976563,-12.44922 -6.808594,-13.36328 -2.707031,-0.49219 -5.46875,0.39062 -7.621094,2.24218 -6.019531,5.46485 -6.578125,15.36329 -3.484375,22.53516 2.941406,7.11719 8.738282,8.04297 10.1875,12.59766 0.816406,3.10937 -0.269531,6.38672 0.519532,9.57812 1.222656,6.02344 8.1875,10.17969 13.894531,7.53516 2.714844,-1.1836 4.675784,-4.01172 4.500004,-7.00781 v -0.0508 z m 0,0"
         fill-opacity="1"
         fill-rule="nonzero"
         id="path85" />
      <path
         fill="#da0c0c"
         d="M 80.28125,453.14844 C 80.1875,450.19531 75.742188,450.06641 75.457031,453 c -0.152343,3.17969 4.695313,3.37891 4.824219,0.20703 v -0.0625 z m 0,0"
         fill-opacity="1"
         fill-rule="nonzero"
         id="path86" />
      <path
         fill="#da0c0c"
         d="m 109.92969,391.33203 c 7.67969,-2.4375 9.82422,-13.75391 4.57031,-19.51172 -4.49219,-4.99609 -12.57812,-2.72656 -12.60156,4.27344 0.043,3.85547 4.1289,6.50391 6.67187,3.05469 2.07032,-3.16797 -1.77343,-1.13282 -3.25781,-2.15235 -0.95703,-0.92968 -0.42969,-2.5625 0.30078,-3.53906 1.03125,-1.35156 2.89063,-1.92969 4.58203,-1.48437 6.56641,2.01953 6.47266,12.16796 1.65625,16.02343 -3.26562,2.85547 -8.08203,2.32813 -11.67187,0.28516 -7.289065,-4.10547 -11.609378,-11.91016 -13.378909,-20.05469 -0.53125,-2.35547 -0.878906,-5.30469 -1.246093,-7.54297 -0.195313,-1.16406 -0.355469,-1.79297 -0.476563,-1.75 -0.121094,0.0274 -0.203125,0.6836 -0.207031,1.83594 -0.0039,1.48828 0.125,3.54688 0.347656,5.17969 1.347656,9.71094 6.082031,18.89453 14.511719,23.77344 3.046871,1.70703 6.757811,2.66796 10.144531,1.625 z m 0,0"
         fill-opacity="1"
         fill-rule="nonzero"
         id="path87" />
      <path
         fill="#da0c0c"
         d="m 108.07422,397.17578 c -0.0937,-2.71484 -4.18359,-2.79297 -4.39453,-0.0898 -0.082,2.86718 4.28125,3.01172 4.39453,0.15234 z m 0,0"
         fill-opacity="1"
         fill-rule="nonzero"
         id="path88" />
      <path
         fill="#da0c0c"
         d="m 102.19531,221.41406 c -0.0703,3.5586 -3.546872,6.89844 -7.074216,6.27735 -2.015625,-0.27344 -3.578125,-2.04297 -3.101563,-3.96875 0.132813,-0.48047 0.246094,-1.03907 0.730469,-1.15235 0.175781,0 0.335938,0.0898 0.476562,0.21875 1.136719,1.19141 1.847657,3.05469 3.953126,1.87891 4.175782,-2.33985 2.121093,-7.99219 -2.296876,-8.6211 -5.457031,-0.99609 -10.292968,4.57032 -9.488281,9.92579 0.992188,7.14843 9.382813,8.73437 14.140625,13.00781 4.781254,4.07812 7.894534,10.01562 8.964844,16.19531 4.23828,25.33594 -22.84375,40.39063 -26.738281,63.55859 -0.328125,2.07032 -0.433594,4.20313 -0.34375,6.30079 0.05078,1.27734 0.136719,2.48437 0.195312,3.47265 0.101563,1.64844 0.113281,2.66016 -0.05469,2.73438 -0.15625,0.0937 -0.496094,-0.77344 -0.859375,-2.32813 -1.117188,-4.51172 -0.949219,-9.8164 0.273437,-14.38672 4.085938,-16.39062 18.601563,-27.5664 24.144537,-43.36718 1.375,-3.96485 2.08594,-8.17969 1.83594,-12.37891 -0.44922,-8.9375 -5.67188,-18.21875 -14.210945,-21.52344 -12.222657,-4.57812 -20.917969,6.77735 -19.246094,18.46875 0.277344,2.07813 0.875,4.14844 1.90625,5.96875 2.082031,3.9375 6.867187,6.27344 10.640625,3.5625 2.785156,-1.90625 3.597656,-6.32812 1.519531,-8.96094 -1.859375,-2.53515 -3.691406,1.30469 -5.1875,0.33204 -0.609375,-0.7461 -0.730469,-2.32032 0.199219,-3.67579 2.570312,-3.14843 7.171875,-0.71093 8.4375,2.53516 2.460937,5.24219 -0.976563,12.44922 -6.808594,13.36719 -2.707031,0.49219 -5.46875,-0.39063 -7.621094,-2.2461 -6.019531,-5.46093 -6.578125,-15.35937 -3.484375,-22.53515 2.910156,-7.07031 8.722656,-8.03125 10.1875,-12.59375 0.816406,-3.10938 -0.269531,-6.39063 0.519532,-9.57813 1.128906,-5.55859 7.226562,-9.64843 12.714843,-7.97265 3.265625,0.8789 5.890632,3.99218 5.679692,7.44531 v 0.0508 z m 0,0"
         fill-opacity="1"
         fill-rule="nonzero"
         id="path89" />
      <path
         fill="#da0c0c"
         d="m 80.28125,230.25391 c -0.09375,2.95312 -4.539062,3.08203 -4.824219,0.14843 -0.152343,-3.17968 4.695313,-3.3789 4.824219,-0.20703 v 0.0625 z m 0,0"
         fill-opacity="1"
         fill-rule="nonzero"
         id="path90" />
      <path
         fill="#da0c0c"
         d="m 109.92969,292.07031 c 7.67969,2.4375 9.82422,13.75 4.57031,19.51172 -4.49219,4.99609 -12.57812,2.72656 -12.60156,-4.27344 0.043,-3.85547 4.1289,-6.50781 6.67187,-3.05859 2.07032,3.17187 -1.77343,1.13672 -3.25781,2.15625 -0.95703,0.92969 -0.42969,2.5625 0.30078,3.53906 1.03125,1.35156 2.89063,1.92969 4.58203,1.48438 6.56641,-2.01953 6.47266,-12.16797 1.65625,-16.02735 -3.26562,-2.85156 -8.08203,-2.32422 -11.67187,-0.28125 -7.289065,4.10547 -11.609378,11.91016 -13.378909,20.05469 -0.53125,2.35547 -0.878906,5.30469 -1.246093,7.53906 -0.195313,1.16407 -0.355469,1.79297 -0.476563,1.75391 -0.121094,-0.0273 -0.203125,-0.6875 -0.207031,-1.83594 -0.0039,-1.49219 0.125,-3.55078 0.347656,-5.18359 1.347656,-9.71094 6.082031,-18.89453 14.511719,-23.76953 3.046871,-1.71094 6.757811,-2.67188 10.144531,-1.62891 l 0.0547,0.0156 z m 0,0"
         fill-opacity="1"
         fill-rule="nonzero"
         id="path91" />
      <path
         fill="#da0c0c"
         d="m 108.07422,286.22656 c -0.0937,2.71485 -4.18359,2.79297 -4.39453,0.0899 -0.082,-2.86719 4.28125,-3.01172 4.39453,-0.15235 z m 0,0"
         fill-opacity="1"
         fill-rule="nonzero"
         id="path92" />
      <path
         fill="#da0c0c"
         d="m 468.00781,572.51562 c -3.55859,0.0703 -6.89453,3.54688 -6.27734,7.07422 0.32422,2.5 2.94531,4.11328 5.00781,2.625 0.21484,-0.23047 0.0937,-0.51562 -0.10156,-0.72656 -0.51953,-0.61328 -1.9336,-1.25391 -2.19141,-2.27344 -0.21875,-0.92968 0.31641,-1.84375 0.91797,-2.5625 2.81641,-3.0625 7.47656,-0.69531 8.01953,3.17578 1.03516,5.85157 -5.23047,10.76954 -10.83203,9.32422 -6.5,-1.66015 -7.97656,-9.39843 -12.10156,-13.97656 -5.57031,-6.52344 -14.44531,-9.85156 -22.95313,-9.36328 -22.05859,1.19141 -35.49609,23.53906 -56.80468,27.13672 -2.06641,0.32812 -4.19922,0.43359 -6.29688,0.33984 -1.27734,-0.0469 -2.48437,-0.13281 -3.47266,-0.1914 -1.64843,-0.10547 -2.66015,-0.11719 -2.73437,0.0508 -0.0937,0.16015 0.76953,0.5 2.32812,0.86328 4.53125,1.125 9.85547,0.94922 14.44922,-0.28906 16.35547,-4.10938 27.52344,-18.58985 43.30469,-24.12891 3.96484,-1.375 8.17969,-2.08594 12.37891,-1.83594 8.9375,0.44922 18.21875,5.66797 21.52343,14.21094 4.55469,12.26172 -6.74218,20.89453 -18.46875,19.24219 -2.07812,-0.27344 -4.15234,-0.875 -5.96875,-1.90235 -3.9375,-2.08203 -6.27343,-6.86718 -3.5625,-10.64062 1.90625,-2.78516 6.32813,-3.59766 8.96094,-1.51953 2.53516,1.85937 -1.3125,3.70703 -0.33203,5.1875 0.74609,0.60937 2.31641,0.73047 3.67578,-0.19922 3.14453,-2.59766 0.72266,-7.14844 -2.53515,-8.4375 -5.24219,-2.46094 -12.44922,0.97656 -13.36719,6.80859 -0.49219,2.70703 0.39062,5.46875 2.24609,7.61719 5.46094,6.02344 15.35938,6.58203 22.53516,3.48828 7.11328,-2.94141 8.04297,-8.73828 12.59375,-10.19141 3.10937,-0.8125 6.39062,0.27344 9.57812,-0.51562 6.02344,-1.22266 10.1836,-8.1875 7.53516,-13.89453 -1.17969,-2.71485 -4.00781,-4.67578 -7.00781,-4.5 h -0.0508 z m 0,0"
         fill-opacity="1"
         fill-rule="nonzero"
         id="path93" />
      <path
         fill="#da0c0c"
         d="m 459.16797,594.42969 c -2.95313,0.0937 -3.08203,4.53515 -0.14844,4.82422 3.17969,0.15234 3.37891,-4.69532 0.20703,-4.82422 h -0.0625 z m 0,0"
         fill-opacity="1"
         fill-rule="nonzero"
         id="path94" />
      <path
         fill="#da0c0c"
         d="m 397.35156,564.78125 c -2.43359,-7.67969 -13.75,-9.82813 -19.50781,-4.57031 -5,4.49218 -2.73047,12.57812 4.26953,12.60156 3.85547,-0.043 6.50391,-4.12891 3.05859,-6.67188 -3.17187,-2.07031 -1.13281,1.77344 -2.15625,3.25782 -0.92578,0.95703 -2.5625,0.42968 -3.53906,-0.30078 -1.35156,-1.03125 -1.92578,-2.89063 -1.48047,-4.58204 2.01953,-6.5664 12.16407,-6.47656 16.02344,-1.65625 2.85156,3.26563 2.32422,8.08204 0.28516,11.66797 -4.10938,7.29297 -11.91407,11.61328 -20.0586,13.38282 -2.35547,0.52734 -5.30468,0.8789 -7.54297,1.24609 -1.16015,0.19141 -1.78906,0.35547 -1.75,0.47656 0.0274,0.1211 0.6836,0.20313 1.83594,0.20703 1.49219,0 3.55078,-0.1289 5.17969,-0.35156 9.71484,-1.34375 18.89844,-6.07812 23.77344,-14.51172 1.70703,-3.04297 2.67187,-6.7539 1.6289,-10.14062 z m 0,0"
         fill-opacity="1"
         fill-rule="nonzero"
         id="path95" />
      <path
         fill="#da0c0c"
         d="m 403.19531,566.63281 c -2.71484,0.0977 -2.79297,4.1875 -0.0859,4.39844 2.86329,0.082 3.00782,-4.28125 0.14844,-4.39844 z m 0,0"
         fill-opacity="1"
         fill-rule="nonzero"
         id="path96" />
      <path
         fill="#da0c0c"
         d="m 227.4375,572.51562 c 3.55469,0.0703 6.89453,3.54688 6.27344,7.07422 -0.26953,2.01563 -2.03907,3.57422 -3.96875,3.09766 -0.47657,-0.12891 -1.03907,-0.24219 -1.15235,-0.72656 0,-0.17578 0.0898,-0.33594 0.21875,-0.47657 1.19532,-1.13671 3.05469,-1.85156 1.88282,-3.95703 -2.33985,-4.17187 -7.9961,-2.11718 -8.625,2.30078 -0.9961,5.45313 4.57031,10.29297 9.92578,9.48829 7.14843,-0.99219 8.73437,-9.38282 13.00781,-14.14454 4.07812,-4.77734 10.01562,-7.89062 16.19922,-8.96093 25.33594,-4.23828 40.38672,22.84375 63.55859,26.73828 2.06641,0.32812 4.19922,0.43359 6.29688,0.33984 1.27734,-0.0469 2.48437,-0.13281 3.47265,-0.1914 1.64844,-0.10547 2.66016,-0.11719 2.73438,0.0508 0.0937,0.16015 -0.76953,0.5 -2.32813,0.86328 -4.50781,1.11719 -9.8125,0.94922 -14.38672,-0.27344 -16.38671,-4.08594 -27.5664,-18.60156 -43.36718,-24.14453 -3.96485,-1.375 -8.17969,-2.08594 -12.37891,-1.83594 -8.9375,0.44922 -18.21875,5.67188 -21.52344,14.21094 -4.57812,12.22266 6.78125,20.91797 18.47266,19.24219 2.07422,-0.27344 4.14844,-0.8711 5.96484,-1.90235 3.9375,-2.08203 6.27735,-6.86718 3.5625,-10.64062 -1.90625,-2.78516 -6.32812,-3.59766 -8.96093,-1.51953 -2.53516,1.85937 1.30859,3.6914 0.33203,5.1875 -0.74219,0.60937 -2.31641,0.73047 -3.67578,-0.19922 -3.14844,-2.57031 -0.71094,-7.17578 2.53906,-8.4375 5.23828,-2.46094 12.44922,0.97656 13.36328,6.80859 0.49219,2.70703 -0.39063,5.46875 -2.24609,7.61719 -5.46094,6.02344 -15.35938,6.58203 -22.53125,3.48828 -7.07422,-2.91016 -8.03125,-8.72266 -12.59766,-10.19141 -3.10938,-0.8125 -6.38672,0.27344 -9.57813,-0.51562 -5.55468,-1.12891 -9.64843,-7.22656 -7.96875,-12.71875 0.875,-3.26563 3.98829,-5.88672 7.44141,-5.67578 h 0.0508 z m 0,0"
         fill-opacity="1"
         fill-rule="nonzero"
         id="path97" />
      <path
         fill="#da0c0c"
         d="m 236.27344,594.42969 c 2.95703,0.0937 3.08593,4.53515 0.15234,4.82422 -3.17969,0.15234 -3.37891,-4.69532 -0.20703,-4.82422 h 0.0586 z m 0,0"
         fill-opacity="1"
         fill-rule="nonzero"
         id="path98" />
      <path
         fill="#da0c0c"
         d="m 298.09375,564.78125 c 2.43359,-7.67969 13.75,-9.82813 19.50781,-4.57031 5,4.49218 2.72656,12.57812 -4.26953,12.60156 -3.85547,-0.043 -6.50781,-4.12891 -3.05859,-6.67188 3.17187,-2.07031 1.13281,1.77344 2.15234,3.25782 0.92969,0.95703 2.5625,0.42968 3.54297,-0.30078 1.34766,-1.03125 1.92578,-2.89063 1.48047,-4.58204 -2.01953,-6.5664 -12.16406,-6.47656 -16.02344,-1.65625 -2.85547,3.26563 -2.32422,8.08204 -0.28516,11.66797 4.10547,7.29297 11.91407,11.61328 20.0586,13.38282 2.35547,0.52734 5.30078,0.8789 7.53906,1.24609 1.16016,0.19141 1.78906,0.35547 1.75,0.47656 -0.0273,0.1211 -0.68359,0.20313 -1.83594,0.20703 -1.49218,0 -3.55078,-0.1289 -5.18359,-0.35156 -9.71094,-1.34375 -18.89453,-6.07812 -23.76953,-14.51172 -1.70703,-3.04297 -2.67188,-6.7539 -1.62891,-10.14062 l 0.0195,-0.0547 z m 0,0"
         fill-opacity="1"
         fill-rule="nonzero"
         id="path99" />
      <path
         fill="#da0c0c"
         d="m 292.24609,566.63281 c 2.71875,0.0977 2.79297,4.1875 0.0899,4.39844 -2.86719,0.082 -3.00782,-4.28125 -0.14844,-4.39844 z m 0,0"
         fill-opacity="1"
         fill-rule="nonzero"
         id="path100" />
      <g
         clip-path="url(#c3c09f716c)"
         id="g101">
        <path
           fill="#da0c0c"
           d="m 593.10547,221.97266 c 0.0703,3.55468 3.54687,6.89453 7.07031,6.27343 2.50391,-0.32031 4.11719,-2.94531 2.62891,-5.00781 -0.23438,-0.21094 -0.51563,-0.0898 -0.72657,0.10156 -0.61718,0.51953 -1.2539,1.9375 -2.27343,2.19532 -0.9336,0.21484 -1.84766,-0.32032 -2.5625,-0.92188 -3.0625,-2.8125 -0.69532,-7.47266 3.17578,-8.01562 5.85156,-1.03907 10.76953,5.22656 9.32422,10.83203 -1.66407,6.49609 -9.40235,7.97656 -13.97657,12.10156 -6.52343,5.57031 -9.85546,14.44141 -9.36328,22.95312 1.19141,22.0586 23.53907,35.4961 27.13282,56.80079 0.33203,2.07031 0.43359,4.20312 0.34375,6.30078 -0.0508,1.27734 -0.13672,2.48437 -0.19141,3.46875 -0.10547,1.65234 -0.11719,2.66406 0.0508,2.73437 0.16016,0.0977 0.49609,-0.76953 0.85938,-2.32812 1.125,-4.53125 0.95312,-9.85547 -0.28516,-14.44532 -4.10938,-16.35937 -18.59375,-27.52343 -24.13281,-43.30859 -1.375,-3.96484 -2.08203,-8.17578 -1.83203,-12.37891 0.44921,-8.93359 5.66796,-18.21484 14.20703,-21.52343 12.26562,-4.55469 20.89453,6.74609 19.24609,18.47265 -0.27734,2.07813 -0.87891,4.14844 -1.90234,5.96875 -2.08594,3.9375 -6.8711,6.27344 -10.64063,3.5586 -2.78906,-1.90625 -3.60156,-6.32422 -1.52344,-8.95703 1.85938,-2.53907 3.71094,1.3125 5.1875,0.33203 0.60938,-0.7461 0.73438,-2.32032 -0.19921,-3.67578 -2.59766,-3.14844 -7.14844,-0.72266 -8.4375,2.53515 -2.46094,5.23828 0.97656,12.44922 6.80859,13.36719 2.70703,0.49219 5.46875,-0.39063 7.62109,-2.24609 6.01953,-5.46094 6.58203,-15.36329 3.48438,-22.53516 -2.94141,-7.11328 -8.73828,-8.04297 -10.1875,-12.59766 -0.81641,-3.10937 0.27344,-6.38672 -0.51563,-9.57422 -1.22656,-6.02734 -8.1875,-10.18359 -13.89453,-7.53906 -2.71484,1.1836 -4.67969,4.01172 -4.5,7.00781 v 0.0547 z m 0,0"
           fill-opacity="1"
           fill-rule="nonzero"
           id="path101" />
      </g>
      <path
         fill="#da0c0c"
         d="m 615.01953,230.80859 c 0.0937,2.95703 4.53516,3.08594 4.82422,0.15235 0.15234,-3.17969 -4.69922,-3.37891 -4.82422,-0.20703 v 0.0586 z m 0,0"
         fill-opacity="1"
         fill-rule="nonzero"
         id="path102" />
      <path
         fill="#da0c0c"
         d="m 585.36719,292.62891 c -7.67969,2.43359 -9.82422,13.75 -4.57032,19.50781 4.4961,5 12.57813,2.72656 12.60157,-4.26953 -0.043,-3.85547 -4.125,-6.50391 -6.67188,-3.0586 -2.0664,3.17188 1.77735,1.13282 3.26172,2.15235 0.95703,0.92968 0.42578,2.5625 -0.30469,3.54297 -1.03125,1.34765 -2.89062,1.92578 -4.58203,1.48046 -6.5664,-2.01953 -6.47265,-12.16406 -1.65625,-16.02343 3.26563,-2.85547 8.08594,-2.32422 11.67188,-0.28516 7.28906,4.10547 11.61328,11.91016 13.38281,20.05859 0.52734,2.35547 0.875,5.30079 1.24609,7.54297 0.19141,1.16016 0.35157,1.78907 0.47657,1.75 0.11718,-0.0273 0.19921,-0.68359 0.20312,-1.83593 0.004,-1.49219 -0.125,-3.55079 -0.34766,-5.1836 -1.34375,-9.71094 -6.07812,-18.89453 -14.51171,-23.76953 -3.04688,-1.71094 -6.75391,-2.67187 -10.14454,-1.62891 z m 0,0"
         fill-opacity="1"
         fill-rule="nonzero"
         id="path103" />
      <path
         fill="#da0c0c"
         d="m 587.22266,286.78125 c 0.0937,2.71875 4.18359,2.79297 4.39453,0.0898 0.0859,-2.86718 -4.27735,-3.00781 -4.39453,-0.14843 z m 0,0"
         fill-opacity="1"
         fill-rule="nonzero"
         id="path104" />
      <g
         clip-path="url(#82fe942fa7)"
         id="g105">
        <path
           fill="#da0c0c"
           d="m 593.10547,462.54297 c 0.0703,-3.5586 3.54687,-6.89453 7.07031,-6.27735 2.01563,0.27344 3.57813,2.04297 3.10156,3.96875 -0.13281,0.48047 -0.24609,1.03907 -0.73047,1.15235 -0.17578,0 -0.33203,-0.0899 -0.47265,-0.21485 -1.14063,-1.19531 -1.85156,-3.05468 -3.95703,-1.88281 -4.17188,2.33985 -2.1211,7.9961 2.29687,8.625 5.45703,0.9961 10.29688,-4.57031 9.48828,-9.92578 -0.99218,-7.14844 -9.38281,-8.73437 -14.14062,-13.01172 -4.77735,-4.07812 -7.89063,-10.01172 -8.96485,-16.19531 -4.23828,-25.33594 22.84375,-40.39063 26.73829,-63.55859 0.33203,-2.07032 0.43359,-4.20313 0.34375,-6.30079 -0.0508,-1.27734 -0.13672,-2.48437 -0.19141,-3.46875 -0.10547,-1.65234 -0.11719,-2.66406 0.0508,-2.73437 0.16016,-0.0977 0.49609,0.76953 0.85938,2.32812 1.12109,4.50782 0.95312,9.8125 -0.26954,14.38672 -4.08984,16.38672 -18.60156,27.56641 -24.14843,43.36719 -1.375,3.96484 -2.08203,8.17578 -1.83203,12.37891 0.44921,8.93359 5.66796,18.21484 14.20703,21.52343 12.22656,4.57422 20.91797,-6.78125 19.24609,-18.47265 -0.27734,-2.07813 -0.875,-4.14844 -1.90234,-5.96485 -2.08594,-3.9414 -6.8711,-6.27734 -10.64063,-3.5625 -2.78906,1.90625 -3.60156,6.32422 -1.52344,8.96094 1.85938,2.53516 3.69532,-1.30859 5.1875,-0.33594 0.60938,0.7461 0.73438,2.32032 -0.19921,3.67579 -2.57032,3.14843 -7.17188,0.71093 -8.4375,-2.53516 -2.46094,-5.23828 0.97656,-12.44922 6.80859,-13.36719 2.70703,-0.49219 5.46875,0.39063 7.62109,2.2461 6.01953,5.46484 6.58203,15.36328 3.48438,22.53515 -2.90625,7.07422 -8.72266,8.03125 -10.1875,12.59766 -0.81641,3.10937 0.27344,6.38672 -0.51563,9.57422 -1.13281,5.55859 -7.23047,9.64843 -12.71875,7.97265 -3.26562,-0.8789 -5.88672,-3.98828 -5.67578,-7.4414 v -0.0547 z m 0,0"
           fill-opacity="1"
           fill-rule="nonzero"
           id="path105" />
      </g>
      <path
         fill="#da0c0c"
         d="m 615.01953,453.70312 c 0.0937,-2.95312 4.53516,-3.08203 4.82422,-0.14843 0.15234,3.17968 -4.69922,3.3789 -4.82422,0.20703 v -0.0625 z m 0,0"
         fill-opacity="1"
         fill-rule="nonzero"
         id="path106" />
      <path
         fill="#da0c0c"
         d="m 585.36719,391.88672 c -7.67969,-2.4336 -9.82422,-13.75 -4.57032,-19.50781 4.4961,-5 12.57813,-2.73047 12.60157,4.26953 -0.043,3.85547 -4.125,6.50781 -6.67188,3.05859 -2.0664,-3.17187 1.77735,-1.13281 3.26172,-2.15625 0.95703,-0.92578 0.42578,-2.5625 -0.30469,-3.53906 -1.03125,-1.35156 -2.89062,-1.92969 -4.58203,-1.48047 -6.5664,2.01953 -6.47265,12.16406 -1.65625,16.02344 3.26563,2.85156 8.08594,2.32422 11.67188,0.28515 7.28906,-4.10937 11.61328,-11.91406 13.38281,-20.05859 0.52734,-2.35547 0.875,-5.30469 1.24609,-7.53906 0.19141,-1.16016 0.35157,-1.79297 0.47657,-1.75 0.11718,0.0273 0.19921,0.68359 0.20312,1.83593 0.004,1.48829 -0.125,3.55079 -0.34766,5.17969 -1.34375,9.71094 -6.07812,18.89453 -14.51171,23.77344 -3.04688,1.70703 -6.75391,2.66797 -10.14454,1.62891 l -0.0547,-0.0195 z m 0,0"
         fill-opacity="1"
         fill-rule="nonzero"
         id="path107" />
      <path
         fill="#da0c0c"
         d="m 587.22266,397.73047 c 0.0937,-2.71485 4.18359,-2.79297 4.39453,-0.0859 0.0859,2.86328 -4.27735,3.00781 -4.39453,0.14844 z m 0,0"
         fill-opacity="1"
         fill-rule="nonzero"
         id="path108" />
    </g>
  </g>
</svg>
