<?xml version="1.0" encoding="UTF-8" standalone="no"?>
<svg
   width="797.01562"
   zoomAndPan="magnify"
   viewBox="0 0 597.76172 585.35939"
   height="780.47919"
   preserveAspectRatio="xMidYMid"
   version="1.0"
   id="svg90"
   sodipodi:docname="2026_BR_04_alt_B.svg"
   inkscape:version="1.4.2 (f4327f4, 2025-05-13)"
   xmlns:inkscape="http://www.inkscape.org/namespaces/inkscape"
   xmlns:sodipodi="http://sodipodi.sourceforge.net/DTD/sodipodi-0.dtd"
   xmlns="http://www.w3.org/2000/svg"
   xmlns:svg="http://www.w3.org/2000/svg">
  <sodipodi:namedview
     id="namedview90"
     pagecolor="#ffffff"
     bordercolor="#000000"
     borderopacity="0.25"
     inkscape:showpageshadow="2"
     inkscape:pageopacity="0.0"
     inkscape:pagecheckerboard="0"
     inkscape:deskcolor="#d1d1d1"
     inkscape:zoom="0.35787037"
     inkscape:cx="44.708926"
     inkscape:cy="635.70504"
     inkscape:window-width="1920"
     inkscape:window-height="991"
     inkscape:window-x="-9"
     inkscape:window-y="-9"
     inkscape:window-maximized="1"
     inkscape:current-layer="svg90" />
  <defs
     id="defs42">
    <clipPath
       id="1beced4add">
      <path
         d="M 17.71875,17.632812 H 615.48047 V 602.99219 H 17.71875 Z m 0,0"
         clip-rule="nonzero"
         id="path1" />
    </clipPath>
    <clipPath
       id="d103b6e767">
      <path
         d="M 0.71875,0.632812 H 598 V 585.99219 H 0.71875 Z m 0,0"
         clip-rule="nonzero"
         id="path2" />
    </clipPath>
    <clipPath
       id="b60fd68dc2">
      <rect
         x="0"
         width="599"
         y="0"
         height="586"
         id="rect2" />
    </clipPath>
    <clipPath
       id="d6aad9b2e5">
      <path
         d="m 58,544 h 97 v 45 H 58 Z m 0,0"
         clip-rule="nonzero"
         id="path3" />
    </clipPath>
    <clipPath
       id="5cd4fdc710">
      <path
         d="m 76.78125,635.94922 -30.46875,-87.44531 96.80859,-33.73047 30.46875,87.4414 z m 0,0"
         clip-rule="nonzero"
         id="path4" />
    </clipPath>
    <clipPath
       id="21c511a455">
      <path
         d="m 76.78125,635.94922 -30.46875,-87.44531 96.80859,-33.73047 30.46875,87.4414 z m 0,0"
         clip-rule="nonzero"
         id="path5" />
    </clipPath>
    <clipPath
       id="f31623e4e7">
      <path
         d="m 35,475 h 43 v 99 H 35 Z m 0,0"
         clip-rule="nonzero"
         id="path6" />
    </clipPath>
    <clipPath
       id="6c1289b3c1">
      <path
         d="m 103.26953,574.75391 -92.566405,-2.38672 2.644531,-102.48438 92.566404,2.38672 z m 0,0"
         clip-rule="nonzero"
         id="path7" />
    </clipPath>
    <clipPath
       id="b4e633d1d7">
      <path
         d="m 103.26953,574.75391 -92.566405,-2.38672 2.644531,-102.48438 92.566404,2.38672 z m 0,0"
         clip-rule="nonzero"
         id="path8" />
    </clipPath>
    <clipPath
       id="d83560bf22">
      <path
         d="m 69,480 h 69 v 85 H 69 Z m 0,0"
         clip-rule="nonzero"
         id="path9" />
    </clipPath>
    <clipPath
       id="6066b1752f">
      <path
         d="m 117.57813,593.1875 -79.437505,-47.58203 52.679687,-87.94922 79.441408,47.58203 z m 0,0"
         clip-rule="nonzero"
         id="path10" />
    </clipPath>
    <clipPath
       id="52c6691b51">
      <path
         d="m 117.57813,593.1875 -79.437505,-47.58203 52.679687,-87.94922 79.441408,47.58203 z m 0,0"
         clip-rule="nonzero"
         id="path11" />
    </clipPath>
    <clipPath
       id="efaaad8146">
      <path
         d="m 32,53 h 44 v 98 H 32 Z m 0,0"
         clip-rule="nonzero"
         id="path12" />
    </clipPath>
    <clipPath
       id="99cf13d178">
      <path
         d="m -13.1875,69.9375 88.441406,-27.433594 30.375004,97.917964 -88.445316,27.4336 z m 0,0"
         clip-rule="nonzero"
         id="path13" />
    </clipPath>
    <clipPath
       id="5f4c7f3bd0">
      <path
         d="m -13.1875,69.9375 88.441406,-27.433594 30.375004,97.917964 -88.445316,27.4336 z m 0,0"
         clip-rule="nonzero"
         id="path14" />
    </clipPath>
    <clipPath
       id="47ea8ef587">
      <path
         d="m 50,33 h 98 V 76 H 50 Z m 0,0"
         clip-rule="nonzero"
         id="path15" />
    </clipPath>
    <clipPath
       id="8c11edd74d">
      <path
         d="M 47.054688,98.523438 52.636719,6.09375 154.97266,12.273438 149.39062,104.70313 Z m 0,0"
         clip-rule="nonzero"
         id="path16" />
    </clipPath>
    <clipPath
       id="1f43c8d2c4">
      <path
         d="M 47.054688,98.523438 52.636719,6.09375 154.97266,12.273438 149.39062,104.70313 Z m 0,0"
         clip-rule="nonzero"
         id="path17" />
    </clipPath>
    <clipPath
       id="985c7b4bc4">
      <path
         d="m 58,65 h 83 v 70 H 58 Z m 0,0"
         clip-rule="nonzero"
         id="path18" />
    </clipPath>
    <clipPath
       id="87ef90d3f1">
      <path
         d="m 28.140625,112.1875 50.296875,-77.75 86.07812,55.6875 -50.29687,77.74609 z m 0,0"
         clip-rule="nonzero"
         id="path19" />
    </clipPath>
    <clipPath
       id="e0cb2322d8">
      <path
         d="m 28.140625,112.1875 50.296875,-77.75 86.07812,55.6875 -50.29687,77.74609 z m 0,0"
         clip-rule="nonzero"
         id="path20" />
    </clipPath>
    <clipPath
       id="e34dbac877">
      <path
         d="m 483,32 h 98 v 43 h -98 z m 0,0"
         clip-rule="nonzero"
         id="path21" />
    </clipPath>
    <clipPath
       id="5ab9e9d68e">
      <path
         d="M 566.38281,-11.996094 590.16406,77.5 491.08203,103.82813 467.30078,14.335938 Z m 0,0"
         clip-rule="nonzero"
         id="path22" />
    </clipPath>
    <clipPath
       id="650d9412de">
      <path
         d="M 566.38281,-11.996094 590.16406,77.5 491.08203,103.82813 467.30078,14.335938 Z m 0,0"
         clip-rule="nonzero"
         id="path23" />
    </clipPath>
    <clipPath
       id="cde06f853d">
      <path
         d="m 555,52 h 44 v 98 h -44 z m 0,0"
         clip-rule="nonzero"
         id="path24" />
    </clipPath>
    <clipPath
       id="5fe1ae94a9">
      <path
         d="m 535.34766,47.023438 92.125,9.367187 -10.3711,101.996095 -92.125,-9.36719 z m 0,0"
         clip-rule="nonzero"
         id="path25" />
    </clipPath>
    <clipPath
       id="475c8edacb">
      <path
         d="m 535.34766,47.023438 92.125,9.367187 -10.3711,101.996095 -92.125,-9.36719 z m 0,0"
         clip-rule="nonzero"
         id="path26" />
    </clipPath>
    <clipPath
       id="98f3f8d948">
      <path
         d="m 496,59 h 72 v 81 h -72 z m 0,0"
         clip-rule="nonzero"
         id="path27" />
    </clipPath>
    <clipPath
       id="829f06f1c0">
      <path
         d="m 522.47266,27.566406 75.62109,53.441406 -59.16797,83.722658 -75.62109,-53.44141 z m 0,0"
         clip-rule="nonzero"
         id="path28" />
    </clipPath>
    <clipPath
       id="950250cef5">
      <path
         d="m 522.47266,27.566406 75.62109,53.441406 -59.16797,83.722658 -75.62109,-53.44141 z m 0,0"
         clip-rule="nonzero"
         id="path29" />
    </clipPath>
    <clipPath
       id="e9472640fc">
      <path
         d="m 556,470 h 43 v 99 h -43 z m 0,0"
         clip-rule="nonzero"
         id="path30" />
    </clipPath>
    <clipPath
       id="f792b305f9">
      <path
         d="m 644.3125,552.55078 -88.91406,25.86328 -28.63282,-98.4375 88.91016,-25.86328 z m 0,0"
         clip-rule="nonzero"
         id="path31" />
    </clipPath>
    <clipPath
       id="9aab2de140">
      <path
         d="m 644.3125,552.55078 -88.91406,25.86328 -28.63282,-98.4375 88.91016,-25.86328 z m 0,0"
         clip-rule="nonzero"
         id="path32" />
    </clipPath>
    <clipPath
       id="595971f174">
      <path
         d="m 482,544 h 99 v 44 h -99 z m 0,0"
         clip-rule="nonzero"
         id="path33" />
    </clipPath>
    <clipPath
       id="a84f330e7e">
      <path
         d="m 584.58594,522.90234 -7.21485,92.32032 -102.21093,-7.99219 7.21484,-92.31641 z m 0,0"
         clip-rule="nonzero"
         id="path34" />
    </clipPath>
    <clipPath
       id="bb696fb241">
      <path
         d="m 584.58594,522.90234 -7.21485,92.32032 -102.21093,-7.99219 7.21484,-92.31641 z m 0,0"
         clip-rule="nonzero"
         id="path35" />
    </clipPath>
    <clipPath
       id="39fa55bc24">
      <path
         d="m 491,485 h 82 v 71 h -82 z m 0,0"
         clip-rule="nonzero"
         id="path36" />
    </clipPath>
    <clipPath
       id="598960e7ef">
      <path
         d="m 603.73828,509.57812 -51.66406,76.84375 -85.07813,-57.19921 51.66407,-76.84375 z m 0,0"
         clip-rule="nonzero"
         id="path37" />
    </clipPath>
    <clipPath
       id="fe4647038f">
      <path
         d="m 603.73828,509.57812 -51.66406,76.84375 -85.07813,-57.19921 51.66407,-76.84375 z m 0,0"
         clip-rule="nonzero"
         id="path38" />
    </clipPath>
    <clipPath
       id="d2fb04bf43">
      <path
         d="M 30.722656,162.01172 H 77.023438 V 461 H 30.722656 Z m 0,0"
         clip-rule="nonzero"
         id="path39" />
    </clipPath>
    <clipPath
       id="a53bdb28eb">
      <path
         d="M 165.60156,544.82422 H 464 V 591.125 H 165.60156 Z m 0,0"
         clip-rule="nonzero"
         id="path40" />
    </clipPath>
    <clipPath
       id="34f7bb5807">
      <path
         d="M 167,31.371094 H 465.56641 V 77.671875 H 167 Z m 0,0"
         clip-rule="nonzero"
         id="path41" />
    </clipPath>
    <clipPath
       id="0abf1dbf7d">
      <path
         d="m 555.875,158 h 46.30078 V 456.98437 H 555.875 Z m 0,0"
         clip-rule="nonzero"
         id="path42" />
    </clipPath>
    <clipPath
       id="71b9f1b935">
      <rect
         x="0"
         width="638"
         y="0"
         height="621"
         id="rect42" />
    </clipPath>
  </defs>
  <g
     transform="translate(-17.71875,-17.632812)"
     id="g90">
    <g
       clip-path="url(#71b9f1b935)"
       id="g89">
      <g
         clip-path="url(#1beced4add)"
         id="g47">
        <g
           transform="translate(17,17)"
           id="g46">
          <g
             clip-path="url(#b60fd68dc2)"
             id="g45">
            <g
               clip-path="url(#d103b6e767)"
               id="g44">
              <path
                 fill="#a2d2ff"
                 d="M 0.71875,0.632812 H 597.51172 V 585.99219 H 0.71875 Z m 0,0"
                 fill-opacity="1"
                 fill-rule="nonzero"
                 id="path44" />
            </g>
          </g>
        </g>
        <path
           stroke-linecap="butt"
           transform="matrix(3.307116,0,0,3.307116,17.719555,17.634023)"
           fill="none"
           stroke-linejoin="miter"
           d="M -2.43498e-4,-3.66124e-4 H 180.74991 V 176.99959 H -2.43498e-4 Z m 0,0"
           stroke="#31458c"
           stroke-width="1.3607"
           stroke-opacity="1"
           stroke-miterlimit="4"
           id="path46" />
      </g>
      <path
         fill="#31458c"
         d="m 338.07812,322.85156 c 262.375,146.84375 66.90625,300.88281 -14.78125,11.66797 C 404.98437,623.92969 157.78125,594.75391 304.625,332.38281 157.78125,594.75391 3.742188,399.28906 292.95703,317.60156 3.546875,399.28906 32.722656,152.08594 295.09375,298.92969 32.722656,152.08594 228.1875,-1.957031 309.875,287.25781 228.1875,-2.148438 475.39062,27.023438 328.54687,289.39844 475.39062,27.023438 629.42969,222.49219 340.21875,304.17969 629.625,222.49219 600.45312,469.69531 338.07812,322.85156 Z m 0,0"
         fill-opacity="1"
         fill-rule="nonzero"
         id="path47" />
      <path
         fill="#a2d2ff"
         d="m 353.25,310.98828 c 0,1.19531 -0.0586,2.39063 -0.17578,3.58203 -0.11719,1.19141 -0.29297,2.375 -0.52735,3.55078 -0.23437,1.17578 -0.52343,2.33594 -0.87109,3.48047 -0.34766,1.14453 -0.75,2.27344 -1.21094,3.37891 -0.45703,1.10547 -0.96875,2.1875 -1.53515,3.24219 -0.5625,1.05859 -1.17578,2.08203 -1.84375,3.07812 -0.66407,0.99609 -1.37891,1.95703 -2.13672,2.88281 -0.76172,0.92578 -1.5625,1.8125 -2.41016,2.66016 -0.84765,0.84375 -1.73437,1.64844 -2.66015,2.41016 -0.92579,0.75781 -1.88282,1.46875 -2.87891,2.13671 -0.99609,0.66407 -2.02344,1.27735 -3.07813,1.84375 -1.05859,0.56641 -2.13671,1.07422 -3.24609,1.53516 -1.10547,0.45703 -2.23047,0.85938 -3.37891,1.20703 -1.14453,0.34766 -2.30468,0.64063 -3.48046,0.8711 -1.17188,0.23437 -2.35547,0.41015 -3.54688,0.52734 -1.19141,0.11719 -2.38672,0.17578 -3.58594,0.17578 -1.19531,0 -2.39062,-0.0586 -3.58203,-0.17578 -1.1914,-0.11719 -2.375,-0.29297 -3.55078,-0.52734 -1.17578,-0.23047 -2.33594,-0.52344 -3.48047,-0.8711 -1.14844,-0.34765 -2.27344,-0.75 -3.3789,-1.20703 -1.10547,-0.46094 -2.1875,-0.96875 -3.24219,-1.53516 -1.0586,-0.5664 -2.08203,-1.17968 -3.07813,-1.84375 -0.99609,-0.66796 -1.95703,-1.3789 -2.88281,-2.13671 -0.92578,-0.76172 -1.8125,-1.56641 -2.66016,-2.41016 -0.84765,-0.84766 -1.64843,-1.73438 -2.41015,-2.66016 -0.75781,-0.92578 -1.47266,-1.88672 -2.13672,-2.88281 -0.66406,-0.99609 -1.28125,-2.01953 -1.84375,-3.07812 -0.56641,-1.05469 -1.07813,-2.13672 -1.53516,-3.24219 -0.45703,-1.10547 -0.85937,-2.23438 -1.20703,-3.37891 -0.34765,-1.14453 -0.64062,-2.30469 -0.875,-3.48047 -0.23047,-1.17578 -0.40625,-2.35937 -0.52344,-3.55078 -0.11718,-1.1914 -0.17968,-2.38672 -0.17968,-3.58203 0,-1.19922 0.0625,-2.39453 0.17968,-3.58594 0.11719,-1.1914 0.29297,-2.375 0.52344,-3.55078 0.23438,-1.17187 0.52735,-2.33203 0.875,-3.48047 0.34766,-1.14453 0.75,-2.26953 1.20703,-3.3789 0.45703,-1.10547 0.96875,-2.1875 1.53516,-3.24219 0.5625,-1.05469 1.17969,-2.08203 1.84375,-3.07813 0.66406,-0.99609 1.37891,-1.95703 2.13672,-2.88281 0.76172,-0.92578 1.5625,-1.8125 2.41015,-2.65625 0.84766,-0.84765 1.73438,-1.65234 2.66016,-2.41015 0.92578,-0.76172 1.88672,-1.47266 2.88281,-2.13672 0.9961,-0.66797 2.01953,-1.28125 3.07813,-1.84766 1.05469,-0.5625 2.13672,-1.07422 3.24219,-1.53125 1.10546,-0.46094 2.23046,-0.86328 3.3789,-1.21094 1.14453,-0.34765 2.30469,-0.63672 3.48047,-0.87109 1.17578,-0.23438 2.35938,-0.41016 3.55078,-0.52734 1.19141,-0.11719 2.38672,-0.17579 3.58203,-0.17579 1.19922,0 2.39453,0.0586 3.58594,0.17579 1.19141,0.11718 2.375,0.29296 3.54688,0.52734 1.17578,0.23437 2.33593,0.52344 3.48046,0.87109 1.14844,0.34766 2.27344,0.75 3.37891,1.21094 1.10938,0.45703 2.1875,0.96875 3.24609,1.53125 1.05469,0.56641 2.08204,1.17969 3.07813,1.84766 0.99609,0.66406 1.95312,1.375 2.87891,2.13672 0.92578,0.75781 1.8125,1.5625 2.66015,2.41015 0.84766,0.84375 1.64844,1.73047 2.41016,2.65625 0.75781,0.92578 1.47265,1.88672 2.13672,2.88281 0.66797,0.9961 1.28125,2.02344 1.84375,3.07813 0.5664,1.05469 1.07812,2.13672 1.53515,3.24219 0.46094,1.10937 0.86328,2.23437 1.21094,3.3789 0.34766,1.14844 0.63672,2.3086 0.87109,3.48047 0.23438,1.17578 0.41016,2.35938 0.52735,3.55078 0.11719,1.19141 0.17578,2.38672 0.17578,3.58594 z m 0,0"
         fill-opacity="1"
         fill-rule="nonzero"
         id="path48" />
      <g
         clip-path="url(#d6aad9b2e5)"
         id="g51">
        <g
           clip-path="url(#5cd4fdc710)"
           id="g50">
          <g
             clip-path="url(#21c511a455)"
             id="g49">
            <path
               fill="#31458c"
               d="m 58.46875,583.25781 c 0,0 106.61719,21.92188 95.68359,-22.99609 -10.93359,-44.92188 -95.68359,22.99609 -95.68359,22.99609 z m 0,0"
               fill-opacity="1"
               fill-rule="nonzero"
               id="path49" />
          </g>
        </g>
      </g>
      <g
         clip-path="url(#f31623e4e7)"
         id="g54">
        <g
           clip-path="url(#6c1289b3c1)"
           id="g53">
          <g
             clip-path="url(#b4e633d1d7)"
             id="g52">
            <path
               fill="#31458c"
               d="m 47.511719,573.27344 c 0,0 58.171871,-92 12.285156,-97.64063 -45.886719,-5.64062 -12.285156,97.64063 -12.285156,97.64063 z m 0,0"
               fill-opacity="1"
               fill-rule="nonzero"
               id="path51" />
          </g>
        </g>
      </g>
      <g
         clip-path="url(#d83560bf22)"
         id="g57">
        <g
           clip-path="url(#6066b1752f)"
           id="g56">
          <g
             clip-path="url(#52c6691b51)"
             id="g55">
            <path
               fill="#31458c"
               d="m 69.75,564.48437 c 0,0 95.88281,-51.51953 58.69531,-78.98828 C 91.257812,458.03125 69.75,564.48437 69.75,564.48437 Z m 0,0"
               fill-opacity="1"
               fill-rule="nonzero"
               id="path54" />
          </g>
        </g>
      </g>
      <g
         clip-path="url(#efaaad8146)"
         id="g60">
        <g
           clip-path="url(#99cf13d178)"
           id="g59">
          <g
             clip-path="url(#5f4c7f3bd0)"
             id="g58">
            <path
               fill="#31458c"
               d="m 40.101562,53.453125 c 0,0 -25.585937,105.796875 19.683594,96.421875 C 105.05469,140.5 40.101562,53.453125 40.101562,53.453125 Z m 0,0"
               fill-opacity="1"
               fill-rule="nonzero"
               id="path57" />
          </g>
        </g>
      </g>
      <g
         clip-path="url(#47ea8ef587)"
         id="g63">
        <g
           clip-path="url(#8c11edd74d)"
           id="g62">
          <g
             clip-path="url(#1f43c8d2c4)"
             id="g61">
            <path
               fill="#31458c"
               d="m 50.460938,42.847656 c 0,0 89.937502,61.312504 97.160152,15.648438 C 154.83984,12.835938 50.460938,42.847656 50.460938,42.847656 Z m 0,0"
               fill-opacity="1"
               fill-rule="nonzero"
               id="path60" />
          </g>
        </g>
      </g>
      <g
         clip-path="url(#985c7b4bc4)"
         id="g66">
        <g
           clip-path="url(#87ef90d3f1)"
           id="g65">
          <g
             clip-path="url(#e0cb2322d8)"
             id="g64">
            <path
               fill="#31458c"
               d="m 58.476562,65.375 c 0,0 48.179688,97.60547 76.914058,61.39063 C 164.125,90.546875 58.476562,65.375 58.476562,65.375 Z m 0,0"
               fill-opacity="1"
               fill-rule="nonzero"
               id="path63" />
          </g>
        </g>
      </g>
      <g
         clip-path="url(#e34dbac877)"
         id="g69">
        <g
           clip-path="url(#5ab9e9d68e)"
           id="g68">
          <g
             clip-path="url(#650d9412de)"
             id="g67">
            <path
               fill="#31458c"
               d="m 580.66406,41.925781 c 0,0 -104.65625,-29.902343 -97.14453,15.710938 7.51172,45.617191 97.14453,-15.710938 97.14453,-15.710938 z m 0,0"
               fill-opacity="1"
               fill-rule="nonzero"
               id="path66" />
          </g>
        </g>
      </g>
      <g
         clip-path="url(#cde06f853d)"
         id="g72">
        <g
           clip-path="url(#5fe1ae94a9)"
           id="g71">
          <g
             clip-path="url(#475c8edacb)"
             id="g70">
            <path
               fill="#31458c"
               d="m 590.83984,52.710938 c 0,0 -64.95312,87.347652 -19.62109,96.433592 45.32812,9.08984 19.62109,-96.433592 19.62109,-96.433592 z m 0,0"
               fill-opacity="1"
               fill-rule="nonzero"
               id="path69" />
          </g>
        </g>
      </g>
      <g
         clip-path="url(#98f3f8d948)"
         id="g75">
        <g
           clip-path="url(#829f06f1c0)"
           id="g74">
          <g
             clip-path="url(#950250cef5)"
             id="g73">
            <path
               fill="#31458c"
               d="m 568,59.796875 c 0,0 -99.49609,44.132815 -64.49219,74.332035 C 538.51562,164.32422 568,59.796875 568,59.796875 Z m 0,0"
               fill-opacity="1"
               fill-rule="nonzero"
               id="path72" />
          </g>
        </g>
      </g>
      <g
         clip-path="url(#e9472640fc)"
         id="g78">
        <g
           clip-path="url(#f792b305f9)"
           id="g77">
          <g
             clip-path="url(#9aab2de140)"
             id="g76">
            <path
               fill="#31458c"
               d="m 590.73828,568.08984 c 0,0 27.45703,-105.32812 -17.97266,-96.7539 -45.42968,8.57422 17.97266,96.7539 17.97266,96.7539 z m 0,0"
               fill-opacity="1"
               fill-rule="nonzero"
               id="path75" />
          </g>
        </g>
      </g>
      <g
         clip-path="url(#595971f174)"
         id="g81">
        <g
           clip-path="url(#a84f330e7e)"
           id="g80">
          <g
             clip-path="url(#bb696fb241)"
             id="g79">
            <path
               fill="#31458c"
               d="m 580.19531,578.51172 c 0,0 -88.83984,-62.89453 -96.86719,-17.36719 -8.02734,45.52734 96.86719,17.36719 96.86719,17.36719 z m 0,0"
               fill-opacity="1"
               fill-rule="nonzero"
               id="path78" />
          </g>
        </g>
      </g>
      <g
         clip-path="url(#39fa55bc24)"
         id="g84">
        <g
           clip-path="url(#598960e7ef)"
           id="g83">
          <g
             clip-path="url(#fe4647038f)"
             id="g82">
            <path
               fill="#31458c"
               d="m 572.57812,555.84375 c 0,0 -46.44531,-98.44141 -75.8164,-62.73828 -29.3711,35.69922 75.8164,62.73828 75.8164,62.73828 z m 0,0"
               fill-opacity="1"
               fill-rule="nonzero"
               id="path81" />
          </g>
        </g>
      </g>
      <g
         clip-path="url(#d2fb04bf43)"
         id="g85">
        <path
           fill="#31458c"
           d="m 30.710938,189.71094 c 0.359374,-0.89453 1.96875,-0.83594 4.476562,0.12109 6.207031,2.32813 11.097656,7.03906 14.621094,14.02344 0.417968,0.83594 0.773437,1.43359 0.773437,1.37109 0,-0.0586 -0.117187,-1.01172 -0.238281,-2.08594 -0.59375,-4.71484 -0.773438,-7.82031 -0.773438,-12.05468 0,-5.375 0.417969,-9.42969 1.371094,-13.42969 2.089844,-8.35547 6.265625,-13.84766 11.699219,-15.27734 1.011719,-0.30079 2.921875,-0.35938 3.996094,-0.17969 4.296875,0.65625 8.058593,4.05859 9.667969,8.77344 0.539062,1.49218 0.71875,2.625 0.71875,4.29687 0,1.67188 -0.121094,2.50781 -0.71875,4.23828 -0.953126,2.74219 -2.328126,4.35547 -4.355469,5.01172 -1.253907,0.41797 -3.402344,0.47656 -4.476563,0.23828 -1.253906,-0.35937 -2.507812,-1.2539 -3.34375,-2.38672 -1.429687,-1.91015 -1.488281,-3.8789 0,-5.66797 0.71875,-0.83593 1.253906,-1.07421 1.734375,-0.71875 0.175781,0.1211 0.238281,0.23829 0.238281,0.83594 0,0.83594 0.175782,1.49219 0.65625,2.14844 0.59375,0.95703 1.371094,1.3125 2.445313,1.3125 2.148437,0 4,-1.60938 5.132813,-4.41406 0.539062,-1.3125 0.597656,-1.79297 0.65625,-3.82032 l 0.05859,-1.85156 -0.417969,-0.77344 c -1.429687,-2.5664 -3.640624,-4.59765 -6.027343,-5.55078 -2.984375,-1.13672 -5.964844,-0.83593 -8.773438,1.07422 -4.054687,2.7461 -6.980469,8.41406 -8.292969,16.05469 -1.3125,7.9375 -0.957031,17.30469 1.132813,29.83984 0.238281,1.42969 0.476563,2.74219 0.539063,2.92188 l 0.05859,0.30078 0.117188,-0.35938 c 0.417969,-0.95703 1.492187,-3.34375 1.972656,-4.23828 1.25,-2.32812 2.566406,-4.05859 4.175781,-5.78906 2.625,-2.68359 5.253906,-4.29687 8.714844,-5.25 0.953125,-0.30078 1.96875,-0.35937 2.328125,-0.23828 0.296875,0.11719 0.476563,0.59375 0.414063,1.13281 -0.175782,1.13281 -1.3125,4.29688 -2.207032,5.84766 -3.101562,5.67187 -7.878906,9.48828 -13.90625,11.04297 -0.65625,0.17578 -1.25,0.29687 -1.25,0.35547 0,0 0.953125,4.77343 1.667969,7.99609 1.074219,4.71484 1.671875,7.34375 1.792969,7.28125 0.05859,0 0.417968,-0.11719 0.835937,-0.29688 1.074219,-0.35937 2.804688,-0.41796 3.878907,-0.12109 2.207031,0.59766 4.058593,2.32813 4.832031,4.53906 0.359375,0.95313 0.476562,2.6836 0.238281,3.57813 -0.417969,1.61328 -1.132812,2.5664 -2.328125,3.16406 -0.476563,0.23828 -0.65625,0.29688 -1.371094,0.23828 -1.789062,0 -2.863281,-0.95312 -3.164062,-2.74609 -0.179688,-0.95313 -0.179688,-1.25391 0.0625,-1.78906 0.417969,-0.89454 1.789062,-1.55079 3.160156,-1.49219 0.835937,0.0586 1.433594,0.29687 2.148437,0.95312 0.300782,0.24219 0.539063,0.41797 0.539063,0.41797 0.117187,-0.0586 -0.121094,-1.37109 -0.359375,-2.02734 -0.417969,-1.13281 -1.371094,-2.32813 -2.507812,-2.98438 -1.132813,-0.65625 -2.921876,-0.89453 -4.054688,-0.59765 -0.835938,0.23828 -1.554688,0.59765 -1.554688,0.77734 0.121094,0.29688 2.386719,9.78516 3.046876,12.89063 1.609374,6.92187 2.742187,12.53125 3.578124,17.48437 l 0.476563,2.92578 0.65625,1.25391 c 2.269531,4.53515 3.640625,8.89062 4.179687,13.24609 0.179688,1.67188 0.238282,5.13281 0.05859,6.80469 -0.65625,6.08984 -2.863281,11.81641 -6.144531,15.81641 -0.417969,0.53515 -0.597656,0.65625 -0.835937,0.65625 -0.179688,0 -0.300782,-0.0586 -0.300782,-0.17969 -0.05859,-0.1211 -0.179687,-0.23828 -0.296875,-0.29688 -0.121093,-0.0625 -0.238281,-0.17968 -0.238281,-0.30078 0,-0.11719 0.296875,-1.07422 0.597656,-2.08594 1.667969,-5.01562 2.386719,-9.1914 2.625,-15.875 0.179688,-4.95312 -0.179687,-10.80468 -0.957031,-16.76953 -0.175781,-1.43359 -0.238281,-1.49218 -0.714844,-2.50781 -0.296875,-0.53906 -1.789062,-3.04297 -3.222656,-5.49219 -3.519531,-5.96875 -4.417969,-7.63672 -5.550781,-10.26562 -1.550782,-3.75781 -2.207032,-6.6836 -2.089844,-9.72656 0.0625,-2.26563 0.480469,-3.9961 1.375,-5.55079 0.417969,-0.65625 1.371094,-1.96875 1.671875,-2.20703 0.117187,-0.0586 0.355469,-0.23828 0.535156,-0.41797 l 0.300781,-0.29687 -0.71875,-3.10547 c -1.132812,-4.83203 -2.089843,-9.07031 -2.863281,-13.00781 -0.417969,-2.03125 -0.714843,-3.76172 -0.714843,-3.87891 -0.0625,-0.17969 -0.242188,-0.30078 -1.433594,-0.71875 -4,-1.49219 -7.699219,-3.99609 -11.339844,-7.63672 -3.042969,-3.04687 -5.074219,-5.85156 -6.863281,-9.55078 -1.371094,-2.68359 -1.851563,-4.23828 -1.550781,-4.95312 z m 1.433593,1.91015 c 0.894531,2.56641 2.804688,6.02735 5.011719,8.83203 1.074219,1.4336 4.355469,4.71485 5.730469,5.78907 1.550781,1.19531 3.042969,2.20703 4.414062,2.86328 1.375,0.71875 3.761719,1.67187 3.640625,1.55469 -0.117187,-0.23829 -2.328125,-2.7461 -4.535156,-5.25391 -3.402344,-3.87891 -4.179688,-4.77344 -4.296875,-4.95313 -0.121094,-0.29687 0,-0.53515 0.296875,-0.53515 0.359375,0 5.015625,5.13281 8.535156,9.36719 l 0.296875,0.41796 -0.05859,-0.29687 c -0.117188,-0.53906 -0.714844,-2.08984 -1.371094,-3.58203 -2.386719,-5.42969 -5.847656,-9.66797 -10.085938,-12.47266 -1.3125,-0.89453 -3.582031,-2.02734 -4.953125,-2.44531 -1.253906,-0.41797 -2.625,-0.71875 -2.867187,-0.65625 -0.175782,0 -0.117188,0.29687 0.242187,1.37109 z m 21.601563,52.45703 c 0.476562,3.34375 1.910156,7.04297 4.535156,11.69922 0.957031,1.78907 4.535156,7.75782 4.65625,7.9375 0.05859,0.0586 0.05859,0 0.05859,-0.12109 0,-0.11719 -0.179688,-1.01563 -0.355469,-1.96875 -0.660156,-3.58203 -1.671875,-8.65234 -2.925781,-14.02344 -0.539063,-2.50781 -3.105469,-13.01172 -3.164063,-13.42969 -0.05859,-0.17968 -0.05859,-0.11718 -0.296875,0.0586 -0.476562,0.48047 -1.132812,1.43359 -1.550781,2.32812 -1.074219,1.96875 -1.375,4.53516 -0.957031,7.51953 z m 4.238281,-33.65625 c 2.207031,-2.21093 4.058594,-4.05859 4.175781,-4.12109 0.238282,-0.0586 0.480469,0.12109 0.480469,0.35938 0,0.29687 -2.390625,2.92578 -5.132813,5.66796 -2.867187,2.86719 -2.804687,2.7461 -0.71875,1.97266 2.628907,-0.95703 4.296876,-1.97266 6.445313,-3.76172 2.03125,-1.78906 4.417969,-5.07422 5.609375,-7.75781 0.539062,-1.13281 1.253906,-3.34375 1.253906,-3.64063 0,-0.29687 -0.417968,-0.29687 -1.550781,0.0586 -6.085937,1.67187 -10.5625,6.08984 -13.964844,13.84765 -0.296875,0.71485 -0.535156,1.3125 -0.535156,1.3711 -0.0625,-0.0586 1.730469,-1.78906 3.9375,-3.9961 z m 4.773437,92.6211 c 1.433594,-1.61328 3.222657,-5.07422 4.238282,-8.0586 2.265625,-6.98046 2.089844,-14.38281 -0.539063,-21.42187 -0.535156,-1.375 -1.253906,-3.04688 -1.253906,-3.04688 0,0 0.0625,0.83594 0.121094,1.79297 0.953125,8.65235 0.714843,17.42578 -0.597657,23.75 -0.355468,1.79297 -0.835937,3.52344 -1.492187,5.4336 -0.65625,1.78906 -0.65625,1.73047 -0.476563,1.55078 z M 30.949219,430.75781 c 0.417969,-1.2539 1.96875,-4.41797 2.863281,-5.78906 1.554688,-2.44922 2.984375,-4.23828 5.132812,-6.38672 3.640626,-3.64062 7.339844,-6.08594 11.339844,-7.57812 1.195313,-0.47657 1.371094,-0.53907 1.433594,-0.77735 0,-0.11719 0.355469,-1.84765 0.714844,-3.8789 0.777344,-4 1.730468,-8.23438 2.863281,-13.01172 l 0.71875,-3.10157 -0.300781,-0.29687 c -0.179688,-0.12109 -0.417969,-0.35938 -0.535156,-0.41797 -0.300782,-0.23828 -1.3125,-1.55469 -1.671876,-2.21094 -0.894531,-1.55078 -1.3125,-3.28125 -1.371093,-5.54687 -0.121094,-3.10547 0.535156,-6.03125 2.085937,-9.78906 1.136719,-2.6875 2.03125,-4.29688 5.550782,-10.26563 1.492187,-2.44531 2.925781,-4.95312 3.222656,-5.48828 0.539062,-1.01563 0.539062,-1.07422 0.71875,-2.50781 0.832031,-6.02735 1.132812,-11.875 0.953125,-16.76953 -0.238281,-6.6836 -0.894531,-10.86329 -2.625,-15.81641 -0.359375,-1.07422 -0.65625,-1.96875 -0.597657,-2.08984 0,-0.11719 0.121094,-0.29688 0.238282,-0.29688 0.121094,-0.0586 0.238281,-0.17969 0.296875,-0.29687 0,-0.1211 0.121093,-0.17969 0.300781,-0.17969 0.238281,0 0.417969,0.11719 0.835938,0.65625 3.28125,3.9375 5.550781,9.72656 6.144531,15.8164 0.179687,1.66797 0.121093,5.07032 -0.05859,6.80079 -0.535156,4.35546 -1.851563,8.65625 -4.175781,13.1914 l -0.65625,1.25 -0.480469,2.92578 c -0.835937,4.95313 -1.96875,10.5625 -3.578125,17.48828 -0.71875,3.10157 -2.984375,12.53125 -3.042969,12.89063 -0.0625,0.17578 0.714844,0.53516 1.550781,0.77344 1.191407,0.30078 2.921876,0.0586 4.058594,-0.59766 1.132813,-0.65625 2.085938,-1.84766 2.503906,-2.98437 0.238282,-0.65625 0.480469,-1.90625 0.359376,-2.02735 0,0 -0.296876,0.1211 -0.539063,0.41797 -0.714844,0.65625 -1.25,0.89453 -2.148437,0.95313 -1.3125,0.0625 -2.683594,-0.59375 -3.160157,-1.49219 -0.238281,-0.53516 -0.300781,-0.77344 -0.0625,-1.78906 0.242188,-1.3125 0.835938,-2.02735 1.910157,-2.50782 0.359374,-0.17578 0.65625,-0.23828 1.3125,-0.23828 0.71875,0 0.898437,0 1.375,0.30078 1.191406,0.59766 1.910156,1.55078 2.328124,3.16016 0.238282,0.89844 0.117188,2.62891 -0.238281,3.58203 -0.777343,2.20703 -2.566406,3.87891 -4.835937,4.47656 -1.074219,0.29688 -2.804688,0.23828 -3.878906,-0.12109 -0.417969,-0.11719 -0.777344,-0.29688 -0.835938,-0.29688 -0.117188,0 -0.714844,2.50782 -1.789062,7.28125 -0.71875,3.22266 -1.730469,7.9961 -1.671876,7.9961 0,0 0.597657,0.12109 1.253907,0.30078 5.96875,1.55078 10.800781,5.37109 13.90625,11.03906 0.835937,1.61328 2.027343,4.71485 2.207031,5.84766 0.05859,0.53906 -0.121094,1.01562 -0.417969,1.13672 -0.539062,0.23828 -2.269531,-0.1211 -4,-0.77735 -3.878906,-1.49218 -7.339843,-4.41797 -9.964843,-8.47656 -1.074219,-1.66797 -2.445313,-4.29687 -3.222657,-6.32422 l -0.121093,-0.35937 -0.05859,0.30078 c -0.117188,0.41797 -0.953125,5.25 -1.253906,7.21875 -2.027344,14.20312 -1.492188,25.24609 1.671874,33.125 3.699219,9.30859 11.21875,12.76953 17.484376,8.05469 1.253906,-0.95313 2.566406,-2.50782 3.402343,-4.0586 l 0.417969,-0.77344 -0.05859,-1.85156 c -0.05859,-1.96875 -0.121094,-2.50781 -0.65625,-3.82031 -0.777344,-1.91016 -1.910156,-3.33984 -3.28125,-3.99609 -0.71875,-0.30079 -0.898437,-0.35938 -1.671875,-0.41797 -0.476562,0 -0.957031,0 -1.195312,0.0586 -0.835938,0.29688 -1.671875,1.25391 -1.96875,2.20703 -0.05859,0.30078 -0.117188,0.77735 -0.117188,1.13281 0,0.53907 0,0.66016 -0.242187,0.83594 -0.476563,0.30078 -1.011719,0.0625 -1.730469,-0.77344 -1.429687,-1.79296 -1.429687,-3.76171 0,-5.67187 0.835937,-1.13281 2.089844,-2.02734 3.34375,-2.38672 0.359375,-0.0586 1.015625,-0.11719 1.671875,-0.11719 2.683594,0 4.355469,0.71485 5.667969,2.38672 0.714843,0.95313 1.074219,1.60938 1.550781,2.92188 0.597656,1.79297 0.71875,2.50781 0.71875,4.23828 0,1.67187 -0.179688,2.80469 -0.71875,4.29687 -1.667969,4.71485 -5.371094,8.11719 -9.726562,8.83203 -1.074219,0.17969 -2.925782,0.0625 -4,-0.17968 -5.429688,-1.42969 -9.667969,-6.92188 -11.695313,-15.27735 -0.953125,-3.99609 -1.371094,-8.05468 -1.371094,-13.42578 0,-4.23828 0.175781,-7.40234 0.773438,-12.05469 0.121093,-1.13671 0.238281,-2.08984 0.238281,-2.08984 0,-0.0586 -0.355469,0.53516 -0.773438,1.37109 -2.328124,4.59766 -5.132812,8.11719 -8.65625,10.74219 -3.816406,2.86719 -9.070312,4.77735 -10.144531,3.70313 -0.238281,-0.35938 -0.238281,-1.07422 0.179688,-2.32813 z m 1.015625,1.60938 c 0.238281,0.12109 1.667968,-0.23828 2.863281,-0.59766 1.371094,-0.47656 3.640625,-1.60937 4.953125,-2.50391 4.238281,-2.80468 7.640625,-7.04296 10.085938,-12.47265 0.65625,-1.49219 1.253906,-3.10547 1.371093,-3.58203 l 0.0625,-0.29688 L 51,413.26953 c -3.519531,4.29688 -8.175781,9.42969 -8.53125,9.42969 -0.242188,0 -0.417969,-0.29688 -0.300781,-0.53516 0.121093,-0.23828 0.957031,-1.2539 4.296875,-4.95312 2.210937,-2.50782 4.417968,-5.07422 4.535156,-5.25391 0.121094,-0.17969 -2.265625,0.83594 -3.640625,1.55078 -2.566406,1.31641 -4.773437,2.98438 -7.398437,5.61328 -2.445313,2.44532 -4,4.41407 -5.609376,7.21875 -1.015624,1.73047 -2.089843,4.0586 -2.386718,5.3125 -0.179688,0.53516 -0.179688,0.59766 0,0.71485 z m 21.78125,-49.29297 c 0.300781,1.96875 1.3125,4.17578 2.507812,5.25 0.238282,0.23828 0.238282,0.23828 0.296875,0.0586 0.121094,-0.35547 2.625,-10.85937 3.164063,-13.36719 1.253906,-5.42968 2.328125,-10.5039 2.925781,-14.02343 0.175781,-0.95703 0.355469,-1.85157 0.355469,-1.96875 0,-0.17969 0,-0.23828 -0.05859,-0.1211 -0.121094,0.1211 -3.640625,6.14844 -4.65625,7.9375 -2.085938,3.76172 -3.339844,6.56641 -4.058594,9.42969 -0.65625,2.625 -0.835937,4.59375 -0.476562,6.80469 z m 0.835937,26.3789 c 3.34375,7.69532 7.878907,12.23047 14.023438,13.90235 1.136719,0.30078 1.554687,0.35937 1.554687,0.0625 0,-0.1211 -0.179687,-0.71875 -0.417968,-1.375 -1.671876,-5.13281 -5.3125,-9.78516 -9.492188,-12.23438 -1.132812,-0.65625 -1.96875,-1.01562 -3.460938,-1.55078 -2.085937,-0.77734 -2.148437,-0.89453 0.71875,1.96875 2.742188,2.6875 5.132813,5.3711 5.132813,5.67188 0,0.23828 -0.242187,0.41406 -0.480469,0.35547 -0.117187,-0.0586 -1.96875,-1.84766 -4.175781,-4.11719 -2.207031,-2.20703 -4,-4 -4,-4 0,0.0625 0.238281,0.65625 0.597656,1.3164 z m 9.546875,-85.28515 c 1.792969,6.80469 2.210938,16.23437 1.136719,26.02344 -0.121094,0.95312 -0.179687,1.78906 -0.121094,1.78906 0,0 0.238281,-0.35938 0.417969,-0.83594 3.402344,-7.75781 3.878906,-15.875 1.375,-23.57422 -0.957031,-3.04297 -2.746094,-6.44531 -4.238281,-8.11719 -0.05859,-0.0586 0.179687,0.71875 0.535156,1.67188 0.359375,0.95703 0.777344,2.32812 0.894531,3.04297 z m 0,0"
           fill-opacity="1"
           fill-rule="nonzero"
           id="path84" />
      </g>
      <g
         clip-path="url(#a53bdb28eb)"
         id="g86">
        <path
           fill="#31458c"
           d="m 193.30078,591.13672 c -0.89844,-0.35938 -0.83594,-1.96875 0.11719,-4.47656 2.32812,-6.20704 7.04297,-11.10157 14.02734,-14.6211 0.83203,-0.41797 1.42969,-0.77734 1.3711,-0.77734 -0.0586,0 -1.01563,0.12109 -2.08985,0.23828 -4.71484,0.59766 -7.8164,0.77734 -12.05469,0.77734 -5.37109,0 -9.42968,-0.41797 -13.42578,-1.37109 -8.35547,-2.08984 -13.84765,-6.26563 -15.28125,-11.69922 -0.29687,-1.01172 -0.35547,-2.92187 -0.17578,-3.99609 0.65625,-4.29688 4.05469,-8.0586 8.76953,-9.66797 1.49219,-0.53906 2.62891,-0.71875 4.29688,-0.71875 1.67187,0 2.50781,0.12109 4.23828,0.71875 2.74609,0.95312 4.35547,2.32422 5.01172,4.35547 0.41797,1.2539 0.48047,3.40234 0.24219,4.47656 -0.35938,1.25391 -1.25391,2.50391 -2.39063,3.33984 -1.90625,1.4336 -3.87891,1.49219 -5.66797,0 -0.83594,-0.71484 -1.07422,-1.2539 -0.71484,-1.73047 0.11719,-0.17968 0.23828,-0.23828 0.83594,-0.23828 0.83593,0 1.49218,-0.17968 2.14843,-0.65625 0.95313,-0.59765 1.3125,-1.37109 1.3125,-2.44531 0,-2.14844 -1.61328,-4 -4.41797,-5.13281 -1.3125,-0.53906 -1.78906,-0.59766 -3.82031,-0.65625 l -1.84765,-0.0625 -0.77735,0.41797 c -2.5664,1.43359 -4.59375,3.64062 -5.55078,6.02734 -1.13281,2.98438 -0.83594,5.96875 1.07422,8.77344 2.74609,4.05859 8.41797,6.98437 16.05469,8.29687 7.9375,1.3125 17.30859,0.95313 29.83984,-1.13281 1.43359,-0.23828 2.74609,-0.48047 2.92578,-0.53906 l 0.29688,-0.0586 -0.35938,-0.12109 c -0.95312,-0.41797 -3.33984,-1.49219 -4.23437,-1.96875 -2.32813,-1.25391 -4.0586,-2.56641 -5.78907,-4.17578 -2.6875,-2.62891 -4.29687,-5.25391 -5.2539,-8.71484 -0.29688,-0.95313 -0.35547,-1.96875 -0.23828,-2.32813 0.12109,-0.29687 0.59765,-0.47656 1.13281,-0.41797 1.13672,0.17969 4.29687,1.3125 5.85156,2.21094 5.66797,3.10156 9.48828,7.875 11.03906,13.90234 0.17969,0.65625 0.29688,1.25391 0.35938,1.25391 0,0 4.77344,-0.95313 7.99609,-1.67188 4.71485,-1.07421 7.33985,-1.66796 7.28125,-1.78906 0,-0.0586 -0.12109,-0.41797 -0.29687,-0.83594 -0.35938,-1.07421 -0.41797,-2.80468 -0.1211,-3.8789 0.59766,-2.20703 2.32813,-4.0586 4.53516,-4.83203 0.95703,-0.35938 2.6875,-0.48047 3.58203,-0.24219 1.60938,0.41797 2.56641,1.13672 3.16016,2.32812 0.24219,0.48047 0.30078,0.65625 0.24219,1.375 0,1.78907 -0.95704,2.86329 -2.7461,3.16016 -0.95703,0.17969 -1.2539,0.17969 -1.79297,-0.0586 -0.89453,-0.41797 -1.55078,-1.78907 -1.48828,-3.16407 0.0586,-0.83203 0.29688,-1.42968 0.95313,-2.14843 0.23828,-0.29688 0.41797,-0.53516 0.41797,-0.53516 -0.0586,-0.12109 -1.3711,0.12109 -2.03125,0.35938 -1.13282,0.41796 -2.32422,1.37109 -2.98047,2.5039 -0.65625,1.13672 -0.89844,2.92578 -0.59766,4.0586 0.23828,0.83593 0.59766,1.55078 0.77344,1.55078 0.30078,-0.11719 9.78906,-2.38672 12.89062,-3.04297 6.92578,-1.60938 12.53516,-2.7461 17.48828,-3.57813 l 2.92188,-0.48047 1.25391,-0.65625 c 4.53515,-2.26562 8.89453,-3.64062 13.25,-4.17578 1.67187,-0.17968 5.13281,-0.23828 6.80468,-0.0586 6.08594,0.65625 11.81641,2.86328 15.8125,6.14453 0.53907,0.41797 0.65625,0.59766 0.65625,0.83594 0,0.17969 -0.0586,0.29687 -0.17578,0.29687 -0.12109,0.0625 -0.24219,0.17969 -0.30078,0.30078 -0.0586,0.11719 -0.17969,0.23829 -0.29687,0.23829 -0.1211,0 -1.07422,-0.29688 -2.08985,-0.59766 -5.01172,-1.67188 -9.1914,-2.38672 -15.875,-2.625 -4.95312,-0.17969 -10.80078,0.17969 -16.76953,0.95312 -1.43359,0.17969 -1.49219,0.24219 -2.50781,0.71875 -0.53516,0.29688 -3.04297,1.78907 -5.48828,3.22266 -5.96875,3.51953 -7.64063,4.41406 -10.26563,5.55078 -3.76172,1.55078 -6.68359,2.20703 -9.72656,2.08594 -2.26953,-0.0586 -4,-0.47656 -5.55078,-1.37109 -0.65625,-0.41797 -1.96875,-1.3711 -2.20703,-1.67188 -0.0625,-0.11719 -0.24219,-0.35937 -0.41797,-0.53516 l -0.30078,-0.30078 -3.10157,0.71875 c -4.83593,1.13282 -9.07031,2.08594 -13.01171,2.86328 -2.02735,0.41797 -3.75782,0.71485 -3.87891,0.71485 -0.17969,0.0625 -0.29688,0.23828 -0.71484,1.43359 -1.49219,4 -4,7.69922 -7.64063,11.33985 -3.04297,3.04296 -5.84766,5.07031 -9.54687,6.86328 -2.6875,1.37109 -4.23829,1.84765 -4.95313,1.55078 z m 1.91016,-1.4336 c 2.5664,-0.89453 6.02734,-2.80468 8.83203,-5.01171 1.42969,-1.07422 4.71484,-4.35547 5.78906,-5.73047 1.19141,-1.55078 2.20703,-3.04297 2.86328,-4.41407 0.71485,-1.375 1.67188,-3.76171 1.55078,-3.64062 -0.23828,0.11719 -2.74609,2.32812 -5.25,4.53516 -3.8789,3.40234 -4.77343,4.17578 -4.95312,4.29687 -0.30078,0.11719 -0.53906,0 -0.53906,-0.30078 0,-0.35547 5.13281,-5.01172 9.37109,-8.53125 l 0.41797,-0.30078 -0.30078,0.0625 c -0.53516,0.11719 -2.08594,0.71484 -3.57813,1.37109 -5.43359,2.38672 -9.66797,5.84766 -12.47265,10.08594 -0.89844,1.3125 -2.03125,3.58203 -2.44922,4.95312 -0.41797,1.25391 -0.71485,2.625 -0.65625,2.86329 0,0.17968 0.30078,0.12109 1.375,-0.23829 z m 52.45703,-21.60156 c 3.33984,-0.48047 7.04297,-1.91015 11.69531,-4.53515 1.79297,-0.95704 7.75781,-4.53907 7.9375,-4.65625 0.0625,-0.0586 0,-0.0586 -0.11719,-0.0586 -0.12109,0 -1.01562,0.17578 -1.96875,0.35547 -3.58203,0.65625 -8.65625,1.67188 -14.02734,2.92578 -2.50391,0.53516 -13.00781,3.10156 -13.42578,3.16406 -0.17969,0.0586 -0.1211,0.0586 0.0586,0.29688 0.47656,0.47656 1.4336,1.13281 2.32813,1.55078 1.96875,1.07422 4.53515,1.375 7.51953,0.95703 z m -33.66016,-4.23828 c -2.20703,-2.20703 -4.05859,-4.05859 -4.11719,-4.17969 -0.0586,-0.23828 0.11719,-0.47656 0.35938,-0.47656 0.29687,0 2.92187,2.38672 5.66797,5.13281 2.86328,2.86328 2.74609,2.80469 1.96875,0.71485 -0.95313,-2.625 -1.96875,-4.29688 -3.75781,-6.44532 -1.79297,-2.02734 -5.07422,-4.41406 -7.75782,-5.60937 -1.13672,-0.53516 -3.34375,-1.25391 -3.64062,-1.25391 -0.30078,0 -0.30078,0.41797 0.0586,1.55469 1.67188,6.08594 6.08594,10.5625 13.84375,13.96484 0.71875,0.29688 1.3125,0.53516 1.375,0.53516 -0.0625,0.0625 -1.79297,-1.73047 -4,-3.9375 z m 92.6211,-4.77344 c -1.60938,-1.43359 -5.07032,-3.22265 -8.05469,-4.23828 -6.98438,-2.26953 -14.38281,-2.08984 -21.42578,0.53516 -1.3711,0.53906 -3.04297,1.2539 -3.04297,1.2539 0,0 0.83594,-0.0586 1.78906,-0.11718 8.65625,-0.95703 17.42969,-0.71875 23.75391,0.59765 1.78906,0.35547 3.51953,0.83203 5.42968,1.48828 1.79297,0.66016 1.73047,0.66016 1.55079,0.48047 z m 127.71484,31.8086 c -1.25391,-0.41797 -4.41406,-1.96875 -5.78906,-2.86719 -2.44532,-1.55078 -4.23438,-2.98047 -6.38282,-5.12891 -3.64062,-3.64062 -6.08984,-7.34375 -7.58203,-11.33984 -0.47656,-1.19531 -0.53515,-1.375 -0.77343,-1.43359 -0.1211,0 -1.85157,-0.35938 -3.87891,-0.71485 -4,-0.77734 -8.23828,-1.73047 -13.01172,-2.86719 l -3.10156,-0.71484 -0.30078,0.29688 c -0.11719,0.17968 -0.35547,0.41796 -0.41797,0.53906 -0.23828,0.29687 -1.55078,1.3125 -2.20703,1.67187 -1.55078,0.89453 -3.28125,1.3125 -5.55078,1.3711 -3.10157,0.12109 -6.02735,-0.53516 -9.78516,-2.08985 -2.6875,-1.13281 -4.30078,-2.02734 -10.26563,-5.54687 -2.44921,-1.49219 -4.95312,-2.92578 -5.49218,-3.22266 -1.01563,-0.53906 -1.07422,-0.53906 -2.50782,-0.71875 -6.02734,-0.83594 -11.875,-1.13281 -16.76953,-0.95312 -6.68359,0.23828 -10.85937,0.89453 -15.8125,2.625 -1.07422,0.35937 -1.96875,0.65625 -2.08984,0.59765 -0.12109,0 -0.29688,-0.12109 -0.29688,-0.23828 -0.0625,-0.12109 -0.17968,-0.23828 -0.30078,-0.30078 -0.11718,0 -0.17968,-0.11719 -0.17968,-0.29687 0,-0.23829 0.12109,-0.41797 0.65625,-0.83594 3.9414,-3.28125 9.73046,-5.55078 15.8164,-6.14844 1.67188,-0.17578 5.07422,-0.11719 6.80469,0.0625 4.35547,0.53516 8.65234,1.84766 13.1875,4.17578 l 1.25391,0.65625 2.92578,0.47656 c 4.95312,0.83594 10.5625,1.97266 17.48437,3.58204 3.10547,0.71484 12.53125,2.98437 12.89063,3.04296 0.17968,0.0625 0.53906,-0.71484 0.77734,-1.55078 0.29688,-1.19531 0.0586,-2.92578 -0.59766,-4.05859 -0.65625,-1.13281 -1.85156,-2.08984 -2.98437,-2.50781 -0.65625,-0.23828 -1.91016,-0.47657 -2.02734,-0.35547 0,0 0.11718,0.29687 0.41796,0.53515 0.65625,0.71875 0.89454,1.25391 0.95313,2.14844 0.0586,1.3125 -0.59766,2.6875 -1.49219,3.16406 -0.53515,0.23829 -0.77734,0.29688 -1.78906,0.0586 -1.3125,-0.23828 -2.03125,-0.83594 -2.50781,-1.91016 -0.17969,-0.35547 -0.23828,-0.65625 -0.23828,-1.3125 0,-0.71484 0,-0.89453 0.29687,-1.37109 0.59766,-1.19531 1.55469,-1.91016 3.16406,-2.32813 0.89453,-0.23828 2.625,-0.12109 3.58203,0.23828 2.20704,0.77735 3.87891,2.56641 4.47657,4.83594 0.29687,1.07422 0.23828,2.80469 -0.1211,3.87891 -0.12109,0.41797 -0.29687,0.77344 -0.29687,0.83594 0,0.11718 2.5039,0.71484 7.28125,1.78906 3.22265,0.71484 7.99609,1.73047 7.99609,1.67187 0,0 0.11719,-0.59765 0.29688,-1.2539 1.55078,-5.96875 5.37109,-10.80078 11.04297,-13.90625 1.60937,-0.83594 4.71484,-2.02735 5.84765,-2.20703 0.53516,-0.0586 1.01563,0.11718 1.13281,0.41796 0.23829,0.53516 -0.11718,2.26563 -0.77734,3.9961 -1.48828,3.88281 -4.41406,7.34375 -8.47266,9.96875 -1.67187,1.07422 -4.29687,2.44531 -6.32421,3.22265 l -0.35938,0.11719 0.29688,0.0625 c 0.41796,0.11719 5.2539,0.95313 7.22265,1.25391 14.20313,2.02734 25.24219,1.48828 33.1211,-1.67188 9.3125,-3.69922 12.77343,-11.21875 8.05859,-17.48828 -0.95703,-1.2539 -2.50781,-2.5664 -4.05859,-3.40234 l -0.77735,-0.41406 -1.84765,0.0586 c -1.97266,0.0586 -2.50782,0.11719 -3.82032,0.65625 -1.91015,0.77344 -3.34375,1.91016 -4,3.28125 -0.29687,0.71484 -0.35937,0.89453 -0.41797,1.67187 0,0.47657 0,0.95313 0.0586,1.19141 0.30078,0.83594 1.2539,1.67188 2.21094,1.97266 0.29687,0.0586 0.77343,0.11718 1.13281,0.11718 0.53906,0 0.65625,0 0.83594,0.23829 0.29687,0.48046 0.0586,1.01562 -0.77735,1.73046 -1.78906,1.4336 -3.75781,1.4336 -5.66797,0 -1.13281,-0.83203 -2.03125,-2.08593 -2.38672,-3.33984 -0.0586,-0.35937 -0.12109,-1.01562 -0.12109,-1.67187 0,-2.6836 0.71875,-4.35547 2.38672,-5.66797 0.95703,-0.71875 1.61328,-1.07422 2.92578,-1.55469 1.78906,-0.59375 2.50781,-0.71484 4.23828,-0.71484 1.66797,0 2.80469,0.17968 4.29688,0.71484 4.71484,1.67187 8.11718,5.37109 8.83203,9.73047 0.17969,1.07422 0.0586,2.92187 -0.17969,3.99609 -1.43359,5.4336 -6.92187,9.66797 -15.27734,11.69922 -4,0.95313 -8.0586,1.37109 -13.42969,1.37109 -4.23438,0 -7.39844,-0.17968 -12.05469,-0.77343 -1.13281,-0.1211 -2.08984,-0.24219 -2.08984,-0.24219 -0.0586,0 0.53906,0.35937 1.375,0.77734 4.59375,2.32813 8.11719,5.13282 10.74219,8.65235 2.86328,3.82031 4.77343,9.07422 3.69921,10.14843 -0.35937,0.23829 -1.07421,0.23829 -2.32812,-0.17968 z m 1.61328,-1.01563 c 0.11719,-0.23828 -0.23828,-1.67187 -0.59766,-2.86328 -0.47656,-1.375 -1.60937,-3.64062 -2.50781,-4.95312 -2.80469,-4.23829 -7.03906,-7.64063 -12.47265,-10.08594 -1.49219,-0.65625 -3.10157,-1.25391 -3.57813,-1.375 l -0.30078,-0.0586 0.35937,0.29688 c 4.29688,3.52344 9.42969,8.17969 9.42969,8.53516 0,0.23828 -0.30078,0.41796 -0.53906,0.30078 -0.23828,-0.1211 -1.25391,-0.95703 -4.95313,-4.29688 -2.5039,-2.21094 -5.07031,-4.41797 -5.25,-4.53906 -0.17968,-0.11719 0.83594,2.26953 1.55079,3.64062 1.3125,2.56641 2.98437,4.77735 5.60937,7.40235 2.44531,2.44531 4.41797,3.99609 7.22266,5.60937 1.73047,1.01563 4.05859,2.08985 5.30859,2.38672 0.53906,0.17969 0.59766,0.17969 0.71875,0 z m -49.29687,-21.78125 c 1.96875,-0.30078 4.17968,-1.3125 5.2539,-2.50781 0.23828,-0.23828 0.23828,-0.23828 0.0586,-0.29688 -0.35938,-0.12109 -10.86329,-2.6289 -13.36719,-3.16406 -5.4336,-1.2539 -10.50391,-2.32812 -14.02735,-2.92578 -0.95312,-0.17969 -1.84765,-0.35547 -1.96875,-0.35547 -0.17968,0 -0.23828,0 -0.11718,0.0586 0.11718,0.11718 6.14453,3.64062 7.9375,4.65625 3.75781,2.08593 6.5625,3.33984 9.42968,4.05468 2.625,0.65625 4.59375,0.83594 6.80079,0.48047 z m 26.3789,-0.83594 c 7.69922,-3.34375 12.23438,-7.8789 13.90625,-14.02734 0.29688,-1.13281 0.35547,-1.55078 0.0586,-1.55078 -0.11719,0 -0.71485,0.17969 -1.3711,0.41797 -5.13281,1.67187 -9.78906,5.3125 -12.23437,9.48828 -0.65625,1.13672 -1.01563,1.97266 -1.55078,3.46094 -0.77735,2.08984 -0.89844,2.14843 1.96875,-0.71485 2.68359,-2.74609 5.37109,-5.13281 5.66796,-5.13281 0.23829,0 0.41797,0.23828 0.35938,0.47656 -0.0625,0.1211 -1.85156,1.97266 -4.11719,4.17969 -2.21094,2.20703 -4,4 -4,4 0.0586,0 0.65625,-0.24219 1.3125,-0.59766 z m -85.28125,-9.55078 c 6.80469,-1.78906 16.23047,-2.20703 26.01953,-1.13281 0.95703,0.12109 1.78907,0.17969 1.78907,0.12109 0,0 -0.35547,-0.24218 -0.83204,-0.41796 -7.76171,-3.40235 -15.875,-3.87891 -23.57421,-1.375 -3.04297,0.95703 -6.44532,2.74609 -8.11719,4.23828 -0.0586,0.0586 0.71484,-0.17969 1.67187,-0.53907 0.95313,-0.35546 2.32813,-0.77343 3.04297,-0.89453 z m 0,0"
           fill-opacity="1"
           fill-rule="nonzero"
           id="path85" />
      </g>
      <g
         clip-path="url(#34f7bb5807)"
         id="g87">
        <path
           fill="#31458c"
           d="m 437.86719,31.359375 c 0.89453,0.359375 0.83593,1.96875 -0.1211,4.476563 -2.32812,6.207031 -7.04297,11.101562 -14.02343,14.621093 -0.83594,0.417969 -1.4336,0.777344 -1.375,0.777344 0.0625,0 1.01562,-0.121094 2.08984,-0.238281 4.71484,-0.597656 7.82031,-0.777344 12.05469,-0.777344 5.37109,0 9.42968,0.417969 13.42968,1.371094 8.35547,2.089844 13.84375,6.269531 15.27735,11.699218 0.29687,1.015626 0.35937,2.921876 0.17969,3.996094 -0.65625,4.296875 -4.0586,8.058594 -8.77344,9.667969 -1.49219,0.539063 -2.625,0.71875 -4.29688,0.71875 -1.67187,0 -2.50781,-0.121094 -4.23828,-0.71875 -2.74609,-0.953125 -4.35547,-2.324219 -5.01172,-4.355469 -0.41797,-1.253906 -0.47656,-3.402344 -0.23828,-4.476562 0.35547,-1.25 1.25391,-2.503906 2.38672,-3.339844 1.91016,-1.433594 3.87891,-1.492188 5.66797,0 0.83594,0.714844 1.07422,1.253906 0.71875,1.730469 -0.12109,0.179687 -0.23828,0.238281 -0.83594,0.238281 -0.83594,0 -1.49219,0.179688 -2.14844,0.65625 -0.95703,0.597656 -1.3125,1.371094 -1.3125,2.445312 0,2.148438 1.60938,4 4.41407,5.132813 1.3125,0.539063 1.79297,0.597656 3.82031,0.65625 l 1.85156,0.0625 0.77344,-0.417969 c 2.56641,-1.433594 4.59766,-3.640625 5.55078,-6.027344 1.13281,-2.984374 0.83594,-5.96875 -1.07422,-8.773437 C 459.88672,56.425781 454.21875,53.5 446.57812,52.1875 c -7.9375,-1.3125 -17.30468,-0.953125 -29.83984,1.132812 -1.42969,0.242188 -2.74219,0.480469 -2.92187,0.539063 l -0.30079,0.05859 0.35938,0.121093 c 0.95312,0.417969 3.34375,1.492188 4.23828,1.96875 2.32813,1.253907 4.05859,2.566407 5.78906,4.175782 2.6836,2.628906 4.29688,5.253906 5.25,8.714844 0.30078,0.953124 0.35938,1.96875 0.23828,2.328124 -0.11718,0.296876 -0.59765,0.476563 -1.13281,0.417969 -1.13281,-0.179687 -4.29687,-1.3125 -5.84765,-2.210937 -5.67188,-3.101563 -9.48829,-7.875 -11.04297,-13.902344 -0.17969,-0.65625 -0.29688,-1.253906 -0.35547,-1.253906 0,0 -4.77735,0.953125 -8,1.671875 -4.71485,1.074219 -7.33985,1.667969 -7.28125,1.789062 0,0.05859 0.12109,0.417969 0.30078,0.835938 0.35937,1.074219 0.41797,2.804687 0.11719,3.878906 -0.59375,2.207031 -2.32422,4.058594 -4.53516,4.832031 -0.95312,0.359375 -2.68359,0.480469 -3.57812,0.242188 -1.61329,-0.417969 -2.56641,-1.136719 -3.16407,-2.328125 -0.23828,-0.476563 -0.30078,-0.65625 -0.23828,-1.375 0,-1.789063 0.95313,-2.863281 2.7461,-3.160157 0.95312,-0.179687 1.25,-0.179687 1.78906,0.05859 0.89453,0.417969 1.55078,1.789063 1.49219,3.164063 -0.0586,0.835937 -0.30079,1.429687 -0.95704,2.148437 -0.23828,0.296875 -0.41796,0.535156 -0.41796,0.535156 0.0625,0.121094 1.375,-0.117187 2.03125,-0.359374 1.13281,-0.414063 2.32812,-1.371094 2.98437,-2.503907 0.65625,-1.132812 0.89453,-2.925781 0.59766,-4.058593 -0.24219,-0.835938 -0.59766,-1.550782 -0.77735,-1.550782 -0.29687,0.117188 -9.78906,2.386719 -12.89062,3.042969 -6.92188,1.609375 -12.53125,2.746094 -17.48828,3.582031 l -2.92188,0.476563 -1.2539,0.65625 c -4.53516,2.265625 -8.89063,3.640625 -13.25,4.175781 -1.66797,0.179688 -5.13282,0.238281 -6.80079,0.0625 -6.08984,-0.660156 -11.8164,-2.867188 -15.8164,-6.148438 -0.53906,-0.417968 -0.65625,-0.597656 -0.65625,-0.835937 0,-0.179687 0.0586,-0.296875 0.17969,-0.296875 0.11718,-0.0625 0.23828,-0.179688 0.29687,-0.300781 0.0586,-0.117188 0.17969,-0.238281 0.30078,-0.238281 0.11719,0 1.07422,0.300781 2.08594,0.597656 5.01562,1.671875 9.19141,2.386718 15.875,2.625 4.95312,0.179687 10.80469,-0.179688 16.76953,-0.953125 1.43359,-0.179688 1.49219,-0.238281 2.50781,-0.71875 0.53516,-0.296875 3.04297,-1.789063 5.49219,-3.222657 5.96484,-3.519531 7.63672,-4.414062 10.26172,-5.550781 3.76172,-1.550781 6.68359,-2.207031 9.73047,-2.085937 2.26562,0.05859 3.99609,0.476562 5.55078,1.371094 0.65625,0.417968 1.96875,1.375 2.20703,1.671874 0.0586,0.117188 0.23828,0.359376 0.41797,0.535157 l 0.29687,0.300781 3.10547,-0.71875 c 4.83203,-1.132812 9.07032,-2.085938 13.00782,-2.863281 2.03125,-0.417969 3.76171,-0.714844 3.8789,-0.714844 0.17969,-0.05859 0.30078,-0.238281 0.71875,-1.433594 1.49219,-3.996093 3.9961,-7.699219 7.63672,-11.339843 3.04297,-3.042969 5.84766,-5.070313 9.55078,-6.863282 2.6836,-1.371094 4.23438,-1.847656 4.95313,-1.550781 z m -1.91016,1.433594 c -2.56641,0.894531 -6.02734,2.804687 -8.83203,5.011719 -1.43359,1.074218 -4.71484,4.355468 -5.78906,5.730468 -1.19532,1.550782 -2.21094,3.042969 -2.86719,4.414063 -0.71484,1.375 -1.66797,3.761719 -1.55078,3.640625 0.23828,-0.117188 2.74609,-2.324219 5.2539,-4.535156 3.87891,-3.402344 4.77344,-4.175782 4.95313,-4.296876 0.29687,-0.117187 0.53516,0 0.53516,0.300782 0,0.355468 -5.13282,5.011718 -9.36719,8.53125 l -0.41797,0.300781 0.29687,-0.0625 c 0.53516,-0.117187 2.08985,-0.714844 3.58204,-1.371094 5.42968,-2.386719 9.66796,-5.847656 12.47265,-10.085937 0.89453,-1.3125 2.02735,-3.582032 2.44531,-4.953125 0.41797,-1.253907 0.71485,-2.625 0.65625,-2.863281 0,-0.179688 -0.29687,-0.121094 -1.37109,0.238281 z m -52.46094,21.601562 c -3.33984,0.480469 -7.03906,1.910157 -11.69531,4.539063 -1.78906,0.953125 -7.75781,4.535156 -7.9375,4.652344 -0.0586,0.0625 0,0.0625 0.12109,0.0625 0.11719,0 1.01172,-0.179688 1.96875,-0.359376 3.57813,-0.65625 8.65235,-1.671874 14.02344,-2.925781 2.50781,-0.535156 13.01172,-3.101562 13.42969,-3.164062 0.17578,-0.05859 0.11719,-0.05859 -0.0625,-0.296875 -0.47656,-0.476563 -1.42969,-1.132813 -2.32422,-1.550782 -1.97266,-1.074218 -4.53906,-1.375 -7.52344,-0.957031 z m 33.66016,4.238281 c 2.21094,2.207032 4.05859,4.058594 4.11719,4.179688 0.0625,0.238281 -0.11719,0.476562 -0.35547,0.476562 -0.30078,0 -2.92578,-2.386718 -5.67188,-5.132812 -2.86328,-2.863281 -2.74218,-2.804688 -1.96875,-0.714844 0.95703,2.625 1.96875,4.296875 3.76172,6.445313 1.78906,2.027343 5.07031,4.414062 7.75781,5.609375 1.13282,0.535156 3.33985,1.253906 3.64063,1.253906 0.29687,0 0.29687,-0.417969 -0.0586,-1.554688 -1.67188,-6.085937 -6.08985,-10.5625 -13.84766,-13.964843 -0.71484,-0.296875 -1.3125,-0.535157 -1.37109,-0.535157 0.0586,-0.05859 1.78906,1.730469 3.99609,3.9375 z m -92.62109,4.773438 c 1.60937,1.433594 5.07421,3.222656 8.05468,4.238281 6.98438,2.269531 14.38282,2.089844 21.42578,-0.535156 1.375,-0.539063 3.04297,-1.253906 3.04297,-1.253906 0,0 -0.83593,0.05859 -1.78906,0.117187 -8.65234,0.957032 -17.42578,0.71875 -23.75391,-0.59375 -1.78906,-0.359375 -3.51953,-0.835937 -5.42968,-1.492187 -1.78907,-0.65625 -1.73047,-0.65625 -1.55078,-0.480469 z M 196.82031,31.597656 c 1.25391,0.417969 4.41797,1.96875 5.78906,2.867188 2.44532,1.550781 4.23829,2.980468 6.38672,5.132812 3.64063,3.636719 6.08594,7.339844 7.57813,11.335938 0.47656,1.195312 0.53906,1.375 0.77734,1.433594 0.11719,0 1.84766,0.359374 3.87891,0.714843 3.99609,0.777344 8.23437,1.730469 13.00781,2.867188 l 3.10547,0.714843 0.29687,-0.296874 c 0.1211,-0.179688 0.35938,-0.417969 0.41797,-0.539063 0.23828,-0.296875 1.55078,-1.3125 2.20703,-1.671875 1.55469,-0.894531 3.28516,-1.3125 5.55079,-1.371094 3.10546,-0.121094 6.02734,0.535156 9.78906,2.089844 2.68359,1.132812 4.29687,2.027344 10.26562,5.550781 2.44532,1.488281 4.95313,2.921875 5.48828,3.222657 1.01563,0.535156 1.07422,0.535156 2.50782,0.714843 6.02734,0.835938 11.875,1.132813 16.76953,0.953125 6.68359,-0.238281 10.86328,-0.894531 15.8164,-2.625 1.07422,-0.359375 1.96875,-0.65625 2.08594,-0.597656 0.1211,0 0.30078,0.121094 0.30078,0.238281 0.0586,0.121094 0.17969,0.242188 0.29688,0.300781 0.12109,0 0.17969,0.117188 0.17969,0.296876 0,0.238281 -0.1211,0.417968 -0.65625,0.835937 -3.9375,3.28125 -9.72657,5.550781 -15.81641,6.148437 -1.66797,0.179688 -5.07031,0.117188 -6.80078,-0.0625 -4.35938,-0.535156 -8.65625,-1.847656 -13.19141,-4.175781 l -1.2539,-0.65625 -2.92188,-0.476562 c -4.95312,-0.835938 -10.5625,-1.96875 -17.48828,-3.582031 -3.10156,-0.714844 -12.53125,-2.984376 -12.89063,-3.042969 -0.17968,-0.05859 -0.53515,0.714843 -0.77343,1.550781 -0.30078,1.195312 -0.0625,2.925781 0.59375,4.058594 0.65625,1.132812 1.85156,2.089844 2.98437,2.507812 0.65625,0.238282 1.91016,0.476563 2.03125,0.355469 0,0 -0.12109,-0.296875 -0.41797,-0.535156 -0.65625,-0.71875 -0.89453,-1.253907 -0.95703,-2.148438 -0.0586,-1.3125 0.59766,-2.6875 1.49219,-3.164062 0.53906,-0.238281 0.77734,-0.296875 1.79297,-0.05859 1.3125,0.238281 2.02734,0.835937 2.5039,1.910156 0.17969,0.355469 0.23829,0.65625 0.23829,1.3125 0,0.714844 0,0.894531 -0.29688,1.371094 -0.59766,1.195313 -1.55078,1.910156 -3.16406,2.328125 -0.89453,0.238281 -2.625,0.121094 -3.57813,-0.238281 -2.21093,-0.777344 -3.8789,-2.566407 -4.47656,-4.835938 -0.30078,-1.074219 -0.23828,-2.804687 0.11719,-3.878906 0.12109,-0.417969 0.30078,-0.773437 0.30078,-0.835937 0,-0.117188 -2.50781,-0.714844 -7.28125,-1.789063 -3.22266,-0.714844 -7.99609,-1.730469 -7.99609,-1.671875 0,0 -0.1211,0.597656 -0.30079,1.253906 -1.55078,5.96875 -5.37109,10.800782 -11.03906,13.90625 -1.61328,0.835938 -4.71484,2.027344 -5.84765,2.207032 -0.53907,0.05859 -1.01563,-0.117188 -1.13672,-0.417969 -0.23828,-0.535157 0.12109,-2.265625 0.77734,-3.996094 1.49219,-3.878906 4.41406,-7.34375 8.47266,-9.96875 1.67187,-1.074219 4.29687,-2.445313 6.32812,-3.222656 l 0.35547,-0.117188 -0.29687,-0.0625 c -0.41797,-0.117187 -5.25,-0.953125 -7.22266,-1.25 -14.20313,-2.03125 -25.24219,-1.492187 -33.12109,1.667969 -9.3086,3.703125 -12.76954,11.222656 -8.05469,17.488281 0.95312,1.253907 2.5039,2.566407 4.05859,3.402344 l 0.77344,0.417969 1.85156,-0.0625 c 1.96875,-0.05859 2.50391,-0.117188 3.82031,-0.65625 1.90625,-0.773438 3.33985,-1.910156 3.9961,-3.28125 0.30078,-0.714844 0.35937,-0.894532 0.41797,-1.671875 0,-0.476563 0,-0.953125 -0.0586,-1.191407 -0.30078,-0.835937 -1.2539,-1.671874 -2.20703,-1.972656 -0.30078,-0.05859 -0.77734,-0.117187 -1.13672,-0.117187 -0.53515,0 -0.65625,0 -0.83593,-0.238281 -0.29688,-0.476563 -0.0586,-1.015626 0.77734,-1.730469 1.78906,-1.433594 3.76172,-1.433594 5.66797,0 1.13672,0.835937 2.03125,2.085937 2.39062,3.339843 0.0586,0.359376 0.11719,1.015626 0.11719,1.671876 0,2.6875 -0.71484,4.355468 -2.38672,5.667968 -0.95312,0.71875 -1.61328,1.074219 -2.92578,1.554688 -1.78906,0.59375 -2.50391,0.714844 -4.23437,0.714844 -1.67188,0 -2.80469,-0.179688 -4.29688,-0.714844 -4.71484,-1.671875 -8.11719,-5.371094 -8.83203,-9.730469 -0.17969,-1.074219 -0.0625,-2.921875 0.17578,-3.996094 1.43359,-5.433593 6.92578,-9.667969 15.27734,-11.699219 4,-0.953124 8.0586,-1.371093 13.42969,-1.371093 4.23828,0 7.39844,0.179687 12.05469,0.773437 1.13281,0.121094 2.08984,0.242188 2.08984,0.242188 0.0586,0 -0.53906,-0.359375 -1.37109,-0.777344 -4.59766,-2.328125 -8.11719,-5.132812 -10.74609,-8.652344 -2.86329,-3.820312 -4.77344,-9.074218 -3.69922,-10.148437 0.35937,-0.238281 1.07422,-0.238281 2.32812,0.179687 z m -1.60937,1.015625 c -0.1211,0.238281 0.23828,1.671875 0.59375,2.863281 0.48047,1.375 1.61328,3.640626 2.50781,4.953126 2.80469,4.238281 7.04297,7.640624 12.47266,10.085937 1.49218,0.65625 3.10546,1.253906 3.58203,1.375 l 0.29687,0.05859 -0.35547,-0.296875 c -4.30078,-3.523438 -9.42968,-8.175782 -9.42968,-8.535156 0,-0.238282 0.29687,-0.417969 0.53515,-0.296876 0.23828,0.117188 1.25391,0.953126 4.95313,4.296876 2.50781,2.207031 5.07422,4.414062 5.2539,4.535156 0.17578,0.117187 -0.83593,-2.269532 -1.55468,-3.640625 -1.3125,-2.566407 -2.98438,-4.777344 -5.60938,-7.402344 -2.44531,-2.445313 -4.41406,-3.996094 -7.21875,-5.609375 -1.73047,-1.015625 -4.05859,-2.089844 -5.3125,-2.386719 -0.53906,-0.179687 -0.59766,-0.179687 -0.71484,0 z m 49.29297,21.78125 c -1.96875,0.300781 -4.17579,1.316407 -5.25,2.507813 -0.23829,0.238281 -0.23829,0.238281 -0.0625,0.296875 0.35937,0.121093 10.86328,2.628906 13.37109,3.164062 5.42969,1.253907 10.50391,2.328125 14.02344,2.925781 0.95312,0.179688 1.85156,0.359376 1.96875,0.359376 0.17968,0 0.23828,0 0.12109,-0.0625 -0.12109,-0.117188 -6.14844,-3.640626 -7.9375,-4.652344 -3.76172,-2.089844 -6.56641,-3.34375 -9.42969,-4.058594 -2.625,-0.65625 -4.59765,-0.835938 -6.80468,-0.480469 z M 218.125,55.230469 c -7.69922,3.34375 -12.23438,7.878906 -13.90234,14.027343 -0.30079,1.132813 -0.35938,1.550782 -0.0625,1.550782 0.12109,0 0.71875,-0.179688 1.375,-0.417969 5.13281,-1.671875 9.78515,-5.3125 12.23437,-9.488281 0.65625,-1.136719 1.01172,-1.96875 1.55078,-3.460938 0.77344,-2.089844 0.89453,-2.148437 -1.96875,0.714844 -2.6875,2.746094 -5.37109,5.132812 -5.67187,5.132812 -0.23828,0 -0.41797,-0.238281 -0.35547,-0.476562 0.0586,-0.121094 1.84765,-1.972656 4.11719,-4.179688 2.20703,-2.207031 3.99609,-3.996093 3.99609,-3.996093 -0.0586,0 -0.65625,0.238281 -1.3125,0.59375 z m 85.28125,9.550781 c -6.80078,1.789062 -16.23047,2.207031 -26.01953,1.132812 -0.95313,-0.117187 -1.78906,-0.179687 -1.78906,-0.117187 0,0 0.35937,0.238281 0.83593,0.414063 7.75782,3.402343 15.875,3.882812 23.57422,1.375 3.04297,-0.957032 6.44531,-2.746094 8.11328,-4.238282 0.0625,-0.05859 -0.71484,0.179688 -1.66797,0.539063 -0.95703,0.355469 -2.32812,0.773437 -3.04687,0.894531 z m 0,0"
           fill-opacity="1"
           fill-rule="nonzero"
           id="path86" />
      </g>
      <g
         clip-path="url(#0abf1dbf7d)"
         id="g88">
        <path
           fill="#31458c"
           d="m 602.1875,429.28516 c -0.35938,0.89453 -1.96875,0.83593 -4.47656,-0.1211 -6.20703,-2.32812 -11.09766,-7.04297 -14.6211,-14.02344 -0.41797,-0.83593 -0.77343,-1.43359 -0.77343,-1.37109 0,0.0586 0.11718,1.01172 0.23828,2.08594 0.59375,4.71484 0.77343,7.82031 0.77343,12.05469 0,5.37109 -0.41796,9.42968 -1.37109,13.42968 -2.08984,8.35547 -6.26562,13.84375 -11.69922,15.27735 -1.01172,0.30078 -2.92187,0.35937 -3.99609,0.17968 -4.29688,-0.65625 -8.0586,-4.05859 -9.66797,-8.77343 -0.53906,-1.49219 -0.71875,-2.625 -0.71875,-4.29688 0,-1.67187 0.12109,-2.50781 0.71875,-4.23828 0.95312,-2.74219 2.32812,-4.35547 4.35547,-5.01172 1.2539,-0.41797 3.40234,-0.47656 4.47656,-0.23828 1.25391,0.35938 2.50781,1.25391 3.33984,2.38672 1.4336,1.91016 1.49219,3.87891 0,5.66797 -0.71484,0.83594 -1.25,1.07422 -1.73046,0.71875 -0.17579,-0.1211 -0.23829,-0.23828 -0.23829,-0.83594 0,-0.83594 -0.17968,-1.49219 -0.65625,-2.14844 -0.59765,-0.95703 -1.37109,-1.3125 -2.44531,-1.3125 -2.14844,0 -4,1.60938 -5.13281,4.41407 -0.53906,1.3125 -0.59766,1.79296 -0.65625,3.82031 l -0.0586,1.85156 0.41796,0.77344 c 1.42969,2.5664 3.63672,4.59765 6.02735,5.55078 2.98047,1.13281 5.96484,0.83594 8.76953,-1.07422 4.05859,-2.74609 6.98437,-8.41406 8.29687,-16.05469 1.3125,-7.9375 0.95704,-17.30468 -1.13281,-29.83984 -0.23828,-1.42969 -0.47656,-2.74219 -0.53906,-2.92188 l -0.0586,-0.30078 -0.1211,0.35938 c -0.41406,0.95703 -1.48828,3.34375 -1.96875,4.23828 -1.2539,2.32812 -2.5664,4.05859 -4.17578,5.78906 -2.625,2.6836 -5.25391,4.29688 -8.71484,5.25 -0.95313,0.30078 -1.96875,0.35938 -2.32813,0.23828 -0.29687,-0.11718 -0.47656,-0.59375 -0.41797,-1.13281 0.17969,-1.13281 1.31641,-4.29687 2.21094,-5.84766 3.10156,-5.67187 7.875,-9.48828 13.90625,-11.04296 0.65625,-0.17579 1.25,-0.29688 1.25,-0.35547 0,0 -0.95312,-4.77344 -1.66797,-7.9961 -1.07422,-4.71484 -1.67187,-7.34375 -1.79297,-7.28125 -0.0586,0 -0.41797,0.11719 -0.83593,0.29688 -1.07422,0.35937 -2.80469,0.41797 -3.87891,0.12109 -2.20703,-0.59765 -4.05859,-2.32812 -4.83203,-4.53906 -0.35938,-0.95313 -0.47656,-2.68359 -0.23828,-3.57813 0.41797,-1.61328 1.13281,-2.5664 2.32422,-3.16406 0.48046,-0.23828 0.66015,-0.29687 1.375,-0.23828 1.78906,0 2.86328,0.95313 3.16406,2.74609 0.17578,0.95313 0.17578,1.25391 -0.0625,1.78907 -0.41797,0.89453 -1.78906,1.55078 -3.16016,1.49218 -0.83594,-0.0586 -1.43359,-0.29687 -2.14844,-0.95312 -0.30078,-0.24219 -0.53906,-0.41797 -0.53906,-0.41797 -0.11719,0.0586 0.1211,1.37109 0.35938,2.02734 0.41797,1.13282 1.37109,2.32813 2.5039,2.98438 1.13672,0.65625 2.92578,0.89453 4.0586,0.59766 0.83593,-0.23829 1.55468,-0.59766 1.55468,-0.77735 -0.12109,-0.29687 -2.39062,-9.78515 -3.04687,-12.89062 -1.60938,-6.92188 -2.74219,-12.53125 -3.57813,-17.48438 l -0.48046,-2.92578 -0.65625,-1.25391 c -2.26563,-4.53515 -3.64063,-8.89062 -4.17579,-13.25 -0.17968,-1.66796 -0.23828,-5.1289 -0.0586,-6.80078 0.65625,-6.08984 2.86328,-11.8164 6.14453,-15.8164 0.41797,-0.53516 0.59766,-0.65625 0.83594,-0.65625 0.17969,0 0.30078,0.0586 0.30078,0.17968 0.0586,0.11719 0.17578,0.23829 0.29688,0.29688 0.12109,0.0625 0.23828,0.17969 0.23828,0.30078 0,0.11719 -0.29688,1.07422 -0.59766,2.08594 -1.66797,5.01562 -2.38672,9.1914 -2.625,15.875 -0.17969,4.95312 0.17969,10.80469 0.95703,16.76953 0.17578,1.43359 0.23828,1.49219 0.71485,2.50781 0.29687,0.53906 1.78906,3.04297 3.22265,5.49219 3.51953,5.96875 4.41406,7.63672 5.55078,10.26562 1.55078,3.75782 2.20703,6.6836 2.08594,9.72657 -0.0586,2.26562 -0.47656,3.99609 -1.37109,5.55078 -0.41797,0.65625 -1.3711,1.96875 -1.67188,2.20703 -0.11719,0.0586 -0.35547,0.23828 -0.53515,0.41797 l -0.30079,0.29687 0.71875,3.10547 c 1.13282,4.83203 2.08594,9.07031 2.86329,13.00781 0.41796,2.03125 0.71484,3.76172 0.71484,3.87891 0.0625,0.17969 0.24219,0.30078 1.43359,0.71875 4,1.49219 7.69922,3.99609 11.33985,7.63672 3.04297,3.04297 5.07422,5.85156 6.86328,9.55078 1.37109,2.68359 1.84765,4.23828 1.55078,4.95313 z m -1.43359,-1.91016 c -0.89454,-2.56641 -2.80469,-6.02734 -5.01172,-8.83203 -1.07422,-1.4336 -4.35547,-4.71485 -5.73047,-5.78906 -1.55078,-1.19532 -3.04297,-2.20704 -4.41406,-2.86329 -1.375,-0.71875 -3.76172,-1.67187 -3.64063,-1.55468 0.11719,0.23828 2.32813,2.74609 4.53516,5.2539 3.40234,3.87891 4.17578,4.77344 4.29687,4.95313 0.1211,0.29687 0,0.53515 -0.29687,0.53515 -0.35938,0 -5.01563,-5.13281 -8.53516,-9.36718 l -0.30078,-0.41797 0.0625,0.29687 c 0.11719,0.53907 0.71484,2.08985 1.37109,3.58203 2.38672,5.42969 5.84766,9.66797 10.08594,12.47266 1.3125,0.89453 3.58203,2.02734 4.95313,2.44531 1.2539,0.41797 2.625,0.71875 2.86718,0.65625 0.17578,0 0.11719,-0.29687 -0.24218,-1.37109 z m -21.60157,-52.45703 c -0.47656,-3.34375 -1.91015,-7.04297 -4.53515,-11.69922 -0.95703,-1.78906 -4.53516,-7.75781 -4.65625,-7.9375 -0.0586,-0.0586 -0.0586,0 -0.0586,0.12109 0,0.11719 0.17969,1.01172 0.35547,1.96875 0.65625,3.58203 1.67188,8.65235 2.92578,14.02344 0.53907,2.50781 3.10157,13.01172 3.16407,13.42969 0.0586,0.17969 0.0586,0.11719 0.29687,-0.0586 0.47656,-0.48046 1.13281,-1.43359 1.55078,-2.32812 1.07422,-1.97266 1.375,-4.53516 0.95703,-7.51953 z m -4.23828,33.65625 c -2.20703,2.21094 -4.05859,4.05859 -4.17578,4.12109 -0.23828,0.0586 -0.48047,-0.12109 -0.48047,-0.35937 0,-0.29688 2.39063,-2.92578 5.13281,-5.66797 2.86719,-2.86719 2.80469,-2.7461 0.71875,-1.97266 -2.6289,0.95703 -4.29687,1.97266 -6.44531,3.76172 -2.03125,1.78906 -4.41797,5.07031 -5.61328,7.75781 -0.53516,1.13282 -1.25,3.34375 -1.25,3.64063 0,0.29687 0.41797,0.29687 1.55078,-0.0586 6.08594,-1.67187 10.5625,-6.08984 13.96485,-13.84765 0.29687,-0.71485 0.53515,-1.3125 0.53515,-1.3711 0.0625,0.0586 -1.73047,1.78907 -3.9375,3.9961 z m -4.77344,-92.6211 c -1.43359,1.61329 -3.22265,5.07422 -4.23828,8.0586 -2.26562,6.98047 -2.08984,14.38281 0.53907,21.42187 0.53515,1.375 1.25,3.04688 1.25,3.04688 0,0 -0.0586,-0.83594 -0.11719,-1.79297 -0.95703,-8.65234 -0.71485,-17.42578 0.59765,-23.75 0.35547,-1.79297 0.83594,-3.52344 1.49219,-5.43359 0.65625,-1.78907 0.65625,-1.73047 0.47656,-1.55079 z m 31.8086,-127.71484 c -0.41797,1.25391 -1.96875,4.41797 -2.86328,5.78906 -1.55469,2.44922 -2.98438,4.23828 -5.13282,6.38672 -3.64062,3.64063 -7.33984,6.08594 -11.33984,7.57813 -1.19531,0.47656 -1.37109,0.53906 -1.43359,0.77734 0,0.11719 -0.35547,1.84766 -0.71485,3.87891 -0.77734,4 -1.73047,8.23437 -2.86328,13.00781 l -0.71875,3.10547 0.30078,0.29687 c 0.17578,0.1211 0.41797,0.35938 0.53516,0.41797 0.30078,0.23828 1.3125,1.55469 1.67187,2.21094 0.89454,1.55078 1.3125,3.28125 1.3711,5.54687 0.12109,3.10547 -0.53516,6.02735 -2.08594,9.78907 -1.13672,2.6875 -2.03125,4.29687 -5.55078,10.26562 -1.49219,2.44531 -2.92578,4.95313 -3.22266,5.48828 -0.53906,1.01563 -0.53906,1.07422 -0.71875,2.50782 -0.83593,6.02734 -1.13281,11.875 -0.95312,16.76953 0.23828,6.68359 0.89453,10.86328 2.625,15.8164 0.35937,1.07422 0.65625,1.96875 0.59765,2.08985 0,0.11718 -0.12109,0.29687 -0.23828,0.29687 -0.12109,0.0586 -0.23828,0.17969 -0.30078,0.29688 0,0.12109 -0.11719,0.17968 -0.29687,0.17968 -0.23828,0 -0.41797,-0.11718 -0.83594,-0.65625 -3.28125,-3.9375 -5.55078,-9.72656 -6.14453,-15.8164 -0.17969,-1.66797 -0.1211,-5.07031 0.0586,-6.80078 0.53516,-4.35938 1.84766,-8.65625 4.17578,-13.19141 l 0.65625,-1.25391 0.48047,-2.92187 c 0.83203,-4.95313 1.96875,-10.5625 3.57813,-17.48828 0.71875,-3.10156 2.98437,-12.53125 3.04297,-12.89063 0.0625,-0.17578 -0.71485,-0.53515 -1.55079,-0.77343 -1.1914,-0.30079 -2.92187,-0.0586 -4.05859,0.59765 -1.13281,0.65625 -2.08594,1.84766 -2.50391,2.98047 -0.24218,0.66016 -0.48046,1.91016 -0.35937,2.03125 0,0 0.29687,-0.12109 0.53516,-0.41797 0.71875,-0.65625 1.2539,-0.89453 2.14843,-0.95312 1.31641,-0.0625 2.6875,0.59375 3.16407,1.48828 0.23828,0.53906 0.30078,0.77734 0.0586,1.79297 -0.23828,1.3125 -0.83203,2.02734 -1.90625,2.5039 -0.35938,0.17969 -0.65625,0.24219 -1.31641,0.24219 -0.71484,0 -0.89453,0 -1.37109,-0.30078 -1.19531,-0.59766 -1.91016,-1.55078 -2.32813,-3.16406 -0.23828,-0.89453 -0.11718,-2.625 0.23829,-3.57813 0.77734,-2.20703 2.5664,-3.8789 4.83593,-4.47656 1.07422,-0.29688 2.80469,-0.23828 3.87891,0.12109 0.41797,0.11719 0.77734,0.29688 0.83594,0.29688 0.11718,0 0.71484,-2.50781 1.78906,-7.28125 0.71484,-3.22266 1.73047,-7.9961 1.67187,-7.9961 0,0 -0.59765,-0.12109 -1.2539,-0.30078 -5.96875,-1.55078 -10.80078,-5.37109 -13.90625,-11.03906 -0.83594,-1.61328 -2.02735,-4.71484 -2.20703,-5.84766 -0.0586,-0.53906 0.12109,-1.01562 0.41797,-1.13671 0.53515,-0.23829 2.26953,0.12109 4,0.77734 3.8789,1.49219 7.33984,4.41797 9.96484,8.47656 1.07422,1.66797 2.44531,4.29688 3.22266,6.32422 l 0.12109,0.35938 0.0586,-0.30079 c 0.11719,-0.41796 0.95313,-5.25 1.25391,-7.21875 2.02734,-14.20703 1.49219,-25.24609 -1.67188,-33.125 -3.69921,-9.30859 -11.21875,-12.76953 -17.48828,-8.05468 -1.25,0.95312 -2.5625,2.50781 -3.39843,4.05859 l -0.41797,0.77344 0.0586,1.85156 c 0.0586,1.96875 0.12109,2.50781 0.65625,3.82031 0.77734,1.91016 1.91016,3.33985 3.28125,3.9961 0.71875,0.30078 0.89453,0.35937 1.67188,0.41797 0.47656,0 0.95703,0 1.19531,-0.0586 0.83594,-0.29687 1.66797,-1.2539 1.96875,-2.20703 0.0586,-0.30078 0.11719,-0.77734 0.11719,-1.13672 0,-0.53515 0,-0.65625 0.23828,-0.83203 0.48047,-0.30078 1.01562,-0.0625 1.73437,0.77344 1.42969,1.79297 1.42969,3.76172 0,5.67187 -0.83594,1.13282 -2.08984,2.02735 -3.34375,2.38672 -0.35937,0.0586 -1.01562,0.11719 -1.67187,0.11719 -2.6836,0 -4.35547,-0.71484 -5.66797,-2.38672 -0.71875,-0.95312 -1.07422,-1.60937 -1.55078,-2.92187 -0.59766,-1.79297 -0.71875,-2.50782 -0.71875,-4.23829 0,-1.67187 0.17968,-2.80468 0.71875,-4.29687 1.66797,-4.71484 5.37109,-8.11719 9.72656,-8.83203 1.07422,-0.17969 2.92187,-0.0625 4,0.17578 5.42969,1.43359 9.66797,6.92578 11.69531,15.28125 0.95313,3.99609 1.3711,8.05469 1.3711,13.42578 0,4.23828 -0.17579,7.40234 -0.77344,12.05469 -0.1211,1.13672 -0.23828,2.08984 -0.23828,2.08984 0,0.0586 0.35547,-0.53515 0.77343,-1.37109 2.32813,-4.59766 5.13282,-8.11719 8.65625,-10.74219 3.81641,-2.86719 9.07032,-4.77734 10.14454,-3.70312 0.23828,0.35937 0.23828,1.07421 -0.17969,2.32812 z m -1.01563,-1.60937 c -0.23828,-0.1211 -1.67187,0.23828 -2.86328,0.59765 -1.37109,0.47656 -3.64062,1.60938 -4.95312,2.50391 -4.23828,2.80469 -7.64063,7.04297 -10.08594,12.47265 -0.65625,1.49219 -1.25391,3.10547 -1.375,3.58204 l -0.0586,0.29687 0.30078,-0.35547 c 3.51953,-4.29687 8.17578,-9.42969 8.53125,-9.42969 0.23828,0 0.41797,0.29688 0.30078,0.53516 -0.1211,0.23828 -0.95703,1.25391 -4.29688,4.95313 -2.21093,2.50781 -4.41797,5.07421 -4.53515,5.2539 -0.1211,0.17969 2.26562,-0.83594 3.64062,-1.55078 2.5625,-1.31641 4.77344,-2.98437 7.39844,-5.61328 2.44531,-2.44531 4,-4.41406 5.60937,-7.21875 1.01563,-1.73047 2.08985,-4.05859 2.38672,-5.3125 0.17969,-0.53516 0.17969,-0.59766 0,-0.71484 z m -21.78125,49.29296 c -0.30078,-1.96875 -1.3125,-4.17578 -2.50781,-5.25 -0.23828,-0.23828 -0.23828,-0.23828 -0.29687,-0.0586 -0.1211,0.35547 -2.625,10.85938 -3.16407,13.36719 -1.2539,5.42969 -2.32812,10.5039 -2.92578,14.02344 -0.17578,0.95703 -0.35547,1.85156 -0.35547,1.96875 0,0.17968 0,0.23828 0.0586,0.12109 0.12109,-0.12109 3.64062,-6.14844 4.65625,-7.9375 2.08593,-3.76172 3.33984,-6.56641 4.05859,-9.42969 0.65625,-2.625 0.83203,-4.59375 0.47656,-6.80469 z m -0.83593,-26.3789 c -3.34375,-7.69531 -7.87891,-12.23438 -14.02344,-13.90235 -1.13672,-0.30078 -1.55469,-0.35937 -1.55469,-0.0625 0,0.1211 0.17969,0.71875 0.41797,1.375 1.67187,5.13282 5.3125,9.78516 9.49219,12.23438 1.13281,0.65625 1.96875,1.01562 3.46093,1.55078 2.08594,0.77734 2.14844,0.89453 -0.71875,-1.96875 -2.74218,-2.6875 -5.13281,-5.37109 -5.13281,-5.67187 0,-0.23829 0.24219,-0.41797 0.48047,-0.35547 0.11719,0.0586 1.96875,1.84765 4.17578,4.11718 2.20703,2.20704 4,4 4,4 0,-0.0625 -0.23828,-0.65625 -0.59765,-1.3164 z m -9.55079,85.28515 c -1.78906,-6.80468 -2.20703,-16.23437 -1.13281,-26.02343 0.1211,-0.95313 0.17969,-1.78907 0.1211,-1.78907 0,0 -0.23829,0.35938 -0.41797,0.83594 -3.40235,7.75781 -3.87891,15.875 -1.375,23.57422 0.95703,3.04297 2.74609,6.44531 4.23828,8.11719 0.0586,0.0586 -0.17969,-0.71875 -0.53516,-1.67188 -0.35937,-0.95703 -0.77734,-2.32812 -0.89844,-3.04297 z m 0,0"
           fill-opacity="1"
           fill-rule="nonzero"
           id="path87" />
      </g>
    </g>
  </g>
</svg>
