<?xml version="1.0" encoding="UTF-8" standalone="no"?>
<svg
   width="886.09894"
   zoomAndPan="magnify"
   viewBox="0 0 664.5742 658.1406"
   height="877.52081"
   preserveAspectRatio="xMidYMid"
   version="1.0"
   id="svg19"
   sodipodi:docname="2026_BR_04_alt_C.svg"
   inkscape:version="1.4.2 (f4327f4, 2025-05-13)"
   xmlns:inkscape="http://www.inkscape.org/namespaces/inkscape"
   xmlns:sodipodi="http://sodipodi.sourceforge.net/DTD/sodipodi-0.dtd"
   xmlns="http://www.w3.org/2000/svg"
   xmlns:svg="http://www.w3.org/2000/svg">
  <sodipodi:namedview
     id="namedview19"
     pagecolor="#ffffff"
     bordercolor="#000000"
     borderopacity="0.25"
     inkscape:showpageshadow="2"
     inkscape:pageopacity="0.0"
     inkscape:pagecheckerboard="0"
     inkscape:deskcolor="#d1d1d1"
     inkscape:zoom="0.17893519"
     inkscape:cx="-1687.762"
     inkscape:cy="701.37128"
     inkscape:window-width="1920"
     inkscape:window-height="991"
     inkscape:window-x="-9"
     inkscape:window-y="-9"
     inkscape:window-maximized="1"
     inkscape:current-layer="svg19" />
  <defs
     id="defs7">
    <clipPath
       id="c599598a3e">
      <path
         d="M 326.875,81 H 991.44922 V 731.78906 H 326.875 Z m 0,0"
         clip-rule="nonzero"
         id="path1" />
    </clipPath>
    <clipPath
       id="1b454b9dc2">
      <path
         d="M 0.875,0 H 665 V 650.78906 H 0.875 Z m 0,0"
         clip-rule="nonzero"
         id="path2" />
    </clipPath>
    <clipPath
       id="9c097d0883">
      <rect
         x="0"
         width="666"
         y="0"
         height="651"
         id="rect2" />
    </clipPath>
    <clipPath
       id="0c24dcff35">
      <path
         d="M 326.875,81 H 985.01562 V 739.14062 H 326.875 Z m 0,0"
         clip-rule="nonzero"
         id="path3" />
    </clipPath>
    <clipPath
       id="01bce9858b">
      <path
         d="m 652.23437,402.69922 h 330.91016 v 319.8789 H 652.23437 Z m 0,0"
         clip-rule="nonzero"
         id="path4" />
    </clipPath>
    <clipPath
       id="0a3cd9b734">
      <path
         d="m 332.33594,397.125 h 319.8789 v 330.91016 h -319.8789 z m 0,0"
         clip-rule="nonzero"
         id="path5" />
    </clipPath>
    <clipPath
       id="cd675e259d">
      <path
         d="M 332.43359,88.351562 H 663.34375 V 408.23047 H 332.43359 Z m 0,0"
         clip-rule="nonzero"
         id="path6" />
    </clipPath>
    <clipPath
       id="105b2a5549">
      <path
         d="M 663.36328,89.25 H 983.24219 V 420.16016 H 663.36328 Z m 0,0"
         clip-rule="nonzero"
         id="path7" />
    </clipPath>
    <clipPath
       id="09127ad011">
      <rect
         x="0"
         width="1315"
         y="0"
         height="810"
         id="rect7" />
    </clipPath>
  </defs>
  <g
     transform="translate(-326.875,-81)"
     id="g19">
    <g
       clip-path="url(#09127ad011)"
       id="g18">
      <g
         clip-path="url(#c599598a3e)"
         id="g12">
        <g
           transform="translate(326,81)"
           id="g11">
          <g
             clip-path="url(#9c097d0883)"
             id="g10">
            <g
               clip-path="url(#1b454b9dc2)"
               id="g9">
              <path
                 fill="#fff2a8"
                 d="m 0.875,0 h 663.5 V 650.78906 H 0.875 Z m 0,0"
                 fill-opacity="1"
                 fill-rule="nonzero"
                 id="path9" />
            </g>
          </g>
        </g>
        <path
           stroke-linecap="butt"
           transform="matrix(3.676772,0,0,3.676772,326.87419,81.000023)"
           fill="none"
           stroke-linejoin="miter"
           d="M 2.21483e-4,-6.28948e-6 H 180.74959 V 177.0001 H 2.21483e-4 Z m 0,0"
           stroke="#ffb100"
           stroke-width="1.2239"
           stroke-opacity="1"
           stroke-miterlimit="4"
           id="path11" />
      </g>
      <g
         clip-path="url(#0c24dcff35)"
         id="g13">
        <path
           fill="#ffb100"
           d="m 655.97266,739.19922 c 0,-181.08985 -148.00782,-329.09766 -329.09766,-329.09766 181.08984,0 329.09766,-148.01172 329.09766,-329.10156 0,181.08984 148.01171,329.10156 329.10156,329.10156 -181.08985,0 -329.10156,148.00781 -329.10156,329.09766 z m 0,0"
           fill-opacity="1"
           fill-rule="nonzero"
           id="path12" />
      </g>
      <g
         clip-path="url(#01bce9858b)"
         id="g14">
        <path
           fill="#ffb100"
           d="m 981.33594,1050.4414 c 0,-181.08984 -148.01172,-329.09765 -329.10157,-329.09765 181.08985,0 329.10157,-148.01172 329.10157,-329.10156 0,181.08984 148.00786,329.10156 329.09766,329.10156 -181.0898,0 -329.09766,148.00781 -329.09766,329.09765 z m 0,0"
           fill-opacity="1"
           fill-rule="nonzero"
           id="path13" />
      </g>
      <g
         clip-path="url(#0a3cd9b734)"
         id="g15">
        <path
           fill="#ffb100"
           d="m 4.472656,726.22656 c 181.085934,0 329.097654,-148.01172 329.097654,-329.10156 0,181.08984 148.01172,329.10156 329.10156,329.10156 -181.08984,0 -329.10156,148.01172 -329.10156,329.09764 0,-181.08592 -148.01172,-329.09764 -329.097654,-329.09764 z m 0,0"
           fill-opacity="1"
           fill-rule="nonzero"
           id="path14" />
      </g>
      <g
         clip-path="url(#cd675e259d)"
         id="g16">
        <path
           fill="#ffb100"
           d="m 334.24219,-239.51172 c 0,181.089845 148.01172,329.101564 329.10156,329.101564 -181.08984,0 -329.10156,148.011716 -329.10156,329.097656 0,-181.08594 -148.01172,-329.097656 -329.097659,-329.097656 181.085939,0 329.097659,-148.011719 329.097659,-329.101564 z m 0,0"
           fill-opacity="1"
           fill-rule="nonzero"
           id="path15" />
      </g>
      <g
         clip-path="url(#105b2a5549)"
         id="g17">
        <path
           fill="#ffb100"
           d="m 1311.1055,91.058594 c -181.0899,0 -329.10159,148.011716 -329.10159,329.101566 0,-181.08985 -148.00782,-329.101566 -329.09766,-329.101566 181.08984,0 329.09766,-148.007813 329.09766,-329.097654 0,181.089841 148.01169,329.097654 329.10159,329.097654 z m 0,0"
           fill-opacity="1"
           fill-rule="nonzero"
           id="path16" />
      </g>
    </g>
  </g>
</svg>
