<?xml version="1.0" encoding="UTF-8" standalone="no"?>
<svg
   width="1715.4529"
   zoomAndPan="magnify"
   viewBox="0 0 1286.5897 653.99999"
   height="872"
   preserveAspectRatio="xMidYMid"
   version="1.0"
   id="svg260"
   sodipodi:docname="2026_BR_04_body_02.svg"
   inkscape:version="1.4.2 (f4327f4, 2025-05-13)"
   xmlns:inkscape="http://www.inkscape.org/namespaces/inkscape"
   xmlns:sodipodi="http://sodipodi.sourceforge.net/DTD/sodipodi-0.dtd"
   xmlns="http://www.w3.org/2000/svg"
   xmlns:svg="http://www.w3.org/2000/svg">
  <sodipodi:namedview
     id="namedview260"
     pagecolor="#ffffff"
     bordercolor="#000000"
     borderopacity="0.25"
     inkscape:showpageshadow="2"
     inkscape:pageopacity="0.0"
     inkscape:pagecheckerboard="0"
     inkscape:deskcolor="#d1d1d1"
     showguides="true"
     inkscape:zoom="0.50610513"
     inkscape:cx="443.58373"
     inkscape:cy="534.47393"
     inkscape:window-width="1920"
     inkscape:window-height="991"
     inkscape:window-x="-9"
     inkscape:window-y="-9"
     inkscape:window-maximized="1"
     inkscape:current-layer="svg260">
    <sodipodi:guide
       position="338.35296,765.54332"
       orientation="0,-1"
       id="guide260"
       inkscape:locked="false" />
  </sodipodi:namedview>
  <defs
     id="defs53">
    <g
       id="g1" />
    <clipPath
       id="a113a935e7">
      <path
         d="M 549.5625,119.03125 H 692.01562 V 261.44141 H 549.5625 Z m 0,0"
         clip-rule="nonzero"
         id="path1" />
    </clipPath>
    <clipPath
       id="5e912783da">
      <path
         d="M 0.5625,0.03125 H 143 V 142.44141 H 0.5625 Z m 0,0"
         clip-rule="nonzero"
         id="path2" />
    </clipPath>
    <clipPath
       id="d5aec25a8b">
      <rect
         x="0"
         width="144"
         y="0"
         height="143"
         id="rect2" />
    </clipPath>
    <clipPath
       id="1332a421ca">
      <path
         d="M 549.5625,274.77734 H 692.01562 V 417.18359 H 549.5625 Z m 0,0"
         clip-rule="nonzero"
         id="path3" />
    </clipPath>
    <clipPath
       id="b4a53663c4">
      <path
         d="M 0.5625,0.777344 H 143 V 143.18359 H 0.5625 Z m 0,0"
         clip-rule="nonzero"
         id="path4" />
    </clipPath>
    <clipPath
       id="1331860960">
      <rect
         x="0"
         width="144"
         y="0"
         height="144"
         id="rect4" />
    </clipPath>
    <clipPath
       id="57c2614eb0">
      <path
         d="M 392.75391,274.77734 H 535.20703 V 417.18359 H 392.75391 Z m 0,0"
         clip-rule="nonzero"
         id="path5" />
    </clipPath>
    <clipPath
       id="d890c41389">
      <path
         d="M 0.753906,0.777344 H 143.20703 V 143.18359 H 0.753906 Z m 0,0"
         clip-rule="nonzero"
         id="path6" />
    </clipPath>
    <clipPath
       id="180ad262f3">
      <rect
         x="0"
         width="144"
         y="0"
         height="144"
         id="rect6" />
    </clipPath>
    <clipPath
       id="61f0d18262">
      <path
         d="M 392.75391,430.68359 H 535.20703 V 573.09375 H 392.75391 Z m 0,0"
         clip-rule="nonzero"
         id="path7" />
    </clipPath>
    <clipPath
       id="69bcd61572">
      <path
         d="M 0.753906,0.683594 H 143.20703 V 143.09375 H 0.753906 Z m 0,0"
         clip-rule="nonzero"
         id="path8" />
    </clipPath>
    <clipPath
       id="17910d4f3c">
      <rect
         x="0"
         width="144"
         y="0"
         height="144"
         id="rect8" />
    </clipPath>
    <clipPath
       id="774ac8341e">
      <path
         d="M 549.5625,430.68359 H 692.01562 V 573.09375 H 549.5625 Z m 0,0"
         clip-rule="nonzero"
         id="path9" />
    </clipPath>
    <clipPath
       id="44ab3894a9">
      <path
         d="M 0.5625,0.683594 H 143 V 143.09375 H 0.5625 Z m 0,0"
         clip-rule="nonzero"
         id="path10" />
    </clipPath>
    <clipPath
       id="16f0286751">
      <rect
         x="0"
         width="144"
         y="0"
         height="144"
         id="rect10" />
    </clipPath>
    <clipPath
       id="6c7b655ddd">
      <path
         d="M 235.90234,430.68359 H 378.35547 V 573.09375 H 235.90234 Z m 0,0"
         clip-rule="nonzero"
         id="path11" />
    </clipPath>
    <clipPath
       id="59ef0a6318">
      <path
         d="M 0.902344,0.683594 H 143.35547 V 143.09375 H 0.902344 Z m 0,0"
         clip-rule="nonzero"
         id="path12" />
    </clipPath>
    <clipPath
       id="45301e8309">
      <rect
         x="0"
         width="144"
         y="0"
         height="144"
         id="rect12" />
    </clipPath>
    <clipPath
       id="84f8915c14">
      <path
         d="M 549.5625,586.58984 H 692.01562 V 729 H 549.5625 Z m 0,0"
         clip-rule="nonzero"
         id="path13" />
    </clipPath>
    <clipPath
       id="799f8b98ec">
      <path
         d="M 0.5625,0.589844 H 143 V 143 H 0.5625 Z m 0,0"
         clip-rule="nonzero"
         id="path14" />
    </clipPath>
    <clipPath
       id="e99ea2dd88">
      <rect
         x="0"
         width="144"
         y="0"
         height="143"
         id="rect14" />
    </clipPath>
    <clipPath
       id="74deeeb0e1">
      <path
         d="M 392.75391,586.58984 H 535.20703 V 729 H 392.75391 Z m 0,0"
         clip-rule="nonzero"
         id="path15" />
    </clipPath>
    <clipPath
       id="e035a64b97">
      <path
         d="M 0.753906,0.589844 H 143.20703 V 143 H 0.753906 Z m 0,0"
         clip-rule="nonzero"
         id="path16" />
    </clipPath>
    <clipPath
       id="c6e7f8177c">
      <rect
         x="0"
         width="144"
         y="0"
         height="143"
         id="rect16" />
    </clipPath>
    <clipPath
       id="5320236c77">
      <path
         d="M 235.90234,586.58984 H 378.35547 V 729 H 235.90234 Z m 0,0"
         clip-rule="nonzero"
         id="path17" />
    </clipPath>
    <clipPath
       id="be14ce557e">
      <path
         d="M 0.902344,0.589844 H 143.35547 V 143 H 0.902344 Z m 0,0"
         clip-rule="nonzero"
         id="path18" />
    </clipPath>
    <clipPath
       id="0b9b73fab5">
      <rect
         x="0"
         width="144"
         y="0"
         height="143"
         id="rect18" />
    </clipPath>
    <clipPath
       id="b72ea14d84">
      <path
         d="M 79.050781,586.58984 H 221.50391 V 729 H 79.050781 Z m 0,0"
         clip-rule="nonzero"
         id="path19" />
    </clipPath>
    <clipPath
       id="d84ac4fcc7">
      <path
         d="M 0.0507812,0.589844 H 142.50391 V 143 H 0.0507812 Z m 0,0"
         clip-rule="nonzero"
         id="path20" />
    </clipPath>
    <clipPath
       id="1a0edbc94a">
      <rect
         x="0"
         width="143"
         y="0"
         height="143"
         id="rect20" />
    </clipPath>
    <clipPath
       id="5e74ba5e82">
      <path
         d="M 748.97266,119.03125 H 891.42578 V 261.4375 H 748.97266 Z m 0,0"
         clip-rule="nonzero"
         id="path21" />
    </clipPath>
    <clipPath
       id="0ef0ab2af9">
      <path
         d="M 904.64062,119.03125 H 1047.0938 V 261.4375 H 904.64062 Z m 0,0"
         clip-rule="nonzero"
         id="path22" />
    </clipPath>
    <clipPath
       id="74d445c86d">
      <path
         d="m 1060.5938,119.03125 h 142.4531 V 261.4375 h -142.4531 z m 0,0"
         clip-rule="nonzero"
         id="path23" />
    </clipPath>
    <clipPath
       id="4e176f06ac">
      <path
         d="M 1216.5469,119.03125 H 1359 V 261.4375 h -142.4531 z m 0,0"
         clip-rule="nonzero"
         id="path24" />
    </clipPath>
    <clipPath
       id="72c7201a4f">
      <path
         d="M 748.97266,274.77734 H 891.42578 V 417.18359 H 748.97266 Z m 0,0"
         clip-rule="nonzero"
         id="path25" />
    </clipPath>
    <clipPath
       id="5632255119">
      <path
         d="M 904.64062,274.77734 H 1047.0938 V 417.18359 H 904.64062 Z m 0,0"
         clip-rule="nonzero"
         id="path26" />
    </clipPath>
    <clipPath
       id="a75fe98d70">
      <path
         d="m 1060.5938,274.77734 h 142.4531 v 142.40625 h -142.4531 z m 0,0"
         clip-rule="nonzero"
         id="path27" />
    </clipPath>
    <clipPath
       id="e20f3eea0a">
      <path
         d="M 1216.5469,274.77734 H 1359 v 142.40625 h -142.4531 z m 0,0"
         clip-rule="nonzero"
         id="path28" />
    </clipPath>
    <clipPath
       id="c3649f7d8a">
      <path
         d="M 748.97266,430.68359 H 891.42578 V 573.08984 H 748.97266 Z m 0,0"
         clip-rule="nonzero"
         id="path29" />
    </clipPath>
    <clipPath
       id="f55e7773e9">
      <path
         d="M 904.64062,430.68359 H 1047.0938 V 573.08984 H 904.64062 Z m 0,0"
         clip-rule="nonzero"
         id="path30" />
    </clipPath>
    <clipPath
       id="244052809a">
      <path
         d="m 1060.5938,430.68359 h 142.4531 v 142.40625 h -142.4531 z m 0,0"
         clip-rule="nonzero"
         id="path31" />
    </clipPath>
    <clipPath
       id="6bc5dff305">
      <path
         d="M 1216.5469,430.68359 H 1359 v 142.40625 h -142.4531 z m 0,0"
         clip-rule="nonzero"
         id="path32" />
    </clipPath>
    <clipPath
       id="832e4415ec">
      <path
         d="M 748.97266,586.58984 H 891.42578 V 728.99609 H 748.97266 Z m 0,0"
         clip-rule="nonzero"
         id="path33" />
    </clipPath>
    <clipPath
       id="c2c5a6b96c">
      <path
         d="M 904.64062,586.58984 H 1047.0938 V 728.99609 H 904.64062 Z m 0,0"
         clip-rule="nonzero"
         id="path34" />
    </clipPath>
    <clipPath
       id="54865635c1">
      <path
         d="m 1060.5938,586.58984 h 142.4531 v 142.40625 h -142.4531 z m 0,0"
         clip-rule="nonzero"
         id="path35" />
    </clipPath>
    <clipPath
       id="380f7d9970">
      <path
         d="M 1216.5469,586.58984 H 1359 v 142.40625 h -142.4531 z m 0,0"
         clip-rule="nonzero"
         id="path36" />
    </clipPath>
    <clipPath
       id="cbf0172c7c">
      <rect
         x="0"
         width="39"
         y="0"
         height="78"
         id="rect36" />
    </clipPath>
    <clipPath
       id="f332205d17">
      <rect
         x="0"
         width="35"
         y="0"
         height="78"
         id="rect37" />
    </clipPath>
    <clipPath
       id="4f2678d773">
      <rect
         x="0"
         width="44"
         y="0"
         height="78"
         id="rect38" />
    </clipPath>
    <clipPath
       id="c1e1749a5b">
      <rect
         x="0"
         width="40"
         y="0"
         height="78"
         id="rect39" />
    </clipPath>
    <clipPath
       id="899a0077fa">
      <rect
         x="0"
         width="40"
         y="0"
         height="78"
         id="rect40" />
    </clipPath>
    <clipPath
       id="2765b8dd6c">
      <rect
         x="0"
         width="39"
         y="0"
         height="77"
         id="rect41" />
    </clipPath>
    <clipPath
       id="d89161853b">
      <rect
         x="0"
         width="39"
         y="0"
         height="78"
         id="rect42" />
    </clipPath>
    <clipPath
       id="d987734ac1">
      <rect
         x="0"
         width="35"
         y="0"
         height="77"
         id="rect43" />
    </clipPath>
    <clipPath
       id="57f2c50384">
      <rect
         x="0"
         width="44"
         y="0"
         height="78"
         id="rect44" />
    </clipPath>
    <clipPath
       id="2d5935ec26">
      <rect
         x="0"
         width="39"
         y="0"
         height="77"
         id="rect45" />
    </clipPath>
    <clipPath
       id="919f0d4c15">
      <rect
         x="0"
         width="40"
         y="0"
         height="77"
         id="rect46" />
    </clipPath>
    <clipPath
       id="522913e439">
      <rect
         x="0"
         width="39"
         y="0"
         height="78"
         id="rect47" />
    </clipPath>
    <clipPath
       id="e2dc074ae1">
      <rect
         x="0"
         width="36"
         y="0"
         height="78"
         id="rect48" />
    </clipPath>
    <clipPath
       id="3c407b87eb">
      <rect
         x="0"
         width="35"
         y="0"
         height="78"
         id="rect49" />
    </clipPath>
    <clipPath
       id="b79f3af1f1">
      <rect
         x="0"
         width="44"
         y="0"
         height="77"
         id="rect50" />
    </clipPath>
    <clipPath
       id="ec7ebd1809">
      <rect
         x="0"
         width="44"
         y="0"
         height="78"
         id="rect51" />
    </clipPath>
    <clipPath
       id="aa075e23c5">
      <rect
         x="0"
         width="199"
         y="0"
         height="54"
         id="rect52" />
    </clipPath>
    <clipPath
       id="4d5f55436a">
      <rect
         x="0"
         width="209"
         y="0"
         height="54"
         id="rect53" />
    </clipPath>
  </defs>
  <g
     clip-path="url(#a113a935e7)"
     id="g58"
     transform="translate(-72.410301,-74.999992)">
    <g
       transform="translate(549,119)"
       id="g57">
      <g
         clip-path="url(#d5aec25a8b)"
         id="g56">
        <g
           clip-path="url(#5e912783da)"
           id="g55">
          <path
             fill="#fff2a8"
             d="M 0.5625,0.03125 H 142.97266 V 142.44141 H 0.5625 Z m 0,0"
             fill-opacity="1"
             fill-rule="nonzero"
             id="path55" />
        </g>
      </g>
    </g>
  </g>
  <g
     clip-path="url(#1332a421ca)"
     id="g62"
     transform="translate(-72.410301,-74.999992)">
    <g
       transform="translate(549,274)"
       id="g61">
      <g
         clip-path="url(#1331860960)"
         id="g60">
        <g
           clip-path="url(#b4a53663c4)"
           id="g59">
          <path
             fill="#fff2a8"
             d="M 0.5625,0.777344 H 142.97266 V 143.18359 H 0.5625 Z m 0,0"
             fill-opacity="1"
             fill-rule="nonzero"
             id="path58" />
        </g>
      </g>
    </g>
  </g>
  <g
     clip-path="url(#57c2614eb0)"
     id="g66"
     transform="translate(-72.410301,-74.999992)">
    <g
       transform="translate(392,274)"
       id="g65">
      <g
         clip-path="url(#180ad262f3)"
         id="g64">
        <g
           clip-path="url(#d890c41389)"
           id="g63">
          <path
             fill="#fff2a8"
             d="M 0.753906,0.777344 H 143.16406 V 143.18359 H 0.753906 Z m 0,0"
             fill-opacity="1"
             fill-rule="nonzero"
             id="path62" />
        </g>
      </g>
    </g>
  </g>
  <g
     clip-path="url(#61f0d18262)"
     id="g70"
     transform="translate(-72.410301,-74.999992)">
    <g
       transform="translate(392,430)"
       id="g69">
      <g
         clip-path="url(#17910d4f3c)"
         id="g68">
        <g
           clip-path="url(#69bcd61572)"
           id="g67">
          <path
             fill="#fff2a8"
             d="M 0.753906,0.683594 H 143.16406 V 143.09375 H 0.753906 Z m 0,0"
             fill-opacity="1"
             fill-rule="nonzero"
             id="path66" />
        </g>
      </g>
    </g>
  </g>
  <g
     clip-path="url(#774ac8341e)"
     id="g74"
     transform="translate(-72.410301,-74.999992)">
    <g
       transform="translate(549,430)"
       id="g73">
      <g
         clip-path="url(#16f0286751)"
         id="g72">
        <g
           clip-path="url(#44ab3894a9)"
           id="g71">
          <path
             fill="#fff2a8"
             d="M 0.5625,0.683594 H 142.97266 V 143.09375 H 0.5625 Z m 0,0"
             fill-opacity="1"
             fill-rule="nonzero"
             id="path70" />
        </g>
      </g>
    </g>
  </g>
  <g
     clip-path="url(#6c7b655ddd)"
     id="g78"
     transform="translate(-72.410301,-74.999992)">
    <g
       transform="translate(235,430)"
       id="g77">
      <g
         clip-path="url(#45301e8309)"
         id="g76">
        <g
           clip-path="url(#59ef0a6318)"
           id="g75">
          <path
             fill="#fff2a8"
             d="M 0.902344,0.683594 H 143.3125 V 143.09375 H 0.902344 Z m 0,0"
             fill-opacity="1"
             fill-rule="nonzero"
             id="path74" />
        </g>
      </g>
    </g>
  </g>
  <g
     clip-path="url(#84f8915c14)"
     id="g82"
     transform="translate(-72.410301,-74.999992)">
    <g
       transform="translate(549,586)"
       id="g81">
      <g
         clip-path="url(#e99ea2dd88)"
         id="g80">
        <g
           clip-path="url(#799f8b98ec)"
           id="g79">
          <path
             fill="#fff2a8"
             d="M 0.5625,0.589844 H 142.97266 V 143 H 0.5625 Z m 0,0"
             fill-opacity="1"
             fill-rule="nonzero"
             id="path78" />
        </g>
      </g>
    </g>
  </g>
  <g
     clip-path="url(#74deeeb0e1)"
     id="g86"
     transform="translate(-72.410301,-74.999992)">
    <g
       transform="translate(392,586)"
       id="g85">
      <g
         clip-path="url(#c6e7f8177c)"
         id="g84">
        <g
           clip-path="url(#e035a64b97)"
           id="g83">
          <path
             fill="#fff2a8"
             d="M 0.753906,0.589844 H 143.16406 V 143 H 0.753906 Z m 0,0"
             fill-opacity="1"
             fill-rule="nonzero"
             id="path82" />
        </g>
      </g>
    </g>
  </g>
  <g
     clip-path="url(#5320236c77)"
     id="g90"
     transform="translate(-72.410301,-74.999992)">
    <g
       transform="translate(235,586)"
       id="g89">
      <g
         clip-path="url(#0b9b73fab5)"
         id="g88">
        <g
           clip-path="url(#be14ce557e)"
           id="g87">
          <path
             fill="#fff2a8"
             d="M 0.902344,0.589844 H 143.3125 V 143 H 0.902344 Z m 0,0"
             fill-opacity="1"
             fill-rule="nonzero"
             id="path86" />
        </g>
      </g>
    </g>
  </g>
  <g
     clip-path="url(#b72ea14d84)"
     id="g94"
     transform="translate(-72.410301,-74.999992)">
    <g
       transform="translate(79,586)"
       id="g93">
      <g
         clip-path="url(#1a0edbc94a)"
         id="g92">
        <g
           clip-path="url(#d84ac4fcc7)"
           id="g91">
          <path
             fill="#fff2a8"
             d="M 0.0507812,0.589844 H 142.46094 V 143 H 0.0507812 Z m 0,0"
             fill-opacity="1"
             fill-rule="nonzero"
             id="path90" />
        </g>
      </g>
    </g>
  </g>
  <g
     clip-path="url(#5e74ba5e82)"
     id="g95"
     transform="translate(-72.410301,-74.999992)">
    <path
       stroke-linecap="butt"
       transform="matrix(0.75,0,0,0.75,748.97289,119.032)"
       fill="none"
       stroke-linejoin="miter"
       d="M -3.09723e-4,-0.00100055 H 189.9372 V 189.87401 H -3.09723e-4 Z m 0,0"
       stroke="#000000"
       stroke-width="12"
       stroke-opacity="1"
       stroke-miterlimit="4"
       id="path94" />
  </g>
  <g
     clip-path="url(#0ef0ab2af9)"
     id="g96"
     transform="translate(-72.410301,-74.999992)">
    <path
       stroke-linecap="butt"
       transform="matrix(0.75,0,0,0.75,904.64199,119.032)"
       fill="none"
       stroke-linejoin="miter"
       d="M -0.00182361,-0.00100055 H 189.93569 V 189.87401 H -0.00182361 Z m 0,0"
       stroke="#000000"
       stroke-width="12"
       stroke-opacity="1"
       stroke-miterlimit="4"
       id="path95" />
  </g>
  <g
     clip-path="url(#74d445c86d)"
     id="g97"
     transform="translate(-72.410301,-74.999992)">
    <path
       stroke-linecap="butt"
       transform="matrix(0.75,0,0,0.75,1060.5944,119.032)"
       fill="none"
       stroke-linejoin="miter"
       d="M -8.89154e-4,-0.00100055 H 189.93662 V 189.87401 H -8.89154e-4 Z m 0,0"
       stroke="#000000"
       stroke-width="12"
       stroke-opacity="1"
       stroke-miterlimit="4"
       id="path96" />
  </g>
  <g
     clip-path="url(#4e176f06ac)"
     id="g98"
     transform="translate(-72.410301,-74.999992)">
    <path
       stroke-linecap="butt"
       transform="matrix(0.75,0,0,0.75,1216.5469,119.032)"
       fill="none"
       stroke-linejoin="miter"
       d="M -8.26925e-5,-0.00100055 H 189.93743 V 189.87401 H -8.26925e-5 Z m 0,0"
       stroke="#000000"
       stroke-width="12"
       stroke-opacity="1"
       stroke-miterlimit="4"
       id="path97" />
  </g>
  <g
     clip-path="url(#72c7201a4f)"
     id="g99"
     transform="translate(-72.410301,-74.999992)">
    <path
       stroke-linecap="butt"
       transform="matrix(0.75,0,0,0.75,748.97289,274.77604)"
       fill="none"
       stroke-linejoin="miter"
       d="M -3.09723e-4,0.00173543 H 189.9372 V 189.87674 H -3.09723e-4 Z m 0,0"
       stroke="#000000"
       stroke-width="12"
       stroke-opacity="1"
       stroke-miterlimit="4"
       id="path98" />
  </g>
  <g
     clip-path="url(#5632255119)"
     id="g100"
     transform="translate(-72.410301,-74.999992)">
    <path
       stroke-linecap="butt"
       transform="matrix(0.75,0,0,0.75,904.64199,274.77604)"
       fill="none"
       stroke-linejoin="miter"
       d="M -0.00182361,0.00173543 H 189.93569 V 189.87674 H -0.00182361 Z m 0,0"
       stroke="#000000"
       stroke-width="12"
       stroke-opacity="1"
       stroke-miterlimit="4"
       id="path99" />
  </g>
  <g
     clip-path="url(#a75fe98d70)"
     id="g101"
     transform="translate(-72.410301,-74.999992)">
    <path
       stroke-linecap="butt"
       transform="matrix(0.75,0,0,0.75,1060.5944,274.77604)"
       fill="none"
       stroke-linejoin="miter"
       d="M -8.89154e-4,0.00173543 H 189.93662 V 189.87674 H -8.89154e-4 Z m 0,0"
       stroke="#000000"
       stroke-width="12"
       stroke-opacity="1"
       stroke-miterlimit="4"
       id="path100" />
  </g>
  <g
     clip-path="url(#e20f3eea0a)"
     id="g102"
     transform="translate(-72.410301,-74.999992)">
    <path
       stroke-linecap="butt"
       transform="matrix(0.75,0,0,0.75,1216.5469,274.77604)"
       fill="none"
       stroke-linejoin="miter"
       d="M -8.26925e-5,0.00173543 H 189.93743 V 189.87674 H -8.26925e-5 Z m 0,0"
       stroke="#000000"
       stroke-width="12"
       stroke-opacity="1"
       stroke-miterlimit="4"
       id="path101" />
  </g>
  <g
     clip-path="url(#c3649f7d8a)"
     id="g103"
     transform="translate(-72.410301,-74.999992)">
    <path
       stroke-linecap="butt"
       transform="matrix(0.75,0,0,0.75,748.97289,430.6835)"
       fill="none"
       stroke-linejoin="miter"
       d="M -3.09723e-4,1.21889e-4 H 189.9372 V 189.87513 H -3.09723e-4 Z m 0,0"
       stroke="#000000"
       stroke-width="12"
       stroke-opacity="1"
       stroke-miterlimit="4"
       id="path102" />
  </g>
  <g
     clip-path="url(#f55e7773e9)"
     id="g104"
     transform="translate(-72.410301,-74.999992)">
    <path
       stroke-linecap="butt"
       transform="matrix(0.75,0,0,0.75,904.64199,430.6835)"
       fill="none"
       stroke-linejoin="miter"
       d="M -0.00182361,1.21889e-4 H 189.93569 V 189.87513 H -0.00182361 Z m 0,0"
       stroke="#000000"
       stroke-width="12"
       stroke-opacity="1"
       stroke-miterlimit="4"
       id="path103" />
  </g>
  <g
     clip-path="url(#244052809a)"
     id="g105"
     transform="translate(-72.410301,-74.999992)">
    <path
       stroke-linecap="butt"
       transform="matrix(0.75,0,0,0.75,1060.5944,430.6835)"
       fill="none"
       stroke-linejoin="miter"
       d="M -8.89154e-4,1.21889e-4 H 189.93662 V 189.87513 H -8.89154e-4 Z m 0,0"
       stroke="#000000"
       stroke-width="12"
       stroke-opacity="1"
       stroke-miterlimit="4"
       id="path104" />
  </g>
  <g
     clip-path="url(#6bc5dff305)"
     id="g106"
     transform="translate(-72.410301,-74.999992)">
    <path
       stroke-linecap="butt"
       transform="matrix(0.75,0,0,0.75,1216.5469,430.6835)"
       fill="none"
       stroke-linejoin="miter"
       d="M -8.26925e-5,1.21889e-4 H 189.93743 V 189.87513 H -8.26925e-5 Z m 0,0"
       stroke="#000000"
       stroke-width="12"
       stroke-opacity="1"
       stroke-miterlimit="4"
       id="path105" />
  </g>
  <g
     clip-path="url(#832e4415ec)"
     id="g107"
     transform="translate(-72.410301,-74.999992)">
    <path
       stroke-linecap="butt"
       transform="matrix(0.75,0,0,0.75,748.97289,586.591)"
       fill="none"
       stroke-linejoin="miter"
       d="M -3.09723e-4,-0.00153965 H 189.9372 V 189.87347 H -3.09723e-4 Z m 0,0"
       stroke="#000000"
       stroke-width="12"
       stroke-opacity="1"
       stroke-miterlimit="4"
       id="path106" />
  </g>
  <g
     clip-path="url(#c2c5a6b96c)"
     id="g108"
     transform="translate(-72.410301,-74.999992)">
    <path
       stroke-linecap="butt"
       transform="matrix(0.75,0,0,0.75,904.64199,586.591)"
       fill="none"
       stroke-linejoin="miter"
       d="M -0.00182361,-0.00153965 H 189.93569 V 189.87347 H -0.00182361 Z m 0,0"
       stroke="#000000"
       stroke-width="12"
       stroke-opacity="1"
       stroke-miterlimit="4"
       id="path107" />
  </g>
  <g
     clip-path="url(#54865635c1)"
     id="g109"
     transform="translate(-72.410301,-74.999992)">
    <path
       stroke-linecap="butt"
       transform="matrix(0.75,0,0,0.75,1060.5944,586.591)"
       fill="none"
       stroke-linejoin="miter"
       d="M -8.89154e-4,-0.00153965 H 189.93662 V 189.87347 H -8.89154e-4 Z m 0,0"
       stroke="#000000"
       stroke-width="12"
       stroke-opacity="1"
       stroke-miterlimit="4"
       id="path108" />
  </g>
  <g
     clip-path="url(#380f7d9970)"
     id="g110"
     transform="translate(-72.410301,-74.999992)">
    <path
       stroke-linecap="butt"
       transform="matrix(0.75,0,0,0.75,1216.5469,586.591)"
       fill="none"
       stroke-linejoin="miter"
       d="M -8.26925e-5,-0.00153965 H 189.93743 V 189.87347 H -8.26925e-5 Z m 0,0"
       stroke="#000000"
       stroke-width="12"
       stroke-opacity="1"
       stroke-miterlimit="4"
       id="path109" />
  </g>
  <g
     transform="translate(729.5897,73.000008)"
     id="g115">
    <g
       clip-path="url(#cbf0172c7c)"
       id="g114">
      <g
         fill="#000000"
         fill-opacity="1"
         id="g113">
        <g
           transform="translate(0.0974268,58.292208)"
           id="g112">
          <g
             id="g111">
            <path
               d="M 26.265625,-8.328125 H 9.9375 L 6.9375,0 H 1.765625 L 15.3125,-37.234375 h 5.640625 L 34.4375,0 h -5.15625 z m -1.390625,-3.96875 -6.765625,-18.90625 -6.78125,18.90625 z m 0,0"
               id="path110" />
          </g>
        </g>
      </g>
    </g>
  </g>
  <g
     transform="translate(889.5897,73.000008)"
     id="g120">
    <g
       clip-path="url(#f332205d17)"
       id="g119">
      <g
         fill="#000000"
         fill-opacity="1"
         id="g118">
        <g
           transform="translate(0.866774,58.292208)"
           id="g117">
          <g
             id="g116">
            <path
               d="m 22.890625,-19.28125 c 1.351563,0.210938 2.59375,0.761719 3.71875,1.65625 1.132813,0.898438 2.03125,2.011719 2.6875,3.34375 0.664063,1.324219 1,2.734375 1,4.234375 0,1.898437 -0.484375,3.609375 -1.453125,5.140625 C 27.875,-3.382812 26.46875,-2.1875 24.625,-1.3125 22.78125,-0.4375 20.609375,0 18.109375,0 H 4.140625 V -37.4375 H 17.5625 c 2.539062,0 4.707031,0.421875 6.5,1.265625 1.789062,0.835937 3.132812,1.96875 4.03125,3.40625 0.894531,1.429687 1.34375,3.039063 1.34375,4.828125 0,2.21875 -0.601562,4.058594 -1.796875,5.515625 -1.199219,1.449219 -2.78125,2.496094 -4.75,3.140625 z M 9.03125,-21.265625 H 17.25 c 2.289062,0 4.0625,-0.535156 5.3125,-1.609375 1.25,-1.082031 1.875,-2.570312 1.875,-4.46875 0,-1.894531 -0.625,-3.378906 -1.875,-4.453125 -1.25,-1.070313 -3.058594,-1.609375 -5.421875,-1.609375 H 9.03125 Z m 8.640625,17.234375 c 2.4375,0 4.332031,-0.570312 5.6875,-1.71875 1.363281,-1.144531 2.046875,-2.738281 2.046875,-4.78125 0,-2.070312 -0.71875,-3.707031 -2.15625,-4.90625 -1.429688,-1.207031 -3.339844,-1.8125 -5.734375,-1.8125 H 9.03125 v 13.21875 z m 0,0"
               id="path115" />
          </g>
        </g>
      </g>
    </g>
  </g>
  <g
     transform="translate(1037.5897,73.000008)"
     id="g125">
    <g
       clip-path="url(#4f2678d773)"
       id="g124">
      <g
         fill="#000000"
         fill-opacity="1"
         id="g123">
        <g
           transform="translate(1.079364,58.292208)"
           id="g122">
          <g
             id="g121">
            <path
               d="m 2.3125,-18.75 c 0,-3.65625 0.820312,-6.941406 2.46875,-9.859375 1.644531,-2.914063 3.890625,-5.195313 6.734375,-6.84375 2.851563,-1.644531 6.015625,-2.46875 9.484375,-2.46875 4.082031,0 7.644531,0.984375 10.6875,2.953125 3.050781,1.96875 5.273438,4.761719 6.671875,8.375 H 32.5 c -1.042969,-2.25 -2.539062,-3.984375 -4.484375,-5.203125 C 26.066406,-33.015625 23.726562,-33.625 21,-33.625 c -2.617188,0 -4.964844,0.609375 -7.046875,1.828125 -2.074219,1.21875 -3.699219,2.949219 -4.875,5.1875 C 7.898438,-24.378906 7.3125,-21.757812 7.3125,-18.75 c 0,2.96875 0.585938,5.574219 1.765625,7.8125 1.175781,2.242188 2.800781,3.96875 4.875,5.1875 2.082031,1.21875 4.429687,1.828125 7.046875,1.828125 2.726562,0 5.066406,-0.597656 7.015625,-1.796875 1.945313,-1.195312 3.441406,-2.925781 4.484375,-5.1875 h 5.859375 C 36.960938,-7.320312 34.738281,-4.550781 31.6875,-2.59375 28.644531,-0.644531 25.082031,0.328125 21,0.328125 c -3.46875,0 -6.632812,-0.8125 -9.484375,-2.4375 C 8.671875,-3.742188 6.425781,-6.007812 4.78125,-8.90625 3.132812,-11.8125 2.3125,-15.09375 2.3125,-18.75 Z m 0,0"
               id="path120" />
          </g>
        </g>
      </g>
    </g>
  </g>
  <g
     transform="translate(1200.5897,73.000008)"
     id="g130">
    <g
       clip-path="url(#c1e1749a5b)"
       id="g129">
      <g
         fill="#000000"
         fill-opacity="1"
         id="g128">
        <g
           transform="translate(1.139434,58.292208)"
           id="g127">
          <g
             id="g126">
            <path
               d="m 15.796875,-37.4375 c 4.082031,0 7.617187,0.761719 10.609375,2.28125 2.988281,1.523438 5.28125,3.699219 6.875,6.53125 1.59375,2.824219 2.390625,6.152344 2.390625,9.984375 0,3.835937 -0.796875,7.15625 -2.390625,9.96875 -1.59375,2.8125 -3.886719,4.964844 -6.875,6.453125 C 23.414062,-0.738281 19.878906,0 15.796875,0 H 4.140625 v -37.4375 z m 0,33.40625 c 4.832031,0 8.519531,-1.273438 11.0625,-3.828125 2.539063,-2.5625 3.8125,-6.15625 3.8125,-10.78125 0,-4.65625 -1.28125,-8.289063 -3.84375,-10.90625 -2.5625,-2.613281 -6.242187,-3.921875 -11.03125,-3.921875 H 9.03125 v 29.4375 z m 0,0"
               id="path125" />
          </g>
        </g>
      </g>
    </g>
  </g>
  <g
     transform="translate(884.5897,231.00001)"
     id="g135">
    <g
       clip-path="url(#899a0077fa)"
       id="g134">
      <g
         fill="#000000"
         fill-opacity="1"
         id="g133">
        <g
           transform="translate(0.908161,58.086502)"
           id="g132">
          <g
             id="g131">
            <path
               d="M 26.265625,-8.328125 H 9.9375 L 6.9375,0 H 1.765625 L 15.3125,-37.234375 h 5.640625 L 34.4375,0 h -5.15625 z m -1.390625,-3.96875 -6.765625,-18.90625 -6.78125,18.90625 z m 0,0"
               id="path130" />
          </g>
        </g>
      </g>
    </g>
  </g>
  <g
     transform="translate(1040.5897,389.00001)"
     id="g140">
    <g
       clip-path="url(#2765b8dd6c)"
       id="g139">
      <g
         fill="#000000"
         fill-opacity="1"
         id="g138">
        <g
           transform="translate(0.718896,57.839883)"
           id="g137">
          <g
             id="g136">
            <path
               d="M 26.265625,-8.328125 H 9.9375 L 6.9375,0 H 1.765625 L 15.3125,-37.234375 h 5.640625 L 34.4375,0 h -5.15625 z m -1.390625,-3.96875 -6.765625,-18.90625 -6.78125,18.90625 z m 0,0"
               id="path135" />
          </g>
        </g>
      </g>
    </g>
  </g>
  <g
     transform="translate(1196.5897,543.00001)"
     id="g145">
    <g
       clip-path="url(#d89161853b)"
       id="g144">
      <g
         fill="#000000"
         fill-opacity="1"
         id="g143">
        <g
           transform="translate(0.671427,57.819709)"
           id="g142">
          <g
             id="g141">
            <path
               d="M 26.265625,-8.328125 H 9.9375 L 6.9375,0 H 1.765625 L 15.3125,-37.234375 h 5.640625 L 34.4375,0 h -5.15625 z m -1.390625,-3.96875 -6.765625,-18.90625 -6.78125,18.90625 z m 0,0"
               id="path140" />
          </g>
        </g>
      </g>
    </g>
  </g>
  <g
     transform="translate(1040.5897,233.00001)"
     id="g150">
    <g
       clip-path="url(#d987734ac1)"
       id="g149">
      <g
         fill="#000000"
         fill-opacity="1"
         id="g148">
        <g
           transform="translate(0.687489,57.676707)"
           id="g147">
          <g
             id="g146">
            <path
               d="m 22.890625,-19.28125 c 1.351563,0.210938 2.59375,0.761719 3.71875,1.65625 1.132813,0.898438 2.03125,2.011719 2.6875,3.34375 0.664063,1.324219 1,2.734375 1,4.234375 0,1.898437 -0.484375,3.609375 -1.453125,5.140625 C 27.875,-3.382812 26.46875,-2.1875 24.625,-1.3125 22.78125,-0.4375 20.609375,0 18.109375,0 H 4.140625 V -37.4375 H 17.5625 c 2.539062,0 4.707031,0.421875 6.5,1.265625 1.789062,0.835937 3.132812,1.96875 4.03125,3.40625 0.894531,1.429687 1.34375,3.039063 1.34375,4.828125 0,2.21875 -0.601562,4.058594 -1.796875,5.515625 -1.199219,1.449219 -2.78125,2.496094 -4.75,3.140625 z M 9.03125,-21.265625 H 17.25 c 2.289062,0 4.0625,-0.535156 5.3125,-1.609375 1.25,-1.082031 1.875,-2.570312 1.875,-4.46875 0,-1.894531 -0.625,-3.378906 -1.875,-4.453125 -1.25,-1.070313 -3.058594,-1.609375 -5.421875,-1.609375 H 9.03125 Z m 8.640625,17.234375 c 2.4375,0 4.332031,-0.570312 5.6875,-1.71875 1.363281,-1.144531 2.046875,-2.738281 2.046875,-4.78125 0,-2.070312 -0.71875,-3.707031 -2.15625,-4.90625 -1.429688,-1.207031 -3.339844,-1.8125 -5.734375,-1.8125 H 9.03125 v 13.21875 z m 0,0"
               id="path145" />
          </g>
        </g>
      </g>
    </g>
  </g>
  <g
     transform="translate(1193.5897,231.00001)"
     id="g155">
    <g
       clip-path="url(#57f2c50384)"
       id="g154">
      <g
         fill="#000000"
         fill-opacity="1"
         id="g153">
        <g
           transform="translate(1.031778,57.876912)"
           id="g152">
          <g
             id="g151">
            <path
               d="m 2.3125,-18.75 c 0,-3.65625 0.820312,-6.941406 2.46875,-9.859375 1.644531,-2.914063 3.890625,-5.195313 6.734375,-6.84375 2.851563,-1.644531 6.015625,-2.46875 9.484375,-2.46875 4.082031,0 7.644531,0.984375 10.6875,2.953125 3.050781,1.96875 5.273438,4.761719 6.671875,8.375 H 32.5 c -1.042969,-2.25 -2.539062,-3.984375 -4.484375,-5.203125 C 26.066406,-33.015625 23.726562,-33.625 21,-33.625 c -2.617188,0 -4.964844,0.609375 -7.046875,1.828125 -2.074219,1.21875 -3.699219,2.949219 -4.875,5.1875 C 7.898438,-24.378906 7.3125,-21.757812 7.3125,-18.75 c 0,2.96875 0.585938,5.574219 1.765625,7.8125 1.175781,2.242188 2.800781,3.96875 4.875,5.1875 2.082031,1.21875 4.429687,1.828125 7.046875,1.828125 2.726562,0 5.066406,-0.597656 7.015625,-1.796875 1.945313,-1.195312 3.441406,-2.925781 4.484375,-5.1875 h 5.859375 C 36.960938,-7.320312 34.738281,-4.550781 31.6875,-2.59375 28.644531,-0.644531 25.082031,0.328125 21,0.328125 c -3.46875,0 -6.632812,-0.8125 -9.484375,-2.4375 C 8.671875,-3.742188 6.425781,-6.007812 4.78125,-8.90625 3.132812,-11.8125 2.3125,-15.09375 2.3125,-18.75 Z m 0,0"
               id="path150" />
          </g>
        </g>
      </g>
    </g>
  </g>
  <g
     transform="translate(728.5897,233.00001)"
     id="g160">
    <g
       clip-path="url(#2d5935ec26)"
       id="g159">
      <g
         fill="#000000"
         fill-opacity="1"
         id="g158">
        <g
           transform="translate(0.213833,57.676707)"
           id="g157">
          <g
             id="g156">
            <path
               d="m 15.796875,-37.4375 c 4.082031,0 7.617187,0.761719 10.609375,2.28125 2.988281,1.523438 5.28125,3.699219 6.875,6.53125 1.59375,2.824219 2.390625,6.152344 2.390625,9.984375 0,3.835937 -0.796875,7.15625 -2.390625,9.96875 -1.59375,2.8125 -3.886719,4.964844 -6.875,6.453125 C 23.414062,-0.738281 19.878906,0 15.796875,0 H 4.140625 v -37.4375 z m 0,33.40625 c 4.832031,0 8.519531,-1.273438 11.0625,-3.828125 2.539063,-2.5625 3.8125,-6.15625 3.8125,-10.78125 0,-4.65625 -1.28125,-8.289063 -3.84375,-10.90625 -2.5625,-2.613281 -6.242187,-3.921875 -11.03125,-3.921875 H 9.03125 v 29.4375 z m 0,0"
               id="path155" />
          </g>
        </g>
      </g>
    </g>
  </g>
  <g
     transform="translate(882.5897,389.00001)"
     id="g165">
    <g
       clip-path="url(#919f0d4c15)"
       id="g164">
      <g
         fill="#000000"
         fill-opacity="1"
         id="g163">
        <g
           transform="translate(1.030759,57.839883)"
           id="g162">
          <g
             id="g161">
            <path
               d="m 15.796875,-37.4375 c 4.082031,0 7.617187,0.761719 10.609375,2.28125 2.988281,1.523438 5.28125,3.699219 6.875,6.53125 1.59375,2.824219 2.390625,6.152344 2.390625,9.984375 0,3.835937 -0.796875,7.15625 -2.390625,9.96875 -1.59375,2.8125 -3.886719,4.964844 -6.875,6.453125 C 23.414062,-0.738281 19.878906,0 15.796875,0 H 4.140625 v -37.4375 z m 0,33.40625 c 4.832031,0 8.519531,-1.273438 11.0625,-3.828125 2.539063,-2.5625 3.8125,-6.15625 3.8125,-10.78125 0,-4.65625 -1.28125,-8.289063 -3.84375,-10.90625 -2.5625,-2.613281 -6.242187,-3.921875 -11.03125,-3.921875 H 9.03125 v 29.4375 z m 0,0"
               id="path160" />
          </g>
        </g>
      </g>
    </g>
  </g>
  <g
     transform="translate(1041.5897,543.00001)"
     id="g170">
    <g
       clip-path="url(#522913e439)"
       id="g169">
      <g
         fill="#000000"
         fill-opacity="1"
         id="g168">
        <g
           transform="translate(0.591356,57.819709)"
           id="g167">
          <g
             id="g166">
            <path
               d="m 15.796875,-37.4375 c 4.082031,0 7.617187,0.761719 10.609375,2.28125 2.988281,1.523438 5.28125,3.699219 6.875,6.53125 1.59375,2.824219 2.390625,6.152344 2.390625,9.984375 0,3.835937 -0.796875,7.15625 -2.390625,9.96875 -1.59375,2.8125 -3.886719,4.964844 -6.875,6.453125 C 23.414062,-0.738281 19.878906,0 15.796875,0 H 4.140625 v -37.4375 z m 0,33.40625 c 4.832031,0 8.519531,-1.273438 11.0625,-3.828125 2.539063,-2.5625 3.8125,-6.15625 3.8125,-10.78125 0,-4.65625 -1.28125,-8.289063 -3.84375,-10.90625 -2.5625,-2.613281 -6.242187,-3.921875 -11.03125,-3.921875 H 9.03125 v 29.4375 z m 0,0"
               id="path165" />
          </g>
        </g>
      </g>
    </g>
  </g>
  <g
     transform="translate(1199.5897,387.00001)"
     id="g175">
    <g
       clip-path="url(#e2dc074ae1)"
       id="g174">
      <g
         fill="#000000"
         fill-opacity="1"
         id="g173">
        <g
           transform="translate(0.940489,57.912236)"
           id="g172">
          <g
             id="g171">
            <path
               d="m 22.890625,-19.28125 c 1.351563,0.210938 2.59375,0.761719 3.71875,1.65625 1.132813,0.898438 2.03125,2.011719 2.6875,3.34375 0.664063,1.324219 1,2.734375 1,4.234375 0,1.898437 -0.484375,3.609375 -1.453125,5.140625 C 27.875,-3.382812 26.46875,-2.1875 24.625,-1.3125 22.78125,-0.4375 20.609375,0 18.109375,0 H 4.140625 V -37.4375 H 17.5625 c 2.539062,0 4.707031,0.421875 6.5,1.265625 1.789062,0.835937 3.132812,1.96875 4.03125,3.40625 0.894531,1.429687 1.34375,3.039063 1.34375,4.828125 0,2.21875 -0.601562,4.058594 -1.796875,5.515625 -1.199219,1.449219 -2.78125,2.496094 -4.75,3.140625 z M 9.03125,-21.265625 H 17.25 c 2.289062,0 4.0625,-0.535156 5.3125,-1.609375 1.25,-1.082031 1.875,-2.570312 1.875,-4.46875 0,-1.894531 -0.625,-3.378906 -1.875,-4.453125 -1.25,-1.070313 -3.058594,-1.609375 -5.421875,-1.609375 H 9.03125 Z m 8.640625,17.234375 c 2.4375,0 4.332031,-0.570312 5.6875,-1.71875 1.363281,-1.144531 2.046875,-2.738281 2.046875,-4.78125 0,-2.070312 -0.71875,-3.707031 -2.15625,-4.90625 -1.429688,-1.207031 -3.339844,-1.8125 -5.734375,-1.8125 H 9.03125 v 13.21875 z m 0,0"
               id="path170" />
          </g>
        </g>
      </g>
    </g>
  </g>
  <g
     transform="translate(728.5897,543.00001)"
     id="g180">
    <g
       clip-path="url(#3c407b87eb)"
       id="g179">
      <g
         fill="#000000"
         fill-opacity="1"
         id="g178">
        <g
           transform="translate(0.213833,57.819709)"
           id="g177">
          <g
             id="g176">
            <path
               d="m 22.890625,-19.28125 c 1.351563,0.210938 2.59375,0.761719 3.71875,1.65625 1.132813,0.898438 2.03125,2.011719 2.6875,3.34375 0.664063,1.324219 1,2.734375 1,4.234375 0,1.898437 -0.484375,3.609375 -1.453125,5.140625 C 27.875,-3.382812 26.46875,-2.1875 24.625,-1.3125 22.78125,-0.4375 20.609375,0 18.109375,0 H 4.140625 V -37.4375 H 17.5625 c 2.539062,0 4.707031,0.421875 6.5,1.265625 1.789062,0.835937 3.132812,1.96875 4.03125,3.40625 0.894531,1.429687 1.34375,3.039063 1.34375,4.828125 0,2.21875 -0.601562,4.058594 -1.796875,5.515625 -1.199219,1.449219 -2.78125,2.496094 -4.75,3.140625 z M 9.03125,-21.265625 H 17.25 c 2.289062,0 4.0625,-0.535156 5.3125,-1.609375 1.25,-1.082031 1.875,-2.570312 1.875,-4.46875 0,-1.894531 -0.625,-3.378906 -1.875,-4.453125 -1.25,-1.070313 -3.058594,-1.609375 -5.421875,-1.609375 H 9.03125 Z m 8.640625,17.234375 c 2.4375,0 4.332031,-0.570312 5.6875,-1.71875 1.363281,-1.144531 2.046875,-2.738281 2.046875,-4.78125 0,-2.070312 -0.71875,-3.707031 -2.15625,-4.90625 -1.429688,-1.207031 -3.339844,-1.8125 -5.734375,-1.8125 H 9.03125 v 13.21875 z m 0,0"
               id="path175" />
          </g>
        </g>
      </g>
    </g>
  </g>
  <g
     transform="translate(723.5897,389.00001)"
     id="g185">
    <g
       clip-path="url(#b79f3af1f1)"
       id="g184">
      <g
         fill="#000000"
         fill-opacity="1"
         id="g183">
        <g
           transform="translate(0.818189,57.839883)"
           id="g182">
          <g
             id="g181">
            <path
               d="m 2.3125,-18.75 c 0,-3.65625 0.820312,-6.941406 2.46875,-9.859375 1.644531,-2.914063 3.890625,-5.195313 6.734375,-6.84375 2.851563,-1.644531 6.015625,-2.46875 9.484375,-2.46875 4.082031,0 7.644531,0.984375 10.6875,2.953125 3.050781,1.96875 5.273438,4.761719 6.671875,8.375 H 32.5 c -1.042969,-2.25 -2.539062,-3.984375 -4.484375,-5.203125 C 26.066406,-33.015625 23.726562,-33.625 21,-33.625 c -2.617188,0 -4.964844,0.609375 -7.046875,1.828125 -2.074219,1.21875 -3.699219,2.949219 -4.875,5.1875 C 7.898438,-24.378906 7.3125,-21.757812 7.3125,-18.75 c 0,2.96875 0.585938,5.574219 1.765625,7.8125 1.175781,2.242188 2.800781,3.96875 4.875,5.1875 2.082031,1.21875 4.429687,1.828125 7.046875,1.828125 2.726562,0 5.066406,-0.597656 7.015625,-1.796875 1.945313,-1.195312 3.441406,-2.925781 4.484375,-5.1875 h 5.859375 C 36.960938,-7.320312 34.738281,-4.550781 31.6875,-2.59375 28.644531,-0.644531 25.082031,0.328125 21,0.328125 c -3.46875,0 -6.632812,-0.8125 -9.484375,-2.4375 C 8.671875,-3.742188 6.425781,-6.007812 4.78125,-8.90625 3.132812,-11.8125 2.3125,-15.09375 2.3125,-18.75 Z m 0,0"
               id="path180" />
          </g>
        </g>
      </g>
    </g>
  </g>
  <g
     transform="translate(882.5897,543.00001)"
     id="g190">
    <g
       clip-path="url(#ec7ebd1809)"
       id="g189">
      <g
         fill="#000000"
         fill-opacity="1"
         id="g188">
        <g
           transform="translate(1.030759,57.947561)"
           id="g187">
          <g
             id="g186">
            <path
               d="m 2.3125,-18.75 c 0,-3.65625 0.820312,-6.941406 2.46875,-9.859375 1.644531,-2.914063 3.890625,-5.195313 6.734375,-6.84375 2.851563,-1.644531 6.015625,-2.46875 9.484375,-2.46875 4.082031,0 7.644531,0.984375 10.6875,2.953125 3.050781,1.96875 5.273438,4.761719 6.671875,8.375 H 32.5 c -1.042969,-2.25 -2.539062,-3.984375 -4.484375,-5.203125 C 26.066406,-33.015625 23.726562,-33.625 21,-33.625 c -2.617188,0 -4.964844,0.609375 -7.046875,1.828125 -2.074219,1.21875 -3.699219,2.949219 -4.875,5.1875 C 7.898438,-24.378906 7.3125,-21.757812 7.3125,-18.75 c 0,2.96875 0.585938,5.574219 1.765625,7.8125 1.175781,2.242188 2.800781,3.96875 4.875,5.1875 2.082031,1.21875 4.429687,1.828125 7.046875,1.828125 2.726562,0 5.066406,-0.597656 7.015625,-1.796875 1.945313,-1.195312 3.441406,-2.925781 4.484375,-5.1875 h 5.859375 C 36.960938,-7.320312 34.738281,-4.550781 31.6875,-2.59375 28.644531,-0.644531 25.082031,0.328125 21,0.328125 c -3.46875,0 -6.632812,-0.8125 -9.484375,-2.4375 C 8.671875,-3.742188 6.425781,-6.007812 4.78125,-8.90625 3.132812,-11.8125 2.3125,-15.09375 2.3125,-18.75 Z m 0,0"
               id="path185" />
          </g>
        </g>
      </g>
    </g>
  </g>
  <g
     transform="translate(5.5896991,-27.999992)"
     id="g225">
    <g
       clip-path="url(#aa075e23c5)"
       id="g224">
      <g
         fill="#000000"
         fill-opacity="1"
         id="g220">
        <g
           transform="translate(175.79496,40.285836)"
           id="g219">
          <g
             id="g218" />
        </g>
      </g>
    </g>
  </g>
  <text
     xml:space="preserve"
     style="font-size:40px;font-family:'Segoe UI';-inkscape-font-specification:'Segoe UI';text-align:start;writing-mode:lr-tb;direction:ltr;text-anchor:start;fill:#ffcc00;stroke:#000000;stroke-width:3.918"
     x="-1.712875"
     y="32.492851"
     id="text260"><tspan
       sodipodi:role="line"
       id="tspan260"
       style="stroke-width:3.918"
       x="-1.712875"
       y="32.492851">Board 1</tspan></text>
  <text
     xml:space="preserve"
     style="font-size:40px;font-family:'Segoe UI';-inkscape-font-specification:'Segoe UI';text-align:start;writing-mode:lr-tb;direction:ltr;text-anchor:start;fill:#ffcc00;stroke:#000000;stroke-width:3.918"
     x="680.73767"
     y="31.568375"
     id="text260-9"><tspan
       sodipodi:role="line"
       id="tspan260-4"
       style="stroke-width:3.918"
       x="680.73767"
       y="31.568375">Board 2</tspan></text>
</svg>
