<?xml version="1.0" encoding="UTF-8" standalone="no"?>
<!DOCTYPE svg PUBLIC "-//W3C//DTD SVG 1.1//EN" "http://www.w3.org/Graphics/SVG/1.1/DTD/svg11.dtd">
<svg width="100%" height="100%" viewBox="0 0 1472 1217" version="1.1" xmlns="http://www.w3.org/2000/svg" xmlns:xlink="http://www.w3.org/1999/xlink" xml:space="preserve" xmlns:serif="http://www.serif.com/" style="fill-rule:evenodd;clip-rule:evenodd;stroke-linecap:round;stroke-linejoin:round;stroke-miterlimit:1.5;">
    <g transform="matrix(1,0,0,1,-4164.99,-1412.97)">
        <path d="M4525.9,1467.82C4593.99,1399.73 4733.51,1582.21 4740.33,1595.61C4779.32,1672.19 4687.94,1806.49 4782.91,1843.69C4790.29,1846.59 4847.17,1851.62 4957.18,1935.51C5059.83,2013.8 5144.96,2095.34 5158.71,2111.04C5190.35,2147.17 5214.46,2147.39 5211.9,2183.13C5265.37,2206.89 5376.37,2316.74 5439.12,2338.19C5459.94,2345.31 5529.1,2352.79 5559.44,2387.44C5572.69,2402.57 5569.14,2404.39 5574.39,2423.86C5582.62,2454.34 5630.98,2580.8 5636.16,2594.35C5606.79,2590.16 5314.15,2469.13 5276.56,2450.62C5199.44,2311.09 5231.49,2180.44 5159.88,2244.8C5149.71,2253.94 5155.86,2257.84 5148.73,2269.46C5123.03,2311.34 5011.49,2372.13 4969.7,2434.95C4933.26,2489.74 4875.72,2530.19 4869.85,2564.39C4868.73,2570.9 4869.08,2577.59 4868.03,2584.11C4863.18,2614.17 4845.57,2618.62 4825.86,2621.8C4819.32,2622.86 4594.92,2644.53 4598.36,2606.98C4599.45,2595.14 4659.88,2586.99 4662.74,2584.74C4704.03,2552.21 4900.12,2412.99 4873.18,2336.33C4868.81,2323.9 4853.44,2307.7 4851.35,2305.51C4791.85,2242.83 4631.82,2072.13 4583.32,2055.28C4558.57,2046.68 4547.57,2042.3 4445.11,2050.56C4427.73,2051.97 4155.11,2081.92 4183.27,2024.63C4194.86,2001.06 4321.75,1976.83 4331.53,1969.96C4347.44,1958.78 4346.47,1957.76 4362.56,1946.91C4374.18,1939.06 4395.91,1935.86 4488.15,1901.28C4427.13,1741.38 4484.88,1719.95 4462.9,1652.26C4440.2,1582.33 4368.12,1675.25 4343.98,1615.59C4319.49,1555.04 4514.93,1514.07 4525.9,1467.82Z" style="fill:rgb(193,191,191);"/>
        <g transform="matrix(1,0,0,1,1408.56,313.89)">
            <g transform="matrix(1.11022e-16,-0.502924,0.502924,1.11022e-16,2515.93,1661.12)">
                <path d="M747.903,872.925L747.903,1578.44L1109.25,1225.68L747.903,872.925Z" style="fill:rgb(40,101,186);stroke:rgb(0,51,122);stroke-width:16.57px;"/>
            </g>
            <g transform="matrix(-0.707827,-0.706386,0.706386,-0.707827,4244.99,4049.43)">
                <path d="M2853.88,1221.41C2855.71,1273.53 2852.37,1265.59 2852.67,1270.11C2853.91,1288.67 2777.72,1285.07 2776.56,1276.39C2774.09,1257.86 2851.24,1179.26 2853.88,1221.41Z" style="fill:rgb(99,141,200);"/>
            </g>
        </g>
        <g transform="matrix(1,0,0,1,1285.39,1610.52)">
            <g transform="matrix(1,0,0,1,2810.31,-643.126)">
                <path d="M747.903,872.925L747.903,1578.44L1109.25,1225.68L747.903,872.925Z" style="fill:rgb(40,101,186);stroke:rgb(0,51,122);stroke-width:8.33px;"/>
            </g>
            <g transform="matrix(1,0,0,1,2901.92,-693.672)">
                <path d="M834.465,1149.2C826.743,1129.37 927.727,1234.41 963.982,1272.5C971.849,1280.76 965.539,1294.6 965.539,1294.6L915.301,1334.66C915.301,1334.66 890.173,1348 882.832,1342.46C875.093,1336.61 867.083,1325.75 866.826,1305.78C866.087,1248.41 840.488,1164.68 834.465,1149.2Z" style="fill:rgb(99,141,200);"/>
            </g>
        </g>
        <g transform="matrix(1,0,0,1,-852.233,1993.44)">
            <g transform="matrix(0.355621,0.355621,0.355621,-0.355621,4862.84,644.711)">
                <path d="M747.903,872.925L747.903,1578.44L1109.25,1225.68L747.903,872.925Z" style="fill:rgb(40,101,186);stroke:rgb(0,51,122);stroke-width:16.57px;"/>
            </g>
            <g transform="matrix(1,0,0,1,2819.25,-701.2)">
                <path d="M2850.91,1213.52C2852.74,1265.63 2852.37,1265.59 2852.67,1270.11C2853.91,1288.67 2797.67,1285.26 2796.51,1276.57C2794.04,1258.05 2848.28,1171.36 2850.91,1213.52Z" style="fill:rgb(99,141,200);"/>
            </g>
        </g>
        <g transform="matrix(0.410416,-0.911898,0.911898,0.410416,3252.69,5908.88)">
            <g transform="matrix(-0.502924,-8.02271e-17,8.02271e-17,-0.502924,4564.7,1049.14)">
                <path d="M1108.67,1226.31L1108.67,520.962L748.021,873.039L747.903,1578.44L1108.67,1226.31" style="fill:rgb(40,101,186);stroke:rgb(0,51,122);stroke-width:16.57px;"/>
            </g>
            <g transform="matrix(0.588016,0.11863,-0.154641,0.76651,3715.09,-417.378)">
                <path d="M847.052,1190.03C841.671,1170.21 847.472,1154.84 870.075,1176.72C900.763,1206.43 943.105,1250.56 963.982,1272.5C971.849,1280.76 965.539,1294.6 965.539,1294.6L924.818,1331.73C924.818,1331.73 894.877,1368.23 887.536,1362.69C879.798,1356.84 859.479,1285.49 859.222,1265.52C858.758,1229.53 856.113,1223.41 847.052,1190.03Z" style="fill:rgb(99,141,200);"/>
            </g>
        </g>
        <g transform="matrix(1,0,0,1,-1605.03,1445.35)">
            <g transform="matrix(1.11022e-16,-0.502924,0.502924,1.11022e-16,5335.18,959.916)">
                <path d="M747.903,872.925L747.903,1578.44L1109.25,1225.68L747.903,872.925Z" style="fill:rgb(40,101,186);stroke:rgb(0,51,122);stroke-width:16.57px;"/>
            </g>
            <g transform="matrix(-0.707827,-0.706386,0.706386,-0.707827,7064.24,3348.23)">
                <path d="M2853.88,1221.41C2855.71,1273.53 2852.37,1265.59 2852.67,1270.11C2853.91,1288.67 2777.72,1285.07 2776.56,1276.39C2774.09,1257.86 2851.24,1179.26 2853.88,1221.41Z" style="fill:rgb(99,141,200);"/>
            </g>
        </g>
        <g transform="matrix(0.707107,-0.707107,0.707107,0.707107,745.15,4828.03)">
            <g transform="matrix(0.635278,-0.635278,0.635278,0.635278,1713.86,1224.65)">
                <rect x="2936.48" y="1833.95" width="274.399" height="274.399" style="fill:rgb(40,101,186);stroke:rgb(0,51,122);stroke-width:9.28px;"/>
            </g>
            <g transform="matrix(1,0,0,1,2819.25,-701.2)">
                <path d="M2106.48,1091.09C2102.53,1089.71 2203.51,1179.78 2089.22,1141.68C2057.71,1131.18 2091.69,1092.12 2106.48,1091.09Z" style="fill:rgb(99,141,200);"/>
            </g>
        </g>
        <g transform="matrix(-6.12323e-17,1,1,6.12323e-17,4079.74,-2447.69)">
            <g transform="matrix(-0.707107,0.707107,-0.707107,-0.707107,5939.18,851.404)">
                <path d="M747.903,872.925L747.903,1578.44L1109.25,1225.68L747.903,872.925Z" style="fill:rgb(40,101,186);stroke:rgb(0,51,122);stroke-width:8.33px;"/>
            </g>
            <g transform="matrix(-0.683695,0.729768,-0.729768,-0.683695,5921.97,904.709)">
                <path d="M834.465,1149.2C826.743,1129.37 927.727,1234.41 963.982,1272.5C971.849,1280.76 965.539,1294.6 965.539,1294.6L915.301,1334.66C915.301,1334.66 890.173,1348 882.832,1342.46C875.093,1336.61 867.083,1325.75 866.826,1305.78C866.087,1248.41 840.488,1164.68 834.465,1149.2Z" style="fill:rgb(99,141,200);"/>
            </g>
        </g>
    </g>
</svg>
