<?xml version="1.0" encoding="UTF-8" standalone="no"?>
<!DOCTYPE svg PUBLIC "-//W3C//DTD SVG 1.1//EN" "http://www.w3.org/Graphics/SVG/1.1/DTD/svg11.dtd">
<svg width="100%" height="100%" viewBox="0 0 967 1141" version="1.1" xmlns="http://www.w3.org/2000/svg" xmlns:xlink="http://www.w3.org/1999/xlink" xml:space="preserve" xmlns:serif="http://www.serif.com/" style="fill-rule:evenodd;clip-rule:evenodd;stroke-linecap:round;stroke-linejoin:round;stroke-miterlimit:1.5;">
    <g transform="matrix(1,0,0,1,-281.246,-2030.97)">
        <path d="M1001.03,2071.61C1009,2067.26 1012.37,2319.76 996.35,2307.36C974.33,2290.3 663.649,2362.13 834.987,2144.29C842.4,2134.87 814.392,2081.7 928.691,2058.84C963.197,2051.94 987.904,2045.4 1001.03,2071.61ZM598.957,2225.16C634.853,2195.4 665.219,2183.04 674.786,2211.74C690.394,2258.57 696.428,2339.95 750.298,2366.88C753.881,2368.68 881.053,2522.87 954.772,2477.17C959.865,2475.51 1008.69,2472.86 990.563,2515.16C972.85,2556.49 899.295,2588.78 961.731,2638.73C985.529,2657.76 1045.62,2741.9 1052.35,2751.31C1108.75,2830.27 1088.79,2849.23 1177.28,2902.33C1183.57,2906.1 1287.3,2968.34 1222.59,2981.96C1207.12,2985.22 1184.85,2966.34 1144.33,2976.47C1094.56,2988.91 979.549,3166.62 926.035,3168.68C891.136,3170.02 632.121,3178.08 619.868,3153.58C602.362,3118.57 765.496,3074.75 790.113,2927.04C794.5,2900.73 753.504,2926.02 677.532,2920.18C513.873,2907.59 430.626,3173.99 427.657,3067.08C427.093,3046.8 425.628,2994.05 431.858,2813.47C496.482,2807.8 495.204,2793.8 619.868,2802.11C717.496,2808.62 615.879,2743.54 592.41,2700.51C530.818,2587.59 149.434,2445.87 328.805,2436.9C397.987,2433.44 413.223,2458.99 449.624,2399.83C459.289,2384.13 514.671,2322.43 533.32,2298.65C474.789,2287.95 326.877,2310.6 331.727,2282C331.828,2281.4 559.281,2078.5 561.52,2078.05C561.52,2078.05 588.099,2062.89 590.395,2095.03C591.237,2106.82 595.311,2163.85 598.957,2225.16Z" style="fill:rgb(193,191,191);"/>
        <path d="M514.451,2129.14C516.182,2131.96 517.913,2134.78 519.644,2137.6" style="fill:rgb(193,191,191);stroke:black;stroke-width:8.33px;"/>
        <g transform="matrix(6.12323e-17,-1,1,6.12323e-17,-385.856,3615.11)">
            <g transform="matrix(1,0,0,1,-91.6103,50.5463)">
                <path d="M747.903,872.925L747.903,1578.44L1109.25,1225.68L747.903,872.925Z" style="fill:rgb(40,101,186);stroke:rgb(0,51,122);stroke-width:8.33px;"/>
            </g>
            <path d="M834.465,1149.2C826.743,1129.37 927.727,1234.41 963.982,1272.5C971.849,1280.76 965.539,1294.6 965.539,1294.6L915.301,1334.66C915.301,1334.66 890.173,1348 882.832,1342.46C875.093,1336.61 867.083,1325.75 866.826,1305.78C866.087,1248.41 840.488,1164.68 834.465,1149.2Z" style="fill:rgb(99,141,200);"/>
        </g>
        <g transform="matrix(6.12323e-17,-1,1,6.12323e-17,-527.824,4783.59)">
            <g transform="matrix(0.709171,0,0,0.709171,1794.52,315.688)">
                <path d="M747.903,872.925L747.903,1578.44L1109.25,1225.68L747.903,872.925Z" style="fill:rgb(40,101,186);stroke:rgb(0,51,122);stroke-width:11.75px;"/>
            </g>
            <path d="M2497.86,1142.87C2556.38,1177.98 2544.05,1189.28 2540.19,1192.82C2506.7,1223.53 2495.38,1241.6 2492.78,1218.22C2487.53,1170.99 2483.4,1149.66 2496.16,1145.41L2497.86,1142.87Z" style="fill:rgb(99,141,200);"/>
        </g>
        <g transform="matrix(-1,0,0,-1,3280.77,4130.36)">
            <g transform="matrix(0.355621,0.355621,0.355621,-0.355621,2043.6,1345.91)">
                <path d="M747.903,872.925L747.903,1578.44L1109.25,1225.68L747.903,872.925Z" style="fill:rgb(40,101,186);stroke:rgb(0,51,122);stroke-width:16.57px;"/>
            </g>
            <path d="M2850.91,1213.52C2852.74,1265.63 2852.37,1265.59 2852.67,1270.11C2853.91,1288.67 2797.67,1285.26 2796.51,1276.57C2794.04,1258.05 2848.28,1171.36 2850.91,1213.52Z" style="fill:rgb(99,141,200);"/>
        </g>
        <g transform="matrix(-6.12323e-17,-1,-1,6.12323e-17,2075.69,4323.86)">
            <g transform="matrix(-0.502924,-8.02271e-17,8.02271e-17,-0.502924,1745.46,1750.34)">
                <path d="M1108.67,1226.31L1108.67,520.962L748.021,873.039L747.903,1578.44L1108.67,1226.31" style="fill:rgb(40,101,186);stroke:rgb(0,51,122);stroke-width:16.57px;"/>
            </g>
            <g transform="matrix(0.588016,0.11863,-0.154641,0.76651,895.844,283.822)">
                <path d="M847.052,1190.03C841.671,1170.21 847.472,1154.84 870.075,1176.72C900.763,1206.43 943.105,1250.56 963.982,1272.5C971.849,1280.76 965.539,1294.6 965.539,1294.6L924.818,1331.73C924.818,1331.73 894.877,1368.23 887.536,1362.69C879.798,1356.84 859.479,1285.49 859.222,1265.52C858.758,1229.53 856.113,1223.41 847.052,1190.03Z" style="fill:rgb(99,141,200);"/>
            </g>
        </g>
        <g transform="matrix(0.707107,-0.707107,0.707107,0.707107,-1491.75,2780.6)">
            <g transform="matrix(0.635278,-0.635278,0.635278,0.635278,-1105.39,1925.85)">
                <rect x="2936.48" y="1833.95" width="274.399" height="274.399" style="fill:rgb(40,101,186);stroke:rgb(0,51,122);stroke-width:9.28px;"/>
            </g>
            <path d="M2106.48,1091.09C2102.53,1089.71 2203.51,1179.78 2089.22,1141.68C2057.71,1131.18 2091.69,1092.12 2106.48,1091.09Z" style="fill:rgb(99,141,200);"/>
        </g>
        <g transform="matrix(0.707107,-0.707107,0.707107,0.707107,-1900.49,2776.43)">
            <g transform="matrix(0.635278,-0.635278,0.635278,0.635278,-1105.39,1925.85)">
                <rect x="2936.48" y="1833.95" width="274.399" height="274.399" style="fill:rgb(40,101,186);stroke:rgb(0,51,122);stroke-width:9.28px;"/>
            </g>
            <path d="M2106.48,1091.09C2102.53,1089.71 2203.51,1179.78 2089.22,1141.68C2057.71,1131.18 2091.69,1092.12 2106.48,1091.09Z" style="fill:rgb(99,141,200);"/>
        </g>
        <g transform="matrix(0.707107,-0.707107,0.707107,0.707107,-1430.46,2901.33)">
            <g transform="matrix(-0.707107,0.707107,-0.707107,-0.707107,3190.27,1509.16)">
                <path d="M747.903,872.925L747.903,1578.44L1109.25,1225.68L747.903,872.925Z" style="fill:rgb(40,101,186);stroke:rgb(0,51,122);stroke-width:8.33px;"/>
            </g>
            <g transform="matrix(-0.683695,0.729768,-0.729768,-0.683695,3173.05,1562.47)">
                <path d="M834.465,1149.2C826.743,1129.37 927.727,1234.41 963.982,1272.5C971.849,1280.76 965.539,1294.6 965.539,1294.6L915.301,1334.66C915.301,1334.66 890.173,1348 882.832,1342.46C875.093,1336.61 867.083,1325.75 866.826,1305.78C866.087,1248.41 840.488,1164.68 834.465,1149.2Z" style="fill:rgb(99,141,200);"/>
            </g>
        </g>
    </g>
</svg>
