<?xml version="1.0" encoding="UTF-8" standalone="no"?>
<!DOCTYPE svg PUBLIC "-//W3C//DTD SVG 1.1//EN" "http://www.w3.org/Graphics/SVG/1.1/DTD/svg11.dtd">
<svg width="100%" height="100%" viewBox="0 0 1580 974" version="1.1" xmlns="http://www.w3.org/2000/svg" xmlns:xlink="http://www.w3.org/1999/xlink" xml:space="preserve" xmlns:serif="http://www.serif.com/" style="fill-rule:evenodd;clip-rule:evenodd;stroke-linecap:round;stroke-linejoin:round;stroke-miterlimit:1.5;">
    <g transform="matrix(1,0,0,1,-3739.9,-5273.33)">
        <g transform="matrix(1,0,0,1,-61.0032,4.0874)">
            <path d="M5006.3,5336.18C5031.83,5351.07 5326.42,5607.37 5334.92,5649.86C5363.92,5794.89 5041.5,5591.2 4929.48,5735.22C4834.56,5857.26 4589.96,5996.85 4718.23,6068.11C4735.84,6077.89 4887.82,6214.59 4807.85,6226.02C4789.39,6228.65 4788.95,6214.24 4575.25,6240.95C4560.51,6242.8 4301.76,6260.4 4481.36,6140.66C4537.67,6103.12 4724.94,6072.68 4562.45,5918.73C4390.99,5756.3 4385.08,5764.84 4310.65,5690.41C4191.64,5571.4 4200.35,5425.41 4130.73,5618.65C4120.04,5648.31 4081.73,5800.86 4031.28,5733.59C4015.72,5712.84 3732.56,5649.8 3930.82,5583.72C3972.43,5569.84 4038.51,5518.25 4053.62,5531.6C4085.25,5559.57 4179.46,5454.17 4317.95,5361.84C4356,5336.48 4394.5,5407.23 4472.83,5485.56C4532.3,5545.02 4429.47,5593.61 4419.48,5613.59C4415.82,5620.91 4343,5667.78 4421.61,5677.61C4607.11,5700.79 4684.91,5785.27 4865.46,5532.5C4942.82,5424.21 4928.33,5413.58 5002.03,5346.85C5007.15,5342.22 5004,5341.94 5006.3,5336.18Z" style="fill:rgb(193,191,191);"/>
        </g>
        <g transform="matrix(6.12323e-17,-1,1,6.12323e-17,3686.55,6323.71)">
            <g transform="matrix(1,0,0,1,-91.6103,50.5463)">
                <path d="M747.903,872.925L747.903,1578.44L1109.25,1225.68L747.903,872.925Z" style="fill:rgb(40,101,186);stroke:rgb(0,51,122);stroke-width:8.33px;"/>
            </g>
            <g transform="matrix(1,0,0,1,-91.6103,50.5463)">
                <path d="M747.903,872.925L747.903,1578.44L1109.25,1225.68L747.903,872.925Z" style="fill:rgb(40,101,186);stroke:rgb(0,51,122);stroke-width:8.33px;"/>
            </g>
            <path d="M834.465,1149.2C826.743,1129.37 927.727,1234.41 963.982,1272.5C971.849,1280.76 965.539,1294.6 965.539,1294.6L915.301,1334.66C915.301,1334.66 890.173,1348 882.832,1342.46C875.093,1336.61 867.083,1325.75 866.826,1305.78C866.087,1248.41 840.488,1164.68 834.465,1149.2Z" style="fill:rgb(99,141,200);"/>
            <path d="M834.465,1149.2C826.743,1129.37 927.727,1234.41 963.982,1272.5C971.849,1280.76 965.539,1294.6 965.539,1294.6L915.301,1334.66C915.301,1334.66 890.173,1348 882.832,1342.46C875.093,1336.61 867.083,1325.75 866.826,1305.78C866.087,1248.41 840.488,1164.68 834.465,1149.2Z" style="fill:rgb(99,141,200);"/>
        </g>
        <g transform="matrix(0.90088,0.434068,-0.434068,0.90088,1969.09,3297.41)">
            <g transform="matrix(0.355621,0.355621,0.355621,-0.355621,2043.6,1345.91)">
                <path d="M747.903,872.925L747.903,1578.44L1109.25,1225.68L747.903,872.925Z" style="fill:rgb(40,101,186);stroke:rgb(0,51,122);stroke-width:16.57px;"/>
            </g>
            <g transform="matrix(0.355621,0.355621,0.355621,-0.355621,2043.6,1345.91)">
                <path d="M747.903,872.925L747.903,1578.44L1109.25,1225.68L747.903,872.925Z" style="fill:rgb(40,101,186);stroke:rgb(0,51,122);stroke-width:16.57px;"/>
            </g>
            <path d="M2850.91,1213.52C2852.74,1265.63 2852.37,1265.59 2852.67,1270.11C2853.91,1288.67 2797.67,1285.26 2796.51,1276.57C2794.04,1258.05 2848.28,1171.36 2850.91,1213.52Z" style="fill:rgb(99,141,200);"/>
            <path d="M2850.91,1213.52C2852.74,1265.63 2852.37,1265.59 2852.67,1270.11C2853.91,1288.67 2797.67,1285.26 2796.51,1276.57C2794.04,1258.05 2848.28,1171.36 2850.91,1213.52Z" style="fill:rgb(99,141,200);"/>
        </g>
        <g transform="matrix(6.12323e-17,-1,1,6.12323e-17,3306.31,7394.1)">
            <g transform="matrix(-0.502924,-8.02271e-17,8.02271e-17,-0.502924,1745.46,1750.34)">
                <path d="M1108.67,1226.31L1108.67,520.962L748.021,873.039L747.903,1578.44L1108.67,1226.31" style="fill:rgb(40,101,186);stroke:rgb(0,51,122);stroke-width:16.57px;"/>
            </g>
            <g transform="matrix(-0.502924,-8.02271e-17,8.02271e-17,-0.502924,1745.46,1750.34)">
                <path d="M1108.67,1226.31L1108.67,520.962L748.021,873.039L747.903,1578.44L1108.67,1226.31" style="fill:rgb(40,101,186);stroke:rgb(0,51,122);stroke-width:16.57px;"/>
            </g>
            <g transform="matrix(0.588016,0.11863,-0.154641,0.76651,895.844,283.822)">
                <path d="M847.052,1190.03C841.671,1170.21 847.472,1154.84 870.075,1176.72C900.763,1206.43 943.105,1250.56 963.982,1272.5C971.849,1280.76 965.539,1294.6 965.539,1294.6L924.818,1331.73C924.818,1331.73 894.877,1368.23 887.536,1362.69C879.798,1356.84 859.479,1285.49 859.222,1265.52C858.758,1229.53 856.113,1223.41 847.052,1190.03Z" style="fill:rgb(99,141,200);"/>
            </g>
            <g transform="matrix(0.588016,0.11863,-0.154641,0.76651,895.844,283.822)">
                <path d="M847.052,1190.03C841.671,1170.21 847.472,1154.84 870.075,1176.72C900.763,1206.43 943.105,1250.56 963.982,1272.5C971.849,1280.76 965.539,1294.6 965.539,1294.6L924.818,1331.73C924.818,1331.73 894.877,1368.23 887.536,1362.69C879.798,1356.84 859.479,1285.49 859.222,1265.52C858.758,1229.53 856.113,1223.41 847.052,1190.03Z" style="fill:rgb(99,141,200);"/>
            </g>
        </g>
        <g transform="matrix(0.990837,0.135064,-0.135064,0.990837,989.756,3761.29)">
            <g transform="matrix(1.11022e-16,-0.502924,0.502924,1.11022e-16,2515.93,1661.12)">
                <path d="M747.903,872.925L747.903,1578.44L1109.25,1225.68L747.903,872.925Z" style="fill:rgb(40,101,186);stroke:rgb(0,51,122);stroke-width:16.57px;"/>
            </g>
            <g transform="matrix(1.11022e-16,-0.502924,0.502924,1.11022e-16,2515.93,1661.12)">
                <path d="M747.903,872.925L747.903,1578.44L1109.25,1225.68L747.903,872.925Z" style="fill:rgb(40,101,186);stroke:rgb(0,51,122);stroke-width:16.57px;"/>
            </g>
            <g transform="matrix(-0.707827,-0.706386,0.706386,-0.707827,4244.99,4049.43)">
                <path d="M2853.88,1221.41C2855.71,1273.53 2852.37,1265.59 2852.67,1270.11C2853.91,1288.67 2777.72,1285.07 2776.56,1276.39C2774.09,1257.86 2851.24,1179.26 2853.88,1221.41Z" style="fill:rgb(99,141,200);"/>
            </g>
            <g transform="matrix(-0.707827,-0.706386,0.706386,-0.707827,4244.99,4049.43)">
                <path d="M2853.88,1221.41C2855.71,1273.53 2852.37,1265.59 2852.67,1270.11C2853.91,1288.67 2777.72,1285.07 2776.56,1276.39C2774.09,1257.86 2851.24,1179.26 2853.88,1221.41Z" style="fill:rgb(99,141,200);"/>
            </g>
        </g>
        <g transform="matrix(1,0,0,1,2172.74,4267.64)">
            <g transform="matrix(0.635278,-0.635278,0.635278,0.635278,-1105.39,1925.85)">
                <rect x="2936.48" y="1833.95" width="274.399" height="274.399" style="fill:rgb(40,101,186);stroke:rgb(0,51,122);stroke-width:9.28px;"/>
            </g>
            <g transform="matrix(0.635278,-0.635278,0.635278,0.635278,-1105.39,1925.85)">
                <rect x="2936.48" y="1833.95" width="274.399" height="274.399" style="fill:rgb(40,101,186);stroke:rgb(0,51,122);stroke-width:9.28px;"/>
            </g>
            <path d="M2106.48,1091.09C2102.53,1089.71 2203.51,1179.78 2089.22,1141.68C2057.71,1131.18 2091.69,1092.12 2106.48,1091.09Z" style="fill:rgb(99,141,200);"/>
            <path d="M2106.48,1091.09C2102.53,1089.71 2203.51,1179.78 2089.22,1141.68C2057.71,1131.18 2091.69,1092.12 2106.48,1091.09Z" style="fill:rgb(99,141,200);"/>
        </g>
        <g transform="matrix(0.707107,-0.707107,0.707107,0.707107,2523.43,6106.32)">
            <g transform="matrix(-0.707107,0.707107,-0.707107,-0.707107,3190.27,1509.16)">
                <path d="M747.903,872.925L747.903,1578.44L1109.25,1225.68L747.903,872.925Z" style="fill:rgb(40,101,186);stroke:rgb(0,51,122);stroke-width:8.33px;"/>
            </g>
            <g transform="matrix(-0.707107,0.707107,-0.707107,-0.707107,3190.27,1509.16)">
                <path d="M747.903,872.925L747.903,1578.44L1109.25,1225.68L747.903,872.925Z" style="fill:rgb(40,101,186);stroke:rgb(0,51,122);stroke-width:8.33px;"/>
            </g>
            <g transform="matrix(-0.683695,0.729768,-0.729768,-0.683695,3173.05,1562.47)">
                <path d="M834.465,1149.2C826.743,1129.37 927.727,1234.41 963.982,1272.5C971.849,1280.76 965.539,1294.6 965.539,1294.6L915.301,1334.66C915.301,1334.66 890.173,1348 882.832,1342.46C875.093,1336.61 867.083,1325.75 866.826,1305.78C866.087,1248.41 840.488,1164.68 834.465,1149.2Z" style="fill:rgb(99,141,200);"/>
            </g>
            <g transform="matrix(-0.683695,0.729768,-0.729768,-0.683695,3173.05,1562.47)">
                <path d="M834.465,1149.2C826.743,1129.37 927.727,1234.41 963.982,1272.5C971.849,1280.76 965.539,1294.6 965.539,1294.6L915.301,1334.66C915.301,1334.66 890.173,1348 882.832,1342.46C875.093,1336.61 867.083,1325.75 866.826,1305.78C866.087,1248.41 840.488,1164.68 834.465,1149.2Z" style="fill:rgb(99,141,200);"/>
            </g>
        </g>
    </g>
</svg>
