<?xml version="1.0" encoding="UTF-8" standalone="no"?>
<!DOCTYPE svg PUBLIC "-//W3C//DTD SVG 1.1//EN" "http://www.w3.org/Graphics/SVG/1.1/DTD/svg11.dtd">
<svg width="100%" height="100%" viewBox="0 0 1168 1424" version="1.1" xmlns="http://www.w3.org/2000/svg" xmlns:xlink="http://www.w3.org/1999/xlink" xml:space="preserve" xmlns:serif="http://www.serif.com/" style="fill-rule:evenodd;clip-rule:evenodd;stroke-linecap:round;stroke-linejoin:round;stroke-miterlimit:1.5;">
    <g transform="matrix(1,0,0,1,-4470.23,-3128.86)">
        <path d="M4757.29,3303.12C4764.25,3308.54 4878.56,3171.37 4911.9,3169.94C4920.76,3169.56 4925.99,3179.5 4926.07,3183.39C4927.64,3255.78 4923.75,3255.65 4925.32,3328.02C4926.01,3359.84 4940.84,3505 4936.24,3510.64C4880.76,3578.67 4880.77,3579.02 4811.92,3633.32C4790.8,3649.97 4789.46,3648.67 4773.96,3670.82C4929.47,3797.95 5105.11,3970.54 5119.64,3998.19C5141.26,4039.33 5140.02,4272.42 5134.77,4339.02C5128.77,4415.25 5100.33,4478.9 5121.73,4497.25C5134.13,4507.88 5135.65,4495.86 5190.72,4485.58C5206.39,4482.66 5206.75,4484.4 5221.5,4478.28C5245.55,4468.32 5538.58,4273.58 5604.43,4360.34C5482.78,4481.88 5427.85,4506.2 5397.97,4531.52C5389.54,4538.66 5392.59,4541.5 5383.52,4547.82C5381.7,4549.09 5379.64,4550.42 5377.41,4550.49C5279.82,4553.56 4637.66,4552.78 4610.79,4539.16C4601.25,4534.32 4634.89,4507.93 4637.58,4505.82C4732.53,4431.32 4734.46,4433.65 4768.17,4399.08C4797.75,4368.76 4782.01,4352.86 4779.65,4336.23C4775.46,4306.64 4786.1,4249.35 4772.59,4210.4C4763.97,4185.52 4756.64,4191.55 4698,4156.83C4635.37,4119.75 4579.9,4083.97 4544.14,4031.39C4541.7,4027.8 4540.22,4023.61 4537.71,4020.07C4535.55,4016.99 4494.4,3974.63 4507.15,3951.77C4517.51,3933.2 4538.12,3935.34 4571.08,3908.25C4665.82,3830.41 4767.5,3719.97 4734.07,3686.09C4640.23,3591 4635.44,3595.16 4597.4,3539.89C4566.27,3494.65 4590.55,3463.34 4594.56,3458.17C4601.24,3449.57 4752.29,3318.32 4755.91,3312C4756.27,3311.38 4755.21,3311.19 4757.29,3303.12Z" style="fill:rgb(193,191,191);"/>
        <g transform="matrix(1,0,0,1,4080,2743.74)">
            <g transform="matrix(1,0,0,1,-91.6103,50.5463)">
                <path d="M747.903,872.925L747.903,1578.44L1109.25,1225.68L747.903,872.925Z" style="fill:rgb(40,101,186);stroke:rgb(0,51,122);stroke-width:8.33px;"/>
            </g>
            <g transform="matrix(1,0,0,1,-91.6103,50.5463)">
                <path d="M747.903,872.925L747.903,1578.44L1109.25,1225.68L747.903,872.925Z" style="fill:rgb(40,101,186);stroke:rgb(0,51,122);stroke-width:8.33px;"/>
            </g>
            <path d="M834.465,1149.2C826.743,1129.37 927.727,1234.41 963.982,1272.5C971.849,1280.76 965.539,1294.6 965.539,1294.6L915.301,1334.66C915.301,1334.66 890.173,1348 882.832,1342.46C875.093,1336.61 867.083,1325.75 866.826,1305.78C866.087,1248.41 840.488,1164.68 834.465,1149.2Z" style="fill:rgb(99,141,200);"/>
            <path d="M834.465,1149.2C826.743,1129.37 927.727,1234.41 963.982,1272.5C971.849,1280.76 965.539,1294.6 965.539,1294.6L915.301,1334.66C915.301,1334.66 890.173,1348 882.832,1342.46C875.093,1336.61 867.083,1325.75 866.826,1305.78C866.087,1248.41 840.488,1164.68 834.465,1149.2Z" style="fill:rgb(99,141,200);"/>
        </g>
        <g transform="matrix(-1,0,0,1,7055.56,2733.6)">
            <g transform="matrix(0.709171,0,0,0.709171,1794.52,315.688)">
                <path d="M747.903,872.925L747.903,1578.44L1109.25,1225.68L747.903,872.925Z" style="fill:rgb(40,101,186);stroke:rgb(0,51,122);stroke-width:11.75px;"/>
            </g>
            <g transform="matrix(0.709171,0,0,0.709171,1794.52,315.688)">
                <path d="M747.903,872.925L747.903,1578.44L1109.25,1225.68L747.903,872.925Z" style="fill:rgb(40,101,186);stroke:rgb(0,51,122);stroke-width:11.75px;"/>
            </g>
            <path d="M2497.86,1142.87C2556.38,1177.98 2544.05,1189.28 2540.19,1192.82C2506.7,1223.53 2495.38,1241.6 2492.78,1218.22C2487.53,1170.99 2483.4,1149.66 2496.16,1145.41L2497.86,1142.87Z" style="fill:rgb(99,141,200);"/>
            <path d="M2497.86,1142.87C2556.38,1177.98 2544.05,1189.28 2540.19,1192.82C2506.7,1223.53 2495.38,1241.6 2492.78,1218.22C2487.53,1170.99 2483.4,1149.66 2496.16,1145.41L2497.86,1142.87Z" style="fill:rgb(99,141,200);"/>
        </g>
        <g transform="matrix(0.707107,-0.707107,0.707107,0.707107,1786.69,4420.2)">
            <g transform="matrix(0.355621,0.355621,0.355621,-0.355621,2043.6,1345.91)">
                <path d="M747.903,872.925L747.903,1578.44L1109.25,1225.68L747.903,872.925Z" style="fill:rgb(40,101,186);stroke:rgb(0,51,122);stroke-width:16.57px;"/>
            </g>
            <g transform="matrix(0.355621,0.355621,0.355621,-0.355621,2043.6,1345.91)">
                <path d="M747.903,872.925L747.903,1578.44L1109.25,1225.68L747.903,872.925Z" style="fill:rgb(40,101,186);stroke:rgb(0,51,122);stroke-width:16.57px;"/>
            </g>
            <path d="M2850.91,1213.52C2852.74,1265.63 2852.37,1265.59 2852.67,1270.11C2853.91,1288.67 2797.67,1285.26 2796.51,1276.57C2794.04,1258.05 2848.28,1171.36 2850.91,1213.52Z" style="fill:rgb(99,141,200);"/>
            <path d="M2850.91,1213.52C2852.74,1265.63 2852.37,1265.59 2852.67,1270.11C2853.91,1288.67 2797.67,1285.26 2796.51,1276.57C2794.04,1258.05 2848.28,1171.36 2850.91,1213.52Z" style="fill:rgb(99,141,200);"/>
        </g>
        <g transform="matrix(0.637033,0.770837,-0.770837,0.637033,5498.6,2654.58)">
            <g transform="matrix(-0.502924,-8.02271e-17,8.02271e-17,-0.502924,1745.46,1750.34)">
                <path d="M1108.67,1226.31L1108.67,520.962L748.021,873.039L747.903,1578.44L1108.67,1226.31" style="fill:rgb(40,101,186);stroke:rgb(0,51,122);stroke-width:16.57px;"/>
            </g>
            <g transform="matrix(-0.502924,-8.02271e-17,8.02271e-17,-0.502924,1745.46,1750.34)">
                <path d="M1108.67,1226.31L1108.67,520.962L748.021,873.039L747.903,1578.44L1108.67,1226.31" style="fill:rgb(40,101,186);stroke:rgb(0,51,122);stroke-width:16.57px;"/>
            </g>
            <g transform="matrix(0.588016,0.11863,-0.154641,0.76651,895.844,283.822)">
                <path d="M847.052,1190.03C841.671,1170.21 847.472,1154.84 870.075,1176.72C900.763,1206.43 943.105,1250.56 963.982,1272.5C971.849,1280.76 965.539,1294.6 965.539,1294.6L924.818,1331.73C924.818,1331.73 894.877,1368.23 887.536,1362.69C879.798,1356.84 859.479,1285.49 859.222,1265.52C858.758,1229.53 856.113,1223.41 847.052,1190.03Z" style="fill:rgb(99,141,200);"/>
            </g>
            <g transform="matrix(0.588016,0.11863,-0.154641,0.76651,895.844,283.822)">
                <path d="M847.052,1190.03C841.671,1170.21 847.472,1154.84 870.075,1176.72C900.763,1206.43 943.105,1250.56 963.982,1272.5C971.849,1280.76 965.539,1294.6 965.539,1294.6L924.818,1331.73C924.818,1331.73 894.877,1368.23 887.536,1362.69C879.798,1356.84 859.479,1285.49 859.222,1265.52C858.758,1229.53 856.113,1223.41 847.052,1190.03Z" style="fill:rgb(99,141,200);"/>
            </g>
        </g>
        <g transform="matrix(0,-1,1,0,3625.56,6445.16)">
            <g transform="matrix(1.11022e-16,-0.502924,0.502924,1.11022e-16,2515.93,1661.12)">
                <path d="M747.903,872.925L747.903,1578.44L1109.25,1225.68L747.903,872.925Z" style="fill:rgb(40,101,186);stroke:rgb(0,51,122);stroke-width:16.57px;"/>
            </g>
            <g transform="matrix(1.11022e-16,-0.502924,0.502924,1.11022e-16,2515.93,1661.12)">
                <path d="M747.903,872.925L747.903,1578.44L1109.25,1225.68L747.903,872.925Z" style="fill:rgb(40,101,186);stroke:rgb(0,51,122);stroke-width:16.57px;"/>
            </g>
            <g transform="matrix(-0.707827,-0.706386,0.706386,-0.707827,4244.99,4049.43)">
                <path d="M2853.88,1221.41C2855.71,1273.53 2852.37,1265.59 2852.67,1270.11C2853.91,1288.67 2777.72,1285.07 2776.56,1276.39C2774.09,1257.86 2851.24,1179.26 2853.88,1221.41Z" style="fill:rgb(99,141,200);"/>
            </g>
            <g transform="matrix(-0.707827,-0.706386,0.706386,-0.707827,4244.99,4049.43)">
                <path d="M2853.88,1221.41C2855.71,1273.53 2852.37,1265.59 2852.67,1270.11C2853.91,1288.67 2777.72,1285.07 2776.56,1276.39C2774.09,1257.86 2851.24,1179.26 2853.88,1221.41Z" style="fill:rgb(99,141,200);"/>
            </g>
        </g>
        <g transform="matrix(1,0,0,1,2636.08,2263.61)">
            <g transform="matrix(0.635278,-0.635278,0.635278,0.635278,-1105.39,1925.85)">
                <rect x="2936.48" y="1833.95" width="274.399" height="274.399" style="fill:rgb(40,101,186);stroke:rgb(0,51,122);stroke-width:9.28px;"/>
            </g>
            <g transform="matrix(0.635278,-0.635278,0.635278,0.635278,-1105.39,1925.85)">
                <rect x="2936.48" y="1833.95" width="274.399" height="274.399" style="fill:rgb(40,101,186);stroke:rgb(0,51,122);stroke-width:9.28px;"/>
            </g>
            <path d="M2106.48,1091.09C2102.53,1089.71 2203.51,1179.78 2089.22,1141.68C2057.71,1131.18 2091.69,1092.12 2106.48,1091.09Z" style="fill:rgb(99,141,200);"/>
            <path d="M2106.48,1091.09C2102.53,1089.71 2203.51,1179.78 2089.22,1141.68C2057.71,1131.18 2091.69,1092.12 2106.48,1091.09Z" style="fill:rgb(99,141,200);"/>
        </g>
        <g transform="matrix(-1,0,0,1,6638.28,3099.83)">
            <g transform="matrix(-0.707107,0.707107,-0.707107,-0.707107,3190.27,1509.16)">
                <path d="M747.903,872.925L747.903,1578.44L1109.25,1225.68L747.903,872.925Z" style="fill:rgb(40,101,186);stroke:rgb(0,51,122);stroke-width:8.33px;"/>
            </g>
            <g transform="matrix(-0.707107,0.707107,-0.707107,-0.707107,3190.27,1509.16)">
                <path d="M747.903,872.925L747.903,1578.44L1109.25,1225.68L747.903,872.925Z" style="fill:rgb(40,101,186);stroke:rgb(0,51,122);stroke-width:8.33px;"/>
            </g>
            <g transform="matrix(-0.683695,0.729768,-0.729768,-0.683695,3173.05,1562.47)">
                <path d="M834.465,1149.2C826.743,1129.37 927.727,1234.41 963.982,1272.5C971.849,1280.76 965.539,1294.6 965.539,1294.6L915.301,1334.66C915.301,1334.66 890.173,1348 882.832,1342.46C875.093,1336.61 867.083,1325.75 866.826,1305.78C866.087,1248.41 840.488,1164.68 834.465,1149.2Z" style="fill:rgb(99,141,200);"/>
            </g>
            <g transform="matrix(-0.683695,0.729768,-0.729768,-0.683695,3173.05,1562.47)">
                <path d="M834.465,1149.2C826.743,1129.37 927.727,1234.41 963.982,1272.5C971.849,1280.76 965.539,1294.6 965.539,1294.6L915.301,1334.66C915.301,1334.66 890.173,1348 882.832,1342.46C875.093,1336.61 867.083,1325.75 866.826,1305.78C866.087,1248.41 840.488,1164.68 834.465,1149.2Z" style="fill:rgb(99,141,200);"/>
            </g>
        </g>
    </g>
</svg>
