<?xml version="1.0" encoding="UTF-8" standalone="no"?>
<!DOCTYPE svg PUBLIC "-//W3C//DTD SVG 1.1//EN" "http://www.w3.org/Graphics/SVG/1.1/DTD/svg11.dtd">
<svg width="100%" height="100%" viewBox="0 0 1395 265" version="1.1" xmlns="http://www.w3.org/2000/svg" xmlns:xlink="http://www.w3.org/1999/xlink" xml:space="preserve" xmlns:serif="http://www.serif.com/" style="fill-rule:evenodd;clip-rule:evenodd;stroke-linecap:round;stroke-linejoin:round;stroke-miterlimit:1.5;">
    <g transform="matrix(1,0,0,1,-4143.79,-2292.32)">
        <g transform="matrix(1,0,0,0.613168,2768.71,1230.42)">
            <path d="M2763.84,1758.6C2763.84,1758.6 2768.04,2114.09 2767.94,2116.07L2766.13,2113.81C2406.99,2164.16 2622.23,2140.21 2260.19,2149.49C1738.92,2162.86 1753.13,2136.56 1389.31,2159.76C1382.08,1951.31 1381.15,1963.78 1376.74,1773.65C1708.48,1753.78 1652.95,1721.23 2283.75,1740.34C2449.07,1745.35 2741.91,1769.57 2763.84,1758.6Z" style="fill:rgb(255,202,148);stroke:black;stroke-width:4.02px;"/>
        </g>
        <g transform="matrix(1,0,0,1,2768.71,483.402)">
            <path d="M1483.74,1959.61C1478.08,1958.19 1471.36,1956.52 1410.96,1964.07" style="fill:none;stroke:black;stroke-width:12.5px;"/>
        </g>
        <g transform="matrix(1,0,0,1,2759.53,483.402)">
            <path d="M1583.28,1955.69C1553.47,1957.04 1554,1957.61 1523.85,1960.35" style="fill:none;stroke:black;stroke-width:12.5px;"/>
        </g>
        <g transform="matrix(1,0,0,1,2742.2,483.402)">
            <path d="M1631.53,1877.91C1632.08,1889.49 1630.76,1889.46 1635.99,2022.74" style="fill:none;stroke:black;stroke-width:12.5px;"/>
        </g>
        <g transform="matrix(1,0,0,1,2735.32,483.402)">
            <path d="M1673.87,1877.17C1673.87,1909.07 1673.17,2011.23 1676.1,2033.14" style="fill:none;stroke:black;stroke-width:12.5px;"/>
        </g>
        <g transform="matrix(1,0,0,1,2732.08,483.402)">
            <path d="M1762.25,1942.53C1762.25,1939.54 1759.79,1944.29 1725.11,1938.82C1721.12,1938.18 1711.4,1942.07 1710.26,1942.53" style="fill:none;stroke:black;stroke-width:12.5px;"/>
        </g>
        <g transform="matrix(1,0,0,1,2740.72,483.402)">
            <path d="M1829.09,1939.56C1806.73,1942.35 1806.97,1939.03 1784.53,1944.01" style="fill:none;stroke:black;stroke-width:12.5px;"/>
        </g>
        <g transform="matrix(1,0,0,1,2736,483.402)">
            <path d="M1872.16,1857.12C1867.67,1946.14 1867.12,1985.57 1866.97,1996.74C1866.96,1997.19 1864.92,2022.71 1864.74,2024.97" style="fill:none;stroke:black;stroke-width:12.5px;"/>
        </g>
        <g transform="matrix(1,0,0,1,2746.13,483.402)">
            <path d="M1896.67,1866.78C1893.93,1894.19 1893.79,2029.43 1892.96,2036.11" style="fill:none;stroke:black;stroke-width:12.5px;"/>
        </g>
        <g transform="matrix(1,0,0,1,2752.33,483.402)">
            <path d="M1963.82,1940.42C1953.38,1940.94 1954.11,1940.77 1943.47,1940.42C1943.47,1940.42 1919.73,1941.3 1921.48,1941.24" style="fill:none;stroke:black;stroke-width:12.5px;"/>
        </g>
        <g transform="matrix(1,0,0,1,2755.63,483.402)">
            <path d="M2022.49,1942.89C2024.99,1940.15 2020.97,1944.55 2005.34,1943.68C2005.34,1943.68 1990.39,1943.68 1991.5,1943.68" style="fill:none;stroke:black;stroke-width:12.5px;"/>
        </g>
        <g transform="matrix(1,0,0,1,2762.87,483.402)">
            <path d="M2081.07,1938.6C2076.44,1940.5 2048.77,1939.87 2046.87,1943.68" style="fill:none;stroke:black;stroke-width:12.5px;"/>
        </g>
        <g transform="matrix(1,0,0,1,2768.57,483.402)">
            <path d="M2141.92,1937.42C2140.49,1934.93 2139.85,1939.42 2106.3,1941.24" style="fill:none;stroke:black;stroke-width:12.5px;"/>
        </g>
        <g transform="matrix(1,0,0,1,2757,483.402)">
            <path d="M2195.86,1854.12C2184.17,1920.89 2187.89,1920.69 2186.9,1994.97C2186.74,2007.07 2181.94,2022.06 2186.09,2009.63" style="fill:none;stroke:black;stroke-width:12.5px;"/>
        </g>
        <g transform="matrix(1,0,0,1,2767.21,483.402)">
            <path d="M2262.21,1926.58C2260.15,1922.46 2198.39,1931.74 2221.91,1929.84" style="fill:none;stroke:black;stroke-width:12.5px;"/>
        </g>
        <g transform="matrix(1,0,0,1,2754.21,483.402)">
            <path d="M2308.21,1857.38C2303.1,1880.38 2309.36,1992.91 2306.58,1999.86" style="fill:none;stroke:black;stroke-width:12.5px;"/>
        </g>
        <g transform="matrix(1,0,0,1,2760.92,483.402)">
            <path d="M2370.09,1929.84C2367.1,1929.65 2329.27,1927.29 2332.64,1930.65" style="fill:none;stroke:black;stroke-width:12.5px;"/>
        </g>
        <g transform="matrix(1,0,0,1,2737.57,483.402)">
            <path d="M2426.01,1866.12C2430,1867.16 2422.78,1994.48 2424.7,2002.15" style="fill:none;stroke:black;stroke-width:12.5px;"/>
        </g>
        <g transform="matrix(1,0,0,1,2735.23,483.402)">
            <path d="M2493.66,1928.45C2492.15,1926.27 2491.53,1927.65 2460.49,1928.68" style="fill:none;stroke:black;stroke-width:12.5px;"/>
        </g>
        <g transform="matrix(1,0,0,1,2737.16,483.402)">
            <path d="M2557.51,1926.8C2545.89,1926.48 2534.27,1926.17 2522.66,1925.86" style="fill:none;stroke:black;stroke-width:12.5px;"/>
        </g>
        <g transform="matrix(1,0,0,1,2751.13,483.402)">
            <path d="M2614.96,1925.86C2583.34,1928.73 2583.8,1923.05 2574.46,1924.91" style="fill:none;stroke:black;stroke-width:12.5px;"/>
        </g>
        <g transform="matrix(1,0,0,1,2762.28,483.402)">
            <path d="M2669.59,1923.97C2652.07,1926.47 2652.64,1926.8 2634.74,1927.74" style="fill:none;stroke:black;stroke-width:12.5px;"/>
        </g>
        <g transform="matrix(1,0,0,1,2768.71,483.402)">
            <path d="M2724.48,1925.23C2722.05,1925.35 2694.08,1926.76 2694.08,1923.97" style="fill:none;stroke:black;stroke-width:12.5px;"/>
        </g>
    </g>
</svg>
