<?xml version="1.0" encoding="UTF-8" standalone="no"?>
<svg
   id="Layer_1"
   version="1.1"
   viewBox="0 0 172.3 265.39999"
   sodipodi:docname="2026-IR-05_grid.svg"
   width="172.3"
   height="265.39999"
   inkscape:version="1.2.1 (9c6d41e410, 2022-07-14)"
   xmlns:inkscape="http://www.inkscape.org/namespaces/inkscape"
   xmlns:sodipodi="http://sodipodi.sourceforge.net/DTD/sodipodi-0.dtd"
   xmlns="http://www.w3.org/2000/svg"
   xmlns:svg="http://www.w3.org/2000/svg">
  <sodipodi:namedview
     id="namedview541"
     pagecolor="#ffffff"
     bordercolor="#000000"
     borderopacity="0.25"
     inkscape:showpageshadow="2"
     inkscape:pageopacity="0.0"
     inkscape:pagecheckerboard="0"
     inkscape:deskcolor="#d1d1d1"
     showgrid="false"
     inkscape:zoom="0.8324515"
     inkscape:cx="90.095339"
     inkscape:cy="133.94174"
     inkscape:window-width="2560"
     inkscape:window-height="1560"
     inkscape:window-x="-12"
     inkscape:window-y="-12"
     inkscape:window-maximized="1"
     inkscape:current-layer="Layer_1" />
  <!-- Generator: Adobe Illustrator 29.1.0, SVG Export Plug-In . SVG Version: 2.1.0 Build 142)  -->
  <defs
     id="defs4">
    <style
       id="style2">
      .st0 {
        fill: #fff;
      }

      .st0, .st1, .st2, .st3 {
        stroke: #262262;
      }

      .st0, .st1, .st2, .st3, .st4, .st5, .st6 {
        stroke-miterlimit: 10;
      }

      .st1 {
        stroke-width: 3px;
      }

      .st1, .st2 {
        fill: none;
      }

      .st2 {
        stroke-dasharray: 3;
      }

      .st2, .st5 {
        stroke-width: .5px;
      }

      .st7 {
        fill: #231f20;
        font-family: Arial-Black, 'Arial Black';
        font-size: 10px;
        font-weight: 800;
      }

      .st3 {
        fill: #88d6f8;
        stroke-width: 5px;
      }

      .st4 {
        fill: #bf2025;
      }

      .st4, .st5, .st6 {
        stroke: #fff;
      }

      .st4, .st6 {
        stroke-width: .2px;
      }

      .st5 {
        fill: #00764f;
      }

      .st6 {
        fill: #f3ea11;
      }
    </style>
  </defs>
  <rect
     class="st3"
     x="2.5"
     y="18"
     width="167.3"
     height="229.5"
     id="rect6" />
  <g
     id="g34"
     transform="translate(-52.200001,-9)">
    <g
       id="g20">
      <line
         class="st1"
         x1="155.89999"
         y1="256.5"
         x2="155.89999"
         y2="274.39999"
         id="line8" />
      <line
         class="st1"
         x1="184.3"
         y1="256.5"
         x2="184.3"
         y2="274.39999"
         id="line10" />
      <line
         class="st1"
         x1="212.60001"
         y1="256.5"
         x2="212.60001"
         y2="274.39999"
         id="line12" />
      <line
         class="st1"
         x1="127.6"
         y1="256.5"
         x2="127.6"
         y2="274.39999"
         id="line14" />
      <line
         class="st1"
         x1="99.199997"
         y1="256.5"
         x2="99.199997"
         y2="274.39999"
         id="line16" />
      <line
         class="st1"
         x1="70.900002"
         y1="256.5"
         x2="70.900002"
         y2="274.39999"
         id="line18" />
    </g>
    <g
       id="g32">
      <line
         class="st1"
         x1="170.10001"
         y1="256.5"
         x2="170.10001"
         y2="274.39999"
         id="line22" />
      <line
         class="st1"
         x1="198.39999"
         y1="256.5"
         x2="198.39999"
         y2="274.39999"
         id="line24" />
      <line
         class="st1"
         x1="141.7"
         y1="256.5"
         x2="141.7"
         y2="274.39999"
         id="line26" />
      <line
         class="st1"
         x1="113.4"
         y1="256.5"
         x2="113.4"
         y2="274.39999"
         id="line28" />
      <line
         class="st1"
         x1="85"
         y1="256.5"
         x2="85"
         y2="274.39999"
         id="line30" />
    </g>
  </g>
  <g
     id="g62"
     transform="translate(-52.200001,-9)">
    <g
       id="g48">
      <line
         class="st1"
         x1="155.89999"
         y1="9"
         x2="155.89999"
         y2="27"
         id="line36" />
      <line
         class="st1"
         x1="184.3"
         y1="9"
         x2="184.3"
         y2="27"
         id="line38" />
      <line
         class="st1"
         x1="212.60001"
         y1="9"
         x2="212.60001"
         y2="27"
         id="line40" />
      <line
         class="st1"
         x1="127.6"
         y1="9"
         x2="127.6"
         y2="27"
         id="line42" />
      <line
         class="st1"
         x1="99.199997"
         y1="9"
         x2="99.199997"
         y2="27"
         id="line44" />
      <line
         class="st1"
         x1="70.900002"
         y1="9"
         x2="70.900002"
         y2="27"
         id="line46" />
    </g>
    <g
       id="g60">
      <line
         class="st1"
         x1="170.10001"
         y1="9"
         x2="170.10001"
         y2="27"
         id="line50" />
      <line
         class="st1"
         x1="198.39999"
         y1="9"
         x2="198.39999"
         y2="27"
         id="line52" />
      <line
         class="st1"
         x1="141.7"
         y1="9"
         x2="141.7"
         y2="27"
         id="line54" />
      <line
         class="st1"
         x1="113.4"
         y1="9"
         x2="113.4"
         y2="27"
         id="line56" />
      <line
         class="st1"
         x1="85"
         y1="9"
         x2="85"
         y2="27"
         id="line58" />
    </g>
  </g>
  <g
     id="g74"
     transform="translate(-52.200001,-9)">
    <rect
       class="st0"
       x="74.400002"
       y="131.10001"
       width="21.299999"
       height="21.299999"
       rx="5.6999998"
       ry="5.6999998"
       id="rect64" />
    <rect
       class="st0"
       x="102.8"
       y="131.10001"
       width="21.299999"
       height="21.299999"
       rx="5.6999998"
       ry="5.6999998"
       id="rect66" />
    <rect
       class="st0"
       x="131.10001"
       y="131.10001"
       width="21.299999"
       height="21.299999"
       rx="5.6999998"
       ry="5.6999998"
       id="rect68" />
    <rect
       class="st0"
       x="159.39999"
       y="131.10001"
       width="21.299999"
       height="21.299999"
       rx="5.6999998"
       ry="5.6999998"
       id="rect70" />
    <rect
       class="st0"
       x="187.8"
       y="131.10001"
       width="21.299999"
       height="21.299999"
       rx="5.6999998"
       ry="5.6999998"
       id="rect72" />
  </g>
  <g
     id="g86"
     transform="translate(-52.200001,-9)">
    <rect
       class="st0"
       x="74.400002"
       y="173.60001"
       width="21.299999"
       height="21.299999"
       rx="5.6999998"
       ry="5.6999998"
       id="rect76" />
    <rect
       class="st0"
       x="102.8"
       y="173.60001"
       width="21.299999"
       height="21.299999"
       rx="5.6999998"
       ry="5.6999998"
       id="rect78" />
    <rect
       class="st0"
       x="131.10001"
       y="173.60001"
       width="21.299999"
       height="21.299999"
       rx="5.6999998"
       ry="5.6999998"
       id="rect80" />
    <rect
       class="st0"
       x="159.39999"
       y="173.60001"
       width="21.299999"
       height="21.299999"
       rx="5.6999998"
       ry="5.6999998"
       id="rect82" />
    <rect
       class="st0"
       x="187.8"
       y="173.60001"
       width="21.299999"
       height="21.299999"
       rx="5.6999998"
       ry="5.6999998"
       id="rect84" />
  </g>
  <g
     id="g98"
     transform="translate(-52.200001,-9)">
    <rect
       class="st0"
       x="74.400002"
       y="216.10001"
       width="21.299999"
       height="21.299999"
       rx="5.6999998"
       ry="5.6999998"
       id="rect88" />
    <rect
       class="st0"
       x="102.8"
       y="216.10001"
       width="21.299999"
       height="21.299999"
       rx="5.6999998"
       ry="5.6999998"
       id="rect90" />
    <rect
       class="st0"
       x="131.10001"
       y="216.10001"
       width="21.299999"
       height="21.299999"
       rx="5.6999998"
       ry="5.6999998"
       id="rect92" />
    <rect
       class="st0"
       x="159.39999"
       y="216.10001"
       width="21.299999"
       height="21.299999"
       rx="5.6999998"
       ry="5.6999998"
       id="rect94" />
    <rect
       class="st0"
       x="187.8"
       y="216.10001"
       width="21.299999"
       height="21.299999"
       rx="5.6999998"
       ry="5.6999998"
       id="rect96" />
  </g>
  <g
     id="g110"
     transform="translate(-52.200001,-9)">
    <rect
       class="st0"
       x="74.400002"
       y="88.599998"
       width="21.299999"
       height="21.299999"
       rx="5.6999998"
       ry="5.6999998"
       id="rect100" />
    <rect
       class="st0"
       x="102.8"
       y="88.599998"
       width="21.299999"
       height="21.299999"
       rx="5.6999998"
       ry="5.6999998"
       id="rect102" />
    <rect
       class="st0"
       x="131.10001"
       y="88.599998"
       width="21.299999"
       height="21.299999"
       rx="5.6999998"
       ry="5.6999998"
       id="rect104" />
    <rect
       class="st0"
       x="159.39999"
       y="88.599998"
       width="21.299999"
       height="21.299999"
       rx="5.6999998"
       ry="5.6999998"
       id="rect106" />
    <rect
       class="st0"
       x="187.8"
       y="88.599998"
       width="21.299999"
       height="21.299999"
       rx="5.6999998"
       ry="5.6999998"
       id="rect108" />
  </g>
  <g
     id="g122"
     transform="translate(-52.200001,-9)">
    <rect
       class="st0"
       x="74.400002"
       y="46.099998"
       width="21.299999"
       height="21.299999"
       rx="5.6999998"
       ry="5.6999998"
       id="rect112" />
    <rect
       class="st0"
       x="102.8"
       y="46.099998"
       width="21.299999"
       height="21.299999"
       rx="5.6999998"
       ry="5.6999998"
       id="rect114" />
    <rect
       class="st0"
       x="131.10001"
       y="46.099998"
       width="21.299999"
       height="21.299999"
       rx="5.6999998"
       ry="5.6999998"
       id="rect116" />
    <rect
       class="st0"
       x="159.39999"
       y="46.099998"
       width="21.299999"
       height="21.299999"
       rx="5.6999998"
       ry="5.6999998"
       id="rect118" />
    <rect
       class="st0"
       x="187.8"
       y="46.099998"
       width="21.299999"
       height="21.299999"
       rx="5.6999998"
       ry="5.6999998"
       id="rect120" />
  </g>
  <g
     id="g130"
     transform="translate(-52.200001,-9)">
    <path
       class="st5"
       d="m 116.5,142.6 c -0.9,4 -2.9,7.4 -2.9,7.4 0,0 -2,-3.3 -2.9,-7.4 -0.9,-4.1 1.3,-7.4 2.9,-7.4 1.6,0 3.8,3.4 2.9,7.4 z"
       id="path124" />
    <path
       class="st5"
       d="m 112.3,142.2 c 1.3,3.9 1.2,7.9 1.2,7.9 0,0 -3.4,-1.8 -6.2,-5 -2.8,-3 -2.6,-7.1 -1.2,-7.9 1.4,-0.8 5,1.1 6.2,5 z"
       id="path126" />
    <path
       class="st5"
       d="m 119.9,145.1 c -2.8,3.1 -6.2,5 -6.2,5 0,0 0,-3.8 1.2,-7.9 1.2,-4.1 4.8,-5.8 6.2,-5 1.4,0.8 1.6,4.9 -1.2,7.9 z"
       id="path128" />
  </g>
  <g
     id="g150"
     transform="translate(-52.200001,-9)">
    <path
       class="st4"
       d="m 83.1,137.2 c 1.3,2 1.8,4.2 1.8,4.2 0,0 -2.1,-0.5 -4.2,-1.8 -2.1,-1.3 -2.5,-3.5 -1.8,-4.2 0.7,-0.7 2.9,-0.1 4.2,1.8 z"
       id="path132" />
    <path
       class="st4"
       d="m 80.6,139.7 c 2.3,0.5 4.3,1.7 4.3,1.7 0,0 -1.9,1.1 -4.3,1.7 -2.4,0.6 -4.3,-0.7 -4.3,-1.7 0,-1 2,-2.2 4.3,-1.7 z"
       id="path134" />
    <path
       class="st4"
       d="m 80.7,143.2 c 2,-1.3 4.2,-1.8 4.2,-1.8 0,0 -0.5,2.1 -1.8,4.2 -1.3,2.1 -3.5,2.5 -4.2,1.8 -0.7,-0.7 -0.1,-2.9 1.8,-4.2 z"
       id="path136" />
    <path
       class="st4"
       d="m 83.2,146 c 0.5,-2.3 1.7,-4.3 1.7,-4.3 0,0 1.1,1.9 1.7,4.3 0.6,2.4 -0.7,4.3 -1.7,4.3 -1,0 -2.2,-2 -1.7,-4.3 z"
       id="path138" />
    <path
       class="st4"
       d="m 86.6,137.5 c -0.5,2.3 -1.7,4.3 -1.7,4.3 0,0 -1.1,-1.9 -1.7,-4.3 -0.6,-2.4 0.7,-4.3 1.7,-4.3 1,0 2.2,2 1.7,4.3 z"
       id="path140" />
    <path
       class="st4"
       d="m 89.2,140 c -2,1.3 -4.2,1.8 -4.2,1.8 0,0 0.5,-2.1 1.8,-4.2 1.3,-2 3.5,-2.5 4.2,-1.8 0.7,0.7 0.1,2.9 -1.8,4.2 z"
       id="path142" />
    <path
       class="st4"
       d="m 89.1,143.5 c -2.3,-0.5 -4.3,-1.7 -4.3,-1.7 0,0 1.9,-1.1 4.3,-1.7 2.4,-0.6 4.3,0.7 4.3,1.7 0,1 -2,2.2 -4.3,1.7 z"
       id="path144" />
    <path
       class="st4"
       d="m 86.9,146 c -1.3,-2 -1.8,-4.2 -1.8,-4.2 0,0 2.1,0.5 4.2,1.8 2.1,1.3 2.5,3.5 1.8,4.2 -0.7,0.7 -2.9,0.1 -4.2,-1.8 z"
       id="path146" />
    <circle
       class="st6"
       cx="84.900002"
       cy="141.60001"
       r="1.3"
       id="circle148" />
  </g>
  <line
     class="st2"
     x1="22.200001"
     y1="154"
     x2="156.90001"
     y2="154"
     id="line152" />
  <line
     class="st2"
     x1="22.200001"
     y1="111.5"
     x2="156.90001"
     y2="111.5"
     id="line154" />
  <line
     class="st2"
     x1="23.499996"
     y1="69"
     x2="158.2"
     y2="69"
     id="line156" />
  <line
     class="st2"
     x1="23.499996"
     y1="196.5"
     x2="158.2"
     y2="196.5"
     id="line158" />
  <g
     id="g178"
     transform="translate(-52.200001,-9)">
    <path
       class="st4"
       d="m 83.2,52.1 c 1.3,2 1.8,4.2 1.8,4.2 0,0 -2.1,-0.5 -4.2,-1.8 -2.1,-1.3 -2.5,-3.5 -1.8,-4.2 0.7,-0.7 2.9,-0.1 4.2,1.8 z"
       id="path160" />
    <path
       class="st4"
       d="m 80.8,54.6 c 2.3,0.5 4.3,1.7 4.3,1.7 0,0 -1.9,1.1 -4.3,1.7 -2.4,0.6 -4.3,-0.7 -4.3,-1.7 0,-1 2,-2.2 4.3,-1.7 z"
       id="path162" />
    <path
       class="st4"
       d="m 80.9,58.1 c 2,-1.3 4.2,-1.8 4.2,-1.8 0,0 -0.5,2.1 -1.8,4.2 -1.3,2.1 -3.5,2.5 -4.2,1.8 -0.7,-0.7 -0.1,-2.9 1.8,-4.2 z"
       id="path164" />
    <path
       class="st4"
       d="m 83.4,60.9 c 0.5,-2.3 1.7,-4.3 1.7,-4.3 0,0 1.1,1.9 1.7,4.3 0.6,2.4 -0.7,4.3 -1.7,4.3 -1,0 -2.2,-2 -1.7,-4.3 z"
       id="path166" />
    <path
       class="st4"
       d="m 86.7,52.4 c -0.5,2.3 -1.7,4.3 -1.7,4.3 0,0 -1.1,-1.9 -1.7,-4.3 -0.6,-2.4 0.7,-4.3 1.7,-4.3 1,0 2.2,2 1.7,4.3 z"
       id="path168" />
    <path
       class="st4"
       d="m 89.4,54.9 c -2,1.3 -4.2,1.8 -4.2,1.8 0,0 0.5,-2.1 1.8,-4.2 1.3,-2 3.5,-2.5 4.2,-1.8 0.7,0.7 0.1,2.9 -1.8,4.2 z"
       id="path170" />
    <path
       class="st4"
       d="M 89.3,58.4 C 87,57.9 85,56.7 85,56.7 c 0,0 1.9,-1.1 4.3,-1.7 2.4,-0.6 4.3,0.7 4.3,1.7 0,1 -2,2.2 -4.3,1.7 z"
       id="path172" />
    <path
       class="st4"
       d="m 87,60.9 c -1.3,-2 -1.8,-4.2 -1.8,-4.2 0,0 2.1,0.5 4.2,1.8 2.1,1.3 2.5,3.5 1.8,4.2 -0.7,0.7 -2.9,0.1 -4.2,-1.8 z"
       id="path174" />
    <circle
       class="st6"
       cx="85"
       cy="56.5"
       r="1.3"
       id="circle176" />
  </g>
  <g
     id="g198"
     transform="translate(-52.200001,-9)">
    <path
       class="st4"
       d="m 111.6,52.1 c 1.3,2 1.8,4.2 1.8,4.2 0,0 -2.1,-0.5 -4.2,-1.8 -2.1,-1.3 -2.5,-3.5 -1.8,-4.2 0.7,-0.7 2.9,-0.1 4.2,1.8 z"
       id="path180" />
    <path
       class="st4"
       d="m 109.1,54.6 c 2.3,0.5 4.3,1.7 4.3,1.7 0,0 -1.9,1.1 -4.3,1.7 -2.4,0.6 -4.3,-0.7 -4.3,-1.7 0,-1 2,-2.2 4.3,-1.7 z"
       id="path182" />
    <path
       class="st4"
       d="m 109.2,58.1 c 2,-1.3 4.2,-1.8 4.2,-1.8 0,0 -0.5,2.1 -1.8,4.2 -1.3,2.1 -3.5,2.5 -4.2,1.8 -0.7,-0.7 -0.1,-2.9 1.8,-4.2 z"
       id="path184" />
    <path
       class="st4"
       d="m 111.7,60.9 c 0.5,-2.3 1.7,-4.3 1.7,-4.3 0,0 1.1,1.9 1.7,4.3 0.6,2.4 -0.7,4.3 -1.7,4.3 -1,0 -2.2,-2 -1.7,-4.3 z"
       id="path186" />
    <path
       class="st4"
       d="m 115.1,52.4 c -0.5,2.3 -1.7,4.3 -1.7,4.3 0,0 -1.1,-1.9 -1.7,-4.3 -0.6,-2.4 0.7,-4.3 1.7,-4.3 1,0 2.2,2 1.7,4.3 z"
       id="path188" />
    <path
       class="st4"
       d="m 117.7,54.9 c -2,1.3 -4.2,1.8 -4.2,1.8 0,0 0.5,-2.1 1.8,-4.2 1.3,-2 3.5,-2.5 4.2,-1.8 0.7,0.7 0.1,2.9 -1.8,4.2 z"
       id="path190" />
    <path
       class="st4"
       d="m 117.6,58.4 c -2.3,-0.5 -4.3,-1.7 -4.3,-1.7 0,0 1.9,-1.1 4.3,-1.7 2.4,-0.6 4.3,0.7 4.3,1.7 0,1 -2,2.2 -4.3,1.7 z"
       id="path192" />
    <path
       class="st4"
       d="m 115.3,60.9 c -1.3,-2 -1.8,-4.2 -1.8,-4.2 0,0 2.1,0.5 4.2,1.8 2.1,1.3 2.5,3.5 1.8,4.2 -0.7,0.7 -2.9,0.1 -4.2,-1.8 z"
       id="path194" />
    <circle
       class="st6"
       cx="113.4"
       cy="56.5"
       r="1.3"
       id="circle196" />
  </g>
  <g
     id="g218"
     transform="translate(-52.200001,-9)">
    <path
       class="st4"
       d="m 139.9,52.3 c 1.3,2 1.8,4.2 1.8,4.2 0,0 -2.1,-0.5 -4.2,-1.8 -2.1,-1.3 -2.5,-3.5 -1.8,-4.2 0.7,-0.7 2.9,-0.1 4.2,1.8 z"
       id="path200" />
    <path
       class="st4"
       d="m 137.5,54.8 c 2.3,0.5 4.3,1.7 4.3,1.7 0,0 -1.9,1.1 -4.3,1.7 -2.4,0.6 -4.3,-0.7 -4.3,-1.7 0,-1 2,-2.2 4.3,-1.7 z"
       id="path202" />
    <path
       class="st4"
       d="m 137.5,58.3 c 2,-1.3 4.2,-1.8 4.2,-1.8 0,0 -0.5,2.1 -1.8,4.2 -1.3,2.1 -3.5,2.5 -4.2,1.8 -0.7,-0.7 -0.1,-2.9 1.8,-4.2 z"
       id="path204" />
    <path
       class="st4"
       d="m 140.1,61.1 c 0.5,-2.3 1.7,-4.3 1.7,-4.3 0,0 1.1,1.9 1.7,4.3 0.6,2.4 -0.7,4.3 -1.7,4.3 -1,0 -2.2,-2 -1.7,-4.3 z"
       id="path206" />
    <path
       class="st4"
       d="m 143.4,52.6 c -0.5,2.3 -1.7,4.3 -1.7,4.3 0,0 -1.1,-1.9 -1.7,-4.3 -0.6,-2.4 0.7,-4.3 1.7,-4.3 1,0 2.2,2 1.7,4.3 z"
       id="path208" />
    <path
       class="st4"
       d="m 146.1,55.1 c -2,1.3 -4.2,1.8 -4.2,1.8 0,0 0.5,-2.1 1.8,-4.2 1.3,-2.1 3.5,-2.5 4.2,-1.8 0.7,0.7 0.1,2.9 -1.8,4.2 z"
       id="path210" />
    <path
       class="st4"
       d="m 146,58.6 c -2.3,-0.5 -4.3,-1.7 -4.3,-1.7 0,0 1.9,-1.1 4.3,-1.7 2.4,-0.6 4.3,0.7 4.3,1.7 0,1 -2,2.2 -4.3,1.7 z"
       id="path212" />
    <path
       class="st4"
       d="m 143.7,61.1 c -1.3,-2 -1.8,-4.2 -1.8,-4.2 0,0 2.1,0.5 4.2,1.8 2.1,1.3 2.5,3.5 1.8,4.2 -0.7,0.7 -2.9,0.1 -4.2,-1.8 z"
       id="path214" />
    <circle
       class="st6"
       cx="141.7"
       cy="56.700001"
       r="1.3"
       id="circle216" />
  </g>
  <g
     id="g226"
     transform="translate(-52.200001,-9)">
    <path
       class="st5"
       d="m 173,56.9 c -0.9,4 -2.9,7.4 -2.9,7.4 0,0 -2,-3.3 -2.9,-7.4 -0.9,-4.1 1.3,-7.4 2.9,-7.4 1.6,0 3.8,3.4 2.9,7.4 z"
       id="path220" />
    <path
       class="st5"
       d="m 168.9,56.4 c 1.3,3.9 1.2,7.9 1.2,7.9 0,0 -3.4,-1.8 -6.2,-5 -2.8,-3 -2.6,-7.1 -1.2,-7.9 1.4,-0.8 5,1.1 6.2,5 z"
       id="path222" />
    <path
       class="st5"
       d="m 176.5,59.4 c -2.8,3.1 -6.2,5 -6.2,5 0,0 0,-3.8 1.2,-7.9 1.2,-4.1 4.8,-5.8 6.2,-5 1.4,0.8 1.6,4.9 -1.2,7.9 z"
       id="path224" />
  </g>
  <g
     id="g234"
     transform="translate(-52.200001,-9)">
    <path
       class="st5"
       d="m 201.4,57.4 c -0.9,4 -2.9,7.4 -2.9,7.4 0,0 -2,-3.3 -2.9,-7.4 -0.9,-4.1 1.3,-7.4 2.9,-7.4 1.6,0 3.8,3.4 2.9,7.4 z"
       id="path228" />
    <path
       class="st5"
       d="m 197.2,57 c 1.3,3.9 1.2,7.9 1.2,7.9 0,0 -3.4,-1.8 -6.2,-5 -2.8,-3 -2.6,-7.1 -1.2,-7.9 1.4,-0.8 5,1.1 6.2,5 z"
       id="path230" />
    <path
       class="st5"
       d="m 204.9,59.9 c -2.8,3.1 -6.2,5 -6.2,5 0,0 0,-3.8 1.2,-7.9 1.2,-4.1 4.8,-5.8 6.2,-5 1.4,0.8 1.6,4.9 -1.2,7.9 z"
       id="path232" />
  </g>
  <g
     id="g254"
     transform="translate(-52.200001,-9)">
    <path
       class="st4"
       d="m 83.2,94.6 c 1.3,2 1.8,4.2 1.8,4.2 0,0 -2.1,-0.5 -4.2,-1.8 -2.1,-1.3 -2.5,-3.5 -1.8,-4.2 0.7,-0.7 2.9,-0.1 4.2,1.8 z"
       id="path236" />
    <path
       class="st4"
       d="m 80.8,97.1 c 2.3,0.5 4.3,1.7 4.3,1.7 0,0 -1.9,1.1 -4.3,1.7 -2.4,0.6 -4.3,-0.7 -4.3,-1.7 0,-1 2,-2.2 4.3,-1.7 z"
       id="path238" />
    <path
       class="st4"
       d="m 80.9,100.6 c 2,-1.3 4.2,-1.8 4.2,-1.8 0,0 -0.5,2.1 -1.8,4.2 -1.3,2.1 -3.5,2.5 -4.2,1.8 -0.7,-0.7 -0.1,-2.9 1.8,-4.2 z"
       id="path240" />
    <path
       class="st4"
       d="m 83.4,103.5 c 0.5,-2.3 1.7,-4.3 1.7,-4.3 0,0 1.1,1.9 1.7,4.3 0.6,2.4 -0.7,4.3 -1.7,4.3 -1,0 -2.2,-2 -1.7,-4.3 z"
       id="path242" />
    <path
       class="st4"
       d="m 86.7,95 c -0.5,2.3 -1.7,4.3 -1.7,4.3 0,0 -1.1,-1.9 -1.7,-4.3 -0.6,-2.4 0.7,-4.3 1.7,-4.3 1,0 2.2,2 1.7,4.3 z"
       id="path244" />
    <path
       class="st4"
       d="m 89.4,97.4 c -2,1.3 -4.2,1.8 -4.2,1.8 0,0 0.5,-2.1 1.8,-4.2 1.3,-2 3.5,-2.5 4.2,-1.8 0.7,0.7 0.1,2.9 -1.8,4.2 z"
       id="path246" />
    <path
       class="st4"
       d="M 89.3,100.9 C 87,100.4 85,99.2 85,99.2 c 0,0 1.9,-1.1 4.3,-1.7 2.4,-0.6 4.3,0.7 4.3,1.7 0,1 -2,2.2 -4.3,1.7 z"
       id="path248" />
    <path
       class="st4"
       d="m 87,103.4 c -1.3,-2 -1.8,-4.2 -1.8,-4.2 0,0 2.1,0.5 4.2,1.8 2.1,1.3 2.5,3.5 1.8,4.2 -0.7,0.7 -2.9,0.1 -4.2,-1.8 z"
       id="path250" />
    <circle
       class="st6"
       cx="85"
       cy="99"
       r="1.3"
       id="circle252" />
  </g>
  <g
     id="g262"
     transform="translate(-52.200001,-9)">
    <path
       class="st5"
       d="m 116.4,100.3 c -0.9,4 -2.9,7.4 -2.9,7.4 0,0 -2,-3.3 -2.9,-7.4 -0.9,-4.1 1.3,-7.4 2.9,-7.4 1.6,0 3.8,3.4 2.9,7.4 z"
       id="path256" />
    <path
       class="st5"
       d="m 112.3,99.9 c 1.3,3.9 1.2,7.9 1.2,7.9 0,0 -3.4,-1.8 -6.2,-5 -2.8,-3 -2.6,-7.1 -1.2,-7.9 1.4,-0.8 5,1.1 6.2,5 z"
       id="path258" />
    <path
       class="st5"
       d="m 119.9,102.8 c -2.8,3.1 -6.2,5 -6.2,5 0,0 0,-3.8 1.2,-7.9 1.2,-4.1 4.8,-5.8 6.2,-5 1.4,0.8 1.6,4.9 -1.2,7.9 z"
       id="path260" />
  </g>
  <g
     id="g282"
     transform="translate(-52.200001,-9)">
    <path
       class="st4"
       d="m 139.9,94.8 c 1.3,2 1.8,4.2 1.8,4.2 0,0 -2.1,-0.5 -4.2,-1.8 -2.1,-1.3 -2.5,-3.5 -1.8,-4.2 0.7,-0.7 2.9,-0.1 4.2,1.8 z"
       id="path264" />
    <path
       class="st4"
       d="m 137.5,97.3 c 2.3,0.5 4.3,1.7 4.3,1.7 0,0 -1.9,1.1 -4.3,1.7 -2.4,0.6 -4.3,-0.7 -4.3,-1.7 0,-1 2,-2.2 4.3,-1.7 z"
       id="path266" />
    <path
       class="st4"
       d="m 137.5,100.8 c 2,-1.3 4.2,-1.8 4.2,-1.8 0,0 -0.5,2.1 -1.8,4.2 -1.3,2.1 -3.5,2.5 -4.2,1.8 -0.7,-0.7 -0.1,-2.9 1.8,-4.2 z"
       id="path268" />
    <path
       class="st4"
       d="m 140.1,103.7 c 0.5,-2.3 1.7,-4.3 1.7,-4.3 0,0 1.1,1.9 1.7,4.3 0.6,2.4 -0.7,4.3 -1.7,4.3 -1,0 -2.2,-2 -1.7,-4.3 z"
       id="path270" />
    <path
       class="st4"
       d="m 143.4,95.2 c -0.5,2.3 -1.7,4.3 -1.7,4.3 0,0 -1.1,-1.9 -1.7,-4.3 -0.6,-2.4 0.7,-4.3 1.7,-4.3 1,0 2.2,2 1.7,4.3 z"
       id="path272" />
    <path
       class="st4"
       d="m 146.1,97.6 c -2,1.3 -4.2,1.8 -4.2,1.8 0,0 0.5,-2.1 1.8,-4.2 1.3,-2.1 3.5,-2.5 4.2,-1.8 0.7,0.7 0.1,2.9 -1.8,4.2 z"
       id="path274" />
    <path
       class="st4"
       d="m 146,101.1 c -2.3,-0.5 -4.3,-1.7 -4.3,-1.7 0,0 1.9,-1.1 4.3,-1.7 2.4,-0.6 4.3,0.7 4.3,1.7 0,1 -2,2.2 -4.3,1.7 z"
       id="path276" />
    <path
       class="st4"
       d="m 143.7,103.6 c -1.3,-2 -1.8,-4.2 -1.8,-4.2 0,0 2.1,0.5 4.2,1.8 2.1,1.3 2.5,3.5 1.8,4.2 -0.7,0.7 -2.9,0.1 -4.2,-1.8 z"
       id="path278" />
    <circle
       class="st6"
       cx="141.7"
       cy="99.199997"
       r="1.3"
       id="circle280" />
  </g>
  <g
     id="g302"
     transform="translate(-52.200001,-9)">
    <path
       class="st4"
       d="m 168.4,94.9 c 1.3,2 1.8,4.2 1.8,4.2 0,0 -2.1,-0.5 -4.2,-1.8 -2.1,-1.3 -2.5,-3.5 -1.8,-4.2 0.7,-0.7 2.9,-0.1 4.2,1.8 z"
       id="path284" />
    <path
       class="st4"
       d="m 165.9,97.4 c 2.3,0.5 4.3,1.7 4.3,1.7 0,0 -1.9,1.1 -4.3,1.7 -2.4,0.6 -4.3,-0.7 -4.3,-1.7 0,-1 2,-2.2 4.3,-1.7 z"
       id="path286" />
    <path
       class="st4"
       d="m 166,100.9 c 2,-1.3 4.2,-1.8 4.2,-1.8 0,0 -0.5,2.1 -1.8,4.2 -1.3,2.1 -3.5,2.5 -4.2,1.8 -0.7,-0.7 -0.1,-2.9 1.8,-4.2 z"
       id="path288" />
    <path
       class="st4"
       d="m 168.5,103.8 c 0.5,-2.3 1.7,-4.3 1.7,-4.3 0,0 1.1,1.9 1.7,4.3 0.6,2.4 -0.7,4.3 -1.7,4.3 -1,0 -2.2,-2 -1.7,-4.3 z"
       id="path290" />
    <path
       class="st4"
       d="m 171.9,95.3 c -0.5,2.3 -1.7,4.3 -1.7,4.3 0,0 -1.1,-1.9 -1.7,-4.3 -0.6,-2.4 0.7,-4.3 1.7,-4.3 1,0 2.2,2 1.7,4.3 z"
       id="path292" />
    <path
       class="st4"
       d="m 174.5,97.7 c -2,1.3 -4.2,1.8 -4.2,1.8 0,0 0.5,-2.1 1.8,-4.2 1.3,-2 3.5,-2.5 4.2,-1.8 0.7,0.7 0.1,2.9 -1.8,4.2 z"
       id="path294" />
    <path
       class="st4"
       d="m 174.4,101.2 c -2.3,-0.5 -4.3,-1.7 -4.3,-1.7 0,0 1.9,-1.1 4.3,-1.7 2.4,-0.6 4.3,0.7 4.3,1.7 0,1 -2,2.2 -4.3,1.7 z"
       id="path296" />
    <path
       class="st4"
       d="m 172.1,103.7 c -1.3,-2 -1.8,-4.2 -1.8,-4.2 0,0 2.1,0.5 4.2,1.8 2.1,1.3 2.5,3.5 1.8,4.2 -0.7,0.7 -2.9,0.1 -4.2,-1.8 z"
       id="path298" />
    <circle
       class="st6"
       cx="170.2"
       cy="99.300003"
       r="1.3"
       id="circle300" />
  </g>
  <g
     id="g310"
     transform="translate(-52.200001,-9)">
    <path
       class="st5"
       d="m 201.3,100.3 c -0.9,4 -2.9,7.4 -2.9,7.4 0,0 -2,-3.3 -2.9,-7.4 -0.9,-4.1 1.3,-7.4 2.9,-7.4 1.6,0 3.8,3.4 2.9,7.4 z"
       id="path304" />
    <path
       class="st5"
       d="m 197.2,99.9 c 1.3,3.9 1.2,7.9 1.2,7.9 0,0 -3.4,-1.8 -6.2,-5 -2.8,-3 -2.6,-7.1 -1.2,-7.9 1.4,-0.8 5,1.1 6.2,5 z"
       id="path306" />
    <path
       class="st5"
       d="m 204.8,102.8 c -2.8,3.1 -6.2,5 -6.2,5 0,0 0,-3.8 1.2,-7.9 1.2,-4.1 4.8,-5.8 6.2,-5 1.4,0.8 1.6,4.9 -1.2,7.9 z"
       id="path308" />
  </g>
  <g
     id="g318"
     transform="translate(-52.200001,-9)">
    <path
       class="st5"
       d="m 144.7,142.6 c -0.9,4 -2.9,7.4 -2.9,7.4 0,0 -2,-3.3 -2.9,-7.4 -0.9,-4.1 1.3,-7.4 2.9,-7.4 1.6,0 3.8,3.4 2.9,7.4 z"
       id="path312" />
    <path
       class="st5"
       d="m 140.6,142.2 c 1.3,3.9 1.2,7.9 1.2,7.9 0,0 -3.4,-1.8 -6.2,-5 -2.8,-3 -2.6,-7.1 -1.2,-7.9 1.4,-0.8 5,1.1 6.2,5 z"
       id="path314" />
    <path
       class="st5"
       d="m 148.2,145.1 c -2.8,3.1 -6.2,5 -6.2,5 0,0 0,-3.8 1.2,-7.9 1.2,-4.1 4.8,-5.8 6.2,-5 1.4,0.8 1.6,4.9 -1.2,7.9 z"
       id="path316" />
  </g>
  <g
     id="g326"
     transform="translate(-52.200001,-9)">
    <path
       class="st5"
       d="m 173.2,142.6 c -0.9,4 -2.9,7.4 -2.9,7.4 0,0 -2,-3.3 -2.9,-7.4 -0.9,-4 1.3,-7.4 2.9,-7.4 1.6,0 3.8,3.4 2.9,7.4 z"
       id="path320" />
    <path
       class="st5"
       d="m 169.1,142.2 c 1.3,3.9 1.2,7.9 1.2,7.9 0,0 -3.4,-1.8 -6.2,-5 -2.8,-3.2 -2.6,-7.1 -1.2,-7.9 1.4,-0.8 5,1.1 6.2,5 z"
       id="path322" />
    <path
       class="st5"
       d="m 176.7,145.1 c -2.8,3.1 -6.2,5 -6.2,5 0,0 0,-3.8 1.2,-7.9 1.2,-4.1 4.8,-5.8 6.2,-5 1.4,0.8 1.6,4.9 -1.2,7.9 z"
       id="path324" />
  </g>
  <g
     id="g346"
     transform="translate(-52.200001,-9)">
    <path
       class="st4"
       d="m 196.5,137.3 c 1.3,2 1.8,4.2 1.8,4.2 0,0 -2.1,-0.5 -4.2,-1.8 -2.1,-1.3 -2.5,-3.5 -1.8,-4.2 0.7,-0.7 2.9,-0.1 4.2,1.8 z"
       id="path328" />
    <path
       class="st4"
       d="m 194.1,139.8 c 2.3,0.5 4.3,1.7 4.3,1.7 0,0 -1.9,1.1 -4.3,1.7 -2.4,0.6 -4.3,-0.7 -4.3,-1.7 0,-1 2,-2.2 4.3,-1.7 z"
       id="path330" />
    <path
       class="st4"
       d="m 194.1,143.3 c 2,-1.3 4.2,-1.8 4.2,-1.8 0,0 -0.5,2.1 -1.8,4.2 -1.3,2.1 -3.5,2.5 -4.2,1.8 -0.7,-0.7 -0.1,-2.9 1.8,-4.2 z"
       id="path332" />
    <path
       class="st4"
       d="m 196.6,146.2 c 0.5,-2.3 1.7,-4.3 1.7,-4.3 0,0 1.1,1.9 1.7,4.3 0.6,2.4 -0.7,4.3 -1.7,4.3 -1,0 -2.2,-2 -1.7,-4.3 z"
       id="path334" />
    <path
       class="st4"
       d="m 200,137.7 c -0.5,2.3 -1.7,4.3 -1.7,4.3 0,0 -1.1,-1.9 -1.7,-4.3 -0.6,-2.4 0.7,-4.3 1.7,-4.3 1,0 2.2,2 1.7,4.3 z"
       id="path336" />
    <path
       class="st4"
       d="m 202.6,140.1 c -2,1.3 -4.2,1.8 -4.2,1.8 0,0 0.5,-2.1 1.8,-4.2 1.3,-2 3.5,-2.5 4.2,-1.8 0.7,0.7 0.1,2.9 -1.8,4.2 z"
       id="path338" />
    <path
       class="st4"
       d="m 202.6,143.6 c -2.3,-0.5 -4.3,-1.7 -4.3,-1.7 0,0 1.9,-1.1 4.3,-1.7 2.4,-0.6 4.3,0.7 4.3,1.7 0,1 -2,2.2 -4.3,1.7 z"
       id="path340" />
    <path
       class="st4"
       d="m 200.3,146.1 c -1.3,-2 -1.8,-4.2 -1.8,-4.2 0,0 2.1,0.5 4.2,1.8 2.1,1.3 2.5,3.5 1.8,4.2 -0.7,0.7 -2.9,0.1 -4.2,-1.8 z"
       id="path342" />
    <circle
       class="st6"
       cx="198.3"
       cy="141.7"
       r="1.3"
       id="circle344" />
  </g>
  <g
     id="g366"
     transform="translate(-52.200001,-9)">
    <path
       class="st4"
       d="m 140,179.9 c 1.3,2 1.8,4.2 1.8,4.2 0,0 -2.1,-0.5 -4.2,-1.8 -2.1,-1.3 -2.5,-3.5 -1.8,-4.2 0.7,-0.7 2.9,-0.1 4.2,1.8 z"
       id="path348" />
    <path
       class="st4"
       d="m 137.6,182.4 c 2.3,0.5 4.3,1.7 4.3,1.7 0,0 -1.9,1.1 -4.3,1.7 -2.4,0.6 -4.3,-0.7 -4.3,-1.7 0,-1 2,-2.2 4.3,-1.7 z"
       id="path350" />
    <path
       class="st4"
       d="m 137.7,185.9 c 2,-1.3 4.2,-1.8 4.2,-1.8 0,0 -0.5,2.1 -1.8,4.2 -1.3,2.1 -3.5,2.5 -4.2,1.8 -0.7,-0.7 -0.1,-2.9 1.8,-4.2 z"
       id="path352" />
    <path
       class="st4"
       d="m 140.2,188.7 c 0.5,-2.3 1.7,-4.3 1.7,-4.3 0,0 1.1,1.9 1.7,4.3 0.6,2.4 -0.7,4.3 -1.7,4.3 -1,0 -2.2,-2 -1.7,-4.3 z"
       id="path354" />
    <path
       class="st4"
       d="m 143.5,180.2 c -0.5,2.3 -1.7,4.3 -1.7,4.3 0,0 -1.1,-1.9 -1.7,-4.3 -0.6,-2.4 0.7,-4.3 1.7,-4.3 1,0 2.2,2 1.7,4.3 z"
       id="path356" />
    <path
       class="st4"
       d="m 146.2,182.7 c -2,1.3 -4.2,1.8 -4.2,1.8 0,0 0.5,-2.1 1.8,-4.2 1.3,-2 3.5,-2.5 4.2,-1.8 0.7,0.7 0.1,2.9 -1.8,4.2 z"
       id="path358" />
    <path
       class="st4"
       d="m 146.1,186.1 c -2.3,-0.5 -4.3,-1.7 -4.3,-1.7 0,0 1.9,-1.1 4.3,-1.7 2.4,-0.6 4.3,0.7 4.3,1.7 0,1 -2,2.2 -4.3,1.7 z"
       id="path360" />
    <path
       class="st4"
       d="m 143.8,188.7 c -1.3,-2 -1.8,-4.2 -1.8,-4.2 0,0 2.1,0.5 4.2,1.8 2.1,1.3 2.5,3.5 1.8,4.2 -0.7,0.7 -2.9,0.1 -4.2,-1.8 z"
       id="path362" />
    <circle
       class="st6"
       cx="141.89999"
       cy="184.3"
       r="1.3"
       id="circle364" />
  </g>
  <g
     id="g386"
     transform="translate(-52.200001,-9)">
    <path
       class="st4"
       d="m 168.4,179.9 c 1.3,2 1.8,4.2 1.8,4.2 0,0 -2.1,-0.5 -4.2,-1.8 -2.1,-1.3 -2.5,-3.5 -1.8,-4.2 0.7,-0.7 2.9,-0.1 4.2,1.8 z"
       id="path368" />
    <path
       class="st4"
       d="m 166,182.4 c 2.3,0.5 4.3,1.7 4.3,1.7 0,0 -1.9,1.1 -4.3,1.7 -2.4,0.6 -4.3,-0.7 -4.3,-1.7 0,-1 2,-2.2 4.3,-1.7 z"
       id="path370" />
    <path
       class="st4"
       d="m 166,185.9 c 2,-1.3 4.2,-1.8 4.2,-1.8 0,0 -0.5,2.1 -1.8,4.2 -1.3,2.1 -3.5,2.5 -4.2,1.8 -0.7,-0.7 -0.1,-2.9 1.8,-4.2 z"
       id="path372" />
    <path
       class="st4"
       d="m 168.5,188.7 c 0.5,-2.3 1.7,-4.3 1.7,-4.3 0,0 1.1,1.9 1.7,4.3 0.6,2.4 -0.7,4.3 -1.7,4.3 -1,0 -2.2,-2 -1.7,-4.3 z"
       id="path374" />
    <path
       class="st4"
       d="m 171.9,180.2 c -0.5,2.3 -1.7,4.3 -1.7,4.3 0,0 -1.1,-1.9 -1.7,-4.3 -0.6,-2.4 0.7,-4.3 1.7,-4.3 1,0 2.2,2 1.7,4.3 z"
       id="path376" />
    <path
       class="st4"
       d="m 174.5,182.7 c -2,1.3 -4.2,1.8 -4.2,1.8 0,0 0.5,-2.1 1.8,-4.2 1.3,-2 3.5,-2.5 4.2,-1.8 0.7,0.7 0.1,2.9 -1.8,4.2 z"
       id="path378" />
    <path
       class="st4"
       d="m 174.5,186.1 c -2.3,-0.5 -4.3,-1.7 -4.3,-1.7 0,0 1.9,-1.1 4.3,-1.7 2.4,-0.6 4.3,0.7 4.3,1.7 0,1 -2,2.2 -4.3,1.7 z"
       id="path380" />
    <path
       class="st4"
       d="m 172.2,188.7 c -1.3,-2 -1.8,-4.2 -1.8,-4.2 0,0 2.1,0.5 4.2,1.8 2.1,1.3 2.5,3.5 1.8,4.2 -0.7,0.7 -2.9,0.1 -4.2,-1.8 z"
       id="path382" />
    <circle
       class="st6"
       cx="170.2"
       cy="184.3"
       r="1.3"
       id="circle384" />
  </g>
  <g
     id="g406"
     transform="translate(-52.200001,-9)">
    <path
       class="st4"
       d="m 196.7,180.1 c 1.3,2 1.8,4.2 1.8,4.2 0,0 -2.1,-0.5 -4.2,-1.8 -2.1,-1.3 -2.5,-3.5 -1.8,-4.2 0.7,-0.7 2.9,-0.1 4.2,1.8 z"
       id="path388" />
    <path
       class="st4"
       d="m 194.3,182.6 c 2.3,0.5 4.3,1.7 4.3,1.7 0,0 -1.9,1.1 -4.3,1.7 -2.4,0.6 -4.3,-0.7 -4.3,-1.7 0,-1 2,-2.2 4.3,-1.7 z"
       id="path390" />
    <path
       class="st4"
       d="m 194.4,186.1 c 2,-1.3 4.2,-1.8 4.2,-1.8 0,0 -0.5,2.1 -1.8,4.2 -1.3,2.1 -3.5,2.5 -4.2,1.8 -0.7,-0.7 -0.1,-2.9 1.8,-4.2 z"
       id="path392" />
    <path
       class="st4"
       d="m 196.9,188.9 c 0.5,-2.3 1.7,-4.3 1.7,-4.3 0,0 1.1,1.9 1.7,4.3 0.6,2.4 -0.7,4.3 -1.7,4.3 -1,0 -2.2,-2 -1.7,-4.3 z"
       id="path394" />
    <path
       class="st4"
       d="m 200.2,180.4 c -0.5,2.3 -1.7,4.3 -1.7,4.3 0,0 -1.1,-1.9 -1.7,-4.3 -0.5,-2.3 0.7,-4.3 1.7,-4.3 1,0 2.2,2 1.7,4.3 z"
       id="path396" />
    <path
       class="st4"
       d="m 202.9,182.9 c -2,1.3 -4.2,1.8 -4.2,1.8 0,0 0.5,-2.1 1.8,-4.2 1.3,-2.1 3.5,-2.5 4.2,-1.8 0.7,0.7 0.1,2.9 -1.8,4.2 z"
       id="path398" />
    <path
       class="st4"
       d="m 202.8,186.4 c -2.3,-0.5 -4.3,-1.7 -4.3,-1.7 0,0 1.9,-1.1 4.3,-1.7 2.4,-0.6 4.3,0.7 4.3,1.7 0,1 -2,2.2 -4.3,1.7 z"
       id="path400" />
    <path
       class="st4"
       d="m 200.5,188.9 c -1.3,-2 -1.8,-4.2 -1.8,-4.2 0,0 2.1,0.5 4.2,1.8 2.1,1.3 2.5,3.5 1.8,4.2 -0.7,0.7 -2.9,0.1 -4.2,-1.8 z"
       id="path402" />
    <circle
       class="st6"
       cx="198.60001"
       cy="184.5"
       r="1.3"
       id="circle404" />
  </g>
  <g
     id="g414"
     transform="translate(-52.200001,-9)">
    <path
       class="st5"
       d="m 87.8,184.7 c -0.9,4 -2.9,7.4 -2.9,7.4 0,0 -2,-3.3 -2.9,-7.4 -0.9,-4.1 1.3,-7.4 2.9,-7.4 1.6,0 3.8,3.4 2.9,7.4 z"
       id="path408" />
    <path
       class="st5"
       d="m 83.6,184.3 c 1.3,3.9 1.2,7.9 1.2,7.9 0,0 -3.4,-1.8 -6.2,-5 -2.8,-3 -2.6,-7.1 -1.2,-7.9 1.4,-0.8 5,1.1 6.2,5 z"
       id="path410" />
    <path
       class="st5"
       d="m 91.2,187.2 c -2.8,3.1 -6.2,5 -6.2,5 0,0 0,-3.8 1.2,-7.9 1.2,-4.1 4.8,-5.8 6.2,-5 1.4,0.8 1.6,4.9 -1.2,7.9 z"
       id="path412" />
  </g>
  <g
     id="g422"
     transform="translate(-52.200001,-9)">
    <path
       class="st5"
       d="m 116.1,185.2 c -0.9,4 -2.9,7.4 -2.9,7.4 0,0 -2,-3.3 -2.9,-7.4 -0.9,-4.1 1.3,-7.4 2.9,-7.4 1.6,0 3.8,3.4 2.9,7.4 z"
       id="path416" />
    <path
       class="st5"
       d="m 112,184.8 c 1.3,3.9 1.2,7.9 1.2,7.9 0,0 -3.4,-1.8 -6.2,-5 -2.8,-3 -2.6,-7.1 -1.2,-7.9 1.4,-0.8 5,1.1 6.2,5 z"
       id="path418" />
    <path
       class="st5"
       d="m 119.6,187.7 c -2.8,3.1 -6.2,5 -6.2,5 0,0 0,-3.8 1.2,-7.9 1.2,-4.1 4.8,-5.8 6.2,-5 1.4,0.8 1.6,4.9 -1.2,7.9 z"
       id="path420" />
  </g>
  <g
     id="g430"
     transform="translate(-52.200001,-9)">
    <path
       class="st5"
       d="m 87.8,227.5 c -0.9,4 -2.9,7.4 -2.9,7.4 0,0 -2,-3.3 -2.9,-7.4 -0.9,-4.1 1.3,-7.4 2.9,-7.4 1.6,0 3.8,3.4 2.9,7.4 z"
       id="path424" />
    <path
       class="st5"
       d="m 83.6,227.1 c 1.3,3.9 1.2,7.9 1.2,7.9 0,0 -3.4,-1.8 -6.2,-5 -2.8,-3 -2.6,-7.1 -1.2,-7.9 1.4,-0.8 5,1.1 6.2,5 z"
       id="path426" />
    <path
       class="st5"
       d="m 91.2,230 c -2.8,3.1 -6.2,5 -6.2,5 0,0 0,-3.8 1.2,-7.9 1.2,-4.1 4.8,-5.8 6.2,-5 1.4,0.8 1.6,4.9 -1.2,7.9 z"
       id="path428" />
  </g>
  <g
     id="g450"
     transform="translate(-52.200001,-9)">
    <path
       class="st4"
       d="m 111.7,222.3 c 1.3,2 1.8,4.2 1.8,4.2 0,0 -2.1,-0.5 -4.2,-1.8 -2.1,-1.3 -2.5,-3.5 -1.8,-4.2 0.7,-0.7 2.9,-0.1 4.2,1.8 z"
       id="path432" />
    <path
       class="st4"
       d="m 109.3,224.9 c 2.3,0.5 4.3,1.7 4.3,1.7 0,0 -1.9,1.1 -4.3,1.7 -2.4,0.6 -4.3,-0.7 -4.3,-1.7 0,-1 2,-2.2 4.3,-1.7 z"
       id="path434" />
    <path
       class="st4"
       d="m 109.4,228.4 c 2,-1.3 4.2,-1.8 4.2,-1.8 0,0 -0.5,2.1 -1.8,4.2 -1.3,2.1 -3.5,2.5 -4.2,1.8 -0.7,-0.7 -0.1,-2.9 1.8,-4.2 z"
       id="path436" />
    <path
       class="st4"
       d="m 111.9,231.2 c 0.5,-2.3 1.7,-4.3 1.7,-4.3 0,0 1.1,1.9 1.7,4.3 0.6,2.4 -0.7,4.3 -1.7,4.3 -1,0 -2.2,-2 -1.7,-4.3 z"
       id="path438" />
    <path
       class="st4"
       d="m 115.2,222.7 c -0.5,2.3 -1.7,4.3 -1.7,4.3 0,0 -1.1,-1.9 -1.7,-4.3 -0.6,-2.4 0.7,-4.3 1.7,-4.3 1,0 2.2,2 1.7,4.3 z"
       id="path440" />
    <path
       class="st4"
       d="m 117.9,225.1 c -2,1.3 -4.2,1.8 -4.2,1.8 0,0 0.5,-2.1 1.8,-4.2 1.3,-2 3.5,-2.5 4.2,-1.8 0.7,0.7 0.1,2.9 -1.8,4.2 z"
       id="path442" />
    <path
       class="st4"
       d="m 117.8,228.6 c -2.3,-0.5 -4.3,-1.7 -4.3,-1.7 0,0 1.9,-1.1 4.3,-1.7 2.4,-0.6 4.3,0.7 4.3,1.7 0,1 -2,2.2 -4.3,1.7 z"
       id="path444" />
    <path
       class="st4"
       d="m 115.5,231.1 c -1.3,-2 -1.8,-4.2 -1.8,-4.2 0,0 2.1,0.5 4.2,1.8 2.1,1.3 2.5,3.5 1.8,4.2 -0.7,0.7 -2.9,0.1 -4.2,-1.8 z"
       id="path446" />
    <circle
       class="st6"
       cx="113.6"
       cy="226.7"
       r="1.3"
       id="circle448" />
  </g>
  <g
     id="g470"
     transform="translate(-52.200001,-9)">
    <path
       class="st4"
       d="m 168.6,222.2 c 1.3,2 1.8,4.2 1.8,4.2 0,0 -2.1,-0.5 -4.2,-1.8 -2.1,-1.3 -2.5,-3.5 -1.8,-4.2 0.7,-0.7 2.9,-0.1 4.2,1.8 z"
       id="path452" />
    <path
       class="st4"
       d="m 166.2,224.8 c 2.3,0.5 4.3,1.7 4.3,1.7 0,0 -1.9,1.1 -4.3,1.7 -2.4,0.6 -4.3,-0.7 -4.3,-1.7 0,-1 2,-2.2 4.3,-1.7 z"
       id="path454" />
    <path
       class="st4"
       d="m 166.2,228.3 c 2,-1.3 4.2,-1.8 4.2,-1.8 0,0 -0.5,2.1 -1.8,4.2 -1.3,2.1 -3.5,2.5 -4.2,1.8 -0.7,-0.7 -0.1,-2.9 1.8,-4.2 z"
       id="path456" />
    <path
       class="st4"
       d="m 168.7,231.1 c 0.5,-2.3 1.7,-4.3 1.7,-4.3 0,0 1.1,1.9 1.7,4.3 0.6,2.4 -0.7,4.3 -1.7,4.3 -1,0 -2.2,-2 -1.7,-4.3 z"
       id="path458" />
    <path
       class="st4"
       d="m 172.1,222.6 c -0.5,2.3 -1.7,4.3 -1.7,4.3 0,0 -1.1,-1.9 -1.7,-4.3 -0.6,-2.4 0.7,-4.3 1.7,-4.3 1,0 2.2,2 1.7,4.3 z"
       id="path460" />
    <path
       class="st4"
       d="m 174.7,225 c -2,1.3 -4.2,1.8 -4.2,1.8 0,0 0.5,-2.1 1.8,-4.2 1.3,-2 3.5,-2.5 4.2,-1.8 0.7,0.7 0.1,2.9 -1.8,4.2 z"
       id="path462" />
    <path
       class="st4"
       d="m 174.7,228.5 c -2.3,-0.5 -4.3,-1.7 -4.3,-1.7 0,0 1.9,-1.1 4.3,-1.7 2.4,-0.6 4.3,0.7 4.3,1.7 0,1 -2,2.2 -4.3,1.7 z"
       id="path464" />
    <path
       class="st4"
       d="m 172.4,231 c -1.3,-2 -1.8,-4.2 -1.8,-4.2 0,0 2.1,0.5 4.2,1.8 2.1,1.3 2.5,3.5 1.8,4.2 -0.7,0.7 -2.9,0.1 -4.2,-1.8 z"
       id="path466" />
    <circle
       class="st6"
       cx="170.39999"
       cy="226.60001"
       r="1.3"
       id="circle468" />
  </g>
  <g
     id="g490"
     transform="translate(-52.200001,-9)">
    <path
       class="st4"
       d="m 196.9,222.4 c 1.3,2 1.8,4.2 1.8,4.2 0,0 -2.1,-0.5 -4.2,-1.8 -2.1,-1.3 -2.5,-3.5 -1.8,-4.2 0.7,-0.7 2.9,-0.1 4.2,1.8 z"
       id="path472" />
    <path
       class="st4"
       d="m 194.5,225 c 2.3,0.5 4.3,1.7 4.3,1.7 0,0 -1.9,1.1 -4.3,1.7 -2.4,0.6 -4.3,-0.7 -4.3,-1.7 0,-1 2,-2.2 4.3,-1.7 z"
       id="path474" />
    <path
       class="st4"
       d="m 194.6,228.5 c 2,-1.3 4.2,-1.8 4.2,-1.8 0,0 -0.5,2.1 -1.8,4.2 -1.3,2.1 -3.5,2.5 -4.2,1.8 -0.7,-0.7 -0.1,-2.9 1.8,-4.2 z"
       id="path476" />
    <path
       class="st4"
       d="m 197.1,231.3 c 0.5,-2.3 1.7,-4.3 1.7,-4.3 0,0 1.1,1.9 1.7,4.3 0.6,2.4 -0.7,4.3 -1.7,4.3 -1,0 -2.2,-2 -1.7,-4.3 z"
       id="path478" />
    <path
       class="st4"
       d="m 200.4,222.8 c -0.5,2.3 -1.7,4.3 -1.7,4.3 0,0 -1.1,-1.9 -1.7,-4.3 -0.5,-2.3 0.7,-4.3 1.7,-4.3 1,0 2.2,2 1.7,4.3 z"
       id="path480" />
    <path
       class="st4"
       d="m 203.1,225.2 c -2,1.3 -4.2,1.8 -4.2,1.8 0,0 0.5,-2.1 1.8,-4.2 1.3,-2.1 3.5,-2.5 4.2,-1.8 0.7,0.7 0.1,2.9 -1.8,4.2 z"
       id="path482" />
    <path
       class="st4"
       d="m 203,228.7 c -2.3,-0.5 -4.3,-1.7 -4.3,-1.7 0,0 1.9,-1.1 4.3,-1.7 2.4,-0.6 4.3,0.7 4.3,1.7 0,1 -2,2.2 -4.3,1.7 z"
       id="path484" />
    <path
       class="st4"
       d="m 200.7,231.2 c -1.3,-2 -1.8,-4.2 -1.8,-4.2 0,0 2.1,0.5 4.2,1.8 2.1,1.3 2.5,3.5 1.8,4.2 -0.7,0.7 -2.9,0.1 -4.2,-1.8 z"
       id="path486" />
    <circle
       class="st6"
       cx="198.8"
       cy="226.8"
       r="1.3"
       id="circle488" />
  </g>
  <g
     id="g498"
     transform="translate(-52.200001,-9)">
    <path
       class="st5"
       d="m 144.6,227.6 c -0.9,4 -2.9,7.4 -2.9,7.4 0,0 -2,-3.3 -2.9,-7.4 -0.9,-4.1 1.3,-7.4 2.9,-7.4 1.6,0 3.8,3.4 2.9,7.4 z"
       id="path492" />
    <path
       class="st5"
       d="m 140.5,227.1 c 1.3,3.9 1.2,7.9 1.2,7.9 0,0 -3.4,-1.8 -6.2,-5 -2.8,-3 -2.6,-7.1 -1.2,-7.9 1.4,-0.8 5,1.1 6.2,5 z"
       id="path494" />
    <path
       class="st5"
       d="m 148.1,230 c -2.8,3.1 -6.2,5 -6.2,5 0,0 0,-3.8 1.2,-7.9 1.2,-4.1 4.8,-5.8 6.2,-5 1.4,0.8 1.6,4.9 -1.2,7.9 z"
       id="path496" />
  </g>
  <text
     class="st7"
     id="text502"
     x="28.4"
     y="33.299999"><tspan
       x="28.4"
       y="33.299999"
       id="tspan500">A</tspan></text>
  <text
     class="st7"
     id="text506"
     x="56.700001"
     y="33.299999"><tspan
       x="56.700001"
       y="33.299999"
       id="tspan504">B</tspan></text>
  <text
     class="st7"
     id="text510"
     x="85.099998"
     y="33.299999"><tspan
       x="85.099998"
       y="33.299999"
       id="tspan508">C</tspan></text>
  <text
     class="st7"
     id="text514"
     x="113.4"
     y="33.299999"><tspan
       x="113.4"
       y="33.299999"
       id="tspan512">D</tspan></text>
  <text
     class="st7"
     id="text518"
     x="141.8"
     y="33.299999"><tspan
       x="141.8"
       y="33.299999"
       id="tspan516">E</tspan></text>
  <text
     class="st7"
     id="text522"
     x="9.499999"
     y="51"><tspan
       x="9.499999"
       y="51"
       id="tspan520">1</tspan></text>
  <text
     class="st7"
     id="text526"
     x="9.499999"
     y="93.599998"><tspan
       x="9.499999"
       y="93.599998"
       id="tspan524">2</tspan></text>
  <text
     class="st7"
     id="text530"
     x="9.499999"
     y="136.10001"><tspan
       x="9.499999"
       y="136.10001"
       id="tspan528">3</tspan></text>
  <text
     class="st7"
     id="text534"
     x="9.499999"
     y="178.60001"><tspan
       x="9.499999"
       y="178.60001"
       id="tspan532">4</tspan></text>
  <text
     class="st7"
     id="text538"
     x="9.499999"
     y="221.10001"><tspan
       x="9.499999"
       y="221.10001"
       id="tspan536">5</tspan></text>
</svg>
