<?xml version="1.0" encoding="UTF-8" standalone="no"?>
<svg
   id="Layer_1"
   version="1.1"
   viewBox="0 0 17.299999 17.299999"
   sodipodi:docname="2026-IR-05_flower.svg"
   width="17.299999"
   height="17.299999"
   inkscape:version="1.2.1 (9c6d41e410, 2022-07-14)"
   xmlns:inkscape="http://www.inkscape.org/namespaces/inkscape"
   xmlns:sodipodi="http://sodipodi.sourceforge.net/DTD/sodipodi-0.dtd"
   xmlns="http://www.w3.org/2000/svg"
   xmlns:svg="http://www.w3.org/2000/svg">
  <sodipodi:namedview
     id="namedview29"
     pagecolor="#ffffff"
     bordercolor="#000000"
     borderopacity="0.25"
     inkscape:showpageshadow="2"
     inkscape:pageopacity="0.0"
     inkscape:pagecheckerboard="0"
     inkscape:deskcolor="#d1d1d1"
     showgrid="false"
     inkscape:zoom="0.8324515"
     inkscape:cx="8.4088983"
     inkscape:cy="9.0095339"
     inkscape:window-width="2560"
     inkscape:window-height="1560"
     inkscape:window-x="-12"
     inkscape:window-y="-12"
     inkscape:window-maximized="1"
     inkscape:current-layer="Layer_1" />
  <!-- Generator: Adobe Illustrator 29.1.0, SVG Export Plug-In . SVG Version: 2.1.0 Build 142)  -->
  <defs
     id="defs4">
    <style
       id="style2">
      .st0 {
        fill: #fff;
        stroke: #262262;
      }

      .st0, .st1, .st2 {
        stroke-miterlimit: 10;
      }

      .st1 {
        fill: #bf2025;
      }

      .st1, .st2 {
        stroke: #fff;
        stroke-width: .2px;
      }

      .st2 {
        fill: #f3ea11;
      }
    </style>
  </defs>
  <rect
     class="st0"
     x="-1.7999939"
     y="-1.9999939"
     width="21.299999"
     height="21.299999"
     rx="5.6999998"
     ry="5.6999998"
     id="rect6" />
  <g
     id="g26"
     transform="translate(-132.9,-133.1)">
    <path
       class="st1"
       d="m 139.8,137.2 c 1.3,2 1.8,4.2 1.8,4.2 0,0 -2.1,-0.5 -4.2,-1.8 -2.1,-1.3 -2.5,-3.5 -1.8,-4.2 0.7,-0.7 2.9,-0.1 4.2,1.8 z"
       id="path8" />
    <path
       class="st1"
       d="m 137.3,139.7 c 2.3,0.5 4.3,1.7 4.3,1.7 0,0 -1.9,1.1 -4.3,1.7 -2.4,0.6 -4.3,-0.7 -4.3,-1.7 0,-1 2,-2.2 4.3,-1.7 z"
       id="path10" />
    <path
       class="st1"
       d="m 137.4,143.2 c 2,-1.3 4.2,-1.8 4.2,-1.8 0,0 -0.5,2.1 -1.8,4.2 -1.3,2.1 -3.5,2.5 -4.2,1.8 -0.7,-0.7 -0.1,-2.9 1.8,-4.2 z"
       id="path12" />
    <path
       class="st1"
       d="m 139.9,146 c 0.5,-2.3 1.7,-4.3 1.7,-4.3 0,0 1.1,1.9 1.7,4.3 0.6,2.4 -0.7,4.3 -1.7,4.3 -1,0 -2.2,-2 -1.7,-4.3 z"
       id="path14" />
    <path
       class="st1"
       d="m 143.3,137.5 c -0.5,2.3 -1.7,4.3 -1.7,4.3 0,0 -1.1,-1.9 -1.7,-4.3 -0.6,-2.4 0.7,-4.3 1.7,-4.3 1,0 2.2,2 1.7,4.3 z"
       id="path16" />
    <path
       class="st1"
       d="m 145.9,140 c -2,1.3 -4.2,1.8 -4.2,1.8 0,0 0.5,-2.1 1.8,-4.2 1.3,-2 3.5,-2.5 4.2,-1.8 0.7,0.7 0.1,2.9 -1.8,4.2 z"
       id="path18" />
    <path
       class="st1"
       d="m 145.8,143.5 c -2.3,-0.5 -4.3,-1.7 -4.3,-1.7 0,0 1.9,-1.1 4.3,-1.7 2.4,-0.6 4.3,0.7 4.3,1.7 0,1 -2,2.2 -4.3,1.7 z"
       id="path20" />
    <path
       class="st1"
       d="m 143.5,146 c -1.3,-2 -1.8,-4.2 -1.8,-4.2 0,0 2.1,0.5 4.2,1.8 2.1,1.3 2.5,3.5 1.8,4.2 -0.7,0.7 -2.9,0.1 -4.2,-1.8 z"
       id="path22" />
    <circle
       class="st2"
       cx="141.60001"
       cy="141.60001"
       r="1.3"
       id="circle24" />
  </g>
</svg>
