<?xml version="1.0" encoding="UTF-8" standalone="no"?>
<svg
   id="Layer_1"
   version="1.1"
   viewBox="0 0 172.3 265.39999"
   sodipodi:docname="2026-IR-05_answer.svg"
   width="172.3"
   height="265.39999"
   inkscape:version="1.2.1 (9c6d41e410, 2022-07-14)"
   xmlns:inkscape="http://www.inkscape.org/namespaces/inkscape"
   xmlns:sodipodi="http://sodipodi.sourceforge.net/DTD/sodipodi-0.dtd"
   xmlns="http://www.w3.org/2000/svg"
   xmlns:svg="http://www.w3.org/2000/svg">
  <sodipodi:namedview
     id="namedview521"
     pagecolor="#ffffff"
     bordercolor="#000000"
     borderopacity="0.25"
     inkscape:showpageshadow="2"
     inkscape:pageopacity="0.0"
     inkscape:pagecheckerboard="0"
     inkscape:deskcolor="#d1d1d1"
     showgrid="false"
     inkscape:zoom="0.8324515"
     inkscape:cx="86.491525"
     inkscape:cy="133.94174"
     inkscape:window-width="2560"
     inkscape:window-height="1560"
     inkscape:window-x="-12"
     inkscape:window-y="-12"
     inkscape:window-maximized="1"
     inkscape:current-layer="Layer_1" />
  <!-- Generator: Adobe Illustrator 29.1.0, SVG Export Plug-In . SVG Version: 2.1.0 Build 142)  -->
  <defs
     id="defs4">
    <style
       id="style2">
      .st0, .st1, .st2, .st3, .st4 {
        stroke: #262262;
      }

      .st0, .st1, .st2, .st3, .st4, .st5, .st6, .st7 {
        stroke-miterlimit: 10;
      }

      .st0, .st2, .st3 {
        fill: none;
      }

      .st1 {
        fill: #fff;
      }

      .st8 {
        fill: #231f20;
      }

      .st2 {
        stroke-width: 3px;
      }

      .st3 {
        stroke-dasharray: 3;
      }

      .st3, .st6 {
        stroke-width: .5px;
      }

      .st4 {
        fill: #88d6f8;
        stroke-width: 5px;
      }

      .st9 {
        opacity: .1;
      }

      .st5 {
        fill: #bf2025;
      }

      .st5, .st6, .st7 {
        stroke: #fff;
      }

      .st5, .st7 {
        stroke-width: .2px;
      }

      .st6 {
        fill: #00764f;
      }

      .st7 {
        fill: #f3ea11;
      }
    </style>
  </defs>
  <g
     class="st9"
     id="g368"
     transform="translate(-55.599998,-9)">
    <rect
       class="st4"
       x="58.099998"
       y="27"
       width="167.3"
       height="229.5"
       id="rect6" />
    <g
       id="g34">
      <g
         id="g20">
        <line
           class="st2"
           x1="159.2"
           y1="256.5"
           x2="159.2"
           y2="274.39999"
           id="line8" />
        <line
           class="st2"
           x1="187.60001"
           y1="256.5"
           x2="187.60001"
           y2="274.39999"
           id="line10" />
        <line
           class="st2"
           x1="215.89999"
           y1="256.5"
           x2="215.89999"
           y2="274.39999"
           id="line12" />
        <line
           class="st2"
           x1="130.89999"
           y1="256.5"
           x2="130.89999"
           y2="274.39999"
           id="line14" />
        <line
           class="st2"
           x1="102.5"
           y1="256.5"
           x2="102.5"
           y2="274.39999"
           id="line16" />
        <line
           class="st2"
           x1="74.199997"
           y1="256.5"
           x2="74.199997"
           y2="274.39999"
           id="line18" />
      </g>
      <g
         id="g32">
        <line
           class="st2"
           x1="173.39999"
           y1="256.5"
           x2="173.39999"
           y2="274.39999"
           id="line22" />
        <line
           class="st2"
           x1="201.8"
           y1="256.5"
           x2="201.8"
           y2="274.39999"
           id="line24" />
        <line
           class="st2"
           x1="145.10001"
           y1="256.5"
           x2="145.10001"
           y2="274.39999"
           id="line26" />
        <line
           class="st2"
           x1="116.7"
           y1="256.5"
           x2="116.7"
           y2="274.39999"
           id="line28" />
        <line
           class="st2"
           x1="88.400002"
           y1="256.5"
           x2="88.400002"
           y2="274.39999"
           id="line30" />
      </g>
    </g>
    <g
       id="g62">
      <g
         id="g48">
        <line
           class="st2"
           x1="159.2"
           y1="9"
           x2="159.2"
           y2="27"
           id="line36" />
        <line
           class="st2"
           x1="187.60001"
           y1="9"
           x2="187.60001"
           y2="27"
           id="line38" />
        <line
           class="st2"
           x1="215.89999"
           y1="9"
           x2="215.89999"
           y2="27"
           id="line40" />
        <line
           class="st2"
           x1="130.89999"
           y1="9"
           x2="130.89999"
           y2="27"
           id="line42" />
        <line
           class="st2"
           x1="102.5"
           y1="9"
           x2="102.5"
           y2="27"
           id="line44" />
        <line
           class="st2"
           x1="74.199997"
           y1="9"
           x2="74.199997"
           y2="27"
           id="line46" />
      </g>
      <g
         id="g60">
        <line
           class="st2"
           x1="173.39999"
           y1="9"
           x2="173.39999"
           y2="27"
           id="line50" />
        <line
           class="st2"
           x1="201.8"
           y1="9"
           x2="201.8"
           y2="27"
           id="line52" />
        <line
           class="st2"
           x1="145.10001"
           y1="9"
           x2="145.10001"
           y2="27"
           id="line54" />
        <line
           class="st2"
           x1="116.7"
           y1="9"
           x2="116.7"
           y2="27"
           id="line56" />
        <line
           class="st2"
           x1="88.400002"
           y1="9"
           x2="88.400002"
           y2="27"
           id="line58" />
      </g>
    </g>
    <rect
       class="st1"
       x="77.699997"
       y="173.60001"
       width="21.299999"
       height="21.299999"
       rx="5.6999998"
       ry="5.6999998"
       id="rect64" />
    <rect
       class="st1"
       x="134.39999"
       y="173.60001"
       width="21.299999"
       height="21.299999"
       rx="5.6999998"
       ry="5.6999998"
       id="rect66" />
    <rect
       class="st1"
       x="162.8"
       y="173.60001"
       width="21.299999"
       height="21.299999"
       rx="5.6999998"
       ry="5.6999998"
       id="rect68" />
    <rect
       class="st1"
       x="191.10001"
       y="173.60001"
       width="21.299999"
       height="21.299999"
       rx="5.6999998"
       ry="5.6999998"
       id="rect70" />
    <rect
       class="st1"
       x="77.699997"
       y="216.10001"
       width="21.299999"
       height="21.299999"
       rx="5.6999998"
       ry="5.6999998"
       id="rect72" />
    <rect
       class="st1"
       x="134.39999"
       y="216.10001"
       width="21.299999"
       height="21.299999"
       rx="5.6999998"
       ry="5.6999998"
       id="rect74" />
    <rect
       class="st1"
       x="162.8"
       y="216.10001"
       width="21.299999"
       height="21.299999"
       rx="5.6999998"
       ry="5.6999998"
       id="rect76" />
    <rect
       class="st1"
       x="191.10001"
       y="216.10001"
       width="21.299999"
       height="21.299999"
       rx="5.6999998"
       ry="5.6999998"
       id="rect78" />
    <rect
       class="st1"
       x="77.699997"
       y="88.599998"
       width="21.299999"
       height="21.299999"
       rx="5.6999998"
       ry="5.6999998"
       id="rect80" />
    <rect
       class="st1"
       x="134.39999"
       y="88.599998"
       width="21.299999"
       height="21.299999"
       rx="5.6999998"
       ry="5.6999998"
       id="rect82" />
    <rect
       class="st1"
       x="162.8"
       y="88.599998"
       width="21.299999"
       height="21.299999"
       rx="5.6999998"
       ry="5.6999998"
       id="rect84" />
    <rect
       class="st1"
       x="191.10001"
       y="88.599998"
       width="21.299999"
       height="21.299999"
       rx="5.6999998"
       ry="5.6999998"
       id="rect86" />
    <rect
       class="st1"
       x="77.699997"
       y="46.099998"
       width="21.299999"
       height="21.299999"
       rx="5.6999998"
       ry="5.6999998"
       id="rect88" />
    <rect
       class="st1"
       x="134.39999"
       y="46.099998"
       width="21.299999"
       height="21.299999"
       rx="5.6999998"
       ry="5.6999998"
       id="rect90" />
    <rect
       class="st1"
       x="162.8"
       y="46.099998"
       width="21.299999"
       height="21.299999"
       rx="5.6999998"
       ry="5.6999998"
       id="rect92" />
    <rect
       class="st1"
       x="191.10001"
       y="46.099998"
       width="21.299999"
       height="21.299999"
       rx="5.6999998"
       ry="5.6999998"
       id="rect94" />
    <line
       class="st3"
       x1="77.699997"
       y1="163"
       x2="212.39999"
       y2="163"
       id="line96" />
    <line
       class="st3"
       x1="77.699997"
       y1="120.5"
       x2="212.39999"
       y2="120.5"
       id="line98" />
    <line
       class="st3"
       x1="79"
       y1="78"
       x2="213.7"
       y2="78"
       id="line100" />
    <line
       class="st3"
       x1="79"
       y1="205.5"
       x2="213.7"
       y2="205.5"
       id="line102" />
    <g
       id="g122">
      <path
         class="st5"
         d="m 86.5,52.1 c 1.3,2 1.8,4.2 1.8,4.2 0,0 -2.1,-0.5 -4.2,-1.8 -2.1,-1.3 -2.5,-3.5 -1.8,-4.2 0.7,-0.7 2.9,-0.1 4.2,1.8 z"
         id="path104" />
      <path
         class="st5"
         d="m 84.1,54.6 c 2.3,0.5 4.3,1.7 4.3,1.7 0,0 -1.9,1.1 -4.3,1.7 -2.4,0.6 -4.3,-0.7 -4.3,-1.7 0,-1 2,-2.2 4.3,-1.7 z"
         id="path106" />
      <path
         class="st5"
         d="m 84.2,58.1 c 2,-1.3 4.2,-1.8 4.2,-1.8 0,0 -0.5,2.1 -1.8,4.2 -1.3,2.1 -3.5,2.5 -4.2,1.8 -0.7,-0.7 -0.1,-2.9 1.8,-4.2 z"
         id="path108" />
      <path
         class="st5"
         d="m 86.7,60.9 c 0.5,-2.3 1.7,-4.3 1.7,-4.3 0,0 1.1,1.9 1.7,4.3 0.6,2.4 -0.7,4.3 -1.7,4.3 -1,0 -2.2,-2 -1.7,-4.3 z"
         id="path110" />
      <path
         class="st5"
         d="m 90,52.4 c -0.5,2.3 -1.7,4.3 -1.7,4.3 0,0 -1.1,-1.9 -1.7,-4.3 -0.6,-2.4 0.7,-4.3 1.7,-4.3 1,0 2.2,2 1.7,4.3 z"
         id="path112" />
      <path
         class="st5"
         d="m 92.7,54.9 c -2,1.3 -4.2,1.8 -4.2,1.8 0,0 0.5,-2.1 1.8,-4.2 1.3,-2 3.5,-2.5 4.2,-1.8 0.7,0.7 0.1,2.9 -1.8,4.2 z"
         id="path114" />
      <path
         class="st5"
         d="m 92.6,58.4 c -2.3,-0.5 -4.3,-1.7 -4.3,-1.7 0,0 1.9,-1.1 4.3,-1.7 2.4,-0.6 4.3,0.7 4.3,1.7 0,1 -2,2.2 -4.3,1.7 z"
         id="path116" />
      <path
         class="st5"
         d="m 90.3,60.9 c -1.3,-2 -1.8,-4.2 -1.8,-4.2 0,0 2.1,0.5 4.2,1.8 2.1,1.3 2.5,3.5 1.8,4.2 -0.7,0.7 -2.9,0.1 -4.2,-1.8 z"
         id="path118" />
      <circle
         class="st7"
         cx="88.400002"
         cy="56.5"
         r="1.3"
         id="circle120" />
    </g>
    <g
       id="g142">
      <path
         class="st5"
         d="m 143.2,52.3 c 1.3,2 1.8,4.2 1.8,4.2 0,0 -2.1,-0.5 -4.2,-1.8 -2.1,-1.3 -2.5,-3.5 -1.8,-4.2 0.7,-0.7 2.9,-0.1 4.2,1.8 z"
         id="path124" />
      <path
         class="st5"
         d="m 140.8,54.8 c 2.3,0.5 4.3,1.7 4.3,1.7 0,0 -1.9,1.1 -4.3,1.7 -2.4,0.6 -4.3,-0.7 -4.3,-1.7 0,-1 2,-2.2 4.3,-1.7 z"
         id="path126" />
      <path
         class="st5"
         d="m 140.9,58.3 c 2,-1.3 4.2,-1.8 4.2,-1.8 0,0 -0.5,2.1 -1.8,4.2 -1.3,2.1 -3.5,2.5 -4.2,1.8 -0.7,-0.7 -0.1,-2.9 1.8,-4.2 z"
         id="path128" />
      <path
         class="st5"
         d="m 143.4,61.1 c 0.5,-2.3 1.7,-4.3 1.7,-4.3 0,0 1.1,1.9 1.7,4.3 0.6,2.4 -0.7,4.3 -1.7,4.3 -1,0 -2.2,-2 -1.7,-4.3 z"
         id="path130" />
      <path
         class="st5"
         d="m 146.7,52.6 c -0.5,2.3 -1.7,4.3 -1.7,4.3 0,0 -1.1,-1.9 -1.7,-4.3 -0.6,-2.4 0.7,-4.3 1.7,-4.3 1,0 2.2,2 1.7,4.3 z"
         id="path132" />
      <path
         class="st5"
         d="m 149.4,55.1 c -2,1.3 -4.2,1.8 -4.2,1.8 0,0 0.5,-2.1 1.8,-4.2 1.3,-2 3.5,-2.5 4.2,-1.8 0.7,0.7 0.1,2.9 -1.8,4.2 z"
         id="path134" />
      <path
         class="st5"
         d="M 149.3,58.6 C 147,58.1 145,56.9 145,56.9 c 0,0 1.9,-1.1 4.3,-1.7 2.4,-0.6 4.3,0.7 4.3,1.7 0,1 -2,2.2 -4.3,1.7 z"
         id="path136" />
      <path
         class="st5"
         d="m 147,61.1 c -1.3,-2 -1.8,-4.2 -1.8,-4.2 0,0 2.1,0.5 4.2,1.8 2.1,1.3 2.5,3.5 1.8,4.2 -0.7,0.7 -2.9,0.1 -4.2,-1.8 z"
         id="path138" />
      <circle
         class="st7"
         cx="145.10001"
         cy="56.700001"
         r="1.3"
         id="circle140" />
    </g>
    <g
       id="g150">
      <path
         class="st6"
         d="m 176.4,56.9 c -0.9,4 -2.9,7.4 -2.9,7.4 0,0 -2,-3.3 -2.9,-7.4 -0.9,-4.1 1.3,-7.4 2.9,-7.4 1.6,0 3.8,3.4 2.9,7.4 z"
         id="path144" />
      <path
         class="st6"
         d="m 172.2,56.4 c 1.3,3.9 1.2,7.9 1.2,7.9 0,0 -3.4,-1.8 -6.2,-5 -2.8,-3 -2.6,-7.1 -1.2,-7.9 1.4,-0.8 5,1.1 6.2,5 z"
         id="path146" />
      <path
         class="st6"
         d="m 179.8,59.4 c -2.8,3.1 -6.2,5 -6.2,5 0,0 0,-3.8 1.2,-7.9 1.2,-4.1 4.8,-5.8 6.2,-5 1.4,0.8 1.6,4.9 -1.2,7.9 z"
         id="path148" />
    </g>
    <g
       id="g158">
      <path
         class="st6"
         d="m 204.7,57.4 c -0.9,4 -2.9,7.4 -2.9,7.4 0,0 -2,-3.3 -2.9,-7.4 -0.9,-4.1 1.3,-7.4 2.9,-7.4 1.6,0 3.8,3.4 2.9,7.4 z"
         id="path152" />
      <path
         class="st6"
         d="m 200.6,57 c 1.3,3.9 1.2,7.9 1.2,7.9 0,0 -3.4,-1.8 -6.2,-5 -2.8,-3 -2.6,-7.1 -1.2,-7.9 1.4,-0.8 5,1.1 6.2,5 z"
         id="path154" />
      <path
         class="st6"
         d="m 208.2,59.9 c -2.8,3.1 -6.2,5 -6.2,5 0,0 0,-3.8 1.2,-7.9 1.2,-4.1 4.8,-5.8 6.2,-5 1.4,0.8 1.6,4.9 -1.2,7.9 z"
         id="path156" />
    </g>
    <g
       id="g178">
      <path
         class="st5"
         d="m 86.5,94.6 c 1.3,2 1.8,4.2 1.8,4.2 0,0 -2.1,-0.5 -4.2,-1.8 -2.1,-1.3 -2.5,-3.5 -1.8,-4.2 0.7,-0.7 2.9,-0.1 4.2,1.8 z"
         id="path160" />
      <path
         class="st5"
         d="m 84.1,97.1 c 2.3,0.5 4.3,1.7 4.3,1.7 0,0 -1.9,1.1 -4.3,1.7 -2.4,0.6 -4.3,-0.7 -4.3,-1.7 0,-1 2,-2.2 4.3,-1.7 z"
         id="path162" />
      <path
         class="st5"
         d="m 84.2,100.6 c 2,-1.3 4.2,-1.8 4.2,-1.8 0,0 -0.5,2.1 -1.8,4.2 -1.3,2.1 -3.5,2.5 -4.2,1.8 -0.7,-0.7 -0.1,-2.9 1.8,-4.2 z"
         id="path164" />
      <path
         class="st5"
         d="m 86.7,103.5 c 0.5,-2.3 1.7,-4.3 1.7,-4.3 0,0 1.1,1.9 1.7,4.3 0.6,2.4 -0.7,4.3 -1.7,4.3 -1,0 -2.2,-2 -1.7,-4.3 z"
         id="path166" />
      <path
         class="st5"
         d="m 90,95 c -0.5,2.3 -1.7,4.3 -1.7,4.3 0,0 -1.1,-1.9 -1.7,-4.3 -0.6,-2.4 0.7,-4.3 1.7,-4.3 1,0 2.2,2 1.7,4.3 z"
         id="path168" />
      <path
         class="st5"
         d="m 92.7,97.4 c -2,1.3 -4.2,1.8 -4.2,1.8 0,0 0.5,-2.1 1.8,-4.2 1.3,-2 3.5,-2.5 4.2,-1.8 0.7,0.7 0.1,2.9 -1.8,4.2 z"
         id="path170" />
      <path
         class="st5"
         d="m 92.6,100.9 c -2.3,-0.5 -4.3,-1.7 -4.3,-1.7 0,0 1.9,-1.1 4.3,-1.7 2.4,-0.6 4.3,0.7 4.3,1.7 0,1 -2,2.2 -4.3,1.7 z"
         id="path172" />
      <path
         class="st5"
         d="m 90.3,103.4 c -1.3,-2 -1.8,-4.2 -1.8,-4.2 0,0 2.1,0.5 4.2,1.8 2.1,1.3 2.5,3.5 1.8,4.2 -0.7,0.7 -2.9,0.1 -4.2,-1.8 z"
         id="path174" />
      <circle
         class="st7"
         cx="88.400002"
         cy="99"
         r="1.3"
         id="circle176" />
    </g>
    <g
       id="g198">
      <path
         class="st5"
         d="m 143.2,94.8 c 1.3,2 1.8,4.2 1.8,4.2 0,0 -2.1,-0.5 -4.2,-1.8 -2.1,-1.3 -2.5,-3.5 -1.8,-4.2 0.7,-0.7 2.9,-0.1 4.2,1.8 z"
         id="path180" />
      <path
         class="st5"
         d="m 140.8,97.3 c 2.3,0.5 4.3,1.7 4.3,1.7 0,0 -1.9,1.1 -4.3,1.7 -2.4,0.6 -4.3,-0.7 -4.3,-1.7 0,-1 2,-2.2 4.3,-1.7 z"
         id="path182" />
      <path
         class="st5"
         d="m 140.9,100.8 c 2,-1.3 4.2,-1.8 4.2,-1.8 0,0 -0.5,2.1 -1.8,4.2 -1.3,2.1 -3.5,2.5 -4.2,1.8 -0.7,-0.7 -0.1,-2.9 1.8,-4.2 z"
         id="path184" />
      <path
         class="st5"
         d="m 143.4,103.7 c 0.5,-2.3 1.7,-4.3 1.7,-4.3 0,0 1.1,1.9 1.7,4.3 0.6,2.4 -0.7,4.3 -1.7,4.3 -1,0 -2.2,-2 -1.7,-4.3 z"
         id="path186" />
      <path
         class="st5"
         d="m 146.7,95.2 c -0.5,2.3 -1.7,4.3 -1.7,4.3 0,0 -1.1,-1.9 -1.7,-4.3 -0.6,-2.4 0.7,-4.3 1.7,-4.3 1,0 2.2,2 1.7,4.3 z"
         id="path188" />
      <path
         class="st5"
         d="m 149.4,97.6 c -2,1.3 -4.2,1.8 -4.2,1.8 0,0 0.5,-2.1 1.8,-4.2 1.3,-2 3.5,-2.5 4.2,-1.8 0.7,0.7 0.1,2.9 -1.8,4.2 z"
         id="path190" />
      <path
         class="st5"
         d="m 149.3,101.1 c -2.3,-0.5 -4.3,-1.7 -4.3,-1.7 0,0 1.9,-1.1 4.3,-1.7 2.4,-0.6 4.3,0.7 4.3,1.7 0,1 -2,2.2 -4.3,1.7 z"
         id="path192" />
      <path
         class="st5"
         d="m 147,103.6 c -1.3,-2 -1.8,-4.2 -1.8,-4.2 0,0 2.1,0.5 4.2,1.8 2.1,1.3 2.5,3.5 1.8,4.2 -0.7,0.7 -2.9,0.1 -4.2,-1.8 z"
         id="path194" />
      <circle
         class="st7"
         cx="145.10001"
         cy="99.199997"
         r="1.3"
         id="circle196" />
    </g>
    <g
       id="g218">
      <path
         class="st5"
         d="m 171.7,94.9 c 1.3,2 1.8,4.2 1.8,4.2 0,0 -2.1,-0.5 -4.2,-1.8 -2.1,-1.3 -2.5,-3.5 -1.8,-4.2 0.7,-0.7 2.9,-0.1 4.2,1.8 z"
         id="path200" />
      <path
         class="st5"
         d="m 169.3,97.4 c 2.3,0.5 4.3,1.7 4.3,1.7 0,0 -1.9,1.1 -4.3,1.7 -2.4,0.6 -4.3,-0.7 -4.3,-1.7 0,-1 2,-2.2 4.3,-1.7 z"
         id="path202" />
      <path
         class="st5"
         d="m 169.3,100.9 c 2,-1.3 4.2,-1.8 4.2,-1.8 0,0 -0.5,2.1 -1.8,4.2 -1.3,2.1 -3.5,2.5 -4.2,1.8 -0.7,-0.7 -0.1,-2.9 1.8,-4.2 z"
         id="path204" />
      <path
         class="st5"
         d="m 171.8,103.8 c 0.5,-2.3 1.7,-4.3 1.7,-4.3 0,0 1.1,1.9 1.7,4.3 0.6,2.4 -0.7,4.3 -1.7,4.3 -1,0 -2.2,-2 -1.7,-4.3 z"
         id="path206" />
      <path
         class="st5"
         d="m 175.2,95.3 c -0.5,2.3 -1.7,4.3 -1.7,4.3 0,0 -1.1,-1.9 -1.7,-4.3 -0.6,-2.4 0.7,-4.3 1.7,-4.3 1,0 2.2,2 1.7,4.3 z"
         id="path208" />
      <path
         class="st5"
         d="m 177.8,97.7 c -2,1.3 -4.2,1.8 -4.2,1.8 0,0 0.5,-2.1 1.8,-4.2 1.3,-2.1 3.5,-2.5 4.2,-1.8 0.7,0.7 0.1,2.9 -1.8,4.2 z"
         id="path210" />
      <path
         class="st5"
         d="m 177.8,101.2 c -2.3,-0.5 -4.3,-1.7 -4.3,-1.7 0,0 1.9,-1.1 4.3,-1.7 2.4,-0.6 4.3,0.7 4.3,1.7 0,1 -2,2.2 -4.3,1.7 z"
         id="path212" />
      <path
         class="st5"
         d="m 175.5,103.7 c -1.3,-2 -1.8,-4.2 -1.8,-4.2 0,0 2.1,0.5 4.2,1.8 2.1,1.3 2.5,3.5 1.8,4.2 -0.7,0.7 -2.9,0.1 -4.2,-1.8 z"
         id="path214" />
      <circle
         class="st7"
         cx="173.5"
         cy="99.300003"
         r="1.3"
         id="circle216" />
    </g>
    <g
       id="g226">
      <path
         class="st6"
         d="m 204.6,100.3 c -0.9,4 -2.9,7.4 -2.9,7.4 0,0 -2,-3.3 -2.9,-7.4 -0.9,-4.1 1.3,-7.4 2.9,-7.4 1.6,0 3.8,3.4 2.9,7.4 z"
         id="path220" />
      <path
         class="st6"
         d="m 200.5,99.9 c 1.3,3.9 1.2,7.9 1.2,7.9 0,0 -3.4,-1.8 -6.2,-5 -2.8,-3 -2.6,-7.1 -1.2,-7.9 1.4,-0.8 5,1.1 6.2,5 z"
         id="path222" />
      <path
         class="st6"
         d="m 208.1,102.8 c -2.8,3.1 -6.2,5 -6.2,5 0,0 0,-3.8 1.2,-7.9 1.2,-4.1 4.8,-5.8 6.2,-5 1.4,0.8 1.6,4.9 -1.2,7.9 z"
         id="path224" />
    </g>
    <g
       id="g246">
      <path
         class="st5"
         d="m 143.4,179.9 c 1.3,2 1.8,4.2 1.8,4.2 0,0 -2.1,-0.5 -4.2,-1.8 -2.1,-1.3 -2.5,-3.5 -1.8,-4.2 0.7,-0.7 2.9,-0.1 4.2,1.8 z"
         id="path228" />
      <path
         class="st5"
         d="m 140.9,182.4 c 2.3,0.5 4.3,1.7 4.3,1.7 0,0 -1.9,1.1 -4.3,1.7 -2.4,0.6 -4.3,-0.7 -4.3,-1.7 0,-1 2,-2.2 4.3,-1.7 z"
         id="path230" />
      <path
         class="st5"
         d="m 141,185.9 c 2,-1.3 4.2,-1.8 4.2,-1.8 0,0 -0.5,2.1 -1.8,4.2 -1.3,2.1 -3.5,2.5 -4.2,1.8 -0.7,-0.7 -0.1,-2.9 1.8,-4.2 z"
         id="path232" />
      <path
         class="st5"
         d="m 143.5,188.7 c 0.5,-2.3 1.7,-4.3 1.7,-4.3 0,0 1.1,1.9 1.7,4.3 0.6,2.4 -0.7,4.3 -1.7,4.3 -1,0 -2.2,-2 -1.7,-4.3 z"
         id="path234" />
      <path
         class="st5"
         d="m 146.9,180.2 c -0.5,2.3 -1.7,4.3 -1.7,4.3 0,0 -1.1,-1.9 -1.7,-4.3 -0.6,-2.4 0.7,-4.3 1.7,-4.3 1,0 2.2,2 1.7,4.3 z"
         id="path236" />
      <path
         class="st5"
         d="m 149.5,182.7 c -2,1.3 -4.2,1.8 -4.2,1.8 0,0 0.5,-2.1 1.8,-4.2 1.3,-2 3.5,-2.5 4.2,-1.8 0.7,0.7 0.1,2.9 -1.8,4.2 z"
         id="path238" />
      <path
         class="st5"
         d="m 149.5,186.1 c -2.3,-0.5 -4.3,-1.7 -4.3,-1.7 0,0 1.9,-1.1 4.3,-1.7 2.4,-0.6 4.3,0.7 4.3,1.7 0,1 -2,2.2 -4.3,1.7 z"
         id="path240" />
      <path
         class="st5"
         d="m 147.2,188.7 c -1.3,-2 -1.8,-4.2 -1.8,-4.2 0,0 2.1,0.5 4.2,1.8 2.1,1.3 2.5,3.5 1.8,4.2 -0.7,0.7 -2.9,0.1 -4.2,-1.8 z"
         id="path242" />
      <circle
         class="st7"
         cx="145.2"
         cy="184.3"
         r="1.3"
         id="circle244" />
    </g>
    <g
       id="g266">
      <path
         class="st5"
         d="m 171.7,179.9 c 1.3,2 1.8,4.2 1.8,4.2 0,0 -2.1,-0.5 -4.2,-1.8 -2.1,-1.3 -2.5,-3.5 -1.8,-4.2 0.7,-0.7 2.9,-0.1 4.2,1.8 z"
         id="path248" />
      <path
         class="st5"
         d="m 169.3,182.4 c 2.3,0.5 4.3,1.7 4.3,1.7 0,0 -1.9,1.1 -4.3,1.7 -2.4,0.6 -4.3,-0.7 -4.3,-1.7 0,-1 2,-2.2 4.3,-1.7 z"
         id="path250" />
      <path
         class="st5"
         d="m 169.4,185.9 c 2,-1.3 4.2,-1.8 4.2,-1.8 0,0 -0.5,2.1 -1.8,4.2 -1.3,2.1 -3.5,2.5 -4.2,1.8 -0.7,-0.7 -0.1,-2.9 1.8,-4.2 z"
         id="path252" />
      <path
         class="st5"
         d="m 171.9,188.7 c 0.5,-2.3 1.7,-4.3 1.7,-4.3 0,0 1.1,1.9 1.7,4.3 0.6,2.4 -0.7,4.3 -1.7,4.3 -1,0 -2.2,-2 -1.7,-4.3 z"
         id="path254" />
      <path
         class="st5"
         d="m 175.2,180.2 c -0.5,2.3 -1.7,4.3 -1.7,4.3 0,0 -1.1,-1.9 -1.7,-4.3 -0.6,-2.4 0.7,-4.3 1.7,-4.3 1,0 2.2,2 1.7,4.3 z"
         id="path256" />
      <path
         class="st5"
         d="m 177.9,182.7 c -2,1.3 -4.2,1.8 -4.2,1.8 0,0 0.5,-2.1 1.8,-4.2 1.3,-2 3.5,-2.5 4.2,-1.8 0.7,0.7 0.1,2.9 -1.8,4.2 z"
         id="path258" />
      <path
         class="st5"
         d="m 177.8,186.1 c -2.3,-0.5 -4.3,-1.7 -4.3,-1.7 0,0 1.9,-1.1 4.3,-1.7 2.4,-0.6 4.3,0.7 4.3,1.7 0,1 -2,2.2 -4.3,1.7 z"
         id="path260" />
      <path
         class="st5"
         d="m 175.5,188.7 c -1.3,-2 -1.8,-4.2 -1.8,-4.2 0,0 2.1,0.5 4.2,1.8 2.1,1.3 2.5,3.5 1.8,4.2 -0.7,0.7 -2.9,0.1 -4.2,-1.8 z"
         id="path262" />
      <circle
         class="st7"
         cx="173.5"
         cy="184.3"
         r="1.3"
         id="circle264" />
    </g>
    <g
       id="g286">
      <path
         class="st5"
         d="m 200.1,180.1 c 1.3,2 1.8,4.2 1.8,4.2 0,0 -2.1,-0.5 -4.2,-1.8 -2.1,-1.3 -2.5,-3.5 -1.8,-4.2 0.7,-0.7 2.9,-0.1 4.2,1.8 z"
         id="path268" />
      <path
         class="st5"
         d="m 197.6,182.6 c 2.3,0.5 4.3,1.7 4.3,1.7 0,0 -1.9,1.1 -4.3,1.7 -2.4,0.6 -4.3,-0.7 -4.3,-1.7 0,-1 2,-2.2 4.3,-1.7 z"
         id="path270" />
      <path
         class="st5"
         d="m 197.7,186.1 c 2,-1.3 4.2,-1.8 4.2,-1.8 0,0 -0.5,2.1 -1.8,4.2 -1.3,2.1 -3.5,2.5 -4.2,1.8 -0.7,-0.7 -0.1,-2.9 1.8,-4.2 z"
         id="path272" />
      <path
         class="st5"
         d="m 200.2,188.9 c 0.5,-2.3 1.7,-4.3 1.7,-4.3 0,0 1.1,1.9 1.7,4.3 0.6,2.4 -0.7,4.3 -1.7,4.3 -1,0 -2.2,-2 -1.7,-4.3 z"
         id="path274" />
      <path
         class="st5"
         d="m 203.6,180.4 c -0.5,2.3 -1.7,4.3 -1.7,4.3 0,0 -1.1,-1.9 -1.7,-4.3 -0.5,-2.3 0.7,-4.3 1.7,-4.3 1,0 2.2,2 1.7,4.3 z"
         id="path276" />
      <path
         class="st5"
         d="m 206.2,182.9 c -2,1.3 -4.2,1.8 -4.2,1.8 0,0 0.5,-2.1 1.8,-4.2 1.3,-2.1 3.5,-2.5 4.2,-1.8 0.7,0.7 0.1,2.9 -1.8,4.2 z"
         id="path278" />
      <path
         class="st5"
         d="m 206.1,186.4 c -2.3,-0.5 -4.3,-1.7 -4.3,-1.7 0,0 1.9,-1.1 4.3,-1.7 2.4,-0.6 4.3,0.7 4.3,1.7 0,1 -2,2.2 -4.3,1.7 z"
         id="path280" />
      <path
         class="st5"
         d="m 203.9,188.9 c -1.3,-2 -1.8,-4.2 -1.8,-4.2 0,0 2.1,0.5 4.2,1.8 2.1,1.3 2.5,3.5 1.8,4.2 -0.7,0.7 -2.9,0.1 -4.2,-1.8 z"
         id="path282" />
      <circle
         class="st7"
         cx="201.89999"
         cy="184.5"
         r="1.3"
         id="circle284" />
    </g>
    <g
       id="g294">
      <path
         class="st6"
         d="m 91.1,184.7 c -0.9,4 -2.9,7.4 -2.9,7.4 0,0 -2,-3.3 -2.9,-7.4 -0.9,-4.1 1.3,-7.4 2.9,-7.4 1.6,0 3.8,3.4 2.9,7.4 z"
         id="path288" />
      <path
         class="st6"
         d="m 87,184.3 c 1.3,3.9 1.2,7.9 1.2,7.9 0,0 -3.4,-1.8 -6.2,-5 -2.8,-3 -2.6,-7.1 -1.2,-7.9 1.4,-0.8 5,1.1 6.2,5 z"
         id="path290" />
      <path
         class="st6"
         d="m 94.6,187.2 c -2.8,3.1 -6.2,5 -6.2,5 0,0 0,-3.8 1.2,-7.9 1.2,-4.1 4.8,-5.8 6.2,-5 1.4,0.8 1.6,4.9 -1.2,7.9 z"
         id="path292" />
    </g>
    <g
       id="g302">
      <path
         class="st6"
         d="m 91.1,227.5 c -0.9,4 -2.9,7.4 -2.9,7.4 0,0 -2,-3.3 -2.9,-7.4 -0.9,-4.1 1.3,-7.4 2.9,-7.4 1.6,0 3.8,3.4 2.9,7.4 z"
         id="path296" />
      <path
         class="st6"
         d="m 87,227.1 c 1.3,3.9 1.2,7.9 1.2,7.9 0,0 -3.4,-1.8 -6.2,-5 -2.8,-3 -2.6,-7.1 -1.2,-7.9 1.4,-0.8 5,1.1 6.2,5 z"
         id="path298" />
      <path
         class="st6"
         d="m 94.6,230 c -2.8,3.1 -6.2,5 -6.2,5 0,0 0,-3.8 1.2,-7.9 1.2,-4.1 4.8,-5.8 6.2,-5 1.4,0.8 1.6,4.9 -1.2,7.9 z"
         id="path300" />
    </g>
    <g
       id="g322">
      <path
         class="st5"
         d="m 171.9,222.2 c 1.3,2 1.8,4.2 1.8,4.2 0,0 -2.1,-0.5 -4.2,-1.8 -2.1,-1.3 -2.5,-3.5 -1.8,-4.2 0.7,-0.7 2.9,-0.1 4.2,1.8 z"
         id="path304" />
      <path
         class="st5"
         d="m 169.5,224.8 c 2.3,0.5 4.3,1.7 4.3,1.7 0,0 -1.9,1.1 -4.3,1.7 -2.4,0.6 -4.3,-0.7 -4.3,-1.7 0,-1 2,-2.2 4.3,-1.7 z"
         id="path306" />
      <path
         class="st5"
         d="m 169.6,228.3 c 2,-1.3 4.2,-1.8 4.2,-1.8 0,0 -0.5,2.1 -1.8,4.2 -1.3,2.1 -3.5,2.5 -4.2,1.8 -0.7,-0.7 -0.1,-2.9 1.8,-4.2 z"
         id="path308" />
      <path
         class="st5"
         d="m 172.1,231.1 c 0.5,-2.3 1.7,-4.3 1.7,-4.3 0,0 1.1,1.9 1.7,4.3 0.6,2.4 -0.7,4.3 -1.7,4.3 -1,0 -2.2,-2 -1.7,-4.3 z"
         id="path310" />
      <path
         class="st5"
         d="m 175.4,222.6 c -0.5,2.3 -1.7,4.3 -1.7,4.3 0,0 -1.1,-1.9 -1.7,-4.3 -0.6,-2.4 0.7,-4.3 1.7,-4.3 1,0 2.2,2 1.7,4.3 z"
         id="path312" />
      <path
         class="st5"
         d="m 178.1,225 c -2,1.3 -4.2,1.8 -4.2,1.8 0,0 0.5,-2.1 1.8,-4.2 1.3,-2 3.5,-2.5 4.2,-1.8 0.7,0.7 0.1,2.9 -1.8,4.2 z"
         id="path314" />
      <path
         class="st5"
         d="m 178,228.5 c -2.3,-0.5 -4.3,-1.7 -4.3,-1.7 0,0 1.9,-1.1 4.3,-1.7 2.4,-0.6 4.3,0.7 4.3,1.7 0,1 -2,2.2 -4.3,1.7 z"
         id="path316" />
      <path
         class="st5"
         d="m 175.7,231 c -1.3,-2 -1.8,-4.2 -1.8,-4.2 0,0 2.1,0.5 4.2,1.8 2.1,1.3 2.5,3.5 1.8,4.2 -0.7,0.7 -2.9,0.1 -4.2,-1.8 z"
         id="path318" />
      <circle
         class="st7"
         cx="173.8"
         cy="226.60001"
         r="1.3"
         id="circle320" />
    </g>
    <g
       id="g342">
      <path
         class="st5"
         d="m 200.3,222.4 c 1.3,2 1.8,4.2 1.8,4.2 0,0 -2.1,-0.5 -4.2,-1.8 -2.1,-1.3 -2.5,-3.5 -1.8,-4.2 0.7,-0.7 2.9,-0.1 4.2,1.8 z"
         id="path324" />
      <path
         class="st5"
         d="m 197.8,225 c 2.3,0.5 4.3,1.7 4.3,1.7 0,0 -1.9,1.1 -4.3,1.7 -2.4,0.6 -4.3,-0.7 -4.3,-1.7 0,-1 2,-2.2 4.3,-1.7 z"
         id="path326" />
      <path
         class="st5"
         d="m 197.9,228.5 c 2,-1.3 4.2,-1.8 4.2,-1.8 0,0 -0.5,2.1 -1.8,4.2 -1.3,2.1 -3.5,2.5 -4.2,1.8 -0.7,-0.7 -0.1,-2.9 1.8,-4.2 z"
         id="path328" />
      <path
         class="st5"
         d="m 200.4,231.3 c 0.5,-2.3 1.7,-4.3 1.7,-4.3 0,0 1.1,1.9 1.7,4.3 0.6,2.4 -0.7,4.3 -1.7,4.3 -1,0 -2.2,-2 -1.7,-4.3 z"
         id="path330" />
      <path
         class="st5"
         d="m 203.8,222.8 c -0.5,2.3 -1.7,4.3 -1.7,4.3 0,0 -1.1,-1.9 -1.7,-4.3 -0.5,-2.3 0.7,-4.3 1.7,-4.3 1,0 2.2,2 1.7,4.3 z"
         id="path332" />
      <path
         class="st5"
         d="m 206.4,225.2 c -2,1.3 -4.2,1.8 -4.2,1.8 0,0 0.5,-2.1 1.8,-4.2 1.3,-2.1 3.5,-2.5 4.2,-1.8 0.7,0.7 0.1,2.9 -1.8,4.2 z"
         id="path334" />
      <path
         class="st5"
         d="m 206.4,228.7 c -2.3,-0.5 -4.3,-1.7 -4.3,-1.7 0,0 1.9,-1.1 4.3,-1.7 2.4,-0.6 4.3,0.7 4.3,1.7 0,1 -2,2.2 -4.3,1.7 z"
         id="path336" />
      <path
         class="st5"
         d="m 204.1,231.2 c -1.3,-2 -1.8,-4.2 -1.8,-4.2 0,0 2.1,0.5 4.2,1.8 2.1,1.3 2.5,3.5 1.8,4.2 -0.7,0.7 -2.9,0.1 -4.2,-1.8 z"
         id="path338" />
      <circle
         class="st7"
         cx="202.10001"
         cy="226.8"
         r="1.3"
         id="circle340" />
    </g>
    <g
       id="g350">
      <path
         class="st6"
         d="m 147.9,227.6 c -0.9,4 -2.9,7.4 -2.9,7.4 0,0 -2,-3.3 -2.9,-7.4 -0.9,-4.1 1.3,-7.4 2.9,-7.4 1.6,0 3.8,3.4 2.9,7.4 z"
         id="path344" />
      <path
         class="st6"
         d="m 143.8,227.1 c 1.3,3.9 1.2,7.9 1.2,7.9 0,0 -3.4,-1.8 -6.2,-5 -2.8,-3 -2.6,-7.1 -1.2,-7.9 1.4,-0.8 5,1.1 6.2,5 z"
         id="path346" />
      <path
         class="st6"
         d="m 151.4,230 c -2.8,3.1 -6.2,5 -6.2,5 0,0 0,-3.8 1.2,-7.9 1.2,-4.1 4.8,-5.8 6.2,-5 1.4,0.8 1.6,4.9 -1.2,7.9 z"
         id="path348" />
    </g>
    <path
       class="st8"
       d="m 89.1,41.1 h -2.5 l -0.3,1.2 H 84 l 2.7,-7.2 h 2.4 l 2.7,7.2 H 89.5 Z M 88.6,39.6 87.8,37 87,39.6 Z"
       id="path352" />
    <path
       class="st8"
       d="m 169.7,35.1 h 3.3 c 0.6,0 1.2,0 1.6,0.3 0.4,0.2 0.7,0.4 1,0.8 0.3,0.3 0.4,0.7 0.6,1.1 0.2,0.4 0.2,0.9 0.2,1.4 0,0.8 0,1.4 -0.3,1.8 -0.2,0.4 -0.4,0.8 -0.7,1.1 -0.3,0.3 -0.6,0.5 -1,0.6 -0.5,0.1 -0.9,0.2 -1.3,0.2 h -3.3 v -7.2 z m 2.2,1.7 v 3.9 h 0.5 c 0.5,0 0.8,0 1,-0.2 0.2,-0.2 0.3,-0.3 0.5,-0.5 0.1,-0.3 0.2,-0.7 0.2,-1.2 0,-0.5 -0.1,-1.3 -0.4,-1.6 -0.2,-0.3 -0.7,-0.4 -1.2,-0.4 z"
       id="path354" />
    <path
       class="st8"
       d="m 198,35.1 h 5.9 v 1.5 h -3.7 v 1.1 h 3.4 v 1.5 h -3.4 v 1.4 h 3.8 v 1.6 h -6 V 35 Z"
       id="path356" />
    <path
       class="st8"
       d="m 70,52.8 v 7.3 h -2 v -4.8 c -0.3,0.2 -0.6,0.4 -0.9,0.6 -0.3,0.2 -0.7,0.3 -1.1,0.4 v -1.6 c 0.7,-0.2 1.2,-0.5 1.6,-0.8 0.4,-0.3 0.7,-0.7 0.9,-1.1 h 1.6 z"
       id="path358" />
    <path
       class="st8"
       d="m 71.3,102.6 h -6 c 0,-0.6 0.3,-1.1 0.6,-1.7 0.3,-0.6 1,-1.1 2,-1.8 0.6,-0.4 1,-0.8 1.1,-1 0.1,-0.2 0.2,-0.4 0.2,-0.6 0,-0.2 0,-0.4 -0.2,-0.6 -0.2,-0.2 -0.4,-0.2 -0.6,-0.2 -0.2,0 -0.5,0 -0.6,0.2 -0.1,0.2 -0.3,0.4 -0.3,0.8 l -2,-0.2 c 0,-0.6 0.2,-1 0.4,-1.3 0.2,-0.3 0.5,-0.6 0.9,-0.7 0.4,-0.1 0.9,-0.3 1.6,-0.3 0.7,0 1.2,0 1.6,0.2 0.4,0.2 0.7,0.4 0.9,0.7 0.2,0.3 0.3,0.7 0.3,1.1 0,0.4 -0.1,0.9 -0.4,1.2 -0.3,0.3 -0.7,0.8 -1.4,1.3 -0.4,0.3 -0.7,0.5 -0.8,0.6 -0.1,0.1 -0.3,0.3 -0.5,0.4 h 3.1 v 1.6 z"
       id="path360" />
    <path
       class="st8"
       d="m 68.9,186.3 h -3.6 v -1.6 l 3.6,-4.3 h 1.7 v 4.4 h 0.9 v 1.5 h -0.9 v 1.3 h -1.7 z m 0,-1.6 v -2.3 l -1.9,2.3 z"
       id="path362" />
    <path
       class="st8"
       d="m 66.2,223 h 4.7 v 1.6 h -3.2 l -0.2,1.1 c 0.2,-0.1 0.4,-0.2 0.7,-0.2 0.2,0 0.4,0 0.6,0 0.7,0 1.3,0.2 1.7,0.6 0.4,0.4 0.7,1 0.7,1.6 0,0.6 -0.1,0.9 -0.3,1.3 -0.2,0.4 -0.6,0.8 -1,1 -0.4,0.2 -1,0.3 -1.6,0.3 -0.6,0 -0.9,0 -1.2,-0.1 -0.3,0 -0.6,-0.2 -0.9,-0.4 -0.2,-0.2 -0.4,-0.4 -0.6,-0.6 -0.2,-0.2 -0.3,-0.5 -0.4,-0.8 l 2,-0.2 c 0,0.3 0.2,0.6 0.3,0.7 0.2,0.2 0.4,0.3 0.6,0.3 0.2,0 0.5,-0.1 0.7,-0.3 0.2,-0.2 0.3,-0.5 0.3,-0.9 0,-0.4 0,-0.7 -0.3,-0.9 -0.2,-0.2 -0.4,-0.3 -0.7,-0.3 -0.3,0 -0.4,0 -0.6,0.1 -0.1,0 -0.3,0.2 -0.4,0.4 l -1.7,-0.2 0.6,-3.8 z"
       id="path364" />
    <path
       class="st8"
       d="M 146.1,39.4 148,40 c -0.1,0.5 -0.3,1 -0.6,1.4 -0.3,0.4 -0.6,0.6 -1,0.8 -0.4,0.2 -0.9,0.3 -1.6,0.3 -0.7,0 -1.4,-0.1 -1.9,-0.3 -0.5,-0.2 -0.9,-0.6 -1.3,-1.2 -0.4,-0.6 -0.5,-1.3 -0.5,-2.2 0,-0.9 0.3,-2.1 0.9,-2.7 0.6,-0.6 1.5,-1 2.7,-1 1.2,0 1.6,0.2 2.1,0.5 0.5,0.4 0.9,0.9 1.2,1.7 l -2,0.4 c 0,-0.2 -0.1,-0.4 -0.2,-0.5 -0.1,-0.2 -0.3,-0.3 -0.5,-0.4 -0.2,0 -0.4,-0.1 -0.6,-0.1 -0.5,0 -0.9,0.2 -1.2,0.6 -0.2,0.3 -0.3,0.8 -0.3,1.4 0,0.6 0.1,1.3 0.4,1.6 0.2,0.3 0.6,0.4 1,0.4 0.4,0 0.7,-0.1 1,-0.4 0.2,-0.2 0.4,-0.6 0.5,-1 z"
       id="path366" />
  </g>
  <g
     id="g446"
     transform="translate(-55.599998,-9)">
    <g
       id="g380">
      <rect
         class="st1"
         x="77.699997"
         y="131.10001"
         width="21.299999"
         height="21.299999"
         rx="5.6999998"
         ry="5.6999998"
         id="rect370" />
      <rect
         class="st1"
         x="106.1"
         y="131.10001"
         width="21.299999"
         height="21.299999"
         rx="5.6999998"
         ry="5.6999998"
         id="rect372" />
      <rect
         class="st1"
         x="134.39999"
         y="131.10001"
         width="21.299999"
         height="21.299999"
         rx="5.6999998"
         ry="5.6999998"
         id="rect374" />
      <rect
         class="st1"
         x="162.8"
         y="131.10001"
         width="21.299999"
         height="21.299999"
         rx="5.6999998"
         ry="5.6999998"
         id="rect376" />
      <rect
         class="st1"
         x="191.10001"
         y="131.10001"
         width="21.299999"
         height="21.299999"
         rx="5.6999998"
         ry="5.6999998"
         id="rect378" />
    </g>
    <g
       id="g388">
      <path
         class="st6"
         d="m 119.8,142.6 c -0.9,4 -2.9,7.4 -2.9,7.4 0,0 -2,-3.3 -2.9,-7.4 -0.9,-4.1 1.3,-7.4 2.9,-7.4 1.6,0 3.8,3.4 2.9,7.4 z"
         id="path382" />
      <path
         class="st6"
         d="m 115.7,142.2 c 1.3,3.9 1.2,7.9 1.2,7.9 0,0 -3.4,-1.8 -6.2,-5 -2.8,-3 -2.6,-7.1 -1.2,-7.9 1.4,-0.8 5,1.1 6.2,5 z"
         id="path384" />
      <path
         class="st6"
         d="m 123.3,145.1 c -2.8,3.1 -6.2,5 -6.2,5 0,0 0,-3.8 1.2,-7.9 1.2,-4.1 4.8,-5.8 6.2,-5 1.4,0.8 1.6,4.9 -1.2,7.9 z"
         id="path386" />
    </g>
    <g
       id="g408">
      <path
         class="st5"
         d="m 86.4,137.2 c 1.3,2 1.8,4.2 1.8,4.2 0,0 -2.1,-0.5 -4.2,-1.8 -2.1,-1.3 -2.5,-3.5 -1.8,-4.2 0.7,-0.7 2.9,-0.1 4.2,1.8 z"
         id="path390" />
      <path
         class="st5"
         d="m 84,139.7 c 2.3,0.5 4.3,1.7 4.3,1.7 0,0 -1.9,1.1 -4.3,1.7 -2.4,0.6 -4.3,-0.7 -4.3,-1.7 0,-1 2,-2.2 4.3,-1.7 z"
         id="path392" />
      <path
         class="st5"
         d="m 84,143.2 c 2,-1.3 4.2,-1.8 4.2,-1.8 0,0 -0.5,2.1 -1.8,4.2 -1.3,2.1 -3.5,2.5 -4.2,1.8 -0.7,-0.7 -0.1,-2.9 1.8,-4.2 z"
         id="path394" />
      <path
         class="st5"
         d="m 86.5,146 c 0.5,-2.3 1.7,-4.3 1.7,-4.3 0,0 1.1,1.9 1.7,4.3 0.6,2.4 -0.7,4.3 -1.7,4.3 -1,0 -2.2,-2 -1.7,-4.3 z"
         id="path396" />
      <path
         class="st5"
         d="m 89.9,137.5 c -0.5,2.3 -1.7,4.3 -1.7,4.3 0,0 -1.1,-1.9 -1.7,-4.3 -0.5,-2.3 0.7,-4.3 1.7,-4.3 1,0 2.2,2 1.7,4.3 z"
         id="path398" />
      <path
         class="st5"
         d="m 92.6,140 c -2,1.3 -4.2,1.8 -4.2,1.8 0,0 0.5,-2.1 1.8,-4.2 1.3,-2 3.5,-2.5 4.2,-1.8 0.7,0.7 0.1,2.9 -1.8,4.2 z"
         id="path400" />
      <path
         class="st5"
         d="m 92.5,143.5 c -2.3,-0.5 -4.3,-1.7 -4.3,-1.7 0,0 1.9,-1.1 4.3,-1.7 2.4,-0.6 4.3,0.7 4.3,1.7 0,1 -2,2.2 -4.3,1.7 z"
         id="path402" />
      <path
         class="st5"
         d="m 90.2,146 c -1.3,-2 -1.8,-4.2 -1.8,-4.2 0,0 2.1,0.5 4.2,1.8 2.1,1.3 2.5,3.5 1.8,4.2 -0.7,0.7 -2.9,0.1 -4.2,-1.8 z"
         id="path404" />
      <circle
         class="st7"
         cx="88.199997"
         cy="141.60001"
         r="1.3"
         id="circle406" />
    </g>
    <g
       id="g416">
      <path
         class="st6"
         d="m 148.1,142.6 c -0.9,4 -2.9,7.4 -2.9,7.4 0,0 -2,-3.3 -2.9,-7.4 -0.9,-4.1 1.3,-7.4 2.9,-7.4 1.6,0 3.8,3.4 2.9,7.4 z"
         id="path410" />
      <path
         class="st6"
         d="m 143.9,142.2 c 1.3,3.9 1.2,7.9 1.2,7.9 0,0 -3.4,-1.8 -6.2,-5 -2.8,-3 -2.6,-7.1 -1.2,-7.9 1.4,-0.8 5,1.1 6.2,5 z"
         id="path412" />
      <path
         class="st6"
         d="m 151.5,145.1 c -2.8,3.1 -6.2,5 -6.2,5 0,0 0,-3.8 1.2,-7.9 1.2,-4.1 4.8,-5.8 6.2,-5 1.4,0.8 1.6,4.9 -1.2,7.9 z"
         id="path414" />
    </g>
    <g
       id="g424">
      <path
         class="st6"
         d="m 176.5,142.6 c -0.9,4 -2.9,7.4 -2.9,7.4 0,0 -2,-3.3 -2.9,-7.4 -0.9,-4 1.3,-7.4 2.9,-7.4 1.6,0 3.8,3.4 2.9,7.4 z"
         id="path418" />
      <path
         class="st6"
         d="m 172.4,142.2 c 1.3,3.9 1.2,7.9 1.2,7.9 0,0 -3.4,-1.8 -6.2,-5 -2.8,-3.2 -2.6,-7.1 -1.2,-7.9 1.4,-0.8 5,1.1 6.2,5 z"
         id="path420" />
      <path
         class="st6"
         d="m 180,145.1 c -2.8,3.1 -6.2,5 -6.2,5 0,0 0,-3.8 1.2,-7.9 1.2,-3.9 4.8,-5.8 6.2,-5 1.4,0.8 1.6,4.9 -1.2,7.9 z"
         id="path422" />
    </g>
    <g
       id="g444">
      <path
         class="st5"
         d="m 199.8,137.3 c 1.3,2 1.8,4.2 1.8,4.2 0,0 -2.1,-0.5 -4.2,-1.8 -2.1,-1.3 -2.5,-3.5 -1.8,-4.2 0.7,-0.7 2.9,-0.1 4.2,1.8 z"
         id="path426" />
      <path
         class="st5"
         d="m 197.4,139.8 c 2.3,0.5 4.3,1.7 4.3,1.7 0,0 -1.9,1.1 -4.3,1.7 -2.4,0.6 -4.3,-0.7 -4.3,-1.7 0,-1 2,-2.2 4.3,-1.7 z"
         id="path428" />
      <path
         class="st5"
         d="m 197.5,143.3 c 2,-1.3 4.2,-1.8 4.2,-1.8 0,0 -0.5,2.1 -1.8,4.2 -1.3,2.1 -3.5,2.5 -4.2,1.8 -0.7,-0.7 -0.1,-2.9 1.8,-4.2 z"
         id="path430" />
      <path
         class="st5"
         d="m 200,146.2 c 0.5,-2.3 1.7,-4.3 1.7,-4.3 0,0 1.1,1.9 1.7,4.3 0.6,2.4 -0.7,4.3 -1.7,4.3 -1,0 -2.2,-2 -1.7,-4.3 z"
         id="path432" />
      <path
         class="st5"
         d="m 203.3,137.7 c -0.5,2.3 -1.7,4.3 -1.7,4.3 0,0 -1.1,-1.9 -1.7,-4.3 -0.6,-2.4 0.7,-4.3 1.7,-4.3 1,0 2.2,2 1.7,4.3 z"
         id="path434" />
      <path
         class="st5"
         d="m 206,140.1 c -2,1.3 -4.2,1.8 -4.2,1.8 0,0 0.5,-2.1 1.8,-4.2 1.3,-2 3.5,-2.5 4.2,-1.8 0.7,0.7 0.1,2.9 -1.8,4.2 z"
         id="path436" />
      <path
         class="st5"
         d="m 205.9,143.6 c -2.3,-0.5 -4.3,-1.7 -4.3,-1.7 0,0 1.9,-1.1 4.3,-1.7 2.4,-0.6 4.3,0.7 4.3,1.7 0,1 -2,2.2 -4.3,1.7 z"
         id="path438" />
      <path
         class="st5"
         d="m 203.6,146.1 c -1.3,-2 -1.8,-4.2 -1.8,-4.2 0,0 2.1,0.5 4.2,1.8 2.1,1.3 2.5,3.5 1.8,4.2 -0.7,0.7 -2.9,0.1 -4.2,-1.8 z"
         id="path440" />
      <circle
         class="st7"
         cx="201.60001"
         cy="141.7"
         r="1.3"
         id="circle442" />
    </g>
  </g>
  <path
     class="st8"
     d="m 11.800002,131 -1.9000005,-0.3 c 0.2000005,-0.6 0.5000005,-1.1 0.9000005,-1.4 0.4,-0.3 1.1,-0.5 1.9,-0.5 0.8,0 1.6,0.2 2,0.5 0.4,0.3 0.6,0.8 0.6,1.3 0,0.5 0,0.6 -0.3,0.8 -0.3,0.2 -0.4,0.5 -0.8,0.7 0.3,0 0.5,0.1 0.6,0.2 0.2,0.1 0.4,0.3 0.6,0.6 0.2,0.3 0.2,0.5 0.2,0.9 0,0.4 -0.1,0.8 -0.3,1.2 -0.2,0.4 -0.5,0.7 -0.9,0.9 -0.4,0.2 -0.9,0.3 -1.6,0.3 -0.7,0 -1.2,0 -1.5,-0.2 -0.4,-0.2 -0.7,-0.4 -0.9,-0.7 -0.2,-0.3 -0.4,-0.7 -0.6000005,-1.1 l 2.0000005,-0.3 c 0,0.4 0.2,0.7 0.4,0.8 0.2,0.2 0.4,0.2 0.6,0.2 0.2,0 0.5,0 0.7,-0.3 0.2,-0.3 0.3,-0.5 0.3,-0.8 0,-0.3 0,-0.6 -0.3,-0.8 -0.3,-0.2 -0.4,-0.3 -0.7,-0.3 -0.3,0 -0.4,0 -0.6,0.1 v -1.4 c 0.2,0 0.3,0 0.4,0 0.3,0 0.5,0 0.7,-0.2 0.2,-0.2 0.3,-0.4 0.3,-0.6 0,-0.2 0,-0.4 -0.2,-0.5 -0.2,-0.1 -0.3,-0.2 -0.5,-0.2 -0.2,0 -0.4,0 -0.6,0.2 -0.2,0.2 -0.2,0.4 -0.3,0.7 z"
     id="path448" />
  <rect
     class="st0"
     x="7.5"
     y="118.6"
     width="157.3"
     height="28.299999"
     id="rect450" />
  <rect
     class="st0"
     x="22.9"
     y="-75.099998"
     width="213.60001"
     height="28.299999"
     transform="rotate(90)"
     id="rect452" />
  <path
     class="st8"
     d="m 57.400002,26.1 h 4.1 c 0.7,0 1.2,0.2 1.6,0.5 0.4,0.3 0.6,0.8 0.6,1.3 0,0.5 -0.1,0.8 -0.4,1.1 -0.2,0.2 -0.4,0.4 -0.8,0.5 0.5,0.1 0.9,0.3 1.1,0.6 0.2,0.3 0.4,0.7 0.4,1.1 0,0.4 0,0.7 -0.3,1 -0.3,0.3 -0.4,0.5 -0.7,0.7 -0.2,0.1 -0.5,0.2 -0.8,0.2 -0.5,0 -0.8,0 -1,0 h -3.8 v -7.2 z m 2.2,2.8 h 1 c 0.3,0 0.6,0 0.7,-0.2 0.1,-0.2 0.2,-0.3 0.2,-0.5 0,-0.2 0,-0.4 -0.2,-0.5 -0.2,-0.1 -0.4,-0.2 -0.7,-0.2 h -1 z m 0,2.9 h 1.1 c 0.4,0 0.6,0 0.8,-0.2 0.2,-0.2 0.2,-0.3 0.2,-0.5 0,-0.2 0,-0.4 -0.2,-0.5 -0.2,-0.1 -0.4,-0.2 -0.8,-0.2 h -1.1 v 1.5 z"
     id="path454" />
  <rect
     class="st1"
     x="50.5"
     y="164.60001"
     width="21.299999"
     height="21.299999"
     rx="5.6999998"
     ry="5.6999998"
     id="rect456" />
  <rect
     class="st1"
     x="50.5"
     y="207.10001"
     width="21.299999"
     height="21.299999"
     rx="5.6999998"
     ry="5.6999998"
     id="rect458" />
  <rect
     class="st1"
     x="50.5"
     y="79.599998"
     width="21.299999"
     height="21.299999"
     rx="5.6999998"
     ry="5.6999998"
     id="rect460" />
  <rect
     class="st1"
     x="50.5"
     y="37.099998"
     width="21.299999"
     height="21.299999"
     rx="5.6999998"
     ry="5.6999998"
     id="rect462" />
  <g
     id="g482"
     transform="translate(-55.599998,-9)">
    <path
       class="st5"
       d="m 114.9,52.1 c 1.3,2 1.8,4.2 1.8,4.2 0,0 -2.1,-0.5 -4.2,-1.8 -2.1,-1.3 -2.5,-3.5 -1.8,-4.2 0.7,-0.7 2.9,-0.1 4.2,1.8 z"
       id="path464" />
    <path
       class="st5"
       d="m 112.5,54.6 c 2.3,0.5 4.3,1.7 4.3,1.7 0,0 -1.9,1.1 -4.3,1.7 -2.4,0.6 -4.3,-0.7 -4.3,-1.7 0,-1 2,-2.2 4.3,-1.7 z"
       id="path466" />
    <path
       class="st5"
       d="m 112.5,58.1 c 2,-1.3 4.2,-1.8 4.2,-1.8 0,0 -0.5,2.1 -1.8,4.2 -1.3,2.1 -3.5,2.5 -4.2,1.8 -0.7,-0.7 -0.1,-2.9 1.8,-4.2 z"
       id="path468" />
    <path
       class="st5"
       d="m 115,60.9 c 0.5,-2.3 1.7,-4.3 1.7,-4.3 0,0 1.1,1.9 1.7,4.3 0.6,2.4 -0.7,4.3 -1.7,4.3 -1,0 -2.2,-2 -1.7,-4.3 z"
       id="path470" />
    <path
       class="st5"
       d="m 118.4,52.4 c -0.5,2.3 -1.7,4.3 -1.7,4.3 0,0 -1.1,-1.9 -1.7,-4.3 -0.6,-2.4 0.7,-4.3 1.7,-4.3 1,0 2.2,2 1.7,4.3 z"
       id="path472" />
    <path
       class="st5"
       d="m 121,54.9 c -2,1.3 -4.2,1.8 -4.2,1.8 0,0 0.5,-2.1 1.8,-4.2 1.3,-2 3.5,-2.5 4.2,-1.8 0.7,0.7 0.1,2.9 -1.8,4.2 z"
       id="path474" />
    <path
       class="st5"
       d="m 121,58.4 c -2.3,-0.5 -4.3,-1.7 -4.3,-1.7 0,0 1.9,-1.1 4.3,-1.7 2.4,-0.6 4.3,0.7 4.3,1.7 0,1 -2,2.2 -4.3,1.7 z"
       id="path476" />
    <path
       class="st5"
       d="m 118.7,60.9 c -1.3,-2 -1.8,-4.2 -1.8,-4.2 0,0 2.1,0.5 4.2,1.8 2.1,1.3 2.5,3.5 1.8,4.2 -0.7,0.7 -2.9,0.1 -4.2,-1.8 z"
       id="path478" />
    <circle
       class="st7"
       cx="116.7"
       cy="56.5"
       r="1.3"
       id="circle480" />
  </g>
  <g
     id="g490"
     transform="translate(-55.599998,-9)">
    <path
       class="st6"
       d="m 119.7,100.3 c -0.9,4 -2.9,7.4 -2.9,7.4 0,0 -2,-3.3 -2.9,-7.4 -0.9,-4.1 1.3,-7.4 2.9,-7.4 1.6,0 3.8,3.4 2.9,7.4 z"
       id="path484" />
    <path
       class="st6"
       d="m 115.6,99.9 c 1.3,3.9 1.2,7.9 1.2,7.9 0,0 -3.4,-1.8 -6.2,-5 -2.8,-3 -2.6,-7.1 -1.2,-7.9 1.4,-0.8 5,1.1 6.2,5 z"
       id="path486" />
    <path
       class="st6"
       d="m 123.2,102.8 c -2.8,3.1 -6.2,5 -6.2,5 0,0 0,-3.8 1.2,-7.9 1.2,-4.1 4.8,-5.8 6.2,-5 1.4,0.8 1.6,4.9 -1.2,7.9 z"
       id="path488" />
  </g>
  <g
     id="g498"
     transform="translate(-55.599998,-9)">
    <path
       class="st6"
       d="m 119.5,185.2 c -0.9,4 -2.9,7.4 -2.9,7.4 0,0 -2,-3.3 -2.9,-7.4 -0.9,-4.1 1.3,-7.4 2.9,-7.4 1.6,0 3.8,3.4 2.9,7.4 z"
       id="path492" />
    <path
       class="st6"
       d="m 115.3,184.8 c 1.3,3.9 1.2,7.9 1.2,7.9 0,0 -3.4,-1.8 -6.2,-5 -2.8,-3 -2.6,-7.1 -1.2,-7.9 1.4,-0.8 5,1.1 6.2,5 z"
       id="path494" />
    <path
       class="st6"
       d="m 122.9,187.7 c -2.8,3.1 -6.2,5 -6.2,5 0,0 0,-3.8 1.2,-7.9 1.2,-4.1 4.8,-5.8 6.2,-5 1.4,0.8 1.6,4.9 -1.2,7.9 z"
       id="path496" />
  </g>
  <g
     id="g518"
     transform="translate(-55.599998,-9)">
    <path
       class="st5"
       d="m 115.1,222.3 c 1.3,2 1.8,4.2 1.8,4.2 0,0 -2.1,-0.5 -4.2,-1.8 -2.1,-1.3 -2.5,-3.5 -1.8,-4.2 0.7,-0.7 2.9,-0.1 4.2,1.8 z"
       id="path500" />
    <path
       class="st5"
       d="m 112.6,224.9 c 2.3,0.5 4.3,1.7 4.3,1.7 0,0 -1.9,1.1 -4.3,1.7 -2.4,0.6 -4.3,-0.7 -4.3,-1.7 0,-1 2,-2.2 4.3,-1.7 z"
       id="path502" />
    <path
       class="st5"
       d="m 112.7,228.4 c 2,-1.3 4.2,-1.8 4.2,-1.8 0,0 -0.5,2.1 -1.8,4.2 -1.3,2.1 -3.5,2.5 -4.2,1.8 -0.7,-0.7 -0.1,-2.9 1.8,-4.2 z"
       id="path504" />
    <path
       class="st5"
       d="m 115.2,231.2 c 0.5,-2.3 1.7,-4.3 1.7,-4.3 0,0 1.1,1.9 1.7,4.3 0.6,2.4 -0.7,4.3 -1.7,4.3 -1,0 -2.2,-2 -1.7,-4.3 z"
       id="path506" />
    <path
       class="st5"
       d="m 118.6,222.7 c -0.5,2.3 -1.7,4.3 -1.7,4.3 0,0 -1.1,-1.9 -1.7,-4.3 -0.6,-2.4 0.7,-4.3 1.7,-4.3 1,0 2.2,2 1.7,4.3 z"
       id="path508" />
    <path
       class="st5"
       d="m 121.2,225.1 c -2,1.3 -4.2,1.8 -4.2,1.8 0,0 0.5,-2.1 1.8,-4.2 1.3,-2 3.5,-2.5 4.2,-1.8 0.7,0.7 0.1,2.9 -1.8,4.2 z"
       id="path510" />
    <path
       class="st5"
       d="m 121.1,228.6 c -2.3,-0.5 -4.3,-1.7 -4.3,-1.7 0,0 1.9,-1.1 4.3,-1.7 2.4,-0.6 4.3,0.7 4.3,1.7 0,1 -2,2.2 -4.3,1.7 z"
       id="path512" />
    <path
       class="st5"
       d="m 118.9,231.1 c -1.3,-2 -1.8,-4.2 -1.8,-4.2 0,0 2.1,0.5 4.2,1.8 2.1,1.3 2.5,3.5 1.8,4.2 -0.7,0.7 -2.9,0.1 -4.2,-1.8 z"
       id="path514" />
    <circle
       class="st7"
       cx="116.9"
       cy="226.7"
       r="1.3"
       id="circle516" />
  </g>
</svg>
