<?xml version="1.0" encoding="UTF-8" standalone="no"?>
<svg
   id="Layer_1"
   version="1.1"
   viewBox="0 0 17.495739 15.576094"
   sodipodi:docname="2026-IR-05_leaf.svg"
   width="17.495739"
   height="15.576094"
   inkscape:version="1.2.1 (9c6d41e410, 2022-07-14)"
   xmlns:inkscape="http://www.inkscape.org/namespaces/inkscape"
   xmlns:sodipodi="http://sodipodi.sourceforge.net/DTD/sodipodi-0.dtd"
   xmlns="http://www.w3.org/2000/svg"
   xmlns:svg="http://www.w3.org/2000/svg">
  <sodipodi:namedview
     id="namedview17"
     pagecolor="#ffffff"
     bordercolor="#000000"
     borderopacity="0.25"
     inkscape:showpageshadow="2"
     inkscape:pageopacity="0.0"
     inkscape:pagecheckerboard="0"
     inkscape:deskcolor="#d1d1d1"
     showgrid="false"
     inkscape:zoom="0.8324515"
     inkscape:cx="8.4088983"
     inkscape:cy="7.8082627"
     inkscape:window-width="2560"
     inkscape:window-height="1560"
     inkscape:window-x="-12"
     inkscape:window-y="-12"
     inkscape:window-maximized="1"
     inkscape:current-layer="Layer_1" />
  <!-- Generator: Adobe Illustrator 29.1.0, SVG Export Plug-In . SVG Version: 2.1.0 Build 142)  -->
  <defs
     id="defs4">
    <style
       id="style2">
      .st0 {
        fill: #fff;
        stroke: #262262;
      }

      .st0, .st1 {
        stroke-miterlimit: 10;
      }

      .st1 {
        fill: #00764f;
        stroke: #fff;
        stroke-width: .5px;
      }
    </style>
  </defs>
  <rect
     class="st0"
     x="-2.1521246"
     y="-3.8499939"
     width="21.299999"
     height="21.299999"
     rx="5.6999998"
     ry="5.6999998"
     id="rect6" />
  <g
     id="g14"
     transform="translate(-133.25213,-134.95)">
    <path
       class="st1"
       d="m 144.8,142.6 c -0.9,4 -2.9,7.4 -2.9,7.4 0,0 -2,-3.3 -2.9,-7.4 -0.9,-4.1 1.3,-7.4 2.9,-7.4 1.6,0 3.8,3.4 2.9,7.4 z"
       id="path8" />
    <path
       class="st1"
       d="m 140.7,142.2 c 1.3,3.9 1.2,7.9 1.2,7.9 0,0 -3.4,-1.8 -6.2,-5 -2.8,-3 -2.6,-7.1 -1.2,-7.9 1.4,-0.8 5,1.1 6.2,5 z"
       id="path10" />
    <path
       class="st1"
       d="m 148.3,145.1 c -2.8,3.1 -6.2,5 -6.2,5 0,0 0,-3.8 1.2,-7.9 1.2,-3.9 4.8,-5.8 6.2,-5 1.4,0.8 1.6,4.9 -1.2,7.9 z"
       id="path12" />
  </g>
</svg>
