<?xml version="1.0" encoding="UTF-8" standalone="no"?>
<!-- Created with Inkscape (http://www.inkscape.org/) -->

<svg
   width="104.5156mm"
   height="100.413mm"
   viewBox="0 0 104.5156 100.413"
   version="1.1"
   id="svg1"
   inkscape:version="1.2.1 (9c6d41e410, 2022-07-14)"
   sodipodi:docname="broccoli.svg"
   xmlns:inkscape="http://www.inkscape.org/namespaces/inkscape"
   xmlns:sodipodi="http://sodipodi.sourceforge.net/DTD/sodipodi-0.dtd"
   xmlns="http://www.w3.org/2000/svg"
   xmlns:svg="http://www.w3.org/2000/svg">
  <sodipodi:namedview
     id="namedview1"
     pagecolor="#ffffff"
     bordercolor="#000000"
     borderopacity="0.25"
     inkscape:showpageshadow="2"
     inkscape:pageopacity="0.0"
     inkscape:pagecheckerboard="0"
     inkscape:deskcolor="#d1d1d1"
     inkscape:document-units="mm"
     showgrid="true"
     inkscape:zoom="1.241849"
     inkscape:cx="149.37404"
     inkscape:cy="179.16832"
     inkscape:window-width="2560"
     inkscape:window-height="1560"
     inkscape:window-x="-12"
     inkscape:window-y="-12"
     inkscape:window-maximized="1"
     inkscape:current-layer="g20">
    <inkscape:grid
       id="grid1"
       units="mm"
       originx="-5.6004567"
       originy="-51.023826"
       spacingx="0.99999998"
       spacingy="1"
       empcolor="#0099e5"
       empopacity="0.30196078"
       color="#0099e5"
       opacity="0.14901961"
       empspacing="5"
       dotted="false"
       gridanglex="30"
       gridanglez="30"
       visible="true" />
  </sodipodi:namedview>
  <defs
     id="defs1" />
  <g
     inkscape:label="Layer 1"
     inkscape:groupmode="layer"
     id="layer1"
     transform="translate(-5.6004566,-51.023827)">
    <g
       id="g13"
       transform="matrix(0.35793818,0,0,0.42343758,4.2545893,57.727681)">
      <g
         id="g17">
        <path
           style="opacity:0.99;fill:none;fill-opacity:1;fill-rule:nonzero;stroke:#000000;stroke-width:1.801;stroke-linecap:round;stroke-linejoin:bevel;stroke-dasharray:none;stroke-opacity:1;paint-order:fill markers stroke"
           d="m 138.91248,111.21521 c -9.0119,5.09458 -27.7301,6.06202 -46.020086,-1e-5 -15.27102,7.6132 -39.792464,18.70025 -40.906741,-7.67001 C -31.474249,92.96304 13.367268,-26.662682 50.732404,7.2637943 59.235312,-19.290162 109.41242,-21.770946 112.79118,-1.4955113 c 12.43958,-7.828536 35.97198,-12.0787237 31.82992,1.10183473 31.84017,-30.74011943 59.04686,-6.25831813 54.95588,16.30818757 45.40389,-17.547167 40.31697,-5.948578 31.56777,17.750482 68.3496,-24.2113034 24.14166,66.747037 36.1265,47.003833 53.54197,-16.106889 22.7972,101.700454 -38.36351,44.565244 40.25247,64.96216 -5.50587,46.31547 -39.28794,49.0457 -1.23787,2.35043 -37.21666,-6.31935 -11.50502,-29.82783 v 0 c -11.72886,-8.44763 -37.42756,-12.23864 -7.67002,-34.51507 v 0"
           id="path4"
           sodipodi:nodetypes="ccccccccccccccc" />
        <path
           style="opacity:0.99;fill:none;fill-opacity:1;fill-rule:nonzero;stroke:#000000;stroke-width:1.801;stroke-linecap:round;stroke-linejoin:bevel;stroke-dasharray:none;stroke-opacity:1;paint-order:fill markers stroke"
           d="m 124.42468,115.47633 c -3.71472,9.2433 -4.94072,22.14252 0.42611,26.84505 5.85316,8.32833 22.26275,0.10045 37.07174,-7.24391"
           id="path5"
           sodipodi:nodetypes="ccc" />
        <path
           style="opacity:0.99;fill:none;fill-opacity:1;fill-rule:nonzero;stroke:#000000;stroke-width:1.801;stroke-linecap:round;stroke-linejoin:bevel;stroke-dasharray:none;stroke-opacity:1;paint-order:fill markers stroke"
           d="m 170.01865,154.25251 c -6.41583,1.12279 -13.60042,-0.44508 -17.8967,8.09613 -3.35483,9.21272 14.69451,5.93968 23.43616,8.09612"
           id="path6"
           sodipodi:nodetypes="ccc" />
        <path
           style="opacity:0.99;fill:none;fill-opacity:1;fill-rule:nonzero;stroke:#000000;stroke-width:1.801;stroke-linecap:round;stroke-linejoin:bevel;stroke-dasharray:none;stroke-opacity:1;paint-order:fill markers stroke"
           d="m 179.57874,172.34739 c -15.67314,9.23574 -37.4542,12.77892 -43.38815,30.13065 l 22.29669,2.41046 -23.50192,15.66794 C 122.75151,206.37175 112.70814,200.94893 108.47038,218.7486 L 56.645643,181.38658 C 88.621211,163.6425 99.346112,142.67862 78.339719,116.90697"
           id="path7"
           sodipodi:nodetypes="ccccccc" />
        <path
           style="opacity:0.99;fill:none;fill-opacity:1;fill-rule:nonzero;stroke:#000000;stroke-width:1.801;stroke-linecap:round;stroke-linejoin:bevel;stroke-dasharray:none;stroke-opacity:1;paint-order:fill markers stroke"
           d="M 87.981532,177.7709 C 104.95791,164.23929 105.224,138.17496 110.27822,115.70174"
           id="path8"
           sodipodi:nodetypes="cc" />
        <path
           style="opacity:0.99;fill:none;fill-opacity:1;fill-rule:nonzero;stroke:#000000;stroke-width:1.801;stroke-linecap:round;stroke-linejoin:bevel;stroke-dasharray:none;stroke-opacity:1;paint-order:fill markers stroke"
           d="m 89.18676,110.88084 16.27056,21.69407"
           id="path9" />
        <ellipse
           style="opacity:0.99;fill:none;fill-opacity:1;fill-rule:nonzero;stroke:none;stroke-width:1.801;stroke-linecap:round;stroke-linejoin:bevel;stroke-dasharray:none;stroke-opacity:1;paint-order:fill markers stroke"
           id="path10"
           ry="31.938501"
           rx="23.200611"
           cy="50.016899"
           cx="38.868553" />
        <path
           style="opacity:0.99;fill:#7cb25f;fill-opacity:1;fill-rule:nonzero;stroke:none;stroke-width:15.5034;stroke-linecap:round;stroke-linejoin:bevel;stroke-dasharray:none;stroke-opacity:1;paint-order:fill markers stroke"
           d="m 695.29424,652.32196 c -20.73288,-5.29277 -41.39733,-19.42507 -48.65205,-33.27286 -7.87927,-15.03993 -3.11012,-38.23824 17.25723,-61.08993 6.43188,-7.21642 13.16426,-12.32019 12.48415,-14.09256 -0.6656,-1.73453 -14.14347,-10.18795 -29.95083,-18.78539 -53.20447,-28.93728 -59.63364,-40.52119 -38.48192,-69.33561 4.48781,-6.11361 15.32923,-16.9813 24.09206,-24.15044 15.02105,-12.28919 18.56555,-17.45459 13.93937,-20.31372 -2.82649,-1.74687 -18.57115,10.13919 -34.40578,25.97381 -26.19877,26.19877 -31.19214,49.03224 -14.52672,66.4272 l 6.104,6.3712 -20.29409,9.37867 c -46.42017,21.45256 -72.61145,29.20513 -88.55911,26.21333 -10.95957,-2.05603 -22.83978,-12.97374 -27.55631,-25.32381 -3.02835,-7.92967 -3.62146,-14.74537 -2.71589,-31.21077 1.09395,-19.89077 6.80688,-45.89807 10.59682,-48.24039 0.94919,-0.58661 9.05061,-2.59386 18.00315,-4.46053 20.4969,-4.27372 36.91213,-11.41851 36.91213,-16.06612 0,-4.75621 -6.43283,-4.46615 -18.50061,0.83422 -30.73813,13.50068 -95.60397,12.90691 -145.13233,-1.32852 -6.69514,-1.92432 -14.66271,-3.0228 -17.70571,-2.44111 -3.04301,0.5817 -6.0812,0.17019 -6.75157,-0.9145 -2.33143,-3.77233 -7.7828,-1.94294 -7.7828,2.61177 0,3.3837 -3.42899,6.11572 -13.09617,10.43436 -7.20289,3.21776 -16.42714,6.41368 -20.49834,7.10206 -4.07119,0.6884 -7.40218,2.01783 -7.40218,2.95431 0,3.00688 -28.95137,9.08926 -43.26368,9.08926 -23.64892,0 -37.7942,-10.61841 -44.6962,-33.55203 -1.72912,-5.74541 -3.14385,-13.81005 -3.14385,-17.92138 0,-4.11135 -0.82784,-7.98681 -1.83965,-8.61215 -1.0118,-0.62533 -11.5172,-3.12469 -23.34533,-5.55416 C 98.425017,367.03405 46.897576,320.56297 28.190431,249.39647 21.794417,225.06449 21.266722,178.52387 27.054163,149.18236 37.641425,95.50644 65.810855,45.935202 98.368243,23.687203 125.37143,5.234652 151.30215,4.9000735 177.12353,22.671039 c 7.22525,4.972608 14.39967,8.553805 15.94316,7.958212 1.54349,-0.595591 4.78271,-5.937219 7.19826,-11.870284 6.62881,-16.28159 32.5198,-41.07743 53.68671,-51.41584 26.18608,-12.789898 48.9358,-18.005968 79.71577,-18.277294 44.28083,-0.390336 72.44425,11.871864 84.27095,36.691107 3.13169,6.5720937 7.00435,11.952908 8.60593,11.9573653 1.60156,0.00445 8.80975,-2.9691095 16.0182,-6.6079247 27.0233,-13.6413126 62.9177,-22.2114386 81.41242,-19.4379836 13.22612,1.983381 19.23108,7.971005 19.23108,19.1755365 0,11.6368758 3.16035,13.1724566 12.07072,5.8650648 34.59539,-28.3716023 56.44186,-40.2698903 84.41306,-45.9740323 14.13005,-2.881526 20.30989,-3.094706 31.70822,-1.093808 31.50964,5.531304 56.85319,25.063569 70.59218,54.405376 6.03813,12.895378 7.31743,18.667419 8.10297,36.55948 0.64044,14.587174 1.85802,21.601497 3.88464,22.379186 1.6235,0.622997 14.05296,-2.947327 27.62104,-7.934049 47.09566,-17.30925 84.21342,-25.289445 97.3941,-20.939421 16.11459,5.318287 15.878,18.603116 -1.19696,67.21173 -11.12611,31.67359 -10.40202,32.94182 14.32485,25.08957 47.06604,-14.94625 82.09324,-13.209 102.33182,5.07536 27.25735,24.62537 29.84845,69.77739 8.92215,155.47391 -3.75347,15.37113 -6.27479,28.837 -5.6029,29.92414 2.2708,3.67423 8.2447,2.00717 12.5863,-3.51223 8.8117,-11.20228 46.1557,-12.73189 65.3491,-2.67668 16.7698,8.78559 29.0384,29.54508 32.8194,55.53358 6.2199,42.75179 -16.2704,102.42034 -50.0495,132.7852 -47.6561,42.8393 -108.82333,37.58619 -173.28369,-14.88178 -15.91958,-12.95786 -23.12443,-16.07338 -23.12443,-9.9995 0,1.26147 7.62522,15.80247 16.94493,32.31334 42.83272,75.88269 51.41057,119.8883 26.73795,137.16965 -15.25202,10.68294 -19.47971,11.10176 -112.5212,11.14709 -56.40713,0.0275 -91.70814,-0.85314 -97.93652,-2.44315 z"
           id="path12"
           transform="scale(0.26458333)"
           sodipodi:nodetypes="sssssssssscssssssssssssssssssssssssssssssssssssssssssssssssssssssss" />
        <path
           style="opacity:0.99;fill:#97b488;fill-opacity:1;fill-rule:nonzero;stroke:none;stroke-width:3.36647;stroke-linecap:round;stroke-linejoin:bevel;stroke-dasharray:none;stroke-opacity:1;paint-order:fill markers stroke"
           d="m 182.65444,159.8002 c -4.47367,-1.15658 1.78392,4.0825 7.95421,-4.755 4.34101,-6.21747 -22.37545,-10.74701 -27.40455,-10.42977 -2.31867,0.14627 7.77861,-9.1339 7.63186,-9.5212 -0.14362,-0.37903 -3.05182,-2.22627 -6.46269,-4.10499 -11.48027,-6.32337 -12.86753,-8.85468 -8.30349,-15.1512 0.96837,-1.33595 3.30769,-3.71075 5.1985,-5.27735 3.2412,-2.68544 4.00602,-3.81418 3.0078,-4.43896 -0.6099,-0.38172 -4.00723,2.21561 -7.42397,5.67581 -5.65308,5.72494 -6.73052,10.71451 -3.13452,14.51566 l 1.31708,1.39223 -4.37897,2.04942 c -10.01639,4.68781 -15.66785,6.38191 -19.10898,5.72814 -2.36483,-0.44929 -4.92829,-2.83503 -5.94601,-5.53376 -0.65344,-1.73279 -0.78143,-3.22216 -0.58603,-6.82018 0.23605,-4.34652 1.46877,-10.02963 2.28654,-10.54148 0.20483,-0.12819 1.95293,-0.5668 3.88467,-0.97472 4.42275,-0.93388 7.96477,-2.49517 7.96477,-3.51077 0,-1.03931 -1.38805,-0.97593 -3.99199,0.1823 -6.63258,2.95017 -20.6291,2.82042 -31.31617,-0.29031 -1.44464,-0.4205 -3.16386,-0.66054 -3.82047,-0.53342 -0.656604,0.12711 -1.312184,0.0372 -1.456824,-0.19984 -0.50307,-0.82434 -1.67935,-0.42457 -1.67935,0.57072 0,0.73941 -0.7399,1.33641 -2.82584,2.28012 -1.55423,0.70314 -3.54459,1.40152 -4.42307,1.55194 -0.87846,0.15042 -1.59721,0.44094 -1.59721,0.64557 0,0.65706 -6.24703,1.98619 -9.33529,1.98619 -5.10288,0 -8.1551,-2.32034 -9.64439,-7.33179 -0.37311,-1.25549 -0.67837,-3.01778 -0.67837,-3.91617 0,-0.89842 -0.17862,-1.74528 -0.39695,-1.88193 -0.21832,-0.13665 -2.48514,-0.68281 -5.03738,-1.213687 C 46.126061,96.452803 35.007651,86.297947 30.971091,70.746647 29.590971,65.42963 29.477111,55.25958 30.725901,48.847877 29.5932,34.230015 28.956669,17.721577 46.113801,21.424688 c 5.82667,-4.032249 11.4219,-4.105362 16.993555,-0.222053 1.55904,1.086613 3.10711,1.869177 3.44016,1.739028 0.33306,-0.130148 -4.920311,-7.335295 -4.399101,-8.631789 1.43035,-3.55785 12.969321,-2.93834 17.536651,-5.1974877 5.65034,-2.794848 10.5592,-3.934663 17.20079,-3.993953 9.554774,-0.08529 15.631774,2.594239 18.183694,8.0177367 0.67575,1.436133 1.51137,2.611949 1.85696,2.612922 0.34558,9.89e-4 1.90094,-0.648809 3.45635,-1.443963 5.831,-2.980898 13.57617,-4.8536407 17.56689,-4.247586 2.85389,0.433409 4.14961,1.741823 4.14961,4.190236 0,2.54289 0.68194,2.878444 2.60459,1.281634 7.46487,-6.1997587 12.17883,-8.7997727 18.21435,-10.0462407 3.04894,-0.629671 4.3824,-0.676255 6.84189,-0.239019 6.79904,1.208701 12.26759,5.4768887 15.23214,11.8886567 1.30289,2.817896 1.57893,4.079203 1.74843,7.988974 0.13819,3.187587 0.40092,4.720357 0.83821,4.890298 0.35033,0.136137 3.0323,-0.644051 5.95999,-1.733748 10.16212,-3.782415 18.17128,-5.526247 21.01535,-4.57568 3.47715,1.162152 3.42611,4.065151 -0.25827,14.6871 -2.40075,6.92131 -2.24451,7.198443 3.09096,5.482571 10.15575,-3.266053 17.7138,-2.886418 22.0808,1.109066 5.8815,5.381135 44.44253,23.278651 1.92519,33.974146 -3.88679,0.977746 -1.35394,6.30146 -1.20897,6.53902 0.48999,0.80289 1.77902,0.43861 2.71583,-0.76749 1.90137,-2.44792 9.95932,-2.78217 14.1008,-0.58491 3.61853,1.91983 6.26581,6.45619 7.08166,12.135186 1.34209,9.342107 -3.51076,22.380877 -10.7995,29.016207 -10.28307,9.36124 -23.48154,8.21333 -37.39057,-3.25197 -3.43506,-2.83155 -4.9897,-3.51235 -4.9897,-2.1851 0,0.27567 5.81197,11.5037 7.82293,15.11165 9.2423,16.58188 6.92659,18.14745 1.60282,21.92376 -3.29104,2.33444 3.53472,7.96069 -16.54145,7.97061 -12.17132,0.005 -19.78846,-4.71485 -21.1324,-5.0623 z"
           id="path12-6"
           sodipodi:nodetypes="sssssssssscssssscsssscsssssssscsccsscsssssssssssssssssssssssssscscs" />
        <path
           style="opacity:0.99;fill:none;fill-opacity:1;fill-rule:nonzero;stroke:none;stroke-width:1.47304;stroke-linecap:round;stroke-linejoin:bevel;stroke-dasharray:none;stroke-opacity:1;paint-order:fill markers stroke"
           d="m 196.53374,565.3619 c -3.29722,-4.75789 -13.63885,-14.44125 -16.86059,-15.78738 -7.72829,-3.22909 -13.20426,0.48878 -16.52426,11.21905 l -1.30759,4.22613 -32.75236,-27.84927 c -18.0138,-15.31709 -32.776914,-28.05115 -32.806916,-28.2979 -0.03,-0.24674 2.349595,-2.21387 5.287996,-4.3714 19.49596,-14.31493 31.74277,-30.5088 35.35644,-46.75158 3.07905,-13.83972 -0.0532,-31.17133 -8.10338,-44.83874 l -3.44952,-5.85651 6.06917,-3.08393 c 4.97799,-2.52947 6.24182,-2.89141 7.02948,-2.01313 0.52817,0.58895 4.70546,7.0498 9.28286,14.35745 4.5774,7.30765 8.99393,14.04059 9.81452,14.96209 1.45496,1.63389 1.44156,1.97304 -0.54025,13.6717 -4.46769,26.37289 -10.38047,41.91425 -20.33801,53.45714 -3.66081,4.24365 -4.05971,5.26452 -2.31821,5.93279 1.45736,0.55924 6.778,-5.00859 10.80604,-11.30805 7.46024,-11.66714 12.17282,-28.05708 16.73269,-58.1949 1.57472,-10.40787 3.29639,-21.45994 3.82593,-24.56015 l 0.9628,-5.63676 h 7.68561 7.6856 l -1.53491,6.03938 c -2.08697,8.21155 -2.26908,25.42856 -0.3223,30.47096 1.84421,4.77673 5.9579,9.7722 9.14327,11.10313 7.39846,3.09127 19.8174,-0.68369 39.07126,-11.87641 2.95604,-1.71842 5.74909,-3.1244 6.20678,-3.1244 0.45769,0 5.04653,2.73621 10.19741,6.08046 9.21719,5.98433 9.34472,6.10844 8.06723,7.85119 -3.23817,4.4175 -6.8964,10.21971 -6.8964,10.93818 0,0.99425 -1.57664,1.43091 -7.64988,2.11867 -2.65733,0.30093 -6.09977,1.07456 -7.64988,1.71918 -8.53546,3.54951 -13.79287,15.5608 -9.03037,20.63116 2.56251,2.72817 6.39878,3.68708 18.69538,4.67312 5.85599,0.46958 11.5752,1.20657 12.70934,1.63778 1.77726,0.67571 1.9038,0.93917 0.91607,1.90734 -0.63031,0.61783 -6.76265,4.09683 -13.62741,7.73111 -26.53062,14.04559 -35.73801,22.20836 -40.60256,35.99597 -1.766,5.00537 -1.04196,5.41631 12.41878,7.04866 6.42187,0.77877 11.93837,1.64349 12.25886,1.9216 0.47701,0.41394 -21.33132,18.37474 -24.74841,20.3822 -0.63938,0.37562 -1.78295,-0.5384 -3.16031,-2.52593 z"
           id="path16"
           transform="matrix(0.73918723,0,0,0.62484613,-11.88638,-136.33103)" />
        <path
           style="opacity:0.99;fill:#4bb44b;fill-opacity:1;fill-rule:nonzero;stroke:none;stroke-width:1.47304;stroke-linecap:round;stroke-linejoin:bevel;stroke-dasharray:none;stroke-opacity:1;paint-order:fill markers stroke"
           d="m 196.53374,565.3619 c -3.29722,-4.75789 -13.63885,-14.44125 -16.86059,-15.78738 -7.72829,-3.22909 -13.20426,0.48878 -16.52426,11.21905 l -1.30759,4.22613 -32.75236,-27.84927 c -18.0138,-15.31709 -32.776914,-28.05115 -32.806916,-28.2979 -0.03,-0.24674 2.349595,-2.21387 5.287996,-4.3714 19.49596,-14.31493 31.74277,-30.5088 35.35644,-46.75158 3.07905,-13.83972 -0.0532,-31.17133 -8.10338,-44.83874 l -3.44952,-5.85651 6.06917,-3.08393 c 4.97799,-2.52947 6.24182,-2.89141 7.02948,-2.01313 0.52817,0.58895 4.70546,7.0498 9.28286,14.35745 4.5774,7.30765 8.99393,14.04059 9.81452,14.96209 1.45496,1.63389 1.44156,1.97304 -0.54025,13.6717 -4.46769,26.37289 -10.38047,41.91425 -20.33801,53.45714 -3.66081,4.24365 -4.05971,5.26452 -2.31821,5.93279 1.45736,0.55924 6.778,-5.00859 10.80604,-11.30805 7.46024,-11.66714 12.17282,-28.05708 16.73269,-58.1949 1.57472,-10.40787 3.29639,-21.45994 3.82593,-24.56015 l 0.9628,-5.63676 h 7.68561 7.6856 l -1.53491,6.03938 c -2.08697,8.21155 -2.26908,25.42856 -0.3223,30.47096 1.84421,4.77673 5.9579,9.7722 9.14327,11.10313 7.39846,3.09127 19.8174,-0.68369 39.07126,-11.87641 2.95604,-1.71842 5.74909,-3.1244 6.20678,-3.1244 0.45769,0 5.04653,2.73621 10.19741,6.08046 9.21719,5.98433 9.34472,6.10844 8.06723,7.85119 -3.23817,4.4175 -6.8964,10.21971 -6.8964,10.93818 0,0.99425 -1.57664,1.43091 -7.64988,2.11867 -2.65733,0.30093 -6.09977,1.07456 -7.64988,1.71918 -8.53546,3.54951 -13.79287,15.5608 -9.03037,20.63116 2.56251,2.72817 6.39878,3.68708 18.69538,4.67312 5.85599,0.46958 11.5752,1.20657 12.70934,1.63778 1.77726,0.67571 1.9038,0.93917 0.91607,1.90734 -0.63031,0.61783 -6.76265,4.09683 -13.62741,7.73111 -26.53062,14.04559 -35.73801,22.20836 -40.60256,35.99597 -1.766,5.00537 -1.04196,5.41631 12.41878,7.04866 6.42187,0.77877 11.93837,1.64349 12.25886,1.9216 0.47701,0.41394 -21.33132,18.37474 -24.74841,20.3822 -0.63938,0.37562 -1.78295,-0.5384 -3.16031,-2.52593 z"
           id="path17"
           transform="matrix(0.73918723,0,0,0.62484613,-11.88638,-136.33103)" />
      </g>
      <g
         id="g20">
        <path
           style="opacity:0.99;fill:none;fill-opacity:1;fill-rule:nonzero;stroke:#000000;stroke-width:1.801;stroke-linecap:round;stroke-linejoin:bevel;stroke-dasharray:none;stroke-opacity:1;paint-order:fill markers stroke"
           d="m 138.91248,111.21521 c -9.0119,5.09458 -27.7301,6.06202 -46.020086,-1e-5 -15.27102,7.6132 -39.792464,18.70025 -40.906741,-7.67001 C -31.474249,92.96304 13.367268,-26.662682 50.732404,7.2637943 59.235312,-19.290162 109.41242,-21.770946 112.79118,-1.4955113 c 12.43958,-7.828536 35.97198,-12.0787237 31.82992,1.10183473 31.84017,-30.74011943 59.04686,-6.25831813 54.95588,16.30818757 45.40389,-17.547167 40.31697,-5.948578 31.56777,17.750482 68.3496,-24.2113034 24.14166,66.747037 36.1265,47.003833 53.54197,-16.106889 22.7972,101.700454 -38.36351,44.565244 40.25247,64.96216 -5.50587,46.31547 -39.28794,49.0457 -1.23787,2.35043 -37.21666,-6.31935 -11.50502,-29.82783 v 0 c -11.72886,-8.44763 -37.42756,-12.23864 -7.67002,-34.51507 v 0"
           id="path1"
           sodipodi:nodetypes="ccccccccccccccc" />
        <path
           style="opacity:0.99;fill:none;fill-opacity:1;fill-rule:nonzero;stroke:#000000;stroke-width:1.801;stroke-linecap:round;stroke-linejoin:bevel;stroke-dasharray:none;stroke-opacity:1;paint-order:fill markers stroke"
           d="m 124.42468,115.47633 c -3.71472,9.2433 -4.94072,22.14252 0.42611,26.84505 5.85316,8.32833 22.26275,0.10045 37.07174,-7.24391"
           id="path2"
           sodipodi:nodetypes="ccc" />
        <path
           style="opacity:0.99;fill:none;fill-opacity:1;fill-rule:nonzero;stroke:#000000;stroke-width:1.801;stroke-linecap:round;stroke-linejoin:bevel;stroke-dasharray:none;stroke-opacity:1;paint-order:fill markers stroke"
           d="m 170.01865,154.25251 c -6.41583,1.12279 -13.60042,-0.44508 -17.8967,8.09613 -3.35483,9.21272 14.69451,5.93968 23.43616,8.09612"
           id="path3"
           sodipodi:nodetypes="ccc" />
        <path
           style="opacity:0.99;fill:none;fill-opacity:1;fill-rule:nonzero;stroke:#000000;stroke-width:1.801;stroke-linecap:round;stroke-linejoin:bevel;stroke-dasharray:none;stroke-opacity:1;paint-order:fill markers stroke"
           d="m 179.57874,172.34739 c -15.67314,9.23574 -37.4542,12.77892 -43.38815,30.13065 l 22.29669,2.41046 -23.50192,15.66794 C 122.75151,206.37175 112.70814,200.94893 108.47038,218.7486 L 56.645643,181.38658 C 88.621211,163.6425 99.346112,142.67862 78.339719,116.90697"
           id="path11"
           sodipodi:nodetypes="ccccccc" />
        <path
           style="opacity:0.99;fill:none;fill-opacity:1;fill-rule:nonzero;stroke:#000000;stroke-width:1.801;stroke-linecap:round;stroke-linejoin:bevel;stroke-dasharray:none;stroke-opacity:1;paint-order:fill markers stroke"
           d="M 87.981532,177.7709 C 104.95791,164.23929 105.224,138.17496 110.27822,115.70174"
           id="path13"
           sodipodi:nodetypes="cc" />
        <path
           style="opacity:0.99;fill:none;fill-opacity:1;fill-rule:nonzero;stroke:#000000;stroke-width:1.801;stroke-linecap:round;stroke-linejoin:bevel;stroke-dasharray:none;stroke-opacity:1;paint-order:fill markers stroke"
           d="m 89.18676,110.88084 16.27056,21.69407"
           id="path14" />
        <ellipse
           style="opacity:0.99;fill:none;fill-opacity:1;fill-rule:nonzero;stroke:none;stroke-width:1.801;stroke-linecap:round;stroke-linejoin:bevel;stroke-dasharray:none;stroke-opacity:1;paint-order:fill markers stroke"
           id="ellipse14"
           ry="31.938501"
           rx="23.200611"
           cy="50.016899"
           cx="38.868553" />
        <path
           style="opacity:0.99;fill:#fff6d5;fill-opacity:1;fill-rule:nonzero;stroke:none;stroke-width:15.5034;stroke-linecap:round;stroke-linejoin:bevel;stroke-dasharray:none;stroke-opacity:1;paint-order:fill markers stroke"
           d="m 695.29424,652.32196 c -20.73288,-5.29277 -41.39733,-19.42507 -48.65205,-33.27286 -7.87927,-15.03993 -3.11012,-38.23824 17.25723,-61.08993 6.43188,-7.21642 13.16426,-12.32019 12.48415,-14.09256 -0.6656,-1.73453 -14.14347,-10.18795 -29.95083,-18.78539 -53.20447,-28.93728 -59.63364,-40.52119 -38.48192,-69.33561 4.48781,-6.11361 15.32923,-16.9813 24.09206,-24.15044 15.02105,-12.28919 18.56555,-17.45459 13.93937,-20.31372 -2.82649,-1.74687 -18.57115,10.13919 -34.40578,25.97381 -26.19877,26.19877 -31.19214,49.03224 -14.52672,66.4272 l 6.104,6.3712 -20.29409,9.37867 c -46.42017,21.45256 -72.61145,29.20513 -88.55911,26.21333 -10.95957,-2.05603 -22.83978,-12.97374 -27.55631,-25.32381 -3.02835,-7.92967 -3.62146,-14.74537 -2.71589,-31.21077 1.09395,-19.89077 6.80688,-45.89807 10.59682,-48.24039 0.94919,-0.58661 9.05061,-2.59386 18.00315,-4.46053 20.4969,-4.27372 36.91213,-11.41851 36.91213,-16.06612 0,-4.75621 -6.43283,-4.46615 -18.50061,0.83422 -30.73813,13.50068 -95.60397,12.90691 -145.13233,-1.32852 -6.69514,-1.92432 -14.66271,-3.0228 -17.70571,-2.44111 -3.04301,0.5817 -6.0812,0.17019 -6.75157,-0.9145 -2.33143,-3.77233 -7.7828,-1.94294 -7.7828,2.61177 0,3.3837 -3.42899,6.11572 -13.09617,10.43436 -7.20289,3.21776 -16.42714,6.41368 -20.49834,7.10206 -4.07119,0.6884 -7.40218,2.01783 -7.40218,2.95431 0,3.00688 -28.95137,9.08926 -43.26368,9.08926 -23.64892,0 -37.7942,-10.61841 -44.6962,-33.55203 -1.72912,-5.74541 -3.14385,-13.81005 -3.14385,-17.92138 0,-4.11135 -0.82784,-7.98681 -1.83965,-8.61215 -1.0118,-0.62533 -11.5172,-3.12469 -23.34533,-5.55416 C 98.425017,367.03405 46.897576,320.56297 28.190431,249.39647 21.794417,225.06449 21.266722,178.52387 27.054163,149.18236 37.641425,95.50644 65.810855,45.935202 98.368243,23.687203 125.37143,5.234652 151.30215,4.9000735 177.12353,22.671039 c 7.22525,4.972608 14.39967,8.553805 15.94316,7.958212 1.54349,-0.595591 4.78271,-5.937219 7.19826,-11.870284 6.62881,-16.28159 32.5198,-41.07743 53.68671,-51.41584 26.18608,-12.789898 48.9358,-18.005968 79.71577,-18.277294 44.28083,-0.390336 72.44425,11.871864 84.27095,36.691107 3.13169,6.5720937 7.00435,11.952908 8.60593,11.9573653 1.60156,0.00445 8.80975,-2.9691095 16.0182,-6.6079247 27.0233,-13.6413126 62.9177,-22.2114386 81.41242,-19.4379836 13.22612,1.983381 19.23108,7.971005 19.23108,19.1755365 0,11.6368758 3.16035,13.1724566 12.07072,5.8650648 34.59539,-28.3716023 56.44186,-40.2698903 84.41306,-45.9740323 14.13005,-2.881526 20.30989,-3.094706 31.70822,-1.093808 31.50964,5.531304 56.85319,25.063569 70.59218,54.405376 6.03813,12.895378 7.31743,18.667419 8.10297,36.55948 0.64044,14.587174 1.85802,21.601497 3.88464,22.379186 1.6235,0.622997 14.05296,-2.947327 27.62104,-7.934049 47.09566,-17.30925 84.21342,-25.289445 97.3941,-20.939421 16.11459,5.318287 15.878,18.603116 -1.19696,67.21173 -11.12611,31.67359 -10.40202,32.94182 14.32485,25.08957 47.06604,-14.94625 82.09324,-13.209 102.33182,5.07536 27.25735,24.62537 29.84845,69.77739 8.92215,155.47391 -3.75347,15.37113 -6.27479,28.837 -5.6029,29.92414 2.2708,3.67423 8.2447,2.00717 12.5863,-3.51223 8.8117,-11.20228 46.1557,-12.73189 65.3491,-2.67668 16.7698,8.78559 29.0384,29.54508 32.8194,55.53358 6.2199,42.75179 -16.2704,102.42034 -50.0495,132.7852 -47.6561,42.8393 -108.82333,37.58619 -173.28369,-14.88178 -15.91958,-12.95786 -23.12443,-16.07338 -23.12443,-9.9995 0,1.26147 7.62522,15.80247 16.94493,32.31334 42.83272,75.88269 51.41057,119.8883 26.73795,137.16965 -15.25202,10.68294 -19.47971,11.10176 -112.5212,11.14709 -56.40713,0.0275 -91.70814,-0.85314 -97.93652,-2.44315 z"
           id="path15"
           transform="scale(0.26458333)"
           sodipodi:nodetypes="sssssssssscssssssssssssssssssssssssssssssssssssssssssssssssssssssss" />
        <path
           style="opacity:0.99;fill:#ffeeaa;fill-opacity:1;fill-rule:nonzero;stroke:none;stroke-width:3.36647;stroke-linecap:round;stroke-linejoin:bevel;stroke-dasharray:none;stroke-opacity:1;paint-order:fill markers stroke"
           d="m 182.65444,159.8002 c -4.47367,-1.15658 1.78392,4.0825 7.95421,-4.755 4.34101,-6.21747 -22.37545,-10.74701 -27.40455,-10.42977 -2.31867,0.14627 7.77861,-9.1339 7.63186,-9.5212 -0.14362,-0.37903 -3.05182,-2.22627 -6.46269,-4.10499 -11.48027,-6.32337 -12.86753,-8.85468 -8.30349,-15.1512 0.96837,-1.33595 3.30769,-3.71075 5.1985,-5.27735 3.2412,-2.68544 4.00602,-3.81418 3.0078,-4.43896 -0.6099,-0.38172 -4.00723,2.21561 -7.42397,5.67581 -5.65308,5.72494 -6.73052,10.71451 -3.13452,14.51566 l 1.31708,1.39223 -4.37897,2.04942 c -10.01639,4.68781 -15.66785,6.38191 -19.10898,5.72814 -2.36483,-0.44929 -4.92829,-2.83503 -5.94601,-5.53376 -0.65344,-1.73279 -0.78143,-3.22216 -0.58603,-6.82018 0.23605,-4.34652 1.46877,-10.02963 2.28654,-10.54148 0.20483,-0.12819 1.95293,-0.5668 3.88467,-0.97472 4.42275,-0.93388 7.96477,-2.49517 7.96477,-3.51077 0,-1.03931 -1.38805,-0.97593 -3.99199,0.1823 -6.63258,2.95017 -20.6291,2.82042 -31.31617,-0.29031 -1.44464,-0.4205 -3.16386,-0.66054 -3.82047,-0.53342 -0.656604,0.12711 -1.312184,0.0372 -1.456824,-0.19984 -0.50307,-0.82434 -1.67935,-0.42457 -1.67935,0.57072 0,0.73941 -0.7399,1.33641 -2.82584,2.28012 -1.55423,0.70314 -3.54459,1.40152 -4.42307,1.55194 -0.87846,0.15042 -1.59721,0.44094 -1.59721,0.64557 0,0.65706 -6.24703,1.98619 -9.33529,1.98619 -5.10288,0 -8.1551,-2.32034 -9.64439,-7.33179 -0.37311,-1.25549 -0.67837,-3.01778 -0.67837,-3.91617 0,-0.89842 -0.17862,-1.74528 -0.39695,-1.88193 -0.21832,-0.13665 -2.48514,-0.68281 -5.03738,-1.213687 C 46.126061,96.452803 35.007651,86.297947 30.971091,70.746647 29.590971,65.42963 29.477111,55.25958 30.725901,48.847877 29.5932,34.230015 28.956669,17.721577 46.113801,21.424688 c 5.82667,-4.032249 11.4219,-4.105362 16.993555,-0.222053 1.55904,1.086613 3.10711,1.869177 3.44016,1.739028 0.33306,-0.130148 -4.920311,-7.335295 -4.399101,-8.631789 1.43035,-3.55785 12.969321,-2.93834 17.536651,-5.1974877 5.65034,-2.794848 10.5592,-3.934663 17.20079,-3.993953 9.554774,-0.08529 15.631774,2.594239 18.183694,8.0177367 0.67575,1.436133 1.51137,2.611949 1.85696,2.612922 0.34558,9.89e-4 1.90094,-0.648809 3.45635,-1.443963 5.831,-2.980898 13.57617,-4.8536407 17.56689,-4.247586 2.85389,0.433409 4.14961,1.741823 4.14961,4.190236 0,2.54289 0.68194,2.878444 2.60459,1.281634 7.46487,-6.1997587 12.17883,-8.7997727 18.21435,-10.0462407 3.04894,-0.629671 4.3824,-0.676255 6.84189,-0.239019 6.79904,1.208701 12.26759,5.4768887 15.23214,11.8886567 1.30289,2.817896 1.57893,4.079203 1.74843,7.988974 0.13819,3.187587 0.40092,4.720357 0.83821,4.890298 0.35033,0.136137 3.0323,-0.644051 5.95999,-1.733748 10.16212,-3.782415 18.17128,-5.526247 21.01535,-4.57568 3.47715,1.162152 3.42611,4.065151 -0.25827,14.6871 -2.40075,6.92131 -2.24451,7.198443 3.09096,5.482571 10.15575,-3.266053 17.7138,-2.886418 22.0808,1.109066 5.8815,5.381135 44.44253,23.278651 1.92519,33.974146 -3.88679,0.977746 -1.35394,6.30146 -1.20897,6.53902 0.48999,0.80289 1.77902,0.43861 2.71583,-0.76749 1.90137,-2.44792 9.95932,-2.78217 14.1008,-0.58491 3.61853,1.91983 6.26581,6.45619 7.08166,12.135186 1.34209,9.342107 -3.51076,22.380877 -10.7995,29.016207 -10.28307,9.36124 -23.48154,8.21333 -37.39057,-3.25197 -3.43506,-2.83155 -4.9897,-3.51235 -4.9897,-2.1851 0,0.27567 5.81197,11.5037 7.82293,15.11165 9.2423,16.58188 6.92659,18.14745 1.60282,21.92376 -3.29104,2.33444 3.53472,7.96069 -16.54145,7.97061 -12.17132,0.005 -19.78846,-4.71485 -21.1324,-5.0623 z"
           id="path18"
           sodipodi:nodetypes="sssssssssscssssscsssscsssssssscsccsscsssssssssssssssssssssssssscscs" />
        <path
           style="opacity:0.99;fill:none;fill-opacity:1;fill-rule:nonzero;stroke:none;stroke-width:1.47304;stroke-linecap:round;stroke-linejoin:bevel;stroke-dasharray:none;stroke-opacity:1;paint-order:fill markers stroke"
           d="m 196.53374,565.3619 c -3.29722,-4.75789 -13.63885,-14.44125 -16.86059,-15.78738 -7.72829,-3.22909 -13.20426,0.48878 -16.52426,11.21905 l -1.30759,4.22613 -32.75236,-27.84927 c -18.0138,-15.31709 -32.776914,-28.05115 -32.806916,-28.2979 -0.03,-0.24674 2.349595,-2.21387 5.287996,-4.3714 19.49596,-14.31493 31.74277,-30.5088 35.35644,-46.75158 3.07905,-13.83972 -0.0532,-31.17133 -8.10338,-44.83874 l -3.44952,-5.85651 6.06917,-3.08393 c 4.97799,-2.52947 6.24182,-2.89141 7.02948,-2.01313 0.52817,0.58895 4.70546,7.0498 9.28286,14.35745 4.5774,7.30765 8.99393,14.04059 9.81452,14.96209 1.45496,1.63389 1.44156,1.97304 -0.54025,13.6717 -4.46769,26.37289 -10.38047,41.91425 -20.33801,53.45714 -3.66081,4.24365 -4.05971,5.26452 -2.31821,5.93279 1.45736,0.55924 6.778,-5.00859 10.80604,-11.30805 7.46024,-11.66714 12.17282,-28.05708 16.73269,-58.1949 1.57472,-10.40787 3.29639,-21.45994 3.82593,-24.56015 l 0.9628,-5.63676 h 7.68561 7.6856 l -1.53491,6.03938 c -2.08697,8.21155 -2.26908,25.42856 -0.3223,30.47096 1.84421,4.77673 5.9579,9.7722 9.14327,11.10313 7.39846,3.09127 19.8174,-0.68369 39.07126,-11.87641 2.95604,-1.71842 5.74909,-3.1244 6.20678,-3.1244 0.45769,0 5.04653,2.73621 10.19741,6.08046 9.21719,5.98433 9.34472,6.10844 8.06723,7.85119 -3.23817,4.4175 -6.8964,10.21971 -6.8964,10.93818 0,0.99425 -1.57664,1.43091 -7.64988,2.11867 -2.65733,0.30093 -6.09977,1.07456 -7.64988,1.71918 -8.53546,3.54951 -13.79287,15.5608 -9.03037,20.63116 2.56251,2.72817 6.39878,3.68708 18.69538,4.67312 5.85599,0.46958 11.5752,1.20657 12.70934,1.63778 1.77726,0.67571 1.9038,0.93917 0.91607,1.90734 -0.63031,0.61783 -6.76265,4.09683 -13.62741,7.73111 -26.53062,14.04559 -35.73801,22.20836 -40.60256,35.99597 -1.766,5.00537 -1.04196,5.41631 12.41878,7.04866 6.42187,0.77877 11.93837,1.64349 12.25886,1.9216 0.47701,0.41394 -21.33132,18.37474 -24.74841,20.3822 -0.63938,0.37562 -1.78295,-0.5384 -3.16031,-2.52593 z"
           id="path19"
           transform="matrix(0.73918723,0,0,0.62484613,-11.88638,-136.33103)" />
        <path
           style="opacity:0.99;fill:#4bb44b;fill-opacity:1;fill-rule:nonzero;stroke:none;stroke-width:1.47304;stroke-linecap:round;stroke-linejoin:bevel;stroke-dasharray:none;stroke-opacity:1;paint-order:fill markers stroke"
           d="m 196.53374,565.3619 c -3.29722,-4.75789 -13.63885,-14.44125 -16.86059,-15.78738 -7.72829,-3.22909 -13.20426,0.48878 -16.52426,11.21905 l -1.30759,4.22613 -32.75236,-27.84927 c -18.0138,-15.31709 -32.776914,-28.05115 -32.806916,-28.2979 -0.03,-0.24674 2.349595,-2.21387 5.287996,-4.3714 19.49596,-14.31493 31.74277,-30.5088 35.35644,-46.75158 3.07905,-13.83972 -0.0532,-31.17133 -8.10338,-44.83874 l -3.44952,-5.85651 6.06917,-3.08393 c 4.97799,-2.52947 6.24182,-2.89141 7.02948,-2.01313 0.52817,0.58895 4.70546,7.0498 9.28286,14.35745 4.5774,7.30765 8.99393,14.04059 9.81452,14.96209 1.45496,1.63389 1.44156,1.97304 -0.54025,13.6717 -4.46769,26.37289 -10.38047,41.91425 -20.33801,53.45714 -3.66081,4.24365 -4.05971,5.26452 -2.31821,5.93279 1.45736,0.55924 6.778,-5.00859 10.80604,-11.30805 7.46024,-11.66714 12.17282,-28.05708 16.73269,-58.1949 1.57472,-10.40787 3.29639,-21.45994 3.82593,-24.56015 l 0.9628,-5.63676 h 7.68561 7.6856 l -1.53491,6.03938 c -2.08697,8.21155 -2.26908,25.42856 -0.3223,30.47096 1.84421,4.77673 5.9579,9.7722 9.14327,11.10313 7.39846,3.09127 19.8174,-0.68369 39.07126,-11.87641 2.95604,-1.71842 5.74909,-3.1244 6.20678,-3.1244 0.45769,0 5.04653,2.73621 10.19741,6.08046 9.21719,5.98433 9.34472,6.10844 8.06723,7.85119 -3.23817,4.4175 -6.8964,10.21971 -6.8964,10.93818 0,0.99425 -1.57664,1.43091 -7.64988,2.11867 -2.65733,0.30093 -6.09977,1.07456 -7.64988,1.71918 -8.53546,3.54951 -13.79287,15.5608 -9.03037,20.63116 2.56251,2.72817 6.39878,3.68708 18.69538,4.67312 5.85599,0.46958 11.5752,1.20657 12.70934,1.63778 1.77726,0.67571 1.9038,0.93917 0.91607,1.90734 -0.63031,0.61783 -6.76265,4.09683 -13.62741,7.73111 -26.53062,14.04559 -35.73801,22.20836 -40.60256,35.99597 -1.766,5.00537 -1.04196,5.41631 12.41878,7.04866 6.42187,0.77877 11.93837,1.64349 12.25886,1.9216 0.47701,0.41394 -21.33132,18.37474 -24.74841,20.3822 -0.63938,0.37562 -1.78295,-0.5384 -3.16031,-2.52593 z"
           id="path20"
           transform="matrix(0.73918723,0,0,0.62484613,-11.88638,-136.33103)" />
      </g>
    </g>
  </g>
</svg>
