<?xml version="1.0" encoding="UTF-8" standalone="no"?>
<!-- Created with Inkscape (http://www.inkscape.org/) -->

<svg
   width="89.393074mm"
   height="84.878777mm"
   viewBox="0 0 89.393074 84.878776"
   version="1.1"
   id="svg1"
   inkscape:version="1.4.2 (f4327f4, 2025-05-13)"
   sodipodi:docname="cabbage.svg"
   xmlns:inkscape="http://www.inkscape.org/namespaces/inkscape"
   xmlns:sodipodi="http://sodipodi.sourceforge.net/DTD/sodipodi-0.dtd"
   xmlns="http://www.w3.org/2000/svg"
   xmlns:svg="http://www.w3.org/2000/svg">
  <sodipodi:namedview
     id="namedview1"
     pagecolor="#ffffff"
     bordercolor="#000000"
     borderopacity="0.25"
     inkscape:showpageshadow="2"
     inkscape:pageopacity="0.0"
     inkscape:pagecheckerboard="0"
     inkscape:deskcolor="#d1d1d1"
     inkscape:document-units="mm"
     showgrid="true"
     showguides="true"
     inkscape:zoom="0.93103385"
     inkscape:cx="145.53714"
     inkscape:cy="170.24086"
     inkscape:window-width="1920"
     inkscape:window-height="1129"
     inkscape:window-x="-8"
     inkscape:window-y="-8"
     inkscape:window-maximized="1"
     inkscape:current-layer="layer1">
    <inkscape:grid
       id="grid1"
       units="mm"
       originx="-45.105026"
       originy="-100.48813"
       spacingx="0.99999998"
       spacingy="1"
       empcolor="#0099e5"
       empopacity="0.30196078"
       color="#0099e5"
       opacity="0.14901961"
       empspacing="5"
       dotted="false"
       gridanglex="30"
       gridanglez="30"
       visible="true" />
    <sodipodi:guide
       position="-89.721645,227.83132"
       orientation="1,0"
       id="guide5"
       inkscape:locked="false" />
  </sodipodi:namedview>
  <defs
     id="defs1" />
  <g
     inkscape:label="Layer 1"
     inkscape:groupmode="layer"
     id="layer1"
     transform="translate(-45.105026,-100.48814)">
    <path
       id="path5"
       style="fill:none;stroke:#000000;stroke-width:2.70896"
       d="m 128.82454,121.57088 c -38.41651,-15.2192 -23.80558,22.52328 -39.023016,24.36098 -14.822095,-2.01196 -1.082082,-37.45788 -37.028018,-24.54173 -2.466319,5.53159 -6.303585,13.22376 -6.314,19.28025 2.3e-5,23.93715 19.40491,43.34203 43.342057,43.34205 23.937147,-2e-5 43.342037,-19.4049 43.342057,-43.34205 -0.002,-6.30336 -1.66327,-13.38295 -4.31908,-19.0995 z"
       sodipodi:nodetypes="ccccscc" />
    <path
       style="fill:none;stroke:#000000;stroke-width:1.865"
       d="m 90.938333,145.78552 c -13.183728,6.01822 -23.357426,13.9784 -13.356569,34.95442"
       id="path6"
       sodipodi:nodetypes="cc" />
    <path
       style="fill:none;stroke:#000000;stroke-width:2.98009"
       d="m 90.89573,168.40399 c 28.37802,-5.6997 31.65029,-27.42763 24.83146,-34.25549"
       id="path7"
       sodipodi:nodetypes="cc" />
    <path
       style="fill:none;stroke:#000000;stroke-width:1.865"
       d="M 56.836457,119.07238 C 69.645468,93.643383 114.37566,97.596598 121.06165,118.78819"
       id="path8"
       sodipodi:nodetypes="cc" />
    <path
       style="fill:none;stroke:#000000;stroke-width:1.865"
       d="m 112.82037,152.32171 c -6.53619,-12.21984 -6.53619,-12.21984 -6.53619,-12.21984 v 0"
       id="path9" />
    <path
       style="fill:none;stroke:#000000;stroke-width:1.865"
       d="m 103.54918,160.14036 c -6.536186,-12.21984 -6.536186,-12.21984 -6.536186,-12.21984 v 0"
       id="path9-7" />
    <path
       style="fill:none;stroke:#000000;stroke-width:1.865"
       d="m 117.93565,148.34316 c 11.36729,0.28418 11.36729,0.28418 11.36729,0.28418"
       id="path10" />
    <path
       style="fill:none;stroke:#000000;stroke-width:1.865"
       d="m 97.772128,166.98276 c 11.367292,0.28418 11.367292,0.28418 11.367292,0.28418"
       id="path10-3" />
    <path
       style="fill:none;stroke:#000000;stroke-width:1.865"
       d="m 61.667556,126.17694 c -1.847472,12.05262 -3.135552,28.429 6.252011,35.2386"
       id="path11"
       sodipodi:nodetypes="cc" />
    <path
       style="fill:none;stroke:#000000;stroke-width:1.865"
       d="m 61.099191,140.10187 c 9.093835,-8.80965 9.093835,-8.80965 9.093835,-8.80965"
       id="path12" />
    <path
       style="fill:none;stroke:#000000;stroke-width:1.865"
       d="m 60.246646,149.47988 c -9.662197,-6.53619 -9.662197,-6.53619 -9.662197,-6.53619"
       id="path13" />
    <path
       style="fill:#008000;stroke:#000000;stroke-width:7.57096"
       d="m 335.16268,544.50797 c -5.10592,-1.75533 -10.28444,-6.70895 -13.80476,-13.20522 -1.49203,-2.75335 -5.92872,-15.35877 -9.8593,-28.01203 -3.93059,-12.65326 -8.38655,-25.4616 -9.90214,-28.46298 -8.41885,-16.67213 -19.17431,-26.15455 -34.23226,-30.18046 -7.65177,-2.04578 -25.84643,-2.28299 -36.24297,-0.47251 -4.01157,0.69858 -7.55567,1.00824 -7.87578,0.68814 -1.10521,-1.10522 6.48051,-10.96503 15.12203,-19.6554 17.76103,-17.86144 40.37836,-29.1888 69.86659,-34.99107 13.91166,-2.73734 42.05497,-3.28581 55.34023,-1.0785 39.8789,6.62576 70.97082,24.45137 84.33679,48.35196 l 2.59357,4.63775 -6.14107,-0.85333 c -10.75157,-1.49396 -26.96541,-0.74686 -34.33356,1.58202 -16.18218,5.11477 -27.6301,17.07199 -35.15412,36.71806 -1.47056,3.83982 -5.08711,15.31287 -8.03676,25.49567 -2.94966,10.1828 -6.5817,20.91913 -8.07119,23.85851 -6.49242,12.81215 -15.11022,18.49986 -23.6053,15.57939 z"
       id="path14"
       transform="scale(0.26458333)" />
    <path
       style="fill:#00b000;fill-opacity:1;stroke:none;stroke-width:7.57096"
       d="m 277.06441,676.85906 c -20.15253,-9.09453 -34.77464,-19.16978 -49.64511,-34.20758 -26.28122,-26.57694 -41.41281,-58.74539 -45.36931,-96.45126 -1.42227,-13.55443 -0.92315,-21.08666 2.22091,-33.51586 2.12933,-8.41773 11.13965,-31.73501 16.733,-43.30234 l 3.11071,-6.43312 10.18351,-3.00184 c 31.54468,-9.29859 52.21762,-7.8515 65.85204,4.60959 8.96026,8.18918 12.23666,15.13311 21.27597,45.09185 7.02061,23.26822 11.02308,31.51091 18.71424,38.5402 3.30795,3.02327 6.57966,5.49689 7.27049,5.49692 0.69081,3e-5 -2.67268,2.21897 -7.47444,4.93097 -24.1593,13.64502 -38.62875,30.33458 -43.81596,50.53886 -4.41877,17.21115 -0.69985,43.56155 9.49024,67.24316 2.14628,4.98792 1.55651,5.01969 -8.54629,0.46045 z m -19.90138,-66.13815 2.21654,-3.11284 -6.17118,-6.31426 c -10.14582,-10.38105 -16.16116,-24.01973 -19.10273,-43.31195 -0.85569,-5.61204 -1.55865,-13.41626 -1.56213,-17.34271 l -0.006,-7.13901 8.31582,-7.89804 c 4.5737,-4.34392 12.66954,-12.11186 17.99075,-17.26209 l 9.67493,-9.36405 -2.95331,-2.963 -2.95331,-2.96301 -8.32447,8.03661 c -4.57847,4.42013 -11.39528,10.93398 -15.14847,14.4752 l -6.82399,6.4386 0.72742,-9.66668 c 0.40009,-5.31667 1.41671,-14.70497 2.25918,-20.8629 2.13557,-15.60986 2.20728,-15.1186 -2.20705,-15.1186 -4.38749,0 -4.15508,-0.62929 -6.46134,17.49528 -2.12754,16.72007 -3.07596,44.21302 -1.90675,55.27328 0.5152,4.87362 0.67085,8.84017 0.34588,8.81456 -0.32497,-0.0256 -7.59919,-4.85688 -16.16494,-10.73615 l -15.57408,-10.68958 -2.41134,2.9491 c -1.32623,1.62201 -2.41373,3.24061 -2.41667,3.59688 -0.007,0.86598 36.5616,25.13002 37.87386,25.13002 0.565,0 2.08155,3.625 3.3701,8.05556 3.49186,12.00642 9.81645,23.14606 17.5321,30.87965 3.68357,3.69214 6.9151,6.71297 7.18118,6.71297 0.26608,0 1.48123,-1.40077 2.70033,-3.11284 z"
       id="path15"
       transform="scale(0.26458333)" />
    <path
       style="fill:#00de00;fill-opacity:1;stroke:none;stroke-width:7.57096"
       d="m 327.59282,689.46567 c -17.75333,-2.04323 -34.27946,-5.61971 -32.12375,-6.95201 1.01542,-0.62756 0.2653,-3.54523 -3.06744,-11.93122 -2.42635,-6.10528 -5.44638,-14.72551 -6.71117,-19.15607 -2.88665,-10.1119 -3.99187,-29.21953 -2.19075,-37.87465 1.98835,-9.55481 8.04808,-20.52258 15.99057,-28.94204 10.85307,-11.50482 33.09216,-25.17178 47.61952,-29.26441 13.13123,-3.69932 21.21724,-15.1701 28.82858,-40.89613 10.14385,-34.28579 13.62019,-42.27491 22.34211,-51.34539 13.36506,-13.89916 35.98673,-15.1033 70.8943,-3.77367 l 13.23004,4.29395 2.06244,4.81149 c 2.96854,6.9253 8.09148,24.15955 10.33507,34.76853 2.74729,12.99073 2.74467,45.21076 -0.005,57.97432 -7.01904,32.58464 -21.34396,59.35926 -43.68716,81.6554 -12.79931,12.77236 -24.14798,21.23839 -38.83358,28.96961 -12.12446,6.3829 -32.22192,13.24877 -45.48034,15.53741 -9.80905,1.6932 -32.34249,2.91454 -39.20373,2.12488 z m 34.23263,-51.17814 c 12.1597,-3.2747 12.29904,-3.28606 31.28599,-2.55267 20.787,0.80293 20.40736,0.90228 20.40736,-5.3408 0,-2.58506 -0.0546,-2.59741 -11.5463,-2.61245 l -11.54631,-0.0151 8.05556,-4.36696 c 10.67145,-5.78504 21.89194,-14.44401 30.38956,-23.45193 8.7619,-9.28808 12.78652,-15.15144 17.97131,-26.18185 l 4.13255,-8.79187 18.70898,0.36922 18.70897,0.36921 0.69996,-3.49975 c 0.38497,-1.92486 0.52044,-3.67926 0.30105,-3.89866 -0.2194,-0.21939 -8.4576,-0.70184 -18.30711,-1.07211 l -17.90821,-0.67322 0.78883,-4.93225 c 1.20823,-7.55448 0.88746,-20.38252 -0.67391,-26.9508 -1.7348,-7.29793 -6.47779,-16.92131 -9.92117,-20.12974 l -2.58381,-2.40752 -4.00298,4.09943 -4.00298,4.09942 3.7241,6.18449 c 8.77932,14.57949 8.0507,33.44466 -2.07797,53.8021 -9.06041,18.21037 -24.88931,33.29266 -46.68792,44.48571 -11.04443,5.67105 -28.73295,12.03248 -39.50231,14.20647 -4.28174,0.86434 -6.56757,1.81844 -6.26234,2.61387 0.26439,0.68898 0.81547,3.48509 1.22464,6.21357 0.86158,5.74547 -0.94138,5.70343 18.62446,0.43419 z m 30.32807,-32.56943 3.23175,-1.67121 -5.83551,-10.94917 c -3.20954,-6.02205 -8.83901,-16.62835 -12.50994,-23.56955 -3.67093,-6.94121 -6.89725,-12.62038 -7.16959,-12.62038 -0.93432,0 -6.83295,3.27722 -6.83295,3.79632 0,0.4862 11.06795,21.37202 20.61316,38.89815 2.33257,4.28287 4.47285,7.78704 4.75618,7.78704 0.28332,0 1.96942,-0.75204 3.7469,-1.6712 z m 34.74068,-29.64938 c 1.50465,-0.68556 2.73572,-1.70919 2.73572,-2.27474 0,-0.9219 -23.17201,-44.71253 -24.20808,-45.74859 -0.73965,-0.73966 -6.94009,2.22113 -6.94009,3.31398 0,1.63789 23.99716,45.95584 24.88404,45.95584 0.43598,0 2.02376,-0.56092 3.52841,-1.24649 z"
       id="path16"
       transform="scale(0.26458333)" />
  </g>
</svg>
