<?xml version="1.0" encoding="UTF-8" standalone="no"?>
<!-- Created with Inkscape (http://www.inkscape.org/) -->

<svg
   width="131.99547mm"
   height="192.21899mm"
   viewBox="0 0 131.99547 192.21899"
   version="1.1"
   id="svg1"
   inkscape:version="1.4.2 (f4327f4, 2025-05-13)"
   sodipodi:docname="paprika.svg"
   xmlns:inkscape="http://www.inkscape.org/namespaces/inkscape"
   xmlns:sodipodi="http://sodipodi.sourceforge.net/DTD/sodipodi-0.dtd"
   xmlns="http://www.w3.org/2000/svg"
   xmlns:svg="http://www.w3.org/2000/svg">
  <sodipodi:namedview
     id="namedview1"
     pagecolor="#ffffff"
     bordercolor="#000000"
     borderopacity="0.25"
     inkscape:showpageshadow="2"
     inkscape:pageopacity="0.0"
     inkscape:pagecheckerboard="0"
     inkscape:deskcolor="#d1d1d1"
     inkscape:document-units="mm"
     showgrid="true"
     inkscape:zoom="0.32917017"
     inkscape:cx="-205.06111"
     inkscape:cy="849.10488"
     inkscape:window-width="1920"
     inkscape:window-height="1129"
     inkscape:window-x="-8"
     inkscape:window-y="-8"
     inkscape:window-maximized="1"
     inkscape:current-layer="layer1">
    <inkscape:grid
       id="grid1"
       units="mm"
       originx="-60.284191"
       originy="-3.8710289"
       spacingx="0.99999998"
       spacingy="1"
       empcolor="#0099e5"
       empopacity="0.30196078"
       color="#0099e5"
       opacity="0.14901961"
       empspacing="5"
       dotted="false"
       gridanglex="30"
       gridanglez="30"
       visible="true" />
  </sodipodi:namedview>
  <defs
     id="defs1" />
  <g
     inkscape:label="Layer 1"
     inkscape:groupmode="layer"
     id="layer1"
     transform="translate(-60.284192,-3.871029)">
    <path
       style="fill:none;stroke:#000000;stroke-width:1.865;stroke-dasharray:none;stroke-opacity:1"
       d="M 105.69824,73.546683 C 91.30648,68.62627 77.225652,71.312105 63.901216,85.603517 c -4.335641,63.285533 -4.798422,76.811633 9.243575,102.884973 8.679249,5.77224 14.888613,5.3913 22.506089,1.60758 -5.779577,-20.89862 -8.686954,-48.49905 -8.037891,-84.39783"
       id="path1"
       sodipodi:nodetypes="ccccc" />
    <path
       style="fill:none;stroke:#000000;stroke-width:1.865;stroke-dasharray:none;stroke-opacity:1"
       d="m 95.248983,189.29228 c 8.037887,5.65292 16.075777,4.76704 24.113667,0.80379 11.71537,6.30035 21.32064,3.10526 30.94587,0 8.51817,-24.0614 8.187,-54.02237 7.2341,-84.39783"
       id="path2"
       sodipodi:nodetypes="cccc" />
    <path
       style="fill:none;stroke:#000000;stroke-width:1.865;stroke-dasharray:none;stroke-opacity:1"
       d="m 92.033827,92.837618 c 11.041293,-35.612085 24.590493,-9.900932 34.161023,-8.841678 12.72426,0.691077 29.81352,-16.212743 30.14209,11.253044 l 0.80379,10.851156"
       id="path3"
       sodipodi:nodetypes="cccc" />
    <path
       style="fill:none;stroke:#000000;stroke-width:1.865;stroke-dasharray:none;stroke-opacity:1"
       d="m 151.18498,79.002677 c 14.48981,-8.300999 27.34949,-11.304083 35.80697,0 11.29758,54.158553 -1.88463,80.340193 -10.79893,111.399453 -8.71492,2.61814 -17.42985,9.57721 -26.14477,-0.56836"
       id="path4"
       sodipodi:nodetypes="cccc" />
    <path
       style="fill:#b52b0b;fill-opacity:1;stroke:none;stroke-width:15.1419;stroke-dasharray:none;stroke-opacity:1"
       d="m 480.53093,724.91235 c -4.49522,-1.12294 -12.94477,-4.09443 -18.77678,-6.60328 l -10.60366,-4.56157 -15.17948,5.6265 c -23.83957,8.8365 -47.69778,7.32746 -67.25562,-4.2539 -4.99927,-2.96036 -12.0734,-31.69676 -19.51362,-79.26782 -7.85235,-50.20616 -11.79066,-101.2729 -13.37761,-173.46308 -1.32117,-60.10005 -1.64021,-63.90745 -5.35514,-63.90745 -3.71416,0 -3.94968,2.79269 -3.9403,46.72226 0.0202,94.60809 9.01172,186.59061 24.50388,250.67316 l 4.97635,20.58441 -15.20124,4.61723 c -13.39626,4.069 -16.60716,4.32233 -27.04169,2.13367 -6.51225,-1.36594 -16.81996,-5.00295 -22.90602,-8.08222 -10.45877,-5.29164 -11.6053,-6.73535 -20.9081,-26.3272 -19.08342,-40.19001 -27.29014,-69.14314 -31.71227,-111.88017 -3.0848,-29.81258 -1.69329,-107.44247 3.42958,-191.33003 l 3.60755,-59.07412 12.15801,-11.45554 c 15.48525,-14.59053 38.32939,-28.7718 56.19507,-34.885 14.86179,-5.08533 46.89824,-6.88933 62.70382,-3.5309 l 7.92599,1.68414 -9.41704,9.41704 c -10.00026,10.00027 -18.85803,25.82257 -26.92185,48.08953 -4.15707,11.4791 -4.45342,13.91773 -1.88861,15.54119 4.9607,3.14001 5.47462,2.58292 10.54838,-11.43452 14.93928,-41.27321 32.34405,-58.93486 53.49888,-54.28848 3.60973,0.79283 15.69507,7.59004 26.85632,15.10491 11.16125,7.51487 23.21873,15.17627 26.79443,17.02533 10.71699,5.54198 28.98574,4.19597 57.38574,-4.22806 29.37577,-8.71348 44.04473,-9.83948 50.74262,-3.89508 8.84314,7.84833 12.47839,20.64721 14.68353,51.69728 1.1563,16.28146 3.0551,42.16932 4.21959,57.52859 4.50965,59.48157 1.5443,154.07258 -6.58589,210.08229 -4.12672,28.42928 -14.84317,74.97616 -19.08764,82.90702 -5.03898,9.4154 -63.17186,18.37615 -84.55718,13.03387 z"
       id="path5"
       transform="scale(0.26458333)" />
    <path
       style="fill:#b52b0b;fill-opacity:1;stroke:none;stroke-width:15.1419;stroke-dasharray:none;stroke-opacity:1"
       d="m 593.55377,731.05538 c -3.76972,-1.26885 -9.80652,-4.84193 -13.4151,-7.94021 l -6.56106,-5.6332 5.41975,-18.25927 c 6.83344,-23.022 14.87463,-66.44944 18.49581,-99.88896 1.7671,-16.31814 2.81409,-55.33925 2.85307,-106.3334 0.0927,-121.21751 -5.31078,-173.61045 -19.52477,-189.31674 -3.05798,-3.37902 -2.10735,-4.22833 12.43391,-11.10861 24.39025,-11.54038 35.79514,-14.88817 54.51438,-16.00214 20.72178,-1.23314 34.33342,3.51741 46.87279,16.35888 6.57897,6.73748 8.33971,10.6221 10.89358,24.03394 14.58698,76.60453 16.46937,152.77531 5.40332,218.64538 -5.79936,34.52036 -15.05525,70.43373 -33.86278,131.3894 l -14.91298,48.33337 -20.16149,7.91355 c -22.32929,8.76445 -38.07002,11.30124 -48.44843,7.80801 z"
       id="path6"
       transform="scale(0.26458333)" />
    <path
       style="fill:#b52b0b;fill-opacity:1;stroke:none;stroke-width:1.865;stroke-dasharray:none;stroke-opacity:1"
       d="M 110.11908,74.752368 121.37212,61.087957"
       id="path7" />
    <path
       style="fill:none;fill-opacity:1;stroke:#000000;stroke-width:1.865;stroke-dasharray:none;stroke-opacity:1"
       d="m 102.88498,71.537213 c 3.3223,-4.994221 4.77857,-10.734851 15.27199,-12.860623 V 28.132611 L 95.65088,22.506089 C 82.215856,11.302484 88.31174,6.9921407 100.47361,4.8227334 l 23.68322,5.5290056 c 15.43456,3.224784 8.2898,5.333354 13.02219,14.979441 l -1.43621,12.211475 -1.51006,21.937723 c 13.03187,0.827546 13.78153,11.480863 20.09472,17.683355"
       id="path8"
       sodipodi:nodetypes="cccccccccc" />
    <path
       style="fill:#39e14b;fill-opacity:1;stroke:#000000;stroke-width:15.1419;stroke-dasharray:none;stroke-opacity:1"
       d="m 462.46451,305.74173 c -6.16136,-3.93191 -18.46987,-11.83038 -27.35224,-17.55214 -9.20661,-5.93061 -19.65591,-10.87346 -24.30504,-11.49705 -4.48541,-0.60161 -9.93038,-2.39184 -12.09996,-3.97827 -3.79176,-2.77261 -3.74912,-3.20125 1.10014,-11.05852 12.07291,-19.56169 26.44888,-30.84125 43.34836,-34.01162 l 7.95565,-1.49249 V 164.35027 102.54889 L 409.75954,92.365935 C 381.68395,85.452287 365.80237,80.43543 360.29293,76.739846 351.46318,70.817088 339.92009,56.450702 338.06118,49.070484 c -2.49647,-9.911468 7.13219,-17.45221 29.98064,-23.479519 10.12107,-2.669888 12.84078,-2.252661 65.40242,10.033313 30.16322,7.050473 58.01054,14.32251 61.88293,16.160082 7.07379,3.356735 11.63614,11.665234 11.63614,21.190611 0,2.566933 1.54079,9.189139 3.42399,14.716015 2.88268,8.46021 3.05536,12.850704 1.09222,27.771574 -1.9167,14.56798 -8.81251,100.71458 -8.81251,110.09115 0,1.53812 5.35021,3.71784 12.65129,5.15424 18.33016,3.60624 27.91596,11.61714 45.03694,37.63759 16.94162,25.74785 16.62844,27.97005 -3.98449,28.27242 -6.64307,0.0975 -22.15835,3.26145 -35.44447,7.22809 -12.9963,3.88012 -28.94632,7.50248 -35.44447,8.0497 -10.59062,0.89183 -12.97558,0.25417 -23.0173,-6.15402 z"
       id="path9"
       transform="scale(0.26458333)" />
    <text
       xml:space="preserve"
       style="font-size:3.175px;fill:#39e14b;fill-opacity:1;stroke:#000000;stroke-width:1.865;stroke-dasharray:none;stroke-opacity:1"
       x="84.686317"
       y="222.23056"
       id="text10"><tspan
         sodipodi:role="line"
         id="tspan10"
         style="stroke-width:1.865"
         x="84.686317"
         y="222.23056" /></text>
  </g>
</svg>
