<?xml version="1.0" encoding="UTF-8" standalone="no"?>
<!-- Created with Inkscape (http://www.inkscape.org/) -->

<svg
   width="46.763668mm"
   height="85.905106mm"
   viewBox="0 0 46.763666 85.905105"
   version="1.1"
   id="svg1"
   inkscape:version="1.4.2 (f4327f4, 2025-05-13)"
   sodipodi:docname="carrot.svg"
   xmlns:inkscape="http://www.inkscape.org/namespaces/inkscape"
   xmlns:sodipodi="http://sodipodi.sourceforge.net/DTD/sodipodi-0.dtd"
   xmlns="http://www.w3.org/2000/svg"
   xmlns:svg="http://www.w3.org/2000/svg">
  <sodipodi:namedview
     id="namedview1"
     pagecolor="#ffffff"
     bordercolor="#000000"
     borderopacity="0.25"
     inkscape:showpageshadow="2"
     inkscape:pageopacity="0.0"
     inkscape:pagecheckerboard="0"
     inkscape:deskcolor="#d1d1d1"
     inkscape:document-units="mm"
     showgrid="true"
     inkscape:zoom="0.87811988"
     inkscape:cx="200.99761"
     inkscape:cy="246.54948"
     inkscape:window-width="1920"
     inkscape:window-height="1129"
     inkscape:window-x="-8"
     inkscape:window-y="-8"
     inkscape:window-maximized="1"
     inkscape:current-layer="layer1">
    <inkscape:grid
       id="grid1"
       units="mm"
       originx="-43.889523"
       originy="-18.748924"
       spacingx="0.99999998"
       spacingy="1"
       empcolor="#0099e5"
       empopacity="0.30196078"
       color="#0099e5"
       opacity="0.14901961"
       empspacing="5"
       dotted="false"
       gridanglex="30"
       gridanglez="30"
       visible="true" />
  </sodipodi:namedview>
  <defs
     id="defs1" />
  <g
     inkscape:label="Layer 1"
     inkscape:groupmode="layer"
     id="layer1"
     transform="translate(-43.889527,-18.748924)">
    <g
       id="g1"
       transform="matrix(0.46502135,0,0,0.46502135,23.47996,10.030274)">
      <path
         style="opacity:0.99;fill:#ed9121;fill-opacity:1;stroke:#ed9121;stroke-width:0.779484;stroke-linecap:round;stroke-linejoin:bevel;stroke-opacity:1;paint-order:fill markers stroke"
         d="m 74.896079,202.60334 c -1.93828,-0.62273 -2.08257,-0.78502 -3.69193,-4.1526 -0.92114,-1.9275 -2.35854,-5.6463 -3.19421,-8.26401 -1.6674,-5.22306 -5.7976,-20.8751 -5.7976,-21.97091 0,-0.43672 1.63255,-1.56331 4.47417,-3.08754 2.4608,-1.31996 4.47418,-2.57975 4.47418,-2.79955 0,-0.2198 -2.29172,-1.54844 -5.09271,-2.95254 -4.7181,-2.36511 -5.11034,-2.65529 -5.33234,-3.94482 -0.36859,-2.14103 -3.65582,-25.11973 -3.75875,-26.27477 -0.0753,-0.8445 0.20312,-1.11602 1.6135,-1.57374 0.93744,-0.30424 5.39564,-1.72582 9.9071,-3.15906 4.51146,-1.43324 8.20265,-2.78557 8.20265,-3.00518 0,-0.21961 -4.42315,-2.61247 -9.82922,-5.31747 l -9.82922,-4.91817 0.29364,-2.43403 c 0.43281,-3.5876 2.08008,-8.45607 3.90734,-11.548088 1.93603,-3.276063 6.996,-8.575945 9.31044,-9.751877 3.52051,-1.788716 8.82214,-3.172672 12.96481,-3.384373 5.35349,-0.273577 8.71946,0.530862 14.79791,3.536582 l 4.784281,2.365764 1.06466,3.370236 c 5.24886,16.615576 2.9028,26.820176 -7.432451,32.328806 -2.2809,1.21571 -2.91159,1.89105 -6.38133,6.83305 -2.11766,3.0162 -3.85028,5.69313 -3.85028,5.94872 0,0.55341 0.98131,0.55795 8.50251,0.0393 3.15303,-0.21741 5.777851,-0.35022 5.832931,-0.29515 0.21804,0.21805 -1.609791,20.07538 -2.419691,26.28723 -0.9809,7.52342 -2.38008,15.54828 -2.94369,16.8832 -0.20991,0.4972 -0.92432,1.03707 -1.58755,1.1997 -3.37326,0.82713 -9.51507,2.90732 -9.51507,3.2227 0,0.19796 1.96544,0.96038 4.36764,1.69426 2.40221,0.73388 4.81239,1.47226 5.35595,1.64086 0.94599,0.29341 0.80002,0.57438 -3.40889,6.56167 -3.22512,4.58782 -4.73794,6.38354 -5.67553,6.73687 -2.14714,0.80913 -7.84594,0.91332 -10.11325,0.18489 z"
         id="path2" />
      <path
         style="opacity:0.99;fill:#008000;fill-opacity:1;stroke:none;stroke-width:0.484;stroke-linecap:round;stroke-linejoin:bevel;stroke-opacity:1;paint-order:fill markers stroke"
         d="M 75.847918,84.796269 74.569584,67.751792 67.751792,66.473458 64.342898,60.50789 49.855093,64.342898 51.985653,54.116213 43.889527,53.263987 v -8.096125 l 4.687229,-10.226686 10.226685,5.113343 5.113346,-7.243903 5.113342,9.800574 5.965566,4.26112 5.965566,-2.556671 -1.704446,9.37446 2.556671,11.505022 -0.852225,4.26112 7.670014,-13.209471 -1.278335,-14.487803 -5.539454,-4.261119 2.556672,-6.817792 9.800574,-2.556671 2.130557,8.948351 V 21.731707 l -3.835006,-2.982783 9.374467,0.426112 3.835,14.487803 7.2439,-9.374461 8.94836,2.982784 -3.83501,6.817791 5.96556,5.965566 -14.06169,6.39168 4.26112,4.261117 -11.93113,5.965568 -6.817794,6.391677 -2.982783,6.39168 25.566717,-9.800574 v -7.243903 l 7.67001,-2.13056 16.19225,6.817792 2.55668,7.670014 -17.47059,2.982782 8.94835,7.243903 -10.6528,-2.13056 3.40889,10.652797 -15.34002,-2.556671 2.98278,-11.50502 -8.09613,2.13056 -6.81779,3.408894 -10.652795,-0.426111 -5.539454,8.522237 z"
         id="path3" />
    </g>
  </g>
</svg>
