<?xml version="1.0" encoding="UTF-8" standalone="no"?>
<!-- Created with Inkscape (http://www.inkscape.org/) -->

<svg
   width="146.561mm"
   height="190.92865mm"
   viewBox="0 0 146.561 190.92865"
   version="1.1"
   id="svg1"
   inkscape:version="1.3.2 (091e20e, 2023-11-25, custom)"
   sodipodi:docname="spinach.svg"
   xmlns:inkscape="http://www.inkscape.org/namespaces/inkscape"
   xmlns:sodipodi="http://sodipodi.sourceforge.net/DTD/sodipodi-0.dtd"
   xmlns="http://www.w3.org/2000/svg"
   xmlns:svg="http://www.w3.org/2000/svg">
  <sodipodi:namedview
     id="namedview1"
     pagecolor="#ffffff"
     bordercolor="#000000"
     borderopacity="0.25"
     inkscape:showpageshadow="2"
     inkscape:pageopacity="0.0"
     inkscape:pagecheckerboard="0"
     inkscape:deskcolor="#d1d1d1"
     inkscape:document-units="mm"
     showgrid="true"
     inkscape:zoom="0.21952997"
     inkscape:cx="-31.886307"
     inkscape:cy="168.54191"
     inkscape:window-width="971"
     inkscape:window-height="961"
     inkscape:window-x="971"
     inkscape:window-y="0"
     inkscape:window-maximized="0"
     inkscape:current-layer="layer1">
    <inkscape:grid
       id="grid1"
       units="mm"
       originx="-34.35005"
       originy="-64.128271"
       spacingx="0.99999998"
       spacingy="1"
       empcolor="#0099e5"
       empopacity="0.30196078"
       color="#0099e5"
       opacity="0.14901961"
       empspacing="5"
       dotted="false"
       gridanglex="30"
       gridanglez="30"
       visible="true" />
  </sodipodi:namedview>
  <defs
     id="defs1" />
  <g
     inkscape:label="Layer 1"
     inkscape:groupmode="layer"
     id="layer1"
     transform="translate(-34.35005,-64.128273)">
    <path
       style="opacity:0.99;fill:none;stroke:#000000;stroke-width:0.484;stroke-linecap:round;stroke-linejoin:bevel;stroke-opacity:1;paint-order:fill markers stroke"
       d="M 103.54519,254.81492 H 83.517932 c -3.368842,-9.61848 -5.08921,-17.58849 -14.913916,-33.66284 -0.961529,-14.7114 -13.953871,-26.90484 -31.958391,-33.66284 -7.287192,-23.16997 6.159852,-30.21331 18.748922,-37.92396 0.475112,20.53945 7.841609,42.32932 29.827833,48.15064 -4.999513,20.27339 -2.878625,38.17331 -1.278336,56.24677"
       id="path1"
       sodipodi:nodetypes="ccccccc" />
    <path
       style="opacity:0.99;fill:none;stroke:#000000;stroke-width:0.484;stroke-linecap:round;stroke-linejoin:bevel;stroke-opacity:1;paint-order:fill markers stroke"
       d="M 55.394547,149.56528 C 51.701577,133.51507 42.822675,130.42968 44.315638,101.41464 71.895667,33.773956 93.61482,78.542296 120.16356,83.091821 c -1.64047,10.08465 -4.97168,20.169299 -1.27834,30.253949 17.56019,6.67415 12.18219,16.87319 16.61836,25.56671 -33.42539,38.21088 -29.1907,79.82312 -51.133422,114.6241"
       id="path2"
       sodipodi:nodetypes="cccccc" />
    <path
       style="opacity:0.99;fill:none;stroke:#000000;stroke-width:0.484;stroke-linecap:round;stroke-linejoin:bevel;stroke-opacity:1;paint-order:fill markers stroke"
       d="m 120.16356,83.517932 c 38.28476,-15.023525 53.9183,-0.0014 60.50789,30.253948 -3.02181,21.32175 -16.7712,17.61248 -25.8401,24.82435 l -9.10108,23.75241 -19.17504,24.28837 -34.088947,68.17791"
       id="path3"
       sodipodi:nodetypes="cccccc" />
    <path
       style="opacity:0.99;fill:none;stroke:#000000;stroke-width:0.484;stroke-linecap:round;stroke-linejoin:bevel;stroke-opacity:1;paint-order:fill markers stroke"
       d="m 152.12195,140.61693 c 35.80484,3.68015 21.86621,25.89776 24.71449,40.90674 -2.71465,13.76167 -16.45434,16.49831 -26.41894,23.01004 -1.1363,6.24964 -7.38594,9.09039 -18.74892,8.52224 -10.53266,34.02444 -19.47611,31.49711 -28.97561,41.75897"
       id="path4"
       sodipodi:nodetypes="ccccc" />
    <path
       style="opacity:0.99;fill:#008000;stroke:#113a04;stroke-width:2.94608;stroke-linecap:round;stroke-linejoin:bevel;stroke-opacity:1;paint-order:fill markers stroke"
       d="m 306.15344,929.59455 c -9.95014,-28.25186 -19.12399,-48.58792 -33.84013,-75.01495 -8.90539,-15.99215 -12.04938,-23.28781 -12.90161,-29.93826 -3.91822,-30.57608 -29.50766,-65.69557 -65.09417,-89.33662 -14.48896,-9.62539 -38.85254,-22.4947 -49.8317,-26.32206 -4.21814,-1.47045 -5.09428,-2.98899 -7.78368,-13.49082 -4.55585,-17.79019 -4.16673,-48.84923 0.7682,-61.31616 7.86501,-19.86907 24.911,-37.27997 54.9846,-56.16169 l 15.29977,-9.60597 1.08763,16.03297 c 5.54926,81.80235 42.94611,140.92474 101.98448,161.23194 9.29167,3.19603 8.98099,1.15369 4.22922,27.80172 -7.37321,41.34904 -8.20016,88.40696 -2.65117,150.86666 1.29421,14.56765 2.1657,26.67404 1.93664,26.90308 -0.22904,0.22905 -3.91368,-9.51338 -8.18808,-21.64984 z"
       id="path5"
       transform="scale(0.26458333)" />
    <path
       style="opacity:0.99;fill:#008000;stroke:#113a04;stroke-width:2.94608;stroke-linecap:round;stroke-linejoin:bevel;stroke-opacity:1;paint-order:fill markers stroke"
       d="m 318.18513,948.38334 c -0.50346,-2.98903 -2.00268,-19.46174 -3.33159,-36.60605 -4.51915,-58.30142 -2.48509,-111.22511 5.7316,-149.12933 1.71913,-7.93051 3.1257,-14.93834 3.1257,-15.57296 0,-0.63462 -3.80481,-2.39083 -8.45513,-3.90269 C 253.9843,723.25238 217.55618,664.9728 211.61642,577.36486 210.32161,558.26721 206.49915,545.51944 193.0827,515.55558 174.41705,473.8683 170.80294,458.55285 169.578,415.95017 l -0.8903,-30.96405 6.03153,-14.13 c 18.67846,-43.75785 39.45823,-77.76007 60.3767,-98.79521 22.72986,-22.85662 43.89966,-30.58471 69.36011,-25.32005 18.13595,3.75011 33.59231,10.93196 69.28312,32.19264 38.35756,22.84924 46.82576,27.13171 64.62269,32.68051 8.3317,2.59769 13.72877,5.10489 13.3741,6.2129 -0.32706,1.02172 -2.60428,12.72856 -5.0605,26.0152 -5.48927,29.69352 -6.24667,62.05345 -1.79049,76.49883 2.71928,8.815 2.79879,8.8915 16.47205,15.84536 15.88673,8.0796 26.28907,17.46217 32.12211,28.9731 2.29122,4.5215 5.8883,17.03735 8.11983,28.25241 2.20349,11.07414 4.98246,22.52702 6.1755,25.45083 2.16824,5.31376 2.16365,5.32295 -10.70117,21.44087 -23.37579,29.28678 -44.53237,63.83491 -60.51428,98.81824 -17.02716,37.27125 -26.13805,63.37315 -48.43105,138.75057 -18.02324,60.94047 -28.56431,92.61941 -39.37392,118.33 -6.97664,16.5939 -22.50268,47.40636 -27.43793,54.45242 -2.09373,2.9892 -2.26594,2.86428 -3.13097,-2.2714 z"
       id="path6"
       transform="scale(0.26458333)" />
    <path
       style="opacity:0.99;fill:#008000;stroke:#113a04;stroke-width:2.94608;stroke-linecap:round;stroke-linejoin:bevel;stroke-opacity:1;paint-order:fill markers stroke"
       d="m 325.60625,950.59863 c 8.26292,-13.42242 24.83396,-47.83876 32.37448,-67.23845 8.23709,-21.19182 20.32355,-58.75419 34.20195,-106.29311 36.48366,-124.97073 61.5804,-177.60191 117.60753,-246.63856 l 4.10916,-5.0633 -3.17668,-9.43121 c -1.74719,-5.18717 -4.3301,-16.07998 -5.73978,-24.20625 -3.16939,-18.27009 -5.81052,-25.90822 -12.13924,-35.1067 -6.68449,-9.71556 -15.12015,-16.52277 -30.05249,-24.25104 -11.64016,-6.02439 -12.70683,-7.00982 -14.81772,-13.68926 -4.14721,-13.12293 -3.30346,-43.96564 2.00327,-73.22814 2.57016,-14.17241 5.32613,-26.61309 6.12437,-27.64595 2.10739,-2.72676 38.71943,-14.37445 58.01153,-18.45568 21.52112,-4.55278 53.5305,-4.96269 68.88899,-0.88218 44.14024,11.72737 72.36055,44.23082 91.13049,104.96188 7.10574,22.99102 7.4372,32.11355 1.76901,48.6897 -9.84162,28.78103 -21.4759,39.18486 -60.69891,54.27935 -8.40968,3.23635 -18.91396,8.07842 -23.34284,10.76016 l -8.0525,4.87588 -15.95384,42.15907 c -8.77461,23.18747 -17.15995,44.33519 -18.6341,46.99492 -1.47414,2.65971 -18.46547,24.76385 -37.75852,49.1203 L 476.38215,704.59449 412.12327,833.032 347.86439,961.46952 h -14.47516 -14.47517 z"
       id="path7"
       transform="scale(0.26458333)" />
    <path
       style="opacity:0.99;fill:#008000;stroke:#113a04;stroke-width:2.94608;stroke-linecap:round;stroke-linejoin:bevel;stroke-opacity:1;paint-order:fill markers stroke"
       d="m 416.95823,833.032 64.26235,-128.43751 35.46632,-44.79976 c 33.02342,-41.71397 35.85924,-45.81842 41.17036,-59.58857 3.1372,-8.13383 10.03989,-26.02204 15.3393,-39.75157 l 9.63529,-24.96277 7.72709,0.43012 c 18.56964,1.03365 45.86793,12.09244 58.10515,23.53893 16.8911,15.79966 21.16181,33.62626 18.17904,75.88205 -1.06295,15.05819 -1.70044,33.90106 -1.41665,41.87304 0.46558,13.07896 0.0792,15.42724 -3.95662,24.045 -9.52115,20.33087 -22.7178,31.6592 -59.52388,51.09683 -34.39789,18.16583 -34.21696,18.03873 -37.34894,26.23966 -5.92196,15.50643 -21.87481,23.30845 -50.38607,24.64219 l -18.05984,0.84484 -4.30536,13.06458 c -12.10752,36.74015 -26.54463,67.02588 -41.26086,86.55579 -9.66235,12.82291 -18.82281,21.36654 -40.71223,37.97076 -7.0862,5.37526 -15.0126,12.02784 -17.6142,14.78355 -4.72639,5.00633 -4.7442,5.01036 -22.14639,5.01036 H 352.6959 Z"
       id="path8"
       transform="scale(0.26458333)" />
    <path
       style="opacity:0.99;fill:none;stroke:#113a04;stroke-width:1.884;stroke-linecap:round;stroke-linejoin:bevel;stroke-dasharray:none;stroke-opacity:1;paint-order:fill markers stroke"
       d="M 74.143472,97.153514 C 94.3809,106.94518 101.62624,122.30489 98.005737,142.32138"
       id="path9"
       sodipodi:nodetypes="cc" />
    <path
       style="opacity:0.99;fill:none;stroke:#113a04;stroke-width:1.884;stroke-linecap:round;stroke-linejoin:bevel;stroke-dasharray:none;stroke-opacity:1;paint-order:fill markers stroke"
       d="m 141.89526,122.72023 c 2.00187,-10.31204 2.49167,-20.85671 18.74893,-28.975612"
       id="path10"
       sodipodi:nodetypes="cc" />
    <path
       style="opacity:0.99;fill:none;stroke:#113a04;stroke-width:1.884;stroke-linecap:round;stroke-linejoin:bevel;stroke-dasharray:none;stroke-opacity:1;paint-order:fill markers stroke"
       d="m 136.78192,195.58536 c 12.71784,-2.08211 21.65474,-9.56557 26.41894,-23.01004"
       id="path11"
       sodipodi:nodetypes="cc" />
    <path
       style="opacity:0.99;fill:none;stroke:#113a04;stroke-width:1.884;stroke-linecap:round;stroke-linejoin:bevel;stroke-dasharray:none;stroke-opacity:1;paint-order:fill markers stroke"
       d="m 46.87231,175.5581 c 13.26164,25.18192 18.503031,22.03908 18.748923,21.73171"
       id="path12"
       sodipodi:nodetypes="cc" />
  </g>
</svg>
